  0
SECTION
  2
HEADER
  9
$ACADVER
  1
AC1027
  9
$ACADMAINTVER
 70
105
  9
$DWGCODEPAGE
  3
ANSI_1252
  9
$LASTSAVEDBY
  1
ezdxf
  9
$REQUIREDVERSIONS
160
0
  9
$INSBASE
 10
0.0
 20
0.0
 30
0.0
  9
$EXTMIN
 10
1e+20
 20
1e+20
 30
1e+20
  9
$EXTMAX
 10
-1e+20
 20
-1e+20
 30
-1e+20
  9
$LIMMIN
 10
0.0
 20
0.0
  9
$LIMMAX
 10
420.0
 20
297.0
  9
$ORTHOMODE
 70
0
  9
$REGENMODE
 70
1
  9
$FILLMODE
 70
1
  9
$QTEXTMODE
 70
0
  9
$MIRRTEXT
 70
1
  9
$LTSCALE
 40
0.35
  9
$ATTMODE
 70
1
  9
$TEXTSIZE
 40
2.5
  9
$TRACEWID
 40
1.0
  9
$TEXTSTYLE
  7
OpenSans
  9
$CLAYER
  8
0
  9
$CELTYPE
  6
ByLayer
  9
$CECOLOR
 62
256
  9
$CELTSCALE
 40
1.0
  9
$DISPSILH
 70
0
  9
$DIMSCALE
 40
1.0
  9
$DIMASZ
 40
0.175
  9
$DIMEXO
 40
0.125
  9
$DIMDLI
 40
3.75
  9
$DIMRND
 40
0.0
  9
$DIMDLE
 40
0.0
  9
$DIMEXE
 40
0.375
  9
$DIMTP
 40
0.0
  9
$DIMTM
 40
0.0
  9
$DIMTXT
 40
0.25
  9
$DIMCEN
 40
2.5
  9
$DIMTSZ
 40
0.0
  9
$DIMTOL
 70
0
  9
$DIMLIM
 70
0
  9
$DIMTIH
 70
0
  9
$DIMTOH
 70
0
  9
$DIMSE1
 70
0
  9
$DIMSE2
 70
0
  9
$DIMTAD
 70
1
  9
$DIMZIN
 70
12
  9
$DIMBLK
  1
ARCHTICK
  9
$DIMASO
 70
1
  9
$DIMSHO
 70
1
  9
$DIMPOST
  1

  9
$DIMAPOST
  1

  9
$DIMALT
 70
0
  9
$DIMALTD
 70
3
  9
$DIMALTF
 40
0.03937007874
  9
$DIMLFAC
 40
100.0
  9
$DIMTOFL
 70
1
  9
$DIMTVP
 40
0.0
  9
$DIMTIX
 70
0
  9
$DIMSOXD
 70
0
  9
$DIMSAH
 70
0
  9
$DIMBLK1
  1

  9
$DIMBLK2
  1

  9
$DIMSTYLE
  2
EZDXF
  9
$DIMCLRD
 70
0
  9
$DIMCLRE
 70
0
  9
$DIMCLRT
 70
0
  9
$DIMTFAC
 40
0.5
  9
$DIMGAP
 40
0.1
  9
$DIMJUST
 70
0
  9
$DIMSD1
 70
0
  9
$DIMSD2
 70
0
  9
$DIMTOLJ
 70
0
  9
$DIMTZIN
 70
8
  9
$DIMALTZ
 70
0
  9
$DIMALTTZ
 70
0
  9
$DIMUPT
 70
1
  9
$DIMDEC
 70
2
  9
$DIMTDEC
 70
2
  9
$DIMALTU
 70
2
  9
$DIMALTTD
 70
3
  9
$DIMTXSTY
  7
OpenSansCondensed-Light
  9
$DIMAUNIT
 70
0
  9
$DIMADEC
 70
2
  9
$DIMALTRND
 40
0.0
  9
$DIMAZIN
 70
3
  9
$DIMDSEP
 70
46
  9
$DIMATFIT
 70
3
  9
$DIMFRAC
 70
0
  9
$DIMLDRBLK
  1

  9
$DIMLUNIT
 70
2
  9
$DIMLWD
 70
-2
  9
$DIMLWE
 70
-2
  9
$DIMTMOVE
 70
2
  9
$DIMFXL
 40
1.0
  9
$DIMFXLON
 70
0
  9
$DIMJOGANG
 40
0.785398163397
  9
$DIMTFILL
 70
0
  9
$DIMTFILLCLR
 70
0
  9
$DIMARCSYM
 70
0
  9
$DIMLTYPE
  6

  9
$DIMLTEX1
  6

  9
$DIMLTEX2
  6

  9
$DIMTXTDIRECTION
 70
0
  9
$LUNITS
 70
2
  9
$LUPREC
 70
4
  9
$SKETCHINC
 40
1.0
  9
$FILLETRAD
 40
10.0
  9
$AUNITS
 70
0
  9
$AUPREC
 70
2
  9
$MENU
  1
.
  9
$ELEVATION
 40
0.0
  9
$PELEVATION
 40
0.0
  9
$THICKNESS
 40
0.0
  9
$LIMCHECK
 70
0
  9
$CHAMFERA
 40
0.0
  9
$CHAMFERB
 40
0.0
  9
$CHAMFERC
 40
0.0
  9
$CHAMFERD
 40
0.0
  9
$SKPOLY
 70
0
  9
$TDCREATE
 40
2461308.133113426
  9
$TDUCREATE
 40
2458532.153996898
  9
$TDUPDATE
 40
2461308.133136574
  9
$TDUUPDATE
 40
2458532.1544311
  9
$TDINDWG
 40
0.0
  9
$TDUSRTIMER
 40
0.0
  9
$USRTIMER
 70
1
  9
$ANGBASE
 50
0.0
  9
$ANGDIR
 70
0
  9
$PDMODE
 70
0
  9
$PDSIZE
 40
0.0
  9
$PLINEWID
 40
0.0
  9
$SPLFRAME
 70
0
  9
$SPLINETYPE
 70
6
  9
$SPLINESEGS
 70
8
  9
$HANDSEED
  5
1C1
  9
$SURFTAB1
 70
6
  9
$SURFTAB2
 70
6
  9
$SURFTYPE
 70
6
  9
$SURFU
 70
6
  9
$SURFV
 70
6
  9
$UCSBASE
  2

  9
$UCSNAME
  2

  9
$UCSORG
 10
0.0
 20
0.0
 30
0.0
  9
$UCSXDIR
 10
1.0
 20
0.0
 30
0.0
  9
$UCSYDIR
 10
0.0
 20
1.0
 30
0.0
  9
$UCSORTHOREF
  2

  9
$UCSORTHOVIEW
 70
0
  9
$UCSORGTOP
 10
0.0
 20
0.0
 30
0.0
  9
$UCSORGBOTTOM
 10
0.0
 20
0.0
 30
0.0
  9
$UCSORGLEFT
 10
0.0
 20
0.0
 30
0.0
  9
$UCSORGRIGHT
 10
0.0
 20
0.0
 30
0.0
  9
$UCSORGFRONT
 10
0.0
 20
0.0
 30
0.0
  9
$UCSORGBACK
 10
0.0
 20
0.0
 30
0.0
  9
$PUCSBASE
  2

  9
$PUCSNAME
  2

  9
$PUCSORG
 10
0.0
 20
0.0
 30
0.0
  9
$PUCSXDIR
 10
1.0
 20
0.0
 30
0.0
  9
$PUCSYDIR
 10
0.0
 20
1.0
 30
0.0
  9
$PUCSORTHOREF
  2

  9
$PUCSORTHOVIEW
 70
0
  9
$PUCSORGTOP
 10
0.0
 20
0.0
 30
0.0
  9
$PUCSORGBOTTOM
 10
0.0
 20
0.0
 30
0.0
  9
$PUCSORGLEFT
 10
0.0
 20
0.0
 30
0.0
  9
$PUCSORGRIGHT
 10
0.0
 20
0.0
 30
0.0
  9
$PUCSORGFRONT
 10
0.0
 20
0.0
 30
0.0
  9
$PUCSORGBACK
 10
0.0
 20
0.0
 30
0.0
  9
$USERI1
 70
0
  9
$USERI2
 70
0
  9
$USERI3
 70
0
  9
$USERI4
 70
0
  9
$USERI5
 70
0
  9
$USERR1
 40
0.0
  9
$USERR2
 40
0.0
  9
$USERR3
 40
0.0
  9
$USERR4
 40
0.0
  9
$USERR5
 40
0.0
  9
$WORLDVIEW
 70
1
  9
$SHADEDGE
 70
3
  9
$SHADEDIF
 70
70
  9
$TILEMODE
 70
1
  9
$MAXACTVP
 70
64
  9
$PINSBASE
 10
0.0
 20
0.0
 30
0.0
  9
$PLIMCHECK
 70
0
  9
$PEXTMIN
 10
1e+20
 20
1e+20
 30
1e+20
  9
$PEXTMAX
 10
-1e+20
 20
-1e+20
 30
-1e+20
  9
$PLIMMIN
 10
0.0
 20
0.0
  9
$PLIMMAX
 10
420.0
 20
297.0
  9
$UNITMODE
 70
0
  9
$VISRETAIN
 70
1
  9
$PLINEGEN
 70
0
  9
$PSLTSCALE
 70
1
  9
$TREEDEPTH
 70
3020
  9
$CMLSTYLE
  2
Standard
  9
$CMLJUST
 70
0
  9
$CMLSCALE
 40
20.0
  9
$PROXYGRAPHICS
 70
1
  9
$MEASUREMENT
 70
1
  9
$CELWEIGHT
370
-1
  9
$ENDCAPS
280
0
  9
$JOINSTYLE
280
0
  9
$LWDISPLAY
290
0
  9
$INSUNITS
 70
4
  9
$HYPERLINKBASE
  1

  9
$STYLESHEET
  1

  9
$XEDIT
290
1
  9
$CEPSNTYPE
380
0
  9
$PSTYLEMODE
290
1
  9
$FINGERPRINTGUID
  2
{1AED6358-7FAD-4065-BE08-DC078A6DDFDA}
  9
$VERSIONGUID
  2
{7AB92B8B-446A-4AB4-86FD-0464E617CE36}
  9
$EXTNAMES
290
1
  9
$PSVPSCALE
 40
0.0
  9
$OLESTARTUP
290
0
  9
$SORTENTS
280
127
  9
$INDEXCTL
280
0
  9
$HIDETEXT
280
1
  9
$XCLIPFRAME
280
1
  9
$HALOGAP
280
0
  9
$OBSCOLOR
 70
257
  9
$OBSLTYPE
280
0
  9
$INTERSECTIONDISPLAY
280
0
  9
$INTERSECTIONCOLOR
 70
257
  9
$DIMASSOC
280
2
  9
$PROJECTNAME
  1

  9
$CAMERADISPLAY
290
0
  9
$LENSLENGTH
 40
50.0
  9
$CAMERAHEIGHT
 40
0.0
  9
$STEPSPERSEC
 40
24.0
  9
$STEPSIZE
 40
100.0
  9
$3DDWFPREC
 40
2.0
  9
$PSOLWIDTH
 40
0.005
  9
$PSOLHEIGHT
 40
0.08
  9
$LOFTANG1
 40
1.570796326795
  9
$LOFTANG2
 40
1.570796326795
  9
$LOFTMAG1
 40
0.0
  9
$LOFTMAG2
 40
0.0
  9
$LOFTPARAM
 70
7
  9
$LOFTNORMALS
280
1
  9
$LATITUDE
 40
37.795
  9
$LONGITUDE
 40
-122.394
  9
$NORTHDIRECTION
 40
0.0
  9
$TIMEZONE
 70
-8000
  9
$LIGHTGLYPHDISPLAY
280
1
  9
$TILEMODELIGHTSYNCH
280
1
  9
$CMATERIAL
347
20
  9
$SOLIDHIST
280
0
  9
$SHOWHIST
280
1
  9
$DWFFRAME
280
2
  9
$DGNFRAME
280
2
  9
$REALWORLDSCALE
290
1
  9
$INTERFERECOLOR
 62
256
  9
$CSHADOW
280
0
  9
$SHADOWPLANELOCATION
 40
0.0
  0
ENDSEC
  0
SECTION
  2
CLASSES
  0
CLASS
  1
ACDBDICTIONARYWDFLT
  2
AcDbDictionaryWithDefault
  3
ObjectDBX Classes
 90
0
 91
0
280
0
281
0
  0
CLASS
  1
SUN
  2
AcDbSun
  3
SCENEOE
 90
1153
 91
0
280
0
281
0
  0
CLASS
  1
VISUALSTYLE
  2
AcDbVisualStyle
  3
ObjectDBX Classes
 90
4095
 91
0
280
0
281
0
  0
CLASS
  1
MATERIAL
  2
AcDbMaterial
  3
ObjectDBX Classes
 90
1153
 91
0
280
0
281
0
  0
CLASS
  1
SCALE
  2
AcDbScale
  3
ObjectDBX Classes
 90
1153
 91
0
280
0
281
0
  0
CLASS
  1
TABLESTYLE
  2
AcDbTableStyle
  3
ObjectDBX Classes
 90
4095
 91
0
280
0
281
0
  0
CLASS
  1
MLEADERSTYLE
  2
AcDbMLeaderStyle
  3
ACDB_MLEADERSTYLE_CLASS
 90
4095
 91
0
280
0
281
0
  0
CLASS
  1
DICTIONARYVAR
  2
AcDbDictionaryVar
  3
ObjectDBX Classes
 90
0
 91
0
280
0
281
0
  0
CLASS
  1
CELLSTYLEMAP
  2
AcDbCellStyleMap
  3
ObjectDBX Classes
 90
1152
 91
0
280
0
281
0
  0
CLASS
  1
MENTALRAYRENDERSETTINGS
  2
AcDbMentalRayRenderSettings
  3
SCENEOE
 90
1024
 91
0
280
0
281
0
  0
CLASS
  1
ACDBDETAILVIEWSTYLE
  2
AcDbDetailViewStyle
  3
ObjectDBX Classes
 90
1025
 91
0
280
0
281
0
  0
CLASS
  1
ACDBSECTIONVIEWSTYLE
  2
AcDbSectionViewStyle
  3
ObjectDBX Classes
 90
1025
 91
0
280
0
281
0
  0
CLASS
  1
RASTERVARIABLES
  2
AcDbRasterVariables
  3
ISM
 90
0
 91
0
280
0
281
0
  0
CLASS
  1
LAYOUT
  2
AcDbLayout
  3
ObjectDBX Classes
 90
0
 91
0
280
0
281
0
  0
CLASS
  1
ACDBPLACEHOLDER
  2
AcDbPlaceHolder
  3
ObjectDBX Classes
 90
0
 91
0
280
0
281
0
  0
ENDSEC
  0
SECTION
  2
TABLES
  0
TABLE
  2
VPORT
  5
8
330
0
100
AcDbSymbolTable
 70
1
  0
VPORT
  5
23
330
8
100
AcDbSymbolTableRecord
100
AcDbViewportTableRecord
  2
*Active
 70
0
 10
0.0
 20
0.0
 11
1.0
 21
1.0
 12
0.0
 22
0.0
 13
0.0
 23
0.0
 14
0.5
 24
0.5
 15
0.5
 25
0.5
 16
0.0
 26
0.0
 36
1.0
 17
0.0
 27
0.0
 37
0.0
 40
1000.0
 41
1.34
 42
50.0
 43
0.0
 44
0.0
 50
0.0
 51
0.0
 71
0
 72
1000
 73
1
 74
3
 75
0
 76
0
 77
0
 78
0
281
0
 65
0
146
0.0
  0
ENDTAB
  0
TABLE
  2
LTYPE
  5
2
330
0
100
AcDbSymbolTable
 70
21
  0
LTYPE
  5
24
330
2
100
AcDbSymbolTableRecord
100
AcDbLinetypeTableRecord
  2
ByBlock
 70
0
  3

 72
65
 73
0
 40
0.0
  0
LTYPE
  5
25
330
2
100
AcDbSymbolTableRecord
100
AcDbLinetypeTableRecord
  2
ByLayer
 70
0
  3

 72
65
 73
0
 40
0.0
  0
LTYPE
  5
26
330
2
100
AcDbSymbolTableRecord
100
AcDbLinetypeTableRecord
  2
Continuous
 70
0
  3

 72
65
 73
0
 40
0.0
  0
LTYPE
  5
2F
330
2
100
AcDbSymbolTableRecord
100
AcDbLinetypeTableRecord
  2
CENTER
 70
0
  3
Center ____ _ ____ _ ____ _ ____ _ ____ _ ____
 72
65
 73
4
 40
5.08
 49
3.175
 74
0
 49
-0.635
 74
0
 49
0.635
 74
0
 49
-0.635
 74
0
  0
LTYPE
  5
30
330
2
100
AcDbSymbolTableRecord
100
AcDbLinetypeTableRecord
  2
CENTERX2
 70
0
  3
Center (2x) ________  __  ________  __  ________
 72
65
 73
4
 40
8.89
 49
6.35
 74
0
 49
-0.635
 74
0
 49
1.27
 74
0
 49
-0.635
 74
0
  0
LTYPE
  5
31
330
2
100
AcDbSymbolTableRecord
100
AcDbLinetypeTableRecord
  2
CENTER2
 70
0
  3
Center (.5x) ____ _ ____ _ ____ _ ____ _ ____
 72
65
 73
4
 40
2.54
 49
1.587
 74
0
 49
-0.318
 74
0
 49
0.318
 74
0
 49
-0.318
 74
0
  0
LTYPE
  5
32
330
2
100
AcDbSymbolTableRecord
100
AcDbLinetypeTableRecord
  2
DASHED
 70
0
  3
Dashed __ __ __ __ __ __ __ __ __ __ __ __ __ _
 72
65
 73
2
 40
1.524
 49
1.27
 74
0
 49
-0.254
 74
0
  0
LTYPE
  5
33
330
2
100
AcDbSymbolTableRecord
100
AcDbLinetypeTableRecord
  2
DASHEDX2
 70
0
  3
Dashed (2x) ____  ____  ____  ____  ____  ____
 72
65
 73
2
 40
3.048
 49
2.54
 74
0
 49
-0.508
 74
0
  0
LTYPE
  5
34
330
2
100
AcDbSymbolTableRecord
100
AcDbLinetypeTableRecord
  2
DASHED2
 70
0
  3
Dashed (.5x) _ _ _ _ _ _ _ _ _ _ _ _ _ _
 72
65
 73
2
 40
0.762
 49
0.635
 74
0
 49
-0.127
 74
0
  0
LTYPE
  5
35
330
2
100
AcDbSymbolTableRecord
100
AcDbLinetypeTableRecord
  2
PHANTOM
 70
0
  3
Phantom ______  __  __  ______  __  __  ______
 72
65
 73
6
 40
6.35
 49
3.175
 74
0
 49
-0.635
 74
0
 49
0.635
 74
0
 49
-0.635
 74
0
 49
0.635
 74
0
 49
-0.635
 74
0
  0
LTYPE
  5
36
330
2
100
AcDbSymbolTableRecord
100
AcDbLinetypeTableRecord
  2
PHANTOMX2
 70
0
  3
Phantom (2x)____________    ____    ____    ____________
 72
65
 73
6
 40
10.795
 49
6.35
 74
0
 49
-0.635
 74
0
 49
1.27
 74
0
 49
-0.635
 74
0
 49
1.27
 74
0
 49
-0.635
 74
0
  0
LTYPE
  5
37
330
2
100
AcDbSymbolTableRecord
100
AcDbLinetypeTableRecord
  2
PHANTOM2
 70
0
  3
Phantom (.5x) ___ _ _ ___ _ _ ___ _ _ ___ _ _ ___
 72
65
 73
6
 40
3.175
 49
1.587
 74
0
 49
-0.318
 74
0
 49
0.318
 74
0
 49
-0.318
 74
0
 49
0.318
 74
0
 49
-0.318
 74
0
  0
LTYPE
  5
38
330
2
100
AcDbSymbolTableRecord
100
AcDbLinetypeTableRecord
  2
DASHDOT
 70
0
  3
Dash dot __ . __ . __ . __ . __ . __ . __ . __
 72
65
 73
4
 40
3.556
 49
2.54
 74
0
 49
-0.508
 74
0
 49
0.0
 74
0
 49
-0.508
 74
0
  0
LTYPE
  5
39
330
2
100
AcDbSymbolTableRecord
100
AcDbLinetypeTableRecord
  2
DASHDOTX2
 70
0
  3
Dash dot (2x) ____  .  ____  .  ____  .  ____
 72
65
 73
4
 40
6.096
 49
5.08
 74
0
 49
-0.508
 74
0
 49
0.0
 74
0
 49
-0.508
 74
0
  0
LTYPE
  5
3A
330
2
100
AcDbSymbolTableRecord
100
AcDbLinetypeTableRecord
  2
DASHDOT2
 70
0
  3
Dash dot (.5x) _ . _ . _ . _ . _ . _ . _ . _
 72
65
 73
4
 40
1.778
 49
1.27
 74
0
 49
-0.254
 74
0
 49
0.0
 74
0
 49
-0.254
 74
0
  0
LTYPE
  5
3B
330
2
100
AcDbSymbolTableRecord
100
AcDbLinetypeTableRecord
  2
DOT
 70
0
  3
Dot .  .  .  .  .  .  .  .  .  .  .  .  .  .  .  .
 72
65
 73
2
 40
0.508
 49
0.0
 74
0
 49
-0.508
 74
0
  0
LTYPE
  5
3C
330
2
100
AcDbSymbolTableRecord
100
AcDbLinetypeTableRecord
  2
DOTX2
 70
0
  3
Dot (2x) .    .    .    .    .    .    .    . 
 72
65
 73
2
 40
1.016
 49
0.0
 74
0
 49
-1.016
 74
0
  0
LTYPE
  5
3D
330
2
100
AcDbSymbolTableRecord
100
AcDbLinetypeTableRecord
  2
DOT2
 70
0
  3
Dot (.5) . . . . . . . . . . . . . . . . . . . 
 72
65
 73
2
 40
0.254
 49
0.0
 74
0
 49
-0.254
 74
0
  0
LTYPE
  5
3E
330
2
100
AcDbSymbolTableRecord
100
AcDbLinetypeTableRecord
  2
DIVIDE
 70
0
  3
Divide __ . . __ . . __ . . __ . . __ . . __
 72
65
 73
6
 40
4.064
 49
2.54
 74
0
 49
-0.508
 74
0
 49
0.0
 74
0
 49
-0.508
 74
0
 49
0.0
 74
0
 49
-0.508
 74
0
  0
LTYPE
  5
3F
330
2
100
AcDbSymbolTableRecord
100
AcDbLinetypeTableRecord
  2
DIVIDEX2
 70
0
  3
Divide (2x) ____  . .  ____  . .  ____  . .  ____
 72
65
 73
6
 40
6.604
 49
5.08
 74
0
 49
-0.508
 74
0
 49
0.0
 74
0
 49
-0.508
 74
0
 49
0.0
 74
0
 49
-0.508
 74
0
  0
LTYPE
  5
40
330
2
100
AcDbSymbolTableRecord
100
AcDbLinetypeTableRecord
  2
DIVIDE2
 70
0
  3
Divide(.5x) _ . _ . _ . _ . _ . _ . _ . _
 72
65
 73
6
 40
2.032
 49
1.27
 74
0
 49
-0.254
 74
0
 49
0.0
 74
0
 49
-0.254
 74
0
 49
0.0
 74
0
 49
-0.254
 74
0
  0
ENDTAB
  0
TABLE
  2
LAYER
  5
1
330
0
100
AcDbSymbolTable
 70
24
  0
LAYER
  5
27
330
1
100
AcDbSymbolTableRecord
100
AcDbLayerTableRecord
  2
0
 70
0
 62
7
  6
Continuous
370
-3
390
13
347
21
  0
LAYER
  5
28
330
1
100
AcDbSymbolTableRecord
100
AcDbLayerTableRecord
  2
Defpoints
 70
0
 62
7
  6
Continuous
290
0
370
-3
390
13
347
21
  0
LAYER
  5
8A
330
1
100
AcDbSymbolTableRecord
100
AcDbLayerTableRecord
  2
00_РАМКА
 70
0
 62
7
  6
CONTINUOUS
370
-3
390
13
347
21
  0
LAYER
  5
8B
330
1
100
AcDbSymbolTableRecord
100
AcDbLayerTableRecord
  2
01_ОБШИВКА
 70
0
 62
7
  6
CONTINUOUS
370
-3
390
13
347
21
  0
LAYER
  5
8C
330
1
100
AcDbSymbolTableRecord
100
AcDbLayerTableRecord
  2
02_ПАЛУБЫ
 70
0
 62
4
  6
CONTINUOUS
370
-3
390
13
347
21
  0
LAYER
  5
8D
330
1
100
AcDbSymbolTableRecord
100
AcDbLayerTableRecord
  2
03_ПЕРЕБОРКИ
 70
0
 62
1
  6
CONTINUOUS
370
-3
390
13
347
21
  0
LAYER
  5
8E
330
1
100
AcDbSymbolTableRecord
100
AcDbLayerTableRecord
  2
04_ЦИСТЕРНЫ
 70
0
 62
3
  6
CONTINUOUS
370
-3
390
13
347
21
  0
LAYER
  5
8F
330
1
100
AcDbSymbolTableRecord
100
AcDbLayerTableRecord
  2
05_ОБОРУДОВАНИЕ
 70
0
 62
5
  6
CONTINUOUS
370
-3
390
13
347
21
  0
LAYER
  5
90
330
1
100
AcDbSymbolTableRecord
100
AcDbLayerTableRecord
  2
06_ПОМЕЩЕНИЯ
 70
0
 62
8
  6
CONTINUOUS
370
-3
390
13
347
21
  0
LAYER
  5
91
330
1
100
AcDbSymbolTableRecord
100
AcDbLayerTableRecord
  2
07_ОСИ
 70
0
 62
2
  6
CENTER
370
18
390
13
347
21
  0
LAYER
  5
92
330
1
100
AcDbSymbolTableRecord
100
AcDbLayerTableRecord
  2
08_ТЕКСТ
 70
0
 62
7
  6
CONTINUOUS
370
-3
390
13
347
21
  0
LAYER
  5
93
330
1
100
AcDbSymbolTableRecord
100
AcDbLayerTableRecord
  2
09_РАЗМЕРЫ
 70
0
 62
7
  6
CONTINUOUS
370
-3
390
13
347
21
  0
LAYER
  5
94
330
1
100
AcDbSymbolTableRecord
100
AcDbLayerTableRecord
  2
10_НАБОР
 70
0
 62
9
  6
CONTINUOUS
370
-3
390
13
347
21
  0
LAYER
  5
95
330
1
100
AcDbSymbolTableRecord
100
AcDbLayerTableRecord
  2
11_КАЮТЫ
 70
0
 62
30
  6
CONTINUOUS
370
-3
390
13
347
21
  0
LAYER
  5
96
330
1
100
AcDbSymbolTableRecord
100
AcDbLayerTableRecord
  2
12_ТРАПЫ_ЛИФТЫ
 70
0
 62
6
  6
CONTINUOUS
370
-3
390
13
347
21
  0
LAYER
  5
97
330
1
100
AcDbSymbolTableRecord
100
AcDbLayerTableRecord
  2
13_КОЛЁСА
 70
0
 62
1
  6
CONTINUOUS
370
-3
390
13
347
21
  0
LAYER
  5
98
330
1
100
AcDbSymbolTableRecord
100
AcDbLayerTableRecord
  2
14_МЕБЕЛЬ
 70
0
 62
252
  6
CONTINUOUS
370
-3
390
13
347
21
  0
LAYER
  5
9A
330
1
100
AcDbSymbolTableRecord
100
AcDbLayerTableRecord
  2
20_ВИДИМЫЕ
 70
0
 62
7
  6
CONTINUOUS
370
50
390
13
347
21
  0
LAYER
  5
9B
330
1
100
AcDbSymbolTableRecord
100
AcDbLayerTableRecord
  2
21_НЕВИДИМЫЕ
 70
0
 62
7
  6
DASHED
370
25
390
13
347
21
  0
LAYER
  5
9C
330
1
100
AcDbSymbolTableRecord
100
AcDbLayerTableRecord
  2
22_ТОНКИЕ
 70
0
 62
7
  6
CONTINUOUS
370
18
390
13
347
21
  0
LAYER
  5
9D
330
1
100
AcDbSymbolTableRecord
100
AcDbLayerTableRecord
  2
23_ШТРИХОВКА
 70
0
 62
7
  6
CONTINUOUS
370
18
390
13
347
21
  0
LAYER
  5
9E
330
1
100
AcDbSymbolTableRecord
100
AcDbLayerTableRecord
  2
24_ФАНТОМ
 70
0
 62
7
  6
PHANTOM
370
18
390
13
347
21
  0
LAYER
  5
9F
330
1
100
AcDbSymbolTableRecord
100
AcDbLayerTableRecord
  2
25_ЛИТЬЁ
 70
0
 62
7
  6
CONTINUOUS
370
35
390
13
347
21
  0
LAYER
  5
A0
330
1
100
AcDbSymbolTableRecord
100
AcDbLayerTableRecord
  2
26_РАЗЪЁМ
 70
0
 62
7
  6
DASHDOT
370
35
390
13
347
21
  0
ENDTAB
  0
TABLE
  2
STYLE
  5
5
330
0
100
AcDbSymbolTable
 70
27
  0
STYLE
  5
29
330
5
100
AcDbSymbolTableRecord
100
AcDbTextStyleTableRecord
  2
Standard
 70
0
 40
0.0
 41
1.0
 50
0.0
 71
0
 42
2.5
  3
txt
  4

  0
STYLE
  5
41
330
5
100
AcDbSymbolTableRecord
100
AcDbTextStyleTableRecord
  2
OpenSans-Light
 70
0
 40
0.0
 41
1.0
 50
0.0
 71
0
 42
2.5
  3
OpenSans-Light.ttf
  4

  0
STYLE
  5
42
330
5
100
AcDbSymbolTableRecord
100
AcDbTextStyleTableRecord
  2
OpenSans-Light-Italic
 70
0
 40
0.0
 41
1.0
 50
0.0
 71
0
 42
2.5
  3
OpenSans-LightItalic.ttf
  4

  0
STYLE
  5
43
330
5
100
AcDbSymbolTableRecord
100
AcDbTextStyleTableRecord
  2
OpenSans
 70
0
 40
0.0
 41
1.0
 50
0.0
 71
0
 42
2.5
  3
OpenSans-Regular.ttf
  4

  0
STYLE
  5
44
330
5
100
AcDbSymbolTableRecord
100
AcDbTextStyleTableRecord
  2
OpenSans-Italic
 70
0
 40
0.0
 41
1.0
 50
0.0
 71
0
 42
2.5
  3
OpenSans-Italic.ttf
  4

  0
STYLE
  5
45
330
5
100
AcDbSymbolTableRecord
100
AcDbTextStyleTableRecord
  2
OpenSans-SemiBold
 70
0
 40
0.0
 41
1.0
 50
0.0
 71
0
 42
2.5
  3
OpenSans-SemiBold.ttf
  4

  0
STYLE
  5
46
330
5
100
AcDbSymbolTableRecord
100
AcDbTextStyleTableRecord
  2
OpenSans-SemiBoldItalic
 70
0
 40
0.0
 41
1.0
 50
0.0
 71
0
 42
2.5
  3
OpenSans-SemiBoldItalic.ttf
  4

  0
STYLE
  5
47
330
5
100
AcDbSymbolTableRecord
100
AcDbTextStyleTableRecord
  2
OpenSans-Bold
 70
0
 40
0.0
 41
1.0
 50
0.0
 71
0
 42
2.5
  3
OpenSans-Bold.ttf
  4

  0
STYLE
  5
48
330
5
100
AcDbSymbolTableRecord
100
AcDbTextStyleTableRecord
  2
OpenSans-BoldItalic
 70
0
 40
0.0
 41
1.0
 50
0.0
 71
0
 42
2.5
  3
OpenSans-BoldItalic.ttf
  4

  0
STYLE
  5
49
330
5
100
AcDbSymbolTableRecord
100
AcDbTextStyleTableRecord
  2
OpenSans-ExtraBold
 70
0
 40
0.0
 41
1.0
 50
0.0
 71
0
 42
2.5
  3
OpenSans-ExtraBold.ttf
  4

  0
STYLE
  5
4A
330
5
100
AcDbSymbolTableRecord
100
AcDbTextStyleTableRecord
  2
OpenSans-ExtraBoldItalic
 70
0
 40
0.0
 41
1.0
 50
0.0
 71
0
 42
2.5
  3
OpenSans-ExtraBoldItalic.ttf
  4

  0
STYLE
  5
4B
330
5
100
AcDbSymbolTableRecord
100
AcDbTextStyleTableRecord
  2
OpenSansCondensed-Bold
 70
0
 40
0.0
 41
1.0
 50
0.0
 71
0
 42
2.5
  3
OpenSansCondensed-Bold.ttf
  4

  0
STYLE
  5
4C
330
5
100
AcDbSymbolTableRecord
100
AcDbTextStyleTableRecord
  2
OpenSansCondensed-Light
 70
0
 40
0.0
 41
1.0
 50
0.0
 71
0
 42
2.5
  3
OpenSansCondensed-Light.ttf
  4

  0
STYLE
  5
4D
330
5
100
AcDbSymbolTableRecord
100
AcDbTextStyleTableRecord
  2
OpenSansCondensed-Italic
 70
0
 40
0.0
 41
1.0
 50
0.0
 71
0
 42
2.5
  3
OpenSansCondensed-LightItalic.ttf
  4

  0
STYLE
  5
4E
330
5
100
AcDbSymbolTableRecord
100
AcDbTextStyleTableRecord
  2
LiberationSans
 70
0
 40
0.0
 41
1.0
 50
0.0
 71
0
 42
2.5
  3
LiberationSans-Regular.ttf
  4

  0
STYLE
  5
4F
330
5
100
AcDbSymbolTableRecord
100
AcDbTextStyleTableRecord
  2
LiberationSans-Bold
 70
0
 40
0.0
 41
1.0
 50
0.0
 71
0
 42
2.5
  3
LiberationSans-Bold.ttf
  4

  0
STYLE
  5
50
330
5
100
AcDbSymbolTableRecord
100
AcDbTextStyleTableRecord
  2
LiberationSans-BoldItalic
 70
0
 40
0.0
 41
1.0
 50
0.0
 71
0
 42
2.5
  3
LiberationSans-BoldItalic.ttf
  4

  0
STYLE
  5
51
330
5
100
AcDbSymbolTableRecord
100
AcDbTextStyleTableRecord
  2
LiberationSans-Italic
 70
0
 40
0.0
 41
1.0
 50
0.0
 71
0
 42
2.5
  3
LiberationSans-Italic.ttf
  4

  0
STYLE
  5
52
330
5
100
AcDbSymbolTableRecord
100
AcDbTextStyleTableRecord
  2
LiberationSerif
 70
0
 40
0.0
 41
1.0
 50
0.0
 71
0
 42
2.5
  3
LiberationSerif-Regular.ttf
  4

  0
STYLE
  5
53
330
5
100
AcDbSymbolTableRecord
100
AcDbTextStyleTableRecord
  2
LiberationSerif-Bold
 70
0
 40
0.0
 41
1.0
 50
0.0
 71
0
 42
2.5
  3
LiberationSerif-Bold.ttf
  4

  0
STYLE
  5
54
330
5
100
AcDbSymbolTableRecord
100
AcDbTextStyleTableRecord
  2
LiberationSerif-BoldItalic
 70
0
 40
0.0
 41
1.0
 50
0.0
 71
0
 42
2.5
  3
LiberationSerif-BoldItalic.ttf
  4

  0
STYLE
  5
55
330
5
100
AcDbSymbolTableRecord
100
AcDbTextStyleTableRecord
  2
LiberationSerif-Italic
 70
0
 40
0.0
 41
1.0
 50
0.0
 71
0
 42
2.5
  3
LiberationSerif-Italic.ttf
  4

  0
STYLE
  5
56
330
5
100
AcDbSymbolTableRecord
100
AcDbTextStyleTableRecord
  2
LiberationMono
 70
0
 40
0.0
 41
1.0
 50
0.0
 71
0
 42
2.5
  3
LiberationMono-Regular.ttf
  4

  0
STYLE
  5
57
330
5
100
AcDbSymbolTableRecord
100
AcDbTextStyleTableRecord
  2
LiberationMono-Bold
 70
0
 40
0.0
 41
1.0
 50
0.0
 71
0
 42
2.5
  3
LiberationMono-Bold.ttf
  4

  0
STYLE
  5
58
330
5
100
AcDbSymbolTableRecord
100
AcDbTextStyleTableRecord
  2
LiberationMono-BoldItalic
 70
0
 40
0.0
 41
1.0
 50
0.0
 71
0
 42
2.5
  3
LiberationMono-BoldItalic.ttf
  4

  0
STYLE
  5
59
330
5
100
AcDbSymbolTableRecord
100
AcDbTextStyleTableRecord
  2
LiberationMono-Italic
 70
0
 40
0.0
 41
1.0
 50
0.0
 71
0
 42
2.5
  3
LiberationMono-Italic.ttf
  4

  0
STYLE
  5
99
330
5
100
AcDbSymbolTableRecord
100
AcDbTextStyleTableRecord
  2
ГОСТ
 70
0
 40
0.0
 41
1.0
 50
0.0
 71
0
 42
2.5
  3
ISOCPEUR.TTF
  4

  0
ENDTAB
  0
TABLE
  2
VIEW
  5
7
330
0
100
AcDbSymbolTable
 70
0
  0
ENDTAB
  0
TABLE
  2
UCS
  5
6
330
0
100
AcDbSymbolTable
 70
0
  0
ENDTAB
  0
TABLE
  2
APPID
  5
3
330
0
100
AcDbSymbolTable
 70
3
  0
APPID
  5
2A
330
3
100
AcDbSymbolTableRecord
100
AcDbRegAppTableRecord
  2
ACAD
 70
0
  0
APPID
  5
1BE
330
3
100
AcDbSymbolTableRecord
100
AcDbRegAppTableRecord
  2
HATCHBACKGROUNDCOLOR
 70
0
  0
APPID
  5
1BF
330
3
100
AcDbSymbolTableRecord
100
AcDbRegAppTableRecord
  2
EZDXF
 70
0
  0
ENDTAB
  0
TABLE
  2
DIMSTYLE
  5
4
330
0
100
AcDbSymbolTable
 70
13
100
AcDbDimStyleTable
  0
DIMSTYLE
105
2B
330
4
100
AcDbSymbolTableRecord
100
AcDbDimStyleTableRecord
  2
Standard
 70
0
 40
1.0
 41
2.5
 42
0.625
 43
3.75
 44
1.25
 45
0.0
 46
0.0
 47
0.0
 48
0.0
 49
2.5
140
2.5
141
2.5
142
0.0
143
0.03937007874
144
1.0
145
0.0
146
1.0
147
0.625
148
0.0
 69
0
 70
0
 71
0
 72
0
 73
0
 74
0
 75
0
 76
0
 77
1
 78
8
 79
3
170
0
171
3
172
1
173
0
174
0
175
0
176
0
177
0
178
0
179
2
271
2
272
2
273
2
274
3
275
0
276
0
277
2
278
44
279
0
280
0
281
0
282
0
283
0
284
8
285
0
286
0
288
0
289
3
290
0
371
-2
372
-2
  0
DIMSTYLE
105
73
330
4
100
AcDbSymbolTableRecord
100
AcDbDimStyleTableRecord
  2
EZDXF
 70
0
 40
1.0
 41
0.175
 42
0.125
 43
3.75
 44
0.375
 45
0.0
 46
0.0
 47
0.0
 48
0.0
 49
2.5
140
0.25
141
2.5
142
0.0
143
0.03937007874
144
100.0
145
0.0
146
0.5
147
0.1
148
0.0
 69
0
 70
0
 71
0
 72
0
 73
0
 74
0
 75
0
 76
0
 77
1
 78
12
 79
3
170
0
171
3
172
1
173
0
174
0
175
0
176
0
177
0
178
0
179
2
271
2
272
2
273
2
274
3
275
0
276
0
277
2
278
46
279
2
280
0
281
0
282
0
283
0
284
8
285
0
286
0
288
1
289
3
290
0
340
4C
342
74
371
-2
372
-2
  0
DIMSTYLE
105
7C
330
4
100
AcDbSymbolTableRecord
100
AcDbDimStyleTableRecord
  2
EZ_M_100_H25_CM
 70
0
 40
1.0
 41
0.25
 42
0.125
 43
3.75
 44
0.375
 45
0.0
 46
0.0
 47
0.0
 48
0.0
 49
2.5
140
0.25
141
2.5
142
0.125
143
0.03937007874
144
100.0
145
0.0
146
0.5
147
0.1
148
0.0
 69
0
 70
0
 71
0
 72
0
 73
0
 74
0
 75
0
 76
0
 77
1
 78
12
 79
3
170
0
171
3
172
1
173
0
174
0
175
0
176
0
177
0
178
0
179
2
271
2
272
2
273
2
274
3
275
0
276
0
277
2
278
46
279
2
280
0
281
0
282
0
283
0
284
8
285
0
286
0
288
1
289
3
290
0
340
4C
371
-2
372
-2
  0
DIMSTYLE
105
7D
330
4
100
AcDbSymbolTableRecord
100
AcDbDimStyleTableRecord
  2
EZ_M_50_H25_CM
 70
0
 40
1.0
 41
0.125
 42
0.0625
 43
3.75
 44
0.1875
 45
0.0
 46
0.0
 47
0.0
 48
0.0
 49
2.5
140
0.125
141
2.5
142
0.0625
143
0.03937007874
144
100.0
145
0.0
146
0.5
147
0.05
148
0.0
 69
0
 70
0
 71
0
 72
0
 73
0
 74
0
 75
0
 76
0
 77
1
 78
12
 79
3
170
0
171
3
172
1
173
0
174
0
175
0
176
0
177
0
178
0
179
2
271
2
272
2
273
2
274
3
275
0
276
0
277
2
278
46
279
2
280
0
281
0
282
0
283
0
284
8
285
0
286
0
288
1
289
3
290
0
340
4C
371
-2
372
-2
  0
DIMSTYLE
105
7E
330
4
100
AcDbSymbolTableRecord
100
AcDbDimStyleTableRecord
  2
EZ_M_25_H25_CM
 70
0
 40
1.0
 41
0.0625
 42
0.03125
 43
3.75
 44
0.09375
 45
0.0
 46
0.0
 47
0.0
 48
0.0
 49
2.5
140
0.0625
141
2.5
142
0.03125
143
0.03937007874
144
100.0
145
0.0
146
0.5
147
0.025
148
0.0
 69
0
 70
0
 71
0
 72
0
 73
0
 74
0
 75
0
 76
0
 77
1
 78
12
 79
3
170
0
171
3
172
1
173
0
174
0
175
0
176
0
177
0
178
0
179
2
271
2
272
2
273
2
274
3
275
0
276
0
277
2
278
46
279
2
280
0
281
0
282
0
283
0
284
8
285
0
286
0
288
1
289
3
290
0
340
4C
371
-2
372
-2
  0
DIMSTYLE
105
7F
330
4
100
AcDbSymbolTableRecord
100
AcDbDimStyleTableRecord
  2
EZ_M_20_H25_CM
 70
0
 40
1.0
 41
0.05
 42
0.025
 43
3.75
 44
0.07500000000000001
 45
0.0
 46
0.0
 47
0.0
 48
0.0
 49
2.5
140
0.05
141
2.5
142
0.025
143
0.03937007874
144
100.0
145
0.0
146
0.5
147
0.020000000000000004
148
0.0
 69
0
 70
0
 71
0
 72
0
 73
0
 74
0
 75
0
 76
0
 77
1
 78
12
 79
3
170
0
171
3
172
1
173
0
174
0
175
0
176
0
177
0
178
0
179
2
271
2
272
2
273
2
274
3
275
0
276
0
277
2
278
46
279
2
280
0
281
0
282
0
283
0
284
8
285
0
286
0
288
1
289
3
290
0
340
4C
371
-2
372
-2
  0
DIMSTYLE
105
80
330
4
100
AcDbSymbolTableRecord
100
AcDbDimStyleTableRecord
  2
EZ_M_10_H25_CM
 70
0
 40
1.0
 41
0.025
 42
0.0125
 43
3.75
 44
0.037500000000000006
 45
0.0
 46
0.0
 47
0.0
 48
0.0
 49
2.5
140
0.025
141
2.5
142
0.0125
143
0.03937007874
144
100.0
145
0.0
146
0.5
147
0.010000000000000002
148
0.0
 69
0
 70
0
 71
0
 72
0
 73
0
 74
0
 75
0
 76
0
 77
1
 78
12
 79
3
170
0
171
3
172
1
173
0
174
0
175
0
176
0
177
0
178
0
179
2
271
2
272
2
273
2
274
3
275
0
276
0
277
2
278
46
279
2
280
0
281
0
282
0
283
0
284
8
285
0
286
0
288
1
289
3
290
0
340
4C
371
-2
372
-2
  0
DIMSTYLE
105
81
330
4
100
AcDbSymbolTableRecord
100
AcDbDimStyleTableRecord
  2
EZ_M_5_H25_CM
 70
0
 40
1.0
 41
0.0125
 42
0.00625
 43
3.75
 44
0.018750000000000003
 45
0.0
 46
0.0
 47
0.0
 48
0.0
 49
2.5
140
0.0125
141
2.5
142
0.00625
143
0.03937007874
144
100.0
145
0.0
146
0.5
147
0.005000000000000001
148
0.0
 69
0
 70
0
 71
0
 72
0
 73
0
 74
0
 75
0
 76
0
 77
1
 78
12
 79
3
170
0
171
3
172
1
173
0
174
0
175
0
176
0
177
0
178
0
179
2
271
2
272
2
273
2
274
3
275
0
276
0
277
2
278
46
279
2
280
0
281
0
282
0
283
0
284
8
285
0
286
0
288
1
289
3
290
0
340
4C
371
-2
372
-2
  0
DIMSTYLE
105
82
330
4
100
AcDbSymbolTableRecord
100
AcDbDimStyleTableRecord
  2
EZ_M_1_H25_CM
 70
0
 40
1.0
 41
0.0025
 42
0.00125
 43
3.75
 44
0.00375
 45
0.0
 46
0.0
 47
0.0
 48
0.0
 49
2.5
140
0.0025
141
2.5
142
0.00125
143
0.03937007874
144
100.0
145
0.0
146
0.5
147
0.001
148
0.0
 69
0
 70
0
 71
0
 72
0
 73
0
 74
0
 75
0
 76
0
 77
1
 78
12
 79
3
170
0
171
3
172
1
173
0
174
0
175
0
176
0
177
0
178
0
179
2
271
2
272
2
273
2
274
3
275
0
276
0
277
2
278
46
279
2
280
0
281
0
282
0
283
0
284
8
285
0
286
0
288
1
289
3
290
0
340
4C
371
-2
372
-2
  0
DIMSTYLE
105
83
330
4
100
AcDbSymbolTableRecord
100
AcDbDimStyleTableRecord
  2
EZ_RADIUS
 70
0
 40
1.0
 41
0.25
 42
0.125
 43
3.75
 44
0.375
 45
0.0
 46
0.0
 47
0.0
 48
0.0
 49
2.5
140
0.25
141
0.0
142
0.0
143
0.03937007874
144
100.0
145
0.0
146
0.5
147
0.1
148
0.0
 69
0
 70
0
 71
0
 72
0
 73
0
 74
0
 75
0
 76
0
 77
1
 78
12
 79
3
170
0
171
3
172
0
173
0
174
0
175
0
176
0
177
0
178
0
179
2
271
2
272
2
273
2
274
3
275
0
276
0
277
2
278
46
279
1
280
0
281
0
282
0
283
0
284
8
285
0
286
0
288
1
289
3
290
0
340
4C
342
84
371
-2
372
-2
  0
DIMSTYLE
105
88
330
4
100
AcDbSymbolTableRecord
100
AcDbDimStyleTableRecord
  2
EZ_RADIUS_INSIDE
 70
0
 40
1.0
 41
0.25
 42
0.125
 43
3.75
 44
0.375
 45
0.0
 46
0.0
 47
0.0
 48
0.0
 49
2.5
140
0.25
141
0.0
142
0.0
143
0.03937007874
144
100.0
145
0.0
146
0.5
147
0.1
148
0.0
 69
0
 70
0
 71
0
 72
0
 73
0
 74
0
 75
0
 76
0
 77
0
 78
12
 79
3
170
0
171
3
172
0
173
0
174
1
175
0
176
0
177
0
178
0
179
2
271
2
272
2
273
2
274
3
275
0
276
0
277
2
278
46
279
0
280
0
281
0
282
0
283
0
284
8
285
0
286
0
288
1
289
0
290
0
340
4C
342
84
371
-2
372
-2
  0
DIMSTYLE
105
89
330
4
100
AcDbSymbolTableRecord
100
AcDbDimStyleTableRecord
  2
EZ_CURVED
 70
0
 40
1.0
 41
0.25
 42
0.125
 43
3.75
 44
0.375
 45
0.0
 46
0.0
 47
0.0
 48
0.0
 49
2.5
140
0.25
141
2.5
142
0.0
143
0.03937007874
144
100.0
145
0.0
146
0.5
147
0.1
148
0.0
 69
0
 70
0
 71
0
 72
0
 73
0
 74
0
 75
0
 76
0
 77
1
 78
12
 79
2
 90
2
170
0
171
3
172
1
173
0
174
0
175
0
176
0
177
0
178
0
179
2
271
2
272
2
273
2
274
3
275
0
276
0
277
2
278
46
279
2
280
0
281
0
282
0
283
0
284
8
285
0
286
0
288
1
289
3
290
0
340
4C
371
-2
372
-2
  0
DIMSTYLE
105
A1
330
4
100
AcDbSymbolTableRecord
100
AcDbDimStyleTableRecord
  2
ГОСТ
 70
0
 40
1.0
 41
3.0
 42
0.0
 43
3.75
 44
2.0
 45
0.0
 46
0.0
 47
0.0
 48
0.0
 49
2.5
140
3.5
141
2.5
142
0.0
143
0.03937007874
144
1.0
145
0.0
146
1.0
147
1.0
148
0.0
 69
0
 70
0
 71
0
 72
0
 73
0
 74
0
 75
0
 76
0
 77
1
 78
8
 79
3
170
0
171
3
172
1
173
0
174
0
175
0
176
7
177
7
178
7
179
2
271
1
272
2
273
2
274
3
275
0
276
0
277
2
278
44
279
0
280
0
281
0
282
0
283
0
284
8
285
0
286
0
288
0
289
3
290
0
340
99
371
-2
372
-2
  0
ENDTAB
  0
TABLE
  2
BLOCK_RECORD
  5
9
330
0
100
AcDbSymbolTable
 70
17
  0
BLOCK_RECORD
  5
17
330
9
100
AcDbSymbolTableRecord
100
AcDbBlockTableRecord
  2
*Model_Space
340
1A
 70
0
280
1
281
0
  0
BLOCK_RECORD
  5
1B
330
9
100
AcDbSymbolTableRecord
100
AcDbBlockTableRecord
  2
*Paper_Space
340
1E
 70
0
280
1
281
0
  0
BLOCK_RECORD
  5
74
330
9
100
AcDbSymbolTableRecord
100
AcDbBlockTableRecord
  2
_ARCHTICK
340
0
 70
0
280
1
281
0
  0
BLOCK_RECORD
  5
78
330
9
100
AcDbSymbolTableRecord
100
AcDbBlockTableRecord
  2
_CLOSEDFILLED
340
0
 70
0
280
1
281
0
  0
BLOCK_RECORD
  5
84
330
9
100
AcDbSymbolTableRecord
100
AcDbBlockTableRecord
  2
_CLOSEDBLANK
340
0
 70
0
280
1
281
0
  0
BLOCK_RECORD
  5
CE
330
9
100
AcDbSymbolTableRecord
100
AcDbBlockTableRecord
  2
*D1
340
0
 70
0
280
1
281
0
  0
BLOCK_RECORD
  5
DD
330
9
100
AcDbSymbolTableRecord
100
AcDbBlockTableRecord
  2
*D2
340
0
 70
0
280
1
281
0
  0
BLOCK_RECORD
  5
EC
330
9
100
AcDbSymbolTableRecord
100
AcDbBlockTableRecord
  2
*D3
340
0
 70
0
280
1
281
0
  0
BLOCK_RECORD
  5
FB
330
9
100
AcDbSymbolTableRecord
100
AcDbBlockTableRecord
  2
*D4
340
0
 70
0
280
1
281
0
  0
BLOCK_RECORD
  5
10A
330
9
100
AcDbSymbolTableRecord
100
AcDbBlockTableRecord
  2
*D5
340
0
 70
0
280
1
281
0
  0
BLOCK_RECORD
  5
119
330
9
100
AcDbSymbolTableRecord
100
AcDbBlockTableRecord
  2
*D6
340
0
 70
0
280
1
281
0
  0
BLOCK_RECORD
  5
12A
330
9
100
AcDbSymbolTableRecord
100
AcDbBlockTableRecord
  2
*D7
340
0
 70
0
280
1
281
0
  0
BLOCK_RECORD
  5
139
330
9
100
AcDbSymbolTableRecord
100
AcDbBlockTableRecord
  2
*D8
340
0
 70
0
280
1
281
0
  0
BLOCK_RECORD
  5
148
330
9
100
AcDbSymbolTableRecord
100
AcDbBlockTableRecord
  2
*D9
340
0
 70
0
280
1
281
0
  0
BLOCK_RECORD
  5
16D
330
9
100
AcDbSymbolTableRecord
100
AcDbBlockTableRecord
  2
*D10
340
0
 70
0
280
1
281
0
  0
BLOCK_RECORD
  5
17C
330
9
100
AcDbSymbolTableRecord
100
AcDbBlockTableRecord
  2
*D11
340
0
 70
0
280
1
281
0
  0
BLOCK_RECORD
  5
18B
330
9
100
AcDbSymbolTableRecord
100
AcDbBlockTableRecord
  2
*D12
340
0
 70
0
280
1
281
0
  0
ENDTAB
  0
ENDSEC
  0
SECTION
  2
BLOCKS
  0
BLOCK
  5
18
330
17
100
AcDbEntity
  8
0
100
AcDbBlockBegin
  2
*Model_Space
 70
0
 10
0.0
 20
0.0
 30
0.0
  3
*Model_Space
  1

  0
ENDBLK
  5
19
330
17
100
AcDbEntity
  8
0
100
AcDbBlockEnd
  0
BLOCK
  5
1C
330
1B
100
AcDbEntity
  8
0
100
AcDbBlockBegin
  2
*Paper_Space
 70
0
 10
0.0
 20
0.0
 30
0.0
  3
*Paper_Space
  1

  0
ENDBLK
  5
1D
330
1B
100
AcDbEntity
  8
0
100
AcDbBlockEnd
  0
BLOCK
  5
75
330
74
100
AcDbEntity
  8
0
100
AcDbBlockBegin
  2
_ARCHTICK
 70
0
 10
0.0
 20
0.0
 30
0.0
  3
_ARCHTICK
  1

  0
LWPOLYLINE
  5
77
330
74
100
AcDbEntity
  8
0
  6
BYBLOCK
 62
0
100
AcDbPolyline
 90
2
 70
0
 43
0.15
 10
-0.5
 20
-0.5
 10
0.5
 20
0.5
  0
ENDBLK
  5
76
330
74
100
AcDbEntity
  8
0
100
AcDbBlockEnd
  0
BLOCK
  5
79
330
78
100
AcDbEntity
  8
0
100
AcDbBlockBegin
  2
_CLOSEDFILLED
 70
0
 10
0.0
 20
0.0
 30
0.0
  3
_CLOSEDFILLED
  1

  0
SOLID
  5
7B
330
78
100
AcDbEntity
  8
0
  6
BYBLOCK
 62
0
100
AcDbTrace
 10
-1.0
 20
0.16439898372402537
 30
0.0
 11
0.0
 21
0.0
 31
0.0
 12
-1.0
 22
-0.16439898372402537
 32
0.0
 13
-1.0
 23
-0.16439898372402537
 33
0.0
  0
ENDBLK
  5
7A
330
78
100
AcDbEntity
  8
0
100
AcDbBlockEnd
  0
BLOCK
  5
85
330
84
100
AcDbEntity
  8
0
100
AcDbBlockBegin
  2
_CLOSEDBLANK
 70
0
 10
0.0
 20
0.0
 30
0.0
  3
_CLOSEDBLANK
  1

  0
LWPOLYLINE
  5
87
330
84
100
AcDbEntity
  8
0
  6
BYBLOCK
 62
0
100
AcDbPolyline
 90
3
 70
1
 10
-1.0
 20
0.16439898372402537
 10
0.0
 20
0.0
 10
-1.0
 20
-0.16439898372402537
  0
ENDBLK
  5
86
330
84
100
AcDbEntity
  8
0
100
AcDbBlockEnd
  0
BLOCK
  5
CF
330
CE
100
AcDbEntity
  8
0
100
AcDbBlockBegin
  2
*D1
 70
1
 10
0.0
 20
0.0
 30
0.0
  3
*D1
  1

  0
LINE
  5
D1
330
CE
100
AcDbEntity
  8
0
 62
7
100
AcDbLine
 10
80.0
 20
175.0
 30
0.0
 11
80.0
 21
177.0
 31
0.0
  0
LINE
  5
D2
330
CE
100
AcDbEntity
  8
0
 62
7
100
AcDbLine
 10
110.0
 20
175.0
 30
0.0
 11
110.0
 21
177.0
 31
0.0
  0
INSERT
  5
D3
330
CE
100
AcDbEntity
  8
09_РАЗМЕРЫ
 62
7
100
AcDbBlockReference
  2
_CLOSEDFILLED
 10
80.0
 20
175.0
 30
0.0
 41
3.0
 42
3.0
 50
180.0
  0
INSERT
  5
D5
330
CE
100
AcDbEntity
  8
09_РАЗМЕРЫ
 62
7
100
AcDbBlockReference
  2
_CLOSEDFILLED
 10
110.0
 20
175.0
 30
0.0
 41
3.0
 42
3.0
  0
LINE
  5
D7
330
CE
100
AcDbEntity
  8
0
 62
7
100
AcDbLine
 10
83.0
 20
175.0
 30
0.0
 11
107.0
 21
175.0
 31
0.0
  0
MTEXT
  5
D8
330
CE
100
AcDbEntity
  8
09_РАЗМЕРЫ
 62
7
100
AcDbMText
 10
95.0
 20
177.75
 30
0.0
 40
3.5
 71
5
  1
⌀30f9
  7
ГОСТ
  0
POINT
  5
D9
330
CE
100
AcDbEntity
  8
Defpoints
100
AcDbPoint
 10
80.0
 20
175.0
 30
0.0
  0
POINT
  5
DA
330
CE
100
AcDbEntity
  8
Defpoints
100
AcDbPoint
 10
80.0
 20
175.0
 30
0.0
  0
POINT
  5
DB
330
CE
100
AcDbEntity
  8
Defpoints
100
AcDbPoint
 10
110.0
 20
175.0
 30
0.0
  0
ENDBLK
  5
D0
330
CE
100
AcDbEntity
  8
0
100
AcDbBlockEnd
  0
BLOCK
  5
DE
330
DD
100
AcDbEntity
  8
0
100
AcDbBlockBegin
  2
*D2
 70
1
 10
0.0
 20
0.0
 30
0.0
  3
*D2
  1

  0
LINE
  5
E0
330
DD
100
AcDbEntity
  8
0
 62
7
100
AcDbLine
 10
84.0
 20
120.7
 30
0.0
 11
84.0
 21
122.7
 31
0.0
  0
LINE
  5
E1
330
DD
100
AcDbEntity
  8
0
 62
7
100
AcDbLine
 10
106.0
 20
120.7
 30
0.0
 11
106.0
 21
122.7
 31
0.0
  0
INSERT
  5
E2
330
DD
100
AcDbEntity
  8
09_РАЗМЕРЫ
 62
7
100
AcDbBlockReference
  2
_CLOSEDFILLED
 10
84.0
 20
120.7
 30
0.0
 41
3.0
 42
3.0
 50
180.0
  0
INSERT
  5
E4
330
DD
100
AcDbEntity
  8
09_РАЗМЕРЫ
 62
7
100
AcDbBlockReference
  2
_CLOSEDFILLED
 10
106.0
 20
120.7
 30
0.0
 41
3.0
 42
3.0
  0
LINE
  5
E6
330
DD
100
AcDbEntity
  8
0
 62
7
100
AcDbLine
 10
87.0
 20
120.7
 30
0.0
 11
103.0
 21
120.7
 31
0.0
  0
MTEXT
  5
E7
330
DD
100
AcDbEntity
  8
09_РАЗМЕРЫ
 62
7
100
AcDbMText
 10
95.0
 20
123.45
 30
0.0
 40
3.5
 71
5
  1
⌀22
  7
ГОСТ
  0
POINT
  5
E8
330
DD
100
AcDbEntity
  8
Defpoints
100
AcDbPoint
 10
84.0
 20
120.7
 30
0.0
  0
POINT
  5
E9
330
DD
100
AcDbEntity
  8
Defpoints
100
AcDbPoint
 10
84.0
 20
120.7
 30
0.0
  0
POINT
  5
EA
330
DD
100
AcDbEntity
  8
Defpoints
100
AcDbPoint
 10
106.0
 20
120.7
 30
0.0
  0
ENDBLK
  5
DF
330
DD
100
AcDbEntity
  8
0
100
AcDbBlockEnd
  0
BLOCK
  5
ED
330
EC
100
AcDbEntity
  8
0
100
AcDbBlockBegin
  2
*D3
 70
1
 10
0.0
 20
0.0
 30
0.0
  3
*D3
  1

  0
LINE
  5
EF
330
EC
100
AcDbEntity
  8
0
 62
7
100
AcDbLine
 10
69.0
 20
108.4
 30
0.0
 11
31.0
 21
108.4
 31
0.0
  0
LINE
  5
F0
330
EC
100
AcDbEntity
  8
0
 62
7
100
AcDbLine
 10
69.0
 20
235.0
 30
0.0
 11
31.0
 21
235.0
 31
0.0
  0
INSERT
  5
F1
330
EC
100
AcDbEntity
  8
09_РАЗМЕРЫ
 62
7
100
AcDbBlockReference
  2
_CLOSEDFILLED
 10
33.0
 20
108.4
 30
0.0
 41
3.0
 42
3.0
 50
270.0
  0
INSERT
  5
F3
330
EC
100
AcDbEntity
  8
09_РАЗМЕРЫ
 62
7
100
AcDbBlockReference
  2
_CLOSEDFILLED
 10
33.0
 20
235.0
 30
0.0
 41
3.0
 42
3.0
 50
90.0
  0
LINE
  5
F5
330
EC
100
AcDbEntity
  8
0
 62
7
100
AcDbLine
 10
33.0
 20
111.4
 30
0.0
 11
33.0
 21
232.0
 31
0.0
  0
MTEXT
  5
F6
330
EC
100
AcDbEntity
  8
09_РАЗМЕРЫ
 62
7
100
AcDbMText
 10
30.25
 20
171.7
 30
0.0
 40
3.5
 71
5
  1
126,6
  7
ГОСТ
 50
90.0
  0
POINT
  5
F7
330
EC
100
AcDbEntity
  8
Defpoints
100
AcDbPoint
 10
33.0
 20
108.4
 30
0.0
  0
POINT
  5
F8
330
EC
100
AcDbEntity
  8
Defpoints
100
AcDbPoint
 10
69.0
 20
108.4
 30
0.0
  0
POINT
  5
F9
330
EC
100
AcDbEntity
  8
Defpoints
100
AcDbPoint
 10
69.0
 20
235.0
 30
0.0
  0
ENDBLK
  5
EE
330
EC
100
AcDbEntity
  8
0
100
AcDbBlockEnd
  0
BLOCK
  5
FC
330
FB
100
AcDbEntity
  8
0
100
AcDbBlockBegin
  2
*D4
 70
1
 10
0.0
 20
0.0
 30
0.0
  3
*D4
  1

  0
LINE
  5
FE
330
FB
100
AcDbEntity
  8
0
 62
7
100
AcDbLine
 10
80.0
 20
108.4
 30
0.0
 11
47.0
 21
108.4
 31
0.0
  0
LINE
  5
FF
330
FB
100
AcDbEntity
  8
0
 62
7
100
AcDbLine
 10
80.0
 20
201.0
 30
0.0
 11
47.0
 21
201.0
 31
0.0
  0
INSERT
  5
100
330
FB
100
AcDbEntity
  8
09_РАЗМЕРЫ
 62
7
100
AcDbBlockReference
  2
_CLOSEDFILLED
 10
49.0
 20
108.4
 30
0.0
 41
3.0
 42
3.0
 50
270.0
  0
INSERT
  5
102
330
FB
100
AcDbEntity
  8
09_РАЗМЕРЫ
 62
7
100
AcDbBlockReference
  2
_CLOSEDFILLED
 10
49.0
 20
201.0
 30
0.0
 41
3.0
 42
3.0
 50
90.0
  0
LINE
  5
104
330
FB
100
AcDbEntity
  8
0
 62
7
100
AcDbLine
 10
49.0
 20
111.4
 30
0.0
 11
49.0
 21
198.0
 31
0.0
  0
MTEXT
  5
105
330
FB
100
AcDbEntity
  8
09_РАЗМЕРЫ
 62
7
100
AcDbMText
 10
46.25
 20
154.7
 30
0.0
 40
3.5
 71
5
  1
92,6
  7
ГОСТ
 50
90.0
  0
POINT
  5
106
330
FB
100
AcDbEntity
  8
Defpoints
100
AcDbPoint
 10
49.0
 20
108.4
 30
0.0
  0
POINT
  5
107
330
FB
100
AcDbEntity
  8
Defpoints
100
AcDbPoint
 10
80.0
 20
108.4
 30
0.0
  0
POINT
  5
108
330
FB
100
AcDbEntity
  8
Defpoints
100
AcDbPoint
 10
80.0
 20
201.0
 30
0.0
  0
ENDBLK
  5
FD
330
FB
100
AcDbEntity
  8
0
100
AcDbBlockEnd
  0
BLOCK
  5
10B
330
10A
100
AcDbEntity
  8
0
100
AcDbBlockBegin
  2
*D5
 70
1
 10
0.0
 20
0.0
 30
0.0
  3
*D5
  1

  0
LINE
  5
10D
330
10A
100
AcDbEntity
  8
0
 62
7
100
AcDbLine
 10
110.0
 20
114.4
 30
0.0
 11
133.0
 21
114.4
 31
0.0
  0
LINE
  5
10E
330
10A
100
AcDbEntity
  8
0
 62
7
100
AcDbLine
 10
110.0
 20
127.0
 30
0.0
 11
133.0
 21
127.0
 31
0.0
  0
INSERT
  5
10F
330
10A
100
AcDbEntity
  8
09_РАЗМЕРЫ
 62
7
100
AcDbBlockReference
  2
_CLOSEDFILLED
 10
131.0
 20
114.4
 30
0.0
 41
3.0
 42
3.0
 50
270.0
  0
INSERT
  5
111
330
10A
100
AcDbEntity
  8
09_РАЗМЕРЫ
 62
7
100
AcDbBlockReference
  2
_CLOSEDFILLED
 10
131.0
 20
127.0
 30
0.0
 41
3.0
 42
3.0
 50
90.0
  0
LINE
  5
113
330
10A
100
AcDbEntity
  8
0
 62
7
100
AcDbLine
 10
131.0
 20
117.4
 30
0.0
 11
131.0
 21
124.0
 31
0.0
  0
MTEXT
  5
114
330
10A
100
AcDbEntity
  8
09_РАЗМЕРЫ
 62
7
100
AcDbMText
 10
126.25
 20
120.7
 30
0.0
 40
3.5
 71
5
  1
12,6
  7
ГОСТ
 50
90.0
  0
POINT
  5
115
330
10A
100
AcDbEntity
  8
Defpoints
100
AcDbPoint
 10
131.0
 20
114.4
 30
0.0
  0
POINT
  5
116
330
10A
100
AcDbEntity
  8
Defpoints
100
AcDbPoint
 10
110.0
 20
114.4
 30
0.0
  0
POINT
  5
117
330
10A
100
AcDbEntity
  8
Defpoints
100
AcDbPoint
 10
110.0
 20
127.0
 30
0.0
  0
ENDBLK
  5
10C
330
10A
100
AcDbEntity
  8
0
100
AcDbBlockEnd
  0
BLOCK
  5
11A
330
119
100
AcDbEntity
  8
0
100
AcDbBlockBegin
  2
*D6
 70
1
 10
0.0
 20
0.0
 30
0.0
  3
*D6
  1

  0
LINE
  5
11C
330
119
100
AcDbEntity
  8
0
 62
7
100
AcDbLine
 10
110.0
 20
108.4
 30
0.0
 11
133.0
 21
108.4
 31
0.0
  0
LINE
  5
11D
330
119
100
AcDbEntity
  8
0
 62
7
100
AcDbLine
 10
110.0
 20
114.4
 30
0.0
 11
133.0
 21
114.4
 31
0.0
  0
INSERT
  5
11E
330
119
100
AcDbEntity
  8
09_РАЗМЕРЫ
 62
7
100
AcDbBlockReference
  2
_CLOSEDFILLED
 10
131.0
 20
108.4
 30
0.0
 41
3.0
 42
3.0
 50
90.0
  0
INSERT
  5
120
330
119
100
AcDbEntity
  8
09_РАЗМЕРЫ
 62
7
100
AcDbBlockReference
  2
_CLOSEDFILLED
 10
131.0
 20
114.4
 30
0.0
 41
3.0
 42
3.0
 50
270.0
  0
LINE
  5
122
330
119
100
AcDbEntity
  8
0
 62
7
100
AcDbLine
 10
131.0
 20
105.4
 30
0.0
 11
131.0
 21
102.4
 31
0.0
  0
LINE
  5
123
330
119
100
AcDbEntity
  8
0
 62
7
100
AcDbLine
 10
131.0
 20
117.4
 30
0.0
 11
131.0
 21
120.4
 31
0.0
  0
LINE
  5
124
330
119
100
AcDbEntity
  8
0
 62
7
100
AcDbLine
 10
131.0
 20
108.4
 30
0.0
 11
131.0
 21
114.4
 31
0.0
  0
MTEXT
  5
125
330
119
100
AcDbEntity
  8
09_РАЗМЕРЫ
 62
7
100
AcDbMText
 10
126.25
 20
111.4
 30
0.0
 40
3.5
 71
5
  1
6,0
  7
ГОСТ
 50
90.0
  0
POINT
  5
126
330
119
100
AcDbEntity
  8
Defpoints
100
AcDbPoint
 10
131.0
 20
108.4
 30
0.0
  0
POINT
  5
127
330
119
100
AcDbEntity
  8
Defpoints
100
AcDbPoint
 10
110.0
 20
108.4
 30
0.0
  0
POINT
  5
128
330
119
100
AcDbEntity
  8
Defpoints
100
AcDbPoint
 10
110.0
 20
114.4
 30
0.0
  0
ENDBLK
  5
11B
330
119
100
AcDbEntity
  8
0
100
AcDbBlockEnd
  0
BLOCK
  5
12B
330
12A
100
AcDbEntity
  8
0
100
AcDbBlockBegin
  2
*D7
 70
1
 10
0.0
 20
0.0
 30
0.0
  3
*D7
  1

  0
LINE
  5
12D
330
12A
100
AcDbEntity
  8
0
 62
7
100
AcDbLine
 10
110.0
 20
108.4
 30
0.0
 11
149.0
 21
108.4
 31
0.0
  0
LINE
  5
12E
330
12A
100
AcDbEntity
  8
0
 62
7
100
AcDbLine
 10
110.0
 20
146.3
 30
0.0
 11
149.0
 21
146.3
 31
0.0
  0
INSERT
  5
12F
330
12A
100
AcDbEntity
  8
09_РАЗМЕРЫ
 62
7
100
AcDbBlockReference
  2
_CLOSEDFILLED
 10
147.0
 20
108.4
 30
0.0
 41
3.0
 42
3.0
 50
270.0
  0
INSERT
  5
131
330
12A
100
AcDbEntity
  8
09_РАЗМЕРЫ
 62
7
100
AcDbBlockReference
  2
_CLOSEDFILLED
 10
147.0
 20
146.3
 30
0.0
 41
3.0
 42
3.0
 50
90.0
  0
LINE
  5
133
330
12A
100
AcDbEntity
  8
0
 62
7
100
AcDbLine
 10
147.0
 20
111.4
 30
0.0
 11
147.0
 21
143.3
 31
0.0
  0
MTEXT
  5
134
330
12A
100
AcDbEntity
  8
09_РАЗМЕРЫ
 62
7
100
AcDbMText
 10
144.25
 20
127.35000000000001
 30
0.0
 40
3.5
 71
5
  1
37,9
  7
ГОСТ
 50
90.0
  0
POINT
  5
135
330
12A
100
AcDbEntity
  8
Defpoints
100
AcDbPoint
 10
147.0
 20
108.4
 30
0.0
  0
POINT
  5
136
330
12A
100
AcDbEntity
  8
Defpoints
100
AcDbPoint
 10
110.0
 20
108.4
 30
0.0
  0
POINT
  5
137
330
12A
100
AcDbEntity
  8
Defpoints
100
AcDbPoint
 10
110.0
 20
146.3
 30
0.0
  0
ENDBLK
  5
12C
330
12A
100
AcDbEntity
  8
0
100
AcDbBlockEnd
  0
BLOCK
  5
13A
330
139
100
AcDbEntity
  8
0
100
AcDbBlockBegin
  2
*D8
 70
1
 10
0.0
 20
0.0
 30
0.0
  3
*D8
  1

  0
LINE
  5
13C
330
139
100
AcDbEntity
  8
0
 62
7
100
AcDbLine
 10
125.0
 20
201.0
 30
0.0
 11
159.0
 21
201.0
 31
0.0
  0
LINE
  5
13D
330
139
100
AcDbEntity
  8
0
 62
7
100
AcDbLine
 10
125.0
 20
213.0
 30
0.0
 11
159.0
 21
213.0
 31
0.0
  0
INSERT
  5
13E
330
139
100
AcDbEntity
  8
09_РАЗМЕРЫ
 62
7
100
AcDbBlockReference
  2
_CLOSEDFILLED
 10
157.0
 20
201.0
 30
0.0
 41
3.0
 42
3.0
 50
270.0
  0
INSERT
  5
140
330
139
100
AcDbEntity
  8
09_РАЗМЕРЫ
 62
7
100
AcDbBlockReference
  2
_CLOSEDFILLED
 10
157.0
 20
213.0
 30
0.0
 41
3.0
 42
3.0
 50
90.0
  0
LINE
  5
142
330
139
100
AcDbEntity
  8
0
 62
7
100
AcDbLine
 10
157.0
 20
204.0
 30
0.0
 11
157.0
 21
210.0
 31
0.0
  0
MTEXT
  5
143
330
139
100
AcDbEntity
  8
09_РАЗМЕРЫ
 62
7
100
AcDbMText
 10
154.25
 20
207.0
 30
0.0
 40
3.5
 71
5
  1
12
  7
ГОСТ
 50
90.0
  0
POINT
  5
144
330
139
100
AcDbEntity
  8
Defpoints
100
AcDbPoint
 10
157.0
 20
201.0
 30
0.0
  0
POINT
  5
145
330
139
100
AcDbEntity
  8
Defpoints
100
AcDbPoint
 10
125.0
 20
201.0
 30
0.0
  0
POINT
  5
146
330
139
100
AcDbEntity
  8
Defpoints
100
AcDbPoint
 10
125.0
 20
213.0
 30
0.0
  0
ENDBLK
  5
13B
330
139
100
AcDbEntity
  8
0
100
AcDbBlockEnd
  0
BLOCK
  5
149
330
148
100
AcDbEntity
  8
0
100
AcDbBlockBegin
  2
*D9
 70
1
 10
0.0
 20
0.0
 30
0.0
  3
*D9
  1

  0
LINE
  5
14B
330
148
100
AcDbEntity
  8
0
 62
7
100
AcDbLine
 10
125.0
 20
213.0
 30
0.0
 11
159.0
 21
213.0
 31
0.0
  0
LINE
  5
14C
330
148
100
AcDbEntity
  8
0
 62
7
100
AcDbLine
 10
125.0
 20
235.0
 30
0.0
 11
159.0
 21
235.0
 31
0.0
  0
INSERT
  5
14D
330
148
100
AcDbEntity
  8
09_РАЗМЕРЫ
 62
7
100
AcDbBlockReference
  2
_CLOSEDFILLED
 10
157.0
 20
213.0
 30
0.0
 41
3.0
 42
3.0
 50
270.0
  0
INSERT
  5
14F
330
148
100
AcDbEntity
  8
09_РАЗМЕРЫ
 62
7
100
AcDbBlockReference
  2
_CLOSEDFILLED
 10
157.0
 20
235.0
 30
0.0
 41
3.0
 42
3.0
 50
90.0
  0
LINE
  5
151
330
148
100
AcDbEntity
  8
0
 62
7
100
AcDbLine
 10
157.0
 20
216.0
 30
0.0
 11
157.0
 21
232.0
 31
0.0
  0
MTEXT
  5
152
330
148
100
AcDbEntity
  8
09_РАЗМЕРЫ
 62
7
100
AcDbMText
 10
154.25
 20
224.0
 30
0.0
 40
3.5
 71
5
  1
22
  7
ГОСТ
 50
90.0
  0
POINT
  5
153
330
148
100
AcDbEntity
  8
Defpoints
100
AcDbPoint
 10
157.0
 20
213.0
 30
0.0
  0
POINT
  5
154
330
148
100
AcDbEntity
  8
Defpoints
100
AcDbPoint
 10
125.0
 20
213.0
 30
0.0
  0
POINT
  5
155
330
148
100
AcDbEntity
  8
Defpoints
100
AcDbPoint
 10
125.0
 20
235.0
 30
0.0
  0
ENDBLK
  5
14A
330
148
100
AcDbEntity
  8
0
100
AcDbBlockEnd
  0
BLOCK
  5
16E
330
16D
100
AcDbEntity
  8
0
100
AcDbBlockBegin
  2
*D10
 70
1
 10
0.0
 20
0.0
 30
0.0
  3
*D10
  1

  0
LINE
  5
170
330
16D
100
AcDbEntity
  8
0
 62
7
100
AcDbLine
 10
208.47095347754077
 20
143.7056187960935
 30
0.0
 11
180.1856473893944
 21
181.2414877683162
 31
0.0
  0
LINE
  5
171
330
16D
100
AcDbEntity
  8
0
 62
7
100
AcDbLine
 10
291.5290465224592
 20
206.2943812039065
 30
0.0
 11
263.2437404343129
 21
243.83025017612925
 31
0.0
  0
INSERT
  5
172
330
16D
100
AcDbEntity
  8
09_РАЗМЕРЫ
 62
7
100
AcDbBlockReference
  2
_CLOSEDFILLED
 10
181.38927743569852
 20
179.64421674822162
 30
0.0
 41
3.0
 42
3.0
 50
217.0
  0
INSERT
  5
174
330
16D
100
AcDbEntity
  8
09_РАЗМЕРЫ
 62
7
100
AcDbBlockReference
  2
_CLOSEDFILLED
 10
264.447370480617
 20
242.23297915603467
 30
0.0
 41
3.0
 42
3.0
 50
37.0
  0
LINE
  5
176
330
16D
100
AcDbEntity
  8
0
 62
7
100
AcDbLine
 10
183.7851839658404
 20
181.44966181767776
 30
0.0
 11
262.0514639504751
 21
240.42753408657853
 31
0.0
  0
MTEXT
  5
177
330
16D
100
AcDbEntity
  8
09_РАЗМЕРЫ
 62
7
100
AcDbMText
 10
221.26333264448965
 20
213.1348456047582
 30
0.0
 40
3.5
 71
5
  1
104
  7
ГОСТ
 50
37.0
  0
POINT
  5
178
330
16D
100
AcDbEntity
  8
Defpoints
100
AcDbPoint
 10
181.38927743569852
 20
179.64421674822162
 30
0.0
  0
POINT
  5
179
330
16D
100
AcDbEntity
  8
Defpoints
100
AcDbPoint
 10
208.47095347754077
 20
143.7056187960935
 30
0.0
  0
POINT
  5
17A
330
16D
100
AcDbEntity
  8
Defpoints
100
AcDbPoint
 10
291.5290465224592
 20
206.2943812039065
 30
0.0
  0
ENDBLK
  5
16F
330
16D
100
AcDbEntity
  8
0
100
AcDbBlockEnd
  0
BLOCK
  5
17D
330
17C
100
AcDbEntity
  8
0
100
AcDbBlockBegin
  2
*D11
 70
1
 10
0.0
 20
0.0
 30
0.0
  3
*D11
  1

  0
LINE
  5
17F
330
17C
100
AcDbEntity
  8
0
 62
7
100
AcDbLine
 10
266.2490056251053
 20
153.4368412287231
 30
0.0
 11
325.34803336860494
 21
197.97115294197474
 31
0.0
  0
LINE
  5
180
330
17C
100
AcDbEntity
  8
0
 62
7
100
AcDbLine
 10
233.7509943748947
 20
196.5631587712769
 30
0.0
 11
292.85002211839435
 21
241.0974704845285
 31
0.0
  0
INSERT
  5
181
330
17C
100
AcDbEntity
  8
09_РАЗМЕРЫ
 62
7
100
AcDbBlockReference
  2
_CLOSEDFILLED
 10
323.75076234851036
 20
196.76752289567065
 30
0.0
 41
3.0
 42
3.0
 50
307.0
  0
INSERT
  5
183
330
17C
100
AcDbEntity
  8
09_РАЗМЕРЫ
 62
7
100
AcDbBlockReference
  2
_CLOSEDFILLED
 10
291.25275109829977
 20
239.8938404382244
 30
0.0
 41
3.0
 42
3.0
 50
127.0
  0
LINE
  5
185
330
17C
100
AcDbEntity
  8
0
 62
7
100
AcDbLine
 10
321.9453172790542
 20
199.16342942581252
 30
0.0
 11
293.0581961677559
 21
237.49793390808253
 31
0.0
  0
MTEXT
  5
186
330
17C
100
AcDbEntity
  8
09_РАЗМЕРЫ
 62
7
100
AcDbMText
 10
305.305509070775
 20
216.67569035327938
 30
0.0
 40
3.5
 71
5
  1
54
  7
ГОСТ
 50
127.0
  0
POINT
  5
187
330
17C
100
AcDbEntity
  8
Defpoints
100
AcDbPoint
 10
323.75076234851036
 20
196.76752289567065
 30
0.0
  0
POINT
  5
188
330
17C
100
AcDbEntity
  8
Defpoints
100
AcDbPoint
 10
266.2490056251053
 20
153.4368412287231
 30
0.0
  0
POINT
  5
189
330
17C
100
AcDbEntity
  8
Defpoints
100
AcDbPoint
 10
233.7509943748947
 20
196.5631587712769
 30
0.0
  0
ENDBLK
  5
17E
330
17C
100
AcDbEntity
  8
0
100
AcDbBlockEnd
  0
BLOCK
  5
18C
330
18B
100
AcDbEntity
  8
0
100
AcDbBlockBegin
  2
*D12
 70
1
 10
0.0
 20
0.0
 30
0.0
  3
*D12
  1

  0
LINE
  5
18E
330
18B
100
AcDbEntity
  8
0
 62
7
100
AcDbLine
 10
284.0
 20
175.0
 30
0.0
 11
288.0
 21
175.0
 31
0.0
  0
LINE
  5
18F
330
18B
100
AcDbEntity
  8
0
 62
7
100
AcDbLine
 10
277.15360734160794
 20
195.46171078716964
 30
0.0
 11
280.3481493817971
 21
197.86897087977783
 31
0.0
  0
INSERT
  5
190
330
18B
100
AcDbEntity
  8
09_РАЗМЕРЫ
 62
7
100
AcDbBlockReference
  2
_CLOSEDFILLED
 10
286.0
 20
175.0
 30
0.0
 41
3.0
 42
3.0
 50
272.38732414637843
  0
INSERT
  5
192
330
18B
100
AcDbEntity
  8
09_РАЗМЕРЫ
 62
7
100
AcDbBlockReference
  2
_CLOSEDFILLED
 10
278.7508783617025
 20
196.66534083347372
 30
0.0
 41
3.0
 42
3.0
 50
124.61267585362158
  0
MTEXT
  5
194
330
18B
100
AcDbEntity
  8
09_РАЗМЕРЫ
 62
7
100
AcDbMText
 10
286.7475416392402
 20
187.2955554356973
 30
0.0
 40
3.5
 71
5
  1
37°
  7
ГОСТ
 50
-71.49999999999999
  0
ARC
  5
195
330
18B
100
AcDbEntity
  8
09_РАЗМЕРЫ
 62
7
100
AcDbCircle
 10
250.0
 20
175.0
 30
0.0
 40
35.99999999999997
100
AcDbArc
 50
4.774648292756864
 51
32.22535170724315
  0
POINT
  5
196
330
18B
100
AcDbEntity
  8
Defpoints
100
AcDbPoint
 10
284.13965158742315
 20
186.42296763058332
 30
0.0
  0
POINT
  5
197
330
18B
100
AcDbEntity
  8
Defpoints
100
AcDbPoint
 10
284.0
 20
175.0
 30
0.0
  0
POINT
  5
198
330
18B
100
AcDbEntity
  8
Defpoints
100
AcDbPoint
 10
277.15360734160794
 20
195.46171078716964
 30
0.0
  0
POINT
  5
199
330
18B
100
AcDbEntity
  8
Defpoints
100
AcDbPoint
 10
250.0
 20
175.0
 30
0.0
  0
ENDBLK
  5
18D
330
18B
100
AcDbEntity
  8
0
100
AcDbBlockEnd
  0
ENDSEC
  0
SECTION
  2
ENTITIES
  0
LWPOLYLINE
  5
A2
330
17
100
AcDbEntity
  8
20_ВИДИМЫЕ
100
AcDbPolyline
 90
2
 70
0
 10
52.61455217969919
 20
213.0
 10
52.61455217969919
 20
201.0
  0
LWPOLYLINE
  5
A3
330
17
100
AcDbEntity
  8
20_ВИДИМЫЕ
100
AcDbPolyline
 90
7
 70
0
 10
141.96588775118232
 20
201.0
 10
141.82967110088265
 20
201.0
 10
141.43831585666135
 20
201.0
 10
140.7954069285325
 20
201.0
 10
139.89187499438958
 20
201.0
 10
138.75174065492592
 20
201.0
 10
137.3854478203008
 20
201.0
  0
LWPOLYLINE
  5
A4
330
17
100
AcDbEntity
  8
20_ВИДИМЫЕ
100
AcDbPolyline
 90
2
 70
0
 10
137.3854478203009
 20
201.0
 10
109.89999999999998
 20
201.0
  0
LWPOLYLINE
  5
A5
330
17
100
AcDbEntity
  8
20_ВИДИМЫЕ
100
AcDbPolyline
 90
2
 70
0
 10
80.10000000000002
 20
201.0
 10
52.61455217969922
 20
201.0
  0
LWPOLYLINE
  5
A6
330
17
100
AcDbEntity
  8
20_ВИДИМЫЕ
100
AcDbPolyline
 90
33
 70
0
 10
52.614552177052246
 20
213.0
 10
53.14606215073225
 20
213.6076023920288
 10
53.678089250318735
 20
214.2147513725531
 10
54.210661079345456
 20
214.82142196182946
 10
54.74380716131341
 20
215.42758727749907
 10
55.277559191420714
 20
216.03321831203425
 10
55.81195128829231
 20
216.63828371018502
 10
56.34702024570975
 20
217.2427495464257
 10
56.88280578434078
 20
217.84657910240122
 10
57.41935080225665
 20
218.4497326423413
 10
57.956701398790905
 20
219.05216663379468
 10
58.494907893960885
 20
219.65383396347
 10
59.034025143066884
 20
220.25468346370337
 10
59.57411264929866
 20
220.85465897659637
 10
60.11523513498285
 20
221.45369883694855
 10
60.65746322481184
 20
222.05173525352768
 10
61.20087424105416
 20
222.64869358867787
 10
61.74555311074626
 20
223.24449153626495
 10
62.2915932998023
 20
223.83903810464187
 10
62.83908971638353
 20
224.432223543329
 10
63.38815572472197
 20
225.02393502294916
 10
63.938922735371136
 20
225.61405265709817
 10
64.49153392693893
 20
226.20243883965588
 10
65.04614647422052
 20
226.78893608573998
 10
65.60293422584795
 20
227.3733644358311
 10
66.16209090369868
 20
227.95551835467973
 10
66.72383395359101
 20
228.5351630006629
 10
67.28840923407839
 20
229.11202968531524
 10
67.85609678744011
 20
229.68581028681763
 10
68.42721799425067
 20
230.25615032528253
 10
69.00214440431375
 20
230.82264028709614
 10
69.58129496998781
 20
231.3847913506196
 10
70.16514846597397
 20
231.94202081997037
  0
LWPOLYLINE
  5
A7
330
17
100
AcDbEntity
  8
20_ВИДИМЫЕ
100
AcDbPolyline
 90
2
 70
0
 10
109.9
 20
153.40000000000003
 10
109.9
 20
201.0
  0
LWPOLYLINE
  5
A8
330
17
100
AcDbEntity
  8
20_ВИДИМЫЕ
100
AcDbPolyline
 90
2
 70
0
 10
137.3854478203008
 20
213.0
 10
137.3854478203008
 20
201.0
  0
LWPOLYLINE
  5
A9
330
17
100
AcDbEntity
  8
20_ВИДИМЫЕ
100
AcDbPolyline
 90
33
 70
0
 10
137.38544782294775
 20
213.0
 10
136.8539378492665
 20
213.60760239203023
 10
136.32191074967872
 20
214.214751372556
 10
135.78933892065072
 20
214.8214219618338
 10
135.2561928386815
 20
215.42758727750487
 10
134.7224408085729
 20
216.03321831204147
 10
134.1880487117
 20
216.6382837101937
 10
133.65297975428126
 20
217.24274954643576
 10
133.11719421564882
 20
217.84657910241265
 10
132.58064919773145
 20
218.44973264235398
 10
132.04329860119623
 20
219.05216663380818
 10
131.5050921060255
 20
219.65383396348417
 10
130.96597485691862
 20
220.2546834637185
 10
130.42588735068588
 20
220.85465897661265
 10
129.88476486500076
 20
221.45369883696603
 10
129.34253677517097
 20
222.05173525354633
 10
128.79912575892783
 20
222.64869358869757
 10
128.25444688923483
 20
223.24449153628564
 10
127.70840670017782
 20
223.83903810466344
 10
127.16091028359773
 20
224.43222354334952
 10
126.61184427526041
 20
225.02393502296826
 10
126.0610772646119
 20
225.6140526571162
 10
125.50846607304504
 20
226.20243883967277
 10
124.95385352576467
 20
226.78893608575564
 10
124.39706577413833
 20
227.3733644358456
 10
123.83790909628833
 20
227.95551835469323
 10
123.27616604639672
 20
228.53516300067528
 10
122.71159076591042
 20
229.11202968532626
 10
122.14390321254984
 20
229.6858102868274
 10
121.57278200573958
 20
230.25615032529174
 10
120.99785559567738
 20
230.82264028710398
 10
120.41870503000816
 20
231.38479135062377
 10
119.83485153402603
 20
231.94202081997037
  0
LWPOLYLINE
  5
AA
330
17
100
AcDbEntity
  8
20_ВИДИМЫЕ
100
AcDbPolyline
 90
7
 70
0
 10
116.60132183459223
 20
235.0
 10
117.13611356558695
 20
234.49424247461837
 10
117.67260930826313
 20
233.98687344950466
 10
118.210769547709
 20
233.47793029427928
 10
118.75055539811142
 20
232.96744978361818
 10
119.29192860275592
 20
232.4554680972529
 10
119.83485153402671
 20
231.94202081997037
  0
LWPOLYLINE
  5
AB
330
17
100
AcDbEntity
  8
20_ВИДИМЫЕ
100
AcDbPolyline
 90
2
 70
0
 10
73.39867816540777
 20
235.0
 10
116.60132183459245
 20
235.0
  0
LWPOLYLINE
  5
AC
330
17
100
AcDbEntity
  8
20_ВИДИМЫЕ
100
AcDbPolyline
 90
7
 70
0
 10
73.39867816540777
 20
235.0
 10
72.86388643441305
 20
234.49424247461843
 10
72.32739069173687
 20
233.9868734495048
 10
71.789230452291
 20
233.47793029427945
 10
71.24944460188858
 20
232.96744978361832
 10
70.70807139724408
 20
232.45546809725295
 10
70.16514846597329
 20
231.94202081997037
  0
LWPOLYLINE
  5
AD
330
17
100
AcDbEntity
  8
20_ВИДИМЫЕ
100
AcDbPolyline
 90
2
 70
0
 10
80.1
 20
153.4000000016157
 10
80.1
 20
201.0
  0
LWPOLYLINE
  5
AE
330
17
100
AcDbEntity
  8
20_ВИДИМЫЕ
100
AcDbPolyline
 90
2
 70
0
 10
80.09999999951548
 20
153.4
 10
109.9
 20
153.4
  0
LWPOLYLINE
  5
AF
330
17
100
AcDbEntity
  8
20_ВИДИМЫЕ
100
AcDbPolyline
 90
7
 70
0
 10
141.96588775118232
 20
213.0
 10
141.82967110088265
 20
213.0
 10
141.43831585666135
 20
213.0
 10
140.7954069285325
 20
213.0
 10
139.89187499438958
 20
213.0
 10
138.75174065492592
 20
213.0
 10
137.3854478203008
 20
213.0
  0
LWPOLYLINE
  5
B0
330
17
100
AcDbEntity
  8
20_ВИДИМЫЕ
100
AcDbPolyline
 90
2
 70
0
 10
109.9
 20
127.0
 10
109.9
 20
139.2
  0
LWPOLYLINE
  5
B1
330
17
100
AcDbEntity
  8
20_ВИДИМЫЕ
100
AcDbPolyline
 90
19
 70
0
 10
109.9
 20
139.2
 10
109.8233712321635
 20
139.36225290159416
 10
109.6192153696133
 20
139.80989536427973
 10
109.34207055902202
 20
140.4609086225508
 10
109.03792990740325
 20
141.25386524339316
 10
108.74170582575827
 20
142.14855704932302
 10
108.48028389275129
 20
143.11911125231757
 10
108.27541050859651
 20
144.14674104202837
 10
108.14459138063917
 20
145.2135920005996
 10
108.09961832233023
 20
146.30043673359233
 10
108.14470379803016
 20
147.38776752350205
 10
108.27567494945217
 20
148.45488868674917
 10
108.48074592872352
 20
149.48284636254465
 10
108.74217934464767
 20
150.45301013354091
 10
109.03852407757488
 20
151.34778744737096
 10
109.34265888528134
 20
152.14053627840167
 10
109.61956546946828
 20
152.79089320903006
 10
109.8234720594665
 20
153.23796252566981
 10
109.9
 20
153.4
  0
LWPOLYLINE
  5
B2
330
17
100
AcDbEntity
  8
20_ВИДИМЫЕ
100
AcDbPolyline
 90
19
 70
0
 10
80.1
 20
139.2
 10
80.17668565480153
 20
139.36237444861942
 10
80.38097623808434
 20
139.81032697976732
 10
80.65827170130997
 20
140.46174933851046
 10
80.96253839818556
 20
141.25516817751787
 10
81.25883667549587
 20
142.15035313728336
 10
81.52026003612269
 20
143.12141715706375
 10
81.7250468227706
 20
144.14956240974556
 10
81.85568214254438
 20
145.216906414396
 10
81.90038101073671
 20
146.30420290851544
 10
81.854952523889
 20
147.3919127302747
 10
81.72360475870612
 20
148.4593217661367
 10
81.51816465314289
 20
149.48745737118492
 10
81.25640960103368
 20
150.45767688578894
 10
80.9598357763672
 20
151.35234710453958
 10
80.65563158444078
 20
152.14473313071585
 10
80.37893171987822
 20
152.7942772598018
 10
80.17626675225398
 20
153.23852048562327
 10
80.09999999951548
 20
153.4000000016157
  0
LWPOLYLINE
  5
B3
330
17
100
AcDbEntity
  8
20_ВИДИМЫЕ
100
AcDbPolyline
 90
2
 70
0
 10
80.1
 20
127.0
 10
80.1
 20
139.2
  0
LWPOLYLINE
  5
B4
330
17
100
AcDbEntity
  8
20_ВИДИМЫЕ
100
AcDbPolyline
 90
7
 70
0
 10
109.9
 20
127.0
 10
109.7821335703852
 20
127.0
 10
109.44412311076316
 20
127.0
 10
108.89082430959373
 20
127.0
 10
108.11775881503124
 20
127.0
 10
107.14951427360855
 20
127.0
 10
106.0
 20
127.0
  0
LWPOLYLINE
  5
B5
330
17
100
AcDbEntity
  8
20_ВИДИМЫЕ
100
AcDbPolyline
 90
7
 70
0
 10
84.0
 20
127.0
 10
82.85048572639145
 20
127.0
 10
81.88224118496876
 20
127.0
 10
81.10917569040627
 20
127.0
 10
80.55587688923684
 20
127.0
 10
80.2178664296148
 20
127.0
 10
80.1
 20
127.0
  0
LWPOLYLINE
  5
B6
330
17
100
AcDbEntity
  8
20_ВИДИМЫЕ
100
AcDbPolyline
 90
7
 70
0
 10
123.17407469089856
 20
235.0
 10
123.01366112989395
 20
235.0
 10
122.5549494077743
 20
235.0
 10
121.80822139772872
 20
235.0
 10
120.7743741645222
 20
235.0
 10
119.49462867037181
 20
235.0
 10
117.9976699918752
 20
235.0
  0
LWPOLYLINE
  5
B7
330
17
100
AcDbEntity
  8
20_ВИДИМЫЕ
100
AcDbPolyline
 90
2
 70
0
 10
117.9976699918752
 20
235.0
 10
116.60132183459228
 20
235.0
  0
LWPOLYLINE
  5
B8
330
17
100
AcDbEntity
  8
20_ВИДИМЫЕ
100
AcDbPolyline
 90
2
 70
0
 10
80.1
 20
139.2
 10
109.9
 20
139.2
  0
LWPOLYLINE
  5
B9
330
17
100
AcDbEntity
  8
20_ВИДИМЫЕ
100
AcDbPolyline
 90
2
 70
0
 10
84.0
 20
127.0
 10
80.10000000000002
 20
127.0
  0
LWPOLYLINE
  5
BA
330
17
100
AcDbEntity
  8
20_ВИДИМЫЕ
100
AcDbPolyline
 90
2
 70
0
 10
84.0
 20
114.4
 10
84.0
 20
127.0
  0
LWPOLYLINE
  5
BB
330
17
100
AcDbEntity
  8
20_ВИДИМЫЕ
100
AcDbPolyline
 90
2
 70
0
 10
84.0
 20
114.40000000000005
 10
80.10000000000002
 20
114.40000000000005
  0
LWPOLYLINE
  5
BC
330
17
100
AcDbEntity
  8
20_ВИДИМЫЕ
100
AcDbPolyline
 90
2
 70
0
 10
80.1
 20
108.4
 10
80.1
 20
114.4
  0
LWPOLYLINE
  5
BD
330
17
100
AcDbEntity
  8
20_ВИДИМЫЕ
100
AcDbPolyline
 90
2
 70
0
 10
109.89999999999998
 20
108.40000000000005
 10
80.10000000000002
 20
108.40000000000005
  0
LWPOLYLINE
  5
BE
330
17
100
AcDbEntity
  8
20_ВИДИМЫЕ
100
AcDbPolyline
 90
2
 70
0
 10
109.9
 20
108.4
 10
109.9
 20
114.4
  0
LWPOLYLINE
  5
BF
330
17
100
AcDbEntity
  8
20_ВИДИМЫЕ
100
AcDbPolyline
 90
2
 70
0
 10
109.89999999999998
 20
114.40000000000005
 10
106.0
 20
114.40000000000005
  0
LWPOLYLINE
  5
C0
330
17
100
AcDbEntity
  8
20_ВИДИМЫЕ
100
AcDbPolyline
 90
2
 70
0
 10
106.0
 20
114.4
 10
106.0
 20
127.0
  0
LWPOLYLINE
  5
C1
330
17
100
AcDbEntity
  8
20_ВИДИМЫЕ
100
AcDbPolyline
 90
2
 70
0
 10
109.89999999999998
 20
127.0
 10
106.0
 20
127.0
  0
LWPOLYLINE
  5
C2
330
17
100
AcDbEntity
  8
20_ВИДИМЫЕ
100
AcDbPolyline
 90
7
 70
0
 10
109.9
 20
114.4
 10
109.7821335703852
 20
114.4
 10
109.44412311076316
 20
114.4
 10
108.89082430959373
 20
114.4
 10
108.11775881503124
 20
114.4
 10
107.14951427360855
 20
114.4
 10
106.0
 20
114.4
  0
LWPOLYLINE
  5
C3
330
17
100
AcDbEntity
  8
20_ВИДИМЫЕ
100
AcDbPolyline
 90
7
 70
0
 10
84.0
 20
114.4
 10
82.85048572639145
 20
114.4
 10
81.88224118496876
 20
114.4
 10
81.10917569040627
 20
114.4
 10
80.55587688923684
 20
114.4
 10
80.2178664296148
 20
114.4
 10
80.1
 20
114.4
  0
LWPOLYLINE
  5
C4
330
17
100
AcDbEntity
  8
20_ВИДИМЫЕ
100
AcDbPolyline
 90
2
 70
0
 10
141.96588775118232
 20
213.0
 10
141.96588775118232
 20
201.0
  0
LWPOLYLINE
  5
C5
330
17
100
AcDbEntity
  8
20_ВИДИМЫЕ
100
AcDbPolyline
 90
37
 70
0
 10
123.17407469004317
 20
235.0
 10
123.69606949724772
 20
234.38888888888883
 10
124.21806430445226
 20
233.7777777777777
 10
124.74005911165679
 20
233.16666666666657
 10
125.26205391886131
 20
232.55555555555543
 10
125.78404872606583
 20
231.94444444444431
 10
126.30604353327037
 20
231.3333333333332
 10
126.8280383404749
 20
230.7222222222221
 10
127.35003314767943
 20
230.11111111111097
 10
127.87202795488396
 20
229.49999999999983
 10
128.3940227620885
 20
228.8888888888887
 10
128.91601756929302
 20
228.27777777777757
 10
129.43801237649757
 20
227.66666666666643
 10
129.9600071837021
 20
227.0555555555553
 10
130.48200199090664
 20
226.44444444444414
 10
131.00399679811116
 20
225.833333333333
 10
131.5259916053157
 20
225.2222222222219
 10
132.04798641252023
 20
224.61111111111074
 10
132.56998121972472
 20
223.99999999999966
 10
133.09197602692925
 20
223.38888888888854
 10
133.61397083413374
 20
222.77777777777746
 10
134.13596564133826
 20
222.16666666666637
 10
134.65796044854275
 20
221.5555555555553
 10
135.17995525574725
 20
220.9444444444442
 10
135.70195006295174
 20
220.33333333333312
 10
136.22394487015623
 20
219.72222222222203
 10
136.74593967736072
 20
219.11111111111094
 10
137.26793448456522
 20
218.49999999999986
 10
137.78992929176974
 20
217.88888888888874
 10
138.31192409897423
 20
217.27777777777766
 10
138.83391890617872
 20
216.66666666666657
 10
139.35591371338325
 20
216.05555555555546
 10
139.87790852058777
 20
215.44444444444437
 10
140.39990332779226
 20
214.83333333333326
 10
140.92189813499675
 20
214.22222222222217
 10
141.44389294220124
 20
213.6111111111111
 10
141.96588774940574
 20
213.0
  0
HATCH
  5
C6
330
17
100
AcDbEntity
  8
23_ШТРИХОВКА
 62
7
100
AcDbHatch
 10
0.0
 20
0.0
 30
0.0
210
0.0
220
0.0
230
1.0
  2
ANSI31
 70
0
 71
0
 91
1
 92
3
 72
0
 73
1
 93
342
 10
109.9
 20
138.4
 10
109.9
 20
138.0
 10
109.9
 20
137.6
 10
109.9
 20
137.2
 10
109.9
 20
136.8
 10
109.9
 20
136.4
 10
109.9
 20
136.0
 10
109.9
 20
135.6
 10
109.9
 20
135.2
 10
109.9
 20
134.8
 10
109.9
 20
134.4
 10
109.9
 20
134.0
 10
109.9
 20
133.6
 10
109.9
 20
133.2
 10
109.9
 20
132.8
 10
109.9
 20
132.4
 10
109.9
 20
132.0
 10
109.9
 20
131.6
 10
109.9
 20
131.2
 10
109.9
 20
130.8
 10
109.9
 20
130.4
 10
109.9
 20
130.0
 10
109.9
 20
129.60000000000002
 10
109.9
 20
129.2
 10
109.9
 20
128.8
 10
109.9
 20
128.4
 10
109.9
 20
128.0
 10
109.9
 20
127.60000000000001
 10
109.9
 20
127.2
 10
109.7
 20
127.0
 10
109.3
 20
127.0
 10
108.9
 20
127.0
 10
108.5
 20
127.0
 10
108.10000000000001
 20
127.0
 10
107.7
 20
127.0
 10
107.3
 20
127.0
 10
106.9
 20
127.0
 10
106.5
 20
127.0
 10
106.10000000000001
 20
127.0
 10
106.0
 20
126.7
 10
106.0
 20
126.3
 10
106.0
 20
125.9
 10
106.0
 20
125.5
 10
106.0
 20
125.1
 10
106.0
 20
124.7
 10
106.0
 20
124.3
 10
106.0
 20
123.9
 10
106.0
 20
123.5
 10
106.0
 20
123.1
 10
106.0
 20
122.7
 10
106.0
 20
122.3
 10
106.0
 20
121.9
 10
106.0
 20
121.5
 10
106.0
 20
121.1
 10
106.0
 20
120.7
 10
106.0
 20
120.3
 10
106.0
 20
119.9
 10
106.0
 20
119.5
 10
106.0
 20
119.1
 10
106.0
 20
118.7
 10
106.0
 20
118.3
 10
106.0
 20
117.9
 10
106.0
 20
117.5
 10
106.0
 20
117.1
 10
106.0
 20
116.69999999999999
 10
106.0
 20
116.3
 10
106.0
 20
115.9
 10
106.0
 20
115.5
 10
106.0
 20
115.1
 10
106.0
 20
114.69999999999999
 10
106.1
 20
114.4
 10
106.5
 20
114.4
 10
106.9
 20
114.4
 10
107.3
 20
114.4
 10
107.7
 20
114.4
 10
108.1
 20
114.4
 10
108.5
 20
114.4
 10
108.9
 20
114.4
 10
109.3
 20
114.4
 10
109.69999999999999
 20
114.4
 10
109.9
 20
114.19999999999999
 10
109.9
 20
113.8
 10
109.9
 20
113.4
 10
109.9
 20
113.0
 10
109.9
 20
112.6
 10
109.9
 20
112.19999999999999
 10
109.9
 20
111.8
 10
109.9
 20
111.4
 10
109.9
 20
111.0
 10
109.9
 20
110.6
 10
109.9
 20
110.19999999999999
 10
109.9
 20
109.8
 10
109.9
 20
109.4
 10
109.9
 20
109.0
 10
109.9
 20
108.6
 10
109.7
 20
108.4
 10
109.3
 20
108.4
 10
108.9
 20
108.4
 10
108.5
 20
108.4
 10
108.1
 20
108.4
 10
107.7
 20
108.4
 10
107.3
 20
108.4
 10
106.9
 20
108.4
 10
106.5
 20
108.4
 10
106.10000000000001
 20
108.4
 10
105.7
 20
108.4
 10
105.3
 20
108.4
 10
104.89999999999999
 20
108.4
 10
104.5
 20
108.4
 10
104.1
 20
108.4
 10
103.7
 20
108.4
 10
103.3
 20
108.4
 10
102.9
 20
108.4
 10
102.5
 20
108.4
 10
102.10000000000001
 20
108.4
 10
101.7
 20
108.4
 10
101.3
 20
108.4
 10
100.89999999999999
 20
108.4
 10
100.5
 20
108.4
 10
100.1
 20
108.4
 10
99.7
 20
108.4
 10
99.3
 20
108.4
 10
98.9
 20
108.4
 10
98.5
 20
108.4
 10
98.10000000000001
 20
108.4
 10
97.7
 20
108.4
 10
97.3
 20
108.4
 10
96.89999999999999
 20
108.4
 10
96.5
 20
108.4
 10
96.1
 20
108.4
 10
95.7
 20
108.4
 10
95.3
 20
108.4
 10
94.9
 20
108.4
 10
94.5
 20
108.4
 10
94.10000000000001
 20
108.4
 10
93.7
 20
108.4
 10
93.3
 20
108.4
 10
92.89999999999999
 20
108.4
 10
92.5
 20
108.4
 10
92.1
 20
108.4
 10
91.7
 20
108.4
 10
91.3
 20
108.4
 10
90.9
 20
108.4
 10
90.5
 20
108.4
 10
90.10000000000001
 20
108.4
 10
89.7
 20
108.4
 10
89.3
 20
108.4
 10
88.89999999999999
 20
108.4
 10
88.5
 20
108.4
 10
88.1
 20
108.4
 10
87.7
 20
108.4
 10
87.3
 20
108.4
 10
86.9
 20
108.4
 10
86.5
 20
108.4
 10
86.10000000000001
 20
108.4
 10
85.7
 20
108.4
 10
85.3
 20
108.4
 10
84.89999999999999
 20
108.4
 10
84.5
 20
108.4
 10
84.1
 20
108.4
 10
83.7
 20
108.4
 10
83.3
 20
108.4
 10
82.89999999999999
 20
108.4
 10
82.5
 20
108.4
 10
82.1
 20
108.4
 10
81.69999999999999
 20
108.4
 10
81.3
 20
108.4
 10
80.89999999999999
 20
108.4
 10
80.5
 20
108.4
 10
80.1
 20
108.4
 10
80.1
 20
108.79999999999998
 10
80.1
 20
109.20000000000002
 10
80.1
 20
109.6
 10
80.1
 20
110.0
 10
80.1
 20
110.4
 10
80.1
 20
110.80000000000001
 10
80.1
 20
111.19999999999999
 10
80.1
 20
111.6
 10
80.1
 20
112.0
 10
80.1
 20
112.4
 10
80.1
 20
112.80000000000001
 10
80.1
 20
113.19999999999999
 10
80.1
 20
113.6
 10
80.1
 20
114.0
 10
80.1
 20
114.4
 10
80.5
 20
114.4
 10
80.89999999999999
 20
114.4
 10
81.3
 20
114.4
 10
81.7
 20
114.4
 10
82.1
 20
114.4
 10
82.49999999999999
 20
114.4
 10
82.9
 20
114.4
 10
83.3
 20
114.4
 10
83.69999999999999
 20
114.4
 10
84.0
 20
114.5
 10
84.0
 20
114.9
 10
84.0
 20
115.29999999999998
 10
84.0
 20
115.69999999999999
 10
84.0
 20
116.1
 10
84.0
 20
116.5
 10
84.0
 20
116.9
 10
84.0
 20
117.29999999999998
 10
84.0
 20
117.69999999999999
 10
84.0
 20
118.1
 10
84.0
 20
118.5
 10
84.0
 20
118.9
 10
84.0
 20
119.29999999999998
 10
84.0
 20
119.69999999999999
 10
84.0
 20
120.1
 10
84.0
 20
120.5
 10
84.0
 20
120.89999999999998
 10
84.0
 20
121.30000000000001
 10
84.0
 20
121.69999999999999
 10
84.0
 20
122.1
 10
84.0
 20
122.5
 10
84.0
 20
122.9
 10
84.0
 20
123.30000000000001
 10
84.0
 20
123.69999999999999
 10
84.0
 20
124.1
 10
84.0
 20
124.5
 10
84.0
 20
124.9
 10
84.0
 20
125.29999999999998
 10
84.0
 20
125.69999999999999
 10
84.0
 20
126.1
 10
84.0
 20
126.5
 10
84.0
 20
126.9
 10
83.7
 20
127.0
 10
83.3
 20
127.0
 10
82.89999999999999
 20
127.0
 10
82.5
 20
127.0
 10
82.10000000000001
 20
127.0
 10
81.69999999999999
 20
127.0
 10
81.3
 20
127.0
 10
80.9
 20
127.0
 10
80.5
 20
127.0
 10
80.1
 20
127.0
 10
80.1
 20
127.4
 10
80.1
 20
127.8
 10
80.1
 20
128.2
 10
80.1
 20
128.60000000000002
 10
80.1
 20
129.0
 10
80.1
 20
129.39999999999998
 10
80.1
 20
129.8
 10
80.1
 20
130.2
 10
80.1
 20
130.6
 10
80.1
 20
131.0
 10
80.1
 20
131.39999999999998
 10
80.1
 20
131.8
 10
80.1
 20
132.2
 10
80.1
 20
132.6
 10
80.1
 20
133.0
 10
80.1
 20
133.4
 10
80.1
 20
133.8
 10
80.1
 20
134.2
 10
80.1
 20
134.6
 10
80.1
 20
135.0
 10
80.1
 20
135.4
 10
80.1
 20
135.8
 10
80.1
 20
136.2
 10
80.1
 20
136.60000000000002
 10
80.1
 20
137.0
 10
80.1
 20
137.39999999999998
 10
80.1
 20
137.8
 10
80.1
 20
138.2
 10
80.1
 20
138.6
 10
80.1
 20
139.0
 10
80.29999999999998
 20
139.2
 10
80.69999999999999
 20
139.2
 10
81.1
 20
139.2
 10
81.49999999999999
 20
139.2
 10
81.89999999999998
 20
139.2
 10
82.3
 20
139.2
 10
82.69999999999999
 20
139.2
 10
83.09999999999998
 20
139.2
 10
83.49999999999999
 20
139.2
 10
83.89999999999999
 20
139.2
 10
84.3
 20
139.2
 10
84.69999999999999
 20
139.2
 10
85.09999999999998
 20
139.2
 10
85.5
 20
139.2
 10
85.89999999999999
 20
139.2
 10
86.29999999999998
 20
139.2
 10
86.69999999999999
 20
139.2
 10
87.1
 20
139.2
 10
87.49999999999999
 20
139.2
 10
87.9
 20
139.2
 10
88.29999999999998
 20
139.2
 10
88.69999999999999
 20
139.2
 10
89.1
 20
139.2
 10
89.49999999999999
 20
139.2
 10
89.89999999999998
 20
139.2
 10
90.3
 20
139.2
 10
90.69999999999999
 20
139.2
 10
91.1
 20
139.2
 10
91.5
 20
139.2
 10
91.9
 20
139.2
 10
92.30000000000001
 20
139.2
 10
92.69999999999999
 20
139.2
 10
93.1
 20
139.2
 10
93.5
 20
139.2
 10
93.9
 20
139.2
 10
94.29999999999998
 20
139.2
 10
94.69999999999999
 20
139.2
 10
95.1
 20
139.2
 10
95.5
 20
139.2
 10
95.89999999999999
 20
139.2
 10
96.29999999999998
 20
139.2
 10
96.69999999999999
 20
139.2
 10
97.1
 20
139.2
 10
97.5
 20
139.2
 10
97.89999999999998
 20
139.2
 10
98.30000000000001
 20
139.2
 10
98.69999999999999
 20
139.2
 10
99.1
 20
139.2
 10
99.5
 20
139.2
 10
99.9
 20
139.2
 10
100.30000000000001
 20
139.2
 10
100.69999999999999
 20
139.2
 10
101.1
 20
139.2
 10
101.5
 20
139.2
 10
101.9
 20
139.2
 10
102.30000000000001
 20
139.2
 10
102.69999999999999
 20
139.2
 10
103.10000000000002
 20
139.2
 10
103.5
 20
139.2
 10
103.9
 20
139.2
 10
104.30000000000001
 20
139.2
 10
104.70000000000002
 20
139.2
 10
105.1
 20
139.2
 10
105.5
 20
139.2
 10
105.9
 20
139.2
 10
106.30000000000001
 20
139.2
 10
106.70000000000002
 20
139.2
 10
107.1
 20
139.2
 10
107.5
 20
139.2
 10
107.9
 20
139.2
 10
108.30000000000001
 20
139.2
 10
108.69999999999999
 20
139.2
 10
109.1
 20
139.2
 10
109.5
 20
139.2
 10
109.9
 20
139.2
 10
109.9
 20
138.8
 97
0
 75
1
 76
1
 52
0.0
 41
0.5
 77
0
 78
1
 53
45.0
 43
0.0
 44
0.0
 45
-1.1225320152
 46
1.1225320152
 79
0
 98
0
  0
LWPOLYLINE
  5
C7
330
17
100
AcDbEntity
  8
20_ВИДИМЫЕ
100
AcDbPolyline
 90
343
 70
1
 10
109.9
 20
138.4
 10
109.9
 20
138.0
 10
109.9
 20
137.6
 10
109.9
 20
137.2
 10
109.9
 20
136.8
 10
109.9
 20
136.4
 10
109.9
 20
136.0
 10
109.9
 20
135.6
 10
109.9
 20
135.2
 10
109.9
 20
134.8
 10
109.9
 20
134.4
 10
109.9
 20
134.0
 10
109.9
 20
133.6
 10
109.9
 20
133.2
 10
109.9
 20
132.8
 10
109.9
 20
132.4
 10
109.9
 20
132.0
 10
109.9
 20
131.6
 10
109.9
 20
131.2
 10
109.9
 20
130.8
 10
109.9
 20
130.4
 10
109.9
 20
130.0
 10
109.9
 20
129.60000000000002
 10
109.9
 20
129.2
 10
109.9
 20
128.8
 10
109.9
 20
128.4
 10
109.9
 20
128.0
 10
109.9
 20
127.60000000000001
 10
109.9
 20
127.2
 10
109.7
 20
127.0
 10
109.3
 20
127.0
 10
108.9
 20
127.0
 10
108.5
 20
127.0
 10
108.10000000000001
 20
127.0
 10
107.7
 20
127.0
 10
107.3
 20
127.0
 10
106.9
 20
127.0
 10
106.5
 20
127.0
 10
106.10000000000001
 20
127.0
 10
106.0
 20
126.7
 10
106.0
 20
126.3
 10
106.0
 20
125.9
 10
106.0
 20
125.5
 10
106.0
 20
125.1
 10
106.0
 20
124.7
 10
106.0
 20
124.3
 10
106.0
 20
123.9
 10
106.0
 20
123.5
 10
106.0
 20
123.1
 10
106.0
 20
122.7
 10
106.0
 20
122.3
 10
106.0
 20
121.9
 10
106.0
 20
121.5
 10
106.0
 20
121.1
 10
106.0
 20
120.7
 10
106.0
 20
120.3
 10
106.0
 20
119.9
 10
106.0
 20
119.5
 10
106.0
 20
119.1
 10
106.0
 20
118.7
 10
106.0
 20
118.3
 10
106.0
 20
117.9
 10
106.0
 20
117.5
 10
106.0
 20
117.1
 10
106.0
 20
116.69999999999999
 10
106.0
 20
116.3
 10
106.0
 20
115.9
 10
106.0
 20
115.5
 10
106.0
 20
115.1
 10
106.0
 20
114.69999999999999
 10
106.1
 20
114.4
 10
106.5
 20
114.4
 10
106.9
 20
114.4
 10
107.3
 20
114.4
 10
107.7
 20
114.4
 10
108.1
 20
114.4
 10
108.5
 20
114.4
 10
108.9
 20
114.4
 10
109.3
 20
114.4
 10
109.69999999999999
 20
114.4
 10
109.9
 20
114.19999999999999
 10
109.9
 20
113.8
 10
109.9
 20
113.4
 10
109.9
 20
113.0
 10
109.9
 20
112.6
 10
109.9
 20
112.19999999999999
 10
109.9
 20
111.8
 10
109.9
 20
111.4
 10
109.9
 20
111.0
 10
109.9
 20
110.6
 10
109.9
 20
110.19999999999999
 10
109.9
 20
109.8
 10
109.9
 20
109.4
 10
109.9
 20
109.0
 10
109.9
 20
108.6
 10
109.7
 20
108.4
 10
109.3
 20
108.4
 10
108.9
 20
108.4
 10
108.5
 20
108.4
 10
108.1
 20
108.4
 10
107.7
 20
108.4
 10
107.3
 20
108.4
 10
106.9
 20
108.4
 10
106.5
 20
108.4
 10
106.10000000000001
 20
108.4
 10
105.7
 20
108.4
 10
105.3
 20
108.4
 10
104.89999999999999
 20
108.4
 10
104.5
 20
108.4
 10
104.1
 20
108.4
 10
103.7
 20
108.4
 10
103.3
 20
108.4
 10
102.9
 20
108.4
 10
102.5
 20
108.4
 10
102.10000000000001
 20
108.4
 10
101.7
 20
108.4
 10
101.3
 20
108.4
 10
100.89999999999999
 20
108.4
 10
100.5
 20
108.4
 10
100.1
 20
108.4
 10
99.7
 20
108.4
 10
99.3
 20
108.4
 10
98.9
 20
108.4
 10
98.5
 20
108.4
 10
98.10000000000001
 20
108.4
 10
97.7
 20
108.4
 10
97.3
 20
108.4
 10
96.89999999999999
 20
108.4
 10
96.5
 20
108.4
 10
96.1
 20
108.4
 10
95.7
 20
108.4
 10
95.3
 20
108.4
 10
94.9
 20
108.4
 10
94.5
 20
108.4
 10
94.10000000000001
 20
108.4
 10
93.7
 20
108.4
 10
93.3
 20
108.4
 10
92.89999999999999
 20
108.4
 10
92.5
 20
108.4
 10
92.1
 20
108.4
 10
91.7
 20
108.4
 10
91.3
 20
108.4
 10
90.9
 20
108.4
 10
90.5
 20
108.4
 10
90.10000000000001
 20
108.4
 10
89.7
 20
108.4
 10
89.3
 20
108.4
 10
88.89999999999999
 20
108.4
 10
88.5
 20
108.4
 10
88.1
 20
108.4
 10
87.7
 20
108.4
 10
87.3
 20
108.4
 10
86.9
 20
108.4
 10
86.5
 20
108.4
 10
86.10000000000001
 20
108.4
 10
85.7
 20
108.4
 10
85.3
 20
108.4
 10
84.89999999999999
 20
108.4
 10
84.5
 20
108.4
 10
84.1
 20
108.4
 10
83.7
 20
108.4
 10
83.3
 20
108.4
 10
82.89999999999999
 20
108.4
 10
82.5
 20
108.4
 10
82.1
 20
108.4
 10
81.69999999999999
 20
108.4
 10
81.3
 20
108.4
 10
80.89999999999999
 20
108.4
 10
80.5
 20
108.4
 10
80.1
 20
108.4
 10
80.1
 20
108.79999999999998
 10
80.1
 20
109.20000000000002
 10
80.1
 20
109.6
 10
80.1
 20
110.0
 10
80.1
 20
110.4
 10
80.1
 20
110.80000000000001
 10
80.1
 20
111.19999999999999
 10
80.1
 20
111.6
 10
80.1
 20
112.0
 10
80.1
 20
112.4
 10
80.1
 20
112.80000000000001
 10
80.1
 20
113.19999999999999
 10
80.1
 20
113.6
 10
80.1
 20
114.0
 10
80.1
 20
114.4
 10
80.5
 20
114.4
 10
80.89999999999999
 20
114.4
 10
81.3
 20
114.4
 10
81.7
 20
114.4
 10
82.1
 20
114.4
 10
82.49999999999999
 20
114.4
 10
82.9
 20
114.4
 10
83.3
 20
114.4
 10
83.69999999999999
 20
114.4
 10
84.0
 20
114.5
 10
84.0
 20
114.9
 10
84.0
 20
115.29999999999998
 10
84.0
 20
115.69999999999999
 10
84.0
 20
116.1
 10
84.0
 20
116.5
 10
84.0
 20
116.9
 10
84.0
 20
117.29999999999998
 10
84.0
 20
117.69999999999999
 10
84.0
 20
118.1
 10
84.0
 20
118.5
 10
84.0
 20
118.9
 10
84.0
 20
119.29999999999998
 10
84.0
 20
119.69999999999999
 10
84.0
 20
120.1
 10
84.0
 20
120.5
 10
84.0
 20
120.89999999999998
 10
84.0
 20
121.30000000000001
 10
84.0
 20
121.69999999999999
 10
84.0
 20
122.1
 10
84.0
 20
122.5
 10
84.0
 20
122.9
 10
84.0
 20
123.30000000000001
 10
84.0
 20
123.69999999999999
 10
84.0
 20
124.1
 10
84.0
 20
124.5
 10
84.0
 20
124.9
 10
84.0
 20
125.29999999999998
 10
84.0
 20
125.69999999999999
 10
84.0
 20
126.1
 10
84.0
 20
126.5
 10
84.0
 20
126.9
 10
83.7
 20
127.0
 10
83.3
 20
127.0
 10
82.89999999999999
 20
127.0
 10
82.5
 20
127.0
 10
82.10000000000001
 20
127.0
 10
81.69999999999999
 20
127.0
 10
81.3
 20
127.0
 10
80.9
 20
127.0
 10
80.5
 20
127.0
 10
80.1
 20
127.0
 10
80.1
 20
127.4
 10
80.1
 20
127.8
 10
80.1
 20
128.2
 10
80.1
 20
128.60000000000002
 10
80.1
 20
129.0
 10
80.1
 20
129.39999999999998
 10
80.1
 20
129.8
 10
80.1
 20
130.2
 10
80.1
 20
130.6
 10
80.1
 20
131.0
 10
80.1
 20
131.39999999999998
 10
80.1
 20
131.8
 10
80.1
 20
132.2
 10
80.1
 20
132.6
 10
80.1
 20
133.0
 10
80.1
 20
133.4
 10
80.1
 20
133.8
 10
80.1
 20
134.2
 10
80.1
 20
134.6
 10
80.1
 20
135.0
 10
80.1
 20
135.4
 10
80.1
 20
135.8
 10
80.1
 20
136.2
 10
80.1
 20
136.60000000000002
 10
80.1
 20
137.0
 10
80.1
 20
137.39999999999998
 10
80.1
 20
137.8
 10
80.1
 20
138.2
 10
80.1
 20
138.6
 10
80.1
 20
139.0
 10
80.29999999999998
 20
139.2
 10
80.69999999999999
 20
139.2
 10
81.1
 20
139.2
 10
81.49999999999999
 20
139.2
 10
81.89999999999998
 20
139.2
 10
82.3
 20
139.2
 10
82.69999999999999
 20
139.2
 10
83.09999999999998
 20
139.2
 10
83.49999999999999
 20
139.2
 10
83.89999999999999
 20
139.2
 10
84.3
 20
139.2
 10
84.69999999999999
 20
139.2
 10
85.09999999999998
 20
139.2
 10
85.5
 20
139.2
 10
85.89999999999999
 20
139.2
 10
86.29999999999998
 20
139.2
 10
86.69999999999999
 20
139.2
 10
87.1
 20
139.2
 10
87.49999999999999
 20
139.2
 10
87.9
 20
139.2
 10
88.29999999999998
 20
139.2
 10
88.69999999999999
 20
139.2
 10
89.1
 20
139.2
 10
89.49999999999999
 20
139.2
 10
89.89999999999998
 20
139.2
 10
90.3
 20
139.2
 10
90.69999999999999
 20
139.2
 10
91.1
 20
139.2
 10
91.5
 20
139.2
 10
91.9
 20
139.2
 10
92.30000000000001
 20
139.2
 10
92.69999999999999
 20
139.2
 10
93.1
 20
139.2
 10
93.5
 20
139.2
 10
93.9
 20
139.2
 10
94.29999999999998
 20
139.2
 10
94.69999999999999
 20
139.2
 10
95.1
 20
139.2
 10
95.5
 20
139.2
 10
95.89999999999999
 20
139.2
 10
96.29999999999998
 20
139.2
 10
96.69999999999999
 20
139.2
 10
97.1
 20
139.2
 10
97.5
 20
139.2
 10
97.89999999999998
 20
139.2
 10
98.30000000000001
 20
139.2
 10
98.69999999999999
 20
139.2
 10
99.1
 20
139.2
 10
99.5
 20
139.2
 10
99.9
 20
139.2
 10
100.30000000000001
 20
139.2
 10
100.69999999999999
 20
139.2
 10
101.1
 20
139.2
 10
101.5
 20
139.2
 10
101.9
 20
139.2
 10
102.30000000000001
 20
139.2
 10
102.69999999999999
 20
139.2
 10
103.10000000000002
 20
139.2
 10
103.5
 20
139.2
 10
103.9
 20
139.2
 10
104.30000000000001
 20
139.2
 10
104.70000000000002
 20
139.2
 10
105.1
 20
139.2
 10
105.5
 20
139.2
 10
105.9
 20
139.2
 10
106.30000000000001
 20
139.2
 10
106.70000000000002
 20
139.2
 10
107.1
 20
139.2
 10
107.5
 20
139.2
 10
107.9
 20
139.2
 10
108.30000000000001
 20
139.2
 10
108.69999999999999
 20
139.2
 10
109.1
 20
139.2
 10
109.5
 20
139.2
 10
109.9
 20
139.2
 10
109.9
 20
138.8
 10
109.9
 20
138.4
  0
HATCH
  5
C8
330
17
100
AcDbEntity
  8
23_ШТРИХОВКА
 62
7
100
AcDbHatch
 10
0.0
 20
0.0
 30
0.0
210
0.0
220
0.0
230
1.0
  2
ANSI31
 70
0
 71
0
 91
1
 92
3
 72
0
 73
1
 93
769
 10
109.9
 20
200.19964426439063
 10
109.9
 20
199.79946639658596
 10
109.9
 20
199.39928852878126
 10
109.9
 20
198.99911066097658
 10
109.9
 20
198.5989327931719
 10
109.9
 20
198.1987549253672
 10
109.9
 20
197.79857705756254
 10
109.9
 20
197.39839918975784
 10
109.9
 20
196.99822132195317
 10
109.9
 20
196.5980434541485
 10
109.9
 20
196.1978655863438
 10
109.9
 20
195.79768771853912
 10
109.9
 20
195.39750985073445
 10
109.9
 20
194.99733198292975
 10
109.9
 20
194.59715411512508
 10
109.9
 20
194.19697624732038
 10
109.9
 20
193.7967983795157
 10
109.9
 20
193.39662051171103
 10
109.9
 20
192.99644264390633
 10
109.9
 20
192.59626477610166
 10
109.9
 20
192.196086908297
 10
109.9
 20
191.7959090404923
 10
109.9
 20
191.39573117268762
 10
109.9
 20
190.99555330488292
 10
109.9
 20
190.59537543707825
 10
109.9
 20
190.19519756927357
 10
109.9
 20
189.79501970146887
 10
109.9
 20
189.3948418336642
 10
109.9
 20
188.99466396585953
 10
109.9
 20
188.59448609805483
 10
109.9
 20
188.19430823025016
 10
109.9
 20
187.79413036244546
 10
109.9
 20
187.39395249464079
 10
109.9
 20
186.9937746268361
 10
109.9
 20
186.5935967590314
 10
109.9
 20
186.19341889122674
 10
109.9
 20
185.79324102342204
 10
109.9
 20
185.39306315561737
 10
109.9
 20
184.99288528781267
 10
109.9
 20
184.592707420008
 10
109.9
 20
184.19252955220333
 10
109.9
 20
183.79235168439862
 10
109.9
 20
183.39217381659395
 10
109.9
 20
182.99199594878928
 10
109.9
 20
182.59181808098458
 10
109.9
 20
182.1916402131799
 10
109.9
 20
181.7914623453752
 10
109.9
 20
181.39128447757054
 10
109.9
 20
180.99110660976586
 10
109.9
 20
180.59092874196116
 10
109.9
 20
180.1907508741565
 10
109.9
 20
179.79057300635182
 10
109.9
 20
179.39039513854712
 10
109.9
 20
178.99021727074245
 10
109.9
 20
178.59003940293775
 10
109.9
 20
178.18986153513308
 10
109.9
 20
177.7896836673284
 10
109.9
 20
177.3895057995237
 10
109.9
 20
176.98932793171903
 10
109.9
 20
176.58915006391436
 10
109.9
 20
176.18897219610966
 10
109.9
 20
175.788794328305
 10
109.9
 20
175.3886164605003
 10
109.9
 20
174.98843859269562
 10
109.9
 20
174.58826072489094
 10
109.9
 20
174.18808285708624
 10
109.9
 20
173.78790498928157
 10
109.9
 20
173.38772712147687
 10
109.9
 20
172.9875492536722
 10
109.9
 20
172.58737138586753
 10
109.9
 20
172.18719351806283
 10
109.9
 20
171.78701565025816
 10
109.9
 20
171.38683778245348
 10
109.9
 20
170.98665991464878
 10
109.9
 20
170.5864820468441
 10
109.9
 20
170.1863041790394
 10
109.9
 20
169.78612631123474
 10
109.9
 20
169.38594844343004
 10
109.9
 20
168.98577057562537
 10
109.9
 20
168.5855927078207
 10
109.9
 20
168.185414840016
 10
109.9
 20
167.78523697221132
 10
109.9
 20
167.38505910440665
 10
109.9
 20
166.98488123660195
 10
109.9
 20
166.58470336879728
 10
109.9
 20
166.1845255009926
 10
109.9
 20
165.7843476331879
 10
109.9
 20
165.38416976538323
 10
109.9
 20
164.98399189757856
 10
109.9
 20
164.58381402977386
 10
109.9
 20
164.1836361619692
 10
109.9
 20
163.7834582941645
 10
109.9
 20
163.38328042635982
 10
109.9
 20
162.98310255855512
 10
109.9
 20
162.58292469075045
 10
109.9
 20
162.18274682294577
 10
109.9
 20
161.78256895514107
 10
109.9
 20
161.3823910873364
 10
109.9
 20
160.98221321953173
 10
109.9
 20
160.58203535172703
 10
109.9
 20
160.18185748392236
 10
109.9
 20
159.78167961611769
 10
109.9
 20
159.38150174831299
 10
109.9
 20
158.98132388050828
 10
109.9
 20
158.58114601270364
 10
109.9
 20
158.18096814489894
 10
109.9
 20
157.78079027709424
 10
109.9
 20
157.38061240928957
 10
109.9
 20
156.9804345414849
 10
109.9
 20
156.5802566736802
 10
109.9
 20
156.18007880587552
 10
109.9
 20
155.77990093807085
 10
109.9
 20
155.37972307026615
 10
109.9
 20
154.97954520246148
 10
109.9
 20
154.5793673346568
 10
109.9
 20
154.1791894668521
 10
109.9
 20
153.77901159904744
 10
109.87883373124271
 20
153.4
 10
109.47865586343802
 20
153.4
 10
109.07847799563334
 20
153.4
 10
108.67830012782866
 20
153.4
 10
108.27812226002396
 20
153.4
 10
107.87794439221929
 20
153.4
 10
107.47776652441462
 20
153.4
 10
107.07758865660992
 20
153.4
 10
106.67741078880525
 20
153.4
 10
106.27723292100056
 20
153.4
 10
105.87705505319587
 20
153.4
 10
105.4768771853912
 20
153.4
 10
105.07669931758652
 20
153.4
 10
104.67652144978183
 20
153.4
 10
104.27634358197714
 20
153.4
 10
103.87616571417246
 20
153.4
 10
103.47598784636779
 20
153.4
 10
103.0758099785631
 20
153.4
 10
102.67563211075841
 20
153.4
 10
102.27545424295373
 20
153.4
 10
101.87527637514906
 20
153.4
 10
101.47509850734437
 20
153.4
 10
101.07492063953968
 20
153.4
 10
100.67474277173501
 20
153.4
 10
100.27456490393033
 20
153.4
 10
99.87438703612563
 20
153.4
 10
99.47420916832095
 20
153.4
 10
99.07403130051628
 20
153.4
 10
98.67385343271158
 20
153.4
 10
98.27367556490691
 20
153.4
 10
97.87349769710221
 20
153.4
 10
97.47331982929754
 20
153.4
 10
97.07314196149287
 20
153.4
 10
96.67296409368817
 20
153.4
 10
96.2727862258835
 20
153.4
 10
95.8726083580788
 20
153.4
 10
95.47243049027412
 20
153.4
 10
95.07225262246945
 20
153.4
 10
94.67207475466476
 20
153.4
 10
94.27189688686008
 20
153.4
 10
93.87171901905539
 20
153.4
 10
93.4715411512507
 20
153.4
 10
93.07136328344603
 20
153.4
 10
92.67118541564136
 20
153.4
 10
92.27100754783666
 20
153.4
 10
91.87082968003199
 20
153.4
 10
91.47065181222729
 20
153.4
 10
91.07047394442262
 20
153.4
 10
90.67029607661794
 20
153.4
 10
90.27011820881324
 20
153.4
 10
89.86994034100857
 20
153.4
 10
89.4697624732039
 20
153.4
 10
89.0695846053992
 20
153.4
 10
88.66940673759453
 20
153.4
 10
88.26922886978984
 20
153.4
 10
87.86905100198516
 20
153.4
 10
87.46887313418048
 20
153.4
 10
87.06869526637578
 20
153.4
 10
86.66851739857111
 20
153.4
 10
86.26833953076641
 20
153.4
 10
85.86816166296174
 20
153.4
 10
85.46798379515707
 20
153.4
 10
85.06780592735237
 20
153.4
 10
84.66762805954768
 20
153.4
 10
84.267450191743
 20
153.4
 10
83.86727232393832
 20
153.4
 10
83.46709445613365
 20
153.4
 10
83.06691658832895
 20
153.4
 10
82.66673872052428
 20
153.4
 10
82.2665608527196
 20
153.4
 10
81.8663829849149
 20
153.4
 10
81.46620511711023
 20
153.4
 10
81.06602724930553
 20
153.4
 10
80.66584938150086
 20
153.4
 10
80.26567151369619
 20
153.4
 10
80.1
 20
153.63450635523967
 10
80.1
 20
154.03468422304434
 10
80.1
 20
154.434862090849
 10
80.1
 20
154.8350399586537
 10
80.1
 20
155.23521782645838
 10
80.1
 20
155.63539569426305
 10
80.1
 20
156.03557356206775
 10
80.1
 20
156.43575142987243
 10
80.1
 20
156.8359292976771
 10
80.1
 20
157.2361071654818
 10
80.1
 20
157.63628503328647
 10
80.1
 20
158.03646290109117
 10
80.1
 20
158.43664076889584
 10
80.1
 20
158.8368186367005
 10
80.1
 20
159.2369965045052
 10
80.1
 20
159.6371743723099
 10
80.1
 20
160.0373522401146
 10
80.1
 20
160.43753010791926
 10
80.1
 20
160.83770797572393
 10
80.1
 20
161.23788584352863
 10
80.1
 20
161.6380637113333
 10
80.1
 20
162.038241579138
 10
80.1
 20
162.43841944694267
 10
80.1
 20
162.83859731474735
 10
80.1
 20
163.23877518255205
 10
80.1
 20
163.63895305035672
 10
80.1
 20
164.03913091816142
 10
80.1
 20
164.4393087859661
 10
80.1
 20
164.83948665377076
 10
80.1
 20
165.23966452157546
 10
80.1
 20
165.63984238938014
 10
80.1
 20
166.04002025718484
 10
80.1
 20
166.4401981249895
 10
80.1
 20
166.84037599279418
 10
80.1
 20
167.24055386059888
 10
80.1
 20
167.64073172840355
 10
80.1
 20
168.04090959620825
 10
80.1
 20
168.44108746401292
 10
80.1
 20
168.8412653318176
 10
80.1
 20
169.2414431996223
 10
80.1
 20
169.64162106742697
 10
80.1
 20
170.04179893523167
 10
80.1
 20
170.44197680303634
 10
80.1
 20
170.842154670841
 10
80.1
 20
171.2423325386457
 10
80.1
 20
171.64251040645038
 10
80.1
 20
172.04268827425506
 10
80.1
 20
172.44286614205976
 10
80.1
 20
172.84304400986443
 10
80.1
 20
173.24322187766913
 10
80.1
 20
173.6433997454738
 10
80.1
 20
174.04357761327847
 10
80.1
 20
174.44375548108317
 10
80.1
 20
174.84393334888784
 10
80.1
 20
175.24411121669252
 10
80.1
 20
175.64428908449722
 10
80.1
 20
176.0444669523019
 10
80.1
 20
176.44464482010656
 10
80.1
 20
176.84482268791126
 10
80.1
 20
177.24500055571593
 10
80.1
 20
177.6451784235206
 10
80.1
 20
178.0453562913253
 10
80.1
 20
178.44553415912998
 10
80.1
 20
178.84571202693468
 10
80.1
 20
179.24588989473935
 10
80.1
 20
179.64606776254402
 10
80.1
 20
180.04624563034872
 10
80.1
 20
180.4464234981534
 10
80.1
 20
180.84660136595807
 10
80.1
 20
181.24677923376277
 10
80.1
 20
181.64695710156744
 10
80.1
 20
182.0471349693721
 10
80.1
 20
182.4473128371768
 10
80.1
 20
182.84749070498148
 10
80.1
 20
183.24766857278618
 10
80.1
 20
183.64784644059085
 10
80.1
 20
184.04802430839553
 10
80.1
 20
184.44820217620023
 10
80.1
 20
184.8483800440049
 10
80.1
 20
185.2485579118096
 10
80.1
 20
185.64873577961427
 10
80.1
 20
186.04891364741894
 10
80.1
 20
186.44909151522364
 10
80.1
 20
186.84926938302831
 10
80.1
 20
187.24944725083301
 10
80.1
 20
187.6496251186377
 10
80.1
 20
188.04980298644236
 10
80.1
 20
188.44998085424706
 10
80.1
 20
188.85015872205173
 10
80.1
 20
189.25033658985643
 10
80.1
 20
189.6505144576611
 10
80.1
 20
190.05069232546577
 10
80.1
 20
190.45087019327048
 10
80.1
 20
190.85104806107515
 10
80.1
 20
191.25122592887985
 10
80.1
 20
191.65140379668452
 10
80.1
 20
192.0515816644892
 10
80.1
 20
192.4517595322939
 10
80.1
 20
192.85193740009856
 10
80.1
 20
193.25211526790326
 10
80.1
 20
193.65229313570794
 10
80.1
 20
194.0524710035126
 10
80.1
 20
194.4526488713173
 10
80.1
 20
194.85282673912198
 10
80.1
 20
195.25300460692668
 10
80.1
 20
195.65318247473135
 10
80.1
 20
196.05336034253602
 10
80.1
 20
196.45353821034072
 10
80.1
 20
196.8537160781454
 10
80.1
 20
197.25389394595007
 10
80.1
 20
197.65407181375477
 10
80.1
 20
198.05424968155944
 10
80.1
 20
198.4544275493641
 10
80.1
 20
198.8546054171688
 10
80.1
 20
199.25478328497348
 10
80.1
 20
199.65496115277818
 10
80.1
 20
200.05513902058286
 10
80.1
 20
200.45531688838753
 10
80.1
 20
200.85549475619223
 10
79.84432737600308
 20
201.0
 10
79.44414950819841
 20
201.0
 10
79.04397164039372
 20
201.0
 10
78.64379377258905
 20
201.0
 10
78.24361590478438
 20
201.0
 10
77.84343803697968
 20
201.0
 10
77.443260169175
 20
201.0
 10
77.0430823013703
 20
201.0
 10
76.64290443356563
 20
201.0
 10
76.24272656576093
 20
201.0
 10
75.84254869795626
 20
201.0
 10
75.44237083015159
 20
201.0
 10
75.04219296234689
 20
201.0
 10
74.64201509454222
 20
201.0
 10
74.24183722673752
 20
201.0
 10
73.84165935893284
 20
201.0
 10
73.44148149112817
 20
201.0
 10
73.04130362332347
 20
201.0
 10
72.6411257555188
 20
201.0
 10
72.24094788771413
 20
201.0
 10
71.84077001990943
 20
201.0
 10
71.44059215210476
 20
201.0
 10
71.04041428430008
 20
201.0
 10
70.64023641649538
 20
201.0
 10
70.24005854869071
 20
201.0
 10
69.83988068088604
 20
201.0
 10
69.43970281308134
 20
201.0
 10
69.03952494527667
 20
201.0
 10
68.63934707747197
 20
201.0
 10
68.2391692096673
 20
201.0
 10
67.83899134186262
 20
201.0
 10
67.43881347405792
 20
201.0
 10
67.03863560625325
 20
201.0
 10
66.63845773844855
 20
201.0
 10
66.23827987064388
 20
201.0
 10
65.83810200283921
 20
201.0
 10
65.4379241350345
 20
201.0
 10
65.03774626722983
 20
201.0
 10
64.63756839942513
 20
201.0
 10
64.23739053162046
 20
201.0
 10
63.8372126638158
 20
201.0
 10
63.4370347960111
 20
201.0
 10
63.036856928206426
 20
201.0
 10
62.636679060401725
 20
201.0
 10
62.23650119259705
 20
201.0
 10
61.83632332479238
 20
201.0
 10
61.43614545698768
 20
201.0
 10
61.03596758918301
 20
201.0
 10
60.63578972137831
 20
201.0
 10
60.23561185357364
 20
201.0
 10
59.835433985768965
 20
201.0
 10
59.435256117964265
 20
201.0
 10
59.03507825015959
 20
201.0
 10
58.63490038235489
 20
201.0
 10
58.23472251455022
 20
201.0
 10
57.83454464674555
 20
201.0
 10
57.43436677894085
 20
201.0
 10
57.03418891113618
 20
201.0
 10
56.634011043331476
 20
201.0
 10
56.233833175526804
 20
201.0
 10
55.83365530772213
 20
201.0
 10
55.43347743991743
 20
201.0
 10
55.03329957211276
 20
201.0
 10
54.63312170430809
 20
201.0
 10
54.23294383650339
 20
201.0
 10
53.832765968698716
 20
201.0
 10
53.432588100894016
 20
201.0
 10
53.032410233089344
 20
201.0
 10
52.63223236528467
 20
201.0
 10
52.61455217969919
 20
201.38249768221922
 10
52.61455217969919
 20
201.7826755500239
 10
52.61455217969919
 20
202.18285341782857
 10
52.61455217969919
 20
202.58303128563327
 10
52.61455217969919
 20
202.98320915343794
 10
52.61455217969919
 20
203.3833870212426
 10
52.61455217969919
 20
203.7835648890473
 10
52.61455217969919
 20
204.18374275685198
 10
52.61455217969919
 20
204.58392062465668
 10
52.61455217969919
 20
204.98409849246136
 10
52.61455217969919
 20
205.38427636026603
 10
52.61455217969919
 20
205.78445422807073
 10
52.61455217969919
 20
206.1846320958754
 10
52.61455217969919
 20
206.5848099636801
 10
52.61455217969919
 20
206.98498783148477
 10
52.61455217969919
 20
207.38516569928944
 10
52.61455217969919
 20
207.78534356709412
 10
52.61455217969919
 20
208.18552143489882
 10
52.61455217969919
 20
208.58569930270352
 10
52.61455217969919
 20
208.9858771705082
 10
52.61455217969919
 20
209.38605503831286
 10
52.61455217969919
 20
209.78623290611753
 10
52.61455217969919
 20
210.1864107739222
 10
52.61455217969919
 20
210.58658864172693
 10
52.61455217969919
 20
210.9867665095316
 10
52.61455217969919
 20
211.38694437733628
 10
52.61455217969919
 20
211.78712224514095
 10
52.61455217969919
 20
212.18730011294562
 10
52.61455217969919
 20
212.58747798075035
 10
52.61455217969919
 20
212.98765584855502
 10
52.869840876786974
 20
213.29196347270505
 10
53.1333769258837
 20
213.59311306077504
 10
53.39703994868163
 20
213.89415148665165
 10
53.66083324248839
 20
214.19507576526223
 10
53.924760215215244
 20
214.49588280680754
 10
54.18882439266076
 20
214.79656940979902
 10
54.45302942576653
 20
215.09713225406477
 10
54.71737909784365
 20
215.3975678937232
 10
54.98187733176796
 20
215.69787275012212
 10
55.24652819714176
 20
215.99804310474138
 10
55.511335917420276
 20
216.29807509205753
 10
55.77630487700006
 20
216.59796469236713
 10
56.041439628267014
 20
216.89770772456785
 10
56.306744898601515
 20
217.1972998388942
 10
56.57222559733745
 20
217.49673650960537
 10
56.837886822672445
 20
217.79601302762316
 10
57.103733868525836
 20
218.09512449311694
 10
57.36977223134084
 20
218.39406580803254
 10
57.63600763849128
 20
218.69283164925272
 10
57.90244606444914
 20
218.99141645244418
 10
58.16909371621026
 20
219.28981442316223
 10
58.435957063180545
 20
219.58801950817224
 10
58.70304284881634
 20
219.88602538281805
 10
58.970358103763935
 20
220.18382543684422
 10
59.2379101605546
 20
220.4814127585946
 10
59.50570666983951
 20
220.77878011757116
 10
59.77375561814695
 20
221.0759199453359
 10
60.042065347142874
 20
221.3728243147377
 10
60.31064457437343
 20
221.66948491744387
 10
60.57950241546636
 20
221.9658930397551
 10
60.84864840776565
 20
222.2620395366806
 10
61.11809253537098
 20
222.5579148042485
 10
61.387845255550594
 20
222.85350875002433
 10
61.65791752649351
 20
223.14881076180936
 10
61.92832083636199
 20
223.443809674487
 10
62.199067233602776
 20
223.73849373498476
 10
62.47016936717828
 20
224.03285055729063
 10
62.74164052702595
 20
224.32686707628238
 10
63.01349467701688
 20
224.62052950740255
 10
63.285746509113224
 20
224.91382328558385
 10
63.558411487236995
 20
225.2067330122884
 10
63.831505897012875
 20
225.49924239560397
 10
64.10504690118799
 20
225.79133418334482
 10
64.37905260051024
 20
226.08299008909938
 10
64.65354210004193
 20
226.37419071095545
 10
64.92853558107718
 20
226.66491544241626
 10
65.20405437901519
 20
226.95514237480126
 10
65.48012106772086
 20
227.24484819019838
 10
65.75675955107229
 20
227.5340080438048
 10
66.03399516255455
 20
227.82259543425351
 10
66.31185477390642
 20
228.11058206028105
 10
66.59036691395883
 20
228.3979376618356
 10
66.86956189891976
 20
228.6846298434669
 10
67.1494719754543
 20
228.97062387756498
 10
67.43013147797771
 20
229.2558824847364
 10
67.71157700161834
 20
229.54036558831243
 10
67.99384759230749
 20
229.82403003968005
 10
68.2769849554106
 20
230.10682931081303
 10
68.56103368421442
 20
230.38871315005315
 10
68.84604150941927
 20
230.66962719685787
 10
69.13205957413544
 20
230.94951254720405
 10
69.41914276484475
 20
231.228305233714
 10
69.7073500325097
 20
231.50593568195345
 10
69.99674478302292
 20
231.7823280550919
 10
70.28727992422563
 20
232.05752167856076
 10
70.57803085033996
 20
232.33248753979515
 10
70.86878177645427
 20
232.60745340102952
 10
71.15953270256858
 20
232.8824192622639
 10
71.45028362868291
 20
233.1573851234983
 10
71.74103455479725
 20
233.4323509847327
 10
72.03178548091157
 20
233.70731684596706
 10
72.32253640702588
 20
233.98228270720142
 10
72.61328733314019
 20
234.2572485684358
 10
72.90403825925452
 20
234.5322144296702
 10
73.19478918536888
 20
234.80718029090463
 10
73.51823145054558
 20
235.0
 10
73.91840931835026
 20
235.0
 10
74.31858718615493
 20
235.0
 10
74.7187650539596
 20
235.0
 10
75.1189429217643
 20
235.0
 10
75.519120789569
 20
235.0
 10
75.91929865737367
 20
235.0
 10
76.31947652517835
 20
235.0
 10
76.71965439298302
 20
235.0
 10
77.11983226078772
 20
235.0
 10
77.52001012859242
 20
235.0
 10
77.92018799639709
 20
235.0
 10
78.32036586420176
 20
235.0
 10
78.72054373200643
 20
235.0
 10
79.12072159981113
 20
235.0
 10
79.5208994676158
 20
235.0
 10
79.9210773354205
 20
235.0
 10
80.32125520322518
 20
235.0
 10
80.72143307102985
 20
235.0
 10
81.12161093883455
 20
235.0
 10
81.52178880663922
 20
235.0
 10
81.9219666744439
 20
235.0
 10
82.3221445422486
 20
235.0
 10
82.72232241005327
 20
235.0
 10
83.12250027785797
 20
235.0
 10
83.52267814566264
 20
235.0
 10
83.92285601346731
 20
235.0
 10
84.32303388127201
 20
235.0
 10
84.72321174907668
 20
235.0
 10
85.12338961688138
 20
235.0
 10
85.52356748468605
 20
235.0
 10
85.92374535249073
 20
235.0
 10
86.3239232202954
 20
235.0
 10
86.7241010881001
 20
235.0
 10
87.1242789559048
 20
235.0
 10
87.52445682370947
 20
235.0
 10
87.92463469151414
 20
235.0
 10
88.32481255931881
 20
235.0
 10
88.72499042712349
 20
235.0
 10
89.12516829492822
 20
235.0
 10
89.52534616273289
 20
235.0
 10
89.92552403053756
 20
235.0
 10
90.32570189834223
 20
235.0
 10
90.7258797661469
 20
235.0
 10
91.12605763395163
 20
235.0
 10
91.5262355017563
 20
235.0
 10
91.92641336956098
 20
235.0
 10
92.32659123736565
 20
235.0
 10
92.72676910517032
 20
235.0
 10
93.12694697297505
 20
235.0
 10
93.52712484077972
 20
235.0
 10
93.92730270858439
 20
235.0
 10
94.32748057638906
 20
235.0
 10
94.72765844419374
 20
235.0
 10
95.12783631199846
 20
235.0
 10
95.52801417980314
 20
235.0
 10
95.92819204760781
 20
235.0
 10
96.32836991541248
 20
235.0
 10
96.72854778321715
 20
235.0
 10
97.12872565102185
 20
235.0
 10
97.52890351882655
 20
235.0
 10
97.92908138663122
 20
235.0
 10
98.3292592544359
 20
235.0
 10
98.72943712224057
 20
235.0
 10
99.12961499004527
 20
235.0
 10
99.52979285784997
 20
235.0
 10
99.92997072565464
 20
235.0
 10
100.33014859345931
 20
235.0
 10
100.73032646126399
 20
235.0
 10
101.13050432906869
 20
235.0
 10
101.53068219687336
 20
235.0
 10
101.93086006467806
 20
235.0
 10
102.33103793248273
 20
235.0
 10
102.7312158002874
 20
235.0
 10
103.1313936680921
 20
235.0
 10
103.53157153589677
 20
235.0
 10
103.93174940370145
 20
235.0
 10
104.33192727150615
 20
235.0
 10
104.73210513931082
 20
235.0
 10
105.13228300711552
 20
235.0
 10
105.53246087492019
 20
235.0
 10
105.93263874272486
 20
235.0
 10
106.33281661052956
 20
235.0
 10
106.73299447833423
 20
235.0
 10
107.13317234613893
 20
235.0
 10
107.5333502139436
 20
235.0
 10
107.93352808174828
 20
235.0
 10
108.33370594955295
 20
235.0
 10
108.73388381735765
 20
235.0
 10
109.13406168516235
 20
235.0
 10
109.53423955296702
 20
235.0
 10
109.9344174207717
 20
235.0
 10
110.33459528857637
 20
235.0
 10
110.73477315638107
 20
235.0
 10
111.13495102418577
 20
235.0
 10
111.53512889199044
 20
235.0
 10
111.93530675979511
 20
235.0
 10
112.33548462759978
 20
235.0
 10
112.73566249540445
 20
235.0
 10
113.13584036320918
 20
235.0
 10
113.53601823101386
 20
235.0
 10
113.93619609881853
 20
235.0
 10
114.3363739666232
 20
235.0
 10
114.73655183442787
 20
235.0
 10
115.1367297022326
 20
235.0
 10
115.53690757003727
 20
235.0
 10
115.93708543784194
 20
235.0
 10
116.33726330564662
 20
235.0
 10
116.70021991721849
 20
234.90647116132297
 10
116.99097084333285
 20
234.63150530008858
 10
117.28172176944716
 20
234.35653943885418
 10
117.57247269556147
 20
234.0815735776198
 10
117.86322362167579
 20
233.80660771638543
 10
118.1539745477901
 20
233.53164185515107
 10
118.44472547390446
 20
233.25667599391664
 10
118.73547640001877
 20
232.98171013268225
 10
119.0262273261331
 20
232.7067442714479
 10
119.31697825224741
 20
232.43177841021352
 10
119.60772917836174
 20
232.15681254897913
 10
119.89844916822403
 20
231.8818139979412
 10
120.18828923402624
 20
231.60588866360456
 10
120.47691774427989
 20
231.32869618920193
 10
120.76439981793831
 20
231.05031485190173
 10
121.05079596495366
 20
230.7708164047332
 10
121.33616250252373
 20
230.49026677519603
 10
121.62055188519881
 20
230.20872663190843
 10
121.90401304213539
 20
229.92625192249758
 10
122.18659166963815
 20
229.6428943356231
 10
122.46833048847459
 20
229.35870170216498
 10
122.7492694798257
 20
229.07371835374792
 10
123.02944610094255
 20
228.7879854430078
 10
123.30889548177248
 20
228.5015412296699
 10
123.58765060393941
 20
228.21442133617884
 10
123.86574246352654
 20
227.92665897630116
 10
124.14320021912246
 20
227.63828515981402
 10
124.42005132656654
 20
227.34932887609745
 10
124.69632166177065
 20
227.05981725916058
 10
124.97203563290834
 20
226.76977573636046
 10
125.24721628315412
 20
226.4792281628046
 10
125.52188538502956
 20
226.18819694317423
 10
125.79606352726964
 20
225.89670314245737
 10
126.06977019496846
 20
225.60476658684036
 10
126.34302384359714
 20
225.31240595577347
 10
126.61584196731174
 20
225.019638865998
 10
126.8882411617868
 20
224.7264819481006
 10
127.16023718162111
 20
224.43295091594152
 10
127.43184499216844
 20
224.139060629091
 10
127.70307881544662
 20
223.84482514819763
 10
127.9739521773171
 20
223.5502577901175
 10
128.24447795678816
 20
223.2553711837068
 10
128.51466841286413
 20
222.96017730384006
 10
128.78453523246648
 20
222.6646875238047
 10
129.0540895617408
 20
222.36891265153727
 10
129.32334203556883
 20
222.07286296345333
 10
129.59230280579493
 20
221.77654823641447
 10
129.8609815681267
 20
221.4799777778635
 10
130.12938758767427
 20
221.1831604541577
 10
130.3975297230954
 20
220.88610471712838
 10
130.66541644931772
 20
220.58881862889115
 10
130.93305587881085
 20
220.29130988493162
 10
131.20045578138456
 20
219.99358583548852
 10
131.46762360249116
 20
219.69565350525443
 10
131.7345664800124
 20
219.39751961141297
 10
132.00129125951216
 20
219.09919058003095
 10
132.26780450793962
 20
218.80067256082032
 10
132.53411252576697
 20
218.50197144028596
 10
132.8002213665828
 20
218.20309286131356
 10
133.06613685263312
 20
217.90404223893955
 10
133.33186455710148
 20
217.60482474637985
 10
133.59740984625756
 20
217.30544535417926
 10
133.86277788818632
 20
217.00590883943897
 10
134.12797365962632
 20
216.70621979325145
 10
134.39300195286162
 20
216.40638262808122
 10
134.65786738266334
 20
216.10640158509494
 10
134.92257439327858
 20
215.80628074144252
 10
135.18712726546315
 20
215.50602401749228
 10
135.4515301235561
 20
215.20563518402233
 10
135.7157869425921
 20
214.90511786937088
 10
135.97990155545125
 20
214.60447556654694
 10
136.24387766004202
 20
214.30371164030424
 10
136.5077188265169
 20
214.00282933417984
 10
136.77142850451787
 20
213.70183177749945
 10
137.03501003045
 20
213.40072199235132
 10
137.29846663478162
 20
213.0995029005307
 10
137.3854478203008
 20
212.73198322455806
 10
137.3854478203008
 20
212.33180535675342
 10
137.3854478203008
 20
211.93162748894872
 10
137.3854478203008
 20
211.53144962114408
 10
137.3854478203008
 20
211.13127175333938
 10
137.3854478203008
 20
210.73109388553473
 10
137.3854478203008
 20
210.33091601772998
 10
137.3854478203008
 20
209.93073814992533
 10
137.3854478203008
 20
209.53056028212063
 10
137.3854478203008
 20
209.130382414316
 10
137.3854478203008
 20
208.7302045465113
 10
137.3854478203008
 20
208.3300266787066
 10
137.3854478203008
 20
207.9298488109019
 10
137.3854478203008
 20
207.52967094309724
 10
137.3854478203008
 20
207.12949307529254
 10
137.3854478203008
 20
206.7293152074879
 10
137.3854478203008
 20
206.32913733968314
 10
137.3854478203008
 20
205.9289594718785
 10
137.3854478203008
 20
205.5287816040738
 10
137.3854478203008
 20
205.12860373626916
 10
137.3854478203008
 20
204.72842586846446
 10
137.3854478203008
 20
204.32824800065976
 10
137.3854478203008
 20
203.92807013285505
 10
137.3854478203008
 20
203.5278922650504
 10
137.3854478203008
 20
203.1277143972457
 10
137.3854478203008
 20
202.72753652944107
 10
137.3854478203008
 20
202.32735866163637
 10
137.3854478203008
 20
201.92718079383167
 10
137.3854478203008
 20
201.52700292602697
 10
137.3854478203008
 20
201.12682505822232
 10
137.11209501071843
 20
201.0
 10
136.71191714291373
 20
201.0
 10
136.31173927510903
 20
201.0
 10
135.9115614073044
 20
201.0
 10
135.5113835394997
 20
201.0
 10
135.11120567169505
 20
201.0
 10
134.71102780389035
 20
201.0
 10
134.31084993608565
 20
201.0
 10
133.91067206828095
 20
201.0
 10
133.5104942004763
 20
201.0
 10
133.1103163326716
 20
201.0
 10
132.7101384648669
 20
201.0
 10
132.30996059706226
 20
201.0
 10
131.90978272925756
 20
201.0
 10
131.50960486145286
 20
201.0
 10
131.1094269936482
 20
201.0
 10
130.7092491258435
 20
201.0
 10
130.3090712580388
 20
201.0
 10
129.90889339023417
 20
201.0
 10
129.50871552242947
 20
201.0
 10
129.10853765462477
 20
201.0
 10
128.70835978682007
 20
201.0
 10
128.30818191901542
 20
201.0
 10
127.90800405121072
 20
201.0
 10
127.50782618340608
 20
201.0
 10
127.10764831560138
 20
201.0
 10
126.70747044779668
 20
201.0
 10
126.30729257999198
 20
201.0
 10
125.90711471218734
 20
201.0
 10
125.50693684438264
 20
201.0
 10
125.10675897657799
 20
201.0
 10
124.70658110877324
 20
201.0
 10
124.30640324096859
 20
201.0
 10
123.90622537316389
 20
201.0
 10
123.50604750535925
 20
201.0
 10
123.10586963755455
 20
201.0
 10
122.70569176974985
 20
201.0
 10
122.30551390194515
 20
201.0
 10
121.9053360341405
 20
201.0
 10
121.5051581663358
 20
201.0
 10
121.10498029853116
 20
201.0
 10
120.7048024307264
 20
201.0
 10
120.30462456292176
 20
201.0
 10
119.90444669511706
 20
201.0
 10
119.50426882731242
 20
201.0
 10
119.10409095950772
 20
201.0
 10
118.70391309170301
 20
201.0
 10
118.30373522389831
 20
201.0
 10
117.90355735609367
 20
201.0
 10
117.50337948828897
 20
201.0
 10
117.10320162048433
 20
201.0
 10
116.70302375267963
 20
201.0
 10
116.30284588487493
 20
201.0
 10
115.90266801707023
 20
201.0
 10
115.50249014926558
 20
201.0
 10
115.10231228146088
 20
201.0
 10
114.70213441365618
 20
201.0
 10
114.30195654585148
 20
201.0
 10
113.90177867804684
 20
201.0
 10
113.50160081024214
 20
201.0
 10
113.1014229424375
 20
201.0
 10
112.7012450746328
 20
201.0
 10
112.3010672068281
 20
201.0
 10
111.9008893390234
 20
201.0
 10
111.50071147121875
 20
201.0
 10
111.10053360341405
 20
201.0
 10
110.70035573560935
 20
201.0
 10
110.3001778678047
 20
201.0
 10
109.9
 20
201.0
 10
109.9
 20
200.59982213219533
 97
0
 75
1
 76
1
 52
0.0
 41
0.5
 77
0
 78
1
 53
45.0
 43
0.0
 44
0.0
 45
-1.1225320152
 46
1.1225320152
 79
0
 98
0
  0
LWPOLYLINE
  5
C9
330
17
100
AcDbEntity
  8
20_ВИДИМЫЕ
100
AcDbPolyline
 90
770
 70
1
 10
109.9
 20
200.19964426439063
 10
109.9
 20
199.79946639658596
 10
109.9
 20
199.39928852878126
 10
109.9
 20
198.99911066097658
 10
109.9
 20
198.5989327931719
 10
109.9
 20
198.1987549253672
 10
109.9
 20
197.79857705756254
 10
109.9
 20
197.39839918975784
 10
109.9
 20
196.99822132195317
 10
109.9
 20
196.5980434541485
 10
109.9
 20
196.1978655863438
 10
109.9
 20
195.79768771853912
 10
109.9
 20
195.39750985073445
 10
109.9
 20
194.99733198292975
 10
109.9
 20
194.59715411512508
 10
109.9
 20
194.19697624732038
 10
109.9
 20
193.7967983795157
 10
109.9
 20
193.39662051171103
 10
109.9
 20
192.99644264390633
 10
109.9
 20
192.59626477610166
 10
109.9
 20
192.196086908297
 10
109.9
 20
191.7959090404923
 10
109.9
 20
191.39573117268762
 10
109.9
 20
190.99555330488292
 10
109.9
 20
190.59537543707825
 10
109.9
 20
190.19519756927357
 10
109.9
 20
189.79501970146887
 10
109.9
 20
189.3948418336642
 10
109.9
 20
188.99466396585953
 10
109.9
 20
188.59448609805483
 10
109.9
 20
188.19430823025016
 10
109.9
 20
187.79413036244546
 10
109.9
 20
187.39395249464079
 10
109.9
 20
186.9937746268361
 10
109.9
 20
186.5935967590314
 10
109.9
 20
186.19341889122674
 10
109.9
 20
185.79324102342204
 10
109.9
 20
185.39306315561737
 10
109.9
 20
184.99288528781267
 10
109.9
 20
184.592707420008
 10
109.9
 20
184.19252955220333
 10
109.9
 20
183.79235168439862
 10
109.9
 20
183.39217381659395
 10
109.9
 20
182.99199594878928
 10
109.9
 20
182.59181808098458
 10
109.9
 20
182.1916402131799
 10
109.9
 20
181.7914623453752
 10
109.9
 20
181.39128447757054
 10
109.9
 20
180.99110660976586
 10
109.9
 20
180.59092874196116
 10
109.9
 20
180.1907508741565
 10
109.9
 20
179.79057300635182
 10
109.9
 20
179.39039513854712
 10
109.9
 20
178.99021727074245
 10
109.9
 20
178.59003940293775
 10
109.9
 20
178.18986153513308
 10
109.9
 20
177.7896836673284
 10
109.9
 20
177.3895057995237
 10
109.9
 20
176.98932793171903
 10
109.9
 20
176.58915006391436
 10
109.9
 20
176.18897219610966
 10
109.9
 20
175.788794328305
 10
109.9
 20
175.3886164605003
 10
109.9
 20
174.98843859269562
 10
109.9
 20
174.58826072489094
 10
109.9
 20
174.18808285708624
 10
109.9
 20
173.78790498928157
 10
109.9
 20
173.38772712147687
 10
109.9
 20
172.9875492536722
 10
109.9
 20
172.58737138586753
 10
109.9
 20
172.18719351806283
 10
109.9
 20
171.78701565025816
 10
109.9
 20
171.38683778245348
 10
109.9
 20
170.98665991464878
 10
109.9
 20
170.5864820468441
 10
109.9
 20
170.1863041790394
 10
109.9
 20
169.78612631123474
 10
109.9
 20
169.38594844343004
 10
109.9
 20
168.98577057562537
 10
109.9
 20
168.5855927078207
 10
109.9
 20
168.185414840016
 10
109.9
 20
167.78523697221132
 10
109.9
 20
167.38505910440665
 10
109.9
 20
166.98488123660195
 10
109.9
 20
166.58470336879728
 10
109.9
 20
166.1845255009926
 10
109.9
 20
165.7843476331879
 10
109.9
 20
165.38416976538323
 10
109.9
 20
164.98399189757856
 10
109.9
 20
164.58381402977386
 10
109.9
 20
164.1836361619692
 10
109.9
 20
163.7834582941645
 10
109.9
 20
163.38328042635982
 10
109.9
 20
162.98310255855512
 10
109.9
 20
162.58292469075045
 10
109.9
 20
162.18274682294577
 10
109.9
 20
161.78256895514107
 10
109.9
 20
161.3823910873364
 10
109.9
 20
160.98221321953173
 10
109.9
 20
160.58203535172703
 10
109.9
 20
160.18185748392236
 10
109.9
 20
159.78167961611769
 10
109.9
 20
159.38150174831299
 10
109.9
 20
158.98132388050828
 10
109.9
 20
158.58114601270364
 10
109.9
 20
158.18096814489894
 10
109.9
 20
157.78079027709424
 10
109.9
 20
157.38061240928957
 10
109.9
 20
156.9804345414849
 10
109.9
 20
156.5802566736802
 10
109.9
 20
156.18007880587552
 10
109.9
 20
155.77990093807085
 10
109.9
 20
155.37972307026615
 10
109.9
 20
154.97954520246148
 10
109.9
 20
154.5793673346568
 10
109.9
 20
154.1791894668521
 10
109.9
 20
153.77901159904744
 10
109.87883373124271
 20
153.4
 10
109.47865586343802
 20
153.4
 10
109.07847799563334
 20
153.4
 10
108.67830012782866
 20
153.4
 10
108.27812226002396
 20
153.4
 10
107.87794439221929
 20
153.4
 10
107.47776652441462
 20
153.4
 10
107.07758865660992
 20
153.4
 10
106.67741078880525
 20
153.4
 10
106.27723292100056
 20
153.4
 10
105.87705505319587
 20
153.4
 10
105.4768771853912
 20
153.4
 10
105.07669931758652
 20
153.4
 10
104.67652144978183
 20
153.4
 10
104.27634358197714
 20
153.4
 10
103.87616571417246
 20
153.4
 10
103.47598784636779
 20
153.4
 10
103.0758099785631
 20
153.4
 10
102.67563211075841
 20
153.4
 10
102.27545424295373
 20
153.4
 10
101.87527637514906
 20
153.4
 10
101.47509850734437
 20
153.4
 10
101.07492063953968
 20
153.4
 10
100.67474277173501
 20
153.4
 10
100.27456490393033
 20
153.4
 10
99.87438703612563
 20
153.4
 10
99.47420916832095
 20
153.4
 10
99.07403130051628
 20
153.4
 10
98.67385343271158
 20
153.4
 10
98.27367556490691
 20
153.4
 10
97.87349769710221
 20
153.4
 10
97.47331982929754
 20
153.4
 10
97.07314196149287
 20
153.4
 10
96.67296409368817
 20
153.4
 10
96.2727862258835
 20
153.4
 10
95.8726083580788
 20
153.4
 10
95.47243049027412
 20
153.4
 10
95.07225262246945
 20
153.4
 10
94.67207475466476
 20
153.4
 10
94.27189688686008
 20
153.4
 10
93.87171901905539
 20
153.4
 10
93.4715411512507
 20
153.4
 10
93.07136328344603
 20
153.4
 10
92.67118541564136
 20
153.4
 10
92.27100754783666
 20
153.4
 10
91.87082968003199
 20
153.4
 10
91.47065181222729
 20
153.4
 10
91.07047394442262
 20
153.4
 10
90.67029607661794
 20
153.4
 10
90.27011820881324
 20
153.4
 10
89.86994034100857
 20
153.4
 10
89.4697624732039
 20
153.4
 10
89.0695846053992
 20
153.4
 10
88.66940673759453
 20
153.4
 10
88.26922886978984
 20
153.4
 10
87.86905100198516
 20
153.4
 10
87.46887313418048
 20
153.4
 10
87.06869526637578
 20
153.4
 10
86.66851739857111
 20
153.4
 10
86.26833953076641
 20
153.4
 10
85.86816166296174
 20
153.4
 10
85.46798379515707
 20
153.4
 10
85.06780592735237
 20
153.4
 10
84.66762805954768
 20
153.4
 10
84.267450191743
 20
153.4
 10
83.86727232393832
 20
153.4
 10
83.46709445613365
 20
153.4
 10
83.06691658832895
 20
153.4
 10
82.66673872052428
 20
153.4
 10
82.2665608527196
 20
153.4
 10
81.8663829849149
 20
153.4
 10
81.46620511711023
 20
153.4
 10
81.06602724930553
 20
153.4
 10
80.66584938150086
 20
153.4
 10
80.26567151369619
 20
153.4
 10
80.1
 20
153.63450635523967
 10
80.1
 20
154.03468422304434
 10
80.1
 20
154.434862090849
 10
80.1
 20
154.8350399586537
 10
80.1
 20
155.23521782645838
 10
80.1
 20
155.63539569426305
 10
80.1
 20
156.03557356206775
 10
80.1
 20
156.43575142987243
 10
80.1
 20
156.8359292976771
 10
80.1
 20
157.2361071654818
 10
80.1
 20
157.63628503328647
 10
80.1
 20
158.03646290109117
 10
80.1
 20
158.43664076889584
 10
80.1
 20
158.8368186367005
 10
80.1
 20
159.2369965045052
 10
80.1
 20
159.6371743723099
 10
80.1
 20
160.0373522401146
 10
80.1
 20
160.43753010791926
 10
80.1
 20
160.83770797572393
 10
80.1
 20
161.23788584352863
 10
80.1
 20
161.6380637113333
 10
80.1
 20
162.038241579138
 10
80.1
 20
162.43841944694267
 10
80.1
 20
162.83859731474735
 10
80.1
 20
163.23877518255205
 10
80.1
 20
163.63895305035672
 10
80.1
 20
164.03913091816142
 10
80.1
 20
164.4393087859661
 10
80.1
 20
164.83948665377076
 10
80.1
 20
165.23966452157546
 10
80.1
 20
165.63984238938014
 10
80.1
 20
166.04002025718484
 10
80.1
 20
166.4401981249895
 10
80.1
 20
166.84037599279418
 10
80.1
 20
167.24055386059888
 10
80.1
 20
167.64073172840355
 10
80.1
 20
168.04090959620825
 10
80.1
 20
168.44108746401292
 10
80.1
 20
168.8412653318176
 10
80.1
 20
169.2414431996223
 10
80.1
 20
169.64162106742697
 10
80.1
 20
170.04179893523167
 10
80.1
 20
170.44197680303634
 10
80.1
 20
170.842154670841
 10
80.1
 20
171.2423325386457
 10
80.1
 20
171.64251040645038
 10
80.1
 20
172.04268827425506
 10
80.1
 20
172.44286614205976
 10
80.1
 20
172.84304400986443
 10
80.1
 20
173.24322187766913
 10
80.1
 20
173.6433997454738
 10
80.1
 20
174.04357761327847
 10
80.1
 20
174.44375548108317
 10
80.1
 20
174.84393334888784
 10
80.1
 20
175.24411121669252
 10
80.1
 20
175.64428908449722
 10
80.1
 20
176.0444669523019
 10
80.1
 20
176.44464482010656
 10
80.1
 20
176.84482268791126
 10
80.1
 20
177.24500055571593
 10
80.1
 20
177.6451784235206
 10
80.1
 20
178.0453562913253
 10
80.1
 20
178.44553415912998
 10
80.1
 20
178.84571202693468
 10
80.1
 20
179.24588989473935
 10
80.1
 20
179.64606776254402
 10
80.1
 20
180.04624563034872
 10
80.1
 20
180.4464234981534
 10
80.1
 20
180.84660136595807
 10
80.1
 20
181.24677923376277
 10
80.1
 20
181.64695710156744
 10
80.1
 20
182.0471349693721
 10
80.1
 20
182.4473128371768
 10
80.1
 20
182.84749070498148
 10
80.1
 20
183.24766857278618
 10
80.1
 20
183.64784644059085
 10
80.1
 20
184.04802430839553
 10
80.1
 20
184.44820217620023
 10
80.1
 20
184.8483800440049
 10
80.1
 20
185.2485579118096
 10
80.1
 20
185.64873577961427
 10
80.1
 20
186.04891364741894
 10
80.1
 20
186.44909151522364
 10
80.1
 20
186.84926938302831
 10
80.1
 20
187.24944725083301
 10
80.1
 20
187.6496251186377
 10
80.1
 20
188.04980298644236
 10
80.1
 20
188.44998085424706
 10
80.1
 20
188.85015872205173
 10
80.1
 20
189.25033658985643
 10
80.1
 20
189.6505144576611
 10
80.1
 20
190.05069232546577
 10
80.1
 20
190.45087019327048
 10
80.1
 20
190.85104806107515
 10
80.1
 20
191.25122592887985
 10
80.1
 20
191.65140379668452
 10
80.1
 20
192.0515816644892
 10
80.1
 20
192.4517595322939
 10
80.1
 20
192.85193740009856
 10
80.1
 20
193.25211526790326
 10
80.1
 20
193.65229313570794
 10
80.1
 20
194.0524710035126
 10
80.1
 20
194.4526488713173
 10
80.1
 20
194.85282673912198
 10
80.1
 20
195.25300460692668
 10
80.1
 20
195.65318247473135
 10
80.1
 20
196.05336034253602
 10
80.1
 20
196.45353821034072
 10
80.1
 20
196.8537160781454
 10
80.1
 20
197.25389394595007
 10
80.1
 20
197.65407181375477
 10
80.1
 20
198.05424968155944
 10
80.1
 20
198.4544275493641
 10
80.1
 20
198.8546054171688
 10
80.1
 20
199.25478328497348
 10
80.1
 20
199.65496115277818
 10
80.1
 20
200.05513902058286
 10
80.1
 20
200.45531688838753
 10
80.1
 20
200.85549475619223
 10
79.84432737600308
 20
201.0
 10
79.44414950819841
 20
201.0
 10
79.04397164039372
 20
201.0
 10
78.64379377258905
 20
201.0
 10
78.24361590478438
 20
201.0
 10
77.84343803697968
 20
201.0
 10
77.443260169175
 20
201.0
 10
77.0430823013703
 20
201.0
 10
76.64290443356563
 20
201.0
 10
76.24272656576093
 20
201.0
 10
75.84254869795626
 20
201.0
 10
75.44237083015159
 20
201.0
 10
75.04219296234689
 20
201.0
 10
74.64201509454222
 20
201.0
 10
74.24183722673752
 20
201.0
 10
73.84165935893284
 20
201.0
 10
73.44148149112817
 20
201.0
 10
73.04130362332347
 20
201.0
 10
72.6411257555188
 20
201.0
 10
72.24094788771413
 20
201.0
 10
71.84077001990943
 20
201.0
 10
71.44059215210476
 20
201.0
 10
71.04041428430008
 20
201.0
 10
70.64023641649538
 20
201.0
 10
70.24005854869071
 20
201.0
 10
69.83988068088604
 20
201.0
 10
69.43970281308134
 20
201.0
 10
69.03952494527667
 20
201.0
 10
68.63934707747197
 20
201.0
 10
68.2391692096673
 20
201.0
 10
67.83899134186262
 20
201.0
 10
67.43881347405792
 20
201.0
 10
67.03863560625325
 20
201.0
 10
66.63845773844855
 20
201.0
 10
66.23827987064388
 20
201.0
 10
65.83810200283921
 20
201.0
 10
65.4379241350345
 20
201.0
 10
65.03774626722983
 20
201.0
 10
64.63756839942513
 20
201.0
 10
64.23739053162046
 20
201.0
 10
63.8372126638158
 20
201.0
 10
63.4370347960111
 20
201.0
 10
63.036856928206426
 20
201.0
 10
62.636679060401725
 20
201.0
 10
62.23650119259705
 20
201.0
 10
61.83632332479238
 20
201.0
 10
61.43614545698768
 20
201.0
 10
61.03596758918301
 20
201.0
 10
60.63578972137831
 20
201.0
 10
60.23561185357364
 20
201.0
 10
59.835433985768965
 20
201.0
 10
59.435256117964265
 20
201.0
 10
59.03507825015959
 20
201.0
 10
58.63490038235489
 20
201.0
 10
58.23472251455022
 20
201.0
 10
57.83454464674555
 20
201.0
 10
57.43436677894085
 20
201.0
 10
57.03418891113618
 20
201.0
 10
56.634011043331476
 20
201.0
 10
56.233833175526804
 20
201.0
 10
55.83365530772213
 20
201.0
 10
55.43347743991743
 20
201.0
 10
55.03329957211276
 20
201.0
 10
54.63312170430809
 20
201.0
 10
54.23294383650339
 20
201.0
 10
53.832765968698716
 20
201.0
 10
53.432588100894016
 20
201.0
 10
53.032410233089344
 20
201.0
 10
52.63223236528467
 20
201.0
 10
52.61455217969919
 20
201.38249768221922
 10
52.61455217969919
 20
201.7826755500239
 10
52.61455217969919
 20
202.18285341782857
 10
52.61455217969919
 20
202.58303128563327
 10
52.61455217969919
 20
202.98320915343794
 10
52.61455217969919
 20
203.3833870212426
 10
52.61455217969919
 20
203.7835648890473
 10
52.61455217969919
 20
204.18374275685198
 10
52.61455217969919
 20
204.58392062465668
 10
52.61455217969919
 20
204.98409849246136
 10
52.61455217969919
 20
205.38427636026603
 10
52.61455217969919
 20
205.78445422807073
 10
52.61455217969919
 20
206.1846320958754
 10
52.61455217969919
 20
206.5848099636801
 10
52.61455217969919
 20
206.98498783148477
 10
52.61455217969919
 20
207.38516569928944
 10
52.61455217969919
 20
207.78534356709412
 10
52.61455217969919
 20
208.18552143489882
 10
52.61455217969919
 20
208.58569930270352
 10
52.61455217969919
 20
208.9858771705082
 10
52.61455217969919
 20
209.38605503831286
 10
52.61455217969919
 20
209.78623290611753
 10
52.61455217969919
 20
210.1864107739222
 10
52.61455217969919
 20
210.58658864172693
 10
52.61455217969919
 20
210.9867665095316
 10
52.61455217969919
 20
211.38694437733628
 10
52.61455217969919
 20
211.78712224514095
 10
52.61455217969919
 20
212.18730011294562
 10
52.61455217969919
 20
212.58747798075035
 10
52.61455217969919
 20
212.98765584855502
 10
52.869840876786974
 20
213.29196347270505
 10
53.1333769258837
 20
213.59311306077504
 10
53.39703994868163
 20
213.89415148665165
 10
53.66083324248839
 20
214.19507576526223
 10
53.924760215215244
 20
214.49588280680754
 10
54.18882439266076
 20
214.79656940979902
 10
54.45302942576653
 20
215.09713225406477
 10
54.71737909784365
 20
215.3975678937232
 10
54.98187733176796
 20
215.69787275012212
 10
55.24652819714176
 20
215.99804310474138
 10
55.511335917420276
 20
216.29807509205753
 10
55.77630487700006
 20
216.59796469236713
 10
56.041439628267014
 20
216.89770772456785
 10
56.306744898601515
 20
217.1972998388942
 10
56.57222559733745
 20
217.49673650960537
 10
56.837886822672445
 20
217.79601302762316
 10
57.103733868525836
 20
218.09512449311694
 10
57.36977223134084
 20
218.39406580803254
 10
57.63600763849128
 20
218.69283164925272
 10
57.90244606444914
 20
218.99141645244418
 10
58.16909371621026
 20
219.28981442316223
 10
58.435957063180545
 20
219.58801950817224
 10
58.70304284881634
 20
219.88602538281805
 10
58.970358103763935
 20
220.18382543684422
 10
59.2379101605546
 20
220.4814127585946
 10
59.50570666983951
 20
220.77878011757116
 10
59.77375561814695
 20
221.0759199453359
 10
60.042065347142874
 20
221.3728243147377
 10
60.31064457437343
 20
221.66948491744387
 10
60.57950241546636
 20
221.9658930397551
 10
60.84864840776565
 20
222.2620395366806
 10
61.11809253537098
 20
222.5579148042485
 10
61.387845255550594
 20
222.85350875002433
 10
61.65791752649351
 20
223.14881076180936
 10
61.92832083636199
 20
223.443809674487
 10
62.199067233602776
 20
223.73849373498476
 10
62.47016936717828
 20
224.03285055729063
 10
62.74164052702595
 20
224.32686707628238
 10
63.01349467701688
 20
224.62052950740255
 10
63.285746509113224
 20
224.91382328558385
 10
63.558411487236995
 20
225.2067330122884
 10
63.831505897012875
 20
225.49924239560397
 10
64.10504690118799
 20
225.79133418334482
 10
64.37905260051024
 20
226.08299008909938
 10
64.65354210004193
 20
226.37419071095545
 10
64.92853558107718
 20
226.66491544241626
 10
65.20405437901519
 20
226.95514237480126
 10
65.48012106772086
 20
227.24484819019838
 10
65.75675955107229
 20
227.5340080438048
 10
66.03399516255455
 20
227.82259543425351
 10
66.31185477390642
 20
228.11058206028105
 10
66.59036691395883
 20
228.3979376618356
 10
66.86956189891976
 20
228.6846298434669
 10
67.1494719754543
 20
228.97062387756498
 10
67.43013147797771
 20
229.2558824847364
 10
67.71157700161834
 20
229.54036558831243
 10
67.99384759230749
 20
229.82403003968005
 10
68.2769849554106
 20
230.10682931081303
 10
68.56103368421442
 20
230.38871315005315
 10
68.84604150941927
 20
230.66962719685787
 10
69.13205957413544
 20
230.94951254720405
 10
69.41914276484475
 20
231.228305233714
 10
69.7073500325097
 20
231.50593568195345
 10
69.99674478302292
 20
231.7823280550919
 10
70.28727992422563
 20
232.05752167856076
 10
70.57803085033996
 20
232.33248753979515
 10
70.86878177645427
 20
232.60745340102952
 10
71.15953270256858
 20
232.8824192622639
 10
71.45028362868291
 20
233.1573851234983
 10
71.74103455479725
 20
233.4323509847327
 10
72.03178548091157
 20
233.70731684596706
 10
72.32253640702588
 20
233.98228270720142
 10
72.61328733314019
 20
234.2572485684358
 10
72.90403825925452
 20
234.5322144296702
 10
73.19478918536888
 20
234.80718029090463
 10
73.51823145054558
 20
235.0
 10
73.91840931835026
 20
235.0
 10
74.31858718615493
 20
235.0
 10
74.7187650539596
 20
235.0
 10
75.1189429217643
 20
235.0
 10
75.519120789569
 20
235.0
 10
75.91929865737367
 20
235.0
 10
76.31947652517835
 20
235.0
 10
76.71965439298302
 20
235.0
 10
77.11983226078772
 20
235.0
 10
77.52001012859242
 20
235.0
 10
77.92018799639709
 20
235.0
 10
78.32036586420176
 20
235.0
 10
78.72054373200643
 20
235.0
 10
79.12072159981113
 20
235.0
 10
79.5208994676158
 20
235.0
 10
79.9210773354205
 20
235.0
 10
80.32125520322518
 20
235.0
 10
80.72143307102985
 20
235.0
 10
81.12161093883455
 20
235.0
 10
81.52178880663922
 20
235.0
 10
81.9219666744439
 20
235.0
 10
82.3221445422486
 20
235.0
 10
82.72232241005327
 20
235.0
 10
83.12250027785797
 20
235.0
 10
83.52267814566264
 20
235.0
 10
83.92285601346731
 20
235.0
 10
84.32303388127201
 20
235.0
 10
84.72321174907668
 20
235.0
 10
85.12338961688138
 20
235.0
 10
85.52356748468605
 20
235.0
 10
85.92374535249073
 20
235.0
 10
86.3239232202954
 20
235.0
 10
86.7241010881001
 20
235.0
 10
87.1242789559048
 20
235.0
 10
87.52445682370947
 20
235.0
 10
87.92463469151414
 20
235.0
 10
88.32481255931881
 20
235.0
 10
88.72499042712349
 20
235.0
 10
89.12516829492822
 20
235.0
 10
89.52534616273289
 20
235.0
 10
89.92552403053756
 20
235.0
 10
90.32570189834223
 20
235.0
 10
90.7258797661469
 20
235.0
 10
91.12605763395163
 20
235.0
 10
91.5262355017563
 20
235.0
 10
91.92641336956098
 20
235.0
 10
92.32659123736565
 20
235.0
 10
92.72676910517032
 20
235.0
 10
93.12694697297505
 20
235.0
 10
93.52712484077972
 20
235.0
 10
93.92730270858439
 20
235.0
 10
94.32748057638906
 20
235.0
 10
94.72765844419374
 20
235.0
 10
95.12783631199846
 20
235.0
 10
95.52801417980314
 20
235.0
 10
95.92819204760781
 20
235.0
 10
96.32836991541248
 20
235.0
 10
96.72854778321715
 20
235.0
 10
97.12872565102185
 20
235.0
 10
97.52890351882655
 20
235.0
 10
97.92908138663122
 20
235.0
 10
98.3292592544359
 20
235.0
 10
98.72943712224057
 20
235.0
 10
99.12961499004527
 20
235.0
 10
99.52979285784997
 20
235.0
 10
99.92997072565464
 20
235.0
 10
100.33014859345931
 20
235.0
 10
100.73032646126399
 20
235.0
 10
101.13050432906869
 20
235.0
 10
101.53068219687336
 20
235.0
 10
101.93086006467806
 20
235.0
 10
102.33103793248273
 20
235.0
 10
102.7312158002874
 20
235.0
 10
103.1313936680921
 20
235.0
 10
103.53157153589677
 20
235.0
 10
103.93174940370145
 20
235.0
 10
104.33192727150615
 20
235.0
 10
104.73210513931082
 20
235.0
 10
105.13228300711552
 20
235.0
 10
105.53246087492019
 20
235.0
 10
105.93263874272486
 20
235.0
 10
106.33281661052956
 20
235.0
 10
106.73299447833423
 20
235.0
 10
107.13317234613893
 20
235.0
 10
107.5333502139436
 20
235.0
 10
107.93352808174828
 20
235.0
 10
108.33370594955295
 20
235.0
 10
108.73388381735765
 20
235.0
 10
109.13406168516235
 20
235.0
 10
109.53423955296702
 20
235.0
 10
109.9344174207717
 20
235.0
 10
110.33459528857637
 20
235.0
 10
110.73477315638107
 20
235.0
 10
111.13495102418577
 20
235.0
 10
111.53512889199044
 20
235.0
 10
111.93530675979511
 20
235.0
 10
112.33548462759978
 20
235.0
 10
112.73566249540445
 20
235.0
 10
113.13584036320918
 20
235.0
 10
113.53601823101386
 20
235.0
 10
113.93619609881853
 20
235.0
 10
114.3363739666232
 20
235.0
 10
114.73655183442787
 20
235.0
 10
115.1367297022326
 20
235.0
 10
115.53690757003727
 20
235.0
 10
115.93708543784194
 20
235.0
 10
116.33726330564662
 20
235.0
 10
116.70021991721849
 20
234.90647116132297
 10
116.99097084333285
 20
234.63150530008858
 10
117.28172176944716
 20
234.35653943885418
 10
117.57247269556147
 20
234.0815735776198
 10
117.86322362167579
 20
233.80660771638543
 10
118.1539745477901
 20
233.53164185515107
 10
118.44472547390446
 20
233.25667599391664
 10
118.73547640001877
 20
232.98171013268225
 10
119.0262273261331
 20
232.7067442714479
 10
119.31697825224741
 20
232.43177841021352
 10
119.60772917836174
 20
232.15681254897913
 10
119.89844916822403
 20
231.8818139979412
 10
120.18828923402624
 20
231.60588866360456
 10
120.47691774427989
 20
231.32869618920193
 10
120.76439981793831
 20
231.05031485190173
 10
121.05079596495366
 20
230.7708164047332
 10
121.33616250252373
 20
230.49026677519603
 10
121.62055188519881
 20
230.20872663190843
 10
121.90401304213539
 20
229.92625192249758
 10
122.18659166963815
 20
229.6428943356231
 10
122.46833048847459
 20
229.35870170216498
 10
122.7492694798257
 20
229.07371835374792
 10
123.02944610094255
 20
228.7879854430078
 10
123.30889548177248
 20
228.5015412296699
 10
123.58765060393941
 20
228.21442133617884
 10
123.86574246352654
 20
227.92665897630116
 10
124.14320021912246
 20
227.63828515981402
 10
124.42005132656654
 20
227.34932887609745
 10
124.69632166177065
 20
227.05981725916058
 10
124.97203563290834
 20
226.76977573636046
 10
125.24721628315412
 20
226.4792281628046
 10
125.52188538502956
 20
226.18819694317423
 10
125.79606352726964
 20
225.89670314245737
 10
126.06977019496846
 20
225.60476658684036
 10
126.34302384359714
 20
225.31240595577347
 10
126.61584196731174
 20
225.019638865998
 10
126.8882411617868
 20
224.7264819481006
 10
127.16023718162111
 20
224.43295091594152
 10
127.43184499216844
 20
224.139060629091
 10
127.70307881544662
 20
223.84482514819763
 10
127.9739521773171
 20
223.5502577901175
 10
128.24447795678816
 20
223.2553711837068
 10
128.51466841286413
 20
222.96017730384006
 10
128.78453523246648
 20
222.6646875238047
 10
129.0540895617408
 20
222.36891265153727
 10
129.32334203556883
 20
222.07286296345333
 10
129.59230280579493
 20
221.77654823641447
 10
129.8609815681267
 20
221.4799777778635
 10
130.12938758767427
 20
221.1831604541577
 10
130.3975297230954
 20
220.88610471712838
 10
130.66541644931772
 20
220.58881862889115
 10
130.93305587881085
 20
220.29130988493162
 10
131.20045578138456
 20
219.99358583548852
 10
131.46762360249116
 20
219.69565350525443
 10
131.7345664800124
 20
219.39751961141297
 10
132.00129125951216
 20
219.09919058003095
 10
132.26780450793962
 20
218.80067256082032
 10
132.53411252576697
 20
218.50197144028596
 10
132.8002213665828
 20
218.20309286131356
 10
133.06613685263312
 20
217.90404223893955
 10
133.33186455710148
 20
217.60482474637985
 10
133.59740984625756
 20
217.30544535417926
 10
133.86277788818632
 20
217.00590883943897
 10
134.12797365962632
 20
216.70621979325145
 10
134.39300195286162
 20
216.40638262808122
 10
134.65786738266334
 20
216.10640158509494
 10
134.92257439327858
 20
215.80628074144252
 10
135.18712726546315
 20
215.50602401749228
 10
135.4515301235561
 20
215.20563518402233
 10
135.7157869425921
 20
214.90511786937088
 10
135.97990155545125
 20
214.60447556654694
 10
136.24387766004202
 20
214.30371164030424
 10
136.5077188265169
 20
214.00282933417984
 10
136.77142850451787
 20
213.70183177749945
 10
137.03501003045
 20
213.40072199235132
 10
137.29846663478162
 20
213.0995029005307
 10
137.3854478203008
 20
212.73198322455806
 10
137.3854478203008
 20
212.33180535675342
 10
137.3854478203008
 20
211.93162748894872
 10
137.3854478203008
 20
211.53144962114408
 10
137.3854478203008
 20
211.13127175333938
 10
137.3854478203008
 20
210.73109388553473
 10
137.3854478203008
 20
210.33091601772998
 10
137.3854478203008
 20
209.93073814992533
 10
137.3854478203008
 20
209.53056028212063
 10
137.3854478203008
 20
209.130382414316
 10
137.3854478203008
 20
208.7302045465113
 10
137.3854478203008
 20
208.3300266787066
 10
137.3854478203008
 20
207.9298488109019
 10
137.3854478203008
 20
207.52967094309724
 10
137.3854478203008
 20
207.12949307529254
 10
137.3854478203008
 20
206.7293152074879
 10
137.3854478203008
 20
206.32913733968314
 10
137.3854478203008
 20
205.9289594718785
 10
137.3854478203008
 20
205.5287816040738
 10
137.3854478203008
 20
205.12860373626916
 10
137.3854478203008
 20
204.72842586846446
 10
137.3854478203008
 20
204.32824800065976
 10
137.3854478203008
 20
203.92807013285505
 10
137.3854478203008
 20
203.5278922650504
 10
137.3854478203008
 20
203.1277143972457
 10
137.3854478203008
 20
202.72753652944107
 10
137.3854478203008
 20
202.32735866163637
 10
137.3854478203008
 20
201.92718079383167
 10
137.3854478203008
 20
201.52700292602697
 10
137.3854478203008
 20
201.12682505822232
 10
137.11209501071843
 20
201.0
 10
136.71191714291373
 20
201.0
 10
136.31173927510903
 20
201.0
 10
135.9115614073044
 20
201.0
 10
135.5113835394997
 20
201.0
 10
135.11120567169505
 20
201.0
 10
134.71102780389035
 20
201.0
 10
134.31084993608565
 20
201.0
 10
133.91067206828095
 20
201.0
 10
133.5104942004763
 20
201.0
 10
133.1103163326716
 20
201.0
 10
132.7101384648669
 20
201.0
 10
132.30996059706226
 20
201.0
 10
131.90978272925756
 20
201.0
 10
131.50960486145286
 20
201.0
 10
131.1094269936482
 20
201.0
 10
130.7092491258435
 20
201.0
 10
130.3090712580388
 20
201.0
 10
129.90889339023417
 20
201.0
 10
129.50871552242947
 20
201.0
 10
129.10853765462477
 20
201.0
 10
128.70835978682007
 20
201.0
 10
128.30818191901542
 20
201.0
 10
127.90800405121072
 20
201.0
 10
127.50782618340608
 20
201.0
 10
127.10764831560138
 20
201.0
 10
126.70747044779668
 20
201.0
 10
126.30729257999198
 20
201.0
 10
125.90711471218734
 20
201.0
 10
125.50693684438264
 20
201.0
 10
125.10675897657799
 20
201.0
 10
124.70658110877324
 20
201.0
 10
124.30640324096859
 20
201.0
 10
123.90622537316389
 20
201.0
 10
123.50604750535925
 20
201.0
 10
123.10586963755455
 20
201.0
 10
122.70569176974985
 20
201.0
 10
122.30551390194515
 20
201.0
 10
121.9053360341405
 20
201.0
 10
121.5051581663358
 20
201.0
 10
121.10498029853116
 20
201.0
 10
120.7048024307264
 20
201.0
 10
120.30462456292176
 20
201.0
 10
119.90444669511706
 20
201.0
 10
119.50426882731242
 20
201.0
 10
119.10409095950772
 20
201.0
 10
118.70391309170301
 20
201.0
 10
118.30373522389831
 20
201.0
 10
117.90355735609367
 20
201.0
 10
117.50337948828897
 20
201.0
 10
117.10320162048433
 20
201.0
 10
116.70302375267963
 20
201.0
 10
116.30284588487493
 20
201.0
 10
115.90266801707023
 20
201.0
 10
115.50249014926558
 20
201.0
 10
115.10231228146088
 20
201.0
 10
114.70213441365618
 20
201.0
 10
114.30195654585148
 20
201.0
 10
113.90177867804684
 20
201.0
 10
113.50160081024214
 20
201.0
 10
113.1014229424375
 20
201.0
 10
112.7012450746328
 20
201.0
 10
112.3010672068281
 20
201.0
 10
111.9008893390234
 20
201.0
 10
111.50071147121875
 20
201.0
 10
111.10053360341405
 20
201.0
 10
110.70035573560935
 20
201.0
 10
110.3001778678047
 20
201.0
 10
109.9
 20
201.0
 10
109.9
 20
200.59982213219533
 10
109.9
 20
200.19964426439063
  0
LINE
  5
CA
330
17
100
AcDbEntity
  8
07_ОСИ
100
AcDbLine
 10
95.0
 20
98.4
 30
0.0
 11
95.0
 21
245.0
 31
0.0
  0
LINE
  5
CB
330
17
100
AcDbEntity
  8
07_ОСИ
100
AcDbLine
 10
69.0
 20
146.3
 30
0.0
 11
121.0
 21
146.3
 31
0.0
  0
TEXT
  5
CC
330
17
100
AcDbEntity
  8
08_ТЕКСТ
100
AcDbText
 10
55.0
 20
253.0
 30
0.0
 40
5.0
  1
А-А
  7
ГОСТ
 72
1
 11
55.0
 21
253.0
 31
0.0
100
AcDbText
 73
1
  0
DIMENSION
  5
CD
330
17
100
AcDbEntity
  8
09_РАЗМЕРЫ
100
AcDbDimension
280
0
  2
*D1
  3
ГОСТ
 10
80.0
 20
175.0
 30
0.0
 11
95.0
 21
177.75
 31
0.0
 70
32
 71
5
  1
⌀30f9
100
AcDbAlignedDimension
 13
80.0
 23
175.0
 33
0.0
 14
110.0
 24
175.0
 34
0.0
 50
0.0
100
AcDbRotatedDimension
1001
ACAD
1000
DSTYLE
1002
{
1070
340
1005
99
1002
}
  0
DIMENSION
  5
DC
330
17
100
AcDbEntity
  8
09_РАЗМЕРЫ
100
AcDbDimension
280
0
  2
*D2
  3
ГОСТ
 10
84.0
 20
120.7
 30
0.0
 11
95.0
 21
123.45
 31
0.0
 70
32
 71
5
  1
⌀22
100
AcDbAlignedDimension
 13
84.0
 23
120.7
 33
0.0
 14
106.0
 24
120.7
 34
0.0
 50
0.0
100
AcDbRotatedDimension
1001
ACAD
1000
DSTYLE
1002
{
1070
340
1005
99
1002
}
  0
DIMENSION
  5
EB
330
17
100
AcDbEntity
  8
09_РАЗМЕРЫ
100
AcDbDimension
280
0
  2
*D3
  3
ГОСТ
 10
33.0
 20
108.4
 30
0.0
 11
30.25
 21
171.7
 31
0.0
 70
32
 71
5
  1
126,6
100
AcDbAlignedDimension
 13
69.0
 23
108.4
 33
0.0
 14
69.0
 24
235.0
 34
0.0
 50
90.0
100
AcDbRotatedDimension
1001
ACAD
1000
DSTYLE
1002
{
1070
340
1005
99
1002
}
  0
DIMENSION
  5
FA
330
17
100
AcDbEntity
  8
09_РАЗМЕРЫ
100
AcDbDimension
280
0
  2
*D4
  3
ГОСТ
 10
49.0
 20
108.4
 30
0.0
 11
46.25
 21
154.7
 31
0.0
 70
32
 71
5
  1
92,6
100
AcDbAlignedDimension
 13
80.0
 23
108.4
 33
0.0
 14
80.0
 24
201.0
 34
0.0
 50
90.0
100
AcDbRotatedDimension
1001
ACAD
1000
DSTYLE
1002
{
1070
340
1005
99
1002
}
  0
DIMENSION
  5
109
330
17
100
AcDbEntity
  8
09_РАЗМЕРЫ
100
AcDbDimension
280
0
  2
*D5
  3
ГОСТ
 10
131.0
 20
114.4
 30
0.0
 11
126.25
 21
120.7
 31
0.0
 70
32
 71
5
  1
12,6
100
AcDbAlignedDimension
 13
110.0
 23
114.4
 33
0.0
 14
110.0
 24
127.0
 34
0.0
 50
90.0
100
AcDbRotatedDimension
1001
ACAD
1000
DSTYLE
1002
{
1070
340
1005
99
1002
}
  0
DIMENSION
  5
118
330
17
100
AcDbEntity
  8
09_РАЗМЕРЫ
100
AcDbDimension
280
0
  2
*D6
  3
ГОСТ
 10
131.0
 20
108.4
 30
0.0
 11
126.25
 21
111.4
 31
0.0
 70
32
 71
5
  1
6,0
100
AcDbAlignedDimension
 13
110.0
 23
108.4
 33
0.0
 14
110.0
 24
114.4
 34
0.0
 50
90.0
100
AcDbRotatedDimension
1001
ACAD
1000
DSTYLE
1002
{
1070
340
1005
99
1002
}
  0
DIMENSION
  5
129
330
17
100
AcDbEntity
  8
09_РАЗМЕРЫ
100
AcDbDimension
280
0
  2
*D7
  3
ГОСТ
 10
147.0
 20
108.4
 30
0.0
 11
144.25
 21
127.35000000000001
 31
0.0
 70
32
 71
5
  1
37,9
100
AcDbAlignedDimension
 13
110.0
 23
108.4
 33
0.0
 14
110.0
 24
146.3
 34
0.0
 50
90.0
100
AcDbRotatedDimension
1001
ACAD
1000
DSTYLE
1002
{
1070
340
1005
99
1002
}
  0
DIMENSION
  5
138
330
17
100
AcDbEntity
  8
09_РАЗМЕРЫ
100
AcDbDimension
280
0
  2
*D8
  3
ГОСТ
 10
157.0
 20
201.0
 30
0.0
 11
154.25
 21
207.0
 31
0.0
 70
32
 71
5
  1
12
100
AcDbAlignedDimension
 13
125.0
 23
201.0
 33
0.0
 14
125.0
 24
213.0
 34
0.0
 50
90.0
100
AcDbRotatedDimension
1001
ACAD
1000
DSTYLE
1002
{
1070
340
1005
99
1002
}
  0
DIMENSION
  5
147
330
17
100
AcDbEntity
  8
09_РАЗМЕРЫ
100
AcDbDimension
280
0
  2
*D9
  3
ГОСТ
 10
157.0
 20
213.0
 30
0.0
 11
154.25
 21
224.0
 31
0.0
 70
32
 71
5
  1
22
100
AcDbAlignedDimension
 13
125.0
 23
213.0
 33
0.0
 14
125.0
 24
235.0
 34
0.0
 50
90.0
100
AcDbRotatedDimension
1001
ACAD
1000
DSTYLE
1002
{
1070
340
1005
99
1002
}
  0
LINE
  5
156
330
17
100
AcDbEntity
  8
09_РАЗМЕРЫ
100
AcDbLine
 10
89.0
 20
143.3
 30
0.0
 11
51.0
 21
96.4
 31
0.0
  0
TEXT
  5
157
330
17
100
AcDbEntity
  8
08_ТЕКСТ
100
AcDbText
 10
50.0
 20
97.4
 30
0.0
 40
3.0
  1
М14×1,5-6Н
  7
ГОСТ
 72
2
 11
50.0
 21
97.4
 31
0.0
100
AcDbText
 73
1
  0
LINE
  5
158
330
17
100
AcDbEntity
  8
09_РАЗМЕРЫ
100
AcDbLine
 10
51.0
 20
96.4
 30
0.0
 11
29.049999999999997
 21
96.4
 31
0.0
  0
LINE
  5
159
330
17
100
AcDbEntity
  8
20_ВИДИМЫЕ
100
AcDbLine
 10
95.0
 20
280.0
 30
0.0
 11
95.0
 21
266.0
 31
0.0
  0
HATCH
  5
15A
330
17
100
AcDbEntity
  8
09_РАЗМЕРЫ
 62
7
100
AcDbHatch
 10
0.0
 20
0.0
 30
0.0
210
0.0
220
0.0
230
1.0
  2
SOLID
 70
1
 71
0
 91
1
 92
3
 72
0
 73
1
 93
3
 10
95.0
 20
262.0
 10
94.0
 20
265.5
 10
96.0
 20
265.5
 97
0
 75
0
 76
1
 98
0
  0
TEXT
  5
15B
330
17
100
AcDbEntity
  8
08_ТЕКСТ
100
AcDbText
 10
101.0
 20
275.0
 30
0.0
 40
5.0
  1
Б
  7
ГОСТ
 72
1
 11
101.0
 21
275.0
 31
0.0
100
AcDbText
 73
2
  0
LWPOLYLINE
  5
15C
330
17
100
AcDbEntity
  8
20_ВИДИМЫЕ
100
AcDbPolyline
 90
106
 70
0
 10
246.28311787392298
 20
138.39146564992188
 10
245.6307733968525
 20
137.91502004558942
 10
244.96446779575206
 20
137.4583028720627
 10
244.28479750437432
 20
137.0217229530666
 10
243.59237091967992
 20
136.60567108675596
 10
242.88780785723955
 20
136.2105196958983
 10
242.17173899641517
 20
135.83662249450498
 10
241.44480531581655
 20
135.48431417120923
 10
240.70765751953869
 20
135.1539100896746
 10
239.9609554546933
 20
134.84570600630164
 10
239.2053675207566
 20
134.55997780548603
 10
238.44157007126094
 20
134.29698125266444
 10
237.670246808367
 20
134.05695176537012
 10
236.89208817085773
 20
133.8401042025021
 10
236.10779071610204
 20
133.64663267199745
 10
235.31805649654166
 20
133.4767103570784
 10
234.52359243125917
 20
133.3304893612299
 10
233.72510967318965
 20
133.20810057204636
 10
232.9233229725425
 20
133.10965354406963
 10
232.11895003700317
 20
133.03523640072268
 10
231.3127108892876
 20
132.98491575542732
 10
230.50532722262432
 20
132.95873665197624
 10
229.69752175474147
 20
132.95672252421247
 10
228.89001758093627
 20
132.9788751750532
 10
228.083537526807
 20
133.02517477487567
 10
227.27880350122607
 20
133.09557987926758
 10
226.47653585013396
 20
133.19002746612531
 10
225.67745271173192
 20
133.3084329920673
 10
224.88226937365096
 20
133.45069046811187
 10
224.0916976326728
 20
133.61667255455154
 10
223.3064451575751
 20
133.8062306749395
 10
222.52721485567216
 20
134.01919514908562
 10
221.75470424361765
 20
134.2553753449431
 10
220.9896048230328
 20
134.51455984925002
 10
220.23260146151875
 20
134.79651665677298
 10
219.4843717796073
 20
135.1009933779829
 10
218.7455855441987
 20
135.42771746497817
 10
218.01690406902966
 20
135.77639645545167
 10
217.2989796227081
 20
136.1467182344843
 10
216.59245484484393
 20
136.53835131393004
 10
215.89796217080027
 20
136.95094512914272
 10
215.21612326557755
 20
137.38413035277898
 10
214.54754846733942
 20
137.83751922539602
 10
213.89283624107742
 20
138.31070590254907
 10
213.25257264290366
 20
138.80326681807696
 10
212.62733079545134
 20
139.31476106325135
 10
212.0176703748523
 20
139.84473078144956
 10
211.4241371097511
 20
140.39270157799842
 10
210.84726229280403
 20
140.95818294482174
 10
210.2875623051001
 20
141.54066869951134
 10
209.7455381539301
 20
142.139637438429
 10
209.22167502431742
 20
142.75455300343322
 10
208.7164418447113
 20
143.38486496181352
 10
208.2302908672328
 20
144.0300090990021
 10
207.7636572628476
 20
144.68940792362233
 10
207.31695873182923
 20
145.36247118442188
 10
206.89059512986063
 20
146.04859639862732
 10
206.48494811010931
 20
146.74716939124798
 10
206.10038078159596
 20
147.45756484484562
 10
205.73723738416265
 20
148.17914685927826
 10
205.39584298033168
 20
148.91126952091702
 10
205.07650316433055
 20
149.65327748082612
 10
204.77950378854376
 20
150.40450654138908
 10
204.5051107076361
 20
151.16428425085556
 10
204.25356954057693
 20
151.93193050527657
 10
204.0251054507777
 20
152.70675815728976
 10
203.81992294454034
 20
153.4880736312094
 10
203.63820568799645
 20
154.2751775438704
 10
203.48011634270114
 20
155.06736533067112
 10
203.34579642002893
 20
155.86392787625397
 10
203.23536615450197
 20
156.6641521492598
 10
203.14892439616386
 20
157.46732184058754
 10
203.0865485220953
 20
158.27271800458777
 10
203.0482943671514
 20
159.0796197026165
 10
203.03419617398168
 20
159.88730464837286
 10
203.0442665623784
 20
160.6950498544432
 10
203.07849651798006
 20
161.50213227947276
 10
203.13685540034055
 20
162.30782947538557
 10
203.21929097035644
 20
163.11142023407325
 10
203.32572943702803
 20
163.9121852329741
 10
203.45607552351242
 20
164.70940767896414
 10
203.61021255240905
 20
165.5023739499839
 10
203.78800255020175
 20
166.2903742338271
 10
203.98928637076395
 20
167.07270316351844
 10
204.21388383781573
 20
167.84866044871268
 10
204.46159390620616
 20
168.61755150254936
 10
204.73219484187592
 20
169.37868806340214
 10
205.02544442033934
 20
170.13138881096594
 10
205.34108014350795
 20
170.87497997613124
 10
205.6788194746621
 20
171.6087959440985
 10
206.03836009135932
 20
172.33217985019334
 10
206.419380156054
 20
173.04448416784987
 10
206.82153860418555
 20
173.7450712882343
 10
207.24447544947736
 20
174.43331409099122
 10
207.68781210617334
 20
175.1085965056014
 10
208.15115172792326
 20
175.77031406284823
 10
208.63407956301427
 20
176.4178744358996
 10
209.13616332562952
 20
177.05069797052056
 10
209.65695358280283
 20
177.66821820394247
 10
210.1959841567218
 20
178.26988237192384
 10
210.7527725420203
 20
178.85515190354906
 10
211.3268203376859
 20
179.4235029033226
 10
211.91761369319647
 20
179.9744266201261
 10
212.52462376848598
 20
180.50742990261986
 10
213.14730720732786
 20
181.0220356406798
 10
213.78510662371235
 20
181.5177831924757
  0
LWPOLYLINE
  5
15D
330
17
100
AcDbEntity
  8
20_ВИДИМЫЕ
100
AcDbPolyline
 90
2
 70
0
 10
286.2148933762876
 20
168.4822168075243
 10
266.24900562510527
 20
153.4368412287231
  0
LWPOLYLINE
  5
15E
330
17
100
AcDbEntity
  8
20_ВИДИМЫЕ
100
AcDbPolyline
 90
2
 70
0
 10
266.24900562510527
 20
153.4368412287231
 10
246.28311787392298
 20
138.39146564992188
  0
LWPOLYLINE
  5
15F
330
17
100
AcDbEntity
  8
20_ВИДИМЫЕ
100
AcDbPolyline
 90
2
 70
0
 10
213.78510662371238
 20
181.5177831924757
 10
233.7509943748947
 20
196.5631587712769
  0
LWPOLYLINE
  5
160
330
17
100
AcDbEntity
  8
20_ВИДИМЫЕ
100
AcDbPolyline
 90
2
 70
0
 10
233.7509943748947
 20
196.5631587712769
 10
253.71688212607702
 20
211.60853435007812
  0
LWPOLYLINE
  5
161
330
17
100
AcDbEntity
  8
20_ВИДИМЫЕ
100
AcDbPolyline
 90
51
 70
0
 10
242.64952061007807
 20
153.1832529294963
 10
241.98217493020638
 20
152.7124923376868
 10
241.28658680245965
 20
152.28456366631502
 10
240.56550139539414
 20
151.9011557543448
 10
239.82176450367888
 20
151.56378173764233
 10
239.05831131704448
 20
151.27377307731996
 10
238.27815483642996
 20
151.03227430506766
 10
237.48437398304472
 20
150.84023850620918
 10
236.6801014472731
 20
150.69842355830983
 10
235.8685113253766
 20
150.60738914017986
 10
235.0528065927861
 20
150.56749452307798
 10
234.23620646342113
 20
150.5788971528318
 10
233.42193368492315
 20
150.64155202847098
 10
232.61320181994301
 20
150.7552118798257
 10
231.8132025636774
 20
150.91942814338893
 10
231.02509314770586
 20
151.13355273259162
 10
230.2519838798403
 20
151.39674059550444
 10
229.49692586916098
 20
151.70795304987155
 10
228.76289898468286
 20
152.06596188231498
 10
228.05280009517395
 20
152.46935419553182
 10
227.36943163653783
 20
152.9165379843542
 10
226.7154905518794
 20
153.40574841866643
 10
226.09355764790257
 20
153.93505480838334
 10
225.50608740964515
 20
154.50236822300175
 10
224.955398313748
 20
155.10544973565501
 10
224.44366367848664
 20
155.74191925913445
 10
223.97290308667715
 20
156.40926493900614
 10
223.54497441530538
 20
157.10485306675287
 10
223.16156650333517
 20
157.82593847381838
 10
222.82419248663268
 20
158.56967536553364
 10
222.5341838263103
 20
159.33312855216803
 10
222.292685054058
 20
160.11328503278256
 10
222.10064925519953
 20
160.9070658861678
 10
221.95883430730018
 20
161.71133842193944
 10
221.86779988917021
 20
162.52292854383592
 10
221.82790527206834
 20
163.3386332764264
 10
221.83930790182214
 20
164.1552334057914
 10
221.90196277746134
 20
164.96950618428937
 10
222.01562262881606
 20
165.7782380492695
 10
222.17983889237928
 20
166.57823730553514
 10
222.39396348158198
 20
167.36634672150666
 10
222.65715134449476
 20
168.1394559893722
 10
222.9683637988619
 20
168.89451400005154
 10
223.32637263130533
 20
169.62854088452966
 10
223.72976494452217
 20
170.33863977403857
 10
224.17694873334455
 20
171.0220082326747
 10
224.6661591676568
 20
171.6759493173331
 10
225.1954655573737
 20
172.29788222130995
 10
225.76277897199208
 20
172.88535245956737
 10
226.36586048464537
 20
173.43604155546453
 10
227.0023300081248
 20
173.9477761907259
  0
LWPOLYLINE
  5
162
330
17
100
AcDbEntity
  8
20_ВИДИМЫЕ
100
AcDbPolyline
 90
106
 70
0
 10
253.71688212607702
 20
211.60853435007812
 10
254.3692266031475
 20
212.08497995441058
 10
255.03553220424794
 20
212.5416971279373
 10
255.71520249562568
 20
212.9782770469334
 10
256.4076290803201
 20
213.39432891324404
 10
257.1121921427604
 20
213.7894803041017
 10
257.8282610035848
 20
214.16337750549502
 10
258.55519468418345
 20
214.51568582879077
 10
259.29234248046134
 20
214.8460899103254
 10
260.0390445453067
 20
215.15429399369836
 10
260.79463247924343
 20
215.44002219451397
 10
261.5584299287391
 20
215.70301874733556
 10
262.32975319163296
 20
215.94304823462988
 10
263.10791182914227
 20
216.1598957974979
 10
263.89220928389796
 20
216.35336732800255
 10
264.68194350345834
 20
216.5232896429216
 10
265.47640756874085
 20
216.6695106387701
 10
266.27489032681035
 20
216.79189942795364
 10
267.0766770274575
 20
216.89034645593037
 10
267.8810499629968
 20
216.96476359927732
 10
268.6872891107124
 20
217.01508424457268
 10
269.4946727773757
 20
217.04126334802376
 10
270.3024782452585
 20
217.04327747578753
 10
271.1099824190637
 20
217.0211248249468
 10
271.916462473193
 20
216.97482522512433
 10
272.72119649877396
 20
216.90442012073242
 10
273.523464149866
 20
216.80997253387469
 10
274.3225472882681
 20
216.6915670079327
 10
275.11773062634904
 20
216.54930953188813
 10
275.90830236732717
 20
216.38332744544846
 10
276.6935548424249
 20
216.1937693250605
 10
277.4727851443279
 20
215.98080485091438
 10
278.24529575638235
 20
215.7446246550569
 10
279.01039517696717
 20
215.48544015074998
 10
279.76739853848125
 20
215.20348334322702
 10
280.5156282203927
 20
214.8990066220171
 10
281.25441445580134
 20
214.57228253502183
 10
281.9830959309703
 20
214.22360354454833
 10
282.7010203772919
 20
213.8532817655157
 10
283.4075451551561
 20
213.46164868606996
 10
284.10203782919973
 20
213.04905487085728
 10
284.78387673442245
 20
212.61586964722102
 10
285.4524515326606
 20
212.16248077460398
 10
286.1071637589226
 20
211.68929409745093
 10
286.74742735709634
 20
211.19673318192304
 10
287.37266920454863
 20
210.68523893674865
 10
287.9823296251477
 20
210.15526921855044
 10
288.5758628902489
 20
209.60729842200158
 10
289.15273770719597
 20
209.04181705517826
 10
289.7124376948999
 20
208.45933130048866
 10
290.2544618460699
 20
207.860362561571
 10
290.77832497568255
 20
207.24544699656678
 10
291.2835581552887
 20
206.61513503818648
 10
291.76970913276716
 20
205.9699909009979
 10
292.2363427371524
 20
205.31059207637767
 10
292.68304126817077
 20
204.63752881557812
 10
293.1094048701394
 20
203.95140360137268
 10
293.5150518898907
 20
203.25283060875202
 10
293.89961921840404
 20
202.54243515515438
 10
294.26276261583735
 20
201.82085314072174
 10
294.6041570196683
 20
201.08873047908298
 10
294.9234968356694
 20
200.34672251917388
 10
295.22049621145624
 20
199.59549345861092
 10
295.4948892923639
 20
198.83571574914444
 10
295.7464304594231
 20
198.06806949472343
 10
295.9748945492223
 20
197.29324184271024
 10
296.18007705545966
 20
196.5119263687906
 10
296.36179431200355
 20
195.7248224561296
 10
296.51988365729886
 20
194.93263466932888
 10
296.65420357997107
 20
194.13607212374603
 10
296.764633845498
 20
193.3358478507402
 10
296.85107560383614
 20
192.53267815941246
 10
296.9134514779047
 20
191.72728199541223
 10
296.9517056328486
 20
190.9203802973835
 10
296.9658038260183
 20
190.11269535162714
 10
296.9557334376216
 20
189.3049501455568
 10
296.92150348201994
 20
188.49786772052724
 10
296.86314459965945
 20
187.69217052461443
 10
296.78070902964356
 20
186.88857976592675
 10
296.67427056297197
 20
186.0878147670259
 10
296.5439244764876
 20
185.29059232103586
 10
296.38978744759095
 20
184.4976260500161
 10
296.2119974497982
 20
183.7096257661729
 10
296.0107136292361
 20
182.92729683648156
 10
295.78611616218427
 20
182.15133955128732
 10
295.53840609379387
 20
181.38244849745064
 10
295.2678051581241
 20
180.62131193659786
 10
294.97455557966066
 20
179.86861118903406
 10
294.65891985649205
 20
179.12502002386876
 10
294.32118052533787
 20
178.3912040559015
 10
293.9616399086407
 20
177.66782014980666
 10
293.580619843946
 20
176.95551583215013
 10
293.17846139581445
 20
176.2549287117657
 10
292.75552455052264
 20
175.56668590900878
 10
292.31218789382666
 20
174.8914034943986
 10
291.84884827207674
 20
174.22968593715177
 10
291.36592043698573
 20
173.5821255641004
 10
290.8638366743705
 20
172.94930202947944
 10
290.3430464171972
 20
172.33178179605753
 10
289.8040158432782
 20
171.73011762807616
 10
289.2472274579797
 20
171.14484809645094
 10
288.6731796623141
 20
170.5764970966774
 10
288.0823863068035
 20
170.0255733798739
 10
287.475376231514
 20
169.49257009738014
 10
286.85269279267214
 20
168.9779643593202
 10
286.21489337628765
 20
168.4822168075243
  0
LWPOLYLINE
  5
163
330
17
100
AcDbEntity
  8
20_ВИДИМЫЕ
100
AcDbPolyline
 90
2
 70
0
 10
272.99766999187517
 20
176.0522238092741
 10
257.82359530097665
 20
164.6177383693852
  0
LWPOLYLINE
  5
164
330
17
100
AcDbEntity
  8
20_ВИДИМЫЕ
100
AcDbPolyline
 90
2
 70
0
 10
257.82359530097665
 20
164.6177383693852
 10
242.64952061007807
 20
153.1832529294963
  0
LWPOLYLINE
  5
165
330
17
100
AcDbEntity
  8
20_ВИДИМЫЕ
100
AcDbPolyline
 90
2
 70
0
 10
242.17640469902338
 20
185.3822616306148
 10
227.0023300081248
 20
173.9477761907259
  0
LWPOLYLINE
  5
166
330
17
100
AcDbEntity
  8
20_ВИДИМЫЕ
100
AcDbPolyline
 90
2
 70
0
 10
257.35047938992193
 20
196.8167470705037
 10
242.17640469902338
 20
185.3822616306148
  0
LWPOLYLINE
  5
167
330
17
100
AcDbEntity
  8
20_ВИДИМЫЕ
100
AcDbPolyline
 90
51
 70
0
 10
257.35047938992193
 20
196.8167470705037
 10
258.0178250697936
 20
197.2875076623132
 10
258.7134131975403
 20
197.71543633368498
 10
259.4344986046059
 20
198.0988442456552
 10
260.1782354963211
 20
198.43621826235767
 10
260.94168868295554
 20
198.72622692268004
 10
261.72184516357004
 20
198.96772569493234
 10
262.5156260169553
 20
199.15976149379082
 10
263.3198985527269
 20
199.30157644169017
 10
264.13148867462337
 20
199.39261085982014
 10
264.9471934072139
 20
199.43250547692202
 10
265.7637935365789
 20
199.4211028471682
 10
266.57806631507685
 20
199.35844797152902
 10
267.386798180057
 20
199.2447881201743
 10
268.1867974363226
 20
199.08057185661107
 10
268.9749068522941
 20
198.86644726740838
 10
269.7480161201597
 20
198.60325940449556
 10
270.503074130839
 20
198.29204695012845
 10
271.23710101531714
 20
197.93403811768502
 10
271.94719990482605
 20
197.53064580446818
 10
272.63056836346215
 20
197.0834620156458
 10
273.28450944812056
 20
196.59425158133357
 10
273.90644235209743
 20
196.06494519161666
 10
274.49391259035485
 20
195.49763177699825
 10
275.044601686252
 20
194.89455026434499
 10
275.55633632151336
 20
194.25808074086555
 10
276.02709691332285
 20
193.59073506099386
 10
276.4550255846946
 20
192.89514693324713
 10
276.83843349666483
 20
192.17406152618162
 10
277.1758075133673
 20
191.43032463446636
 10
277.4658161736897
 20
190.66687144783197
 10
277.707314945942
 20
189.88671496721744
 10
277.8993507448005
 20
189.0929341138322
 10
278.0411656926998
 20
188.28866157806056
 10
278.1322001108298
 20
187.47707145616408
 10
278.17209472793166
 20
186.6613667235736
 10
278.16069209817783
 20
185.8447665942086
 10
278.09803722253866
 20
185.03049381571063
 10
277.98437737118394
 20
184.2217619507305
 10
277.8201611076207
 20
183.42176269446486
 10
277.606036518418
 20
182.63365327849334
 10
277.34284865550524
 20
181.8605440106278
 10
277.0316362011381
 20
181.10548599994846
 10
276.67362736869467
 20
180.37145911547034
 10
276.2702350554778
 20
179.66136022596143
 10
275.82305126665545
 20
178.9779917673253
 10
275.3338408323432
 20
178.3240506826669
 10
274.80453444262633
 20
177.70211777869005
 10
274.2372210280079
 20
177.11464754043263
 10
273.6341395153546
 20
176.56395844453547
 10
272.99766999187517
 20
176.0522238092741
  0
TEXT
  5
168
330
17
100
AcDbEntity
  8
08_ТЕКСТ
100
AcDbText
 10
250.0
 20
245.0
 30
0.0
 40
5.0
  1
Б
  7
ГОСТ
 72
1
 11
250.0
 21
245.0
 31
0.0
100
AcDbText
 73
1
  0
LINE
  5
169
330
17
100
AcDbEntity
  8
07_ОСИ
100
AcDbLine
 10
210.0
 20
175.0
 30
0.0
 11
290.0
 21
175.0
 31
0.0
  0
LINE
  5
16A
330
17
100
AcDbEntity
  8
07_ОСИ
100
AcDbLine
 10
250.0
 20
135.0
 30
0.0
 11
250.0
 21
215.0
 31
0.0
  0
LINE
  5
16B
330
17
100
AcDbEntity
  8
07_ОСИ
100
AcDbLine
 10
200.48459837706784
 20
137.687468564573
 30
0.0
 11
299.51540162293213
 21
212.312531435427
 31
0.0
  0
DIMENSION
  5
16C
330
17
100
AcDbEntity
  8
09_РАЗМЕРЫ
100
AcDbDimension
280
0
  2
*D10
  3
ГОСТ
 10
181.38927743569852
 20
179.64421674822162
 30
0.0
 11
221.26333264448965
 21
213.1348456047582
 31
0.0
 70
32
 71
5
  1
<>
100
AcDbAlignedDimension
 13
208.47095347754077
 23
143.7056187960935
 33
0.0
 14
291.5290465224592
 24
206.2943812039065
 34
0.0
 50
37.0
100
AcDbRotatedDimension
1001
ACAD
1000
DSTYLE
1002
{
1070
340
1005
99
1002
}
  0
DIMENSION
  5
17B
330
17
100
AcDbEntity
  8
09_РАЗМЕРЫ
100
AcDbDimension
280
0
  2
*D11
  3
ГОСТ
 10
323.75076234851036
 20
196.76752289567065
 30
0.0
 11
305.305509070775
 21
216.67569035327938
 31
0.0
 70
32
 71
5
  1
<>
100
AcDbAlignedDimension
 13
266.2490056251053
 23
153.4368412287231
 33
0.0
 14
233.7509943748947
 24
196.5631587712769
 34
0.0
 50
127.0
100
AcDbRotatedDimension
1001
ACAD
1000
DSTYLE
1002
{
1070
340
1005
99
1002
}
  0
DIMENSION
  5
18A
330
17
100
AcDbEntity
  8
09_РАЗМЕРЫ
100
AcDbDimension
280
0
  2
*D12
  3
ГОСТ
 10
284.13965158742315
 20
186.42296763058332
 30
0.0
 11
286.7475416392402
 21
187.2955554356973
 31
0.0
 70
37
 71
5
  1
37°
100
AcDb3PointAngularDimension
 13
284.0
 23
175.0
 33
0.0
 14
277.15360734160794
 24
195.46171078716964
 34
0.0
 15
250.0
 25
175.0
 35
0.0
 16
0.0
 26
0.0
 36
0.0
1001
ACAD
1000
DSTYLE
1002
{
1070
275
1070
0
1070
179
1070
0
1070
340
1005
99
1002
}
  0
LINE
  5
19A
330
17
100
AcDbEntity
  8
09_РАЗМЕРЫ
100
AcDbLine
 10
270.4450690572107
 20
190.40646459269243
 30
0.0
 11
320.0
 21
127.0
 31
0.0
  0
TEXT
  5
19B
330
17
100
AcDbEntity
  8
08_ТЕКСТ
100
AcDbText
 10
321.0
 20
128.0
 30
0.0
 40
3.0
  1
верх головы 64 × 26
  7
ГОСТ
 11
321.0
 21
128.0
 31
0.0
100
AcDbText
 73
1
  0
LINE
  5
19C
330
17
100
AcDbEntity
  8
09_РАЗМЕРЫ
100
AcDbLine
 10
320.0
 20
127.0
 30
0.0
 11
361.3
 21
127.0
 31
0.0
  0
LWPOLYLINE
  5
19D
330
17
100
AcDbEntity
  8
20_ВИДИМЫЕ
100
AcDbPolyline
 90
2
 70
0
 43
1.0
 10
184.0
 20
175.0
 10
194.0
 20
175.0
  0
LINE
  5
19E
330
17
100
AcDbEntity
  8
20_ВИДИМЫЕ
100
AcDbLine
 10
182.0
 20
175.0
 30
0.0
 11
182.0
 21
185.0
 31
0.0
  0
HATCH
  5
19F
330
17
100
AcDbEntity
  8
20_ВИДИМЫЕ
 62
7
100
AcDbHatch
 10
0.0
 20
0.0
 30
0.0
210
0.0
220
0.0
230
1.0
  2
SOLID
 70
1
 71
0
 91
1
 92
3
 72
0
 73
1
 93
3
 10
180.8
 20
181.0
 10
182.0
 20
185.0
 10
183.2
 20
181.0
 97
0
 75
0
 76
1
 98
0
  0
TEXT
  5
1A0
330
17
100
AcDbEntity
  8
08_ТЕКСТ
100
AcDbText
 10
177.0
 20
188.0
 30
0.0
 40
5.0
  1
А
  7
ГОСТ
 72
1
 11
177.0
 21
188.0
 31
0.0
100
AcDbText
 73
2
  0
LWPOLYLINE
  5
1A1
330
17
100
AcDbEntity
  8
20_ВИДИМЫЕ
100
AcDbPolyline
 90
2
 70
0
 43
1.0
 10
316.0
 20
175.0
 10
306.0
 20
175.0
  0
LINE
  5
1A2
330
17
100
AcDbEntity
  8
20_ВИДИМЫЕ
100
AcDbLine
 10
318.0
 20
175.0
 30
0.0
 11
318.0
 21
185.0
 31
0.0
  0
HATCH
  5
1A3
330
17
100
AcDbEntity
  8
20_ВИДИМЫЕ
 62
7
100
AcDbHatch
 10
0.0
 20
0.0
 30
0.0
210
0.0
220
0.0
230
1.0
  2
SOLID
 70
1
 71
0
 91
1
 92
3
 72
0
 73
1
 93
3
 10
316.8
 20
181.0
 10
318.0
 20
185.0
 10
319.2
 20
181.0
 97
0
 75
0
 76
1
 98
0
  0
TEXT
  5
1A4
330
17
100
AcDbEntity
  8
08_ТЕКСТ
100
AcDbText
 10
323.0
 20
188.0
 30
0.0
 40
5.0
  1
А
  7
ГОСТ
 72
1
 11
323.0
 21
188.0
 31
0.0
100
AcDbText
 73
2
  0
TEXT
  5
1A5
330
17
100
AcDbEntity
  8
08_ТЕКСТ
100
AcDbText
 10
355.0
 20
281.0
 30
0.0
 40
3.5
  1
Ra 12,5
  7
ГОСТ
 11
355.0
 21
281.0
 31
0.0
100
AcDbText
 73
1
  0
LWPOLYLINE
  5
1A6
330
17
100
AcDbEntity
  8
09_РАЗМЕРЫ
100
AcDbPolyline
 90
3
 70
0
 10
377.0
 20
285.0
 10
379.5
 20
280.7
 10
384.5
 20
289.3
  0
TEXT
  5
1A7
330
17
100
AcDbEntity
  8
08_ТЕКСТ
100
AcDbText
 10
388.0
 20
281.0
 30
0.0
 40
3.5
  1
(
  7
ГОСТ
 11
388.0
 21
281.0
 31
0.0
100
AcDbText
 73
1
  0
LWPOLYLINE
  5
1A8
330
17
100
AcDbEntity
  8
09_РАЗМЕРЫ
100
AcDbPolyline
 90
3
 70
0
 10
391.0
 20
285.0
 10
393.5
 20
280.7
 10
398.5
 20
289.3
  0
TEXT
  5
1A9
330
17
100
AcDbEntity
  8
08_ТЕКСТ
100
AcDbText
 10
400.0
 20
281.0
 30
0.0
 40
3.5
  1
)
  7
ГОСТ
 11
400.0
 21
281.0
 31
0.0
100
AcDbText
 73
1
  0
LWPOLYLINE
  5
1AA
330
17
100
AcDbEntity
  8
00_РАМКА
100
AcDbPolyline
 90
4
 70
1
 10
0.0
 20
0.0
 10
420.0
 20
0.0
 10
420.0
 20
297.0
 10
0.0
 20
297.0
  0
LWPOLYLINE
  5
1AB
330
17
100
AcDbEntity
  8
00_РАМКА
100
AcDbPolyline
 90
4
 70
1
 10
20.0
 20
5.0
 10
415.0
 20
5.0
 10
415.0
 20
292.0
 10
20.0
 20
292.0
  0
LWPOLYLINE
  5
1AC
330
17
100
AcDbEntity
  8
00_РАМКА
100
AcDbPolyline
 90
4
 70
1
 10
230.0
 20
5.0
 10
415.0
 20
5.0
 10
415.0
 20
60.0
 10
230.0
 20
60.0
  0
LINE
  5
1AD
330
17
100
AcDbEntity
  8
00_РАМКА
100
AcDbLine
 10
230.0
 20
17.0
 30
0.0
 11
415.0
 21
17.0
 31
0.0
  0
LINE
  5
1AE
330
17
100
AcDbEntity
  8
00_РАМКА
100
AcDbLine
 10
230.0
 20
29.0
 30
0.0
 11
415.0
 21
29.0
 31
0.0
  0
LINE
  5
1AF
330
17
100
AcDbEntity
  8
00_РАМКА
100
AcDbLine
 10
230.0
 20
41.0
 30
0.0
 11
415.0
 21
41.0
 31
0.0
  0
LINE
  5
1B0
330
17
100
AcDbEntity
  8
00_РАМКА
100
AcDbLine
 10
350.0
 20
5.0
 30
0.0
 11
350.0
 21
41.0
 31
0.0
  0
TEXT
  5
1B1
330
17
100
AcDbEntity
  8
08_ТЕКСТ
100
AcDbText
 10
233.0
 20
50.5
 30
0.0
 40
5.0
  1
Элемент запирающий
  7
ГОСТ
 11
233.0
 21
50.5
 31
0.0
100
AcDbText
 73
2
  0
TEXT
  5
1B2
330
17
100
AcDbEntity
  8
08_ТЕКСТ
100
AcDbText
 10
233.0
 20
35.0
 30
0.0
 40
2.5
  1
Деталь поз. 3 узла ВГ-2026.46.00, поковка по кооперации
  7
ГОСТ
 11
233.0
 21
35.0
 31
0.0
100
AcDbText
 73
2
  0
TEXT
  5
1B3
330
17
100
AcDbEntity
  8
08_ТЕКСТ
100
AcDbText
 10
233.0
 20
23.0
 30
0.0
 40
4.5
  1
ВГ-2026.46.03
  7
ГОСТ
 11
233.0
 21
23.0
 31
0.0
100
AcDbText
 73
2
  0
TEXT
  5
1B4
330
17
100
AcDbEntity
  8
08_ТЕКСТ
100
AcDbText
 10
353.0
 20
23.0
 30
0.0
 40
3.5
  1
Масштаб 1 : 1
  7
ГОСТ
 11
353.0
 21
23.0
 31
0.0
100
AcDbText
 73
2
  0
TEXT
  5
1B5
330
17
100
AcDbEntity
  8
08_ТЕКСТ
100
AcDbText
 10
233.0
 20
11.0
 30
0.0
 40
2.5
  1
Сталь 40Х ГОСТ 4543-2016, масса 1,45 кг
  7
ГОСТ
 11
233.0
 21
11.0
 31
0.0
100
AcDbText
 73
2
  0
TEXT
  5
1B6
330
17
100
AcDbEntity
  8
08_ТЕКСТ
100
AcDbText
 10
353.0
 20
11.0
 30
0.0
 40
3.0
  1
Формат A3
  7
ГОСТ
 11
353.0
 21
11.0
 31
0.0
100
AcDbText
 73
2
  0
TEXT
  5
1B7
330
17
100
AcDbEntity
  8
08_ТЕКСТ
100
AcDbText
 10
233.0
 20
64.0
 30
0.0
 40
3.0
  1
УЖЦ ОСК 2026 · «Волжский Горизонт» · ПБ «Без границ»
  7
ГОСТ
 11
233.0
 21
64.0
 31
0.0
100
AcDbText
 73
2
  0
TEXT
  5
1B8
330
17
100
AcDbEntity
  8
08_ТЕКСТ
100
AcDbText
 10
233.0
 20
91.0
 30
0.0
 40
2.5
  1
1. Поковка группы IV ГОСТ 8479-70, КП 590, сталь 40Х ГОСТ 4543-2016, 235…277 НВ.
  7
ГОСТ
 11
233.0
 21
91.0
 31
0.0
100
AcDbText
 73
2
  0
TEXT
  5
1B9
330
17
100
AcDbEntity
  8
08_ТЕКСТ
100
AcDbText
 10
233.0
 20
86.0
 30
0.0
 40
2.5
  1
2. Резьба М14×1,5-6Н сквозная, ось перпендикулярна оси вала, под 37° к длинной оси головы.
  7
ГОСТ
 11
233.0
 21
86.0
 31
0.0
100
AcDbText
 73
2
  0
TEXT
  5
1BA
330
17
100
AcDbEntity
  8
08_ТЕКСТ
100
AcDbText
 10
233.0
 20
81.0
 30
0.0
 40
2.5
  1
3. Шероховатость вала ⌀30f9 - Ra 1,6. Неуказанные радиусы R2, неуказанные предельные отклонения
  7
ГОСТ
 11
233.0
 21
81.0
 31
0.0
100
AcDbText
 73
2
  0
TEXT
  5
1BB
330
17
100
AcDbEntity
  8
08_ТЕКСТ
100
AcDbText
 10
233.0
 20
76.0
 30
0.0
 40
2.5
  1
    размеров H14, h14, ±IT14/2.
  7
ГОСТ
 11
233.0
 21
76.0
 31
0.0
100
AcDbText
 73
2
  0
TEXT
  5
1BC
330
17
100
AcDbEntity
  8
08_ТЕКСТ
100
AcDbText
 10
233.0
 20
71.0
 30
0.0
 40
2.5
  1
4. Покрытие головки - грунтовка ГФ-021, эмаль ПФ-115. Вал ⌀30f9, проточку и резьбу не окрашивать.
  7
ГОСТ
 11
233.0
 21
71.0
 31
0.0
100
AcDbText
 73
2
  0
TEXT
  5
1BD
330
17
100
AcDbEntity
  8
08_ТЕКСТ
100
AcDbText
 10
233.0
 20
97.5
 30
0.0
 40
3.5
  1
Технические требования
  7
ГОСТ
 11
233.0
 21
97.5
 31
0.0
100
AcDbText
 73
2
  0
ENDSEC
  0
SECTION
  2
OBJECTS
  0
DICTIONARY
  5
A
330
0
100
AcDbDictionary
281
1
  3
ACAD_COLOR
350
B
  3
ACAD_GROUP
350
C
  3
ACAD_LAYOUT
350
D
  3
ACAD_MATERIAL
350
E
  3
ACAD_MLEADERSTYLE
350
F
  3
ACAD_MLINESTYLE
350
10
  3
ACAD_PLOTSETTINGS
350
11
  3
ACAD_PLOTSTYLENAME
350
12
  3
ACAD_SCALELIST
350
14
  3
ACAD_TABLESTYLE
350
15
  3
ACAD_VISUALSTYLE
350
16
  3
EZDXF_META
350
2D
  0
DICTIONARY
  5
B
330
A
100
AcDbDictionary
281
1
  0
DICTIONARY
  5
C
330
A
100
AcDbDictionary
281
1
  0
DICTIONARY
  5
D
330
A
100
AcDbDictionary
281
1
  3
Model
350
1A
  3
Layout1
350
1E
  0
DICTIONARY
  5
E
330
A
100
AcDbDictionary
281
1
  3
ByBlock
350
1F
  3
ByLayer
350
20
  3
Global
350
21
  0
DICTIONARY
  5
F
330
A
100
AcDbDictionary
281
1
  3
Standard
350
2C
  0
DICTIONARY
  5
10
330
A
100
AcDbDictionary
281
1
  3
Standard
350
22
  0
DICTIONARY
  5
11
330
A
100
AcDbDictionary
281
1
  0
ACDBDICTIONARYWDFLT
  5
12
330
A
100
AcDbDictionary
281
1
  3
Normal
350
13
100
AcDbDictionaryWithDefault
340
13
  0
ACDBPLACEHOLDER
  5
13
330
12
  0
DICTIONARY
  5
14
330
A
100
AcDbDictionary
281
1
  0
DICTIONARY
  5
15
330
A
100
AcDbDictionary
281
1
  0
DICTIONARY
  5
16
330
A
100
AcDbDictionary
281
1
  3
2dWireframe
350
5A
  3
Basic
350
5B
  3
Brighten
350
5C
  3
ColorChange
350
5D
  3
Conceptual
350
5E
  3
Dim
350
5F
  3
EdgeColorOff
350
60
  3
Facepattern
350
61
  3
Flat
350
62
  3
FlatWithEdges
350
63
  3
Gouraud
350
64
  3
GouraudWithEdges
350
65
  3
Hidden
350
66
  3
JitterOff
350
67
  3
Linepattern
350
68
  3
Modeling
350
69
  3
OverhangOff
350
6A
  3
Realistic
350
6B
  3
Shaded
350
6C
  3
Shaded with edges
350
6D
  3
Shades of Gray
350
6E
  3
Sketchy
350
6F
  3
Thicken
350
70
  3
Wireframe
350
71
  3
X-Ray
350
72
  0
LAYOUT
  5
1A
330
D
100
AcDbPlotSettings
  1

  4
A3
  6

 40
7.5
 41
20.0
 42
7.5
 43
20.0
 44
420.0
 45
297.0
 46
0.0
 47
0.0
 48
0.0
 49
0.0
140
0.0
141
0.0
142
1.0
143
1.0
 70
1024
 72
1
 73
0
 74
5
  7

 75
16
 76
0
 77
2
 78
300
147
1.0
148
0.0
149
0.0
100
AcDbLayout
  1
Model
 70
1
 71
0
 10
0.0
 20
0.0
 11
420.0
 21
297.0
 12
0.0
 22
0.0
 32
0.0
 14
1e+20
 24
1e+20
 34
1e+20
 15
-1e+20
 25
-1e+20
 35
-1e+20
146
0.0
 13
0.0
 23
0.0
 33
0.0
 16
1.0
 26
0.0
 36
0.0
 17
0.0
 27
1.0
 37
0.0
 76
1
330
17
  0
LAYOUT
  5
1E
330
D
100
AcDbPlotSettings
  1

  4
A3
  6

 40
7.5
 41
20.0
 42
7.5
 43
20.0
 44
420.0
 45
297.0
 46
0.0
 47
0.0
 48
0.0
 49
0.0
140
0.0
141
0.0
142
1.0
143
1.0
 70
0
 72
1
 73
0
 74
5
  7

 75
16
 76
0
 77
2
 78
300
147
1.0
148
0.0
149
0.0
100
AcDbLayout
  1
Layout1
 70
1
 71
1
 10
0.0
 20
0.0
 11
420.0
 21
297.0
 12
0.0
 22
0.0
 32
0.0
 14
1e+20
 24
1e+20
 34
1e+20
 15
-1e+20
 25
-1e+20
 35
-1e+20
146
0.0
 13
0.0
 23
0.0
 33
0.0
 16
1.0
 26
0.0
 36
0.0
 17
0.0
 27
1.0
 37
0.0
 76
1
330
1B
  0
MATERIAL
  5
1F
102
{ACAD_REACTORS
330
E
102
}
330
E
100
AcDbMaterial
  1
ByBlock
  2

 70
0
 40
1.0
 71
1
 41
1.0
 91
-1023410177
 42
1.0
 72
1
  3

 73
1
 74
1
 75
1
 44
0.5
 73
0
 45
1.0
 46
1.0
 77
1
  4

 78
1
 79
1
170
1
 48
1.0
171
1
  6

172
1
173
1
174
1
140
1.0
141
1.0
175
1
  7

176
1
177
1
178
1
143
1.0
179
1
  8

270
1
271
1
272
1
145
1.0
146
1.0
273
1
  9

274
1
275
1
276
1
 42
1.0
 72
1
  3

 73
1
 74
1
 75
1
 94
63
  0
MATERIAL
  5
20
102
{ACAD_REACTORS
330
E
102
}
330
E
100
AcDbMaterial
  1
ByLayer
  2

 70
0
 40
1.0
 71
1
 41
1.0
 91
-1023410177
 42
1.0
 72
1
  3

 73
1
 74
1
 75
1
 44
0.5
 73
0
 45
1.0
 46
1.0
 77
1
  4

 78
1
 79
1
170
1
 48
1.0
171
1
  6

172
1
173
1
174
1
140
1.0
141
1.0
175
1
  7

176
1
177
1
178
1
143
1.0
179
1
  8

270
1
271
1
272
1
145
1.0
146
1.0
273
1
  9

274
1
275
1
276
1
 42
1.0
 72
1
  3

 73
1
 74
1
 75
1
 94
63
  0
MATERIAL
  5
21
102
{ACAD_REACTORS
330
E
102
}
330
E
100
AcDbMaterial
  1
Global
  2

 70
0
 40
1.0
 71
1
 41
1.0
 91
-1023410177
 42
1.0
 72
1
  3

 73
1
 74
1
 75
1
 44
0.5
 73
0
 45
1.0
 46
1.0
 77
1
  4

 78
1
 79
1
170
1
 48
1.0
171
1
  6

172
1
173
1
174
1
140
1.0
141
1.0
175
1
  7

176
1
177
1
178
1
143
1.0
179
1
  8

270
1
271
1
272
1
145
1.0
146
1.0
273
1
  9

274
1
275
1
276
1
 42
1.0
 72
1
  3

 73
1
 74
1
 75
1
 94
63
  0
MLINESTYLE
  5
22
102
{ACAD_REACTORS
330
10
102
}
330
10
100
AcDbMlineStyle
  2
Standard
 70
0
  3

 62
256
 51
90.0
 52
90.0
 71
2
 49
0.5
 62
256
  6
BYLAYER
 49
-0.5
 62
256
  6
BYLAYER
  0
MLEADERSTYLE
  5
2C
102
{ACAD_REACTORS
330
F
102
}
330
F
100
AcDbMLeaderStyle
179
2
170
2
171
1
172
0
 90
2
 40
0.0
 41
0.0
173
1
 91
-1056964608
 92
-2
290
1
 42
2.0
291
1
 43
8.0
  3
Standard
 44
4.0
300

342
29
174
1
175
1
176
0
178
1
 93
-1056964608
 45
4.0
292
0
297
0
 46
4.0
 94
-1056964608
 47
1.0
 49
1.0
140
1.0
294
1
141
0.0
177
0
142
1.0
295
0
296
0
143
3.75
271
0
272
9
273
9
  0
DICTIONARY
  5
2D
330
A
100
AcDbDictionary
280
1
281
1
  3
CREATED_BY_EZDXF
350
2E
  3
WRITTEN_BY_EZDXF
350
1C0
  0
DICTIONARYVAR
  5
2E
330
2D
100
DictionaryVariables
280
0
  1
1.4.4 @ 2026-09-24T00:11:41.359948+00:00
  0
VISUALSTYLE
  5
5A
102
{ACAD_REACTORS
330
16
102
}
330
16
100
AcDbVisualStyle
  2
2dWireframe
 70
4
177
3
291
0
 70
58
 90
2
176
1
 90
2
176
1
 90
0
176
1
 90
0
176
1
 40
0.6
176
1
 40
30.0
176
1
 62
7
420
16777215
176
1
 90
1
176
1
 90
4
176
1
 62
7
176
1
 62
257
176
1
 90
1
176
1
 90
1
176
1
 40
1.0
176
1
 90
8
176
1
 62
7
176
1
 40
1.0
176
1
 90
1
176
1
 90
6
176
1
 90
2
176
1
 62
7
176
1
 90
5
176
1
 90
0
176
1
 90
0
176
1
290
0
176
1
 90
1
176
1
 40
0.0
176
1
 90
0
176
1
290
1
176
1
290
1
176
1
290
0
176
1
290
0
176
1
290
0
176
1
290
0
176
1
290
0
176
1
290
0
176
1
290
0
176
1
 90
50
176
1
 40
0.0
176
1
 40
1.0
176
1
 90
0
176
1
 62
18
420
0
176
1
 90
50
176
1
 90
3
176
1
 62
5
420
255
176
1
290
0
176
1
 90
50
176
1
 90
50
176
1
 90
50
176
1
290
0
176
1
 90
50
176
1
 62
256
176
0
 40
1.0
176
0
 90
2
176
1
  1
strokes_ogs.tif
176
1
290
0
176
1
 40
1.0
176
1
 40
1.0
176
1
  0
VISUALSTYLE
  5
5B
102
{ACAD_REACTORS
330
16
102
}
330
16
100
AcDbVisualStyle
  2
Basic
 70
7
177
3
291
1
 70
58
 90
2
176
1
 90
2
176
1
 90
0
176
1
 90
1
176
1
 40
0.6
176
1
 40
30.0
176
1
 62
7
420
16777215
176
1
 90
1
176
1
 90
4
176
1
 62
7
176
1
 62
257
176
1
 90
1
176
1
 90
1
176
1
 40
1.0
176
1
 90
8
176
1
 62
7
176
1
 40
1.0
176
1
 90
1
176
1
 90
6
176
1
 90
2
176
1
 62
7
176
1
 90
5
176
1
 90
0
176
1
 90
0
176
1
290
0
176
1
 90
1
176
1
 40
0.0
176
1
 90
0
176
1
290
0
176
1
290
1
176
1
290
1
176
1
290
0
176
1
290
0
176
1
290
0
176
1
290
0
176
1
290
0
176
1
290
0
176
1
 90
50
176
1
 40
0.0
176
1
 40
1.0
176
1
 90
0
176
1
 62
18
420
0
176
1
 90
50
176
1
 90
3
176
1
 62
5
420
255
176
1
290
0
176
1
 90
50
176
1
 90
50
176
1
 90
50
176
1
290
0
176
1
 90
50
176
1
 62
256
176
0
 40
1.0
176
0
 90
2
176
1
  1
strokes_ogs.tif
176
1
290
0
176
1
 40
1.0
176
1
 40
1.0
176
1
  0
VISUALSTYLE
  5
5C
102
{ACAD_REACTORS
330
16
102
}
330
16
100
AcDbVisualStyle
  2
Brighten
 70
12
177
3
291
1
 70
58
 90
2
176
1
 90
2
176
1
 90
0
176
1
 90
2
176
1
 40
0.6
176
1
 40
30.0
176
1
 62
7
420
16777215
176
1
 90
1
176
1
 90
4
176
1
 62
7
176
1
 62
257
176
1
 90
1
176
1
 90
1
176
1
 40
1.0
176
1
 90
8
176
1
 62
7
176
1
 40
1.0
176
1
 90
1
176
1
 90
6
176
1
 90
2
176
1
 62
7
176
1
 90
5
176
1
 90
0
176
1
 90
0
176
1
290
0
176
1
 90
1
176
1
 40
0.0
176
1
 90
0
176
1
290
0
176
1
290
1
176
1
290
1
176
1
290
0
176
1
290
0
176
1
290
0
176
1
290
0
176
1
290
0
176
1
290
0
176
1
 90
50
176
1
 40
0.0
176
1
 40
1.0
176
1
 90
0
176
1
 62
18
420
0
176
1
 90
50
176
1
 90
3
176
1
 62
5
420
255
176
1
290
0
176
1
 90
50
176
1
 90
50
176
1
 90
50
176
1
290
0
176
1
 90
50
176
1
 62
256
176
0
 40
1.0
176
0
 90
2
176
1
  1
strokes_ogs.tif
176
1
290
0
176
1
 40
1.0
176
1
 40
1.0
176
1
  0
VISUALSTYLE
  5
5D
102
{ACAD_REACTORS
330
16
102
}
330
16
100
AcDbVisualStyle
  2
ColorChange
 70
16
177
3
291
1
 70
58
 90
2
176
1
 90
2
176
1
 90
0
176
1
 90
2
176
1
 40
0.6
176
1
 40
30.0
176
1
 62
7
420
16777215
176
1
 90
1
176
1
 90
4
176
1
 62
7
176
1
 62
257
176
1
 90
1
176
1
 90
1
176
1
 40
1.0
176
1
 90
8
176
1
 62
7
176
1
 40
1.0
176
1
 90
1
176
1
 90
6
176
1
 90
2
176
1
 62
7
176
1
 90
5
176
1
 90
0
176
1
 90
0
176
1
290
0
176
1
 90
1
176
1
 40
0.0
176
1
 90
0
176
1
290
0
176
1
290
1
176
1
290
1
176
1
290
0
176
1
290
0
176
1
290
0
176
1
290
0
176
1
290
0
176
1
290
0
176
1
 90
50
176
1
 40
0.0
176
1
 40
1.0
176
1
 90
0
176
1
 62
18
420
0
176
1
 90
50
176
1
 90
3
176
1
 62
5
420
255
176
1
290
0
176
1
 90
50
176
1
 90
50
176
1
 90
50
176
1
290
0
176
1
 90
50
176
1
 62
256
176
0
 40
1.0
176
0
 90
2
176
1
  1
strokes_ogs.tif
176
1
290
0
176
1
 40
1.0
176
1
 40
1.0
176
1
  0
VISUALSTYLE
  5
5E
102
{ACAD_REACTORS
330
16
102
}
330
16
100
AcDbVisualStyle
  2
Conceptual
 70
9
177
3
291
0
 70
58
 90
2
176
1
 90
2
176
1
 90
0
176
1
 90
3
176
1
 40
0.6
176
1
 40
30.0
176
1
 62
7
420
16777215
176
1
 90
1
176
1
 90
4
176
1
 62
7
176
1
 62
257
176
1
 90
1
176
1
 90
1
176
1
 40
1.0
176
1
 90
8
176
1
 62
7
176
1
 40
1.0
176
1
 90
1
176
1
 90
6
176
1
 90
2
176
1
 62
7
176
1
 90
5
176
1
 90
0
176
1
 90
0
176
1
290
0
176
1
 90
1
176
1
 40
0.0
176
1
 90
0
176
1
290
0
176
1
290
1
176
1
290
1
176
1
290
0
176
1
290
0
176
1
290
0
176
1
290
0
176
1
290
0
176
1
290
0
176
1
 90
50
176
1
 40
0.0
176
1
 40
1.0
176
1
 90
0
176
1
 62
18
420
0
176
1
 90
50
176
1
 90
3
176
1
 62
5
420
255
176
1
290
0
176
1
 90
50
176
1
 90
50
176
1
 90
50
176
1
290
0
176
1
 90
50
176
1
 62
256
176
0
 40
1.0
176
0
 90
2
176
1
  1
strokes_ogs.tif
176
1
290
0
176
1
 40
1.0
176
1
 40
1.0
176
1
  0
VISUALSTYLE
  5
5F
102
{ACAD_REACTORS
330
16
102
}
330
16
100
AcDbVisualStyle
  2
Dim
 70
11
177
3
291
1
 70
58
 90
2
176
1
 90
2
176
1
 90
0
176
1
 90
2
176
1
 40
0.6
176
1
 40
30.0
176
1
 62
7
420
16777215
176
1
 90
1
176
1
 90
4
176
1
 62
7
176
1
 62
257
176
1
 90
1
176
1
 90
1
176
1
 40
1.0
176
1
 90
8
176
1
 62
7
176
1
 40
1.0
176
1
 90
1
176
1
 90
6
176
1
 90
2
176
1
 62
7
176
1
 90
5
176
1
 90
0
176
1
 90
0
176
1
290
0
176
1
 90
1
176
1
 40
0.0
176
1
 90
0
176
1
290
0
176
1
290
1
176
1
290
1
176
1
290
0
176
1
290
0
176
1
290
0
176
1
290
0
176
1
290
0
176
1
290
0
176
1
 90
50
176
1
 40
0.0
176
1
 40
1.0
176
1
 90
0
176
1
 62
18
420
0
176
1
 90
50
176
1
 90
3
176
1
 62
5
420
255
176
1
290
0
176
1
 90
50
176
1
 90
50
176
1
 90
50
176
1
290
0
176
1
 90
50
176
1
 62
256
176
0
 40
1.0
176
0
 90
2
176
1
  1
strokes_ogs.tif
176
1
290
0
176
1
 40
1.0
176
1
 40
1.0
176
1
  0
VISUALSTYLE
  5
60
102
{ACAD_REACTORS
330
16
102
}
330
16
100
AcDbVisualStyle
  2
EdgeColorOff
 70
22
177
3
291
1
 70
58
 90
2
176
1
 90
2
176
1
 90
0
176
1
 90
2
176
1
 40
0.6
176
1
 40
30.0
176
1
 62
7
420
16777215
176
1
 90
1
176
1
 90
4
176
1
 62
7
176
1
 62
257
176
1
 90
1
176
1
 90
1
176
1
 40
1.0
176
1
 90
8
176
1
 62
7
176
1
 40
1.0
176
1
 90
1
176
1
 90
6
176
1
 90
2
176
1
 62
7
176
1
 90
5
176
1
 90
0
176
1
 90
0
176
1
290
0
176
1
 90
1
176
1
 40
0.0
176
1
 90
0
176
1
290
0
176
1
290
1
176
1
290
1
176
1
290
0
176
1
290
0
176
1
290
0
176
1
290
0
176
1
290
0
176
1
290
0
176
1
 90
50
176
1
 40
0.0
176
1
 40
1.0
176
1
 90
0
176
1
 62
18
420
0
176
1
 90
50
176
1
 90
3
176
1
 62
5
420
255
176
1
290
0
176
1
 90
50
176
1
 90
50
176
1
 90
50
176
1
290
0
176
1
 90
50
176
1
 62
256
176
0
 40
1.0
176
0
 90
2
176
1
  1
strokes_ogs.tif
176
1
290
0
176
1
 40
1.0
176
1
 40
1.0
176
1
  0
VISUALSTYLE
  5
61
102
{ACAD_REACTORS
330
16
102
}
330
16
100
AcDbVisualStyle
  2
Facepattern
 70
15
177
3
291
1
 70
58
 90
2
176
1
 90
2
176
1
 90
0
176
1
 90
2
176
1
 40
0.6
176
1
 40
30.0
176
1
 62
7
420
16777215
176
1
 90
1
176
1
 90
4
176
1
 62
7
176
1
 62
257
176
1
 90
1
176
1
 90
1
176
1
 40
1.0
176
1
 90
8
176
1
 62
7
176
1
 40
1.0
176
1
 90
1
176
1
 90
6
176
1
 90
2
176
1
 62
7
176
1
 90
5
176
1
 90
0
176
1
 90
0
176
1
290
0
176
1
 90
1
176
1
 40
0.0
176
1
 90
0
176
1
290
0
176
1
290
1
176
1
290
1
176
1
290
0
176
1
290
0
176
1
290
0
176
1
290
0
176
1
290
0
176
1
290
0
176
1
 90
50
176
1
 40
0.0
176
1
 40
1.0
176
1
 90
0
176
1
 62
18
420
0
176
1
 90
50
176
1
 90
3
176
1
 62
5
420
255
176
1
290
0
176
1
 90
50
176
1
 90
50
176
1
 90
50
176
1
290
0
176
1
 90
50
176
1
 62
256
176
0
 40
1.0
176
0
 90
2
176
1
  1
strokes_ogs.tif
176
1
290
0
176
1
 40
1.0
176
1
 40
1.0
176
1
  0
VISUALSTYLE
  5
62
102
{ACAD_REACTORS
330
16
102
}
330
16
100
AcDbVisualStyle
  2
Flat
 70
0
177
3
291
1
 70
58
 90
2
176
1
 90
2
176
1
 90
0
176
1
 90
2
176
1
 40
0.6
176
1
 40
30.0
176
1
 62
7
420
16777215
176
1
 90
1
176
1
 90
4
176
1
 62
7
176
1
 62
257
176
1
 90
1
176
1
 90
1
176
1
 40
1.0
176
1
 90
8
176
1
 62
7
176
1
 40
1.0
176
1
 90
1
176
1
 90
6
176
1
 90
2
176
1
 62
7
176
1
 90
5
176
1
 90
0
176
1
 90
0
176
1
290
0
176
1
 90
1
176
1
 40
0.0
176
1
 90
0
176
1
290
0
176
1
290
1
176
1
290
1
176
1
290
0
176
1
290
0
176
1
290
0
176
1
290
0
176
1
290
0
176
1
290
0
176
1
 90
50
176
1
 40
0.0
176
1
 40
1.0
176
1
 90
0
176
1
 62
18
420
0
176
1
 90
50
176
1
 90
3
176
1
 62
5
420
255
176
1
290
0
176
1
 90
50
176
1
 90
50
176
1
 90
50
176
1
290
0
176
1
 90
50
176
1
 62
256
176
0
 40
1.0
176
0
 90
2
176
1
  1
strokes_ogs.tif
176
1
290
0
176
1
 40
1.0
176
1
 40
1.0
176
1
  0
VISUALSTYLE
  5
63
102
{ACAD_REACTORS
330
16
102
}
330
16
100
AcDbVisualStyle
  2
FlatWithEdges
 70
1
177
3
291
1
 70
58
 90
2
176
1
 90
2
176
1
 90
0
176
1
 90
2
176
1
 40
0.6
176
1
 40
30.0
176
1
 62
7
420
16777215
176
1
 90
1
176
1
 90
4
176
1
 62
7
176
1
 62
257
176
1
 90
1
176
1
 90
1
176
1
 40
1.0
176
1
 90
8
176
1
 62
7
176
1
 40
1.0
176
1
 90
1
176
1
 90
6
176
1
 90
2
176
1
 62
7
176
1
 90
5
176
1
 90
0
176
1
 90
0
176
1
290
0
176
1
 90
1
176
1
 40
0.0
176
1
 90
0
176
1
290
0
176
1
290
1
176
1
290
1
176
1
290
0
176
1
290
0
176
1
290
0
176
1
290
0
176
1
290
0
176
1
290
0
176
1
 90
50
176
1
 40
0.0
176
1
 40
1.0
176
1
 90
0
176
1
 62
18
420
0
176
1
 90
50
176
1
 90
3
176
1
 62
5
420
255
176
1
290
0
176
1
 90
50
176
1
 90
50
176
1
 90
50
176
1
290
0
176
1
 90
50
176
1
 62
256
176
0
 40
1.0
176
0
 90
2
176
1
  1
strokes_ogs.tif
176
1
290
0
176
1
 40
1.0
176
1
 40
1.0
176
1
  0
VISUALSTYLE
  5
64
102
{ACAD_REACTORS
330
16
102
}
330
16
100
AcDbVisualStyle
  2
Gouraud
 70
2
177
3
291
1
 70
58
 90
2
176
1
 90
2
176
1
 90
0
176
1
 90
2
176
1
 40
0.6
176
1
 40
30.0
176
1
 62
7
420
16777215
176
1
 90
1
176
1
 90
4
176
1
 62
7
176
1
 62
257
176
1
 90
1
176
1
 90
1
176
1
 40
1.0
176
1
 90
8
176
1
 62
7
176
1
 40
1.0
176
1
 90
1
176
1
 90
6
176
1
 90
2
176
1
 62
7
176
1
 90
5
176
1
 90
0
176
1
 90
0
176
1
290
0
176
1
 90
1
176
1
 40
0.0
176
1
 90
0
176
1
290
0
176
1
290
1
176
1
290
1
176
1
290
0
176
1
290
0
176
1
290
0
176
1
290
0
176
1
290
0
176
1
290
0
176
1
 90
50
176
1
 40
0.0
176
1
 40
1.0
176
1
 90
0
176
1
 62
18
420
0
176
1
 90
50
176
1
 90
3
176
1
 62
5
420
255
176
1
290
0
176
1
 90
50
176
1
 90
50
176
1
 90
50
176
1
290
0
176
1
 90
50
176
1
 62
256
176
0
 40
1.0
176
0
 90
2
176
1
  1
strokes_ogs.tif
176
1
290
0
176
1
 40
1.0
176
1
 40
1.0
176
1
  0
VISUALSTYLE
  5
65
102
{ACAD_REACTORS
330
16
102
}
330
16
100
AcDbVisualStyle
  2
GouraudWithEdges
 70
3
177
3
291
1
 70
58
 90
2
176
1
 90
2
176
1
 90
0
176
1
 90
2
176
1
 40
0.6
176
1
 40
30.0
176
1
 62
7
420
16777215
176
1
 90
1
176
1
 90
4
176
1
 62
7
176
1
 62
257
176
1
 90
1
176
1
 90
1
176
1
 40
1.0
176
1
 90
8
176
1
 62
7
176
1
 40
1.0
176
1
 90
1
176
1
 90
6
176
1
 90
2
176
1
 62
7
176
1
 90
5
176
1
 90
0
176
1
 90
0
176
1
290
0
176
1
 90
1
176
1
 40
0.0
176
1
 90
0
176
1
290
0
176
1
290
1
176
1
290
1
176
1
290
0
176
1
290
0
176
1
290
0
176
1
290
0
176
1
290
0
176
1
290
0
176
1
 90
50
176
1
 40
0.0
176
1
 40
1.0
176
1
 90
0
176
1
 62
18
420
0
176
1
 90
50
176
1
 90
3
176
1
 62
5
420
255
176
1
290
0
176
1
 90
50
176
1
 90
50
176
1
 90
50
176
1
290
0
176
1
 90
50
176
1
 62
256
176
0
 40
1.0
176
0
 90
2
176
1
  1
strokes_ogs.tif
176
1
290
0
176
1
 40
1.0
176
1
 40
1.0
176
1
  0
VISUALSTYLE
  5
66
102
{ACAD_REACTORS
330
16
102
}
330
16
100
AcDbVisualStyle
  2
Hidden
 70
6
177
3
291
0
 70
58
 90
2
176
1
 90
2
176
1
 90
0
176
1
 90
1
176
1
 40
0.6
176
1
 40
30.0
176
1
 62
7
420
16777215
176
1
 90
1
176
1
 90
4
176
1
 62
7
176
1
 62
257
176
1
 90
1
176
1
 90
1
176
1
 40
1.0
176
1
 90
8
176
1
 62
7
176
1
 40
1.0
176
1
 90
1
176
1
 90
6
176
1
 90
2
176
1
 62
7
176
1
 90
5
176
1
 90
0
176
1
 90
0
176
1
290
0
176
1
 90
1
176
1
 40
0.0
176
1
 90
0
176
1
290
0
176
1
290
1
176
1
290
1
176
1
290
0
176
1
290
0
176
1
290
0
176
1
290
0
176
1
290
0
176
1
290
0
176
1
 90
50
176
1
 40
0.0
176
1
 40
1.0
176
1
 90
0
176
1
 62
18
420
0
176
1
 90
50
176
1
 90
3
176
1
 62
5
420
255
176
1
290
0
176
1
 90
50
176
1
 90
50
176
1
 90
50
176
1
290
0
176
1
 90
50
176
1
 62
256
176
0
 40
1.0
176
0
 90
2
176
1
  1
strokes_ogs.tif
176
1
290
0
176
1
 40
1.0
176
1
 40
1.0
176
1
  0
VISUALSTYLE
  5
67
102
{ACAD_REACTORS
330
16
102
}
330
16
100
AcDbVisualStyle
  2
JitterOff
 70
20
177
3
291
1
 70
58
 90
2
176
1
 90
2
176
1
 90
0
176
1
 90
2
176
1
 40
0.6
176
1
 40
30.0
176
1
 62
7
420
16777215
176
1
 90
1
176
1
 90
4
176
1
 62
7
176
1
 62
257
176
1
 90
1
176
1
 90
1
176
1
 40
1.0
176
1
 90
8
176
1
 62
7
176
1
 40
1.0
176
1
 90
1
176
1
 90
6
176
1
 90
2
176
1
 62
7
176
1
 90
5
176
1
 90
0
176
1
 90
0
176
1
290
0
176
1
 90
1
176
1
 40
0.0
176
1
 90
0
176
1
290
0
176
1
290
1
176
1
290
1
176
1
290
0
176
1
290
0
176
1
290
0
176
1
290
0
176
1
290
0
176
1
290
0
176
1
 90
50
176
1
 40
0.0
176
1
 40
1.0
176
1
 90
0
176
1
 62
18
420
0
176
1
 90
50
176
1
 90
3
176
1
 62
5
420
255
176
1
290
0
176
1
 90
50
176
1
 90
50
176
1
 90
50
176
1
290
0
176
1
 90
50
176
1
 62
256
176
0
 40
1.0
176
0
 90
2
176
1
  1
strokes_ogs.tif
176
1
290
0
176
1
 40
1.0
176
1
 40
1.0
176
1
  0
VISUALSTYLE
  5
68
102
{ACAD_REACTORS
330
16
102
}
330
16
100
AcDbVisualStyle
  2
Linepattern
 70
14
177
3
291
1
 70
58
 90
2
176
1
 90
2
176
1
 90
0
176
1
 90
2
176
1
 40
0.6
176
1
 40
30.0
176
1
 62
7
420
16777215
176
1
 90
1
176
1
 90
4
176
1
 62
7
176
1
 62
257
176
1
 90
1
176
1
 90
1
176
1
 40
1.0
176
1
 90
8
176
1
 62
7
176
1
 40
1.0
176
1
 90
1
176
1
 90
6
176
1
 90
2
176
1
 62
7
176
1
 90
5
176
1
 90
0
176
1
 90
0
176
1
290
0
176
1
 90
1
176
1
 40
0.0
176
1
 90
0
176
1
290
0
176
1
290
1
176
1
290
1
176
1
290
0
176
1
290
0
176
1
290
0
176
1
290
0
176
1
290
0
176
1
290
0
176
1
 90
50
176
1
 40
0.0
176
1
 40
1.0
176
1
 90
0
176
1
 62
18
420
0
176
1
 90
50
176
1
 90
3
176
1
 62
5
420
255
176
1
290
0
176
1
 90
50
176
1
 90
50
176
1
 90
50
176
1
290
0
176
1
 90
50
176
1
 62
256
176
0
 40
1.0
176
0
 90
2
176
1
  1
strokes_ogs.tif
176
1
290
0
176
1
 40
1.0
176
1
 40
1.0
176
1
  0
VISUALSTYLE
  5
69
102
{ACAD_REACTORS
330
16
102
}
330
16
100
AcDbVisualStyle
  2
Modeling
 70
10
177
3
291
0
 70
58
 90
2
176
1
 90
2
176
1
 90
0
176
1
 90
2
176
1
 40
0.6
176
1
 40
30.0
176
1
 62
7
420
16777215
176
1
 90
1
176
1
 90
4
176
1
 62
7
176
1
 62
257
176
1
 90
1
176
1
 90
1
176
1
 40
1.0
176
1
 90
8
176
1
 62
7
176
1
 40
1.0
176
1
 90
1
176
1
 90
6
176
1
 90
2
176
1
 62
7
176
1
 90
5
176
1
 90
0
176
1
 90
0
176
1
290
0
176
1
 90
1
176
1
 40
0.0
176
1
 90
0
176
1
290
0
176
1
290
1
176
1
290
1
176
1
290
0
176
1
290
0
176
1
290
0
176
1
290
0
176
1
290
0
176
1
290
0
176
1
 90
50
176
1
 40
0.0
176
1
 40
1.0
176
1
 90
0
176
1
 62
18
420
0
176
1
 90
50
176
1
 90
3
176
1
 62
5
420
255
176
1
290
0
176
1
 90
50
176
1
 90
50
176
1
 90
50
176
1
290
0
176
1
 90
50
176
1
 62
256
176
0
 40
1.0
176
0
 90
2
176
1
  1
strokes_ogs.tif
176
1
290
0
176
1
 40
1.0
176
1
 40
1.0
176
1
  0
VISUALSTYLE
  5
6A
102
{ACAD_REACTORS
330
16
102
}
330
16
100
AcDbVisualStyle
  2
OverhangOff
 70
21
177
3
291
1
 70
58
 90
2
176
1
 90
2
176
1
 90
0
176
1
 90
2
176
1
 40
0.6
176
1
 40
30.0
176
1
 62
7
420
16777215
176
1
 90
1
176
1
 90
4
176
1
 62
7
176
1
 62
257
176
1
 90
1
176
1
 90
1
176
1
 40
1.0
176
1
 90
8
176
1
 62
7
176
1
 40
1.0
176
1
 90
1
176
1
 90
6
176
1
 90
2
176
1
 62
7
176
1
 90
5
176
1
 90
0
176
1
 90
0
176
1
290
0
176
1
 90
1
176
1
 40
0.0
176
1
 90
0
176
1
290
0
176
1
290
1
176
1
290
1
176
1
290
0
176
1
290
0
176
1
290
0
176
1
290
0
176
1
290
0
176
1
290
0
176
1
 90
50
176
1
 40
0.0
176
1
 40
1.0
176
1
 90
0
176
1
 62
18
420
0
176
1
 90
50
176
1
 90
3
176
1
 62
5
420
255
176
1
290
0
176
1
 90
50
176
1
 90
50
176
1
 90
50
176
1
290
0
176
1
 90
50
176
1
 62
256
176
0
 40
1.0
176
0
 90
2
176
1
  1
strokes_ogs.tif
176
1
290
0
176
1
 40
1.0
176
1
 40
1.0
176
1
  0
VISUALSTYLE
  5
6B
102
{ACAD_REACTORS
330
16
102
}
330
16
100
AcDbVisualStyle
  2
Realistic
 70
8
177
3
291
0
 70
58
 90
2
176
1
 90
2
176
1
 90
0
176
1
 90
2
176
1
 40
0.6
176
1
 40
30.0
176
1
 62
7
420
16777215
176
1
 90
1
176
1
 90
4
176
1
 62
7
176
1
 62
257
176
1
 90
1
176
1
 90
1
176
1
 40
1.0
176
1
 90
8
176
1
 62
7
176
1
 40
1.0
176
1
 90
1
176
1
 90
6
176
1
 90
2
176
1
 62
7
176
1
 90
5
176
1
 90
0
176
1
 90
0
176
1
290
0
176
1
 90
1
176
1
 40
0.0
176
1
 90
0
176
1
290
0
176
1
290
1
176
1
290
1
176
1
290
0
176
1
290
0
176
1
290
0
176
1
290
0
176
1
290
0
176
1
290
0
176
1
 90
50
176
1
 40
0.0
176
1
 40
1.0
176
1
 90
0
176
1
 62
18
420
0
176
1
 90
50
176
1
 90
3
176
1
 62
5
420
255
176
1
290
0
176
1
 90
50
176
1
 90
50
176
1
 90
50
176
1
290
0
176
1
 90
50
176
1
 62
256
176
0
 40
1.0
176
0
 90
2
176
1
  1
strokes_ogs.tif
176
1
290
0
176
1
 40
1.0
176
1
 40
1.0
176
1
  0
VISUALSTYLE
  5
6C
102
{ACAD_REACTORS
330
16
102
}
330
16
100
AcDbVisualStyle
  2
Shaded
 70
27
177
3
291
0
 70
58
 90
2
176
1
 90
2
176
1
 90
0
176
1
 90
2
176
1
 40
0.6
176
1
 40
30.0
176
1
 62
7
420
16777215
176
1
 90
1
176
1
 90
4
176
1
 62
7
176
1
 62
257
176
1
 90
1
176
1
 90
1
176
1
 40
1.0
176
1
 90
8
176
1
 62
7
176
1
 40
1.0
176
1
 90
1
176
1
 90
6
176
1
 90
2
176
1
 62
7
176
1
 90
5
176
1
 90
0
176
1
 90
0
176
1
290
0
176
1
 90
1
176
1
 40
0.0
176
1
 90
0
176
1
290
0
176
1
290
1
176
1
290
1
176
1
290
0
176
1
290
0
176
1
290
0
176
1
290
0
176
1
290
0
176
1
290
0
176
1
 90
50
176
1
 40
0.0
176
1
 40
1.0
176
1
 90
0
176
1
 62
18
420
0
176
1
 90
50
176
1
 90
3
176
1
 62
5
420
255
176
1
290
0
176
1
 90
50
176
1
 90
50
176
1
 90
50
176
1
290
0
176
1
 90
50
176
1
 62
256
176
0
 40
1.0
176
0
 90
2
176
1
  1
strokes_ogs.tif
176
1
290
0
176
1
 40
1.0
176
1
 40
1.0
176
1
  0
VISUALSTYLE
  5
6D
102
{ACAD_REACTORS
330
16
102
}
330
16
100
AcDbVisualStyle
  2
Shaded with edges
 70
26
177
3
291
0
 70
58
 90
2
176
1
 90
2
176
1
 90
0
176
1
 90
2
176
1
 40
0.6
176
1
 40
30.0
176
1
 62
7
420
16777215
176
1
 90
1
176
1
 90
4
176
1
 62
7
176
1
 62
257
176
1
 90
1
176
1
 90
1
176
1
 40
1.0
176
1
 90
8
176
1
 62
7
176
1
 40
1.0
176
1
 90
1
176
1
 90
6
176
1
 90
2
176
1
 62
7
176
1
 90
5
176
1
 90
0
176
1
 90
0
176
1
290
0
176
1
 90
1
176
1
 40
0.0
176
1
 90
0
176
1
290
0
176
1
290
1
176
1
290
1
176
1
290
0
176
1
290
0
176
1
290
0
176
1
290
0
176
1
290
0
176
1
290
0
176
1
 90
50
176
1
 40
0.0
176
1
 40
1.0
176
1
 90
0
176
1
 62
18
420
0
176
1
 90
50
176
1
 90
3
176
1
 62
5
420
255
176
1
290
0
176
1
 90
50
176
1
 90
50
176
1
 90
50
176
1
290
0
176
1
 90
50
176
1
 62
256
176
0
 40
1.0
176
0
 90
2
176
1
  1
strokes_ogs.tif
176
1
290
0
176
1
 40
1.0
176
1
 40
1.0
176
1
  0
VISUALSTYLE
  5
6E
102
{ACAD_REACTORS
330
16
102
}
330
16
100
AcDbVisualStyle
  2
Shades of Gray
 70
23
177
3
291
0
 70
58
 90
2
176
1
 90
2
176
1
 90
0
176
1
 90
2
176
1
 40
0.6
176
1
 40
30.0
176
1
 62
7
420
16777215
176
1
 90
1
176
1
 90
4
176
1
 62
7
176
1
 62
257
176
1
 90
1
176
1
 90
1
176
1
 40
1.0
176
1
 90
8
176
1
 62
7
176
1
 40
1.0
176
1
 90
1
176
1
 90
6
176
1
 90
2
176
1
 62
7
176
1
 90
5
176
1
 90
0
176
1
 90
0
176
1
290
0
176
1
 90
1
176
1
 40
0.0
176
1
 90
0
176
1
290
0
176
1
290
1
176
1
290
1
176
1
290
0
176
1
290
0
176
1
290
0
176
1
290
0
176
1
290
0
176
1
290
0
176
1
 90
50
176
1
 40
0.0
176
1
 40
1.0
176
1
 90
0
176
1
 62
18
420
0
176
1
 90
50
176
1
 90
3
176
1
 62
5
420
255
176
1
290
0
176
1
 90
50
176
1
 90
50
176
1
 90
50
176
1
290
0
176
1
 90
50
176
1
 62
256
176
0
 40
1.0
176
0
 90
2
176
1
  1
strokes_ogs.tif
176
1
290
0
176
1
 40
1.0
176
1
 40
1.0
176
1
  0
VISUALSTYLE
  5
6F
102
{ACAD_REACTORS
330
16
102
}
330
16
100
AcDbVisualStyle
  2
Sketchy
 70
24
177
3
291
0
 70
58
 90
2
176
1
 90
2
176
1
 90
0
176
1
 90
1
176
1
 40
0.6
176
1
 40
30.0
176
1
 62
7
420
16777215
176
1
 90
1
176
1
 90
4
176
1
 62
7
176
1
 62
257
176
1
 90
1
176
1
 90
1
176
1
 40
1.0
176
1
 90
8
176
1
 62
7
176
1
 40
1.0
176
1
 90
1
176
1
 90
6
176
1
 90
2
176
1
 62
7
176
1
 90
5
176
1
 90
0
176
1
 90
0
176
1
290
0
176
1
 90
1
176
1
 40
0.0
176
1
 90
0
176
1
290
0
176
1
290
1
176
1
290
1
176
1
290
0
176
1
290
0
176
1
290
0
176
1
290
0
176
1
290
0
176
1
290
0
176
1
 90
50
176
1
 40
0.0
176
1
 40
1.0
176
1
 90
0
176
1
 62
18
420
0
176
1
 90
50
176
1
 90
3
176
1
 62
5
420
255
176
1
290
0
176
1
 90
50
176
1
 90
50
176
1
 90
50
176
1
290
0
176
1
 90
50
176
1
 62
256
176
0
 40
1.0
176
0
 90
2
176
1
  1
strokes_ogs.tif
176
1
290
0
176
1
 40
1.0
176
1
 40
1.0
176
1
  0
VISUALSTYLE
  5
70
102
{ACAD_REACTORS
330
16
102
}
330
16
100
AcDbVisualStyle
  2
Thicken
 70
13
177
3
291
1
 70
58
 90
2
176
1
 90
2
176
1
 90
0
176
1
 90
2
176
1
 40
0.6
176
1
 40
30.0
176
1
 62
7
420
16777215
176
1
 90
1
176
1
 90
4
176
1
 62
7
176
1
 62
257
176
1
 90
1
176
1
 90
1
176
1
 40
1.0
176
1
 90
8
176
1
 62
7
176
1
 40
1.0
176
1
 90
1
176
1
 90
6
176
1
 90
2
176
1
 62
7
176
1
 90
5
176
1
 90
0
176
1
 90
0
176
1
290
0
176
1
 90
1
176
1
 40
0.0
176
1
 90
0
176
1
290
0
176
1
290
1
176
1
290
1
176
1
290
0
176
1
290
0
176
1
290
0
176
1
290
0
176
1
290
0
176
1
290
0
176
1
 90
50
176
1
 40
0.0
176
1
 40
1.0
176
1
 90
0
176
1
 62
18
420
0
176
1
 90
50
176
1
 90
3
176
1
 62
5
420
255
176
1
290
0
176
1
 90
50
176
1
 90
50
176
1
 90
50
176
1
290
0
176
1
 90
50
176
1
 62
256
176
0
 40
1.0
176
0
 90
2
176
1
  1
strokes_ogs.tif
176
1
290
0
176
1
 40
1.0
176
1
 40
1.0
176
1
  0
VISUALSTYLE
  5
71
102
{ACAD_REACTORS
330
16
102
}
330
16
100
AcDbVisualStyle
  2
Wireframe
 70
5
177
3
291
0
 70
58
 90
2
176
1
 90
2
176
1
 90
0
176
1
 90
0
176
1
 40
0.6
176
1
 40
30.0
176
1
 62
7
420
16777215
176
1
 90
1
176
1
 90
4
176
1
 62
7
176
1
 62
257
176
1
 90
1
176
1
 90
1
176
1
 40
1.0
176
1
 90
8
176
1
 62
7
176
1
 40
1.0
176
1
 90
1
176
1
 90
6
176
1
 90
2
176
1
 62
7
176
1
 90
5
176
1
 90
0
176
1
 90
0
176
1
290
0
176
1
 90
1
176
1
 40
0.0
176
1
 90
0
176
1
290
0
176
1
290
1
176
1
290
1
176
1
290
0
176
1
290
0
176
1
290
0
176
1
290
0
176
1
290
0
176
1
290
0
176
1
 90
50
176
1
 40
0.0
176
1
 40
1.0
176
1
 90
0
176
1
 62
18
420
0
176
1
 90
50
176
1
 90
3
176
1
 62
5
420
255
176
1
290
0
176
1
 90
50
176
1
 90
50
176
1
 90
50
176
1
290
0
176
1
 90
50
176
1
 62
256
176
0
 40
1.0
176
0
 90
2
176
1
  1
strokes_ogs.tif
176
1
290
0
176
1
 40
1.0
176
1
 40
1.0
176
1
  0
VISUALSTYLE
  5
72
102
{ACAD_REACTORS
330
16
102
}
330
16
100
AcDbVisualStyle
  2
X-Ray
 70
25
177
3
291
0
 70
58
 90
2
176
1
 90
2
176
1
 90
0
176
1
 90
2
176
1
 40
0.5
176
1
 40
30.0
176
1
 62
7
420
16777215
176
1
 90
1
176
1
 90
4
176
1
 62
7
176
1
 62
257
176
1
 90
1
176
1
 90
1
176
1
 40
1.0
176
1
 90
8
176
1
 62
7
176
1
 40
1.0
176
1
 90
1
176
1
 90
6
176
1
 90
2
176
1
 62
7
176
1
 90
5
176
1
 90
0
176
1
 90
0
176
1
290
0
176
1
 90
1
176
1
 40
0.0
176
1
 90
0
176
1
290
0
176
1
290
1
176
1
290
1
176
1
290
0
176
1
290
0
176
1
290
0
176
1
290
0
176
1
290
0
176
1
290
0
176
1
 90
50
176
1
 40
0.0
176
1
 40
1.0
176
1
 90
0
176
1
 62
18
420
0
176
1
 90
50
176
1
 90
3
176
1
 62
5
420
255
176
1
290
0
176
1
 90
50
176
1
 90
50
176
1
 90
50
176
1
290
0
176
1
 90
50
176
1
 62
256
176
0
 40
1.0
176
0
 90
2
176
1
  1
strokes_ogs.tif
176
1
290
0
176
1
 40
1.0
176
1
 40
1.0
176
1
  0
DICTIONARYVAR
  5
1C0
330
2D
100
DictionaryVariables
280
0
  1
1.4.4 @ 2026-09-24T00:11:43.477707+00:00
  0
ENDSEC
  0
EOF
