  0
SECTION
  2
HEADER
  9
$ACADVER
  1
AC1027
  9
$ACADMAINTVER
 70
105
  9
$DWGCODEPAGE
  3
ANSI_1252
  9
$LASTSAVEDBY
  1
ezdxf
  9
$REQUIREDVERSIONS
160
0
  9
$INSBASE
 10
0.0
 20
0.0
 30
0.0
  9
$EXTMIN
 10
1e+20
 20
1e+20
 30
1e+20
  9
$EXTMAX
 10
-1e+20
 20
-1e+20
 30
-1e+20
  9
$LIMMIN
 10
0.0
 20
0.0
  9
$LIMMAX
 10
420.0
 20
297.0
  9
$ORTHOMODE
 70
0
  9
$REGENMODE
 70
1
  9
$FILLMODE
 70
1
  9
$QTEXTMODE
 70
0
  9
$MIRRTEXT
 70
1
  9
$LTSCALE
 40
0.7
  9
$ATTMODE
 70
1
  9
$TEXTSIZE
 40
2.5
  9
$TRACEWID
 40
1.0
  9
$TEXTSTYLE
  7
OpenSans
  9
$CLAYER
  8
0
  9
$CELTYPE
  6
ByLayer
  9
$CECOLOR
 62
256
  9
$CELTSCALE
 40
1.0
  9
$DISPSILH
 70
0
  9
$DIMSCALE
 40
1.0
  9
$DIMASZ
 40
0.175
  9
$DIMEXO
 40
0.125
  9
$DIMDLI
 40
3.75
  9
$DIMRND
 40
0.0
  9
$DIMDLE
 40
0.0
  9
$DIMEXE
 40
0.375
  9
$DIMTP
 40
0.0
  9
$DIMTM
 40
0.0
  9
$DIMTXT
 40
0.25
  9
$DIMCEN
 40
2.5
  9
$DIMTSZ
 40
0.0
  9
$DIMTOL
 70
0
  9
$DIMLIM
 70
0
  9
$DIMTIH
 70
0
  9
$DIMTOH
 70
0
  9
$DIMSE1
 70
0
  9
$DIMSE2
 70
0
  9
$DIMTAD
 70
1
  9
$DIMZIN
 70
12
  9
$DIMBLK
  1
ARCHTICK
  9
$DIMASO
 70
1
  9
$DIMSHO
 70
1
  9
$DIMPOST
  1

  9
$DIMAPOST
  1

  9
$DIMALT
 70
0
  9
$DIMALTD
 70
3
  9
$DIMALTF
 40
0.03937007874
  9
$DIMLFAC
 40
100.0
  9
$DIMTOFL
 70
1
  9
$DIMTVP
 40
0.0
  9
$DIMTIX
 70
0
  9
$DIMSOXD
 70
0
  9
$DIMSAH
 70
0
  9
$DIMBLK1
  1

  9
$DIMBLK2
  1

  9
$DIMSTYLE
  2
EZDXF
  9
$DIMCLRD
 70
0
  9
$DIMCLRE
 70
0
  9
$DIMCLRT
 70
0
  9
$DIMTFAC
 40
0.5
  9
$DIMGAP
 40
0.1
  9
$DIMJUST
 70
0
  9
$DIMSD1
 70
0
  9
$DIMSD2
 70
0
  9
$DIMTOLJ
 70
0
  9
$DIMTZIN
 70
8
  9
$DIMALTZ
 70
0
  9
$DIMALTTZ
 70
0
  9
$DIMUPT
 70
1
  9
$DIMDEC
 70
2
  9
$DIMTDEC
 70
2
  9
$DIMALTU
 70
2
  9
$DIMALTTD
 70
3
  9
$DIMTXSTY
  7
OpenSansCondensed-Light
  9
$DIMAUNIT
 70
0
  9
$DIMADEC
 70
2
  9
$DIMALTRND
 40
0.0
  9
$DIMAZIN
 70
3
  9
$DIMDSEP
 70
46
  9
$DIMATFIT
 70
3
  9
$DIMFRAC
 70
0
  9
$DIMLDRBLK
  1

  9
$DIMLUNIT
 70
2
  9
$DIMLWD
 70
-2
  9
$DIMLWE
 70
-2
  9
$DIMTMOVE
 70
2
  9
$DIMFXL
 40
1.0
  9
$DIMFXLON
 70
0
  9
$DIMJOGANG
 40
0.785398163397
  9
$DIMTFILL
 70
0
  9
$DIMTFILLCLR
 70
0
  9
$DIMARCSYM
 70
0
  9
$DIMLTYPE
  6

  9
$DIMLTEX1
  6

  9
$DIMLTEX2
  6

  9
$DIMTXTDIRECTION
 70
0
  9
$LUNITS
 70
2
  9
$LUPREC
 70
4
  9
$SKETCHINC
 40
1.0
  9
$FILLETRAD
 40
10.0
  9
$AUNITS
 70
0
  9
$AUPREC
 70
2
  9
$MENU
  1
.
  9
$ELEVATION
 40
0.0
  9
$PELEVATION
 40
0.0
  9
$THICKNESS
 40
0.0
  9
$LIMCHECK
 70
0
  9
$CHAMFERA
 40
0.0
  9
$CHAMFERB
 40
0.0
  9
$CHAMFERC
 40
0.0
  9
$CHAMFERD
 40
0.0
  9
$SKPOLY
 70
0
  9
$TDCREATE
 40
2461307.5736458334
  9
$TDUCREATE
 40
2458532.153996898
  9
$TDUPDATE
 40
2461307.573726852
  9
$TDUUPDATE
 40
2458532.1544311
  9
$TDINDWG
 40
0.0
  9
$TDUSRTIMER
 40
0.0
  9
$USRTIMER
 70
1
  9
$ANGBASE
 50
0.0
  9
$ANGDIR
 70
0
  9
$PDMODE
 70
0
  9
$PDSIZE
 40
0.0
  9
$PLINEWID
 40
0.0
  9
$SPLFRAME
 70
0
  9
$SPLINETYPE
 70
6
  9
$SPLINESEGS
 70
8
  9
$HANDSEED
  5
2DB
  9
$SURFTAB1
 70
6
  9
$SURFTAB2
 70
6
  9
$SURFTYPE
 70
6
  9
$SURFU
 70
6
  9
$SURFV
 70
6
  9
$UCSBASE
  2

  9
$UCSNAME
  2

  9
$UCSORG
 10
0.0
 20
0.0
 30
0.0
  9
$UCSXDIR
 10
1.0
 20
0.0
 30
0.0
  9
$UCSYDIR
 10
0.0
 20
1.0
 30
0.0
  9
$UCSORTHOREF
  2

  9
$UCSORTHOVIEW
 70
0
  9
$UCSORGTOP
 10
0.0
 20
0.0
 30
0.0
  9
$UCSORGBOTTOM
 10
0.0
 20
0.0
 30
0.0
  9
$UCSORGLEFT
 10
0.0
 20
0.0
 30
0.0
  9
$UCSORGRIGHT
 10
0.0
 20
0.0
 30
0.0
  9
$UCSORGFRONT
 10
0.0
 20
0.0
 30
0.0
  9
$UCSORGBACK
 10
0.0
 20
0.0
 30
0.0
  9
$PUCSBASE
  2

  9
$PUCSNAME
  2

  9
$PUCSORG
 10
0.0
 20
0.0
 30
0.0
  9
$PUCSXDIR
 10
1.0
 20
0.0
 30
0.0
  9
$PUCSYDIR
 10
0.0
 20
1.0
 30
0.0
  9
$PUCSORTHOREF
  2

  9
$PUCSORTHOVIEW
 70
0
  9
$PUCSORGTOP
 10
0.0
 20
0.0
 30
0.0
  9
$PUCSORGBOTTOM
 10
0.0
 20
0.0
 30
0.0
  9
$PUCSORGLEFT
 10
0.0
 20
0.0
 30
0.0
  9
$PUCSORGRIGHT
 10
0.0
 20
0.0
 30
0.0
  9
$PUCSORGFRONT
 10
0.0
 20
0.0
 30
0.0
  9
$PUCSORGBACK
 10
0.0
 20
0.0
 30
0.0
  9
$USERI1
 70
0
  9
$USERI2
 70
0
  9
$USERI3
 70
0
  9
$USERI4
 70
0
  9
$USERI5
 70
0
  9
$USERR1
 40
0.0
  9
$USERR2
 40
0.0
  9
$USERR3
 40
0.0
  9
$USERR4
 40
0.0
  9
$USERR5
 40
0.0
  9
$WORLDVIEW
 70
1
  9
$SHADEDGE
 70
3
  9
$SHADEDIF
 70
70
  9
$TILEMODE
 70
1
  9
$MAXACTVP
 70
64
  9
$PINSBASE
 10
0.0
 20
0.0
 30
0.0
  9
$PLIMCHECK
 70
0
  9
$PEXTMIN
 10
1e+20
 20
1e+20
 30
1e+20
  9
$PEXTMAX
 10
-1e+20
 20
-1e+20
 30
-1e+20
  9
$PLIMMIN
 10
0.0
 20
0.0
  9
$PLIMMAX
 10
420.0
 20
297.0
  9
$UNITMODE
 70
0
  9
$VISRETAIN
 70
1
  9
$PLINEGEN
 70
0
  9
$PSLTSCALE
 70
1
  9
$TREEDEPTH
 70
3020
  9
$CMLSTYLE
  2
Standard
  9
$CMLJUST
 70
0
  9
$CMLSCALE
 40
20.0
  9
$PROXYGRAPHICS
 70
1
  9
$MEASUREMENT
 70
1
  9
$CELWEIGHT
370
-1
  9
$ENDCAPS
280
0
  9
$JOINSTYLE
280
0
  9
$LWDISPLAY
290
0
  9
$INSUNITS
 70
4
  9
$HYPERLINKBASE
  1

  9
$STYLESHEET
  1

  9
$XEDIT
290
1
  9
$CEPSNTYPE
380
0
  9
$PSTYLEMODE
290
1
  9
$FINGERPRINTGUID
  2
{FBD60658-0F08-41C6-8DA5-BFFB95E8AF1C}
  9
$VERSIONGUID
  2
{C1BD90EA-A575-44E5-8DB8-89510B1D9A97}
  9
$EXTNAMES
290
1
  9
$PSVPSCALE
 40
0.0
  9
$OLESTARTUP
290
0
  9
$SORTENTS
280
127
  9
$INDEXCTL
280
0
  9
$HIDETEXT
280
1
  9
$XCLIPFRAME
280
1
  9
$HALOGAP
280
0
  9
$OBSCOLOR
 70
257
  9
$OBSLTYPE
280
0
  9
$INTERSECTIONDISPLAY
280
0
  9
$INTERSECTIONCOLOR
 70
257
  9
$DIMASSOC
280
2
  9
$PROJECTNAME
  1

  9
$CAMERADISPLAY
290
0
  9
$LENSLENGTH
 40
50.0
  9
$CAMERAHEIGHT
 40
0.0
  9
$STEPSPERSEC
 40
24.0
  9
$STEPSIZE
 40
100.0
  9
$3DDWFPREC
 40
2.0
  9
$PSOLWIDTH
 40
0.005
  9
$PSOLHEIGHT
 40
0.08
  9
$LOFTANG1
 40
1.570796326795
  9
$LOFTANG2
 40
1.570796326795
  9
$LOFTMAG1
 40
0.0
  9
$LOFTMAG2
 40
0.0
  9
$LOFTPARAM
 70
7
  9
$LOFTNORMALS
280
1
  9
$LATITUDE
 40
37.795
  9
$LONGITUDE
 40
-122.394
  9
$NORTHDIRECTION
 40
0.0
  9
$TIMEZONE
 70
-8000
  9
$LIGHTGLYPHDISPLAY
280
1
  9
$TILEMODELIGHTSYNCH
280
1
  9
$CMATERIAL
347
20
  9
$SOLIDHIST
280
0
  9
$SHOWHIST
280
1
  9
$DWFFRAME
280
2
  9
$DGNFRAME
280
2
  9
$REALWORLDSCALE
290
1
  9
$INTERFERECOLOR
 62
256
  9
$CSHADOW
280
0
  9
$SHADOWPLANELOCATION
 40
0.0
  0
ENDSEC
  0
SECTION
  2
CLASSES
  0
CLASS
  1
ACDBDICTIONARYWDFLT
  2
AcDbDictionaryWithDefault
  3
ObjectDBX Classes
 90
0
 91
0
280
0
281
0
  0
CLASS
  1
SUN
  2
AcDbSun
  3
SCENEOE
 90
1153
 91
0
280
0
281
0
  0
CLASS
  1
VISUALSTYLE
  2
AcDbVisualStyle
  3
ObjectDBX Classes
 90
4095
 91
0
280
0
281
0
  0
CLASS
  1
MATERIAL
  2
AcDbMaterial
  3
ObjectDBX Classes
 90
1153
 91
0
280
0
281
0
  0
CLASS
  1
SCALE
  2
AcDbScale
  3
ObjectDBX Classes
 90
1153
 91
0
280
0
281
0
  0
CLASS
  1
TABLESTYLE
  2
AcDbTableStyle
  3
ObjectDBX Classes
 90
4095
 91
0
280
0
281
0
  0
CLASS
  1
MLEADERSTYLE
  2
AcDbMLeaderStyle
  3
ACDB_MLEADERSTYLE_CLASS
 90
4095
 91
0
280
0
281
0
  0
CLASS
  1
DICTIONARYVAR
  2
AcDbDictionaryVar
  3
ObjectDBX Classes
 90
0
 91
0
280
0
281
0
  0
CLASS
  1
CELLSTYLEMAP
  2
AcDbCellStyleMap
  3
ObjectDBX Classes
 90
1152
 91
0
280
0
281
0
  0
CLASS
  1
MENTALRAYRENDERSETTINGS
  2
AcDbMentalRayRenderSettings
  3
SCENEOE
 90
1024
 91
0
280
0
281
0
  0
CLASS
  1
ACDBDETAILVIEWSTYLE
  2
AcDbDetailViewStyle
  3
ObjectDBX Classes
 90
1025
 91
0
280
0
281
0
  0
CLASS
  1
ACDBSECTIONVIEWSTYLE
  2
AcDbSectionViewStyle
  3
ObjectDBX Classes
 90
1025
 91
0
280
0
281
0
  0
CLASS
  1
RASTERVARIABLES
  2
AcDbRasterVariables
  3
ISM
 90
0
 91
0
280
0
281
0
  0
CLASS
  1
ACDBPLACEHOLDER
  2
AcDbPlaceHolder
  3
ObjectDBX Classes
 90
0
 91
0
280
0
281
0
  0
CLASS
  1
LAYOUT
  2
AcDbLayout
  3
ObjectDBX Classes
 90
0
 91
0
280
0
281
0
  0
ENDSEC
  0
SECTION
  2
TABLES
  0
TABLE
  2
VPORT
  5
8
330
0
100
AcDbSymbolTable
 70
1
  0
VPORT
  5
23
330
8
100
AcDbSymbolTableRecord
100
AcDbViewportTableRecord
  2
*Active
 70
0
 10
0.0
 20
0.0
 11
1.0
 21
1.0
 12
0.0
 22
0.0
 13
0.0
 23
0.0
 14
0.5
 24
0.5
 15
0.5
 25
0.5
 16
0.0
 26
0.0
 36
1.0
 17
0.0
 27
0.0
 37
0.0
 40
1000.0
 41
1.34
 42
50.0
 43
0.0
 44
0.0
 50
0.0
 51
0.0
 71
0
 72
1000
 73
1
 74
3
 75
0
 76
0
 77
0
 78
0
281
0
 65
0
146
0.0
  0
ENDTAB
  0
TABLE
  2
LTYPE
  5
2
330
0
100
AcDbSymbolTable
 70
21
  0
LTYPE
  5
24
330
2
100
AcDbSymbolTableRecord
100
AcDbLinetypeTableRecord
  2
ByBlock
 70
0
  3

 72
65
 73
0
 40
0.0
  0
LTYPE
  5
25
330
2
100
AcDbSymbolTableRecord
100
AcDbLinetypeTableRecord
  2
ByLayer
 70
0
  3

 72
65
 73
0
 40
0.0
  0
LTYPE
  5
26
330
2
100
AcDbSymbolTableRecord
100
AcDbLinetypeTableRecord
  2
Continuous
 70
0
  3

 72
65
 73
0
 40
0.0
  0
LTYPE
  5
2F
330
2
100
AcDbSymbolTableRecord
100
AcDbLinetypeTableRecord
  2
CENTER
 70
0
  3
Center ____ _ ____ _ ____ _ ____ _ ____ _ ____
 72
65
 73
4
 40
5.08
 49
3.175
 74
0
 49
-0.635
 74
0
 49
0.635
 74
0
 49
-0.635
 74
0
  0
LTYPE
  5
30
330
2
100
AcDbSymbolTableRecord
100
AcDbLinetypeTableRecord
  2
CENTERX2
 70
0
  3
Center (2x) ________  __  ________  __  ________
 72
65
 73
4
 40
8.89
 49
6.35
 74
0
 49
-0.635
 74
0
 49
1.27
 74
0
 49
-0.635
 74
0
  0
LTYPE
  5
31
330
2
100
AcDbSymbolTableRecord
100
AcDbLinetypeTableRecord
  2
CENTER2
 70
0
  3
Center (.5x) ____ _ ____ _ ____ _ ____ _ ____
 72
65
 73
4
 40
2.54
 49
1.587
 74
0
 49
-0.318
 74
0
 49
0.318
 74
0
 49
-0.318
 74
0
  0
LTYPE
  5
32
330
2
100
AcDbSymbolTableRecord
100
AcDbLinetypeTableRecord
  2
DASHED
 70
0
  3
Dashed __ __ __ __ __ __ __ __ __ __ __ __ __ _
 72
65
 73
2
 40
1.524
 49
1.27
 74
0
 49
-0.254
 74
0
  0
LTYPE
  5
33
330
2
100
AcDbSymbolTableRecord
100
AcDbLinetypeTableRecord
  2
DASHEDX2
 70
0
  3
Dashed (2x) ____  ____  ____  ____  ____  ____
 72
65
 73
2
 40
3.048
 49
2.54
 74
0
 49
-0.508
 74
0
  0
LTYPE
  5
34
330
2
100
AcDbSymbolTableRecord
100
AcDbLinetypeTableRecord
  2
DASHED2
 70
0
  3
Dashed (.5x) _ _ _ _ _ _ _ _ _ _ _ _ _ _
 72
65
 73
2
 40
0.762
 49
0.635
 74
0
 49
-0.127
 74
0
  0
LTYPE
  5
35
330
2
100
AcDbSymbolTableRecord
100
AcDbLinetypeTableRecord
  2
PHANTOM
 70
0
  3
Phantom ______  __  __  ______  __  __  ______
 72
65
 73
6
 40
6.35
 49
3.175
 74
0
 49
-0.635
 74
0
 49
0.635
 74
0
 49
-0.635
 74
0
 49
0.635
 74
0
 49
-0.635
 74
0
  0
LTYPE
  5
36
330
2
100
AcDbSymbolTableRecord
100
AcDbLinetypeTableRecord
  2
PHANTOMX2
 70
0
  3
Phantom (2x)____________    ____    ____    ____________
 72
65
 73
6
 40
10.795
 49
6.35
 74
0
 49
-0.635
 74
0
 49
1.27
 74
0
 49
-0.635
 74
0
 49
1.27
 74
0
 49
-0.635
 74
0
  0
LTYPE
  5
37
330
2
100
AcDbSymbolTableRecord
100
AcDbLinetypeTableRecord
  2
PHANTOM2
 70
0
  3
Phantom (.5x) ___ _ _ ___ _ _ ___ _ _ ___ _ _ ___
 72
65
 73
6
 40
3.175
 49
1.587
 74
0
 49
-0.318
 74
0
 49
0.318
 74
0
 49
-0.318
 74
0
 49
0.318
 74
0
 49
-0.318
 74
0
  0
LTYPE
  5
38
330
2
100
AcDbSymbolTableRecord
100
AcDbLinetypeTableRecord
  2
DASHDOT
 70
0
  3
Dash dot __ . __ . __ . __ . __ . __ . __ . __
 72
65
 73
4
 40
3.556
 49
2.54
 74
0
 49
-0.508
 74
0
 49
0.0
 74
0
 49
-0.508
 74
0
  0
LTYPE
  5
39
330
2
100
AcDbSymbolTableRecord
100
AcDbLinetypeTableRecord
  2
DASHDOTX2
 70
0
  3
Dash dot (2x) ____  .  ____  .  ____  .  ____
 72
65
 73
4
 40
6.096
 49
5.08
 74
0
 49
-0.508
 74
0
 49
0.0
 74
0
 49
-0.508
 74
0
  0
LTYPE
  5
3A
330
2
100
AcDbSymbolTableRecord
100
AcDbLinetypeTableRecord
  2
DASHDOT2
 70
0
  3
Dash dot (.5x) _ . _ . _ . _ . _ . _ . _ . _
 72
65
 73
4
 40
1.778
 49
1.27
 74
0
 49
-0.254
 74
0
 49
0.0
 74
0
 49
-0.254
 74
0
  0
LTYPE
  5
3B
330
2
100
AcDbSymbolTableRecord
100
AcDbLinetypeTableRecord
  2
DOT
 70
0
  3
Dot .  .  .  .  .  .  .  .  .  .  .  .  .  .  .  .
 72
65
 73
2
 40
0.508
 49
0.0
 74
0
 49
-0.508
 74
0
  0
LTYPE
  5
3C
330
2
100
AcDbSymbolTableRecord
100
AcDbLinetypeTableRecord
  2
DOTX2
 70
0
  3
Dot (2x) .    .    .    .    .    .    .    . 
 72
65
 73
2
 40
1.016
 49
0.0
 74
0
 49
-1.016
 74
0
  0
LTYPE
  5
3D
330
2
100
AcDbSymbolTableRecord
100
AcDbLinetypeTableRecord
  2
DOT2
 70
0
  3
Dot (.5) . . . . . . . . . . . . . . . . . . . 
 72
65
 73
2
 40
0.254
 49
0.0
 74
0
 49
-0.254
 74
0
  0
LTYPE
  5
3E
330
2
100
AcDbSymbolTableRecord
100
AcDbLinetypeTableRecord
  2
DIVIDE
 70
0
  3
Divide __ . . __ . . __ . . __ . . __ . . __
 72
65
 73
6
 40
4.064
 49
2.54
 74
0
 49
-0.508
 74
0
 49
0.0
 74
0
 49
-0.508
 74
0
 49
0.0
 74
0
 49
-0.508
 74
0
  0
LTYPE
  5
3F
330
2
100
AcDbSymbolTableRecord
100
AcDbLinetypeTableRecord
  2
DIVIDEX2
 70
0
  3
Divide (2x) ____  . .  ____  . .  ____  . .  ____
 72
65
 73
6
 40
6.604
 49
5.08
 74
0
 49
-0.508
 74
0
 49
0.0
 74
0
 49
-0.508
 74
0
 49
0.0
 74
0
 49
-0.508
 74
0
  0
LTYPE
  5
40
330
2
100
AcDbSymbolTableRecord
100
AcDbLinetypeTableRecord
  2
DIVIDE2
 70
0
  3
Divide(.5x) _ . _ . _ . _ . _ . _ . _ . _
 72
65
 73
6
 40
2.032
 49
1.27
 74
0
 49
-0.254
 74
0
 49
0.0
 74
0
 49
-0.254
 74
0
 49
0.0
 74
0
 49
-0.254
 74
0
  0
ENDTAB
  0
TABLE
  2
LAYER
  5
1
330
0
100
AcDbSymbolTable
 70
24
  0
LAYER
  5
27
330
1
100
AcDbSymbolTableRecord
100
AcDbLayerTableRecord
  2
0
 70
0
 62
7
  6
Continuous
370
-3
390
13
347
21
  0
LAYER
  5
28
330
1
100
AcDbSymbolTableRecord
100
AcDbLayerTableRecord
  2
Defpoints
 70
0
 62
7
  6
Continuous
290
0
370
-3
390
13
347
21
  0
LAYER
  5
8A
330
1
100
AcDbSymbolTableRecord
100
AcDbLayerTableRecord
  2
00_РАМКА
 70
0
 62
7
  6
CONTINUOUS
370
-3
390
13
347
21
  0
LAYER
  5
8B
330
1
100
AcDbSymbolTableRecord
100
AcDbLayerTableRecord
  2
01_ОБШИВКА
 70
0
 62
7
  6
CONTINUOUS
370
-3
390
13
347
21
  0
LAYER
  5
8C
330
1
100
AcDbSymbolTableRecord
100
AcDbLayerTableRecord
  2
02_ПАЛУБЫ
 70
0
 62
4
  6
CONTINUOUS
370
-3
390
13
347
21
  0
LAYER
  5
8D
330
1
100
AcDbSymbolTableRecord
100
AcDbLayerTableRecord
  2
03_ПЕРЕБОРКИ
 70
0
 62
1
  6
CONTINUOUS
370
-3
390
13
347
21
  0
LAYER
  5
8E
330
1
100
AcDbSymbolTableRecord
100
AcDbLayerTableRecord
  2
04_ЦИСТЕРНЫ
 70
0
 62
3
  6
CONTINUOUS
370
-3
390
13
347
21
  0
LAYER
  5
8F
330
1
100
AcDbSymbolTableRecord
100
AcDbLayerTableRecord
  2
05_ОБОРУДОВАНИЕ
 70
0
 62
5
  6
CONTINUOUS
370
-3
390
13
347
21
  0
LAYER
  5
90
330
1
100
AcDbSymbolTableRecord
100
AcDbLayerTableRecord
  2
06_ПОМЕЩЕНИЯ
 70
0
 62
8
  6
CONTINUOUS
370
-3
390
13
347
21
  0
LAYER
  5
91
330
1
100
AcDbSymbolTableRecord
100
AcDbLayerTableRecord
  2
07_ОСИ
 70
0
 62
2
  6
CENTER
370
18
390
13
347
21
  0
LAYER
  5
92
330
1
100
AcDbSymbolTableRecord
100
AcDbLayerTableRecord
  2
08_ТЕКСТ
 70
0
 62
7
  6
CONTINUOUS
370
-3
390
13
347
21
  0
LAYER
  5
93
330
1
100
AcDbSymbolTableRecord
100
AcDbLayerTableRecord
  2
09_РАЗМЕРЫ
 70
0
 62
6
  6
CONTINUOUS
370
-3
390
13
347
21
  0
LAYER
  5
94
330
1
100
AcDbSymbolTableRecord
100
AcDbLayerTableRecord
  2
10_НАБОР
 70
0
 62
9
  6
CONTINUOUS
370
-3
390
13
347
21
  0
LAYER
  5
95
330
1
100
AcDbSymbolTableRecord
100
AcDbLayerTableRecord
  2
11_КАЮТЫ
 70
0
 62
30
  6
CONTINUOUS
370
-3
390
13
347
21
  0
LAYER
  5
96
330
1
100
AcDbSymbolTableRecord
100
AcDbLayerTableRecord
  2
12_ТРАПЫ_ЛИФТЫ
 70
0
 62
6
  6
CONTINUOUS
370
-3
390
13
347
21
  0
LAYER
  5
97
330
1
100
AcDbSymbolTableRecord
100
AcDbLayerTableRecord
  2
13_КОЛЁСА
 70
0
 62
1
  6
CONTINUOUS
370
-3
390
13
347
21
  0
LAYER
  5
98
330
1
100
AcDbSymbolTableRecord
100
AcDbLayerTableRecord
  2
14_МЕБЕЛЬ
 70
0
 62
252
  6
CONTINUOUS
370
-3
390
13
347
21
  0
LAYER
  5
9A
330
1
100
AcDbSymbolTableRecord
100
AcDbLayerTableRecord
  2
20_ВИДИМЫЕ
 70
0
 62
7
  6
CONTINUOUS
370
50
390
13
347
21
  0
LAYER
  5
9B
330
1
100
AcDbSymbolTableRecord
100
AcDbLayerTableRecord
  2
21_НЕВИДИМЫЕ
 70
0
 62
8
  6
DASHED
370
25
390
13
347
21
  0
LAYER
  5
9C
330
1
100
AcDbSymbolTableRecord
100
AcDbLayerTableRecord
  2
22_ТОНКИЕ
 70
0
 62
8
  6
CONTINUOUS
370
18
390
13
347
21
  0
LAYER
  5
9D
330
1
100
AcDbSymbolTableRecord
100
AcDbLayerTableRecord
  2
23_ШТРИХОВКА
 70
0
 62
8
  6
CONTINUOUS
370
18
390
13
347
21
  0
LAYER
  5
9E
330
1
100
AcDbSymbolTableRecord
100
AcDbLayerTableRecord
  2
24_ФАНТОМ
 70
0
 62
8
  6
PHANTOM
370
18
390
13
347
21
  0
LAYER
  5
9F
330
1
100
AcDbSymbolTableRecord
100
AcDbLayerTableRecord
  2
25_ЛИТЬЁ
 70
0
 62
1
  6
CONTINUOUS
370
25
390
13
347
21
  0
LAYER
  5
A0
330
1
100
AcDbSymbolTableRecord
100
AcDbLayerTableRecord
  2
26_ЛИТЬЁ_ТОНКИЕ
 70
0
 62
1
  6
DASHED
370
18
390
13
347
21
  0
ENDTAB
  0
TABLE
  2
STYLE
  5
5
330
0
100
AcDbSymbolTable
 70
27
  0
STYLE
  5
29
330
5
100
AcDbSymbolTableRecord
100
AcDbTextStyleTableRecord
  2
Standard
 70
0
 40
0.0
 41
1.0
 50
0.0
 71
0
 42
2.5
  3
txt
  4

  0
STYLE
  5
41
330
5
100
AcDbSymbolTableRecord
100
AcDbTextStyleTableRecord
  2
OpenSans-Light
 70
0
 40
0.0
 41
1.0
 50
0.0
 71
0
 42
2.5
  3
OpenSans-Light.ttf
  4

  0
STYLE
  5
42
330
5
100
AcDbSymbolTableRecord
100
AcDbTextStyleTableRecord
  2
OpenSans-Light-Italic
 70
0
 40
0.0
 41
1.0
 50
0.0
 71
0
 42
2.5
  3
OpenSans-LightItalic.ttf
  4

  0
STYLE
  5
43
330
5
100
AcDbSymbolTableRecord
100
AcDbTextStyleTableRecord
  2
OpenSans
 70
0
 40
0.0
 41
1.0
 50
0.0
 71
0
 42
2.5
  3
OpenSans-Regular.ttf
  4

  0
STYLE
  5
44
330
5
100
AcDbSymbolTableRecord
100
AcDbTextStyleTableRecord
  2
OpenSans-Italic
 70
0
 40
0.0
 41
1.0
 50
0.0
 71
0
 42
2.5
  3
OpenSans-Italic.ttf
  4

  0
STYLE
  5
45
330
5
100
AcDbSymbolTableRecord
100
AcDbTextStyleTableRecord
  2
OpenSans-SemiBold
 70
0
 40
0.0
 41
1.0
 50
0.0
 71
0
 42
2.5
  3
OpenSans-SemiBold.ttf
  4

  0
STYLE
  5
46
330
5
100
AcDbSymbolTableRecord
100
AcDbTextStyleTableRecord
  2
OpenSans-SemiBoldItalic
 70
0
 40
0.0
 41
1.0
 50
0.0
 71
0
 42
2.5
  3
OpenSans-SemiBoldItalic.ttf
  4

  0
STYLE
  5
47
330
5
100
AcDbSymbolTableRecord
100
AcDbTextStyleTableRecord
  2
OpenSans-Bold
 70
0
 40
0.0
 41
1.0
 50
0.0
 71
0
 42
2.5
  3
OpenSans-Bold.ttf
  4

  0
STYLE
  5
48
330
5
100
AcDbSymbolTableRecord
100
AcDbTextStyleTableRecord
  2
OpenSans-BoldItalic
 70
0
 40
0.0
 41
1.0
 50
0.0
 71
0
 42
2.5
  3
OpenSans-BoldItalic.ttf
  4

  0
STYLE
  5
49
330
5
100
AcDbSymbolTableRecord
100
AcDbTextStyleTableRecord
  2
OpenSans-ExtraBold
 70
0
 40
0.0
 41
1.0
 50
0.0
 71
0
 42
2.5
  3
OpenSans-ExtraBold.ttf
  4

  0
STYLE
  5
4A
330
5
100
AcDbSymbolTableRecord
100
AcDbTextStyleTableRecord
  2
OpenSans-ExtraBoldItalic
 70
0
 40
0.0
 41
1.0
 50
0.0
 71
0
 42
2.5
  3
OpenSans-ExtraBoldItalic.ttf
  4

  0
STYLE
  5
4B
330
5
100
AcDbSymbolTableRecord
100
AcDbTextStyleTableRecord
  2
OpenSansCondensed-Bold
 70
0
 40
0.0
 41
1.0
 50
0.0
 71
0
 42
2.5
  3
OpenSansCondensed-Bold.ttf
  4

  0
STYLE
  5
4C
330
5
100
AcDbSymbolTableRecord
100
AcDbTextStyleTableRecord
  2
OpenSansCondensed-Light
 70
0
 40
0.0
 41
1.0
 50
0.0
 71
0
 42
2.5
  3
OpenSansCondensed-Light.ttf
  4

  0
STYLE
  5
4D
330
5
100
AcDbSymbolTableRecord
100
AcDbTextStyleTableRecord
  2
OpenSansCondensed-Italic
 70
0
 40
0.0
 41
1.0
 50
0.0
 71
0
 42
2.5
  3
OpenSansCondensed-LightItalic.ttf
  4

  0
STYLE
  5
4E
330
5
100
AcDbSymbolTableRecord
100
AcDbTextStyleTableRecord
  2
LiberationSans
 70
0
 40
0.0
 41
1.0
 50
0.0
 71
0
 42
2.5
  3
LiberationSans-Regular.ttf
  4

  0
STYLE
  5
4F
330
5
100
AcDbSymbolTableRecord
100
AcDbTextStyleTableRecord
  2
LiberationSans-Bold
 70
0
 40
0.0
 41
1.0
 50
0.0
 71
0
 42
2.5
  3
LiberationSans-Bold.ttf
  4

  0
STYLE
  5
50
330
5
100
AcDbSymbolTableRecord
100
AcDbTextStyleTableRecord
  2
LiberationSans-BoldItalic
 70
0
 40
0.0
 41
1.0
 50
0.0
 71
0
 42
2.5
  3
LiberationSans-BoldItalic.ttf
  4

  0
STYLE
  5
51
330
5
100
AcDbSymbolTableRecord
100
AcDbTextStyleTableRecord
  2
LiberationSans-Italic
 70
0
 40
0.0
 41
1.0
 50
0.0
 71
0
 42
2.5
  3
LiberationSans-Italic.ttf
  4

  0
STYLE
  5
52
330
5
100
AcDbSymbolTableRecord
100
AcDbTextStyleTableRecord
  2
LiberationSerif
 70
0
 40
0.0
 41
1.0
 50
0.0
 71
0
 42
2.5
  3
LiberationSerif-Regular.ttf
  4

  0
STYLE
  5
53
330
5
100
AcDbSymbolTableRecord
100
AcDbTextStyleTableRecord
  2
LiberationSerif-Bold
 70
0
 40
0.0
 41
1.0
 50
0.0
 71
0
 42
2.5
  3
LiberationSerif-Bold.ttf
  4

  0
STYLE
  5
54
330
5
100
AcDbSymbolTableRecord
100
AcDbTextStyleTableRecord
  2
LiberationSerif-BoldItalic
 70
0
 40
0.0
 41
1.0
 50
0.0
 71
0
 42
2.5
  3
LiberationSerif-BoldItalic.ttf
  4

  0
STYLE
  5
55
330
5
100
AcDbSymbolTableRecord
100
AcDbTextStyleTableRecord
  2
LiberationSerif-Italic
 70
0
 40
0.0
 41
1.0
 50
0.0
 71
0
 42
2.5
  3
LiberationSerif-Italic.ttf
  4

  0
STYLE
  5
56
330
5
100
AcDbSymbolTableRecord
100
AcDbTextStyleTableRecord
  2
LiberationMono
 70
0
 40
0.0
 41
1.0
 50
0.0
 71
0
 42
2.5
  3
LiberationMono-Regular.ttf
  4

  0
STYLE
  5
57
330
5
100
AcDbSymbolTableRecord
100
AcDbTextStyleTableRecord
  2
LiberationMono-Bold
 70
0
 40
0.0
 41
1.0
 50
0.0
 71
0
 42
2.5
  3
LiberationMono-Bold.ttf
  4

  0
STYLE
  5
58
330
5
100
AcDbSymbolTableRecord
100
AcDbTextStyleTableRecord
  2
LiberationMono-BoldItalic
 70
0
 40
0.0
 41
1.0
 50
0.0
 71
0
 42
2.5
  3
LiberationMono-BoldItalic.ttf
  4

  0
STYLE
  5
59
330
5
100
AcDbSymbolTableRecord
100
AcDbTextStyleTableRecord
  2
LiberationMono-Italic
 70
0
 40
0.0
 41
1.0
 50
0.0
 71
0
 42
2.5
  3
LiberationMono-Italic.ttf
  4

  0
STYLE
  5
99
330
5
100
AcDbSymbolTableRecord
100
AcDbTextStyleTableRecord
  2
ГОСТ
 70
0
 40
0.0
 41
1.0
 50
0.0
 71
0
 42
2.5
  3
ISOCPEUR.TTF
  4

  0
ENDTAB
  0
TABLE
  2
VIEW
  5
7
330
0
100
AcDbSymbolTable
 70
0
  0
ENDTAB
  0
TABLE
  2
UCS
  5
6
330
0
100
AcDbSymbolTable
 70
0
  0
ENDTAB
  0
TABLE
  2
APPID
  5
3
330
0
100
AcDbSymbolTable
 70
3
  0
APPID
  5
2A
330
3
100
AcDbSymbolTableRecord
100
AcDbRegAppTableRecord
  2
ACAD
 70
0
  0
APPID
  5
2D8
330
3
100
AcDbSymbolTableRecord
100
AcDbRegAppTableRecord
  2
HATCHBACKGROUNDCOLOR
 70
0
  0
APPID
  5
2D9
330
3
100
AcDbSymbolTableRecord
100
AcDbRegAppTableRecord
  2
EZDXF
 70
0
  0
ENDTAB
  0
TABLE
  2
DIMSTYLE
  5
4
330
0
100
AcDbSymbolTable
 70
13
100
AcDbDimStyleTable
  0
DIMSTYLE
105
2B
330
4
100
AcDbSymbolTableRecord
100
AcDbDimStyleTableRecord
  2
Standard
 70
0
 40
1.0
 41
2.5
 42
0.625
 43
3.75
 44
1.25
 45
0.0
 46
0.0
 47
0.0
 48
0.0
 49
2.5
140
2.5
141
2.5
142
0.0
143
0.03937007874
144
1.0
145
0.0
146
1.0
147
0.625
148
0.0
 69
0
 70
0
 71
0
 72
0
 73
0
 74
0
 75
0
 76
0
 77
1
 78
8
 79
3
170
0
171
3
172
1
173
0
174
0
175
0
176
0
177
0
178
0
179
2
271
2
272
2
273
2
274
3
275
0
276
0
277
2
278
44
279
0
280
0
281
0
282
0
283
0
284
8
285
0
286
0
288
0
289
3
290
0
371
-2
372
-2
  0
DIMSTYLE
105
73
330
4
100
AcDbSymbolTableRecord
100
AcDbDimStyleTableRecord
  2
EZDXF
 70
0
 40
1.0
 41
0.175
 42
0.125
 43
3.75
 44
0.375
 45
0.0
 46
0.0
 47
0.0
 48
0.0
 49
2.5
140
0.25
141
2.5
142
0.0
143
0.03937007874
144
100.0
145
0.0
146
0.5
147
0.1
148
0.0
 69
0
 70
0
 71
0
 72
0
 73
0
 74
0
 75
0
 76
0
 77
1
 78
12
 79
3
170
0
171
3
172
1
173
0
174
0
175
0
176
0
177
0
178
0
179
2
271
2
272
2
273
2
274
3
275
0
276
0
277
2
278
46
279
2
280
0
281
0
282
0
283
0
284
8
285
0
286
0
288
1
289
3
290
0
340
4C
342
74
371
-2
372
-2
  0
DIMSTYLE
105
7C
330
4
100
AcDbSymbolTableRecord
100
AcDbDimStyleTableRecord
  2
EZ_M_100_H25_CM
 70
0
 40
1.0
 41
0.25
 42
0.125
 43
3.75
 44
0.375
 45
0.0
 46
0.0
 47
0.0
 48
0.0
 49
2.5
140
0.25
141
2.5
142
0.125
143
0.03937007874
144
100.0
145
0.0
146
0.5
147
0.1
148
0.0
 69
0
 70
0
 71
0
 72
0
 73
0
 74
0
 75
0
 76
0
 77
1
 78
12
 79
3
170
0
171
3
172
1
173
0
174
0
175
0
176
0
177
0
178
0
179
2
271
2
272
2
273
2
274
3
275
0
276
0
277
2
278
46
279
2
280
0
281
0
282
0
283
0
284
8
285
0
286
0
288
1
289
3
290
0
340
4C
371
-2
372
-2
  0
DIMSTYLE
105
7D
330
4
100
AcDbSymbolTableRecord
100
AcDbDimStyleTableRecord
  2
EZ_M_50_H25_CM
 70
0
 40
1.0
 41
0.125
 42
0.0625
 43
3.75
 44
0.1875
 45
0.0
 46
0.0
 47
0.0
 48
0.0
 49
2.5
140
0.125
141
2.5
142
0.0625
143
0.03937007874
144
100.0
145
0.0
146
0.5
147
0.05
148
0.0
 69
0
 70
0
 71
0
 72
0
 73
0
 74
0
 75
0
 76
0
 77
1
 78
12
 79
3
170
0
171
3
172
1
173
0
174
0
175
0
176
0
177
0
178
0
179
2
271
2
272
2
273
2
274
3
275
0
276
0
277
2
278
46
279
2
280
0
281
0
282
0
283
0
284
8
285
0
286
0
288
1
289
3
290
0
340
4C
371
-2
372
-2
  0
DIMSTYLE
105
7E
330
4
100
AcDbSymbolTableRecord
100
AcDbDimStyleTableRecord
  2
EZ_M_25_H25_CM
 70
0
 40
1.0
 41
0.0625
 42
0.03125
 43
3.75
 44
0.09375
 45
0.0
 46
0.0
 47
0.0
 48
0.0
 49
2.5
140
0.0625
141
2.5
142
0.03125
143
0.03937007874
144
100.0
145
0.0
146
0.5
147
0.025
148
0.0
 69
0
 70
0
 71
0
 72
0
 73
0
 74
0
 75
0
 76
0
 77
1
 78
12
 79
3
170
0
171
3
172
1
173
0
174
0
175
0
176
0
177
0
178
0
179
2
271
2
272
2
273
2
274
3
275
0
276
0
277
2
278
46
279
2
280
0
281
0
282
0
283
0
284
8
285
0
286
0
288
1
289
3
290
0
340
4C
371
-2
372
-2
  0
DIMSTYLE
105
7F
330
4
100
AcDbSymbolTableRecord
100
AcDbDimStyleTableRecord
  2
EZ_M_20_H25_CM
 70
0
 40
1.0
 41
0.05
 42
0.025
 43
3.75
 44
0.07500000000000001
 45
0.0
 46
0.0
 47
0.0
 48
0.0
 49
2.5
140
0.05
141
2.5
142
0.025
143
0.03937007874
144
100.0
145
0.0
146
0.5
147
0.020000000000000004
148
0.0
 69
0
 70
0
 71
0
 72
0
 73
0
 74
0
 75
0
 76
0
 77
1
 78
12
 79
3
170
0
171
3
172
1
173
0
174
0
175
0
176
0
177
0
178
0
179
2
271
2
272
2
273
2
274
3
275
0
276
0
277
2
278
46
279
2
280
0
281
0
282
0
283
0
284
8
285
0
286
0
288
1
289
3
290
0
340
4C
371
-2
372
-2
  0
DIMSTYLE
105
80
330
4
100
AcDbSymbolTableRecord
100
AcDbDimStyleTableRecord
  2
EZ_M_10_H25_CM
 70
0
 40
1.0
 41
0.025
 42
0.0125
 43
3.75
 44
0.037500000000000006
 45
0.0
 46
0.0
 47
0.0
 48
0.0
 49
2.5
140
0.025
141
2.5
142
0.0125
143
0.03937007874
144
100.0
145
0.0
146
0.5
147
0.010000000000000002
148
0.0
 69
0
 70
0
 71
0
 72
0
 73
0
 74
0
 75
0
 76
0
 77
1
 78
12
 79
3
170
0
171
3
172
1
173
0
174
0
175
0
176
0
177
0
178
0
179
2
271
2
272
2
273
2
274
3
275
0
276
0
277
2
278
46
279
2
280
0
281
0
282
0
283
0
284
8
285
0
286
0
288
1
289
3
290
0
340
4C
371
-2
372
-2
  0
DIMSTYLE
105
81
330
4
100
AcDbSymbolTableRecord
100
AcDbDimStyleTableRecord
  2
EZ_M_5_H25_CM
 70
0
 40
1.0
 41
0.0125
 42
0.00625
 43
3.75
 44
0.018750000000000003
 45
0.0
 46
0.0
 47
0.0
 48
0.0
 49
2.5
140
0.0125
141
2.5
142
0.00625
143
0.03937007874
144
100.0
145
0.0
146
0.5
147
0.005000000000000001
148
0.0
 69
0
 70
0
 71
0
 72
0
 73
0
 74
0
 75
0
 76
0
 77
1
 78
12
 79
3
170
0
171
3
172
1
173
0
174
0
175
0
176
0
177
0
178
0
179
2
271
2
272
2
273
2
274
3
275
0
276
0
277
2
278
46
279
2
280
0
281
0
282
0
283
0
284
8
285
0
286
0
288
1
289
3
290
0
340
4C
371
-2
372
-2
  0
DIMSTYLE
105
82
330
4
100
AcDbSymbolTableRecord
100
AcDbDimStyleTableRecord
  2
EZ_M_1_H25_CM
 70
0
 40
1.0
 41
0.0025
 42
0.00125
 43
3.75
 44
0.00375
 45
0.0
 46
0.0
 47
0.0
 48
0.0
 49
2.5
140
0.0025
141
2.5
142
0.00125
143
0.03937007874
144
100.0
145
0.0
146
0.5
147
0.001
148
0.0
 69
0
 70
0
 71
0
 72
0
 73
0
 74
0
 75
0
 76
0
 77
1
 78
12
 79
3
170
0
171
3
172
1
173
0
174
0
175
0
176
0
177
0
178
0
179
2
271
2
272
2
273
2
274
3
275
0
276
0
277
2
278
46
279
2
280
0
281
0
282
0
283
0
284
8
285
0
286
0
288
1
289
3
290
0
340
4C
371
-2
372
-2
  0
DIMSTYLE
105
83
330
4
100
AcDbSymbolTableRecord
100
AcDbDimStyleTableRecord
  2
EZ_RADIUS
 70
0
 40
1.0
 41
0.25
 42
0.125
 43
3.75
 44
0.375
 45
0.0
 46
0.0
 47
0.0
 48
0.0
 49
2.5
140
0.25
141
0.0
142
0.0
143
0.03937007874
144
100.0
145
0.0
146
0.5
147
0.1
148
0.0
 69
0
 70
0
 71
0
 72
0
 73
0
 74
0
 75
0
 76
0
 77
1
 78
12
 79
3
170
0
171
3
172
0
173
0
174
0
175
0
176
0
177
0
178
0
179
2
271
2
272
2
273
2
274
3
275
0
276
0
277
2
278
46
279
1
280
0
281
0
282
0
283
0
284
8
285
0
286
0
288
1
289
3
290
0
340
4C
342
84
371
-2
372
-2
  0
DIMSTYLE
105
88
330
4
100
AcDbSymbolTableRecord
100
AcDbDimStyleTableRecord
  2
EZ_RADIUS_INSIDE
 70
0
 40
1.0
 41
0.25
 42
0.125
 43
3.75
 44
0.375
 45
0.0
 46
0.0
 47
0.0
 48
0.0
 49
2.5
140
0.25
141
0.0
142
0.0
143
0.03937007874
144
100.0
145
0.0
146
0.5
147
0.1
148
0.0
 69
0
 70
0
 71
0
 72
0
 73
0
 74
0
 75
0
 76
0
 77
0
 78
12
 79
3
170
0
171
3
172
0
173
0
174
1
175
0
176
0
177
0
178
0
179
2
271
2
272
2
273
2
274
3
275
0
276
0
277
2
278
46
279
0
280
0
281
0
282
0
283
0
284
8
285
0
286
0
288
1
289
0
290
0
340
4C
342
84
371
-2
372
-2
  0
DIMSTYLE
105
89
330
4
100
AcDbSymbolTableRecord
100
AcDbDimStyleTableRecord
  2
EZ_CURVED
 70
0
 40
1.0
 41
0.25
 42
0.125
 43
3.75
 44
0.375
 45
0.0
 46
0.0
 47
0.0
 48
0.0
 49
2.5
140
0.25
141
2.5
142
0.0
143
0.03937007874
144
100.0
145
0.0
146
0.5
147
0.1
148
0.0
 69
0
 70
0
 71
0
 72
0
 73
0
 74
0
 75
0
 76
0
 77
1
 78
12
 79
2
 90
2
170
0
171
3
172
1
173
0
174
0
175
0
176
0
177
0
178
0
179
2
271
2
272
2
273
2
274
3
275
0
276
0
277
2
278
46
279
2
280
0
281
0
282
0
283
0
284
8
285
0
286
0
288
1
289
3
290
0
340
4C
371
-2
372
-2
  0
DIMSTYLE
105
A1
330
4
100
AcDbSymbolTableRecord
100
AcDbDimStyleTableRecord
  2
ГОСТ
 70
0
 40
2.0
 41
3.0
 42
0.0
 43
3.75
 44
2.0
 45
0.0
 46
0.0
 47
0.0
 48
0.0
 49
2.5
140
3.5
141
2.5
142
0.0
143
0.03937007874
144
1.0
145
0.0
146
1.0
147
1.0
148
0.0
 69
0
 70
0
 71
0
 72
0
 73
0
 74
0
 75
0
 76
0
 77
1
 78
8
 79
3
170
0
171
3
172
1
173
0
174
0
175
0
176
6
177
6
178
7
179
2
271
1
272
2
273
2
274
3
275
0
276
0
277
2
278
44
279
0
280
0
281
0
282
0
283
0
284
8
285
0
286
0
288
0
289
3
290
0
340
99
371
-2
372
-2
  0
ENDTAB
  0
TABLE
  2
BLOCK_RECORD
  5
9
330
0
100
AcDbSymbolTable
 70
21
  0
BLOCK_RECORD
  5
17
330
9
100
AcDbSymbolTableRecord
100
AcDbBlockTableRecord
  2
*Model_Space
340
1A
 70
0
280
1
281
0
  0
BLOCK_RECORD
  5
1B
330
9
100
AcDbSymbolTableRecord
100
AcDbBlockTableRecord
  2
*Paper_Space
340
1E
 70
0
280
1
281
0
  0
BLOCK_RECORD
  5
74
330
9
100
AcDbSymbolTableRecord
100
AcDbBlockTableRecord
  2
_ARCHTICK
340
0
 70
0
280
1
281
0
  0
BLOCK_RECORD
  5
78
330
9
100
AcDbSymbolTableRecord
100
AcDbBlockTableRecord
  2
_CLOSEDFILLED
340
0
 70
0
280
1
281
0
  0
BLOCK_RECORD
  5
84
330
9
100
AcDbSymbolTableRecord
100
AcDbBlockTableRecord
  2
_CLOSEDBLANK
340
0
 70
0
280
1
281
0
  0
BLOCK_RECORD
  5
E6
330
9
100
AcDbSymbolTableRecord
100
AcDbBlockTableRecord
  2
*D1
340
0
 70
0
280
1
281
0
  0
BLOCK_RECORD
  5
F5
330
9
100
AcDbSymbolTableRecord
100
AcDbBlockTableRecord
  2
*D2
340
0
 70
0
280
1
281
0
  0
BLOCK_RECORD
  5
104
330
9
100
AcDbSymbolTableRecord
100
AcDbBlockTableRecord
  2
*D3
340
0
 70
0
280
1
281
0
  0
BLOCK_RECORD
  5
113
330
9
100
AcDbSymbolTableRecord
100
AcDbBlockTableRecord
  2
*D4
340
0
 70
0
280
1
281
0
  0
BLOCK_RECORD
  5
122
330
9
100
AcDbSymbolTableRecord
100
AcDbBlockTableRecord
  2
*D5
340
0
 70
0
280
1
281
0
  0
BLOCK_RECORD
  5
131
330
9
100
AcDbSymbolTableRecord
100
AcDbBlockTableRecord
  2
*D6
340
0
 70
0
280
1
281
0
  0
BLOCK_RECORD
  5
1AF
330
9
100
AcDbSymbolTableRecord
100
AcDbBlockTableRecord
  2
*D7
340
0
 70
0
280
1
281
0
  0
BLOCK_RECORD
  5
1BE
330
9
100
AcDbSymbolTableRecord
100
AcDbBlockTableRecord
  2
*D8
340
0
 70
0
280
1
281
0
  0
BLOCK_RECORD
  5
1CD
330
9
100
AcDbSymbolTableRecord
100
AcDbBlockTableRecord
  2
*D9
340
0
 70
0
280
1
281
0
  0
BLOCK_RECORD
  5
1DC
330
9
100
AcDbSymbolTableRecord
100
AcDbBlockTableRecord
  2
*D10
340
0
 70
0
280
1
281
0
  0
BLOCK_RECORD
  5
1EB
330
9
100
AcDbSymbolTableRecord
100
AcDbBlockTableRecord
  2
*D11
340
0
 70
0
280
1
281
0
  0
BLOCK_RECORD
  5
1FA
330
9
100
AcDbSymbolTableRecord
100
AcDbBlockTableRecord
  2
*D12
340
0
 70
0
280
1
281
0
  0
BLOCK_RECORD
  5
238
330
9
100
AcDbSymbolTableRecord
100
AcDbBlockTableRecord
  2
*D13
340
0
 70
0
280
1
281
0
  0
BLOCK_RECORD
  5
247
330
9
100
AcDbSymbolTableRecord
100
AcDbBlockTableRecord
  2
*D14
340
0
 70
0
280
1
281
0
  0
BLOCK_RECORD
  5
256
330
9
100
AcDbSymbolTableRecord
100
AcDbBlockTableRecord
  2
*D15
340
0
 70
0
280
1
281
0
  0
BLOCK_RECORD
  5
265
330
9
100
AcDbSymbolTableRecord
100
AcDbBlockTableRecord
  2
*D16
340
0
 70
0
280
1
281
0
  0
ENDTAB
  0
ENDSEC
  0
SECTION
  2
BLOCKS
  0
BLOCK
  5
18
330
17
100
AcDbEntity
  8
0
100
AcDbBlockBegin
  2
*Model_Space
 70
0
 10
0.0
 20
0.0
 30
0.0
  3
*Model_Space
  1

  0
ENDBLK
  5
19
330
17
100
AcDbEntity
  8
0
100
AcDbBlockEnd
  0
BLOCK
  5
1C
330
1B
100
AcDbEntity
  8
0
100
AcDbBlockBegin
  2
*Paper_Space
 70
0
 10
0.0
 20
0.0
 30
0.0
  3
*Paper_Space
  1

  0
ENDBLK
  5
1D
330
1B
100
AcDbEntity
  8
0
100
AcDbBlockEnd
  0
BLOCK
  5
75
330
74
100
AcDbEntity
  8
0
100
AcDbBlockBegin
  2
_ARCHTICK
 70
0
 10
0.0
 20
0.0
 30
0.0
  3
_ARCHTICK
  1

  0
LWPOLYLINE
  5
77
330
74
100
AcDbEntity
  8
0
  6
BYBLOCK
 62
0
100
AcDbPolyline
 90
2
 70
0
 43
0.15
 10
-0.5
 20
-0.5
 10
0.5
 20
0.5
  0
ENDBLK
  5
76
330
74
100
AcDbEntity
  8
0
100
AcDbBlockEnd
  0
BLOCK
  5
79
330
78
100
AcDbEntity
  8
0
100
AcDbBlockBegin
  2
_CLOSEDFILLED
 70
0
 10
0.0
 20
0.0
 30
0.0
  3
_CLOSEDFILLED
  1

  0
SOLID
  5
7B
330
78
100
AcDbEntity
  8
0
  6
BYBLOCK
 62
0
100
AcDbTrace
 10
-1.0
 20
0.16439898372402537
 30
0.0
 11
0.0
 21
0.0
 31
0.0
 12
-1.0
 22
-0.16439898372402537
 32
0.0
 13
-1.0
 23
-0.16439898372402537
 33
0.0
  0
ENDBLK
  5
7A
330
78
100
AcDbEntity
  8
0
100
AcDbBlockEnd
  0
BLOCK
  5
85
330
84
100
AcDbEntity
  8
0
100
AcDbBlockBegin
  2
_CLOSEDBLANK
 70
0
 10
0.0
 20
0.0
 30
0.0
  3
_CLOSEDBLANK
  1

  0
LWPOLYLINE
  5
87
330
84
100
AcDbEntity
  8
0
  6
BYBLOCK
 62
0
100
AcDbPolyline
 90
3
 70
1
 10
-1.0
 20
0.16439898372402537
 10
0.0
 20
0.0
 10
-1.0
 20
-0.16439898372402537
  0
ENDBLK
  5
86
330
84
100
AcDbEntity
  8
0
100
AcDbBlockEnd
  0
BLOCK
  5
E7
330
E6
100
AcDbEntity
  8
0
100
AcDbBlockBegin
  2
*D1
 70
1
 10
0.0
 20
0.0
 30
0.0
  3
*D1
  1

  0
LINE
  5
E9
330
E6
100
AcDbEntity
  8
0
 62
6
100
AcDbLine
 10
50.0
 20
-241.0
 30
0.0
 11
244.0
 21
-241.0
 31
0.0
  0
LINE
  5
EA
330
E6
100
AcDbEntity
  8
0
 62
6
100
AcDbLine
 10
50.0
 20
-106.0
 30
0.0
 11
244.0
 21
-106.0
 31
0.0
  0
INSERT
  5
EB
330
E6
100
AcDbEntity
  8
09_РАЗМЕРЫ
 62
6
100
AcDbBlockReference
  2
_CLOSEDFILLED
 10
240.0
 20
-241.0
 30
0.0
 41
6.0
 42
6.0
 50
270.0
  0
INSERT
  5
ED
330
E6
100
AcDbEntity
  8
09_РАЗМЕРЫ
 62
6
100
AcDbBlockReference
  2
_CLOSEDFILLED
 10
240.0
 20
-106.0
 30
0.0
 41
6.0
 42
6.0
 50
90.0
  0
LINE
  5
EF
330
E6
100
AcDbEntity
  8
0
 62
6
100
AcDbLine
 10
240.0
 20
-235.0
 30
0.0
 11
240.0
 21
-112.0
 31
0.0
  0
MTEXT
  5
F0
330
E6
100
AcDbEntity
  8
09_РАЗМЕРЫ
 62
7
100
AcDbMText
 10
234.5
 20
-173.5
 30
0.0
 40
7.0
 71
5
  1
135
  7
ГОСТ
 50
90.0
  0
POINT
  5
F1
330
E6
100
AcDbEntity
  8
Defpoints
100
AcDbPoint
 10
240.0
 20
-241.0
 30
0.0
  0
POINT
  5
F2
330
E6
100
AcDbEntity
  8
Defpoints
100
AcDbPoint
 10
50.0
 20
-241.0
 30
0.0
  0
POINT
  5
F3
330
E6
100
AcDbEntity
  8
Defpoints
100
AcDbPoint
 10
50.0
 20
-106.0
 30
0.0
  0
ENDBLK
  5
E8
330
E6
100
AcDbEntity
  8
0
100
AcDbBlockEnd
  0
BLOCK
  5
F6
330
F5
100
AcDbEntity
  8
0
100
AcDbBlockBegin
  2
*D2
 70
1
 10
0.0
 20
0.0
 30
0.0
  3
*D2
  1

  0
LINE
  5
F8
330
F5
100
AcDbEntity
  8
0
 62
6
100
AcDbLine
 10
50.0
 20
-241.0
 30
0.0
 11
284.0
 21
-241.0
 31
0.0
  0
LINE
  5
F9
330
F5
100
AcDbEntity
  8
0
 62
6
100
AcDbLine
 10
50.0
 20
-32.0
 30
0.0
 11
284.0
 21
-32.0
 31
0.0
  0
INSERT
  5
FA
330
F5
100
AcDbEntity
  8
09_РАЗМЕРЫ
 62
6
100
AcDbBlockReference
  2
_CLOSEDFILLED
 10
280.0
 20
-241.0
 30
0.0
 41
6.0
 42
6.0
 50
270.0
  0
INSERT
  5
FC
330
F5
100
AcDbEntity
  8
09_РАЗМЕРЫ
 62
6
100
AcDbBlockReference
  2
_CLOSEDFILLED
 10
280.0
 20
-32.0
 30
0.0
 41
6.0
 42
6.0
 50
90.0
  0
LINE
  5
FE
330
F5
100
AcDbEntity
  8
0
 62
6
100
AcDbLine
 10
280.0
 20
-235.0
 30
0.0
 11
280.0
 21
-38.0
 31
0.0
  0
MTEXT
  5
FF
330
F5
100
AcDbEntity
  8
09_РАЗМЕРЫ
 62
7
100
AcDbMText
 10
274.5
 20
-136.5
 30
0.0
 40
7.0
 71
5
  1
209
  7
ГОСТ
 50
90.0
  0
POINT
  5
100
330
F5
100
AcDbEntity
  8
Defpoints
100
AcDbPoint
 10
280.0
 20
-241.0
 30
0.0
  0
POINT
  5
101
330
F5
100
AcDbEntity
  8
Defpoints
100
AcDbPoint
 10
50.0
 20
-241.0
 30
0.0
  0
POINT
  5
102
330
F5
100
AcDbEntity
  8
Defpoints
100
AcDbPoint
 10
50.0
 20
-32.0
 30
0.0
  0
ENDBLK
  5
F7
330
F5
100
AcDbEntity
  8
0
100
AcDbBlockEnd
  0
BLOCK
  5
105
330
104
100
AcDbEntity
  8
0
100
AcDbBlockBegin
  2
*D3
 70
1
 10
0.0
 20
0.0
 30
0.0
  3
*D3
  1

  0
LINE
  5
107
330
104
100
AcDbEntity
  8
0
 62
6
100
AcDbLine
 10
10.0
 20
-106.0
 30
0.0
 11
194.0
 21
-106.0
 31
0.0
  0
LINE
  5
108
330
104
100
AcDbEntity
  8
0
 62
6
100
AcDbLine
 10
10.0
 20
-77.0
 30
0.0
 11
194.0
 21
-77.0
 31
0.0
  0
INSERT
  5
109
330
104
100
AcDbEntity
  8
09_РАЗМЕРЫ
 62
6
100
AcDbBlockReference
  2
_CLOSEDFILLED
 10
190.0
 20
-106.0
 30
0.0
 41
6.0
 42
6.0
 50
270.0
  0
INSERT
  5
10B
330
104
100
AcDbEntity
  8
09_РАЗМЕРЫ
 62
6
100
AcDbBlockReference
  2
_CLOSEDFILLED
 10
190.0
 20
-77.0
 30
0.0
 41
6.0
 42
6.0
 50
90.0
  0
LINE
  5
10D
330
104
100
AcDbEntity
  8
0
 62
6
100
AcDbLine
 10
190.0
 20
-100.0
 30
0.0
 11
190.0
 21
-83.0
 31
0.0
  0
MTEXT
  5
10E
330
104
100
AcDbEntity
  8
09_РАЗМЕРЫ
 62
7
100
AcDbMText
 10
184.5
 20
-91.5
 30
0.0
 40
7.0
 71
5
  1
29*
  7
ГОСТ
 50
90.0
  0
POINT
  5
10F
330
104
100
AcDbEntity
  8
Defpoints
100
AcDbPoint
 10
190.0
 20
-106.0
 30
0.0
  0
POINT
  5
110
330
104
100
AcDbEntity
  8
Defpoints
100
AcDbPoint
 10
10.0
 20
-106.0
 30
0.0
  0
POINT
  5
111
330
104
100
AcDbEntity
  8
Defpoints
100
AcDbPoint
 10
10.0
 20
-77.0
 30
0.0
  0
ENDBLK
  5
106
330
104
100
AcDbEntity
  8
0
100
AcDbBlockEnd
  0
BLOCK
  5
114
330
113
100
AcDbEntity
  8
0
100
AcDbBlockBegin
  2
*D4
 70
1
 10
0.0
 20
0.0
 30
0.0
  3
*D4
  1

  0
LINE
  5
116
330
113
100
AcDbEntity
  8
0
 62
6
100
AcDbLine
 10
-180.0
 20
-230.0
 30
0.0
 11
-180.0
 21
-346.0
 31
0.0
  0
LINE
  5
117
330
113
100
AcDbEntity
  8
0
 62
6
100
AcDbLine
 10
60.0
 20
-230.0
 30
0.0
 11
60.0
 21
-346.0
 31
0.0
  0
INSERT
  5
118
330
113
100
AcDbEntity
  8
09_РАЗМЕРЫ
 62
6
100
AcDbBlockReference
  2
_CLOSEDFILLED
 10
-180.0
 20
-342.0
 30
0.0
 41
6.0
 42
6.0
 50
180.0
  0
INSERT
  5
11A
330
113
100
AcDbEntity
  8
09_РАЗМЕРЫ
 62
6
100
AcDbBlockReference
  2
_CLOSEDFILLED
 10
60.0
 20
-342.0
 30
0.0
 41
6.0
 42
6.0
  0
LINE
  5
11C
330
113
100
AcDbEntity
  8
0
 62
6
100
AcDbLine
 10
-174.0
 20
-342.0
 30
0.0
 11
54.0
 21
-342.0
 31
0.0
  0
MTEXT
  5
11D
330
113
100
AcDbEntity
  8
09_РАЗМЕРЫ
 62
7
100
AcDbMText
 10
-60.0
 20
-336.5
 30
0.0
 40
7.0
 71
5
  1
240
  7
ГОСТ
  0
POINT
  5
11E
330
113
100
AcDbEntity
  8
Defpoints
100
AcDbPoint
 10
-180.0
 20
-342.0
 30
0.0
  0
POINT
  5
11F
330
113
100
AcDbEntity
  8
Defpoints
100
AcDbPoint
 10
-180.0
 20
-230.0
 30
0.0
  0
POINT
  5
120
330
113
100
AcDbEntity
  8
Defpoints
100
AcDbPoint
 10
60.0
 20
-230.0
 30
0.0
  0
ENDBLK
  5
115
330
113
100
AcDbEntity
  8
0
100
AcDbBlockEnd
  0
BLOCK
  5
123
330
122
100
AcDbEntity
  8
0
100
AcDbBlockBegin
  2
*D5
 70
1
 10
0.0
 20
0.0
 30
0.0
  3
*D5
  1

  0
LINE
  5
125
330
122
100
AcDbEntity
  8
0
 62
6
100
AcDbLine
 10
-140.0
 20
-287.0
 30
0.0
 11
-140.0
 21
-376.0
 31
0.0
  0
LINE
  5
126
330
122
100
AcDbEntity
  8
0
 62
6
100
AcDbLine
 10
20.0
 20
-287.0
 30
0.0
 11
20.0
 21
-376.0
 31
0.0
  0
INSERT
  5
127
330
122
100
AcDbEntity
  8
09_РАЗМЕРЫ
 62
6
100
AcDbBlockReference
  2
_CLOSEDFILLED
 10
-140.0
 20
-372.0
 30
0.0
 41
6.0
 42
6.0
 50
180.0
  0
INSERT
  5
129
330
122
100
AcDbEntity
  8
09_РАЗМЕРЫ
 62
6
100
AcDbBlockReference
  2
_CLOSEDFILLED
 10
20.0
 20
-372.0
 30
0.0
 41
6.0
 42
6.0
  0
LINE
  5
12B
330
122
100
AcDbEntity
  8
0
 62
6
100
AcDbLine
 10
-134.0
 20
-372.0
 30
0.0
 11
14.0
 21
-372.0
 31
0.0
  0
MTEXT
  5
12C
330
122
100
AcDbEntity
  8
09_РАЗМЕРЫ
 62
7
100
AcDbMText
 10
-60.0
 20
-366.5
 30
0.0
 40
7.0
 71
5
  1
160
  7
ГОСТ
  0
POINT
  5
12D
330
122
100
AcDbEntity
  8
Defpoints
100
AcDbPoint
 10
-140.0
 20
-372.0
 30
0.0
  0
POINT
  5
12E
330
122
100
AcDbEntity
  8
Defpoints
100
AcDbPoint
 10
-140.0
 20
-287.0
 30
0.0
  0
POINT
  5
12F
330
122
100
AcDbEntity
  8
Defpoints
100
AcDbPoint
 10
20.0
 20
-287.0
 30
0.0
  0
ENDBLK
  5
124
330
122
100
AcDbEntity
  8
0
100
AcDbBlockEnd
  0
BLOCK
  5
132
330
131
100
AcDbEntity
  8
0
100
AcDbBlockBegin
  2
*D6
 70
1
 10
0.0
 20
0.0
 30
0.0
  3
*D6
  1

  0
LINE
  5
134
330
131
100
AcDbEntity
  8
0
 62
6
100
AcDbLine
 10
-320.0
 20
-110.0
 30
0.0
 11
-320.0
 21
-1.0
 31
0.0
  0
LINE
  5
135
330
131
100
AcDbEntity
  8
0
 62
6
100
AcDbLine
 10
-60.0
 20
-110.0
 30
0.0
 11
-60.0
 21
-1.0
 31
0.0
  0
INSERT
  5
136
330
131
100
AcDbEntity
  8
09_РАЗМЕРЫ
 62
6
100
AcDbBlockReference
  2
_CLOSEDFILLED
 10
-320.0
 20
-5.0
 30
0.0
 41
6.0
 42
6.0
 50
180.0
  0
INSERT
  5
138
330
131
100
AcDbEntity
  8
09_РАЗМЕРЫ
 62
6
100
AcDbBlockReference
  2
_CLOSEDFILLED
 10
-60.0
 20
-5.0
 30
0.0
 41
6.0
 42
6.0
  0
LINE
  5
13A
330
131
100
AcDbEntity
  8
0
 62
6
100
AcDbLine
 10
-314.0
 20
-5.000000000000001
 30
0.0
 11
-66.0
 21
-5.0
 31
0.0
  0
MTEXT
  5
13B
330
131
100
AcDbEntity
  8
09_РАЗМЕРЫ
 62
7
100
AcDbMText
 10
-190.0
 20
0.5
 30
0.0
 40
7.0
 71
5
  1
260*
  7
ГОСТ
  0
POINT
  5
13C
330
131
100
AcDbEntity
  8
Defpoints
100
AcDbPoint
 10
-320.0
 20
-5.0
 30
0.0
  0
POINT
  5
13D
330
131
100
AcDbEntity
  8
Defpoints
100
AcDbPoint
 10
-320.0
 20
-110.0
 30
0.0
  0
POINT
  5
13E
330
131
100
AcDbEntity
  8
Defpoints
100
AcDbPoint
 10
-60.0
 20
-110.0
 30
0.0
  0
ENDBLK
  5
133
330
131
100
AcDbEntity
  8
0
100
AcDbBlockEnd
  0
BLOCK
  5
1B0
330
1AF
100
AcDbEntity
  8
0
100
AcDbBlockBegin
  2
*D7
 70
1
 10
0.0
 20
0.0
 30
0.0
  3
*D7
  1

  0
LINE
  5
1B2
330
1AF
100
AcDbEntity
  8
0
 62
6
100
AcDbLine
 10
-180.0
 20
-945.0
 30
0.0
 11
-180.0
 21
-974.0
 31
0.0
  0
LINE
  5
1B3
330
1AF
100
AcDbEntity
  8
0
 62
6
100
AcDbLine
 10
60.0
 20
-945.0
 30
0.0
 11
60.0
 21
-974.0
 31
0.0
  0
INSERT
  5
1B4
330
1AF
100
AcDbEntity
  8
09_РАЗМЕРЫ
 62
6
100
AcDbBlockReference
  2
_CLOSEDFILLED
 10
-180.0
 20
-970.0
 30
0.0
 41
6.0
 42
6.0
 50
180.0
  0
INSERT
  5
1B6
330
1AF
100
AcDbEntity
  8
09_РАЗМЕРЫ
 62
6
100
AcDbBlockReference
  2
_CLOSEDFILLED
 10
60.0
 20
-970.0
 30
0.0
 41
6.0
 42
6.0
  0
LINE
  5
1B8
330
1AF
100
AcDbEntity
  8
0
 62
6
100
AcDbLine
 10
-174.0
 20
-970.0
 30
0.0
 11
54.0
 21
-970.0
 31
0.0
  0
MTEXT
  5
1B9
330
1AF
100
AcDbEntity
  8
09_РАЗМЕРЫ
 62
7
100
AcDbMText
 10
-60.0
 20
-964.5
 30
0.0
 40
7.0
 71
5
  1
240
  7
ГОСТ
  0
POINT
  5
1BA
330
1AF
100
AcDbEntity
  8
Defpoints
100
AcDbPoint
 10
-180.0
 20
-970.0
 30
0.0
  0
POINT
  5
1BB
330
1AF
100
AcDbEntity
  8
Defpoints
100
AcDbPoint
 10
-180.0
 20
-945.0
 30
0.0
  0
POINT
  5
1BC
330
1AF
100
AcDbEntity
  8
Defpoints
100
AcDbPoint
 10
60.0
 20
-945.0
 30
0.0
  0
ENDBLK
  5
1B1
330
1AF
100
AcDbEntity
  8
0
100
AcDbBlockEnd
  0
BLOCK
  5
1BF
330
1BE
100
AcDbEntity
  8
0
100
AcDbBlockBegin
  2
*D8
 70
1
 10
0.0
 20
0.0
 30
0.0
  3
*D8
  1

  0
LINE
  5
1C1
330
1BE
100
AcDbEntity
  8
0
 62
6
100
AcDbLine
 10
-250.0
 20
-925.0
 30
0.0
 11
-250.0
 21
-1004.0
 31
0.0
  0
LINE
  5
1C2
330
1BE
100
AcDbEntity
  8
0
 62
6
100
AcDbLine
 10
130.0
 20
-925.0
 30
0.0
 11
130.0
 21
-1004.0
 31
0.0
  0
INSERT
  5
1C3
330
1BE
100
AcDbEntity
  8
09_РАЗМЕРЫ
 62
6
100
AcDbBlockReference
  2
_CLOSEDFILLED
 10
-250.0
 20
-1000.0
 30
0.0
 41
6.0
 42
6.0
 50
180.0
  0
INSERT
  5
1C5
330
1BE
100
AcDbEntity
  8
09_РАЗМЕРЫ
 62
6
100
AcDbBlockReference
  2
_CLOSEDFILLED
 10
130.0
 20
-1000.0
 30
0.0
 41
6.0
 42
6.0
  0
LINE
  5
1C7
330
1BE
100
AcDbEntity
  8
0
 62
6
100
AcDbLine
 10
-244.0
 20
-1000.0
 30
0.0
 11
124.0
 21
-1000.0
 31
0.0
  0
MTEXT
  5
1C8
330
1BE
100
AcDbEntity
  8
09_РАЗМЕРЫ
 62
7
100
AcDbMText
 10
-60.0
 20
-994.5
 30
0.0
 40
7.0
 71
5
  1
380
  7
ГОСТ
  0
POINT
  5
1C9
330
1BE
100
AcDbEntity
  8
Defpoints
100
AcDbPoint
 10
-250.0
 20
-1000.0
 30
0.0
  0
POINT
  5
1CA
330
1BE
100
AcDbEntity
  8
Defpoints
100
AcDbPoint
 10
-250.0
 20
-925.0
 30
0.0
  0
POINT
  5
1CB
330
1BE
100
AcDbEntity
  8
Defpoints
100
AcDbPoint
 10
130.0
 20
-925.0
 30
0.0
  0
ENDBLK
  5
1C0
330
1BE
100
AcDbEntity
  8
0
100
AcDbBlockEnd
  0
BLOCK
  5
1CE
330
1CD
100
AcDbEntity
  8
0
100
AcDbBlockBegin
  2
*D9
 70
1
 10
0.0
 20
0.0
 30
0.0
  3
*D9
  1

  0
LINE
  5
1D0
330
1CD
100
AcDbEntity
  8
0
 62
6
100
AcDbLine
 10
60.0
 20
-945.0
 30
0.0
 11
184.0
 21
-945.0
 31
0.0
  0
LINE
  5
1D1
330
1CD
100
AcDbEntity
  8
0
 62
6
100
AcDbLine
 10
60.0
 20
-615.0
 30
0.0
 11
184.0
 21
-615.0
 31
0.0
  0
INSERT
  5
1D2
330
1CD
100
AcDbEntity
  8
09_РАЗМЕРЫ
 62
6
100
AcDbBlockReference
  2
_CLOSEDFILLED
 10
180.0
 20
-945.0
 30
0.0
 41
6.0
 42
6.0
 50
270.0
  0
INSERT
  5
1D4
330
1CD
100
AcDbEntity
  8
09_РАЗМЕРЫ
 62
6
100
AcDbBlockReference
  2
_CLOSEDFILLED
 10
180.0
 20
-615.0
 30
0.0
 41
6.0
 42
6.0
 50
90.0
  0
LINE
  5
1D6
330
1CD
100
AcDbEntity
  8
0
 62
6
100
AcDbLine
 10
180.0
 20
-939.0
 30
0.0
 11
180.0
 21
-621.0
 31
0.0
  0
MTEXT
  5
1D7
330
1CD
100
AcDbEntity
  8
09_РАЗМЕРЫ
 62
7
100
AcDbMText
 10
174.5
 20
-780.0
 30
0.0
 40
7.0
 71
5
  1
330
  7
ГОСТ
 50
90.0
  0
POINT
  5
1D8
330
1CD
100
AcDbEntity
  8
Defpoints
100
AcDbPoint
 10
180.0
 20
-945.0
 30
0.0
  0
POINT
  5
1D9
330
1CD
100
AcDbEntity
  8
Defpoints
100
AcDbPoint
 10
60.0
 20
-945.0
 30
0.0
  0
POINT
  5
1DA
330
1CD
100
AcDbEntity
  8
Defpoints
100
AcDbPoint
 10
60.0
 20
-615.0
 30
0.0
  0
ENDBLK
  5
1CF
330
1CD
100
AcDbEntity
  8
0
100
AcDbBlockEnd
  0
BLOCK
  5
1DD
330
1DC
100
AcDbEntity
  8
0
100
AcDbBlockBegin
  2
*D10
 70
1
 10
0.0
 20
0.0
 30
0.0
  3
*D10
  1

  0
LINE
  5
1DF
330
1DC
100
AcDbEntity
  8
0
 62
6
100
AcDbLine
 10
20.0
 20
-905.0
 30
0.0
 11
219.0
 21
-905.0
 31
0.0
  0
LINE
  5
1E0
330
1DC
100
AcDbEntity
  8
0
 62
6
100
AcDbLine
 10
20.0
 20
-655.0
 30
0.0
 11
219.0
 21
-655.0
 31
0.0
  0
INSERT
  5
1E1
330
1DC
100
AcDbEntity
  8
09_РАЗМЕРЫ
 62
6
100
AcDbBlockReference
  2
_CLOSEDFILLED
 10
215.0
 20
-905.0
 30
0.0
 41
6.0
 42
6.0
 50
270.0
  0
INSERT
  5
1E3
330
1DC
100
AcDbEntity
  8
09_РАЗМЕРЫ
 62
6
100
AcDbBlockReference
  2
_CLOSEDFILLED
 10
215.0
 20
-655.0
 30
0.0
 41
6.0
 42
6.0
 50
90.0
  0
LINE
  5
1E5
330
1DC
100
AcDbEntity
  8
0
 62
6
100
AcDbLine
 10
215.0
 20
-899.0
 30
0.0
 11
215.0
 21
-661.0
 31
0.0
  0
MTEXT
  5
1E6
330
1DC
100
AcDbEntity
  8
09_РАЗМЕРЫ
 62
7
100
AcDbMText
 10
209.5
 20
-780.0
 30
0.0
 40
7.0
 71
5
  1
250
  7
ГОСТ
 50
90.0
  0
POINT
  5
1E7
330
1DC
100
AcDbEntity
  8
Defpoints
100
AcDbPoint
 10
215.0
 20
-905.0
 30
0.0
  0
POINT
  5
1E8
330
1DC
100
AcDbEntity
  8
Defpoints
100
AcDbPoint
 10
20.0
 20
-905.0
 30
0.0
  0
POINT
  5
1E9
330
1DC
100
AcDbEntity
  8
Defpoints
100
AcDbPoint
 10
20.0
 20
-655.0
 30
0.0
  0
ENDBLK
  5
1DE
330
1DC
100
AcDbEntity
  8
0
100
AcDbBlockEnd
  0
BLOCK
  5
1EC
330
1EB
100
AcDbEntity
  8
0
100
AcDbBlockBegin
  2
*D11
 70
1
 10
0.0
 20
0.0
 30
0.0
  3
*D11
  1

  0
LINE
  5
1EE
330
1EB
100
AcDbEntity
  8
0
 62
6
100
AcDbLine
 10
130.0
 20
-925.0
 30
0.0
 11
254.0
 21
-925.0
 31
0.0
  0
LINE
  5
1EF
330
1EB
100
AcDbEntity
  8
0
 62
6
100
AcDbLine
 10
130.0
 20
-635.0
 30
0.0
 11
254.0
 21
-635.0
 31
0.0
  0
INSERT
  5
1F0
330
1EB
100
AcDbEntity
  8
09_РАЗМЕРЫ
 62
6
100
AcDbBlockReference
  2
_CLOSEDFILLED
 10
250.0
 20
-925.0
 30
0.0
 41
6.0
 42
6.0
 50
270.0
  0
INSERT
  5
1F2
330
1EB
100
AcDbEntity
  8
09_РАЗМЕРЫ
 62
6
100
AcDbBlockReference
  2
_CLOSEDFILLED
 10
250.0
 20
-635.0
 30
0.0
 41
6.0
 42
6.0
 50
90.0
  0
LINE
  5
1F4
330
1EB
100
AcDbEntity
  8
0
 62
6
100
AcDbLine
 10
250.0
 20
-919.0
 30
0.0
 11
250.0
 21
-641.0
 31
0.0
  0
MTEXT
  5
1F5
330
1EB
100
AcDbEntity
  8
09_РАЗМЕРЫ
 62
7
100
AcDbMText
 10
244.5
 20
-780.0
 30
0.0
 40
7.0
 71
5
  1
290
  7
ГОСТ
 50
90.0
  0
POINT
  5
1F6
330
1EB
100
AcDbEntity
  8
Defpoints
100
AcDbPoint
 10
250.0
 20
-925.0
 30
0.0
  0
POINT
  5
1F7
330
1EB
100
AcDbEntity
  8
Defpoints
100
AcDbPoint
 10
130.0
 20
-925.0
 30
0.0
  0
POINT
  5
1F8
330
1EB
100
AcDbEntity
  8
Defpoints
100
AcDbPoint
 10
130.0
 20
-635.0
 30
0.0
  0
ENDBLK
  5
1ED
330
1EB
100
AcDbEntity
  8
0
100
AcDbBlockEnd
  0
BLOCK
  5
1FB
330
1FA
100
AcDbEntity
  8
0
100
AcDbBlockBegin
  2
*D12
 70
1
 10
0.0
 20
0.0
 30
0.0
  3
*D12
  1

  0
LINE
  5
1FD
330
1FA
100
AcDbEntity
  8
0
 62
6
100
AcDbLine
 10
-140.0
 20
-655.0
 30
0.0
 11
-140.0
 21
-586.0
 31
0.0
  0
LINE
  5
1FE
330
1FA
100
AcDbEntity
  8
0
 62
6
100
AcDbLine
 10
20.0
 20
-655.0
 30
0.0
 11
20.0
 21
-586.0
 31
0.0
  0
INSERT
  5
1FF
330
1FA
100
AcDbEntity
  8
09_РАЗМЕРЫ
 62
6
100
AcDbBlockReference
  2
_CLOSEDFILLED
 10
-140.0
 20
-590.0
 30
0.0
 41
6.0
 42
6.0
 50
180.0
  0
INSERT
  5
201
330
1FA
100
AcDbEntity
  8
09_РАЗМЕРЫ
 62
6
100
AcDbBlockReference
  2
_CLOSEDFILLED
 10
20.0
 20
-590.0
 30
0.0
 41
6.0
 42
6.0
  0
LINE
  5
203
330
1FA
100
AcDbEntity
  8
0
 62
6
100
AcDbLine
 10
-134.0
 20
-590.0
 30
0.0
 11
14.0
 21
-590.0
 31
0.0
  0
MTEXT
  5
204
330
1FA
100
AcDbEntity
  8
09_РАЗМЕРЫ
 62
7
100
AcDbMText
 10
-60.0
 20
-584.5
 30
0.0
 40
7.0
 71
5
  1
160
  7
ГОСТ
  0
POINT
  5
205
330
1FA
100
AcDbEntity
  8
Defpoints
100
AcDbPoint
 10
-140.0
 20
-590.0
 30
0.0
  0
POINT
  5
206
330
1FA
100
AcDbEntity
  8
Defpoints
100
AcDbPoint
 10
-140.0
 20
-655.0
 30
0.0
  0
POINT
  5
207
330
1FA
100
AcDbEntity
  8
Defpoints
100
AcDbPoint
 10
20.0
 20
-655.0
 30
0.0
  0
ENDBLK
  5
1FC
330
1FA
100
AcDbEntity
  8
0
100
AcDbBlockEnd
  0
BLOCK
  5
239
330
238
100
AcDbEntity
  8
0
100
AcDbBlockBegin
  2
*D13
 70
1
 10
0.0
 20
0.0
 30
0.0
  3
*D13
  1

  0
LINE
  5
23B
330
238
100
AcDbEntity
  8
0
 62
6
100
AcDbLine
 10
475.0
 20
-230.0
 30
0.0
 11
475.0
 21
-291.0
 31
0.0
  0
LINE
  5
23C
330
238
100
AcDbEntity
  8
0
 62
6
100
AcDbLine
 10
805.0
 20
-230.0
 30
0.0
 11
805.0
 21
-291.0
 31
0.0
  0
INSERT
  5
23D
330
238
100
AcDbEntity
  8
09_РАЗМЕРЫ
 62
6
100
AcDbBlockReference
  2
_CLOSEDFILLED
 10
475.0
 20
-287.0
 30
0.0
 41
6.0
 42
6.0
 50
180.0
  0
INSERT
  5
23F
330
238
100
AcDbEntity
  8
09_РАЗМЕРЫ
 62
6
100
AcDbBlockReference
  2
_CLOSEDFILLED
 10
805.0
 20
-287.0
 30
0.0
 41
6.0
 42
6.0
  0
LINE
  5
241
330
238
100
AcDbEntity
  8
0
 62
6
100
AcDbLine
 10
481.0
 20
-287.0
 30
0.0
 11
799.0
 21
-287.0
 31
0.0
  0
MTEXT
  5
242
330
238
100
AcDbEntity
  8
09_РАЗМЕРЫ
 62
7
100
AcDbMText
 10
640.0
 20
-281.5
 30
0.0
 40
7.0
 71
5
  1
330
  7
ГОСТ
  0
POINT
  5
243
330
238
100
AcDbEntity
  8
Defpoints
100
AcDbPoint
 10
475.0
 20
-287.0
 30
0.0
  0
POINT
  5
244
330
238
100
AcDbEntity
  8
Defpoints
100
AcDbPoint
 10
475.0
 20
-230.0
 30
0.0
  0
POINT
  5
245
330
238
100
AcDbEntity
  8
Defpoints
100
AcDbPoint
 10
805.0
 20
-230.0
 30
0.0
  0
ENDBLK
  5
23A
330
238
100
AcDbEntity
  8
0
100
AcDbBlockEnd
  0
BLOCK
  5
248
330
247
100
AcDbEntity
  8
0
100
AcDbBlockBegin
  2
*D14
 70
1
 10
0.0
 20
0.0
 30
0.0
  3
*D14
  1

  0
LINE
  5
24A
330
247
100
AcDbEntity
  8
0
 62
6
100
AcDbLine
 10
515.0
 20
-287.0
 30
0.0
 11
515.0
 21
-326.0
 31
0.0
  0
LINE
  5
24B
330
247
100
AcDbEntity
  8
0
 62
6
100
AcDbLine
 10
765.0
 20
-287.0
 30
0.0
 11
765.0
 21
-326.0
 31
0.0
  0
INSERT
  5
24C
330
247
100
AcDbEntity
  8
09_РАЗМЕРЫ
 62
6
100
AcDbBlockReference
  2
_CLOSEDFILLED
 10
515.0
 20
-322.0
 30
0.0
 41
6.0
 42
6.0
 50
180.0
  0
INSERT
  5
24E
330
247
100
AcDbEntity
  8
09_РАЗМЕРЫ
 62
6
100
AcDbBlockReference
  2
_CLOSEDFILLED
 10
765.0
 20
-322.0
 30
0.0
 41
6.0
 42
6.0
  0
LINE
  5
250
330
247
100
AcDbEntity
  8
0
 62
6
100
AcDbLine
 10
521.0
 20
-322.0
 30
0.0
 11
759.0
 21
-322.0
 31
0.0
  0
MTEXT
  5
251
330
247
100
AcDbEntity
  8
09_РАЗМЕРЫ
 62
7
100
AcDbMText
 10
640.0
 20
-316.5
 30
0.0
 40
7.0
 71
5
  1
250
  7
ГОСТ
  0
POINT
  5
252
330
247
100
AcDbEntity
  8
Defpoints
100
AcDbPoint
 10
515.0
 20
-322.0
 30
0.0
  0
POINT
  5
253
330
247
100
AcDbEntity
  8
Defpoints
100
AcDbPoint
 10
515.0
 20
-287.0
 30
0.0
  0
POINT
  5
254
330
247
100
AcDbEntity
  8
Defpoints
100
AcDbPoint
 10
765.0
 20
-287.0
 30
0.0
  0
ENDBLK
  5
249
330
247
100
AcDbEntity
  8
0
100
AcDbBlockEnd
  0
BLOCK
  5
257
330
256
100
AcDbEntity
  8
0
100
AcDbBlockBegin
  2
*D15
 70
1
 10
0.0
 20
0.0
 30
0.0
  3
*D15
  1

  0
LINE
  5
259
330
256
100
AcDbEntity
  8
0
 62
6
100
AcDbLine
 10
588.0
 20
-59.0
 30
0.0
 11
588.0
 21
24.0
 31
0.0
  0
LINE
  5
25A
330
256
100
AcDbEntity
  8
0
 62
6
100
AcDbLine
 10
692.0
 20
-59.0
 30
0.0
 11
692.0
 21
24.0
 31
0.0
  0
INSERT
  5
25B
330
256
100
AcDbEntity
  8
09_РАЗМЕРЫ
 62
6
100
AcDbBlockReference
  2
_CLOSEDFILLED
 10
588.0
 20
20.0
 30
0.0
 41
6.0
 42
6.0
 50
180.0
  0
INSERT
  5
25D
330
256
100
AcDbEntity
  8
09_РАЗМЕРЫ
 62
6
100
AcDbBlockReference
  2
_CLOSEDFILLED
 10
692.0
 20
20.0
 30
0.0
 41
6.0
 42
6.0
  0
LINE
  5
25F
330
256
100
AcDbEntity
  8
0
 62
6
100
AcDbLine
 10
594.0
 20
20.0
 30
0.0
 11
686.0
 21
20.0
 31
0.0
  0
MTEXT
  5
260
330
256
100
AcDbEntity
  8
09_РАЗМЕРЫ
 62
7
100
AcDbMText
 10
640.0
 20
25.5
 30
0.0
 40
7.0
 71
5
  1
104
  7
ГОСТ
  0
POINT
  5
261
330
256
100
AcDbEntity
  8
Defpoints
100
AcDbPoint
 10
588.0
 20
20.0
 30
0.0
  0
POINT
  5
262
330
256
100
AcDbEntity
  8
Defpoints
100
AcDbPoint
 10
588.0
 20
-59.0
 30
0.0
  0
POINT
  5
263
330
256
100
AcDbEntity
  8
Defpoints
100
AcDbPoint
 10
692.0
 20
-59.0
 30
0.0
  0
ENDBLK
  5
258
330
256
100
AcDbEntity
  8
0
100
AcDbBlockEnd
  0
BLOCK
  5
266
330
265
100
AcDbEntity
  8
0
100
AcDbBlockBegin
  2
*D16
 70
1
 10
0.0
 20
0.0
 30
0.0
  3
*D16
  1

  0
LINE
  5
268
330
265
100
AcDbEntity
  8
0
 62
6
100
AcDbLine
 10
705.0
 20
-519.0
 30
0.0
 11
844.0
 21
-519.0
 31
0.0
  0
LINE
  5
269
330
265
100
AcDbEntity
  8
0
 62
6
100
AcDbLine
 10
705.0
 20
-247.0
 30
0.0
 11
844.0
 21
-247.0
 31
0.0
  0
INSERT
  5
26A
330
265
100
AcDbEntity
  8
09_РАЗМЕРЫ
 62
6
100
AcDbBlockReference
  2
_CLOSEDFILLED
 10
840.0
 20
-519.0
 30
0.0
 41
6.0
 42
6.0
 50
270.0
  0
INSERT
  5
26C
330
265
100
AcDbEntity
  8
09_РАЗМЕРЫ
 62
6
100
AcDbBlockReference
  2
_CLOSEDFILLED
 10
840.0
 20
-247.0
 30
0.0
 41
6.0
 42
6.0
 50
90.0
  0
LINE
  5
26E
330
265
100
AcDbEntity
  8
0
 62
6
100
AcDbLine
 10
840.0
 20
-513.0
 30
0.0
 11
840.0
 21
-253.0
 31
0.0
  0
MTEXT
  5
26F
330
265
100
AcDbEntity
  8
09_РАЗМЕРЫ
 62
7
100
AcDbMText
 10
834.5
 20
-383.0
 30
0.0
 40
7.0
 71
5
  1
272 (балка Т 260 × 8 / 130 × 12)
  7
ГОСТ
 50
90.0
  0
POINT
  5
270
330
265
100
AcDbEntity
  8
Defpoints
100
AcDbPoint
 10
840.0
 20
-519.0
 30
0.0
  0
POINT
  5
271
330
265
100
AcDbEntity
  8
Defpoints
100
AcDbPoint
 10
705.0
 20
-519.0
 30
0.0
  0
POINT
  5
272
330
265
100
AcDbEntity
  8
Defpoints
100
AcDbPoint
 10
705.0
 20
-247.0
 30
0.0
  0
ENDBLK
  5
267
330
265
100
AcDbEntity
  8
0
100
AcDbBlockEnd
  0
ENDSEC
  0
SECTION
  2
ENTITIES
  0
HATCH
  5
A2
330
17
100
AcDbEntity
  8
23_ШТРИХОВКА
 62
7
100
AcDbHatch
 10
0.0
 20
0.0
 30
0.0
210
0.0
220
0.0
230
1.0
  2
ANSI31
 70
0
 71
0
 91
1
 92
3
 72
0
 73
1
 93
4
 10
190.0
 20
-247.0
 10
190.0
 20
-241.0
 10
-390.0
 20
-241.0
 10
-390.0
 20
-247.0
 97
0
 75
1
 76
1
 52
90.0
 41
0.6
 77
0
 78
1
 53
135.0
 43
0.0
 44
0.0
 45
-1.3470384182
 46
-1.3470384182
 79
0
 98
0
  0
LWPOLYLINE
  5
A3
330
17
100
AcDbEntity
  8
20_ВИДИМЫЕ
100
AcDbPolyline
 90
5
 70
1
 10
190.0
 20
-247.0
 10
190.0
 20
-241.0
 10
-390.0
 20
-241.0
 10
-390.0
 20
-247.0
 10
190.0
 20
-247.0
  0
HATCH
  5
A4
330
17
100
AcDbEntity
  8
23_ШТРИХОВКА
 62
7
100
AcDbHatch
 10
0.0
 20
0.0
 30
0.0
210
0.0
220
0.0
230
1.0
  2
ANSI31
 70
0
 71
0
 91
1
 92
3
 72
0
 73
1
 93
4
 10
130.0
 20
-241.0
 10
130.0
 20
-233.0
 10
-250.0
 20
-233.0
 10
-250.0
 20
-241.0
 97
0
 75
1
 76
1
 52
0.0
 41
0.6
 77
0
 78
1
 53
45.0
 43
0.0
 44
0.0
 45
-1.3470384182
 46
1.3470384182
 79
0
 98
0
  0
LWPOLYLINE
  5
A5
330
17
100
AcDbEntity
  8
20_ВИДИМЫЕ
100
AcDbPolyline
 90
5
 70
1
 10
130.0
 20
-241.0
 10
130.0
 20
-233.0
 10
-250.0
 20
-233.0
 10
-250.0
 20
-241.0
 10
130.0
 20
-241.0
  0
HATCH
  5
A6
330
17
100
AcDbEntity
  8
23_ШТРИХОВКА
 62
7
100
AcDbHatch
 10
0.0
 20
0.0
 30
0.0
210
0.0
220
0.0
230
1.0
  2
ANSI37
 70
0
 71
0
 91
1
 92
3
 72
0
 73
1
 93
4
 10
60.0
 20
-233.0
 10
60.0
 20
-230.0
 10
-180.0
 20
-230.0
 10
-180.0
 20
-233.0
 97
0
 75
1
 76
1
 52
0.0
 41
0.35
 77
0
 78
2
 53
45.0
 43
0.0
 44
0.0
 45
-0.7857724106
 46
0.7857724106
 79
0
 53
135.0
 43
0.0
 44
0.0
 45
-0.7857724106
 46
-0.7857724106
 79
0
 98
0
  0
LWPOLYLINE
  5
A7
330
17
100
AcDbEntity
  8
20_ВИДИМЫЕ
100
AcDbPolyline
 90
5
 70
1
 10
60.0
 20
-233.0
 10
60.0
 20
-230.0
 10
-180.0
 20
-230.0
 10
-180.0
 20
-233.0
 10
60.0
 20
-233.0
  0
HATCH
  5
A8
330
17
100
AcDbEntity
  8
23_ШТРИХОВКА
 62
7
100
AcDbHatch
 10
0.0
 20
0.0
 30
0.0
210
0.0
220
0.0
230
1.0
  2
ANSI31
 70
0
 71
0
 91
1
 92
3
 72
0
 73
1
 93
4
 10
190.0
 20
-307.0
 10
190.0
 20
-247.0
 10
-390.0
 20
-247.0
 10
-390.0
 20
-307.0
 97
0
 75
1
 76
1
 52
90.0
 41
1.8
 77
0
 78
1
 53
135.0
 43
0.0
 44
0.0
 45
-4.0411152545
 46
-4.0411152545
 79
0
 98
0
  0
LWPOLYLINE
  5
A9
330
17
100
AcDbEntity
  8
20_ВИДИМЫЕ
100
AcDbPolyline
 90
5
 70
1
 10
190.0
 20
-307.0
 10
190.0
 20
-247.0
 10
-390.0
 20
-247.0
 10
-390.0
 20
-307.0
 10
190.0
 20
-307.0
  0
LWPOLYLINE
  5
AA
330
17
100
AcDbEntity
  8
22_ТОНКИЕ
100
AcDbPolyline
 90
6
 70
0
 10
-390.0
 20
-307.0
 10
-106.0
 20
-307.0
 10
-102.0
 20
-312.0
 10
-98.0
 20
-302.0
 10
-94.0
 20
-307.0
 10
190.0
 20
-307.0
  0
LWPOLYLINE
  5
AB
330
17
100
AcDbEntity
  8
22_ТОНКИЕ
100
AcDbPolyline
 90
6
 70
0
 10
-390.0
 20
-313.0
 10
-390.0
 20
-280.0
 10
-395.0
 20
-276.0
 10
-385.0
 20
-272.0
 10
-390.0
 20
-268.0
 10
-390.0
 20
-235.0
  0
LWPOLYLINE
  5
AC
330
17
100
AcDbEntity
  8
22_ТОНКИЕ
100
AcDbPolyline
 90
6
 70
0
 10
190.0
 20
-313.0
 10
190.0
 20
-280.0
 10
185.0
 20
-276.0
 10
195.0
 20
-272.0
 10
190.0
 20
-268.0
 10
190.0
 20
-235.0
  0
HATCH
  5
AD
330
17
100
AcDbEntity
  8
23_ШТРИХОВКА
 62
7
100
AcDbHatch
 10
0.0
 20
0.0
 30
0.0
210
0.0
220
0.0
230
1.0
  2
ANSI31
 70
0
 71
0
 91
1
 92
3
 72
0
 73
1
 93
7
 10
-121.0
 20
-182.0
 10
-121.0
 20
-230.0
 10
-145.0
 20
-230.0
 10
-180.0
 20
-230.0
 10
-180.0
 20
-204.0
 10
-145.0
 20
-204.0
 10
-145.0
 20
-182.0
 97
0
 75
1
 76
1
 52
0.0
 41
1.0
 77
0
 78
1
 53
45.0
 43
0.0
 44
0.0
 45
-2.2450640303
 46
2.2450640303
 79
0
 98
0
  0
LWPOLYLINE
  5
AE
330
17
100
AcDbEntity
  8
20_ВИДИМЫЕ
100
AcDbPolyline
 90
8
 70
1
 10
-121.0
 20
-182.0
 10
-121.0
 20
-230.0
 10
-145.0
 20
-230.0
 10
-180.0
 20
-230.0
 10
-180.0
 20
-204.0
 10
-145.0
 20
-204.0
 10
-145.0
 20
-182.0
 10
-121.0
 20
-182.0
  0
HATCH
  5
AF
330
17
100
AcDbEntity
  8
23_ШТРИХОВКА
 62
7
100
AcDbHatch
 10
0.0
 20
0.0
 30
0.0
210
0.0
220
0.0
230
1.0
  2
ANSI31
 70
0
 71
0
 91
1
 92
3
 72
0
 73
1
 93
10
 10
-1.0
 20
-90.0
 10
-1.0
 20
-106.0
 10
25.0
 20
-106.0
 10
25.0
 20
-116.5
 10
-2.0
 20
-116.5
 10
-2.0
 20
-118.5
 10
-42.0
 20
-118.5
 10
-42.0
 20
-95.0
 10
-38.0
 20
-95.0
 10
-38.0
 20
-90.0
 97
0
 75
1
 76
1
 52
0.0
 41
1.0
 77
0
 78
1
 53
45.0
 43
0.0
 44
0.0
 45
-2.2450640303
 46
2.2450640303
 79
0
 98
0
  0
LWPOLYLINE
  5
B0
330
17
100
AcDbEntity
  8
20_ВИДИМЫЕ
100
AcDbPolyline
 90
11
 70
1
 10
-1.0
 20
-90.0
 10
-1.0
 20
-106.0
 10
25.0
 20
-106.0
 10
25.0
 20
-116.5
 10
-2.0
 20
-116.5
 10
-2.0
 20
-118.5
 10
-42.0
 20
-118.5
 10
-42.0
 20
-95.0
 10
-38.0
 20
-95.0
 10
-38.0
 20
-90.0
 10
-1.0
 20
-90.0
  0
HATCH
  5
B1
330
17
100
AcDbEntity
  8
23_ШТРИХОВКА
 62
7
100
AcDbHatch
 10
0.0
 20
0.0
 30
0.0
210
0.0
220
0.0
230
1.0
  2
ANSI31
 70
0
 71
0
 91
1
 92
3
 72
0
 73
1
 93
10
 10
-2.0
 20
-125.5
 10
25.0
 20
-125.5
 10
25.0
 20
-204.0
 10
60.0
 20
-204.0
 10
60.0
 20
-224.0
 10
1.0
 20
-224.0
 10
1.0
 20
-136.0
 10
-42.0
 20
-136.0
 10
-42.0
 20
-123.5
 10
-2.0
 20
-123.5
 97
0
 75
1
 76
1
 52
0.0
 41
1.0
 77
0
 78
1
 53
45.0
 43
0.0
 44
0.0
 45
-2.2450640303
 46
2.2450640303
 79
0
 98
0
  0
LWPOLYLINE
  5
B2
330
17
100
AcDbEntity
  8
20_ВИДИМЫЕ
100
AcDbPolyline
 90
11
 70
1
 10
-2.0
 20
-125.5
 10
25.0
 20
-125.5
 10
25.0
 20
-204.0
 10
60.0
 20
-204.0
 10
60.0
 20
-224.0
 10
1.0
 20
-224.0
 10
1.0
 20
-136.0
 10
-42.0
 20
-136.0
 10
-42.0
 20
-123.5
 10
-2.0
 20
-123.5
 10
-2.0
 20
-125.5
  0
HATCH
  5
B3
330
17
100
AcDbEntity
  8
23_ШТРИХОВКА
 62
7
100
AcDbHatch
 10
0.0
 20
0.0
 30
0.0
210
0.0
220
0.0
230
1.0
  2
ANSI31
 70
0
 71
0
 91
1
 92
3
 72
0
 73
1
 93
10
 10
-119.0
 20
-106.0
 10
-119.0
 20
-90.0
 10
-82.0
 20
-90.0
 10
-82.0
 20
-95.0
 10
-78.0
 20
-95.0
 10
-78.0
 20
-136.0
 10
-121.0
 20
-136.0
 10
-121.0
 20
-154.0
 10
-145.0
 20
-154.0
 10
-145.0
 20
-106.0
 97
0
 75
1
 76
1
 52
0.0
 41
1.0
 77
0
 78
1
 53
45.0
 43
0.0
 44
0.0
 45
-2.2450640303
 46
2.2450640303
 79
0
 98
0
  0
LWPOLYLINE
  5
B4
330
17
100
AcDbEntity
  8
20_ВИДИМЫЕ
100
AcDbPolyline
 90
11
 70
1
 10
-119.0
 20
-106.0
 10
-119.0
 20
-90.0
 10
-82.0
 20
-90.0
 10
-82.0
 20
-95.0
 10
-78.0
 20
-95.0
 10
-78.0
 20
-136.0
 10
-121.0
 20
-136.0
 10
-121.0
 20
-154.0
 10
-145.0
 20
-154.0
 10
-145.0
 20
-106.0
 10
-119.0
 20
-106.0
  0
LWPOLYLINE
  5
B5
330
17
100
AcDbEntity
  8
20_ВИДИМЫЕ
100
AcDbPolyline
 90
7
 70
1
 10
-87.0
 20
-77.0
 10
-33.0
 20
-77.0
 10
-33.0
 20
-59.0
 10
-47.0
 20
-32.0
 10
-73.0
 20
-32.0
 10
-87.0
 20
-59.0
 10
-87.0
 20
-77.0
  0
LWPOLYLINE
  5
B6
330
17
100
AcDbEntity
  8
20_ВИДИМЫЕ
100
AcDbPolyline
 90
5
 70
1
 10
-38.0
 20
-95.0
 10
-38.0
 20
-77.0
 10
-82.0
 20
-77.0
 10
-82.0
 20
-95.0
 10
-38.0
 20
-95.0
  0
LWPOLYLINE
  5
B7
330
17
100
AcDbEntity
  8
20_ВИДИМЫЕ
100
AcDbPolyline
 90
5
 70
1
 10
-42.0
 20
-136.0
 10
-42.0
 20
-95.0
 10
-78.0
 20
-95.0
 10
-78.0
 20
-136.0
 10
-42.0
 20
-136.0
  0
LWPOLYLINE
  5
B8
330
17
100
AcDbEntity
  8
20_ВИДИМЫЕ
100
AcDbPolyline
 90
5
 70
1
 10
-43.5
 20
-154.0
 10
-43.5
 20
-136.0
 10
-76.5
 20
-136.0
 10
-76.5
 20
-154.0
 10
-43.5
 20
-154.0
  0
LWPOLYLINE
  5
B9
330
17
100
AcDbEntity
  8
20_ВИДИМЫЕ
100
AcDbPolyline
 90
5
 70
1
 10
-49.0
 20
-184.0
 10
-49.0
 20
-154.0
 10
-71.0
 20
-154.0
 10
-71.0
 20
-184.0
 10
-49.0
 20
-184.0
  0
LWPOLYLINE
  5
BA
330
17
100
AcDbEntity
  8
20_ВИДИМЫЕ
100
AcDbPolyline
 90
5
 70
1
 10
-31.0
 20
-138.0
 10
-31.0
 20
-136.0
 10
-89.0
 20
-136.0
 10
-89.0
 20
-138.0
 10
-31.0
 20
-138.0
  0
LWPOLYLINE
  5
BB
330
17
100
AcDbEntity
  8
20_ВИДИМЫЕ
100
AcDbPolyline
 90
5
 70
1
 10
-32.0
 20
-139.5
 10
-32.0
 20
-138.0
 10
-88.0
 20
-138.0
 10
-88.0
 20
-139.5
 10
-32.0
 20
-139.5
  0
LWPOLYLINE
  5
BC
330
17
100
AcDbEntity
  8
20_ВИДИМЫЕ
100
AcDbPolyline
 90
5
 70
1
 10
-34.0
 20
-149.5
 10
-34.0
 20
-139.5
 10
-86.0
 20
-139.5
 10
-86.0
 20
-149.5
 10
-34.0
 20
-149.5
  0
LWPOLYLINE
  5
BD
330
17
100
AcDbEntity
  8
20_ВИДИМЫЕ
100
AcDbPolyline
 90
5
 70
1
 10
-40.0
 20
-188.0
 10
-40.0
 20
-184.0
 10
-80.0
 20
-184.0
 10
-80.0
 20
-188.0
 10
-40.0
 20
-188.0
  0
LWPOLYLINE
  5
BE
330
17
100
AcDbEntity
  8
20_ВИДИМЫЕ
100
AcDbPolyline
 90
5
 70
1
 10
-53.5
 20
-196.0
 10
-53.5
 20
-188.0
 10
-66.5
 20
-188.0
 10
-66.5
 20
-196.0
 10
-53.5
 20
-196.0
  0
LWPOLYLINE
  5
BF
330
17
100
AcDbEntity
  8
20_ВИДИМЫЕ
100
AcDbPolyline
 90
5
 70
1
 10
-34.0
 20
-184.0
 10
-34.0
 20
-154.0
 10
-86.0
 20
-154.0
 10
-86.0
 20
-184.0
 10
-34.0
 20
-184.0
  0
LWPOLYLINE
  5
C0
330
17
100
AcDbEntity
  8
20_ВИДИМЫЕ
100
AcDbPolyline
 90
5
 70
1
 10
-86.0
 20
-176.0
 10
-86.0
 20
-160.0
 10
-320.0
 20
-160.0
 10
-320.0
 20
-176.0
 10
-86.0
 20
-176.0
  0
LWPOLYLINE
  5
C1
330
17
100
AcDbEntity
  8
20_ВИДИМЫЕ
100
AcDbPolyline
 90
5
 70
1
 10
-302.0
 20
-160.0
 10
-302.0
 20
-110.0
 10
-326.0
 20
-110.0
 10
-326.0
 20
-160.0
 10
-302.0
 20
-160.0
  0
LWPOLYLINE
  5
C2
330
17
100
AcDbEntity
  8
20_ВИДИМЫЕ
100
AcDbPolyline
 90
5
 70
0
 10
-195.0
 20
-204.0
 10
-195.0
 20
-182.0
 10
-225.0
 20
-182.0
 10
-225.0
 20
-204.0
 10
-195.0
 20
-204.0
  0
LWPOLYLINE
  5
C3
330
17
100
AcDbEntity
  8
20_ВИДИМЫЕ
100
AcDbPolyline
 90
5
 70
1
 10
-198.0
 20
-160.0
 10
-198.0
 20
-148.0
 10
-222.0
 20
-148.0
 10
-222.0
 20
-160.0
 10
-198.0
 20
-160.0
  0
LWPOLYLINE
  5
C4
330
17
100
AcDbEntity
  8
20_ВИДИМЫЕ
100
AcDbPolyline
 90
5
 70
1
 10
-202.0
 20
-148.0
 10
-202.0
 20
-130.0
 10
-218.0
 20
-130.0
 10
-218.0
 20
-148.0
 10
-202.0
 20
-148.0
  0
LWPOLYLINE
  5
C5
330
17
100
AcDbEntity
  8
21_НЕВИДИМЫЕ
100
AcDbPolyline
 90
5
 70
1
 10
-205.0
 20
-190.0
 10
-205.0
 20
-176.0
 10
-215.0
 20
-176.0
 10
-215.0
 20
-190.0
 10
-205.0
 20
-190.0
  0
CIRCLE
  5
C6
330
17
100
AcDbEntity
  8
20_ВИДИМЫЕ
100
AcDbCircle
 10
-210.0
 20
-126.0
 30
0.0
 40
10.0
  0
LWPOLYLINE
  5
C7
330
17
100
AcDbEntity
  8
20_ВИДИМЫЕ
100
AcDbPolyline
 90
3
 70
0
 10
-118.0
 20
-206.0
 10
-118.0
 20
-202.0
 10
-121.05
 20
-202.0
  0
LWPOLYLINE
  5
C8
330
17
100
AcDbEntity
  8
20_ВИДИМЫЕ
100
AcDbPolyline
 90
3
 70
0
 10
-144.95
 20
-202.0
 10
-162.0
 20
-202.0
 10
-162.0
 20
-204.05
  0
LWPOLYLINE
  5
C9
330
17
100
AcDbEntity
  8
20_ВИДИМЫЕ
100
AcDbPolyline
 90
2
 70
0
 10
-121.05
 20
-206.0
 10
-118.0
 20
-206.0
  0
LWPOLYLINE
  5
CA
330
17
100
AcDbEntity
  8
20_ВИДИМЫЕ
100
AcDbPolyline
 90
3
 70
0
 10
-119.2
 20
-202.0
 10
-119.2
 20
-187.0
 10
-121.05
 20
-187.0
  0
LWPOLYLINE
  5
CB
330
17
100
AcDbEntity
  8
20_ВИДИМЫЕ
100
AcDbPolyline
 90
4
 70
0
 10
-144.95
 20
-187.0
 10
-160.8
 20
-187.0
 10
-160.8
 20
-202.0
 10
-144.95
 20
-202.0
  0
LWPOLYLINE
  5
CC
330
17
100
AcDbEntity
  8
20_ВИДИМЫЕ
100
AcDbPolyline
 90
2
 70
0
 10
-121.05
 20
-202.0
 10
-119.2
 20
-202.0
  0
LWPOLYLINE
  5
CD
330
17
100
AcDbEntity
  8
20_ВИДИМЫЕ
100
AcDbPolyline
 90
4
 70
0
 10
-144.95
 20
-187.0
 10
-147.0
 20
-187.0
 10
-147.0
 20
-202.0
 10
-144.95
 20
-202.0
  0
LWPOLYLINE
  5
CE
330
17
100
AcDbEntity
  8
20_ВИДИМЫЕ
100
AcDbPolyline
 90
5
 70
0
 10
-115.0
 20
-250.0
 10
-115.0
 20
-247.0
 10
-165.0
 20
-247.0
 10
-165.0
 20
-250.0
 10
-115.0
 20
-250.0
  0
LWPOLYLINE
  5
CF
330
17
100
AcDbEntity
  8
20_ВИДИМЫЕ
100
AcDbPolyline
 90
5
 70
0
 10
-118.0
 20
-254.0
 10
-118.0
 20
-250.0
 10
-162.0
 20
-250.0
 10
-162.0
 20
-254.0
 10
-118.0
 20
-254.0
  0
LWPOLYLINE
  5
D0
330
17
100
AcDbEntity
  8
20_ВИДИМЫЕ
100
AcDbPolyline
 90
5
 70
0
 10
-119.2
 20
-278.0
 10
-119.2
 20
-254.0
 10
-160.8
 20
-254.0
 10
-160.8
 20
-278.0
 10
-119.2
 20
-278.0
  0
LWPOLYLINE
  5
D1
330
17
100
AcDbEntity
  8
20_ВИДИМЫЕ
100
AcDbPolyline
 90
5
 70
0
 10
-133.0
 20
-278.0
 10
-133.0
 20
-254.0
 10
-147.0
 20
-254.0
 10
-147.0
 20
-278.0
 10
-133.0
 20
-278.0
  0
LWPOLYLINE
  5
D2
330
17
100
AcDbEntity
  8
20_ВИДИМЫЕ
100
AcDbPolyline
 90
5
 70
0
 10
-128.0
 20
-281.0
 10
-128.0
 20
-278.0
 10
-152.0
 20
-278.0
 10
-152.0
 20
-281.0
 10
-128.0
 20
-281.0
  0
LINE
  5
D3
330
17
100
AcDbEntity
  8
07_ОСИ
100
AcDbLine
 10
-140.0
 20
-181.0
 30
0.0
 11
-140.0
 21
-286.0
 31
0.0
  0
LWPOLYLINE
  5
D4
330
17
100
AcDbEntity
  8
20_ВИДИМЫЕ
100
AcDbPolyline
 90
3
 70
0
 10
42.0
 20
-204.05
 10
42.0
 20
-202.0
 10
24.950000000000003
 20
-202.0
  0
LWPOLYLINE
  5
D5
330
17
100
AcDbEntity
  8
20_ВИДИМЫЕ
100
AcDbPolyline
 90
4
 70
0
 10
1.0499999999999972
 20
-202.0
 10
-2.0
 20
-202.0
 10
-2.0
 20
-206.0
 10
1.0499999999999972
 20
-206.0
  0
LWPOLYLINE
  5
D6
330
17
100
AcDbEntity
  8
20_ВИДИМЫЕ
100
AcDbPolyline
 90
3
 70
0
 10
40.8
 20
-202.0
 10
40.8
 20
-187.0
 10
24.950000000000003
 20
-187.0
  0
LWPOLYLINE
  5
D7
330
17
100
AcDbEntity
  8
20_ВИДИМЫЕ
100
AcDbPolyline
 90
4
 70
0
 10
1.0499999999999972
 20
-187.0
 10
-0.7999999999999972
 20
-187.0
 10
-0.7999999999999972
 20
-202.0
 10
1.0499999999999972
 20
-202.0
  0
LWPOLYLINE
  5
D8
330
17
100
AcDbEntity
  8
20_ВИДИМЫЕ
100
AcDbPolyline
 90
2
 70
0
 10
24.950000000000003
 20
-202.0
 10
40.8
 20
-202.0
  0
LWPOLYLINE
  5
D9
330
17
100
AcDbEntity
  8
20_ВИДИМЫЕ
100
AcDbPolyline
 90
3
 70
0
 10
27.0
 20
-202.0
 10
27.0
 20
-187.0
 10
24.950000000000003
 20
-187.0
  0
LWPOLYLINE
  5
DA
330
17
100
AcDbEntity
  8
20_ВИДИМЫЕ
100
AcDbPolyline
 90
2
 70
0
 10
24.950000000000003
 20
-202.0
 10
27.0
 20
-202.0
  0
LWPOLYLINE
  5
DB
330
17
100
AcDbEntity
  8
20_ВИДИМЫЕ
100
AcDbPolyline
 90
5
 70
0
 10
45.0
 20
-250.0
 10
45.0
 20
-247.0
 10
-5.0
 20
-247.0
 10
-5.0
 20
-250.0
 10
45.0
 20
-250.0
  0
LWPOLYLINE
  5
DC
330
17
100
AcDbEntity
  8
20_ВИДИМЫЕ
100
AcDbPolyline
 90
5
 70
0
 10
42.0
 20
-254.0
 10
42.0
 20
-250.0
 10
-2.0
 20
-250.0
 10
-2.0
 20
-254.0
 10
42.0
 20
-254.0
  0
LWPOLYLINE
  5
DD
330
17
100
AcDbEntity
  8
20_ВИДИМЫЕ
100
AcDbPolyline
 90
5
 70
0
 10
40.8
 20
-278.0
 10
40.8
 20
-254.0
 10
-0.7999999999999972
 20
-254.0
 10
-0.7999999999999972
 20
-278.0
 10
40.8
 20
-278.0
  0
LWPOLYLINE
  5
DE
330
17
100
AcDbEntity
  8
20_ВИДИМЫЕ
100
AcDbPolyline
 90
5
 70
0
 10
27.0
 20
-278.0
 10
27.0
 20
-254.0
 10
13.0
 20
-254.0
 10
13.0
 20
-278.0
 10
27.0
 20
-278.0
  0
LWPOLYLINE
  5
DF
330
17
100
AcDbEntity
  8
20_ВИДИМЫЕ
100
AcDbPolyline
 90
5
 70
0
 10
32.0
 20
-281.0
 10
32.0
 20
-278.0
 10
8.0
 20
-278.0
 10
8.0
 20
-281.0
 10
32.0
 20
-281.0
  0
LINE
  5
E0
330
17
100
AcDbEntity
  8
07_ОСИ
100
AcDbLine
 10
20.0
 20
-181.0
 30
0.0
 11
20.0
 21
-286.0
 31
0.0
  0
LWPOLYLINE
  5
E1
330
17
100
AcDbEntity
  8
24_ФАНТОМ
100
AcDbPolyline
 90
13
 70
0
 10
-161.5
 20
-106.0
 10
-122.25
 20
-106.0
 10
-122.25
 20
-78.0
 10
-149.5
 20
-78.0
 10
-149.5
 20
0.0
 10
4.5
 20
0.0
 10
4.5
 20
-78.0
 10
2.25
 20
-78.0
 10
2.25
 20
-106.0
 10
16.5
 20
-106.0
 10
16.5
 20
12.0
 10
-161.5
 20
12.0
 10
-161.5
 20
-106.0
  0
LINE
  5
E2
330
17
100
AcDbEntity
  8
07_ОСИ
100
AcDbLine
 10
-60.0
 20
-322.0
 30
0.0
 11
-60.0
 21
-7.0
 31
0.0
  0
TEXT
  5
E3
330
17
100
AcDbEntity
  8
08_ТЕКСТ
100
AcDbText
 10
-120.0
 20
55.0
 30
0.0
 40
14.0
  1
А–А
  7
ГОСТ
 72
1
 11
-120.0
 21
55.0
 31
0.0
100
AcDbText
 73
1
  0
TEXT
  5
E4
330
17
100
AcDbEntity
  8
08_ТЕКСТ
100
AcDbText
 10
-120.0
 20
38.0
 30
0.0
 40
6.0
  1
рычаг, фиксатор и прилив условно повёрнуты в плоскость разреза
  7
ГОСТ
 72
1
 11
-120.0
 21
38.0
 31
0.0
100
AcDbText
 73
2
  0
DIMENSION
  5
E5
330
17
100
AcDbEntity
  8
09_РАЗМЕРЫ
100
AcDbDimension
280
0
  2
*D1
  3
ГОСТ
 10
240.0
 20
-241.0
 30
0.0
 11
234.5
 21
-173.5
 31
0.0
 70
32
 71
5
  1
<>
100
AcDbAlignedDimension
 13
50.0
 23
-241.0
 33
0.0
 14
50.0
 24
-106.0
 34
0.0
 50
90.0
100
AcDbRotatedDimension
1001
ACAD
1000
DSTYLE
1002
{
1070
340
1005
99
1002
}
  0
DIMENSION
  5
F4
330
17
100
AcDbEntity
  8
09_РАЗМЕРЫ
100
AcDbDimension
280
0
  2
*D2
  3
ГОСТ
 10
280.0
 20
-241.0
 30
0.0
 11
274.5
 21
-136.5
 31
0.0
 70
32
 71
5
  1
<>
100
AcDbAlignedDimension
 13
50.0
 23
-241.0
 33
0.0
 14
50.0
 24
-32.0
 34
0.0
 50
90.0
100
AcDbRotatedDimension
1001
ACAD
1000
DSTYLE
1002
{
1070
340
1005
99
1002
}
  0
DIMENSION
  5
103
330
17
100
AcDbEntity
  8
09_РАЗМЕРЫ
100
AcDbDimension
280
0
  2
*D3
  3
ГОСТ
 10
190.0
 20
-106.0
 30
0.0
 11
184.5
 21
-91.5
 31
0.0
 70
32
 71
5
  1
29*
100
AcDbAlignedDimension
 13
10.0
 23
-106.0
 33
0.0
 14
10.0
 24
-77.0
 34
0.0
 50
90.0
100
AcDbRotatedDimension
1001
ACAD
1000
DSTYLE
1002
{
1070
340
1005
99
1002
}
  0
DIMENSION
  5
112
330
17
100
AcDbEntity
  8
09_РАЗМЕРЫ
100
AcDbDimension
280
0
  2
*D4
  3
ГОСТ
 10
-180.0
 20
-342.0
 30
0.0
 11
-60.0
 21
-336.5
 31
0.0
 70
32
 71
5
  1
<>
100
AcDbAlignedDimension
 13
-180.0
 23
-230.0
 33
0.0
 14
60.0
 24
-230.0
 34
0.0
 50
0.0
100
AcDbRotatedDimension
1001
ACAD
1000
DSTYLE
1002
{
1070
340
1005
99
1002
}
  0
DIMENSION
  5
121
330
17
100
AcDbEntity
  8
09_РАЗМЕРЫ
100
AcDbDimension
280
0
  2
*D5
  3
ГОСТ
 10
-140.0
 20
-372.0
 30
0.0
 11
-60.0
 21
-366.5
 31
0.0
 70
32
 71
5
  1
<>
100
AcDbAlignedDimension
 13
-140.0
 23
-287.0
 33
0.0
 14
20.0
 24
-287.0
 34
0.0
 50
0.0
100
AcDbRotatedDimension
1001
ACAD
1000
DSTYLE
1002
{
1070
340
1005
99
1002
}
  0
DIMENSION
  5
130
330
17
100
AcDbEntity
  8
09_РАЗМЕРЫ
100
AcDbDimension
280
0
  2
*D6
  3
ГОСТ
 10
-320.0
 20
-5.0
 30
0.0
 11
-190.0
 21
0.5
 31
0.0
 70
32
 71
5
  1
260*
100
AcDbAlignedDimension
 13
-320.0
 23
-110.0
 33
0.0
 14
-60.0
 24
-110.0
 34
0.0
 50
0.0
100
AcDbRotatedDimension
1001
ACAD
1000
DSTYLE
1002
{
1070
340
1005
99
1002
}
  0
CIRCLE
  5
13F
330
17
100
AcDbEntity
  8
09_РАЗМЕРЫ
100
AcDbCircle
 10
-60.0
 20
-47.0
 30
0.0
 40
1.8
  0
HATCH
  5
140
330
17
100
AcDbEntity
  8
09_РАЗМЕРЫ
 62
7
100
AcDbHatch
 10
0.0
 20
0.0
 30
0.0
210
0.0
220
0.0
230
1.0
  2
SOLID
 70
1
 71
0
 91
1
 92
1
 93
1
 72
2
 10
-60.0
 20
-47.0
 40
1.8
 50
0
 51
360
 73
1
 97
0
 75
0
 76
1
 98
0
  0
LINE
  5
141
330
17
100
AcDbEntity
  8
09_РАЗМЕРЫ
100
AcDbLine
 10
-60.0
 20
-47.0
 30
0.0
 11
60.0
 21
20.0
 31
0.0
  0
LINE
  5
142
330
17
100
AcDbEntity
  8
09_РАЗМЕРЫ
100
AcDbLine
 10
60.0
 20
20.0
 30
0.0
 11
78.0
 21
20.0
 31
0.0
  0
TEXT
  5
143
330
17
100
AcDbEntity
  8
08_ТЕКСТ
100
AcDbText
 10
69.0
 20
22.0
 30
0.0
 40
10.0
  1
2
  7
ГОСТ
 72
1
 11
69.0
 21
22.0
 31
0.0
100
AcDbText
 73
1
  0
CIRCLE
  5
144
330
17
100
AcDbEntity
  8
09_РАЗМЕРЫ
100
AcDbCircle
 10
-38.0
 20
-137.0
 30
0.0
 40
1.8
  0
HATCH
  5
145
330
17
100
AcDbEntity
  8
09_РАЗМЕРЫ
 62
7
100
AcDbHatch
 10
0.0
 20
0.0
 30
0.0
210
0.0
220
0.0
230
1.0
  2
SOLID
 70
1
 71
0
 91
1
 92
1
 93
1
 72
2
 10
-38.0
 20
-137.0
 40
1.8
 50
0
 51
360
 73
1
 97
0
 75
0
 76
1
 98
0
  0
LINE
  5
146
330
17
100
AcDbEntity
  8
09_РАЗМЕРЫ
100
AcDbLine
 10
-38.0
 20
-137.0
 30
0.0
 11
110.0
 21
-30.0
 31
0.0
  0
LINE
  5
147
330
17
100
AcDbEntity
  8
09_РАЗМЕРЫ
100
AcDbLine
 10
110.0
 20
-30.0
 30
0.0
 11
128.0
 21
-30.0
 31
0.0
  0
TEXT
  5
148
330
17
100
AcDbEntity
  8
08_ТЕКСТ
100
AcDbText
 10
119.0
 20
-28.0
 30
0.0
 40
10.0
  1
4
  7
ГОСТ
 72
1
 11
119.0
 21
-28.0
 31
0.0
100
AcDbText
 73
1
  0
CIRCLE
  5
149
330
17
100
AcDbEntity
  8
09_РАЗМЕРЫ
100
AcDbCircle
 10
-36.0
 20
-144.0
 30
0.0
 40
1.8
  0
HATCH
  5
14A
330
17
100
AcDbEntity
  8
09_РАЗМЕРЫ
 62
7
100
AcDbHatch
 10
0.0
 20
0.0
 30
0.0
210
0.0
220
0.0
230
1.0
  2
SOLID
 70
1
 71
0
 91
1
 92
1
 93
1
 72
2
 10
-36.0
 20
-144.0
 40
1.8
 50
0
 51
360
 73
1
 97
0
 75
0
 76
1
 98
0
  0
LINE
  5
14B
330
17
100
AcDbEntity
  8
09_РАЗМЕРЫ
100
AcDbLine
 10
-36.0
 20
-144.0
 30
0.0
 11
110.0
 21
-55.0
 31
0.0
  0
LINE
  5
14C
330
17
100
AcDbEntity
  8
09_РАЗМЕРЫ
100
AcDbLine
 10
110.0
 20
-55.0
 30
0.0
 11
128.0
 21
-55.0
 31
0.0
  0
TEXT
  5
14D
330
17
100
AcDbEntity
  8
08_ТЕКСТ
100
AcDbText
 10
119.0
 20
-53.0
 30
0.0
 40
10.0
  1
12
  7
ГОСТ
 72
1
 11
119.0
 21
-53.0
 31
0.0
100
AcDbText
 73
1
  0
CIRCLE
  5
14E
330
17
100
AcDbEntity
  8
09_РАЗМЕРЫ
100
AcDbCircle
 10
-60.0
 20
-192.0
 30
0.0
 40
1.8
  0
HATCH
  5
14F
330
17
100
AcDbEntity
  8
09_РАЗМЕРЫ
 62
7
100
AcDbHatch
 10
0.0
 20
0.0
 30
0.0
210
0.0
220
0.0
230
1.0
  2
SOLID
 70
1
 71
0
 91
1
 92
1
 93
1
 72
2
 10
-60.0
 20
-192.0
 40
1.8
 50
0
 51
360
 73
1
 97
0
 75
0
 76
1
 98
0
  0
LINE
  5
150
330
17
100
AcDbEntity
  8
09_РАЗМЕРЫ
100
AcDbLine
 10
-60.0
 20
-192.0
 30
0.0
 11
110.0
 21
-210.0
 31
0.0
  0
LINE
  5
151
330
17
100
AcDbEntity
  8
09_РАЗМЕРЫ
100
AcDbLine
 10
110.0
 20
-210.0
 30
0.0
 11
128.0
 21
-210.0
 31
0.0
  0
TEXT
  5
152
330
17
100
AcDbEntity
  8
08_ТЕКСТ
100
AcDbText
 10
119.0
 20
-208.0
 30
0.0
 40
10.0
  1
14
  7
ГОСТ
 72
1
 11
119.0
 21
-208.0
 31
0.0
100
AcDbText
 73
1
  0
CIRCLE
  5
153
330
17
100
AcDbEntity
  8
09_РАЗМЕРЫ
100
AcDbCircle
 10
20.0
 20
-194.0
 30
0.0
 40
1.8
  0
HATCH
  5
154
330
17
100
AcDbEntity
  8
09_РАЗМЕРЫ
 62
7
100
AcDbHatch
 10
0.0
 20
0.0
 30
0.0
210
0.0
220
0.0
230
1.0
  2
SOLID
 70
1
 71
0
 91
1
 92
1
 93
1
 72
2
 10
20.0
 20
-194.0
 40
1.8
 50
0
 51
360
 73
1
 97
0
 75
0
 76
1
 98
0
  0
LINE
  5
155
330
17
100
AcDbEntity
  8
09_РАЗМЕРЫ
100
AcDbLine
 10
20.0
 20
-194.0
 30
0.0
 11
110.0
 21
-170.0
 31
0.0
  0
LINE
  5
156
330
17
100
AcDbEntity
  8
09_РАЗМЕРЫ
100
AcDbLine
 10
110.0
 20
-170.0
 30
0.0
 11
128.0
 21
-170.0
 31
0.0
  0
TEXT
  5
157
330
17
100
AcDbEntity
  8
08_ТЕКСТ
100
AcDbText
 10
119.0
 20
-168.0
 30
0.0
 40
10.0
  1
9
  7
ГОСТ
 72
1
 11
119.0
 21
-168.0
 31
0.0
100
AcDbText
 73
1
  0
CIRCLE
  5
158
330
17
100
AcDbEntity
  8
09_РАЗМЕРЫ
100
AcDbCircle
 10
40.0
 20
-292.0
 30
0.0
 40
1.8
  0
HATCH
  5
159
330
17
100
AcDbEntity
  8
09_РАЗМЕРЫ
 62
7
100
AcDbHatch
 10
0.0
 20
0.0
 30
0.0
210
0.0
220
0.0
230
1.0
  2
SOLID
 70
1
 71
0
 91
1
 92
1
 93
1
 72
2
 10
40.0
 20
-292.0
 40
1.8
 50
0
 51
360
 73
1
 97
0
 75
0
 76
1
 98
0
  0
LINE
  5
15A
330
17
100
AcDbEntity
  8
09_РАЗМЕРЫ
100
AcDbLine
 10
40.0
 20
-292.0
 30
0.0
 11
110.0
 21
-270.0
 31
0.0
  0
LINE
  5
15B
330
17
100
AcDbEntity
  8
09_РАЗМЕРЫ
100
AcDbLine
 10
110.0
 20
-270.0
 30
0.0
 11
128.0
 21
-270.0
 31
0.0
  0
TEXT
  5
15C
330
17
100
AcDbEntity
  8
08_ТЕКСТ
100
AcDbText
 10
119.0
 20
-268.0
 30
0.0
 40
10.0
  1
10
  7
ГОСТ
 72
1
 11
119.0
 21
-268.0
 31
0.0
100
AcDbText
 73
1
  0
CIRCLE
  5
15D
330
17
100
AcDbEntity
  8
09_РАЗМЕРЫ
100
AcDbCircle
 10
-210.0
 20
-138.0
 30
0.0
 40
1.8
  0
HATCH
  5
15E
330
17
100
AcDbEntity
  8
09_РАЗМЕРЫ
 62
7
100
AcDbHatch
 10
0.0
 20
0.0
 30
0.0
210
0.0
220
0.0
230
1.0
  2
SOLID
 70
1
 71
0
 91
1
 92
1
 93
1
 72
2
 10
-210.0
 20
-138.0
 40
1.8
 50
0
 51
360
 73
1
 97
0
 75
0
 76
1
 98
0
  0
LINE
  5
15F
330
17
100
AcDbEntity
  8
09_РАЗМЕРЫ
100
AcDbLine
 10
-210.0
 20
-138.0
 30
0.0
 11
-390.0
 21
-40.0
 31
0.0
  0
LINE
  5
160
330
17
100
AcDbEntity
  8
09_РАЗМЕРЫ
100
AcDbLine
 10
-390.0
 20
-40.0
 30
0.0
 11
-408.0
 21
-40.0
 31
0.0
  0
TEXT
  5
161
330
17
100
AcDbEntity
  8
08_ТЕКСТ
100
AcDbText
 10
-399.0
 20
-38.0
 30
0.0
 40
10.0
  1
16
  7
ГОСТ
 72
1
 11
-399.0
 21
-38.0
 31
0.0
100
AcDbText
 73
1
  0
CIRCLE
  5
162
330
17
100
AcDbEntity
  8
09_РАЗМЕРЫ
100
AcDbCircle
 10
-275.0
 20
-168.0
 30
0.0
 40
1.8
  0
HATCH
  5
163
330
17
100
AcDbEntity
  8
09_РАЗМЕРЫ
 62
7
100
AcDbHatch
 10
0.0
 20
0.0
 30
0.0
210
0.0
220
0.0
230
1.0
  2
SOLID
 70
1
 71
0
 91
1
 92
1
 93
1
 72
2
 10
-275.0
 20
-168.0
 40
1.8
 50
0
 51
360
 73
1
 97
0
 75
0
 76
1
 98
0
  0
LINE
  5
164
330
17
100
AcDbEntity
  8
09_РАЗМЕРЫ
100
AcDbLine
 10
-275.0
 20
-168.0
 30
0.0
 11
-390.0
 21
-80.0
 31
0.0
  0
LINE
  5
165
330
17
100
AcDbEntity
  8
09_РАЗМЕРЫ
100
AcDbLine
 10
-390.0
 20
-80.0
 30
0.0
 11
-408.0
 21
-80.0
 31
0.0
  0
TEXT
  5
166
330
17
100
AcDbEntity
  8
08_ТЕКСТ
100
AcDbText
 10
-399.0
 20
-78.0
 30
0.0
 40
10.0
  1
3
  7
ГОСТ
 72
1
 11
-399.0
 21
-78.0
 31
0.0
100
AcDbText
 73
1
  0
CIRCLE
  5
167
330
17
100
AcDbEntity
  8
09_РАЗМЕРЫ
100
AcDbCircle
 10
-160.0
 20
-218.0
 30
0.0
 40
1.8
  0
HATCH
  5
168
330
17
100
AcDbEntity
  8
09_РАЗМЕРЫ
 62
7
100
AcDbHatch
 10
0.0
 20
0.0
 30
0.0
210
0.0
220
0.0
230
1.0
  2
SOLID
 70
1
 71
0
 91
1
 92
1
 93
1
 72
2
 10
-160.0
 20
-218.0
 40
1.8
 50
0
 51
360
 73
1
 97
0
 75
0
 76
1
 98
0
  0
LINE
  5
169
330
17
100
AcDbEntity
  8
09_РАЗМЕРЫ
100
AcDbLine
 10
-160.0
 20
-218.0
 30
0.0
 11
-390.0
 21
-160.0
 31
0.0
  0
LINE
  5
16A
330
17
100
AcDbEntity
  8
09_РАЗМЕРЫ
100
AcDbLine
 10
-390.0
 20
-160.0
 30
0.0
 11
-408.0
 21
-160.0
 31
0.0
  0
TEXT
  5
16B
330
17
100
AcDbEntity
  8
08_ТЕКСТ
100
AcDbText
 10
-399.0
 20
-158.0
 30
0.0
 40
10.0
  1
1
  7
ГОСТ
 72
1
 11
-399.0
 21
-158.0
 31
0.0
100
AcDbText
 73
1
  0
CIRCLE
  5
16C
330
17
100
AcDbEntity
  8
09_РАЗМЕРЫ
100
AcDbCircle
 10
-160.0
 20
-231.5
 30
0.0
 40
1.8
  0
HATCH
  5
16D
330
17
100
AcDbEntity
  8
09_РАЗМЕРЫ
 62
7
100
AcDbHatch
 10
0.0
 20
0.0
 30
0.0
210
0.0
220
0.0
230
1.0
  2
SOLID
 70
1
 71
0
 91
1
 92
1
 93
1
 72
2
 10
-160.0
 20
-231.5
 40
1.8
 50
0
 51
360
 73
1
 97
0
 75
0
 76
1
 98
0
  0
LINE
  5
16E
330
17
100
AcDbEntity
  8
09_РАЗМЕРЫ
100
AcDbLine
 10
-160.0
 20
-231.5
 30
0.0
 11
-390.0
 21
-200.0
 31
0.0
  0
LINE
  5
16F
330
17
100
AcDbEntity
  8
09_РАЗМЕРЫ
100
AcDbLine
 10
-390.0
 20
-200.0
 30
0.0
 11
-408.0
 21
-200.0
 31
0.0
  0
TEXT
  5
170
330
17
100
AcDbEntity
  8
08_ТЕКСТ
100
AcDbText
 10
-399.0
 20
-198.0
 30
0.0
 40
10.0
  1
5
  7
ГОСТ
 72
1
 11
-399.0
 21
-198.0
 31
0.0
100
AcDbText
 73
1
  0
CIRCLE
  5
171
330
17
100
AcDbEntity
  8
09_РАЗМЕРЫ
100
AcDbCircle
 10
-235.0
 20
-237.0
 30
0.0
 40
1.8
  0
HATCH
  5
172
330
17
100
AcDbEntity
  8
09_РАЗМЕРЫ
 62
7
100
AcDbHatch
 10
0.0
 20
0.0
 30
0.0
210
0.0
220
0.0
230
1.0
  2
SOLID
 70
1
 71
0
 91
1
 92
1
 93
1
 72
2
 10
-235.0
 20
-237.0
 40
1.8
 50
0
 51
360
 73
1
 97
0
 75
0
 76
1
 98
0
  0
LINE
  5
173
330
17
100
AcDbEntity
  8
09_РАЗМЕРЫ
100
AcDbLine
 10
-235.0
 20
-237.0
 30
0.0
 11
-390.0
 21
-240.0
 31
0.0
  0
LINE
  5
174
330
17
100
AcDbEntity
  8
09_РАЗМЕРЫ
100
AcDbLine
 10
-390.0
 20
-240.0
 30
0.0
 11
-408.0
 21
-240.0
 31
0.0
  0
TEXT
  5
175
330
17
100
AcDbEntity
  8
08_ТЕКСТ
100
AcDbText
 10
-399.0
 20
-238.0
 30
0.0
 40
10.0
  1
8
  7
ГОСТ
 72
1
 11
-399.0
 21
-238.0
 31
0.0
100
AcDbText
 73
1
  0
LWPOLYLINE
  5
176
330
17
100
AcDbEntity
  8
22_ТОНКИЕ
100
AcDbPolyline
 90
4
 70
1
 10
-250.0
 20
-925.0
 10
130.0
 20
-925.0
 10
130.0
 20
-635.0
 10
-250.0
 20
-635.0
  0
LWPOLYLINE
  5
177
330
17
100
AcDbEntity
  8
20_ВИДИМЫЕ
100
AcDbPolyline
 90
133
 70
1
 10
60.0
 20
-915.0
 10
59.96386368615518
 20
-916.4720302298225
 10
59.85554180016591
 20
-917.9405142098868
 10
59.67529529894344
 20
-919.4019142336608
 10
59.42355841209691
 20
-920.8527096604838
 10
59.100937595836314
 20
-922.2894053970979
 10
58.70821007196626
 20
-923.7085403176338
 10
58.24632195549063
 20
-925.1066956017667
 10
57.716385975338596
 20
-926.4805029709527
 10
57.1196787937033
 20
-927.8266528029085
 10
56.45763793045066
 20
-929.1419021047799
 10
55.731858300008156
 20
-930.4230823257967
 10
54.944088369076354
 20
-931.6671069905881
 10
54.096225944419345
 20
-932.870979134773
 10
53.19031360088211
 20
-934.0317985249094
 10
52.22853376064877
 20
-935.1467686454106
 10
51.21320343559643
 20
-936.2132034355964
 10
50.146768645410546
 20
-937.2285337606488
 10
49.03179852490936
 20
-938.1903136008821
 10
47.87097913477301
 20
-939.0962259444193
 10
46.66710699058807
 20
-939.9440883690763
 10
45.423082325796656
 20
-940.7318583000082
 10
44.14190210477993
 20
-941.4576379304507
 10
42.82665280290847
 20
-942.1196787937033
 10
41.4805029709527
 20
-942.7163859753387
 10
40.1066956017666
 20
-943.2463219554907
 10
38.708540317633876
 20
-943.7082100719663
 10
37.28940539709792
 20
-944.1009375958363
 10
35.85270966048385
 20
-944.4235584120969
 10
34.40191423366085
 20
-944.6752952989434
 10
32.94051420988683
 20
-944.8555418001658
 10
31.47203022982255
 20
-944.9638636861552
 10
30.0
 20
-945.0
 10
-150.0
 20
-945.0
 10
-151.47203022982254
 20
-944.9638636861552
 10
-152.94051420988683
 20
-944.8555418001658
 10
-154.40191423366088
 20
-944.6752952989434
 10
-155.85270966048387
 20
-944.4235584120969
 10
-157.28940539709794
 20
-944.1009375958363
 10
-158.7085403176339
 20
-943.7082100719663
 10
-160.1066956017666
 20
-943.2463219554907
 10
-161.48050297095273
 20
-942.7163859753387
 10
-162.82665280290848
 20
-942.1196787937033
 10
-164.14190210477994
 20
-941.4576379304507
 10
-165.42308232579666
 20
-940.7318583000082
 10
-166.66710699058808
 20
-939.9440883690763
 10
-167.870979134773
 20
-939.0962259444193
 10
-169.0317985249094
 20
-938.1903136008821
 10
-170.14676864541056
 20
-937.2285337606488
 10
-171.21320343559643
 20
-936.2132034355964
 10
-172.22853376064876
 20
-935.1467686454106
 10
-173.19031360088212
 20
-934.0317985249094
 10
-174.09622594441936
 20
-932.870979134773
 10
-174.94408836907638
 20
-931.6671069905881
 10
-175.73185830000816
 20
-930.4230823257967
 10
-176.45763793045066
 20
-929.1419021047799
 10
-177.11967879370332
 20
-927.8266528029085
 10
-177.7163859753386
 20
-926.4805029709527
 10
-178.24632195549063
 20
-925.1066956017667
 10
-178.70821007196628
 20
-923.7085403176338
 10
-179.1009375958363
 20
-922.2894053970979
 10
-179.4235584120969
 20
-920.8527096604838
 10
-179.67529529894344
 20
-919.4019142336608
 10
-179.8555418001659
 20
-917.9405142098868
 10
-179.96386368615518
 20
-916.4720302298225
 10
-180.0
 20
-915.0
 10
-180.0
 20
-645.0
 10
-179.96386368615518
 20
-643.5279697701775
 10
-179.8555418001659
 20
-642.0594857901132
 10
-179.67529529894344
 20
-640.5980857663392
 10
-179.4235584120969
 20
-639.1472903395161
 10
-179.1009375958363
 20
-637.7105946029021
 10
-178.70821007196628
 20
-636.2914596823662
 10
-178.24632195549063
 20
-634.8933043982333
 10
-177.7163859753386
 20
-633.5194970290473
 10
-177.11967879370332
 20
-632.1733471970915
 10
-176.45763793045063
 20
-630.85809789522
 10
-175.73185830000816
 20
-629.5769176742033
 10
-174.94408836907635
 20
-628.3328930094119
 10
-174.09622594441936
 20
-627.129020865227
 10
-173.19031360088212
 20
-625.9682014750906
 10
-172.22853376064876
 20
-624.8532313545894
 10
-171.21320343559643
 20
-623.7867965644036
 10
-170.14676864541056
 20
-622.7714662393512
 10
-169.03179852490936
 20
-621.8096863991179
 10
-167.870979134773
 20
-620.9037740555807
 10
-166.66710699058805
 20
-620.0559116309237
 10
-165.42308232579666
 20
-619.2681416999918
 10
-164.14190210477994
 20
-618.5423620695493
 10
-162.82665280290848
 20
-617.8803212062967
 10
-161.4805029709527
 20
-617.2836140246613
 10
-160.1066956017666
 20
-616.7536780445093
 10
-158.70854031763386
 20
-616.2917899280337
 10
-157.2894053970979
 20
-615.8990624041637
 10
-155.85270966048384
 20
-615.5764415879031
 10
-154.40191423366085
 20
-615.3247047010566
 10
-152.94051420988683
 20
-615.1444581998342
 10
-151.47203022982254
 20
-615.0361363138448
 10
-150.0
 20
-615.0
 10
30.0
 20
-615.0
 10
31.47203022982255
 20
-615.0361363138448
 10
32.94051420988683
 20
-615.1444581998342
 10
34.40191423366085
 20
-615.3247047010566
 10
35.85270966048385
 20
-615.5764415879031
 10
37.28940539709792
 20
-615.8990624041637
 10
38.708540317633876
 20
-616.2917899280337
 10
40.1066956017666
 20
-616.7536780445093
 10
41.4805029709527
 20
-617.2836140246613
 10
42.82665280290847
 20
-617.8803212062967
 10
44.14190210477993
 20
-618.5423620695493
 10
45.423082325796656
 20
-619.2681416999918
 10
46.66710699058807
 20
-620.0559116309237
 10
47.87097913477301
 20
-620.9037740555807
 10
49.03179852490936
 20
-621.8096863991179
 10
50.146768645410546
 20
-622.7714662393512
 10
51.21320343559643
 20
-623.7867965644036
 10
52.22853376064877
 20
-624.8532313545894
 10
53.19031360088211
 20
-625.9682014750906
 10
54.096225944419345
 20
-627.129020865227
 10
54.944088369076354
 20
-628.3328930094119
 10
55.731858300008156
 20
-629.5769176742033
 10
56.457637930450645
 20
-630.85809789522
 10
57.1196787937033
 20
-632.1733471970915
 10
57.716385975338596
 20
-633.5194970290473
 10
58.24632195549063
 20
-634.8933043982333
 10
58.70821007196626
 20
-636.2914596823662
 10
59.100937595836314
 20
-637.7105946029021
 10
59.42355841209691
 20
-639.1472903395162
 10
59.67529529894344
 20
-640.5980857663392
 10
59.85554180016591
 20
-642.0594857901132
 10
59.96386368615518
 20
-643.5279697701775
 10
60.0
 20
-645.0
 10
60.0
 20
-915.0
  0
CIRCLE
  5
178
330
17
100
AcDbEntity
  8
20_ВИДИМЫЕ
100
AcDbCircle
 10
-60.0
 20
-780.0
 30
0.0
 40
85.0
  0
LWPOLYLINE
  5
179
330
17
100
AcDbEntity
  8
20_ВИДИМЫЕ
100
AcDbPolyline
 90
4
 70
0
 10
-70.0
 20
-695.85
 10
-70.0
 20
-620.0
 10
-50.0
 20
-620.0
 10
-50.0
 20
-695.85
  0
LWPOLYLINE
  5
17A
330
17
100
AcDbEntity
  8
20_ВИДИМЫЕ
100
AcDbPolyline
 90
4
 70
0
 10
-70.0
 20
-864.15
 10
-70.0
 20
-940.0
 10
-50.0
 20
-940.0
 10
-50.0
 20
-864.15
  0
LWPOLYLINE
  5
17B
330
17
100
AcDbEntity
  8
20_ВИДИМЫЕ
100
AcDbPolyline
 90
259
 70
1
 10
-90.71169562716446
 20
-808.99126574219
 10
-91.42296255549512
 20
-808.96506822995
 10
-92.13337234439035
 20
-808.921423243682
 10
-92.84249706955725
 20
-808.8603570734937
 10
-93.54990958077727
 20
-808.7819065033626
 10
-94.2551837592055
 20
-808.6861187889787
 10
-94.95789477404874
 20
-808.5730516292793
 10
-95.65761933846773
 20
-808.4427731316937
 10
-96.35393596454922
 20
-808.2953617711173
 10
-97.04642521719465
 20
-808.1309063426418
 10
-97.73466996677206
 20
-807.9495059080677
 10
-98.4182556403794
 20
-807.751269736234
 10
-99.09677047156785
 20
-807.5363172371981
 10
-99.76980574837438
 20
-807.3047778903076
 10
-100.43695605951466
 20
-807.0567911662074
 10
-101.0978195385876
 20
-806.7925064428273
 10
-101.7519981061447
 20
-806.5120829154024
 10
-102.39909770947817
 20
-806.2156895005799
 10
-103.0387285599836
 20
-805.9035047346699
 10
-103.67050536795394
 20
-805.5757166661023
 10
-104.29404757466374
 20
-805.2325227421526
 10
-104.90897958160343
 20
-804.8741296900079
 10
-105.51493097672582
 20
-804.5007533922416
 10
-106.11153675756846
 20
-804.1126187567738
 10
-106.69843755111751
 20
-803.7099595813959
 10
-107.27527983028057
 20
-803.2930184129387
 10
-107.84171612683818
 20
-802.8620464011716
 10
-108.39740524074571
 20
-802.4173031475194
 10
-108.94201244565951
 20
-801.9590565486881
 10
-109.47520969056353
 20
-801.4875826352938
 10
-109.99667579737493
 20
-801.0031654055925
 10
-110.50609665440987
 20
-800.5060966544099
 10
-111.00316540559254
 20
-799.9966757973749
 10
-111.4875826352938
 20
-799.4752096905636
 10
-111.95905654868805
 20
-798.9420124456595
 10
-112.41730314751938
 20
-798.3974052407457
 10
-112.86204640117158
 20
-797.8417161268382
 10
-113.2930184129387
 20
-797.2752798302806
 10
-113.70995958139592
 20
-796.6984375511175
 10
-114.11261875677381
 20
-796.1115367575685
 10
-114.5007533922415
 20
-795.5149309767259
 10
-114.87412969000789
 20
-794.9089795816034
 10
-115.23252274215263
 20
-794.2940475746638
 10
-115.5757166661023
 20
-793.670505367954
 10
-115.90350473466994
 20
-793.0387285599836
 10
-116.21568950057986
 20
-792.3990977094782
 10
-116.51208291540239
 20
-791.7519981061447
 10
-116.79250644282732
 20
-791.0978195385876
 10
-117.05679116620743
 20
-790.4369560595146
 10
-117.3047778903076
 20
-789.7698057483744
 10
-117.53631723719806
 20
-789.0967704715679
 10
-117.75126973623406
 20
-788.4182556403794
 10
-117.94950590806775
 20
-787.734669966772
 10
-118.13090634264178
 20
-787.0464252171946
 10
-118.29536177111733
 20
-786.3539359645492
 10
-118.44277313169368
 20
-785.6576193384677
 10
-118.57305162927929
 20
-784.9578947740488
 10
-118.68611878897865
 20
-784.2551837592055
 10
-118.78190650336259
 20
-783.5499095807772
 10
-118.8603570734937
 20
-782.8424970695572
 10
-118.92142324368201
 20
-782.1333723443904
 10
-118.96506822994999
 20
-781.4229625554951
 10
-118.99126574218992
 20
-780.7116956271644
 10
-119.0
 20
-780.0
 10
-118.99126574218992
 20
-779.2883043728356
 10
-118.96506822994999
 20
-778.5770374445049
 10
-118.92142324368201
 20
-777.8666276556096
 10
-118.8603570734937
 20
-777.1575029304428
 10
-118.78190650336259
 20
-776.4500904192228
 10
-118.68611878897865
 20
-775.7448162407945
 10
-118.57305162927929
 20
-775.0421052259512
 10
-118.44277313169368
 20
-774.3423806615323
 10
-118.29536177111733
 20
-773.6460640354508
 10
-118.13090634264178
 20
-772.9535747828054
 10
-117.94950590806776
 20
-772.265330033228
 10
-117.75126973623406
 20
-771.5817443596206
 10
-117.53631723719806
 20
-770.9032295284321
 10
-117.3047778903076
 20
-770.2301942516256
 10
-117.05679116620743
 20
-769.5630439404854
 10
-116.79250644282732
 20
-768.9021804614124
 10
-116.51208291540239
 20
-768.2480018938553
 10
-116.21568950057986
 20
-767.6009022905218
 10
-115.90350473466995
 20
-766.9612714400164
 10
-115.5757166661023
 20
-766.329494632046
 10
-115.23252274215264
 20
-765.7059524253362
 10
-114.87412969000789
 20
-765.0910204183966
 10
-114.5007533922415
 20
-764.4850690232741
 10
-114.11261875677383
 20
-763.8884632424315
 10
-113.70995958139594
 20
-763.3015624488825
 10
-113.29301841293871
 20
-762.7247201697195
 10
-112.86204640117158
 20
-762.1582838731618
 10
-112.41730314751938
 20
-761.6025947592543
 10
-111.95905654868807
 20
-761.0579875543405
 10
-111.48758263529382
 20
-760.5247903094364
 10
-111.00316540559254
 20
-760.0033242026251
 10
-110.50609665440989
 20
-759.4939033455901
 10
-109.99667579737495
 20
-758.9968345944075
 10
-109.47520969056355
 20
-758.5124173647062
 10
-108.94201244565954
 20
-758.0409434513119
 10
-108.39740524074574
 20
-757.5826968524807
 10
-107.8417161268382
 20
-757.1379535988284
 10
-107.27527983028057
 20
-756.7069815870613
 10
-106.69843755111751
 20
-756.2900404186041
 10
-106.11153675756846
 20
-755.8873812432262
 10
-105.51493097672582
 20
-755.4992466077586
 10
-104.90897958160343
 20
-755.1258703099921
 10
-104.29404757466375
 20
-754.7674772578474
 10
-103.67050536795394
 20
-754.4242833338977
 10
-103.03872855998361
 20
-754.0964952653301
 10
-102.39909770947818
 20
-753.7843104994201
 10
-101.75199810614473
 20
-753.4879170845976
 10
-101.09781953858763
 20
-753.2074935571727
 10
-100.43695605951464
 20
-752.9432088337926
 10
-99.76980574837438
 20
-752.6952221096924
 10
-99.09677047156785
 20
-752.4636827628019
 10
-98.41825564037941
 20
-752.248730263766
 10
-97.73466996677206
 20
-752.0504940919323
 10
-97.04642521719467
 20
-751.8690936573582
 10
-96.35393596454924
 20
-751.7046382288827
 10
-95.65761933846773
 20
-751.5572268683063
 10
-94.95789477404875
 20
-751.4269483707208
 10
-94.25518375920551
 20
-751.3138812110213
 10
-93.54990958077727
 20
-751.2180934966374
 10
-92.84249706955725
 20
-751.1396429265063
 10
-92.13337234439035
 20
-751.078576756318
 10
-91.42296255549512
 20
-751.03493177005
 10
-90.71169562716446
 20
-751.00873425781
 10
-90.0
 20
-751.0
 10
-30.0
 20
-751.0
 10
-29.28830437283555
 20
-751.00873425781
 10
-28.57703744450489
 20
-751.03493177005
 10
-27.866627655609655
 20
-751.078576756318
 10
-27.15750293044276
 20
-751.1396429265063
 10
-26.450090419222747
 20
-751.2180934966374
 10
-25.744816240794506
 20
-751.3138812110213
 10
-25.04210522595126
 20
-751.4269483707207
 10
-24.34238066153228
 20
-751.5572268683063
 10
-23.646064035450777
 20
-751.7046382288827
 10
-22.953574782805347
 20
-751.8690936573582
 10
-22.265330033227954
 20
-752.0504940919323
 10
-21.5817443596206
 20
-752.248730263766
 10
-20.903229528432156
 20
-752.4636827628019
 10
-20.230194251625633
 20
-752.6952221096924
 10
-19.563043940485358
 20
-752.9432088337926
 10
-18.902180461412392
 20
-753.2074935571727
 10
-18.24800189385529
 20
-753.4879170845976
 10
-17.600902290521816
 20
-753.7843104994201
 10
-16.96127144001641
 20
-754.0964952653301
 10
-16.32949463204607
 20
-754.4242833338977
 10
-15.705952425336264
 20
-754.7674772578474
 10
-15.091020418396575
 20
-755.1258703099921
 10
-14.485069023274193
 20
-755.4992466077584
 10
-13.888463242431541
 20
-755.8873812432262
 10
-13.3015624488825
 20
-756.2900404186041
 10
-12.724720169719447
 20
-756.7069815870613
 10
-12.158283873161821
 20
-757.1379535988284
 10
-11.602594759254274
 20
-757.5826968524806
 10
-11.057987554340471
 20
-758.0409434513119
 10
-10.524790309436469
 20
-758.5124173647062
 10
-10.003324202625066
 20
-758.9968345944075
 10
-9.493903345590127
 20
-759.4939033455901
 10
-8.996834594407467
 20
-760.0033242026251
 10
-8.512417364706195
 20
-760.5247903094364
 10
-8.04094345131196
 20
-761.0579875543405
 10
-7.5826968524806375
 20
-761.6025947592543
 10
-7.137953598828432
 20
-762.1582838731618
 10
-6.706981587061293
 20
-762.7247201697195
 10
-6.290040418604072
 20
-763.3015624488825
 10
-5.887381243226187
 20
-763.8884632424315
 10
-5.499246607758494
 20
-764.4850690232741
 10
-5.125870309992109
 20
-765.0910204183965
 10
-4.767477257847375
 20
-765.7059524253362
 10
-4.424283333897705
 20
-766.329494632046
 10
-4.096495265330063
 20
-766.9612714400164
 10
-3.784310499420151
 20
-767.6009022905218
 10
-3.487917084597612
 20
-768.2480018938553
 10
-3.2074935571726897
 20
-768.9021804614124
 10
-2.9432088337925677
 20
-769.5630439404854
 10
-2.695222109692395
 20
-770.2301942516257
 10
-2.4636827628019375
 20
-770.9032295284321
 10
-2.2487302637659425
 20
-771.5817443596206
 10
-2.0504940919322436
 20
-772.265330033228
 10
-1.8690936573582206
 20
-772.9535747828054
 10
-1.704638228882672
 20
-773.6460640354508
 10
-1.5572268683063157
 20
-774.3423806615323
 10
-1.4269483707207087
 20
-775.0421052259512
 10
-1.3138812110213536
 20
-775.7448162407945
 10
-1.2180934966374082
 20
-776.4500904192228
 10
-1.1396429265062906
 20
-777.1575029304428
 10
-1.078576756317986
 20
-777.8666276556096
 10
-1.034931770050001
 20
-778.5770374445049
 10
-1.008734257810076
 20
-779.2883043728356
 10
-1.0
 20
-780.0
 10
-1.008734257810076
 20
-780.7116956271644
 10
-1.034931770050001
 20
-781.4229625554951
 10
-1.078576756317986
 20
-782.1333723443904
 10
-1.1396429265062906
 20
-782.8424970695572
 10
-1.2180934966374082
 20
-783.5499095807772
 10
-1.3138812110213536
 20
-784.2551837592055
 10
-1.4269483707207087
 20
-784.9578947740488
 10
-1.5572268683063157
 20
-785.6576193384677
 10
-1.704638228882672
 20
-786.3539359645492
 10
-1.8690936573582206
 20
-787.0464252171946
 10
-2.0504940919322436
 20
-787.734669966772
 10
-2.2487302637659425
 20
-788.4182556403794
 10
-2.4636827628019375
 20
-789.0967704715679
 10
-2.695222109692395
 20
-789.7698057483744
 10
-2.9432088337925677
 20
-790.4369560595146
 10
-3.2074935571726826
 20
-791.0978195385876
 10
-3.487917084597612
 20
-791.7519981061447
 10
-3.784310499420144
 20
-792.3990977094782
 10
-4.096495265330056
 20
-793.0387285599836
 10
-4.424283333897705
 20
-793.670505367954
 10
-4.767477257847368
 20
-794.2940475746638
 10
-5.125870309992109
 20
-794.9089795816034
 10
-5.499246607758494
 20
-795.5149309767259
 10
-5.887381243226187
 20
-796.1115367575685
 10
-6.290040418604072
 20
-796.6984375511175
 10
-6.706981587061293
 20
-797.2752798302806
 10
-7.1379535988284175
 20
-797.8417161268382
 10
-7.582696852480623
 20
-798.3974052407457
 10
-8.040943451311946
 20
-798.9420124456595
 10
-8.512417364706181
 20
-799.4752096905636
 10
-8.99683459440746
 20
-799.9966757973749
 10
-9.49390334559012
 20
-800.5060966544099
 10
-10.003324202625059
 20
-801.0031654055925
 10
-10.524790309436469
 20
-801.4875826352938
 10
-11.057987554340471
 20
-801.9590565486881
 10
-11.60259475925428
 20
-802.4173031475194
 10
-12.158283873161821
 20
-802.8620464011716
 10
-12.724720169719433
 20
-803.2930184129387
 10
-13.301562448882486
 20
-803.7099595813959
 10
-13.888463242431534
 20
-804.1126187567738
 10
-14.485069023274178
 20
-804.5007533922414
 10
-15.091020418396567
 20
-804.8741296900079
 10
-15.705952425336264
 20
-805.2325227421526
 10
-16.329494632046064
 20
-805.5757166661023
 10
-16.96127144001641
 20
-805.9035047346699
 10
-17.600902290521816
 20
-806.2156895005799
 10
-18.248001893855296
 20
-806.5120829154024
 10
-18.902180461412392
 20
-806.7925064428273
 10
-19.563043940485343
 20
-807.0567911662074
 10
-20.23019425162562
 20
-807.3047778903076
 10
-20.903229528432142
 20
-807.5363172371981
 10
-21.581744359620593
 20
-807.751269736234
 10
-22.265330033227947
 20
-807.9495059080677
 10
-22.953574782805347
 20
-808.1309063426418
 10
-23.646064035450777
 20
-808.2953617711173
 10
-24.342380661532275
 20
-808.4427731316937
 10
-25.04210522595126
 20
-808.5730516292793
 10
-25.744816240794506
 20
-808.6861187889787
 10
-26.450090419222725
 20
-808.7819065033626
 10
-27.15750293044274
 20
-808.8603570734937
 10
-27.86662765560964
 20
-808.921423243682
 10
-28.577037444504874
 20
-808.96506822995
 10
-29.288304372835544
 20
-808.99126574219
 10
-30.0
 20
-809.0
 10
-90.0
 20
-809.0
 10
-90.71169562716446
 20
-808.99126574219
  0
LWPOLYLINE
  5
17C
330
17
100
AcDbEntity
  8
20_ВИДИМЫЕ
100
AcDbPolyline
 90
259
 70
1
 10
-33.00813189520248
 20
-805.6626131701187
 10
-33.032522682460346
 20
-806.3248272068403
 10
-33.07315766967537
 20
-806.986243217191
 10
-33.13001237985068
 20
-807.6464627888981
 10
-33.20305256583483
 20
-808.3050882303788
 10
-33.29223423095091
 20
-808.9617228102948
 10
-33.39750365549858
 20
-809.6159709965282
 10
-33.51879742911278
 20
-810.2674386944354
 10
-33.65604248895973
 20
-810.9157334842355
 10
-33.80915616374732
 20
-811.5604648573881
 10
-33.97804622352312
 20
-812.2012444518223
 10
-34.16261093523036
 20
-812.8376862858705
 10
-34.36273912398801
 20
-813.46940699077
 10
-34.57831024005844
 20
-814.09602604159
 10
-34.809194431462046
 20
-814.7171659864447
 10
-35.055252622195255
 20
-815.3324526738575
 10
-35.316336596004675
 20
-815.9415154781348
 10
-35.592289085667026
 20
-816.5439875226176
 10
-35.88294386772109
 20
-817.1395059006744
 10
-36.18812586259442
 20
-817.7277118943019
 10
-36.50765124006479
 20
-818.3082511902041
 10
-36.841327529992654
 20
-818.880774093217
 10
-37.18895373825791
 20
-819.4449357369516
 10
-37.55032046783128
 20
-820.0003962915292
 10
-37.92521004490724
 20
-820.5468211682818
 10
-38.31339665002258
 20
-821.0838812212957
 10
-38.71464645408163
 20
-821.6112529456769
 10
-39.1287177592061
 20
-822.1286186724184
 10
-39.55536114432491
 20
-822.635666759752
 10
-39.9943196154161
 20
-823.1320917808695
 10
-40.44532876031039
 20
-823.6175947079008
 10
-40.90811690796322
 20
-824.0918830920368
 10
-41.38240529209919
 20
-824.5546712396896
 10
-41.8679082191305
 20
-825.0056803845839
 10
-42.36433324024803
 20
-825.4446388556751
 10
-42.871381327581574
 20
-825.8712822407939
 10
-43.388747054323076
 20
-826.2853535459184
 10
-43.916118778704295
 20
-826.6866033499774
 10
-44.453178831718176
 20
-827.0747899550928
 10
-44.999603708470744
 20
-827.4496795321687
 10
-45.55506426304838
 20
-827.8110462617421
 10
-46.119225906783015
 20
-828.1586724700073
 10
-46.691748809795826
 20
-828.4923487599352
 10
-47.27228810569806
 20
-828.8118741374055
 10
-47.860494099325614
 20
-829.1170561322789
 10
-48.45601247738239
 20
-829.4077109143329
 10
-49.058484521865275
 20
-829.6836634039953
 10
-49.667547326142575
 20
-829.9447473778048
 10
-50.282834013555316
 20
-830.1908055685379
 10
-50.90397395841005
 20
-830.4216897599415
 10
-51.53059300922993
 20
-830.637260876012
 10
-52.16231371412952
 20
-830.8373890647697
 10
-52.79875554817774
 20
-831.0219537764768
 10
-53.439535142611874
 20
-831.1908438362527
 10
-54.08426651576451
 20
-831.3439575110402
 10
-54.73256130556453
 20
-831.4812025708873
 10
-55.384029003471866
 20
-831.6024963445014
 10
-56.038277189705234
 20
-831.707765769049
 10
-56.69491176962116
 20
-831.7969474341652
 10
-57.35353721110186
 20
-831.8699876201493
 10
-58.01375678280897
 20
-831.9268423303247
 10
-58.67517279315972
 20
-831.9674773175396
 10
-59.33738682988137
 20
-831.9918681047975
 10
-60.0
 20
-832.0
 10
-60.662613170118625
 20
-831.9918681047975
 10
-61.324827206840276
 20
-831.9674773175396
 10
-61.986243217191024
 20
-831.9268423303247
 10
-62.646462788898134
 20
-831.8699876201493
 10
-63.305088230378836
 20
-831.7969474341652
 10
-63.96172281029476
 20
-831.707765769049
 10
-64.61597099652812
 20
-831.6024963445014
 10
-65.26743869443547
 20
-831.4812025708873
 10
-65.91573348423549
 20
-831.3439575110402
 10
-66.56046485738813
 20
-831.1908438362527
 10
-67.20124445182225
 20
-831.0219537764768
 10
-67.83768628587048
 20
-830.8373890647697
 10
-68.46940699077007
 20
-830.637260876012
 10
-69.09602604158994
 20
-830.4216897599415
 10
-69.71716598644468
 20
-830.1908055685379
 10
-70.33245267385742
 20
-829.9447473778048
 10
-70.94151547813472
 20
-829.6836634039953
 10
-71.54398752261761
 20
-829.4077109143329
 10
-72.13950590067438
 20
-829.1170561322789
 10
-72.72771189430193
 20
-828.8118741374055
 10
-73.30825119020416
 20
-828.4923487599352
 10
-73.88077409321698
 20
-828.1586724700073
 10
-74.44493573695162
 20
-827.8110462617421
 10
-75.00039629152926
 20
-827.4496795321687
 10
-75.54682116828182
 20
-827.0747899550928
 10
-76.0838812212957
 20
-826.6866033499774
 10
-76.61125294567692
 20
-826.2853535459184
 10
-77.12861867241843
 20
-825.8712822407939
 10
-77.63566675975197
 20
-825.4446388556751
 10
-78.1320917808695
 20
-825.0056803845839
 10
-78.6175947079008
 20
-824.5546712396896
 10
-79.09188309203678
 20
-824.0918830920368
 10
-79.55467123968961
 20
-823.6175947079008
 10
-80.00568038458388
 20
-823.1320917808695
 10
-80.44463885567507
 20
-822.635666759752
 10
-80.87128224079389
 20
-822.1286186724185
 10
-81.28535354591835
 20
-821.6112529456769
 10
-81.68660334997742
 20
-821.0838812212957
 10
-82.07478995509277
 20
-820.5468211682818
 10
-82.44967953216872
 20
-820.0003962915292
 10
-82.81104626174209
 20
-819.4449357369516
 10
-83.15867247000735
 20
-818.880774093217
 10
-83.49234875993521
 20
-818.3082511902041
 10
-83.81187413740558
 20
-817.7277118943019
 10
-84.11705613227892
 20
-817.1395059006744
 10
-84.40771091433297
 20
-816.5439875226176
 10
-84.68366340399533
 20
-815.9415154781348
 10
-84.94474737780473
 20
-815.3324526738575
 10
-85.19080556853795
 20
-814.7171659864447
 10
-85.42168975994156
 20
-814.09602604159
 10
-85.637260876012
 20
-813.46940699077
 10
-85.83738906476964
 20
-812.8376862858705
 10
-86.02195377647688
 20
-812.2012444518223
 10
-86.19084383625268
 20
-811.5604648573882
 10
-86.34395751104027
 20
-810.9157334842355
 10
-86.48120257088722
 20
-810.2674386944354
 10
-86.60249634450142
 20
-809.6159709965282
 10
-86.70776576904909
 20
-808.9617228102948
 10
-86.79694743416518
 20
-808.3050882303788
 10
-86.86998762014932
 20
-807.6464627888981
 10
-86.92684233032463
 20
-806.986243217191
 10
-86.96747731753965
 20
-806.3248272068403
 10
-86.99186810479752
 20
-805.6626131701187
 10
-87.0
 20
-805.0
 10
-87.0
 20
-755.0
 10
-86.99186810479752
 20
-754.3373868298813
 10
-86.96747731753965
 20
-753.6751727931597
 10
-86.92684233032463
 20
-753.013756782809
 10
-86.86998762014932
 20
-752.3535372111019
 10
-86.79694743416518
 20
-751.6949117696212
 10
-86.70776576904909
 20
-751.0382771897052
 10
-86.60249634450142
 20
-750.3840290034718
 10
-86.48120257088722
 20
-749.7325613055646
 10
-86.34395751104027
 20
-749.0842665157645
 10
-86.19084383625268
 20
-748.4395351426119
 10
-86.02195377647688
 20
-747.7987555481777
 10
-85.83738906476964
 20
-747.1623137141295
 10
-85.637260876012
 20
-746.53059300923
 10
-85.42168975994156
 20
-745.9039739584101
 10
-85.19080556853795
 20
-745.2828340135553
 10
-84.94474737780473
 20
-744.6675473261425
 10
-84.68366340399533
 20
-744.0584845218652
 10
-84.40771091433297
 20
-743.4560124773824
 10
-84.11705613227892
 20
-742.8604940993256
 10
-83.81187413740558
 20
-742.2722881056981
 10
-83.49234875993521
 20
-741.6917488097959
 10
-83.15867247000735
 20
-741.119225906783
 10
-82.81104626174209
 20
-740.5550642630484
 10
-82.44967953216873
 20
-739.9996037084708
 10
-82.07478995509277
 20
-739.4531788317182
 10
-81.68660334997742
 20
-738.9161187787043
 10
-81.28535354591837
 20
-738.3887470543231
 10
-80.8712822407939
 20
-737.8713813275816
 10
-80.44463885567508
 20
-737.364333240248
 10
-80.0056803845839
 20
-736.8679082191305
 10
-79.55467123968961
 20
-736.3824052920992
 10
-79.0918830920368
 20
-735.9081169079632
 10
-78.61759470790082
 20
-735.4453287603104
 10
-78.1320917808695
 20
-734.9943196154161
 10
-77.63566675975198
 20
-734.5553611443249
 10
-77.12861867241844
 20
-734.1287177592061
 10
-76.61125294567694
 20
-733.7146464540816
 10
-76.0838812212957
 20
-733.3133966500226
 10
-75.54682116828182
 20
-732.9252100449072
 10
-75.00039629152926
 20
-732.5503204678313
 10
-74.44493573695162
 20
-732.1889537382579
 10
-73.88077409321698
 20
-731.8413275299927
 10
-73.30825119020417
 20
-731.5076512400648
 10
-72.72771189430195
 20
-731.1881258625945
 10
-72.1395059006744
 20
-730.8829438677211
 10
-71.54398752261763
 20
-730.5922890856671
 10
-70.94151547813475
 20
-730.3163365960047
 10
-70.33245267385745
 20
-730.0552526221952
 10
-69.71716598644468
 20
-729.8091944314621
 10
-69.09602604158994
 20
-729.5783102400585
 10
-68.46940699077007
 20
-729.362739123988
 10
-67.83768628587049
 20
-729.1626109352303
 10
-67.20124445182226
 20
-728.9780462235232
 10
-66.56046485738813
 20
-728.8091561637473
 10
-65.91573348423549
 20
-728.6560424889598
 10
-65.26743869443547
 20
-728.5187974291127
 10
-64.61597099652815
 20
-728.3975036554986
 10
-63.96172281029479
 20
-728.292234230951
 10
-63.305088230378836
 20
-728.2030525658348
 10
-62.646462788898134
 20
-728.1300123798507
 10
-61.98624321719102
 20
-728.0731576696753
 10
-61.32482720684029
 20
-728.0325226824604
 10
-60.66261317011864
 20
-728.0081318952025
 10
-60.0
 20
-728.0
 10
-59.33738682988137
 20
-728.0081318952025
 10
-58.67517279315971
 20
-728.0325226824604
 10
-58.01375678280898
 20
-728.0731576696753
 10
-57.353537211101866
 20
-728.1300123798507
 10
-56.694911769621164
 20
-728.2030525658348
 10
-56.038277189705234
 20
-728.292234230951
 10
-55.384029003471866
 20
-728.3975036554986
 10
-54.73256130556454
 20
-728.5187974291127
 10
-54.08426651576451
 20
-728.6560424889598
 10
-53.439535142611874
 20
-728.8091561637473
 10
-52.798755548177745
 20
-728.9780462235232
 10
-52.16231371412952
 20
-729.1626109352303
 10
-51.53059300922993
 20
-729.362739123988
 10
-50.90397395841006
 20
-729.5783102400585
 10
-50.28283401355532
 20
-729.8091944314621
 10
-49.667547326142575
 20
-730.0552526221952
 10
-49.058484521865275
 20
-730.3163365960047
 10
-48.45601247738239
 20
-730.5922890856671
 10
-47.86049409932562
 20
-730.8829438677211
 10
-47.27228810569807
 20
-731.1881258625945
 10
-46.69174880979583
 20
-731.5076512400648
 10
-46.119225906783015
 20
-731.8413275299927
 10
-45.55506426304838
 20
-732.1889537382579
 10
-44.999603708470744
 20
-732.5503204678313
 10
-44.453178831718176
 20
-732.9252100449072
 10
-43.9161187787043
 20
-733.3133966500226
 10
-43.388747054323076
 20
-733.7146464540816
 10
-42.871381327581574
 20
-734.1287177592061
 10
-42.36433324024803
 20
-734.5553611443249
 10
-41.867908219130506
 20
-734.9943196154161
 10
-41.38240529209919
 20
-735.4453287603104
 10
-40.90811690796322
 20
-735.9081169079632
 10
-40.44532876031039
 20
-736.3824052920992
 10
-39.9943196154161
 20
-736.8679082191305
 10
-39.55536114432492
 20
-737.364333240248
 10
-39.128717759206104
 20
-737.8713813275816
 10
-38.71464645408163
 20
-738.3887470543231
 10
-38.31339665002259
 20
-738.9161187787043
 10
-37.92521004490724
 20
-739.4531788317182
 10
-37.55032046783128
 20
-739.9996037084708
 10
-37.18895373825791
 20
-740.5550642630484
 10
-36.841327529992654
 20
-741.119225906783
 10
-36.50765124006479
 20
-741.6917488097959
 10
-36.18812586259442
 20
-742.2722881056981
 10
-35.88294386772108
 20
-742.8604940993256
 10
-35.59228908566703
 20
-743.4560124773824
 10
-35.316336596004675
 20
-744.0584845218652
 10
-35.055252622195255
 20
-744.6675473261425
 10
-34.809194431462046
 20
-745.2828340135553
 10
-34.57831024005844
 20
-745.90397395841
 10
-34.36273912398801
 20
-746.53059300923
 10
-34.16261093523036
 20
-747.1623137141295
 10
-33.97804622352312
 20
-747.7987555481777
 10
-33.80915616374732
 20
-748.4395351426119
 10
-33.65604248895973
 20
-749.0842665157645
 10
-33.51879742911278
 20
-749.7325613055646
 10
-33.39750365549858
 20
-750.3840290034718
 10
-33.29223423095091
 20
-751.0382771897052
 10
-33.20305256583483
 20
-751.6949117696212
 10
-33.13001237985068
 20
-752.3535372111019
 10
-33.07315766967537
 20
-753.013756782809
 10
-33.032522682460346
 20
-753.6751727931597
 10
-33.00813189520248
 20
-754.3373868298813
 10
-33.0
 20
-755.0
 10
-33.0
 20
-805.0
 10
-33.00813189520248
 20
-805.6626131701187
  0
LWPOLYLINE
  5
17D
330
17
100
AcDbEntity
  8
20_ВИДИМЫЕ
100
AcDbPolyline
 90
259
 70
1
 10
-47.00391535694934
 20
-799.3190359707978
 10
-47.015659069332756
 20
-799.6378797662564
 10
-47.035224063177026
 20
-799.9563393267957
 10
-47.06259855326144
 20
-800.2742228242843
 10
-47.09776605021677
 20
-800.5913387775898
 10
-47.140705370457844
 20
-800.9074961679197
 10
-47.19139064894377
 20
-801.2225045538839
 10
-47.249791354758
 20
-801.5361741862097
 10
-47.31587230949913
 20
-801.8483161220393
 10
-47.389593708470926
 20
-802.1587423387424
 10
-47.47091114465928
 20
-802.4672658471736
 10
-47.55977563548129
 20
-802.773700804308
 10
-47.65613365229052
 20
-803.0778626251856
 10
-47.75992715262073
 20
-803.3795680940989
 10
-47.871093615148396
 20
-803.6786354749548
 10
-47.989566077353274
 20
-803.9748846207461
 10
-48.1152731758541
 20
-804.2681370820649
 10
-48.24813918939523
 20
-804.5582162145937
 10
-48.3880840844583
 20
-804.8449472855099
 10
-48.535023563471384
 20
-805.128157578738
 10
-48.688869115586755
 20
-805.4076764989871
 10
-48.84952806999647
 20
-805.6833356745119
 10
-49.01690365175381
 20
-805.9549690585322
 10
-49.19089504006691
 20
-806.2224130292548
 10
-49.371397429029415
 20
-806.485506488432
 10
-49.55830209075162
 20
-806.7440909584017
 10
-49.75149644085412
 20
-806.9980106775481
 10
-49.95086410628441
 20
-807.2471126941274
 10
-50.1562849954157
 20
-807.4912469583991
 10
-50.367635370385536
 20
-807.7302664130112
 10
-50.584787921630934
 20
-807.9640270815819
 10
-50.80761184457488
 20
-808.1923881554251
 10
-51.035972918418125
 20
-808.4152120783691
 10
-51.26973358698876
 20
-808.6323646296145
 10
-51.508753041600905
 20
-808.8437150045843
 10
-51.752887305872605
 20
-809.0491358937156
 10
-52.00198932245185
 20
-809.2485035591459
 10
-52.255909041598365
 20
-809.4416979092484
 10
-52.514493511568006
 20
-809.6286025709705
 10
-52.77758697074517
 20
-809.809104959933
 10
-53.045030941467736
 20
-809.9830963482461
 10
-53.31666432548812
 20
-810.1504719300035
 10
-53.59232350101281
 20
-810.3111308844133
 10
-53.87184242126203
 20
-810.4649764365286
 10
-54.15505271449011
 20
-810.6119159155417
 10
-54.44178378540634
 20
-810.7518608106047
 10
-54.73186291793513
 20
-810.8847268241459
 10
-55.02511537925383
 20
-811.0104339226467
 10
-55.321364525045155
 20
-811.1289063848516
 10
-55.620431905901135
 20
-811.2400728473792
 10
-55.92213737481441
 20
-811.3438663477095
 10
-56.226299195691986
 20
-811.4402243645187
 10
-56.53273415282632
 20
-811.5290888553407
 10
-56.841257661257565
 20
-811.6104062915291
 10
-57.15168387796069
 20
-811.6841276905009
 10
-57.46382581379033
 20
-811.750208645242
 10
-57.777495446116085
 20
-811.8086093510562
 10
-58.0925038320803
 20
-811.8592946295422
 10
-58.40866122241019
 20
-811.9022339497832
 10
-58.725777175715706
 20
-811.9374014467386
 10
-59.04366067320432
 20
-811.964775936823
 10
-59.36212023374357
 20
-811.9843409306673
 10
-59.68096402920214
 20
-811.9960846430506
 10
-60.0
 20
-812.0
 10
-60.319035970797856
 20
-811.9960846430506
 10
-60.63787976625643
 20
-811.9843409306673
 10
-60.95633932679568
 20
-811.964775936823
 10
-61.27422282428429
 20
-811.9374014467386
 10
-61.59133877758981
 20
-811.9022339497832
 10
-61.9074961679197
 20
-811.8592946295422
 10
-62.222504553883915
 20
-811.8086093510562
 10
-62.53617418620967
 20
-811.750208645242
 10
-62.84831612203931
 20
-811.6841276905009
 10
-63.15874233874243
 20
-811.6104062915291
 10
-63.46726584717368
 20
-811.5290888553407
 10
-63.77370080430801
 20
-811.4402243645187
 10
-64.07786262518559
 20
-811.3438663477095
 10
-64.37956809409886
 20
-811.2400728473792
 10
-64.67863547495485
 20
-811.1289063848516
 10
-64.97488462074617
 20
-811.0104339226467
 10
-65.26813708206487
 20
-810.8847268241459
 10
-65.55821621459367
 20
-810.7518608106047
 10
-65.84494728550989
 20
-810.6119159155417
 10
-66.12815757873797
 20
-810.4649764365286
 10
-66.40767649898719
 20
-810.3111308844133
 10
-66.68333567451188
 20
-810.1504719300035
 10
-66.95496905853226
 20
-809.9830963482461
 10
-67.22241302925482
 20
-809.809104959933
 10
-67.485506488432
 20
-809.6286025709705
 10
-67.74409095840163
 20
-809.4416979092484
 10
-67.99801067754815
 20
-809.2485035591459
 10
-68.2471126941274
 20
-809.0491358937156
 10
-68.4912469583991
 20
-808.8437150045843
 10
-68.73026641301124
 20
-808.6323646296145
 10
-68.96402708158186
 20
-808.4152120783691
 10
-69.19238815542512
 20
-808.1923881554251
 10
-69.41521207836907
 20
-807.9640270815819
 10
-69.63236462961447
 20
-807.7302664130112
 10
-69.8437150045843
 20
-807.4912469583991
 10
-70.04913589371557
 20
-807.2471126941274
 10
-70.24850355914587
 20
-806.9980106775481
 10
-70.44169790924839
 20
-806.7440909584017
 10
-70.62860257097059
 20
-806.485506488432
 10
-70.80910495993308
 20
-806.2224130292549
 10
-70.98309634824619
 20
-805.9549690585322
 10
-71.15047193000353
 20
-805.6833356745119
 10
-71.31113088441325
 20
-805.4076764989871
 10
-71.46497643652862
 20
-805.128157578738
 10
-71.6119159155417
 20
-804.8449472855099
 10
-71.75186081060477
 20
-804.5582162145937
 10
-71.8847268241459
 20
-804.2681370820649
 10
-72.01043392264673
 20
-803.9748846207461
 10
-72.1289063848516
 20
-803.6786354749548
 10
-72.24007284737927
 20
-803.3795680940989
 10
-72.34386634770948
 20
-803.0778626251856
 10
-72.44022436451871
 20
-802.773700804308
 10
-72.52908885534072
 20
-802.4672658471737
 10
-72.61040629152907
 20
-802.1587423387424
 10
-72.68412769050087
 20
-801.8483161220394
 10
-72.750208645242
 20
-801.5361741862097
 10
-72.80860935105623
 20
-801.2225045538839
 10
-72.85929462954215
 20
-800.9074961679197
 10
-72.90223394978324
 20
-800.5913387775898
 10
-72.93740144673856
 20
-800.2742228242843
 10
-72.96477593682297
 20
-799.9563393267957
 10
-72.98434093066724
 20
-799.6378797662564
 10
-72.99608464305065
 20
-799.3190359707978
 10
-73.0
 20
-799.0
 10
-73.0
 20
-761.0
 10
-72.99608464305065
 20
-760.6809640292022
 10
-72.98434093066724
 20
-760.3621202337436
 10
-72.96477593682297
 20
-760.0436606732044
 10
-72.93740144673856
 20
-759.7257771757157
 10
-72.90223394978324
 20
-759.4086612224102
 10
-72.85929462954215
 20
-759.0925038320803
 10
-72.80860935105623
 20
-758.7774954461161
 10
-72.750208645242
 20
-758.4638258137903
 10
-72.68412769050087
 20
-758.1516838779607
 10
-72.61040629152907
 20
-757.8412576612576
 10
-72.52908885534072
 20
-757.5327341528264
 10
-72.44022436451871
 20
-757.226299195692
 10
-72.34386634770948
 20
-756.9221373748144
 10
-72.24007284737927
 20
-756.6204319059011
 10
-72.1289063848516
 20
-756.3213645250452
 10
-72.01043392264673
 20
-756.0251153792539
 10
-71.8847268241459
 20
-755.7318629179351
 10
-71.75186081060477
 20
-755.4417837854063
 10
-71.6119159155417
 20
-755.1550527144901
 10
-71.46497643652862
 20
-754.871842421262
 10
-71.31113088441325
 20
-754.5923235010129
 10
-71.15047193000353
 20
-754.3166643254881
 10
-70.98309634824619
 20
-754.0450309414678
 10
-70.8091049599331
 20
-753.7775869707452
 10
-70.62860257097059
 20
-753.514493511568
 10
-70.44169790924839
 20
-753.2559090415983
 10
-70.24850355914587
 20
-753.0019893224519
 10
-70.04913589371557
 20
-752.7528873058726
 10
-69.8437150045843
 20
-752.5087530416009
 10
-69.63236462961447
 20
-752.2697335869888
 10
-69.41521207836907
 20
-752.0359729184181
 10
-69.19238815542512
 20
-751.8076118445749
 10
-68.96402708158188
 20
-751.5847879216309
 10
-68.73026641301124
 20
-751.3676353703855
 10
-68.4912469583991
 20
-751.1562849954157
 10
-68.2471126941274
 20
-750.9508641062844
 10
-67.99801067754815
 20
-750.7514964408541
 10
-67.74409095840163
 20
-750.5583020907516
 10
-67.485506488432
 20
-750.3713974290295
 10
-67.22241302925482
 20
-750.190895040067
 10
-66.95496905853227
 20
-750.0169036517539
 10
-66.68333567451188
 20
-749.8495280699965
 10
-66.4076764989872
 20
-749.6888691155867
 10
-66.12815757873797
 20
-749.5350235634714
 10
-65.84494728550989
 20
-749.3880840844583
 10
-65.55821621459367
 20
-749.2481391893953
 10
-65.26813708206487
 20
-749.1152731758541
 10
-64.97488462074618
 20
-748.9895660773533
 10
-64.67863547495485
 20
-748.8710936151484
 10
-64.37956809409886
 20
-748.7599271526208
 10
-64.07786262518559
 20
-748.6561336522905
 10
-63.773700804308014
 20
-748.5597756354813
 10
-63.46726584717368
 20
-748.4709111446593
 10
-63.158742338742435
 20
-748.3895937084709
 10
-62.848316122039314
 20
-748.3158723094991
 10
-62.53617418620967
 20
-748.249791354758
 10
-62.22250455388392
 20
-748.1913906489438
 10
-61.90749616791971
 20
-748.1407053704578
 10
-61.59133877758981
 20
-748.0977660502168
 10
-61.27422282428429
 20
-748.0625985532614
 10
-60.95633932679568
 20
-748.035224063177
 10
-60.63787976625643
 20
-748.0156590693327
 10
-60.31903597079786
 20
-748.0039153569494
 10
-60.0
 20
-748.0
 10
-59.68096402920214
 20
-748.0039153569494
 10
-59.36212023374357
 20
-748.0156590693327
 10
-59.04366067320432
 20
-748.035224063177
 10
-58.72577717571571
 20
-748.0625985532614
 10
-58.40866122241019
 20
-748.0977660502168
 10
-58.0925038320803
 20
-748.1407053704578
 10
-57.777495446116085
 20
-748.1913906489438
 10
-57.463825813790336
 20
-748.249791354758
 10
-57.15168387796069
 20
-748.3158723094991
 10
-56.84125766125757
 20
-748.3895937084709
 10
-56.53273415282632
 20
-748.4709111446593
 10
-56.22629919569199
 20
-748.5597756354813
 10
-55.92213737481441
 20
-748.6561336522905
 10
-55.62043190590114
 20
-748.7599271526208
 10
-55.321364525045155
 20
-748.8710936151484
 10
-55.02511537925383
 20
-748.9895660773533
 10
-54.73186291793513
 20
-749.1152731758541
 10
-54.44178378540633
 20
-749.2481391893953
 10
-54.15505271449011
 20
-749.3880840844583
 10
-53.87184242126203
 20
-749.5350235634714
 10
-53.59232350101281
 20
-749.6888691155867
 10
-53.31666432548812
 20
-749.8495280699965
 10
-53.045030941467736
 20
-750.0169036517539
 10
-52.77758697074517
 20
-750.190895040067
 10
-52.51449351156801
 20
-750.3713974290295
 10
-52.255909041598365
 20
-750.5583020907516
 10
-52.00198932245185
 20
-750.7514964408541
 10
-51.752887305872605
 20
-750.9508641062844
 10
-51.508753041600905
 20
-751.1562849954157
 10
-51.269733586988764
 20
-751.3676353703855
 10
-51.03597291841813
 20
-751.5847879216309
 10
-50.80761184457488
 20
-751.8076118445749
 10
-50.584787921630934
 20
-752.0359729184181
 10
-50.36763537038553
 20
-752.2697335869888
 10
-50.1562849954157
 20
-752.5087530416009
 10
-49.95086410628442
 20
-752.7528873058726
 10
-49.75149644085412
 20
-753.0019893224519
 10
-49.55830209075162
 20
-753.2559090415983
 10
-49.371397429029415
 20
-753.514493511568
 10
-49.19089504006691
 20
-753.7775869707451
 10
-49.01690365175381
 20
-754.0450309414678
 10
-48.84952806999647
 20
-754.3166643254881
 10
-48.688869115586755
 20
-754.5923235010129
 10
-48.535023563471384
 20
-754.871842421262
 10
-48.3880840844583
 20
-755.1550527144901
 10
-48.24813918939524
 20
-755.4417837854063
 10
-48.1152731758541
 20
-755.7318629179351
 10
-47.989566077353274
 20
-756.0251153792539
 10
-47.871093615148396
 20
-756.3213645250452
 10
-47.75992715262073
 20
-756.6204319059011
 10
-47.65613365229052
 20
-756.9221373748144
 10
-47.55977563548129
 20
-757.226299195692
 10
-47.47091114465928
 20
-757.5327341528264
 10
-47.389593708470926
 20
-757.8412576612576
 10
-47.31587230949913
 20
-758.1516838779607
 10
-47.249791354758
 20
-758.4638258137903
 10
-47.19139064894377
 20
-758.7774954461161
 10
-47.140705370457844
 20
-759.0925038320803
 10
-47.09776605021677
 20
-759.4086612224102
 10
-47.06259855326144
 20
-759.7257771757157
 10
-47.035224063177026
 20
-760.0436606732043
 10
-47.015659069332756
 20
-760.3621202337436
 10
-47.00391535694934
 20
-760.6809640292022
 10
-47.0
 20
-761.0
 10
-47.0
 20
-799.0
 10
-47.00391535694934
 20
-799.3190359707978
  0
LWPOLYLINE
  5
17E
330
17
100
AcDbEntity
  8
20_ВИДИМЫЕ
100
AcDbPolyline
 90
6
 70
1
 10
-121.98667160128367
 20
-894.6
 10
-140.0
 20
-884.2
 10
-158.01332839871634
 20
-894.6
 10
-158.01332839871634
 20
-915.4
 10
-140.0
 20
-925.8
 10
-121.98667160128369
 20
-915.4
  0
CIRCLE
  5
17F
330
17
100
AcDbEntity
  8
22_ТОНКИЕ
100
AcDbCircle
 10
-140.0
 20
-905.0
 30
0.0
 40
22.0
  0
LINE
  5
180
330
17
100
AcDbEntity
  8
07_ОСИ
100
AcDbLine
 10
-170.0
 20
-905.0
 30
0.0
 11
-110.0
 21
-905.0
 31
0.0
  0
LINE
  5
181
330
17
100
AcDbEntity
  8
07_ОСИ
100
AcDbLine
 10
-140.0
 20
-935.0
 30
0.0
 11
-140.0
 21
-875.0
 31
0.0
  0
LWPOLYLINE
  5
182
330
17
100
AcDbEntity
  8
20_ВИДИМЫЕ
100
AcDbPolyline
 90
6
 70
1
 10
-121.98667160128367
 20
-644.6
 10
-140.0
 20
-634.2
 10
-158.01332839871634
 20
-644.6
 10
-158.01332839871634
 20
-665.4
 10
-140.0
 20
-675.8
 10
-121.98667160128369
 20
-665.4
  0
CIRCLE
  5
183
330
17
100
AcDbEntity
  8
22_ТОНКИЕ
100
AcDbCircle
 10
-140.0
 20
-655.0
 30
0.0
 40
22.0
  0
LINE
  5
184
330
17
100
AcDbEntity
  8
07_ОСИ
100
AcDbLine
 10
-170.0
 20
-655.0
 30
0.0
 11
-110.0
 21
-655.0
 31
0.0
  0
LINE
  5
185
330
17
100
AcDbEntity
  8
07_ОСИ
100
AcDbLine
 10
-140.0
 20
-685.0
 30
0.0
 11
-140.0
 21
-625.0
 31
0.0
  0
LWPOLYLINE
  5
186
330
17
100
AcDbEntity
  8
20_ВИДИМЫЕ
100
AcDbPolyline
 90
6
 70
1
 10
38.013328398716325
 20
-894.6
 10
20.0
 20
-884.2
 10
1.9866716012836747
 20
-894.6
 10
1.9866716012836747
 20
-915.4
 10
20.0
 20
-925.8
 10
38.01332839871631
 20
-915.4
  0
CIRCLE
  5
187
330
17
100
AcDbEntity
  8
22_ТОНКИЕ
100
AcDbCircle
 10
20.0
 20
-905.0
 30
0.0
 40
22.0
  0
LINE
  5
188
330
17
100
AcDbEntity
  8
07_ОСИ
100
AcDbLine
 10
-10.0
 20
-905.0
 30
0.0
 11
50.0
 21
-905.0
 31
0.0
  0
LINE
  5
189
330
17
100
AcDbEntity
  8
07_ОСИ
100
AcDbLine
 10
20.0
 20
-935.0
 30
0.0
 11
20.0
 21
-875.0
 31
0.0
  0
LWPOLYLINE
  5
18A
330
17
100
AcDbEntity
  8
20_ВИДИМЫЕ
100
AcDbPolyline
 90
6
 70
1
 10
38.013328398716325
 20
-644.6
 10
20.0
 20
-634.2
 10
1.9866716012836747
 20
-644.6
 10
1.9866716012836747
 20
-665.4
 10
20.0
 20
-675.8
 10
38.01332839871631
 20
-665.4
  0
CIRCLE
  5
18B
330
17
100
AcDbEntity
  8
22_ТОНКИЕ
100
AcDbCircle
 10
20.0
 20
-655.0
 30
0.0
 40
22.0
  0
LINE
  5
18C
330
17
100
AcDbEntity
  8
07_ОСИ
100
AcDbLine
 10
-10.0
 20
-655.0
 30
0.0
 11
50.0
 21
-655.0
 31
0.0
  0
LINE
  5
18D
330
17
100
AcDbEntity
  8
07_ОСИ
100
AcDbLine
 10
20.0
 20
-685.0
 30
0.0
 11
20.0
 21
-625.0
 31
0.0
  0
CIRCLE
  5
18E
330
17
100
AcDbEntity
  8
20_ВИДИМЫЕ
100
AcDbCircle
 10
-166.06601717798213
 20
-673.9339828220179
 30
0.0
 40
15.0
  0
CIRCLE
  5
18F
330
17
100
AcDbEntity
  8
20_ВИДИМЫЕ
100
AcDbCircle
 10
-166.06601717798213
 20
-886.0660171779821
 30
0.0
 40
15.0
  0
ARC
  5
190
330
17
100
AcDbEntity
  8
21_НЕВИДИМЫЕ
100
AcDbCircle
 10
-60.0
 20
-780.0
 30
0.0
 40
61.0
100
AcDbArc
 50
120.0
 51
240.0
  0
LWPOLYLINE
  5
191
330
17
100
AcDbEntity
  8
20_ВИДИМЫЕ
100
AcDbPolyline
 90
71
 70
1
 10
-233.94826817189073
 20
-973.747258045114
 10
-234.44593774064413
 20
-974.2210788634718
 10
-234.96625713021137
 20
-974.6699094555806
 10
-235.50797284560832
 20
-975.0926685492313
 10
-236.069779846228
 20
-975.488337680738
 10
-236.6503246897973
 20
-975.8559636485061
 10
-237.24820879293839
 20
-976.1946608093792
 10
-237.86199180047842
 20
-976.5036132122306
 10
-238.49019505539115
 20
-976.7820765636603
 10
-239.13130516101134
 20
-977.0293800210646
 10
-239.78377762693992
 20
-977.2449278087533
 10
-240.4460405898567
 20
-977.428200653226
 10
-241.1164986002766
 20
-977.5787570341475
 10
-241.7935364661273
 20
-977.6962342480092
 10
-242.47552314388855
 20
-977.7803492819131
 10
-243.16081566791854
 20
-977.8308994953748
 10
-243.84776310850242
 20
-977.8477631085024
 10
-244.53471054908627
 20
-977.8308994953748
 10
-245.22000307311623
 20
-977.7803492819131
 10
-245.90198975087748
 20
-977.6962342480092
 10
-246.57902761672818
 20
-977.5787570341475
 10
-247.24948562714812
 20
-977.428200653226
 10
-247.9117485900649
 20
-977.2449278087533
 10
-248.56422105599347
 20
-977.0293800210646
 10
-249.20533116161366
 20
-976.7820765636603
 10
-249.83353441652636
 20
-976.5036132122306
 10
-250.44731742406637
 20
-976.1946608093793
 10
-251.04520152720752
 20
-975.8559636485062
 10
-251.62574637077682
 20
-975.4883376807379
 10
-252.18755337139646
 20
-975.0926685492313
 10
-252.72926908679344
 20
-974.6699094555806
 10
-253.24958847636066
 20
-974.2210788634718
 10
-253.74725804511405
 20
-973.747258045114
 10
-254.2210788634718
 20
-973.2495884763606
 10
-254.66990945558072
 20
-972.7292690867934
 10
-255.09266854923143
 20
-972.1875533713965
 10
-255.48833768073803
 20
-971.6257463707768
 10
-255.85596364850622
 20
-971.0452015272075
 10
-256.19466080937934
 20
-970.4473174240663
 10
-256.5036132122306
 20
-969.8335344165263
 10
-256.78207656366044
 20
-969.2053311616136
 10
-257.0293800210647
 20
-968.5642210559934
 10
-257.24492780875335
 20
-967.9117485900648
 10
-257.428200653226
 20
-967.249485627148
 10
-257.5787570341476
 20
-966.5790276167281
 10
-257.6962342480093
 20
-965.9019897508774
 10
-257.7803492819131
 20
-965.2200030731162
 10
-257.83089949537487
 20
-964.5347105490862
 10
-257.8477631085024
 20
-963.8477631085024
 10
-257.8308994953748
 20
-963.1608156679185
 10
-257.7803492819132
 20
-962.4755231438885
 10
-257.6962342480093
 20
-961.7935364661273
 10
-257.57875703414766
 20
-961.1164986002766
 10
-257.428200653226
 20
-960.4460405898567
 10
-257.24492780875335
 20
-959.7837776269398
 10
-257.02938002106475
 20
-959.1313051610113
 10
-256.78207656366044
 20
-958.490195055391
 10
-256.5036132122306
 20
-957.8619918004783
 10
-256.1946608093794
 20
-957.2482087929384
 10
-255.8559636485062
 20
-956.6503246897972
 10
-255.48833768073806
 20
-956.0697798462279
 10
-255.0926685492314
 20
-955.5079728456083
 10
-254.66990945558075
 20
-954.9662571302113
 10
-254.22107886347183
 20
-954.4459377406441
 10
-253.74725804511405
 20
-953.9482681718907
 10
-129.11958379795377
 20
-829.3205939247305
 10
-125.70588853583264
 20
-833.9234291539099
 10
-120.10407640085654
 20
-840.1040764008566
 10
-113.92342915390986
 20
-845.7058885358326
 10
-109.32059392473043
 20
-849.1195837979537
 10
-233.94826817189073
 20
-973.747258045114
  0
CIRCLE
  5
192
330
17
100
AcDbEntity
  8
20_ВИДИМЫЕ
100
AcDbCircle
 10
-239.6051224213831
 20
-959.605122421383
 30
0.0
 40
12.0
  0
CIRCLE
  5
193
330
17
100
AcDbEntity
  8
20_ВИДИМЫЕ
100
AcDbCircle
 10
-166.06601717798213
 20
-886.0660171779821
 30
0.0
 40
12.0
  0
CIRCLE
  5
194
330
17
100
AcDbEntity
  8
20_ВИДИМЫЕ
100
AcDbCircle
 10
-166.06601717798213
 20
-886.0660171779821
 30
0.0
 40
8.0
  0
LWPOLYLINE
  5
195
330
17
100
AcDbEntity
  8
24_ФАНТОМ
100
AcDbPolyline
 90
71
 70
1
 10
-253.747258045114
 20
-606.0517318281093
 10
-254.22107886347175
 20
-605.5540622593559
 10
-254.6699094555807
 20
-605.0337428697886
 10
-255.09266854923135
 20
-604.4920271543917
 10
-255.488337680738
 20
-603.9302201537721
 10
-255.85596364850613
 20
-603.3496753102028
 10
-256.1946608093793
 20
-602.7517912070616
 10
-256.50361321223056
 20
-602.1380081995217
 10
-256.7820765636603
 20
-601.509804944609
 10
-257.02938002106464
 20
-600.8686948389887
 10
-257.2449278087533
 20
-600.2162223730601
 10
-257.42820065322593
 20
-599.5539594101433
 10
-257.57875703414754
 20
-598.8835013997234
 10
-257.69623424800926
 20
-598.2064635338727
 10
-257.7803492819131
 20
-597.5244768561115
 10
-257.83089949537475
 20
-596.8391843320815
 10
-257.84776310850236
 20
-596.1522368914976
 10
-257.83089949537475
 20
-595.4652894509138
 10
-257.7803492819131
 20
-594.7799969268838
 10
-257.69623424800926
 20
-594.0980102491226
 10
-257.57875703414754
 20
-593.4209723832719
 10
-257.428200653226
 20
-592.750514372852
 10
-257.2449278087533
 20
-592.0882514099351
 10
-257.02938002106464
 20
-591.4357789440065
 10
-256.7820765636603
 20
-590.7946688383863
 10
-256.50361321223056
 20
-590.1664655834736
 10
-256.19466080937934
 20
-589.5526825759337
 10
-255.85596364850616
 20
-588.9547984727925
 10
-255.48833768073797
 20
-588.3742536292232
 10
-255.0926685492314
 20
-587.8124466286035
 10
-254.66990945558067
 20
-587.2707309132065
 10
-254.22107886347175
 20
-586.7504115236394
 10
-253.747258045114
 20
-586.252741954886
 10
-253.2495884763606
 20
-585.7789211365282
 10
-252.72926908679338
 20
-585.3300905444194
 10
-252.18755337139643
 20
-584.9073314507687
 10
-251.62574637077677
 20
-584.511662319262
 10
-251.04520152720747
 20
-584.1440363514938
 10
-250.4473174240663
 20
-583.8053391906207
 10
-249.83353441652628
 20
-583.4963867877694
 10
-249.2053311616136
 20
-583.2179234363396
 10
-248.56422105599341
 20
-582.9706199789354
 10
-247.91174859006483
 20
-582.7550721912467
 10
-247.24948562714806
 20
-582.571799346774
 10
-246.57902761672813
 20
-582.4212429658525
 10
-245.90198975087742
 20
-582.3037657519907
 10
-245.2200030731162
 20
-582.2196507180869
 10
-244.53471054908618
 20
-582.1691005046252
 10
-243.84776310850236
 20
-582.1522368914976
 10
-243.16081566791848
 20
-582.1691005046252
 10
-242.4755231438885
 20
-582.2196507180869
 10
-241.79353646612725
 20
-582.3037657519907
 10
-241.11649860027657
 20
-582.4212429658523
 10
-240.44604058985664
 20
-582.571799346774
 10
-239.78377762693987
 20
-582.7550721912467
 10
-239.13130516101126
 20
-582.9706199789354
 10
-238.49019505539107
 20
-583.2179234363396
 10
-237.8619918004784
 20
-583.4963867877694
 10
-237.24820879293839
 20
-583.8053391906207
 10
-236.65032468979723
 20
-584.1440363514938
 10
-236.06977984622793
 20
-584.511662319262
 10
-235.50797284560826
 20
-584.9073314507687
 10
-234.96625713021132
 20
-585.3300905444192
 10
-234.4459377406441
 20
-585.7789211365282
 10
-233.94826817189067
 20
-586.252741954886
 10
-109.32059392473042
 20
-710.8804162020463
 10
-113.92342915390991
 20
-714.2941114641674
 10
-120.10407640085656
 20
-719.8959235991434
 10
-125.70588853583266
 20
-726.0765708460901
 10
-129.11958379795374
 20
-730.6794060752695
 10
-253.747258045114
 20
-606.0517318281093
  0
CIRCLE
  5
196
330
17
100
AcDbEntity
  8
24_ФАНТОМ
100
AcDbCircle
 10
-239.60512242138304
 20
-600.394877578617
 30
0.0
 40
12.0
  0
CIRCLE
  5
197
330
17
100
AcDbEntity
  8
24_ФАНТОМ
100
AcDbCircle
 10
-166.06601717798213
 20
-673.9339828220179
 30
0.0
 40
12.0
  0
CIRCLE
  5
198
330
17
100
AcDbEntity
  8
24_ФАНТОМ
100
AcDbCircle
 10
-166.06601717798213
 20
-673.9339828220179
 30
0.0
 40
8.0
  0
LINE
  5
199
330
17
100
AcDbEntity
  8
07_ОСИ
100
AcDbLine
 10
-170.0
 20
-780.0
 30
0.0
 11
50.0
 21
-780.0
 31
0.0
  0
LINE
  5
19A
330
17
100
AcDbEntity
  8
07_ОСИ
100
AcDbLine
 10
-60.0
 20
-890.0
 30
0.0
 11
-60.0
 21
-670.0
 31
0.0
  0
TEXT
  5
19B
330
17
100
AcDbEntity
  8
08_ТЕКСТ
100
AcDbText
 10
-210.0
 20
-565.0
 30
0.0
 40
7.0
  1
«открыто»
  7
ГОСТ
 72
1
 11
-210.0
 21
-565.0
 31
0.0
100
AcDbText
 73
2
  0
TEXT
  5
19C
330
17
100
AcDbEntity
  8
08_ТЕКСТ
100
AcDbText
 10
-210.0
 20
-995.0
 30
0.0
 40
7.0
  1
«закрыто»
  7
ГОСТ
 72
1
 11
-210.0
 21
-995.0
 31
0.0
100
AcDbText
 73
2
  0
TEXT
  5
19D
330
17
100
AcDbEntity
  8
08_ТЕКСТ
100
AcDbText
 10
-60.0
 20
-535.0
 30
0.0
 40
14.0
  1
Вид сверху (фитинг не показан)
  7
ГОСТ
 72
1
 11
-60.0
 21
-535.0
 31
0.0
100
AcDbText
 73
1
  0
LWPOLYLINE
  5
19E
330
17
100
AcDbEntity
  8
20_ВИДИМЫЕ
100
AcDbPolyline
 90
2
 70
0
 43
2.4
 10
-360.0
 20
-780.0
 10
-340.0
 20
-780.0
  0
LINE
  5
19F
330
17
100
AcDbEntity
  8
20_ВИДИМЫЕ
100
AcDbLine
 10
-360.0
 20
-780.0
 30
0.0
 11
-360.0
 21
-804.0
 31
0.0
  0
LWPOLYLINE
  5
1A0
330
17
100
AcDbEntity
  8
20_ВИДИМЫЕ
100
AcDbPolyline
 90
3
 70
0
 10
-357.0
 20
-796.0
 10
-360.0
 20
-804.0
 10
-363.0
 20
-796.0
  0
TEXT
  5
1A1
330
17
100
AcDbEntity
  8
08_ТЕКСТ
100
AcDbText
 10
-370.0
 20
-810.0
 30
0.0
 40
14.0
  1
А
  7
ГОСТ
 72
1
 11
-370.0
 21
-810.0
 31
0.0
100
AcDbText
 73
2
  0
LWPOLYLINE
  5
1A2
330
17
100
AcDbEntity
  8
20_ВИДИМЫЕ
100
AcDbPolyline
 90
2
 70
0
 43
2.4
 10
200.0
 20
-780.0
 10
180.0
 20
-780.0
  0
LINE
  5
1A3
330
17
100
AcDbEntity
  8
20_ВИДИМЫЕ
100
AcDbLine
 10
200.0
 20
-780.0
 30
0.0
 11
200.0
 21
-804.0
 31
0.0
  0
LWPOLYLINE
  5
1A4
330
17
100
AcDbEntity
  8
20_ВИДИМЫЕ
100
AcDbPolyline
 90
3
 70
0
 10
203.0
 20
-796.0
 10
200.0
 20
-804.0
 10
197.0
 20
-796.0
  0
TEXT
  5
1A5
330
17
100
AcDbEntity
  8
08_ТЕКСТ
100
AcDbText
 10
210.0
 20
-810.0
 30
0.0
 40
14.0
  1
А
  7
ГОСТ
 72
1
 11
210.0
 21
-810.0
 31
0.0
100
AcDbText
 73
2
  0
LWPOLYLINE
  5
1A6
330
17
100
AcDbEntity
  8
20_ВИДИМЫЕ
100
AcDbPolyline
 90
2
 70
0
 43
2.4
 10
-60.0
 20
-518.0
 10
-60.0
 20
-538.0
  0
LINE
  5
1A7
330
17
100
AcDbEntity
  8
20_ВИДИМЫЕ
100
AcDbLine
 10
-60.0
 20
-518.0
 30
0.0
 11
-36.0
 21
-518.0
 31
0.0
  0
LWPOLYLINE
  5
1A8
330
17
100
AcDbEntity
  8
20_ВИДИМЫЕ
100
AcDbPolyline
 90
3
 70
0
 10
-44.0
 20
-515.0
 10
-36.0
 20
-518.0
 10
-44.0
 20
-521.0
  0
TEXT
  5
1A9
330
17
100
AcDbEntity
  8
08_ТЕКСТ
100
AcDbText
 10
-30.0
 20
-508.0
 30
0.0
 40
14.0
  1
Б
  7
ГОСТ
 72
1
 11
-30.0
 21
-508.0
 31
0.0
100
AcDbText
 73
2
  0
LWPOLYLINE
  5
1AA
330
17
100
AcDbEntity
  8
20_ВИДИМЫЕ
100
AcDbPolyline
 90
2
 70
0
 43
2.4
 10
-60.0
 20
-1042.0
 10
-60.0
 20
-1022.0
  0
LINE
  5
1AB
330
17
100
AcDbEntity
  8
20_ВИДИМЫЕ
100
AcDbLine
 10
-60.0
 20
-1042.0
 30
0.0
 11
-36.0
 21
-1042.0
 31
0.0
  0
LWPOLYLINE
  5
1AC
330
17
100
AcDbEntity
  8
20_ВИДИМЫЕ
100
AcDbPolyline
 90
3
 70
0
 10
-44.0
 20
-1039.0
 10
-36.0
 20
-1042.0
 10
-44.0
 20
-1045.0
  0
TEXT
  5
1AD
330
17
100
AcDbEntity
  8
08_ТЕКСТ
100
AcDbText
 10
-30.0
 20
-1052.0
 30
0.0
 40
14.0
  1
Б
  7
ГОСТ
 72
1
 11
-30.0
 21
-1052.0
 31
0.0
100
AcDbText
 73
2
  0
DIMENSION
  5
1AE
330
17
100
AcDbEntity
  8
09_РАЗМЕРЫ
100
AcDbDimension
280
0
  2
*D7
  3
ГОСТ
 10
-180.0
 20
-970.0
 30
0.0
 11
-60.0
 21
-964.5
 31
0.0
 70
32
 71
5
  1
<>
100
AcDbAlignedDimension
 13
-180.0
 23
-945.0
 33
0.0
 14
60.0
 24
-945.0
 34
0.0
 50
0.0
100
AcDbRotatedDimension
1001
ACAD
1000
DSTYLE
1002
{
1070
340
1005
99
1002
}
  0
DIMENSION
  5
1BD
330
17
100
AcDbEntity
  8
09_РАЗМЕРЫ
100
AcDbDimension
280
0
  2
*D8
  3
ГОСТ
 10
-250.0
 20
-1000.0
 30
0.0
 11
-60.0
 21
-994.5
 31
0.0
 70
32
 71
5
  1
<>
100
AcDbAlignedDimension
 13
-250.0
 23
-925.0
 33
0.0
 14
130.0
 24
-925.0
 34
0.0
 50
0.0
100
AcDbRotatedDimension
1001
ACAD
1000
DSTYLE
1002
{
1070
340
1005
99
1002
}
  0
DIMENSION
  5
1CC
330
17
100
AcDbEntity
  8
09_РАЗМЕРЫ
100
AcDbDimension
280
0
  2
*D9
  3
ГОСТ
 10
180.0
 20
-945.0
 30
0.0
 11
174.5
 21
-780.0
 31
0.0
 70
32
 71
5
  1
<>
100
AcDbAlignedDimension
 13
60.0
 23
-945.0
 33
0.0
 14
60.0
 24
-615.0
 34
0.0
 50
90.0
100
AcDbRotatedDimension
1001
ACAD
1000
DSTYLE
1002
{
1070
340
1005
99
1002
}
  0
DIMENSION
  5
1DB
330
17
100
AcDbEntity
  8
09_РАЗМЕРЫ
100
AcDbDimension
280
0
  2
*D10
  3
ГОСТ
 10
215.0
 20
-905.0
 30
0.0
 11
209.5
 21
-780.0
 31
0.0
 70
32
 71
5
  1
<>
100
AcDbAlignedDimension
 13
20.0
 23
-905.0
 33
0.0
 14
20.0
 24
-655.0
 34
0.0
 50
90.0
100
AcDbRotatedDimension
1001
ACAD
1000
DSTYLE
1002
{
1070
340
1005
99
1002
}
  0
DIMENSION
  5
1EA
330
17
100
AcDbEntity
  8
09_РАЗМЕРЫ
100
AcDbDimension
280
0
  2
*D11
  3
ГОСТ
 10
250.0
 20
-925.0
 30
0.0
 11
244.5
 21
-780.0
 31
0.0
 70
32
 71
5
  1
<>
100
AcDbAlignedDimension
 13
130.0
 23
-925.0
 33
0.0
 14
130.0
 24
-635.0
 34
0.0
 50
90.0
100
AcDbRotatedDimension
1001
ACAD
1000
DSTYLE
1002
{
1070
340
1005
99
1002
}
  0
DIMENSION
  5
1F9
330
17
100
AcDbEntity
  8
09_РАЗМЕРЫ
100
AcDbDimension
280
0
  2
*D12
  3
ГОСТ
 10
-140.0
 20
-590.0
 30
0.0
 11
-60.0
 21
-584.5
 31
0.0
 70
32
 71
5
  1
<>
100
AcDbAlignedDimension
 13
-140.0
 23
-655.0
 33
0.0
 14
20.0
 24
-655.0
 34
0.0
 50
0.0
100
AcDbRotatedDimension
1001
ACAD
1000
DSTYLE
1002
{
1070
340
1005
99
1002
}
  0
LINE
  5
208
330
17
100
AcDbEntity
  8
09_РАЗМЕРЫ
100
AcDbLine
 10
34.0
 20
-641.0
 30
0.0
 11
60.0
 21
-555.0
 31
0.0
  0
LINE
  5
209
330
17
100
AcDbEntity
  8
09_РАЗМЕРЫ
100
AcDbLine
 10
60.0
 20
-555.0
 30
0.0
 11
164.16
 21
-555.0
 31
0.0
  0
TEXT
  5
20A
330
17
100
AcDbEntity
  8
08_ТЕКСТ
100
AcDbText
 10
112.07999999999998
 20
-552.6
 30
0.0
 40
6.0
  1
4 отв. Ø32 в листе и настиле
  7
ГОСТ
 72
1
 11
112.07999999999998
 21
-552.6
 31
0.0
100
AcDbText
 73
1
  0
HATCH
  5
20B
330
17
100
AcDbEntity
  8
23_ШТРИХОВКА
 62
7
100
AcDbHatch
 10
0.0
 20
0.0
 30
0.0
210
0.0
220
0.0
230
1.0
  2
ANSI31
 70
0
 71
0
 91
1
 92
3
 72
0
 73
1
 93
4
 10
890.0
 20
-247.0
 10
890.0
 20
-241.0
 10
390.0
 20
-241.0
 10
390.0
 20
-247.0
 97
0
 75
1
 76
1
 52
90.0
 41
0.6
 77
0
 78
1
 53
135.0
 43
0.0
 44
0.0
 45
-1.3470384182
 46
-1.3470384182
 79
0
 98
0
  0
LWPOLYLINE
  5
20C
330
17
100
AcDbEntity
  8
20_ВИДИМЫЕ
100
AcDbPolyline
 90
5
 70
1
 10
890.0
 20
-247.0
 10
890.0
 20
-241.0
 10
390.0
 20
-241.0
 10
390.0
 20
-247.0
 10
890.0
 20
-247.0
  0
HATCH
  5
20D
330
17
100
AcDbEntity
  8
23_ШТРИХОВКА
 62
7
100
AcDbHatch
 10
0.0
 20
0.0
 30
0.0
210
0.0
220
0.0
230
1.0
  2
ANSI31
 70
0
 71
0
 91
1
 92
3
 72
0
 73
1
 93
4
 10
785.0
 20
-241.0
 10
785.0
 20
-233.0
 10
495.0
 20
-233.0
 10
495.0
 20
-241.0
 97
0
 75
1
 76
1
 52
0.0
 41
0.6
 77
0
 78
1
 53
45.0
 43
0.0
 44
0.0
 45
-1.3470384182
 46
1.3470384182
 79
0
 98
0
  0
LWPOLYLINE
  5
20E
330
17
100
AcDbEntity
  8
20_ВИДИМЫЕ
100
AcDbPolyline
 90
5
 70
1
 10
785.0
 20
-241.0
 10
785.0
 20
-233.0
 10
495.0
 20
-233.0
 10
495.0
 20
-241.0
 10
785.0
 20
-241.0
  0
HATCH
  5
20F
330
17
100
AcDbEntity
  8
23_ШТРИХОВКА
 62
7
100
AcDbHatch
 10
0.0
 20
0.0
 30
0.0
210
0.0
220
0.0
230
1.0
  2
ANSI37
 70
0
 71
0
 91
1
 92
3
 72
0
 73
1
 93
4
 10
805.0
 20
-233.0
 10
805.0
 20
-230.0
 10
475.0
 20
-230.0
 10
475.0
 20
-233.0
 97
0
 75
1
 76
1
 52
0.0
 41
0.35
 77
0
 78
2
 53
45.0
 43
0.0
 44
0.0
 45
-0.7857724106
 46
0.7857724106
 79
0
 53
135.0
 43
0.0
 44
0.0
 45
-0.7857724106
 46
-0.7857724106
 79
0
 98
0
  0
LWPOLYLINE
  5
210
330
17
100
AcDbEntity
  8
20_ВИДИМЫЕ
100
AcDbPolyline
 90
5
 70
1
 10
805.0
 20
-233.0
 10
805.0
 20
-230.0
 10
475.0
 20
-230.0
 10
475.0
 20
-233.0
 10
805.0
 20
-233.0
  0
HATCH
  5
211
330
17
100
AcDbEntity
  8
23_ШТРИХОВКА
 62
7
100
AcDbHatch
 10
0.0
 20
0.0
 30
0.0
210
0.0
220
0.0
230
1.0
  2
ANSI31
 70
0
 71
0
 91
1
 92
3
 72
0
 73
1
 93
4
 10
644.0
 20
-507.0
 10
644.0
 20
-247.0
 10
636.0
 20
-247.0
 10
636.0
 20
-507.0
 97
0
 75
1
 76
1
 52
90.0
 41
0.6
 77
0
 78
1
 53
135.0
 43
0.0
 44
0.0
 45
-1.3470384182
 46
-1.3470384182
 79
0
 98
0
  0
LWPOLYLINE
  5
212
330
17
100
AcDbEntity
  8
20_ВИДИМЫЕ
100
AcDbPolyline
 90
5
 70
1
 10
644.0
 20
-507.0
 10
644.0
 20
-247.0
 10
636.0
 20
-247.0
 10
636.0
 20
-507.0
 10
644.0
 20
-507.0
  0
HATCH
  5
213
330
17
100
AcDbEntity
  8
23_ШТРИХОВКА
 62
7
100
AcDbHatch
 10
0.0
 20
0.0
 30
0.0
210
0.0
220
0.0
230
1.0
  2
ANSI31
 70
0
 71
0
 91
1
 92
3
 72
0
 73
1
 93
4
 10
705.0
 20
-519.0
 10
705.0
 20
-507.0
 10
575.0
 20
-507.0
 10
575.0
 20
-519.0
 97
0
 75
1
 76
1
 52
90.0
 41
0.6
 77
0
 78
1
 53
135.0
 43
0.0
 44
0.0
 45
-1.3470384182
 46
-1.3470384182
 79
0
 98
0
  0
LWPOLYLINE
  5
214
330
17
100
AcDbEntity
  8
20_ВИДИМЫЕ
100
AcDbPolyline
 90
5
 70
1
 10
705.0
 20
-519.0
 10
705.0
 20
-507.0
 10
575.0
 20
-507.0
 10
575.0
 20
-519.0
 10
705.0
 20
-519.0
  0
LWPOLYLINE
  5
215
330
17
100
AcDbEntity
  8
22_ТОНКИЕ
100
AcDbPolyline
 90
6
 70
0
 10
390.0
 20
-253.0
 10
390.0
 20
-250.0
 10
385.0
 20
-246.0
 10
395.0
 20
-242.0
 10
390.0
 20
-238.0
 10
390.0
 20
-235.0
  0
LWPOLYLINE
  5
216
330
17
100
AcDbEntity
  8
22_ТОНКИЕ
100
AcDbPolyline
 90
6
 70
0
 10
890.0
 20
-253.0
 10
890.0
 20
-250.0
 10
885.0
 20
-246.0
 10
895.0
 20
-242.0
 10
890.0
 20
-238.0
 10
890.0
 20
-235.0
  0
HATCH
  5
217
330
17
100
AcDbEntity
  8
23_ШТРИХОВКА
 62
7
100
AcDbHatch
 10
0.0
 20
0.0
 30
0.0
210
0.0
220
0.0
230
1.0
  2
ANSI31
 70
0
 71
0
 91
1
 92
3
 72
0
 73
1
 93
14
 10
658.0
 20
-136.0
 10
658.0
 20
-95.0
 10
662.0
 20
-95.0
 10
662.0
 20
-90.0
 10
669.0
 20
-90.0
 10
669.0
 20
-106.0
 10
725.0
 20
-106.0
 10
725.0
 20
-138.40625
 10
799.4326241134752
 20
-204.0
 10
805.0
 20
-204.0
 10
805.0
 20
-230.0
 10
725.0
 20
-230.0
 10
701.0
 20
-230.0
 10
701.0
 20
-136.0
 97
0
 75
1
 76
1
 52
0.0
 41
1.0
 77
0
 78
1
 53
45.0
 43
0.0
 44
0.0
 45
-2.2450640303
 46
2.2450640303
 79
0
 98
0
  0
LWPOLYLINE
  5
218
330
17
100
AcDbEntity
  8
20_ВИДИМЫЕ
100
AcDbPolyline
 90
15
 70
1
 10
658.0
 20
-136.0
 10
658.0
 20
-95.0
 10
662.0
 20
-95.0
 10
662.0
 20
-90.0
 10
669.0
 20
-90.0
 10
669.0
 20
-106.0
 10
725.0
 20
-106.0
 10
725.0
 20
-138.40625
 10
799.4326241134752
 20
-204.0
 10
805.0
 20
-204.0
 10
805.0
 20
-230.0
 10
725.0
 20
-230.0
 10
701.0
 20
-230.0
 10
701.0
 20
-136.0
 10
658.0
 20
-136.0
  0
HATCH
  5
219
330
17
100
AcDbEntity
  8
23_ШТРИХОВКА
 62
7
100
AcDbHatch
 10
0.0
 20
0.0
 30
0.0
210
0.0
220
0.0
230
1.0
  2
ANSI31
 70
0
 71
0
 91
1
 92
3
 72
0
 73
1
 93
14
 10
579.0
 20
-230.0
 10
555.0
 20
-230.0
 10
475.0
 20
-230.0
 10
475.0
 20
-204.0
 10
480.5673758865248
 20
-204.0
 10
555.0
 20
-138.40625
 10
555.0
 20
-106.0
 10
611.0
 20
-106.0
 10
611.0
 20
-90.0
 10
618.0
 20
-90.0
 10
618.0
 20
-95.0
 10
622.0
 20
-95.0
 10
622.0
 20
-136.0
 10
579.0
 20
-136.0
 97
0
 75
1
 76
1
 52
0.0
 41
1.0
 77
0
 78
1
 53
45.0
 43
0.0
 44
0.0
 45
-2.2450640303
 46
2.2450640303
 79
0
 98
0
  0
LWPOLYLINE
  5
21A
330
17
100
AcDbEntity
  8
20_ВИДИМЫЕ
100
AcDbPolyline
 90
15
 70
1
 10
579.0
 20
-230.0
 10
555.0
 20
-230.0
 10
475.0
 20
-230.0
 10
475.0
 20
-204.0
 10
480.5673758865248
 20
-204.0
 10
555.0
 20
-138.40625
 10
555.0
 20
-106.0
 10
611.0
 20
-106.0
 10
611.0
 20
-90.0
 10
618.0
 20
-90.0
 10
618.0
 20
-95.0
 10
622.0
 20
-95.0
 10
622.0
 20
-136.0
 10
579.0
 20
-136.0
 10
579.0
 20
-230.0
  0
LWPOLYLINE
  5
21B
330
17
100
AcDbEntity
  8
20_ВИДИМЫЕ
100
AcDbPolyline
 90
7
 70
1
 10
588.0
 20
-77.0
 10
692.0
 20
-77.0
 10
692.0
 20
-59.0
 10
672.0
 20
-32.0
 10
608.0
 20
-32.0
 10
588.0
 20
-59.0
 10
588.0
 20
-77.0
  0
LWPOLYLINE
  5
21C
330
17
100
AcDbEntity
  8
20_ВИДИМЫЕ
100
AcDbPolyline
 90
5
 70
1
 10
662.0
 20
-95.0
 10
662.0
 20
-77.0
 10
618.0
 20
-77.0
 10
618.0
 20
-95.0
 10
662.0
 20
-95.0
  0
LWPOLYLINE
  5
21D
330
17
100
AcDbEntity
  8
20_ВИДИМЫЕ
100
AcDbPolyline
 90
5
 70
1
 10
658.0
 20
-136.0
 10
658.0
 20
-95.0
 10
622.0
 20
-95.0
 10
622.0
 20
-136.0
 10
658.0
 20
-136.0
  0
LWPOLYLINE
  5
21E
330
17
100
AcDbEntity
  8
20_ВИДИМЫЕ
100
AcDbPolyline
 90
5
 70
1
 10
656.5
 20
-154.0
 10
656.5
 20
-136.0
 10
623.5
 20
-136.0
 10
623.5
 20
-154.0
 10
656.5
 20
-154.0
  0
LWPOLYLINE
  5
21F
330
17
100
AcDbEntity
  8
20_ВИДИМЫЕ
100
AcDbPolyline
 90
5
 70
1
 10
651.0
 20
-184.0
 10
651.0
 20
-154.0
 10
629.0
 20
-154.0
 10
629.0
 20
-184.0
 10
651.0
 20
-184.0
  0
LWPOLYLINE
  5
220
330
17
100
AcDbEntity
  8
20_ВИДИМЫЕ
100
AcDbPolyline
 90
5
 70
1
 10
669.0
 20
-138.0
 10
669.0
 20
-136.0
 10
611.0
 20
-136.0
 10
611.0
 20
-138.0
 10
669.0
 20
-138.0
  0
LWPOLYLINE
  5
221
330
17
100
AcDbEntity
  8
20_ВИДИМЫЕ
100
AcDbPolyline
 90
5
 70
1
 10
668.0
 20
-139.5
 10
668.0
 20
-138.0
 10
612.0
 20
-138.0
 10
612.0
 20
-139.5
 10
668.0
 20
-139.5
  0
LWPOLYLINE
  5
222
330
17
100
AcDbEntity
  8
20_ВИДИМЫЕ
100
AcDbPolyline
 90
5
 70
1
 10
666.0
 20
-149.5
 10
666.0
 20
-139.5
 10
614.0
 20
-139.5
 10
614.0
 20
-149.5
 10
666.0
 20
-149.5
  0
LWPOLYLINE
  5
223
330
17
100
AcDbEntity
  8
20_ВИДИМЫЕ
100
AcDbPolyline
 90
5
 70
1
 10
660.0
 20
-188.0
 10
660.0
 20
-184.0
 10
620.0
 20
-184.0
 10
620.0
 20
-188.0
 10
660.0
 20
-188.0
  0
LWPOLYLINE
  5
224
330
17
100
AcDbEntity
  8
20_ВИДИМЫЕ
100
AcDbPolyline
 90
5
 70
1
 10
646.5
 20
-196.0
 10
646.5
 20
-188.0
 10
633.5
 20
-188.0
 10
633.5
 20
-196.0
 10
646.5
 20
-196.0
  0
LWPOLYLINE
  5
225
330
17
100
AcDbEntity
  8
20_ВИДИМЫЕ
100
AcDbPolyline
 90
5
 70
1
 10
666.0
 20
-184.0
 10
666.0
 20
-154.0
 10
614.0
 20
-154.0
 10
614.0
 20
-184.0
 10
666.0
 20
-184.0
  0
LWPOLYLINE
  5
226
330
17
100
AcDbEntity
  8
20_ВИДИМЫЕ
100
AcDbPolyline
 90
3
 70
0
 10
499.9337811165743
 20
-187.0
 10
494.2
 20
-187.0
 10
494.2
 20
-192.05289460898115
  0
LWPOLYLINE
  5
227
330
17
100
AcDbEntity
  8
20_ВИДИМЫЕ
100
AcDbPolyline
 90
5
 70
0
 10
540.0
 20
-250.0
 10
540.0
 20
-247.0
 10
490.0
 20
-247.0
 10
490.0
 20
-250.0
 10
540.0
 20
-250.0
  0
LWPOLYLINE
  5
228
330
17
100
AcDbEntity
  8
20_ВИДИМЫЕ
100
AcDbPolyline
 90
5
 70
0
 10
537.0
 20
-254.0
 10
537.0
 20
-250.0
 10
493.0
 20
-250.0
 10
493.0
 20
-254.0
 10
537.0
 20
-254.0
  0
LWPOLYLINE
  5
229
330
17
100
AcDbEntity
  8
20_ВИДИМЫЕ
100
AcDbPolyline
 90
5
 70
0
 10
535.8
 20
-278.0
 10
535.8
 20
-254.0
 10
494.2
 20
-254.0
 10
494.2
 20
-278.0
 10
535.8
 20
-278.0
  0
LWPOLYLINE
  5
22A
330
17
100
AcDbEntity
  8
20_ВИДИМЫЕ
100
AcDbPolyline
 90
5
 70
0
 10
522.0
 20
-278.0
 10
522.0
 20
-254.0
 10
508.0
 20
-254.0
 10
508.0
 20
-278.0
 10
522.0
 20
-278.0
  0
LWPOLYLINE
  5
22B
330
17
100
AcDbEntity
  8
20_ВИДИМЫЕ
100
AcDbPolyline
 90
5
 70
0
 10
527.0
 20
-281.0
 10
527.0
 20
-278.0
 10
503.0
 20
-278.0
 10
503.0
 20
-281.0
 10
527.0
 20
-281.0
  0
LINE
  5
22C
330
17
100
AcDbEntity
  8
07_ОСИ
100
AcDbLine
 10
515.0
 20
-181.0
 30
0.0
 11
515.0
 21
-286.0
 31
0.0
  0
LWPOLYLINE
  5
22D
330
17
100
AcDbEntity
  8
20_ВИДИМЫЕ
100
AcDbPolyline
 90
3
 70
0
 10
785.8
 20
-192.05289460898115
 10
785.8
 20
-187.0
 10
780.0662188834257
 20
-187.0
  0
LWPOLYLINE
  5
22E
330
17
100
AcDbEntity
  8
20_ВИДИМЫЕ
100
AcDbPolyline
 90
5
 70
0
 10
790.0
 20
-250.0
 10
790.0
 20
-247.0
 10
740.0
 20
-247.0
 10
740.0
 20
-250.0
 10
790.0
 20
-250.0
  0
LWPOLYLINE
  5
22F
330
17
100
AcDbEntity
  8
20_ВИДИМЫЕ
100
AcDbPolyline
 90
5
 70
0
 10
787.0
 20
-254.0
 10
787.0
 20
-250.0
 10
743.0
 20
-250.0
 10
743.0
 20
-254.0
 10
787.0
 20
-254.0
  0
LWPOLYLINE
  5
230
330
17
100
AcDbEntity
  8
20_ВИДИМЫЕ
100
AcDbPolyline
 90
5
 70
0
 10
785.8
 20
-278.0
 10
785.8
 20
-254.0
 10
744.2
 20
-254.0
 10
744.2
 20
-278.0
 10
785.8
 20
-278.0
  0
LWPOLYLINE
  5
231
330
17
100
AcDbEntity
  8
20_ВИДИМЫЕ
100
AcDbPolyline
 90
5
 70
0
 10
772.0
 20
-278.0
 10
772.0
 20
-254.0
 10
758.0
 20
-254.0
 10
758.0
 20
-278.0
 10
772.0
 20
-278.0
  0
LWPOLYLINE
  5
232
330
17
100
AcDbEntity
  8
20_ВИДИМЫЕ
100
AcDbPolyline
 90
5
 70
0
 10
777.0
 20
-281.0
 10
777.0
 20
-278.0
 10
753.0
 20
-278.0
 10
753.0
 20
-281.0
 10
777.0
 20
-281.0
  0
LINE
  5
233
330
17
100
AcDbEntity
  8
07_ОСИ
100
AcDbLine
 10
765.0
 20
-181.0
 30
0.0
 11
765.0
 21
-286.0
 31
0.0
  0
LWPOLYLINE
  5
234
330
17
100
AcDbEntity
  8
24_ФАНТОМ
100
AcDbPolyline
 90
13
 70
0
 10
551.0
 20
-106.0
 10
608.25
 20
-106.0
 10
608.25
 20
-78.0
 10
563.0
 20
-78.0
 10
563.0
 20
0.0
 10
701.0
 20
0.0
 10
701.0
 20
-78.0
 10
671.75
 20
-78.0
 10
671.75
 20
-106.0
 10
713.0
 20
-106.0
 10
713.0
 20
12.0
 10
551.0
 20
12.0
 10
551.0
 20
-106.0
  0
LINE
  5
235
330
17
100
AcDbEntity
  8
07_ОСИ
100
AcDbLine
 10
640.0
 20
-532.0
 30
0.0
 11
640.0
 21
-7.0
 31
0.0
  0
TEXT
  5
236
330
17
100
AcDbEntity
  8
08_ТЕКСТ
100
AcDbText
 10
640.0
 20
55.0
 30
0.0
 40
14.0
  1
Б–Б
  7
ГОСТ
 72
1
 11
640.0
 21
55.0
 31
0.0
100
AcDbText
 73
1
  0
DIMENSION
  5
237
330
17
100
AcDbEntity
  8
09_РАЗМЕРЫ
100
AcDbDimension
280
0
  2
*D13
  3
ГОСТ
 10
475.0
 20
-287.0
 30
0.0
 11
640.0
 21
-281.5
 31
0.0
 70
32
 71
5
  1
<>
100
AcDbAlignedDimension
 13
475.0
 23
-230.0
 33
0.0
 14
805.0
 24
-230.0
 34
0.0
 50
0.0
100
AcDbRotatedDimension
1001
ACAD
1000
DSTYLE
1002
{
1070
340
1005
99
1002
}
  0
DIMENSION
  5
246
330
17
100
AcDbEntity
  8
09_РАЗМЕРЫ
100
AcDbDimension
280
0
  2
*D14
  3
ГОСТ
 10
515.0
 20
-322.0
 30
0.0
 11
640.0
 21
-316.5
 31
0.0
 70
32
 71
5
  1
<>
100
AcDbAlignedDimension
 13
515.0
 23
-287.0
 33
0.0
 14
765.0
 24
-287.0
 34
0.0
 50
0.0
100
AcDbRotatedDimension
1001
ACAD
1000
DSTYLE
1002
{
1070
340
1005
99
1002
}
  0
DIMENSION
  5
255
330
17
100
AcDbEntity
  8
09_РАЗМЕРЫ
100
AcDbDimension
280
0
  2
*D15
  3
ГОСТ
 10
588.0
 20
20.0
 30
0.0
 11
640.0
 21
25.5
 31
0.0
 70
32
 71
5
  1
<>
100
AcDbAlignedDimension
 13
588.0
 23
-59.0
 33
0.0
 14
692.0
 24
-59.0
 34
0.0
 50
0.0
100
AcDbRotatedDimension
1001
ACAD
1000
DSTYLE
1002
{
1070
340
1005
99
1002
}
  0
DIMENSION
  5
264
330
17
100
AcDbEntity
  8
09_РАЗМЕРЫ
100
AcDbDimension
280
0
  2
*D16
  3
ГОСТ
 10
840.0
 20
-519.0
 30
0.0
 11
834.5
 21
-383.0
 31
0.0
 70
32
 71
5
  1
272 (балка Т 260 × 8 / 130 × 12)
100
AcDbAlignedDimension
 13
705.0
 23
-519.0
 33
0.0
 14
705.0
 24
-247.0
 34
0.0
 50
90.0
100
AcDbRotatedDimension
1001
ACAD
1000
DSTYLE
1002
{
1070
340
1005
99
1002
}
  0
CIRCLE
  5
273
330
17
100
AcDbEntity
  8
09_РАЗМЕРЫ
100
AcDbCircle
 10
780.0
 20
-218.0
 30
0.0
 40
1.8
  0
HATCH
  5
274
330
17
100
AcDbEntity
  8
09_РАЗМЕРЫ
 62
7
100
AcDbHatch
 10
0.0
 20
0.0
 30
0.0
210
0.0
220
0.0
230
1.0
  2
SOLID
 70
1
 71
0
 91
1
 92
1
 93
1
 72
2
 10
780.0
 20
-218.0
 40
1.8
 50
0
 51
360
 73
1
 97
0
 75
0
 76
1
 98
0
  0
LINE
  5
275
330
17
100
AcDbEntity
  8
09_РАЗМЕРЫ
100
AcDbLine
 10
780.0
 20
-218.0
 30
0.0
 11
870.0
 21
-120.0
 31
0.0
  0
LINE
  5
276
330
17
100
AcDbEntity
  8
09_РАЗМЕРЫ
100
AcDbLine
 10
870.0
 20
-120.0
 30
0.0
 11
888.0
 21
-120.0
 31
0.0
  0
TEXT
  5
277
330
17
100
AcDbEntity
  8
08_ТЕКСТ
100
AcDbText
 10
879.0
 20
-118.0
 30
0.0
 40
10.0
  1
1
  7
ГОСТ
 72
1
 11
879.0
 21
-118.0
 31
0.0
100
AcDbText
 73
1
  0
CIRCLE
  5
278
330
17
100
AcDbEntity
  8
09_РАЗМЕРЫ
100
AcDbCircle
 10
490.0
 20
-231.5
 30
0.0
 40
1.8
  0
HATCH
  5
279
330
17
100
AcDbEntity
  8
09_РАЗМЕРЫ
 62
7
100
AcDbHatch
 10
0.0
 20
0.0
 30
0.0
210
0.0
220
0.0
230
1.0
  2
SOLID
 70
1
 71
0
 91
1
 92
1
 93
1
 72
2
 10
490.0
 20
-231.5
 40
1.8
 50
0
 51
360
 73
1
 97
0
 75
0
 76
1
 98
0
  0
LINE
  5
27A
330
17
100
AcDbEntity
  8
09_РАЗМЕРЫ
100
AcDbLine
 10
490.0
 20
-231.5
 30
0.0
 11
350.0
 21
-190.0
 31
0.0
  0
LINE
  5
27B
330
17
100
AcDbEntity
  8
09_РАЗМЕРЫ
100
AcDbLine
 10
350.0
 20
-190.0
 30
0.0
 11
332.0
 21
-190.0
 31
0.0
  0
TEXT
  5
27C
330
17
100
AcDbEntity
  8
08_ТЕКСТ
100
AcDbText
 10
341.0
 20
-188.0
 30
0.0
 40
10.0
  1
5
  7
ГОСТ
 72
1
 11
341.0
 21
-188.0
 31
0.0
100
AcDbText
 73
1
  0
CIRCLE
  5
27D
330
17
100
AcDbEntity
  8
09_РАЗМЕРЫ
100
AcDbCircle
 10
750.0
 20
-237.0
 30
0.0
 40
1.8
  0
HATCH
  5
27E
330
17
100
AcDbEntity
  8
09_РАЗМЕРЫ
 62
7
100
AcDbHatch
 10
0.0
 20
0.0
 30
0.0
210
0.0
220
0.0
230
1.0
  2
SOLID
 70
1
 71
0
 91
1
 92
1
 93
1
 72
2
 10
750.0
 20
-237.0
 40
1.8
 50
0
 51
360
 73
1
 97
0
 75
0
 76
1
 98
0
  0
LINE
  5
27F
330
17
100
AcDbEntity
  8
09_РАЗМЕРЫ
100
AcDbLine
 10
750.0
 20
-237.0
 30
0.0
 11
870.0
 21
-210.0
 31
0.0
  0
LINE
  5
280
330
17
100
AcDbEntity
  8
09_РАЗМЕРЫ
100
AcDbLine
 10
870.0
 20
-210.0
 30
0.0
 11
888.0
 21
-210.0
 31
0.0
  0
TEXT
  5
281
330
17
100
AcDbEntity
  8
08_ТЕКСТ
100
AcDbText
 10
879.0
 20
-208.0
 30
0.0
 40
10.0
  1
8
  7
ГОСТ
 72
1
 11
879.0
 21
-208.0
 31
0.0
100
AcDbText
 73
1
  0
CIRCLE
  5
282
330
17
100
AcDbEntity
  8
09_РАЗМЕРЫ
100
AcDbCircle
 10
788.0
 20
-252.0
 30
0.0
 40
1.8
  0
HATCH
  5
283
330
17
100
AcDbEntity
  8
09_РАЗМЕРЫ
 62
7
100
AcDbHatch
 10
0.0
 20
0.0
 30
0.0
210
0.0
220
0.0
230
1.0
  2
SOLID
 70
1
 71
0
 91
1
 92
1
 93
1
 72
2
 10
788.0
 20
-252.0
 40
1.8
 50
0
 51
360
 73
1
 97
0
 75
0
 76
1
 98
0
  0
LINE
  5
284
330
17
100
AcDbEntity
  8
09_РАЗМЕРЫ
100
AcDbLine
 10
788.0
 20
-252.0
 30
0.0
 11
870.0
 21
-290.0
 31
0.0
  0
LINE
  5
285
330
17
100
AcDbEntity
  8
09_РАЗМЕРЫ
100
AcDbLine
 10
870.0
 20
-290.0
 30
0.0
 11
888.0
 21
-290.0
 31
0.0
  0
TEXT
  5
286
330
17
100
AcDbEntity
  8
08_ТЕКСТ
100
AcDbText
 10
879.0
 20
-288.0
 30
0.0
 40
10.0
  1
11
  7
ГОСТ
 72
1
 11
879.0
 21
-288.0
 31
0.0
100
AcDbText
 73
1
  0
CIRCLE
  5
287
330
17
100
AcDbEntity
  8
09_РАЗМЕРЫ
100
AcDbCircle
 10
491.0
 20
-248.5
 30
0.0
 40
1.8
  0
HATCH
  5
288
330
17
100
AcDbEntity
  8
09_РАЗМЕРЫ
 62
7
100
AcDbHatch
 10
0.0
 20
0.0
 30
0.0
210
0.0
220
0.0
230
1.0
  2
SOLID
 70
1
 71
0
 91
1
 92
1
 93
1
 72
2
 10
491.0
 20
-248.5
 40
1.8
 50
0
 51
360
 73
1
 97
0
 75
0
 76
1
 98
0
  0
LINE
  5
289
330
17
100
AcDbEntity
  8
09_РАЗМЕРЫ
100
AcDbLine
 10
491.0
 20
-248.5
 30
0.0
 11
350.0
 21
-270.0
 31
0.0
  0
LINE
  5
28A
330
17
100
AcDbEntity
  8
09_РАЗМЕРЫ
100
AcDbLine
 10
350.0
 20
-270.0
 30
0.0
 11
332.0
 21
-270.0
 31
0.0
  0
TEXT
  5
28B
330
17
100
AcDbEntity
  8
08_ТЕКСТ
100
AcDbText
 10
341.0
 20
-268.0
 30
0.0
 40
10.0
  1
7
  7
ГОСТ
 72
1
 11
341.0
 21
-268.0
 31
0.0
100
AcDbText
 73
1
  0
CIRCLE
  5
28C
330
17
100
AcDbEntity
  8
09_РАЗМЕРЫ
100
AcDbCircle
 10
501.0
 20
-255.0
 30
0.0
 40
1.8
  0
HATCH
  5
28D
330
17
100
AcDbEntity
  8
09_РАЗМЕРЫ
 62
7
100
AcDbHatch
 10
0.0
 20
0.0
 30
0.0
210
0.0
220
0.0
230
1.0
  2
SOLID
 70
1
 71
0
 91
1
 92
1
 93
1
 72
2
 10
501.0
 20
-255.0
 40
1.8
 50
0
 51
360
 73
1
 97
0
 75
0
 76
1
 98
0
  0
LINE
  5
28E
330
17
100
AcDbEntity
  8
09_РАЗМЕРЫ
100
AcDbLine
 10
501.0
 20
-255.0
 30
0.0
 11
350.0
 21
-310.0
 31
0.0
  0
LINE
  5
28F
330
17
100
AcDbEntity
  8
09_РАЗМЕРЫ
100
AcDbLine
 10
350.0
 20
-310.0
 30
0.0
 11
332.0
 21
-310.0
 31
0.0
  0
TEXT
  5
290
330
17
100
AcDbEntity
  8
08_ТЕКСТ
100
AcDbText
 10
341.0
 20
-308.0
 30
0.0
 40
10.0
  1
6
  7
ГОСТ
 72
1
 11
341.0
 21
-308.0
 31
0.0
100
AcDbText
 73
1
  0
CIRCLE
  5
291
330
17
100
AcDbEntity
  8
09_РАЗМЕРЫ
100
AcDbCircle
 10
666.0
 20
-138.8
 30
0.0
 40
1.8
  0
HATCH
  5
292
330
17
100
AcDbEntity
  8
09_РАЗМЕРЫ
 62
7
100
AcDbHatch
 10
0.0
 20
0.0
 30
0.0
210
0.0
220
0.0
230
1.0
  2
SOLID
 70
1
 71
0
 91
1
 92
1
 93
1
 72
2
 10
666.0
 20
-138.8
 40
1.8
 50
0
 51
360
 73
1
 97
0
 75
0
 76
1
 98
0
  0
LINE
  5
293
330
17
100
AcDbEntity
  8
09_РАЗМЕРЫ
100
AcDbLine
 10
666.0
 20
-138.8
 30
0.0
 11
870.0
 21
-40.0
 31
0.0
  0
LINE
  5
294
330
17
100
AcDbEntity
  8
09_РАЗМЕРЫ
100
AcDbLine
 10
870.0
 20
-40.0
 30
0.0
 11
888.0
 21
-40.0
 31
0.0
  0
TEXT
  5
295
330
17
100
AcDbEntity
  8
08_ТЕКСТ
100
AcDbText
 10
879.0
 20
-38.0
 30
0.0
 40
10.0
  1
13
  7
ГОСТ
 72
1
 11
879.0
 21
-38.0
 31
0.0
100
AcDbText
 73
1
  0
CIRCLE
  5
296
330
17
100
AcDbEntity
  8
09_РАЗМЕРЫ
100
AcDbCircle
 10
720.0
 20
-121.0
 30
0.0
 40
1.8
  0
HATCH
  5
297
330
17
100
AcDbEntity
  8
09_РАЗМЕРЫ
 62
7
100
AcDbHatch
 10
0.0
 20
0.0
 30
0.0
210
0.0
220
0.0
230
1.0
  2
SOLID
 70
1
 71
0
 91
1
 92
1
 93
1
 72
2
 10
720.0
 20
-121.0
 40
1.8
 50
0
 51
360
 73
1
 97
0
 75
0
 76
1
 98
0
  0
LINE
  5
298
330
17
100
AcDbEntity
  8
09_РАЗМЕРЫ
100
AcDbLine
 10
720.0
 20
-121.0
 30
0.0
 11
870.0
 21
-70.0
 31
0.0
  0
LINE
  5
299
330
17
100
AcDbEntity
  8
09_РАЗМЕРЫ
100
AcDbLine
 10
870.0
 20
-70.0
 30
0.0
 11
888.0
 21
-70.0
 31
0.0
  0
TEXT
  5
29A
330
17
100
AcDbEntity
  8
08_ТЕКСТ
100
AcDbText
 10
879.0
 20
-68.0
 30
0.0
 40
10.0
  1
15
  7
ГОСТ
 72
1
 11
879.0
 21
-68.0
 31
0.0
100
AcDbText
 73
1
  0
LINE
  5
29B
330
17
100
AcDbEntity
  8
00_РАМКА
100
AcDbLine
 10
400.0
 20
-600.0
 30
0.0
 11
760.0
 21
-600.0
 31
0.0
  0
TEXT
  5
29C
330
17
100
AcDbEntity
  8
08_ТЕКСТ
100
AcDbText
 10
403.0
 20
-607.0
 30
0.0
 40
5.6
  1
Техническая характеристика
  7
ГОСТ
 11
403.0
 21
-607.0
 31
0.0
100
AcDbText
 73
2
  0
TEXT
  5
29D
330
17
100
AcDbEntity
  8
08_ТЕКСТ
100
AcDbText
 10
643.0
 20
-607.0
 30
0.0
 40
5.6
  1
Значение
  7
ГОСТ
 11
643.0
 21
-607.0
 31
0.0
100
AcDbText
 73
2
  0
LINE
  5
29E
330
17
100
AcDbEntity
  8
00_РАМКА
100
AcDbLine
 10
400.0
 20
-614.0
 30
0.0
 11
760.0
 21
-614.0
 31
0.0
  0
TEXT
  5
29F
330
17
100
AcDbEntity
  8
08_ТЕКСТ
100
AcDbText
 10
403.0
 20
-621.0
 30
0.0
 40
5.0
  1
Рабочая нагрузка на опору (SWL): отрыв / сжатие / сдвиг
  7
ГОСТ
 11
403.0
 21
-621.0
 31
0.0
100
AcDbText
 73
2
  0
TEXT
  5
2A0
330
17
100
AcDbEntity
  8
08_ТЕКСТ
100
AcDbText
 10
643.0
 20
-621.0
 30
0.0
 40
5.0
  1
15 / 135 / 70 кН
  7
ГОСТ
 11
643.0
 21
-621.0
 31
0.0
100
AcDbText
 73
2
  0
LINE
  5
2A1
330
17
100
AcDbEntity
  8
00_РАМКА
100
AcDbLine
 10
400.0
 20
-628.0
 30
0.0
 11
760.0
 21
-628.0
 31
0.0
  0
TEXT
  5
2A2
330
17
100
AcDbEntity
  8
08_ТЕКСТ
100
AcDbText
 10
403.0
 20
-635.0
 30
0.0
 40
5.0
  1
Предельная расчётная: отрыв / сжатие / сдвиг
  7
ГОСТ
 11
403.0
 21
-635.0
 31
0.0
100
AcDbText
 73
2
  0
TEXT
  5
2A3
330
17
100
AcDbEntity
  8
08_ТЕКСТ
100
AcDbText
 10
643.0
 20
-635.0
 30
0.0
 40
5.0
  1
59 / 142 / 119 кН
  7
ГОСТ
 11
643.0
 21
-635.0
 31
0.0
100
AcDbText
 73
2
  0
LINE
  5
2A4
330
17
100
AcDbEntity
  8
00_РАМКА
100
AcDbLine
 10
400.0
 20
-642.0
 30
0.0
 11
760.0
 21
-642.0
 31
0.0
  0
TEXT
  5
2A5
330
17
100
AcDbEntity
  8
08_ТЕКСТ
100
AcDbText
 10
403.0
 20
-649.0
 30
0.0
 40
5.0
  1
Расчётный модуль
  7
ГОСТ
 11
403.0
 21
-649.0
 31
0.0
100
AcDbText
 73
2
  0
TEXT
  5
2A6
330
17
100
AcDbEntity
  8
08_ТЕКСТ
100
AcDbText
 10
643.0
 20
-649.0
 30
0.0
 40
5.0
  1
бассейн глубокий, 18,0 т
  7
ГОСТ
 11
643.0
 21
-649.0
 31
0.0
100
AcDbText
 73
2
  0
LINE
  5
2A7
330
17
100
AcDbEntity
  8
00_РАМКА
100
AcDbLine
 10
400.0
 20
-656.0
 30
0.0
 11
760.0
 21
-656.0
 31
0.0
  0
TEXT
  5
2A8
330
17
100
AcDbEntity
  8
08_ТЕКСТ
100
AcDbText
 10
403.0
 20
-663.0
 30
0.0
 40
5.0
  1
Высота опоры над настилом
  7
ГОСТ
 11
403.0
 21
-663.0
 31
0.0
100
AcDbText
 73
2
  0
TEXT
  5
2A9
330
17
100
AcDbEntity
  8
08_ТЕКСТ
100
AcDbText
 10
643.0
 20
-663.0
 30
0.0
 40
5.0
  1
135 мм
  7
ГОСТ
 11
643.0
 21
-663.0
 31
0.0
100
AcDbText
 73
2
  0
LINE
  5
2AA
330
17
100
AcDbEntity
  8
00_РАМКА
100
AcDbLine
 10
400.0
 20
-670.0
 30
0.0
 11
760.0
 21
-670.0
 31
0.0
  0
TEXT
  5
2AB
330
17
100
AcDbEntity
  8
08_ТЕКСТ
100
AcDbText
 10
403.0
 20
-677.0
 30
0.0
 40
5.0
  1
Масса узла / с подкладным листом
  7
ГОСТ
 11
403.0
 21
-677.0
 31
0.0
100
AcDbText
 73
2
  0
TEXT
  5
2AC
330
17
100
AcDbEntity
  8
08_ТЕКСТ
100
AcDbText
 10
643.0
 20
-677.0
 30
0.0
 40
5.0
  1
31,9 / 34,2 кг
  7
ГОСТ
 11
643.0
 21
-677.0
 31
0.0
100
AcDbText
 73
2
  0
LINE
  5
2AD
330
17
100
AcDbEntity
  8
00_РАМКА
100
AcDbLine
 10
400.0
 20
-684.0
 30
0.0
 11
760.0
 21
-684.0
 31
0.0
  0
TEXT
  5
2AE
330
17
100
AcDbEntity
  8
08_ТЕКСТ
100
AcDbText
 10
403.0
 20
-691.0
 30
0.0
 40
5.0
  1
Фундаментов на судно
  7
ГОСТ
 11
403.0
 21
-691.0
 31
0.0
100
AcDbText
 73
2
  0
TEXT
  5
2AF
330
17
100
AcDbEntity
  8
08_ТЕКСТ
100
AcDbText
 10
643.0
 20
-691.0
 30
0.0
 40
5.0
  1
72 (18 слотов × 4)
  7
ГОСТ
 11
643.0
 21
-691.0
 31
0.0
100
AcDbText
 73
2
  0
LINE
  5
2B0
330
17
100
AcDbEntity
  8
00_РАМКА
100
AcDbLine
 10
400.0
 20
-698.0
 30
0.0
 11
760.0
 21
-698.0
 31
0.0
  0
LINE
  5
2B1
330
17
100
AcDbEntity
  8
00_РАМКА
100
AcDbLine
 10
400.0
 20
-600.0
 30
0.0
 11
400.0
 21
-698.0
 31
0.0
  0
LINE
  5
2B2
330
17
100
AcDbEntity
  8
00_РАМКА
100
AcDbLine
 10
640.0
 20
-600.0
 30
0.0
 11
640.0
 21
-698.0
 31
0.0
  0
LINE
  5
2B3
330
17
100
AcDbEntity
  8
00_РАМКА
100
AcDbLine
 10
760.0
 20
-600.0
 30
0.0
 11
760.0
 21
-698.0
 31
0.0
  0
LWPOLYLINE
  5
2B4
330
17
100
AcDbEntity
  8
00_РАМКА
100
AcDbPolyline
 90
4
 70
1
 10
-700.0
 20
-1088.0
 10
982.0
 20
-1088.0
 10
982.0
 20
100.0
 10
-700.0
 20
100.0
  0
LWPOLYLINE
  5
2B5
330
17
100
AcDbEntity
  8
00_РАМКА
100
AcDbPolyline
 90
4
 70
1
 10
-660.0
 20
-1078.0
 10
972.0
 20
-1078.0
 10
972.0
 20
90.0
 10
-660.0
 20
90.0
  0
LWPOLYLINE
  5
2B6
330
17
100
AcDbEntity
  8
00_РАМКА
100
AcDbPolyline
 90
4
 70
1
 10
602.0
 20
-1078.0
 10
972.0
 20
-1078.0
 10
972.0
 20
-968.0
 10
602.0
 20
-968.0
  0
LINE
  5
2B7
330
17
100
AcDbEntity
  8
00_РАМКА
100
AcDbLine
 10
602.0
 20
-1054.0
 30
0.0
 11
972.0
 21
-1054.0
 31
0.0
  0
LINE
  5
2B8
330
17
100
AcDbEntity
  8
00_РАМКА
100
AcDbLine
 10
602.0
 20
-1030.0
 30
0.0
 11
972.0
 21
-1030.0
 31
0.0
  0
LINE
  5
2B9
330
17
100
AcDbEntity
  8
00_РАМКА
100
AcDbLine
 10
602.0
 20
-1006.0
 30
0.0
 11
972.0
 21
-1006.0
 31
0.0
  0
LINE
  5
2BA
330
17
100
AcDbEntity
  8
00_РАМКА
100
AcDbLine
 10
842.0
 20
-1078.0
 30
0.0
 11
842.0
 21
-1006.0
 31
0.0
  0
TEXT
  5
2BB
330
17
100
AcDbEntity
  8
08_ТЕКСТ
100
AcDbText
 10
608.0
 20
-987.0
 30
0.0
 40
10.0
  1
Фундамент-замок модуля литой
  7
ГОСТ
 11
608.0
 21
-987.0
 31
0.0
100
AcDbText
 73
2
  0
TEXT
  5
2BC
330
17
100
AcDbEntity
  8
08_ТЕКСТ
100
AcDbText
 10
608.0
 20
-1012.4
 30
0.0
 40
5.0
  1
Сборочный чертёж · 72 шт. на судно · фитинг ISO 1161 показан
  7
ГОСТ
 11
608.0
 21
-1012.4
 31
0.0
100
AcDbText
 73
2
  0
TEXT
  5
2BD
330
17
100
AcDbEntity
  8
08_ТЕКСТ
100
AcDbText
 10
608.0
 20
-1023.6
 30
0.0
 40
5.0
  1
фантомом
  7
ГОСТ
 11
608.0
 21
-1023.6
 31
0.0
100
AcDbText
 73
2
  0
TEXT
  5
2BE
330
17
100
AcDbEntity
  8
08_ТЕКСТ
100
AcDbText
 10
608.0
 20
-1042.0
 30
0.0
 40
9.0
  1
ВГ-2026.46.00 СБ
  7
ГОСТ
 11
608.0
 21
-1042.0
 31
0.0
100
AcDbText
 73
2
  0
TEXT
  5
2BF
330
17
100
AcDbEntity
  8
08_ТЕКСТ
100
AcDbText
 10
848.0
 20
-1042.0
 30
0.0
 40
7.0
  1
Масштаб 1 : 2
  7
ГОСТ
 11
848.0
 21
-1042.0
 31
0.0
100
AcDbText
 73
2
  0
TEXT
  5
2C0
330
17
100
AcDbEntity
  8
08_ТЕКСТ
100
AcDbText
 10
608.0
 20
-1066.0
 30
0.0
 40
5.0
  1
Масса 31,9 кг
  7
ГОСТ
 11
608.0
 21
-1066.0
 31
0.0
100
AcDbText
 73
2
  0
TEXT
  5
2C1
330
17
100
AcDbEntity
  8
08_ТЕКСТ
100
AcDbText
 10
848.0
 20
-1066.0
 30
0.0
 40
6.0
  1
Формат A1
  7
ГОСТ
 11
848.0
 21
-1066.0
 31
0.0
100
AcDbText
 73
2
  0
TEXT
  5
2C2
330
17
100
AcDbEntity
  8
08_ТЕКСТ
100
AcDbText
 10
608.0
 20
-960.0
 30
0.0
 40
6.0
  1
УЖЦ ОСК 2026 · «Волжский Горизонт» · ПБ «Без границ»
  7
ГОСТ
 11
608.0
 21
-960.0
 31
0.0
100
AcDbText
 73
2
  0
TEXT
  5
2C3
330
17
100
AcDbEntity
  8
08_ТЕКСТ
100
AcDbText
 10
608.0
 20
-756.0
 30
0.0
 40
5.0
  1
1. *Размеры для справок.
  7
ГОСТ
 11
608.0
 21
-756.0
 31
0.0
100
AcDbText
 73
2
  0
TEXT
  5
2C4
330
17
100
AcDbEntity
  8
08_ТЕКСТ
100
AcDbText
 10
608.0
 20
-766.0
 30
0.0
 40
5.0
  1
2. Замок поз. 2 вставить в корпус сверху; снизу поставить шайбу поз. 4, шайбу
  7
ГОСТ
 11
608.0
 21
-766.0
 31
0.0
100
AcDbText
 73
2
  0
TEXT
  5
2C5
330
17
100
AcDbEntity
  8
08_ТЕКСТ
100
AcDbText
 10
608.0
 20
-776.0
 30
0.0
 40
5.0
  1
    стопорную поз. 13 и гайку поз. 12; осевой зазор вала 0,2…0,5 мм, лапку шайбы
  7
ГОСТ
 11
608.0
 21
-776.0
 31
0.0
100
AcDbText
 73
2
  0
TEXT
  5
2C6
330
17
100
AcDbEntity
  8
08_ТЕКСТ
100
AcDbText
 10
608.0
 20
-786.0
 30
0.0
 40
5.0
  1
    отогнуть в шлиц гайки.
  7
ГОСТ
 11
608.0
 21
-786.0
 31
0.0
100
AcDbText
 73
2
  0
TEXT
  5
2C7
330
17
100
AcDbEntity
  8
08_ТЕКСТ
100
AcDbText
 10
608.0
 20
-796.0
 30
0.0
 40
5.0
  1
3. Рычаг поз. 3 надеть на квадрат вала, закрепить винтом поз. 14 на анаэробном
  7
ГОСТ
 11
608.0
 21
-796.0
 31
0.0
100
AcDbText
 73
2
  0
TEXT
  5
2C8
330
17
100
AcDbEntity
  8
08_ТЕКСТ
100
AcDbText
 10
608.0
 20
-806.0
 30
0.0
 40
5.0
  1
    фиксаторе резьбы; фиксатор поз. 16 ввернуть в рычаг.
  7
ГОСТ
 11
608.0
 21
-806.0
 31
0.0
100
AcDbText
 73
2
  0
TEXT
  5
2C9
330
17
100
AcDbEntity
  8
08_ТЕКСТ
100
AcDbText
 10
608.0
 20
-816.0
 30
0.0
 40
5.0
  1
4. Поворот замка «открыто» — «закрыто» 90°, усилие на рукоятке не более 150 Н;
  7
ГОСТ
 11
608.0
 21
-816.0
 31
0.0
100
AcDbText
 73
2
  0
TEXT
  5
2CA
330
17
100
AcDbEntity
  8
08_ТЕКСТ
100
AcDbText
 10
608.0
 20
-826.0
 30
0.0
 40
5.0
  1
    фиксатор входит в отверстие прилива в обоих положениях.
  7
ГОСТ
 11
608.0
 21
-826.0
 31
0.0
100
AcDbText
 73
2
  0
TEXT
  5
2CB
330
17
100
AcDbEntity
  8
08_ТЕКСТ
100
AcDbText
 10
608.0
 20
-836.0
 30
0.0
 40
5.0
  1
5. Отверстие вала заполнить смазкой Литол-24 ГОСТ 21150-2017 через маслёнку поз. 15.
  7
ГОСТ
 11
608.0
 21
-836.0
 31
0.0
100
AcDbText
 73
2
  0
TEXT
  5
2CC
330
17
100
AcDbEntity
  8
08_ТЕКСТ
100
AcDbText
 10
608.0
 20
-846.0
 30
0.0
 40
5.0
  1
6. Лист поз. 8 приварить к настилу над балкой Т 260 × 8 / 130 × 12 угловым швом по
  7
ГОСТ
 11
608.0
 21
-846.0
 31
0.0
100
AcDbText
 73
2
  0
TEXT
  5
2CD
330
17
100
AcDbEntity
  8
08_ТЕКСТ
100
AcDbText
 10
608.0
 20
-856.0
 30
0.0
 40
5.0
  1
    контуру, катет 5 мм, сварка в аргоне; отверстия Ø32 сверлить по кондуктору после
  7
ГОСТ
 11
608.0
 21
-856.0
 31
0.0
100
AcDbText
 73
2
  0
TEXT
  5
2CE
330
17
100
AcDbEntity
  8
08_ТЕКСТ
100
AcDbText
 10
608.0
 20
-866.0
 30
0.0
 40
5.0
  1
    сварки.
  7
ГОСТ
 11
608.0
 21
-866.0
 31
0.0
100
AcDbText
 73
2
  0
TEXT
  5
2CF
330
17
100
AcDbEntity
  8
08_ТЕКСТ
100
AcDbText
 10
608.0
 20
-876.0
 30
0.0
 40
5.0
  1
7. Прокладку поз. 5 и втулки поз. 6 ставить на герметике У-30МЭС-5 ГОСТ 13489-79;
  7
ГОСТ
 11
608.0
 21
-876.0
 31
0.0
100
AcDbText
 73
2
  0
TEXT
  5
2D0
330
17
100
AcDbEntity
  8
08_ТЕКСТ
100
AcDbText
 10
608.0
 20
-886.0
 30
0.0
 40
5.0
  1
    кромку прокладки загерметизировать после затяжки.
  7
ГОСТ
 11
608.0
 21
-886.0
 31
0.0
100
AcDbText
 73
2
  0
TEXT
  5
2D1
330
17
100
AcDbEntity
  8
08_ТЕКСТ
100
AcDbText
 10
608.0
 20
-896.0
 30
0.0
 40
5.0
  1
8. Болты поз. 9 затянуть крест-накрест моментом 400 Н·м (усилие затяжки 106 кН),
  7
ГОСТ
 11
608.0
 21
-896.0
 31
0.0
100
AcDbText
 73
2
  0
TEXT
  5
2D2
330
17
100
AcDbEntity
  8
08_ТЕКСТ
100
AcDbText
 10
608.0
 20
-906.0
 30
0.0
 40
5.0
  1
    резьбу смазать пастой против задиров.
  7
ГОСТ
 11
608.0
 21
-906.0
 31
0.0
100
AcDbText
 73
2
  0
TEXT
  5
2D3
330
17
100
AcDbEntity
  8
08_ТЕКСТ
100
AcDbText
 10
608.0
 20
-916.0
 30
0.0
 40
5.0
  1
9. Рабочая нагрузка на опору (SWL): отрыв 15 кН, сжатие 135 кН, сдвиг 70 кН —
  7
ГОСТ
 11
608.0
 21
-916.0
 31
0.0
100
AcDbText
 73
2
  0
TEXT
  5
2D4
330
17
100
AcDbEntity
  8
08_ТЕКСТ
100
AcDbText
 10
608.0
 20
-926.0
 30
0.0
 40
5.0
  1
    маркировать на фланце вместе с номером фундамента.
  7
ГОСТ
 11
608.0
 21
-926.0
 31
0.0
100
AcDbText
 73
2
  0
TEXT
  5
2D5
330
17
100
AcDbEntity
  8
08_ТЕКСТ
100
AcDbText
 10
608.0
 20
-936.0
 30
0.0
 40
5.0
  1
10. Испытания — по программе ВГ-2026.46.00 ПМ; покрытие поз. 1, 2, 3 — ТДЦ 40 мкм ГОСТ
  7
ГОСТ
 11
608.0
 21
-936.0
 31
0.0
100
AcDbText
 73
2
  0
TEXT
  5
2D6
330
17
100
AcDbEntity
  8
08_ТЕКСТ
100
AcDbText
 10
608.0
 20
-946.0
 30
0.0
 40
5.0
  1
    Р 9.316-2006.
  7
ГОСТ
 11
608.0
 21
-946.0
 31
0.0
100
AcDbText
 73
2
  0
TEXT
  5
2D7
330
17
100
AcDbEntity
  8
08_ТЕКСТ
100
AcDbText
 10
608.0
 20
-743.0
 30
0.0
 40
7.0
  1
Технические требования
  7
ГОСТ
 11
608.0
 21
-743.0
 31
0.0
100
AcDbText
 73
2
  0
ENDSEC
  0
SECTION
  2
OBJECTS
  0
DICTIONARY
  5
A
330
0
100
AcDbDictionary
281
1
  3
ACAD_COLOR
350
B
  3
ACAD_GROUP
350
C
  3
ACAD_LAYOUT
350
D
  3
ACAD_MATERIAL
350
E
  3
ACAD_MLEADERSTYLE
350
F
  3
ACAD_MLINESTYLE
350
10
  3
ACAD_PLOTSETTINGS
350
11
  3
ACAD_PLOTSTYLENAME
350
12
  3
ACAD_SCALELIST
350
14
  3
ACAD_TABLESTYLE
350
15
  3
ACAD_VISUALSTYLE
350
16
  3
EZDXF_META
350
2D
  0
DICTIONARY
  5
B
330
A
100
AcDbDictionary
281
1
  0
DICTIONARY
  5
C
330
A
100
AcDbDictionary
281
1
  0
DICTIONARY
  5
D
330
A
100
AcDbDictionary
281
1
  3
Model
350
1A
  3
Layout1
350
1E
  0
DICTIONARY
  5
E
330
A
100
AcDbDictionary
281
1
  3
ByBlock
350
1F
  3
ByLayer
350
20
  3
Global
350
21
  0
DICTIONARY
  5
F
330
A
100
AcDbDictionary
281
1
  3
Standard
350
2C
  0
DICTIONARY
  5
10
330
A
100
AcDbDictionary
281
1
  3
Standard
350
22
  0
DICTIONARY
  5
11
330
A
100
AcDbDictionary
281
1
  0
ACDBDICTIONARYWDFLT
  5
12
330
A
100
AcDbDictionary
281
1
  3
Normal
350
13
100
AcDbDictionaryWithDefault
340
13
  0
ACDBPLACEHOLDER
  5
13
330
12
  0
DICTIONARY
  5
14
330
A
100
AcDbDictionary
281
1
  0
DICTIONARY
  5
15
330
A
100
AcDbDictionary
281
1
  0
DICTIONARY
  5
16
330
A
100
AcDbDictionary
281
1
  3
2dWireframe
350
5A
  3
Basic
350
5B
  3
Brighten
350
5C
  3
ColorChange
350
5D
  3
Conceptual
350
5E
  3
Dim
350
5F
  3
EdgeColorOff
350
60
  3
Facepattern
350
61
  3
Flat
350
62
  3
FlatWithEdges
350
63
  3
Gouraud
350
64
  3
GouraudWithEdges
350
65
  3
Hidden
350
66
  3
JitterOff
350
67
  3
Linepattern
350
68
  3
Modeling
350
69
  3
OverhangOff
350
6A
  3
Realistic
350
6B
  3
Shaded
350
6C
  3
Shaded with edges
350
6D
  3
Shades of Gray
350
6E
  3
Sketchy
350
6F
  3
Thicken
350
70
  3
Wireframe
350
71
  3
X-Ray
350
72
  0
LAYOUT
  5
1A
330
D
100
AcDbPlotSettings
  1

  4
A3
  6

 40
7.5
 41
20.0
 42
7.5
 43
20.0
 44
420.0
 45
297.0
 46
0.0
 47
0.0
 48
0.0
 49
0.0
140
0.0
141
0.0
142
1.0
143
1.0
 70
1024
 72
1
 73
0
 74
5
  7

 75
16
 76
0
 77
2
 78
300
147
1.0
148
0.0
149
0.0
100
AcDbLayout
  1
Model
 70
1
 71
0
 10
0.0
 20
0.0
 11
420.0
 21
297.0
 12
0.0
 22
0.0
 32
0.0
 14
1e+20
 24
1e+20
 34
1e+20
 15
-1e+20
 25
-1e+20
 35
-1e+20
146
0.0
 13
0.0
 23
0.0
 33
0.0
 16
1.0
 26
0.0
 36
0.0
 17
0.0
 27
1.0
 37
0.0
 76
1
330
17
  0
LAYOUT
  5
1E
330
D
100
AcDbPlotSettings
  1

  4
A3
  6

 40
7.5
 41
20.0
 42
7.5
 43
20.0
 44
420.0
 45
297.0
 46
0.0
 47
0.0
 48
0.0
 49
0.0
140
0.0
141
0.0
142
1.0
143
1.0
 70
0
 72
1
 73
0
 74
5
  7

 75
16
 76
0
 77
2
 78
300
147
1.0
148
0.0
149
0.0
100
AcDbLayout
  1
Layout1
 70
1
 71
1
 10
0.0
 20
0.0
 11
420.0
 21
297.0
 12
0.0
 22
0.0
 32
0.0
 14
1e+20
 24
1e+20
 34
1e+20
 15
-1e+20
 25
-1e+20
 35
-1e+20
146
0.0
 13
0.0
 23
0.0
 33
0.0
 16
1.0
 26
0.0
 36
0.0
 17
0.0
 27
1.0
 37
0.0
 76
1
330
1B
  0
MATERIAL
  5
1F
102
{ACAD_REACTORS
330
E
102
}
330
E
100
AcDbMaterial
  1
ByBlock
  2

 70
0
 40
1.0
 71
1
 41
1.0
 91
-1023410177
 42
1.0
 72
1
  3

 73
1
 74
1
 75
1
 44
0.5
 73
0
 45
1.0
 46
1.0
 77
1
  4

 78
1
 79
1
170
1
 48
1.0
171
1
  6

172
1
173
1
174
1
140
1.0
141
1.0
175
1
  7

176
1
177
1
178
1
143
1.0
179
1
  8

270
1
271
1
272
1
145
1.0
146
1.0
273
1
  9

274
1
275
1
276
1
 42
1.0
 72
1
  3

 73
1
 74
1
 75
1
 94
63
  0
MATERIAL
  5
20
102
{ACAD_REACTORS
330
E
102
}
330
E
100
AcDbMaterial
  1
ByLayer
  2

 70
0
 40
1.0
 71
1
 41
1.0
 91
-1023410177
 42
1.0
 72
1
  3

 73
1
 74
1
 75
1
 44
0.5
 73
0
 45
1.0
 46
1.0
 77
1
  4

 78
1
 79
1
170
1
 48
1.0
171
1
  6

172
1
173
1
174
1
140
1.0
141
1.0
175
1
  7

176
1
177
1
178
1
143
1.0
179
1
  8

270
1
271
1
272
1
145
1.0
146
1.0
273
1
  9

274
1
275
1
276
1
 42
1.0
 72
1
  3

 73
1
 74
1
 75
1
 94
63
  0
MATERIAL
  5
21
102
{ACAD_REACTORS
330
E
102
}
330
E
100
AcDbMaterial
  1
Global
  2

 70
0
 40
1.0
 71
1
 41
1.0
 91
-1023410177
 42
1.0
 72
1
  3

 73
1
 74
1
 75
1
 44
0.5
 73
0
 45
1.0
 46
1.0
 77
1
  4

 78
1
 79
1
170
1
 48
1.0
171
1
  6

172
1
173
1
174
1
140
1.0
141
1.0
175
1
  7

176
1
177
1
178
1
143
1.0
179
1
  8

270
1
271
1
272
1
145
1.0
146
1.0
273
1
  9

274
1
275
1
276
1
 42
1.0
 72
1
  3

 73
1
 74
1
 75
1
 94
63
  0
MLINESTYLE
  5
22
102
{ACAD_REACTORS
330
10
102
}
330
10
100
AcDbMlineStyle
  2
Standard
 70
0
  3

 62
256
 51
90.0
 52
90.0
 71
2
 49
0.5
 62
256
  6
BYLAYER
 49
-0.5
 62
256
  6
BYLAYER
  0
MLEADERSTYLE
  5
2C
102
{ACAD_REACTORS
330
F
102
}
330
F
100
AcDbMLeaderStyle
179
2
170
2
171
1
172
0
 90
2
 40
0.0
 41
0.0
173
1
 91
-1056964608
 92
-2
290
1
 42
2.0
291
1
 43
8.0
  3
Standard
 44
4.0
300

342
29
174
1
175
1
176
0
178
1
 93
-1056964608
 45
4.0
292
0
297
0
 46
4.0
 94
-1056964608
 47
1.0
 49
1.0
140
1.0
294
1
141
0.0
177
0
142
1.0
295
0
296
0
143
3.75
271
0
272
9
273
9
  0
DICTIONARY
  5
2D
330
A
100
AcDbDictionary
280
1
281
1
  3
CREATED_BY_EZDXF
350
2E
  3
WRITTEN_BY_EZDXF
350
2DA
  0
DICTIONARYVAR
  5
2E
330
2D
100
DictionaryVariables
280
0
  1
1.4.4 @ 2026-09-23T10:46:03.916479+00:00
  0
VISUALSTYLE
  5
5A
102
{ACAD_REACTORS
330
16
102
}
330
16
100
AcDbVisualStyle
  2
2dWireframe
 70
4
177
3
291
0
 70
58
 90
2
176
1
 90
2
176
1
 90
0
176
1
 90
0
176
1
 40
0.6
176
1
 40
30.0
176
1
 62
7
420
16777215
176
1
 90
1
176
1
 90
4
176
1
 62
7
176
1
 62
257
176
1
 90
1
176
1
 90
1
176
1
 40
1.0
176
1
 90
8
176
1
 62
7
176
1
 40
1.0
176
1
 90
1
176
1
 90
6
176
1
 90
2
176
1
 62
7
176
1
 90
5
176
1
 90
0
176
1
 90
0
176
1
290
0
176
1
 90
1
176
1
 40
0.0
176
1
 90
0
176
1
290
1
176
1
290
1
176
1
290
0
176
1
290
0
176
1
290
0
176
1
290
0
176
1
290
0
176
1
290
0
176
1
290
0
176
1
 90
50
176
1
 40
0.0
176
1
 40
1.0
176
1
 90
0
176
1
 62
18
420
0
176
1
 90
50
176
1
 90
3
176
1
 62
5
420
255
176
1
290
0
176
1
 90
50
176
1
 90
50
176
1
 90
50
176
1
290
0
176
1
 90
50
176
1
 62
256
176
0
 40
1.0
176
0
 90
2
176
1
  1
strokes_ogs.tif
176
1
290
0
176
1
 40
1.0
176
1
 40
1.0
176
1
  0
VISUALSTYLE
  5
5B
102
{ACAD_REACTORS
330
16
102
}
330
16
100
AcDbVisualStyle
  2
Basic
 70
7
177
3
291
1
 70
58
 90
2
176
1
 90
2
176
1
 90
0
176
1
 90
1
176
1
 40
0.6
176
1
 40
30.0
176
1
 62
7
420
16777215
176
1
 90
1
176
1
 90
4
176
1
 62
7
176
1
 62
257
176
1
 90
1
176
1
 90
1
176
1
 40
1.0
176
1
 90
8
176
1
 62
7
176
1
 40
1.0
176
1
 90
1
176
1
 90
6
176
1
 90
2
176
1
 62
7
176
1
 90
5
176
1
 90
0
176
1
 90
0
176
1
290
0
176
1
 90
1
176
1
 40
0.0
176
1
 90
0
176
1
290
0
176
1
290
1
176
1
290
1
176
1
290
0
176
1
290
0
176
1
290
0
176
1
290
0
176
1
290
0
176
1
290
0
176
1
 90
50
176
1
 40
0.0
176
1
 40
1.0
176
1
 90
0
176
1
 62
18
420
0
176
1
 90
50
176
1
 90
3
176
1
 62
5
420
255
176
1
290
0
176
1
 90
50
176
1
 90
50
176
1
 90
50
176
1
290
0
176
1
 90
50
176
1
 62
256
176
0
 40
1.0
176
0
 90
2
176
1
  1
strokes_ogs.tif
176
1
290
0
176
1
 40
1.0
176
1
 40
1.0
176
1
  0
VISUALSTYLE
  5
5C
102
{ACAD_REACTORS
330
16
102
}
330
16
100
AcDbVisualStyle
  2
Brighten
 70
12
177
3
291
1
 70
58
 90
2
176
1
 90
2
176
1
 90
0
176
1
 90
2
176
1
 40
0.6
176
1
 40
30.0
176
1
 62
7
420
16777215
176
1
 90
1
176
1
 90
4
176
1
 62
7
176
1
 62
257
176
1
 90
1
176
1
 90
1
176
1
 40
1.0
176
1
 90
8
176
1
 62
7
176
1
 40
1.0
176
1
 90
1
176
1
 90
6
176
1
 90
2
176
1
 62
7
176
1
 90
5
176
1
 90
0
176
1
 90
0
176
1
290
0
176
1
 90
1
176
1
 40
0.0
176
1
 90
0
176
1
290
0
176
1
290
1
176
1
290
1
176
1
290
0
176
1
290
0
176
1
290
0
176
1
290
0
176
1
290
0
176
1
290
0
176
1
 90
50
176
1
 40
0.0
176
1
 40
1.0
176
1
 90
0
176
1
 62
18
420
0
176
1
 90
50
176
1
 90
3
176
1
 62
5
420
255
176
1
290
0
176
1
 90
50
176
1
 90
50
176
1
 90
50
176
1
290
0
176
1
 90
50
176
1
 62
256
176
0
 40
1.0
176
0
 90
2
176
1
  1
strokes_ogs.tif
176
1
290
0
176
1
 40
1.0
176
1
 40
1.0
176
1
  0
VISUALSTYLE
  5
5D
102
{ACAD_REACTORS
330
16
102
}
330
16
100
AcDbVisualStyle
  2
ColorChange
 70
16
177
3
291
1
 70
58
 90
2
176
1
 90
2
176
1
 90
0
176
1
 90
2
176
1
 40
0.6
176
1
 40
30.0
176
1
 62
7
420
16777215
176
1
 90
1
176
1
 90
4
176
1
 62
7
176
1
 62
257
176
1
 90
1
176
1
 90
1
176
1
 40
1.0
176
1
 90
8
176
1
 62
7
176
1
 40
1.0
176
1
 90
1
176
1
 90
6
176
1
 90
2
176
1
 62
7
176
1
 90
5
176
1
 90
0
176
1
 90
0
176
1
290
0
176
1
 90
1
176
1
 40
0.0
176
1
 90
0
176
1
290
0
176
1
290
1
176
1
290
1
176
1
290
0
176
1
290
0
176
1
290
0
176
1
290
0
176
1
290
0
176
1
290
0
176
1
 90
50
176
1
 40
0.0
176
1
 40
1.0
176
1
 90
0
176
1
 62
18
420
0
176
1
 90
50
176
1
 90
3
176
1
 62
5
420
255
176
1
290
0
176
1
 90
50
176
1
 90
50
176
1
 90
50
176
1
290
0
176
1
 90
50
176
1
 62
256
176
0
 40
1.0
176
0
 90
2
176
1
  1
strokes_ogs.tif
176
1
290
0
176
1
 40
1.0
176
1
 40
1.0
176
1
  0
VISUALSTYLE
  5
5E
102
{ACAD_REACTORS
330
16
102
}
330
16
100
AcDbVisualStyle
  2
Conceptual
 70
9
177
3
291
0
 70
58
 90
2
176
1
 90
2
176
1
 90
0
176
1
 90
3
176
1
 40
0.6
176
1
 40
30.0
176
1
 62
7
420
16777215
176
1
 90
1
176
1
 90
4
176
1
 62
7
176
1
 62
257
176
1
 90
1
176
1
 90
1
176
1
 40
1.0
176
1
 90
8
176
1
 62
7
176
1
 40
1.0
176
1
 90
1
176
1
 90
6
176
1
 90
2
176
1
 62
7
176
1
 90
5
176
1
 90
0
176
1
 90
0
176
1
290
0
176
1
 90
1
176
1
 40
0.0
176
1
 90
0
176
1
290
0
176
1
290
1
176
1
290
1
176
1
290
0
176
1
290
0
176
1
290
0
176
1
290
0
176
1
290
0
176
1
290
0
176
1
 90
50
176
1
 40
0.0
176
1
 40
1.0
176
1
 90
0
176
1
 62
18
420
0
176
1
 90
50
176
1
 90
3
176
1
 62
5
420
255
176
1
290
0
176
1
 90
50
176
1
 90
50
176
1
 90
50
176
1
290
0
176
1
 90
50
176
1
 62
256
176
0
 40
1.0
176
0
 90
2
176
1
  1
strokes_ogs.tif
176
1
290
0
176
1
 40
1.0
176
1
 40
1.0
176
1
  0
VISUALSTYLE
  5
5F
102
{ACAD_REACTORS
330
16
102
}
330
16
100
AcDbVisualStyle
  2
Dim
 70
11
177
3
291
1
 70
58
 90
2
176
1
 90
2
176
1
 90
0
176
1
 90
2
176
1
 40
0.6
176
1
 40
30.0
176
1
 62
7
420
16777215
176
1
 90
1
176
1
 90
4
176
1
 62
7
176
1
 62
257
176
1
 90
1
176
1
 90
1
176
1
 40
1.0
176
1
 90
8
176
1
 62
7
176
1
 40
1.0
176
1
 90
1
176
1
 90
6
176
1
 90
2
176
1
 62
7
176
1
 90
5
176
1
 90
0
176
1
 90
0
176
1
290
0
176
1
 90
1
176
1
 40
0.0
176
1
 90
0
176
1
290
0
176
1
290
1
176
1
290
1
176
1
290
0
176
1
290
0
176
1
290
0
176
1
290
0
176
1
290
0
176
1
290
0
176
1
 90
50
176
1
 40
0.0
176
1
 40
1.0
176
1
 90
0
176
1
 62
18
420
0
176
1
 90
50
176
1
 90
3
176
1
 62
5
420
255
176
1
290
0
176
1
 90
50
176
1
 90
50
176
1
 90
50
176
1
290
0
176
1
 90
50
176
1
 62
256
176
0
 40
1.0
176
0
 90
2
176
1
  1
strokes_ogs.tif
176
1
290
0
176
1
 40
1.0
176
1
 40
1.0
176
1
  0
VISUALSTYLE
  5
60
102
{ACAD_REACTORS
330
16
102
}
330
16
100
AcDbVisualStyle
  2
EdgeColorOff
 70
22
177
3
291
1
 70
58
 90
2
176
1
 90
2
176
1
 90
0
176
1
 90
2
176
1
 40
0.6
176
1
 40
30.0
176
1
 62
7
420
16777215
176
1
 90
1
176
1
 90
4
176
1
 62
7
176
1
 62
257
176
1
 90
1
176
1
 90
1
176
1
 40
1.0
176
1
 90
8
176
1
 62
7
176
1
 40
1.0
176
1
 90
1
176
1
 90
6
176
1
 90
2
176
1
 62
7
176
1
 90
5
176
1
 90
0
176
1
 90
0
176
1
290
0
176
1
 90
1
176
1
 40
0.0
176
1
 90
0
176
1
290
0
176
1
290
1
176
1
290
1
176
1
290
0
176
1
290
0
176
1
290
0
176
1
290
0
176
1
290
0
176
1
290
0
176
1
 90
50
176
1
 40
0.0
176
1
 40
1.0
176
1
 90
0
176
1
 62
18
420
0
176
1
 90
50
176
1
 90
3
176
1
 62
5
420
255
176
1
290
0
176
1
 90
50
176
1
 90
50
176
1
 90
50
176
1
290
0
176
1
 90
50
176
1
 62
256
176
0
 40
1.0
176
0
 90
2
176
1
  1
strokes_ogs.tif
176
1
290
0
176
1
 40
1.0
176
1
 40
1.0
176
1
  0
VISUALSTYLE
  5
61
102
{ACAD_REACTORS
330
16
102
}
330
16
100
AcDbVisualStyle
  2
Facepattern
 70
15
177
3
291
1
 70
58
 90
2
176
1
 90
2
176
1
 90
0
176
1
 90
2
176
1
 40
0.6
176
1
 40
30.0
176
1
 62
7
420
16777215
176
1
 90
1
176
1
 90
4
176
1
 62
7
176
1
 62
257
176
1
 90
1
176
1
 90
1
176
1
 40
1.0
176
1
 90
8
176
1
 62
7
176
1
 40
1.0
176
1
 90
1
176
1
 90
6
176
1
 90
2
176
1
 62
7
176
1
 90
5
176
1
 90
0
176
1
 90
0
176
1
290
0
176
1
 90
1
176
1
 40
0.0
176
1
 90
0
176
1
290
0
176
1
290
1
176
1
290
1
176
1
290
0
176
1
290
0
176
1
290
0
176
1
290
0
176
1
290
0
176
1
290
0
176
1
 90
50
176
1
 40
0.0
176
1
 40
1.0
176
1
 90
0
176
1
 62
18
420
0
176
1
 90
50
176
1
 90
3
176
1
 62
5
420
255
176
1
290
0
176
1
 90
50
176
1
 90
50
176
1
 90
50
176
1
290
0
176
1
 90
50
176
1
 62
256
176
0
 40
1.0
176
0
 90
2
176
1
  1
strokes_ogs.tif
176
1
290
0
176
1
 40
1.0
176
1
 40
1.0
176
1
  0
VISUALSTYLE
  5
62
102
{ACAD_REACTORS
330
16
102
}
330
16
100
AcDbVisualStyle
  2
Flat
 70
0
177
3
291
1
 70
58
 90
2
176
1
 90
2
176
1
 90
0
176
1
 90
2
176
1
 40
0.6
176
1
 40
30.0
176
1
 62
7
420
16777215
176
1
 90
1
176
1
 90
4
176
1
 62
7
176
1
 62
257
176
1
 90
1
176
1
 90
1
176
1
 40
1.0
176
1
 90
8
176
1
 62
7
176
1
 40
1.0
176
1
 90
1
176
1
 90
6
176
1
 90
2
176
1
 62
7
176
1
 90
5
176
1
 90
0
176
1
 90
0
176
1
290
0
176
1
 90
1
176
1
 40
0.0
176
1
 90
0
176
1
290
0
176
1
290
1
176
1
290
1
176
1
290
0
176
1
290
0
176
1
290
0
176
1
290
0
176
1
290
0
176
1
290
0
176
1
 90
50
176
1
 40
0.0
176
1
 40
1.0
176
1
 90
0
176
1
 62
18
420
0
176
1
 90
50
176
1
 90
3
176
1
 62
5
420
255
176
1
290
0
176
1
 90
50
176
1
 90
50
176
1
 90
50
176
1
290
0
176
1
 90
50
176
1
 62
256
176
0
 40
1.0
176
0
 90
2
176
1
  1
strokes_ogs.tif
176
1
290
0
176
1
 40
1.0
176
1
 40
1.0
176
1
  0
VISUALSTYLE
  5
63
102
{ACAD_REACTORS
330
16
102
}
330
16
100
AcDbVisualStyle
  2
FlatWithEdges
 70
1
177
3
291
1
 70
58
 90
2
176
1
 90
2
176
1
 90
0
176
1
 90
2
176
1
 40
0.6
176
1
 40
30.0
176
1
 62
7
420
16777215
176
1
 90
1
176
1
 90
4
176
1
 62
7
176
1
 62
257
176
1
 90
1
176
1
 90
1
176
1
 40
1.0
176
1
 90
8
176
1
 62
7
176
1
 40
1.0
176
1
 90
1
176
1
 90
6
176
1
 90
2
176
1
 62
7
176
1
 90
5
176
1
 90
0
176
1
 90
0
176
1
290
0
176
1
 90
1
176
1
 40
0.0
176
1
 90
0
176
1
290
0
176
1
290
1
176
1
290
1
176
1
290
0
176
1
290
0
176
1
290
0
176
1
290
0
176
1
290
0
176
1
290
0
176
1
 90
50
176
1
 40
0.0
176
1
 40
1.0
176
1
 90
0
176
1
 62
18
420
0
176
1
 90
50
176
1
 90
3
176
1
 62
5
420
255
176
1
290
0
176
1
 90
50
176
1
 90
50
176
1
 90
50
176
1
290
0
176
1
 90
50
176
1
 62
256
176
0
 40
1.0
176
0
 90
2
176
1
  1
strokes_ogs.tif
176
1
290
0
176
1
 40
1.0
176
1
 40
1.0
176
1
  0
VISUALSTYLE
  5
64
102
{ACAD_REACTORS
330
16
102
}
330
16
100
AcDbVisualStyle
  2
Gouraud
 70
2
177
3
291
1
 70
58
 90
2
176
1
 90
2
176
1
 90
0
176
1
 90
2
176
1
 40
0.6
176
1
 40
30.0
176
1
 62
7
420
16777215
176
1
 90
1
176
1
 90
4
176
1
 62
7
176
1
 62
257
176
1
 90
1
176
1
 90
1
176
1
 40
1.0
176
1
 90
8
176
1
 62
7
176
1
 40
1.0
176
1
 90
1
176
1
 90
6
176
1
 90
2
176
1
 62
7
176
1
 90
5
176
1
 90
0
176
1
 90
0
176
1
290
0
176
1
 90
1
176
1
 40
0.0
176
1
 90
0
176
1
290
0
176
1
290
1
176
1
290
1
176
1
290
0
176
1
290
0
176
1
290
0
176
1
290
0
176
1
290
0
176
1
290
0
176
1
 90
50
176
1
 40
0.0
176
1
 40
1.0
176
1
 90
0
176
1
 62
18
420
0
176
1
 90
50
176
1
 90
3
176
1
 62
5
420
255
176
1
290
0
176
1
 90
50
176
1
 90
50
176
1
 90
50
176
1
290
0
176
1
 90
50
176
1
 62
256
176
0
 40
1.0
176
0
 90
2
176
1
  1
strokes_ogs.tif
176
1
290
0
176
1
 40
1.0
176
1
 40
1.0
176
1
  0
VISUALSTYLE
  5
65
102
{ACAD_REACTORS
330
16
102
}
330
16
100
AcDbVisualStyle
  2
GouraudWithEdges
 70
3
177
3
291
1
 70
58
 90
2
176
1
 90
2
176
1
 90
0
176
1
 90
2
176
1
 40
0.6
176
1
 40
30.0
176
1
 62
7
420
16777215
176
1
 90
1
176
1
 90
4
176
1
 62
7
176
1
 62
257
176
1
 90
1
176
1
 90
1
176
1
 40
1.0
176
1
 90
8
176
1
 62
7
176
1
 40
1.0
176
1
 90
1
176
1
 90
6
176
1
 90
2
176
1
 62
7
176
1
 90
5
176
1
 90
0
176
1
 90
0
176
1
290
0
176
1
 90
1
176
1
 40
0.0
176
1
 90
0
176
1
290
0
176
1
290
1
176
1
290
1
176
1
290
0
176
1
290
0
176
1
290
0
176
1
290
0
176
1
290
0
176
1
290
0
176
1
 90
50
176
1
 40
0.0
176
1
 40
1.0
176
1
 90
0
176
1
 62
18
420
0
176
1
 90
50
176
1
 90
3
176
1
 62
5
420
255
176
1
290
0
176
1
 90
50
176
1
 90
50
176
1
 90
50
176
1
290
0
176
1
 90
50
176
1
 62
256
176
0
 40
1.0
176
0
 90
2
176
1
  1
strokes_ogs.tif
176
1
290
0
176
1
 40
1.0
176
1
 40
1.0
176
1
  0
VISUALSTYLE
  5
66
102
{ACAD_REACTORS
330
16
102
}
330
16
100
AcDbVisualStyle
  2
Hidden
 70
6
177
3
291
0
 70
58
 90
2
176
1
 90
2
176
1
 90
0
176
1
 90
1
176
1
 40
0.6
176
1
 40
30.0
176
1
 62
7
420
16777215
176
1
 90
1
176
1
 90
4
176
1
 62
7
176
1
 62
257
176
1
 90
1
176
1
 90
1
176
1
 40
1.0
176
1
 90
8
176
1
 62
7
176
1
 40
1.0
176
1
 90
1
176
1
 90
6
176
1
 90
2
176
1
 62
7
176
1
 90
5
176
1
 90
0
176
1
 90
0
176
1
290
0
176
1
 90
1
176
1
 40
0.0
176
1
 90
0
176
1
290
0
176
1
290
1
176
1
290
1
176
1
290
0
176
1
290
0
176
1
290
0
176
1
290
0
176
1
290
0
176
1
290
0
176
1
 90
50
176
1
 40
0.0
176
1
 40
1.0
176
1
 90
0
176
1
 62
18
420
0
176
1
 90
50
176
1
 90
3
176
1
 62
5
420
255
176
1
290
0
176
1
 90
50
176
1
 90
50
176
1
 90
50
176
1
290
0
176
1
 90
50
176
1
 62
256
176
0
 40
1.0
176
0
 90
2
176
1
  1
strokes_ogs.tif
176
1
290
0
176
1
 40
1.0
176
1
 40
1.0
176
1
  0
VISUALSTYLE
  5
67
102
{ACAD_REACTORS
330
16
102
}
330
16
100
AcDbVisualStyle
  2
JitterOff
 70
20
177
3
291
1
 70
58
 90
2
176
1
 90
2
176
1
 90
0
176
1
 90
2
176
1
 40
0.6
176
1
 40
30.0
176
1
 62
7
420
16777215
176
1
 90
1
176
1
 90
4
176
1
 62
7
176
1
 62
257
176
1
 90
1
176
1
 90
1
176
1
 40
1.0
176
1
 90
8
176
1
 62
7
176
1
 40
1.0
176
1
 90
1
176
1
 90
6
176
1
 90
2
176
1
 62
7
176
1
 90
5
176
1
 90
0
176
1
 90
0
176
1
290
0
176
1
 90
1
176
1
 40
0.0
176
1
 90
0
176
1
290
0
176
1
290
1
176
1
290
1
176
1
290
0
176
1
290
0
176
1
290
0
176
1
290
0
176
1
290
0
176
1
290
0
176
1
 90
50
176
1
 40
0.0
176
1
 40
1.0
176
1
 90
0
176
1
 62
18
420
0
176
1
 90
50
176
1
 90
3
176
1
 62
5
420
255
176
1
290
0
176
1
 90
50
176
1
 90
50
176
1
 90
50
176
1
290
0
176
1
 90
50
176
1
 62
256
176
0
 40
1.0
176
0
 90
2
176
1
  1
strokes_ogs.tif
176
1
290
0
176
1
 40
1.0
176
1
 40
1.0
176
1
  0
VISUALSTYLE
  5
68
102
{ACAD_REACTORS
330
16
102
}
330
16
100
AcDbVisualStyle
  2
Linepattern
 70
14
177
3
291
1
 70
58
 90
2
176
1
 90
2
176
1
 90
0
176
1
 90
2
176
1
 40
0.6
176
1
 40
30.0
176
1
 62
7
420
16777215
176
1
 90
1
176
1
 90
4
176
1
 62
7
176
1
 62
257
176
1
 90
1
176
1
 90
1
176
1
 40
1.0
176
1
 90
8
176
1
 62
7
176
1
 40
1.0
176
1
 90
1
176
1
 90
6
176
1
 90
2
176
1
 62
7
176
1
 90
5
176
1
 90
0
176
1
 90
0
176
1
290
0
176
1
 90
1
176
1
 40
0.0
176
1
 90
0
176
1
290
0
176
1
290
1
176
1
290
1
176
1
290
0
176
1
290
0
176
1
290
0
176
1
290
0
176
1
290
0
176
1
290
0
176
1
 90
50
176
1
 40
0.0
176
1
 40
1.0
176
1
 90
0
176
1
 62
18
420
0
176
1
 90
50
176
1
 90
3
176
1
 62
5
420
255
176
1
290
0
176
1
 90
50
176
1
 90
50
176
1
 90
50
176
1
290
0
176
1
 90
50
176
1
 62
256
176
0
 40
1.0
176
0
 90
2
176
1
  1
strokes_ogs.tif
176
1
290
0
176
1
 40
1.0
176
1
 40
1.0
176
1
  0
VISUALSTYLE
  5
69
102
{ACAD_REACTORS
330
16
102
}
330
16
100
AcDbVisualStyle
  2
Modeling
 70
10
177
3
291
0
 70
58
 90
2
176
1
 90
2
176
1
 90
0
176
1
 90
2
176
1
 40
0.6
176
1
 40
30.0
176
1
 62
7
420
16777215
176
1
 90
1
176
1
 90
4
176
1
 62
7
176
1
 62
257
176
1
 90
1
176
1
 90
1
176
1
 40
1.0
176
1
 90
8
176
1
 62
7
176
1
 40
1.0
176
1
 90
1
176
1
 90
6
176
1
 90
2
176
1
 62
7
176
1
 90
5
176
1
 90
0
176
1
 90
0
176
1
290
0
176
1
 90
1
176
1
 40
0.0
176
1
 90
0
176
1
290
0
176
1
290
1
176
1
290
1
176
1
290
0
176
1
290
0
176
1
290
0
176
1
290
0
176
1
290
0
176
1
290
0
176
1
 90
50
176
1
 40
0.0
176
1
 40
1.0
176
1
 90
0
176
1
 62
18
420
0
176
1
 90
50
176
1
 90
3
176
1
 62
5
420
255
176
1
290
0
176
1
 90
50
176
1
 90
50
176
1
 90
50
176
1
290
0
176
1
 90
50
176
1
 62
256
176
0
 40
1.0
176
0
 90
2
176
1
  1
strokes_ogs.tif
176
1
290
0
176
1
 40
1.0
176
1
 40
1.0
176
1
  0
VISUALSTYLE
  5
6A
102
{ACAD_REACTORS
330
16
102
}
330
16
100
AcDbVisualStyle
  2
OverhangOff
 70
21
177
3
291
1
 70
58
 90
2
176
1
 90
2
176
1
 90
0
176
1
 90
2
176
1
 40
0.6
176
1
 40
30.0
176
1
 62
7
420
16777215
176
1
 90
1
176
1
 90
4
176
1
 62
7
176
1
 62
257
176
1
 90
1
176
1
 90
1
176
1
 40
1.0
176
1
 90
8
176
1
 62
7
176
1
 40
1.0
176
1
 90
1
176
1
 90
6
176
1
 90
2
176
1
 62
7
176
1
 90
5
176
1
 90
0
176
1
 90
0
176
1
290
0
176
1
 90
1
176
1
 40
0.0
176
1
 90
0
176
1
290
0
176
1
290
1
176
1
290
1
176
1
290
0
176
1
290
0
176
1
290
0
176
1
290
0
176
1
290
0
176
1
290
0
176
1
 90
50
176
1
 40
0.0
176
1
 40
1.0
176
1
 90
0
176
1
 62
18
420
0
176
1
 90
50
176
1
 90
3
176
1
 62
5
420
255
176
1
290
0
176
1
 90
50
176
1
 90
50
176
1
 90
50
176
1
290
0
176
1
 90
50
176
1
 62
256
176
0
 40
1.0
176
0
 90
2
176
1
  1
strokes_ogs.tif
176
1
290
0
176
1
 40
1.0
176
1
 40
1.0
176
1
  0
VISUALSTYLE
  5
6B
102
{ACAD_REACTORS
330
16
102
}
330
16
100
AcDbVisualStyle
  2
Realistic
 70
8
177
3
291
0
 70
58
 90
2
176
1
 90
2
176
1
 90
0
176
1
 90
2
176
1
 40
0.6
176
1
 40
30.0
176
1
 62
7
420
16777215
176
1
 90
1
176
1
 90
4
176
1
 62
7
176
1
 62
257
176
1
 90
1
176
1
 90
1
176
1
 40
1.0
176
1
 90
8
176
1
 62
7
176
1
 40
1.0
176
1
 90
1
176
1
 90
6
176
1
 90
2
176
1
 62
7
176
1
 90
5
176
1
 90
0
176
1
 90
0
176
1
290
0
176
1
 90
1
176
1
 40
0.0
176
1
 90
0
176
1
290
0
176
1
290
1
176
1
290
1
176
1
290
0
176
1
290
0
176
1
290
0
176
1
290
0
176
1
290
0
176
1
290
0
176
1
 90
50
176
1
 40
0.0
176
1
 40
1.0
176
1
 90
0
176
1
 62
18
420
0
176
1
 90
50
176
1
 90
3
176
1
 62
5
420
255
176
1
290
0
176
1
 90
50
176
1
 90
50
176
1
 90
50
176
1
290
0
176
1
 90
50
176
1
 62
256
176
0
 40
1.0
176
0
 90
2
176
1
  1
strokes_ogs.tif
176
1
290
0
176
1
 40
1.0
176
1
 40
1.0
176
1
  0
VISUALSTYLE
  5
6C
102
{ACAD_REACTORS
330
16
102
}
330
16
100
AcDbVisualStyle
  2
Shaded
 70
27
177
3
291
0
 70
58
 90
2
176
1
 90
2
176
1
 90
0
176
1
 90
2
176
1
 40
0.6
176
1
 40
30.0
176
1
 62
7
420
16777215
176
1
 90
1
176
1
 90
4
176
1
 62
7
176
1
 62
257
176
1
 90
1
176
1
 90
1
176
1
 40
1.0
176
1
 90
8
176
1
 62
7
176
1
 40
1.0
176
1
 90
1
176
1
 90
6
176
1
 90
2
176
1
 62
7
176
1
 90
5
176
1
 90
0
176
1
 90
0
176
1
290
0
176
1
 90
1
176
1
 40
0.0
176
1
 90
0
176
1
290
0
176
1
290
1
176
1
290
1
176
1
290
0
176
1
290
0
176
1
290
0
176
1
290
0
176
1
290
0
176
1
290
0
176
1
 90
50
176
1
 40
0.0
176
1
 40
1.0
176
1
 90
0
176
1
 62
18
420
0
176
1
 90
50
176
1
 90
3
176
1
 62
5
420
255
176
1
290
0
176
1
 90
50
176
1
 90
50
176
1
 90
50
176
1
290
0
176
1
 90
50
176
1
 62
256
176
0
 40
1.0
176
0
 90
2
176
1
  1
strokes_ogs.tif
176
1
290
0
176
1
 40
1.0
176
1
 40
1.0
176
1
  0
VISUALSTYLE
  5
6D
102
{ACAD_REACTORS
330
16
102
}
330
16
100
AcDbVisualStyle
  2
Shaded with edges
 70
26
177
3
291
0
 70
58
 90
2
176
1
 90
2
176
1
 90
0
176
1
 90
2
176
1
 40
0.6
176
1
 40
30.0
176
1
 62
7
420
16777215
176
1
 90
1
176
1
 90
4
176
1
 62
7
176
1
 62
257
176
1
 90
1
176
1
 90
1
176
1
 40
1.0
176
1
 90
8
176
1
 62
7
176
1
 40
1.0
176
1
 90
1
176
1
 90
6
176
1
 90
2
176
1
 62
7
176
1
 90
5
176
1
 90
0
176
1
 90
0
176
1
290
0
176
1
 90
1
176
1
 40
0.0
176
1
 90
0
176
1
290
0
176
1
290
1
176
1
290
1
176
1
290
0
176
1
290
0
176
1
290
0
176
1
290
0
176
1
290
0
176
1
290
0
176
1
 90
50
176
1
 40
0.0
176
1
 40
1.0
176
1
 90
0
176
1
 62
18
420
0
176
1
 90
50
176
1
 90
3
176
1
 62
5
420
255
176
1
290
0
176
1
 90
50
176
1
 90
50
176
1
 90
50
176
1
290
0
176
1
 90
50
176
1
 62
256
176
0
 40
1.0
176
0
 90
2
176
1
  1
strokes_ogs.tif
176
1
290
0
176
1
 40
1.0
176
1
 40
1.0
176
1
  0
VISUALSTYLE
  5
6E
102
{ACAD_REACTORS
330
16
102
}
330
16
100
AcDbVisualStyle
  2
Shades of Gray
 70
23
177
3
291
0
 70
58
 90
2
176
1
 90
2
176
1
 90
0
176
1
 90
2
176
1
 40
0.6
176
1
 40
30.0
176
1
 62
7
420
16777215
176
1
 90
1
176
1
 90
4
176
1
 62
7
176
1
 62
257
176
1
 90
1
176
1
 90
1
176
1
 40
1.0
176
1
 90
8
176
1
 62
7
176
1
 40
1.0
176
1
 90
1
176
1
 90
6
176
1
 90
2
176
1
 62
7
176
1
 90
5
176
1
 90
0
176
1
 90
0
176
1
290
0
176
1
 90
1
176
1
 40
0.0
176
1
 90
0
176
1
290
0
176
1
290
1
176
1
290
1
176
1
290
0
176
1
290
0
176
1
290
0
176
1
290
0
176
1
290
0
176
1
290
0
176
1
 90
50
176
1
 40
0.0
176
1
 40
1.0
176
1
 90
0
176
1
 62
18
420
0
176
1
 90
50
176
1
 90
3
176
1
 62
5
420
255
176
1
290
0
176
1
 90
50
176
1
 90
50
176
1
 90
50
176
1
290
0
176
1
 90
50
176
1
 62
256
176
0
 40
1.0
176
0
 90
2
176
1
  1
strokes_ogs.tif
176
1
290
0
176
1
 40
1.0
176
1
 40
1.0
176
1
  0
VISUALSTYLE
  5
6F
102
{ACAD_REACTORS
330
16
102
}
330
16
100
AcDbVisualStyle
  2
Sketchy
 70
24
177
3
291
0
 70
58
 90
2
176
1
 90
2
176
1
 90
0
176
1
 90
1
176
1
 40
0.6
176
1
 40
30.0
176
1
 62
7
420
16777215
176
1
 90
1
176
1
 90
4
176
1
 62
7
176
1
 62
257
176
1
 90
1
176
1
 90
1
176
1
 40
1.0
176
1
 90
8
176
1
 62
7
176
1
 40
1.0
176
1
 90
1
176
1
 90
6
176
1
 90
2
176
1
 62
7
176
1
 90
5
176
1
 90
0
176
1
 90
0
176
1
290
0
176
1
 90
1
176
1
 40
0.0
176
1
 90
0
176
1
290
0
176
1
290
1
176
1
290
1
176
1
290
0
176
1
290
0
176
1
290
0
176
1
290
0
176
1
290
0
176
1
290
0
176
1
 90
50
176
1
 40
0.0
176
1
 40
1.0
176
1
 90
0
176
1
 62
18
420
0
176
1
 90
50
176
1
 90
3
176
1
 62
5
420
255
176
1
290
0
176
1
 90
50
176
1
 90
50
176
1
 90
50
176
1
290
0
176
1
 90
50
176
1
 62
256
176
0
 40
1.0
176
0
 90
2
176
1
  1
strokes_ogs.tif
176
1
290
0
176
1
 40
1.0
176
1
 40
1.0
176
1
  0
VISUALSTYLE
  5
70
102
{ACAD_REACTORS
330
16
102
}
330
16
100
AcDbVisualStyle
  2
Thicken
 70
13
177
3
291
1
 70
58
 90
2
176
1
 90
2
176
1
 90
0
176
1
 90
2
176
1
 40
0.6
176
1
 40
30.0
176
1
 62
7
420
16777215
176
1
 90
1
176
1
 90
4
176
1
 62
7
176
1
 62
257
176
1
 90
1
176
1
 90
1
176
1
 40
1.0
176
1
 90
8
176
1
 62
7
176
1
 40
1.0
176
1
 90
1
176
1
 90
6
176
1
 90
2
176
1
 62
7
176
1
 90
5
176
1
 90
0
176
1
 90
0
176
1
290
0
176
1
 90
1
176
1
 40
0.0
176
1
 90
0
176
1
290
0
176
1
290
1
176
1
290
1
176
1
290
0
176
1
290
0
176
1
290
0
176
1
290
0
176
1
290
0
176
1
290
0
176
1
 90
50
176
1
 40
0.0
176
1
 40
1.0
176
1
 90
0
176
1
 62
18
420
0
176
1
 90
50
176
1
 90
3
176
1
 62
5
420
255
176
1
290
0
176
1
 90
50
176
1
 90
50
176
1
 90
50
176
1
290
0
176
1
 90
50
176
1
 62
256
176
0
 40
1.0
176
0
 90
2
176
1
  1
strokes_ogs.tif
176
1
290
0
176
1
 40
1.0
176
1
 40
1.0
176
1
  0
VISUALSTYLE
  5
71
102
{ACAD_REACTORS
330
16
102
}
330
16
100
AcDbVisualStyle
  2
Wireframe
 70
5
177
3
291
0
 70
58
 90
2
176
1
 90
2
176
1
 90
0
176
1
 90
0
176
1
 40
0.6
176
1
 40
30.0
176
1
 62
7
420
16777215
176
1
 90
1
176
1
 90
4
176
1
 62
7
176
1
 62
257
176
1
 90
1
176
1
 90
1
176
1
 40
1.0
176
1
 90
8
176
1
 62
7
176
1
 40
1.0
176
1
 90
1
176
1
 90
6
176
1
 90
2
176
1
 62
7
176
1
 90
5
176
1
 90
0
176
1
 90
0
176
1
290
0
176
1
 90
1
176
1
 40
0.0
176
1
 90
0
176
1
290
0
176
1
290
1
176
1
290
1
176
1
290
0
176
1
290
0
176
1
290
0
176
1
290
0
176
1
290
0
176
1
290
0
176
1
 90
50
176
1
 40
0.0
176
1
 40
1.0
176
1
 90
0
176
1
 62
18
420
0
176
1
 90
50
176
1
 90
3
176
1
 62
5
420
255
176
1
290
0
176
1
 90
50
176
1
 90
50
176
1
 90
50
176
1
290
0
176
1
 90
50
176
1
 62
256
176
0
 40
1.0
176
0
 90
2
176
1
  1
strokes_ogs.tif
176
1
290
0
176
1
 40
1.0
176
1
 40
1.0
176
1
  0
VISUALSTYLE
  5
72
102
{ACAD_REACTORS
330
16
102
}
330
16
100
AcDbVisualStyle
  2
X-Ray
 70
25
177
3
291
0
 70
58
 90
2
176
1
 90
2
176
1
 90
0
176
1
 90
2
176
1
 40
0.5
176
1
 40
30.0
176
1
 62
7
420
16777215
176
1
 90
1
176
1
 90
4
176
1
 62
7
176
1
 62
257
176
1
 90
1
176
1
 90
1
176
1
 40
1.0
176
1
 90
8
176
1
 62
7
176
1
 40
1.0
176
1
 90
1
176
1
 90
6
176
1
 90
2
176
1
 62
7
176
1
 90
5
176
1
 90
0
176
1
 90
0
176
1
290
0
176
1
 90
1
176
1
 40
0.0
176
1
 90
0
176
1
290
0
176
1
290
1
176
1
290
1
176
1
290
0
176
1
290
0
176
1
290
0
176
1
290
0
176
1
290
0
176
1
290
0
176
1
 90
50
176
1
 40
0.0
176
1
 40
1.0
176
1
 90
0
176
1
 62
18
420
0
176
1
 90
50
176
1
 90
3
176
1
 62
5
420
255
176
1
290
0
176
1
 90
50
176
1
 90
50
176
1
 90
50
176
1
290
0
176
1
 90
50
176
1
 62
256
176
0
 40
1.0
176
0
 90
2
176
1
  1
strokes_ogs.tif
176
1
290
0
176
1
 40
1.0
176
1
 40
1.0
176
1
  0
DICTIONARYVAR
  5
2DA
330
2D
100
DictionaryVariables
280
0
  1
1.4.4 @ 2026-09-23T10:46:10.607632+00:00
  0
ENDSEC
  0
EOF
