  0
SECTION
  2
HEADER
  9
$ACADVER
  1
AC1027
  9
$ACADMAINTVER
 70
105
  9
$DWGCODEPAGE
  3
ANSI_1252
  9
$LASTSAVEDBY
  1
ezdxf
  9
$REQUIREDVERSIONS
160
0
  9
$INSBASE
 10
0.0
 20
0.0
 30
0.0
  9
$EXTMIN
 10
1e+20
 20
1e+20
 30
1e+20
  9
$EXTMAX
 10
-1e+20
 20
-1e+20
 30
-1e+20
  9
$LIMMIN
 10
0.0
 20
0.0
  9
$LIMMAX
 10
420.0
 20
297.0
  9
$ORTHOMODE
 70
0
  9
$REGENMODE
 70
1
  9
$FILLMODE
 70
1
  9
$QTEXTMODE
 70
0
  9
$MIRRTEXT
 70
1
  9
$LTSCALE
 40
0.35
  9
$ATTMODE
 70
1
  9
$TEXTSIZE
 40
2.5
  9
$TRACEWID
 40
1.0
  9
$TEXTSTYLE
  7
OpenSans
  9
$CLAYER
  8
0
  9
$CELTYPE
  6
ByLayer
  9
$CECOLOR
 62
256
  9
$CELTSCALE
 40
1.0
  9
$DISPSILH
 70
0
  9
$DIMSCALE
 40
1.0
  9
$DIMASZ
 40
0.175
  9
$DIMEXO
 40
0.125
  9
$DIMDLI
 40
3.75
  9
$DIMRND
 40
0.0
  9
$DIMDLE
 40
0.0
  9
$DIMEXE
 40
0.375
  9
$DIMTP
 40
0.0
  9
$DIMTM
 40
0.0
  9
$DIMTXT
 40
0.25
  9
$DIMCEN
 40
2.5
  9
$DIMTSZ
 40
0.0
  9
$DIMTOL
 70
0
  9
$DIMLIM
 70
0
  9
$DIMTIH
 70
0
  9
$DIMTOH
 70
0
  9
$DIMSE1
 70
0
  9
$DIMSE2
 70
0
  9
$DIMTAD
 70
1
  9
$DIMZIN
 70
12
  9
$DIMBLK
  1
ARCHTICK
  9
$DIMASO
 70
1
  9
$DIMSHO
 70
1
  9
$DIMPOST
  1

  9
$DIMAPOST
  1

  9
$DIMALT
 70
0
  9
$DIMALTD
 70
3
  9
$DIMALTF
 40
0.03937007874
  9
$DIMLFAC
 40
100.0
  9
$DIMTOFL
 70
1
  9
$DIMTVP
 40
0.0
  9
$DIMTIX
 70
0
  9
$DIMSOXD
 70
0
  9
$DIMSAH
 70
0
  9
$DIMBLK1
  1

  9
$DIMBLK2
  1

  9
$DIMSTYLE
  2
EZDXF
  9
$DIMCLRD
 70
0
  9
$DIMCLRE
 70
0
  9
$DIMCLRT
 70
0
  9
$DIMTFAC
 40
0.5
  9
$DIMGAP
 40
0.1
  9
$DIMJUST
 70
0
  9
$DIMSD1
 70
0
  9
$DIMSD2
 70
0
  9
$DIMTOLJ
 70
0
  9
$DIMTZIN
 70
8
  9
$DIMALTZ
 70
0
  9
$DIMALTTZ
 70
0
  9
$DIMUPT
 70
1
  9
$DIMDEC
 70
2
  9
$DIMTDEC
 70
2
  9
$DIMALTU
 70
2
  9
$DIMALTTD
 70
3
  9
$DIMTXSTY
  7
OpenSansCondensed-Light
  9
$DIMAUNIT
 70
0
  9
$DIMADEC
 70
2
  9
$DIMALTRND
 40
0.0
  9
$DIMAZIN
 70
3
  9
$DIMDSEP
 70
46
  9
$DIMATFIT
 70
3
  9
$DIMFRAC
 70
0
  9
$DIMLDRBLK
  1

  9
$DIMLUNIT
 70
2
  9
$DIMLWD
 70
-2
  9
$DIMLWE
 70
-2
  9
$DIMTMOVE
 70
2
  9
$DIMFXL
 40
1.0
  9
$DIMFXLON
 70
0
  9
$DIMJOGANG
 40
0.785398163397
  9
$DIMTFILL
 70
0
  9
$DIMTFILLCLR
 70
0
  9
$DIMARCSYM
 70
0
  9
$DIMLTYPE
  6

  9
$DIMLTEX1
  6

  9
$DIMLTEX2
  6

  9
$DIMTXTDIRECTION
 70
0
  9
$LUNITS
 70
2
  9
$LUPREC
 70
4
  9
$SKETCHINC
 40
1.0
  9
$FILLETRAD
 40
10.0
  9
$AUNITS
 70
0
  9
$AUPREC
 70
2
  9
$MENU
  1
.
  9
$ELEVATION
 40
0.0
  9
$PELEVATION
 40
0.0
  9
$THICKNESS
 40
0.0
  9
$LIMCHECK
 70
0
  9
$CHAMFERA
 40
0.0
  9
$CHAMFERB
 40
0.0
  9
$CHAMFERC
 40
0.0
  9
$CHAMFERD
 40
0.0
  9
$SKPOLY
 70
0
  9
$TDCREATE
 40
2461308.133449074
  9
$TDUCREATE
 40
2458532.153996898
  9
$TDUPDATE
 40
2461308.1334606484
  9
$TDUUPDATE
 40
2458532.1544311
  9
$TDINDWG
 40
0.0
  9
$TDUSRTIMER
 40
0.0
  9
$USRTIMER
 70
1
  9
$ANGBASE
 50
0.0
  9
$ANGDIR
 70
0
  9
$PDMODE
 70
0
  9
$PDSIZE
 40
0.0
  9
$PLINEWID
 40
0.0
  9
$SPLFRAME
 70
0
  9
$SPLINETYPE
 70
6
  9
$SPLINESEGS
 70
8
  9
$HANDSEED
  5
11A
  9
$SURFTAB1
 70
6
  9
$SURFTAB2
 70
6
  9
$SURFTYPE
 70
6
  9
$SURFU
 70
6
  9
$SURFV
 70
6
  9
$UCSBASE
  2

  9
$UCSNAME
  2

  9
$UCSORG
 10
0.0
 20
0.0
 30
0.0
  9
$UCSXDIR
 10
1.0
 20
0.0
 30
0.0
  9
$UCSYDIR
 10
0.0
 20
1.0
 30
0.0
  9
$UCSORTHOREF
  2

  9
$UCSORTHOVIEW
 70
0
  9
$UCSORGTOP
 10
0.0
 20
0.0
 30
0.0
  9
$UCSORGBOTTOM
 10
0.0
 20
0.0
 30
0.0
  9
$UCSORGLEFT
 10
0.0
 20
0.0
 30
0.0
  9
$UCSORGRIGHT
 10
0.0
 20
0.0
 30
0.0
  9
$UCSORGFRONT
 10
0.0
 20
0.0
 30
0.0
  9
$UCSORGBACK
 10
0.0
 20
0.0
 30
0.0
  9
$PUCSBASE
  2

  9
$PUCSNAME
  2

  9
$PUCSORG
 10
0.0
 20
0.0
 30
0.0
  9
$PUCSXDIR
 10
1.0
 20
0.0
 30
0.0
  9
$PUCSYDIR
 10
0.0
 20
1.0
 30
0.0
  9
$PUCSORTHOREF
  2

  9
$PUCSORTHOVIEW
 70
0
  9
$PUCSORGTOP
 10
0.0
 20
0.0
 30
0.0
  9
$PUCSORGBOTTOM
 10
0.0
 20
0.0
 30
0.0
  9
$PUCSORGLEFT
 10
0.0
 20
0.0
 30
0.0
  9
$PUCSORGRIGHT
 10
0.0
 20
0.0
 30
0.0
  9
$PUCSORGFRONT
 10
0.0
 20
0.0
 30
0.0
  9
$PUCSORGBACK
 10
0.0
 20
0.0
 30
0.0
  9
$USERI1
 70
0
  9
$USERI2
 70
0
  9
$USERI3
 70
0
  9
$USERI4
 70
0
  9
$USERI5
 70
0
  9
$USERR1
 40
0.0
  9
$USERR2
 40
0.0
  9
$USERR3
 40
0.0
  9
$USERR4
 40
0.0
  9
$USERR5
 40
0.0
  9
$WORLDVIEW
 70
1
  9
$SHADEDGE
 70
3
  9
$SHADEDIF
 70
70
  9
$TILEMODE
 70
1
  9
$MAXACTVP
 70
64
  9
$PINSBASE
 10
0.0
 20
0.0
 30
0.0
  9
$PLIMCHECK
 70
0
  9
$PEXTMIN
 10
1e+20
 20
1e+20
 30
1e+20
  9
$PEXTMAX
 10
-1e+20
 20
-1e+20
 30
-1e+20
  9
$PLIMMIN
 10
0.0
 20
0.0
  9
$PLIMMAX
 10
420.0
 20
297.0
  9
$UNITMODE
 70
0
  9
$VISRETAIN
 70
1
  9
$PLINEGEN
 70
0
  9
$PSLTSCALE
 70
1
  9
$TREEDEPTH
 70
3020
  9
$CMLSTYLE
  2
Standard
  9
$CMLJUST
 70
0
  9
$CMLSCALE
 40
20.0
  9
$PROXYGRAPHICS
 70
1
  9
$MEASUREMENT
 70
1
  9
$CELWEIGHT
370
-1
  9
$ENDCAPS
280
0
  9
$JOINSTYLE
280
0
  9
$LWDISPLAY
290
0
  9
$INSUNITS
 70
4
  9
$HYPERLINKBASE
  1

  9
$STYLESHEET
  1

  9
$XEDIT
290
1
  9
$CEPSNTYPE
380
0
  9
$PSTYLEMODE
290
1
  9
$FINGERPRINTGUID
  2
{503C1FDD-CF6D-4CC6-AC95-59842FA1BC84}
  9
$VERSIONGUID
  2
{E906414B-EB22-45B9-BF91-415400AF0063}
  9
$EXTNAMES
290
1
  9
$PSVPSCALE
 40
0.0
  9
$OLESTARTUP
290
0
  9
$SORTENTS
280
127
  9
$INDEXCTL
280
0
  9
$HIDETEXT
280
1
  9
$XCLIPFRAME
280
1
  9
$HALOGAP
280
0
  9
$OBSCOLOR
 70
257
  9
$OBSLTYPE
280
0
  9
$INTERSECTIONDISPLAY
280
0
  9
$INTERSECTIONCOLOR
 70
257
  9
$DIMASSOC
280
2
  9
$PROJECTNAME
  1

  9
$CAMERADISPLAY
290
0
  9
$LENSLENGTH
 40
50.0
  9
$CAMERAHEIGHT
 40
0.0
  9
$STEPSPERSEC
 40
24.0
  9
$STEPSIZE
 40
100.0
  9
$3DDWFPREC
 40
2.0
  9
$PSOLWIDTH
 40
0.005
  9
$PSOLHEIGHT
 40
0.08
  9
$LOFTANG1
 40
1.570796326795
  9
$LOFTANG2
 40
1.570796326795
  9
$LOFTMAG1
 40
0.0
  9
$LOFTMAG2
 40
0.0
  9
$LOFTPARAM
 70
7
  9
$LOFTNORMALS
280
1
  9
$LATITUDE
 40
37.795
  9
$LONGITUDE
 40
-122.394
  9
$NORTHDIRECTION
 40
0.0
  9
$TIMEZONE
 70
-8000
  9
$LIGHTGLYPHDISPLAY
280
1
  9
$TILEMODELIGHTSYNCH
280
1
  9
$CMATERIAL
347
20
  9
$SOLIDHIST
280
0
  9
$SHOWHIST
280
1
  9
$DWFFRAME
280
2
  9
$DGNFRAME
280
2
  9
$REALWORLDSCALE
290
1
  9
$INTERFERECOLOR
 62
256
  9
$CSHADOW
280
0
  9
$SHADOWPLANELOCATION
 40
0.0
  0
ENDSEC
  0
SECTION
  2
CLASSES
  0
CLASS
  1
ACDBDICTIONARYWDFLT
  2
AcDbDictionaryWithDefault
  3
ObjectDBX Classes
 90
0
 91
0
280
0
281
0
  0
CLASS
  1
SUN
  2
AcDbSun
  3
SCENEOE
 90
1153
 91
0
280
0
281
0
  0
CLASS
  1
VISUALSTYLE
  2
AcDbVisualStyle
  3
ObjectDBX Classes
 90
4095
 91
0
280
0
281
0
  0
CLASS
  1
MATERIAL
  2
AcDbMaterial
  3
ObjectDBX Classes
 90
1153
 91
0
280
0
281
0
  0
CLASS
  1
SCALE
  2
AcDbScale
  3
ObjectDBX Classes
 90
1153
 91
0
280
0
281
0
  0
CLASS
  1
TABLESTYLE
  2
AcDbTableStyle
  3
ObjectDBX Classes
 90
4095
 91
0
280
0
281
0
  0
CLASS
  1
MLEADERSTYLE
  2
AcDbMLeaderStyle
  3
ACDB_MLEADERSTYLE_CLASS
 90
4095
 91
0
280
0
281
0
  0
CLASS
  1
DICTIONARYVAR
  2
AcDbDictionaryVar
  3
ObjectDBX Classes
 90
0
 91
0
280
0
281
0
  0
CLASS
  1
CELLSTYLEMAP
  2
AcDbCellStyleMap
  3
ObjectDBX Classes
 90
1152
 91
0
280
0
281
0
  0
CLASS
  1
MENTALRAYRENDERSETTINGS
  2
AcDbMentalRayRenderSettings
  3
SCENEOE
 90
1024
 91
0
280
0
281
0
  0
CLASS
  1
ACDBDETAILVIEWSTYLE
  2
AcDbDetailViewStyle
  3
ObjectDBX Classes
 90
1025
 91
0
280
0
281
0
  0
CLASS
  1
ACDBSECTIONVIEWSTYLE
  2
AcDbSectionViewStyle
  3
ObjectDBX Classes
 90
1025
 91
0
280
0
281
0
  0
CLASS
  1
RASTERVARIABLES
  2
AcDbRasterVariables
  3
ISM
 90
0
 91
0
280
0
281
0
  0
CLASS
  1
LAYOUT
  2
AcDbLayout
  3
ObjectDBX Classes
 90
0
 91
0
280
0
281
0
  0
CLASS
  1
ACDBPLACEHOLDER
  2
AcDbPlaceHolder
  3
ObjectDBX Classes
 90
0
 91
0
280
0
281
0
  0
ENDSEC
  0
SECTION
  2
TABLES
  0
TABLE
  2
VPORT
  5
8
330
0
100
AcDbSymbolTable
 70
1
  0
VPORT
  5
23
330
8
100
AcDbSymbolTableRecord
100
AcDbViewportTableRecord
  2
*Active
 70
0
 10
0.0
 20
0.0
 11
1.0
 21
1.0
 12
0.0
 22
0.0
 13
0.0
 23
0.0
 14
0.5
 24
0.5
 15
0.5
 25
0.5
 16
0.0
 26
0.0
 36
1.0
 17
0.0
 27
0.0
 37
0.0
 40
1000.0
 41
1.34
 42
50.0
 43
0.0
 44
0.0
 50
0.0
 51
0.0
 71
0
 72
1000
 73
1
 74
3
 75
0
 76
0
 77
0
 78
0
281
0
 65
0
146
0.0
  0
ENDTAB
  0
TABLE
  2
LTYPE
  5
2
330
0
100
AcDbSymbolTable
 70
21
  0
LTYPE
  5
24
330
2
100
AcDbSymbolTableRecord
100
AcDbLinetypeTableRecord
  2
ByBlock
 70
0
  3

 72
65
 73
0
 40
0.0
  0
LTYPE
  5
25
330
2
100
AcDbSymbolTableRecord
100
AcDbLinetypeTableRecord
  2
ByLayer
 70
0
  3

 72
65
 73
0
 40
0.0
  0
LTYPE
  5
26
330
2
100
AcDbSymbolTableRecord
100
AcDbLinetypeTableRecord
  2
Continuous
 70
0
  3

 72
65
 73
0
 40
0.0
  0
LTYPE
  5
2F
330
2
100
AcDbSymbolTableRecord
100
AcDbLinetypeTableRecord
  2
CENTER
 70
0
  3
Center ____ _ ____ _ ____ _ ____ _ ____ _ ____
 72
65
 73
4
 40
5.08
 49
3.175
 74
0
 49
-0.635
 74
0
 49
0.635
 74
0
 49
-0.635
 74
0
  0
LTYPE
  5
30
330
2
100
AcDbSymbolTableRecord
100
AcDbLinetypeTableRecord
  2
CENTERX2
 70
0
  3
Center (2x) ________  __  ________  __  ________
 72
65
 73
4
 40
8.89
 49
6.35
 74
0
 49
-0.635
 74
0
 49
1.27
 74
0
 49
-0.635
 74
0
  0
LTYPE
  5
31
330
2
100
AcDbSymbolTableRecord
100
AcDbLinetypeTableRecord
  2
CENTER2
 70
0
  3
Center (.5x) ____ _ ____ _ ____ _ ____ _ ____
 72
65
 73
4
 40
2.54
 49
1.587
 74
0
 49
-0.318
 74
0
 49
0.318
 74
0
 49
-0.318
 74
0
  0
LTYPE
  5
32
330
2
100
AcDbSymbolTableRecord
100
AcDbLinetypeTableRecord
  2
DASHED
 70
0
  3
Dashed __ __ __ __ __ __ __ __ __ __ __ __ __ _
 72
65
 73
2
 40
1.524
 49
1.27
 74
0
 49
-0.254
 74
0
  0
LTYPE
  5
33
330
2
100
AcDbSymbolTableRecord
100
AcDbLinetypeTableRecord
  2
DASHEDX2
 70
0
  3
Dashed (2x) ____  ____  ____  ____  ____  ____
 72
65
 73
2
 40
3.048
 49
2.54
 74
0
 49
-0.508
 74
0
  0
LTYPE
  5
34
330
2
100
AcDbSymbolTableRecord
100
AcDbLinetypeTableRecord
  2
DASHED2
 70
0
  3
Dashed (.5x) _ _ _ _ _ _ _ _ _ _ _ _ _ _
 72
65
 73
2
 40
0.762
 49
0.635
 74
0
 49
-0.127
 74
0
  0
LTYPE
  5
35
330
2
100
AcDbSymbolTableRecord
100
AcDbLinetypeTableRecord
  2
PHANTOM
 70
0
  3
Phantom ______  __  __  ______  __  __  ______
 72
65
 73
6
 40
6.35
 49
3.175
 74
0
 49
-0.635
 74
0
 49
0.635
 74
0
 49
-0.635
 74
0
 49
0.635
 74
0
 49
-0.635
 74
0
  0
LTYPE
  5
36
330
2
100
AcDbSymbolTableRecord
100
AcDbLinetypeTableRecord
  2
PHANTOMX2
 70
0
  3
Phantom (2x)____________    ____    ____    ____________
 72
65
 73
6
 40
10.795
 49
6.35
 74
0
 49
-0.635
 74
0
 49
1.27
 74
0
 49
-0.635
 74
0
 49
1.27
 74
0
 49
-0.635
 74
0
  0
LTYPE
  5
37
330
2
100
AcDbSymbolTableRecord
100
AcDbLinetypeTableRecord
  2
PHANTOM2
 70
0
  3
Phantom (.5x) ___ _ _ ___ _ _ ___ _ _ ___ _ _ ___
 72
65
 73
6
 40
3.175
 49
1.587
 74
0
 49
-0.318
 74
0
 49
0.318
 74
0
 49
-0.318
 74
0
 49
0.318
 74
0
 49
-0.318
 74
0
  0
LTYPE
  5
38
330
2
100
AcDbSymbolTableRecord
100
AcDbLinetypeTableRecord
  2
DASHDOT
 70
0
  3
Dash dot __ . __ . __ . __ . __ . __ . __ . __
 72
65
 73
4
 40
3.556
 49
2.54
 74
0
 49
-0.508
 74
0
 49
0.0
 74
0
 49
-0.508
 74
0
  0
LTYPE
  5
39
330
2
100
AcDbSymbolTableRecord
100
AcDbLinetypeTableRecord
  2
DASHDOTX2
 70
0
  3
Dash dot (2x) ____  .  ____  .  ____  .  ____
 72
65
 73
4
 40
6.096
 49
5.08
 74
0
 49
-0.508
 74
0
 49
0.0
 74
0
 49
-0.508
 74
0
  0
LTYPE
  5
3A
330
2
100
AcDbSymbolTableRecord
100
AcDbLinetypeTableRecord
  2
DASHDOT2
 70
0
  3
Dash dot (.5x) _ . _ . _ . _ . _ . _ . _ . _
 72
65
 73
4
 40
1.778
 49
1.27
 74
0
 49
-0.254
 74
0
 49
0.0
 74
0
 49
-0.254
 74
0
  0
LTYPE
  5
3B
330
2
100
AcDbSymbolTableRecord
100
AcDbLinetypeTableRecord
  2
DOT
 70
0
  3
Dot .  .  .  .  .  .  .  .  .  .  .  .  .  .  .  .
 72
65
 73
2
 40
0.508
 49
0.0
 74
0
 49
-0.508
 74
0
  0
LTYPE
  5
3C
330
2
100
AcDbSymbolTableRecord
100
AcDbLinetypeTableRecord
  2
DOTX2
 70
0
  3
Dot (2x) .    .    .    .    .    .    .    . 
 72
65
 73
2
 40
1.016
 49
0.0
 74
0
 49
-1.016
 74
0
  0
LTYPE
  5
3D
330
2
100
AcDbSymbolTableRecord
100
AcDbLinetypeTableRecord
  2
DOT2
 70
0
  3
Dot (.5) . . . . . . . . . . . . . . . . . . . 
 72
65
 73
2
 40
0.254
 49
0.0
 74
0
 49
-0.254
 74
0
  0
LTYPE
  5
3E
330
2
100
AcDbSymbolTableRecord
100
AcDbLinetypeTableRecord
  2
DIVIDE
 70
0
  3
Divide __ . . __ . . __ . . __ . . __ . . __
 72
65
 73
6
 40
4.064
 49
2.54
 74
0
 49
-0.508
 74
0
 49
0.0
 74
0
 49
-0.508
 74
0
 49
0.0
 74
0
 49
-0.508
 74
0
  0
LTYPE
  5
3F
330
2
100
AcDbSymbolTableRecord
100
AcDbLinetypeTableRecord
  2
DIVIDEX2
 70
0
  3
Divide (2x) ____  . .  ____  . .  ____  . .  ____
 72
65
 73
6
 40
6.604
 49
5.08
 74
0
 49
-0.508
 74
0
 49
0.0
 74
0
 49
-0.508
 74
0
 49
0.0
 74
0
 49
-0.508
 74
0
  0
LTYPE
  5
40
330
2
100
AcDbSymbolTableRecord
100
AcDbLinetypeTableRecord
  2
DIVIDE2
 70
0
  3
Divide(.5x) _ . _ . _ . _ . _ . _ . _ . _
 72
65
 73
6
 40
2.032
 49
1.27
 74
0
 49
-0.254
 74
0
 49
0.0
 74
0
 49
-0.254
 74
0
 49
0.0
 74
0
 49
-0.254
 74
0
  0
ENDTAB
  0
TABLE
  2
LAYER
  5
1
330
0
100
AcDbSymbolTable
 70
24
  0
LAYER
  5
27
330
1
100
AcDbSymbolTableRecord
100
AcDbLayerTableRecord
  2
0
 70
0
 62
7
  6
Continuous
370
-3
390
13
347
21
  0
LAYER
  5
28
330
1
100
AcDbSymbolTableRecord
100
AcDbLayerTableRecord
  2
Defpoints
 70
0
 62
7
  6
Continuous
290
0
370
-3
390
13
347
21
  0
LAYER
  5
8A
330
1
100
AcDbSymbolTableRecord
100
AcDbLayerTableRecord
  2
00_РАМКА
 70
0
 62
7
  6
CONTINUOUS
370
-3
390
13
347
21
  0
LAYER
  5
8B
330
1
100
AcDbSymbolTableRecord
100
AcDbLayerTableRecord
  2
01_ОБШИВКА
 70
0
 62
7
  6
CONTINUOUS
370
-3
390
13
347
21
  0
LAYER
  5
8C
330
1
100
AcDbSymbolTableRecord
100
AcDbLayerTableRecord
  2
02_ПАЛУБЫ
 70
0
 62
4
  6
CONTINUOUS
370
-3
390
13
347
21
  0
LAYER
  5
8D
330
1
100
AcDbSymbolTableRecord
100
AcDbLayerTableRecord
  2
03_ПЕРЕБОРКИ
 70
0
 62
1
  6
CONTINUOUS
370
-3
390
13
347
21
  0
LAYER
  5
8E
330
1
100
AcDbSymbolTableRecord
100
AcDbLayerTableRecord
  2
04_ЦИСТЕРНЫ
 70
0
 62
3
  6
CONTINUOUS
370
-3
390
13
347
21
  0
LAYER
  5
8F
330
1
100
AcDbSymbolTableRecord
100
AcDbLayerTableRecord
  2
05_ОБОРУДОВАНИЕ
 70
0
 62
5
  6
CONTINUOUS
370
-3
390
13
347
21
  0
LAYER
  5
90
330
1
100
AcDbSymbolTableRecord
100
AcDbLayerTableRecord
  2
06_ПОМЕЩЕНИЯ
 70
0
 62
8
  6
CONTINUOUS
370
-3
390
13
347
21
  0
LAYER
  5
91
330
1
100
AcDbSymbolTableRecord
100
AcDbLayerTableRecord
  2
07_ОСИ
 70
0
 62
2
  6
CENTER
370
18
390
13
347
21
  0
LAYER
  5
92
330
1
100
AcDbSymbolTableRecord
100
AcDbLayerTableRecord
  2
08_ТЕКСТ
 70
0
 62
7
  6
CONTINUOUS
370
-3
390
13
347
21
  0
LAYER
  5
93
330
1
100
AcDbSymbolTableRecord
100
AcDbLayerTableRecord
  2
09_РАЗМЕРЫ
 70
0
 62
7
  6
CONTINUOUS
370
-3
390
13
347
21
  0
LAYER
  5
94
330
1
100
AcDbSymbolTableRecord
100
AcDbLayerTableRecord
  2
10_НАБОР
 70
0
 62
9
  6
CONTINUOUS
370
-3
390
13
347
21
  0
LAYER
  5
95
330
1
100
AcDbSymbolTableRecord
100
AcDbLayerTableRecord
  2
11_КАЮТЫ
 70
0
 62
30
  6
CONTINUOUS
370
-3
390
13
347
21
  0
LAYER
  5
96
330
1
100
AcDbSymbolTableRecord
100
AcDbLayerTableRecord
  2
12_ТРАПЫ_ЛИФТЫ
 70
0
 62
6
  6
CONTINUOUS
370
-3
390
13
347
21
  0
LAYER
  5
97
330
1
100
AcDbSymbolTableRecord
100
AcDbLayerTableRecord
  2
13_КОЛЁСА
 70
0
 62
1
  6
CONTINUOUS
370
-3
390
13
347
21
  0
LAYER
  5
98
330
1
100
AcDbSymbolTableRecord
100
AcDbLayerTableRecord
  2
14_МЕБЕЛЬ
 70
0
 62
252
  6
CONTINUOUS
370
-3
390
13
347
21
  0
LAYER
  5
9A
330
1
100
AcDbSymbolTableRecord
100
AcDbLayerTableRecord
  2
20_ВИДИМЫЕ
 70
0
 62
7
  6
CONTINUOUS
370
50
390
13
347
21
  0
LAYER
  5
9B
330
1
100
AcDbSymbolTableRecord
100
AcDbLayerTableRecord
  2
21_НЕВИДИМЫЕ
 70
0
 62
7
  6
DASHED
370
25
390
13
347
21
  0
LAYER
  5
9C
330
1
100
AcDbSymbolTableRecord
100
AcDbLayerTableRecord
  2
22_ТОНКИЕ
 70
0
 62
7
  6
CONTINUOUS
370
18
390
13
347
21
  0
LAYER
  5
9D
330
1
100
AcDbSymbolTableRecord
100
AcDbLayerTableRecord
  2
23_ШТРИХОВКА
 70
0
 62
7
  6
CONTINUOUS
370
18
390
13
347
21
  0
LAYER
  5
9E
330
1
100
AcDbSymbolTableRecord
100
AcDbLayerTableRecord
  2
24_ФАНТОМ
 70
0
 62
7
  6
PHANTOM
370
18
390
13
347
21
  0
LAYER
  5
9F
330
1
100
AcDbSymbolTableRecord
100
AcDbLayerTableRecord
  2
25_ЛИТЬЁ
 70
0
 62
7
  6
CONTINUOUS
370
35
390
13
347
21
  0
LAYER
  5
A0
330
1
100
AcDbSymbolTableRecord
100
AcDbLayerTableRecord
  2
26_РАЗЪЁМ
 70
0
 62
7
  6
DASHDOT
370
35
390
13
347
21
  0
ENDTAB
  0
TABLE
  2
STYLE
  5
5
330
0
100
AcDbSymbolTable
 70
27
  0
STYLE
  5
29
330
5
100
AcDbSymbolTableRecord
100
AcDbTextStyleTableRecord
  2
Standard
 70
0
 40
0.0
 41
1.0
 50
0.0
 71
0
 42
2.5
  3
txt
  4

  0
STYLE
  5
41
330
5
100
AcDbSymbolTableRecord
100
AcDbTextStyleTableRecord
  2
OpenSans-Light
 70
0
 40
0.0
 41
1.0
 50
0.0
 71
0
 42
2.5
  3
OpenSans-Light.ttf
  4

  0
STYLE
  5
42
330
5
100
AcDbSymbolTableRecord
100
AcDbTextStyleTableRecord
  2
OpenSans-Light-Italic
 70
0
 40
0.0
 41
1.0
 50
0.0
 71
0
 42
2.5
  3
OpenSans-LightItalic.ttf
  4

  0
STYLE
  5
43
330
5
100
AcDbSymbolTableRecord
100
AcDbTextStyleTableRecord
  2
OpenSans
 70
0
 40
0.0
 41
1.0
 50
0.0
 71
0
 42
2.5
  3
OpenSans-Regular.ttf
  4

  0
STYLE
  5
44
330
5
100
AcDbSymbolTableRecord
100
AcDbTextStyleTableRecord
  2
OpenSans-Italic
 70
0
 40
0.0
 41
1.0
 50
0.0
 71
0
 42
2.5
  3
OpenSans-Italic.ttf
  4

  0
STYLE
  5
45
330
5
100
AcDbSymbolTableRecord
100
AcDbTextStyleTableRecord
  2
OpenSans-SemiBold
 70
0
 40
0.0
 41
1.0
 50
0.0
 71
0
 42
2.5
  3
OpenSans-SemiBold.ttf
  4

  0
STYLE
  5
46
330
5
100
AcDbSymbolTableRecord
100
AcDbTextStyleTableRecord
  2
OpenSans-SemiBoldItalic
 70
0
 40
0.0
 41
1.0
 50
0.0
 71
0
 42
2.5
  3
OpenSans-SemiBoldItalic.ttf
  4

  0
STYLE
  5
47
330
5
100
AcDbSymbolTableRecord
100
AcDbTextStyleTableRecord
  2
OpenSans-Bold
 70
0
 40
0.0
 41
1.0
 50
0.0
 71
0
 42
2.5
  3
OpenSans-Bold.ttf
  4

  0
STYLE
  5
48
330
5
100
AcDbSymbolTableRecord
100
AcDbTextStyleTableRecord
  2
OpenSans-BoldItalic
 70
0
 40
0.0
 41
1.0
 50
0.0
 71
0
 42
2.5
  3
OpenSans-BoldItalic.ttf
  4

  0
STYLE
  5
49
330
5
100
AcDbSymbolTableRecord
100
AcDbTextStyleTableRecord
  2
OpenSans-ExtraBold
 70
0
 40
0.0
 41
1.0
 50
0.0
 71
0
 42
2.5
  3
OpenSans-ExtraBold.ttf
  4

  0
STYLE
  5
4A
330
5
100
AcDbSymbolTableRecord
100
AcDbTextStyleTableRecord
  2
OpenSans-ExtraBoldItalic
 70
0
 40
0.0
 41
1.0
 50
0.0
 71
0
 42
2.5
  3
OpenSans-ExtraBoldItalic.ttf
  4

  0
STYLE
  5
4B
330
5
100
AcDbSymbolTableRecord
100
AcDbTextStyleTableRecord
  2
OpenSansCondensed-Bold
 70
0
 40
0.0
 41
1.0
 50
0.0
 71
0
 42
2.5
  3
OpenSansCondensed-Bold.ttf
  4

  0
STYLE
  5
4C
330
5
100
AcDbSymbolTableRecord
100
AcDbTextStyleTableRecord
  2
OpenSansCondensed-Light
 70
0
 40
0.0
 41
1.0
 50
0.0
 71
0
 42
2.5
  3
OpenSansCondensed-Light.ttf
  4

  0
STYLE
  5
4D
330
5
100
AcDbSymbolTableRecord
100
AcDbTextStyleTableRecord
  2
OpenSansCondensed-Italic
 70
0
 40
0.0
 41
1.0
 50
0.0
 71
0
 42
2.5
  3
OpenSansCondensed-LightItalic.ttf
  4

  0
STYLE
  5
4E
330
5
100
AcDbSymbolTableRecord
100
AcDbTextStyleTableRecord
  2
LiberationSans
 70
0
 40
0.0
 41
1.0
 50
0.0
 71
0
 42
2.5
  3
LiberationSans-Regular.ttf
  4

  0
STYLE
  5
4F
330
5
100
AcDbSymbolTableRecord
100
AcDbTextStyleTableRecord
  2
LiberationSans-Bold
 70
0
 40
0.0
 41
1.0
 50
0.0
 71
0
 42
2.5
  3
LiberationSans-Bold.ttf
  4

  0
STYLE
  5
50
330
5
100
AcDbSymbolTableRecord
100
AcDbTextStyleTableRecord
  2
LiberationSans-BoldItalic
 70
0
 40
0.0
 41
1.0
 50
0.0
 71
0
 42
2.5
  3
LiberationSans-BoldItalic.ttf
  4

  0
STYLE
  5
51
330
5
100
AcDbSymbolTableRecord
100
AcDbTextStyleTableRecord
  2
LiberationSans-Italic
 70
0
 40
0.0
 41
1.0
 50
0.0
 71
0
 42
2.5
  3
LiberationSans-Italic.ttf
  4

  0
STYLE
  5
52
330
5
100
AcDbSymbolTableRecord
100
AcDbTextStyleTableRecord
  2
LiberationSerif
 70
0
 40
0.0
 41
1.0
 50
0.0
 71
0
 42
2.5
  3
LiberationSerif-Regular.ttf
  4

  0
STYLE
  5
53
330
5
100
AcDbSymbolTableRecord
100
AcDbTextStyleTableRecord
  2
LiberationSerif-Bold
 70
0
 40
0.0
 41
1.0
 50
0.0
 71
0
 42
2.5
  3
LiberationSerif-Bold.ttf
  4

  0
STYLE
  5
54
330
5
100
AcDbSymbolTableRecord
100
AcDbTextStyleTableRecord
  2
LiberationSerif-BoldItalic
 70
0
 40
0.0
 41
1.0
 50
0.0
 71
0
 42
2.5
  3
LiberationSerif-BoldItalic.ttf
  4

  0
STYLE
  5
55
330
5
100
AcDbSymbolTableRecord
100
AcDbTextStyleTableRecord
  2
LiberationSerif-Italic
 70
0
 40
0.0
 41
1.0
 50
0.0
 71
0
 42
2.5
  3
LiberationSerif-Italic.ttf
  4

  0
STYLE
  5
56
330
5
100
AcDbSymbolTableRecord
100
AcDbTextStyleTableRecord
  2
LiberationMono
 70
0
 40
0.0
 41
1.0
 50
0.0
 71
0
 42
2.5
  3
LiberationMono-Regular.ttf
  4

  0
STYLE
  5
57
330
5
100
AcDbSymbolTableRecord
100
AcDbTextStyleTableRecord
  2
LiberationMono-Bold
 70
0
 40
0.0
 41
1.0
 50
0.0
 71
0
 42
2.5
  3
LiberationMono-Bold.ttf
  4

  0
STYLE
  5
58
330
5
100
AcDbSymbolTableRecord
100
AcDbTextStyleTableRecord
  2
LiberationMono-BoldItalic
 70
0
 40
0.0
 41
1.0
 50
0.0
 71
0
 42
2.5
  3
LiberationMono-BoldItalic.ttf
  4

  0
STYLE
  5
59
330
5
100
AcDbSymbolTableRecord
100
AcDbTextStyleTableRecord
  2
LiberationMono-Italic
 70
0
 40
0.0
 41
1.0
 50
0.0
 71
0
 42
2.5
  3
LiberationMono-Italic.ttf
  4

  0
STYLE
  5
99
330
5
100
AcDbSymbolTableRecord
100
AcDbTextStyleTableRecord
  2
ГОСТ
 70
0
 40
0.0
 41
1.0
 50
0.0
 71
0
 42
2.5
  3
ISOCPEUR.TTF
  4

  0
ENDTAB
  0
TABLE
  2
VIEW
  5
7
330
0
100
AcDbSymbolTable
 70
0
  0
ENDTAB
  0
TABLE
  2
UCS
  5
6
330
0
100
AcDbSymbolTable
 70
0
  0
ENDTAB
  0
TABLE
  2
APPID
  5
3
330
0
100
AcDbSymbolTable
 70
3
  0
APPID
  5
2A
330
3
100
AcDbSymbolTableRecord
100
AcDbRegAppTableRecord
  2
ACAD
 70
0
  0
APPID
  5
117
330
3
100
AcDbSymbolTableRecord
100
AcDbRegAppTableRecord
  2
HATCHBACKGROUNDCOLOR
 70
0
  0
APPID
  5
118
330
3
100
AcDbSymbolTableRecord
100
AcDbRegAppTableRecord
  2
EZDXF
 70
0
  0
ENDTAB
  0
TABLE
  2
DIMSTYLE
  5
4
330
0
100
AcDbSymbolTable
 70
13
100
AcDbDimStyleTable
  0
DIMSTYLE
105
2B
330
4
100
AcDbSymbolTableRecord
100
AcDbDimStyleTableRecord
  2
Standard
 70
0
 40
1.0
 41
2.5
 42
0.625
 43
3.75
 44
1.25
 45
0.0
 46
0.0
 47
0.0
 48
0.0
 49
2.5
140
2.5
141
2.5
142
0.0
143
0.03937007874
144
1.0
145
0.0
146
1.0
147
0.625
148
0.0
 69
0
 70
0
 71
0
 72
0
 73
0
 74
0
 75
0
 76
0
 77
1
 78
8
 79
3
170
0
171
3
172
1
173
0
174
0
175
0
176
0
177
0
178
0
179
2
271
2
272
2
273
2
274
3
275
0
276
0
277
2
278
44
279
0
280
0
281
0
282
0
283
0
284
8
285
0
286
0
288
0
289
3
290
0
371
-2
372
-2
  0
DIMSTYLE
105
73
330
4
100
AcDbSymbolTableRecord
100
AcDbDimStyleTableRecord
  2
EZDXF
 70
0
 40
1.0
 41
0.175
 42
0.125
 43
3.75
 44
0.375
 45
0.0
 46
0.0
 47
0.0
 48
0.0
 49
2.5
140
0.25
141
2.5
142
0.0
143
0.03937007874
144
100.0
145
0.0
146
0.5
147
0.1
148
0.0
 69
0
 70
0
 71
0
 72
0
 73
0
 74
0
 75
0
 76
0
 77
1
 78
12
 79
3
170
0
171
3
172
1
173
0
174
0
175
0
176
0
177
0
178
0
179
2
271
2
272
2
273
2
274
3
275
0
276
0
277
2
278
46
279
2
280
0
281
0
282
0
283
0
284
8
285
0
286
0
288
1
289
3
290
0
340
4C
342
74
371
-2
372
-2
  0
DIMSTYLE
105
7C
330
4
100
AcDbSymbolTableRecord
100
AcDbDimStyleTableRecord
  2
EZ_M_100_H25_CM
 70
0
 40
1.0
 41
0.25
 42
0.125
 43
3.75
 44
0.375
 45
0.0
 46
0.0
 47
0.0
 48
0.0
 49
2.5
140
0.25
141
2.5
142
0.125
143
0.03937007874
144
100.0
145
0.0
146
0.5
147
0.1
148
0.0
 69
0
 70
0
 71
0
 72
0
 73
0
 74
0
 75
0
 76
0
 77
1
 78
12
 79
3
170
0
171
3
172
1
173
0
174
0
175
0
176
0
177
0
178
0
179
2
271
2
272
2
273
2
274
3
275
0
276
0
277
2
278
46
279
2
280
0
281
0
282
0
283
0
284
8
285
0
286
0
288
1
289
3
290
0
340
4C
371
-2
372
-2
  0
DIMSTYLE
105
7D
330
4
100
AcDbSymbolTableRecord
100
AcDbDimStyleTableRecord
  2
EZ_M_50_H25_CM
 70
0
 40
1.0
 41
0.125
 42
0.0625
 43
3.75
 44
0.1875
 45
0.0
 46
0.0
 47
0.0
 48
0.0
 49
2.5
140
0.125
141
2.5
142
0.0625
143
0.03937007874
144
100.0
145
0.0
146
0.5
147
0.05
148
0.0
 69
0
 70
0
 71
0
 72
0
 73
0
 74
0
 75
0
 76
0
 77
1
 78
12
 79
3
170
0
171
3
172
1
173
0
174
0
175
0
176
0
177
0
178
0
179
2
271
2
272
2
273
2
274
3
275
0
276
0
277
2
278
46
279
2
280
0
281
0
282
0
283
0
284
8
285
0
286
0
288
1
289
3
290
0
340
4C
371
-2
372
-2
  0
DIMSTYLE
105
7E
330
4
100
AcDbSymbolTableRecord
100
AcDbDimStyleTableRecord
  2
EZ_M_25_H25_CM
 70
0
 40
1.0
 41
0.0625
 42
0.03125
 43
3.75
 44
0.09375
 45
0.0
 46
0.0
 47
0.0
 48
0.0
 49
2.5
140
0.0625
141
2.5
142
0.03125
143
0.03937007874
144
100.0
145
0.0
146
0.5
147
0.025
148
0.0
 69
0
 70
0
 71
0
 72
0
 73
0
 74
0
 75
0
 76
0
 77
1
 78
12
 79
3
170
0
171
3
172
1
173
0
174
0
175
0
176
0
177
0
178
0
179
2
271
2
272
2
273
2
274
3
275
0
276
0
277
2
278
46
279
2
280
0
281
0
282
0
283
0
284
8
285
0
286
0
288
1
289
3
290
0
340
4C
371
-2
372
-2
  0
DIMSTYLE
105
7F
330
4
100
AcDbSymbolTableRecord
100
AcDbDimStyleTableRecord
  2
EZ_M_20_H25_CM
 70
0
 40
1.0
 41
0.05
 42
0.025
 43
3.75
 44
0.07500000000000001
 45
0.0
 46
0.0
 47
0.0
 48
0.0
 49
2.5
140
0.05
141
2.5
142
0.025
143
0.03937007874
144
100.0
145
0.0
146
0.5
147
0.020000000000000004
148
0.0
 69
0
 70
0
 71
0
 72
0
 73
0
 74
0
 75
0
 76
0
 77
1
 78
12
 79
3
170
0
171
3
172
1
173
0
174
0
175
0
176
0
177
0
178
0
179
2
271
2
272
2
273
2
274
3
275
0
276
0
277
2
278
46
279
2
280
0
281
0
282
0
283
0
284
8
285
0
286
0
288
1
289
3
290
0
340
4C
371
-2
372
-2
  0
DIMSTYLE
105
80
330
4
100
AcDbSymbolTableRecord
100
AcDbDimStyleTableRecord
  2
EZ_M_10_H25_CM
 70
0
 40
1.0
 41
0.025
 42
0.0125
 43
3.75
 44
0.037500000000000006
 45
0.0
 46
0.0
 47
0.0
 48
0.0
 49
2.5
140
0.025
141
2.5
142
0.0125
143
0.03937007874
144
100.0
145
0.0
146
0.5
147
0.010000000000000002
148
0.0
 69
0
 70
0
 71
0
 72
0
 73
0
 74
0
 75
0
 76
0
 77
1
 78
12
 79
3
170
0
171
3
172
1
173
0
174
0
175
0
176
0
177
0
178
0
179
2
271
2
272
2
273
2
274
3
275
0
276
0
277
2
278
46
279
2
280
0
281
0
282
0
283
0
284
8
285
0
286
0
288
1
289
3
290
0
340
4C
371
-2
372
-2
  0
DIMSTYLE
105
81
330
4
100
AcDbSymbolTableRecord
100
AcDbDimStyleTableRecord
  2
EZ_M_5_H25_CM
 70
0
 40
1.0
 41
0.0125
 42
0.00625
 43
3.75
 44
0.018750000000000003
 45
0.0
 46
0.0
 47
0.0
 48
0.0
 49
2.5
140
0.0125
141
2.5
142
0.00625
143
0.03937007874
144
100.0
145
0.0
146
0.5
147
0.005000000000000001
148
0.0
 69
0
 70
0
 71
0
 72
0
 73
0
 74
0
 75
0
 76
0
 77
1
 78
12
 79
3
170
0
171
3
172
1
173
0
174
0
175
0
176
0
177
0
178
0
179
2
271
2
272
2
273
2
274
3
275
0
276
0
277
2
278
46
279
2
280
0
281
0
282
0
283
0
284
8
285
0
286
0
288
1
289
3
290
0
340
4C
371
-2
372
-2
  0
DIMSTYLE
105
82
330
4
100
AcDbSymbolTableRecord
100
AcDbDimStyleTableRecord
  2
EZ_M_1_H25_CM
 70
0
 40
1.0
 41
0.0025
 42
0.00125
 43
3.75
 44
0.00375
 45
0.0
 46
0.0
 47
0.0
 48
0.0
 49
2.5
140
0.0025
141
2.5
142
0.00125
143
0.03937007874
144
100.0
145
0.0
146
0.5
147
0.001
148
0.0
 69
0
 70
0
 71
0
 72
0
 73
0
 74
0
 75
0
 76
0
 77
1
 78
12
 79
3
170
0
171
3
172
1
173
0
174
0
175
0
176
0
177
0
178
0
179
2
271
2
272
2
273
2
274
3
275
0
276
0
277
2
278
46
279
2
280
0
281
0
282
0
283
0
284
8
285
0
286
0
288
1
289
3
290
0
340
4C
371
-2
372
-2
  0
DIMSTYLE
105
83
330
4
100
AcDbSymbolTableRecord
100
AcDbDimStyleTableRecord
  2
EZ_RADIUS
 70
0
 40
1.0
 41
0.25
 42
0.125
 43
3.75
 44
0.375
 45
0.0
 46
0.0
 47
0.0
 48
0.0
 49
2.5
140
0.25
141
0.0
142
0.0
143
0.03937007874
144
100.0
145
0.0
146
0.5
147
0.1
148
0.0
 69
0
 70
0
 71
0
 72
0
 73
0
 74
0
 75
0
 76
0
 77
1
 78
12
 79
3
170
0
171
3
172
0
173
0
174
0
175
0
176
0
177
0
178
0
179
2
271
2
272
2
273
2
274
3
275
0
276
0
277
2
278
46
279
1
280
0
281
0
282
0
283
0
284
8
285
0
286
0
288
1
289
3
290
0
340
4C
342
84
371
-2
372
-2
  0
DIMSTYLE
105
88
330
4
100
AcDbSymbolTableRecord
100
AcDbDimStyleTableRecord
  2
EZ_RADIUS_INSIDE
 70
0
 40
1.0
 41
0.25
 42
0.125
 43
3.75
 44
0.375
 45
0.0
 46
0.0
 47
0.0
 48
0.0
 49
2.5
140
0.25
141
0.0
142
0.0
143
0.03937007874
144
100.0
145
0.0
146
0.5
147
0.1
148
0.0
 69
0
 70
0
 71
0
 72
0
 73
0
 74
0
 75
0
 76
0
 77
0
 78
12
 79
3
170
0
171
3
172
0
173
0
174
1
175
0
176
0
177
0
178
0
179
2
271
2
272
2
273
2
274
3
275
0
276
0
277
2
278
46
279
0
280
0
281
0
282
0
283
0
284
8
285
0
286
0
288
1
289
0
290
0
340
4C
342
84
371
-2
372
-2
  0
DIMSTYLE
105
89
330
4
100
AcDbSymbolTableRecord
100
AcDbDimStyleTableRecord
  2
EZ_CURVED
 70
0
 40
1.0
 41
0.25
 42
0.125
 43
3.75
 44
0.375
 45
0.0
 46
0.0
 47
0.0
 48
0.0
 49
2.5
140
0.25
141
2.5
142
0.0
143
0.03937007874
144
100.0
145
0.0
146
0.5
147
0.1
148
0.0
 69
0
 70
0
 71
0
 72
0
 73
0
 74
0
 75
0
 76
0
 77
1
 78
12
 79
2
 90
2
170
0
171
3
172
1
173
0
174
0
175
0
176
0
177
0
178
0
179
2
271
2
272
2
273
2
274
3
275
0
276
0
277
2
278
46
279
2
280
0
281
0
282
0
283
0
284
8
285
0
286
0
288
1
289
3
290
0
340
4C
371
-2
372
-2
  0
DIMSTYLE
105
A1
330
4
100
AcDbSymbolTableRecord
100
AcDbDimStyleTableRecord
  2
ГОСТ
 70
0
 40
1.0
 41
3.0
 42
0.0
 43
3.75
 44
2.0
 45
0.0
 46
0.0
 47
0.0
 48
0.0
 49
2.5
140
3.5
141
2.5
142
0.0
143
0.03937007874
144
1.0
145
0.0
146
1.0
147
1.0
148
0.0
 69
0
 70
0
 71
0
 72
0
 73
0
 74
0
 75
0
 76
0
 77
1
 78
8
 79
3
170
0
171
3
172
1
173
0
174
0
175
0
176
7
177
7
178
7
179
2
271
1
272
2
273
2
274
3
275
0
276
0
277
2
278
44
279
0
280
0
281
0
282
0
283
0
284
8
285
0
286
0
288
0
289
3
290
0
340
99
371
-2
372
-2
  0
ENDTAB
  0
TABLE
  2
BLOCK_RECORD
  5
9
330
0
100
AcDbSymbolTable
 70
9
  0
BLOCK_RECORD
  5
17
330
9
100
AcDbSymbolTableRecord
100
AcDbBlockTableRecord
  2
*Model_Space
340
1A
 70
0
280
1
281
0
  0
BLOCK_RECORD
  5
1B
330
9
100
AcDbSymbolTableRecord
100
AcDbBlockTableRecord
  2
*Paper_Space
340
1E
 70
0
280
1
281
0
  0
BLOCK_RECORD
  5
74
330
9
100
AcDbSymbolTableRecord
100
AcDbBlockTableRecord
  2
_ARCHTICK
340
0
 70
0
280
1
281
0
  0
BLOCK_RECORD
  5
78
330
9
100
AcDbSymbolTableRecord
100
AcDbBlockTableRecord
  2
_CLOSEDFILLED
340
0
 70
0
280
1
281
0
  0
BLOCK_RECORD
  5
84
330
9
100
AcDbSymbolTableRecord
100
AcDbBlockTableRecord
  2
_CLOSEDBLANK
340
0
 70
0
280
1
281
0
  0
BLOCK_RECORD
  5
BA
330
9
100
AcDbSymbolTableRecord
100
AcDbBlockTableRecord
  2
*D1
340
0
 70
0
280
1
281
0
  0
BLOCK_RECORD
  5
C9
330
9
100
AcDbSymbolTableRecord
100
AcDbBlockTableRecord
  2
*D2
340
0
 70
0
280
1
281
0
  0
BLOCK_RECORD
  5
D8
330
9
100
AcDbSymbolTableRecord
100
AcDbBlockTableRecord
  2
*D3
340
0
 70
0
280
1
281
0
  0
BLOCK_RECORD
  5
F3
330
9
100
AcDbSymbolTableRecord
100
AcDbBlockTableRecord
  2
*D4
340
0
 70
0
280
1
281
0
  0
ENDTAB
  0
ENDSEC
  0
SECTION
  2
BLOCKS
  0
BLOCK
  5
18
330
17
100
AcDbEntity
  8
0
100
AcDbBlockBegin
  2
*Model_Space
 70
0
 10
0.0
 20
0.0
 30
0.0
  3
*Model_Space
  1

  0
ENDBLK
  5
19
330
17
100
AcDbEntity
  8
0
100
AcDbBlockEnd
  0
BLOCK
  5
1C
330
1B
100
AcDbEntity
  8
0
100
AcDbBlockBegin
  2
*Paper_Space
 70
0
 10
0.0
 20
0.0
 30
0.0
  3
*Paper_Space
  1

  0
ENDBLK
  5
1D
330
1B
100
AcDbEntity
  8
0
100
AcDbBlockEnd
  0
BLOCK
  5
75
330
74
100
AcDbEntity
  8
0
100
AcDbBlockBegin
  2
_ARCHTICK
 70
0
 10
0.0
 20
0.0
 30
0.0
  3
_ARCHTICK
  1

  0
LWPOLYLINE
  5
77
330
74
100
AcDbEntity
  8
0
  6
BYBLOCK
 62
0
100
AcDbPolyline
 90
2
 70
0
 43
0.15
 10
-0.5
 20
-0.5
 10
0.5
 20
0.5
  0
ENDBLK
  5
76
330
74
100
AcDbEntity
  8
0
100
AcDbBlockEnd
  0
BLOCK
  5
79
330
78
100
AcDbEntity
  8
0
100
AcDbBlockBegin
  2
_CLOSEDFILLED
 70
0
 10
0.0
 20
0.0
 30
0.0
  3
_CLOSEDFILLED
  1

  0
SOLID
  5
7B
330
78
100
AcDbEntity
  8
0
  6
BYBLOCK
 62
0
100
AcDbTrace
 10
-1.0
 20
0.16439898372402537
 30
0.0
 11
0.0
 21
0.0
 31
0.0
 12
-1.0
 22
-0.16439898372402537
 32
0.0
 13
-1.0
 23
-0.16439898372402537
 33
0.0
  0
ENDBLK
  5
7A
330
78
100
AcDbEntity
  8
0
100
AcDbBlockEnd
  0
BLOCK
  5
85
330
84
100
AcDbEntity
  8
0
100
AcDbBlockBegin
  2
_CLOSEDBLANK
 70
0
 10
0.0
 20
0.0
 30
0.0
  3
_CLOSEDBLANK
  1

  0
LWPOLYLINE
  5
87
330
84
100
AcDbEntity
  8
0
  6
BYBLOCK
 62
0
100
AcDbPolyline
 90
3
 70
1
 10
-1.0
 20
0.16439898372402537
 10
0.0
 20
0.0
 10
-1.0
 20
-0.16439898372402537
  0
ENDBLK
  5
86
330
84
100
AcDbEntity
  8
0
100
AcDbBlockEnd
  0
BLOCK
  5
BB
330
BA
100
AcDbEntity
  8
0
100
AcDbBlockBegin
  2
*D1
 70
1
 10
0.0
 20
0.0
 30
0.0
  3
*D1
  1

  0
LINE
  5
BD
330
BA
100
AcDbEntity
  8
0
 62
7
100
AcDbLine
 10
61.900000000000006
 20
137.59118851228254
 30
0.0
 11
61.900000000000006
 21
121.59118851228253
 31
0.0
  0
LINE
  5
BE
330
BA
100
AcDbEntity
  8
0
 62
7
100
AcDbLine
 10
218.10000000000002
 20
137.59118851228254
 30
0.0
 11
218.10000000000002
 21
121.59118851228253
 31
0.0
  0
INSERT
  5
BF
330
BA
100
AcDbEntity
  8
09_РАЗМЕРЫ
 62
7
100
AcDbBlockReference
  2
_CLOSEDFILLED
 10
61.900000000000006
 20
123.59118851228253
 30
0.0
 41
3.0
 42
3.0
 50
180.0
  0
INSERT
  5
C1
330
BA
100
AcDbEntity
  8
09_РАЗМЕРЫ
 62
7
100
AcDbBlockReference
  2
_CLOSEDFILLED
 10
218.10000000000002
 20
123.59118851228253
 30
0.0
 41
3.0
 42
3.0
  0
LINE
  5
C3
330
BA
100
AcDbEntity
  8
0
 62
7
100
AcDbLine
 10
64.9
 20
123.59118851228253
 30
0.0
 11
215.10000000000002
 21
123.59118851228253
 31
0.0
  0
MTEXT
  5
C4
330
BA
100
AcDbEntity
  8
09_РАЗМЕРЫ
 62
7
100
AcDbMText
 10
140.0
 20
126.34118851228253
 30
0.0
 40
3.5
 71
5
  1
156,2
  7
ГОСТ
  0
POINT
  5
C5
330
BA
100
AcDbEntity
  8
Defpoints
100
AcDbPoint
 10
61.900000000000006
 20
123.59118851228253
 30
0.0
  0
POINT
  5
C6
330
BA
100
AcDbEntity
  8
Defpoints
100
AcDbPoint
 10
61.900000000000006
 20
137.59118851228254
 30
0.0
  0
POINT
  5
C7
330
BA
100
AcDbEntity
  8
Defpoints
100
AcDbPoint
 10
218.10000000000002
 20
137.59118851228254
 30
0.0
  0
ENDBLK
  5
BC
330
BA
100
AcDbEntity
  8
0
100
AcDbBlockEnd
  0
BLOCK
  5
CA
330
C9
100
AcDbEntity
  8
0
100
AcDbBlockBegin
  2
*D2
 70
1
 10
0.0
 20
0.0
 30
0.0
  3
*D2
  1

  0
LINE
  5
CC
330
C9
100
AcDbEntity
  8
0
 62
7
100
AcDbLine
 10
218.10000000000002
 20
137.59118851228254
 30
0.0
 11
248.10000000000002
 21
137.59118851228254
 31
0.0
  0
LINE
  5
CD
330
C9
100
AcDbEntity
  8
0
 62
7
100
AcDbLine
 10
218.10000000000002
 20
262.40881148771746
 30
0.0
 11
248.10000000000002
 21
262.40881148771746
 31
0.0
  0
INSERT
  5
CE
330
C9
100
AcDbEntity
  8
09_РАЗМЕРЫ
 62
7
100
AcDbBlockReference
  2
_CLOSEDFILLED
 10
246.10000000000002
 20
137.59118851228254
 30
0.0
 41
3.0
 42
3.0
 50
270.0
  0
INSERT
  5
D0
330
C9
100
AcDbEntity
  8
09_РАЗМЕРЫ
 62
7
100
AcDbBlockReference
  2
_CLOSEDFILLED
 10
246.10000000000002
 20
262.40881148771746
 30
0.0
 41
3.0
 42
3.0
 50
90.0
  0
LINE
  5
D2
330
C9
100
AcDbEntity
  8
0
 62
7
100
AcDbLine
 10
246.10000000000002
 20
140.59118851228254
 30
0.0
 11
246.10000000000002
 21
259.40881148771746
 31
0.0
  0
MTEXT
  5
D3
330
C9
100
AcDbEntity
  8
09_РАЗМЕРЫ
 62
7
100
AcDbMText
 10
243.35000000000002
 20
200.0
 30
0.0
 40
3.5
 71
5
  1
124,8
  7
ГОСТ
 50
90.0
  0
POINT
  5
D4
330
C9
100
AcDbEntity
  8
Defpoints
100
AcDbPoint
 10
246.10000000000002
 20
137.59118851228254
 30
0.0
  0
POINT
  5
D5
330
C9
100
AcDbEntity
  8
Defpoints
100
AcDbPoint
 10
218.10000000000002
 20
137.59118851228254
 30
0.0
  0
POINT
  5
D6
330
C9
100
AcDbEntity
  8
Defpoints
100
AcDbPoint
 10
218.10000000000002
 20
262.40881148771746
 30
0.0
  0
ENDBLK
  5
CB
330
C9
100
AcDbEntity
  8
0
100
AcDbBlockEnd
  0
BLOCK
  5
D9
330
D8
100
AcDbEntity
  8
0
100
AcDbBlockBegin
  2
*D3
 70
1
 10
0.0
 20
0.0
 30
0.0
  3
*D3
  1

  0
LINE
  5
DB
330
D8
100
AcDbEntity
  8
0
 62
7
100
AcDbLine
 10
83.9
 20
240.40881148771743
 30
0.0
 11
83.9
 21
278.40881148771746
 31
0.0
  0
LINE
  5
DC
330
D8
100
AcDbEntity
  8
0
 62
7
100
AcDbLine
 10
196.10000000000002
 20
240.40881148771743
 30
0.0
 11
196.10000000000002
 21
278.40881148771746
 31
0.0
  0
INSERT
  5
DD
330
D8
100
AcDbEntity
  8
09_РАЗМЕРЫ
 62
7
100
AcDbBlockReference
  2
_CLOSEDFILLED
 10
83.9
 20
276.40881148771746
 30
0.0
 41
3.0
 42
3.0
 50
180.0
  0
INSERT
  5
DF
330
D8
100
AcDbEntity
  8
09_РАЗМЕРЫ
 62
7
100
AcDbBlockReference
  2
_CLOSEDFILLED
 10
196.10000000000002
 20
276.40881148771746
 30
0.0
 41
3.0
 42
3.0
  0
LINE
  5
E1
330
D8
100
AcDbEntity
  8
0
 62
7
100
AcDbLine
 10
86.9
 20
276.40881148771746
 30
0.0
 11
193.10000000000002
 21
276.40881148771746
 31
0.0
  0
MTEXT
  5
E2
330
D8
100
AcDbEntity
  8
09_РАЗМЕРЫ
 62
7
100
AcDbMText
 10
140.0
 20
279.15881148771746
 30
0.0
 40
3.5
 71
5
  1
112,2
  7
ГОСТ
  0
POINT
  5
E3
330
D8
100
AcDbEntity
  8
Defpoints
100
AcDbPoint
 10
83.9
 20
276.40881148771746
 30
0.0
  0
POINT
  5
E4
330
D8
100
AcDbEntity
  8
Defpoints
100
AcDbPoint
 10
83.9
 20
240.40881148771743
 30
0.0
  0
POINT
  5
E5
330
D8
100
AcDbEntity
  8
Defpoints
100
AcDbPoint
 10
196.10000000000002
 20
240.40881148771743
 30
0.0
  0
ENDBLK
  5
DA
330
D8
100
AcDbEntity
  8
0
100
AcDbBlockEnd
  0
BLOCK
  5
F4
330
F3
100
AcDbEntity
  8
0
100
AcDbBlockBegin
  2
*D4
 70
1
 10
0.0
 20
0.0
 30
0.0
  3
*D4
  1

  0
LINE
  5
F6
330
F3
100
AcDbEntity
  8
0
 62
7
100
AcDbLine
 10
408.1
 20
158.07999999999998
 30
0.0
 11
422.1
 21
158.07999999999998
 31
0.0
  0
LINE
  5
F7
330
F3
100
AcDbEntity
  8
0
 62
7
100
AcDbLine
 10
408.1
 20
188.68000010000915
 30
0.0
 11
422.1
 21
188.68000010000915
 31
0.0
  0
INSERT
  5
F8
330
F3
100
AcDbEntity
  8
09_РАЗМЕРЫ
 62
7
100
AcDbBlockReference
  2
_CLOSEDFILLED
 10
420.1
 20
158.07999999999998
 30
0.0
 41
3.0
 42
3.0
 50
270.0
  0
INSERT
  5
FA
330
F3
100
AcDbEntity
  8
09_РАЗМЕРЫ
 62
7
100
AcDbBlockReference
  2
_CLOSEDFILLED
 10
420.1
 20
188.68000010000915
 30
0.0
 41
3.0
 42
3.0
 50
90.0
  0
LINE
  5
FC
330
F3
100
AcDbEntity
  8
0
 62
7
100
AcDbLine
 10
420.1
 20
161.07999999999998
 30
0.0
 11
420.1
 21
185.68000010000915
 31
0.0
  0
MTEXT
  5
FD
330
F3
100
AcDbEntity
  8
09_РАЗМЕРЫ
 62
7
100
AcDbMText
 10
417.35
 20
173.38000005000458
 30
0.0
 40
3.5
 71
5
  1
30,6
  7
ГОСТ
 50
90.0
  0
POINT
  5
FE
330
F3
100
AcDbEntity
  8
Defpoints
100
AcDbPoint
 10
420.1
 20
158.07999999999998
 30
0.0
  0
POINT
  5
FF
330
F3
100
AcDbEntity
  8
Defpoints
100
AcDbPoint
 10
408.1
 20
158.07999999999998
 30
0.0
  0
POINT
  5
100
330
F3
100
AcDbEntity
  8
Defpoints
100
AcDbPoint
 10
408.1
 20
188.68000010000915
 30
0.0
  0
ENDBLK
  5
F5
330
F3
100
AcDbEntity
  8
0
100
AcDbBlockEnd
  0
ENDSEC
  0
SECTION
  2
ENTITIES
  0
LWPOLYLINE
  5
A2
330
17
100
AcDbEntity
  8
20_ВИДИМЫЕ
100
AcDbPolyline
 90
4
 70
1
 10
61.900000000000006
 20
137.59118851228254
 10
218.10000000000002
 20
137.59118851228254
 10
218.10000000000002
 20
262.40881148771746
 10
61.900000000000006
 20
262.40881148771746
  0
LWPOLYLINE
  5
A3
330
17
100
AcDbEntity
  8
20_ВИДИМЫЕ
100
AcDbPolyline
 90
7
 70
0
 10
187.987589597937
 20
205.10273327807926
 10
188.17898775131425
 20
205.326780310848
 10
188.3445683546754
 20
205.52232403771907
 10
188.47723542766414
 20
205.68016482025013
 10
188.57282072404666
 20
205.7945381949641
 10
188.62956516635523
 20
205.86269618660245
 10
188.64797269643088
 20
205.88484801320595
  0
LWPOLYLINE
  5
A4
330
17
100
AcDbEntity
  8
20_ВИДИМЫЕ
100
AcDbPolyline
 90
7
 70
0
 10
187.98758959793707
 20
205.10273327807928
 10
188.1789877513143
 20
205.32678031084808
 10
188.3445683546755
 20
205.52232403771916
 10
188.47723542766408
 20
205.68016482025
 10
188.5728207240467
 20
205.79453819496413
 10
188.62956516635523
 20
205.86269618660245
 10
188.64797269643088
 20
205.88484801320595
  0
LWPOLYLINE
  5
A5
330
17
100
AcDbEntity
  8
20_ВИДИМЫЕ
100
AcDbPolyline
 90
40
 70
0
 10
187.98758959793767
 20
205.10273327808
 10
187.45525548268665
 20
204.49051474889757
 10
186.91511133884518
 20
203.88517563599623
 10
186.36724606154544
 20
203.28681556407994
 10
185.81174981663807
 20
202.69553300926523
 10
185.24871402585308
 20
202.11142528287436
 10
184.67823135175396
 20
201.53458851542007
 10
184.10039568248754
 20
200.96511764078483
 10
183.51530211633226
 20
200.40310638059685
 10
182.92304694604707
 20
199.84864722880582
 10
182.32372764302406
 20
199.30183143646033
 10
181.71744284124682
 20
198.76274899669036
 10
181.1042923210577
 20
198.23148862989626
 10
180.4843769927361
 20
197.70813776914764
 10
179.85779887989122
 20
197.19278254579373
 10
179.2246611026712
 20
196.6855077752884
 10
178.58506786079198
 20
196.1863969432312
 10
177.93912441638847
 20
195.69553219162793
 10
177.2869370766909
 20
195.21299430537175
 10
176.628613176529
 20
194.7388626989479
 10
175.96426106066735
 20
194.27321540336405
 10
175.29399006597427
 20
193.81612905330803
 10
174.6179105034275
 20
193.36767887453567
 10
173.93613363995962
 20
192.9279386714904
 10
173.24877168014615
 20
192.4969808151567
 10
172.55593774773914
 20
192.07487623114952
 10
171.85774586704989
 20
191.66169438804167
 10
171.15431094418295
 20
191.25750328593082
 10
170.44574874812542
 20
190.8623694452483
 10
169.73217589169403
 20
190.47635789581136
 10
169.0137098123433
 20
190.09953216612084
 10
168.29046875283822
 20
189.7319542729058
 10
167.56257174179422
 20
189.3736847109171
 10
166.8301385740877
 20
189.02478244297123
 10
166.0932897911407
 20
188.68530489024656
 10
165.35214666108266
 20
188.355307922833
 10
164.60683115879232
 20
188.0348458505372
 10
163.85746594582366
 20
187.72397141394447
 10
163.10417435021867
 20
187.42273577573866
 10
162.34708034621022
 20
187.13118851228234
  0
LWPOLYLINE
  5
A6
330
17
100
AcDbEntity
  8
20_ВИДИМЫЕ
100
AcDbPolyline
 90
2
 70
0
 10
162.3470803462102
 20
187.13118851228253
 10
196.1
 20
187.13118851228253
  0
LWPOLYLINE
  5
A7
330
17
100
AcDbEntity
  8
20_ВИДИМЫЕ
100
AcDbPolyline
 90
2
 70
0
 10
83.9
 20
187.13118851228253
 10
117.65291965379035
 20
187.13118851228253
  0
LWPOLYLINE
  5
A8
330
17
100
AcDbEntity
  8
20_ВИДИМЫЕ
100
AcDbPolyline
 90
7
 70
0
 10
153.85019137940293
 20
239.79025021434163
 10
153.8721195528878
 20
239.83717432667524
 10
153.8933847847742
 20
239.88307964745363
 10
153.9139375409676
 20
239.9278291697498
 10
153.93375822961391
 20
239.9713481979361
 10
153.95286526114182
 20
240.01364512282098
 10
153.97126152895285
 20
240.05469500324767
  0
LWPOLYLINE
  5
A9
330
17
100
AcDbEntity
  8
20_ВИДИМЫЕ
100
AcDbPolyline
 90
7
 70
0
 10
154.04662640936593
 20
240.22634832350005
 10
154.05249824146821
 20
240.2399660594625
 10
154.058168905205
 20
240.25315182535036
 10
154.06363443658915
 20
240.26589296484298
 10
154.06889094205422
 20
240.27817698231436
 10
154.07393216675504
 20
240.28998585234936
 10
154.07874911450003
 20
240.3012950765731
  0
LWPOLYLINE
  5
AA
330
17
100
AcDbEntity
  8
20_ВИДИМЫЕ
100
AcDbPolyline
 90
2
 70
0
 10
188.64797269643088
 20
205.88484801320598
 10
154.12400932288716
 20
240.40881138674956
  0
LWPOLYLINE
  5
AB
330
17
100
AcDbEntity
  8
20_ВИДИМЫЕ
100
AcDbPolyline
 90
2
 70
0
 10
153.6702995304374
 20
239.42002334557878
 10
187.98758959793696
 20
205.10273327807937
  0
LWPOLYLINE
  5
AC
330
17
100
AcDbEntity
  8
20_ВИДИМЫЕ
100
AcDbPolyline
 90
7
 70
0
 10
154.1240093228872
 20
240.40881138674956
 10
154.10866438851374
 20
240.37210165937327
 10
154.0638433574889
 20
240.2663806304441
 10
153.9928897661042
 20
240.10337500637291
 10
153.9001707621139
 20
239.89781281496468
 10
153.79091638719632
 20
239.66543382417774
 10
153.6702995304374
 20
239.42002334557878
  0
LWPOLYLINE
  5
AD
330
17
100
AcDbEntity
  8
20_ВИДИМЫЕ
100
AcDbPolyline
 90
40
 70
0
 10
92.01241040206233
 20
205.10273327808002
 10
92.54474451731335
 20
204.49051474889757
 10
93.08488866115482
 20
203.88517563599623
 10
93.63275393845458
 20
203.28681556407992
 10
94.18825018336196
 20
202.6955330092652
 10
94.75128597414695
 20
202.11142528287434
 10
95.32176864824606
 20
201.53458851542
 10
95.8996043175125
 20
200.96511764078477
 10
96.48469788366782
 20
200.4031063805968
 10
97.07695305395302
 20
199.84864722880573
 10
97.67627235697604
 20
199.30183143646025
 10
98.28255715875328
 20
198.76274899669028
 10
98.89570767894243
 20
198.23148862989618
 10
99.51562300726403
 20
197.70813776914753
 10
100.14220112010892
 20
197.19278254579362
 10
100.77533889732895
 20
196.68550777528824
 10
101.4149321392082
 20
196.18639694323105
 10
102.06087558361172
 20
195.6955321916278
 10
102.71306292330931
 20
195.21299430537158
 10
103.37138682347121
 20
194.73886269894777
 10
104.03573893933286
 20
194.2732154033639
 10
104.70600993402596
 20
193.81612905330786
 10
105.38208949657275
 20
193.3676788745355
 10
106.06386636004065
 20
192.92793867149024
 10
106.75122831985415
 20
192.49698081515652
 10
107.44406225226115
 20
192.07487623114935
 10
108.14225413295043
 20
191.6616943880415
 10
108.84568905581736
 20
191.25750328593062
 10
109.55425125187492
 20
190.8623694452481
 10
110.26782410830634
 20
190.47635789581113
 10
110.98629018765709
 20
190.09953216612064
 10
111.70953124716216
 20
189.73195427290563
 10
112.43742825820618
 20
189.3736847109169
 10
113.16986142591274
 20
189.02478244297106
 10
113.90671020885974
 20
188.68530489024636
 10
114.6478533389178
 20
188.3553079228328
 10
115.39316884120815
 20
188.034845850537
 10
116.1425340541768
 20
187.72397141394427
 10
116.89582564978184
 20
187.4227357757385
 10
117.65291965379028
 20
187.13118851228214
  0
LWPOLYLINE
  5
AE
330
17
100
AcDbEntity
  8
20_ВИДИМЫЕ
100
AcDbPolyline
 90
2
 70
0
 10
92.01241040206305
 20
205.1027332780794
 10
126.32970046956257
 20
239.4200233455788
  0
LWPOLYLINE
  5
AF
330
17
100
AcDbEntity
  8
20_ВИДИМЫЕ
100
AcDbPolyline
 90
43
 70
0
 10
126.3297004695626
 20
239.42002334557878
 10
126.71002399220129
 20
238.71051982725646
 10
127.12713871619044
 20
238.02200219391983
 10
127.57988992523956
 20
237.35637649798508
 10
128.06702424907286
 20
236.71548541915226
 10
128.58719313318716
 20
236.10110316323716
 10
129.1389565721121
 20
235.51493055056255
 10
129.72078709583818
 20
234.9585903075056
 10
130.33107399837633
 20
234.4336225742358
 10
130.96812779674332
 20
233.9414806410801
 10
131.63018490802875
 20
233.48352692531788
 10
132.31541253159608
 20
233.06102919954373
 10
133.02191372290193
 20
232.67515708203916
 10
133.74773264488772
 20
232.32697879886885
 10
134.4908599824059
 20
232.0174582266654
 10
135.24923850469196
 20
231.74745222428905
 10
136.02076876048298
 20
231.51770826074898
 10
136.80331489001725
 20
231.3288623459535
 10
137.59471053782505
 20
231.18143727001683
 10
138.39276484994173
 20
231.07584115599727
 10
139.1952685389413
 20
231.01236633007287
 10
140.0
 20
230.99118851228252
 10
140.8047314610587
 20
231.01236633007287
 10
141.60723515005824
 20
231.07584115599727
 10
142.40528946217495
 20
231.18143727001683
 10
143.19668510998272
 20
231.3288623459535
 10
143.97923123951702
 20
231.51770826074898
 10
144.750761495308
 20
231.74745222428905
 10
145.50914001759406
 20
232.0174582266654
 10
146.25226735511228
 20
232.32697879886882
 10
146.97808627709807
 20
232.67515708203916
 10
147.68458746840392
 20
233.06102919954373
 10
148.36981509197125
 20
233.48352692531785
 10
149.03187220325668
 20
233.9414806410801
 10
149.66892600162365
 20
234.4336225742358
 10
150.2792129041618
 20
234.9585903075056
 10
150.8610434278879
 20
235.51493055056255
 10
151.41280686681284
 20
236.10110316323713
 10
151.93297575092714
 20
236.71548541915226
 10
152.42011007476043
 20
237.35637649798508
 10
152.87286128380956
 20
238.0220021939198
 10
153.28997600779869
 20
238.71051982725646
 10
153.6702995304374
 20
239.42002334557878
  0
LWPOLYLINE
  5
B0
330
17
100
AcDbEntity
  8
20_ВИДИМЫЕ
100
AcDbPolyline
 90
2
 70
0
 10
196.1
 20
159.59118851228254
 10
196.1
 20
187.13118851228253
  0
LWPOLYLINE
  5
B1
330
17
100
AcDbEntity
  8
20_ВИДИМЫЕ
100
AcDbPolyline
 90
2
 70
0
 10
83.9
 20
159.59118851228254
 10
196.1
 20
159.59118851228254
  0
LWPOLYLINE
  5
B2
330
17
100
AcDbEntity
  8
20_ВИДИМЫЕ
100
AcDbPolyline
 90
2
 70
0
 10
83.9
 20
159.59118851228254
 10
83.9
 20
187.13118851228253
  0
LWPOLYLINE
  5
B3
330
17
100
AcDbEntity
  8
20_ВИДИМЫЕ
100
AcDbPolyline
 90
7
 70
0
 10
92.01241040206298
 20
205.10273327807926
 10
91.99980826178964
 20
205.1174202459327
 10
91.98722068543844
 20
205.1320993224116
 10
91.97465371447191
 20
205.14676343607204
 10
91.96211335186608
 20
205.16140554190392
 10
91.94960555872233
 20
205.1760186257491
 10
91.93713625087929
 20
205.19059570871946
  0
LWPOLYLINE
  5
B4
330
17
100
AcDbEntity
  8
20_ВИДИМЫЕ
100
AcDbPolyline
 90
7
 70
0
 10
92.01241040206298
 20
205.10273327807928
 10
91.82101224868569
 20
205.32678031084808
 10
91.6554316453245
 20
205.52232403771916
 10
91.52276457233587
 20
205.68016482025007
 10
91.42717927595325
 20
205.79453819496416
 10
91.37043483364474
 20
205.8626961866025
 10
91.35202730356909
 20
205.884848013206
  0
LWPOLYLINE
  5
B5
330
17
100
AcDbEntity
  8
20_ВИДИМЫЕ
100
AcDbPolyline
 90
7
 70
0
 10
125.9074314057608
 20
240.3338811993394
 10
125.91451133742764
 20
240.31716063012175
 10
125.92225983485254
 20
240.29892417876425
 10
125.93067986290619
 20
240.27918128604801
 10
125.93977262477443
 20
240.25794675037727
 10
125.9495188244316
 20
240.23528406001563
 10
125.95989022041931
 20
240.21127754440934
  0
LWPOLYLINE
  5
B6
330
17
100
AcDbEntity
  8
20_ВИДИМЫЕ
100
AcDbPolyline
 90
7
 70
0
 10
126.3297004695626
 20
239.42002334557878
 10
126.20932790718355
 20
239.66492537049493
 10
126.10000077300441
 20
239.89743988896427
 10
126.0073166970347
 20
240.10290813917592
 10
125.93650500997177
 20
240.26556749321514
 10
125.891544785651
 20
240.37160309899613
 10
125.8759906771128
 20
240.40881138674948
  0
LWPOLYLINE
  5
B7
330
17
100
AcDbEntity
  8
20_ВИДИМЫЕ
100
AcDbPolyline
 90
2
 70
0
 10
125.87599067711272
 20
240.40881138674945
 10
91.35202730356912
 20
205.88484801320595
  0
LINE
  5
B8
330
17
100
AcDbEntity
  8
07_ОСИ
100
AcDbLine
 10
140.0
 20
131.59118851228254
 30
0.0
 11
140.0
 21
268.40881148771746
 31
0.0
  0
DIMENSION
  5
B9
330
17
100
AcDbEntity
  8
09_РАЗМЕРЫ
100
AcDbDimension
280
0
  2
*D1
  3
ГОСТ
 10
61.900000000000006
 20
123.59118851228253
 30
0.0
 11
140.0
 21
126.34118851228253
 31
0.0
 70
32
 71
5
  1
<>
100
AcDbAlignedDimension
 13
61.900000000000006
 23
137.59118851228254
 33
0.0
 14
218.10000000000002
 24
137.59118851228254
 34
0.0
 50
0.0
100
AcDbRotatedDimension
1001
ACAD
1000
DSTYLE
1002
{
1070
340
1005
99
1002
}
  0
DIMENSION
  5
C8
330
17
100
AcDbEntity
  8
09_РАЗМЕРЫ
100
AcDbDimension
280
0
  2
*D2
  3
ГОСТ
 10
246.10000000000002
 20
137.59118851228254
 30
0.0
 11
243.35000000000002
 21
200.0
 31
0.0
 70
32
 71
5
  1
<>
100
AcDbAlignedDimension
 13
218.10000000000002
 23
137.59118851228254
 33
0.0
 14
218.10000000000002
 24
262.40881148771746
 34
0.0
 50
90.0
100
AcDbRotatedDimension
1001
ACAD
1000
DSTYLE
1002
{
1070
340
1005
99
1002
}
  0
DIMENSION
  5
D7
330
17
100
AcDbEntity
  8
09_РАЗМЕРЫ
100
AcDbDimension
280
0
  2
*D3
  3
ГОСТ
 10
83.9
 20
276.40881148771746
 30
0.0
 11
140.0
 21
279.15881148771746
 31
0.0
 70
32
 71
5
  1
112,2
100
AcDbAlignedDimension
 13
83.9
 23
240.40881148771743
 33
0.0
 14
196.10000000000002
 24
240.40881148771743
 34
0.0
 50
0.0
100
AcDbRotatedDimension
1001
ACAD
1000
DSTYLE
1002
{
1070
340
1005
99
1002
}
  0
LWPOLYLINE
  5
E6
330
17
100
AcDbEntity
  8
20_ВИДИМЫЕ
100
AcDbPolyline
 90
2
 70
0
 43
1.0
 10
51.900000000000006
 20
200.0
 10
61.900000000000006
 20
200.0
  0
LINE
  5
E7
330
17
100
AcDbEntity
  8
20_ВИДИМЫЕ
100
AcDbLine
 10
49.900000000000006
 20
200.0
 30
0.0
 11
49.900000000000006
 21
210.0
 31
0.0
  0
HATCH
  5
E8
330
17
100
AcDbEntity
  8
20_ВИДИМЫЕ
 62
7
100
AcDbHatch
 10
0.0
 20
0.0
 30
0.0
210
0.0
220
0.0
230
1.0
  2
SOLID
 70
1
 71
0
 91
1
 92
3
 72
0
 73
1
 93
3
 10
48.7
 20
206.0
 10
49.900000000000006
 20
210.0
 10
51.10000000000001
 20
206.0
 97
0
 75
0
 76
1
 98
0
  0
TEXT
  5
E9
330
17
100
AcDbEntity
  8
08_ТЕКСТ
100
AcDbText
 10
44.900000000000006
 20
213.0
 30
0.0
 40
5.0
  1
А
  7
ГОСТ
 72
1
 11
44.900000000000006
 21
213.0
 31
0.0
100
AcDbText
 73
2
  0
LWPOLYLINE
  5
EA
330
17
100
AcDbEntity
  8
20_ВИДИМЫЕ
100
AcDbPolyline
 90
2
 70
0
 43
1.0
 10
228.10000000000002
 20
200.0
 10
218.10000000000002
 20
200.0
  0
LINE
  5
EB
330
17
100
AcDbEntity
  8
20_ВИДИМЫЕ
100
AcDbLine
 10
230.10000000000002
 20
200.0
 30
0.0
 11
230.10000000000002
 21
210.0
 31
0.0
  0
HATCH
  5
EC
330
17
100
AcDbEntity
  8
20_ВИДИМЫЕ
 62
7
100
AcDbHatch
 10
0.0
 20
0.0
 30
0.0
210
0.0
220
0.0
230
1.0
  2
SOLID
 70
1
 71
0
 91
1
 92
3
 72
0
 73
1
 93
3
 10
228.9
 20
206.0
 10
230.10000000000002
 20
210.0
 10
231.3
 20
206.0
 97
0
 75
0
 76
1
 98
0
  0
TEXT
  5
ED
330
17
100
AcDbEntity
  8
08_ТЕКСТ
100
AcDbText
 10
235.10000000000002
 20
213.0
 30
0.0
 40
5.0
  1
А
  7
ГОСТ
 72
1
 11
235.10000000000002
 21
213.0
 31
0.0
100
AcDbText
 73
2
  0
HATCH
  5
EE
330
17
100
AcDbEntity
  8
23_ШТРИХОВКА
 62
7
100
AcDbHatch
 10
0.0
 20
0.0
 30
0.0
210
0.0
220
0.0
230
1.0
  2
ANSI31
 70
0
 71
0
 91
2
 92
3
 72
0
 73
1
 93
4
 10
251.9
 20
136.07999999999998
 10
251.9
 20
188.68000010000915
 10
408.1
 20
188.68000010000915
 10
408.1
 20
136.07999999999998
 97
0
 92
3
 72
0
 73
1
 93
507
 10
372.6859470458476
 20
188.68
 10
372.28566118464806
 20
188.68
 10
371.8853753234485
 20
188.68
 10
371.4850894622489
 20
188.68
 10
371.0848036010493
 20
188.68
 10
370.68451773984975
 20
188.68
 10
370.28423187865013
 20
188.68
 10
369.88394601745057
 20
188.68
 10
369.483660156251
 20
188.68
 10
369.0833742950514
 20
188.68
 10
368.6830884338518
 20
188.68
 10
368.2828025726522
 20
188.68
 10
367.88251671145264
 20
188.68
 10
367.4822308502531
 20
188.68
 10
367.08194498905345
 20
188.68
 10
366.6816591278539
 20
188.68
 10
366.2813732666543
 20
188.68
 10
365.8810874054547
 20
188.68
 10
365.48080154425514
 20
188.68
 10
365.0805156830556
 20
188.68
 10
364.68022982185596
 20
188.68
 10
364.2799439606564
 20
188.68
 10
363.87965809945683
 20
188.68
 10
363.4793722382572
 20
188.68
 10
363.07908637705765
 20
188.68
 10
362.67880051585803
 20
188.68
 10
362.27851465465847
 20
188.68
 10
361.8782287934589
 20
188.68
 10
361.47794293225934
 20
188.68
 10
361.0776570710597
 20
188.68
 10
360.67737120986015
 20
188.68
 10
360.27708534866053
 20
188.68
 10
359.87679948746097
 20
188.68
 10
359.4765136262614
 20
188.68
 10
359.0762277650618
 20
188.68
 10
358.6759419038622
 20
188.68
 10
358.2756560426626
 20
188.68
 10
357.87537018146304
 20
188.68
 10
357.4750843202635
 20
188.68
 10
357.0747984590639
 20
188.68
 10
356.6745125978643
 20
188.68
 10
356.27422673666473
 20
188.68
 10
355.8739408754651
 20
188.68
 10
355.47365501426555
 20
188.68
 10
355.073369153066
 20
188.68
 10
354.67308329186636
 20
188.68
 10
354.2727974306668
 20
188.68
 10
353.8725115694672
 20
188.68
 10
353.4722257082676
 20
188.68
 10
353.07193984706805
 20
188.68
 10
352.6716539858685
 20
188.68
 10
352.27136812466887
 20
188.68
 10
351.8710822634693
 20
188.68
 10
351.47079640226974
 20
188.68
 10
351.0705105410701
 20
188.68
 10
350.67022467987056
 20
188.68
 10
350.26993881867094
 20
188.68
 10
349.8696529574714
 20
188.68
 10
349.4693670962718
 20
188.68
 10
349.0690812350722
 20
188.68
 10
348.6687953738726
 20
188.68
 10
348.26850951267306
 20
188.68
 10
347.86822365147344
 20
188.68
 10
347.4679377902739
 20
188.68
 10
347.0676519290743
 20
188.68
 10
346.6673660678747
 20
188.68
 10
346.26708020667513
 20
188.68
 10
345.8667943454755
 20
188.68
 10
345.46650848427595
 20
188.68
 10
345.0662226230764
 20
188.68
 10
344.66593676187676
 20
188.68
 10
344.2656509006772
 20
188.68
 10
343.86536503947764
 20
188.68
 10
343.465079178278
 20
188.68
 10
343.06479331707845
 20
188.68
 10
342.6645074558789
 20
188.68
 10
342.26422159467927
 20
188.68
 10
341.8639357334797
 20
188.68
 10
341.4636498722801
 20
188.68
 10
341.0633640110805
 20
188.68
 10
340.66307814988096
 20
188.68
 10
340.26279228868134
 20
188.68
 10
339.8625064274818
 20
188.68
 10
339.4622205662822
 20
188.68
 10
339.06193470508265
 20
188.68
 10
338.66164884388303
 20
188.68
 10
338.26136298268347
 20
188.68
 10
337.86107712148385
 20
188.68
 10
337.4607912602843
 20
188.68
 10
337.0605053990847
 20
188.68
 10
336.6602195378851
 20
188.68
 10
336.25993367668553
 20
188.68
 10
335.8596478154859
 20
188.68
 10
335.45936195428635
 20
188.68
 10
335.0590760930868
 20
188.68
 10
334.6587902318872
 20
188.68
 10
334.2585043706876
 20
188.68
 10
333.85821850948804
 20
188.68
 10
333.4579326482884
 20
188.68
 10
333.05764678708886
 20
188.68
 10
332.6573609258893
 20
188.68
 10
332.2570750646897
 20
188.68
 10
331.8567892034901
 20
188.68
 10
331.4565033422905
 20
188.68
 10
331.0562174810909
 20
188.68
 10
330.65593161989136
 20
188.68
 10
330.2556457586918
 20
188.68
 10
329.8553598974922
 20
188.68
 10
329.4550740362926
 20
188.68
 10
329.054788175093
 20
188.68
 10
328.65450231389343
 20
188.68
 10
328.25421645269387
 20
188.68
 10
327.85393059149425
 20
188.68
 10
327.4536447302947
 20
188.68
 10
327.0533588690951
 20
188.68
 10
326.65307300789556
 20
188.68
 10
326.25278714669594
 20
188.68
 10
325.8525012854964
 20
188.68
 10
325.45221542429675
 20
188.68
 10
325.0519295630972
 20
188.68
 10
324.6516437018976
 20
188.68
 10
324.251357840698
 20
188.68
 10
323.85107197949844
 20
188.68
 10
323.4507861182988
 20
188.68
 10
323.05050025709926
 20
188.68
 10
322.6502143958997
 20
188.68
 10
322.24992853470013
 20
188.68
 10
321.8496426735005
 20
188.68
 10
321.44935681230095
 20
188.68
 10
321.0490709511013
 20
188.68
 10
320.64878508990176
 20
188.68
 10
320.2484992287022
 20
188.68
 10
319.8482133675026
 20
188.68
 10
319.447927506303
 20
188.68
 10
319.0476416451034
 20
188.68
 10
318.64735578390383
 20
188.68
 10
318.24706992270427
 20
188.68
 10
317.8467840615047
 20
188.68
 10
317.4464982003051
 20
188.68
 10
317.0462123391055
 20
188.68
 10
316.6459264779059
 20
188.68
 10
316.24564061670634
 20
188.68
 10
315.8453547555068
 20
188.68
 10
315.44506889430716
 20
188.68
 10
315.0447830331076
 20
188.68
 10
314.64449717190803
 20
188.68
 10
314.2442113107084
 20
188.68
 10
313.84392544950884
 20
188.68
 10
313.4436395883093
 20
188.68
 10
313.04335372710966
 20
188.68
 10
312.6430678659101
 20
188.68
 10
312.24278200471053
 20
188.68
 10
311.8424961435109
 20
188.68
 10
311.44221028231135
 20
188.68
 10
311.04192442111173
 20
188.68
 10
310.64163855991217
 20
188.68
 10
310.2413526987126
 20
188.68
 10
309.841066837513
 20
188.68
 10
309.4407809763134
 20
188.68
 10
309.04049511511386
 20
188.68
 10
308.64020925391424
 20
188.68
 10
308.2399233927147
 20
188.68
 10
307.8396375315151
 20
188.68
 10
307.4393516703155
 20
188.68
 10
307.0390658091159
 20
188.68
 10
306.6387799479163
 20
188.68
 10
306.23849408671674
 20
188.68
 10
305.8382082255172
 20
188.68
 10
305.43792236431756
 20
188.68
 10
305.037636503118
 20
188.68
 10
304.63735064191843
 20
188.68
 10
304.23706478071887
 20
188.68
 10
303.83677891951925
 20
188.68
 10
303.4364930583197
 20
188.68
 10
303.03620719712006
 20
188.68
 10
302.6359213359205
 20
188.68
 10
302.23563547472094
 20
188.68
 10
301.8353496135213
 20
188.68
 10
301.43506375232175
 20
188.68
 10
301.03477789112213
 20
188.68
 10
300.63449202992257
 20
188.68
 10
300.234206168723
 20
188.68
 10
299.83392030752344
 20
188.68
 10
299.4336344463238
 20
188.68
 10
299.03334858512426
 20
188.68
 10
298.63306272392464
 20
188.68
 10
298.2327768627251
 20
188.68
 10
297.83249100152545
 20
188.68
 10
297.4322051403259
 20
188.68
 10
297.0319192791263
 20
188.68
 10
296.63163341792676
 20
188.68
 10
296.23134755672714
 20
188.68
 10
295.8310616955276
 20
188.68
 10
295.430775834328
 20
188.68
 10
295.0304899731284
 20
188.68
 10
294.63020411192883
 20
188.68
 10
294.22991825072927
 20
188.68
 10
293.82963238952965
 20
188.68
 10
293.4293465283301
 20
188.68
 10
293.02906066713047
 20
188.68
 10
292.6287748059309
 20
188.68
 10
292.22848894473134
 20
188.68
 10
291.8282030835317
 20
188.68
 10
291.42791722233216
 20
188.68
 10
291.0276313611326
 20
188.68
 10
290.62734549993297
 20
188.68
 10
290.2270596387334
 20
188.68
 10
289.82677377753384
 20
188.68
 10
289.4264879163342
 20
188.68
 10
289.02620205513466
 20
188.68
 10
288.62591619393504
 20
188.68
 10
288.2256303327355
 20
188.68
 10
287.8253444715359
 20
188.68
 10
287.4250586103363
 20
188.68
 10
287.02477274913673
 20
188.68
 10
286.91376709295275
 20
188.3907197949844
 10
286.91376709295275
 20
187.99043393378483
 10
286.91376709295275
 20
187.59014807258524
 10
286.91376709295275
 20
187.18986221138564
 10
286.91376709295275
 20
186.78957635018605
 10
286.91376709295275
 20
186.38929048898646
 10
286.91376709295275
 20
185.9890046277869
 10
286.91376709295275
 20
185.5887187665873
 10
286.91376709295275
 20
185.1884329053877
 10
286.91376709295275
 20
184.78814704418812
 10
286.91376709295275
 20
184.38786118298856
 10
286.91376709295275
 20
183.98757532178897
 10
286.91376709295275
 20
183.5872894605894
 10
286.91376709295275
 20
183.1870035993898
 10
286.91376709295275
 20
182.78671773819022
 10
286.91376709295275
 20
182.38643187699063
 10
286.91376709295275
 20
181.98614601579106
 10
286.91376709295275
 20
181.58586015459147
 10
286.91376709295275
 20
181.18557429339188
 10
286.91376709295275
 20
180.7852884321923
 10
286.91376709295275
 20
180.3850025709927
 10
286.91376709295275
 20
179.98471670979313
 10
286.91376709295275
 20
179.58443084859357
 10
286.91376709295275
 20
179.18414498739398
 10
286.91376709295275
 20
178.7838591261944
 10
286.91376709295275
 20
178.3835732649948
 10
286.91376709295275
 20
177.9832874037952
 10
286.91376709295275
 20
177.58300154259564
 10
286.91376709295275
 20
177.18271568139605
 10
286.91376709295275
 20
176.78242982019646
 10
286.91376709295275
 20
176.38214395899686
 10
286.91376709295275
 20
175.9818580977973
 10
286.91376709295275
 20
175.58157223659774
 10
286.91376709295275
 20
175.18128637539814
 10
286.91376709295275
 20
174.78100051419855
 10
286.91376709295275
 20
174.38071465299896
 10
286.91376709295275
 20
173.98042879179937
 10
286.91376709295275
 20
173.5801429305998
 10
287.11391002355253
 20
173.38
 10
287.51419588475216
 20
173.38
 10
287.9144817459517
 20
173.38
 10
288.31476760715134
 20
173.38
 10
288.7150534683509
 20
173.38
 10
289.11533932955047
 20
173.38
 10
289.51562519075003
 20
173.38
 10
289.91591105194965
 20
173.38
 10
290.3161969131492
 20
173.38
 10
290.71648277434883
 20
173.38
 10
291.1167686355484
 20
173.38
 10
291.51705449674796
 20
173.38
 10
291.9173403579476
 20
173.38
 10
292.31762621914714
 20
173.38
 10
292.7179120803467
 20
173.38
 10
293.1181979415463
 20
173.38
 10
293.5184838027459
 20
173.38
 10
293.91876966394545
 20
173.38
 10
294.3190555251451
 20
173.38
 10
294.71934138634464
 20
173.38
 10
295.11962724754426
 20
173.38
 10
295.5199131087438
 20
173.38
 10
295.9201989699434
 20
173.38
 10
296.320484831143
 20
173.38
 10
296.72077069234257
 20
173.38
 10
297.12105655354213
 20
173.38
 10
297.52134241474175
 20
173.38
 10
297.9216282759413
 20
173.38
 10
298.3219141371409
 20
173.38
 10
298.7221999983405
 20
173.38
 10
299.12248585954006
 20
173.38
 10
299.5227717207397
 20
173.38
 10
299.92305758193925
 20
173.38
 10
300.3233434431388
 20
173.38
 10
300.7236293043384
 20
173.38
 10
301.123915165538
 20
173.38
 10
301.52420102673756
 20
173.38
 10
301.9244868879372
 20
173.38
 10
302.32477274913674
 20
173.38
 10
302.7250586103363
 20
173.38
 10
303.1253444715359
 20
173.38
 10
303.5256303327355
 20
173.38
 10
303.92591619393505
 20
173.38
 10
304.3262020551347
 20
173.38
 10
304.72648791633424
 20
173.38
 10
305.1267737775338
 20
173.38
 10
305.5270596387334
 20
173.38
 10
305.927345499933
 20
173.38
 10
306.3276313611326
 20
173.38
 10
306.72791722233217
 20
173.38
 10
307.12820308353173
 20
173.38
 10
307.52848894473135
 20
173.38
 10
307.9287748059309
 20
173.38
 10
308.3290606671305
 20
173.38
 10
308.7293465283301
 20
173.38
 10
309.12963238952966
 20
173.38
 10
309.5299182507292
 20
173.38
 10
309.93020411192884
 20
173.38
 10
310.3304899731284
 20
173.38
 10
310.73077583432797
 20
173.38
 10
311.1310616955276
 20
173.38
 10
311.53134755672716
 20
173.38
 10
311.9316334179268
 20
173.38
 10
312.33191927912634
 20
173.38
 10
312.7322051403259
 20
173.38
 10
313.1324910015255
 20
173.38
 10
313.5327768627251
 20
173.38
 10
313.93306272392465
 20
173.38
 10
314.33334858512427
 20
173.38
 10
314.73363444632383
 20
173.38
 10
315.13392030752345
 20
173.38
 10
315.534206168723
 20
173.38
 10
315.9344920299226
 20
173.38
 10
316.33477789112214
 20
173.38
 10
316.73506375232176
 20
173.38
 10
317.1353496135213
 20
173.38
 10
317.53563547472095
 20
173.38
 10
317.9359213359205
 20
173.38
 10
318.3362071971201
 20
173.38
 10
318.7364930583197
 20
173.38
 10
319.13677891951926
 20
173.38
 10
319.5370647807188
 20
173.38
 10
319.93735064191844
 20
173.38
 10
320.337636503118
 20
173.38
 10
320.7379223643176
 20
173.38
 10
321.1382082255172
 20
173.38
 10
321.53849408671675
 20
173.38
 10
321.9387799479164
 20
173.38
 10
322.33906580911594
 20
173.38
 10
322.7393516703155
 20
173.38
 10
323.1396375315151
 20
173.38
 10
323.5399233927147
 20
173.38
 10
323.94020925391425
 20
173.38
 10
324.34049511511387
 20
173.38
 10
324.74078097631343
 20
173.38
 10
325.141066837513
 20
173.38
 10
325.5413526987126
 20
173.38
 10
325.9416385599122
 20
173.38
 10
326.3419244211118
 20
173.38
 10
326.74221028231136
 20
173.38
 10
327.1424961435109
 20
173.38
 10
327.54278200471055
 20
173.38
 10
327.9430678659101
 20
173.38
 10
328.3433537271097
 20
173.38
 10
328.7436395883093
 20
173.38
 10
329.14392544950886
 20
173.38
 10
329.5442113107084
 20
173.38
 10
329.944497171908
 20
173.38
 10
330.3447830331076
 20
173.38
 10
330.7450688943072
 20
173.38
 10
331.1453547555068
 20
173.38
 10
331.54564061670635
 20
173.38
 10
331.9459264779059
 20
173.38
 10
332.34621233910553
 20
173.38
 10
332.7464982003051
 20
173.38
 10
333.1467840615047
 20
173.38
 10
333.5470699227043
 20
173.38
 10
333.94735578390384
 20
173.38
 10
334.3476416451034
 20
173.38
 10
334.74792750630303
 20
173.38
 10
335.1482133675026
 20
173.38
 10
335.5484992287022
 20
173.38
 10
335.9487850899018
 20
173.38
 10
336.34907095110134
 20
173.38
 10
336.74935681230096
 20
173.38
 10
337.1496426735005
 20
173.38
 10
337.54992853470014
 20
173.38
 10
337.9502143958997
 20
173.38
 10
338.35050025709927
 20
173.38
 10
338.75078611829883
 20
173.38
 10
339.15107197949845
 20
173.38
 10
339.551357840698
 20
173.38
 10
339.95164370189764
 20
173.38
 10
340.3519295630972
 20
173.38
 10
340.75221542429676
 20
173.38
 10
341.1525012854964
 20
173.38
 10
341.55278714669595
 20
173.38
 10
341.9530730078955
 20
173.38
 10
342.35335886909513
 20
173.38
 10
342.7536447302947
 20
173.38
 10
343.15393059149426
 20
173.38
 10
343.5542164526939
 20
173.38
 10
343.95450231389344
 20
173.38
 10
344.35478817509306
 20
173.38
 10
344.7550740362926
 20
173.38
 10
345.1553598974922
 20
173.38
 10
345.5556457586918
 20
173.38
 10
345.9559316198914
 20
173.38
 10
346.35621748109094
 20
173.38
 10
346.75650334229056
 20
173.38
 10
347.1567892034901
 20
173.38
 10
347.5570750646897
 20
173.38
 10
347.9573609258893
 20
173.38
 10
348.35764678708887
 20
173.38
 10
348.75793264828843
 20
173.38
 10
349.15821850948805
 20
173.38
 10
349.5585043706876
 20
173.38
 10
349.95879023188724
 20
173.38
 10
350.3590760930868
 20
173.38
 10
350.75936195428636
 20
173.38
 10
351.159647815486
 20
173.38
 10
351.55993367668555
 20
173.38
 10
351.9602195378851
 20
173.38
 10
352.36050539908473
 20
173.38
 10
352.7607912602843
 20
173.38
 10
353.16107712148386
 20
173.38
 10
353.5613629826835
 20
173.38
 10
353.96164884388304
 20
173.38
 10
354.3619347050826
 20
173.38
 10
354.7622205662822
 20
173.38
 10
355.1625064274818
 20
173.38
 10
355.5627922886814
 20
173.38
 10
355.96307814988097
 20
173.38
 10
356.36336401108053
 20
173.38
 10
356.76364987228015
 20
173.38
 10
357.1639357334797
 20
173.38
 10
357.5642215946793
 20
173.38
 10
357.9645074558789
 20
173.38
 10
358.36479331707847
 20
173.38
 10
358.76507917827803
 20
173.38
 10
359.16536503947765
 20
173.38
 10
359.5656509006772
 20
173.38
 10
359.96593676187683
 20
173.38
 10
360.3662226230764
 20
173.38
 10
360.76650848427596
 20
173.38
 10
361.1667943454756
 20
173.38
 10
361.56708020667514
 20
173.38
 10
361.9673660678747
 20
173.38
 10
362.3676519290743
 20
173.38
 10
362.7679377902739
 20
173.38
 10
363.16822365147345
 20
173.38
 10
363.5685095126731
 20
173.38
 10
363.96879537387264
 20
173.38
 10
364.36908123507226
 20
173.38
 10
364.7693670962718
 20
173.38
 10
365.1696529574714
 20
173.38
 10
365.56993881867095
 20
173.38
 10
365.97022467987057
 20
173.38
 10
366.37051054107013
 20
173.38
 10
366.77079640226975
 20
173.38
 10
367.1710822634693
 20
173.38
 10
367.5713681246689
 20
173.38
 10
367.9716539858685
 20
173.38
 10
368.37193984706806
 20
173.38
 10
368.7722257082676
 20
173.38
 10
369.17251156946725
 20
173.38
 10
369.5727974306668
 20
173.38
 10
369.9730832918664
 20
173.38
 10
370.373369153066
 20
173.38
 10
370.77365501426556
 20
173.38
 10
371.1739408754652
 20
173.38
 10
371.57422673666474
 20
173.38
 10
371.9745125978643
 20
173.38
 10
372.37479845906387
 20
173.38
 10
372.7750843202635
 20
173.38
 10
373.08623290704725
 20
173.46913727441583
 10
373.08623290704725
 20
173.8694231356154
 10
373.08623290704725
 20
174.26970899681498
 10
373.08623290704725
 20
174.66999485801458
 10
373.08623290704725
 20
175.07028071921417
 10
373.08623290704725
 20
175.47056658041373
 10
373.08623290704725
 20
175.87085244161332
 10
373.08623290704725
 20
176.27113830281291
 10
373.08623290704725
 20
176.67142416401248
 10
373.08623290704725
 20
177.07171002521207
 10
373.08623290704725
 20
177.47199588641166
 10
373.08623290704725
 20
177.87228174761123
 10
373.08623290704725
 20
178.27256760881082
 10
373.08623290704725
 20
178.6728534700104
 10
373.08623290704725
 20
179.07313933121
 10
373.08623290704725
 20
179.47342519240956
 10
373.08623290704725
 20
179.87371105360916
 10
373.08623290704725
 20
180.27399691480875
 10
373.08623290704725
 20
180.67428277600834
 10
373.08623290704725
 20
181.0745686372079
 10
373.08623290704725
 20
181.4748544984075
 10
373.08623290704725
 20
181.8751403596071
 10
373.08623290704725
 20
182.27542622080665
 10
373.08623290704725
 20
182.67571208200624
 10
373.08623290704725
 20
183.07599794320583
 10
373.08623290704725
 20
183.4762838044054
 10
373.08623290704725
 20
183.876569665605
 10
373.08623290704725
 20
184.27685552680458
 10
373.08623290704725
 20
184.67714138800417
 10
373.08623290704725
 20
185.07742724920374
 10
373.08623290704725
 20
185.47771311040333
 10
373.08623290704725
 20
185.87799897160292
 10
373.08623290704725
 20
186.2782848328025
 10
373.08623290704725
 20
186.67857069400208
 10
373.08623290704725
 20
187.07885655520167
 10
373.08623290704725
 20
187.47914241640126
 10
373.08623290704725
 20
187.87942827760082
 10
373.08623290704725
 20
188.27971413880041
 10
373.08623290704725
 20
188.68
 97
0
 75
1
 76
1
 52
0.0
 41
0.5
 77
0
 78
1
 53
45.0
 43
0.0
 44
0.0
 45
-1.1225320152
 46
1.1225320152
 79
0
 98
0
  0
LWPOLYLINE
  5
EF
330
17
100
AcDbEntity
  8
20_ВИДИМЫЕ
100
AcDbPolyline
 90
5
 70
1
 10
251.9
 20
136.07999999999998
 10
251.9
 20
188.68000010000915
 10
408.1
 20
188.68000010000915
 10
408.1
 20
136.07999999999998
 10
251.9
 20
136.07999999999998
  0
LWPOLYLINE
  5
F0
330
17
100
AcDbEntity
  8
20_ВИДИМЫЕ
100
AcDbPolyline
 90
508
 70
1
 10
372.6859470458476
 20
188.68
 10
372.28566118464806
 20
188.68
 10
371.8853753234485
 20
188.68
 10
371.4850894622489
 20
188.68
 10
371.0848036010493
 20
188.68
 10
370.68451773984975
 20
188.68
 10
370.28423187865013
 20
188.68
 10
369.88394601745057
 20
188.68
 10
369.483660156251
 20
188.68
 10
369.0833742950514
 20
188.68
 10
368.6830884338518
 20
188.68
 10
368.2828025726522
 20
188.68
 10
367.88251671145264
 20
188.68
 10
367.4822308502531
 20
188.68
 10
367.08194498905345
 20
188.68
 10
366.6816591278539
 20
188.68
 10
366.2813732666543
 20
188.68
 10
365.8810874054547
 20
188.68
 10
365.48080154425514
 20
188.68
 10
365.0805156830556
 20
188.68
 10
364.68022982185596
 20
188.68
 10
364.2799439606564
 20
188.68
 10
363.87965809945683
 20
188.68
 10
363.4793722382572
 20
188.68
 10
363.07908637705765
 20
188.68
 10
362.67880051585803
 20
188.68
 10
362.27851465465847
 20
188.68
 10
361.8782287934589
 20
188.68
 10
361.47794293225934
 20
188.68
 10
361.0776570710597
 20
188.68
 10
360.67737120986015
 20
188.68
 10
360.27708534866053
 20
188.68
 10
359.87679948746097
 20
188.68
 10
359.4765136262614
 20
188.68
 10
359.0762277650618
 20
188.68
 10
358.6759419038622
 20
188.68
 10
358.2756560426626
 20
188.68
 10
357.87537018146304
 20
188.68
 10
357.4750843202635
 20
188.68
 10
357.0747984590639
 20
188.68
 10
356.6745125978643
 20
188.68
 10
356.27422673666473
 20
188.68
 10
355.8739408754651
 20
188.68
 10
355.47365501426555
 20
188.68
 10
355.073369153066
 20
188.68
 10
354.67308329186636
 20
188.68
 10
354.2727974306668
 20
188.68
 10
353.8725115694672
 20
188.68
 10
353.4722257082676
 20
188.68
 10
353.07193984706805
 20
188.68
 10
352.6716539858685
 20
188.68
 10
352.27136812466887
 20
188.68
 10
351.8710822634693
 20
188.68
 10
351.47079640226974
 20
188.68
 10
351.0705105410701
 20
188.68
 10
350.67022467987056
 20
188.68
 10
350.26993881867094
 20
188.68
 10
349.8696529574714
 20
188.68
 10
349.4693670962718
 20
188.68
 10
349.0690812350722
 20
188.68
 10
348.6687953738726
 20
188.68
 10
348.26850951267306
 20
188.68
 10
347.86822365147344
 20
188.68
 10
347.4679377902739
 20
188.68
 10
347.0676519290743
 20
188.68
 10
346.6673660678747
 20
188.68
 10
346.26708020667513
 20
188.68
 10
345.8667943454755
 20
188.68
 10
345.46650848427595
 20
188.68
 10
345.0662226230764
 20
188.68
 10
344.66593676187676
 20
188.68
 10
344.2656509006772
 20
188.68
 10
343.86536503947764
 20
188.68
 10
343.465079178278
 20
188.68
 10
343.06479331707845
 20
188.68
 10
342.6645074558789
 20
188.68
 10
342.26422159467927
 20
188.68
 10
341.8639357334797
 20
188.68
 10
341.4636498722801
 20
188.68
 10
341.0633640110805
 20
188.68
 10
340.66307814988096
 20
188.68
 10
340.26279228868134
 20
188.68
 10
339.8625064274818
 20
188.68
 10
339.4622205662822
 20
188.68
 10
339.06193470508265
 20
188.68
 10
338.66164884388303
 20
188.68
 10
338.26136298268347
 20
188.68
 10
337.86107712148385
 20
188.68
 10
337.4607912602843
 20
188.68
 10
337.0605053990847
 20
188.68
 10
336.6602195378851
 20
188.68
 10
336.25993367668553
 20
188.68
 10
335.8596478154859
 20
188.68
 10
335.45936195428635
 20
188.68
 10
335.0590760930868
 20
188.68
 10
334.6587902318872
 20
188.68
 10
334.2585043706876
 20
188.68
 10
333.85821850948804
 20
188.68
 10
333.4579326482884
 20
188.68
 10
333.05764678708886
 20
188.68
 10
332.6573609258893
 20
188.68
 10
332.2570750646897
 20
188.68
 10
331.8567892034901
 20
188.68
 10
331.4565033422905
 20
188.68
 10
331.0562174810909
 20
188.68
 10
330.65593161989136
 20
188.68
 10
330.2556457586918
 20
188.68
 10
329.8553598974922
 20
188.68
 10
329.4550740362926
 20
188.68
 10
329.054788175093
 20
188.68
 10
328.65450231389343
 20
188.68
 10
328.25421645269387
 20
188.68
 10
327.85393059149425
 20
188.68
 10
327.4536447302947
 20
188.68
 10
327.0533588690951
 20
188.68
 10
326.65307300789556
 20
188.68
 10
326.25278714669594
 20
188.68
 10
325.8525012854964
 20
188.68
 10
325.45221542429675
 20
188.68
 10
325.0519295630972
 20
188.68
 10
324.6516437018976
 20
188.68
 10
324.251357840698
 20
188.68
 10
323.85107197949844
 20
188.68
 10
323.4507861182988
 20
188.68
 10
323.05050025709926
 20
188.68
 10
322.6502143958997
 20
188.68
 10
322.24992853470013
 20
188.68
 10
321.8496426735005
 20
188.68
 10
321.44935681230095
 20
188.68
 10
321.0490709511013
 20
188.68
 10
320.64878508990176
 20
188.68
 10
320.2484992287022
 20
188.68
 10
319.8482133675026
 20
188.68
 10
319.447927506303
 20
188.68
 10
319.0476416451034
 20
188.68
 10
318.64735578390383
 20
188.68
 10
318.24706992270427
 20
188.68
 10
317.8467840615047
 20
188.68
 10
317.4464982003051
 20
188.68
 10
317.0462123391055
 20
188.68
 10
316.6459264779059
 20
188.68
 10
316.24564061670634
 20
188.68
 10
315.8453547555068
 20
188.68
 10
315.44506889430716
 20
188.68
 10
315.0447830331076
 20
188.68
 10
314.64449717190803
 20
188.68
 10
314.2442113107084
 20
188.68
 10
313.84392544950884
 20
188.68
 10
313.4436395883093
 20
188.68
 10
313.04335372710966
 20
188.68
 10
312.6430678659101
 20
188.68
 10
312.24278200471053
 20
188.68
 10
311.8424961435109
 20
188.68
 10
311.44221028231135
 20
188.68
 10
311.04192442111173
 20
188.68
 10
310.64163855991217
 20
188.68
 10
310.2413526987126
 20
188.68
 10
309.841066837513
 20
188.68
 10
309.4407809763134
 20
188.68
 10
309.04049511511386
 20
188.68
 10
308.64020925391424
 20
188.68
 10
308.2399233927147
 20
188.68
 10
307.8396375315151
 20
188.68
 10
307.4393516703155
 20
188.68
 10
307.0390658091159
 20
188.68
 10
306.6387799479163
 20
188.68
 10
306.23849408671674
 20
188.68
 10
305.8382082255172
 20
188.68
 10
305.43792236431756
 20
188.68
 10
305.037636503118
 20
188.68
 10
304.63735064191843
 20
188.68
 10
304.23706478071887
 20
188.68
 10
303.83677891951925
 20
188.68
 10
303.4364930583197
 20
188.68
 10
303.03620719712006
 20
188.68
 10
302.6359213359205
 20
188.68
 10
302.23563547472094
 20
188.68
 10
301.8353496135213
 20
188.68
 10
301.43506375232175
 20
188.68
 10
301.03477789112213
 20
188.68
 10
300.63449202992257
 20
188.68
 10
300.234206168723
 20
188.68
 10
299.83392030752344
 20
188.68
 10
299.4336344463238
 20
188.68
 10
299.03334858512426
 20
188.68
 10
298.63306272392464
 20
188.68
 10
298.2327768627251
 20
188.68
 10
297.83249100152545
 20
188.68
 10
297.4322051403259
 20
188.68
 10
297.0319192791263
 20
188.68
 10
296.63163341792676
 20
188.68
 10
296.23134755672714
 20
188.68
 10
295.8310616955276
 20
188.68
 10
295.430775834328
 20
188.68
 10
295.0304899731284
 20
188.68
 10
294.63020411192883
 20
188.68
 10
294.22991825072927
 20
188.68
 10
293.82963238952965
 20
188.68
 10
293.4293465283301
 20
188.68
 10
293.02906066713047
 20
188.68
 10
292.6287748059309
 20
188.68
 10
292.22848894473134
 20
188.68
 10
291.8282030835317
 20
188.68
 10
291.42791722233216
 20
188.68
 10
291.0276313611326
 20
188.68
 10
290.62734549993297
 20
188.68
 10
290.2270596387334
 20
188.68
 10
289.82677377753384
 20
188.68
 10
289.4264879163342
 20
188.68
 10
289.02620205513466
 20
188.68
 10
288.62591619393504
 20
188.68
 10
288.2256303327355
 20
188.68
 10
287.8253444715359
 20
188.68
 10
287.4250586103363
 20
188.68
 10
287.02477274913673
 20
188.68
 10
286.91376709295275
 20
188.3907197949844
 10
286.91376709295275
 20
187.99043393378483
 10
286.91376709295275
 20
187.59014807258524
 10
286.91376709295275
 20
187.18986221138564
 10
286.91376709295275
 20
186.78957635018605
 10
286.91376709295275
 20
186.38929048898646
 10
286.91376709295275
 20
185.9890046277869
 10
286.91376709295275
 20
185.5887187665873
 10
286.91376709295275
 20
185.1884329053877
 10
286.91376709295275
 20
184.78814704418812
 10
286.91376709295275
 20
184.38786118298856
 10
286.91376709295275
 20
183.98757532178897
 10
286.91376709295275
 20
183.5872894605894
 10
286.91376709295275
 20
183.1870035993898
 10
286.91376709295275
 20
182.78671773819022
 10
286.91376709295275
 20
182.38643187699063
 10
286.91376709295275
 20
181.98614601579106
 10
286.91376709295275
 20
181.58586015459147
 10
286.91376709295275
 20
181.18557429339188
 10
286.91376709295275
 20
180.7852884321923
 10
286.91376709295275
 20
180.3850025709927
 10
286.91376709295275
 20
179.98471670979313
 10
286.91376709295275
 20
179.58443084859357
 10
286.91376709295275
 20
179.18414498739398
 10
286.91376709295275
 20
178.7838591261944
 10
286.91376709295275
 20
178.3835732649948
 10
286.91376709295275
 20
177.9832874037952
 10
286.91376709295275
 20
177.58300154259564
 10
286.91376709295275
 20
177.18271568139605
 10
286.91376709295275
 20
176.78242982019646
 10
286.91376709295275
 20
176.38214395899686
 10
286.91376709295275
 20
175.9818580977973
 10
286.91376709295275
 20
175.58157223659774
 10
286.91376709295275
 20
175.18128637539814
 10
286.91376709295275
 20
174.78100051419855
 10
286.91376709295275
 20
174.38071465299896
 10
286.91376709295275
 20
173.98042879179937
 10
286.91376709295275
 20
173.5801429305998
 10
287.11391002355253
 20
173.38
 10
287.51419588475216
 20
173.38
 10
287.9144817459517
 20
173.38
 10
288.31476760715134
 20
173.38
 10
288.7150534683509
 20
173.38
 10
289.11533932955047
 20
173.38
 10
289.51562519075003
 20
173.38
 10
289.91591105194965
 20
173.38
 10
290.3161969131492
 20
173.38
 10
290.71648277434883
 20
173.38
 10
291.1167686355484
 20
173.38
 10
291.51705449674796
 20
173.38
 10
291.9173403579476
 20
173.38
 10
292.31762621914714
 20
173.38
 10
292.7179120803467
 20
173.38
 10
293.1181979415463
 20
173.38
 10
293.5184838027459
 20
173.38
 10
293.91876966394545
 20
173.38
 10
294.3190555251451
 20
173.38
 10
294.71934138634464
 20
173.38
 10
295.11962724754426
 20
173.38
 10
295.5199131087438
 20
173.38
 10
295.9201989699434
 20
173.38
 10
296.320484831143
 20
173.38
 10
296.72077069234257
 20
173.38
 10
297.12105655354213
 20
173.38
 10
297.52134241474175
 20
173.38
 10
297.9216282759413
 20
173.38
 10
298.3219141371409
 20
173.38
 10
298.7221999983405
 20
173.38
 10
299.12248585954006
 20
173.38
 10
299.5227717207397
 20
173.38
 10
299.92305758193925
 20
173.38
 10
300.3233434431388
 20
173.38
 10
300.7236293043384
 20
173.38
 10
301.123915165538
 20
173.38
 10
301.52420102673756
 20
173.38
 10
301.9244868879372
 20
173.38
 10
302.32477274913674
 20
173.38
 10
302.7250586103363
 20
173.38
 10
303.1253444715359
 20
173.38
 10
303.5256303327355
 20
173.38
 10
303.92591619393505
 20
173.38
 10
304.3262020551347
 20
173.38
 10
304.72648791633424
 20
173.38
 10
305.1267737775338
 20
173.38
 10
305.5270596387334
 20
173.38
 10
305.927345499933
 20
173.38
 10
306.3276313611326
 20
173.38
 10
306.72791722233217
 20
173.38
 10
307.12820308353173
 20
173.38
 10
307.52848894473135
 20
173.38
 10
307.9287748059309
 20
173.38
 10
308.3290606671305
 20
173.38
 10
308.7293465283301
 20
173.38
 10
309.12963238952966
 20
173.38
 10
309.5299182507292
 20
173.38
 10
309.93020411192884
 20
173.38
 10
310.3304899731284
 20
173.38
 10
310.73077583432797
 20
173.38
 10
311.1310616955276
 20
173.38
 10
311.53134755672716
 20
173.38
 10
311.9316334179268
 20
173.38
 10
312.33191927912634
 20
173.38
 10
312.7322051403259
 20
173.38
 10
313.1324910015255
 20
173.38
 10
313.5327768627251
 20
173.38
 10
313.93306272392465
 20
173.38
 10
314.33334858512427
 20
173.38
 10
314.73363444632383
 20
173.38
 10
315.13392030752345
 20
173.38
 10
315.534206168723
 20
173.38
 10
315.9344920299226
 20
173.38
 10
316.33477789112214
 20
173.38
 10
316.73506375232176
 20
173.38
 10
317.1353496135213
 20
173.38
 10
317.53563547472095
 20
173.38
 10
317.9359213359205
 20
173.38
 10
318.3362071971201
 20
173.38
 10
318.7364930583197
 20
173.38
 10
319.13677891951926
 20
173.38
 10
319.5370647807188
 20
173.38
 10
319.93735064191844
 20
173.38
 10
320.337636503118
 20
173.38
 10
320.7379223643176
 20
173.38
 10
321.1382082255172
 20
173.38
 10
321.53849408671675
 20
173.38
 10
321.9387799479164
 20
173.38
 10
322.33906580911594
 20
173.38
 10
322.7393516703155
 20
173.38
 10
323.1396375315151
 20
173.38
 10
323.5399233927147
 20
173.38
 10
323.94020925391425
 20
173.38
 10
324.34049511511387
 20
173.38
 10
324.74078097631343
 20
173.38
 10
325.141066837513
 20
173.38
 10
325.5413526987126
 20
173.38
 10
325.9416385599122
 20
173.38
 10
326.3419244211118
 20
173.38
 10
326.74221028231136
 20
173.38
 10
327.1424961435109
 20
173.38
 10
327.54278200471055
 20
173.38
 10
327.9430678659101
 20
173.38
 10
328.3433537271097
 20
173.38
 10
328.7436395883093
 20
173.38
 10
329.14392544950886
 20
173.38
 10
329.5442113107084
 20
173.38
 10
329.944497171908
 20
173.38
 10
330.3447830331076
 20
173.38
 10
330.7450688943072
 20
173.38
 10
331.1453547555068
 20
173.38
 10
331.54564061670635
 20
173.38
 10
331.9459264779059
 20
173.38
 10
332.34621233910553
 20
173.38
 10
332.7464982003051
 20
173.38
 10
333.1467840615047
 20
173.38
 10
333.5470699227043
 20
173.38
 10
333.94735578390384
 20
173.38
 10
334.3476416451034
 20
173.38
 10
334.74792750630303
 20
173.38
 10
335.1482133675026
 20
173.38
 10
335.5484992287022
 20
173.38
 10
335.9487850899018
 20
173.38
 10
336.34907095110134
 20
173.38
 10
336.74935681230096
 20
173.38
 10
337.1496426735005
 20
173.38
 10
337.54992853470014
 20
173.38
 10
337.9502143958997
 20
173.38
 10
338.35050025709927
 20
173.38
 10
338.75078611829883
 20
173.38
 10
339.15107197949845
 20
173.38
 10
339.551357840698
 20
173.38
 10
339.95164370189764
 20
173.38
 10
340.3519295630972
 20
173.38
 10
340.75221542429676
 20
173.38
 10
341.1525012854964
 20
173.38
 10
341.55278714669595
 20
173.38
 10
341.9530730078955
 20
173.38
 10
342.35335886909513
 20
173.38
 10
342.7536447302947
 20
173.38
 10
343.15393059149426
 20
173.38
 10
343.5542164526939
 20
173.38
 10
343.95450231389344
 20
173.38
 10
344.35478817509306
 20
173.38
 10
344.7550740362926
 20
173.38
 10
345.1553598974922
 20
173.38
 10
345.5556457586918
 20
173.38
 10
345.9559316198914
 20
173.38
 10
346.35621748109094
 20
173.38
 10
346.75650334229056
 20
173.38
 10
347.1567892034901
 20
173.38
 10
347.5570750646897
 20
173.38
 10
347.9573609258893
 20
173.38
 10
348.35764678708887
 20
173.38
 10
348.75793264828843
 20
173.38
 10
349.15821850948805
 20
173.38
 10
349.5585043706876
 20
173.38
 10
349.95879023188724
 20
173.38
 10
350.3590760930868
 20
173.38
 10
350.75936195428636
 20
173.38
 10
351.159647815486
 20
173.38
 10
351.55993367668555
 20
173.38
 10
351.9602195378851
 20
173.38
 10
352.36050539908473
 20
173.38
 10
352.7607912602843
 20
173.38
 10
353.16107712148386
 20
173.38
 10
353.5613629826835
 20
173.38
 10
353.96164884388304
 20
173.38
 10
354.3619347050826
 20
173.38
 10
354.7622205662822
 20
173.38
 10
355.1625064274818
 20
173.38
 10
355.5627922886814
 20
173.38
 10
355.96307814988097
 20
173.38
 10
356.36336401108053
 20
173.38
 10
356.76364987228015
 20
173.38
 10
357.1639357334797
 20
173.38
 10
357.5642215946793
 20
173.38
 10
357.9645074558789
 20
173.38
 10
358.36479331707847
 20
173.38
 10
358.76507917827803
 20
173.38
 10
359.16536503947765
 20
173.38
 10
359.5656509006772
 20
173.38
 10
359.96593676187683
 20
173.38
 10
360.3662226230764
 20
173.38
 10
360.76650848427596
 20
173.38
 10
361.1667943454756
 20
173.38
 10
361.56708020667514
 20
173.38
 10
361.9673660678747
 20
173.38
 10
362.3676519290743
 20
173.38
 10
362.7679377902739
 20
173.38
 10
363.16822365147345
 20
173.38
 10
363.5685095126731
 20
173.38
 10
363.96879537387264
 20
173.38
 10
364.36908123507226
 20
173.38
 10
364.7693670962718
 20
173.38
 10
365.1696529574714
 20
173.38
 10
365.56993881867095
 20
173.38
 10
365.97022467987057
 20
173.38
 10
366.37051054107013
 20
173.38
 10
366.77079640226975
 20
173.38
 10
367.1710822634693
 20
173.38
 10
367.5713681246689
 20
173.38
 10
367.9716539858685
 20
173.38
 10
368.37193984706806
 20
173.38
 10
368.7722257082676
 20
173.38
 10
369.17251156946725
 20
173.38
 10
369.5727974306668
 20
173.38
 10
369.9730832918664
 20
173.38
 10
370.373369153066
 20
173.38
 10
370.77365501426556
 20
173.38
 10
371.1739408754652
 20
173.38
 10
371.57422673666474
 20
173.38
 10
371.9745125978643
 20
173.38
 10
372.37479845906387
 20
173.38
 10
372.7750843202635
 20
173.38
 10
373.08623290704725
 20
173.46913727441583
 10
373.08623290704725
 20
173.8694231356154
 10
373.08623290704725
 20
174.26970899681498
 10
373.08623290704725
 20
174.66999485801458
 10
373.08623290704725
 20
175.07028071921417
 10
373.08623290704725
 20
175.47056658041373
 10
373.08623290704725
 20
175.87085244161332
 10
373.08623290704725
 20
176.27113830281291
 10
373.08623290704725
 20
176.67142416401248
 10
373.08623290704725
 20
177.07171002521207
 10
373.08623290704725
 20
177.47199588641166
 10
373.08623290704725
 20
177.87228174761123
 10
373.08623290704725
 20
178.27256760881082
 10
373.08623290704725
 20
178.6728534700104
 10
373.08623290704725
 20
179.07313933121
 10
373.08623290704725
 20
179.47342519240956
 10
373.08623290704725
 20
179.87371105360916
 10
373.08623290704725
 20
180.27399691480875
 10
373.08623290704725
 20
180.67428277600834
 10
373.08623290704725
 20
181.0745686372079
 10
373.08623290704725
 20
181.4748544984075
 10
373.08623290704725
 20
181.8751403596071
 10
373.08623290704725
 20
182.27542622080665
 10
373.08623290704725
 20
182.67571208200624
 10
373.08623290704725
 20
183.07599794320583
 10
373.08623290704725
 20
183.4762838044054
 10
373.08623290704725
 20
183.876569665605
 10
373.08623290704725
 20
184.27685552680458
 10
373.08623290704725
 20
184.67714138800417
 10
373.08623290704725
 20
185.07742724920374
 10
373.08623290704725
 20
185.47771311040333
 10
373.08623290704725
 20
185.87799897160292
 10
373.08623290704725
 20
186.2782848328025
 10
373.08623290704725
 20
186.67857069400208
 10
373.08623290704725
 20
187.07885655520167
 10
373.08623290704725
 20
187.47914241640126
 10
373.08623290704725
 20
187.87942827760082
 10
373.08623290704725
 20
188.27971413880041
 10
373.08623290704725
 20
188.68
 10
372.6859470458476
 20
188.68
  0
LWPOLYLINE
  5
F1
330
17
100
AcDbEntity
  8
20_ВИДИМЫЕ
100
AcDbPolyline
 90
508
 70
1
 10
373.08623290704725
 20
188.68
 10
373.08623290704725
 20
188.27971413880041
 10
373.08623290704725
 20
187.87942827760082
 10
373.08623290704725
 20
187.47914241640126
 10
373.08623290704725
 20
187.07885655520167
 10
373.08623290704725
 20
186.67857069400208
 10
373.08623290704725
 20
186.2782848328025
 10
373.08623290704725
 20
185.87799897160292
 10
373.08623290704725
 20
185.47771311040333
 10
373.08623290704725
 20
185.07742724920374
 10
373.08623290704725
 20
184.67714138800417
 10
373.08623290704725
 20
184.27685552680458
 10
373.08623290704725
 20
183.876569665605
 10
373.08623290704725
 20
183.4762838044054
 10
373.08623290704725
 20
183.07599794320583
 10
373.08623290704725
 20
182.67571208200624
 10
373.08623290704725
 20
182.27542622080665
 10
373.08623290704725
 20
181.8751403596071
 10
373.08623290704725
 20
181.4748544984075
 10
373.08623290704725
 20
181.0745686372079
 10
373.08623290704725
 20
180.67428277600834
 10
373.08623290704725
 20
180.27399691480875
 10
373.08623290704725
 20
179.87371105360916
 10
373.08623290704725
 20
179.47342519240956
 10
373.08623290704725
 20
179.07313933121
 10
373.08623290704725
 20
178.6728534700104
 10
373.08623290704725
 20
178.27256760881082
 10
373.08623290704725
 20
177.87228174761123
 10
373.08623290704725
 20
177.47199588641166
 10
373.08623290704725
 20
177.07171002521207
 10
373.08623290704725
 20
176.67142416401248
 10
373.08623290704725
 20
176.27113830281291
 10
373.08623290704725
 20
175.87085244161332
 10
373.08623290704725
 20
175.47056658041373
 10
373.08623290704725
 20
175.07028071921417
 10
373.08623290704725
 20
174.66999485801458
 10
373.08623290704725
 20
174.26970899681498
 10
373.08623290704725
 20
173.8694231356154
 10
373.08623290704725
 20
173.46913727441583
 10
372.7750843202635
 20
173.38
 10
372.37479845906387
 20
173.38
 10
371.9745125978643
 20
173.38
 10
371.57422673666474
 20
173.38
 10
371.1739408754652
 20
173.38
 10
370.77365501426556
 20
173.38
 10
370.373369153066
 20
173.38
 10
369.9730832918664
 20
173.38
 10
369.5727974306668
 20
173.38
 10
369.17251156946725
 20
173.38
 10
368.7722257082676
 20
173.38
 10
368.37193984706806
 20
173.38
 10
367.9716539858685
 20
173.38
 10
367.5713681246689
 20
173.38
 10
367.1710822634693
 20
173.38
 10
366.77079640226975
 20
173.38
 10
366.37051054107013
 20
173.38
 10
365.97022467987057
 20
173.38
 10
365.56993881867095
 20
173.38
 10
365.1696529574714
 20
173.38
 10
364.7693670962718
 20
173.38
 10
364.36908123507226
 20
173.38
 10
363.96879537387264
 20
173.38
 10
363.5685095126731
 20
173.38
 10
363.16822365147345
 20
173.38
 10
362.7679377902739
 20
173.38
 10
362.3676519290743
 20
173.38
 10
361.9673660678747
 20
173.38
 10
361.56708020667514
 20
173.38
 10
361.1667943454756
 20
173.38
 10
360.76650848427596
 20
173.38
 10
360.3662226230764
 20
173.38
 10
359.96593676187683
 20
173.38
 10
359.5656509006772
 20
173.38
 10
359.16536503947765
 20
173.38
 10
358.76507917827803
 20
173.38
 10
358.36479331707847
 20
173.38
 10
357.9645074558789
 20
173.38
 10
357.5642215946793
 20
173.38
 10
357.1639357334797
 20
173.38
 10
356.76364987228015
 20
173.38
 10
356.36336401108053
 20
173.38
 10
355.96307814988097
 20
173.38
 10
355.5627922886814
 20
173.38
 10
355.1625064274818
 20
173.38
 10
354.7622205662822
 20
173.38
 10
354.3619347050826
 20
173.38
 10
353.96164884388304
 20
173.38
 10
353.5613629826835
 20
173.38
 10
353.16107712148386
 20
173.38
 10
352.7607912602843
 20
173.38
 10
352.36050539908473
 20
173.38
 10
351.9602195378851
 20
173.38
 10
351.55993367668555
 20
173.38
 10
351.159647815486
 20
173.38
 10
350.75936195428636
 20
173.38
 10
350.3590760930868
 20
173.38
 10
349.95879023188724
 20
173.38
 10
349.5585043706876
 20
173.38
 10
349.15821850948805
 20
173.38
 10
348.75793264828843
 20
173.38
 10
348.35764678708887
 20
173.38
 10
347.9573609258893
 20
173.38
 10
347.5570750646897
 20
173.38
 10
347.1567892034901
 20
173.38
 10
346.75650334229056
 20
173.38
 10
346.35621748109094
 20
173.38
 10
345.9559316198914
 20
173.38
 10
345.5556457586918
 20
173.38
 10
345.1553598974922
 20
173.38
 10
344.7550740362926
 20
173.38
 10
344.35478817509306
 20
173.38
 10
343.95450231389344
 20
173.38
 10
343.5542164526939
 20
173.38
 10
343.15393059149426
 20
173.38
 10
342.7536447302947
 20
173.38
 10
342.35335886909513
 20
173.38
 10
341.9530730078955
 20
173.38
 10
341.55278714669595
 20
173.38
 10
341.1525012854964
 20
173.38
 10
340.75221542429676
 20
173.38
 10
340.3519295630972
 20
173.38
 10
339.95164370189764
 20
173.38
 10
339.551357840698
 20
173.38
 10
339.15107197949845
 20
173.38
 10
338.75078611829883
 20
173.38
 10
338.35050025709927
 20
173.38
 10
337.9502143958997
 20
173.38
 10
337.54992853470014
 20
173.38
 10
337.1496426735005
 20
173.38
 10
336.74935681230096
 20
173.38
 10
336.34907095110134
 20
173.38
 10
335.9487850899018
 20
173.38
 10
335.5484992287022
 20
173.38
 10
335.1482133675026
 20
173.38
 10
334.74792750630303
 20
173.38
 10
334.3476416451034
 20
173.38
 10
333.94735578390384
 20
173.38
 10
333.5470699227043
 20
173.38
 10
333.1467840615047
 20
173.38
 10
332.7464982003051
 20
173.38
 10
332.34621233910553
 20
173.38
 10
331.9459264779059
 20
173.38
 10
331.54564061670635
 20
173.38
 10
331.1453547555068
 20
173.38
 10
330.7450688943072
 20
173.38
 10
330.3447830331076
 20
173.38
 10
329.944497171908
 20
173.38
 10
329.5442113107084
 20
173.38
 10
329.14392544950886
 20
173.38
 10
328.7436395883093
 20
173.38
 10
328.3433537271097
 20
173.38
 10
327.9430678659101
 20
173.38
 10
327.54278200471055
 20
173.38
 10
327.1424961435109
 20
173.38
 10
326.74221028231136
 20
173.38
 10
326.3419244211118
 20
173.38
 10
325.9416385599122
 20
173.38
 10
325.5413526987126
 20
173.38
 10
325.141066837513
 20
173.38
 10
324.74078097631343
 20
173.38
 10
324.34049511511387
 20
173.38
 10
323.94020925391425
 20
173.38
 10
323.5399233927147
 20
173.38
 10
323.1396375315151
 20
173.38
 10
322.7393516703155
 20
173.38
 10
322.33906580911594
 20
173.38
 10
321.9387799479164
 20
173.38
 10
321.53849408671675
 20
173.38
 10
321.1382082255172
 20
173.38
 10
320.7379223643176
 20
173.38
 10
320.337636503118
 20
173.38
 10
319.93735064191844
 20
173.38
 10
319.5370647807188
 20
173.38
 10
319.13677891951926
 20
173.38
 10
318.7364930583197
 20
173.38
 10
318.3362071971201
 20
173.38
 10
317.9359213359205
 20
173.38
 10
317.53563547472095
 20
173.38
 10
317.1353496135213
 20
173.38
 10
316.73506375232176
 20
173.38
 10
316.33477789112214
 20
173.38
 10
315.9344920299226
 20
173.38
 10
315.534206168723
 20
173.38
 10
315.13392030752345
 20
173.38
 10
314.73363444632383
 20
173.38
 10
314.33334858512427
 20
173.38
 10
313.93306272392465
 20
173.38
 10
313.5327768627251
 20
173.38
 10
313.1324910015255
 20
173.38
 10
312.7322051403259
 20
173.38
 10
312.33191927912634
 20
173.38
 10
311.9316334179268
 20
173.38
 10
311.53134755672716
 20
173.38
 10
311.1310616955276
 20
173.38
 10
310.73077583432797
 20
173.38
 10
310.3304899731284
 20
173.38
 10
309.93020411192884
 20
173.38
 10
309.5299182507292
 20
173.38
 10
309.12963238952966
 20
173.38
 10
308.7293465283301
 20
173.38
 10
308.3290606671305
 20
173.38
 10
307.9287748059309
 20
173.38
 10
307.52848894473135
 20
173.38
 10
307.12820308353173
 20
173.38
 10
306.72791722233217
 20
173.38
 10
306.3276313611326
 20
173.38
 10
305.927345499933
 20
173.38
 10
305.5270596387334
 20
173.38
 10
305.1267737775338
 20
173.38
 10
304.72648791633424
 20
173.38
 10
304.3262020551347
 20
173.38
 10
303.92591619393505
 20
173.38
 10
303.5256303327355
 20
173.38
 10
303.1253444715359
 20
173.38
 10
302.7250586103363
 20
173.38
 10
302.32477274913674
 20
173.38
 10
301.9244868879372
 20
173.38
 10
301.52420102673756
 20
173.38
 10
301.123915165538
 20
173.38
 10
300.7236293043384
 20
173.38
 10
300.3233434431388
 20
173.38
 10
299.92305758193925
 20
173.38
 10
299.5227717207397
 20
173.38
 10
299.12248585954006
 20
173.38
 10
298.7221999983405
 20
173.38
 10
298.3219141371409
 20
173.38
 10
297.9216282759413
 20
173.38
 10
297.52134241474175
 20
173.38
 10
297.12105655354213
 20
173.38
 10
296.72077069234257
 20
173.38
 10
296.320484831143
 20
173.38
 10
295.9201989699434
 20
173.38
 10
295.5199131087438
 20
173.38
 10
295.11962724754426
 20
173.38
 10
294.71934138634464
 20
173.38
 10
294.3190555251451
 20
173.38
 10
293.91876966394545
 20
173.38
 10
293.5184838027459
 20
173.38
 10
293.1181979415463
 20
173.38
 10
292.7179120803467
 20
173.38
 10
292.31762621914714
 20
173.38
 10
291.9173403579476
 20
173.38
 10
291.51705449674796
 20
173.38
 10
291.1167686355484
 20
173.38
 10
290.71648277434883
 20
173.38
 10
290.3161969131492
 20
173.38
 10
289.91591105194965
 20
173.38
 10
289.51562519075003
 20
173.38
 10
289.11533932955047
 20
173.38
 10
288.7150534683509
 20
173.38
 10
288.31476760715134
 20
173.38
 10
287.9144817459517
 20
173.38
 10
287.51419588475216
 20
173.38
 10
287.11391002355253
 20
173.38
 10
286.91376709295275
 20
173.5801429305998
 10
286.91376709295275
 20
173.98042879179937
 10
286.91376709295275
 20
174.38071465299896
 10
286.91376709295275
 20
174.78100051419855
 10
286.91376709295275
 20
175.18128637539814
 10
286.91376709295275
 20
175.58157223659774
 10
286.91376709295275
 20
175.9818580977973
 10
286.91376709295275
 20
176.38214395899686
 10
286.91376709295275
 20
176.78242982019646
 10
286.91376709295275
 20
177.18271568139605
 10
286.91376709295275
 20
177.58300154259564
 10
286.91376709295275
 20
177.9832874037952
 10
286.91376709295275
 20
178.3835732649948
 10
286.91376709295275
 20
178.7838591261944
 10
286.91376709295275
 20
179.18414498739398
 10
286.91376709295275
 20
179.58443084859357
 10
286.91376709295275
 20
179.98471670979313
 10
286.91376709295275
 20
180.3850025709927
 10
286.91376709295275
 20
180.7852884321923
 10
286.91376709295275
 20
181.18557429339188
 10
286.91376709295275
 20
181.58586015459147
 10
286.91376709295275
 20
181.98614601579106
 10
286.91376709295275
 20
182.38643187699063
 10
286.91376709295275
 20
182.78671773819022
 10
286.91376709295275
 20
183.1870035993898
 10
286.91376709295275
 20
183.5872894605894
 10
286.91376709295275
 20
183.98757532178897
 10
286.91376709295275
 20
184.38786118298856
 10
286.91376709295275
 20
184.78814704418812
 10
286.91376709295275
 20
185.1884329053877
 10
286.91376709295275
 20
185.5887187665873
 10
286.91376709295275
 20
185.9890046277869
 10
286.91376709295275
 20
186.38929048898646
 10
286.91376709295275
 20
186.78957635018605
 10
286.91376709295275
 20
187.18986221138564
 10
286.91376709295275
 20
187.59014807258524
 10
286.91376709295275
 20
187.99043393378483
 10
286.91376709295275
 20
188.3907197949844
 10
287.02477274913673
 20
188.68
 10
287.4250586103363
 20
188.68
 10
287.8253444715359
 20
188.68
 10
288.2256303327355
 20
188.68
 10
288.62591619393504
 20
188.68
 10
289.02620205513466
 20
188.68
 10
289.4264879163342
 20
188.68
 10
289.82677377753384
 20
188.68
 10
290.2270596387334
 20
188.68
 10
290.62734549993297
 20
188.68
 10
291.0276313611326
 20
188.68
 10
291.42791722233216
 20
188.68
 10
291.8282030835317
 20
188.68
 10
292.22848894473134
 20
188.68
 10
292.6287748059309
 20
188.68
 10
293.02906066713047
 20
188.68
 10
293.4293465283301
 20
188.68
 10
293.82963238952965
 20
188.68
 10
294.22991825072927
 20
188.68
 10
294.63020411192883
 20
188.68
 10
295.0304899731284
 20
188.68
 10
295.430775834328
 20
188.68
 10
295.8310616955276
 20
188.68
 10
296.23134755672714
 20
188.68
 10
296.63163341792676
 20
188.68
 10
297.0319192791263
 20
188.68
 10
297.4322051403259
 20
188.68
 10
297.83249100152545
 20
188.68
 10
298.2327768627251
 20
188.68
 10
298.63306272392464
 20
188.68
 10
299.03334858512426
 20
188.68
 10
299.4336344463238
 20
188.68
 10
299.83392030752344
 20
188.68
 10
300.234206168723
 20
188.68
 10
300.63449202992257
 20
188.68
 10
301.03477789112213
 20
188.68
 10
301.43506375232175
 20
188.68
 10
301.8353496135213
 20
188.68
 10
302.23563547472094
 20
188.68
 10
302.6359213359205
 20
188.68
 10
303.03620719712006
 20
188.68
 10
303.4364930583197
 20
188.68
 10
303.83677891951925
 20
188.68
 10
304.23706478071887
 20
188.68
 10
304.63735064191843
 20
188.68
 10
305.037636503118
 20
188.68
 10
305.43792236431756
 20
188.68
 10
305.8382082255172
 20
188.68
 10
306.23849408671674
 20
188.68
 10
306.6387799479163
 20
188.68
 10
307.0390658091159
 20
188.68
 10
307.4393516703155
 20
188.68
 10
307.8396375315151
 20
188.68
 10
308.2399233927147
 20
188.68
 10
308.64020925391424
 20
188.68
 10
309.04049511511386
 20
188.68
 10
309.4407809763134
 20
188.68
 10
309.841066837513
 20
188.68
 10
310.2413526987126
 20
188.68
 10
310.64163855991217
 20
188.68
 10
311.04192442111173
 20
188.68
 10
311.44221028231135
 20
188.68
 10
311.8424961435109
 20
188.68
 10
312.24278200471053
 20
188.68
 10
312.6430678659101
 20
188.68
 10
313.04335372710966
 20
188.68
 10
313.4436395883093
 20
188.68
 10
313.84392544950884
 20
188.68
 10
314.2442113107084
 20
188.68
 10
314.64449717190803
 20
188.68
 10
315.0447830331076
 20
188.68
 10
315.44506889430716
 20
188.68
 10
315.8453547555068
 20
188.68
 10
316.24564061670634
 20
188.68
 10
316.6459264779059
 20
188.68
 10
317.0462123391055
 20
188.68
 10
317.4464982003051
 20
188.68
 10
317.8467840615047
 20
188.68
 10
318.24706992270427
 20
188.68
 10
318.64735578390383
 20
188.68
 10
319.0476416451034
 20
188.68
 10
319.447927506303
 20
188.68
 10
319.8482133675026
 20
188.68
 10
320.2484992287022
 20
188.68
 10
320.64878508990176
 20
188.68
 10
321.0490709511013
 20
188.68
 10
321.44935681230095
 20
188.68
 10
321.8496426735005
 20
188.68
 10
322.24992853470013
 20
188.68
 10
322.6502143958997
 20
188.68
 10
323.05050025709926
 20
188.68
 10
323.4507861182988
 20
188.68
 10
323.85107197949844
 20
188.68
 10
324.251357840698
 20
188.68
 10
324.6516437018976
 20
188.68
 10
325.0519295630972
 20
188.68
 10
325.45221542429675
 20
188.68
 10
325.8525012854964
 20
188.68
 10
326.25278714669594
 20
188.68
 10
326.65307300789556
 20
188.68
 10
327.0533588690951
 20
188.68
 10
327.4536447302947
 20
188.68
 10
327.85393059149425
 20
188.68
 10
328.25421645269387
 20
188.68
 10
328.65450231389343
 20
188.68
 10
329.054788175093
 20
188.68
 10
329.4550740362926
 20
188.68
 10
329.8553598974922
 20
188.68
 10
330.2556457586918
 20
188.68
 10
330.65593161989136
 20
188.68
 10
331.0562174810909
 20
188.68
 10
331.4565033422905
 20
188.68
 10
331.8567892034901
 20
188.68
 10
332.2570750646897
 20
188.68
 10
332.6573609258893
 20
188.68
 10
333.05764678708886
 20
188.68
 10
333.4579326482884
 20
188.68
 10
333.85821850948804
 20
188.68
 10
334.2585043706876
 20
188.68
 10
334.6587902318872
 20
188.68
 10
335.0590760930868
 20
188.68
 10
335.45936195428635
 20
188.68
 10
335.8596478154859
 20
188.68
 10
336.25993367668553
 20
188.68
 10
336.6602195378851
 20
188.68
 10
337.0605053990847
 20
188.68
 10
337.4607912602843
 20
188.68
 10
337.86107712148385
 20
188.68
 10
338.26136298268347
 20
188.68
 10
338.66164884388303
 20
188.68
 10
339.06193470508265
 20
188.68
 10
339.4622205662822
 20
188.68
 10
339.8625064274818
 20
188.68
 10
340.26279228868134
 20
188.68
 10
340.66307814988096
 20
188.68
 10
341.0633640110805
 20
188.68
 10
341.4636498722801
 20
188.68
 10
341.8639357334797
 20
188.68
 10
342.26422159467927
 20
188.68
 10
342.6645074558789
 20
188.68
 10
343.06479331707845
 20
188.68
 10
343.465079178278
 20
188.68
 10
343.86536503947764
 20
188.68
 10
344.2656509006772
 20
188.68
 10
344.66593676187676
 20
188.68
 10
345.0662226230764
 20
188.68
 10
345.46650848427595
 20
188.68
 10
345.8667943454755
 20
188.68
 10
346.26708020667513
 20
188.68
 10
346.6673660678747
 20
188.68
 10
347.0676519290743
 20
188.68
 10
347.4679377902739
 20
188.68
 10
347.86822365147344
 20
188.68
 10
348.26850951267306
 20
188.68
 10
348.6687953738726
 20
188.68
 10
349.0690812350722
 20
188.68
 10
349.4693670962718
 20
188.68
 10
349.8696529574714
 20
188.68
 10
350.26993881867094
 20
188.68
 10
350.67022467987056
 20
188.68
 10
351.0705105410701
 20
188.68
 10
351.47079640226974
 20
188.68
 10
351.8710822634693
 20
188.68
 10
352.27136812466887
 20
188.68
 10
352.6716539858685
 20
188.68
 10
353.07193984706805
 20
188.68
 10
353.4722257082676
 20
188.68
 10
353.8725115694672
 20
188.68
 10
354.2727974306668
 20
188.68
 10
354.67308329186636
 20
188.68
 10
355.073369153066
 20
188.68
 10
355.47365501426555
 20
188.68
 10
355.8739408754651
 20
188.68
 10
356.27422673666473
 20
188.68
 10
356.6745125978643
 20
188.68
 10
357.0747984590639
 20
188.68
 10
357.4750843202635
 20
188.68
 10
357.87537018146304
 20
188.68
 10
358.2756560426626
 20
188.68
 10
358.6759419038622
 20
188.68
 10
359.0762277650618
 20
188.68
 10
359.4765136262614
 20
188.68
 10
359.87679948746097
 20
188.68
 10
360.27708534866053
 20
188.68
 10
360.67737120986015
 20
188.68
 10
361.0776570710597
 20
188.68
 10
361.47794293225934
 20
188.68
 10
361.8782287934589
 20
188.68
 10
362.27851465465847
 20
188.68
 10
362.67880051585803
 20
188.68
 10
363.07908637705765
 20
188.68
 10
363.4793722382572
 20
188.68
 10
363.87965809945683
 20
188.68
 10
364.2799439606564
 20
188.68
 10
364.68022982185596
 20
188.68
 10
365.0805156830556
 20
188.68
 10
365.48080154425514
 20
188.68
 10
365.8810874054547
 20
188.68
 10
366.2813732666543
 20
188.68
 10
366.6816591278539
 20
188.68
 10
367.08194498905345
 20
188.68
 10
367.4822308502531
 20
188.68
 10
367.88251671145264
 20
188.68
 10
368.2828025726522
 20
188.68
 10
368.6830884338518
 20
188.68
 10
369.0833742950514
 20
188.68
 10
369.483660156251
 20
188.68
 10
369.88394601745057
 20
188.68
 10
370.28423187865013
 20
188.68
 10
370.68451773984975
 20
188.68
 10
371.0848036010493
 20
188.68
 10
371.4850894622489
 20
188.68
 10
371.8853753234485
 20
188.68
 10
372.28566118464806
 20
188.68
 10
372.6859470458476
 20
188.68
 10
373.08623290704725
 20
188.68
  0
DIMENSION
  5
F2
330
17
100
AcDbEntity
  8
09_РАЗМЕРЫ
100
AcDbDimension
280
0
  2
*D4
  3
ГОСТ
 10
420.1
 20
158.07999999999998
 30
0.0
 11
417.35
 21
173.38000005000458
 31
0.0
 70
32
 71
5
  1
30,6
100
AcDbAlignedDimension
 13
408.1
 23
158.07999999999998
 33
0.0
 14
408.1
 24
188.68000010000915
 34
0.0
 50
90.0
100
AcDbRotatedDimension
1001
ACAD
1000
DSTYLE
1002
{
1070
340
1005
99
1002
}
  0
TEXT
  5
101
330
17
100
AcDbEntity
  8
08_ТЕКСТ
100
AcDbText
 10
330.0
 20
202.68000010000915
 30
0.0
 40
5.0
  1
А-А
  7
ГОСТ
 72
1
 11
330.0
 21
202.68000010000915
 31
0.0
100
AcDbText
 73
1
  0
LWPOLYLINE
  5
102
330
17
100
AcDbEntity
  8
00_РАМКА
100
AcDbPolyline
 90
4
 70
1
 10
0.0
 20
0.0
 10
420.0
 20
0.0
 10
420.0
 20
297.0
 10
0.0
 20
297.0
  0
LWPOLYLINE
  5
103
330
17
100
AcDbEntity
  8
00_РАМКА
100
AcDbPolyline
 90
4
 70
1
 10
20.0
 20
5.0
 10
415.0
 20
5.0
 10
415.0
 20
292.0
 10
20.0
 20
292.0
  0
LWPOLYLINE
  5
104
330
17
100
AcDbEntity
  8
00_РАМКА
100
AcDbPolyline
 90
4
 70
1
 10
230.0
 20
5.0
 10
415.0
 20
5.0
 10
415.0
 20
60.0
 10
230.0
 20
60.0
  0
LINE
  5
105
330
17
100
AcDbEntity
  8
00_РАМКА
100
AcDbLine
 10
230.0
 20
17.0
 30
0.0
 11
415.0
 21
17.0
 31
0.0
  0
LINE
  5
106
330
17
100
AcDbEntity
  8
00_РАМКА
100
AcDbLine
 10
230.0
 20
29.0
 30
0.0
 11
415.0
 21
29.0
 31
0.0
  0
LINE
  5
107
330
17
100
AcDbEntity
  8
00_РАМКА
100
AcDbLine
 10
230.0
 20
41.0
 30
0.0
 11
415.0
 21
41.0
 31
0.0
  0
LINE
  5
108
330
17
100
AcDbEntity
  8
00_РАМКА
100
AcDbLine
 10
350.0
 20
5.0
 30
0.0
 11
350.0
 21
41.0
 31
0.0
  0
TEXT
  5
109
330
17
100
AcDbEntity
  8
08_ТЕКСТ
100
AcDbText
 10
233.0
 20
50.5
 30
0.0
 40
5.0
  1
Ящик стержневой
  7
ГОСТ
 11
233.0
 21
50.5
 31
0.0
100
AcDbText
 73
2
  0
TEXT
  5
10A
330
17
100
AcDbEntity
  8
08_ТЕКСТ
100
AcDbText
 10
233.0
 20
37.8
 30
0.0
 40
2.5
  1
Оснастка - стержень Ст. 2 полости рукоятки корпуса
  7
ГОСТ
 11
233.0
 21
37.8
 31
0.0
100
AcDbText
 73
2
  0
TEXT
  5
10B
330
17
100
AcDbEntity
  8
08_ТЕКСТ
100
AcDbText
 10
233.0
 20
32.2
 30
0.0
 40
2.5
  1
ВГ-2026.46.01
  7
ГОСТ
 11
233.0
 21
32.2
 31
0.0
100
AcDbText
 73
2
  0
TEXT
  5
10C
330
17
100
AcDbEntity
  8
08_ТЕКСТ
100
AcDbText
 10
233.0
 20
23.0
 30
0.0
 40
4.5
  1
ВГ-2026.46.01-СЯ2
  7
ГОСТ
 11
233.0
 21
23.0
 31
0.0
100
AcDbText
 73
2
  0
TEXT
  5
10D
330
17
100
AcDbEntity
  8
08_ТЕКСТ
100
AcDbText
 10
353.0
 20
23.0
 30
0.0
 40
3.5
  1
Масштаб 1 : 1
  7
ГОСТ
 11
353.0
 21
23.0
 31
0.0
100
AcDbText
 73
2
  0
TEXT
  5
10E
330
17
100
AcDbEntity
  8
08_ТЕКСТ
100
AcDbText
 10
233.0
 20
11.0
 30
0.0
 40
2.5
  1
Берёза ГОСТ 2695-83
  7
ГОСТ
 11
233.0
 21
11.0
 31
0.0
100
AcDbText
 73
2
  0
TEXT
  5
10F
330
17
100
AcDbEntity
  8
08_ТЕКСТ
100
AcDbText
 10
353.0
 20
11.0
 30
0.0
 40
3.0
  1
Формат A3
  7
ГОСТ
 11
353.0
 21
11.0
 31
0.0
100
AcDbText
 73
2
  0
TEXT
  5
110
330
17
100
AcDbEntity
  8
08_ТЕКСТ
100
AcDbText
 10
233.0
 20
64.0
 30
0.0
 40
3.0
  1
УЖЦ ОСК 2026 · «Волжский Горизонт» · ПБ «Без границ»
  7
ГОСТ
 11
233.0
 21
64.0
 31
0.0
100
AcDbText
 73
2
  0
TEXT
  5
111
330
17
100
AcDbEntity
  8
08_ТЕКСТ
100
AcDbText
 10
233.0
 20
91.0
 30
0.0
 40
2.5
  1
1. Ящик деревянный из двух половин с разъёмом по оси, берёза ГОСТ 2695-83. Размеры полости - с
  7
ГОСТ
 11
233.0
 21
91.0
 31
0.0
100
AcDbText
 73
2
  0
TEXT
  5
112
330
17
100
AcDbEntity
  8
08_ТЕКСТ
100
AcDbText
 10
233.0
 20
86.0
 30
0.0
 40
2.5
  1
    усадкой 2,0 %.
  7
ГОСТ
 11
233.0
 21
86.0
 31
0.0
100
AcDbText
 73
2
  0
TEXT
  5
113
330
17
100
AcDbEntity
  8
08_ТЕКСТ
100
AcDbText
 10
233.0
 20
81.0
 30
0.0
 40
2.5
  1
2. Стержень Ст. 2 - ХТС, засыпка сверху, уплотнение вибрацией, съём через 35 мин.
  7
ГОСТ
 11
233.0
 21
81.0
 31
0.0
100
AcDbText
 73
2
  0
TEXT
  5
114
330
17
100
AcDbEntity
  8
08_ТЕКСТ
100
AcDbText
 10
233.0
 20
76.0
 30
0.0
 40
2.5
  1
3. Неуказанные размеры полости - по электронной модели стержня. Рабочие поверхности Ra 3,2,
  7
ГОСТ
 11
233.0
 21
76.0
 31
0.0
100
AcDbText
 73
2
  0
TEXT
  5
115
330
17
100
AcDbEntity
  8
08_ТЕКСТ
100
AcDbText
 10
233.0
 20
71.0
 30
0.0
 40
2.5
  1
    покрыть лаком.
  7
ГОСТ
 11
233.0
 21
71.0
 31
0.0
100
AcDbText
 73
2
  0
TEXT
  5
116
330
17
100
AcDbEntity
  8
08_ТЕКСТ
100
AcDbText
 10
233.0
 20
97.5
 30
0.0
 40
3.5
  1
Технические требования
  7
ГОСТ
 11
233.0
 21
97.5
 31
0.0
100
AcDbText
 73
2
  0
ENDSEC
  0
SECTION
  2
OBJECTS
  0
DICTIONARY
  5
A
330
0
100
AcDbDictionary
281
1
  3
ACAD_COLOR
350
B
  3
ACAD_GROUP
350
C
  3
ACAD_LAYOUT
350
D
  3
ACAD_MATERIAL
350
E
  3
ACAD_MLEADERSTYLE
350
F
  3
ACAD_MLINESTYLE
350
10
  3
ACAD_PLOTSETTINGS
350
11
  3
ACAD_PLOTSTYLENAME
350
12
  3
ACAD_SCALELIST
350
14
  3
ACAD_TABLESTYLE
350
15
  3
ACAD_VISUALSTYLE
350
16
  3
EZDXF_META
350
2D
  0
DICTIONARY
  5
B
330
A
100
AcDbDictionary
281
1
  0
DICTIONARY
  5
C
330
A
100
AcDbDictionary
281
1
  0
DICTIONARY
  5
D
330
A
100
AcDbDictionary
281
1
  3
Model
350
1A
  3
Layout1
350
1E
  0
DICTIONARY
  5
E
330
A
100
AcDbDictionary
281
1
  3
ByBlock
350
1F
  3
ByLayer
350
20
  3
Global
350
21
  0
DICTIONARY
  5
F
330
A
100
AcDbDictionary
281
1
  3
Standard
350
2C
  0
DICTIONARY
  5
10
330
A
100
AcDbDictionary
281
1
  3
Standard
350
22
  0
DICTIONARY
  5
11
330
A
100
AcDbDictionary
281
1
  0
ACDBDICTIONARYWDFLT
  5
12
330
A
100
AcDbDictionary
281
1
  3
Normal
350
13
100
AcDbDictionaryWithDefault
340
13
  0
ACDBPLACEHOLDER
  5
13
330
12
  0
DICTIONARY
  5
14
330
A
100
AcDbDictionary
281
1
  0
DICTIONARY
  5
15
330
A
100
AcDbDictionary
281
1
  0
DICTIONARY
  5
16
330
A
100
AcDbDictionary
281
1
  3
2dWireframe
350
5A
  3
Basic
350
5B
  3
Brighten
350
5C
  3
ColorChange
350
5D
  3
Conceptual
350
5E
  3
Dim
350
5F
  3
EdgeColorOff
350
60
  3
Facepattern
350
61
  3
Flat
350
62
  3
FlatWithEdges
350
63
  3
Gouraud
350
64
  3
GouraudWithEdges
350
65
  3
Hidden
350
66
  3
JitterOff
350
67
  3
Linepattern
350
68
  3
Modeling
350
69
  3
OverhangOff
350
6A
  3
Realistic
350
6B
  3
Shaded
350
6C
  3
Shaded with edges
350
6D
  3
Shades of Gray
350
6E
  3
Sketchy
350
6F
  3
Thicken
350
70
  3
Wireframe
350
71
  3
X-Ray
350
72
  0
LAYOUT
  5
1A
330
D
100
AcDbPlotSettings
  1

  4
A3
  6

 40
7.5
 41
20.0
 42
7.5
 43
20.0
 44
420.0
 45
297.0
 46
0.0
 47
0.0
 48
0.0
 49
0.0
140
0.0
141
0.0
142
1.0
143
1.0
 70
1024
 72
1
 73
0
 74
5
  7

 75
16
 76
0
 77
2
 78
300
147
1.0
148
0.0
149
0.0
100
AcDbLayout
  1
Model
 70
1
 71
0
 10
0.0
 20
0.0
 11
420.0
 21
297.0
 12
0.0
 22
0.0
 32
0.0
 14
1e+20
 24
1e+20
 34
1e+20
 15
-1e+20
 25
-1e+20
 35
-1e+20
146
0.0
 13
0.0
 23
0.0
 33
0.0
 16
1.0
 26
0.0
 36
0.0
 17
0.0
 27
1.0
 37
0.0
 76
1
330
17
  0
LAYOUT
  5
1E
330
D
100
AcDbPlotSettings
  1

  4
A3
  6

 40
7.5
 41
20.0
 42
7.5
 43
20.0
 44
420.0
 45
297.0
 46
0.0
 47
0.0
 48
0.0
 49
0.0
140
0.0
141
0.0
142
1.0
143
1.0
 70
0
 72
1
 73
0
 74
5
  7

 75
16
 76
0
 77
2
 78
300
147
1.0
148
0.0
149
0.0
100
AcDbLayout
  1
Layout1
 70
1
 71
1
 10
0.0
 20
0.0
 11
420.0
 21
297.0
 12
0.0
 22
0.0
 32
0.0
 14
1e+20
 24
1e+20
 34
1e+20
 15
-1e+20
 25
-1e+20
 35
-1e+20
146
0.0
 13
0.0
 23
0.0
 33
0.0
 16
1.0
 26
0.0
 36
0.0
 17
0.0
 27
1.0
 37
0.0
 76
1
330
1B
  0
MATERIAL
  5
1F
102
{ACAD_REACTORS
330
E
102
}
330
E
100
AcDbMaterial
  1
ByBlock
  2

 70
0
 40
1.0
 71
1
 41
1.0
 91
-1023410177
 42
1.0
 72
1
  3

 73
1
 74
1
 75
1
 44
0.5
 73
0
 45
1.0
 46
1.0
 77
1
  4

 78
1
 79
1
170
1
 48
1.0
171
1
  6

172
1
173
1
174
1
140
1.0
141
1.0
175
1
  7

176
1
177
1
178
1
143
1.0
179
1
  8

270
1
271
1
272
1
145
1.0
146
1.0
273
1
  9

274
1
275
1
276
1
 42
1.0
 72
1
  3

 73
1
 74
1
 75
1
 94
63
  0
MATERIAL
  5
20
102
{ACAD_REACTORS
330
E
102
}
330
E
100
AcDbMaterial
  1
ByLayer
  2

 70
0
 40
1.0
 71
1
 41
1.0
 91
-1023410177
 42
1.0
 72
1
  3

 73
1
 74
1
 75
1
 44
0.5
 73
0
 45
1.0
 46
1.0
 77
1
  4

 78
1
 79
1
170
1
 48
1.0
171
1
  6

172
1
173
1
174
1
140
1.0
141
1.0
175
1
  7

176
1
177
1
178
1
143
1.0
179
1
  8

270
1
271
1
272
1
145
1.0
146
1.0
273
1
  9

274
1
275
1
276
1
 42
1.0
 72
1
  3

 73
1
 74
1
 75
1
 94
63
  0
MATERIAL
  5
21
102
{ACAD_REACTORS
330
E
102
}
330
E
100
AcDbMaterial
  1
Global
  2

 70
0
 40
1.0
 71
1
 41
1.0
 91
-1023410177
 42
1.0
 72
1
  3

 73
1
 74
1
 75
1
 44
0.5
 73
0
 45
1.0
 46
1.0
 77
1
  4

 78
1
 79
1
170
1
 48
1.0
171
1
  6

172
1
173
1
174
1
140
1.0
141
1.0
175
1
  7

176
1
177
1
178
1
143
1.0
179
1
  8

270
1
271
1
272
1
145
1.0
146
1.0
273
1
  9

274
1
275
1
276
1
 42
1.0
 72
1
  3

 73
1
 74
1
 75
1
 94
63
  0
MLINESTYLE
  5
22
102
{ACAD_REACTORS
330
10
102
}
330
10
100
AcDbMlineStyle
  2
Standard
 70
0
  3

 62
256
 51
90.0
 52
90.0
 71
2
 49
0.5
 62
256
  6
BYLAYER
 49
-0.5
 62
256
  6
BYLAYER
  0
MLEADERSTYLE
  5
2C
102
{ACAD_REACTORS
330
F
102
}
330
F
100
AcDbMLeaderStyle
179
2
170
2
171
1
172
0
 90
2
 40
0.0
 41
0.0
173
1
 91
-1056964608
 92
-2
290
1
 42
2.0
291
1
 43
8.0
  3
Standard
 44
4.0
300

342
29
174
1
175
1
176
0
178
1
 93
-1056964608
 45
4.0
292
0
297
0
 46
4.0
 94
-1056964608
 47
1.0
 49
1.0
140
1.0
294
1
141
0.0
177
0
142
1.0
295
0
296
0
143
3.75
271
0
272
9
273
9
  0
DICTIONARY
  5
2D
330
A
100
AcDbDictionary
280
1
281
1
  3
CREATED_BY_EZDXF
350
2E
  3
WRITTEN_BY_EZDXF
350
119
  0
DICTIONARYVAR
  5
2E
330
2D
100
DictionaryVariables
280
0
  1
1.4.4 @ 2026-09-24T00:12:10.869305+00:00
  0
VISUALSTYLE
  5
5A
102
{ACAD_REACTORS
330
16
102
}
330
16
100
AcDbVisualStyle
  2
2dWireframe
 70
4
177
3
291
0
 70
58
 90
2
176
1
 90
2
176
1
 90
0
176
1
 90
0
176
1
 40
0.6
176
1
 40
30.0
176
1
 62
7
420
16777215
176
1
 90
1
176
1
 90
4
176
1
 62
7
176
1
 62
257
176
1
 90
1
176
1
 90
1
176
1
 40
1.0
176
1
 90
8
176
1
 62
7
176
1
 40
1.0
176
1
 90
1
176
1
 90
6
176
1
 90
2
176
1
 62
7
176
1
 90
5
176
1
 90
0
176
1
 90
0
176
1
290
0
176
1
 90
1
176
1
 40
0.0
176
1
 90
0
176
1
290
1
176
1
290
1
176
1
290
0
176
1
290
0
176
1
290
0
176
1
290
0
176
1
290
0
176
1
290
0
176
1
290
0
176
1
 90
50
176
1
 40
0.0
176
1
 40
1.0
176
1
 90
0
176
1
 62
18
420
0
176
1
 90
50
176
1
 90
3
176
1
 62
5
420
255
176
1
290
0
176
1
 90
50
176
1
 90
50
176
1
 90
50
176
1
290
0
176
1
 90
50
176
1
 62
256
176
0
 40
1.0
176
0
 90
2
176
1
  1
strokes_ogs.tif
176
1
290
0
176
1
 40
1.0
176
1
 40
1.0
176
1
  0
VISUALSTYLE
  5
5B
102
{ACAD_REACTORS
330
16
102
}
330
16
100
AcDbVisualStyle
  2
Basic
 70
7
177
3
291
1
 70
58
 90
2
176
1
 90
2
176
1
 90
0
176
1
 90
1
176
1
 40
0.6
176
1
 40
30.0
176
1
 62
7
420
16777215
176
1
 90
1
176
1
 90
4
176
1
 62
7
176
1
 62
257
176
1
 90
1
176
1
 90
1
176
1
 40
1.0
176
1
 90
8
176
1
 62
7
176
1
 40
1.0
176
1
 90
1
176
1
 90
6
176
1
 90
2
176
1
 62
7
176
1
 90
5
176
1
 90
0
176
1
 90
0
176
1
290
0
176
1
 90
1
176
1
 40
0.0
176
1
 90
0
176
1
290
0
176
1
290
1
176
1
290
1
176
1
290
0
176
1
290
0
176
1
290
0
176
1
290
0
176
1
290
0
176
1
290
0
176
1
 90
50
176
1
 40
0.0
176
1
 40
1.0
176
1
 90
0
176
1
 62
18
420
0
176
1
 90
50
176
1
 90
3
176
1
 62
5
420
255
176
1
290
0
176
1
 90
50
176
1
 90
50
176
1
 90
50
176
1
290
0
176
1
 90
50
176
1
 62
256
176
0
 40
1.0
176
0
 90
2
176
1
  1
strokes_ogs.tif
176
1
290
0
176
1
 40
1.0
176
1
 40
1.0
176
1
  0
VISUALSTYLE
  5
5C
102
{ACAD_REACTORS
330
16
102
}
330
16
100
AcDbVisualStyle
  2
Brighten
 70
12
177
3
291
1
 70
58
 90
2
176
1
 90
2
176
1
 90
0
176
1
 90
2
176
1
 40
0.6
176
1
 40
30.0
176
1
 62
7
420
16777215
176
1
 90
1
176
1
 90
4
176
1
 62
7
176
1
 62
257
176
1
 90
1
176
1
 90
1
176
1
 40
1.0
176
1
 90
8
176
1
 62
7
176
1
 40
1.0
176
1
 90
1
176
1
 90
6
176
1
 90
2
176
1
 62
7
176
1
 90
5
176
1
 90
0
176
1
 90
0
176
1
290
0
176
1
 90
1
176
1
 40
0.0
176
1
 90
0
176
1
290
0
176
1
290
1
176
1
290
1
176
1
290
0
176
1
290
0
176
1
290
0
176
1
290
0
176
1
290
0
176
1
290
0
176
1
 90
50
176
1
 40
0.0
176
1
 40
1.0
176
1
 90
0
176
1
 62
18
420
0
176
1
 90
50
176
1
 90
3
176
1
 62
5
420
255
176
1
290
0
176
1
 90
50
176
1
 90
50
176
1
 90
50
176
1
290
0
176
1
 90
50
176
1
 62
256
176
0
 40
1.0
176
0
 90
2
176
1
  1
strokes_ogs.tif
176
1
290
0
176
1
 40
1.0
176
1
 40
1.0
176
1
  0
VISUALSTYLE
  5
5D
102
{ACAD_REACTORS
330
16
102
}
330
16
100
AcDbVisualStyle
  2
ColorChange
 70
16
177
3
291
1
 70
58
 90
2
176
1
 90
2
176
1
 90
0
176
1
 90
2
176
1
 40
0.6
176
1
 40
30.0
176
1
 62
7
420
16777215
176
1
 90
1
176
1
 90
4
176
1
 62
7
176
1
 62
257
176
1
 90
1
176
1
 90
1
176
1
 40
1.0
176
1
 90
8
176
1
 62
7
176
1
 40
1.0
176
1
 90
1
176
1
 90
6
176
1
 90
2
176
1
 62
7
176
1
 90
5
176
1
 90
0
176
1
 90
0
176
1
290
0
176
1
 90
1
176
1
 40
0.0
176
1
 90
0
176
1
290
0
176
1
290
1
176
1
290
1
176
1
290
0
176
1
290
0
176
1
290
0
176
1
290
0
176
1
290
0
176
1
290
0
176
1
 90
50
176
1
 40
0.0
176
1
 40
1.0
176
1
 90
0
176
1
 62
18
420
0
176
1
 90
50
176
1
 90
3
176
1
 62
5
420
255
176
1
290
0
176
1
 90
50
176
1
 90
50
176
1
 90
50
176
1
290
0
176
1
 90
50
176
1
 62
256
176
0
 40
1.0
176
0
 90
2
176
1
  1
strokes_ogs.tif
176
1
290
0
176
1
 40
1.0
176
1
 40
1.0
176
1
  0
VISUALSTYLE
  5
5E
102
{ACAD_REACTORS
330
16
102
}
330
16
100
AcDbVisualStyle
  2
Conceptual
 70
9
177
3
291
0
 70
58
 90
2
176
1
 90
2
176
1
 90
0
176
1
 90
3
176
1
 40
0.6
176
1
 40
30.0
176
1
 62
7
420
16777215
176
1
 90
1
176
1
 90
4
176
1
 62
7
176
1
 62
257
176
1
 90
1
176
1
 90
1
176
1
 40
1.0
176
1
 90
8
176
1
 62
7
176
1
 40
1.0
176
1
 90
1
176
1
 90
6
176
1
 90
2
176
1
 62
7
176
1
 90
5
176
1
 90
0
176
1
 90
0
176
1
290
0
176
1
 90
1
176
1
 40
0.0
176
1
 90
0
176
1
290
0
176
1
290
1
176
1
290
1
176
1
290
0
176
1
290
0
176
1
290
0
176
1
290
0
176
1
290
0
176
1
290
0
176
1
 90
50
176
1
 40
0.0
176
1
 40
1.0
176
1
 90
0
176
1
 62
18
420
0
176
1
 90
50
176
1
 90
3
176
1
 62
5
420
255
176
1
290
0
176
1
 90
50
176
1
 90
50
176
1
 90
50
176
1
290
0
176
1
 90
50
176
1
 62
256
176
0
 40
1.0
176
0
 90
2
176
1
  1
strokes_ogs.tif
176
1
290
0
176
1
 40
1.0
176
1
 40
1.0
176
1
  0
VISUALSTYLE
  5
5F
102
{ACAD_REACTORS
330
16
102
}
330
16
100
AcDbVisualStyle
  2
Dim
 70
11
177
3
291
1
 70
58
 90
2
176
1
 90
2
176
1
 90
0
176
1
 90
2
176
1
 40
0.6
176
1
 40
30.0
176
1
 62
7
420
16777215
176
1
 90
1
176
1
 90
4
176
1
 62
7
176
1
 62
257
176
1
 90
1
176
1
 90
1
176
1
 40
1.0
176
1
 90
8
176
1
 62
7
176
1
 40
1.0
176
1
 90
1
176
1
 90
6
176
1
 90
2
176
1
 62
7
176
1
 90
5
176
1
 90
0
176
1
 90
0
176
1
290
0
176
1
 90
1
176
1
 40
0.0
176
1
 90
0
176
1
290
0
176
1
290
1
176
1
290
1
176
1
290
0
176
1
290
0
176
1
290
0
176
1
290
0
176
1
290
0
176
1
290
0
176
1
 90
50
176
1
 40
0.0
176
1
 40
1.0
176
1
 90
0
176
1
 62
18
420
0
176
1
 90
50
176
1
 90
3
176
1
 62
5
420
255
176
1
290
0
176
1
 90
50
176
1
 90
50
176
1
 90
50
176
1
290
0
176
1
 90
50
176
1
 62
256
176
0
 40
1.0
176
0
 90
2
176
1
  1
strokes_ogs.tif
176
1
290
0
176
1
 40
1.0
176
1
 40
1.0
176
1
  0
VISUALSTYLE
  5
60
102
{ACAD_REACTORS
330
16
102
}
330
16
100
AcDbVisualStyle
  2
EdgeColorOff
 70
22
177
3
291
1
 70
58
 90
2
176
1
 90
2
176
1
 90
0
176
1
 90
2
176
1
 40
0.6
176
1
 40
30.0
176
1
 62
7
420
16777215
176
1
 90
1
176
1
 90
4
176
1
 62
7
176
1
 62
257
176
1
 90
1
176
1
 90
1
176
1
 40
1.0
176
1
 90
8
176
1
 62
7
176
1
 40
1.0
176
1
 90
1
176
1
 90
6
176
1
 90
2
176
1
 62
7
176
1
 90
5
176
1
 90
0
176
1
 90
0
176
1
290
0
176
1
 90
1
176
1
 40
0.0
176
1
 90
0
176
1
290
0
176
1
290
1
176
1
290
1
176
1
290
0
176
1
290
0
176
1
290
0
176
1
290
0
176
1
290
0
176
1
290
0
176
1
 90
50
176
1
 40
0.0
176
1
 40
1.0
176
1
 90
0
176
1
 62
18
420
0
176
1
 90
50
176
1
 90
3
176
1
 62
5
420
255
176
1
290
0
176
1
 90
50
176
1
 90
50
176
1
 90
50
176
1
290
0
176
1
 90
50
176
1
 62
256
176
0
 40
1.0
176
0
 90
2
176
1
  1
strokes_ogs.tif
176
1
290
0
176
1
 40
1.0
176
1
 40
1.0
176
1
  0
VISUALSTYLE
  5
61
102
{ACAD_REACTORS
330
16
102
}
330
16
100
AcDbVisualStyle
  2
Facepattern
 70
15
177
3
291
1
 70
58
 90
2
176
1
 90
2
176
1
 90
0
176
1
 90
2
176
1
 40
0.6
176
1
 40
30.0
176
1
 62
7
420
16777215
176
1
 90
1
176
1
 90
4
176
1
 62
7
176
1
 62
257
176
1
 90
1
176
1
 90
1
176
1
 40
1.0
176
1
 90
8
176
1
 62
7
176
1
 40
1.0
176
1
 90
1
176
1
 90
6
176
1
 90
2
176
1
 62
7
176
1
 90
5
176
1
 90
0
176
1
 90
0
176
1
290
0
176
1
 90
1
176
1
 40
0.0
176
1
 90
0
176
1
290
0
176
1
290
1
176
1
290
1
176
1
290
0
176
1
290
0
176
1
290
0
176
1
290
0
176
1
290
0
176
1
290
0
176
1
 90
50
176
1
 40
0.0
176
1
 40
1.0
176
1
 90
0
176
1
 62
18
420
0
176
1
 90
50
176
1
 90
3
176
1
 62
5
420
255
176
1
290
0
176
1
 90
50
176
1
 90
50
176
1
 90
50
176
1
290
0
176
1
 90
50
176
1
 62
256
176
0
 40
1.0
176
0
 90
2
176
1
  1
strokes_ogs.tif
176
1
290
0
176
1
 40
1.0
176
1
 40
1.0
176
1
  0
VISUALSTYLE
  5
62
102
{ACAD_REACTORS
330
16
102
}
330
16
100
AcDbVisualStyle
  2
Flat
 70
0
177
3
291
1
 70
58
 90
2
176
1
 90
2
176
1
 90
0
176
1
 90
2
176
1
 40
0.6
176
1
 40
30.0
176
1
 62
7
420
16777215
176
1
 90
1
176
1
 90
4
176
1
 62
7
176
1
 62
257
176
1
 90
1
176
1
 90
1
176
1
 40
1.0
176
1
 90
8
176
1
 62
7
176
1
 40
1.0
176
1
 90
1
176
1
 90
6
176
1
 90
2
176
1
 62
7
176
1
 90
5
176
1
 90
0
176
1
 90
0
176
1
290
0
176
1
 90
1
176
1
 40
0.0
176
1
 90
0
176
1
290
0
176
1
290
1
176
1
290
1
176
1
290
0
176
1
290
0
176
1
290
0
176
1
290
0
176
1
290
0
176
1
290
0
176
1
 90
50
176
1
 40
0.0
176
1
 40
1.0
176
1
 90
0
176
1
 62
18
420
0
176
1
 90
50
176
1
 90
3
176
1
 62
5
420
255
176
1
290
0
176
1
 90
50
176
1
 90
50
176
1
 90
50
176
1
290
0
176
1
 90
50
176
1
 62
256
176
0
 40
1.0
176
0
 90
2
176
1
  1
strokes_ogs.tif
176
1
290
0
176
1
 40
1.0
176
1
 40
1.0
176
1
  0
VISUALSTYLE
  5
63
102
{ACAD_REACTORS
330
16
102
}
330
16
100
AcDbVisualStyle
  2
FlatWithEdges
 70
1
177
3
291
1
 70
58
 90
2
176
1
 90
2
176
1
 90
0
176
1
 90
2
176
1
 40
0.6
176
1
 40
30.0
176
1
 62
7
420
16777215
176
1
 90
1
176
1
 90
4
176
1
 62
7
176
1
 62
257
176
1
 90
1
176
1
 90
1
176
1
 40
1.0
176
1
 90
8
176
1
 62
7
176
1
 40
1.0
176
1
 90
1
176
1
 90
6
176
1
 90
2
176
1
 62
7
176
1
 90
5
176
1
 90
0
176
1
 90
0
176
1
290
0
176
1
 90
1
176
1
 40
0.0
176
1
 90
0
176
1
290
0
176
1
290
1
176
1
290
1
176
1
290
0
176
1
290
0
176
1
290
0
176
1
290
0
176
1
290
0
176
1
290
0
176
1
 90
50
176
1
 40
0.0
176
1
 40
1.0
176
1
 90
0
176
1
 62
18
420
0
176
1
 90
50
176
1
 90
3
176
1
 62
5
420
255
176
1
290
0
176
1
 90
50
176
1
 90
50
176
1
 90
50
176
1
290
0
176
1
 90
50
176
1
 62
256
176
0
 40
1.0
176
0
 90
2
176
1
  1
strokes_ogs.tif
176
1
290
0
176
1
 40
1.0
176
1
 40
1.0
176
1
  0
VISUALSTYLE
  5
64
102
{ACAD_REACTORS
330
16
102
}
330
16
100
AcDbVisualStyle
  2
Gouraud
 70
2
177
3
291
1
 70
58
 90
2
176
1
 90
2
176
1
 90
0
176
1
 90
2
176
1
 40
0.6
176
1
 40
30.0
176
1
 62
7
420
16777215
176
1
 90
1
176
1
 90
4
176
1
 62
7
176
1
 62
257
176
1
 90
1
176
1
 90
1
176
1
 40
1.0
176
1
 90
8
176
1
 62
7
176
1
 40
1.0
176
1
 90
1
176
1
 90
6
176
1
 90
2
176
1
 62
7
176
1
 90
5
176
1
 90
0
176
1
 90
0
176
1
290
0
176
1
 90
1
176
1
 40
0.0
176
1
 90
0
176
1
290
0
176
1
290
1
176
1
290
1
176
1
290
0
176
1
290
0
176
1
290
0
176
1
290
0
176
1
290
0
176
1
290
0
176
1
 90
50
176
1
 40
0.0
176
1
 40
1.0
176
1
 90
0
176
1
 62
18
420
0
176
1
 90
50
176
1
 90
3
176
1
 62
5
420
255
176
1
290
0
176
1
 90
50
176
1
 90
50
176
1
 90
50
176
1
290
0
176
1
 90
50
176
1
 62
256
176
0
 40
1.0
176
0
 90
2
176
1
  1
strokes_ogs.tif
176
1
290
0
176
1
 40
1.0
176
1
 40
1.0
176
1
  0
VISUALSTYLE
  5
65
102
{ACAD_REACTORS
330
16
102
}
330
16
100
AcDbVisualStyle
  2
GouraudWithEdges
 70
3
177
3
291
1
 70
58
 90
2
176
1
 90
2
176
1
 90
0
176
1
 90
2
176
1
 40
0.6
176
1
 40
30.0
176
1
 62
7
420
16777215
176
1
 90
1
176
1
 90
4
176
1
 62
7
176
1
 62
257
176
1
 90
1
176
1
 90
1
176
1
 40
1.0
176
1
 90
8
176
1
 62
7
176
1
 40
1.0
176
1
 90
1
176
1
 90
6
176
1
 90
2
176
1
 62
7
176
1
 90
5
176
1
 90
0
176
1
 90
0
176
1
290
0
176
1
 90
1
176
1
 40
0.0
176
1
 90
0
176
1
290
0
176
1
290
1
176
1
290
1
176
1
290
0
176
1
290
0
176
1
290
0
176
1
290
0
176
1
290
0
176
1
290
0
176
1
 90
50
176
1
 40
0.0
176
1
 40
1.0
176
1
 90
0
176
1
 62
18
420
0
176
1
 90
50
176
1
 90
3
176
1
 62
5
420
255
176
1
290
0
176
1
 90
50
176
1
 90
50
176
1
 90
50
176
1
290
0
176
1
 90
50
176
1
 62
256
176
0
 40
1.0
176
0
 90
2
176
1
  1
strokes_ogs.tif
176
1
290
0
176
1
 40
1.0
176
1
 40
1.0
176
1
  0
VISUALSTYLE
  5
66
102
{ACAD_REACTORS
330
16
102
}
330
16
100
AcDbVisualStyle
  2
Hidden
 70
6
177
3
291
0
 70
58
 90
2
176
1
 90
2
176
1
 90
0
176
1
 90
1
176
1
 40
0.6
176
1
 40
30.0
176
1
 62
7
420
16777215
176
1
 90
1
176
1
 90
4
176
1
 62
7
176
1
 62
257
176
1
 90
1
176
1
 90
1
176
1
 40
1.0
176
1
 90
8
176
1
 62
7
176
1
 40
1.0
176
1
 90
1
176
1
 90
6
176
1
 90
2
176
1
 62
7
176
1
 90
5
176
1
 90
0
176
1
 90
0
176
1
290
0
176
1
 90
1
176
1
 40
0.0
176
1
 90
0
176
1
290
0
176
1
290
1
176
1
290
1
176
1
290
0
176
1
290
0
176
1
290
0
176
1
290
0
176
1
290
0
176
1
290
0
176
1
 90
50
176
1
 40
0.0
176
1
 40
1.0
176
1
 90
0
176
1
 62
18
420
0
176
1
 90
50
176
1
 90
3
176
1
 62
5
420
255
176
1
290
0
176
1
 90
50
176
1
 90
50
176
1
 90
50
176
1
290
0
176
1
 90
50
176
1
 62
256
176
0
 40
1.0
176
0
 90
2
176
1
  1
strokes_ogs.tif
176
1
290
0
176
1
 40
1.0
176
1
 40
1.0
176
1
  0
VISUALSTYLE
  5
67
102
{ACAD_REACTORS
330
16
102
}
330
16
100
AcDbVisualStyle
  2
JitterOff
 70
20
177
3
291
1
 70
58
 90
2
176
1
 90
2
176
1
 90
0
176
1
 90
2
176
1
 40
0.6
176
1
 40
30.0
176
1
 62
7
420
16777215
176
1
 90
1
176
1
 90
4
176
1
 62
7
176
1
 62
257
176
1
 90
1
176
1
 90
1
176
1
 40
1.0
176
1
 90
8
176
1
 62
7
176
1
 40
1.0
176
1
 90
1
176
1
 90
6
176
1
 90
2
176
1
 62
7
176
1
 90
5
176
1
 90
0
176
1
 90
0
176
1
290
0
176
1
 90
1
176
1
 40
0.0
176
1
 90
0
176
1
290
0
176
1
290
1
176
1
290
1
176
1
290
0
176
1
290
0
176
1
290
0
176
1
290
0
176
1
290
0
176
1
290
0
176
1
 90
50
176
1
 40
0.0
176
1
 40
1.0
176
1
 90
0
176
1
 62
18
420
0
176
1
 90
50
176
1
 90
3
176
1
 62
5
420
255
176
1
290
0
176
1
 90
50
176
1
 90
50
176
1
 90
50
176
1
290
0
176
1
 90
50
176
1
 62
256
176
0
 40
1.0
176
0
 90
2
176
1
  1
strokes_ogs.tif
176
1
290
0
176
1
 40
1.0
176
1
 40
1.0
176
1
  0
VISUALSTYLE
  5
68
102
{ACAD_REACTORS
330
16
102
}
330
16
100
AcDbVisualStyle
  2
Linepattern
 70
14
177
3
291
1
 70
58
 90
2
176
1
 90
2
176
1
 90
0
176
1
 90
2
176
1
 40
0.6
176
1
 40
30.0
176
1
 62
7
420
16777215
176
1
 90
1
176
1
 90
4
176
1
 62
7
176
1
 62
257
176
1
 90
1
176
1
 90
1
176
1
 40
1.0
176
1
 90
8
176
1
 62
7
176
1
 40
1.0
176
1
 90
1
176
1
 90
6
176
1
 90
2
176
1
 62
7
176
1
 90
5
176
1
 90
0
176
1
 90
0
176
1
290
0
176
1
 90
1
176
1
 40
0.0
176
1
 90
0
176
1
290
0
176
1
290
1
176
1
290
1
176
1
290
0
176
1
290
0
176
1
290
0
176
1
290
0
176
1
290
0
176
1
290
0
176
1
 90
50
176
1
 40
0.0
176
1
 40
1.0
176
1
 90
0
176
1
 62
18
420
0
176
1
 90
50
176
1
 90
3
176
1
 62
5
420
255
176
1
290
0
176
1
 90
50
176
1
 90
50
176
1
 90
50
176
1
290
0
176
1
 90
50
176
1
 62
256
176
0
 40
1.0
176
0
 90
2
176
1
  1
strokes_ogs.tif
176
1
290
0
176
1
 40
1.0
176
1
 40
1.0
176
1
  0
VISUALSTYLE
  5
69
102
{ACAD_REACTORS
330
16
102
}
330
16
100
AcDbVisualStyle
  2
Modeling
 70
10
177
3
291
0
 70
58
 90
2
176
1
 90
2
176
1
 90
0
176
1
 90
2
176
1
 40
0.6
176
1
 40
30.0
176
1
 62
7
420
16777215
176
1
 90
1
176
1
 90
4
176
1
 62
7
176
1
 62
257
176
1
 90
1
176
1
 90
1
176
1
 40
1.0
176
1
 90
8
176
1
 62
7
176
1
 40
1.0
176
1
 90
1
176
1
 90
6
176
1
 90
2
176
1
 62
7
176
1
 90
5
176
1
 90
0
176
1
 90
0
176
1
290
0
176
1
 90
1
176
1
 40
0.0
176
1
 90
0
176
1
290
0
176
1
290
1
176
1
290
1
176
1
290
0
176
1
290
0
176
1
290
0
176
1
290
0
176
1
290
0
176
1
290
0
176
1
 90
50
176
1
 40
0.0
176
1
 40
1.0
176
1
 90
0
176
1
 62
18
420
0
176
1
 90
50
176
1
 90
3
176
1
 62
5
420
255
176
1
290
0
176
1
 90
50
176
1
 90
50
176
1
 90
50
176
1
290
0
176
1
 90
50
176
1
 62
256
176
0
 40
1.0
176
0
 90
2
176
1
  1
strokes_ogs.tif
176
1
290
0
176
1
 40
1.0
176
1
 40
1.0
176
1
  0
VISUALSTYLE
  5
6A
102
{ACAD_REACTORS
330
16
102
}
330
16
100
AcDbVisualStyle
  2
OverhangOff
 70
21
177
3
291
1
 70
58
 90
2
176
1
 90
2
176
1
 90
0
176
1
 90
2
176
1
 40
0.6
176
1
 40
30.0
176
1
 62
7
420
16777215
176
1
 90
1
176
1
 90
4
176
1
 62
7
176
1
 62
257
176
1
 90
1
176
1
 90
1
176
1
 40
1.0
176
1
 90
8
176
1
 62
7
176
1
 40
1.0
176
1
 90
1
176
1
 90
6
176
1
 90
2
176
1
 62
7
176
1
 90
5
176
1
 90
0
176
1
 90
0
176
1
290
0
176
1
 90
1
176
1
 40
0.0
176
1
 90
0
176
1
290
0
176
1
290
1
176
1
290
1
176
1
290
0
176
1
290
0
176
1
290
0
176
1
290
0
176
1
290
0
176
1
290
0
176
1
 90
50
176
1
 40
0.0
176
1
 40
1.0
176
1
 90
0
176
1
 62
18
420
0
176
1
 90
50
176
1
 90
3
176
1
 62
5
420
255
176
1
290
0
176
1
 90
50
176
1
 90
50
176
1
 90
50
176
1
290
0
176
1
 90
50
176
1
 62
256
176
0
 40
1.0
176
0
 90
2
176
1
  1
strokes_ogs.tif
176
1
290
0
176
1
 40
1.0
176
1
 40
1.0
176
1
  0
VISUALSTYLE
  5
6B
102
{ACAD_REACTORS
330
16
102
}
330
16
100
AcDbVisualStyle
  2
Realistic
 70
8
177
3
291
0
 70
58
 90
2
176
1
 90
2
176
1
 90
0
176
1
 90
2
176
1
 40
0.6
176
1
 40
30.0
176
1
 62
7
420
16777215
176
1
 90
1
176
1
 90
4
176
1
 62
7
176
1
 62
257
176
1
 90
1
176
1
 90
1
176
1
 40
1.0
176
1
 90
8
176
1
 62
7
176
1
 40
1.0
176
1
 90
1
176
1
 90
6
176
1
 90
2
176
1
 62
7
176
1
 90
5
176
1
 90
0
176
1
 90
0
176
1
290
0
176
1
 90
1
176
1
 40
0.0
176
1
 90
0
176
1
290
0
176
1
290
1
176
1
290
1
176
1
290
0
176
1
290
0
176
1
290
0
176
1
290
0
176
1
290
0
176
1
290
0
176
1
 90
50
176
1
 40
0.0
176
1
 40
1.0
176
1
 90
0
176
1
 62
18
420
0
176
1
 90
50
176
1
 90
3
176
1
 62
5
420
255
176
1
290
0
176
1
 90
50
176
1
 90
50
176
1
 90
50
176
1
290
0
176
1
 90
50
176
1
 62
256
176
0
 40
1.0
176
0
 90
2
176
1
  1
strokes_ogs.tif
176
1
290
0
176
1
 40
1.0
176
1
 40
1.0
176
1
  0
VISUALSTYLE
  5
6C
102
{ACAD_REACTORS
330
16
102
}
330
16
100
AcDbVisualStyle
  2
Shaded
 70
27
177
3
291
0
 70
58
 90
2
176
1
 90
2
176
1
 90
0
176
1
 90
2
176
1
 40
0.6
176
1
 40
30.0
176
1
 62
7
420
16777215
176
1
 90
1
176
1
 90
4
176
1
 62
7
176
1
 62
257
176
1
 90
1
176
1
 90
1
176
1
 40
1.0
176
1
 90
8
176
1
 62
7
176
1
 40
1.0
176
1
 90
1
176
1
 90
6
176
1
 90
2
176
1
 62
7
176
1
 90
5
176
1
 90
0
176
1
 90
0
176
1
290
0
176
1
 90
1
176
1
 40
0.0
176
1
 90
0
176
1
290
0
176
1
290
1
176
1
290
1
176
1
290
0
176
1
290
0
176
1
290
0
176
1
290
0
176
1
290
0
176
1
290
0
176
1
 90
50
176
1
 40
0.0
176
1
 40
1.0
176
1
 90
0
176
1
 62
18
420
0
176
1
 90
50
176
1
 90
3
176
1
 62
5
420
255
176
1
290
0
176
1
 90
50
176
1
 90
50
176
1
 90
50
176
1
290
0
176
1
 90
50
176
1
 62
256
176
0
 40
1.0
176
0
 90
2
176
1
  1
strokes_ogs.tif
176
1
290
0
176
1
 40
1.0
176
1
 40
1.0
176
1
  0
VISUALSTYLE
  5
6D
102
{ACAD_REACTORS
330
16
102
}
330
16
100
AcDbVisualStyle
  2
Shaded with edges
 70
26
177
3
291
0
 70
58
 90
2
176
1
 90
2
176
1
 90
0
176
1
 90
2
176
1
 40
0.6
176
1
 40
30.0
176
1
 62
7
420
16777215
176
1
 90
1
176
1
 90
4
176
1
 62
7
176
1
 62
257
176
1
 90
1
176
1
 90
1
176
1
 40
1.0
176
1
 90
8
176
1
 62
7
176
1
 40
1.0
176
1
 90
1
176
1
 90
6
176
1
 90
2
176
1
 62
7
176
1
 90
5
176
1
 90
0
176
1
 90
0
176
1
290
0
176
1
 90
1
176
1
 40
0.0
176
1
 90
0
176
1
290
0
176
1
290
1
176
1
290
1
176
1
290
0
176
1
290
0
176
1
290
0
176
1
290
0
176
1
290
0
176
1
290
0
176
1
 90
50
176
1
 40
0.0
176
1
 40
1.0
176
1
 90
0
176
1
 62
18
420
0
176
1
 90
50
176
1
 90
3
176
1
 62
5
420
255
176
1
290
0
176
1
 90
50
176
1
 90
50
176
1
 90
50
176
1
290
0
176
1
 90
50
176
1
 62
256
176
0
 40
1.0
176
0
 90
2
176
1
  1
strokes_ogs.tif
176
1
290
0
176
1
 40
1.0
176
1
 40
1.0
176
1
  0
VISUALSTYLE
  5
6E
102
{ACAD_REACTORS
330
16
102
}
330
16
100
AcDbVisualStyle
  2
Shades of Gray
 70
23
177
3
291
0
 70
58
 90
2
176
1
 90
2
176
1
 90
0
176
1
 90
2
176
1
 40
0.6
176
1
 40
30.0
176
1
 62
7
420
16777215
176
1
 90
1
176
1
 90
4
176
1
 62
7
176
1
 62
257
176
1
 90
1
176
1
 90
1
176
1
 40
1.0
176
1
 90
8
176
1
 62
7
176
1
 40
1.0
176
1
 90
1
176
1
 90
6
176
1
 90
2
176
1
 62
7
176
1
 90
5
176
1
 90
0
176
1
 90
0
176
1
290
0
176
1
 90
1
176
1
 40
0.0
176
1
 90
0
176
1
290
0
176
1
290
1
176
1
290
1
176
1
290
0
176
1
290
0
176
1
290
0
176
1
290
0
176
1
290
0
176
1
290
0
176
1
 90
50
176
1
 40
0.0
176
1
 40
1.0
176
1
 90
0
176
1
 62
18
420
0
176
1
 90
50
176
1
 90
3
176
1
 62
5
420
255
176
1
290
0
176
1
 90
50
176
1
 90
50
176
1
 90
50
176
1
290
0
176
1
 90
50
176
1
 62
256
176
0
 40
1.0
176
0
 90
2
176
1
  1
strokes_ogs.tif
176
1
290
0
176
1
 40
1.0
176
1
 40
1.0
176
1
  0
VISUALSTYLE
  5
6F
102
{ACAD_REACTORS
330
16
102
}
330
16
100
AcDbVisualStyle
  2
Sketchy
 70
24
177
3
291
0
 70
58
 90
2
176
1
 90
2
176
1
 90
0
176
1
 90
1
176
1
 40
0.6
176
1
 40
30.0
176
1
 62
7
420
16777215
176
1
 90
1
176
1
 90
4
176
1
 62
7
176
1
 62
257
176
1
 90
1
176
1
 90
1
176
1
 40
1.0
176
1
 90
8
176
1
 62
7
176
1
 40
1.0
176
1
 90
1
176
1
 90
6
176
1
 90
2
176
1
 62
7
176
1
 90
5
176
1
 90
0
176
1
 90
0
176
1
290
0
176
1
 90
1
176
1
 40
0.0
176
1
 90
0
176
1
290
0
176
1
290
1
176
1
290
1
176
1
290
0
176
1
290
0
176
1
290
0
176
1
290
0
176
1
290
0
176
1
290
0
176
1
 90
50
176
1
 40
0.0
176
1
 40
1.0
176
1
 90
0
176
1
 62
18
420
0
176
1
 90
50
176
1
 90
3
176
1
 62
5
420
255
176
1
290
0
176
1
 90
50
176
1
 90
50
176
1
 90
50
176
1
290
0
176
1
 90
50
176
1
 62
256
176
0
 40
1.0
176
0
 90
2
176
1
  1
strokes_ogs.tif
176
1
290
0
176
1
 40
1.0
176
1
 40
1.0
176
1
  0
VISUALSTYLE
  5
70
102
{ACAD_REACTORS
330
16
102
}
330
16
100
AcDbVisualStyle
  2
Thicken
 70
13
177
3
291
1
 70
58
 90
2
176
1
 90
2
176
1
 90
0
176
1
 90
2
176
1
 40
0.6
176
1
 40
30.0
176
1
 62
7
420
16777215
176
1
 90
1
176
1
 90
4
176
1
 62
7
176
1
 62
257
176
1
 90
1
176
1
 90
1
176
1
 40
1.0
176
1
 90
8
176
1
 62
7
176
1
 40
1.0
176
1
 90
1
176
1
 90
6
176
1
 90
2
176
1
 62
7
176
1
 90
5
176
1
 90
0
176
1
 90
0
176
1
290
0
176
1
 90
1
176
1
 40
0.0
176
1
 90
0
176
1
290
0
176
1
290
1
176
1
290
1
176
1
290
0
176
1
290
0
176
1
290
0
176
1
290
0
176
1
290
0
176
1
290
0
176
1
 90
50
176
1
 40
0.0
176
1
 40
1.0
176
1
 90
0
176
1
 62
18
420
0
176
1
 90
50
176
1
 90
3
176
1
 62
5
420
255
176
1
290
0
176
1
 90
50
176
1
 90
50
176
1
 90
50
176
1
290
0
176
1
 90
50
176
1
 62
256
176
0
 40
1.0
176
0
 90
2
176
1
  1
strokes_ogs.tif
176
1
290
0
176
1
 40
1.0
176
1
 40
1.0
176
1
  0
VISUALSTYLE
  5
71
102
{ACAD_REACTORS
330
16
102
}
330
16
100
AcDbVisualStyle
  2
Wireframe
 70
5
177
3
291
0
 70
58
 90
2
176
1
 90
2
176
1
 90
0
176
1
 90
0
176
1
 40
0.6
176
1
 40
30.0
176
1
 62
7
420
16777215
176
1
 90
1
176
1
 90
4
176
1
 62
7
176
1
 62
257
176
1
 90
1
176
1
 90
1
176
1
 40
1.0
176
1
 90
8
176
1
 62
7
176
1
 40
1.0
176
1
 90
1
176
1
 90
6
176
1
 90
2
176
1
 62
7
176
1
 90
5
176
1
 90
0
176
1
 90
0
176
1
290
0
176
1
 90
1
176
1
 40
0.0
176
1
 90
0
176
1
290
0
176
1
290
1
176
1
290
1
176
1
290
0
176
1
290
0
176
1
290
0
176
1
290
0
176
1
290
0
176
1
290
0
176
1
 90
50
176
1
 40
0.0
176
1
 40
1.0
176
1
 90
0
176
1
 62
18
420
0
176
1
 90
50
176
1
 90
3
176
1
 62
5
420
255
176
1
290
0
176
1
 90
50
176
1
 90
50
176
1
 90
50
176
1
290
0
176
1
 90
50
176
1
 62
256
176
0
 40
1.0
176
0
 90
2
176
1
  1
strokes_ogs.tif
176
1
290
0
176
1
 40
1.0
176
1
 40
1.0
176
1
  0
VISUALSTYLE
  5
72
102
{ACAD_REACTORS
330
16
102
}
330
16
100
AcDbVisualStyle
  2
X-Ray
 70
25
177
3
291
0
 70
58
 90
2
176
1
 90
2
176
1
 90
0
176
1
 90
2
176
1
 40
0.5
176
1
 40
30.0
176
1
 62
7
420
16777215
176
1
 90
1
176
1
 90
4
176
1
 62
7
176
1
 62
257
176
1
 90
1
176
1
 90
1
176
1
 40
1.0
176
1
 90
8
176
1
 62
7
176
1
 40
1.0
176
1
 90
1
176
1
 90
6
176
1
 90
2
176
1
 62
7
176
1
 90
5
176
1
 90
0
176
1
 90
0
176
1
290
0
176
1
 90
1
176
1
 40
0.0
176
1
 90
0
176
1
290
0
176
1
290
1
176
1
290
1
176
1
290
0
176
1
290
0
176
1
290
0
176
1
290
0
176
1
290
0
176
1
290
0
176
1
 90
50
176
1
 40
0.0
176
1
 40
1.0
176
1
 90
0
176
1
 62
18
420
0
176
1
 90
50
176
1
 90
3
176
1
 62
5
420
255
176
1
290
0
176
1
 90
50
176
1
 90
50
176
1
 90
50
176
1
290
0
176
1
 90
50
176
1
 62
256
176
0
 40
1.0
176
0
 90
2
176
1
  1
strokes_ogs.tif
176
1
290
0
176
1
 40
1.0
176
1
 40
1.0
176
1
  0
DICTIONARYVAR
  5
119
330
2D
100
DictionaryVariables
280
0
  1
1.4.4 @ 2026-09-24T00:12:11.773859+00:00
  0
ENDSEC
  0
EOF
