  0
SECTION
  2
HEADER
  9
$ACADVER
  1
AC1027
  9
$ACADMAINTVER
 70
105
  9
$DWGCODEPAGE
  3
ANSI_1252
  9
$LASTSAVEDBY
  1
ezdxf
  9
$REQUIREDVERSIONS
160
0
  9
$INSBASE
 10
0.0
 20
0.0
 30
0.0
  9
$EXTMIN
 10
1e+20
 20
1e+20
 30
1e+20
  9
$EXTMAX
 10
-1e+20
 20
-1e+20
 30
-1e+20
  9
$LIMMIN
 10
0.0
 20
0.0
  9
$LIMMAX
 10
420.0
 20
297.0
  9
$ORTHOMODE
 70
0
  9
$REGENMODE
 70
1
  9
$FILLMODE
 70
1
  9
$QTEXTMODE
 70
0
  9
$MIRRTEXT
 70
1
  9
$LTSCALE
 40
0.35
  9
$ATTMODE
 70
1
  9
$TEXTSIZE
 40
2.5
  9
$TRACEWID
 40
1.0
  9
$TEXTSTYLE
  7
OpenSans
  9
$CLAYER
  8
0
  9
$CELTYPE
  6
ByLayer
  9
$CECOLOR
 62
256
  9
$CELTSCALE
 40
1.0
  9
$DISPSILH
 70
0
  9
$DIMSCALE
 40
1.0
  9
$DIMASZ
 40
0.175
  9
$DIMEXO
 40
0.125
  9
$DIMDLI
 40
3.75
  9
$DIMRND
 40
0.0
  9
$DIMDLE
 40
0.0
  9
$DIMEXE
 40
0.375
  9
$DIMTP
 40
0.0
  9
$DIMTM
 40
0.0
  9
$DIMTXT
 40
0.25
  9
$DIMCEN
 40
2.5
  9
$DIMTSZ
 40
0.0
  9
$DIMTOL
 70
0
  9
$DIMLIM
 70
0
  9
$DIMTIH
 70
0
  9
$DIMTOH
 70
0
  9
$DIMSE1
 70
0
  9
$DIMSE2
 70
0
  9
$DIMTAD
 70
1
  9
$DIMZIN
 70
12
  9
$DIMBLK
  1
ARCHTICK
  9
$DIMASO
 70
1
  9
$DIMSHO
 70
1
  9
$DIMPOST
  1

  9
$DIMAPOST
  1

  9
$DIMALT
 70
0
  9
$DIMALTD
 70
3
  9
$DIMALTF
 40
0.03937007874
  9
$DIMLFAC
 40
100.0
  9
$DIMTOFL
 70
1
  9
$DIMTVP
 40
0.0
  9
$DIMTIX
 70
0
  9
$DIMSOXD
 70
0
  9
$DIMSAH
 70
0
  9
$DIMBLK1
  1

  9
$DIMBLK2
  1

  9
$DIMSTYLE
  2
EZDXF
  9
$DIMCLRD
 70
0
  9
$DIMCLRE
 70
0
  9
$DIMCLRT
 70
0
  9
$DIMTFAC
 40
0.5
  9
$DIMGAP
 40
0.1
  9
$DIMJUST
 70
0
  9
$DIMSD1
 70
0
  9
$DIMSD2
 70
0
  9
$DIMTOLJ
 70
0
  9
$DIMTZIN
 70
8
  9
$DIMALTZ
 70
0
  9
$DIMALTTZ
 70
0
  9
$DIMUPT
 70
1
  9
$DIMDEC
 70
2
  9
$DIMTDEC
 70
2
  9
$DIMALTU
 70
2
  9
$DIMALTTD
 70
3
  9
$DIMTXSTY
  7
OpenSansCondensed-Light
  9
$DIMAUNIT
 70
0
  9
$DIMADEC
 70
2
  9
$DIMALTRND
 40
0.0
  9
$DIMAZIN
 70
3
  9
$DIMDSEP
 70
46
  9
$DIMATFIT
 70
3
  9
$DIMFRAC
 70
0
  9
$DIMLDRBLK
  1

  9
$DIMLUNIT
 70
2
  9
$DIMLWD
 70
-2
  9
$DIMLWE
 70
-2
  9
$DIMTMOVE
 70
2
  9
$DIMFXL
 40
1.0
  9
$DIMFXLON
 70
0
  9
$DIMJOGANG
 40
0.785398163397
  9
$DIMTFILL
 70
0
  9
$DIMTFILLCLR
 70
0
  9
$DIMARCSYM
 70
0
  9
$DIMLTYPE
  6

  9
$DIMLTEX1
  6

  9
$DIMLTEX2
  6

  9
$DIMTXTDIRECTION
 70
0
  9
$LUNITS
 70
2
  9
$LUPREC
 70
4
  9
$SKETCHINC
 40
1.0
  9
$FILLETRAD
 40
10.0
  9
$AUNITS
 70
0
  9
$AUPREC
 70
2
  9
$MENU
  1
.
  9
$ELEVATION
 40
0.0
  9
$PELEVATION
 40
0.0
  9
$THICKNESS
 40
0.0
  9
$LIMCHECK
 70
0
  9
$CHAMFERA
 40
0.0
  9
$CHAMFERB
 40
0.0
  9
$CHAMFERC
 40
0.0
  9
$CHAMFERD
 40
0.0
  9
$SKPOLY
 70
0
  9
$TDCREATE
 40
2461308.1338194446
  9
$TDUCREATE
 40
2458532.153996898
  9
$TDUPDATE
 40
2461308.1338194446
  9
$TDUUPDATE
 40
2458532.1544311
  9
$TDINDWG
 40
0.0
  9
$TDUSRTIMER
 40
0.0
  9
$USRTIMER
 70
1
  9
$ANGBASE
 50
0.0
  9
$ANGDIR
 70
0
  9
$PDMODE
 70
0
  9
$PDSIZE
 40
0.0
  9
$PLINEWID
 40
0.0
  9
$SPLFRAME
 70
0
  9
$SPLINETYPE
 70
6
  9
$SPLINESEGS
 70
8
  9
$HANDSEED
  5
127
  9
$SURFTAB1
 70
6
  9
$SURFTAB2
 70
6
  9
$SURFTYPE
 70
6
  9
$SURFU
 70
6
  9
$SURFV
 70
6
  9
$UCSBASE
  2

  9
$UCSNAME
  2

  9
$UCSORG
 10
0.0
 20
0.0
 30
0.0
  9
$UCSXDIR
 10
1.0
 20
0.0
 30
0.0
  9
$UCSYDIR
 10
0.0
 20
1.0
 30
0.0
  9
$UCSORTHOREF
  2

  9
$UCSORTHOVIEW
 70
0
  9
$UCSORGTOP
 10
0.0
 20
0.0
 30
0.0
  9
$UCSORGBOTTOM
 10
0.0
 20
0.0
 30
0.0
  9
$UCSORGLEFT
 10
0.0
 20
0.0
 30
0.0
  9
$UCSORGRIGHT
 10
0.0
 20
0.0
 30
0.0
  9
$UCSORGFRONT
 10
0.0
 20
0.0
 30
0.0
  9
$UCSORGBACK
 10
0.0
 20
0.0
 30
0.0
  9
$PUCSBASE
  2

  9
$PUCSNAME
  2

  9
$PUCSORG
 10
0.0
 20
0.0
 30
0.0
  9
$PUCSXDIR
 10
1.0
 20
0.0
 30
0.0
  9
$PUCSYDIR
 10
0.0
 20
1.0
 30
0.0
  9
$PUCSORTHOREF
  2

  9
$PUCSORTHOVIEW
 70
0
  9
$PUCSORGTOP
 10
0.0
 20
0.0
 30
0.0
  9
$PUCSORGBOTTOM
 10
0.0
 20
0.0
 30
0.0
  9
$PUCSORGLEFT
 10
0.0
 20
0.0
 30
0.0
  9
$PUCSORGRIGHT
 10
0.0
 20
0.0
 30
0.0
  9
$PUCSORGFRONT
 10
0.0
 20
0.0
 30
0.0
  9
$PUCSORGBACK
 10
0.0
 20
0.0
 30
0.0
  9
$USERI1
 70
0
  9
$USERI2
 70
0
  9
$USERI3
 70
0
  9
$USERI4
 70
0
  9
$USERI5
 70
0
  9
$USERR1
 40
0.0
  9
$USERR2
 40
0.0
  9
$USERR3
 40
0.0
  9
$USERR4
 40
0.0
  9
$USERR5
 40
0.0
  9
$WORLDVIEW
 70
1
  9
$SHADEDGE
 70
3
  9
$SHADEDIF
 70
70
  9
$TILEMODE
 70
1
  9
$MAXACTVP
 70
64
  9
$PINSBASE
 10
0.0
 20
0.0
 30
0.0
  9
$PLIMCHECK
 70
0
  9
$PEXTMIN
 10
1e+20
 20
1e+20
 30
1e+20
  9
$PEXTMAX
 10
-1e+20
 20
-1e+20
 30
-1e+20
  9
$PLIMMIN
 10
0.0
 20
0.0
  9
$PLIMMAX
 10
420.0
 20
297.0
  9
$UNITMODE
 70
0
  9
$VISRETAIN
 70
1
  9
$PLINEGEN
 70
0
  9
$PSLTSCALE
 70
1
  9
$TREEDEPTH
 70
3020
  9
$CMLSTYLE
  2
Standard
  9
$CMLJUST
 70
0
  9
$CMLSCALE
 40
20.0
  9
$PROXYGRAPHICS
 70
1
  9
$MEASUREMENT
 70
1
  9
$CELWEIGHT
370
-1
  9
$ENDCAPS
280
0
  9
$JOINSTYLE
280
0
  9
$LWDISPLAY
290
0
  9
$INSUNITS
 70
4
  9
$HYPERLINKBASE
  1

  9
$STYLESHEET
  1

  9
$XEDIT
290
1
  9
$CEPSNTYPE
380
0
  9
$PSTYLEMODE
290
1
  9
$FINGERPRINTGUID
  2
{98396899-EDD0-440C-8317-2F4C06FDB388}
  9
$VERSIONGUID
  2
{CCB83C61-7E18-4664-AEC6-66203938959D}
  9
$EXTNAMES
290
1
  9
$PSVPSCALE
 40
0.0
  9
$OLESTARTUP
290
0
  9
$SORTENTS
280
127
  9
$INDEXCTL
280
0
  9
$HIDETEXT
280
1
  9
$XCLIPFRAME
280
1
  9
$HALOGAP
280
0
  9
$OBSCOLOR
 70
257
  9
$OBSLTYPE
280
0
  9
$INTERSECTIONDISPLAY
280
0
  9
$INTERSECTIONCOLOR
 70
257
  9
$DIMASSOC
280
2
  9
$PROJECTNAME
  1

  9
$CAMERADISPLAY
290
0
  9
$LENSLENGTH
 40
50.0
  9
$CAMERAHEIGHT
 40
0.0
  9
$STEPSPERSEC
 40
24.0
  9
$STEPSIZE
 40
100.0
  9
$3DDWFPREC
 40
2.0
  9
$PSOLWIDTH
 40
0.005
  9
$PSOLHEIGHT
 40
0.08
  9
$LOFTANG1
 40
1.570796326795
  9
$LOFTANG2
 40
1.570796326795
  9
$LOFTMAG1
 40
0.0
  9
$LOFTMAG2
 40
0.0
  9
$LOFTPARAM
 70
7
  9
$LOFTNORMALS
280
1
  9
$LATITUDE
 40
37.795
  9
$LONGITUDE
 40
-122.394
  9
$NORTHDIRECTION
 40
0.0
  9
$TIMEZONE
 70
-8000
  9
$LIGHTGLYPHDISPLAY
280
1
  9
$TILEMODELIGHTSYNCH
280
1
  9
$CMATERIAL
347
20
  9
$SOLIDHIST
280
0
  9
$SHOWHIST
280
1
  9
$DWFFRAME
280
2
  9
$DGNFRAME
280
2
  9
$REALWORLDSCALE
290
1
  9
$INTERFERECOLOR
 62
256
  9
$CSHADOW
280
0
  9
$SHADOWPLANELOCATION
 40
0.0
  0
ENDSEC
  0
SECTION
  2
CLASSES
  0
CLASS
  1
ACDBDICTIONARYWDFLT
  2
AcDbDictionaryWithDefault
  3
ObjectDBX Classes
 90
0
 91
0
280
0
281
0
  0
CLASS
  1
SUN
  2
AcDbSun
  3
SCENEOE
 90
1153
 91
0
280
0
281
0
  0
CLASS
  1
VISUALSTYLE
  2
AcDbVisualStyle
  3
ObjectDBX Classes
 90
4095
 91
0
280
0
281
0
  0
CLASS
  1
MATERIAL
  2
AcDbMaterial
  3
ObjectDBX Classes
 90
1153
 91
0
280
0
281
0
  0
CLASS
  1
SCALE
  2
AcDbScale
  3
ObjectDBX Classes
 90
1153
 91
0
280
0
281
0
  0
CLASS
  1
TABLESTYLE
  2
AcDbTableStyle
  3
ObjectDBX Classes
 90
4095
 91
0
280
0
281
0
  0
CLASS
  1
MLEADERSTYLE
  2
AcDbMLeaderStyle
  3
ACDB_MLEADERSTYLE_CLASS
 90
4095
 91
0
280
0
281
0
  0
CLASS
  1
DICTIONARYVAR
  2
AcDbDictionaryVar
  3
ObjectDBX Classes
 90
0
 91
0
280
0
281
0
  0
CLASS
  1
CELLSTYLEMAP
  2
AcDbCellStyleMap
  3
ObjectDBX Classes
 90
1152
 91
0
280
0
281
0
  0
CLASS
  1
MENTALRAYRENDERSETTINGS
  2
AcDbMentalRayRenderSettings
  3
SCENEOE
 90
1024
 91
0
280
0
281
0
  0
CLASS
  1
ACDBDETAILVIEWSTYLE
  2
AcDbDetailViewStyle
  3
ObjectDBX Classes
 90
1025
 91
0
280
0
281
0
  0
CLASS
  1
ACDBSECTIONVIEWSTYLE
  2
AcDbSectionViewStyle
  3
ObjectDBX Classes
 90
1025
 91
0
280
0
281
0
  0
CLASS
  1
RASTERVARIABLES
  2
AcDbRasterVariables
  3
ISM
 90
0
 91
0
280
0
281
0
  0
CLASS
  1
ACDBPLACEHOLDER
  2
AcDbPlaceHolder
  3
ObjectDBX Classes
 90
0
 91
0
280
0
281
0
  0
CLASS
  1
LAYOUT
  2
AcDbLayout
  3
ObjectDBX Classes
 90
0
 91
0
280
0
281
0
  0
ENDSEC
  0
SECTION
  2
TABLES
  0
TABLE
  2
VPORT
  5
8
330
0
100
AcDbSymbolTable
 70
1
  0
VPORT
  5
23
330
8
100
AcDbSymbolTableRecord
100
AcDbViewportTableRecord
  2
*Active
 70
0
 10
0.0
 20
0.0
 11
1.0
 21
1.0
 12
0.0
 22
0.0
 13
0.0
 23
0.0
 14
0.5
 24
0.5
 15
0.5
 25
0.5
 16
0.0
 26
0.0
 36
1.0
 17
0.0
 27
0.0
 37
0.0
 40
1000.0
 41
1.34
 42
50.0
 43
0.0
 44
0.0
 50
0.0
 51
0.0
 71
0
 72
1000
 73
1
 74
3
 75
0
 76
0
 77
0
 78
0
281
0
 65
0
146
0.0
  0
ENDTAB
  0
TABLE
  2
LTYPE
  5
2
330
0
100
AcDbSymbolTable
 70
21
  0
LTYPE
  5
24
330
2
100
AcDbSymbolTableRecord
100
AcDbLinetypeTableRecord
  2
ByBlock
 70
0
  3

 72
65
 73
0
 40
0.0
  0
LTYPE
  5
25
330
2
100
AcDbSymbolTableRecord
100
AcDbLinetypeTableRecord
  2
ByLayer
 70
0
  3

 72
65
 73
0
 40
0.0
  0
LTYPE
  5
26
330
2
100
AcDbSymbolTableRecord
100
AcDbLinetypeTableRecord
  2
Continuous
 70
0
  3

 72
65
 73
0
 40
0.0
  0
LTYPE
  5
2F
330
2
100
AcDbSymbolTableRecord
100
AcDbLinetypeTableRecord
  2
CENTER
 70
0
  3
Center ____ _ ____ _ ____ _ ____ _ ____ _ ____
 72
65
 73
4
 40
5.08
 49
3.175
 74
0
 49
-0.635
 74
0
 49
0.635
 74
0
 49
-0.635
 74
0
  0
LTYPE
  5
30
330
2
100
AcDbSymbolTableRecord
100
AcDbLinetypeTableRecord
  2
CENTERX2
 70
0
  3
Center (2x) ________  __  ________  __  ________
 72
65
 73
4
 40
8.89
 49
6.35
 74
0
 49
-0.635
 74
0
 49
1.27
 74
0
 49
-0.635
 74
0
  0
LTYPE
  5
31
330
2
100
AcDbSymbolTableRecord
100
AcDbLinetypeTableRecord
  2
CENTER2
 70
0
  3
Center (.5x) ____ _ ____ _ ____ _ ____ _ ____
 72
65
 73
4
 40
2.54
 49
1.587
 74
0
 49
-0.318
 74
0
 49
0.318
 74
0
 49
-0.318
 74
0
  0
LTYPE
  5
32
330
2
100
AcDbSymbolTableRecord
100
AcDbLinetypeTableRecord
  2
DASHED
 70
0
  3
Dashed __ __ __ __ __ __ __ __ __ __ __ __ __ _
 72
65
 73
2
 40
1.524
 49
1.27
 74
0
 49
-0.254
 74
0
  0
LTYPE
  5
33
330
2
100
AcDbSymbolTableRecord
100
AcDbLinetypeTableRecord
  2
DASHEDX2
 70
0
  3
Dashed (2x) ____  ____  ____  ____  ____  ____
 72
65
 73
2
 40
3.048
 49
2.54
 74
0
 49
-0.508
 74
0
  0
LTYPE
  5
34
330
2
100
AcDbSymbolTableRecord
100
AcDbLinetypeTableRecord
  2
DASHED2
 70
0
  3
Dashed (.5x) _ _ _ _ _ _ _ _ _ _ _ _ _ _
 72
65
 73
2
 40
0.762
 49
0.635
 74
0
 49
-0.127
 74
0
  0
LTYPE
  5
35
330
2
100
AcDbSymbolTableRecord
100
AcDbLinetypeTableRecord
  2
PHANTOM
 70
0
  3
Phantom ______  __  __  ______  __  __  ______
 72
65
 73
6
 40
6.35
 49
3.175
 74
0
 49
-0.635
 74
0
 49
0.635
 74
0
 49
-0.635
 74
0
 49
0.635
 74
0
 49
-0.635
 74
0
  0
LTYPE
  5
36
330
2
100
AcDbSymbolTableRecord
100
AcDbLinetypeTableRecord
  2
PHANTOMX2
 70
0
  3
Phantom (2x)____________    ____    ____    ____________
 72
65
 73
6
 40
10.795
 49
6.35
 74
0
 49
-0.635
 74
0
 49
1.27
 74
0
 49
-0.635
 74
0
 49
1.27
 74
0
 49
-0.635
 74
0
  0
LTYPE
  5
37
330
2
100
AcDbSymbolTableRecord
100
AcDbLinetypeTableRecord
  2
PHANTOM2
 70
0
  3
Phantom (.5x) ___ _ _ ___ _ _ ___ _ _ ___ _ _ ___
 72
65
 73
6
 40
3.175
 49
1.587
 74
0
 49
-0.318
 74
0
 49
0.318
 74
0
 49
-0.318
 74
0
 49
0.318
 74
0
 49
-0.318
 74
0
  0
LTYPE
  5
38
330
2
100
AcDbSymbolTableRecord
100
AcDbLinetypeTableRecord
  2
DASHDOT
 70
0
  3
Dash dot __ . __ . __ . __ . __ . __ . __ . __
 72
65
 73
4
 40
3.556
 49
2.54
 74
0
 49
-0.508
 74
0
 49
0.0
 74
0
 49
-0.508
 74
0
  0
LTYPE
  5
39
330
2
100
AcDbSymbolTableRecord
100
AcDbLinetypeTableRecord
  2
DASHDOTX2
 70
0
  3
Dash dot (2x) ____  .  ____  .  ____  .  ____
 72
65
 73
4
 40
6.096
 49
5.08
 74
0
 49
-0.508
 74
0
 49
0.0
 74
0
 49
-0.508
 74
0
  0
LTYPE
  5
3A
330
2
100
AcDbSymbolTableRecord
100
AcDbLinetypeTableRecord
  2
DASHDOT2
 70
0
  3
Dash dot (.5x) _ . _ . _ . _ . _ . _ . _ . _
 72
65
 73
4
 40
1.778
 49
1.27
 74
0
 49
-0.254
 74
0
 49
0.0
 74
0
 49
-0.254
 74
0
  0
LTYPE
  5
3B
330
2
100
AcDbSymbolTableRecord
100
AcDbLinetypeTableRecord
  2
DOT
 70
0
  3
Dot .  .  .  .  .  .  .  .  .  .  .  .  .  .  .  .
 72
65
 73
2
 40
0.508
 49
0.0
 74
0
 49
-0.508
 74
0
  0
LTYPE
  5
3C
330
2
100
AcDbSymbolTableRecord
100
AcDbLinetypeTableRecord
  2
DOTX2
 70
0
  3
Dot (2x) .    .    .    .    .    .    .    . 
 72
65
 73
2
 40
1.016
 49
0.0
 74
0
 49
-1.016
 74
0
  0
LTYPE
  5
3D
330
2
100
AcDbSymbolTableRecord
100
AcDbLinetypeTableRecord
  2
DOT2
 70
0
  3
Dot (.5) . . . . . . . . . . . . . . . . . . . 
 72
65
 73
2
 40
0.254
 49
0.0
 74
0
 49
-0.254
 74
0
  0
LTYPE
  5
3E
330
2
100
AcDbSymbolTableRecord
100
AcDbLinetypeTableRecord
  2
DIVIDE
 70
0
  3
Divide __ . . __ . . __ . . __ . . __ . . __
 72
65
 73
6
 40
4.064
 49
2.54
 74
0
 49
-0.508
 74
0
 49
0.0
 74
0
 49
-0.508
 74
0
 49
0.0
 74
0
 49
-0.508
 74
0
  0
LTYPE
  5
3F
330
2
100
AcDbSymbolTableRecord
100
AcDbLinetypeTableRecord
  2
DIVIDEX2
 70
0
  3
Divide (2x) ____  . .  ____  . .  ____  . .  ____
 72
65
 73
6
 40
6.604
 49
5.08
 74
0
 49
-0.508
 74
0
 49
0.0
 74
0
 49
-0.508
 74
0
 49
0.0
 74
0
 49
-0.508
 74
0
  0
LTYPE
  5
40
330
2
100
AcDbSymbolTableRecord
100
AcDbLinetypeTableRecord
  2
DIVIDE2
 70
0
  3
Divide(.5x) _ . _ . _ . _ . _ . _ . _ . _
 72
65
 73
6
 40
2.032
 49
1.27
 74
0
 49
-0.254
 74
0
 49
0.0
 74
0
 49
-0.254
 74
0
 49
0.0
 74
0
 49
-0.254
 74
0
  0
ENDTAB
  0
TABLE
  2
LAYER
  5
1
330
0
100
AcDbSymbolTable
 70
24
  0
LAYER
  5
27
330
1
100
AcDbSymbolTableRecord
100
AcDbLayerTableRecord
  2
0
 70
0
 62
7
  6
Continuous
370
-3
390
13
347
21
  0
LAYER
  5
28
330
1
100
AcDbSymbolTableRecord
100
AcDbLayerTableRecord
  2
Defpoints
 70
0
 62
7
  6
Continuous
290
0
370
-3
390
13
347
21
  0
LAYER
  5
8A
330
1
100
AcDbSymbolTableRecord
100
AcDbLayerTableRecord
  2
00_РАМКА
 70
0
 62
7
  6
CONTINUOUS
370
-3
390
13
347
21
  0
LAYER
  5
8B
330
1
100
AcDbSymbolTableRecord
100
AcDbLayerTableRecord
  2
01_ОБШИВКА
 70
0
 62
7
  6
CONTINUOUS
370
-3
390
13
347
21
  0
LAYER
  5
8C
330
1
100
AcDbSymbolTableRecord
100
AcDbLayerTableRecord
  2
02_ПАЛУБЫ
 70
0
 62
4
  6
CONTINUOUS
370
-3
390
13
347
21
  0
LAYER
  5
8D
330
1
100
AcDbSymbolTableRecord
100
AcDbLayerTableRecord
  2
03_ПЕРЕБОРКИ
 70
0
 62
1
  6
CONTINUOUS
370
-3
390
13
347
21
  0
LAYER
  5
8E
330
1
100
AcDbSymbolTableRecord
100
AcDbLayerTableRecord
  2
04_ЦИСТЕРНЫ
 70
0
 62
3
  6
CONTINUOUS
370
-3
390
13
347
21
  0
LAYER
  5
8F
330
1
100
AcDbSymbolTableRecord
100
AcDbLayerTableRecord
  2
05_ОБОРУДОВАНИЕ
 70
0
 62
5
  6
CONTINUOUS
370
-3
390
13
347
21
  0
LAYER
  5
90
330
1
100
AcDbSymbolTableRecord
100
AcDbLayerTableRecord
  2
06_ПОМЕЩЕНИЯ
 70
0
 62
8
  6
CONTINUOUS
370
-3
390
13
347
21
  0
LAYER
  5
91
330
1
100
AcDbSymbolTableRecord
100
AcDbLayerTableRecord
  2
07_ОСИ
 70
0
 62
2
  6
CENTER
370
18
390
13
347
21
  0
LAYER
  5
92
330
1
100
AcDbSymbolTableRecord
100
AcDbLayerTableRecord
  2
08_ТЕКСТ
 70
0
 62
7
  6
CONTINUOUS
370
-3
390
13
347
21
  0
LAYER
  5
93
330
1
100
AcDbSymbolTableRecord
100
AcDbLayerTableRecord
  2
09_РАЗМЕРЫ
 70
0
 62
7
  6
CONTINUOUS
370
-3
390
13
347
21
  0
LAYER
  5
94
330
1
100
AcDbSymbolTableRecord
100
AcDbLayerTableRecord
  2
10_НАБОР
 70
0
 62
9
  6
CONTINUOUS
370
-3
390
13
347
21
  0
LAYER
  5
95
330
1
100
AcDbSymbolTableRecord
100
AcDbLayerTableRecord
  2
11_КАЮТЫ
 70
0
 62
30
  6
CONTINUOUS
370
-3
390
13
347
21
  0
LAYER
  5
96
330
1
100
AcDbSymbolTableRecord
100
AcDbLayerTableRecord
  2
12_ТРАПЫ_ЛИФТЫ
 70
0
 62
6
  6
CONTINUOUS
370
-3
390
13
347
21
  0
LAYER
  5
97
330
1
100
AcDbSymbolTableRecord
100
AcDbLayerTableRecord
  2
13_КОЛЁСА
 70
0
 62
1
  6
CONTINUOUS
370
-3
390
13
347
21
  0
LAYER
  5
98
330
1
100
AcDbSymbolTableRecord
100
AcDbLayerTableRecord
  2
14_МЕБЕЛЬ
 70
0
 62
252
  6
CONTINUOUS
370
-3
390
13
347
21
  0
LAYER
  5
9A
330
1
100
AcDbSymbolTableRecord
100
AcDbLayerTableRecord
  2
20_ВИДИМЫЕ
 70
0
 62
7
  6
CONTINUOUS
370
50
390
13
347
21
  0
LAYER
  5
9B
330
1
100
AcDbSymbolTableRecord
100
AcDbLayerTableRecord
  2
21_НЕВИДИМЫЕ
 70
0
 62
7
  6
DASHED
370
25
390
13
347
21
  0
LAYER
  5
9C
330
1
100
AcDbSymbolTableRecord
100
AcDbLayerTableRecord
  2
22_ТОНКИЕ
 70
0
 62
7
  6
CONTINUOUS
370
18
390
13
347
21
  0
LAYER
  5
9D
330
1
100
AcDbSymbolTableRecord
100
AcDbLayerTableRecord
  2
23_ШТРИХОВКА
 70
0
 62
7
  6
CONTINUOUS
370
18
390
13
347
21
  0
LAYER
  5
9E
330
1
100
AcDbSymbolTableRecord
100
AcDbLayerTableRecord
  2
24_ФАНТОМ
 70
0
 62
7
  6
PHANTOM
370
18
390
13
347
21
  0
LAYER
  5
9F
330
1
100
AcDbSymbolTableRecord
100
AcDbLayerTableRecord
  2
25_ЛИТЬЁ
 70
0
 62
7
  6
CONTINUOUS
370
35
390
13
347
21
  0
LAYER
  5
A0
330
1
100
AcDbSymbolTableRecord
100
AcDbLayerTableRecord
  2
26_РАЗЪЁМ
 70
0
 62
7
  6
DASHDOT
370
35
390
13
347
21
  0
ENDTAB
  0
TABLE
  2
STYLE
  5
5
330
0
100
AcDbSymbolTable
 70
27
  0
STYLE
  5
29
330
5
100
AcDbSymbolTableRecord
100
AcDbTextStyleTableRecord
  2
Standard
 70
0
 40
0.0
 41
1.0
 50
0.0
 71
0
 42
2.5
  3
txt
  4

  0
STYLE
  5
41
330
5
100
AcDbSymbolTableRecord
100
AcDbTextStyleTableRecord
  2
OpenSans-Light
 70
0
 40
0.0
 41
1.0
 50
0.0
 71
0
 42
2.5
  3
OpenSans-Light.ttf
  4

  0
STYLE
  5
42
330
5
100
AcDbSymbolTableRecord
100
AcDbTextStyleTableRecord
  2
OpenSans-Light-Italic
 70
0
 40
0.0
 41
1.0
 50
0.0
 71
0
 42
2.5
  3
OpenSans-LightItalic.ttf
  4

  0
STYLE
  5
43
330
5
100
AcDbSymbolTableRecord
100
AcDbTextStyleTableRecord
  2
OpenSans
 70
0
 40
0.0
 41
1.0
 50
0.0
 71
0
 42
2.5
  3
OpenSans-Regular.ttf
  4

  0
STYLE
  5
44
330
5
100
AcDbSymbolTableRecord
100
AcDbTextStyleTableRecord
  2
OpenSans-Italic
 70
0
 40
0.0
 41
1.0
 50
0.0
 71
0
 42
2.5
  3
OpenSans-Italic.ttf
  4

  0
STYLE
  5
45
330
5
100
AcDbSymbolTableRecord
100
AcDbTextStyleTableRecord
  2
OpenSans-SemiBold
 70
0
 40
0.0
 41
1.0
 50
0.0
 71
0
 42
2.5
  3
OpenSans-SemiBold.ttf
  4

  0
STYLE
  5
46
330
5
100
AcDbSymbolTableRecord
100
AcDbTextStyleTableRecord
  2
OpenSans-SemiBoldItalic
 70
0
 40
0.0
 41
1.0
 50
0.0
 71
0
 42
2.5
  3
OpenSans-SemiBoldItalic.ttf
  4

  0
STYLE
  5
47
330
5
100
AcDbSymbolTableRecord
100
AcDbTextStyleTableRecord
  2
OpenSans-Bold
 70
0
 40
0.0
 41
1.0
 50
0.0
 71
0
 42
2.5
  3
OpenSans-Bold.ttf
  4

  0
STYLE
  5
48
330
5
100
AcDbSymbolTableRecord
100
AcDbTextStyleTableRecord
  2
OpenSans-BoldItalic
 70
0
 40
0.0
 41
1.0
 50
0.0
 71
0
 42
2.5
  3
OpenSans-BoldItalic.ttf
  4

  0
STYLE
  5
49
330
5
100
AcDbSymbolTableRecord
100
AcDbTextStyleTableRecord
  2
OpenSans-ExtraBold
 70
0
 40
0.0
 41
1.0
 50
0.0
 71
0
 42
2.5
  3
OpenSans-ExtraBold.ttf
  4

  0
STYLE
  5
4A
330
5
100
AcDbSymbolTableRecord
100
AcDbTextStyleTableRecord
  2
OpenSans-ExtraBoldItalic
 70
0
 40
0.0
 41
1.0
 50
0.0
 71
0
 42
2.5
  3
OpenSans-ExtraBoldItalic.ttf
  4

  0
STYLE
  5
4B
330
5
100
AcDbSymbolTableRecord
100
AcDbTextStyleTableRecord
  2
OpenSansCondensed-Bold
 70
0
 40
0.0
 41
1.0
 50
0.0
 71
0
 42
2.5
  3
OpenSansCondensed-Bold.ttf
  4

  0
STYLE
  5
4C
330
5
100
AcDbSymbolTableRecord
100
AcDbTextStyleTableRecord
  2
OpenSansCondensed-Light
 70
0
 40
0.0
 41
1.0
 50
0.0
 71
0
 42
2.5
  3
OpenSansCondensed-Light.ttf
  4

  0
STYLE
  5
4D
330
5
100
AcDbSymbolTableRecord
100
AcDbTextStyleTableRecord
  2
OpenSansCondensed-Italic
 70
0
 40
0.0
 41
1.0
 50
0.0
 71
0
 42
2.5
  3
OpenSansCondensed-LightItalic.ttf
  4

  0
STYLE
  5
4E
330
5
100
AcDbSymbolTableRecord
100
AcDbTextStyleTableRecord
  2
LiberationSans
 70
0
 40
0.0
 41
1.0
 50
0.0
 71
0
 42
2.5
  3
LiberationSans-Regular.ttf
  4

  0
STYLE
  5
4F
330
5
100
AcDbSymbolTableRecord
100
AcDbTextStyleTableRecord
  2
LiberationSans-Bold
 70
0
 40
0.0
 41
1.0
 50
0.0
 71
0
 42
2.5
  3
LiberationSans-Bold.ttf
  4

  0
STYLE
  5
50
330
5
100
AcDbSymbolTableRecord
100
AcDbTextStyleTableRecord
  2
LiberationSans-BoldItalic
 70
0
 40
0.0
 41
1.0
 50
0.0
 71
0
 42
2.5
  3
LiberationSans-BoldItalic.ttf
  4

  0
STYLE
  5
51
330
5
100
AcDbSymbolTableRecord
100
AcDbTextStyleTableRecord
  2
LiberationSans-Italic
 70
0
 40
0.0
 41
1.0
 50
0.0
 71
0
 42
2.5
  3
LiberationSans-Italic.ttf
  4

  0
STYLE
  5
52
330
5
100
AcDbSymbolTableRecord
100
AcDbTextStyleTableRecord
  2
LiberationSerif
 70
0
 40
0.0
 41
1.0
 50
0.0
 71
0
 42
2.5
  3
LiberationSerif-Regular.ttf
  4

  0
STYLE
  5
53
330
5
100
AcDbSymbolTableRecord
100
AcDbTextStyleTableRecord
  2
LiberationSerif-Bold
 70
0
 40
0.0
 41
1.0
 50
0.0
 71
0
 42
2.5
  3
LiberationSerif-Bold.ttf
  4

  0
STYLE
  5
54
330
5
100
AcDbSymbolTableRecord
100
AcDbTextStyleTableRecord
  2
LiberationSerif-BoldItalic
 70
0
 40
0.0
 41
1.0
 50
0.0
 71
0
 42
2.5
  3
LiberationSerif-BoldItalic.ttf
  4

  0
STYLE
  5
55
330
5
100
AcDbSymbolTableRecord
100
AcDbTextStyleTableRecord
  2
LiberationSerif-Italic
 70
0
 40
0.0
 41
1.0
 50
0.0
 71
0
 42
2.5
  3
LiberationSerif-Italic.ttf
  4

  0
STYLE
  5
56
330
5
100
AcDbSymbolTableRecord
100
AcDbTextStyleTableRecord
  2
LiberationMono
 70
0
 40
0.0
 41
1.0
 50
0.0
 71
0
 42
2.5
  3
LiberationMono-Regular.ttf
  4

  0
STYLE
  5
57
330
5
100
AcDbSymbolTableRecord
100
AcDbTextStyleTableRecord
  2
LiberationMono-Bold
 70
0
 40
0.0
 41
1.0
 50
0.0
 71
0
 42
2.5
  3
LiberationMono-Bold.ttf
  4

  0
STYLE
  5
58
330
5
100
AcDbSymbolTableRecord
100
AcDbTextStyleTableRecord
  2
LiberationMono-BoldItalic
 70
0
 40
0.0
 41
1.0
 50
0.0
 71
0
 42
2.5
  3
LiberationMono-BoldItalic.ttf
  4

  0
STYLE
  5
59
330
5
100
AcDbSymbolTableRecord
100
AcDbTextStyleTableRecord
  2
LiberationMono-Italic
 70
0
 40
0.0
 41
1.0
 50
0.0
 71
0
 42
2.5
  3
LiberationMono-Italic.ttf
  4

  0
STYLE
  5
99
330
5
100
AcDbSymbolTableRecord
100
AcDbTextStyleTableRecord
  2
ГОСТ
 70
0
 40
0.0
 41
1.0
 50
0.0
 71
0
 42
2.5
  3
ISOCPEUR.TTF
  4

  0
ENDTAB
  0
TABLE
  2
VIEW
  5
7
330
0
100
AcDbSymbolTable
 70
0
  0
ENDTAB
  0
TABLE
  2
UCS
  5
6
330
0
100
AcDbSymbolTable
 70
0
  0
ENDTAB
  0
TABLE
  2
APPID
  5
3
330
0
100
AcDbSymbolTable
 70
3
  0
APPID
  5
2A
330
3
100
AcDbSymbolTableRecord
100
AcDbRegAppTableRecord
  2
ACAD
 70
0
  0
APPID
  5
124
330
3
100
AcDbSymbolTableRecord
100
AcDbRegAppTableRecord
  2
HATCHBACKGROUNDCOLOR
 70
0
  0
APPID
  5
125
330
3
100
AcDbSymbolTableRecord
100
AcDbRegAppTableRecord
  2
EZDXF
 70
0
  0
ENDTAB
  0
TABLE
  2
DIMSTYLE
  5
4
330
0
100
AcDbSymbolTable
 70
13
100
AcDbDimStyleTable
  0
DIMSTYLE
105
2B
330
4
100
AcDbSymbolTableRecord
100
AcDbDimStyleTableRecord
  2
Standard
 70
0
 40
1.0
 41
2.5
 42
0.625
 43
3.75
 44
1.25
 45
0.0
 46
0.0
 47
0.0
 48
0.0
 49
2.5
140
2.5
141
2.5
142
0.0
143
0.03937007874
144
1.0
145
0.0
146
1.0
147
0.625
148
0.0
 69
0
 70
0
 71
0
 72
0
 73
0
 74
0
 75
0
 76
0
 77
1
 78
8
 79
3
170
0
171
3
172
1
173
0
174
0
175
0
176
0
177
0
178
0
179
2
271
2
272
2
273
2
274
3
275
0
276
0
277
2
278
44
279
0
280
0
281
0
282
0
283
0
284
8
285
0
286
0
288
0
289
3
290
0
371
-2
372
-2
  0
DIMSTYLE
105
73
330
4
100
AcDbSymbolTableRecord
100
AcDbDimStyleTableRecord
  2
EZDXF
 70
0
 40
1.0
 41
0.175
 42
0.125
 43
3.75
 44
0.375
 45
0.0
 46
0.0
 47
0.0
 48
0.0
 49
2.5
140
0.25
141
2.5
142
0.0
143
0.03937007874
144
100.0
145
0.0
146
0.5
147
0.1
148
0.0
 69
0
 70
0
 71
0
 72
0
 73
0
 74
0
 75
0
 76
0
 77
1
 78
12
 79
3
170
0
171
3
172
1
173
0
174
0
175
0
176
0
177
0
178
0
179
2
271
2
272
2
273
2
274
3
275
0
276
0
277
2
278
46
279
2
280
0
281
0
282
0
283
0
284
8
285
0
286
0
288
1
289
3
290
0
340
4C
342
74
371
-2
372
-2
  0
DIMSTYLE
105
7C
330
4
100
AcDbSymbolTableRecord
100
AcDbDimStyleTableRecord
  2
EZ_M_100_H25_CM
 70
0
 40
1.0
 41
0.25
 42
0.125
 43
3.75
 44
0.375
 45
0.0
 46
0.0
 47
0.0
 48
0.0
 49
2.5
140
0.25
141
2.5
142
0.125
143
0.03937007874
144
100.0
145
0.0
146
0.5
147
0.1
148
0.0
 69
0
 70
0
 71
0
 72
0
 73
0
 74
0
 75
0
 76
0
 77
1
 78
12
 79
3
170
0
171
3
172
1
173
0
174
0
175
0
176
0
177
0
178
0
179
2
271
2
272
2
273
2
274
3
275
0
276
0
277
2
278
46
279
2
280
0
281
0
282
0
283
0
284
8
285
0
286
0
288
1
289
3
290
0
340
4C
371
-2
372
-2
  0
DIMSTYLE
105
7D
330
4
100
AcDbSymbolTableRecord
100
AcDbDimStyleTableRecord
  2
EZ_M_50_H25_CM
 70
0
 40
1.0
 41
0.125
 42
0.0625
 43
3.75
 44
0.1875
 45
0.0
 46
0.0
 47
0.0
 48
0.0
 49
2.5
140
0.125
141
2.5
142
0.0625
143
0.03937007874
144
100.0
145
0.0
146
0.5
147
0.05
148
0.0
 69
0
 70
0
 71
0
 72
0
 73
0
 74
0
 75
0
 76
0
 77
1
 78
12
 79
3
170
0
171
3
172
1
173
0
174
0
175
0
176
0
177
0
178
0
179
2
271
2
272
2
273
2
274
3
275
0
276
0
277
2
278
46
279
2
280
0
281
0
282
0
283
0
284
8
285
0
286
0
288
1
289
3
290
0
340
4C
371
-2
372
-2
  0
DIMSTYLE
105
7E
330
4
100
AcDbSymbolTableRecord
100
AcDbDimStyleTableRecord
  2
EZ_M_25_H25_CM
 70
0
 40
1.0
 41
0.0625
 42
0.03125
 43
3.75
 44
0.09375
 45
0.0
 46
0.0
 47
0.0
 48
0.0
 49
2.5
140
0.0625
141
2.5
142
0.03125
143
0.03937007874
144
100.0
145
0.0
146
0.5
147
0.025
148
0.0
 69
0
 70
0
 71
0
 72
0
 73
0
 74
0
 75
0
 76
0
 77
1
 78
12
 79
3
170
0
171
3
172
1
173
0
174
0
175
0
176
0
177
0
178
0
179
2
271
2
272
2
273
2
274
3
275
0
276
0
277
2
278
46
279
2
280
0
281
0
282
0
283
0
284
8
285
0
286
0
288
1
289
3
290
0
340
4C
371
-2
372
-2
  0
DIMSTYLE
105
7F
330
4
100
AcDbSymbolTableRecord
100
AcDbDimStyleTableRecord
  2
EZ_M_20_H25_CM
 70
0
 40
1.0
 41
0.05
 42
0.025
 43
3.75
 44
0.07500000000000001
 45
0.0
 46
0.0
 47
0.0
 48
0.0
 49
2.5
140
0.05
141
2.5
142
0.025
143
0.03937007874
144
100.0
145
0.0
146
0.5
147
0.020000000000000004
148
0.0
 69
0
 70
0
 71
0
 72
0
 73
0
 74
0
 75
0
 76
0
 77
1
 78
12
 79
3
170
0
171
3
172
1
173
0
174
0
175
0
176
0
177
0
178
0
179
2
271
2
272
2
273
2
274
3
275
0
276
0
277
2
278
46
279
2
280
0
281
0
282
0
283
0
284
8
285
0
286
0
288
1
289
3
290
0
340
4C
371
-2
372
-2
  0
DIMSTYLE
105
80
330
4
100
AcDbSymbolTableRecord
100
AcDbDimStyleTableRecord
  2
EZ_M_10_H25_CM
 70
0
 40
1.0
 41
0.025
 42
0.0125
 43
3.75
 44
0.037500000000000006
 45
0.0
 46
0.0
 47
0.0
 48
0.0
 49
2.5
140
0.025
141
2.5
142
0.0125
143
0.03937007874
144
100.0
145
0.0
146
0.5
147
0.010000000000000002
148
0.0
 69
0
 70
0
 71
0
 72
0
 73
0
 74
0
 75
0
 76
0
 77
1
 78
12
 79
3
170
0
171
3
172
1
173
0
174
0
175
0
176
0
177
0
178
0
179
2
271
2
272
2
273
2
274
3
275
0
276
0
277
2
278
46
279
2
280
0
281
0
282
0
283
0
284
8
285
0
286
0
288
1
289
3
290
0
340
4C
371
-2
372
-2
  0
DIMSTYLE
105
81
330
4
100
AcDbSymbolTableRecord
100
AcDbDimStyleTableRecord
  2
EZ_M_5_H25_CM
 70
0
 40
1.0
 41
0.0125
 42
0.00625
 43
3.75
 44
0.018750000000000003
 45
0.0
 46
0.0
 47
0.0
 48
0.0
 49
2.5
140
0.0125
141
2.5
142
0.00625
143
0.03937007874
144
100.0
145
0.0
146
0.5
147
0.005000000000000001
148
0.0
 69
0
 70
0
 71
0
 72
0
 73
0
 74
0
 75
0
 76
0
 77
1
 78
12
 79
3
170
0
171
3
172
1
173
0
174
0
175
0
176
0
177
0
178
0
179
2
271
2
272
2
273
2
274
3
275
0
276
0
277
2
278
46
279
2
280
0
281
0
282
0
283
0
284
8
285
0
286
0
288
1
289
3
290
0
340
4C
371
-2
372
-2
  0
DIMSTYLE
105
82
330
4
100
AcDbSymbolTableRecord
100
AcDbDimStyleTableRecord
  2
EZ_M_1_H25_CM
 70
0
 40
1.0
 41
0.0025
 42
0.00125
 43
3.75
 44
0.00375
 45
0.0
 46
0.0
 47
0.0
 48
0.0
 49
2.5
140
0.0025
141
2.5
142
0.00125
143
0.03937007874
144
100.0
145
0.0
146
0.5
147
0.001
148
0.0
 69
0
 70
0
 71
0
 72
0
 73
0
 74
0
 75
0
 76
0
 77
1
 78
12
 79
3
170
0
171
3
172
1
173
0
174
0
175
0
176
0
177
0
178
0
179
2
271
2
272
2
273
2
274
3
275
0
276
0
277
2
278
46
279
2
280
0
281
0
282
0
283
0
284
8
285
0
286
0
288
1
289
3
290
0
340
4C
371
-2
372
-2
  0
DIMSTYLE
105
83
330
4
100
AcDbSymbolTableRecord
100
AcDbDimStyleTableRecord
  2
EZ_RADIUS
 70
0
 40
1.0
 41
0.25
 42
0.125
 43
3.75
 44
0.375
 45
0.0
 46
0.0
 47
0.0
 48
0.0
 49
2.5
140
0.25
141
0.0
142
0.0
143
0.03937007874
144
100.0
145
0.0
146
0.5
147
0.1
148
0.0
 69
0
 70
0
 71
0
 72
0
 73
0
 74
0
 75
0
 76
0
 77
1
 78
12
 79
3
170
0
171
3
172
0
173
0
174
0
175
0
176
0
177
0
178
0
179
2
271
2
272
2
273
2
274
3
275
0
276
0
277
2
278
46
279
1
280
0
281
0
282
0
283
0
284
8
285
0
286
0
288
1
289
3
290
0
340
4C
342
84
371
-2
372
-2
  0
DIMSTYLE
105
88
330
4
100
AcDbSymbolTableRecord
100
AcDbDimStyleTableRecord
  2
EZ_RADIUS_INSIDE
 70
0
 40
1.0
 41
0.25
 42
0.125
 43
3.75
 44
0.375
 45
0.0
 46
0.0
 47
0.0
 48
0.0
 49
2.5
140
0.25
141
0.0
142
0.0
143
0.03937007874
144
100.0
145
0.0
146
0.5
147
0.1
148
0.0
 69
0
 70
0
 71
0
 72
0
 73
0
 74
0
 75
0
 76
0
 77
0
 78
12
 79
3
170
0
171
3
172
0
173
0
174
1
175
0
176
0
177
0
178
0
179
2
271
2
272
2
273
2
274
3
275
0
276
0
277
2
278
46
279
0
280
0
281
0
282
0
283
0
284
8
285
0
286
0
288
1
289
0
290
0
340
4C
342
84
371
-2
372
-2
  0
DIMSTYLE
105
89
330
4
100
AcDbSymbolTableRecord
100
AcDbDimStyleTableRecord
  2
EZ_CURVED
 70
0
 40
1.0
 41
0.25
 42
0.125
 43
3.75
 44
0.375
 45
0.0
 46
0.0
 47
0.0
 48
0.0
 49
2.5
140
0.25
141
2.5
142
0.0
143
0.03937007874
144
100.0
145
0.0
146
0.5
147
0.1
148
0.0
 69
0
 70
0
 71
0
 72
0
 73
0
 74
0
 75
0
 76
0
 77
1
 78
12
 79
2
 90
2
170
0
171
3
172
1
173
0
174
0
175
0
176
0
177
0
178
0
179
2
271
2
272
2
273
2
274
3
275
0
276
0
277
2
278
46
279
2
280
0
281
0
282
0
283
0
284
8
285
0
286
0
288
1
289
3
290
0
340
4C
371
-2
372
-2
  0
DIMSTYLE
105
A1
330
4
100
AcDbSymbolTableRecord
100
AcDbDimStyleTableRecord
  2
ГОСТ
 70
0
 40
1.0
 41
3.0
 42
0.0
 43
3.75
 44
2.0
 45
0.0
 46
0.0
 47
0.0
 48
0.0
 49
2.5
140
3.5
141
2.5
142
0.0
143
0.03937007874
144
1.0
145
0.0
146
1.0
147
1.0
148
0.0
 69
0
 70
0
 71
0
 72
0
 73
0
 74
0
 75
0
 76
0
 77
1
 78
8
 79
3
170
0
171
3
172
1
173
0
174
0
175
0
176
7
177
7
178
7
179
2
271
1
272
2
273
2
274
3
275
0
276
0
277
2
278
44
279
0
280
0
281
0
282
0
283
0
284
8
285
0
286
0
288
0
289
3
290
0
340
99
371
-2
372
-2
  0
ENDTAB
  0
TABLE
  2
BLOCK_RECORD
  5
9
330
0
100
AcDbSymbolTable
 70
10
  0
BLOCK_RECORD
  5
17
330
9
100
AcDbSymbolTableRecord
100
AcDbBlockTableRecord
  2
*Model_Space
340
1A
 70
0
280
1
281
0
  0
BLOCK_RECORD
  5
1B
330
9
100
AcDbSymbolTableRecord
100
AcDbBlockTableRecord
  2
*Paper_Space
340
1E
 70
0
280
1
281
0
  0
BLOCK_RECORD
  5
74
330
9
100
AcDbSymbolTableRecord
100
AcDbBlockTableRecord
  2
_ARCHTICK
340
0
 70
0
280
1
281
0
  0
BLOCK_RECORD
  5
78
330
9
100
AcDbSymbolTableRecord
100
AcDbBlockTableRecord
  2
_CLOSEDFILLED
340
0
 70
0
280
1
281
0
  0
BLOCK_RECORD
  5
84
330
9
100
AcDbSymbolTableRecord
100
AcDbBlockTableRecord
  2
_CLOSEDBLANK
340
0
 70
0
280
1
281
0
  0
BLOCK_RECORD
  5
B2
330
9
100
AcDbSymbolTableRecord
100
AcDbBlockTableRecord
  2
*D1
340
0
 70
0
280
1
281
0
  0
BLOCK_RECORD
  5
C1
330
9
100
AcDbSymbolTableRecord
100
AcDbBlockTableRecord
  2
*D2
340
0
 70
0
280
1
281
0
  0
BLOCK_RECORD
  5
D0
330
9
100
AcDbSymbolTableRecord
100
AcDbBlockTableRecord
  2
*D3
340
0
 70
0
280
1
281
0
  0
BLOCK_RECORD
  5
F2
330
9
100
AcDbSymbolTableRecord
100
AcDbBlockTableRecord
  2
*D4
340
0
 70
0
280
1
281
0
  0
BLOCK_RECORD
  5
101
330
9
100
AcDbSymbolTableRecord
100
AcDbBlockTableRecord
  2
*D5
340
0
 70
0
280
1
281
0
  0
ENDTAB
  0
ENDSEC
  0
SECTION
  2
BLOCKS
  0
BLOCK
  5
18
330
17
100
AcDbEntity
  8
0
100
AcDbBlockBegin
  2
*Model_Space
 70
0
 10
0.0
 20
0.0
 30
0.0
  3
*Model_Space
  1

  0
ENDBLK
  5
19
330
17
100
AcDbEntity
  8
0
100
AcDbBlockEnd
  0
BLOCK
  5
1C
330
1B
100
AcDbEntity
  8
0
100
AcDbBlockBegin
  2
*Paper_Space
 70
0
 10
0.0
 20
0.0
 30
0.0
  3
*Paper_Space
  1

  0
ENDBLK
  5
1D
330
1B
100
AcDbEntity
  8
0
100
AcDbBlockEnd
  0
BLOCK
  5
75
330
74
100
AcDbEntity
  8
0
100
AcDbBlockBegin
  2
_ARCHTICK
 70
0
 10
0.0
 20
0.0
 30
0.0
  3
_ARCHTICK
  1

  0
LWPOLYLINE
  5
77
330
74
100
AcDbEntity
  8
0
  6
BYBLOCK
 62
0
100
AcDbPolyline
 90
2
 70
0
 43
0.15
 10
-0.5
 20
-0.5
 10
0.5
 20
0.5
  0
ENDBLK
  5
76
330
74
100
AcDbEntity
  8
0
100
AcDbBlockEnd
  0
BLOCK
  5
79
330
78
100
AcDbEntity
  8
0
100
AcDbBlockBegin
  2
_CLOSEDFILLED
 70
0
 10
0.0
 20
0.0
 30
0.0
  3
_CLOSEDFILLED
  1

  0
SOLID
  5
7B
330
78
100
AcDbEntity
  8
0
  6
BYBLOCK
 62
0
100
AcDbTrace
 10
-1.0
 20
0.16439898372402537
 30
0.0
 11
0.0
 21
0.0
 31
0.0
 12
-1.0
 22
-0.16439898372402537
 32
0.0
 13
-1.0
 23
-0.16439898372402537
 33
0.0
  0
ENDBLK
  5
7A
330
78
100
AcDbEntity
  8
0
100
AcDbBlockEnd
  0
BLOCK
  5
85
330
84
100
AcDbEntity
  8
0
100
AcDbBlockBegin
  2
_CLOSEDBLANK
 70
0
 10
0.0
 20
0.0
 30
0.0
  3
_CLOSEDBLANK
  1

  0
LWPOLYLINE
  5
87
330
84
100
AcDbEntity
  8
0
  6
BYBLOCK
 62
0
100
AcDbPolyline
 90
3
 70
1
 10
-1.0
 20
0.16439898372402537
 10
0.0
 20
0.0
 10
-1.0
 20
-0.16439898372402537
  0
ENDBLK
  5
86
330
84
100
AcDbEntity
  8
0
100
AcDbBlockEnd
  0
BLOCK
  5
B3
330
B2
100
AcDbEntity
  8
0
100
AcDbBlockBegin
  2
*D1
 70
1
 10
0.0
 20
0.0
 30
0.0
  3
*D1
  1

  0
LINE
  5
B5
330
B2
100
AcDbEntity
  8
0
 62
7
100
AcDbLine
 10
120.0
 20
149.74
 30
0.0
 11
120.0
 21
121.74000000000001
 31
0.0
  0
LINE
  5
B6
330
B2
100
AcDbEntity
  8
0
 62
7
100
AcDbLine
 10
260.26
 20
149.74
 30
0.0
 11
260.26
 21
121.74000000000001
 31
0.0
  0
INSERT
  5
B7
330
B2
100
AcDbEntity
  8
09_РАЗМЕРЫ
 62
7
100
AcDbBlockReference
  2
_CLOSEDFILLED
 10
120.0
 20
123.74000000000001
 30
0.0
 41
3.0
 42
3.0
 50
180.0
  0
INSERT
  5
B9
330
B2
100
AcDbEntity
  8
09_РАЗМЕРЫ
 62
7
100
AcDbBlockReference
  2
_CLOSEDFILLED
 10
260.26
 20
123.74000000000001
 30
0.0
 41
3.0
 42
3.0
  0
LINE
  5
BB
330
B2
100
AcDbEntity
  8
0
 62
7
100
AcDbLine
 10
123.0
 20
123.74000000000001
 30
0.0
 11
257.26
 21
123.74000000000001
 31
0.0
  0
MTEXT
  5
BC
330
B2
100
AcDbEntity
  8
09_РАЗМЕРЫ
 62
7
100
AcDbMText
 10
190.13
 20
126.49000000000001
 30
0.0
 40
3.5
 71
5
  1
140,3
  7
ГОСТ
  0
POINT
  5
BD
330
B2
100
AcDbEntity
  8
Defpoints
100
AcDbPoint
 10
120.0
 20
123.74000000000001
 30
0.0
  0
POINT
  5
BE
330
B2
100
AcDbEntity
  8
Defpoints
100
AcDbPoint
 10
120.0
 20
149.74
 30
0.0
  0
POINT
  5
BF
330
B2
100
AcDbEntity
  8
Defpoints
100
AcDbPoint
 10
260.26
 20
149.74
 30
0.0
  0
ENDBLK
  5
B4
330
B2
100
AcDbEntity
  8
0
100
AcDbBlockEnd
  0
BLOCK
  5
C2
330
C1
100
AcDbEntity
  8
0
100
AcDbBlockBegin
  2
*D2
 70
1
 10
0.0
 20
0.0
 30
0.0
  3
*D2
  1

  0
LINE
  5
C4
330
C1
100
AcDbEntity
  8
0
 62
7
100
AcDbLine
 10
120.0
 20
201.26
 30
0.0
 11
120.0
 21
254.26
 31
0.0
  0
LINE
  5
C5
330
C1
100
AcDbEntity
  8
0
 62
7
100
AcDbLine
 10
235.26
 20
201.26
 30
0.0
 11
235.26
 21
254.26
 31
0.0
  0
INSERT
  5
C6
330
C1
100
AcDbEntity
  8
09_РАЗМЕРЫ
 62
7
100
AcDbBlockReference
  2
_CLOSEDFILLED
 10
120.0
 20
252.26
 30
0.0
 41
3.0
 42
3.0
 50
180.0
  0
INSERT
  5
C8
330
C1
100
AcDbEntity
  8
09_РАЗМЕРЫ
 62
7
100
AcDbBlockReference
  2
_CLOSEDFILLED
 10
235.26
 20
252.26
 30
0.0
 41
3.0
 42
3.0
  0
LINE
  5
CA
330
C1
100
AcDbEntity
  8
0
 62
7
100
AcDbLine
 10
123.0
 20
252.26
 30
0.0
 11
232.26
 21
252.26
 31
0.0
  0
MTEXT
  5
CB
330
C1
100
AcDbEntity
  8
09_РАЗМЕРЫ
 62
7
100
AcDbMText
 10
177.63
 20
255.01
 30
0.0
 40
3.5
 71
5
  1
115,3
  7
ГОСТ
  0
POINT
  5
CC
330
C1
100
AcDbEntity
  8
Defpoints
100
AcDbPoint
 10
120.0
 20
252.26
 30
0.0
  0
POINT
  5
CD
330
C1
100
AcDbEntity
  8
Defpoints
100
AcDbPoint
 10
120.0
 20
201.26
 30
0.0
  0
POINT
  5
CE
330
C1
100
AcDbEntity
  8
Defpoints
100
AcDbPoint
 10
235.26
 20
201.26
 30
0.0
  0
ENDBLK
  5
C3
330
C1
100
AcDbEntity
  8
0
100
AcDbBlockEnd
  0
BLOCK
  5
D1
330
D0
100
AcDbEntity
  8
0
100
AcDbBlockBegin
  2
*D3
 70
1
 10
0.0
 20
0.0
 30
0.0
  3
*D3
  1

  0
LINE
  5
D3
330
D0
100
AcDbEntity
  8
0
 62
7
100
AcDbLine
 10
260.26
 20
149.74
 30
0.0
 11
276.26
 21
149.74
 31
0.0
  0
LINE
  5
D4
330
D0
100
AcDbEntity
  8
0
 62
7
100
AcDbLine
 10
260.26
 20
226.26
 30
0.0
 11
276.26
 21
226.26
 31
0.0
  0
INSERT
  5
D5
330
D0
100
AcDbEntity
  8
09_РАЗМЕРЫ
 62
7
100
AcDbBlockReference
  2
_CLOSEDFILLED
 10
274.26
 20
149.74
 30
0.0
 41
3.0
 42
3.0
 50
270.0
  0
INSERT
  5
D7
330
D0
100
AcDbEntity
  8
09_РАЗМЕРЫ
 62
7
100
AcDbBlockReference
  2
_CLOSEDFILLED
 10
274.26
 20
226.26
 30
0.0
 41
3.0
 42
3.0
 50
90.0
  0
LINE
  5
D9
330
D0
100
AcDbEntity
  8
0
 62
7
100
AcDbLine
 10
274.26
 20
152.74
 30
0.0
 11
274.26
 21
223.26
 31
0.0
  0
MTEXT
  5
DA
330
D0
100
AcDbEntity
  8
09_РАЗМЕРЫ
 62
7
100
AcDbMText
 10
271.51
 20
188.0
 30
0.0
 40
3.5
 71
5
  1
76,5
  7
ГОСТ
 50
90.0
  0
POINT
  5
DB
330
D0
100
AcDbEntity
  8
Defpoints
100
AcDbPoint
 10
274.26
 20
149.74
 30
0.0
  0
POINT
  5
DC
330
D0
100
AcDbEntity
  8
Defpoints
100
AcDbPoint
 10
260.26
 20
149.74
 30
0.0
  0
POINT
  5
DD
330
D0
100
AcDbEntity
  8
Defpoints
100
AcDbPoint
 10
260.26
 20
226.26
 30
0.0
  0
ENDBLK
  5
D2
330
D0
100
AcDbEntity
  8
0
100
AcDbBlockEnd
  0
BLOCK
  5
F3
330
F2
100
AcDbEntity
  8
0
100
AcDbBlockBegin
  2
*D4
 70
1
 10
0.0
 20
0.0
 30
0.0
  3
*D4
  1

  0
LINE
  5
F5
330
F2
100
AcDbEntity
  8
0
 62
7
100
AcDbLine
 10
326.74
 20
205.0
 30
0.0
 11
326.74
 21
249.0
 31
0.0
  0
LINE
  5
F6
330
F2
100
AcDbEntity
  8
0
 62
7
100
AcDbLine
 10
353.26
 20
205.0
 30
0.0
 11
353.26
 21
249.0
 31
0.0
  0
INSERT
  5
F7
330
F2
100
AcDbEntity
  8
09_РАЗМЕРЫ
 62
7
100
AcDbBlockReference
  2
_CLOSEDFILLED
 10
326.74
 20
247.0
 30
0.0
 41
3.0
 42
3.0
 50
180.0
  0
INSERT
  5
F9
330
F2
100
AcDbEntity
  8
09_РАЗМЕРЫ
 62
7
100
AcDbBlockReference
  2
_CLOSEDFILLED
 10
353.26
 20
247.0
 30
0.0
 41
3.0
 42
3.0
  0
LINE
  5
FB
330
F2
100
AcDbEntity
  8
0
 62
7
100
AcDbLine
 10
329.74
 20
247.0
 30
0.0
 11
350.26
 21
247.0
 31
0.0
  0
MTEXT
  5
FC
330
F2
100
AcDbEntity
  8
09_РАЗМЕРЫ
 62
7
100
AcDbMText
 10
340.0
 20
249.75
 30
0.0
 40
3.5
 71
5
  1
⌀26,5
  7
ГОСТ
  0
POINT
  5
FD
330
F2
100
AcDbEntity
  8
Defpoints
100
AcDbPoint
 10
326.74
 20
247.0
 30
0.0
  0
POINT
  5
FE
330
F2
100
AcDbEntity
  8
Defpoints
100
AcDbPoint
 10
326.74
 20
205.0
 30
0.0
  0
POINT
  5
FF
330
F2
100
AcDbEntity
  8
Defpoints
100
AcDbPoint
 10
353.26
 20
205.0
 30
0.0
  0
ENDBLK
  5
F4
330
F2
100
AcDbEntity
  8
0
100
AcDbBlockEnd
  0
BLOCK
  5
102
330
101
100
AcDbEntity
  8
0
100
AcDbBlockBegin
  2
*D5
 70
1
 10
0.0
 20
0.0
 30
0.0
  3
*D5
  1

  0
LINE
  5
104
330
101
100
AcDbEntity
  8
0
 62
7
100
AcDbLine
 10
378.26
 20
175.0
 30
0.0
 11
392.26
 21
175.0
 31
0.0
  0
LINE
  5
105
330
101
100
AcDbEntity
  8
0
 62
7
100
AcDbLine
 10
378.26
 20
235.0
 30
0.0
 11
392.26
 21
235.0
 31
0.0
  0
INSERT
  5
106
330
101
100
AcDbEntity
  8
09_РАЗМЕРЫ
 62
7
100
AcDbBlockReference
  2
_CLOSEDFILLED
 10
390.26
 20
175.0
 30
0.0
 41
3.0
 42
3.0
 50
270.0
  0
INSERT
  5
108
330
101
100
AcDbEntity
  8
09_РАЗМЕРЫ
 62
7
100
AcDbBlockReference
  2
_CLOSEDFILLED
 10
390.26
 20
235.0
 30
0.0
 41
3.0
 42
3.0
 50
90.0
  0
LINE
  5
10A
330
101
100
AcDbEntity
  8
0
 62
7
100
AcDbLine
 10
390.26
 20
178.0
 30
0.0
 11
390.26
 21
232.0
 31
0.0
  0
MTEXT
  5
10B
330
101
100
AcDbEntity
  8
09_РАЗМЕРЫ
 62
7
100
AcDbMText
 10
387.51
 20
205.0
 30
0.0
 40
3.5
 71
5
  1
60
  7
ГОСТ
 50
90.0
  0
POINT
  5
10C
330
101
100
AcDbEntity
  8
Defpoints
100
AcDbPoint
 10
390.26
 20
175.0
 30
0.0
  0
POINT
  5
10D
330
101
100
AcDbEntity
  8
Defpoints
100
AcDbPoint
 10
378.26
 20
175.0
 30
0.0
  0
POINT
  5
10E
330
101
100
AcDbEntity
  8
Defpoints
100
AcDbPoint
 10
378.26
 20
235.0
 30
0.0
  0
ENDBLK
  5
103
330
101
100
AcDbEntity
  8
0
100
AcDbBlockEnd
  0
ENDSEC
  0
SECTION
  2
ENTITIES
  0
LWPOLYLINE
  5
A2
330
17
100
AcDbEntity
  8
20_ВИДИМЫЕ
100
AcDbPolyline
 90
4
 70
1
 10
120.0
 20
149.74
 10
260.26
 20
149.74
 10
260.26
 20
226.26
 10
120.0
 20
226.26
  0
LWPOLYLINE
  5
A3
330
17
100
AcDbEntity
  8
20_ВИДИМЫЕ
100
AcDbPolyline
 90
4
 70
1
 10
120.0
 20
174.74
 10
235.26
 20
174.74
 10
235.26
 20
201.26
 10
120.0
 20
201.26
  0
LINE
  5
A4
330
17
100
AcDbEntity
  8
07_ОСИ
100
AcDbLine
 10
112.0
 20
188.0
 30
0.0
 11
268.26
 21
188.0
 31
0.0
  0
CIRCLE
  5
A5
330
17
100
AcDbEntity
  8
20_ВИДИМЫЕ
100
AcDbCircle
 10
145.0
 20
216.26
 30
0.0
 40
4.0
  0
CIRCLE
  5
A6
330
17
100
AcDbEntity
  8
20_ВИДИМЫЕ
100
AcDbCircle
 10
145.0
 20
159.74
 30
0.0
 40
4.0
  0
LINE
  5
A7
330
17
100
AcDbEntity
  8
07_ОСИ
100
AcDbLine
 10
138.0
 20
216.26
 30
0.0
 11
152.0
 21
216.26
 31
0.0
  0
LINE
  5
A8
330
17
100
AcDbEntity
  8
07_ОСИ
100
AcDbLine
 10
145.0
 20
209.26
 30
0.0
 11
145.0
 21
223.26
 31
0.0
  0
LINE
  5
A9
330
17
100
AcDbEntity
  8
07_ОСИ
100
AcDbLine
 10
138.0
 20
159.74
 30
0.0
 11
152.0
 21
159.74
 31
0.0
  0
LINE
  5
AA
330
17
100
AcDbEntity
  8
07_ОСИ
100
AcDbLine
 10
145.0
 20
152.74
 30
0.0
 11
145.0
 21
166.74
 31
0.0
  0
CIRCLE
  5
AB
330
17
100
AcDbEntity
  8
20_ВИДИМЫЕ
100
AcDbCircle
 10
235.26
 20
216.26
 30
0.0
 40
4.0
  0
CIRCLE
  5
AC
330
17
100
AcDbEntity
  8
20_ВИДИМЫЕ
100
AcDbCircle
 10
235.26
 20
159.74
 30
0.0
 40
4.0
  0
LINE
  5
AD
330
17
100
AcDbEntity
  8
07_ОСИ
100
AcDbLine
 10
228.26
 20
216.26
 30
0.0
 11
242.26
 21
216.26
 31
0.0
  0
LINE
  5
AE
330
17
100
AcDbEntity
  8
07_ОСИ
100
AcDbLine
 10
235.26
 20
209.26
 30
0.0
 11
235.26
 21
223.26
 31
0.0
  0
LINE
  5
AF
330
17
100
AcDbEntity
  8
07_ОСИ
100
AcDbLine
 10
228.26
 20
159.74
 30
0.0
 11
242.26
 21
159.74
 31
0.0
  0
LINE
  5
B0
330
17
100
AcDbEntity
  8
07_ОСИ
100
AcDbLine
 10
235.26
 20
152.74
 30
0.0
 11
235.26
 21
166.74
 31
0.0
  0
DIMENSION
  5
B1
330
17
100
AcDbEntity
  8
09_РАЗМЕРЫ
100
AcDbDimension
280
0
  2
*D1
  3
ГОСТ
 10
120.0
 20
123.74000000000001
 30
0.0
 11
190.13
 21
126.49000000000001
 31
0.0
 70
32
 71
5
  1
<>
100
AcDbAlignedDimension
 13
120.0
 23
149.74
 33
0.0
 14
260.26
 24
149.74
 34
0.0
 50
0.0
100
AcDbRotatedDimension
1001
ACAD
1000
DSTYLE
1002
{
1070
340
1005
99
1002
}
  0
DIMENSION
  5
C0
330
17
100
AcDbEntity
  8
09_РАЗМЕРЫ
100
AcDbDimension
280
0
  2
*D2
  3
ГОСТ
 10
120.0
 20
252.26
 30
0.0
 11
177.63
 21
255.01
 31
0.0
 70
32
 71
5
  1
115,3
100
AcDbAlignedDimension
 13
120.0
 23
201.26
 33
0.0
 14
235.26
 24
201.26
 34
0.0
 50
0.0
100
AcDbRotatedDimension
1001
ACAD
1000
DSTYLE
1002
{
1070
340
1005
99
1002
}
  0
DIMENSION
  5
CF
330
17
100
AcDbEntity
  8
09_РАЗМЕРЫ
100
AcDbDimension
280
0
  2
*D3
  3
ГОСТ
 10
274.26
 20
149.74
 30
0.0
 11
271.51
 21
188.0
 31
0.0
 70
32
 71
5
  1
<>
100
AcDbAlignedDimension
 13
260.26
 23
149.74
 33
0.0
 14
260.26
 24
226.26
 34
0.0
 50
90.0
100
AcDbRotatedDimension
1001
ACAD
1000
DSTYLE
1002
{
1070
340
1005
99
1002
}
  0
LINE
  5
DE
330
17
100
AcDbEntity
  8
09_РАЗМЕРЫ
100
AcDbLine
 10
235.26
 20
212.26
 30
0.0
 11
265.26
 21
252.26
 31
0.0
  0
TEXT
  5
DF
330
17
100
AcDbEntity
  8
08_ТЕКСТ
100
AcDbText
 10
266.26
 20
253.26
 30
0.0
 40
3.0
  1
4 штифта ⌀8
  7
ГОСТ
 11
266.26
 21
253.26
 31
0.0
100
AcDbText
 73
1
  0
LINE
  5
E0
330
17
100
AcDbEntity
  8
09_РАЗМЕРЫ
100
AcDbLine
 10
265.26
 20
252.26
 30
0.0
 11
293.36
 21
252.26
 31
0.0
  0
TEXT
  5
E1
330
17
100
AcDbEntity
  8
08_ТЕКСТ
100
AcDbText
 10
190.13
 20
270.26
 30
0.0
 40
5.0
  1
Половина нижняя, вид сверху
  7
ГОСТ
 72
1
 11
190.13
 21
270.26
 31
0.0
100
AcDbText
 73
1
  0
LWPOLYLINE
  5
E2
330
17
100
AcDbEntity
  8
20_ВИДИМЫЕ
100
AcDbPolyline
 90
2
 70
0
 43
1.0
 10
183.117
 20
234.26
 10
183.117
 20
224.26
  0
LINE
  5
E3
330
17
100
AcDbEntity
  8
20_ВИДИМЫЕ
100
AcDbLine
 10
183.117
 20
236.26
 30
0.0
 11
193.117
 21
236.26
 31
0.0
  0
HATCH
  5
E4
330
17
100
AcDbEntity
  8
20_ВИДИМЫЕ
 62
7
100
AcDbHatch
 10
0.0
 20
0.0
 30
0.0
210
0.0
220
0.0
230
1.0
  2
SOLID
 70
1
 71
0
 91
1
 92
3
 72
0
 73
1
 93
3
 10
189.117
 20
237.46
 10
193.117
 20
236.26
 10
189.117
 20
235.06
 97
0
 75
0
 76
1
 98
0
  0
TEXT
  5
E5
330
17
100
AcDbEntity
  8
08_ТЕКСТ
100
AcDbText
 10
196.117
 20
241.26
 30
0.0
 40
5.0
  1
А
  7
ГОСТ
 72
1
 11
196.117
 21
241.26
 31
0.0
100
AcDbText
 73
2
  0
LWPOLYLINE
  5
E6
330
17
100
AcDbEntity
  8
20_ВИДИМЫЕ
100
AcDbPolyline
 90
2
 70
0
 43
1.0
 10
183.117
 20
141.74
 10
183.117
 20
151.74
  0
LINE
  5
E7
330
17
100
AcDbEntity
  8
20_ВИДИМЫЕ
100
AcDbLine
 10
183.117
 20
139.74
 30
0.0
 11
193.117
 21
139.74
 31
0.0
  0
HATCH
  5
E8
330
17
100
AcDbEntity
  8
20_ВИДИМЫЕ
 62
7
100
AcDbHatch
 10
0.0
 20
0.0
 30
0.0
210
0.0
220
0.0
230
1.0
  2
SOLID
 70
1
 71
0
 91
1
 92
3
 72
0
 73
1
 93
3
 10
189.117
 20
140.94
 10
193.117
 20
139.74
 10
189.117
 20
138.54
 97
0
 75
0
 76
1
 98
0
  0
TEXT
  5
E9
330
17
100
AcDbEntity
  8
08_ТЕКСТ
100
AcDbText
 10
196.117
 20
134.74
 30
0.0
 40
5.0
  1
А
  7
ГОСТ
 72
1
 11
196.117
 21
134.74
 31
0.0
100
AcDbText
 73
2
  0
HATCH
  5
EA
330
17
100
AcDbEntity
  8
23_ШТРИХОВКА
 62
7
100
AcDbHatch
 10
0.0
 20
0.0
 30
0.0
210
0.0
220
0.0
230
1.0
  2
ANSI31
 70
0
 71
0
 91
1
 92
3
 72
0
 73
1
 93
261
 10
378.26
 20
175.0
 10
301.74
 20
175.0
 10
301.74
 20
205.0
 10
326.74
 20
205.0
 10
326.7409984536129
 20
204.83727940233135
 10
326.74399366408835
 20
204.6745833097862
 10
326.7489851803585
 20
204.5119362237976
 10
326.7559722507194
 20
204.34936263841843
 10
326.764953822944
 20
204.18688703663273
 10
326.77592854444055
 20
204.0245338866684
 10
326.7888947624564
 20
203.86232763831273
 10
326.80385052432666
 20
203.70029271923002
 10
326.82079357776877
 20
203.5384535312831
 10
326.8397213712211
 20
203.3768344468584
 10
326.8606310542276
 20
203.2154598051955
 10
326.883519477867
 20
203.0543539087219
 10
326.9083831952268
 20
202.89354101939298
 10
326.93521846192266
 20
202.7330453550384
 10
326.96402123666206
 20
202.57289108571484
 10
326.99478718185316
 20
202.41310233006612
 10
327.02751166425776
 20
202.25370315169118
 10
327.06218975568913
 20
202.0947175555199
 10
327.0988162337543
 20
201.9361694841983
 10
327.1373855826403
 20
201.77808281448273
 10
327.17789199394525
 20
201.62048135364412
 10
327.2203293675525
 20
201.46338883588285
 10
327.2646913125496
 20
201.3068289187542
 10
327.3109711481909
 20
201.15082517960582
 10
327.3591619049034
 20
200.99540111202703
 10
327.40925632533634
 20
200.8405801223107
 10
327.4612468654543
 20
200.6863855259284
 10
327.51512569567313
 20
200.53284054401917
 10
327.5708847020393
 20
200.37996829989248
 10
327.62851548745135
 20
200.22779181554606
 10
327.68800937292514
 20
200.07633400819864
 10
327.7493573989003
 20
199.9256176868389
 10
327.8125503265898
 20
199.7756655487905
 10
327.87757863937117
 20
199.62650017629383
 10
327.9444325442197
 20
199.47814403310534
 10
328.01310197318315
 20
199.33061946111445
 10
328.0835765848982
 20
199.18394867697913
 10
328.1558457661475
 20
199.03815376877992
 10
328.22989863345816
 20
198.89325669269374
 10
328.3057240347408
 20
198.74927926968726
 10
328.38331055096893
 20
198.60624318223083
 10
328.4626464978985
 20
198.46416997103307
 10
328.54371992782774
 20
198.323081031797
 10
328.6265186313964
 20
198.18299761199788
 10
328.71103013942417
 20
198.0439408076835
 10
328.7972417247889
 20
197.9059315602971
 10
328.88514040434285
 20
197.76899065352367
 10
328.97471294086824
 20
197.63313871016007
 10
329.0659458450706
 20
197.4983961890093
 10
329.15882537761
 20
197.36478338179936
 10
329.2533375511706
 20
197.2323204101276
 10
329.34946813256664
 20
197.10102722243033
 10
329.4472026448862
 20
196.97092359097863
 10
329.5465263696712
 20
196.84202910890087
 10
329.64742434913404
 20
196.71436318723195
 10
329.74988138841013
 20
196.58794505199006
 10
329.8538820578462
 20
196.46279374128136
 10
329.95941069532404
 20
196.33892810243293
 10
330.06645140861895
 20
196.2163667891543
 10
330.1749880777933
 20
196.09512825872852
 10
330.2850043576238
 20
195.9752307692323
 10
330.39648368006357
 20
195.8566923767865
 10
330.50940925673655
 20
195.73953093283703
 10
330.6237640814664
 20
195.6237640814664
 10
330.739530932837
 20
195.50940925673657
 10
330.8566923767865
 20
195.39648368006354
 10
330.97523076923227
 20
195.28500435762382
 10
331.09512825872855
 20
195.17498807779324
 10
331.21636678915434
 20
195.06645140861892
 10
331.33892810243293
 20
194.959410695324
 10
331.46279374128136
 20
194.8538820578462
 10
331.58794505199006
 20
194.7498813884101
 10
331.714363187232
 20
194.647424349134
 10
331.8420291089009
 20
194.5465263696712
 10
331.97092359097866
 20
194.4472026448862
 10
332.10102722243033
 20
194.34946813256664
 10
332.2323204101276
 20
194.2533375511706
 10
332.3647833817994
 20
194.15882537761001
 10
332.49839618900927
 20
194.06594584507056
 10
332.6331387101601
 20
193.97471294086824
 10
332.76899065352364
 20
193.88514040434285
 10
332.9059315602971
 20
193.79724172478888
 10
333.0439408076835
 20
193.7110301394242
 10
333.1829976119979
 20
193.62651863139638
 10
333.32308103179696
 20
193.54371992782777
 10
333.4641699710331
 20
193.46264649789848
 10
333.60624318223086
 20
193.3833105509689
 10
333.7492792696873
 20
193.30572403474082
 10
333.89325669269374
 20
193.22989863345816
 10
334.0381537687799
 20
193.15584576614748
 10
334.1839486769791
 20
193.08357658489817
 10
334.33061946111445
 20
193.01310197318315
 10
334.4781440331053
 20
192.94443254421967
 10
334.62650017629386
 20
192.8775786393712
 10
334.7756655487905
 20
192.81255032658984
 10
334.9256176868389
 20
192.74935739890034
 10
335.0763340081986
 20
192.68800937292517
 10
335.2277918155461
 20
192.62851548745135
 10
335.3799682998925
 20
192.57088470203925
 10
335.53284054401917
 20
192.51512569567313
 10
335.6863855259284
 20
192.46124686545429
 10
335.8405801223107
 20
192.40925632533634
 10
335.995401112027
 20
192.3591619049034
 10
336.1508251796058
 20
192.3109711481909
 10
336.3068289187542
 20
192.2646913125496
 10
336.4633888358828
 20
192.22032936755247
 10
336.62048135364415
 20
192.17789199394525
 10
336.77808281448273
 20
192.13738558264035
 10
336.9361694841983
 20
192.09881623375426
 10
337.09471755551994
 20
192.0621897556891
 10
337.2537031516912
 20
192.02751166425773
 10
337.4131023300661
 20
191.99478718185316
 10
337.57289108571484
 20
191.96402123666206
 10
337.7330453550384
 20
191.93521846192263
 10
337.893541019393
 20
191.9083831952268
 10
338.0543539087219
 20
191.883519477867
 10
338.2154598051955
 20
191.86063105422764
 10
338.37683444685837
 20
191.83972137122112
 10
338.5384535312831
 20
191.82079357776877
 10
338.70029271923005
 20
191.80385052432666
 10
338.8623276383127
 20
191.78889476245635
 10
339.0245338866684
 20
191.77592854444057
 10
339.1868870366327
 20
191.76495382294402
 10
339.3493626384184
 20
191.75597225071942
 10
339.5119362237976
 20
191.7489851803585
 10
339.67458330978616
 20
191.74399366408832
 10
339.8372794023314
 20
191.74099845361295
 10
340.0
 20
191.74
 10
340.1627205976686
 20
191.74099845361295
 10
340.32541669021384
 20
191.74399366408832
 10
340.4880637762024
 20
191.7489851803585
 10
340.6506373615816
 20
191.75597225071942
 10
340.8131129633673
 20
191.76495382294402
 10
340.9754661133316
 20
191.77592854444057
 10
341.1376723616873
 20
191.78889476245635
 10
341.29970728076995
 20
191.80385052432666
 10
341.4615464687169
 20
191.82079357776877
 10
341.62316555314163
 20
191.83972137122112
 10
341.7845401948045
 20
191.86063105422764
 10
341.9456460912781
 20
191.883519477867
 10
342.106458980607
 20
191.9083831952268
 10
342.2669546449616
 20
191.93521846192263
 10
342.42710891428516
 20
191.96402123666206
 10
342.5868976699339
 20
191.99478718185316
 10
342.7462968483088
 20
192.02751166425773
 10
342.9052824444801
 20
192.0621897556891
 10
343.0638305158017
 20
192.09881623375426
 10
343.22191718551727
 20
192.13738558264035
 10
343.37951864635585
 20
192.17789199394525
 10
343.5366111641172
 20
192.22032936755247
 10
343.6931710812458
 20
192.2646913125496
 10
343.8491748203942
 20
192.3109711481909
 10
344.004598887973
 20
192.3591619049034
 10
344.1594198776893
 20
192.40925632533634
 10
344.3136144740716
 20
192.46124686545429
 10
344.46715945598083
 20
192.51512569567313
 10
344.6200317001075
 20
192.57088470203925
 10
344.7722081844539
 20
192.62851548745135
 10
344.9236659918014
 20
192.68800937292517
 10
345.0743823131611
 20
192.74935739890034
 10
345.2243344512095
 20
192.81255032658984
 10
345.37349982370614
 20
192.8775786393712
 10
345.5218559668947
 20
192.94443254421967
 10
345.66938053888555
 20
193.01310197318315
 10
345.8160513230209
 20
193.08357658489817
 10
345.9618462312201
 20
193.15584576614748
 10
346.10674330730626
 20
193.22989863345816
 10
346.2507207303127
 20
193.30572403474082
 10
346.39375681776914
 20
193.3833105509689
 10
346.5358300289669
 20
193.46264649789848
 10
346.67691896820304
 20
193.54371992782777
 10
346.8170023880021
 20
193.62651863139638
 10
346.9560591923165
 20
193.7110301394242
 10
347.09406843970294
 20
193.79724172478888
 10
347.23100934647636
 20
193.88514040434285
 10
347.3668612898399
 20
193.97471294086824
 10
347.50160381099073
 20
194.06594584507056
 10
347.6352166182006
 20
194.15882537761001
 10
347.7676795898724
 20
194.2533375511706
 10
347.89897277756967
 20
194.34946813256664
 10
348.02907640902134
 20
194.4472026448862
 10
348.1579708910991
 20
194.5465263696712
 10
348.285636812768
 20
194.64742434913404
 10
348.41205494800994
 20
194.7498813884101
 10
348.53720625871864
 20
194.8538820578462
 10
348.66107189756707
 20
194.959410695324
 10
348.78363321084566
 20
195.06645140861892
 10
348.90487174127145
 20
195.17498807779324
 10
349.02476923076773
 20
195.28500435762382
 10
349.1433076232135
 20
195.39648368006354
 10
349.260469067163
 20
195.50940925673657
 10
349.3762359185336
 20
195.6237640814664
 10
349.49059074326345
 20
195.73953093283703
 10
349.60351631993643
 20
195.8566923767865
 10
349.7149956423762
 20
195.9752307692323
 10
349.8250119222068
 20
196.09512825872855
 10
349.93354859138105
 20
196.21636678915434
 10
350.04058930467596
 20
196.33892810243293
 10
350.1461179421538
 20
196.46279374128136
 10
350.25011861158987
 20
196.58794505199006
 10
350.35257565086596
 20
196.71436318723195
 10
350.4534736303288
 20
196.84202910890087
 10
350.5527973551138
 20
196.97092359097866
 10
350.65053186743336
 20
197.10102722243033
 10
350.7466624488294
 20
197.2323204101276
 10
350.84117462239
 20
197.36478338179938
 10
350.9340541549294
 20
197.4983961890093
 10
351.02528705913176
 20
197.63313871016007
 10
351.11485959565715
 20
197.76899065352367
 10
351.2027582752111
 20
197.9059315602971
 10
351.28896986057583
 20
198.0439408076835
 10
351.3734813686036
 20
198.18299761199788
 10
351.45628007217226
 20
198.323081031797
 10
351.5373535021015
 20
198.46416997103307
 10
351.61668944903107
 20
198.60624318223083
 10
351.6942759652592
 20
198.74927926968726
 10
351.77010136654184
 20
198.89325669269374
 10
351.8441542338525
 20
199.03815376877992
 10
351.9164234151018
 20
199.18394867697913
 10
351.98689802681685
 20
199.33061946111445
 10
352.0555674557803
 20
199.47814403310534
 10
352.12242136062883
 20
199.62650017629383
 10
352.1874496734102
 20
199.7756655487905
 10
352.2506426010997
 20
199.9256176868389
 10
352.31199062707486
 20
200.07633400819864
 10
352.37148451254865
 20
200.22779181554606
 10
352.4291152979607
 20
200.3799682998925
 10
352.48487430432687
 20
200.53284054401917
 10
352.5387531345457
 20
200.6863855259284
 10
352.59074367466366
 20
200.8405801223107
 10
352.6408380950966
 20
200.99540111202703
 10
352.6890288518091
 20
201.15082517960582
 10
352.7353086874504
 20
201.3068289187542
 10
352.7796706324475
 20
201.46338883588285
 10
352.82210800605475
 20
201.62048135364412
 10
352.8626144173597
 20
201.77808281448273
 10
352.9011837662457
 20
201.9361694841983
 10
352.93781024431087
 20
202.0947175555199
 10
352.97248833574224
 20
202.25370315169118
 10
353.00521281814684
 20
202.41310233006615
 10
353.03597876333794
 20
202.57289108571484
 10
353.06478153807734
 20
202.7330453550384
 10
353.0916168047732
 20
202.89354101939298
 10
353.116480522133
 20
203.0543539087219
 10
353.1393689457724
 20
203.2154598051955
 10
353.1602786287789
 20
203.3768344468584
 10
353.17920642223123
 20
203.53845353128312
 10
353.19614947567334
 20
203.70029271923002
 10
353.2111052375436
 20
203.86232763831273
 10
353.22407145555945
 20
204.02453388666842
 10
353.235046177056
 20
204.18688703663273
 10
353.2440277492806
 20
204.34936263841843
 10
353.2510148196415
 20
204.5119362237976
 10
353.25600633591165
 20
204.6745833097862
 10
353.2590015463871
 20
204.83727940233135
 10
353.26
 20
205.0
 10
378.26
 20
205.0
 97
0
 75
1
 76
1
 52
90.0
 41
0.5
 77
0
 78
1
 53
135.0
 43
0.0
 44
0.0
 45
-1.1225320152
 46
-1.1225320152
 79
0
 98
0
  0
LWPOLYLINE
  5
EB
330
17
100
AcDbEntity
  8
20_ВИДИМЫЕ
100
AcDbPolyline
 90
262
 70
1
 10
378.26
 20
175.0
 10
301.74
 20
175.0
 10
301.74
 20
205.0
 10
326.74
 20
205.0
 10
326.7409984536129
 20
204.83727940233135
 10
326.74399366408835
 20
204.6745833097862
 10
326.7489851803585
 20
204.5119362237976
 10
326.7559722507194
 20
204.34936263841843
 10
326.764953822944
 20
204.18688703663273
 10
326.77592854444055
 20
204.0245338866684
 10
326.7888947624564
 20
203.86232763831273
 10
326.80385052432666
 20
203.70029271923002
 10
326.82079357776877
 20
203.5384535312831
 10
326.8397213712211
 20
203.3768344468584
 10
326.8606310542276
 20
203.2154598051955
 10
326.883519477867
 20
203.0543539087219
 10
326.9083831952268
 20
202.89354101939298
 10
326.93521846192266
 20
202.7330453550384
 10
326.96402123666206
 20
202.57289108571484
 10
326.99478718185316
 20
202.41310233006612
 10
327.02751166425776
 20
202.25370315169118
 10
327.06218975568913
 20
202.0947175555199
 10
327.0988162337543
 20
201.9361694841983
 10
327.1373855826403
 20
201.77808281448273
 10
327.17789199394525
 20
201.62048135364412
 10
327.2203293675525
 20
201.46338883588285
 10
327.2646913125496
 20
201.3068289187542
 10
327.3109711481909
 20
201.15082517960582
 10
327.3591619049034
 20
200.99540111202703
 10
327.40925632533634
 20
200.8405801223107
 10
327.4612468654543
 20
200.6863855259284
 10
327.51512569567313
 20
200.53284054401917
 10
327.5708847020393
 20
200.37996829989248
 10
327.62851548745135
 20
200.22779181554606
 10
327.68800937292514
 20
200.07633400819864
 10
327.7493573989003
 20
199.9256176868389
 10
327.8125503265898
 20
199.7756655487905
 10
327.87757863937117
 20
199.62650017629383
 10
327.9444325442197
 20
199.47814403310534
 10
328.01310197318315
 20
199.33061946111445
 10
328.0835765848982
 20
199.18394867697913
 10
328.1558457661475
 20
199.03815376877992
 10
328.22989863345816
 20
198.89325669269374
 10
328.3057240347408
 20
198.74927926968726
 10
328.38331055096893
 20
198.60624318223083
 10
328.4626464978985
 20
198.46416997103307
 10
328.54371992782774
 20
198.323081031797
 10
328.6265186313964
 20
198.18299761199788
 10
328.71103013942417
 20
198.0439408076835
 10
328.7972417247889
 20
197.9059315602971
 10
328.88514040434285
 20
197.76899065352367
 10
328.97471294086824
 20
197.63313871016007
 10
329.0659458450706
 20
197.4983961890093
 10
329.15882537761
 20
197.36478338179936
 10
329.2533375511706
 20
197.2323204101276
 10
329.34946813256664
 20
197.10102722243033
 10
329.4472026448862
 20
196.97092359097863
 10
329.5465263696712
 20
196.84202910890087
 10
329.64742434913404
 20
196.71436318723195
 10
329.74988138841013
 20
196.58794505199006
 10
329.8538820578462
 20
196.46279374128136
 10
329.95941069532404
 20
196.33892810243293
 10
330.06645140861895
 20
196.2163667891543
 10
330.1749880777933
 20
196.09512825872852
 10
330.2850043576238
 20
195.9752307692323
 10
330.39648368006357
 20
195.8566923767865
 10
330.50940925673655
 20
195.73953093283703
 10
330.6237640814664
 20
195.6237640814664
 10
330.739530932837
 20
195.50940925673657
 10
330.8566923767865
 20
195.39648368006354
 10
330.97523076923227
 20
195.28500435762382
 10
331.09512825872855
 20
195.17498807779324
 10
331.21636678915434
 20
195.06645140861892
 10
331.33892810243293
 20
194.959410695324
 10
331.46279374128136
 20
194.8538820578462
 10
331.58794505199006
 20
194.7498813884101
 10
331.714363187232
 20
194.647424349134
 10
331.8420291089009
 20
194.5465263696712
 10
331.97092359097866
 20
194.4472026448862
 10
332.10102722243033
 20
194.34946813256664
 10
332.2323204101276
 20
194.2533375511706
 10
332.3647833817994
 20
194.15882537761001
 10
332.49839618900927
 20
194.06594584507056
 10
332.6331387101601
 20
193.97471294086824
 10
332.76899065352364
 20
193.88514040434285
 10
332.9059315602971
 20
193.79724172478888
 10
333.0439408076835
 20
193.7110301394242
 10
333.1829976119979
 20
193.62651863139638
 10
333.32308103179696
 20
193.54371992782777
 10
333.4641699710331
 20
193.46264649789848
 10
333.60624318223086
 20
193.3833105509689
 10
333.7492792696873
 20
193.30572403474082
 10
333.89325669269374
 20
193.22989863345816
 10
334.0381537687799
 20
193.15584576614748
 10
334.1839486769791
 20
193.08357658489817
 10
334.33061946111445
 20
193.01310197318315
 10
334.4781440331053
 20
192.94443254421967
 10
334.62650017629386
 20
192.8775786393712
 10
334.7756655487905
 20
192.81255032658984
 10
334.9256176868389
 20
192.74935739890034
 10
335.0763340081986
 20
192.68800937292517
 10
335.2277918155461
 20
192.62851548745135
 10
335.3799682998925
 20
192.57088470203925
 10
335.53284054401917
 20
192.51512569567313
 10
335.6863855259284
 20
192.46124686545429
 10
335.8405801223107
 20
192.40925632533634
 10
335.995401112027
 20
192.3591619049034
 10
336.1508251796058
 20
192.3109711481909
 10
336.3068289187542
 20
192.2646913125496
 10
336.4633888358828
 20
192.22032936755247
 10
336.62048135364415
 20
192.17789199394525
 10
336.77808281448273
 20
192.13738558264035
 10
336.9361694841983
 20
192.09881623375426
 10
337.09471755551994
 20
192.0621897556891
 10
337.2537031516912
 20
192.02751166425773
 10
337.4131023300661
 20
191.99478718185316
 10
337.57289108571484
 20
191.96402123666206
 10
337.7330453550384
 20
191.93521846192263
 10
337.893541019393
 20
191.9083831952268
 10
338.0543539087219
 20
191.883519477867
 10
338.2154598051955
 20
191.86063105422764
 10
338.37683444685837
 20
191.83972137122112
 10
338.5384535312831
 20
191.82079357776877
 10
338.70029271923005
 20
191.80385052432666
 10
338.8623276383127
 20
191.78889476245635
 10
339.0245338866684
 20
191.77592854444057
 10
339.1868870366327
 20
191.76495382294402
 10
339.3493626384184
 20
191.75597225071942
 10
339.5119362237976
 20
191.7489851803585
 10
339.67458330978616
 20
191.74399366408832
 10
339.8372794023314
 20
191.74099845361295
 10
340.0
 20
191.74
 10
340.1627205976686
 20
191.74099845361295
 10
340.32541669021384
 20
191.74399366408832
 10
340.4880637762024
 20
191.7489851803585
 10
340.6506373615816
 20
191.75597225071942
 10
340.8131129633673
 20
191.76495382294402
 10
340.9754661133316
 20
191.77592854444057
 10
341.1376723616873
 20
191.78889476245635
 10
341.29970728076995
 20
191.80385052432666
 10
341.4615464687169
 20
191.82079357776877
 10
341.62316555314163
 20
191.83972137122112
 10
341.7845401948045
 20
191.86063105422764
 10
341.9456460912781
 20
191.883519477867
 10
342.106458980607
 20
191.9083831952268
 10
342.2669546449616
 20
191.93521846192263
 10
342.42710891428516
 20
191.96402123666206
 10
342.5868976699339
 20
191.99478718185316
 10
342.7462968483088
 20
192.02751166425773
 10
342.9052824444801
 20
192.0621897556891
 10
343.0638305158017
 20
192.09881623375426
 10
343.22191718551727
 20
192.13738558264035
 10
343.37951864635585
 20
192.17789199394525
 10
343.5366111641172
 20
192.22032936755247
 10
343.6931710812458
 20
192.2646913125496
 10
343.8491748203942
 20
192.3109711481909
 10
344.004598887973
 20
192.3591619049034
 10
344.1594198776893
 20
192.40925632533634
 10
344.3136144740716
 20
192.46124686545429
 10
344.46715945598083
 20
192.51512569567313
 10
344.6200317001075
 20
192.57088470203925
 10
344.7722081844539
 20
192.62851548745135
 10
344.9236659918014
 20
192.68800937292517
 10
345.0743823131611
 20
192.74935739890034
 10
345.2243344512095
 20
192.81255032658984
 10
345.37349982370614
 20
192.8775786393712
 10
345.5218559668947
 20
192.94443254421967
 10
345.66938053888555
 20
193.01310197318315
 10
345.8160513230209
 20
193.08357658489817
 10
345.9618462312201
 20
193.15584576614748
 10
346.10674330730626
 20
193.22989863345816
 10
346.2507207303127
 20
193.30572403474082
 10
346.39375681776914
 20
193.3833105509689
 10
346.5358300289669
 20
193.46264649789848
 10
346.67691896820304
 20
193.54371992782777
 10
346.8170023880021
 20
193.62651863139638
 10
346.9560591923165
 20
193.7110301394242
 10
347.09406843970294
 20
193.79724172478888
 10
347.23100934647636
 20
193.88514040434285
 10
347.3668612898399
 20
193.97471294086824
 10
347.50160381099073
 20
194.06594584507056
 10
347.6352166182006
 20
194.15882537761001
 10
347.7676795898724
 20
194.2533375511706
 10
347.89897277756967
 20
194.34946813256664
 10
348.02907640902134
 20
194.4472026448862
 10
348.1579708910991
 20
194.5465263696712
 10
348.285636812768
 20
194.64742434913404
 10
348.41205494800994
 20
194.7498813884101
 10
348.53720625871864
 20
194.8538820578462
 10
348.66107189756707
 20
194.959410695324
 10
348.78363321084566
 20
195.06645140861892
 10
348.90487174127145
 20
195.17498807779324
 10
349.02476923076773
 20
195.28500435762382
 10
349.1433076232135
 20
195.39648368006354
 10
349.260469067163
 20
195.50940925673657
 10
349.3762359185336
 20
195.6237640814664
 10
349.49059074326345
 20
195.73953093283703
 10
349.60351631993643
 20
195.8566923767865
 10
349.7149956423762
 20
195.9752307692323
 10
349.8250119222068
 20
196.09512825872855
 10
349.93354859138105
 20
196.21636678915434
 10
350.04058930467596
 20
196.33892810243293
 10
350.1461179421538
 20
196.46279374128136
 10
350.25011861158987
 20
196.58794505199006
 10
350.35257565086596
 20
196.71436318723195
 10
350.4534736303288
 20
196.84202910890087
 10
350.5527973551138
 20
196.97092359097866
 10
350.65053186743336
 20
197.10102722243033
 10
350.7466624488294
 20
197.2323204101276
 10
350.84117462239
 20
197.36478338179938
 10
350.9340541549294
 20
197.4983961890093
 10
351.02528705913176
 20
197.63313871016007
 10
351.11485959565715
 20
197.76899065352367
 10
351.2027582752111
 20
197.9059315602971
 10
351.28896986057583
 20
198.0439408076835
 10
351.3734813686036
 20
198.18299761199788
 10
351.45628007217226
 20
198.323081031797
 10
351.5373535021015
 20
198.46416997103307
 10
351.61668944903107
 20
198.60624318223083
 10
351.6942759652592
 20
198.74927926968726
 10
351.77010136654184
 20
198.89325669269374
 10
351.8441542338525
 20
199.03815376877992
 10
351.9164234151018
 20
199.18394867697913
 10
351.98689802681685
 20
199.33061946111445
 10
352.0555674557803
 20
199.47814403310534
 10
352.12242136062883
 20
199.62650017629383
 10
352.1874496734102
 20
199.7756655487905
 10
352.2506426010997
 20
199.9256176868389
 10
352.31199062707486
 20
200.07633400819864
 10
352.37148451254865
 20
200.22779181554606
 10
352.4291152979607
 20
200.3799682998925
 10
352.48487430432687
 20
200.53284054401917
 10
352.5387531345457
 20
200.6863855259284
 10
352.59074367466366
 20
200.8405801223107
 10
352.6408380950966
 20
200.99540111202703
 10
352.6890288518091
 20
201.15082517960582
 10
352.7353086874504
 20
201.3068289187542
 10
352.7796706324475
 20
201.46338883588285
 10
352.82210800605475
 20
201.62048135364412
 10
352.8626144173597
 20
201.77808281448273
 10
352.9011837662457
 20
201.9361694841983
 10
352.93781024431087
 20
202.0947175555199
 10
352.97248833574224
 20
202.25370315169118
 10
353.00521281814684
 20
202.41310233006615
 10
353.03597876333794
 20
202.57289108571484
 10
353.06478153807734
 20
202.7330453550384
 10
353.0916168047732
 20
202.89354101939298
 10
353.116480522133
 20
203.0543539087219
 10
353.1393689457724
 20
203.2154598051955
 10
353.1602786287789
 20
203.3768344468584
 10
353.17920642223123
 20
203.53845353128312
 10
353.19614947567334
 20
203.70029271923002
 10
353.2111052375436
 20
203.86232763831273
 10
353.22407145555945
 20
204.02453388666842
 10
353.235046177056
 20
204.18688703663273
 10
353.2440277492806
 20
204.34936263841843
 10
353.2510148196415
 20
204.5119362237976
 10
353.25600633591165
 20
204.6745833097862
 10
353.2590015463871
 20
204.83727940233135
 10
353.26
 20
205.0
 10
378.26
 20
205.0
 10
378.26
 20
175.0
  0
HATCH
  5
EC
330
17
100
AcDbEntity
  8
23_ШТРИХОВКА
 62
7
100
AcDbHatch
 10
0.0
 20
0.0
 30
0.0
210
0.0
220
0.0
230
1.0
  2
ANSI31
 70
0
 71
0
 91
1
 92
3
 72
0
 73
1
 93
261
 10
301.74
 20
205.0
 10
301.74
 20
235.0
 10
378.26
 20
235.0
 10
378.26
 20
205.0
 10
353.26
 20
205.0
 10
353.2590015463871
 20
205.16272059766865
 10
353.25600633591165
 20
205.3254166902138
 10
353.2510148196415
 20
205.48806377620244
 10
353.2440277492806
 20
205.65063736158157
 10
353.235046177056
 20
205.8131129633673
 10
353.22407145555945
 20
205.97546611333158
 10
353.2111052375436
 20
206.13767236168727
 10
353.19614947567334
 20
206.29970728076998
 10
353.17920642223123
 20
206.4615464687169
 10
353.1602786287789
 20
206.6231655531416
 10
353.1393689457724
 20
206.7845401948045
 10
353.116480522133
 20
206.9456460912781
 10
353.0916168047732
 20
207.10645898060702
 10
353.06478153807734
 20
207.2669546449616
 10
353.03597876333794
 20
207.42710891428516
 10
353.00521281814684
 20
207.58689766993388
 10
352.97248833574224
 20
207.74629684830882
 10
352.93781024431087
 20
207.9052824444801
 10
352.9011837662457
 20
208.0638305158017
 10
352.8626144173597
 20
208.22191718551727
 10
352.82210800605475
 20
208.37951864635585
 10
352.7796706324475
 20
208.53661116411715
 10
352.7353086874504
 20
208.69317108124582
 10
352.6890288518091
 20
208.84917482039418
 10
352.6408380950966
 20
209.00459888797297
 10
352.59074367466366
 20
209.1594198776893
 10
352.5387531345457
 20
209.3136144740716
 10
352.48487430432687
 20
209.46715945598083
 10
352.4291152979607
 20
209.62003170010752
 10
352.37148451254865
 20
209.77220818445394
 10
352.31199062707486
 20
209.92366599180136
 10
352.2506426010997
 20
210.0743823131611
 10
352.1874496734102
 20
210.2243344512095
 10
352.12242136062883
 20
210.37349982370617
 10
352.0555674557803
 20
210.52185596689466
 10
351.98689802681685
 20
210.66938053888555
 10
351.9164234151018
 20
210.81605132302087
 10
351.8441542338525
 20
210.96184623122008
 10
351.77010136654184
 20
211.10674330730626
 10
351.6942759652592
 20
211.25072073031274
 10
351.61668944903107
 20
211.39375681776917
 10
351.5373535021015
 20
211.53583002896693
 10
351.45628007217226
 20
211.676918968203
 10
351.3734813686036
 20
211.81700238800212
 10
351.28896986057583
 20
211.9560591923165
 10
351.2027582752111
 20
212.0940684397029
 10
351.11485959565715
 20
212.23100934647633
 10
351.02528705913176
 20
212.36686128983993
 10
350.9340541549294
 20
212.50160381099073
 10
350.84117462239
 20
212.63521661820062
 10
350.7466624488294
 20
212.7676795898724
 10
350.65053186743336
 20
212.89897277756967
 10
350.5527973551138
 20
213.02907640902137
 10
350.4534736303288
 20
213.15797089109913
 10
350.35257565086596
 20
213.28563681276805
 10
350.25011861158987
 20
213.41205494800994
 10
350.1461179421538
 20
213.53720625871864
 10
350.04058930467596
 20
213.66107189756707
 10
349.93354859138105
 20
213.78363321084566
 10
349.8250119222067
 20
213.90487174127148
 10
349.7149956423762
 20
214.0247692307677
 10
349.60351631993643
 20
214.1433076232135
 10
349.49059074326345
 20
214.26046906716297
 10
349.3762359185336
 20
214.3762359185336
 10
349.26046906716294
 20
214.49059074326345
 10
349.1433076232135
 20
214.60351631993646
 10
349.0247692307677
 20
214.7149956423762
 10
348.90487174127145
 20
214.82501192220676
 10
348.78363321084566
 20
214.93354859138108
 10
348.66107189756707
 20
215.040589304676
 10
348.53720625871864
 20
215.1461179421538
 10
348.41205494800994
 20
215.2501186115899
 10
348.285636812768
 20
215.352575650866
 10
348.1579708910991
 20
215.4534736303288
 10
348.02907640902134
 20
215.5527973551138
 10
347.89897277756967
 20
215.65053186743336
 10
347.7676795898724
 20
215.7466624488294
 10
347.6352166182006
 20
215.84117462239
 10
347.50160381099073
 20
215.93405415492944
 10
347.3668612898399
 20
216.02528705913176
 10
347.23100934647636
 20
216.11485959565715
 10
347.0940684397029
 20
216.20275827521112
 10
346.9560591923165
 20
216.2889698605758
 10
346.8170023880021
 20
216.37348136860362
 10
346.67691896820304
 20
216.45628007217223
 10
346.5358300289669
 20
216.53735350210152
 10
346.39375681776914
 20
216.6166894490311
 10
346.2507207303127
 20
216.69427596525918
 10
346.10674330730626
 20
216.77010136654184
 10
345.9618462312201
 20
216.84415423385252
 10
345.8160513230209
 20
216.91642341510183
 10
345.66938053888555
 20
216.98689802681685
 10
345.5218559668947
 20
217.05556745578033
 10
345.37349982370614
 20
217.1224213606288
 10
345.2243344512095
 20
217.18744967341016
 10
345.0743823131611
 20
217.25064260109966
 10
344.9236659918014
 20
217.31199062707483
 10
344.7722081844539
 20
217.37148451254865
 10
344.6200317001075
 20
217.42911529796075
 10
344.46715945598083
 20
217.48487430432687
 10
344.3136144740716
 20
217.53875313454571
 10
344.1594198776893
 20
217.59074367466366
 10
344.004598887973
 20
217.6408380950966
 10
343.8491748203942
 20
217.6890288518091
 10
343.6931710812458
 20
217.7353086874504
 10
343.5366111641172
 20
217.77967063244753
 10
343.37951864635585
 20
217.82210800605475
 10
343.22191718551727
 20
217.86261441735965
 10
343.06383051580167
 20
217.90118376624574
 10
342.90528244448006
 20
217.9378102443109
 10
342.7462968483088
 20
217.97248833574227
 10
342.5868976699339
 20
218.00521281814684
 10
342.42710891428516
 20
218.03597876333794
 10
342.2669546449616
 20
218.06478153807737
 10
342.106458980607
 20
218.0916168047732
 10
341.9456460912781
 20
218.116480522133
 10
341.7845401948045
 20
218.13936894577236
 10
341.6231655531416
 20
218.16027862877888
 10
341.4615464687169
 20
218.17920642223123
 10
341.29970728076995
 20
218.19614947567334
 10
341.1376723616873
 20
218.21110523754365
 10
340.9754661133316
 20
218.22407145555943
 10
340.8131129633673
 20
218.23504617705598
 10
340.6506373615816
 20
218.24402774928058
 10
340.4880637762024
 20
218.2510148196415
 10
340.3254166902138
 20
218.25600633591168
 10
340.1627205976686
 20
218.25900154638705
 10
340.0
 20
218.26
 10
339.8372794023313
 20
218.25900154638705
 10
339.67458330978616
 20
218.25600633591168
 10
339.5119362237976
 20
218.2510148196415
 10
339.3493626384184
 20
218.24402774928058
 10
339.1868870366327
 20
218.23504617705598
 10
339.0245338866684
 20
218.22407145555943
 10
338.8623276383127
 20
218.21110523754365
 10
338.70029271923005
 20
218.19614947567334
 10
338.5384535312831
 20
218.17920642223123
 10
338.3768344468584
 20
218.16027862877888
 10
338.2154598051955
 20
218.13936894577236
 10
338.0543539087219
 20
218.116480522133
 10
337.893541019393
 20
218.0916168047732
 10
337.7330453550384
 20
218.06478153807737
 10
337.57289108571484
 20
218.03597876333794
 10
337.4131023300661
 20
218.00521281814684
 10
337.2537031516912
 20
217.97248833574227
 10
337.0947175555199
 20
217.9378102443109
 10
336.93616948419833
 20
217.90118376624574
 10
336.77808281448273
 20
217.86261441735965
 10
336.62048135364415
 20
217.82210800605475
 10
336.4633888358828
 20
217.77967063244753
 10
336.3068289187542
 20
217.7353086874504
 10
336.1508251796058
 20
217.6890288518091
 10
335.995401112027
 20
217.6408380950966
 10
335.8405801223107
 20
217.59074367466366
 10
335.6863855259284
 20
217.53875313454571
 10
335.53284054401917
 20
217.48487430432687
 10
335.3799682998925
 20
217.42911529796075
 10
335.2277918155461
 20
217.37148451254865
 10
335.0763340081986
 20
217.31199062707483
 10
334.9256176868389
 20
217.25064260109966
 10
334.7756655487905
 20
217.18744967341016
 10
334.6265001762938
 20
217.1224213606288
 10
334.4781440331053
 20
217.05556745578033
 10
334.33061946111445
 20
216.98689802681685
 10
334.1839486769791
 20
216.91642341510183
 10
334.0381537687799
 20
216.84415423385252
 10
333.89325669269374
 20
216.77010136654184
 10
333.7492792696873
 20
216.69427596525918
 10
333.60624318223086
 20
216.6166894490311
 10
333.4641699710331
 20
216.53735350210152
 10
333.32308103179696
 20
216.45628007217223
 10
333.1829976119979
 20
216.37348136860362
 10
333.0439408076835
 20
216.2889698605758
 10
332.90593156029706
 20
216.20275827521112
 10
332.76899065352364
 20
216.11485959565715
 10
332.6331387101601
 20
216.02528705913176
 10
332.49839618900927
 20
215.93405415492944
 10
332.3647833817994
 20
215.84117462239
 10
332.2323204101276
 20
215.7466624488294
 10
332.10102722243033
 20
215.65053186743336
 10
331.97092359097866
 20
215.5527973551138
 10
331.8420291089009
 20
215.4534736303288
 10
331.714363187232
 20
215.35257565086596
 10
331.58794505199006
 20
215.2501186115899
 10
331.46279374128136
 20
215.1461179421538
 10
331.33892810243293
 20
215.040589304676
 10
331.21636678915434
 20
214.93354859138105
 10
331.09512825872855
 20
214.82501192220676
 10
330.97523076923227
 20
214.71499564237618
 10
330.8566923767865
 20
214.60351631993646
 10
330.739530932837
 20
214.49059074326343
 10
330.6237640814664
 20
214.3762359185336
 10
330.50940925673655
 20
214.26046906716297
 10
330.39648368006357
 20
214.1433076232135
 10
330.2850043576238
 20
214.0247692307677
 10
330.1749880777932
 20
213.90487174127145
 10
330.06645140861895
 20
213.78363321084566
 10
329.95941069532404
 20
213.66107189756707
 10
329.8538820578462
 20
213.53720625871864
 10
329.74988138841013
 20
213.41205494800994
 10
329.64742434913404
 20
213.28563681276805
 10
329.5465263696712
 20
213.1579708910991
 10
329.4472026448862
 20
213.02907640902134
 10
329.34946813256664
 20
212.89897277756967
 10
329.2533375511706
 20
212.7676795898724
 10
329.15882537761
 20
212.63521661820062
 10
329.0659458450706
 20
212.5016038109907
 10
328.97471294086824
 20
212.36686128983993
 10
328.88514040434285
 20
212.23100934647633
 10
328.7972417247889
 20
212.0940684397029
 10
328.71103013942417
 20
211.9560591923165
 10
328.6265186313964
 20
211.81700238800212
 10
328.54371992782774
 20
211.676918968203
 10
328.4626464978985
 20
211.53583002896693
 10
328.38331055096893
 20
211.39375681776917
 10
328.3057240347408
 20
211.25072073031274
 10
328.22989863345816
 20
211.10674330730626
 10
328.1558457661475
 20
210.96184623122008
 10
328.0835765848982
 20
210.81605132302087
 10
328.01310197318315
 20
210.66938053888555
 10
327.9444325442197
 20
210.52185596689466
 10
327.87757863937117
 20
210.37349982370617
 10
327.8125503265898
 20
210.2243344512095
 10
327.7493573989003
 20
210.0743823131611
 10
327.68800937292514
 20
209.92366599180136
 10
327.62851548745135
 20
209.77220818445394
 10
327.5708847020393
 20
209.6200317001075
 10
327.51512569567313
 20
209.46715945598083
 10
327.4612468654543
 20
209.3136144740716
 10
327.40925632533634
 20
209.1594198776893
 10
327.3591619049034
 20
209.00459888797297
 10
327.3109711481909
 20
208.84917482039415
 10
327.2646913125496
 20
208.6931710812458
 10
327.2203293675525
 20
208.53661116411715
 10
327.17789199394525
 20
208.37951864635585
 10
327.1373855826403
 20
208.22191718551727
 10
327.0988162337543
 20
208.0638305158017
 10
327.06218975568913
 20
207.9052824444801
 10
327.02751166425776
 20
207.74629684830882
 10
326.99478718185316
 20
207.58689766993388
 10
326.96402123666206
 20
207.42710891428516
 10
326.93521846192266
 20
207.2669546449616
 10
326.9083831952268
 20
207.106458980607
 10
326.883519477867
 20
206.9456460912781
 10
326.8606310542276
 20
206.7845401948045
 10
326.8397213712211
 20
206.6231655531416
 10
326.82079357776877
 20
206.46154646871688
 10
326.80385052432666
 20
206.29970728076998
 10
326.7888947624564
 20
206.13767236168727
 10
326.77592854444055
 20
205.97546611333158
 10
326.764953822944
 20
205.81311296336727
 10
326.7559722507194
 20
205.65063736158157
 10
326.7489851803585
 20
205.4880637762024
 10
326.74399366408835
 20
205.3254166902138
 10
326.7409984536129
 20
205.16272059766865
 10
326.74
 20
205.0
 97
0
 75
1
 76
1
 52
0.0
 41
0.5
 77
0
 78
1
 53
45.0
 43
0.0
 44
0.0
 45
-1.1225320152
 46
1.1225320152
 79
0
 98
0
  0
LWPOLYLINE
  5
ED
330
17
100
AcDbEntity
  8
20_ВИДИМЫЕ
100
AcDbPolyline
 90
262
 70
1
 10
301.74
 20
205.0
 10
301.74
 20
235.0
 10
378.26
 20
235.0
 10
378.26
 20
205.0
 10
353.26
 20
205.0
 10
353.2590015463871
 20
205.16272059766865
 10
353.25600633591165
 20
205.3254166902138
 10
353.2510148196415
 20
205.48806377620244
 10
353.2440277492806
 20
205.65063736158157
 10
353.235046177056
 20
205.8131129633673
 10
353.22407145555945
 20
205.97546611333158
 10
353.2111052375436
 20
206.13767236168727
 10
353.19614947567334
 20
206.29970728076998
 10
353.17920642223123
 20
206.4615464687169
 10
353.1602786287789
 20
206.6231655531416
 10
353.1393689457724
 20
206.7845401948045
 10
353.116480522133
 20
206.9456460912781
 10
353.0916168047732
 20
207.10645898060702
 10
353.06478153807734
 20
207.2669546449616
 10
353.03597876333794
 20
207.42710891428516
 10
353.00521281814684
 20
207.58689766993388
 10
352.97248833574224
 20
207.74629684830882
 10
352.93781024431087
 20
207.9052824444801
 10
352.9011837662457
 20
208.0638305158017
 10
352.8626144173597
 20
208.22191718551727
 10
352.82210800605475
 20
208.37951864635585
 10
352.7796706324475
 20
208.53661116411715
 10
352.7353086874504
 20
208.69317108124582
 10
352.6890288518091
 20
208.84917482039418
 10
352.6408380950966
 20
209.00459888797297
 10
352.59074367466366
 20
209.1594198776893
 10
352.5387531345457
 20
209.3136144740716
 10
352.48487430432687
 20
209.46715945598083
 10
352.4291152979607
 20
209.62003170010752
 10
352.37148451254865
 20
209.77220818445394
 10
352.31199062707486
 20
209.92366599180136
 10
352.2506426010997
 20
210.0743823131611
 10
352.1874496734102
 20
210.2243344512095
 10
352.12242136062883
 20
210.37349982370617
 10
352.0555674557803
 20
210.52185596689466
 10
351.98689802681685
 20
210.66938053888555
 10
351.9164234151018
 20
210.81605132302087
 10
351.8441542338525
 20
210.96184623122008
 10
351.77010136654184
 20
211.10674330730626
 10
351.6942759652592
 20
211.25072073031274
 10
351.61668944903107
 20
211.39375681776917
 10
351.5373535021015
 20
211.53583002896693
 10
351.45628007217226
 20
211.676918968203
 10
351.3734813686036
 20
211.81700238800212
 10
351.28896986057583
 20
211.9560591923165
 10
351.2027582752111
 20
212.0940684397029
 10
351.11485959565715
 20
212.23100934647633
 10
351.02528705913176
 20
212.36686128983993
 10
350.9340541549294
 20
212.50160381099073
 10
350.84117462239
 20
212.63521661820062
 10
350.7466624488294
 20
212.7676795898724
 10
350.65053186743336
 20
212.89897277756967
 10
350.5527973551138
 20
213.02907640902137
 10
350.4534736303288
 20
213.15797089109913
 10
350.35257565086596
 20
213.28563681276805
 10
350.25011861158987
 20
213.41205494800994
 10
350.1461179421538
 20
213.53720625871864
 10
350.04058930467596
 20
213.66107189756707
 10
349.93354859138105
 20
213.78363321084566
 10
349.8250119222067
 20
213.90487174127148
 10
349.7149956423762
 20
214.0247692307677
 10
349.60351631993643
 20
214.1433076232135
 10
349.49059074326345
 20
214.26046906716297
 10
349.3762359185336
 20
214.3762359185336
 10
349.26046906716294
 20
214.49059074326345
 10
349.1433076232135
 20
214.60351631993646
 10
349.0247692307677
 20
214.7149956423762
 10
348.90487174127145
 20
214.82501192220676
 10
348.78363321084566
 20
214.93354859138108
 10
348.66107189756707
 20
215.040589304676
 10
348.53720625871864
 20
215.1461179421538
 10
348.41205494800994
 20
215.2501186115899
 10
348.285636812768
 20
215.352575650866
 10
348.1579708910991
 20
215.4534736303288
 10
348.02907640902134
 20
215.5527973551138
 10
347.89897277756967
 20
215.65053186743336
 10
347.7676795898724
 20
215.7466624488294
 10
347.6352166182006
 20
215.84117462239
 10
347.50160381099073
 20
215.93405415492944
 10
347.3668612898399
 20
216.02528705913176
 10
347.23100934647636
 20
216.11485959565715
 10
347.0940684397029
 20
216.20275827521112
 10
346.9560591923165
 20
216.2889698605758
 10
346.8170023880021
 20
216.37348136860362
 10
346.67691896820304
 20
216.45628007217223
 10
346.5358300289669
 20
216.53735350210152
 10
346.39375681776914
 20
216.6166894490311
 10
346.2507207303127
 20
216.69427596525918
 10
346.10674330730626
 20
216.77010136654184
 10
345.9618462312201
 20
216.84415423385252
 10
345.8160513230209
 20
216.91642341510183
 10
345.66938053888555
 20
216.98689802681685
 10
345.5218559668947
 20
217.05556745578033
 10
345.37349982370614
 20
217.1224213606288
 10
345.2243344512095
 20
217.18744967341016
 10
345.0743823131611
 20
217.25064260109966
 10
344.9236659918014
 20
217.31199062707483
 10
344.7722081844539
 20
217.37148451254865
 10
344.6200317001075
 20
217.42911529796075
 10
344.46715945598083
 20
217.48487430432687
 10
344.3136144740716
 20
217.53875313454571
 10
344.1594198776893
 20
217.59074367466366
 10
344.004598887973
 20
217.6408380950966
 10
343.8491748203942
 20
217.6890288518091
 10
343.6931710812458
 20
217.7353086874504
 10
343.5366111641172
 20
217.77967063244753
 10
343.37951864635585
 20
217.82210800605475
 10
343.22191718551727
 20
217.86261441735965
 10
343.06383051580167
 20
217.90118376624574
 10
342.90528244448006
 20
217.9378102443109
 10
342.7462968483088
 20
217.97248833574227
 10
342.5868976699339
 20
218.00521281814684
 10
342.42710891428516
 20
218.03597876333794
 10
342.2669546449616
 20
218.06478153807737
 10
342.106458980607
 20
218.0916168047732
 10
341.9456460912781
 20
218.116480522133
 10
341.7845401948045
 20
218.13936894577236
 10
341.6231655531416
 20
218.16027862877888
 10
341.4615464687169
 20
218.17920642223123
 10
341.29970728076995
 20
218.19614947567334
 10
341.1376723616873
 20
218.21110523754365
 10
340.9754661133316
 20
218.22407145555943
 10
340.8131129633673
 20
218.23504617705598
 10
340.6506373615816
 20
218.24402774928058
 10
340.4880637762024
 20
218.2510148196415
 10
340.3254166902138
 20
218.25600633591168
 10
340.1627205976686
 20
218.25900154638705
 10
340.0
 20
218.26
 10
339.8372794023313
 20
218.25900154638705
 10
339.67458330978616
 20
218.25600633591168
 10
339.5119362237976
 20
218.2510148196415
 10
339.3493626384184
 20
218.24402774928058
 10
339.1868870366327
 20
218.23504617705598
 10
339.0245338866684
 20
218.22407145555943
 10
338.8623276383127
 20
218.21110523754365
 10
338.70029271923005
 20
218.19614947567334
 10
338.5384535312831
 20
218.17920642223123
 10
338.3768344468584
 20
218.16027862877888
 10
338.2154598051955
 20
218.13936894577236
 10
338.0543539087219
 20
218.116480522133
 10
337.893541019393
 20
218.0916168047732
 10
337.7330453550384
 20
218.06478153807737
 10
337.57289108571484
 20
218.03597876333794
 10
337.4131023300661
 20
218.00521281814684
 10
337.2537031516912
 20
217.97248833574227
 10
337.0947175555199
 20
217.9378102443109
 10
336.93616948419833
 20
217.90118376624574
 10
336.77808281448273
 20
217.86261441735965
 10
336.62048135364415
 20
217.82210800605475
 10
336.4633888358828
 20
217.77967063244753
 10
336.3068289187542
 20
217.7353086874504
 10
336.1508251796058
 20
217.6890288518091
 10
335.995401112027
 20
217.6408380950966
 10
335.8405801223107
 20
217.59074367466366
 10
335.6863855259284
 20
217.53875313454571
 10
335.53284054401917
 20
217.48487430432687
 10
335.3799682998925
 20
217.42911529796075
 10
335.2277918155461
 20
217.37148451254865
 10
335.0763340081986
 20
217.31199062707483
 10
334.9256176868389
 20
217.25064260109966
 10
334.7756655487905
 20
217.18744967341016
 10
334.6265001762938
 20
217.1224213606288
 10
334.4781440331053
 20
217.05556745578033
 10
334.33061946111445
 20
216.98689802681685
 10
334.1839486769791
 20
216.91642341510183
 10
334.0381537687799
 20
216.84415423385252
 10
333.89325669269374
 20
216.77010136654184
 10
333.7492792696873
 20
216.69427596525918
 10
333.60624318223086
 20
216.6166894490311
 10
333.4641699710331
 20
216.53735350210152
 10
333.32308103179696
 20
216.45628007217223
 10
333.1829976119979
 20
216.37348136860362
 10
333.0439408076835
 20
216.2889698605758
 10
332.90593156029706
 20
216.20275827521112
 10
332.76899065352364
 20
216.11485959565715
 10
332.6331387101601
 20
216.02528705913176
 10
332.49839618900927
 20
215.93405415492944
 10
332.3647833817994
 20
215.84117462239
 10
332.2323204101276
 20
215.7466624488294
 10
332.10102722243033
 20
215.65053186743336
 10
331.97092359097866
 20
215.5527973551138
 10
331.8420291089009
 20
215.4534736303288
 10
331.714363187232
 20
215.35257565086596
 10
331.58794505199006
 20
215.2501186115899
 10
331.46279374128136
 20
215.1461179421538
 10
331.33892810243293
 20
215.040589304676
 10
331.21636678915434
 20
214.93354859138105
 10
331.09512825872855
 20
214.82501192220676
 10
330.97523076923227
 20
214.71499564237618
 10
330.8566923767865
 20
214.60351631993646
 10
330.739530932837
 20
214.49059074326343
 10
330.6237640814664
 20
214.3762359185336
 10
330.50940925673655
 20
214.26046906716297
 10
330.39648368006357
 20
214.1433076232135
 10
330.2850043576238
 20
214.0247692307677
 10
330.1749880777932
 20
213.90487174127145
 10
330.06645140861895
 20
213.78363321084566
 10
329.95941069532404
 20
213.66107189756707
 10
329.8538820578462
 20
213.53720625871864
 10
329.74988138841013
 20
213.41205494800994
 10
329.64742434913404
 20
213.28563681276805
 10
329.5465263696712
 20
213.1579708910991
 10
329.4472026448862
 20
213.02907640902134
 10
329.34946813256664
 20
212.89897277756967
 10
329.2533375511706
 20
212.7676795898724
 10
329.15882537761
 20
212.63521661820062
 10
329.0659458450706
 20
212.5016038109907
 10
328.97471294086824
 20
212.36686128983993
 10
328.88514040434285
 20
212.23100934647633
 10
328.7972417247889
 20
212.0940684397029
 10
328.71103013942417
 20
211.9560591923165
 10
328.6265186313964
 20
211.81700238800212
 10
328.54371992782774
 20
211.676918968203
 10
328.4626464978985
 20
211.53583002896693
 10
328.38331055096893
 20
211.39375681776917
 10
328.3057240347408
 20
211.25072073031274
 10
328.22989863345816
 20
211.10674330730626
 10
328.1558457661475
 20
210.96184623122008
 10
328.0835765848982
 20
210.81605132302087
 10
328.01310197318315
 20
210.66938053888555
 10
327.9444325442197
 20
210.52185596689466
 10
327.87757863937117
 20
210.37349982370617
 10
327.8125503265898
 20
210.2243344512095
 10
327.7493573989003
 20
210.0743823131611
 10
327.68800937292514
 20
209.92366599180136
 10
327.62851548745135
 20
209.77220818445394
 10
327.5708847020393
 20
209.6200317001075
 10
327.51512569567313
 20
209.46715945598083
 10
327.4612468654543
 20
209.3136144740716
 10
327.40925632533634
 20
209.1594198776893
 10
327.3591619049034
 20
209.00459888797297
 10
327.3109711481909
 20
208.84917482039415
 10
327.2646913125496
 20
208.6931710812458
 10
327.2203293675525
 20
208.53661116411715
 10
327.17789199394525
 20
208.37951864635585
 10
327.1373855826403
 20
208.22191718551727
 10
327.0988162337543
 20
208.0638305158017
 10
327.06218975568913
 20
207.9052824444801
 10
327.02751166425776
 20
207.74629684830882
 10
326.99478718185316
 20
207.58689766993388
 10
326.96402123666206
 20
207.42710891428516
 10
326.93521846192266
 20
207.2669546449616
 10
326.9083831952268
 20
207.106458980607
 10
326.883519477867
 20
206.9456460912781
 10
326.8606310542276
 20
206.7845401948045
 10
326.8397213712211
 20
206.6231655531416
 10
326.82079357776877
 20
206.46154646871688
 10
326.80385052432666
 20
206.29970728076998
 10
326.7888947624564
 20
206.13767236168727
 10
326.77592854444055
 20
205.97546611333158
 10
326.764953822944
 20
205.81311296336727
 10
326.7559722507194
 20
205.65063736158157
 10
326.7489851803585
 20
205.4880637762024
 10
326.74399366408835
 20
205.3254166902138
 10
326.7409984536129
 20
205.16272059766865
 10
326.74
 20
205.0
 10
301.74
 20
205.0
  0
LINE
  5
EE
330
17
100
AcDbEntity
  8
07_ОСИ
100
AcDbLine
 10
295.74
 20
205.0
 30
0.0
 11
384.26
 21
205.0
 31
0.0
  0
LINE
  5
EF
330
17
100
AcDbEntity
  8
07_ОСИ
100
AcDbLine
 10
320.74
 20
205.0
 30
0.0
 11
359.26
 21
205.0
 31
0.0
  0
LINE
  5
F0
330
17
100
AcDbEntity
  8
07_ОСИ
100
AcDbLine
 10
340.0
 20
185.74
 30
0.0
 11
340.0
 21
224.26
 31
0.0
  0
DIMENSION
  5
F1
330
17
100
AcDbEntity
  8
09_РАЗМЕРЫ
100
AcDbDimension
280
0
  2
*D4
  3
ГОСТ
 10
326.74
 20
247.0
 30
0.0
 11
340.0
 21
249.75
 31
0.0
 70
32
 71
5
  1
⌀26,5
100
AcDbAlignedDimension
 13
326.74
 23
205.0
 33
0.0
 14
353.26
 24
205.0
 34
0.0
 50
0.0
100
AcDbRotatedDimension
1001
ACAD
1000
DSTYLE
1002
{
1070
340
1005
99
1002
}
  0
DIMENSION
  5
100
330
17
100
AcDbEntity
  8
09_РАЗМЕРЫ
100
AcDbDimension
280
0
  2
*D5
  3
ГОСТ
 10
390.26
 20
175.0
 30
0.0
 11
387.51
 21
205.0
 31
0.0
 70
32
 71
5
  1
<>
100
AcDbAlignedDimension
 13
378.26
 23
175.0
 33
0.0
 14
378.26
 24
235.0
 34
0.0
 50
90.0
100
AcDbRotatedDimension
1001
ACAD
1000
DSTYLE
1002
{
1070
340
1005
99
1002
}
  0
TEXT
  5
10F
330
17
100
AcDbEntity
  8
08_ТЕКСТ
100
AcDbText
 10
340.0
 20
259.0
 30
0.0
 40
5.0
  1
А-А
  7
ГОСТ
 72
1
 11
340.0
 21
259.0
 31
0.0
100
AcDbText
 73
1
  0
LWPOLYLINE
  5
110
330
17
100
AcDbEntity
  8
00_РАМКА
100
AcDbPolyline
 90
4
 70
1
 10
0.0
 20
0.0
 10
420.0
 20
0.0
 10
420.0
 20
297.0
 10
0.0
 20
297.0
  0
LWPOLYLINE
  5
111
330
17
100
AcDbEntity
  8
00_РАМКА
100
AcDbPolyline
 90
4
 70
1
 10
20.0
 20
5.0
 10
415.0
 20
5.0
 10
415.0
 20
292.0
 10
20.0
 20
292.0
  0
LWPOLYLINE
  5
112
330
17
100
AcDbEntity
  8
00_РАМКА
100
AcDbPolyline
 90
4
 70
1
 10
230.0
 20
5.0
 10
415.0
 20
5.0
 10
415.0
 20
60.0
 10
230.0
 20
60.0
  0
LINE
  5
113
330
17
100
AcDbEntity
  8
00_РАМКА
100
AcDbLine
 10
230.0
 20
17.0
 30
0.0
 11
415.0
 21
17.0
 31
0.0
  0
LINE
  5
114
330
17
100
AcDbEntity
  8
00_РАМКА
100
AcDbLine
 10
230.0
 20
29.0
 30
0.0
 11
415.0
 21
29.0
 31
0.0
  0
LINE
  5
115
330
17
100
AcDbEntity
  8
00_РАМКА
100
AcDbLine
 10
230.0
 20
41.0
 30
0.0
 11
415.0
 21
41.0
 31
0.0
  0
LINE
  5
116
330
17
100
AcDbEntity
  8
00_РАМКА
100
AcDbLine
 10
350.0
 20
5.0
 30
0.0
 11
350.0
 21
41.0
 31
0.0
  0
TEXT
  5
117
330
17
100
AcDbEntity
  8
08_ТЕКСТ
100
AcDbText
 10
233.0
 20
50.5
 30
0.0
 40
5.0
  1
Ящик стержневой
  7
ГОСТ
 11
233.0
 21
50.5
 31
0.0
100
AcDbText
 73
2
  0
TEXT
  5
118
330
17
100
AcDbEntity
  8
08_ТЕКСТ
100
AcDbText
 10
233.0
 20
37.8
 30
0.0
 40
2.5
  1
Оснастка - стержень Ст. 1 литого отверстия корпуса
  7
ГОСТ
 11
233.0
 21
37.8
 31
0.0
100
AcDbText
 73
2
  0
TEXT
  5
119
330
17
100
AcDbEntity
  8
08_ТЕКСТ
100
AcDbText
 10
233.0
 20
32.2
 30
0.0
 40
2.5
  1
ВГ-2026.46.01
  7
ГОСТ
 11
233.0
 21
32.2
 31
0.0
100
AcDbText
 73
2
  0
TEXT
  5
11A
330
17
100
AcDbEntity
  8
08_ТЕКСТ
100
AcDbText
 10
233.0
 20
23.0
 30
0.0
 40
4.5
  1
ВГ-2026.46.01-СЯ1
  7
ГОСТ
 11
233.0
 21
23.0
 31
0.0
100
AcDbText
 73
2
  0
TEXT
  5
11B
330
17
100
AcDbEntity
  8
08_ТЕКСТ
100
AcDbText
 10
353.0
 20
23.0
 30
0.0
 40
3.5
  1
Масштаб 1 : 1
  7
ГОСТ
 11
353.0
 21
23.0
 31
0.0
100
AcDbText
 73
2
  0
TEXT
  5
11C
330
17
100
AcDbEntity
  8
08_ТЕКСТ
100
AcDbText
 10
233.0
 20
11.0
 30
0.0
 40
2.5
  1
Берёза ГОСТ 2695-83
  7
ГОСТ
 11
233.0
 21
11.0
 31
0.0
100
AcDbText
 73
2
  0
TEXT
  5
11D
330
17
100
AcDbEntity
  8
08_ТЕКСТ
100
AcDbText
 10
353.0
 20
11.0
 30
0.0
 40
3.0
  1
Формат A3
  7
ГОСТ
 11
353.0
 21
11.0
 31
0.0
100
AcDbText
 73
2
  0
TEXT
  5
11E
330
17
100
AcDbEntity
  8
08_ТЕКСТ
100
AcDbText
 10
233.0
 20
64.0
 30
0.0
 40
3.0
  1
УЖЦ ОСК 2026 · «Волжский Горизонт» · ПБ «Без границ»
  7
ГОСТ
 11
233.0
 21
64.0
 31
0.0
100
AcDbText
 73
2
  0
TEXT
  5
11F
330
17
100
AcDbEntity
  8
08_ТЕКСТ
100
AcDbText
 10
233.0
 20
86.0
 30
0.0
 40
2.5
  1
1. Ящик деревянный разъёмный по оси стержня, берёза ГОСТ 2695-83. Размеры полости - с усадкой 2,0
  7
ГОСТ
 11
233.0
 21
86.0
 31
0.0
100
AcDbText
 73
2
  0
TEXT
  5
120
330
17
100
AcDbEntity
  8
08_ТЕКСТ
100
AcDbText
 10
233.0
 20
81.0
 30
0.0
 40
2.5
  1
    %.
  7
ГОСТ
 11
233.0
 21
81.0
 31
0.0
100
AcDbText
 73
2
  0
TEXT
  5
121
330
17
100
AcDbEntity
  8
08_ТЕКСТ
100
AcDbText
 10
233.0
 20
76.0
 30
0.0
 40
2.5
  1
2. Стержень Ст. 1 - ХТС, засыпка с торца, уплотнение вибрацией, съём через 35 мин.
  7
ГОСТ
 11
233.0
 21
76.0
 31
0.0
100
AcDbText
 73
2
  0
TEXT
  5
122
330
17
100
AcDbEntity
  8
08_ТЕКСТ
100
AcDbText
 10
233.0
 20
71.0
 30
0.0
 40
2.5
  1
3. Рабочие поверхности - Ra 3,2, покрыть лаком. Разделительный состав перед каждой засыпкой.
  7
ГОСТ
 11
233.0
 21
71.0
 31
0.0
100
AcDbText
 73
2
  0
TEXT
  5
123
330
17
100
AcDbEntity
  8
08_ТЕКСТ
100
AcDbText
 10
233.0
 20
92.5
 30
0.0
 40
3.5
  1
Технические требования
  7
ГОСТ
 11
233.0
 21
92.5
 31
0.0
100
AcDbText
 73
2
  0
ENDSEC
  0
SECTION
  2
OBJECTS
  0
DICTIONARY
  5
A
330
0
100
AcDbDictionary
281
1
  3
ACAD_COLOR
350
B
  3
ACAD_GROUP
350
C
  3
ACAD_LAYOUT
350
D
  3
ACAD_MATERIAL
350
E
  3
ACAD_MLEADERSTYLE
350
F
  3
ACAD_MLINESTYLE
350
10
  3
ACAD_PLOTSETTINGS
350
11
  3
ACAD_PLOTSTYLENAME
350
12
  3
ACAD_SCALELIST
350
14
  3
ACAD_TABLESTYLE
350
15
  3
ACAD_VISUALSTYLE
350
16
  3
EZDXF_META
350
2D
  0
DICTIONARY
  5
B
330
A
100
AcDbDictionary
281
1
  0
DICTIONARY
  5
C
330
A
100
AcDbDictionary
281
1
  0
DICTIONARY
  5
D
330
A
100
AcDbDictionary
281
1
  3
Model
350
1A
  3
Layout1
350
1E
  0
DICTIONARY
  5
E
330
A
100
AcDbDictionary
281
1
  3
ByBlock
350
1F
  3
ByLayer
350
20
  3
Global
350
21
  0
DICTIONARY
  5
F
330
A
100
AcDbDictionary
281
1
  3
Standard
350
2C
  0
DICTIONARY
  5
10
330
A
100
AcDbDictionary
281
1
  3
Standard
350
22
  0
DICTIONARY
  5
11
330
A
100
AcDbDictionary
281
1
  0
ACDBDICTIONARYWDFLT
  5
12
330
A
100
AcDbDictionary
281
1
  3
Normal
350
13
100
AcDbDictionaryWithDefault
340
13
  0
ACDBPLACEHOLDER
  5
13
330
12
  0
DICTIONARY
  5
14
330
A
100
AcDbDictionary
281
1
  0
DICTIONARY
  5
15
330
A
100
AcDbDictionary
281
1
  0
DICTIONARY
  5
16
330
A
100
AcDbDictionary
281
1
  3
2dWireframe
350
5A
  3
Basic
350
5B
  3
Brighten
350
5C
  3
ColorChange
350
5D
  3
Conceptual
350
5E
  3
Dim
350
5F
  3
EdgeColorOff
350
60
  3
Facepattern
350
61
  3
Flat
350
62
  3
FlatWithEdges
350
63
  3
Gouraud
350
64
  3
GouraudWithEdges
350
65
  3
Hidden
350
66
  3
JitterOff
350
67
  3
Linepattern
350
68
  3
Modeling
350
69
  3
OverhangOff
350
6A
  3
Realistic
350
6B
  3
Shaded
350
6C
  3
Shaded with edges
350
6D
  3
Shades of Gray
350
6E
  3
Sketchy
350
6F
  3
Thicken
350
70
  3
Wireframe
350
71
  3
X-Ray
350
72
  0
LAYOUT
  5
1A
330
D
100
AcDbPlotSettings
  1

  4
A3
  6

 40
7.5
 41
20.0
 42
7.5
 43
20.0
 44
420.0
 45
297.0
 46
0.0
 47
0.0
 48
0.0
 49
0.0
140
0.0
141
0.0
142
1.0
143
1.0
 70
1024
 72
1
 73
0
 74
5
  7

 75
16
 76
0
 77
2
 78
300
147
1.0
148
0.0
149
0.0
100
AcDbLayout
  1
Model
 70
1
 71
0
 10
0.0
 20
0.0
 11
420.0
 21
297.0
 12
0.0
 22
0.0
 32
0.0
 14
1e+20
 24
1e+20
 34
1e+20
 15
-1e+20
 25
-1e+20
 35
-1e+20
146
0.0
 13
0.0
 23
0.0
 33
0.0
 16
1.0
 26
0.0
 36
0.0
 17
0.0
 27
1.0
 37
0.0
 76
1
330
17
  0
LAYOUT
  5
1E
330
D
100
AcDbPlotSettings
  1

  4
A3
  6

 40
7.5
 41
20.0
 42
7.5
 43
20.0
 44
420.0
 45
297.0
 46
0.0
 47
0.0
 48
0.0
 49
0.0
140
0.0
141
0.0
142
1.0
143
1.0
 70
0
 72
1
 73
0
 74
5
  7

 75
16
 76
0
 77
2
 78
300
147
1.0
148
0.0
149
0.0
100
AcDbLayout
  1
Layout1
 70
1
 71
1
 10
0.0
 20
0.0
 11
420.0
 21
297.0
 12
0.0
 22
0.0
 32
0.0
 14
1e+20
 24
1e+20
 34
1e+20
 15
-1e+20
 25
-1e+20
 35
-1e+20
146
0.0
 13
0.0
 23
0.0
 33
0.0
 16
1.0
 26
0.0
 36
0.0
 17
0.0
 27
1.0
 37
0.0
 76
1
330
1B
  0
MATERIAL
  5
1F
102
{ACAD_REACTORS
330
E
102
}
330
E
100
AcDbMaterial
  1
ByBlock
  2

 70
0
 40
1.0
 71
1
 41
1.0
 91
-1023410177
 42
1.0
 72
1
  3

 73
1
 74
1
 75
1
 44
0.5
 73
0
 45
1.0
 46
1.0
 77
1
  4

 78
1
 79
1
170
1
 48
1.0
171
1
  6

172
1
173
1
174
1
140
1.0
141
1.0
175
1
  7

176
1
177
1
178
1
143
1.0
179
1
  8

270
1
271
1
272
1
145
1.0
146
1.0
273
1
  9

274
1
275
1
276
1
 42
1.0
 72
1
  3

 73
1
 74
1
 75
1
 94
63
  0
MATERIAL
  5
20
102
{ACAD_REACTORS
330
E
102
}
330
E
100
AcDbMaterial
  1
ByLayer
  2

 70
0
 40
1.0
 71
1
 41
1.0
 91
-1023410177
 42
1.0
 72
1
  3

 73
1
 74
1
 75
1
 44
0.5
 73
0
 45
1.0
 46
1.0
 77
1
  4

 78
1
 79
1
170
1
 48
1.0
171
1
  6

172
1
173
1
174
1
140
1.0
141
1.0
175
1
  7

176
1
177
1
178
1
143
1.0
179
1
  8

270
1
271
1
272
1
145
1.0
146
1.0
273
1
  9

274
1
275
1
276
1
 42
1.0
 72
1
  3

 73
1
 74
1
 75
1
 94
63
  0
MATERIAL
  5
21
102
{ACAD_REACTORS
330
E
102
}
330
E
100
AcDbMaterial
  1
Global
  2

 70
0
 40
1.0
 71
1
 41
1.0
 91
-1023410177
 42
1.0
 72
1
  3

 73
1
 74
1
 75
1
 44
0.5
 73
0
 45
1.0
 46
1.0
 77
1
  4

 78
1
 79
1
170
1
 48
1.0
171
1
  6

172
1
173
1
174
1
140
1.0
141
1.0
175
1
  7

176
1
177
1
178
1
143
1.0
179
1
  8

270
1
271
1
272
1
145
1.0
146
1.0
273
1
  9

274
1
275
1
276
1
 42
1.0
 72
1
  3

 73
1
 74
1
 75
1
 94
63
  0
MLINESTYLE
  5
22
102
{ACAD_REACTORS
330
10
102
}
330
10
100
AcDbMlineStyle
  2
Standard
 70
0
  3

 62
256
 51
90.0
 52
90.0
 71
2
 49
0.5
 62
256
  6
BYLAYER
 49
-0.5
 62
256
  6
BYLAYER
  0
MLEADERSTYLE
  5
2C
102
{ACAD_REACTORS
330
F
102
}
330
F
100
AcDbMLeaderStyle
179
2
170
2
171
1
172
0
 90
2
 40
0.0
 41
0.0
173
1
 91
-1056964608
 92
-2
290
1
 42
2.0
291
1
 43
8.0
  3
Standard
 44
4.0
300

342
29
174
1
175
1
176
0
178
1
 93
-1056964608
 45
4.0
292
0
297
0
 46
4.0
 94
-1056964608
 47
1.0
 49
1.0
140
1.0
294
1
141
0.0
177
0
142
1.0
295
0
296
0
143
3.75
271
0
272
9
273
9
  0
DICTIONARY
  5
2D
330
A
100
AcDbDictionary
280
1
281
1
  3
CREATED_BY_EZDXF
350
2E
  3
WRITTEN_BY_EZDXF
350
126
  0
DICTIONARYVAR
  5
2E
330
2D
100
DictionaryVariables
280
0
  1
1.4.4 @ 2026-09-24T00:12:42.653893+00:00
  0
VISUALSTYLE
  5
5A
102
{ACAD_REACTORS
330
16
102
}
330
16
100
AcDbVisualStyle
  2
2dWireframe
 70
4
177
3
291
0
 70
58
 90
2
176
1
 90
2
176
1
 90
0
176
1
 90
0
176
1
 40
0.6
176
1
 40
30.0
176
1
 62
7
420
16777215
176
1
 90
1
176
1
 90
4
176
1
 62
7
176
1
 62
257
176
1
 90
1
176
1
 90
1
176
1
 40
1.0
176
1
 90
8
176
1
 62
7
176
1
 40
1.0
176
1
 90
1
176
1
 90
6
176
1
 90
2
176
1
 62
7
176
1
 90
5
176
1
 90
0
176
1
 90
0
176
1
290
0
176
1
 90
1
176
1
 40
0.0
176
1
 90
0
176
1
290
1
176
1
290
1
176
1
290
0
176
1
290
0
176
1
290
0
176
1
290
0
176
1
290
0
176
1
290
0
176
1
290
0
176
1
 90
50
176
1
 40
0.0
176
1
 40
1.0
176
1
 90
0
176
1
 62
18
420
0
176
1
 90
50
176
1
 90
3
176
1
 62
5
420
255
176
1
290
0
176
1
 90
50
176
1
 90
50
176
1
 90
50
176
1
290
0
176
1
 90
50
176
1
 62
256
176
0
 40
1.0
176
0
 90
2
176
1
  1
strokes_ogs.tif
176
1
290
0
176
1
 40
1.0
176
1
 40
1.0
176
1
  0
VISUALSTYLE
  5
5B
102
{ACAD_REACTORS
330
16
102
}
330
16
100
AcDbVisualStyle
  2
Basic
 70
7
177
3
291
1
 70
58
 90
2
176
1
 90
2
176
1
 90
0
176
1
 90
1
176
1
 40
0.6
176
1
 40
30.0
176
1
 62
7
420
16777215
176
1
 90
1
176
1
 90
4
176
1
 62
7
176
1
 62
257
176
1
 90
1
176
1
 90
1
176
1
 40
1.0
176
1
 90
8
176
1
 62
7
176
1
 40
1.0
176
1
 90
1
176
1
 90
6
176
1
 90
2
176
1
 62
7
176
1
 90
5
176
1
 90
0
176
1
 90
0
176
1
290
0
176
1
 90
1
176
1
 40
0.0
176
1
 90
0
176
1
290
0
176
1
290
1
176
1
290
1
176
1
290
0
176
1
290
0
176
1
290
0
176
1
290
0
176
1
290
0
176
1
290
0
176
1
 90
50
176
1
 40
0.0
176
1
 40
1.0
176
1
 90
0
176
1
 62
18
420
0
176
1
 90
50
176
1
 90
3
176
1
 62
5
420
255
176
1
290
0
176
1
 90
50
176
1
 90
50
176
1
 90
50
176
1
290
0
176
1
 90
50
176
1
 62
256
176
0
 40
1.0
176
0
 90
2
176
1
  1
strokes_ogs.tif
176
1
290
0
176
1
 40
1.0
176
1
 40
1.0
176
1
  0
VISUALSTYLE
  5
5C
102
{ACAD_REACTORS
330
16
102
}
330
16
100
AcDbVisualStyle
  2
Brighten
 70
12
177
3
291
1
 70
58
 90
2
176
1
 90
2
176
1
 90
0
176
1
 90
2
176
1
 40
0.6
176
1
 40
30.0
176
1
 62
7
420
16777215
176
1
 90
1
176
1
 90
4
176
1
 62
7
176
1
 62
257
176
1
 90
1
176
1
 90
1
176
1
 40
1.0
176
1
 90
8
176
1
 62
7
176
1
 40
1.0
176
1
 90
1
176
1
 90
6
176
1
 90
2
176
1
 62
7
176
1
 90
5
176
1
 90
0
176
1
 90
0
176
1
290
0
176
1
 90
1
176
1
 40
0.0
176
1
 90
0
176
1
290
0
176
1
290
1
176
1
290
1
176
1
290
0
176
1
290
0
176
1
290
0
176
1
290
0
176
1
290
0
176
1
290
0
176
1
 90
50
176
1
 40
0.0
176
1
 40
1.0
176
1
 90
0
176
1
 62
18
420
0
176
1
 90
50
176
1
 90
3
176
1
 62
5
420
255
176
1
290
0
176
1
 90
50
176
1
 90
50
176
1
 90
50
176
1
290
0
176
1
 90
50
176
1
 62
256
176
0
 40
1.0
176
0
 90
2
176
1
  1
strokes_ogs.tif
176
1
290
0
176
1
 40
1.0
176
1
 40
1.0
176
1
  0
VISUALSTYLE
  5
5D
102
{ACAD_REACTORS
330
16
102
}
330
16
100
AcDbVisualStyle
  2
ColorChange
 70
16
177
3
291
1
 70
58
 90
2
176
1
 90
2
176
1
 90
0
176
1
 90
2
176
1
 40
0.6
176
1
 40
30.0
176
1
 62
7
420
16777215
176
1
 90
1
176
1
 90
4
176
1
 62
7
176
1
 62
257
176
1
 90
1
176
1
 90
1
176
1
 40
1.0
176
1
 90
8
176
1
 62
7
176
1
 40
1.0
176
1
 90
1
176
1
 90
6
176
1
 90
2
176
1
 62
7
176
1
 90
5
176
1
 90
0
176
1
 90
0
176
1
290
0
176
1
 90
1
176
1
 40
0.0
176
1
 90
0
176
1
290
0
176
1
290
1
176
1
290
1
176
1
290
0
176
1
290
0
176
1
290
0
176
1
290
0
176
1
290
0
176
1
290
0
176
1
 90
50
176
1
 40
0.0
176
1
 40
1.0
176
1
 90
0
176
1
 62
18
420
0
176
1
 90
50
176
1
 90
3
176
1
 62
5
420
255
176
1
290
0
176
1
 90
50
176
1
 90
50
176
1
 90
50
176
1
290
0
176
1
 90
50
176
1
 62
256
176
0
 40
1.0
176
0
 90
2
176
1
  1
strokes_ogs.tif
176
1
290
0
176
1
 40
1.0
176
1
 40
1.0
176
1
  0
VISUALSTYLE
  5
5E
102
{ACAD_REACTORS
330
16
102
}
330
16
100
AcDbVisualStyle
  2
Conceptual
 70
9
177
3
291
0
 70
58
 90
2
176
1
 90
2
176
1
 90
0
176
1
 90
3
176
1
 40
0.6
176
1
 40
30.0
176
1
 62
7
420
16777215
176
1
 90
1
176
1
 90
4
176
1
 62
7
176
1
 62
257
176
1
 90
1
176
1
 90
1
176
1
 40
1.0
176
1
 90
8
176
1
 62
7
176
1
 40
1.0
176
1
 90
1
176
1
 90
6
176
1
 90
2
176
1
 62
7
176
1
 90
5
176
1
 90
0
176
1
 90
0
176
1
290
0
176
1
 90
1
176
1
 40
0.0
176
1
 90
0
176
1
290
0
176
1
290
1
176
1
290
1
176
1
290
0
176
1
290
0
176
1
290
0
176
1
290
0
176
1
290
0
176
1
290
0
176
1
 90
50
176
1
 40
0.0
176
1
 40
1.0
176
1
 90
0
176
1
 62
18
420
0
176
1
 90
50
176
1
 90
3
176
1
 62
5
420
255
176
1
290
0
176
1
 90
50
176
1
 90
50
176
1
 90
50
176
1
290
0
176
1
 90
50
176
1
 62
256
176
0
 40
1.0
176
0
 90
2
176
1
  1
strokes_ogs.tif
176
1
290
0
176
1
 40
1.0
176
1
 40
1.0
176
1
  0
VISUALSTYLE
  5
5F
102
{ACAD_REACTORS
330
16
102
}
330
16
100
AcDbVisualStyle
  2
Dim
 70
11
177
3
291
1
 70
58
 90
2
176
1
 90
2
176
1
 90
0
176
1
 90
2
176
1
 40
0.6
176
1
 40
30.0
176
1
 62
7
420
16777215
176
1
 90
1
176
1
 90
4
176
1
 62
7
176
1
 62
257
176
1
 90
1
176
1
 90
1
176
1
 40
1.0
176
1
 90
8
176
1
 62
7
176
1
 40
1.0
176
1
 90
1
176
1
 90
6
176
1
 90
2
176
1
 62
7
176
1
 90
5
176
1
 90
0
176
1
 90
0
176
1
290
0
176
1
 90
1
176
1
 40
0.0
176
1
 90
0
176
1
290
0
176
1
290
1
176
1
290
1
176
1
290
0
176
1
290
0
176
1
290
0
176
1
290
0
176
1
290
0
176
1
290
0
176
1
 90
50
176
1
 40
0.0
176
1
 40
1.0
176
1
 90
0
176
1
 62
18
420
0
176
1
 90
50
176
1
 90
3
176
1
 62
5
420
255
176
1
290
0
176
1
 90
50
176
1
 90
50
176
1
 90
50
176
1
290
0
176
1
 90
50
176
1
 62
256
176
0
 40
1.0
176
0
 90
2
176
1
  1
strokes_ogs.tif
176
1
290
0
176
1
 40
1.0
176
1
 40
1.0
176
1
  0
VISUALSTYLE
  5
60
102
{ACAD_REACTORS
330
16
102
}
330
16
100
AcDbVisualStyle
  2
EdgeColorOff
 70
22
177
3
291
1
 70
58
 90
2
176
1
 90
2
176
1
 90
0
176
1
 90
2
176
1
 40
0.6
176
1
 40
30.0
176
1
 62
7
420
16777215
176
1
 90
1
176
1
 90
4
176
1
 62
7
176
1
 62
257
176
1
 90
1
176
1
 90
1
176
1
 40
1.0
176
1
 90
8
176
1
 62
7
176
1
 40
1.0
176
1
 90
1
176
1
 90
6
176
1
 90
2
176
1
 62
7
176
1
 90
5
176
1
 90
0
176
1
 90
0
176
1
290
0
176
1
 90
1
176
1
 40
0.0
176
1
 90
0
176
1
290
0
176
1
290
1
176
1
290
1
176
1
290
0
176
1
290
0
176
1
290
0
176
1
290
0
176
1
290
0
176
1
290
0
176
1
 90
50
176
1
 40
0.0
176
1
 40
1.0
176
1
 90
0
176
1
 62
18
420
0
176
1
 90
50
176
1
 90
3
176
1
 62
5
420
255
176
1
290
0
176
1
 90
50
176
1
 90
50
176
1
 90
50
176
1
290
0
176
1
 90
50
176
1
 62
256
176
0
 40
1.0
176
0
 90
2
176
1
  1
strokes_ogs.tif
176
1
290
0
176
1
 40
1.0
176
1
 40
1.0
176
1
  0
VISUALSTYLE
  5
61
102
{ACAD_REACTORS
330
16
102
}
330
16
100
AcDbVisualStyle
  2
Facepattern
 70
15
177
3
291
1
 70
58
 90
2
176
1
 90
2
176
1
 90
0
176
1
 90
2
176
1
 40
0.6
176
1
 40
30.0
176
1
 62
7
420
16777215
176
1
 90
1
176
1
 90
4
176
1
 62
7
176
1
 62
257
176
1
 90
1
176
1
 90
1
176
1
 40
1.0
176
1
 90
8
176
1
 62
7
176
1
 40
1.0
176
1
 90
1
176
1
 90
6
176
1
 90
2
176
1
 62
7
176
1
 90
5
176
1
 90
0
176
1
 90
0
176
1
290
0
176
1
 90
1
176
1
 40
0.0
176
1
 90
0
176
1
290
0
176
1
290
1
176
1
290
1
176
1
290
0
176
1
290
0
176
1
290
0
176
1
290
0
176
1
290
0
176
1
290
0
176
1
 90
50
176
1
 40
0.0
176
1
 40
1.0
176
1
 90
0
176
1
 62
18
420
0
176
1
 90
50
176
1
 90
3
176
1
 62
5
420
255
176
1
290
0
176
1
 90
50
176
1
 90
50
176
1
 90
50
176
1
290
0
176
1
 90
50
176
1
 62
256
176
0
 40
1.0
176
0
 90
2
176
1
  1
strokes_ogs.tif
176
1
290
0
176
1
 40
1.0
176
1
 40
1.0
176
1
  0
VISUALSTYLE
  5
62
102
{ACAD_REACTORS
330
16
102
}
330
16
100
AcDbVisualStyle
  2
Flat
 70
0
177
3
291
1
 70
58
 90
2
176
1
 90
2
176
1
 90
0
176
1
 90
2
176
1
 40
0.6
176
1
 40
30.0
176
1
 62
7
420
16777215
176
1
 90
1
176
1
 90
4
176
1
 62
7
176
1
 62
257
176
1
 90
1
176
1
 90
1
176
1
 40
1.0
176
1
 90
8
176
1
 62
7
176
1
 40
1.0
176
1
 90
1
176
1
 90
6
176
1
 90
2
176
1
 62
7
176
1
 90
5
176
1
 90
0
176
1
 90
0
176
1
290
0
176
1
 90
1
176
1
 40
0.0
176
1
 90
0
176
1
290
0
176
1
290
1
176
1
290
1
176
1
290
0
176
1
290
0
176
1
290
0
176
1
290
0
176
1
290
0
176
1
290
0
176
1
 90
50
176
1
 40
0.0
176
1
 40
1.0
176
1
 90
0
176
1
 62
18
420
0
176
1
 90
50
176
1
 90
3
176
1
 62
5
420
255
176
1
290
0
176
1
 90
50
176
1
 90
50
176
1
 90
50
176
1
290
0
176
1
 90
50
176
1
 62
256
176
0
 40
1.0
176
0
 90
2
176
1
  1
strokes_ogs.tif
176
1
290
0
176
1
 40
1.0
176
1
 40
1.0
176
1
  0
VISUALSTYLE
  5
63
102
{ACAD_REACTORS
330
16
102
}
330
16
100
AcDbVisualStyle
  2
FlatWithEdges
 70
1
177
3
291
1
 70
58
 90
2
176
1
 90
2
176
1
 90
0
176
1
 90
2
176
1
 40
0.6
176
1
 40
30.0
176
1
 62
7
420
16777215
176
1
 90
1
176
1
 90
4
176
1
 62
7
176
1
 62
257
176
1
 90
1
176
1
 90
1
176
1
 40
1.0
176
1
 90
8
176
1
 62
7
176
1
 40
1.0
176
1
 90
1
176
1
 90
6
176
1
 90
2
176
1
 62
7
176
1
 90
5
176
1
 90
0
176
1
 90
0
176
1
290
0
176
1
 90
1
176
1
 40
0.0
176
1
 90
0
176
1
290
0
176
1
290
1
176
1
290
1
176
1
290
0
176
1
290
0
176
1
290
0
176
1
290
0
176
1
290
0
176
1
290
0
176
1
 90
50
176
1
 40
0.0
176
1
 40
1.0
176
1
 90
0
176
1
 62
18
420
0
176
1
 90
50
176
1
 90
3
176
1
 62
5
420
255
176
1
290
0
176
1
 90
50
176
1
 90
50
176
1
 90
50
176
1
290
0
176
1
 90
50
176
1
 62
256
176
0
 40
1.0
176
0
 90
2
176
1
  1
strokes_ogs.tif
176
1
290
0
176
1
 40
1.0
176
1
 40
1.0
176
1
  0
VISUALSTYLE
  5
64
102
{ACAD_REACTORS
330
16
102
}
330
16
100
AcDbVisualStyle
  2
Gouraud
 70
2
177
3
291
1
 70
58
 90
2
176
1
 90
2
176
1
 90
0
176
1
 90
2
176
1
 40
0.6
176
1
 40
30.0
176
1
 62
7
420
16777215
176
1
 90
1
176
1
 90
4
176
1
 62
7
176
1
 62
257
176
1
 90
1
176
1
 90
1
176
1
 40
1.0
176
1
 90
8
176
1
 62
7
176
1
 40
1.0
176
1
 90
1
176
1
 90
6
176
1
 90
2
176
1
 62
7
176
1
 90
5
176
1
 90
0
176
1
 90
0
176
1
290
0
176
1
 90
1
176
1
 40
0.0
176
1
 90
0
176
1
290
0
176
1
290
1
176
1
290
1
176
1
290
0
176
1
290
0
176
1
290
0
176
1
290
0
176
1
290
0
176
1
290
0
176
1
 90
50
176
1
 40
0.0
176
1
 40
1.0
176
1
 90
0
176
1
 62
18
420
0
176
1
 90
50
176
1
 90
3
176
1
 62
5
420
255
176
1
290
0
176
1
 90
50
176
1
 90
50
176
1
 90
50
176
1
290
0
176
1
 90
50
176
1
 62
256
176
0
 40
1.0
176
0
 90
2
176
1
  1
strokes_ogs.tif
176
1
290
0
176
1
 40
1.0
176
1
 40
1.0
176
1
  0
VISUALSTYLE
  5
65
102
{ACAD_REACTORS
330
16
102
}
330
16
100
AcDbVisualStyle
  2
GouraudWithEdges
 70
3
177
3
291
1
 70
58
 90
2
176
1
 90
2
176
1
 90
0
176
1
 90
2
176
1
 40
0.6
176
1
 40
30.0
176
1
 62
7
420
16777215
176
1
 90
1
176
1
 90
4
176
1
 62
7
176
1
 62
257
176
1
 90
1
176
1
 90
1
176
1
 40
1.0
176
1
 90
8
176
1
 62
7
176
1
 40
1.0
176
1
 90
1
176
1
 90
6
176
1
 90
2
176
1
 62
7
176
1
 90
5
176
1
 90
0
176
1
 90
0
176
1
290
0
176
1
 90
1
176
1
 40
0.0
176
1
 90
0
176
1
290
0
176
1
290
1
176
1
290
1
176
1
290
0
176
1
290
0
176
1
290
0
176
1
290
0
176
1
290
0
176
1
290
0
176
1
 90
50
176
1
 40
0.0
176
1
 40
1.0
176
1
 90
0
176
1
 62
18
420
0
176
1
 90
50
176
1
 90
3
176
1
 62
5
420
255
176
1
290
0
176
1
 90
50
176
1
 90
50
176
1
 90
50
176
1
290
0
176
1
 90
50
176
1
 62
256
176
0
 40
1.0
176
0
 90
2
176
1
  1
strokes_ogs.tif
176
1
290
0
176
1
 40
1.0
176
1
 40
1.0
176
1
  0
VISUALSTYLE
  5
66
102
{ACAD_REACTORS
330
16
102
}
330
16
100
AcDbVisualStyle
  2
Hidden
 70
6
177
3
291
0
 70
58
 90
2
176
1
 90
2
176
1
 90
0
176
1
 90
1
176
1
 40
0.6
176
1
 40
30.0
176
1
 62
7
420
16777215
176
1
 90
1
176
1
 90
4
176
1
 62
7
176
1
 62
257
176
1
 90
1
176
1
 90
1
176
1
 40
1.0
176
1
 90
8
176
1
 62
7
176
1
 40
1.0
176
1
 90
1
176
1
 90
6
176
1
 90
2
176
1
 62
7
176
1
 90
5
176
1
 90
0
176
1
 90
0
176
1
290
0
176
1
 90
1
176
1
 40
0.0
176
1
 90
0
176
1
290
0
176
1
290
1
176
1
290
1
176
1
290
0
176
1
290
0
176
1
290
0
176
1
290
0
176
1
290
0
176
1
290
0
176
1
 90
50
176
1
 40
0.0
176
1
 40
1.0
176
1
 90
0
176
1
 62
18
420
0
176
1
 90
50
176
1
 90
3
176
1
 62
5
420
255
176
1
290
0
176
1
 90
50
176
1
 90
50
176
1
 90
50
176
1
290
0
176
1
 90
50
176
1
 62
256
176
0
 40
1.0
176
0
 90
2
176
1
  1
strokes_ogs.tif
176
1
290
0
176
1
 40
1.0
176
1
 40
1.0
176
1
  0
VISUALSTYLE
  5
67
102
{ACAD_REACTORS
330
16
102
}
330
16
100
AcDbVisualStyle
  2
JitterOff
 70
20
177
3
291
1
 70
58
 90
2
176
1
 90
2
176
1
 90
0
176
1
 90
2
176
1
 40
0.6
176
1
 40
30.0
176
1
 62
7
420
16777215
176
1
 90
1
176
1
 90
4
176
1
 62
7
176
1
 62
257
176
1
 90
1
176
1
 90
1
176
1
 40
1.0
176
1
 90
8
176
1
 62
7
176
1
 40
1.0
176
1
 90
1
176
1
 90
6
176
1
 90
2
176
1
 62
7
176
1
 90
5
176
1
 90
0
176
1
 90
0
176
1
290
0
176
1
 90
1
176
1
 40
0.0
176
1
 90
0
176
1
290
0
176
1
290
1
176
1
290
1
176
1
290
0
176
1
290
0
176
1
290
0
176
1
290
0
176
1
290
0
176
1
290
0
176
1
 90
50
176
1
 40
0.0
176
1
 40
1.0
176
1
 90
0
176
1
 62
18
420
0
176
1
 90
50
176
1
 90
3
176
1
 62
5
420
255
176
1
290
0
176
1
 90
50
176
1
 90
50
176
1
 90
50
176
1
290
0
176
1
 90
50
176
1
 62
256
176
0
 40
1.0
176
0
 90
2
176
1
  1
strokes_ogs.tif
176
1
290
0
176
1
 40
1.0
176
1
 40
1.0
176
1
  0
VISUALSTYLE
  5
68
102
{ACAD_REACTORS
330
16
102
}
330
16
100
AcDbVisualStyle
  2
Linepattern
 70
14
177
3
291
1
 70
58
 90
2
176
1
 90
2
176
1
 90
0
176
1
 90
2
176
1
 40
0.6
176
1
 40
30.0
176
1
 62
7
420
16777215
176
1
 90
1
176
1
 90
4
176
1
 62
7
176
1
 62
257
176
1
 90
1
176
1
 90
1
176
1
 40
1.0
176
1
 90
8
176
1
 62
7
176
1
 40
1.0
176
1
 90
1
176
1
 90
6
176
1
 90
2
176
1
 62
7
176
1
 90
5
176
1
 90
0
176
1
 90
0
176
1
290
0
176
1
 90
1
176
1
 40
0.0
176
1
 90
0
176
1
290
0
176
1
290
1
176
1
290
1
176
1
290
0
176
1
290
0
176
1
290
0
176
1
290
0
176
1
290
0
176
1
290
0
176
1
 90
50
176
1
 40
0.0
176
1
 40
1.0
176
1
 90
0
176
1
 62
18
420
0
176
1
 90
50
176
1
 90
3
176
1
 62
5
420
255
176
1
290
0
176
1
 90
50
176
1
 90
50
176
1
 90
50
176
1
290
0
176
1
 90
50
176
1
 62
256
176
0
 40
1.0
176
0
 90
2
176
1
  1
strokes_ogs.tif
176
1
290
0
176
1
 40
1.0
176
1
 40
1.0
176
1
  0
VISUALSTYLE
  5
69
102
{ACAD_REACTORS
330
16
102
}
330
16
100
AcDbVisualStyle
  2
Modeling
 70
10
177
3
291
0
 70
58
 90
2
176
1
 90
2
176
1
 90
0
176
1
 90
2
176
1
 40
0.6
176
1
 40
30.0
176
1
 62
7
420
16777215
176
1
 90
1
176
1
 90
4
176
1
 62
7
176
1
 62
257
176
1
 90
1
176
1
 90
1
176
1
 40
1.0
176
1
 90
8
176
1
 62
7
176
1
 40
1.0
176
1
 90
1
176
1
 90
6
176
1
 90
2
176
1
 62
7
176
1
 90
5
176
1
 90
0
176
1
 90
0
176
1
290
0
176
1
 90
1
176
1
 40
0.0
176
1
 90
0
176
1
290
0
176
1
290
1
176
1
290
1
176
1
290
0
176
1
290
0
176
1
290
0
176
1
290
0
176
1
290
0
176
1
290
0
176
1
 90
50
176
1
 40
0.0
176
1
 40
1.0
176
1
 90
0
176
1
 62
18
420
0
176
1
 90
50
176
1
 90
3
176
1
 62
5
420
255
176
1
290
0
176
1
 90
50
176
1
 90
50
176
1
 90
50
176
1
290
0
176
1
 90
50
176
1
 62
256
176
0
 40
1.0
176
0
 90
2
176
1
  1
strokes_ogs.tif
176
1
290
0
176
1
 40
1.0
176
1
 40
1.0
176
1
  0
VISUALSTYLE
  5
6A
102
{ACAD_REACTORS
330
16
102
}
330
16
100
AcDbVisualStyle
  2
OverhangOff
 70
21
177
3
291
1
 70
58
 90
2
176
1
 90
2
176
1
 90
0
176
1
 90
2
176
1
 40
0.6
176
1
 40
30.0
176
1
 62
7
420
16777215
176
1
 90
1
176
1
 90
4
176
1
 62
7
176
1
 62
257
176
1
 90
1
176
1
 90
1
176
1
 40
1.0
176
1
 90
8
176
1
 62
7
176
1
 40
1.0
176
1
 90
1
176
1
 90
6
176
1
 90
2
176
1
 62
7
176
1
 90
5
176
1
 90
0
176
1
 90
0
176
1
290
0
176
1
 90
1
176
1
 40
0.0
176
1
 90
0
176
1
290
0
176
1
290
1
176
1
290
1
176
1
290
0
176
1
290
0
176
1
290
0
176
1
290
0
176
1
290
0
176
1
290
0
176
1
 90
50
176
1
 40
0.0
176
1
 40
1.0
176
1
 90
0
176
1
 62
18
420
0
176
1
 90
50
176
1
 90
3
176
1
 62
5
420
255
176
1
290
0
176
1
 90
50
176
1
 90
50
176
1
 90
50
176
1
290
0
176
1
 90
50
176
1
 62
256
176
0
 40
1.0
176
0
 90
2
176
1
  1
strokes_ogs.tif
176
1
290
0
176
1
 40
1.0
176
1
 40
1.0
176
1
  0
VISUALSTYLE
  5
6B
102
{ACAD_REACTORS
330
16
102
}
330
16
100
AcDbVisualStyle
  2
Realistic
 70
8
177
3
291
0
 70
58
 90
2
176
1
 90
2
176
1
 90
0
176
1
 90
2
176
1
 40
0.6
176
1
 40
30.0
176
1
 62
7
420
16777215
176
1
 90
1
176
1
 90
4
176
1
 62
7
176
1
 62
257
176
1
 90
1
176
1
 90
1
176
1
 40
1.0
176
1
 90
8
176
1
 62
7
176
1
 40
1.0
176
1
 90
1
176
1
 90
6
176
1
 90
2
176
1
 62
7
176
1
 90
5
176
1
 90
0
176
1
 90
0
176
1
290
0
176
1
 90
1
176
1
 40
0.0
176
1
 90
0
176
1
290
0
176
1
290
1
176
1
290
1
176
1
290
0
176
1
290
0
176
1
290
0
176
1
290
0
176
1
290
0
176
1
290
0
176
1
 90
50
176
1
 40
0.0
176
1
 40
1.0
176
1
 90
0
176
1
 62
18
420
0
176
1
 90
50
176
1
 90
3
176
1
 62
5
420
255
176
1
290
0
176
1
 90
50
176
1
 90
50
176
1
 90
50
176
1
290
0
176
1
 90
50
176
1
 62
256
176
0
 40
1.0
176
0
 90
2
176
1
  1
strokes_ogs.tif
176
1
290
0
176
1
 40
1.0
176
1
 40
1.0
176
1
  0
VISUALSTYLE
  5
6C
102
{ACAD_REACTORS
330
16
102
}
330
16
100
AcDbVisualStyle
  2
Shaded
 70
27
177
3
291
0
 70
58
 90
2
176
1
 90
2
176
1
 90
0
176
1
 90
2
176
1
 40
0.6
176
1
 40
30.0
176
1
 62
7
420
16777215
176
1
 90
1
176
1
 90
4
176
1
 62
7
176
1
 62
257
176
1
 90
1
176
1
 90
1
176
1
 40
1.0
176
1
 90
8
176
1
 62
7
176
1
 40
1.0
176
1
 90
1
176
1
 90
6
176
1
 90
2
176
1
 62
7
176
1
 90
5
176
1
 90
0
176
1
 90
0
176
1
290
0
176
1
 90
1
176
1
 40
0.0
176
1
 90
0
176
1
290
0
176
1
290
1
176
1
290
1
176
1
290
0
176
1
290
0
176
1
290
0
176
1
290
0
176
1
290
0
176
1
290
0
176
1
 90
50
176
1
 40
0.0
176
1
 40
1.0
176
1
 90
0
176
1
 62
18
420
0
176
1
 90
50
176
1
 90
3
176
1
 62
5
420
255
176
1
290
0
176
1
 90
50
176
1
 90
50
176
1
 90
50
176
1
290
0
176
1
 90
50
176
1
 62
256
176
0
 40
1.0
176
0
 90
2
176
1
  1
strokes_ogs.tif
176
1
290
0
176
1
 40
1.0
176
1
 40
1.0
176
1
  0
VISUALSTYLE
  5
6D
102
{ACAD_REACTORS
330
16
102
}
330
16
100
AcDbVisualStyle
  2
Shaded with edges
 70
26
177
3
291
0
 70
58
 90
2
176
1
 90
2
176
1
 90
0
176
1
 90
2
176
1
 40
0.6
176
1
 40
30.0
176
1
 62
7
420
16777215
176
1
 90
1
176
1
 90
4
176
1
 62
7
176
1
 62
257
176
1
 90
1
176
1
 90
1
176
1
 40
1.0
176
1
 90
8
176
1
 62
7
176
1
 40
1.0
176
1
 90
1
176
1
 90
6
176
1
 90
2
176
1
 62
7
176
1
 90
5
176
1
 90
0
176
1
 90
0
176
1
290
0
176
1
 90
1
176
1
 40
0.0
176
1
 90
0
176
1
290
0
176
1
290
1
176
1
290
1
176
1
290
0
176
1
290
0
176
1
290
0
176
1
290
0
176
1
290
0
176
1
290
0
176
1
 90
50
176
1
 40
0.0
176
1
 40
1.0
176
1
 90
0
176
1
 62
18
420
0
176
1
 90
50
176
1
 90
3
176
1
 62
5
420
255
176
1
290
0
176
1
 90
50
176
1
 90
50
176
1
 90
50
176
1
290
0
176
1
 90
50
176
1
 62
256
176
0
 40
1.0
176
0
 90
2
176
1
  1
strokes_ogs.tif
176
1
290
0
176
1
 40
1.0
176
1
 40
1.0
176
1
  0
VISUALSTYLE
  5
6E
102
{ACAD_REACTORS
330
16
102
}
330
16
100
AcDbVisualStyle
  2
Shades of Gray
 70
23
177
3
291
0
 70
58
 90
2
176
1
 90
2
176
1
 90
0
176
1
 90
2
176
1
 40
0.6
176
1
 40
30.0
176
1
 62
7
420
16777215
176
1
 90
1
176
1
 90
4
176
1
 62
7
176
1
 62
257
176
1
 90
1
176
1
 90
1
176
1
 40
1.0
176
1
 90
8
176
1
 62
7
176
1
 40
1.0
176
1
 90
1
176
1
 90
6
176
1
 90
2
176
1
 62
7
176
1
 90
5
176
1
 90
0
176
1
 90
0
176
1
290
0
176
1
 90
1
176
1
 40
0.0
176
1
 90
0
176
1
290
0
176
1
290
1
176
1
290
1
176
1
290
0
176
1
290
0
176
1
290
0
176
1
290
0
176
1
290
0
176
1
290
0
176
1
 90
50
176
1
 40
0.0
176
1
 40
1.0
176
1
 90
0
176
1
 62
18
420
0
176
1
 90
50
176
1
 90
3
176
1
 62
5
420
255
176
1
290
0
176
1
 90
50
176
1
 90
50
176
1
 90
50
176
1
290
0
176
1
 90
50
176
1
 62
256
176
0
 40
1.0
176
0
 90
2
176
1
  1
strokes_ogs.tif
176
1
290
0
176
1
 40
1.0
176
1
 40
1.0
176
1
  0
VISUALSTYLE
  5
6F
102
{ACAD_REACTORS
330
16
102
}
330
16
100
AcDbVisualStyle
  2
Sketchy
 70
24
177
3
291
0
 70
58
 90
2
176
1
 90
2
176
1
 90
0
176
1
 90
1
176
1
 40
0.6
176
1
 40
30.0
176
1
 62
7
420
16777215
176
1
 90
1
176
1
 90
4
176
1
 62
7
176
1
 62
257
176
1
 90
1
176
1
 90
1
176
1
 40
1.0
176
1
 90
8
176
1
 62
7
176
1
 40
1.0
176
1
 90
1
176
1
 90
6
176
1
 90
2
176
1
 62
7
176
1
 90
5
176
1
 90
0
176
1
 90
0
176
1
290
0
176
1
 90
1
176
1
 40
0.0
176
1
 90
0
176
1
290
0
176
1
290
1
176
1
290
1
176
1
290
0
176
1
290
0
176
1
290
0
176
1
290
0
176
1
290
0
176
1
290
0
176
1
 90
50
176
1
 40
0.0
176
1
 40
1.0
176
1
 90
0
176
1
 62
18
420
0
176
1
 90
50
176
1
 90
3
176
1
 62
5
420
255
176
1
290
0
176
1
 90
50
176
1
 90
50
176
1
 90
50
176
1
290
0
176
1
 90
50
176
1
 62
256
176
0
 40
1.0
176
0
 90
2
176
1
  1
strokes_ogs.tif
176
1
290
0
176
1
 40
1.0
176
1
 40
1.0
176
1
  0
VISUALSTYLE
  5
70
102
{ACAD_REACTORS
330
16
102
}
330
16
100
AcDbVisualStyle
  2
Thicken
 70
13
177
3
291
1
 70
58
 90
2
176
1
 90
2
176
1
 90
0
176
1
 90
2
176
1
 40
0.6
176
1
 40
30.0
176
1
 62
7
420
16777215
176
1
 90
1
176
1
 90
4
176
1
 62
7
176
1
 62
257
176
1
 90
1
176
1
 90
1
176
1
 40
1.0
176
1
 90
8
176
1
 62
7
176
1
 40
1.0
176
1
 90
1
176
1
 90
6
176
1
 90
2
176
1
 62
7
176
1
 90
5
176
1
 90
0
176
1
 90
0
176
1
290
0
176
1
 90
1
176
1
 40
0.0
176
1
 90
0
176
1
290
0
176
1
290
1
176
1
290
1
176
1
290
0
176
1
290
0
176
1
290
0
176
1
290
0
176
1
290
0
176
1
290
0
176
1
 90
50
176
1
 40
0.0
176
1
 40
1.0
176
1
 90
0
176
1
 62
18
420
0
176
1
 90
50
176
1
 90
3
176
1
 62
5
420
255
176
1
290
0
176
1
 90
50
176
1
 90
50
176
1
 90
50
176
1
290
0
176
1
 90
50
176
1
 62
256
176
0
 40
1.0
176
0
 90
2
176
1
  1
strokes_ogs.tif
176
1
290
0
176
1
 40
1.0
176
1
 40
1.0
176
1
  0
VISUALSTYLE
  5
71
102
{ACAD_REACTORS
330
16
102
}
330
16
100
AcDbVisualStyle
  2
Wireframe
 70
5
177
3
291
0
 70
58
 90
2
176
1
 90
2
176
1
 90
0
176
1
 90
0
176
1
 40
0.6
176
1
 40
30.0
176
1
 62
7
420
16777215
176
1
 90
1
176
1
 90
4
176
1
 62
7
176
1
 62
257
176
1
 90
1
176
1
 90
1
176
1
 40
1.0
176
1
 90
8
176
1
 62
7
176
1
 40
1.0
176
1
 90
1
176
1
 90
6
176
1
 90
2
176
1
 62
7
176
1
 90
5
176
1
 90
0
176
1
 90
0
176
1
290
0
176
1
 90
1
176
1
 40
0.0
176
1
 90
0
176
1
290
0
176
1
290
1
176
1
290
1
176
1
290
0
176
1
290
0
176
1
290
0
176
1
290
0
176
1
290
0
176
1
290
0
176
1
 90
50
176
1
 40
0.0
176
1
 40
1.0
176
1
 90
0
176
1
 62
18
420
0
176
1
 90
50
176
1
 90
3
176
1
 62
5
420
255
176
1
290
0
176
1
 90
50
176
1
 90
50
176
1
 90
50
176
1
290
0
176
1
 90
50
176
1
 62
256
176
0
 40
1.0
176
0
 90
2
176
1
  1
strokes_ogs.tif
176
1
290
0
176
1
 40
1.0
176
1
 40
1.0
176
1
  0
VISUALSTYLE
  5
72
102
{ACAD_REACTORS
330
16
102
}
330
16
100
AcDbVisualStyle
  2
X-Ray
 70
25
177
3
291
0
 70
58
 90
2
176
1
 90
2
176
1
 90
0
176
1
 90
2
176
1
 40
0.5
176
1
 40
30.0
176
1
 62
7
420
16777215
176
1
 90
1
176
1
 90
4
176
1
 62
7
176
1
 62
257
176
1
 90
1
176
1
 90
1
176
1
 40
1.0
176
1
 90
8
176
1
 62
7
176
1
 40
1.0
176
1
 90
1
176
1
 90
6
176
1
 90
2
176
1
 62
7
176
1
 90
5
176
1
 90
0
176
1
 90
0
176
1
290
0
176
1
 90
1
176
1
 40
0.0
176
1
 90
0
176
1
290
0
176
1
290
1
176
1
290
1
176
1
290
0
176
1
290
0
176
1
290
0
176
1
290
0
176
1
290
0
176
1
290
0
176
1
 90
50
176
1
 40
0.0
176
1
 40
1.0
176
1
 90
0
176
1
 62
18
420
0
176
1
 90
50
176
1
 90
3
176
1
 62
5
420
255
176
1
290
0
176
1
 90
50
176
1
 90
50
176
1
 90
50
176
1
290
0
176
1
 90
50
176
1
 62
256
176
0
 40
1.0
176
0
 90
2
176
1
  1
strokes_ogs.tif
176
1
290
0
176
1
 40
1.0
176
1
 40
1.0
176
1
  0
DICTIONARYVAR
  5
126
330
2D
100
DictionaryVariables
280
0
  1
1.4.4 @ 2026-09-24T00:12:42.705837+00:00
  0
ENDSEC
  0
EOF
