ISO-10303-21;
HEADER;
FILE_DESCRIPTION(('Open CASCADE Model'),'2;1');
FILE_NAME('hull','2000-01-01T00:00:00',('Author'),('Open CASCADE'),
  'Open CASCADE STEP processor 7.9','cadgen','Unknown');
FILE_SCHEMA(('AUTOMOTIVE_DESIGN { 1 0 10303 214 1 1 1 1 }'));
ENDSEC;
DATA;
#1 = APPLICATION_PROTOCOL_DEFINITION('international standard',
  'automotive_design',2000,#2);
#2 = APPLICATION_CONTEXT(
  'core data for automotive mechanical design processes');
#3 = SHAPE_DEFINITION_REPRESENTATION(#4,#10);
#4 = PRODUCT_DEFINITION_SHAPE('','',#5);
#5 = PRODUCT_DEFINITION('design','',#6,#9);
#6 = PRODUCT_DEFINITION_FORMATION('','',#7);
#7 = PRODUCT('=>[0:1:1:2]','=>[0:1:1:2]','',(#8));
#8 = PRODUCT_CONTEXT('',#2,'mechanical');
#9 = PRODUCT_DEFINITION_CONTEXT('part definition',#2,'design');
#10 = SHAPE_REPRESENTATION('',(#11,#15),#19);
#11 = AXIS2_PLACEMENT_3D('',#12,#13,#14);
#12 = CARTESIAN_POINT('',(0.,0.,0.));
#13 = DIRECTION('',(0.,0.,1.));
#14 = DIRECTION('',(1.,0.,-0.));
#15 = AXIS2_PLACEMENT_3D('',#16,#17,#18);
#16 = CARTESIAN_POINT('',(0.,0.,0.));
#17 = DIRECTION('',(0.,0.,1.));
#18 = DIRECTION('',(1.,0.,0.));
#19 = ( GEOMETRIC_REPRESENTATION_CONTEXT(3) 
GLOBAL_UNCERTAINTY_ASSIGNED_CONTEXT((#23)) GLOBAL_UNIT_ASSIGNED_CONTEXT(
(#20,#21,#22)) REPRESENTATION_CONTEXT('Context #1',
  '3D Context with UNIT and UNCERTAINTY') );
#20 = ( LENGTH_UNIT() NAMED_UNIT(*) SI_UNIT(.MILLI.,.METRE.) );
#21 = ( NAMED_UNIT(*) PLANE_ANGLE_UNIT() SI_UNIT($,.RADIAN.) );
#22 = ( NAMED_UNIT(*) SI_UNIT($,.STERADIAN.) SOLID_ANGLE_UNIT() );
#23 = UNCERTAINTY_MEASURE_WITH_UNIT(LENGTH_MEASURE(1.E-07),#20,
  'distance_accuracy_value','confusion accuracy');
#24 = PRODUCT_RELATED_PRODUCT_CATEGORY('part',$,(#7));
#25 = SHAPE_DEFINITION_REPRESENTATION(#26,#32);
#26 = PRODUCT_DEFINITION_SHAPE('','',#27);
#27 = PRODUCT_DEFINITION('design','',#28,#31);
#28 = PRODUCT_DEFINITION_FORMATION('','',#29);
#29 = PRODUCT('hull','hull','',(#30));
#30 = PRODUCT_CONTEXT('',#2,'mechanical');
#31 = PRODUCT_DEFINITION_CONTEXT('part definition',#2,'design');
#32 = ADVANCED_BREP_SHAPE_REPRESENTATION('',(#11,#33),#951);
#33 = MANIFOLD_SOLID_BREP('',#34);
#34 = CLOSED_SHELL('',(#35,#221,#319,#417,#515,#613,#711,#809,#884,#927,
    #939));
#35 = ADVANCED_FACE('',(#36),#49,.T.);
#36 = FACE_BOUND('',#37,.T.);
#37 = EDGE_LOOP('',(#38,#89,#143,#169));
#38 = ORIENTED_EDGE('',*,*,#39,.T.);
#39 = EDGE_CURVE('',#40,#42,#44,.T.);
#40 = VERTEX_POINT('',#41);
#41 = CARTESIAN_POINT('',(0.,-7.E+03,5.5E+03));
#42 = VERTEX_POINT('',#43);
#43 = CARTESIAN_POINT('',(0.,-7.E+03,2.6E+03));
#44 = SURFACE_CURVE('',#45,(#48,#78),.PCURVE_S1.);
#45 = B_SPLINE_CURVE_WITH_KNOTS('',1,(#46,#47),.UNSPECIFIED.,.F.,.F.,(2,
    2),(0.,1.),.PIECEWISE_BEZIER_KNOTS.);
#46 = CARTESIAN_POINT('',(0.,-7.E+03,5.5E+03));
#47 = CARTESIAN_POINT('',(0.,-7.E+03,2.6E+03));
#48 = PCURVE('',#49,#72);
#49 = ( BOUNDED_SURFACE() B_SPLINE_SURFACE(1,6,(
    (#50,#51,#52,#53,#54,#55,#56,#57,#58,#59,#60)
    ,(#61,#62,#63,#64,#65,#66,#67,#68,#69,#70,#71
)),.UNSPECIFIED.,.F.,.F.,.F.) B_SPLINE_SURFACE_WITH_KNOTS((2,2),(7,4,7),
  (0.,1.),(0.,0.597915872701,1.),.UNSPECIFIED.) 
GEOMETRIC_REPRESENTATION_ITEM() RATIONAL_B_SPLINE_SURFACE((
    (1.,1.,1.,1.,1.,1.,1.,1.,1.,1.,1.)
,(1.,1.,1.,1.,1.,1.,1.,1.,1.,1.,1.
  ))) REPRESENTATION_ITEM('') SURFACE() );
#50 = CARTESIAN_POINT('',(0.,-7.E+03,5.5E+03));
#51 = CARTESIAN_POINT('',(1.373520220839E+04,-1.077547825537E+04,
    5.503553117159E+03));
#52 = CARTESIAN_POINT('',(2.877009768404E+04,-4.227338768025E+03,
    5.466936703221E+03));
#53 = CARTESIAN_POINT('',(4.186716167484E+04,-1.250036653168E+04,
    5.641728150742E+03));
#54 = CARTESIAN_POINT('',(5.679360260694E+04,-6.312113192007E+03,
    5.180250004033E+03));
#55 = CARTESIAN_POINT('',(8.044613735536E+04,-9.303005574406E+03,
    6.230242371216E+03));
#56 = CARTESIAN_POINT('',(1.038803398577E+05,-7.710116957788E+03,
    4.662457583968E+03));
#57 = CARTESIAN_POINT('',(1.142389273999E+05,-8.841863033397E+03,
    7.190977325089E+03));
#58 = CARTESIAN_POINT('',(1.224704157994E+05,-8.61467594611E+03,
    4.465152124839E+03));
#59 = CARTESIAN_POINT('',(1.33209803888E+05,-7.866469376201E+03,
    6.705018571969E+03));
#60 = CARTESIAN_POINT('',(1.41E+05,-1.E+03,6.4E+03));
#61 = CARTESIAN_POINT('',(0.,-7.E+03,2.6E+03));
#62 = CARTESIAN_POINT('',(1.373520220839E+04,-1.077547825537E+04,
    1.609571480448E+03));
#63 = CARTESIAN_POINT('',(2.877009768404E+04,-4.227338768025E+03,
    1.727754430772E+03));
#64 = CARTESIAN_POINT('',(4.186716167484E+04,-1.250036653168E+04,
    2.159407077889E+03));
#65 = CARTESIAN_POINT('',(5.679360260694E+04,-6.312113192007E+03,
    2.199238692613E+03));
#66 = CARTESIAN_POINT('',(8.044613735536E+04,-9.303005574406E+03,
    739.29062590869));
#67 = CARTESIAN_POINT('',(1.038803398577E+05,-7.710116957788E+03,
    3.325775654122E+03));
#68 = CARTESIAN_POINT('',(1.142389273999E+05,-8.841863033397E+03,
    -1.330107615025E+03));
#69 = CARTESIAN_POINT('',(1.224704157994E+05,-8.61467594611E+03,
    5.56173030355E+03));
#70 = CARTESIAN_POINT('',(1.33209803888E+05,-7.866469376201E+03,
    1.635813279424E+03));
#71 = CARTESIAN_POINT('',(1.41E+05,-1.E+03,5.E+03));
#72 = DEFINITIONAL_REPRESENTATION('',(#73),#77);
#73 = LINE('',#74,#75);
#74 = CARTESIAN_POINT('',(0.,0.));
#75 = VECTOR('',#76,1.);
#76 = DIRECTION('',(1.,0.));
#77 = ( GEOMETRIC_REPRESENTATION_CONTEXT(2) 
PARAMETRIC_REPRESENTATION_CONTEXT() REPRESENTATION_CONTEXT('2D SPACE',''
  ) );
#78 = PCURVE('',#79,#84);
#79 = PLANE('',#80);
#80 = AXIS2_PLACEMENT_3D('',#81,#82,#83);
#81 = CARTESIAN_POINT('',(0.,-7.E+03,5.5E+03));
#82 = DIRECTION('',(-1.,0.,0.));
#83 = DIRECTION('',(0.,0.97921254014,-0.202836883315));
#84 = DEFINITIONAL_REPRESENTATION('',(#85),#88);
#85 = B_SPLINE_CURVE_WITH_KNOTS('',1,(#86,#87),.UNSPECIFIED.,.F.,.F.,(2,
    2),(0.,1.),.PIECEWISE_BEZIER_KNOTS.);
#86 = CARTESIAN_POINT('',(0.,0.));
#87 = CARTESIAN_POINT('',(588.22696161259,2.839716366406E+03));
#88 = ( GEOMETRIC_REPRESENTATION_CONTEXT(2) 
PARAMETRIC_REPRESENTATION_CONTEXT() REPRESENTATION_CONTEXT('2D SPACE',''
  ) );
#89 = ORIENTED_EDGE('',*,*,#90,.T.);
#90 = EDGE_CURVE('',#42,#91,#93,.T.);
#91 = VERTEX_POINT('',#92);
#92 = CARTESIAN_POINT('',(1.41E+05,-1.E+03,5.E+03));
#93 = SURFACE_CURVE('',#94,(#106,#113),.PCURVE_S1.);
#94 = ( BOUNDED_CURVE() B_SPLINE_CURVE(6,(#95,#96,#97,#98,#99,#100,#101,
    #102,#103,#104,#105),.UNSPECIFIED.,.F.,.F.) 
B_SPLINE_CURVE_WITH_KNOTS((7,4,7),(0.,0.597915872701,1.),.UNSPECIFIED.) 
CURVE() GEOMETRIC_REPRESENTATION_ITEM() RATIONAL_B_SPLINE_CURVE((1.,1.,
1.,1.,1.,1.,1.,1.,1.,1.,1.)) REPRESENTATION_ITEM('') );
#95 = CARTESIAN_POINT('',(0.,-7.E+03,2.6E+03));
#96 = CARTESIAN_POINT('',(1.373520220839E+04,-1.077547825537E+04,
    1.609571480448E+03));
#97 = CARTESIAN_POINT('',(2.877009768404E+04,-4.227338768025E+03,
    1.727754430772E+03));
#98 = CARTESIAN_POINT('',(4.186716167484E+04,-1.250036653168E+04,
    2.159407077889E+03));
#99 = CARTESIAN_POINT('',(5.679360260694E+04,-6.312113192007E+03,
    2.199238692613E+03));
#100 = CARTESIAN_POINT('',(8.044613735536E+04,-9.303005574406E+03,
    739.29062590869));
#101 = CARTESIAN_POINT('',(1.038803398577E+05,-7.710116957788E+03,
    3.325775654122E+03));
#102 = CARTESIAN_POINT('',(1.142389273999E+05,-8.841863033397E+03,
    -1.330107615025E+03));
#103 = CARTESIAN_POINT('',(1.224704157994E+05,-8.61467594611E+03,
    5.56173030355E+03));
#104 = CARTESIAN_POINT('',(1.33209803888E+05,-7.866469376201E+03,
    1.635813279424E+03));
#105 = CARTESIAN_POINT('',(1.41E+05,-1.E+03,5.E+03));
#106 = PCURVE('',#49,#107);
#107 = DEFINITIONAL_REPRESENTATION('',(#108),#112);
#108 = LINE('',#109,#110);
#109 = CARTESIAN_POINT('',(1.,0.));
#110 = VECTOR('',#111,1.);
#111 = DIRECTION('',(0.,1.));
#112 = ( GEOMETRIC_REPRESENTATION_CONTEXT(2) 
PARAMETRIC_REPRESENTATION_CONTEXT() REPRESENTATION_CONTEXT('2D SPACE',''
  ) );
#113 = PCURVE('',#114,#137);
#114 = ( BOUNDED_SURFACE() B_SPLINE_SURFACE(1,6,(
    (#115,#116,#117,#118,#119,#120,#121,#122,#123,#124,#125)
    ,(#126,#127,#128,#129,#130,#131,#132,#133,#134,#135,#136
)),.UNSPECIFIED.,.F.,.F.,.F.) B_SPLINE_SURFACE_WITH_KNOTS((2,2),(7,4,7),
  (1.,2.),(0.,0.597915872701,1.),.UNSPECIFIED.) 
GEOMETRIC_REPRESENTATION_ITEM() RATIONAL_B_SPLINE_SURFACE((
    (1.,1.,1.,1.,1.,1.,1.,1.,1.,1.,1.)
,(1.,1.,1.,1.,1.,1.,1.,1.,1.,1.,1.
  ))) REPRESENTATION_ITEM('') SURFACE() );
#115 = CARTESIAN_POINT('',(0.,-7.E+03,2.6E+03));
#116 = CARTESIAN_POINT('',(1.373520220839E+04,-1.077547825537E+04,
    1.609571480448E+03));
#117 = CARTESIAN_POINT('',(2.877009768404E+04,-4.227338768025E+03,
    1.727754430772E+03));
#118 = CARTESIAN_POINT('',(4.186716167484E+04,-1.250036653168E+04,
    2.159407077889E+03));
#119 = CARTESIAN_POINT('',(5.679360260694E+04,-6.312113192007E+03,
    2.199238692613E+03));
#120 = CARTESIAN_POINT('',(8.044613735536E+04,-9.303005574406E+03,
    739.29062590869));
#121 = CARTESIAN_POINT('',(1.038803398577E+05,-7.710116957788E+03,
    3.325775654122E+03));
#122 = CARTESIAN_POINT('',(1.142389273999E+05,-8.841863033397E+03,
    -1.330107615025E+03));
#123 = CARTESIAN_POINT('',(1.224704157994E+05,-8.61467594611E+03,
    5.56173030355E+03));
#124 = CARTESIAN_POINT('',(1.33209803888E+05,-7.866469376201E+03,
    1.635813279424E+03));
#125 = CARTESIAN_POINT('',(1.41E+05,-1.E+03,5.E+03));
#126 = CARTESIAN_POINT('',(0.,-5.8E+03,1.5E+03));
#127 = CARTESIAN_POINT('',(1.373520220839E+04,-9.908573013121E+03,
    509.57148044823));
#128 = CARTESIAN_POINT('',(2.877009768404E+04,-8.446089973792E+03,
    627.75443077237));
#129 = CARTESIAN_POINT('',(4.186716167484E+04,-6.564204602241E+03,
    1.059407077889E+03));
#130 = CARTESIAN_POINT('',(5.679360260694E+04,-9.202554430275E+03,
    1.099238692613E+03));
#131 = CARTESIAN_POINT('',(8.044613735536E+04,-7.881753261893E+03,
    -360.7093740912));
#132 = CARTESIAN_POINT('',(1.038803398577E+05,-8.314506192085E+03,
    2.225775654122E+03));
#133 = CARTESIAN_POINT('',(1.142389273999E+05,-8.441409592847E+03,
    -2.430107615025E+03));
#134 = CARTESIAN_POINT('',(1.224704157994E+05,-8.02285131128E+03,
    4.46173030355E+03));
#135 = CARTESIAN_POINT('',(1.33209803888E+05,-3.150637076641E+03,
    535.8132794241));
#136 = CARTESIAN_POINT('',(1.41E+05,-400.,3.9E+03));
#137 = DEFINITIONAL_REPRESENTATION('',(#138),#142);
#138 = LINE('',#139,#140);
#139 = CARTESIAN_POINT('',(1.,0.));
#140 = VECTOR('',#141,1.);
#141 = DIRECTION('',(0.,1.));
#142 = ( GEOMETRIC_REPRESENTATION_CONTEXT(2) 
PARAMETRIC_REPRESENTATION_CONTEXT() REPRESENTATION_CONTEXT('2D SPACE',''
  ) );
#143 = ORIENTED_EDGE('',*,*,#144,.F.);
#144 = EDGE_CURVE('',#145,#91,#147,.T.);
#145 = VERTEX_POINT('',#146);
#146 = CARTESIAN_POINT('',(1.41E+05,-1.E+03,6.4E+03));
#147 = SURFACE_CURVE('',#148,(#151,#158),.PCURVE_S1.);
#148 = B_SPLINE_CURVE_WITH_KNOTS('',1,(#149,#150),.UNSPECIFIED.,.F.,.F.,
  (2,2),(0.,1.),.PIECEWISE_BEZIER_KNOTS.);
#149 = CARTESIAN_POINT('',(1.41E+05,-1.E+03,6.4E+03));
#150 = CARTESIAN_POINT('',(1.41E+05,-1.E+03,5.E+03));
#151 = PCURVE('',#49,#152);
#152 = DEFINITIONAL_REPRESENTATION('',(#153),#157);
#153 = LINE('',#154,#155);
#154 = CARTESIAN_POINT('',(0.,1.));
#155 = VECTOR('',#156,1.);
#156 = DIRECTION('',(1.,0.));
#157 = ( GEOMETRIC_REPRESENTATION_CONTEXT(2) 
PARAMETRIC_REPRESENTATION_CONTEXT() REPRESENTATION_CONTEXT('2D SPACE',''
  ) );
#158 = PCURVE('',#159,#164);
#159 = PLANE('',#160);
#160 = AXIS2_PLACEMENT_3D('',#161,#162,#163);
#161 = CARTESIAN_POINT('',(1.41E+05,-1.E+03,6.4E+03));
#162 = DIRECTION('',(1.,-0.,0.));
#163 = DIRECTION('',(0.,0.488603368932,-0.87250601595));
#164 = DEFINITIONAL_REPRESENTATION('',(#165),#168);
#165 = B_SPLINE_CURVE_WITH_KNOTS('',1,(#166,#167),.UNSPECIFIED.,.F.,.F.,
  (2,2),(0.,1.),.PIECEWISE_BEZIER_KNOTS.);
#166 = CARTESIAN_POINT('',(0.,0.));
#167 = CARTESIAN_POINT('',(1.22150842233E+03,-684.0447165045));
#168 = ( GEOMETRIC_REPRESENTATION_CONTEXT(2) 
PARAMETRIC_REPRESENTATION_CONTEXT() REPRESENTATION_CONTEXT('2D SPACE',''
  ) );
#169 = ORIENTED_EDGE('',*,*,#170,.F.);
#170 = EDGE_CURVE('',#40,#145,#171,.T.);
#171 = SURFACE_CURVE('',#172,(#184,#191),.PCURVE_S1.);
#172 = ( BOUNDED_CURVE() B_SPLINE_CURVE(6,(#173,#174,#175,#176,#177,#178
    ,#179,#180,#181,#182,#183),.UNSPECIFIED.,.F.,.F.) 
B_SPLINE_CURVE_WITH_KNOTS((7,4,7),(0.,0.597915872701,1.),.UNSPECIFIED.) 
CURVE() GEOMETRIC_REPRESENTATION_ITEM() RATIONAL_B_SPLINE_CURVE((1.,1.,
1.,1.,1.,1.,1.,1.,1.,1.,1.)) REPRESENTATION_ITEM('') );
#173 = CARTESIAN_POINT('',(0.,-7.E+03,5.5E+03));
#174 = CARTESIAN_POINT('',(1.373520220839E+04,-1.077547825537E+04,
    5.503553117159E+03));
#175 = CARTESIAN_POINT('',(2.877009768404E+04,-4.227338768025E+03,
    5.466936703221E+03));
#176 = CARTESIAN_POINT('',(4.186716167484E+04,-1.250036653168E+04,
    5.641728150742E+03));
#177 = CARTESIAN_POINT('',(5.679360260694E+04,-6.312113192007E+03,
    5.180250004033E+03));
#178 = CARTESIAN_POINT('',(8.044613735536E+04,-9.303005574406E+03,
    6.230242371216E+03));
#179 = CARTESIAN_POINT('',(1.038803398577E+05,-7.710116957788E+03,
    4.662457583968E+03));
#180 = CARTESIAN_POINT('',(1.142389273999E+05,-8.841863033397E+03,
    7.190977325089E+03));
#181 = CARTESIAN_POINT('',(1.224704157994E+05,-8.61467594611E+03,
    4.465152124839E+03));
#182 = CARTESIAN_POINT('',(1.33209803888E+05,-7.866469376201E+03,
    6.705018571969E+03));
#183 = CARTESIAN_POINT('',(1.41E+05,-1.E+03,6.4E+03));
#184 = PCURVE('',#49,#185);
#185 = DEFINITIONAL_REPRESENTATION('',(#186),#190);
#186 = LINE('',#187,#188);
#187 = CARTESIAN_POINT('',(0.,0.));
#188 = VECTOR('',#189,1.);
#189 = DIRECTION('',(0.,1.));
#190 = ( GEOMETRIC_REPRESENTATION_CONTEXT(2) 
PARAMETRIC_REPRESENTATION_CONTEXT() REPRESENTATION_CONTEXT('2D SPACE',''
  ) );
#191 = PCURVE('',#192,#215);
#192 = ( BOUNDED_SURFACE() B_SPLINE_SURFACE(1,6,(
    (#193,#194,#195,#196,#197,#198,#199,#200,#201,#202,#203)
    ,(#204,#205,#206,#207,#208,#209,#210,#211,#212,#213,#214
)),.UNSPECIFIED.,.F.,.F.,.F.) B_SPLINE_SURFACE_WITH_KNOTS((2,2),(7,4,7),
  (8.,9.),(0.,0.597915872701,1.),.UNSPECIFIED.) 
GEOMETRIC_REPRESENTATION_ITEM() RATIONAL_B_SPLINE_SURFACE((
    (1.,1.,1.,1.,1.,1.,1.,1.,1.,1.,1.)
,(1.,1.,1.,1.,1.,1.,1.,1.,1.,1.,1.
  ))) REPRESENTATION_ITEM('') SURFACE() );
#193 = CARTESIAN_POINT('',(0.,7.E+03,5.5E+03));
#194 = CARTESIAN_POINT('',(1.373520220839E+04,1.077547825537E+04,
    5.503553117159E+03));
#195 = CARTESIAN_POINT('',(2.877009768404E+04,4.227338768025E+03,
    5.466936703221E+03));
#196 = CARTESIAN_POINT('',(4.186716167484E+04,1.250036653168E+04,
    5.641728150742E+03));
#197 = CARTESIAN_POINT('',(5.679360260694E+04,6.312113192007E+03,
    5.180250004033E+03));
#198 = CARTESIAN_POINT('',(8.044613735536E+04,9.303005574406E+03,
    6.230242371216E+03));
#199 = CARTESIAN_POINT('',(1.038803398577E+05,7.710116957788E+03,
    4.662457583968E+03));
#200 = CARTESIAN_POINT('',(1.142389273999E+05,8.841863033397E+03,
    7.190977325089E+03));
#201 = CARTESIAN_POINT('',(1.224704157994E+05,8.61467594611E+03,
    4.465152124839E+03));
#202 = CARTESIAN_POINT('',(1.33209803888E+05,7.866469376201E+03,
    6.705018571969E+03));
#203 = CARTESIAN_POINT('',(1.41E+05,1.E+03,6.4E+03));
#204 = CARTESIAN_POINT('',(0.,-7.E+03,5.5E+03));
#205 = CARTESIAN_POINT('',(1.373520220839E+04,-1.077547825537E+04,
    5.503553117159E+03));
#206 = CARTESIAN_POINT('',(2.877009768404E+04,-4.227338768025E+03,
    5.466936703221E+03));
#207 = CARTESIAN_POINT('',(4.186716167484E+04,-1.250036653168E+04,
    5.641728150742E+03));
#208 = CARTESIAN_POINT('',(5.679360260694E+04,-6.312113192007E+03,
    5.180250004033E+03));
#209 = CARTESIAN_POINT('',(8.044613735536E+04,-9.303005574406E+03,
    6.230242371216E+03));
#210 = CARTESIAN_POINT('',(1.038803398577E+05,-7.710116957788E+03,
    4.662457583968E+03));
#211 = CARTESIAN_POINT('',(1.142389273999E+05,-8.841863033397E+03,
    7.190977325089E+03));
#212 = CARTESIAN_POINT('',(1.224704157994E+05,-8.61467594611E+03,
    4.465152124839E+03));
#213 = CARTESIAN_POINT('',(1.33209803888E+05,-7.866469376201E+03,
    6.705018571969E+03));
#214 = CARTESIAN_POINT('',(1.41E+05,-1.E+03,6.4E+03));
#215 = DEFINITIONAL_REPRESENTATION('',(#216),#220);
#216 = LINE('',#217,#218);
#217 = CARTESIAN_POINT('',(9.,0.));
#218 = VECTOR('',#219,1.);
#219 = DIRECTION('',(0.,1.));
#220 = ( GEOMETRIC_REPRESENTATION_CONTEXT(2) 
PARAMETRIC_REPRESENTATION_CONTEXT() REPRESENTATION_CONTEXT('2D SPACE',''
  ) );
#221 = ADVANCED_FACE('',(#222),#114,.T.);
#222 = FACE_BOUND('',#223,.T.);
#223 = EDGE_LOOP('',(#224,#245,#299,#318));
#224 = ORIENTED_EDGE('',*,*,#225,.T.);
#225 = EDGE_CURVE('',#42,#226,#228,.T.);
#226 = VERTEX_POINT('',#227);
#227 = CARTESIAN_POINT('',(0.,-5.8E+03,1.5E+03));
#228 = SURFACE_CURVE('',#229,(#232,#239),.PCURVE_S1.);
#229 = B_SPLINE_CURVE_WITH_KNOTS('',1,(#230,#231),.UNSPECIFIED.,.F.,.F.,
  (2,2),(1.,2.),.PIECEWISE_BEZIER_KNOTS.);
#230 = CARTESIAN_POINT('',(0.,-7.E+03,2.6E+03));
#231 = CARTESIAN_POINT('',(0.,-5.8E+03,1.5E+03));
#232 = PCURVE('',#114,#233);
#233 = DEFINITIONAL_REPRESENTATION('',(#234),#238);
#234 = LINE('',#235,#236);
#235 = CARTESIAN_POINT('',(0.,0.));
#236 = VECTOR('',#237,1.);
#237 = DIRECTION('',(1.,0.));
#238 = ( GEOMETRIC_REPRESENTATION_CONTEXT(2) 
PARAMETRIC_REPRESENTATION_CONTEXT() REPRESENTATION_CONTEXT('2D SPACE',''
  ) );
#239 = PCURVE('',#79,#240);
#240 = DEFINITIONAL_REPRESENTATION('',(#241),#244);
#241 = B_SPLINE_CURVE_WITH_KNOTS('',1,(#242,#243),.UNSPECIFIED.,.F.,.F.,
  (2,2),(1.,2.),.PIECEWISE_BEZIER_KNOTS.);
#242 = CARTESIAN_POINT('',(588.22696161259,2.839716366406E+03));
#243 = CARTESIAN_POINT('',(1.986402581427E+03,3.673445900582E+03));
#244 = ( GEOMETRIC_REPRESENTATION_CONTEXT(2) 
PARAMETRIC_REPRESENTATION_CONTEXT() REPRESENTATION_CONTEXT('2D SPACE',''
  ) );
#245 = ORIENTED_EDGE('',*,*,#246,.T.);
#246 = EDGE_CURVE('',#226,#247,#249,.T.);
#247 = VERTEX_POINT('',#248);
#248 = CARTESIAN_POINT('',(1.41E+05,-400.,3.9E+03));
#249 = SURFACE_CURVE('',#250,(#262,#269),.PCURVE_S1.);
#250 = ( BOUNDED_CURVE() B_SPLINE_CURVE(6,(#251,#252,#253,#254,#255,#256
    ,#257,#258,#259,#260,#261),.UNSPECIFIED.,.F.,.F.) 
B_SPLINE_CURVE_WITH_KNOTS((7,4,7),(0.,0.597915872701,1.),.UNSPECIFIED.) 
CURVE() GEOMETRIC_REPRESENTATION_ITEM() RATIONAL_B_SPLINE_CURVE((1.,1.,
1.,1.,1.,1.,1.,1.,1.,1.,1.)) REPRESENTATION_ITEM('') );
#251 = CARTESIAN_POINT('',(0.,-5.8E+03,1.5E+03));
#252 = CARTESIAN_POINT('',(1.373520220839E+04,-9.908573013121E+03,
    509.57148044823));
#253 = CARTESIAN_POINT('',(2.877009768404E+04,-8.446089973792E+03,
    627.75443077237));
#254 = CARTESIAN_POINT('',(4.186716167484E+04,-6.564204602241E+03,
    1.059407077889E+03));
#255 = CARTESIAN_POINT('',(5.679360260694E+04,-9.202554430275E+03,
    1.099238692613E+03));
#256 = CARTESIAN_POINT('',(8.044613735536E+04,-7.881753261893E+03,
    -360.7093740912));
#257 = CARTESIAN_POINT('',(1.038803398577E+05,-8.314506192085E+03,
    2.225775654122E+03));
#258 = CARTESIAN_POINT('',(1.142389273999E+05,-8.441409592847E+03,
    -2.430107615025E+03));
#259 = CARTESIAN_POINT('',(1.224704157994E+05,-8.02285131128E+03,
    4.46173030355E+03));
#260 = CARTESIAN_POINT('',(1.33209803888E+05,-3.150637076641E+03,
    535.8132794241));
#261 = CARTESIAN_POINT('',(1.41E+05,-400.,3.9E+03));
#262 = PCURVE('',#114,#263);
#263 = DEFINITIONAL_REPRESENTATION('',(#264),#268);
#264 = LINE('',#265,#266);
#265 = CARTESIAN_POINT('',(2.,0.));
#266 = VECTOR('',#267,1.);
#267 = DIRECTION('',(0.,1.));
#268 = ( GEOMETRIC_REPRESENTATION_CONTEXT(2) 
PARAMETRIC_REPRESENTATION_CONTEXT() REPRESENTATION_CONTEXT('2D SPACE',''
  ) );
#269 = PCURVE('',#270,#293);
#270 = ( BOUNDED_SURFACE() B_SPLINE_SURFACE(1,6,(
    (#271,#272,#273,#274,#275,#276,#277,#278,#279,#280,#281)
    ,(#282,#283,#284,#285,#286,#287,#288,#289,#290,#291,#292
)),.UNSPECIFIED.,.F.,.F.,.F.) B_SPLINE_SURFACE_WITH_KNOTS((2,2),(7,4,7),
  (2.,3.),(0.,0.597915872701,1.),.UNSPECIFIED.) 
GEOMETRIC_REPRESENTATION_ITEM() RATIONAL_B_SPLINE_SURFACE((
    (1.,1.,1.,1.,1.,1.,1.,1.,1.,1.,1.)
,(1.,1.,1.,1.,1.,1.,1.,1.,1.,1.,1.
  ))) REPRESENTATION_ITEM('') SURFACE() );
#271 = CARTESIAN_POINT('',(0.,-5.8E+03,1.5E+03));
#272 = CARTESIAN_POINT('',(1.373520220839E+04,-9.908573013121E+03,
    509.57148044823));
#273 = CARTESIAN_POINT('',(2.877009768404E+04,-8.446089973792E+03,
    627.75443077237));
#274 = CARTESIAN_POINT('',(4.186716167484E+04,-6.564204602241E+03,
    1.059407077889E+03));
#275 = CARTESIAN_POINT('',(5.679360260694E+04,-9.202554430275E+03,
    1.099238692613E+03));
#276 = CARTESIAN_POINT('',(8.044613735536E+04,-7.881753261893E+03,
    -360.7093740912));
#277 = CARTESIAN_POINT('',(1.038803398577E+05,-8.314506192085E+03,
    2.225775654122E+03));
#278 = CARTESIAN_POINT('',(1.142389273999E+05,-8.441409592847E+03,
    -2.430107615025E+03));
#279 = CARTESIAN_POINT('',(1.224704157994E+05,-8.02285131128E+03,
    4.46173030355E+03));
#280 = CARTESIAN_POINT('',(1.33209803888E+05,-3.150637076641E+03,
    535.8132794241));
#281 = CARTESIAN_POINT('',(1.41E+05,-400.,3.9E+03));
#282 = CARTESIAN_POINT('',(0.,-4.6E+03,1.4E+03));
#283 = CARTESIAN_POINT('',(1.373520220839E+04,-7.733526421286E+03,
    -1.117508478224E+03));
#284 = CARTESIAN_POINT('',(2.877009768404E+04,-8.692447272182E+03,
    715.93888594169));
#285 = CARTESIAN_POINT('',(4.186716167484E+04,-4.393567135649E+03,
    -266.0791835841));
#286 = CARTESIAN_POINT('',(5.679360260694E+04,-8.473048719668E+03,
    -119.0723572589));
#287 = CARTESIAN_POINT('',(8.044613735536E+04,-7.030309668582E+03,
    453.08139093373));
#288 = CARTESIAN_POINT('',(1.038803398577E+05,-6.852522082443E+03,
    -555.5254147029));
#289 = CARTESIAN_POINT('',(1.142389273999E+05,-6.624880878141E+03,
    938.30982094549));
#290 = CARTESIAN_POINT('',(1.224704157994E+05,-3.599309455048E+03,
    -336.4262793799));
#291 = CARTESIAN_POINT('',(1.33209803888E+05,-800.2070908154,
    1.153488512554E+03));
#292 = CARTESIAN_POINT('',(1.41E+05,-150.,3.8E+03));
#293 = DEFINITIONAL_REPRESENTATION('',(#294),#298);
#294 = LINE('',#295,#296);
#295 = CARTESIAN_POINT('',(2.,0.));
#296 = VECTOR('',#297,1.);
#297 = DIRECTION('',(0.,1.));
#298 = ( GEOMETRIC_REPRESENTATION_CONTEXT(2) 
PARAMETRIC_REPRESENTATION_CONTEXT() REPRESENTATION_CONTEXT('2D SPACE',''
  ) );
#299 = ORIENTED_EDGE('',*,*,#300,.F.);
#300 = EDGE_CURVE('',#91,#247,#301,.T.);
#301 = SURFACE_CURVE('',#302,(#305,#312),.PCURVE_S1.);
#302 = B_SPLINE_CURVE_WITH_KNOTS('',1,(#303,#304),.UNSPECIFIED.,.F.,.F.,
  (2,2),(1.,2.),.PIECEWISE_BEZIER_KNOTS.);
#303 = CARTESIAN_POINT('',(1.41E+05,-1.E+03,5.E+03));
#304 = CARTESIAN_POINT('',(1.41E+05,-400.,3.9E+03));
#305 = PCURVE('',#114,#306);
#306 = DEFINITIONAL_REPRESENTATION('',(#307),#311);
#307 = LINE('',#308,#309);
#308 = CARTESIAN_POINT('',(0.,1.));
#309 = VECTOR('',#310,1.);
#310 = DIRECTION('',(1.,0.));
#311 = ( GEOMETRIC_REPRESENTATION_CONTEXT(2) 
PARAMETRIC_REPRESENTATION_CONTEXT() REPRESENTATION_CONTEXT('2D SPACE',''
  ) );
#312 = PCURVE('',#159,#313);
#313 = DEFINITIONAL_REPRESENTATION('',(#314),#317);
#314 = B_SPLINE_CURVE_WITH_KNOTS('',1,(#315,#316),.UNSPECIFIED.,.F.,.F.,
  (2,2),(1.,2.),.PIECEWISE_BEZIER_KNOTS.);
#315 = CARTESIAN_POINT('',(1.22150842233E+03,-684.0447165045));
#316 = CARTESIAN_POINT('',(2.474427061233E+03,-698.0048127597));
#317 = ( GEOMETRIC_REPRESENTATION_CONTEXT(2) 
PARAMETRIC_REPRESENTATION_CONTEXT() REPRESENTATION_CONTEXT('2D SPACE',''
  ) );
#318 = ORIENTED_EDGE('',*,*,#90,.F.);
#319 = ADVANCED_FACE('',(#320),#270,.T.);
#320 = FACE_BOUND('',#321,.T.);
#321 = EDGE_LOOP('',(#322,#343,#397,#416));
#322 = ORIENTED_EDGE('',*,*,#323,.T.);
#323 = EDGE_CURVE('',#226,#324,#326,.T.);
#324 = VERTEX_POINT('',#325);
#325 = CARTESIAN_POINT('',(0.,-4.6E+03,1.4E+03));
#326 = SURFACE_CURVE('',#327,(#330,#337),.PCURVE_S1.);
#327 = B_SPLINE_CURVE_WITH_KNOTS('',1,(#328,#329),.UNSPECIFIED.,.F.,.F.,
  (2,2),(2.,3.),.PIECEWISE_BEZIER_KNOTS.);
#328 = CARTESIAN_POINT('',(0.,-5.8E+03,1.5E+03));
#329 = CARTESIAN_POINT('',(0.,-4.6E+03,1.4E+03));
#330 = PCURVE('',#270,#331);
#331 = DEFINITIONAL_REPRESENTATION('',(#332),#336);
#332 = LINE('',#333,#334);
#333 = CARTESIAN_POINT('',(0.,0.));
#334 = VECTOR('',#335,1.);
#335 = DIRECTION('',(1.,0.));
#336 = ( GEOMETRIC_REPRESENTATION_CONTEXT(2) 
PARAMETRIC_REPRESENTATION_CONTEXT() REPRESENTATION_CONTEXT('2D SPACE',''
  ) );
#337 = PCURVE('',#79,#338);
#338 = DEFINITIONAL_REPRESENTATION('',(#339),#342);
#339 = B_SPLINE_CURVE_WITH_KNOTS('',1,(#340,#341),.UNSPECIFIED.,.F.,.F.,
  (2,2),(2.,3.),.PIECEWISE_BEZIER_KNOTS.);
#340 = CARTESIAN_POINT('',(1.986402581427E+03,3.673445900582E+03));
#341 = CARTESIAN_POINT('',(3.181741317926E+03,3.527962894618E+03));
#342 = ( GEOMETRIC_REPRESENTATION_CONTEXT(2) 
PARAMETRIC_REPRESENTATION_CONTEXT() REPRESENTATION_CONTEXT('2D SPACE',''
  ) );
#343 = ORIENTED_EDGE('',*,*,#344,.T.);
#344 = EDGE_CURVE('',#324,#345,#347,.T.);
#345 = VERTEX_POINT('',#346);
#346 = CARTESIAN_POINT('',(1.41E+05,-150.,3.8E+03));
#347 = SURFACE_CURVE('',#348,(#360,#367),.PCURVE_S1.);
#348 = ( BOUNDED_CURVE() B_SPLINE_CURVE(6,(#349,#350,#351,#352,#353,#354
    ,#355,#356,#357,#358,#359),.UNSPECIFIED.,.F.,.F.) 
B_SPLINE_CURVE_WITH_KNOTS((7,4,7),(0.,0.597915872701,1.),.UNSPECIFIED.) 
CURVE() GEOMETRIC_REPRESENTATION_ITEM() RATIONAL_B_SPLINE_CURVE((1.,1.,
1.,1.,1.,1.,1.,1.,1.,1.,1.)) REPRESENTATION_ITEM('') );
#349 = CARTESIAN_POINT('',(0.,-4.6E+03,1.4E+03));
#350 = CARTESIAN_POINT('',(1.373520220839E+04,-7.733526421286E+03,
    -1.117508478224E+03));
#351 = CARTESIAN_POINT('',(2.877009768404E+04,-8.692447272182E+03,
    715.93888594169));
#352 = CARTESIAN_POINT('',(4.186716167484E+04,-4.393567135649E+03,
    -266.0791835841));
#353 = CARTESIAN_POINT('',(5.679360260694E+04,-8.473048719668E+03,
    -119.0723572589));
#354 = CARTESIAN_POINT('',(8.044613735536E+04,-7.030309668582E+03,
    453.08139093373));
#355 = CARTESIAN_POINT('',(1.038803398577E+05,-6.852522082443E+03,
    -555.5254147029));
#356 = CARTESIAN_POINT('',(1.142389273999E+05,-6.624880878141E+03,
    938.30982094549));
#357 = CARTESIAN_POINT('',(1.224704157994E+05,-3.599309455048E+03,
    -336.4262793799));
#358 = CARTESIAN_POINT('',(1.33209803888E+05,-800.2070908154,
    1.153488512554E+03));
#359 = CARTESIAN_POINT('',(1.41E+05,-150.,3.8E+03));
#360 = PCURVE('',#270,#361);
#361 = DEFINITIONAL_REPRESENTATION('',(#362),#366);
#362 = LINE('',#363,#364);
#363 = CARTESIAN_POINT('',(3.,0.));
#364 = VECTOR('',#365,1.);
#365 = DIRECTION('',(0.,1.));
#366 = ( GEOMETRIC_REPRESENTATION_CONTEXT(2) 
PARAMETRIC_REPRESENTATION_CONTEXT() REPRESENTATION_CONTEXT('2D SPACE',''
  ) );
#367 = PCURVE('',#368,#391);
#368 = ( BOUNDED_SURFACE() B_SPLINE_SURFACE(1,6,(
    (#369,#370,#371,#372,#373,#374,#375,#376,#377,#378,#379)
    ,(#380,#381,#382,#383,#384,#385,#386,#387,#388,#389,#390
)),.UNSPECIFIED.,.F.,.F.,.F.) B_SPLINE_SURFACE_WITH_KNOTS((2,2),(7,4,7),
  (3.,4.),(0.,0.597915872701,1.),.UNSPECIFIED.) 
GEOMETRIC_REPRESENTATION_ITEM() RATIONAL_B_SPLINE_SURFACE((
    (1.,1.,1.,1.,1.,1.,1.,1.,1.,1.,1.)
,(1.,1.,1.,1.,1.,1.,1.,1.,1.,1.,1.
  ))) REPRESENTATION_ITEM('') SURFACE() );
#369 = CARTESIAN_POINT('',(0.,-4.6E+03,1.4E+03));
#370 = CARTESIAN_POINT('',(1.373520220839E+04,-7.733526421286E+03,
    -1.117508478224E+03));
#371 = CARTESIAN_POINT('',(2.877009768404E+04,-8.692447272182E+03,
    715.93888594169));
#372 = CARTESIAN_POINT('',(4.186716167484E+04,-4.393567135649E+03,
    -266.0791835841));
#373 = CARTESIAN_POINT('',(5.679360260694E+04,-8.473048719668E+03,
    -119.0723572589));
#374 = CARTESIAN_POINT('',(8.044613735536E+04,-7.030309668582E+03,
    453.08139093373));
#375 = CARTESIAN_POINT('',(1.038803398577E+05,-6.852522082443E+03,
    -555.5254147029));
#376 = CARTESIAN_POINT('',(1.142389273999E+05,-6.624880878141E+03,
    938.30982094549));
#377 = CARTESIAN_POINT('',(1.224704157994E+05,-3.599309455048E+03,
    -336.4262793799));
#378 = CARTESIAN_POINT('',(1.33209803888E+05,-800.2070908154,
    1.153488512554E+03));
#379 = CARTESIAN_POINT('',(1.41E+05,-150.,3.8E+03));
#380 = CARTESIAN_POINT('',(0.,0.,1.4E+03));
#381 = CARTESIAN_POINT('',(1.373520220839E+04,0.,-1.117508478224E+03));
#382 = CARTESIAN_POINT('',(2.877009768404E+04,0.,715.93888594169));
#383 = CARTESIAN_POINT('',(4.186716167484E+04,0.,-266.0791835841));
#384 = CARTESIAN_POINT('',(5.679360260694E+04,0.,-119.0723572589));
#385 = CARTESIAN_POINT('',(8.044613735536E+04,0.,453.08139093373));
#386 = CARTESIAN_POINT('',(1.038803398577E+05,0.,-555.5254147029));
#387 = CARTESIAN_POINT('',(1.142389273999E+05,0.,938.30982094549));
#388 = CARTESIAN_POINT('',(1.224704157994E+05,0.,-336.4262793799));
#389 = CARTESIAN_POINT('',(1.33209803888E+05,0.,1.153488512554E+03));
#390 = CARTESIAN_POINT('',(1.41E+05,0.,3.8E+03));
#391 = DEFINITIONAL_REPRESENTATION('',(#392),#396);
#392 = LINE('',#393,#394);
#393 = CARTESIAN_POINT('',(3.,0.));
#394 = VECTOR('',#395,1.);
#395 = DIRECTION('',(0.,1.));
#396 = ( GEOMETRIC_REPRESENTATION_CONTEXT(2) 
PARAMETRIC_REPRESENTATION_CONTEXT() REPRESENTATION_CONTEXT('2D SPACE',''
  ) );
#397 = ORIENTED_EDGE('',*,*,#398,.F.);
#398 = EDGE_CURVE('',#247,#345,#399,.T.);
#399 = SURFACE_CURVE('',#400,(#403,#410),.PCURVE_S1.);
#400 = B_SPLINE_CURVE_WITH_KNOTS('',1,(#401,#402),.UNSPECIFIED.,.F.,.F.,
  (2,2),(2.,3.),.PIECEWISE_BEZIER_KNOTS.);
#401 = CARTESIAN_POINT('',(1.41E+05,-400.,3.9E+03));
#402 = CARTESIAN_POINT('',(1.41E+05,-150.,3.8E+03));
#403 = PCURVE('',#270,#404);
#404 = DEFINITIONAL_REPRESENTATION('',(#405),#409);
#405 = LINE('',#406,#407);
#406 = CARTESIAN_POINT('',(0.,1.));
#407 = VECTOR('',#408,1.);
#408 = DIRECTION('',(1.,0.));
#409 = ( GEOMETRIC_REPRESENTATION_CONTEXT(2) 
PARAMETRIC_REPRESENTATION_CONTEXT() REPRESENTATION_CONTEXT('2D SPACE',''
  ) );
#410 = PCURVE('',#159,#411);
#411 = DEFINITIONAL_REPRESENTATION('',(#412),#415);
#412 = B_SPLINE_CURVE_WITH_KNOTS('',1,(#413,#414),.UNSPECIFIED.,.F.,.F.,
  (2,2),(2.,3.),.PIECEWISE_BEZIER_KNOTS.);
#413 = CARTESIAN_POINT('',(2.474427061233E+03,-698.0048127597));
#414 = CARTESIAN_POINT('',(2.683828505061E+03,-528.7386456655));
#415 = ( GEOMETRIC_REPRESENTATION_CONTEXT(2) 
PARAMETRIC_REPRESENTATION_CONTEXT() REPRESENTATION_CONTEXT('2D SPACE',''
  ) );
#416 = ORIENTED_EDGE('',*,*,#246,.F.);
#417 = ADVANCED_FACE('',(#418),#368,.T.);
#418 = FACE_BOUND('',#419,.T.);
#419 = EDGE_LOOP('',(#420,#441,#495,#514));
#420 = ORIENTED_EDGE('',*,*,#421,.T.);
#421 = EDGE_CURVE('',#324,#422,#424,.T.);
#422 = VERTEX_POINT('',#423);
#423 = CARTESIAN_POINT('',(0.,0.,1.4E+03));
#424 = SURFACE_CURVE('',#425,(#428,#435),.PCURVE_S1.);
#425 = B_SPLINE_CURVE_WITH_KNOTS('',1,(#426,#427),.UNSPECIFIED.,.F.,.F.,
  (2,2),(3.,4.),.PIECEWISE_BEZIER_KNOTS.);
#426 = CARTESIAN_POINT('',(0.,-4.6E+03,1.4E+03));
#427 = CARTESIAN_POINT('',(0.,0.,1.4E+03));
#428 = PCURVE('',#368,#429);
#429 = DEFINITIONAL_REPRESENTATION('',(#430),#434);
#430 = LINE('',#431,#432);
#431 = CARTESIAN_POINT('',(0.,0.));
#432 = VECTOR('',#433,1.);
#433 = DIRECTION('',(1.,0.));
#434 = ( GEOMETRIC_REPRESENTATION_CONTEXT(2) 
PARAMETRIC_REPRESENTATION_CONTEXT() REPRESENTATION_CONTEXT('2D SPACE',''
  ) );
#435 = PCURVE('',#79,#436);
#436 = DEFINITIONAL_REPRESENTATION('',(#437),#440);
#437 = B_SPLINE_CURVE_WITH_KNOTS('',1,(#438,#439),.UNSPECIFIED.,.F.,.F.,
  (2,2),(3.,4.),.PIECEWISE_BEZIER_KNOTS.);
#438 = CARTESIAN_POINT('',(3.181741317926E+03,3.527962894618E+03));
#439 = CARTESIAN_POINT('',(7.686119002569E+03,2.594913231371E+03));
#440 = ( GEOMETRIC_REPRESENTATION_CONTEXT(2) 
PARAMETRIC_REPRESENTATION_CONTEXT() REPRESENTATION_CONTEXT('2D SPACE',''
  ) );
#441 = ORIENTED_EDGE('',*,*,#442,.T.);
#442 = EDGE_CURVE('',#422,#443,#445,.T.);
#443 = VERTEX_POINT('',#444);
#444 = CARTESIAN_POINT('',(1.41E+05,0.,3.8E+03));
#445 = SURFACE_CURVE('',#446,(#458,#465),.PCURVE_S1.);
#446 = ( BOUNDED_CURVE() B_SPLINE_CURVE(6,(#447,#448,#449,#450,#451,#452
    ,#453,#454,#455,#456,#457),.UNSPECIFIED.,.F.,.F.) 
B_SPLINE_CURVE_WITH_KNOTS((7,4,7),(0.,0.597915872701,1.),.UNSPECIFIED.) 
CURVE() GEOMETRIC_REPRESENTATION_ITEM() RATIONAL_B_SPLINE_CURVE((1.,1.,
1.,1.,1.,1.,1.,1.,1.,1.,1.)) REPRESENTATION_ITEM('') );
#447 = CARTESIAN_POINT('',(0.,0.,1.4E+03));
#448 = CARTESIAN_POINT('',(1.373520220839E+04,0.,-1.117508478224E+03));
#449 = CARTESIAN_POINT('',(2.877009768404E+04,0.,715.93888594169));
#450 = CARTESIAN_POINT('',(4.186716167484E+04,0.,-266.0791835841));
#451 = CARTESIAN_POINT('',(5.679360260694E+04,0.,-119.0723572589));
#452 = CARTESIAN_POINT('',(8.044613735536E+04,0.,453.08139093373));
#453 = CARTESIAN_POINT('',(1.038803398577E+05,0.,-555.5254147029));
#454 = CARTESIAN_POINT('',(1.142389273999E+05,0.,938.30982094549));
#455 = CARTESIAN_POINT('',(1.224704157994E+05,0.,-336.4262793799));
#456 = CARTESIAN_POINT('',(1.33209803888E+05,0.,1.153488512554E+03));
#457 = CARTESIAN_POINT('',(1.41E+05,0.,3.8E+03));
#458 = PCURVE('',#368,#459);
#459 = DEFINITIONAL_REPRESENTATION('',(#460),#464);
#460 = LINE('',#461,#462);
#461 = CARTESIAN_POINT('',(4.,0.));
#462 = VECTOR('',#463,1.);
#463 = DIRECTION('',(0.,1.));
#464 = ( GEOMETRIC_REPRESENTATION_CONTEXT(2) 
PARAMETRIC_REPRESENTATION_CONTEXT() REPRESENTATION_CONTEXT('2D SPACE',''
  ) );
#465 = PCURVE('',#466,#489);
#466 = ( BOUNDED_SURFACE() B_SPLINE_SURFACE(1,6,(
    (#467,#468,#469,#470,#471,#472,#473,#474,#475,#476,#477)
    ,(#478,#479,#480,#481,#482,#483,#484,#485,#486,#487,#488
)),.UNSPECIFIED.,.F.,.F.,.F.) B_SPLINE_SURFACE_WITH_KNOTS((2,2),(7,4,7),
  (4.,5.),(0.,0.597915872701,1.),.UNSPECIFIED.) 
GEOMETRIC_REPRESENTATION_ITEM() RATIONAL_B_SPLINE_SURFACE((
    (1.,1.,1.,1.,1.,1.,1.,1.,1.,1.,1.)
,(1.,1.,1.,1.,1.,1.,1.,1.,1.,1.,1.
  ))) REPRESENTATION_ITEM('') SURFACE() );
#467 = CARTESIAN_POINT('',(0.,0.,1.4E+03));
#468 = CARTESIAN_POINT('',(1.373520220839E+04,0.,-1.117508478224E+03));
#469 = CARTESIAN_POINT('',(2.877009768404E+04,0.,715.93888594169));
#470 = CARTESIAN_POINT('',(4.186716167484E+04,0.,-266.0791835841));
#471 = CARTESIAN_POINT('',(5.679360260694E+04,0.,-119.0723572589));
#472 = CARTESIAN_POINT('',(8.044613735536E+04,0.,453.08139093373));
#473 = CARTESIAN_POINT('',(1.038803398577E+05,0.,-555.5254147029));
#474 = CARTESIAN_POINT('',(1.142389273999E+05,0.,938.30982094549));
#475 = CARTESIAN_POINT('',(1.224704157994E+05,0.,-336.4262793799));
#476 = CARTESIAN_POINT('',(1.33209803888E+05,0.,1.153488512554E+03));
#477 = CARTESIAN_POINT('',(1.41E+05,0.,3.8E+03));
#478 = CARTESIAN_POINT('',(0.,4.6E+03,1.4E+03));
#479 = CARTESIAN_POINT('',(1.373520220839E+04,7.733526421286E+03,
    -1.117508478224E+03));
#480 = CARTESIAN_POINT('',(2.877009768404E+04,8.692447272182E+03,
    715.93888594169));
#481 = CARTESIAN_POINT('',(4.186716167484E+04,4.393567135649E+03,
    -266.0791835841));
#482 = CARTESIAN_POINT('',(5.679360260694E+04,8.473048719668E+03,
    -119.0723572589));
#483 = CARTESIAN_POINT('',(8.044613735536E+04,7.030309668582E+03,
    453.08139093373));
#484 = CARTESIAN_POINT('',(1.038803398577E+05,6.852522082443E+03,
    -555.5254147029));
#485 = CARTESIAN_POINT('',(1.142389273999E+05,6.624880878141E+03,
    938.30982094549));
#486 = CARTESIAN_POINT('',(1.224704157994E+05,3.599309455048E+03,
    -336.4262793799));
#487 = CARTESIAN_POINT('',(1.33209803888E+05,800.20709081545,
    1.153488512554E+03));
#488 = CARTESIAN_POINT('',(1.41E+05,150.,3.8E+03));
#489 = DEFINITIONAL_REPRESENTATION('',(#490),#494);
#490 = LINE('',#491,#492);
#491 = CARTESIAN_POINT('',(4.,0.));
#492 = VECTOR('',#493,1.);
#493 = DIRECTION('',(0.,1.));
#494 = ( GEOMETRIC_REPRESENTATION_CONTEXT(2) 
PARAMETRIC_REPRESENTATION_CONTEXT() REPRESENTATION_CONTEXT('2D SPACE',''
  ) );
#495 = ORIENTED_EDGE('',*,*,#496,.F.);
#496 = EDGE_CURVE('',#345,#443,#497,.T.);
#497 = SURFACE_CURVE('',#498,(#501,#508),.PCURVE_S1.);
#498 = B_SPLINE_CURVE_WITH_KNOTS('',1,(#499,#500),.UNSPECIFIED.,.F.,.F.,
  (2,2),(3.,4.),.PIECEWISE_BEZIER_KNOTS.);
#499 = CARTESIAN_POINT('',(1.41E+05,-150.,3.8E+03));
#500 = CARTESIAN_POINT('',(1.41E+05,0.,3.8E+03));
#501 = PCURVE('',#368,#502);
#502 = DEFINITIONAL_REPRESENTATION('',(#503),#507);
#503 = LINE('',#504,#505);
#504 = CARTESIAN_POINT('',(0.,1.));
#505 = VECTOR('',#506,1.);
#506 = DIRECTION('',(1.,0.));
#507 = ( GEOMETRIC_REPRESENTATION_CONTEXT(2) 
PARAMETRIC_REPRESENTATION_CONTEXT() REPRESENTATION_CONTEXT('2D SPACE',''
  ) );
#508 = PCURVE('',#159,#509);
#509 = DEFINITIONAL_REPRESENTATION('',(#510),#513);
#510 = B_SPLINE_CURVE_WITH_KNOTS('',1,(#511,#512),.UNSPECIFIED.,.F.,.F.,
  (2,2),(3.,4.),.PIECEWISE_BEZIER_KNOTS.);
#511 = CARTESIAN_POINT('',(2.683828505061E+03,-528.7386456655));
#512 = CARTESIAN_POINT('',(2.757119010401E+03,-397.862743273));
#513 = ( GEOMETRIC_REPRESENTATION_CONTEXT(2) 
PARAMETRIC_REPRESENTATION_CONTEXT() REPRESENTATION_CONTEXT('2D SPACE',''
  ) );
#514 = ORIENTED_EDGE('',*,*,#344,.F.);
#515 = ADVANCED_FACE('',(#516),#466,.T.);
#516 = FACE_BOUND('',#517,.T.);
#517 = EDGE_LOOP('',(#518,#539,#593,#612));
#518 = ORIENTED_EDGE('',*,*,#519,.T.);
#519 = EDGE_CURVE('',#422,#520,#522,.T.);
#520 = VERTEX_POINT('',#521);
#521 = CARTESIAN_POINT('',(0.,4.6E+03,1.4E+03));
#522 = SURFACE_CURVE('',#523,(#526,#533),.PCURVE_S1.);
#523 = B_SPLINE_CURVE_WITH_KNOTS('',1,(#524,#525),.UNSPECIFIED.,.F.,.F.,
  (2,2),(4.,5.),.PIECEWISE_BEZIER_KNOTS.);
#524 = CARTESIAN_POINT('',(0.,0.,1.4E+03));
#525 = CARTESIAN_POINT('',(0.,4.6E+03,1.4E+03));
#526 = PCURVE('',#466,#527);
#527 = DEFINITIONAL_REPRESENTATION('',(#528),#532);
#528 = LINE('',#529,#530);
#529 = CARTESIAN_POINT('',(0.,0.));
#530 = VECTOR('',#531,1.);
#531 = DIRECTION('',(1.,0.));
#532 = ( GEOMETRIC_REPRESENTATION_CONTEXT(2) 
PARAMETRIC_REPRESENTATION_CONTEXT() REPRESENTATION_CONTEXT('2D SPACE',''
  ) );
#533 = PCURVE('',#79,#534);
#534 = DEFINITIONAL_REPRESENTATION('',(#535),#538);
#535 = B_SPLINE_CURVE_WITH_KNOTS('',1,(#536,#537),.UNSPECIFIED.,.F.,.F.,
  (2,2),(4.,5.),.PIECEWISE_BEZIER_KNOTS.);
#536 = CARTESIAN_POINT('',(7.686119002569E+03,2.594913231371E+03));
#537 = CARTESIAN_POINT('',(1.219049668721E+04,1.661863568123E+03));
#538 = ( GEOMETRIC_REPRESENTATION_CONTEXT(2) 
PARAMETRIC_REPRESENTATION_CONTEXT() REPRESENTATION_CONTEXT('2D SPACE',''
  ) );
#539 = ORIENTED_EDGE('',*,*,#540,.T.);
#540 = EDGE_CURVE('',#520,#541,#543,.T.);
#541 = VERTEX_POINT('',#542);
#542 = CARTESIAN_POINT('',(1.41E+05,150.,3.8E+03));
#543 = SURFACE_CURVE('',#544,(#556,#563),.PCURVE_S1.);
#544 = ( BOUNDED_CURVE() B_SPLINE_CURVE(6,(#545,#546,#547,#548,#549,#550
    ,#551,#552,#553,#554,#555),.UNSPECIFIED.,.F.,.F.) 
B_SPLINE_CURVE_WITH_KNOTS((7,4,7),(0.,0.597915872701,1.),.UNSPECIFIED.) 
CURVE() GEOMETRIC_REPRESENTATION_ITEM() RATIONAL_B_SPLINE_CURVE((1.,1.,
1.,1.,1.,1.,1.,1.,1.,1.,1.)) REPRESENTATION_ITEM('') );
#545 = CARTESIAN_POINT('',(0.,4.6E+03,1.4E+03));
#546 = CARTESIAN_POINT('',(1.373520220839E+04,7.733526421286E+03,
    -1.117508478224E+03));
#547 = CARTESIAN_POINT('',(2.877009768404E+04,8.692447272182E+03,
    715.93888594169));
#548 = CARTESIAN_POINT('',(4.186716167484E+04,4.393567135649E+03,
    -266.0791835841));
#549 = CARTESIAN_POINT('',(5.679360260694E+04,8.473048719668E+03,
    -119.0723572589));
#550 = CARTESIAN_POINT('',(8.044613735536E+04,7.030309668582E+03,
    453.08139093373));
#551 = CARTESIAN_POINT('',(1.038803398577E+05,6.852522082443E+03,
    -555.5254147029));
#552 = CARTESIAN_POINT('',(1.142389273999E+05,6.624880878141E+03,
    938.30982094549));
#553 = CARTESIAN_POINT('',(1.224704157994E+05,3.599309455048E+03,
    -336.4262793799));
#554 = CARTESIAN_POINT('',(1.33209803888E+05,800.20709081545,
    1.153488512554E+03));
#555 = CARTESIAN_POINT('',(1.41E+05,150.,3.8E+03));
#556 = PCURVE('',#466,#557);
#557 = DEFINITIONAL_REPRESENTATION('',(#558),#562);
#558 = LINE('',#559,#560);
#559 = CARTESIAN_POINT('',(5.,0.));
#560 = VECTOR('',#561,1.);
#561 = DIRECTION('',(0.,1.));
#562 = ( GEOMETRIC_REPRESENTATION_CONTEXT(2) 
PARAMETRIC_REPRESENTATION_CONTEXT() REPRESENTATION_CONTEXT('2D SPACE',''
  ) );
#563 = PCURVE('',#564,#587);
#564 = ( BOUNDED_SURFACE() B_SPLINE_SURFACE(1,6,(
    (#565,#566,#567,#568,#569,#570,#571,#572,#573,#574,#575)
    ,(#576,#577,#578,#579,#580,#581,#582,#583,#584,#585,#586
)),.UNSPECIFIED.,.F.,.F.,.F.) B_SPLINE_SURFACE_WITH_KNOTS((2,2),(7,4,7),
  (5.,6.),(0.,0.597915872701,1.),.UNSPECIFIED.) 
GEOMETRIC_REPRESENTATION_ITEM() RATIONAL_B_SPLINE_SURFACE((
    (1.,1.,1.,1.,1.,1.,1.,1.,1.,1.,1.)
,(1.,1.,1.,1.,1.,1.,1.,1.,1.,1.,1.
  ))) REPRESENTATION_ITEM('') SURFACE() );
#565 = CARTESIAN_POINT('',(0.,4.6E+03,1.4E+03));
#566 = CARTESIAN_POINT('',(1.373520220839E+04,7.733526421286E+03,
    -1.117508478224E+03));
#567 = CARTESIAN_POINT('',(2.877009768404E+04,8.692447272182E+03,
    715.93888594169));
#568 = CARTESIAN_POINT('',(4.186716167484E+04,4.393567135649E+03,
    -266.0791835841));
#569 = CARTESIAN_POINT('',(5.679360260694E+04,8.473048719668E+03,
    -119.0723572589));
#570 = CARTESIAN_POINT('',(8.044613735536E+04,7.030309668582E+03,
    453.08139093373));
#571 = CARTESIAN_POINT('',(1.038803398577E+05,6.852522082443E+03,
    -555.5254147029));
#572 = CARTESIAN_POINT('',(1.142389273999E+05,6.624880878141E+03,
    938.30982094549));
#573 = CARTESIAN_POINT('',(1.224704157994E+05,3.599309455048E+03,
    -336.4262793799));
#574 = CARTESIAN_POINT('',(1.33209803888E+05,800.20709081545,
    1.153488512554E+03));
#575 = CARTESIAN_POINT('',(1.41E+05,150.,3.8E+03));
#576 = CARTESIAN_POINT('',(0.,5.8E+03,1.5E+03));
#577 = CARTESIAN_POINT('',(1.373520220839E+04,9.908573013121E+03,
    509.57148044823));
#578 = CARTESIAN_POINT('',(2.877009768404E+04,8.446089973792E+03,
    627.75443077237));
#579 = CARTESIAN_POINT('',(4.186716167484E+04,6.564204602241E+03,
    1.059407077889E+03));
#580 = CARTESIAN_POINT('',(5.679360260694E+04,9.202554430275E+03,
    1.099238692613E+03));
#581 = CARTESIAN_POINT('',(8.044613735536E+04,7.881753261893E+03,
    -360.7093740912));
#582 = CARTESIAN_POINT('',(1.038803398577E+05,8.314506192085E+03,
    2.225775654122E+03));
#583 = CARTESIAN_POINT('',(1.142389273999E+05,8.441409592847E+03,
    -2.430107615025E+03));
#584 = CARTESIAN_POINT('',(1.224704157994E+05,8.02285131128E+03,
    4.46173030355E+03));
#585 = CARTESIAN_POINT('',(1.33209803888E+05,3.150637076641E+03,
    535.8132794241));
#586 = CARTESIAN_POINT('',(1.41E+05,400.,3.9E+03));
#587 = DEFINITIONAL_REPRESENTATION('',(#588),#592);
#588 = LINE('',#589,#590);
#589 = CARTESIAN_POINT('',(5.,0.));
#590 = VECTOR('',#591,1.);
#591 = DIRECTION('',(0.,1.));
#592 = ( GEOMETRIC_REPRESENTATION_CONTEXT(2) 
PARAMETRIC_REPRESENTATION_CONTEXT() REPRESENTATION_CONTEXT('2D SPACE',''
  ) );
#593 = ORIENTED_EDGE('',*,*,#594,.F.);
#594 = EDGE_CURVE('',#443,#541,#595,.T.);
#595 = SURFACE_CURVE('',#596,(#599,#606),.PCURVE_S1.);
#596 = B_SPLINE_CURVE_WITH_KNOTS('',1,(#597,#598),.UNSPECIFIED.,.F.,.F.,
  (2,2),(4.,5.),.PIECEWISE_BEZIER_KNOTS.);
#597 = CARTESIAN_POINT('',(1.41E+05,0.,3.8E+03));
#598 = CARTESIAN_POINT('',(1.41E+05,150.,3.8E+03));
#599 = PCURVE('',#466,#600);
#600 = DEFINITIONAL_REPRESENTATION('',(#601),#605);
#601 = LINE('',#602,#603);
#602 = CARTESIAN_POINT('',(0.,1.));
#603 = VECTOR('',#604,1.);
#604 = DIRECTION('',(1.,0.));
#605 = ( GEOMETRIC_REPRESENTATION_CONTEXT(2) 
PARAMETRIC_REPRESENTATION_CONTEXT() REPRESENTATION_CONTEXT('2D SPACE',''
  ) );
#606 = PCURVE('',#159,#607);
#607 = DEFINITIONAL_REPRESENTATION('',(#608),#611);
#608 = B_SPLINE_CURVE_WITH_KNOTS('',1,(#609,#610),.UNSPECIFIED.,.F.,.F.,
  (2,2),(4.,5.),.PIECEWISE_BEZIER_KNOTS.);
#609 = CARTESIAN_POINT('',(2.757119010401E+03,-397.862743273));
#610 = CARTESIAN_POINT('',(2.830409515741E+03,-266.9868408806));
#611 = ( GEOMETRIC_REPRESENTATION_CONTEXT(2) 
PARAMETRIC_REPRESENTATION_CONTEXT() REPRESENTATION_CONTEXT('2D SPACE',''
  ) );
#612 = ORIENTED_EDGE('',*,*,#442,.F.);
#613 = ADVANCED_FACE('',(#614),#564,.T.);
#614 = FACE_BOUND('',#615,.T.);
#615 = EDGE_LOOP('',(#616,#637,#691,#710));
#616 = ORIENTED_EDGE('',*,*,#617,.T.);
#617 = EDGE_CURVE('',#520,#618,#620,.T.);
#618 = VERTEX_POINT('',#619);
#619 = CARTESIAN_POINT('',(0.,5.8E+03,1.5E+03));
#620 = SURFACE_CURVE('',#621,(#624,#631),.PCURVE_S1.);
#621 = B_SPLINE_CURVE_WITH_KNOTS('',1,(#622,#623),.UNSPECIFIED.,.F.,.F.,
  (2,2),(5.,6.),.PIECEWISE_BEZIER_KNOTS.);
#622 = CARTESIAN_POINT('',(0.,4.6E+03,1.4E+03));
#623 = CARTESIAN_POINT('',(0.,5.8E+03,1.5E+03));
#624 = PCURVE('',#564,#625);
#625 = DEFINITIONAL_REPRESENTATION('',(#626),#630);
#626 = LINE('',#627,#628);
#627 = CARTESIAN_POINT('',(0.,0.));
#628 = VECTOR('',#629,1.);
#629 = DIRECTION('',(1.,0.));
#630 = ( GEOMETRIC_REPRESENTATION_CONTEXT(2) 
PARAMETRIC_REPRESENTATION_CONTEXT() REPRESENTATION_CONTEXT('2D SPACE',''
  ) );
#631 = PCURVE('',#79,#632);
#632 = DEFINITIONAL_REPRESENTATION('',(#633),#636);
#633 = B_SPLINE_CURVE_WITH_KNOTS('',1,(#634,#635),.UNSPECIFIED.,.F.,.F.,
  (2,2),(5.,6.),.PIECEWISE_BEZIER_KNOTS.);
#634 = CARTESIAN_POINT('',(1.219049668721E+04,1.661863568123E+03));
#635 = CARTESIAN_POINT('',(1.334526804705E+04,1.320538054131E+03));
#636 = ( GEOMETRIC_REPRESENTATION_CONTEXT(2) 
PARAMETRIC_REPRESENTATION_CONTEXT() REPRESENTATION_CONTEXT('2D SPACE',''
  ) );
#637 = ORIENTED_EDGE('',*,*,#638,.T.);
#638 = EDGE_CURVE('',#618,#639,#641,.T.);
#639 = VERTEX_POINT('',#640);
#640 = CARTESIAN_POINT('',(1.41E+05,400.,3.9E+03));
#641 = SURFACE_CURVE('',#642,(#654,#661),.PCURVE_S1.);
#642 = ( BOUNDED_CURVE() B_SPLINE_CURVE(6,(#643,#644,#645,#646,#647,#648
    ,#649,#650,#651,#652,#653),.UNSPECIFIED.,.F.,.F.) 
B_SPLINE_CURVE_WITH_KNOTS((7,4,7),(0.,0.597915872701,1.),.UNSPECIFIED.) 
CURVE() GEOMETRIC_REPRESENTATION_ITEM() RATIONAL_B_SPLINE_CURVE((1.,1.,
1.,1.,1.,1.,1.,1.,1.,1.,1.)) REPRESENTATION_ITEM('') );
#643 = CARTESIAN_POINT('',(0.,5.8E+03,1.5E+03));
#644 = CARTESIAN_POINT('',(1.373520220839E+04,9.908573013121E+03,
    509.57148044823));
#645 = CARTESIAN_POINT('',(2.877009768404E+04,8.446089973792E+03,
    627.75443077237));
#646 = CARTESIAN_POINT('',(4.186716167484E+04,6.564204602241E+03,
    1.059407077889E+03));
#647 = CARTESIAN_POINT('',(5.679360260694E+04,9.202554430275E+03,
    1.099238692613E+03));
#648 = CARTESIAN_POINT('',(8.044613735536E+04,7.881753261893E+03,
    -360.7093740912));
#649 = CARTESIAN_POINT('',(1.038803398577E+05,8.314506192085E+03,
    2.225775654122E+03));
#650 = CARTESIAN_POINT('',(1.142389273999E+05,8.441409592847E+03,
    -2.430107615025E+03));
#651 = CARTESIAN_POINT('',(1.224704157994E+05,8.02285131128E+03,
    4.46173030355E+03));
#652 = CARTESIAN_POINT('',(1.33209803888E+05,3.150637076641E+03,
    535.8132794241));
#653 = CARTESIAN_POINT('',(1.41E+05,400.,3.9E+03));
#654 = PCURVE('',#564,#655);
#655 = DEFINITIONAL_REPRESENTATION('',(#656),#660);
#656 = LINE('',#657,#658);
#657 = CARTESIAN_POINT('',(6.,0.));
#658 = VECTOR('',#659,1.);
#659 = DIRECTION('',(0.,1.));
#660 = ( GEOMETRIC_REPRESENTATION_CONTEXT(2) 
PARAMETRIC_REPRESENTATION_CONTEXT() REPRESENTATION_CONTEXT('2D SPACE',''
  ) );
#661 = PCURVE('',#662,#685);
#662 = ( BOUNDED_SURFACE() B_SPLINE_SURFACE(1,6,(
    (#663,#664,#665,#666,#667,#668,#669,#670,#671,#672,#673)
    ,(#674,#675,#676,#677,#678,#679,#680,#681,#682,#683,#684
)),.UNSPECIFIED.,.F.,.F.,.F.) B_SPLINE_SURFACE_WITH_KNOTS((2,2),(7,4,7),
  (6.,7.),(0.,0.597915872701,1.),.UNSPECIFIED.) 
GEOMETRIC_REPRESENTATION_ITEM() RATIONAL_B_SPLINE_SURFACE((
    (1.,1.,1.,1.,1.,1.,1.,1.,1.,1.,1.)
,(1.,1.,1.,1.,1.,1.,1.,1.,1.,1.,1.
  ))) REPRESENTATION_ITEM('') SURFACE() );
#663 = CARTESIAN_POINT('',(0.,5.8E+03,1.5E+03));
#664 = CARTESIAN_POINT('',(1.373520220839E+04,9.908573013121E+03,
    509.57148044823));
#665 = CARTESIAN_POINT('',(2.877009768404E+04,8.446089973792E+03,
    627.75443077237));
#666 = CARTESIAN_POINT('',(4.186716167484E+04,6.564204602241E+03,
    1.059407077889E+03));
#667 = CARTESIAN_POINT('',(5.679360260694E+04,9.202554430275E+03,
    1.099238692613E+03));
#668 = CARTESIAN_POINT('',(8.044613735536E+04,7.881753261893E+03,
    -360.7093740912));
#669 = CARTESIAN_POINT('',(1.038803398577E+05,8.314506192085E+03,
    2.225775654122E+03));
#670 = CARTESIAN_POINT('',(1.142389273999E+05,8.441409592847E+03,
    -2.430107615025E+03));
#671 = CARTESIAN_POINT('',(1.224704157994E+05,8.02285131128E+03,
    4.46173030355E+03));
#672 = CARTESIAN_POINT('',(1.33209803888E+05,3.150637076641E+03,
    535.8132794241));
#673 = CARTESIAN_POINT('',(1.41E+05,400.,3.9E+03));
#674 = CARTESIAN_POINT('',(0.,7.E+03,2.6E+03));
#675 = CARTESIAN_POINT('',(1.373520220839E+04,1.077547825537E+04,
    1.609571480448E+03));
#676 = CARTESIAN_POINT('',(2.877009768404E+04,4.227338768025E+03,
    1.727754430772E+03));
#677 = CARTESIAN_POINT('',(4.186716167484E+04,1.250036653168E+04,
    2.159407077889E+03));
#678 = CARTESIAN_POINT('',(5.679360260694E+04,6.312113192007E+03,
    2.199238692613E+03));
#679 = CARTESIAN_POINT('',(8.044613735536E+04,9.303005574406E+03,
    739.29062590869));
#680 = CARTESIAN_POINT('',(1.038803398577E+05,7.710116957788E+03,
    3.325775654122E+03));
#681 = CARTESIAN_POINT('',(1.142389273999E+05,8.841863033397E+03,
    -1.330107615025E+03));
#682 = CARTESIAN_POINT('',(1.224704157994E+05,8.61467594611E+03,
    5.56173030355E+03));
#683 = CARTESIAN_POINT('',(1.33209803888E+05,7.866469376201E+03,
    1.635813279424E+03));
#684 = CARTESIAN_POINT('',(1.41E+05,1.E+03,5.E+03));
#685 = DEFINITIONAL_REPRESENTATION('',(#686),#690);
#686 = LINE('',#687,#688);
#687 = CARTESIAN_POINT('',(6.,0.));
#688 = VECTOR('',#689,1.);
#689 = DIRECTION('',(0.,1.));
#690 = ( GEOMETRIC_REPRESENTATION_CONTEXT(2) 
PARAMETRIC_REPRESENTATION_CONTEXT() REPRESENTATION_CONTEXT('2D SPACE',''
  ) );
#691 = ORIENTED_EDGE('',*,*,#692,.F.);
#692 = EDGE_CURVE('',#541,#639,#693,.T.);
#693 = SURFACE_CURVE('',#694,(#697,#704),.PCURVE_S1.);
#694 = B_SPLINE_CURVE_WITH_KNOTS('',1,(#695,#696),.UNSPECIFIED.,.F.,.F.,
  (2,2),(5.,6.),.PIECEWISE_BEZIER_KNOTS.);
#695 = CARTESIAN_POINT('',(1.41E+05,150.,3.8E+03));
#696 = CARTESIAN_POINT('',(1.41E+05,400.,3.9E+03));
#697 = PCURVE('',#564,#698);
#698 = DEFINITIONAL_REPRESENTATION('',(#699),#703);
#699 = LINE('',#700,#701);
#700 = CARTESIAN_POINT('',(0.,1.));
#701 = VECTOR('',#702,1.);
#702 = DIRECTION('',(1.,0.));
#703 = ( GEOMETRIC_REPRESENTATION_CONTEXT(2) 
PARAMETRIC_REPRESENTATION_CONTEXT() REPRESENTATION_CONTEXT('2D SPACE',''
  ) );
#704 = PCURVE('',#159,#705);
#705 = DEFINITIONAL_REPRESENTATION('',(#706),#709);
#706 = B_SPLINE_CURVE_WITH_KNOTS('',1,(#707,#708),.UNSPECIFIED.,.F.,.F.,
  (2,2),(5.,6.),.PIECEWISE_BEZIER_KNOTS.);
#707 = CARTESIAN_POINT('',(2.830409515741E+03,-266.9868408806));
#708 = CARTESIAN_POINT('',(2.865309756379E+03,4.547473508865E-13));
#709 = ( GEOMETRIC_REPRESENTATION_CONTEXT(2) 
PARAMETRIC_REPRESENTATION_CONTEXT() REPRESENTATION_CONTEXT('2D SPACE',''
  ) );
#710 = ORIENTED_EDGE('',*,*,#540,.F.);
#711 = ADVANCED_FACE('',(#712),#662,.T.);
#712 = FACE_BOUND('',#713,.T.);
#713 = EDGE_LOOP('',(#714,#735,#789,#808));
#714 = ORIENTED_EDGE('',*,*,#715,.T.);
#715 = EDGE_CURVE('',#618,#716,#718,.T.);
#716 = VERTEX_POINT('',#717);
#717 = CARTESIAN_POINT('',(0.,7.E+03,2.6E+03));
#718 = SURFACE_CURVE('',#719,(#722,#729),.PCURVE_S1.);
#719 = B_SPLINE_CURVE_WITH_KNOTS('',1,(#720,#721),.UNSPECIFIED.,.F.,.F.,
  (2,2),(6.,7.),.PIECEWISE_BEZIER_KNOTS.);
#720 = CARTESIAN_POINT('',(0.,5.8E+03,1.5E+03));
#721 = CARTESIAN_POINT('',(0.,7.E+03,2.6E+03));
#722 = PCURVE('',#662,#723);
#723 = DEFINITIONAL_REPRESENTATION('',(#724),#728);
#724 = LINE('',#725,#726);
#725 = CARTESIAN_POINT('',(0.,0.));
#726 = VECTOR('',#727,1.);
#727 = DIRECTION('',(1.,0.));
#728 = ( GEOMETRIC_REPRESENTATION_CONTEXT(2) 
PARAMETRIC_REPRESENTATION_CONTEXT() REPRESENTATION_CONTEXT('2D SPACE',''
  ) );
#729 = PCURVE('',#79,#730);
#730 = DEFINITIONAL_REPRESENTATION('',(#731),#734);
#731 = B_SPLINE_CURVE_WITH_KNOTS('',1,(#732,#733),.UNSPECIFIED.,.F.,.F.,
  (2,2),(6.,7.),.PIECEWISE_BEZIER_KNOTS.);
#732 = CARTESIAN_POINT('',(1.334526804705E+04,1.320538054131E+03));
#733 = CARTESIAN_POINT('',(1.429720252357E+04,0.));
#734 = ( GEOMETRIC_REPRESENTATION_CONTEXT(2) 
PARAMETRIC_REPRESENTATION_CONTEXT() REPRESENTATION_CONTEXT('2D SPACE',''
  ) );
#735 = ORIENTED_EDGE('',*,*,#736,.T.);
#736 = EDGE_CURVE('',#716,#737,#739,.T.);
#737 = VERTEX_POINT('',#738);
#738 = CARTESIAN_POINT('',(1.41E+05,1.E+03,5.E+03));
#739 = SURFACE_CURVE('',#740,(#752,#759),.PCURVE_S1.);
#740 = ( BOUNDED_CURVE() B_SPLINE_CURVE(6,(#741,#742,#743,#744,#745,#746
    ,#747,#748,#749,#750,#751),.UNSPECIFIED.,.F.,.F.) 
B_SPLINE_CURVE_WITH_KNOTS((7,4,7),(0.,0.597915872701,1.),.UNSPECIFIED.) 
CURVE() GEOMETRIC_REPRESENTATION_ITEM() RATIONAL_B_SPLINE_CURVE((1.,1.,
1.,1.,1.,1.,1.,1.,1.,1.,1.)) REPRESENTATION_ITEM('') );
#741 = CARTESIAN_POINT('',(0.,7.E+03,2.6E+03));
#742 = CARTESIAN_POINT('',(1.373520220839E+04,1.077547825537E+04,
    1.609571480448E+03));
#743 = CARTESIAN_POINT('',(2.877009768404E+04,4.227338768025E+03,
    1.727754430772E+03));
#744 = CARTESIAN_POINT('',(4.186716167484E+04,1.250036653168E+04,
    2.159407077889E+03));
#745 = CARTESIAN_POINT('',(5.679360260694E+04,6.312113192007E+03,
    2.199238692613E+03));
#746 = CARTESIAN_POINT('',(8.044613735536E+04,9.303005574406E+03,
    739.29062590869));
#747 = CARTESIAN_POINT('',(1.038803398577E+05,7.710116957788E+03,
    3.325775654122E+03));
#748 = CARTESIAN_POINT('',(1.142389273999E+05,8.841863033397E+03,
    -1.330107615025E+03));
#749 = CARTESIAN_POINT('',(1.224704157994E+05,8.61467594611E+03,
    5.56173030355E+03));
#750 = CARTESIAN_POINT('',(1.33209803888E+05,7.866469376201E+03,
    1.635813279424E+03));
#751 = CARTESIAN_POINT('',(1.41E+05,1.E+03,5.E+03));
#752 = PCURVE('',#662,#753);
#753 = DEFINITIONAL_REPRESENTATION('',(#754),#758);
#754 = LINE('',#755,#756);
#755 = CARTESIAN_POINT('',(7.,0.));
#756 = VECTOR('',#757,1.);
#757 = DIRECTION('',(0.,1.));
#758 = ( GEOMETRIC_REPRESENTATION_CONTEXT(2) 
PARAMETRIC_REPRESENTATION_CONTEXT() REPRESENTATION_CONTEXT('2D SPACE',''
  ) );
#759 = PCURVE('',#760,#783);
#760 = ( BOUNDED_SURFACE() B_SPLINE_SURFACE(1,6,(
    (#761,#762,#763,#764,#765,#766,#767,#768,#769,#770,#771)
    ,(#772,#773,#774,#775,#776,#777,#778,#779,#780,#781,#782
)),.UNSPECIFIED.,.F.,.F.,.F.) B_SPLINE_SURFACE_WITH_KNOTS((2,2),(7,4,7),
  (7.,8.),(0.,0.597915872701,1.),.UNSPECIFIED.) 
GEOMETRIC_REPRESENTATION_ITEM() RATIONAL_B_SPLINE_SURFACE((
    (1.,1.,1.,1.,1.,1.,1.,1.,1.,1.,1.)
,(1.,1.,1.,1.,1.,1.,1.,1.,1.,1.,1.
  ))) REPRESENTATION_ITEM('') SURFACE() );
#761 = CARTESIAN_POINT('',(0.,7.E+03,2.6E+03));
#762 = CARTESIAN_POINT('',(1.373520220839E+04,1.077547825537E+04,
    1.609571480448E+03));
#763 = CARTESIAN_POINT('',(2.877009768404E+04,4.227338768025E+03,
    1.727754430772E+03));
#764 = CARTESIAN_POINT('',(4.186716167484E+04,1.250036653168E+04,
    2.159407077889E+03));
#765 = CARTESIAN_POINT('',(5.679360260694E+04,6.312113192007E+03,
    2.199238692613E+03));
#766 = CARTESIAN_POINT('',(8.044613735536E+04,9.303005574406E+03,
    739.29062590869));
#767 = CARTESIAN_POINT('',(1.038803398577E+05,7.710116957788E+03,
    3.325775654122E+03));
#768 = CARTESIAN_POINT('',(1.142389273999E+05,8.841863033397E+03,
    -1.330107615025E+03));
#769 = CARTESIAN_POINT('',(1.224704157994E+05,8.61467594611E+03,
    5.56173030355E+03));
#770 = CARTESIAN_POINT('',(1.33209803888E+05,7.866469376201E+03,
    1.635813279424E+03));
#771 = CARTESIAN_POINT('',(1.41E+05,1.E+03,5.E+03));
#772 = CARTESIAN_POINT('',(0.,7.E+03,5.5E+03));
#773 = CARTESIAN_POINT('',(1.373520220839E+04,1.077547825537E+04,
    5.503553117159E+03));
#774 = CARTESIAN_POINT('',(2.877009768404E+04,4.227338768025E+03,
    5.466936703221E+03));
#775 = CARTESIAN_POINT('',(4.186716167484E+04,1.250036653168E+04,
    5.641728150742E+03));
#776 = CARTESIAN_POINT('',(5.679360260694E+04,6.312113192007E+03,
    5.180250004033E+03));
#777 = CARTESIAN_POINT('',(8.044613735536E+04,9.303005574406E+03,
    6.230242371216E+03));
#778 = CARTESIAN_POINT('',(1.038803398577E+05,7.710116957788E+03,
    4.662457583968E+03));
#779 = CARTESIAN_POINT('',(1.142389273999E+05,8.841863033397E+03,
    7.190977325089E+03));
#780 = CARTESIAN_POINT('',(1.224704157994E+05,8.61467594611E+03,
    4.465152124839E+03));
#781 = CARTESIAN_POINT('',(1.33209803888E+05,7.866469376201E+03,
    6.705018571969E+03));
#782 = CARTESIAN_POINT('',(1.41E+05,1.E+03,6.4E+03));
#783 = DEFINITIONAL_REPRESENTATION('',(#784),#788);
#784 = LINE('',#785,#786);
#785 = CARTESIAN_POINT('',(7.,0.));
#786 = VECTOR('',#787,1.);
#787 = DIRECTION('',(0.,1.));
#788 = ( GEOMETRIC_REPRESENTATION_CONTEXT(2) 
PARAMETRIC_REPRESENTATION_CONTEXT() REPRESENTATION_CONTEXT('2D SPACE',''
  ) );
#789 = ORIENTED_EDGE('',*,*,#790,.F.);
#790 = EDGE_CURVE('',#639,#737,#791,.T.);
#791 = SURFACE_CURVE('',#792,(#795,#802),.PCURVE_S1.);
#792 = B_SPLINE_CURVE_WITH_KNOTS('',1,(#793,#794),.UNSPECIFIED.,.F.,.F.,
  (2,2),(6.,7.),.PIECEWISE_BEZIER_KNOTS.);
#793 = CARTESIAN_POINT('',(1.41E+05,400.,3.9E+03));
#794 = CARTESIAN_POINT('',(1.41E+05,1.E+03,5.E+03));
#795 = PCURVE('',#662,#796);
#796 = DEFINITIONAL_REPRESENTATION('',(#797),#801);
#797 = LINE('',#798,#799);
#798 = CARTESIAN_POINT('',(0.,1.));
#799 = VECTOR('',#800,1.);
#800 = DIRECTION('',(1.,0.));
#801 = ( GEOMETRIC_REPRESENTATION_CONTEXT(2) 
PARAMETRIC_REPRESENTATION_CONTEXT() REPRESENTATION_CONTEXT('2D SPACE',''
  ) );
#802 = PCURVE('',#159,#803);
#803 = DEFINITIONAL_REPRESENTATION('',(#804),#807);
#804 = B_SPLINE_CURVE_WITH_KNOTS('',1,(#805,#806),.UNSPECIFIED.,.F.,.F.,
  (2,2),(6.,7.),.PIECEWISE_BEZIER_KNOTS.);
#805 = CARTESIAN_POINT('',(2.865309756379E+03,4.547473508865E-13));
#806 = CARTESIAN_POINT('',(2.198715160193E+03,1.060967315395E+03));
#807 = ( GEOMETRIC_REPRESENTATION_CONTEXT(2) 
PARAMETRIC_REPRESENTATION_CONTEXT() REPRESENTATION_CONTEXT('2D SPACE',''
  ) );
#808 = ORIENTED_EDGE('',*,*,#638,.F.);
#809 = ADVANCED_FACE('',(#810),#760,.T.);
#810 = FACE_BOUND('',#811,.T.);
#811 = EDGE_LOOP('',(#812,#833,#864,#883));
#812 = ORIENTED_EDGE('',*,*,#813,.T.);
#813 = EDGE_CURVE('',#716,#814,#816,.T.);
#814 = VERTEX_POINT('',#815);
#815 = CARTESIAN_POINT('',(0.,7.E+03,5.5E+03));
#816 = SURFACE_CURVE('',#817,(#820,#827),.PCURVE_S1.);
#817 = B_SPLINE_CURVE_WITH_KNOTS('',1,(#818,#819),.UNSPECIFIED.,.F.,.F.,
  (2,2),(7.,8.),.PIECEWISE_BEZIER_KNOTS.);
#818 = CARTESIAN_POINT('',(0.,7.E+03,2.6E+03));
#819 = CARTESIAN_POINT('',(0.,7.E+03,5.5E+03));
#820 = PCURVE('',#760,#821);
#821 = DEFINITIONAL_REPRESENTATION('',(#822),#826);
#822 = LINE('',#823,#824);
#823 = CARTESIAN_POINT('',(0.,0.));
#824 = VECTOR('',#825,1.);
#825 = DIRECTION('',(1.,0.));
#826 = ( GEOMETRIC_REPRESENTATION_CONTEXT(2) 
PARAMETRIC_REPRESENTATION_CONTEXT() REPRESENTATION_CONTEXT('2D SPACE',''
  ) );
#827 = PCURVE('',#79,#828);
#828 = DEFINITIONAL_REPRESENTATION('',(#829),#832);
#829 = B_SPLINE_CURVE_WITH_KNOTS('',1,(#830,#831),.UNSPECIFIED.,.F.,.F.,
  (2,2),(7.,8.),.PIECEWISE_BEZIER_KNOTS.);
#830 = CARTESIAN_POINT('',(1.429720252357E+04,0.));
#831 = CARTESIAN_POINT('',(1.370897556196E+04,-2.839716366406E+03));
#832 = ( GEOMETRIC_REPRESENTATION_CONTEXT(2) 
PARAMETRIC_REPRESENTATION_CONTEXT() REPRESENTATION_CONTEXT('2D SPACE',''
  ) );
#833 = ORIENTED_EDGE('',*,*,#834,.T.);
#834 = EDGE_CURVE('',#814,#835,#837,.T.);
#835 = VERTEX_POINT('',#836);
#836 = CARTESIAN_POINT('',(1.41E+05,1.E+03,6.4E+03));
#837 = SURFACE_CURVE('',#838,(#850,#857),.PCURVE_S1.);
#838 = ( BOUNDED_CURVE() B_SPLINE_CURVE(6,(#839,#840,#841,#842,#843,#844
    ,#845,#846,#847,#848,#849),.UNSPECIFIED.,.F.,.F.) 
B_SPLINE_CURVE_WITH_KNOTS((7,4,7),(0.,0.597915872701,1.),.UNSPECIFIED.) 
CURVE() GEOMETRIC_REPRESENTATION_ITEM() RATIONAL_B_SPLINE_CURVE((1.,1.,
1.,1.,1.,1.,1.,1.,1.,1.,1.)) REPRESENTATION_ITEM('') );
#839 = CARTESIAN_POINT('',(0.,7.E+03,5.5E+03));
#840 = CARTESIAN_POINT('',(1.373520220839E+04,1.077547825537E+04,
    5.503553117159E+03));
#841 = CARTESIAN_POINT('',(2.877009768404E+04,4.227338768025E+03,
    5.466936703221E+03));
#842 = CARTESIAN_POINT('',(4.186716167484E+04,1.250036653168E+04,
    5.641728150742E+03));
#843 = CARTESIAN_POINT('',(5.679360260694E+04,6.312113192007E+03,
    5.180250004033E+03));
#844 = CARTESIAN_POINT('',(8.044613735536E+04,9.303005574406E+03,
    6.230242371216E+03));
#845 = CARTESIAN_POINT('',(1.038803398577E+05,7.710116957788E+03,
    4.662457583968E+03));
#846 = CARTESIAN_POINT('',(1.142389273999E+05,8.841863033397E+03,
    7.190977325089E+03));
#847 = CARTESIAN_POINT('',(1.224704157994E+05,8.61467594611E+03,
    4.465152124839E+03));
#848 = CARTESIAN_POINT('',(1.33209803888E+05,7.866469376201E+03,
    6.705018571969E+03));
#849 = CARTESIAN_POINT('',(1.41E+05,1.E+03,6.4E+03));
#850 = PCURVE('',#760,#851);
#851 = DEFINITIONAL_REPRESENTATION('',(#852),#856);
#852 = LINE('',#853,#854);
#853 = CARTESIAN_POINT('',(8.,0.));
#854 = VECTOR('',#855,1.);
#855 = DIRECTION('',(0.,1.));
#856 = ( GEOMETRIC_REPRESENTATION_CONTEXT(2) 
PARAMETRIC_REPRESENTATION_CONTEXT() REPRESENTATION_CONTEXT('2D SPACE',''
  ) );
#857 = PCURVE('',#192,#858);
#858 = DEFINITIONAL_REPRESENTATION('',(#859),#863);
#859 = LINE('',#860,#861);
#860 = CARTESIAN_POINT('',(8.,0.));
#861 = VECTOR('',#862,1.);
#862 = DIRECTION('',(0.,1.));
#863 = ( GEOMETRIC_REPRESENTATION_CONTEXT(2) 
PARAMETRIC_REPRESENTATION_CONTEXT() REPRESENTATION_CONTEXT('2D SPACE',''
  ) );
#864 = ORIENTED_EDGE('',*,*,#865,.F.);
#865 = EDGE_CURVE('',#737,#835,#866,.T.);
#866 = SURFACE_CURVE('',#867,(#870,#877),.PCURVE_S1.);
#867 = B_SPLINE_CURVE_WITH_KNOTS('',1,(#868,#869),.UNSPECIFIED.,.F.,.F.,
  (2,2),(7.,8.),.PIECEWISE_BEZIER_KNOTS.);
#868 = CARTESIAN_POINT('',(1.41E+05,1.E+03,5.E+03));
#869 = CARTESIAN_POINT('',(1.41E+05,1.E+03,6.4E+03));
#870 = PCURVE('',#760,#871);
#871 = DEFINITIONAL_REPRESENTATION('',(#872),#876);
#872 = LINE('',#873,#874);
#873 = CARTESIAN_POINT('',(0.,1.));
#874 = VECTOR('',#875,1.);
#875 = DIRECTION('',(1.,0.));
#876 = ( GEOMETRIC_REPRESENTATION_CONTEXT(2) 
PARAMETRIC_REPRESENTATION_CONTEXT() REPRESENTATION_CONTEXT('2D SPACE',''
  ) );
#877 = PCURVE('',#159,#878);
#878 = DEFINITIONAL_REPRESENTATION('',(#879),#882);
#879 = B_SPLINE_CURVE_WITH_KNOTS('',1,(#880,#881),.UNSPECIFIED.,.F.,.F.,
  (2,2),(7.,8.),.PIECEWISE_BEZIER_KNOTS.);
#880 = CARTESIAN_POINT('',(2.198715160193E+03,1.060967315395E+03));
#881 = CARTESIAN_POINT('',(977.20673786368,1.745012031899E+03));
#882 = ( GEOMETRIC_REPRESENTATION_CONTEXT(2) 
PARAMETRIC_REPRESENTATION_CONTEXT() REPRESENTATION_CONTEXT('2D SPACE',''
  ) );
#883 = ORIENTED_EDGE('',*,*,#736,.F.);
#884 = ADVANCED_FACE('',(#885),#192,.T.);
#885 = FACE_BOUND('',#886,.T.);
#886 = EDGE_LOOP('',(#887,#906,#907,#926));
#887 = ORIENTED_EDGE('',*,*,#888,.T.);
#888 = EDGE_CURVE('',#814,#40,#889,.T.);
#889 = SURFACE_CURVE('',#890,(#893,#900),.PCURVE_S1.);
#890 = B_SPLINE_CURVE_WITH_KNOTS('',1,(#891,#892),.UNSPECIFIED.,.F.,.F.,
  (2,2),(8.,9.),.PIECEWISE_BEZIER_KNOTS.);
#891 = CARTESIAN_POINT('',(0.,7.E+03,5.5E+03));
#892 = CARTESIAN_POINT('',(0.,-7.E+03,5.5E+03));
#893 = PCURVE('',#192,#894);
#894 = DEFINITIONAL_REPRESENTATION('',(#895),#899);
#895 = LINE('',#896,#897);
#896 = CARTESIAN_POINT('',(0.,0.));
#897 = VECTOR('',#898,1.);
#898 = DIRECTION('',(1.,0.));
#899 = ( GEOMETRIC_REPRESENTATION_CONTEXT(2) 
PARAMETRIC_REPRESENTATION_CONTEXT() REPRESENTATION_CONTEXT('2D SPACE',''
  ) );
#900 = PCURVE('',#79,#901);
#901 = DEFINITIONAL_REPRESENTATION('',(#902),#905);
#902 = B_SPLINE_CURVE_WITH_KNOTS('',1,(#903,#904),.UNSPECIFIED.,.F.,.F.,
  (2,2),(8.,9.),.PIECEWISE_BEZIER_KNOTS.);
#903 = CARTESIAN_POINT('',(1.370897556196E+04,-2.839716366406E+03));
#904 = CARTESIAN_POINT('',(0.,0.));
#905 = ( GEOMETRIC_REPRESENTATION_CONTEXT(2) 
PARAMETRIC_REPRESENTATION_CONTEXT() REPRESENTATION_CONTEXT('2D SPACE',''
  ) );
#906 = ORIENTED_EDGE('',*,*,#170,.T.);
#907 = ORIENTED_EDGE('',*,*,#908,.F.);
#908 = EDGE_CURVE('',#835,#145,#909,.T.);
#909 = SURFACE_CURVE('',#910,(#913,#920),.PCURVE_S1.);
#910 = B_SPLINE_CURVE_WITH_KNOTS('',1,(#911,#912),.UNSPECIFIED.,.F.,.F.,
  (2,2),(8.,9.),.PIECEWISE_BEZIER_KNOTS.);
#911 = CARTESIAN_POINT('',(1.41E+05,1.E+03,6.4E+03));
#912 = CARTESIAN_POINT('',(1.41E+05,-1.E+03,6.4E+03));
#913 = PCURVE('',#192,#914);
#914 = DEFINITIONAL_REPRESENTATION('',(#915),#919);
#915 = LINE('',#916,#917);
#916 = CARTESIAN_POINT('',(0.,1.));
#917 = VECTOR('',#918,1.);
#918 = DIRECTION('',(1.,0.));
#919 = ( GEOMETRIC_REPRESENTATION_CONTEXT(2) 
PARAMETRIC_REPRESENTATION_CONTEXT() REPRESENTATION_CONTEXT('2D SPACE',''
  ) );
#920 = PCURVE('',#159,#921);
#921 = DEFINITIONAL_REPRESENTATION('',(#922),#925);
#922 = B_SPLINE_CURVE_WITH_KNOTS('',1,(#923,#924),.UNSPECIFIED.,.F.,.F.,
  (2,2),(8.,9.),.PIECEWISE_BEZIER_KNOTS.);
#923 = CARTESIAN_POINT('',(977.20673786368,1.745012031899E+03));
#924 = CARTESIAN_POINT('',(0.,0.));
#925 = ( GEOMETRIC_REPRESENTATION_CONTEXT(2) 
PARAMETRIC_REPRESENTATION_CONTEXT() REPRESENTATION_CONTEXT('2D SPACE',''
  ) );
#926 = ORIENTED_EDGE('',*,*,#834,.F.);
#927 = ADVANCED_FACE('',(#928),#79,.T.);
#928 = FACE_BOUND('',#929,.T.);
#929 = EDGE_LOOP('',(#930,#931,#932,#933,#934,#935,#936,#937,#938));
#930 = ORIENTED_EDGE('',*,*,#39,.F.);
#931 = ORIENTED_EDGE('',*,*,#888,.F.);
#932 = ORIENTED_EDGE('',*,*,#813,.F.);
#933 = ORIENTED_EDGE('',*,*,#715,.F.);
#934 = ORIENTED_EDGE('',*,*,#617,.F.);
#935 = ORIENTED_EDGE('',*,*,#519,.F.);
#936 = ORIENTED_EDGE('',*,*,#421,.F.);
#937 = ORIENTED_EDGE('',*,*,#323,.F.);
#938 = ORIENTED_EDGE('',*,*,#225,.F.);
#939 = ADVANCED_FACE('',(#940),#159,.T.);
#940 = FACE_BOUND('',#941,.T.);
#941 = EDGE_LOOP('',(#942,#943,#944,#945,#946,#947,#948,#949,#950));
#942 = ORIENTED_EDGE('',*,*,#144,.T.);
#943 = ORIENTED_EDGE('',*,*,#300,.T.);
#944 = ORIENTED_EDGE('',*,*,#398,.T.);
#945 = ORIENTED_EDGE('',*,*,#496,.T.);
#946 = ORIENTED_EDGE('',*,*,#594,.T.);
#947 = ORIENTED_EDGE('',*,*,#692,.T.);
#948 = ORIENTED_EDGE('',*,*,#790,.T.);
#949 = ORIENTED_EDGE('',*,*,#865,.T.);
#950 = ORIENTED_EDGE('',*,*,#908,.T.);
#951 = ( GEOMETRIC_REPRESENTATION_CONTEXT(3) 
GLOBAL_UNCERTAINTY_ASSIGNED_CONTEXT((#955)) GLOBAL_UNIT_ASSIGNED_CONTEXT
((#952,#953,#954)) REPRESENTATION_CONTEXT('Context #1',
  '3D Context with UNIT and UNCERTAINTY') );
#952 = ( LENGTH_UNIT() NAMED_UNIT(*) SI_UNIT(.MILLI.,.METRE.) );
#953 = ( NAMED_UNIT(*) PLANE_ANGLE_UNIT() SI_UNIT($,.RADIAN.) );
#954 = ( NAMED_UNIT(*) SI_UNIT($,.STERADIAN.) SOLID_ANGLE_UNIT() );
#955 = UNCERTAINTY_MEASURE_WITH_UNIT(LENGTH_MEASURE(1.E-07),#952,
  'distance_accuracy_value','confusion accuracy');
#956 = CONTEXT_DEPENDENT_SHAPE_REPRESENTATION(#957,#959);
#957 = ( REPRESENTATION_RELATIONSHIP('','',#32,#10) 
REPRESENTATION_RELATIONSHIP_WITH_TRANSFORMATION(#958) 
SHAPE_REPRESENTATION_RELATIONSHIP() );
#958 = ITEM_DEFINED_TRANSFORMATION('','',#11,#15);
#959 = PRODUCT_DEFINITION_SHAPE('Placement','Placement of an item',#960
  );
#960 = NEXT_ASSEMBLY_USAGE_OCCURRENCE('1','=>[0:1:1:2]','',#5,#27,$);
#961 = PRODUCT_RELATED_PRODUCT_CATEGORY('part',$,(#29));
#962 = MECHANICAL_DESIGN_GEOMETRIC_PRESENTATION_REPRESENTATION('',(#963)
  ,#951);
#963 = STYLED_ITEM('color',(#964),#33);
#964 = PRESENTATION_STYLE_ASSIGNMENT((#965));
#965 = SURFACE_STYLE_USAGE(.BOTH.,#966);
#966 = SURFACE_SIDE_STYLE('',(#967));
#967 = SURFACE_STYLE_FILL_AREA(#968);
#968 = FILL_AREA_STYLE('',(#969));
#969 = FILL_AREA_STYLE_COLOUR('',#970);
#970 = COLOUR_RGB('',0.180392183537,0.231372472571,0.278431332948);
ENDSEC;
END-ISO-10303-21;
