  0
SECTION
  2
HEADER
  9
$ACADVER
  1
AC1027
  9
$ACADMAINTVER
 70
105
  9
$DWGCODEPAGE
  3
ANSI_1252
  9
$LASTSAVEDBY
  1
ezdxf
  9
$REQUIREDVERSIONS
160
0
  9
$INSBASE
 10
0.0
 20
0.0
 30
0.0
  9
$EXTMIN
 10
1e+20
 20
1e+20
 30
1e+20
  9
$EXTMAX
 10
-1e+20
 20
-1e+20
 30
-1e+20
  9
$LIMMIN
 10
0.0
 20
0.0
  9
$LIMMAX
 10
420.0
 20
297.0
  9
$ORTHOMODE
 70
0
  9
$REGENMODE
 70
1
  9
$FILLMODE
 70
1
  9
$QTEXTMODE
 70
0
  9
$MIRRTEXT
 70
1
  9
$LTSCALE
 40
1.0
  9
$ATTMODE
 70
1
  9
$TEXTSIZE
 40
2.5
  9
$TRACEWID
 40
1.0
  9
$TEXTSTYLE
  7
OpenSans
  9
$CLAYER
  8
0
  9
$CELTYPE
  6
ByLayer
  9
$CECOLOR
 62
256
  9
$CELTSCALE
 40
1.0
  9
$DISPSILH
 70
0
  9
$DIMSCALE
 40
1.0
  9
$DIMASZ
 40
0.175
  9
$DIMEXO
 40
0.125
  9
$DIMDLI
 40
3.75
  9
$DIMRND
 40
0.0
  9
$DIMDLE
 40
0.0
  9
$DIMEXE
 40
0.375
  9
$DIMTP
 40
0.0
  9
$DIMTM
 40
0.0
  9
$DIMTXT
 40
0.25
  9
$DIMCEN
 40
2.5
  9
$DIMTSZ
 40
0.0
  9
$DIMTOL
 70
0
  9
$DIMLIM
 70
0
  9
$DIMTIH
 70
0
  9
$DIMTOH
 70
0
  9
$DIMSE1
 70
0
  9
$DIMSE2
 70
0
  9
$DIMTAD
 70
1
  9
$DIMZIN
 70
12
  9
$DIMBLK
  1
ARCHTICK
  9
$DIMASO
 70
1
  9
$DIMSHO
 70
1
  9
$DIMPOST
  1

  9
$DIMAPOST
  1

  9
$DIMALT
 70
0
  9
$DIMALTD
 70
3
  9
$DIMALTF
 40
0.03937007874
  9
$DIMLFAC
 40
100.0
  9
$DIMTOFL
 70
1
  9
$DIMTVP
 40
0.0
  9
$DIMTIX
 70
0
  9
$DIMSOXD
 70
0
  9
$DIMSAH
 70
0
  9
$DIMBLK1
  1

  9
$DIMBLK2
  1

  9
$DIMSTYLE
  2
EZDXF
  9
$DIMCLRD
 70
0
  9
$DIMCLRE
 70
0
  9
$DIMCLRT
 70
0
  9
$DIMTFAC
 40
0.5
  9
$DIMGAP
 40
0.1
  9
$DIMJUST
 70
0
  9
$DIMSD1
 70
0
  9
$DIMSD2
 70
0
  9
$DIMTOLJ
 70
0
  9
$DIMTZIN
 70
8
  9
$DIMALTZ
 70
0
  9
$DIMALTTZ
 70
0
  9
$DIMUPT
 70
1
  9
$DIMDEC
 70
2
  9
$DIMTDEC
 70
2
  9
$DIMALTU
 70
2
  9
$DIMALTTD
 70
3
  9
$DIMTXSTY
  7
OpenSansCondensed-Light
  9
$DIMAUNIT
 70
0
  9
$DIMADEC
 70
2
  9
$DIMALTRND
 40
0.0
  9
$DIMAZIN
 70
3
  9
$DIMDSEP
 70
46
  9
$DIMATFIT
 70
3
  9
$DIMFRAC
 70
0
  9
$DIMLDRBLK
  1

  9
$DIMLUNIT
 70
2
  9
$DIMLWD
 70
-2
  9
$DIMLWE
 70
-2
  9
$DIMTMOVE
 70
2
  9
$DIMFXL
 40
1.0
  9
$DIMFXLON
 70
0
  9
$DIMJOGANG
 40
0.785398163397
  9
$DIMTFILL
 70
0
  9
$DIMTFILLCLR
 70
0
  9
$DIMARCSYM
 70
0
  9
$DIMLTYPE
  6

  9
$DIMLTEX1
  6

  9
$DIMLTEX2
  6

  9
$DIMTXTDIRECTION
 70
0
  9
$LUNITS
 70
2
  9
$LUPREC
 70
4
  9
$SKETCHINC
 40
1.0
  9
$FILLETRAD
 40
10.0
  9
$AUNITS
 70
0
  9
$AUPREC
 70
2
  9
$MENU
  1
.
  9
$ELEVATION
 40
0.0
  9
$PELEVATION
 40
0.0
  9
$THICKNESS
 40
0.0
  9
$LIMCHECK
 70
0
  9
$CHAMFERA
 40
0.0
  9
$CHAMFERB
 40
0.0
  9
$CHAMFERC
 40
0.0
  9
$CHAMFERD
 40
0.0
  9
$SKPOLY
 70
0
  9
$TDCREATE
 40
2461306.6147453706
  9
$TDUCREATE
 40
2458532.153996898
  9
$TDUPDATE
 40
2461306.6147453706
  9
$TDUUPDATE
 40
2458532.1544311
  9
$TDINDWG
 40
0.0
  9
$TDUSRTIMER
 40
0.0
  9
$USRTIMER
 70
1
  9
$ANGBASE
 50
0.0
  9
$ANGDIR
 70
0
  9
$PDMODE
 70
0
  9
$PDSIZE
 40
0.0
  9
$PLINEWID
 40
0.0
  9
$SPLFRAME
 70
0
  9
$SPLINETYPE
 70
6
  9
$SPLINESEGS
 70
8
  9
$HANDSEED
  5
13E
  9
$SURFTAB1
 70
6
  9
$SURFTAB2
 70
6
  9
$SURFTYPE
 70
6
  9
$SURFU
 70
6
  9
$SURFV
 70
6
  9
$UCSBASE
  2

  9
$UCSNAME
  2

  9
$UCSORG
 10
0.0
 20
0.0
 30
0.0
  9
$UCSXDIR
 10
1.0
 20
0.0
 30
0.0
  9
$UCSYDIR
 10
0.0
 20
1.0
 30
0.0
  9
$UCSORTHOREF
  2

  9
$UCSORTHOVIEW
 70
0
  9
$UCSORGTOP
 10
0.0
 20
0.0
 30
0.0
  9
$UCSORGBOTTOM
 10
0.0
 20
0.0
 30
0.0
  9
$UCSORGLEFT
 10
0.0
 20
0.0
 30
0.0
  9
$UCSORGRIGHT
 10
0.0
 20
0.0
 30
0.0
  9
$UCSORGFRONT
 10
0.0
 20
0.0
 30
0.0
  9
$UCSORGBACK
 10
0.0
 20
0.0
 30
0.0
  9
$PUCSBASE
  2

  9
$PUCSNAME
  2

  9
$PUCSORG
 10
0.0
 20
0.0
 30
0.0
  9
$PUCSXDIR
 10
1.0
 20
0.0
 30
0.0
  9
$PUCSYDIR
 10
0.0
 20
1.0
 30
0.0
  9
$PUCSORTHOREF
  2

  9
$PUCSORTHOVIEW
 70
0
  9
$PUCSORGTOP
 10
0.0
 20
0.0
 30
0.0
  9
$PUCSORGBOTTOM
 10
0.0
 20
0.0
 30
0.0
  9
$PUCSORGLEFT
 10
0.0
 20
0.0
 30
0.0
  9
$PUCSORGRIGHT
 10
0.0
 20
0.0
 30
0.0
  9
$PUCSORGFRONT
 10
0.0
 20
0.0
 30
0.0
  9
$PUCSORGBACK
 10
0.0
 20
0.0
 30
0.0
  9
$USERI1
 70
0
  9
$USERI2
 70
0
  9
$USERI3
 70
0
  9
$USERI4
 70
0
  9
$USERI5
 70
0
  9
$USERR1
 40
0.0
  9
$USERR2
 40
0.0
  9
$USERR3
 40
0.0
  9
$USERR4
 40
0.0
  9
$USERR5
 40
0.0
  9
$WORLDVIEW
 70
1
  9
$SHADEDGE
 70
3
  9
$SHADEDIF
 70
70
  9
$TILEMODE
 70
1
  9
$MAXACTVP
 70
64
  9
$PINSBASE
 10
0.0
 20
0.0
 30
0.0
  9
$PLIMCHECK
 70
0
  9
$PEXTMIN
 10
1e+20
 20
1e+20
 30
1e+20
  9
$PEXTMAX
 10
-1e+20
 20
-1e+20
 30
-1e+20
  9
$PLIMMIN
 10
0.0
 20
0.0
  9
$PLIMMAX
 10
420.0
 20
297.0
  9
$UNITMODE
 70
0
  9
$VISRETAIN
 70
1
  9
$PLINEGEN
 70
0
  9
$PSLTSCALE
 70
1
  9
$TREEDEPTH
 70
3020
  9
$CMLSTYLE
  2
Standard
  9
$CMLJUST
 70
0
  9
$CMLSCALE
 40
20.0
  9
$PROXYGRAPHICS
 70
1
  9
$MEASUREMENT
 70
1
  9
$CELWEIGHT
370
-1
  9
$ENDCAPS
280
0
  9
$JOINSTYLE
280
0
  9
$LWDISPLAY
290
0
  9
$INSUNITS
 70
4
  9
$HYPERLINKBASE
  1

  9
$STYLESHEET
  1

  9
$XEDIT
290
1
  9
$CEPSNTYPE
380
0
  9
$PSTYLEMODE
290
1
  9
$FINGERPRINTGUID
  2
{C1EE668B-5CB2-42DB-8941-01377BCC8DF2}
  9
$VERSIONGUID
  2
{46D2CF1B-45F3-4D0F-8A10-F7B5210BB3C6}
  9
$EXTNAMES
290
1
  9
$PSVPSCALE
 40
0.0
  9
$OLESTARTUP
290
0
  9
$SORTENTS
280
127
  9
$INDEXCTL
280
0
  9
$HIDETEXT
280
1
  9
$XCLIPFRAME
280
1
  9
$HALOGAP
280
0
  9
$OBSCOLOR
 70
257
  9
$OBSLTYPE
280
0
  9
$INTERSECTIONDISPLAY
280
0
  9
$INTERSECTIONCOLOR
 70
257
  9
$DIMASSOC
280
2
  9
$PROJECTNAME
  1

  9
$CAMERADISPLAY
290
0
  9
$LENSLENGTH
 40
50.0
  9
$CAMERAHEIGHT
 40
0.0
  9
$STEPSPERSEC
 40
24.0
  9
$STEPSIZE
 40
100.0
  9
$3DDWFPREC
 40
2.0
  9
$PSOLWIDTH
 40
0.005
  9
$PSOLHEIGHT
 40
0.08
  9
$LOFTANG1
 40
1.570796326795
  9
$LOFTANG2
 40
1.570796326795
  9
$LOFTMAG1
 40
0.0
  9
$LOFTMAG2
 40
0.0
  9
$LOFTPARAM
 70
7
  9
$LOFTNORMALS
280
1
  9
$LATITUDE
 40
37.795
  9
$LONGITUDE
 40
-122.394
  9
$NORTHDIRECTION
 40
0.0
  9
$TIMEZONE
 70
-8000
  9
$LIGHTGLYPHDISPLAY
280
1
  9
$TILEMODELIGHTSYNCH
280
1
  9
$CMATERIAL
347
20
  9
$SOLIDHIST
280
0
  9
$SHOWHIST
280
1
  9
$DWFFRAME
280
2
  9
$DGNFRAME
280
2
  9
$REALWORLDSCALE
290
1
  9
$INTERFERECOLOR
 62
256
  9
$CSHADOW
280
0
  9
$SHADOWPLANELOCATION
 40
0.0
  0
ENDSEC
  0
SECTION
  2
CLASSES
  0
CLASS
  1
ACDBDICTIONARYWDFLT
  2
AcDbDictionaryWithDefault
  3
ObjectDBX Classes
 90
0
 91
0
280
0
281
0
  0
CLASS
  1
SUN
  2
AcDbSun
  3
SCENEOE
 90
1153
 91
0
280
0
281
0
  0
CLASS
  1
VISUALSTYLE
  2
AcDbVisualStyle
  3
ObjectDBX Classes
 90
4095
 91
0
280
0
281
0
  0
CLASS
  1
MATERIAL
  2
AcDbMaterial
  3
ObjectDBX Classes
 90
1153
 91
0
280
0
281
0
  0
CLASS
  1
SCALE
  2
AcDbScale
  3
ObjectDBX Classes
 90
1153
 91
0
280
0
281
0
  0
CLASS
  1
TABLESTYLE
  2
AcDbTableStyle
  3
ObjectDBX Classes
 90
4095
 91
0
280
0
281
0
  0
CLASS
  1
MLEADERSTYLE
  2
AcDbMLeaderStyle
  3
ACDB_MLEADERSTYLE_CLASS
 90
4095
 91
0
280
0
281
0
  0
CLASS
  1
DICTIONARYVAR
  2
AcDbDictionaryVar
  3
ObjectDBX Classes
 90
0
 91
0
280
0
281
0
  0
CLASS
  1
CELLSTYLEMAP
  2
AcDbCellStyleMap
  3
ObjectDBX Classes
 90
1152
 91
0
280
0
281
0
  0
CLASS
  1
MENTALRAYRENDERSETTINGS
  2
AcDbMentalRayRenderSettings
  3
SCENEOE
 90
1024
 91
0
280
0
281
0
  0
CLASS
  1
ACDBDETAILVIEWSTYLE
  2
AcDbDetailViewStyle
  3
ObjectDBX Classes
 90
1025
 91
0
280
0
281
0
  0
CLASS
  1
ACDBSECTIONVIEWSTYLE
  2
AcDbSectionViewStyle
  3
ObjectDBX Classes
 90
1025
 91
0
280
0
281
0
  0
CLASS
  1
RASTERVARIABLES
  2
AcDbRasterVariables
  3
ISM
 90
0
 91
0
280
0
281
0
  0
CLASS
  1
LAYOUT
  2
AcDbLayout
  3
ObjectDBX Classes
 90
0
 91
0
280
0
281
0
  0
CLASS
  1
ACDBPLACEHOLDER
  2
AcDbPlaceHolder
  3
ObjectDBX Classes
 90
0
 91
0
280
0
281
0
  0
ENDSEC
  0
SECTION
  2
TABLES
  0
TABLE
  2
VPORT
  5
8
330
0
100
AcDbSymbolTable
 70
1
  0
VPORT
  5
23
330
8
100
AcDbSymbolTableRecord
100
AcDbViewportTableRecord
  2
*Active
 70
0
 10
0.0
 20
0.0
 11
1.0
 21
1.0
 12
0.0
 22
0.0
 13
0.0
 23
0.0
 14
0.5
 24
0.5
 15
0.5
 25
0.5
 16
0.0
 26
0.0
 36
1.0
 17
0.0
 27
0.0
 37
0.0
 40
1000.0
 41
1.34
 42
50.0
 43
0.0
 44
0.0
 50
0.0
 51
0.0
 71
0
 72
1000
 73
1
 74
3
 75
0
 76
0
 77
0
 78
0
281
0
 65
0
146
0.0
  0
ENDTAB
  0
TABLE
  2
LTYPE
  5
2
330
0
100
AcDbSymbolTable
 70
21
  0
LTYPE
  5
24
330
2
100
AcDbSymbolTableRecord
100
AcDbLinetypeTableRecord
  2
ByBlock
 70
0
  3

 72
65
 73
0
 40
0.0
  0
LTYPE
  5
25
330
2
100
AcDbSymbolTableRecord
100
AcDbLinetypeTableRecord
  2
ByLayer
 70
0
  3

 72
65
 73
0
 40
0.0
  0
LTYPE
  5
26
330
2
100
AcDbSymbolTableRecord
100
AcDbLinetypeTableRecord
  2
Continuous
 70
0
  3

 72
65
 73
0
 40
0.0
  0
LTYPE
  5
2F
330
2
100
AcDbSymbolTableRecord
100
AcDbLinetypeTableRecord
  2
CENTER
 70
0
  3
Center ____ _ ____ _ ____ _ ____ _ ____ _ ____
 72
65
 73
4
 40
5.08
 49
3.175
 74
0
 49
-0.635
 74
0
 49
0.635
 74
0
 49
-0.635
 74
0
  0
LTYPE
  5
30
330
2
100
AcDbSymbolTableRecord
100
AcDbLinetypeTableRecord
  2
CENTERX2
 70
0
  3
Center (2x) ________  __  ________  __  ________
 72
65
 73
4
 40
8.89
 49
6.35
 74
0
 49
-0.635
 74
0
 49
1.27
 74
0
 49
-0.635
 74
0
  0
LTYPE
  5
31
330
2
100
AcDbSymbolTableRecord
100
AcDbLinetypeTableRecord
  2
CENTER2
 70
0
  3
Center (.5x) ____ _ ____ _ ____ _ ____ _ ____
 72
65
 73
4
 40
2.54
 49
1.587
 74
0
 49
-0.318
 74
0
 49
0.318
 74
0
 49
-0.318
 74
0
  0
LTYPE
  5
32
330
2
100
AcDbSymbolTableRecord
100
AcDbLinetypeTableRecord
  2
DASHED
 70
0
  3
Dashed __ __ __ __ __ __ __ __ __ __ __ __ __ _
 72
65
 73
2
 40
1.524
 49
1.27
 74
0
 49
-0.254
 74
0
  0
LTYPE
  5
33
330
2
100
AcDbSymbolTableRecord
100
AcDbLinetypeTableRecord
  2
DASHEDX2
 70
0
  3
Dashed (2x) ____  ____  ____  ____  ____  ____
 72
65
 73
2
 40
3.048
 49
2.54
 74
0
 49
-0.508
 74
0
  0
LTYPE
  5
34
330
2
100
AcDbSymbolTableRecord
100
AcDbLinetypeTableRecord
  2
DASHED2
 70
0
  3
Dashed (.5x) _ _ _ _ _ _ _ _ _ _ _ _ _ _
 72
65
 73
2
 40
0.762
 49
0.635
 74
0
 49
-0.127
 74
0
  0
LTYPE
  5
35
330
2
100
AcDbSymbolTableRecord
100
AcDbLinetypeTableRecord
  2
PHANTOM
 70
0
  3
Phantom ______  __  __  ______  __  __  ______
 72
65
 73
6
 40
6.35
 49
3.175
 74
0
 49
-0.635
 74
0
 49
0.635
 74
0
 49
-0.635
 74
0
 49
0.635
 74
0
 49
-0.635
 74
0
  0
LTYPE
  5
36
330
2
100
AcDbSymbolTableRecord
100
AcDbLinetypeTableRecord
  2
PHANTOMX2
 70
0
  3
Phantom (2x)____________    ____    ____    ____________
 72
65
 73
6
 40
10.795
 49
6.35
 74
0
 49
-0.635
 74
0
 49
1.27
 74
0
 49
-0.635
 74
0
 49
1.27
 74
0
 49
-0.635
 74
0
  0
LTYPE
  5
37
330
2
100
AcDbSymbolTableRecord
100
AcDbLinetypeTableRecord
  2
PHANTOM2
 70
0
  3
Phantom (.5x) ___ _ _ ___ _ _ ___ _ _ ___ _ _ ___
 72
65
 73
6
 40
3.175
 49
1.587
 74
0
 49
-0.318
 74
0
 49
0.318
 74
0
 49
-0.318
 74
0
 49
0.318
 74
0
 49
-0.318
 74
0
  0
LTYPE
  5
38
330
2
100
AcDbSymbolTableRecord
100
AcDbLinetypeTableRecord
  2
DASHDOT
 70
0
  3
Dash dot __ . __ . __ . __ . __ . __ . __ . __
 72
65
 73
4
 40
3.556
 49
2.54
 74
0
 49
-0.508
 74
0
 49
0.0
 74
0
 49
-0.508
 74
0
  0
LTYPE
  5
39
330
2
100
AcDbSymbolTableRecord
100
AcDbLinetypeTableRecord
  2
DASHDOTX2
 70
0
  3
Dash dot (2x) ____  .  ____  .  ____  .  ____
 72
65
 73
4
 40
6.096
 49
5.08
 74
0
 49
-0.508
 74
0
 49
0.0
 74
0
 49
-0.508
 74
0
  0
LTYPE
  5
3A
330
2
100
AcDbSymbolTableRecord
100
AcDbLinetypeTableRecord
  2
DASHDOT2
 70
0
  3
Dash dot (.5x) _ . _ . _ . _ . _ . _ . _ . _
 72
65
 73
4
 40
1.778
 49
1.27
 74
0
 49
-0.254
 74
0
 49
0.0
 74
0
 49
-0.254
 74
0
  0
LTYPE
  5
3B
330
2
100
AcDbSymbolTableRecord
100
AcDbLinetypeTableRecord
  2
DOT
 70
0
  3
Dot .  .  .  .  .  .  .  .  .  .  .  .  .  .  .  .
 72
65
 73
2
 40
0.508
 49
0.0
 74
0
 49
-0.508
 74
0
  0
LTYPE
  5
3C
330
2
100
AcDbSymbolTableRecord
100
AcDbLinetypeTableRecord
  2
DOTX2
 70
0
  3
Dot (2x) .    .    .    .    .    .    .    . 
 72
65
 73
2
 40
1.016
 49
0.0
 74
0
 49
-1.016
 74
0
  0
LTYPE
  5
3D
330
2
100
AcDbSymbolTableRecord
100
AcDbLinetypeTableRecord
  2
DOT2
 70
0
  3
Dot (.5) . . . . . . . . . . . . . . . . . . . 
 72
65
 73
2
 40
0.254
 49
0.0
 74
0
 49
-0.254
 74
0
  0
LTYPE
  5
3E
330
2
100
AcDbSymbolTableRecord
100
AcDbLinetypeTableRecord
  2
DIVIDE
 70
0
  3
Divide __ . . __ . . __ . . __ . . __ . . __
 72
65
 73
6
 40
4.064
 49
2.54
 74
0
 49
-0.508
 74
0
 49
0.0
 74
0
 49
-0.508
 74
0
 49
0.0
 74
0
 49
-0.508
 74
0
  0
LTYPE
  5
3F
330
2
100
AcDbSymbolTableRecord
100
AcDbLinetypeTableRecord
  2
DIVIDEX2
 70
0
  3
Divide (2x) ____  . .  ____  . .  ____  . .  ____
 72
65
 73
6
 40
6.604
 49
5.08
 74
0
 49
-0.508
 74
0
 49
0.0
 74
0
 49
-0.508
 74
0
 49
0.0
 74
0
 49
-0.508
 74
0
  0
LTYPE
  5
40
330
2
100
AcDbSymbolTableRecord
100
AcDbLinetypeTableRecord
  2
DIVIDE2
 70
0
  3
Divide(.5x) _ . _ . _ . _ . _ . _ . _ . _
 72
65
 73
6
 40
2.032
 49
1.27
 74
0
 49
-0.254
 74
0
 49
0.0
 74
0
 49
-0.254
 74
0
 49
0.0
 74
0
 49
-0.254
 74
0
  0
ENDTAB
  0
TABLE
  2
LAYER
  5
1
330
0
100
AcDbSymbolTable
 70
10
  0
LAYER
  5
27
330
1
100
AcDbSymbolTableRecord
100
AcDbLayerTableRecord
  2
0
 70
0
 62
7
  6
Continuous
370
-3
390
13
347
21
  0
LAYER
  5
28
330
1
100
AcDbSymbolTableRecord
100
AcDbLayerTableRecord
  2
Defpoints
 70
0
 62
7
  6
Continuous
290
0
370
-3
390
13
347
21
  0
LAYER
  5
8A
330
1
100
AcDbSymbolTableRecord
100
AcDbLayerTableRecord
  2
00_РАМКА
 70
0
 62
7
  6
Continuous
370
-3
390
13
347
21
  0
LAYER
  5
8B
330
1
100
AcDbSymbolTableRecord
100
AcDbLayerTableRecord
  2
01_ЛИНИИ
 70
0
 62
7
  6
Continuous
370
-3
390
13
347
21
  0
LAYER
  5
8C
330
1
100
AcDbSymbolTableRecord
100
AcDbLayerTableRecord
  2
02_ОСИ
 70
0
 62
8
  6
Continuous
370
-3
390
13
347
21
  0
LAYER
  5
8D
330
1
100
AcDbSymbolTableRecord
100
AcDbLayerTableRecord
  2
03_СЕТКА
 70
0
 62
9
  6
Continuous
370
-3
390
13
347
21
  0
LAYER
  5
8E
330
1
100
AcDbSymbolTableRecord
100
AcDbLayerTableRecord
  2
04_ТЕКСТ
 70
0
 62
7
  6
Continuous
370
-3
390
13
347
21
  0
LAYER
  5
8F
330
1
100
AcDbSymbolTableRecord
100
AcDbLayerTableRecord
  2
05_ЗАЛИВКА
 70
0
 62
8
  6
Continuous
370
-3
390
13
347
21
  0
LAYER
  5
90
330
1
100
AcDbSymbolTableRecord
100
AcDbLayerTableRecord
  2
06_ТАБЛИЦА
 70
0
 62
7
  6
Continuous
370
-3
390
13
347
21
  0
LAYER
  5
91
330
1
100
AcDbSymbolTableRecord
100
AcDbLayerTableRecord
  2
07_ЛЕГЕНДА
 70
0
 62
8
  6
Continuous
370
-3
390
13
347
21
  0
ENDTAB
  0
TABLE
  2
STYLE
  5
5
330
0
100
AcDbSymbolTable
 70
27
  0
STYLE
  5
29
330
5
100
AcDbSymbolTableRecord
100
AcDbTextStyleTableRecord
  2
Standard
 70
0
 40
0.0
 41
1.0
 50
0.0
 71
0
 42
2.5
  3
txt
  4

  0
STYLE
  5
41
330
5
100
AcDbSymbolTableRecord
100
AcDbTextStyleTableRecord
  2
OpenSans-Light
 70
0
 40
0.0
 41
1.0
 50
0.0
 71
0
 42
2.5
  3
OpenSans-Light.ttf
  4

  0
STYLE
  5
42
330
5
100
AcDbSymbolTableRecord
100
AcDbTextStyleTableRecord
  2
OpenSans-Light-Italic
 70
0
 40
0.0
 41
1.0
 50
0.0
 71
0
 42
2.5
  3
OpenSans-LightItalic.ttf
  4

  0
STYLE
  5
43
330
5
100
AcDbSymbolTableRecord
100
AcDbTextStyleTableRecord
  2
OpenSans
 70
0
 40
0.0
 41
1.0
 50
0.0
 71
0
 42
2.5
  3
OpenSans-Regular.ttf
  4

  0
STYLE
  5
44
330
5
100
AcDbSymbolTableRecord
100
AcDbTextStyleTableRecord
  2
OpenSans-Italic
 70
0
 40
0.0
 41
1.0
 50
0.0
 71
0
 42
2.5
  3
OpenSans-Italic.ttf
  4

  0
STYLE
  5
45
330
5
100
AcDbSymbolTableRecord
100
AcDbTextStyleTableRecord
  2
OpenSans-SemiBold
 70
0
 40
0.0
 41
1.0
 50
0.0
 71
0
 42
2.5
  3
OpenSans-SemiBold.ttf
  4

  0
STYLE
  5
46
330
5
100
AcDbSymbolTableRecord
100
AcDbTextStyleTableRecord
  2
OpenSans-SemiBoldItalic
 70
0
 40
0.0
 41
1.0
 50
0.0
 71
0
 42
2.5
  3
OpenSans-SemiBoldItalic.ttf
  4

  0
STYLE
  5
47
330
5
100
AcDbSymbolTableRecord
100
AcDbTextStyleTableRecord
  2
OpenSans-Bold
 70
0
 40
0.0
 41
1.0
 50
0.0
 71
0
 42
2.5
  3
OpenSans-Bold.ttf
  4

  0
STYLE
  5
48
330
5
100
AcDbSymbolTableRecord
100
AcDbTextStyleTableRecord
  2
OpenSans-BoldItalic
 70
0
 40
0.0
 41
1.0
 50
0.0
 71
0
 42
2.5
  3
OpenSans-BoldItalic.ttf
  4

  0
STYLE
  5
49
330
5
100
AcDbSymbolTableRecord
100
AcDbTextStyleTableRecord
  2
OpenSans-ExtraBold
 70
0
 40
0.0
 41
1.0
 50
0.0
 71
0
 42
2.5
  3
OpenSans-ExtraBold.ttf
  4

  0
STYLE
  5
4A
330
5
100
AcDbSymbolTableRecord
100
AcDbTextStyleTableRecord
  2
OpenSans-ExtraBoldItalic
 70
0
 40
0.0
 41
1.0
 50
0.0
 71
0
 42
2.5
  3
OpenSans-ExtraBoldItalic.ttf
  4

  0
STYLE
  5
4B
330
5
100
AcDbSymbolTableRecord
100
AcDbTextStyleTableRecord
  2
OpenSansCondensed-Bold
 70
0
 40
0.0
 41
1.0
 50
0.0
 71
0
 42
2.5
  3
OpenSansCondensed-Bold.ttf
  4

  0
STYLE
  5
4C
330
5
100
AcDbSymbolTableRecord
100
AcDbTextStyleTableRecord
  2
OpenSansCondensed-Light
 70
0
 40
0.0
 41
1.0
 50
0.0
 71
0
 42
2.5
  3
OpenSansCondensed-Light.ttf
  4

  0
STYLE
  5
4D
330
5
100
AcDbSymbolTableRecord
100
AcDbTextStyleTableRecord
  2
OpenSansCondensed-Italic
 70
0
 40
0.0
 41
1.0
 50
0.0
 71
0
 42
2.5
  3
OpenSansCondensed-LightItalic.ttf
  4

  0
STYLE
  5
4E
330
5
100
AcDbSymbolTableRecord
100
AcDbTextStyleTableRecord
  2
LiberationSans
 70
0
 40
0.0
 41
1.0
 50
0.0
 71
0
 42
2.5
  3
LiberationSans-Regular.ttf
  4

  0
STYLE
  5
4F
330
5
100
AcDbSymbolTableRecord
100
AcDbTextStyleTableRecord
  2
LiberationSans-Bold
 70
0
 40
0.0
 41
1.0
 50
0.0
 71
0
 42
2.5
  3
LiberationSans-Bold.ttf
  4

  0
STYLE
  5
50
330
5
100
AcDbSymbolTableRecord
100
AcDbTextStyleTableRecord
  2
LiberationSans-BoldItalic
 70
0
 40
0.0
 41
1.0
 50
0.0
 71
0
 42
2.5
  3
LiberationSans-BoldItalic.ttf
  4

  0
STYLE
  5
51
330
5
100
AcDbSymbolTableRecord
100
AcDbTextStyleTableRecord
  2
LiberationSans-Italic
 70
0
 40
0.0
 41
1.0
 50
0.0
 71
0
 42
2.5
  3
LiberationSans-Italic.ttf
  4

  0
STYLE
  5
52
330
5
100
AcDbSymbolTableRecord
100
AcDbTextStyleTableRecord
  2
LiberationSerif
 70
0
 40
0.0
 41
1.0
 50
0.0
 71
0
 42
2.5
  3
LiberationSerif-Regular.ttf
  4

  0
STYLE
  5
53
330
5
100
AcDbSymbolTableRecord
100
AcDbTextStyleTableRecord
  2
LiberationSerif-Bold
 70
0
 40
0.0
 41
1.0
 50
0.0
 71
0
 42
2.5
  3
LiberationSerif-Bold.ttf
  4

  0
STYLE
  5
54
330
5
100
AcDbSymbolTableRecord
100
AcDbTextStyleTableRecord
  2
LiberationSerif-BoldItalic
 70
0
 40
0.0
 41
1.0
 50
0.0
 71
0
 42
2.5
  3
LiberationSerif-BoldItalic.ttf
  4

  0
STYLE
  5
55
330
5
100
AcDbSymbolTableRecord
100
AcDbTextStyleTableRecord
  2
LiberationSerif-Italic
 70
0
 40
0.0
 41
1.0
 50
0.0
 71
0
 42
2.5
  3
LiberationSerif-Italic.ttf
  4

  0
STYLE
  5
56
330
5
100
AcDbSymbolTableRecord
100
AcDbTextStyleTableRecord
  2
LiberationMono
 70
0
 40
0.0
 41
1.0
 50
0.0
 71
0
 42
2.5
  3
LiberationMono-Regular.ttf
  4

  0
STYLE
  5
57
330
5
100
AcDbSymbolTableRecord
100
AcDbTextStyleTableRecord
  2
LiberationMono-Bold
 70
0
 40
0.0
 41
1.0
 50
0.0
 71
0
 42
2.5
  3
LiberationMono-Bold.ttf
  4

  0
STYLE
  5
58
330
5
100
AcDbSymbolTableRecord
100
AcDbTextStyleTableRecord
  2
LiberationMono-BoldItalic
 70
0
 40
0.0
 41
1.0
 50
0.0
 71
0
 42
2.5
  3
LiberationMono-BoldItalic.ttf
  4

  0
STYLE
  5
59
330
5
100
AcDbSymbolTableRecord
100
AcDbTextStyleTableRecord
  2
LiberationMono-Italic
 70
0
 40
0.0
 41
1.0
 50
0.0
 71
0
 42
2.5
  3
LiberationMono-Italic.ttf
  4

  0
STYLE
  5
92
330
5
100
AcDbSymbolTableRecord
100
AcDbTextStyleTableRecord
  2
ГОСТ
 70
0
 40
0.0
 41
1.0
 50
0.0
 71
0
 42
2.5
  3
ISOCPEUR.TTF
  4

  0
ENDTAB
  0
TABLE
  2
VIEW
  5
7
330
0
100
AcDbSymbolTable
 70
0
  0
ENDTAB
  0
TABLE
  2
UCS
  5
6
330
0
100
AcDbSymbolTable
 70
0
  0
ENDTAB
  0
TABLE
  2
APPID
  5
3
330
0
100
AcDbSymbolTable
 70
3
  0
APPID
  5
2A
330
3
100
AcDbSymbolTableRecord
100
AcDbRegAppTableRecord
  2
ACAD
 70
0
  0
APPID
  5
13B
330
3
100
AcDbSymbolTableRecord
100
AcDbRegAppTableRecord
  2
HATCHBACKGROUNDCOLOR
 70
0
  0
APPID
  5
13C
330
3
100
AcDbSymbolTableRecord
100
AcDbRegAppTableRecord
  2
EZDXF
 70
0
  0
ENDTAB
  0
TABLE
  2
DIMSTYLE
  5
4
330
0
100
AcDbSymbolTable
 70
12
100
AcDbDimStyleTable
  0
DIMSTYLE
105
2B
330
4
100
AcDbSymbolTableRecord
100
AcDbDimStyleTableRecord
  2
Standard
 70
0
 40
1.0
 41
2.5
 42
0.625
 43
3.75
 44
1.25
 45
0.0
 46
0.0
 47
0.0
 48
0.0
 49
2.5
140
2.5
141
2.5
142
0.0
143
0.03937007874
144
1.0
145
0.0
146
1.0
147
0.625
148
0.0
 69
0
 70
0
 71
0
 72
0
 73
0
 74
0
 75
0
 76
0
 77
1
 78
8
 79
3
170
0
171
3
172
1
173
0
174
0
175
0
176
0
177
0
178
0
179
2
271
2
272
2
273
2
274
3
275
0
276
0
277
2
278
44
279
0
280
0
281
0
282
0
283
0
284
8
285
0
286
0
288
0
289
3
290
0
371
-2
372
-2
  0
DIMSTYLE
105
73
330
4
100
AcDbSymbolTableRecord
100
AcDbDimStyleTableRecord
  2
EZDXF
 70
0
 40
1.0
 41
0.175
 42
0.125
 43
3.75
 44
0.375
 45
0.0
 46
0.0
 47
0.0
 48
0.0
 49
2.5
140
0.25
141
2.5
142
0.0
143
0.03937007874
144
100.0
145
0.0
146
0.5
147
0.1
148
0.0
 69
0
 70
0
 71
0
 72
0
 73
0
 74
0
 75
0
 76
0
 77
1
 78
12
 79
3
170
0
171
3
172
1
173
0
174
0
175
0
176
0
177
0
178
0
179
2
271
2
272
2
273
2
274
3
275
0
276
0
277
2
278
46
279
2
280
0
281
0
282
0
283
0
284
8
285
0
286
0
288
1
289
3
290
0
340
4C
342
74
371
-2
372
-2
  0
DIMSTYLE
105
7C
330
4
100
AcDbSymbolTableRecord
100
AcDbDimStyleTableRecord
  2
EZ_M_100_H25_CM
 70
0
 40
1.0
 41
0.25
 42
0.125
 43
3.75
 44
0.375
 45
0.0
 46
0.0
 47
0.0
 48
0.0
 49
2.5
140
0.25
141
2.5
142
0.125
143
0.03937007874
144
100.0
145
0.0
146
0.5
147
0.1
148
0.0
 69
0
 70
0
 71
0
 72
0
 73
0
 74
0
 75
0
 76
0
 77
1
 78
12
 79
3
170
0
171
3
172
1
173
0
174
0
175
0
176
0
177
0
178
0
179
2
271
2
272
2
273
2
274
3
275
0
276
0
277
2
278
46
279
2
280
0
281
0
282
0
283
0
284
8
285
0
286
0
288
1
289
3
290
0
340
4C
371
-2
372
-2
  0
DIMSTYLE
105
7D
330
4
100
AcDbSymbolTableRecord
100
AcDbDimStyleTableRecord
  2
EZ_M_50_H25_CM
 70
0
 40
1.0
 41
0.125
 42
0.0625
 43
3.75
 44
0.1875
 45
0.0
 46
0.0
 47
0.0
 48
0.0
 49
2.5
140
0.125
141
2.5
142
0.0625
143
0.03937007874
144
100.0
145
0.0
146
0.5
147
0.05
148
0.0
 69
0
 70
0
 71
0
 72
0
 73
0
 74
0
 75
0
 76
0
 77
1
 78
12
 79
3
170
0
171
3
172
1
173
0
174
0
175
0
176
0
177
0
178
0
179
2
271
2
272
2
273
2
274
3
275
0
276
0
277
2
278
46
279
2
280
0
281
0
282
0
283
0
284
8
285
0
286
0
288
1
289
3
290
0
340
4C
371
-2
372
-2
  0
DIMSTYLE
105
7E
330
4
100
AcDbSymbolTableRecord
100
AcDbDimStyleTableRecord
  2
EZ_M_25_H25_CM
 70
0
 40
1.0
 41
0.0625
 42
0.03125
 43
3.75
 44
0.09375
 45
0.0
 46
0.0
 47
0.0
 48
0.0
 49
2.5
140
0.0625
141
2.5
142
0.03125
143
0.03937007874
144
100.0
145
0.0
146
0.5
147
0.025
148
0.0
 69
0
 70
0
 71
0
 72
0
 73
0
 74
0
 75
0
 76
0
 77
1
 78
12
 79
3
170
0
171
3
172
1
173
0
174
0
175
0
176
0
177
0
178
0
179
2
271
2
272
2
273
2
274
3
275
0
276
0
277
2
278
46
279
2
280
0
281
0
282
0
283
0
284
8
285
0
286
0
288
1
289
3
290
0
340
4C
371
-2
372
-2
  0
DIMSTYLE
105
7F
330
4
100
AcDbSymbolTableRecord
100
AcDbDimStyleTableRecord
  2
EZ_M_20_H25_CM
 70
0
 40
1.0
 41
0.05
 42
0.025
 43
3.75
 44
0.07500000000000001
 45
0.0
 46
0.0
 47
0.0
 48
0.0
 49
2.5
140
0.05
141
2.5
142
0.025
143
0.03937007874
144
100.0
145
0.0
146
0.5
147
0.020000000000000004
148
0.0
 69
0
 70
0
 71
0
 72
0
 73
0
 74
0
 75
0
 76
0
 77
1
 78
12
 79
3
170
0
171
3
172
1
173
0
174
0
175
0
176
0
177
0
178
0
179
2
271
2
272
2
273
2
274
3
275
0
276
0
277
2
278
46
279
2
280
0
281
0
282
0
283
0
284
8
285
0
286
0
288
1
289
3
290
0
340
4C
371
-2
372
-2
  0
DIMSTYLE
105
80
330
4
100
AcDbSymbolTableRecord
100
AcDbDimStyleTableRecord
  2
EZ_M_10_H25_CM
 70
0
 40
1.0
 41
0.025
 42
0.0125
 43
3.75
 44
0.037500000000000006
 45
0.0
 46
0.0
 47
0.0
 48
0.0
 49
2.5
140
0.025
141
2.5
142
0.0125
143
0.03937007874
144
100.0
145
0.0
146
0.5
147
0.010000000000000002
148
0.0
 69
0
 70
0
 71
0
 72
0
 73
0
 74
0
 75
0
 76
0
 77
1
 78
12
 79
3
170
0
171
3
172
1
173
0
174
0
175
0
176
0
177
0
178
0
179
2
271
2
272
2
273
2
274
3
275
0
276
0
277
2
278
46
279
2
280
0
281
0
282
0
283
0
284
8
285
0
286
0
288
1
289
3
290
0
340
4C
371
-2
372
-2
  0
DIMSTYLE
105
81
330
4
100
AcDbSymbolTableRecord
100
AcDbDimStyleTableRecord
  2
EZ_M_5_H25_CM
 70
0
 40
1.0
 41
0.0125
 42
0.00625
 43
3.75
 44
0.018750000000000003
 45
0.0
 46
0.0
 47
0.0
 48
0.0
 49
2.5
140
0.0125
141
2.5
142
0.00625
143
0.03937007874
144
100.0
145
0.0
146
0.5
147
0.005000000000000001
148
0.0
 69
0
 70
0
 71
0
 72
0
 73
0
 74
0
 75
0
 76
0
 77
1
 78
12
 79
3
170
0
171
3
172
1
173
0
174
0
175
0
176
0
177
0
178
0
179
2
271
2
272
2
273
2
274
3
275
0
276
0
277
2
278
46
279
2
280
0
281
0
282
0
283
0
284
8
285
0
286
0
288
1
289
3
290
0
340
4C
371
-2
372
-2
  0
DIMSTYLE
105
82
330
4
100
AcDbSymbolTableRecord
100
AcDbDimStyleTableRecord
  2
EZ_M_1_H25_CM
 70
0
 40
1.0
 41
0.0025
 42
0.00125
 43
3.75
 44
0.00375
 45
0.0
 46
0.0
 47
0.0
 48
0.0
 49
2.5
140
0.0025
141
2.5
142
0.00125
143
0.03937007874
144
100.0
145
0.0
146
0.5
147
0.001
148
0.0
 69
0
 70
0
 71
0
 72
0
 73
0
 74
0
 75
0
 76
0
 77
1
 78
12
 79
3
170
0
171
3
172
1
173
0
174
0
175
0
176
0
177
0
178
0
179
2
271
2
272
2
273
2
274
3
275
0
276
0
277
2
278
46
279
2
280
0
281
0
282
0
283
0
284
8
285
0
286
0
288
1
289
3
290
0
340
4C
371
-2
372
-2
  0
DIMSTYLE
105
83
330
4
100
AcDbSymbolTableRecord
100
AcDbDimStyleTableRecord
  2
EZ_RADIUS
 70
0
 40
1.0
 41
0.25
 42
0.125
 43
3.75
 44
0.375
 45
0.0
 46
0.0
 47
0.0
 48
0.0
 49
2.5
140
0.25
141
0.0
142
0.0
143
0.03937007874
144
100.0
145
0.0
146
0.5
147
0.1
148
0.0
 69
0
 70
0
 71
0
 72
0
 73
0
 74
0
 75
0
 76
0
 77
1
 78
12
 79
3
170
0
171
3
172
0
173
0
174
0
175
0
176
0
177
0
178
0
179
2
271
2
272
2
273
2
274
3
275
0
276
0
277
2
278
46
279
1
280
0
281
0
282
0
283
0
284
8
285
0
286
0
288
1
289
3
290
0
340
4C
342
84
371
-2
372
-2
  0
DIMSTYLE
105
88
330
4
100
AcDbSymbolTableRecord
100
AcDbDimStyleTableRecord
  2
EZ_RADIUS_INSIDE
 70
0
 40
1.0
 41
0.25
 42
0.125
 43
3.75
 44
0.375
 45
0.0
 46
0.0
 47
0.0
 48
0.0
 49
2.5
140
0.25
141
0.0
142
0.0
143
0.03937007874
144
100.0
145
0.0
146
0.5
147
0.1
148
0.0
 69
0
 70
0
 71
0
 72
0
 73
0
 74
0
 75
0
 76
0
 77
0
 78
12
 79
3
170
0
171
3
172
0
173
0
174
1
175
0
176
0
177
0
178
0
179
2
271
2
272
2
273
2
274
3
275
0
276
0
277
2
278
46
279
0
280
0
281
0
282
0
283
0
284
8
285
0
286
0
288
1
289
0
290
0
340
4C
342
84
371
-2
372
-2
  0
DIMSTYLE
105
89
330
4
100
AcDbSymbolTableRecord
100
AcDbDimStyleTableRecord
  2
EZ_CURVED
 70
0
 40
1.0
 41
0.25
 42
0.125
 43
3.75
 44
0.375
 45
0.0
 46
0.0
 47
0.0
 48
0.0
 49
2.5
140
0.25
141
2.5
142
0.0
143
0.03937007874
144
100.0
145
0.0
146
0.5
147
0.1
148
0.0
 69
0
 70
0
 71
0
 72
0
 73
0
 74
0
 75
0
 76
0
 77
1
 78
12
 79
2
 90
2
170
0
171
3
172
1
173
0
174
0
175
0
176
0
177
0
178
0
179
2
271
2
272
2
273
2
274
3
275
0
276
0
277
2
278
46
279
2
280
0
281
0
282
0
283
0
284
8
285
0
286
0
288
1
289
3
290
0
340
4C
371
-2
372
-2
  0
ENDTAB
  0
TABLE
  2
BLOCK_RECORD
  5
9
330
0
100
AcDbSymbolTable
 70
5
  0
BLOCK_RECORD
  5
17
330
9
100
AcDbSymbolTableRecord
100
AcDbBlockTableRecord
  2
*Model_Space
340
1A
 70
0
280
1
281
0
  0
BLOCK_RECORD
  5
1B
330
9
100
AcDbSymbolTableRecord
100
AcDbBlockTableRecord
  2
*Paper_Space
340
1E
 70
0
280
1
281
0
  0
BLOCK_RECORD
  5
74
330
9
100
AcDbSymbolTableRecord
100
AcDbBlockTableRecord
  2
_ARCHTICK
340
0
 70
0
280
1
281
0
  0
BLOCK_RECORD
  5
78
330
9
100
AcDbSymbolTableRecord
100
AcDbBlockTableRecord
  2
_CLOSEDFILLED
340
0
 70
0
280
1
281
0
  0
BLOCK_RECORD
  5
84
330
9
100
AcDbSymbolTableRecord
100
AcDbBlockTableRecord
  2
_CLOSEDBLANK
340
0
 70
0
280
1
281
0
  0
ENDTAB
  0
ENDSEC
  0
SECTION
  2
BLOCKS
  0
BLOCK
  5
18
330
17
100
AcDbEntity
  8
0
100
AcDbBlockBegin
  2
*Model_Space
 70
0
 10
0.0
 20
0.0
 30
0.0
  3
*Model_Space
  1

  0
ENDBLK
  5
19
330
17
100
AcDbEntity
  8
0
100
AcDbBlockEnd
  0
BLOCK
  5
1C
330
1B
100
AcDbEntity
  8
0
100
AcDbBlockBegin
  2
*Paper_Space
 70
0
 10
0.0
 20
0.0
 30
0.0
  3
*Paper_Space
  1

  0
ENDBLK
  5
1D
330
1B
100
AcDbEntity
  8
0
100
AcDbBlockEnd
  0
BLOCK
  5
75
330
74
100
AcDbEntity
  8
0
100
AcDbBlockBegin
  2
_ARCHTICK
 70
0
 10
0.0
 20
0.0
 30
0.0
  3
_ARCHTICK
  1

  0
LWPOLYLINE
  5
77
330
74
100
AcDbEntity
  8
0
  6
BYBLOCK
 62
0
100
AcDbPolyline
 90
2
 70
0
 43
0.15
 10
-0.5
 20
-0.5
 10
0.5
 20
0.5
  0
ENDBLK
  5
76
330
74
100
AcDbEntity
  8
0
100
AcDbBlockEnd
  0
BLOCK
  5
79
330
78
100
AcDbEntity
  8
0
100
AcDbBlockBegin
  2
_CLOSEDFILLED
 70
0
 10
0.0
 20
0.0
 30
0.0
  3
_CLOSEDFILLED
  1

  0
SOLID
  5
7B
330
78
100
AcDbEntity
  8
0
  6
BYBLOCK
 62
0
100
AcDbTrace
 10
-1.0
 20
0.16439898372402537
 30
0.0
 11
0.0
 21
0.0
 31
0.0
 12
-1.0
 22
-0.16439898372402537
 32
0.0
 13
-1.0
 23
-0.16439898372402537
 33
0.0
  0
ENDBLK
  5
7A
330
78
100
AcDbEntity
  8
0
100
AcDbBlockEnd
  0
BLOCK
  5
85
330
84
100
AcDbEntity
  8
0
100
AcDbBlockBegin
  2
_CLOSEDBLANK
 70
0
 10
0.0
 20
0.0
 30
0.0
  3
_CLOSEDBLANK
  1

  0
LWPOLYLINE
  5
87
330
84
100
AcDbEntity
  8
0
  6
BYBLOCK
 62
0
100
AcDbPolyline
 90
3
 70
1
 10
-1.0
 20
0.16439898372402537
 10
0.0
 20
0.0
 10
-1.0
 20
-0.16439898372402537
  0
ENDBLK
  5
86
330
84
100
AcDbEntity
  8
0
100
AcDbBlockEnd
  0
ENDSEC
  0
SECTION
  2
ENTITIES
  0
LWPOLYLINE
  5
93
330
17
100
AcDbEntity
  8
00_РАМКА
100
AcDbPolyline
 90
4
 70
1
 10
0.0
 20
0.0
 10
393.7
 20
0.0
 10
393.7
 20
187.96
 10
0.0
 20
187.96
  0
LWPOLYLINE
  5
94
330
17
100
AcDbEntity
  8
03_СЕТКА
370
25
420
14212581
100
AcDbPolyline
 90
2
 70
0
 10
43.268652597402586
 20
94.2386605504587
 10
43.268652597402586
 20
159.766
  0
LWPOLYLINE
  5
95
330
17
100
AcDbEntity
  8
03_СЕТКА
370
25
420
14212581
100
AcDbPolyline
 90
2
 70
0
 10
63.08147727272727
 20
94.2386605504587
 10
63.08147727272727
 20
159.766
  0
LWPOLYLINE
  5
96
330
17
100
AcDbEntity
  8
03_СЕТКА
370
25
420
14212581
100
AcDbPolyline
 90
2
 70
0
 10
82.89430194805195
 20
94.2386605504587
 10
82.89430194805195
 20
159.766
  0
LWPOLYLINE
  5
97
330
17
100
AcDbEntity
  8
03_СЕТКА
370
25
420
14212581
100
AcDbPolyline
 90
2
 70
0
 10
102.70712662337662
 20
94.2386605504587
 10
102.70712662337662
 20
159.766
  0
LWPOLYLINE
  5
98
330
17
100
AcDbEntity
  8
03_СЕТКА
370
25
420
14212581
100
AcDbPolyline
 90
2
 70
0
 10
122.51995129870132
 20
94.2386605504587
 10
122.51995129870132
 20
159.766
  0
LWPOLYLINE
  5
99
330
17
100
AcDbEntity
  8
03_СЕТКА
370
25
420
14212581
100
AcDbPolyline
 90
2
 70
0
 10
142.33277597402596
 20
94.2386605504587
 10
142.33277597402596
 20
159.766
  0
LWPOLYLINE
  5
9A
330
17
100
AcDbEntity
  8
03_СЕТКА
370
25
420
14212581
100
AcDbPolyline
 90
2
 70
0
 10
162.14560064935065
 20
94.2386605504587
 10
162.14560064935065
 20
159.766
  0
LWPOLYLINE
  5
9B
330
17
100
AcDbEntity
  8
03_СЕТКА
370
25
420
14212581
100
AcDbPolyline
 90
2
 70
0
 10
181.95842532467535
 20
94.2386605504587
 10
181.95842532467535
 20
159.766
  0
LWPOLYLINE
  5
9C
330
17
100
AcDbEntity
  8
03_СЕТКА
370
25
420
14212581
100
AcDbPolyline
 90
2
 70
0
 10
201.77125000000004
 20
94.2386605504587
 10
201.77125000000004
 20
159.766
  0
LWPOLYLINE
  5
9D
330
17
100
AcDbEntity
  8
03_СЕТКА
370
25
420
14212581
100
AcDbPolyline
 90
2
 70
0
 10
221.58407467532467
 20
94.2386605504587
 10
221.58407467532467
 20
159.766
  0
LWPOLYLINE
  5
9E
330
17
100
AcDbEntity
  8
03_СЕТКА
370
25
420
14212581
100
AcDbPolyline
 90
2
 70
0
 10
241.39689935064936
 20
94.2386605504587
 10
241.39689935064936
 20
159.766
  0
LWPOLYLINE
  5
9F
330
17
100
AcDbEntity
  8
03_СЕТКА
370
25
420
14212581
100
AcDbPolyline
 90
2
 70
0
 10
261.209724025974
 20
94.2386605504587
 10
261.209724025974
 20
159.766
  0
LWPOLYLINE
  5
A0
330
17
100
AcDbEntity
  8
03_СЕТКА
370
25
420
14212581
100
AcDbPolyline
 90
2
 70
0
 10
281.0225487012987
 20
94.2386605504587
 10
281.0225487012987
 20
159.766
  0
LWPOLYLINE
  5
A1
330
17
100
AcDbEntity
  8
03_СЕТКА
370
25
420
14212581
100
AcDbPolyline
 90
2
 70
0
 10
300.8353733766234
 20
94.2386605504587
 10
300.8353733766234
 20
159.766
  0
LWPOLYLINE
  5
A2
330
17
100
AcDbEntity
  8
03_СЕТКА
370
25
420
14212581
100
AcDbPolyline
 90
2
 70
0
 10
320.64819805194804
 20
94.2386605504587
 10
320.64819805194804
 20
159.766
  0
LWPOLYLINE
  5
A3
330
17
100
AcDbEntity
  8
03_СЕТКА
370
25
420
14212581
100
AcDbPolyline
 90
2
 70
0
 10
340.46102272727273
 20
94.2386605504587
 10
340.46102272727273
 20
159.766
  0
LWPOLYLINE
  5
A4
330
17
100
AcDbEntity
  8
03_СЕТКА
370
25
420
14212581
100
AcDbPolyline
 90
2
 70
0
 10
360.2738474025974
 20
94.2386605504587
 10
360.2738474025974
 20
159.766
  0
LWPOLYLINE
  5
A5
330
17
100
AcDbEntity
  8
03_СЕТКА
370
25
420
14212581
100
AcDbPolyline
 90
2
 70
0
 10
49.2125
 20
89.8714399627774
 10
354.33
 20
89.8714399627774
  0
LWPOLYLINE
  5
A6
330
17
100
AcDbEntity
  8
03_СЕТКА
370
25
420
14212581
100
AcDbPolyline
 90
2
 70
0
 10
49.2125
 20
97.21717597998331
 10
354.33
 20
97.21717597998331
  0
LWPOLYLINE
  5
A7
330
17
100
AcDbEntity
  8
03_СЕТКА
370
25
420
14212581
100
AcDbPolyline
 90
2
 70
0
 10
49.2125
 20
104.56291199718923
 10
354.33
 20
104.56291199718923
  0
LWPOLYLINE
  5
A8
330
17
100
AcDbEntity
  8
03_СЕТКА
370
25
420
14212581
100
AcDbPolyline
 90
2
 70
0
 10
49.2125
 20
111.90864801439515
 10
354.33
 20
111.90864801439515
  0
LWPOLYLINE
  5
A9
330
17
100
AcDbEntity
  8
03_СЕТКА
370
25
420
14212581
100
AcDbPolyline
 90
2
 70
0
 10
49.2125
 20
119.25438403160108
 10
354.33
 20
119.25438403160108
  0
LWPOLYLINE
  5
AA
330
17
100
AcDbEntity
  8
03_СЕТКА
370
25
420
14212581
100
AcDbPolyline
 90
2
 70
0
 10
49.2125
 20
126.600120048807
 10
354.33
 20
126.600120048807
  0
LWPOLYLINE
  5
AB
330
17
100
AcDbEntity
  8
03_СЕТКА
370
25
420
14212581
100
AcDbPolyline
 90
2
 70
0
 10
49.2125
 20
133.9458560660129
 10
354.33
 20
133.9458560660129
  0
LWPOLYLINE
  5
AC
330
17
100
AcDbEntity
  8
03_СЕТКА
370
25
420
14212581
100
AcDbPolyline
 90
2
 70
0
 10
49.2125
 20
141.29159208321883
 10
354.33
 20
141.29159208321883
  0
LWPOLYLINE
  5
AD
330
17
100
AcDbEntity
  8
03_СЕТКА
370
25
420
14212581
100
AcDbPolyline
 90
2
 70
0
 10
49.2125
 20
148.63732810042475
 10
354.33
 20
148.63732810042475
  0
LWPOLYLINE
  5
AE
330
17
100
AcDbEntity
  8
03_СЕТКА
370
25
420
14212581
100
AcDbPolyline
 90
2
 70
0
 10
49.2125
 20
155.98306411763065
 10
354.33
 20
155.98306411763065
  0
LWPOLYLINE
  5
AF
330
17
100
AcDbEntity
  8
03_СЕТКА
370
25
420
14212581
100
AcDbPolyline
 90
2
 70
0
 10
49.2125
 20
163.3288001348366
 10
354.33
 20
163.3288001348366
  0
LWPOLYLINE
  5
B0
330
17
100
AcDbEntity
  8
02_ОСИ
370
30
420
3819096
100
AcDbPolyline
 90
2
 70
1
 10
49.2125
 20
94.2386605504587
 10
49.2125
 20
159.766
  0
LWPOLYLINE
  5
B1
330
17
100
AcDbEntity
  8
02_ОСИ
370
30
420
3819096
100
AcDbPolyline
 90
2
 70
1
 10
354.33
 20
94.2386605504587
 10
354.33
 20
159.766
  0
LWPOLYLINE
  5
B2
330
17
100
AcDbEntity
  8
02_ОСИ
370
30
420
3819096
100
AcDbPolyline
 90
2
 70
1
 10
49.2125
 20
94.2386605504587
 10
354.33000000000004
 20
94.2386605504587
  0
LWPOLYLINE
  5
B3
330
17
100
AcDbEntity
  8
02_ОСИ
370
30
420
3819096
100
AcDbPolyline
 90
2
 70
1
 10
49.2125
 20
159.766
 10
354.33000000000004
 20
159.766
  0
LINE
  5
B4
330
17
100
AcDbEntity
  8
02_ОСИ
100
AcDbLine
 10
63.08147727272727
 20
94.2386605504587
 30
0.0
 11
63.08147727272727
 21
93.00393832823649
 31
0.0
  0
LINE
  5
B5
330
17
100
AcDbEntity
  8
02_ОСИ
100
AcDbLine
 10
82.89430194805195
 20
94.2386605504587
 30
0.0
 11
82.89430194805195
 21
93.00393832823649
 31
0.0
  0
LINE
  5
B6
330
17
100
AcDbEntity
  8
02_ОСИ
100
AcDbLine
 10
102.70712662337662
 20
94.2386605504587
 30
0.0
 11
102.70712662337662
 21
93.00393832823649
 31
0.0
  0
LINE
  5
B7
330
17
100
AcDbEntity
  8
02_ОСИ
100
AcDbLine
 10
122.51995129870132
 20
94.2386605504587
 30
0.0
 11
122.51995129870132
 21
93.00393832823649
 31
0.0
  0
LINE
  5
B8
330
17
100
AcDbEntity
  8
02_ОСИ
100
AcDbLine
 10
142.33277597402596
 20
94.2386605504587
 30
0.0
 11
142.33277597402596
 21
93.00393832823649
 31
0.0
  0
LINE
  5
B9
330
17
100
AcDbEntity
  8
02_ОСИ
100
AcDbLine
 10
162.14560064935065
 20
94.2386605504587
 30
0.0
 11
162.14560064935065
 21
93.00393832823649
 31
0.0
  0
LINE
  5
BA
330
17
100
AcDbEntity
  8
02_ОСИ
100
AcDbLine
 10
181.95842532467535
 20
94.2386605504587
 30
0.0
 11
181.95842532467535
 21
93.00393832823649
 31
0.0
  0
LINE
  5
BB
330
17
100
AcDbEntity
  8
02_ОСИ
100
AcDbLine
 10
201.77125000000004
 20
94.2386605504587
 30
0.0
 11
201.77125000000004
 21
93.00393832823649
 31
0.0
  0
LINE
  5
BC
330
17
100
AcDbEntity
  8
02_ОСИ
100
AcDbLine
 10
221.58407467532467
 20
94.2386605504587
 30
0.0
 11
221.58407467532467
 21
93.00393832823649
 31
0.0
  0
LINE
  5
BD
330
17
100
AcDbEntity
  8
02_ОСИ
100
AcDbLine
 10
241.39689935064936
 20
94.2386605504587
 30
0.0
 11
241.39689935064936
 21
93.00393832823649
 31
0.0
  0
LINE
  5
BE
330
17
100
AcDbEntity
  8
02_ОСИ
100
AcDbLine
 10
261.209724025974
 20
94.2386605504587
 30
0.0
 11
261.209724025974
 21
93.00393832823649
 31
0.0
  0
LINE
  5
BF
330
17
100
AcDbEntity
  8
02_ОСИ
100
AcDbLine
 10
281.0225487012987
 20
94.2386605504587
 30
0.0
 11
281.0225487012987
 21
93.00393832823649
 31
0.0
  0
LINE
  5
C0
330
17
100
AcDbEntity
  8
02_ОСИ
100
AcDbLine
 10
300.8353733766234
 20
94.2386605504587
 30
0.0
 11
300.8353733766234
 21
93.00393832823649
 31
0.0
  0
LINE
  5
C1
330
17
100
AcDbEntity
  8
02_ОСИ
100
AcDbLine
 10
320.64819805194804
 20
94.2386605504587
 30
0.0
 11
320.64819805194804
 21
93.00393832823649
 31
0.0
  0
LINE
  5
C2
330
17
100
AcDbEntity
  8
02_ОСИ
100
AcDbLine
 10
340.46102272727273
 20
94.2386605504587
 30
0.0
 11
340.46102272727273
 21
93.00393832823649
 31
0.0
  0
TEXT
  5
C3
330
17
100
AcDbEntity
  8
02_ОСИ
420
5661306
100
AcDbText
 10
42.80605555555555
 20
89.4900678924649
 30
0.0
 40
2.2859999999999996
  1
−2.5
  7
ГОСТ
 72
1
 11
42.80605555555555
 21
89.4900678924649
 31
0.0
100
AcDbText
 73
2
  0
LINE
  5
C4
330
17
100
AcDbEntity
  8
02_ОСИ
100
AcDbLine
 10
49.2125
 20
97.21717597998331
 30
0.0
 11
47.977777777777774
 21
97.21717597998331
 31
0.0
  0
TEXT
  5
C5
330
17
100
AcDbEntity
  8
02_ОСИ
420
5661306
100
AcDbText
 10
44.20305555555555
 20
96.83580390967082
 30
0.0
 40
2.2859999999999996
  1
0.0
  7
ГОСТ
 72
1
 11
44.20305555555555
 21
96.83580390967082
 31
0.0
100
AcDbText
 73
2
  0
LINE
  5
C6
330
17
100
AcDbEntity
  8
02_ОСИ
100
AcDbLine
 10
49.2125
 20
104.56291199718923
 30
0.0
 11
47.977777777777774
 21
104.56291199718923
 31
0.0
  0
TEXT
  5
C7
330
17
100
AcDbEntity
  8
02_ОСИ
420
5661306
100
AcDbText
 10
44.20305555555555
 20
104.18153992687672
 30
0.0
 40
2.2859999999999996
  1
2.5
  7
ГОСТ
 72
1
 11
44.20305555555555
 21
104.18153992687672
 31
0.0
100
AcDbText
 73
2
  0
LINE
  5
C8
330
17
100
AcDbEntity
  8
02_ОСИ
100
AcDbLine
 10
49.2125
 20
111.90864801439515
 30
0.0
 11
47.977777777777774
 21
111.90864801439515
 31
0.0
  0
TEXT
  5
C9
330
17
100
AcDbEntity
  8
02_ОСИ
420
5661306
100
AcDbText
 10
44.20305555555555
 20
111.52727594408265
 30
0.0
 40
2.2859999999999996
  1
5.0
  7
ГОСТ
 72
1
 11
44.20305555555555
 21
111.52727594408265
 31
0.0
100
AcDbText
 73
2
  0
LINE
  5
CA
330
17
100
AcDbEntity
  8
02_ОСИ
100
AcDbLine
 10
49.2125
 20
119.25438403160108
 30
0.0
 11
47.977777777777774
 21
119.25438403160108
 31
0.0
  0
TEXT
  5
CB
330
17
100
AcDbEntity
  8
02_ОСИ
420
5661306
100
AcDbText
 10
44.20305555555555
 20
118.87301196128857
 30
0.0
 40
2.2859999999999996
  1
7.5
  7
ГОСТ
 72
1
 11
44.20305555555555
 21
118.87301196128857
 31
0.0
100
AcDbText
 73
2
  0
LINE
  5
CC
330
17
100
AcDbEntity
  8
02_ОСИ
100
AcDbLine
 10
49.2125
 20
126.600120048807
 30
0.0
 11
47.977777777777774
 21
126.600120048807
 31
0.0
  0
TEXT
  5
CD
330
17
100
AcDbEntity
  8
02_ОСИ
420
5661306
100
AcDbText
 10
43.18705555555555
 20
126.21874797849449
 30
0.0
 40
2.2859999999999996
  1
10.0
  7
ГОСТ
 72
1
 11
43.18705555555555
 21
126.21874797849449
 31
0.0
100
AcDbText
 73
2
  0
LINE
  5
CE
330
17
100
AcDbEntity
  8
02_ОСИ
100
AcDbLine
 10
49.2125
 20
133.9458560660129
 30
0.0
 11
47.977777777777774
 21
133.9458560660129
 31
0.0
  0
TEXT
  5
CF
330
17
100
AcDbEntity
  8
02_ОСИ
420
5661306
100
AcDbText
 10
43.18705555555555
 20
133.56448399570039
 30
0.0
 40
2.2859999999999996
  1
12.5
  7
ГОСТ
 72
1
 11
43.18705555555555
 21
133.56448399570039
 31
0.0
100
AcDbText
 73
2
  0
LINE
  5
D0
330
17
100
AcDbEntity
  8
02_ОСИ
100
AcDbLine
 10
49.2125
 20
141.29159208321883
 30
0.0
 11
47.977777777777774
 21
141.29159208321883
 31
0.0
  0
TEXT
  5
D1
330
17
100
AcDbEntity
  8
02_ОСИ
420
5661306
100
AcDbText
 10
43.18705555555555
 20
140.9102200129063
 30
0.0
 40
2.2859999999999996
  1
15.0
  7
ГОСТ
 72
1
 11
43.18705555555555
 21
140.9102200129063
 31
0.0
100
AcDbText
 73
2
  0
LINE
  5
D2
330
17
100
AcDbEntity
  8
02_ОСИ
100
AcDbLine
 10
49.2125
 20
148.63732810042475
 30
0.0
 11
47.977777777777774
 21
148.63732810042475
 31
0.0
  0
TEXT
  5
D3
330
17
100
AcDbEntity
  8
02_ОСИ
420
5661306
100
AcDbText
 10
43.18705555555555
 20
148.25595603011223
 30
0.0
 40
2.2859999999999996
  1
17.5
  7
ГОСТ
 72
1
 11
43.18705555555555
 21
148.25595603011223
 31
0.0
100
AcDbText
 73
2
  0
LINE
  5
D4
330
17
100
AcDbEntity
  8
02_ОСИ
100
AcDbLine
 10
49.2125
 20
155.98306411763065
 30
0.0
 11
47.977777777777774
 21
155.98306411763065
 31
0.0
  0
TEXT
  5
D5
330
17
100
AcDbEntity
  8
02_ОСИ
420
5661306
100
AcDbText
 10
43.18705555555555
 20
155.60169204731815
 30
0.0
 40
2.2859999999999996
  1
20.0
  7
ГОСТ
 72
1
 11
43.18705555555555
 21
155.60169204731815
 31
0.0
100
AcDbText
 73
2
  0
TEXT
  5
D6
330
17
100
AcDbEntity
  8
02_ОСИ
420
5661306
100
AcDbText
 10
43.18705555555555
 20
162.9474280645241
 30
0.0
 40
2.2859999999999996
  1
22.5
  7
ГОСТ
 72
1
 11
43.18705555555555
 21
162.9474280645241
 31
0.0
100
AcDbText
 73
2
  0
TEXT
  5
D7
330
17
100
AcDbEntity
  8
02_ОСИ
420
1712948
100
AcDbText
 10
36.441572374131944
 20
127.00233027522935
 30
0.0
 40
2.2859999999999996
  1
omega(x), кв.м
 50
90.0
  7
ГОСТ
 72
1
 11
36.441572374131944
 21
127.00233027522935
 31
0.0
100
AcDbText
 73
2
  0
TEXT
  5
D8
330
17
100
AcDbEntity
  8
04_ТЕКСТ
420
1712948
100
AcDbText
 10
102.0445
 20
162.871794921875
 30
0.0
 40
2.54
  1
Строевая по шпангоутам при T = 1.26 м, V = 2378 куб.м
  7
ГОСТ
 72
1
 11
102.0445
 21
162.871794921875
 31
0.0
100
AcDbText
 73
2
  0
LWPOLYLINE
  5
D9
330
17
100
AcDbEntity
  8
01_ЛИНИИ
370
70
420
1858698
100
AcDbPolyline
 90
141
 70
0
 10
63.08147727272727
 20
104.70443040657045
 10
65.06275974025974
 20
107.77138695714866
 10
67.04404220779222
 20
111.07686277232683
 10
69.02532467532467
 20
114.56028120199663
 10
71.00660714285713
 20
117.84977245262898
 10
72.9878896103896
 20
121.1508416080117
 10
74.96917207792207
 20
124.40045411015254
 10
76.95045454545453
 20
127.53655028809452
 10
78.93173701298701
 20
130.77299385499057
 10
80.91301948051947
 20
133.87368726824394
 10
82.89430194805195
 20
136.84145421933
 10
84.87558441558441
 20
139.78697072470703
 10
86.85686688311688
 20
142.64025846591056
 10
88.83814935064935
 20
145.2694920352796
 10
90.81943181818181
 20
147.46961087724657
 10
92.80071428571429
 20
149.32586289296248
 10
94.78199675324674
 20
151.1884525576707
 10
96.76327922077921
 20
152.94330398370565
 10
98.74456168831169
 20
154.48018533175983
 10
100.72584415584416
 20
155.69766030336652
 10
102.70712662337662
 20
156.4986989568707
 10
104.68840909090908
 20
156.78748457047539
 10
106.66969155844154
 20
156.78748457047539
 10
108.65097402597402
 20
156.78748457047539
 10
110.63225649350649
 20
156.78748457047539
 10
112.61353896103897
 20
156.78748457047539
 10
114.59482142857144
 20
156.78748457047539
 10
116.57610389610389
 20
156.78748457047539
 10
118.55738636363637
 20
156.78748457047539
 10
120.53866883116883
 20
156.78748457047539
 10
122.51995129870132
 20
156.78748457047539
 10
124.50123376623377
 20
156.78748457047539
 10
126.48251623376622
 20
156.78748457047539
 10
128.4637987012987
 20
156.78748457047539
 10
130.44508116883117
 20
156.78748457047539
 10
132.42636363636365
 20
156.78748457047539
 10
134.4076461038961
 20
156.78748457047539
 10
136.38892857142858
 20
156.78748457047539
 10
138.37021103896103
 20
156.78748457047539
 10
140.3514935064935
 20
156.78748457047539
 10
142.33277597402596
 20
156.78748457047539
 10
144.31405844155844
 20
156.78748457047539
 10
146.2953409090909
 20
156.78748457047539
 10
148.27662337662338
 20
156.78748457047539
 10
150.25790584415583
 20
156.78748457047539
 10
152.23918831168834
 20
156.78748457047539
 10
154.22047077922076
 20
156.78748457047539
 10
156.20175324675324
 20
156.78748457047539
 10
158.18303571428572
 20
156.78748457047539
 10
160.1643181818182
 20
156.78748457047539
 10
162.14560064935065
 20
156.78748457047539
 10
164.1268831168831
 20
156.78748457047539
 10
166.1081655844156
 20
156.78748457047539
 10
168.08944805194804
 20
156.78748457047539
 10
170.07073051948052
 20
156.78748457047539
 10
172.05201298701297
 20
156.78748457047539
 10
174.03329545454545
 20
156.78748457047539
 10
176.0145779220779
 20
156.78748457047539
 10
177.99586038961039
 20
156.78748457047539
 10
179.97714285714284
 20
156.78748457047539
 10
181.95842532467535
 20
156.78748457047539
 10
183.9397077922078
 20
147.7766083800749
 10
185.92099025974025
 20
134.23011049958248
 10
187.9022727272727
 20
132.6548259188814
 10
189.8835551948052
 20
132.6548259188814
 10
191.86483766233766
 20
132.6548259188814
 10
193.84612012987014
 20
132.6548259188814
 10
195.8274025974026
 20
132.6548259188814
 10
197.80868506493508
 20
132.6548259188814
 10
199.78996753246753
 20
132.6548259188814
 10
201.77125000000004
 20
134.23011049958248
 10
203.7525324675325
 20
147.7766083800749
 10
205.7338149350649
 20
156.78748457047539
 10
207.71509740259737
 20
156.78748457047539
 10
209.69637987012987
 20
156.78748457047539
 10
211.67766233766233
 20
156.78748457047539
 10
213.6589448051948
 20
156.78748457047539
 10
215.64022727272726
 20
156.78748457047539
 10
217.62150974025977
 20
156.78748457047539
 10
219.60279220779222
 20
156.78748457047539
 10
221.58407467532467
 20
156.78748457047539
 10
223.56535714285715
 20
156.78748457047539
 10
225.5466396103896
 20
156.78748457047539
 10
227.52792207792206
 20
156.78748457047539
 10
229.50920454545457
 20
156.78748457047539
 10
231.49048701298702
 20
156.78748457047539
 10
233.4717694805195
 20
156.78748457047539
 10
235.45305194805195
 20
156.78748457047539
 10
237.4343344155844
 20
156.78748457047539
 10
239.4156168831169
 20
156.78748457047539
 10
241.39689935064936
 20
156.78748457047539
 10
243.37818181818182
 20
156.78748457047539
 10
245.35946428571427
 20
156.78748457047539
 10
247.34074675324675
 20
156.78748457047539
 10
249.3220292207792
 20
156.78748457047539
 10
251.3033116883117
 20
156.78748457047539
 10
253.2845941558442
 20
156.78748457047539
 10
255.26587662337664
 20
156.78748457047539
 10
257.2471590909091
 20
156.78748457047539
 10
259.22844155844155
 20
156.78748457047539
 10
261.209724025974
 20
156.78748457047539
 10
263.1910064935065
 20
156.78748457047539
 10
265.17228896103893
 20
156.78748457047539
 10
267.1535714285714
 20
156.78748457047539
 10
269.1348538961039
 20
156.78748457047539
 10
271.1161363636364
 20
156.78748457047539
 10
273.09741883116885
 20
156.78748457047539
 10
275.0787012987013
 20
156.78748457047539
 10
277.05998376623376
 20
156.78748457047539
 10
279.0412662337662
 20
156.78748457047539
 10
281.0225487012987
 20
156.78748457047539
 10
283.00383116883114
 20
156.78748457047539
 10
284.9851136363636
 20
156.78748457047539
 10
286.9663961038961
 20
156.78748457047539
 10
288.9476785714286
 20
156.78748457047539
 10
290.92896103896106
 20
156.78748457047539
 10
292.9102435064935
 20
156.78748457047539
 10
294.89152597402597
 20
156.78748457047539
 10
296.8728084415584
 20
156.78748457047539
 10
298.8540909090909
 20
156.78748457047539
 10
300.8353733766234
 20
156.2783829444184
 10
302.81665584415583
 20
154.86594913264852
 10
304.7979383116883
 20
152.7316403622094
 10
306.7792207792208
 20
150.05821793897815
 10
308.7605032467532
 20
147.03227439055863
 10
310.7417857142857
 20
143.8368961834336
 10
312.7230681818181
 20
140.64733634195792
 10
314.70435064935066
 20
136.5484392099025
 10
316.68563311688314
 20
131.32915323430427
 10
318.66691558441556
 20
125.84698915639576
 10
320.64819805194804
 20
120.77817199034342
 10
322.6294805194805
 20
115.75841969767299
 10
324.610762987013
 20
110.93470324604426
 10
326.5920454545455
 20
106.64928144157702
 10
328.57332792207797
 20
102.91679147011737
 10
330.5546103896104
 20
99.65168960833563
 10
332.53589285714287
 20
97.21717597998331
 10
334.5171753246753
 20
97.21717597998331
 10
336.4984577922078
 20
97.21717597998331
 10
338.47974025974025
 20
97.21717597998331
 10
340.46102272727273
 20
97.21717597998331
  0
HATCH
  5
DA
330
17
100
AcDbEntity
  8
05_ЗАЛИВКА
 62
7
420
1858698
100
AcDbHatch
 10
0.0
 20
0.0
 30
0.0
210
0.0
220
0.0
230
1.0
  2
SOLID
 70
1
 71
0
 91
1
 92
3
 72
0
 73
1
 93
284
 10
63.08147727272727
 20
97.21717597998331
 10
63.08147727272727
 20
104.70443040657045
 10
65.06275974025974
 20
107.77138695714866
 10
67.04404220779222
 20
111.07686277232683
 10
69.02532467532467
 20
114.56028120199663
 10
71.00660714285713
 20
117.84977245262898
 10
72.9878896103896
 20
121.1508416080117
 10
74.96917207792207
 20
124.40045411015254
 10
76.95045454545453
 20
127.53655028809452
 10
78.93173701298701
 20
130.77299385499057
 10
80.91301948051947
 20
133.87368726824394
 10
82.89430194805195
 20
136.84145421933
 10
84.87558441558441
 20
139.78697072470703
 10
86.85686688311688
 20
142.64025846591056
 10
88.83814935064935
 20
145.2694920352796
 10
90.81943181818181
 20
147.46961087724657
 10
92.80071428571429
 20
149.32586289296248
 10
94.78199675324674
 20
151.1884525576707
 10
96.76327922077921
 20
152.94330398370565
 10
98.74456168831169
 20
154.48018533175983
 10
100.72584415584416
 20
155.69766030336652
 10
102.70712662337662
 20
156.4986989568707
 10
104.68840909090908
 20
156.78748457047539
 10
106.66969155844154
 20
156.78748457047539
 10
108.65097402597402
 20
156.78748457047539
 10
110.63225649350649
 20
156.78748457047539
 10
112.61353896103897
 20
156.78748457047539
 10
114.59482142857144
 20
156.78748457047539
 10
116.57610389610389
 20
156.78748457047539
 10
118.55738636363637
 20
156.78748457047539
 10
120.53866883116883
 20
156.78748457047539
 10
122.51995129870132
 20
156.78748457047539
 10
124.50123376623377
 20
156.78748457047539
 10
126.48251623376622
 20
156.78748457047539
 10
128.4637987012987
 20
156.78748457047539
 10
130.44508116883117
 20
156.78748457047539
 10
132.42636363636365
 20
156.78748457047539
 10
134.4076461038961
 20
156.78748457047539
 10
136.38892857142858
 20
156.78748457047539
 10
138.37021103896103
 20
156.78748457047539
 10
140.3514935064935
 20
156.78748457047539
 10
142.33277597402596
 20
156.78748457047539
 10
144.31405844155844
 20
156.78748457047539
 10
146.2953409090909
 20
156.78748457047539
 10
148.27662337662338
 20
156.78748457047539
 10
150.25790584415583
 20
156.78748457047539
 10
152.23918831168834
 20
156.78748457047539
 10
154.22047077922076
 20
156.78748457047539
 10
156.20175324675324
 20
156.78748457047539
 10
158.18303571428572
 20
156.78748457047539
 10
160.1643181818182
 20
156.78748457047539
 10
162.14560064935065
 20
156.78748457047539
 10
164.1268831168831
 20
156.78748457047539
 10
166.1081655844156
 20
156.78748457047539
 10
168.08944805194804
 20
156.78748457047539
 10
170.07073051948052
 20
156.78748457047539
 10
172.05201298701297
 20
156.78748457047539
 10
174.03329545454545
 20
156.78748457047539
 10
176.0145779220779
 20
156.78748457047539
 10
177.99586038961039
 20
156.78748457047539
 10
179.97714285714284
 20
156.78748457047539
 10
181.95842532467535
 20
156.78748457047539
 10
183.9397077922078
 20
147.7766083800749
 10
185.92099025974025
 20
134.23011049958248
 10
187.9022727272727
 20
132.6548259188814
 10
189.8835551948052
 20
132.6548259188814
 10
191.86483766233766
 20
132.6548259188814
 10
193.84612012987014
 20
132.6548259188814
 10
195.8274025974026
 20
132.6548259188814
 10
197.80868506493508
 20
132.6548259188814
 10
199.78996753246753
 20
132.6548259188814
 10
201.77125000000004
 20
134.23011049958248
 10
203.7525324675325
 20
147.7766083800749
 10
205.7338149350649
 20
156.78748457047539
 10
207.71509740259737
 20
156.78748457047539
 10
209.69637987012987
 20
156.78748457047539
 10
211.67766233766233
 20
156.78748457047539
 10
213.6589448051948
 20
156.78748457047539
 10
215.64022727272726
 20
156.78748457047539
 10
217.62150974025977
 20
156.78748457047539
 10
219.60279220779222
 20
156.78748457047539
 10
221.58407467532467
 20
156.78748457047539
 10
223.56535714285715
 20
156.78748457047539
 10
225.5466396103896
 20
156.78748457047539
 10
227.52792207792206
 20
156.78748457047539
 10
229.50920454545457
 20
156.78748457047539
 10
231.49048701298702
 20
156.78748457047539
 10
233.4717694805195
 20
156.78748457047539
 10
235.45305194805195
 20
156.78748457047539
 10
237.4343344155844
 20
156.78748457047539
 10
239.4156168831169
 20
156.78748457047539
 10
241.39689935064936
 20
156.78748457047539
 10
243.37818181818182
 20
156.78748457047539
 10
245.35946428571427
 20
156.78748457047539
 10
247.34074675324675
 20
156.78748457047539
 10
249.3220292207792
 20
156.78748457047539
 10
251.3033116883117
 20
156.78748457047539
 10
253.2845941558442
 20
156.78748457047539
 10
255.26587662337664
 20
156.78748457047539
 10
257.2471590909091
 20
156.78748457047539
 10
259.22844155844155
 20
156.78748457047539
 10
261.209724025974
 20
156.78748457047539
 10
263.1910064935065
 20
156.78748457047539
 10
265.17228896103893
 20
156.78748457047539
 10
267.1535714285714
 20
156.78748457047539
 10
269.1348538961039
 20
156.78748457047539
 10
271.1161363636364
 20
156.78748457047539
 10
273.09741883116885
 20
156.78748457047539
 10
275.0787012987013
 20
156.78748457047539
 10
277.05998376623376
 20
156.78748457047539
 10
279.0412662337662
 20
156.78748457047539
 10
281.0225487012987
 20
156.78748457047539
 10
283.00383116883114
 20
156.78748457047539
 10
284.9851136363636
 20
156.78748457047539
 10
286.9663961038961
 20
156.78748457047539
 10
288.9476785714286
 20
156.78748457047539
 10
290.92896103896106
 20
156.78748457047539
 10
292.9102435064935
 20
156.78748457047539
 10
294.89152597402597
 20
156.78748457047539
 10
296.8728084415584
 20
156.78748457047539
 10
298.8540909090909
 20
156.78748457047539
 10
300.8353733766234
 20
156.2783829444184
 10
302.81665584415583
 20
154.86594913264852
 10
304.7979383116883
 20
152.7316403622094
 10
306.7792207792208
 20
150.05821793897815
 10
308.7605032467532
 20
147.03227439055863
 10
310.7417857142857
 20
143.8368961834336
 10
312.7230681818181
 20
140.64733634195792
 10
314.70435064935066
 20
136.5484392099025
 10
316.68563311688314
 20
131.32915323430427
 10
318.66691558441556
 20
125.84698915639576
 10
320.64819805194804
 20
120.77817199034342
 10
322.6294805194805
 20
115.75841969767299
 10
324.610762987013
 20
110.93470324604426
 10
326.5920454545455
 20
106.64928144157702
 10
328.57332792207797
 20
102.91679147011737
 10
330.5546103896104
 20
99.65168960833563
 10
332.53589285714287
 20
97.21717597998331
 10
334.5171753246753
 20
97.21717597998331
 10
336.4984577922078
 20
97.21717597998331
 10
338.47974025974025
 20
97.21717597998331
 10
340.46102272727273
 20
97.21717597998331
 10
340.46102272727273
 20
97.21717597998331
 10
340.46102272727273
 20
97.21717597998331
 10
338.47974025974025
 20
97.21717597998331
 10
336.4984577922078
 20
97.21717597998331
 10
334.5171753246753
 20
97.21717597998331
 10
332.53589285714287
 20
97.21717597998331
 10
330.5546103896104
 20
97.21717597998331
 10
328.57332792207797
 20
97.21717597998331
 10
326.5920454545455
 20
97.21717597998331
 10
324.610762987013
 20
97.21717597998331
 10
322.6294805194805
 20
97.21717597998331
 10
320.64819805194804
 20
97.21717597998331
 10
318.66691558441556
 20
97.21717597998331
 10
316.68563311688314
 20
97.21717597998331
 10
314.70435064935066
 20
97.21717597998331
 10
312.7230681818181
 20
97.21717597998331
 10
310.7417857142857
 20
97.21717597998331
 10
308.7605032467532
 20
97.21717597998331
 10
306.7792207792208
 20
97.21717597998331
 10
304.7979383116883
 20
97.21717597998331
 10
302.81665584415583
 20
97.21717597998331
 10
300.8353733766234
 20
97.21717597998331
 10
298.8540909090909
 20
97.21717597998331
 10
296.8728084415584
 20
97.21717597998331
 10
294.89152597402597
 20
97.21717597998331
 10
292.9102435064935
 20
97.21717597998331
 10
290.92896103896106
 20
97.21717597998331
 10
288.9476785714286
 20
97.21717597998331
 10
286.9663961038961
 20
97.21717597998331
 10
284.9851136363636
 20
97.21717597998331
 10
283.00383116883114
 20
97.21717597998331
 10
281.0225487012987
 20
97.21717597998331
 10
279.0412662337662
 20
97.21717597998331
 10
277.05998376623376
 20
97.21717597998331
 10
275.0787012987013
 20
97.21717597998331
 10
273.09741883116885
 20
97.21717597998331
 10
271.1161363636364
 20
97.21717597998331
 10
269.1348538961039
 20
97.21717597998331
 10
267.1535714285714
 20
97.21717597998331
 10
265.17228896103893
 20
97.21717597998331
 10
263.1910064935065
 20
97.21717597998331
 10
261.209724025974
 20
97.21717597998331
 10
259.22844155844155
 20
97.21717597998331
 10
257.2471590909091
 20
97.21717597998331
 10
255.26587662337664
 20
97.21717597998331
 10
253.2845941558442
 20
97.21717597998331
 10
251.3033116883117
 20
97.21717597998331
 10
249.3220292207792
 20
97.21717597998331
 10
247.34074675324675
 20
97.21717597998331
 10
245.35946428571427
 20
97.21717597998331
 10
243.37818181818182
 20
97.21717597998331
 10
241.39689935064936
 20
97.21717597998331
 10
239.4156168831169
 20
97.21717597998331
 10
237.4343344155844
 20
97.21717597998331
 10
235.45305194805195
 20
97.21717597998331
 10
233.4717694805195
 20
97.21717597998331
 10
231.49048701298702
 20
97.21717597998331
 10
229.50920454545457
 20
97.21717597998331
 10
227.52792207792206
 20
97.21717597998331
 10
225.5466396103896
 20
97.21717597998331
 10
223.56535714285715
 20
97.21717597998331
 10
221.58407467532467
 20
97.21717597998331
 10
219.60279220779222
 20
97.21717597998331
 10
217.62150974025977
 20
97.21717597998331
 10
215.64022727272726
 20
97.21717597998331
 10
213.6589448051948
 20
97.21717597998331
 10
211.67766233766233
 20
97.21717597998331
 10
209.69637987012987
 20
97.21717597998331
 10
207.71509740259737
 20
97.21717597998331
 10
205.7338149350649
 20
97.21717597998331
 10
203.7525324675325
 20
97.21717597998331
 10
201.77125000000004
 20
97.21717597998331
 10
199.78996753246753
 20
97.21717597998331
 10
197.80868506493508
 20
97.21717597998331
 10
195.8274025974026
 20
97.21717597998331
 10
193.84612012987014
 20
97.21717597998331
 10
191.86483766233766
 20
97.21717597998331
 10
189.8835551948052
 20
97.21717597998331
 10
187.9022727272727
 20
97.21717597998331
 10
185.92099025974025
 20
97.21717597998331
 10
183.9397077922078
 20
97.21717597998331
 10
181.95842532467535
 20
97.21717597998331
 10
179.97714285714284
 20
97.21717597998331
 10
177.99586038961039
 20
97.21717597998331
 10
176.0145779220779
 20
97.21717597998331
 10
174.03329545454545
 20
97.21717597998331
 10
172.05201298701297
 20
97.21717597998331
 10
170.07073051948052
 20
97.21717597998331
 10
168.08944805194804
 20
97.21717597998331
 10
166.1081655844156
 20
97.21717597998331
 10
164.1268831168831
 20
97.21717597998331
 10
162.14560064935065
 20
97.21717597998331
 10
160.1643181818182
 20
97.21717597998331
 10
158.18303571428572
 20
97.21717597998331
 10
156.20175324675324
 20
97.21717597998331
 10
154.22047077922076
 20
97.21717597998331
 10
152.23918831168834
 20
97.21717597998331
 10
150.25790584415583
 20
97.21717597998331
 10
148.27662337662338
 20
97.21717597998331
 10
146.2953409090909
 20
97.21717597998331
 10
144.31405844155844
 20
97.21717597998331
 10
142.33277597402596
 20
97.21717597998331
 10
140.3514935064935
 20
97.21717597998331
 10
138.37021103896103
 20
97.21717597998331
 10
136.38892857142858
 20
97.21717597998331
 10
134.4076461038961
 20
97.21717597998331
 10
132.42636363636365
 20
97.21717597998331
 10
130.44508116883117
 20
97.21717597998331
 10
128.4637987012987
 20
97.21717597998331
 10
126.48251623376622
 20
97.21717597998331
 10
124.50123376623377
 20
97.21717597998331
 10
122.51995129870132
 20
97.21717597998331
 10
120.53866883116883
 20
97.21717597998331
 10
118.55738636363637
 20
97.21717597998331
 10
116.57610389610389
 20
97.21717597998331
 10
114.59482142857144
 20
97.21717597998331
 10
112.61353896103897
 20
97.21717597998331
 10
110.63225649350649
 20
97.21717597998331
 10
108.65097402597402
 20
97.21717597998331
 10
106.66969155844154
 20
97.21717597998331
 10
104.68840909090908
 20
97.21717597998331
 10
102.70712662337662
 20
97.21717597998331
 10
100.72584415584416
 20
97.21717597998331
 10
98.74456168831169
 20
97.21717597998331
 10
96.76327922077921
 20
97.21717597998331
 10
94.78199675324674
 20
97.21717597998331
 10
92.80071428571429
 20
97.21717597998331
 10
90.81943181818181
 20
97.21717597998331
 10
88.83814935064935
 20
97.21717597998331
 10
86.85686688311688
 20
97.21717597998331
 10
84.87558441558441
 20
97.21717597998331
 10
82.89430194805195
 20
97.21717597998331
 10
80.91301948051947
 20
97.21717597998331
 10
78.93173701298701
 20
97.21717597998331
 10
76.95045454545453
 20
97.21717597998331
 10
74.96917207792207
 20
97.21717597998331
 10
72.9878896103896
 20
97.21717597998331
 10
71.00660714285713
 20
97.21717597998331
 10
69.02532467532467
 20
97.21717597998331
 10
67.04404220779222
 20
97.21717597998331
 10
65.06275974025974
 20
97.21717597998331
 10
63.08147727272727
 20
97.21717597998331
 97
0
 75
0
 76
1
 98
0
  0
LWPOLYLINE
  5
DB
330
17
100
AcDbEntity
  8
01_ЛИНИИ
420
1858698
100
AcDbPolyline
 90
284
 70
1
 10
63.08147727272727
 20
97.21717597998331
 10
63.08147727272727
 20
104.70443040657045
 10
65.06275974025974
 20
107.77138695714866
 10
67.04404220779222
 20
111.07686277232683
 10
69.02532467532467
 20
114.56028120199663
 10
71.00660714285713
 20
117.84977245262898
 10
72.9878896103896
 20
121.1508416080117
 10
74.96917207792207
 20
124.40045411015254
 10
76.95045454545453
 20
127.53655028809452
 10
78.93173701298701
 20
130.77299385499057
 10
80.91301948051947
 20
133.87368726824394
 10
82.89430194805195
 20
136.84145421933
 10
84.87558441558441
 20
139.78697072470703
 10
86.85686688311688
 20
142.64025846591056
 10
88.83814935064935
 20
145.2694920352796
 10
90.81943181818181
 20
147.46961087724657
 10
92.80071428571429
 20
149.32586289296248
 10
94.78199675324674
 20
151.1884525576707
 10
96.76327922077921
 20
152.94330398370565
 10
98.74456168831169
 20
154.48018533175983
 10
100.72584415584416
 20
155.69766030336652
 10
102.70712662337662
 20
156.4986989568707
 10
104.68840909090908
 20
156.78748457047539
 10
106.66969155844154
 20
156.78748457047539
 10
108.65097402597402
 20
156.78748457047539
 10
110.63225649350649
 20
156.78748457047539
 10
112.61353896103897
 20
156.78748457047539
 10
114.59482142857144
 20
156.78748457047539
 10
116.57610389610389
 20
156.78748457047539
 10
118.55738636363637
 20
156.78748457047539
 10
120.53866883116883
 20
156.78748457047539
 10
122.51995129870132
 20
156.78748457047539
 10
124.50123376623377
 20
156.78748457047539
 10
126.48251623376622
 20
156.78748457047539
 10
128.4637987012987
 20
156.78748457047539
 10
130.44508116883117
 20
156.78748457047539
 10
132.42636363636365
 20
156.78748457047539
 10
134.4076461038961
 20
156.78748457047539
 10
136.38892857142858
 20
156.78748457047539
 10
138.37021103896103
 20
156.78748457047539
 10
140.3514935064935
 20
156.78748457047539
 10
142.33277597402596
 20
156.78748457047539
 10
144.31405844155844
 20
156.78748457047539
 10
146.2953409090909
 20
156.78748457047539
 10
148.27662337662338
 20
156.78748457047539
 10
150.25790584415583
 20
156.78748457047539
 10
152.23918831168834
 20
156.78748457047539
 10
154.22047077922076
 20
156.78748457047539
 10
156.20175324675324
 20
156.78748457047539
 10
158.18303571428572
 20
156.78748457047539
 10
160.1643181818182
 20
156.78748457047539
 10
162.14560064935065
 20
156.78748457047539
 10
164.1268831168831
 20
156.78748457047539
 10
166.1081655844156
 20
156.78748457047539
 10
168.08944805194804
 20
156.78748457047539
 10
170.07073051948052
 20
156.78748457047539
 10
172.05201298701297
 20
156.78748457047539
 10
174.03329545454545
 20
156.78748457047539
 10
176.0145779220779
 20
156.78748457047539
 10
177.99586038961039
 20
156.78748457047539
 10
179.97714285714284
 20
156.78748457047539
 10
181.95842532467535
 20
156.78748457047539
 10
183.9397077922078
 20
147.7766083800749
 10
185.92099025974025
 20
134.23011049958248
 10
187.9022727272727
 20
132.6548259188814
 10
189.8835551948052
 20
132.6548259188814
 10
191.86483766233766
 20
132.6548259188814
 10
193.84612012987014
 20
132.6548259188814
 10
195.8274025974026
 20
132.6548259188814
 10
197.80868506493508
 20
132.6548259188814
 10
199.78996753246753
 20
132.6548259188814
 10
201.77125000000004
 20
134.23011049958248
 10
203.7525324675325
 20
147.7766083800749
 10
205.7338149350649
 20
156.78748457047539
 10
207.71509740259737
 20
156.78748457047539
 10
209.69637987012987
 20
156.78748457047539
 10
211.67766233766233
 20
156.78748457047539
 10
213.6589448051948
 20
156.78748457047539
 10
215.64022727272726
 20
156.78748457047539
 10
217.62150974025977
 20
156.78748457047539
 10
219.60279220779222
 20
156.78748457047539
 10
221.58407467532467
 20
156.78748457047539
 10
223.56535714285715
 20
156.78748457047539
 10
225.5466396103896
 20
156.78748457047539
 10
227.52792207792206
 20
156.78748457047539
 10
229.50920454545457
 20
156.78748457047539
 10
231.49048701298702
 20
156.78748457047539
 10
233.4717694805195
 20
156.78748457047539
 10
235.45305194805195
 20
156.78748457047539
 10
237.4343344155844
 20
156.78748457047539
 10
239.4156168831169
 20
156.78748457047539
 10
241.39689935064936
 20
156.78748457047539
 10
243.37818181818182
 20
156.78748457047539
 10
245.35946428571427
 20
156.78748457047539
 10
247.34074675324675
 20
156.78748457047539
 10
249.3220292207792
 20
156.78748457047539
 10
251.3033116883117
 20
156.78748457047539
 10
253.2845941558442
 20
156.78748457047539
 10
255.26587662337664
 20
156.78748457047539
 10
257.2471590909091
 20
156.78748457047539
 10
259.22844155844155
 20
156.78748457047539
 10
261.209724025974
 20
156.78748457047539
 10
263.1910064935065
 20
156.78748457047539
 10
265.17228896103893
 20
156.78748457047539
 10
267.1535714285714
 20
156.78748457047539
 10
269.1348538961039
 20
156.78748457047539
 10
271.1161363636364
 20
156.78748457047539
 10
273.09741883116885
 20
156.78748457047539
 10
275.0787012987013
 20
156.78748457047539
 10
277.05998376623376
 20
156.78748457047539
 10
279.0412662337662
 20
156.78748457047539
 10
281.0225487012987
 20
156.78748457047539
 10
283.00383116883114
 20
156.78748457047539
 10
284.9851136363636
 20
156.78748457047539
 10
286.9663961038961
 20
156.78748457047539
 10
288.9476785714286
 20
156.78748457047539
 10
290.92896103896106
 20
156.78748457047539
 10
292.9102435064935
 20
156.78748457047539
 10
294.89152597402597
 20
156.78748457047539
 10
296.8728084415584
 20
156.78748457047539
 10
298.8540909090909
 20
156.78748457047539
 10
300.8353733766234
 20
156.2783829444184
 10
302.81665584415583
 20
154.86594913264852
 10
304.7979383116883
 20
152.7316403622094
 10
306.7792207792208
 20
150.05821793897815
 10
308.7605032467532
 20
147.03227439055863
 10
310.7417857142857
 20
143.8368961834336
 10
312.7230681818181
 20
140.64733634195792
 10
314.70435064935066
 20
136.5484392099025
 10
316.68563311688314
 20
131.32915323430427
 10
318.66691558441556
 20
125.84698915639576
 10
320.64819805194804
 20
120.77817199034342
 10
322.6294805194805
 20
115.75841969767299
 10
324.610762987013
 20
110.93470324604426
 10
326.5920454545455
 20
106.64928144157702
 10
328.57332792207797
 20
102.91679147011737
 10
330.5546103896104
 20
99.65168960833563
 10
332.53589285714287
 20
97.21717597998331
 10
334.5171753246753
 20
97.21717597998331
 10
336.4984577922078
 20
97.21717597998331
 10
338.47974025974025
 20
97.21717597998331
 10
340.46102272727273
 20
97.21717597998331
 10
340.46102272727273
 20
97.21717597998331
 10
340.46102272727273
 20
97.21717597998331
 10
338.47974025974025
 20
97.21717597998331
 10
336.4984577922078
 20
97.21717597998331
 10
334.5171753246753
 20
97.21717597998331
 10
332.53589285714287
 20
97.21717597998331
 10
330.5546103896104
 20
97.21717597998331
 10
328.57332792207797
 20
97.21717597998331
 10
326.5920454545455
 20
97.21717597998331
 10
324.610762987013
 20
97.21717597998331
 10
322.6294805194805
 20
97.21717597998331
 10
320.64819805194804
 20
97.21717597998331
 10
318.66691558441556
 20
97.21717597998331
 10
316.68563311688314
 20
97.21717597998331
 10
314.70435064935066
 20
97.21717597998331
 10
312.7230681818181
 20
97.21717597998331
 10
310.7417857142857
 20
97.21717597998331
 10
308.7605032467532
 20
97.21717597998331
 10
306.7792207792208
 20
97.21717597998331
 10
304.7979383116883
 20
97.21717597998331
 10
302.81665584415583
 20
97.21717597998331
 10
300.8353733766234
 20
97.21717597998331
 10
298.8540909090909
 20
97.21717597998331
 10
296.8728084415584
 20
97.21717597998331
 10
294.89152597402597
 20
97.21717597998331
 10
292.9102435064935
 20
97.21717597998331
 10
290.92896103896106
 20
97.21717597998331
 10
288.9476785714286
 20
97.21717597998331
 10
286.9663961038961
 20
97.21717597998331
 10
284.9851136363636
 20
97.21717597998331
 10
283.00383116883114
 20
97.21717597998331
 10
281.0225487012987
 20
97.21717597998331
 10
279.0412662337662
 20
97.21717597998331
 10
277.05998376623376
 20
97.21717597998331
 10
275.0787012987013
 20
97.21717597998331
 10
273.09741883116885
 20
97.21717597998331
 10
271.1161363636364
 20
97.21717597998331
 10
269.1348538961039
 20
97.21717597998331
 10
267.1535714285714
 20
97.21717597998331
 10
265.17228896103893
 20
97.21717597998331
 10
263.1910064935065
 20
97.21717597998331
 10
261.209724025974
 20
97.21717597998331
 10
259.22844155844155
 20
97.21717597998331
 10
257.2471590909091
 20
97.21717597998331
 10
255.26587662337664
 20
97.21717597998331
 10
253.2845941558442
 20
97.21717597998331
 10
251.3033116883117
 20
97.21717597998331
 10
249.3220292207792
 20
97.21717597998331
 10
247.34074675324675
 20
97.21717597998331
 10
245.35946428571427
 20
97.21717597998331
 10
243.37818181818182
 20
97.21717597998331
 10
241.39689935064936
 20
97.21717597998331
 10
239.4156168831169
 20
97.21717597998331
 10
237.4343344155844
 20
97.21717597998331
 10
235.45305194805195
 20
97.21717597998331
 10
233.4717694805195
 20
97.21717597998331
 10
231.49048701298702
 20
97.21717597998331
 10
229.50920454545457
 20
97.21717597998331
 10
227.52792207792206
 20
97.21717597998331
 10
225.5466396103896
 20
97.21717597998331
 10
223.56535714285715
 20
97.21717597998331
 10
221.58407467532467
 20
97.21717597998331
 10
219.60279220779222
 20
97.21717597998331
 10
217.62150974025977
 20
97.21717597998331
 10
215.64022727272726
 20
97.21717597998331
 10
213.6589448051948
 20
97.21717597998331
 10
211.67766233766233
 20
97.21717597998331
 10
209.69637987012987
 20
97.21717597998331
 10
207.71509740259737
 20
97.21717597998331
 10
205.7338149350649
 20
97.21717597998331
 10
203.7525324675325
 20
97.21717597998331
 10
201.77125000000004
 20
97.21717597998331
 10
199.78996753246753
 20
97.21717597998331
 10
197.80868506493508
 20
97.21717597998331
 10
195.8274025974026
 20
97.21717597998331
 10
193.84612012987014
 20
97.21717597998331
 10
191.86483766233766
 20
97.21717597998331
 10
189.8835551948052
 20
97.21717597998331
 10
187.9022727272727
 20
97.21717597998331
 10
185.92099025974025
 20
97.21717597998331
 10
183.9397077922078
 20
97.21717597998331
 10
181.95842532467535
 20
97.21717597998331
 10
179.97714285714284
 20
97.21717597998331
 10
177.99586038961039
 20
97.21717597998331
 10
176.0145779220779
 20
97.21717597998331
 10
174.03329545454545
 20
97.21717597998331
 10
172.05201298701297
 20
97.21717597998331
 10
170.07073051948052
 20
97.21717597998331
 10
168.08944805194804
 20
97.21717597998331
 10
166.1081655844156
 20
97.21717597998331
 10
164.1268831168831
 20
97.21717597998331
 10
162.14560064935065
 20
97.21717597998331
 10
160.1643181818182
 20
97.21717597998331
 10
158.18303571428572
 20
97.21717597998331
 10
156.20175324675324
 20
97.21717597998331
 10
154.22047077922076
 20
97.21717597998331
 10
152.23918831168834
 20
97.21717597998331
 10
150.25790584415583
 20
97.21717597998331
 10
148.27662337662338
 20
97.21717597998331
 10
146.2953409090909
 20
97.21717597998331
 10
144.31405844155844
 20
97.21717597998331
 10
142.33277597402596
 20
97.21717597998331
 10
140.3514935064935
 20
97.21717597998331
 10
138.37021103896103
 20
97.21717597998331
 10
136.38892857142858
 20
97.21717597998331
 10
134.4076461038961
 20
97.21717597998331
 10
132.42636363636365
 20
97.21717597998331
 10
130.44508116883117
 20
97.21717597998331
 10
128.4637987012987
 20
97.21717597998331
 10
126.48251623376622
 20
97.21717597998331
 10
124.50123376623377
 20
97.21717597998331
 10
122.51995129870132
 20
97.21717597998331
 10
120.53866883116883
 20
97.21717597998331
 10
118.55738636363637
 20
97.21717597998331
 10
116.57610389610389
 20
97.21717597998331
 10
114.59482142857144
 20
97.21717597998331
 10
112.61353896103897
 20
97.21717597998331
 10
110.63225649350649
 20
97.21717597998331
 10
108.65097402597402
 20
97.21717597998331
 10
106.66969155844154
 20
97.21717597998331
 10
104.68840909090908
 20
97.21717597998331
 10
102.70712662337662
 20
97.21717597998331
 10
100.72584415584416
 20
97.21717597998331
 10
98.74456168831169
 20
97.21717597998331
 10
96.76327922077921
 20
97.21717597998331
 10
94.78199675324674
 20
97.21717597998331
 10
92.80071428571429
 20
97.21717597998331
 10
90.81943181818181
 20
97.21717597998331
 10
88.83814935064935
 20
97.21717597998331
 10
86.85686688311688
 20
97.21717597998331
 10
84.87558441558441
 20
97.21717597998331
 10
82.89430194805195
 20
97.21717597998331
 10
80.91301948051947
 20
97.21717597998331
 10
78.93173701298701
 20
97.21717597998331
 10
76.95045454545453
 20
97.21717597998331
 10
74.96917207792207
 20
97.21717597998331
 10
72.9878896103896
 20
97.21717597998331
 10
71.00660714285713
 20
97.21717597998331
 10
69.02532467532467
 20
97.21717597998331
 10
67.04404220779222
 20
97.21717597998331
 10
65.06275974025974
 20
97.21717597998331
 10
63.08147727272727
 20
97.21717597998331
  0
LWPOLYLINE
  5
DC
330
17
100
AcDbEntity
  8
03_СЕТКА
370
25
420
14212581
100
AcDbPolyline
 90
2
 70
0
 10
43.268652597402586
 20
16.916399999999996
 10
43.268652597402586
 20
82.44373944954128
  0
LWPOLYLINE
  5
DD
330
17
100
AcDbEntity
  8
03_СЕТКА
370
25
420
14212581
100
AcDbPolyline
 90
2
 70
0
 10
63.08147727272727
 20
16.916399999999996
 10
63.08147727272727
 20
82.44373944954128
  0
LWPOLYLINE
  5
DE
330
17
100
AcDbEntity
  8
03_СЕТКА
370
25
420
14212581
100
AcDbPolyline
 90
2
 70
0
 10
82.89430194805195
 20
16.916399999999996
 10
82.89430194805195
 20
82.44373944954128
  0
LWPOLYLINE
  5
DF
330
17
100
AcDbEntity
  8
03_СЕТКА
370
25
420
14212581
100
AcDbPolyline
 90
2
 70
0
 10
102.70712662337662
 20
16.916399999999996
 10
102.70712662337662
 20
82.44373944954128
  0
LWPOLYLINE
  5
E0
330
17
100
AcDbEntity
  8
03_СЕТКА
370
25
420
14212581
100
AcDbPolyline
 90
2
 70
0
 10
122.51995129870132
 20
16.916399999999996
 10
122.51995129870132
 20
82.44373944954128
  0
LWPOLYLINE
  5
E1
330
17
100
AcDbEntity
  8
03_СЕТКА
370
25
420
14212581
100
AcDbPolyline
 90
2
 70
0
 10
142.33277597402596
 20
16.916399999999996
 10
142.33277597402596
 20
82.44373944954128
  0
LWPOLYLINE
  5
E2
330
17
100
AcDbEntity
  8
03_СЕТКА
370
25
420
14212581
100
AcDbPolyline
 90
2
 70
0
 10
162.14560064935065
 20
16.916399999999996
 10
162.14560064935065
 20
82.44373944954128
  0
LWPOLYLINE
  5
E3
330
17
100
AcDbEntity
  8
03_СЕТКА
370
25
420
14212581
100
AcDbPolyline
 90
2
 70
0
 10
181.95842532467535
 20
16.916399999999996
 10
181.95842532467535
 20
82.44373944954128
  0
LWPOLYLINE
  5
E4
330
17
100
AcDbEntity
  8
03_СЕТКА
370
25
420
14212581
100
AcDbPolyline
 90
2
 70
0
 10
201.77125000000004
 20
16.916399999999996
 10
201.77125000000004
 20
82.44373944954128
  0
LWPOLYLINE
  5
E5
330
17
100
AcDbEntity
  8
03_СЕТКА
370
25
420
14212581
100
AcDbPolyline
 90
2
 70
0
 10
221.58407467532467
 20
16.916399999999996
 10
221.58407467532467
 20
82.44373944954128
  0
LWPOLYLINE
  5
E6
330
17
100
AcDbEntity
  8
03_СЕТКА
370
25
420
14212581
100
AcDbPolyline
 90
2
 70
0
 10
241.39689935064936
 20
16.916399999999996
 10
241.39689935064936
 20
82.44373944954128
  0
LWPOLYLINE
  5
E7
330
17
100
AcDbEntity
  8
03_СЕТКА
370
25
420
14212581
100
AcDbPolyline
 90
2
 70
0
 10
261.209724025974
 20
16.916399999999996
 10
261.209724025974
 20
82.44373944954128
  0
LWPOLYLINE
  5
E8
330
17
100
AcDbEntity
  8
03_СЕТКА
370
25
420
14212581
100
AcDbPolyline
 90
2
 70
0
 10
281.0225487012987
 20
16.916399999999996
 10
281.0225487012987
 20
82.44373944954128
  0
LWPOLYLINE
  5
E9
330
17
100
AcDbEntity
  8
03_СЕТКА
370
25
420
14212581
100
AcDbPolyline
 90
2
 70
0
 10
300.8353733766234
 20
16.916399999999996
 10
300.8353733766234
 20
82.44373944954128
  0
LWPOLYLINE
  5
EA
330
17
100
AcDbEntity
  8
03_СЕТКА
370
25
420
14212581
100
AcDbPolyline
 90
2
 70
0
 10
320.64819805194804
 20
16.916399999999996
 10
320.64819805194804
 20
82.44373944954128
  0
LWPOLYLINE
  5
EB
330
17
100
AcDbEntity
  8
03_СЕТКА
370
25
420
14212581
100
AcDbPolyline
 90
2
 70
0
 10
340.46102272727273
 20
16.916399999999996
 10
340.46102272727273
 20
82.44373944954128
  0
LWPOLYLINE
  5
EC
330
17
100
AcDbEntity
  8
03_СЕТКА
370
25
420
14212581
100
AcDbPolyline
 90
2
 70
0
 10
360.2738474025974
 20
16.916399999999996
 10
360.2738474025974
 20
82.44373944954128
  0
LWPOLYLINE
  5
ED
330
17
100
AcDbEntity
  8
03_СЕТКА
370
25
420
14212581
100
AcDbPolyline
 90
2
 70
0
 10
49.2125
 20
10.214218021557462
 10
354.33
 20
10.214218021557462
  0
LWPOLYLINE
  5
EE
330
17
100
AcDbEntity
  8
03_СЕТКА
370
25
420
14212581
100
AcDbPolyline
 90
2
 70
0
 10
49.2125
 20
19.894915429524602
 10
354.33
 20
19.894915429524602
  0
LWPOLYLINE
  5
EF
330
17
100
AcDbEntity
  8
03_СЕТКА
370
25
420
14212581
100
AcDbPolyline
 90
2
 70
0
 10
49.2125
 20
29.57561283749174
 10
354.33
 20
29.57561283749174
  0
LWPOLYLINE
  5
F0
330
17
100
AcDbEntity
  8
03_СЕТКА
370
25
420
14212581
100
AcDbPolyline
 90
2
 70
0
 10
49.2125
 20
39.25631024545888
 10
354.33
 20
39.25631024545888
  0
LWPOLYLINE
  5
F1
330
17
100
AcDbEntity
  8
03_СЕТКА
370
25
420
14212581
100
AcDbPolyline
 90
2
 70
0
 10
49.2125
 20
48.937007653426015
 10
354.33
 20
48.937007653426015
  0
LWPOLYLINE
  5
F2
330
17
100
AcDbEntity
  8
03_СЕТКА
370
25
420
14212581
100
AcDbPolyline
 90
2
 70
0
 10
49.2125
 20
58.61770506139316
 10
354.33
 20
58.61770506139316
  0
LWPOLYLINE
  5
F3
330
17
100
AcDbEntity
  8
03_СЕТКА
370
25
420
14212581
100
AcDbPolyline
 90
2
 70
0
 10
49.2125
 20
68.29840246936028
 10
354.33
 20
68.29840246936028
  0
LWPOLYLINE
  5
F4
330
17
100
AcDbEntity
  8
03_СЕТКА
370
25
420
14212581
100
AcDbPolyline
 90
2
 70
0
 10
49.2125
 20
77.97909987732743
 10
354.33
 20
77.97909987732743
  0
LWPOLYLINE
  5
F5
330
17
100
AcDbEntity
  8
03_СЕТКА
370
25
420
14212581
100
AcDbPolyline
 90
2
 70
0
 10
49.2125
 20
87.65979728529457
 10
354.33
 20
87.65979728529457
  0
LWPOLYLINE
  5
F6
330
17
100
AcDbEntity
  8
02_ОСИ
370
30
420
3819096
100
AcDbPolyline
 90
2
 70
1
 10
49.2125
 20
16.916399999999996
 10
49.2125
 20
82.4437394495413
  0
LWPOLYLINE
  5
F7
330
17
100
AcDbEntity
  8
02_ОСИ
370
30
420
3819096
100
AcDbPolyline
 90
2
 70
1
 10
354.33
 20
16.916399999999996
 10
354.33
 20
82.4437394495413
  0
LWPOLYLINE
  5
F8
330
17
100
AcDbEntity
  8
02_ОСИ
370
30
420
3819096
100
AcDbPolyline
 90
2
 70
1
 10
49.2125
 20
16.916399999999996
 10
354.33000000000004
 20
16.916399999999996
  0
LWPOLYLINE
  5
F9
330
17
100
AcDbEntity
  8
02_ОСИ
370
30
420
3819096
100
AcDbPolyline
 90
2
 70
1
 10
49.2125
 20
82.44373944954128
 10
354.33000000000004
 20
82.44373944954128
  0
TEXT
  5
FA
330
17
100
AcDbEntity
  8
02_ОСИ
420
5661306
100
AcDbText
 10
43.268652597402586
 20
12.85945555555555
 30
0.0
 40
2.2859999999999996
  1
−10
  7
ГОСТ
 72
1
 11
43.268652597402586
 21
12.85945555555555
 31
0.0
100
AcDbText
 73
2
  0
LINE
  5
FB
330
17
100
AcDbEntity
  8
02_ОСИ
100
AcDbLine
 10
63.08147727272727
 20
16.916399999999996
 30
0.0
 11
63.08147727272727
 21
15.681677777777773
 31
0.0
  0
TEXT
  5
FC
330
17
100
AcDbEntity
  8
02_ОСИ
420
5661306
100
AcDbText
 10
63.08147727272727
 20
12.85945555555555
 30
0.0
 40
2.2859999999999996
  1
0
  7
ГОСТ
 72
1
 11
63.08147727272727
 21
12.85945555555555
 31
0.0
100
AcDbText
 73
2
  0
LINE
  5
FD
330
17
100
AcDbEntity
  8
02_ОСИ
100
AcDbLine
 10
82.89430194805195
 20
16.916399999999996
 30
0.0
 11
82.89430194805195
 21
15.681677777777773
 31
0.0
  0
TEXT
  5
FE
330
17
100
AcDbEntity
  8
02_ОСИ
420
5661306
100
AcDbText
 10
82.89430194805195
 20
12.85945555555555
 30
0.0
 40
2.2859999999999996
  1
10
  7
ГОСТ
 72
1
 11
82.89430194805195
 21
12.85945555555555
 31
0.0
100
AcDbText
 73
2
  0
LINE
  5
FF
330
17
100
AcDbEntity
  8
02_ОСИ
100
AcDbLine
 10
102.70712662337662
 20
16.916399999999996
 30
0.0
 11
102.70712662337662
 21
15.681677777777773
 31
0.0
  0
TEXT
  5
100
330
17
100
AcDbEntity
  8
02_ОСИ
420
5661306
100
AcDbText
 10
102.70712662337662
 20
12.85945555555555
 30
0.0
 40
2.2859999999999996
  1
20
  7
ГОСТ
 72
1
 11
102.70712662337662
 21
12.85945555555555
 31
0.0
100
AcDbText
 73
2
  0
LINE
  5
101
330
17
100
AcDbEntity
  8
02_ОСИ
100
AcDbLine
 10
122.51995129870132
 20
16.916399999999996
 30
0.0
 11
122.51995129870132
 21
15.681677777777773
 31
0.0
  0
TEXT
  5
102
330
17
100
AcDbEntity
  8
02_ОСИ
420
5661306
100
AcDbText
 10
122.51995129870132
 20
12.85945555555555
 30
0.0
 40
2.2859999999999996
  1
30
  7
ГОСТ
 72
1
 11
122.51995129870132
 21
12.85945555555555
 31
0.0
100
AcDbText
 73
2
  0
LINE
  5
103
330
17
100
AcDbEntity
  8
02_ОСИ
100
AcDbLine
 10
142.33277597402596
 20
16.916399999999996
 30
0.0
 11
142.33277597402596
 21
15.681677777777773
 31
0.0
  0
TEXT
  5
104
330
17
100
AcDbEntity
  8
02_ОСИ
420
5661306
100
AcDbText
 10
142.33277597402596
 20
12.85945555555555
 30
0.0
 40
2.2859999999999996
  1
40
  7
ГОСТ
 72
1
 11
142.33277597402596
 21
12.85945555555555
 31
0.0
100
AcDbText
 73
2
  0
LINE
  5
105
330
17
100
AcDbEntity
  8
02_ОСИ
100
AcDbLine
 10
162.14560064935065
 20
16.916399999999996
 30
0.0
 11
162.14560064935065
 21
15.681677777777773
 31
0.0
  0
TEXT
  5
106
330
17
100
AcDbEntity
  8
02_ОСИ
420
5661306
100
AcDbText
 10
162.14560064935065
 20
12.85945555555555
 30
0.0
 40
2.2859999999999996
  1
50
  7
ГОСТ
 72
1
 11
162.14560064935065
 21
12.85945555555555
 31
0.0
100
AcDbText
 73
2
  0
LINE
  5
107
330
17
100
AcDbEntity
  8
02_ОСИ
100
AcDbLine
 10
181.95842532467535
 20
16.916399999999996
 30
0.0
 11
181.95842532467535
 21
15.681677777777773
 31
0.0
  0
TEXT
  5
108
330
17
100
AcDbEntity
  8
02_ОСИ
420
5661306
100
AcDbText
 10
181.95842532467535
 20
12.85945555555555
 30
0.0
 40
2.2859999999999996
  1
60
  7
ГОСТ
 72
1
 11
181.95842532467535
 21
12.85945555555555
 31
0.0
100
AcDbText
 73
2
  0
LINE
  5
109
330
17
100
AcDbEntity
  8
02_ОСИ
100
AcDbLine
 10
201.77125000000004
 20
16.916399999999996
 30
0.0
 11
201.77125000000004
 21
15.681677777777773
 31
0.0
  0
TEXT
  5
10A
330
17
100
AcDbEntity
  8
02_ОСИ
420
5661306
100
AcDbText
 10
201.77125000000004
 20
12.85945555555555
 30
0.0
 40
2.2859999999999996
  1
70
  7
ГОСТ
 72
1
 11
201.77125000000004
 21
12.85945555555555
 31
0.0
100
AcDbText
 73
2
  0
LINE
  5
10B
330
17
100
AcDbEntity
  8
02_ОСИ
100
AcDbLine
 10
221.58407467532467
 20
16.916399999999996
 30
0.0
 11
221.58407467532467
 21
15.681677777777773
 31
0.0
  0
TEXT
  5
10C
330
17
100
AcDbEntity
  8
02_ОСИ
420
5661306
100
AcDbText
 10
221.58407467532467
 20
12.85945555555555
 30
0.0
 40
2.2859999999999996
  1
80
  7
ГОСТ
 72
1
 11
221.58407467532467
 21
12.85945555555555
 31
0.0
100
AcDbText
 73
2
  0
LINE
  5
10D
330
17
100
AcDbEntity
  8
02_ОСИ
100
AcDbLine
 10
241.39689935064936
 20
16.916399999999996
 30
0.0
 11
241.39689935064936
 21
15.681677777777773
 31
0.0
  0
TEXT
  5
10E
330
17
100
AcDbEntity
  8
02_ОСИ
420
5661306
100
AcDbText
 10
241.39689935064936
 20
12.85945555555555
 30
0.0
 40
2.2859999999999996
  1
90
  7
ГОСТ
 72
1
 11
241.39689935064936
 21
12.85945555555555
 31
0.0
100
AcDbText
 73
2
  0
LINE
  5
10F
330
17
100
AcDbEntity
  8
02_ОСИ
100
AcDbLine
 10
261.209724025974
 20
16.916399999999996
 30
0.0
 11
261.209724025974
 21
15.681677777777773
 31
0.0
  0
TEXT
  5
110
330
17
100
AcDbEntity
  8
02_ОСИ
420
5661306
100
AcDbText
 10
261.209724025974
 20
12.85945555555555
 30
0.0
 40
2.2859999999999996
  1
100
  7
ГОСТ
 72
1
 11
261.209724025974
 21
12.85945555555555
 31
0.0
100
AcDbText
 73
2
  0
LINE
  5
111
330
17
100
AcDbEntity
  8
02_ОСИ
100
AcDbLine
 10
281.0225487012987
 20
16.916399999999996
 30
0.0
 11
281.0225487012987
 21
15.681677777777773
 31
0.0
  0
TEXT
  5
112
330
17
100
AcDbEntity
  8
02_ОСИ
420
5661306
100
AcDbText
 10
281.0225487012987
 20
12.85945555555555
 30
0.0
 40
2.2859999999999996
  1
110
  7
ГОСТ
 72
1
 11
281.0225487012987
 21
12.85945555555555
 31
0.0
100
AcDbText
 73
2
  0
LINE
  5
113
330
17
100
AcDbEntity
  8
02_ОСИ
100
AcDbLine
 10
300.8353733766234
 20
16.916399999999996
 30
0.0
 11
300.8353733766234
 21
15.681677777777773
 31
0.0
  0
TEXT
  5
114
330
17
100
AcDbEntity
  8
02_ОСИ
420
5661306
100
AcDbText
 10
300.8353733766234
 20
12.85945555555555
 30
0.0
 40
2.2859999999999996
  1
120
  7
ГОСТ
 72
1
 11
300.8353733766234
 21
12.85945555555555
 31
0.0
100
AcDbText
 73
2
  0
LINE
  5
115
330
17
100
AcDbEntity
  8
02_ОСИ
100
AcDbLine
 10
320.64819805194804
 20
16.916399999999996
 30
0.0
 11
320.64819805194804
 21
15.681677777777773
 31
0.0
  0
TEXT
  5
116
330
17
100
AcDbEntity
  8
02_ОСИ
420
5661306
100
AcDbText
 10
320.64819805194804
 20
12.85945555555555
 30
0.0
 40
2.2859999999999996
  1
130
  7
ГОСТ
 72
1
 11
320.64819805194804
 21
12.85945555555555
 31
0.0
100
AcDbText
 73
2
  0
LINE
  5
117
330
17
100
AcDbEntity
  8
02_ОСИ
100
AcDbLine
 10
340.46102272727273
 20
16.916399999999996
 30
0.0
 11
340.46102272727273
 21
15.681677777777773
 31
0.0
  0
TEXT
  5
118
330
17
100
AcDbEntity
  8
02_ОСИ
420
5661306
100
AcDbText
 10
340.46102272727273
 20
12.85945555555555
 30
0.0
 40
2.2859999999999996
  1
140
  7
ГОСТ
 72
1
 11
340.46102272727273
 21
12.85945555555555
 31
0.0
100
AcDbText
 73
2
  0
TEXT
  5
119
330
17
100
AcDbEntity
  8
02_ОСИ
420
5661306
100
AcDbText
 10
360.2738474025974
 20
12.85945555555555
 30
0.0
 40
2.2859999999999996
  1
150
  7
ГОСТ
 72
1
 11
360.2738474025974
 21
12.85945555555555
 31
0.0
100
AcDbText
 73
2
  0
TEXT
  5
11A
330
17
100
AcDbEntity
  8
02_ОСИ
420
5661306
100
AcDbText
 10
44.33005555555555
 20
9.83284595124496
 30
0.0
 40
2.2859999999999996
  1
−5
  7
ГОСТ
 72
1
 11
44.33005555555555
 21
9.83284595124496
 31
0.0
100
AcDbText
 73
2
  0
LINE
  5
11B
330
17
100
AcDbEntity
  8
02_ОСИ
100
AcDbLine
 10
49.2125
 20
19.894915429524602
 30
0.0
 11
47.977777777777774
 21
19.894915429524602
 31
0.0
  0
TEXT
  5
11C
330
17
100
AcDbEntity
  8
02_ОСИ
420
5661306
100
AcDbText
 10
45.72705555555555
 20
19.5135433592121
 30
0.0
 40
2.2859999999999996
  1
0
  7
ГОСТ
 72
1
 11
45.72705555555555
 21
19.5135433592121
 31
0.0
100
AcDbText
 73
2
  0
LINE
  5
11D
330
17
100
AcDbEntity
  8
02_ОСИ
100
AcDbLine
 10
49.2125
 20
29.57561283749174
 30
0.0
 11
47.977777777777774
 21
29.57561283749174
 31
0.0
  0
TEXT
  5
11E
330
17
100
AcDbEntity
  8
02_ОСИ
420
5661306
100
AcDbText
 10
45.72705555555555
 20
29.194240767179238
 30
0.0
 40
2.2859999999999996
  1
5
  7
ГОСТ
 72
1
 11
45.72705555555555
 21
29.194240767179238
 31
0.0
100
AcDbText
 73
2
  0
LINE
  5
11F
330
17
100
AcDbEntity
  8
02_ОСИ
100
AcDbLine
 10
49.2125
 20
39.25631024545888
 30
0.0
 11
47.977777777777774
 21
39.25631024545888
 31
0.0
  0
TEXT
  5
120
330
17
100
AcDbEntity
  8
02_ОСИ
420
5661306
100
AcDbText
 10
44.71105555555555
 20
38.874938175146376
 30
0.0
 40
2.2859999999999996
  1
10
  7
ГОСТ
 72
1
 11
44.71105555555555
 21
38.874938175146376
 31
0.0
100
AcDbText
 73
2
  0
LINE
  5
121
330
17
100
AcDbEntity
  8
02_ОСИ
100
AcDbLine
 10
49.2125
 20
48.937007653426015
 30
0.0
 11
47.977777777777774
 21
48.937007653426015
 31
0.0
  0
TEXT
  5
122
330
17
100
AcDbEntity
  8
02_ОСИ
420
5661306
100
AcDbText
 10
44.71105555555555
 20
48.555635583113514
 30
0.0
 40
2.2859999999999996
  1
15
  7
ГОСТ
 72
1
 11
44.71105555555555
 21
48.555635583113514
 31
0.0
100
AcDbText
 73
2
  0
LINE
  5
123
330
17
100
AcDbEntity
  8
02_ОСИ
100
AcDbLine
 10
49.2125
 20
58.61770506139316
 30
0.0
 11
47.977777777777774
 21
58.61770506139316
 31
0.0
  0
TEXT
  5
124
330
17
100
AcDbEntity
  8
02_ОСИ
420
5661306
100
AcDbText
 10
44.71105555555555
 20
58.23633299108066
 30
0.0
 40
2.2859999999999996
  1
20
  7
ГОСТ
 72
1
 11
44.71105555555555
 21
58.23633299108066
 31
0.0
100
AcDbText
 73
2
  0
LINE
  5
125
330
17
100
AcDbEntity
  8
02_ОСИ
100
AcDbLine
 10
49.2125
 20
68.29840246936028
 30
0.0
 11
47.977777777777774
 21
68.29840246936028
 31
0.0
  0
TEXT
  5
126
330
17
100
AcDbEntity
  8
02_ОСИ
420
5661306
100
AcDbText
 10
44.71105555555555
 20
67.91703039904779
 30
0.0
 40
2.2859999999999996
  1
25
  7
ГОСТ
 72
1
 11
44.71105555555555
 21
67.91703039904779
 31
0.0
100
AcDbText
 73
2
  0
LINE
  5
127
330
17
100
AcDbEntity
  8
02_ОСИ
100
AcDbLine
 10
49.2125
 20
77.97909987732743
 30
0.0
 11
47.977777777777774
 21
77.97909987732743
 31
0.0
  0
TEXT
  5
128
330
17
100
AcDbEntity
  8
02_ОСИ
420
5661306
100
AcDbText
 10
44.71105555555555
 20
77.59772780701492
 30
0.0
 40
2.2859999999999996
  1
30
  7
ГОСТ
 72
1
 11
44.71105555555555
 21
77.59772780701492
 31
0.0
100
AcDbText
 73
2
  0
TEXT
  5
129
330
17
100
AcDbEntity
  8
02_ОСИ
420
5661306
100
AcDbText
 10
44.71105555555555
 20
87.27842521498206
 30
0.0
 40
2.2859999999999996
  1
35
  7
ГОСТ
 72
1
 11
44.71105555555555
 21
87.27842521498206
 31
0.0
100
AcDbText
 73
2
  0
TEXT
  5
12A
330
17
100
AcDbEntity
  8
02_ОСИ
420
1712948
100
AcDbText
 10
201.77124999999998
 20
8.273344444444438
 30
0.0
 40
2.2859999999999996
  1
x от кормового перпендикуляра, м
  7
ГОСТ
 72
1
 11
201.77124999999998
 21
8.273344444444438
 31
0.0
100
AcDbText
 73
2
  0
TEXT
  5
12B
330
17
100
AcDbEntity
  8
02_ОСИ
420
1712948
100
AcDbText
 10
39.68044444444444
 20
49.68006972477063
 30
0.0
 40
2.2859999999999996
  1
т/м
 50
90.0
  7
ГОСТ
 72
1
 11
39.68044444444444
 21
49.68006972477063
 31
0.0
100
AcDbText
 73
2
  0
LWPOLYLINE
  5
12C
330
17
100
AcDbEntity
  8
01_ЛИНИИ
370
70
420
11544116
100
AcDbPolyline
 90
141
 70
0
 10
63.08147727272727
 20
29.04304589751489
 10
65.06275974025974
 20
29.54413251525245
 10
67.04404220779222
 20
29.991267800541277
 10
69.02532467532467
 20
30.367260196759336
 10
71.00660714285713
 20
33.08027502253444
 10
72.9878896103896
 20
44.29645662293757
 10
74.96917207792207
 20
56.00147227654721
 10
76.95045454545453
 20
59.748837173496945
 10
78.93173701298701
 20
59.94657079676129
 10
80.91301948051947
 20
60.13498706032556
 10
82.89430194805195
 20
60.30704301193661
 10
84.87558441558441
 20
60.46076531035472
 10
86.85686688311688
 20
56.74048703051338
 10
88.83814935064935
 20
53.32379606336039
 10
90.81943181818181
 20
49.54260495295992
 10
92.80071428571429
 20
57.764751415977045
 10
94.78199675324674
 20
57.838278530522786
 10
96.76327922077921
 20
57.9126448223833
 10
98.74456168831169
 20
57.9819644850694
 10
100.72584415584416
 20
59.136978108706586
 10
102.70712662337662
 20
57.09157914584073
 10
104.68840909090908
 20
51.81415581652196
 10
106.66969155844154
 20
51.81415581652196
 10
108.65097402597402
 20
51.81415581652196
 10
110.63225649350649
 20
46.00573737174167
 10
112.61353896103897
 20
46.00573737174167
 10
114.59482142857144
 20
46.13942319308979
 10
116.57610389610389
 20
46.13942319308979
 10
118.55738636363637
 20
48.31758010988239
 10
120.53866883116883
 20
48.31758010988239
 10
122.51995129870132
 20
48.89842195436043
 10
124.50123376623377
 20
48.89842195436043
 10
126.48251623376622
 20
48.89842195436043
 10
128.4637987012987
 20
48.89842195436043
 10
130.44508116883117
 20
58.19189146600888
 10
132.42636363636365
 20
58.19189146600888
 10
134.4076461038961
 20
58.19189146600888
 10
136.38892857142858
 20
56.013734549216274
 10
138.37021103896103
 20
56.013734549216274
 10
140.3514935064935
 20
56.013734549216274
 10
142.33277597402596
 20
47.32530862556576
 10
144.31405844155844
 20
47.32530862556576
 10
146.2953409090909
 20
47.32530862556576
 10
148.27662337662338
 20
47.32530862556576
 10
150.25790584415583
 20
55.06986655193948
 10
152.23918831168834
 20
55.06986655193948
 10
154.22047077922076
 20
55.06986655193948
 10
156.20175324675324
 20
55.06986655193948
 10
158.18303571428572
 20
55.06986655193948
 10
160.1643181818182
 20
55.06986655193948
 10
162.14560064935065
 20
55.06986655193948
 10
164.1268831168831
 20
47.32530862556576
 10
166.1081655844156
 20
47.32530862556576
 10
168.08944805194804
 20
47.32530862556576
 10
170.07073051948052
 20
47.32530862556576
 10
172.05201298701297
 20
75.39933110867047
 10
174.03329545454545
 20
75.39933110867047
 10
176.0145779220779
 20
75.39933110867047
 10
177.99586038961039
 20
75.39933110867047
 10
179.97714285714284
 20
75.39933110867047
 10
181.95842532467535
 20
75.39933110867047
 10
183.9397077922078
 20
75.39933110867047
 10
185.92099025974025
 20
62.330389607914825
 10
187.9022727272727
 20
79.46522402001669
 10
189.8835551948052
 20
79.46522402001669
 10
191.86483766233766
 20
73.17277070483802
 10
193.84612012987014
 20
73.17277070483802
 10
195.8274025974026
 20
73.17277070483802
 10
197.80868506493508
 20
73.17277070483802
 10
199.78996753246753
 20
62.330389607914825
 10
201.77125000000004
 20
62.330389607914825
 10
203.7525324675325
 20
62.537833123799835
 10
205.7338149350649
 20
62.537833123799835
 10
207.71509740259737
 20
62.537833123799835
 10
209.69637987012987
 20
62.537833123799835
 10
211.67766233766233
 20
62.537833123799835
 10
213.6589448051948
 20
52.74649917402736
 10
215.64022727272726
 20
64.7803507211619
 10
217.62150974025977
 20
64.7803507211619
 10
219.60279220779222
 20
64.7803507211619
 10
221.58407467532467
 20
64.7803507211619
 10
223.56535714285715
 20
64.7803507211619
 10
225.5466396103896
 20
64.7803507211619
 10
227.52792207792206
 20
64.26404685940365
 10
229.50920454545457
 20
64.26404685940365
 10
231.49048701298702
 20
64.26404685940365
 10
233.4717694805195
 20
61.68252755061241
 10
235.45305194805195
 20
56.26133700215081
 10
237.4343344155844
 20
56.26133700215081
 10
239.4156168831169
 20
56.26133700215081
 10
241.39689935064936
 20
56.26133700215081
 10
243.37818181818182
 20
47.32530862556576
 10
245.35946428571427
 20
61.79355093347303
 10
247.34074675324675
 20
61.79355093347303
 10
249.3220292207792
 20
61.79355093347303
 10
251.3033116883117
 20
64.69776015586316
 10
253.2845941558442
 20
64.69776015586316
 10
255.26587662337664
 20
64.69776015586316
 10
257.2471590909091
 20
64.69776015586316
 10
259.22844155844155
 20
64.69776015586316
 10
261.209724025974
 20
64.69776015586316
 10
263.1910064935065
 20
64.69776015586316
 10
265.17228896103893
 20
64.69776015586316
 10
267.1535714285714
 20
64.69776015586316
 10
269.1348538961039
 20
47.32530862556576
 10
271.1161363636364
 20
46.72026503756782
 10
273.09741883116885
 20
49.04363241547993
 10
275.0787012987013
 20
49.04363241547993
 10
277.05998376623376
 20
49.04363241547993
 10
279.0412662337662
 20
49.04363241547993
 10
281.0225487012987
 20
49.04363241547993
 10
283.00383116883114
 20
48.32910474965378
 10
284.9851136363636
 20
48.32910474965378
 10
286.9663961038961
 20
48.32910474965378
 10
288.9476785714286
 20
48.32910474965378
 10
290.92896103896106
 20
48.32910474965378
 10
292.9102435064935
 20
48.32910474965378
 10
294.89152597402597
 20
46.00573737174167
 10
296.8728084415584
 20
48.5872566805329
 10
298.8540909090909
 20
45.884180394580135
 10
300.8353733766234
 20
45.82133859685869
 10
302.81665584415583
 20
45.647954350499454
 10
304.7979383116883
 20
47.56482981979681
 10
306.7792207792208
 20
47.23831438423995
 10
308.7605032467532
 20
46.86934732953994
 10
310.7417857142857
 20
46.48089224368022
 10
312.7230681818181
 20
46.096114026659166
 10
314.70435064935066
 20
43.478356200875055
 10
316.68563311688314
 20
42.944866302287224
 10
318.66691558441556
 20
42.36971517211044
 10
320.64819805194804
 20
41.794673227545545
 10
322.6294805194805
 20
34.76692559921526
 10
324.610762987013
 20
34.13714890122725
 10
326.5920454545455
 20
33.49804005521902
 10
328.57332792207797
 20
32.853546162191655
 10
330.5546103896104
 20
32.18314464792147
 10
332.53589285714287
 20
31.47649565697907
 10
334.5171753246753
 20
24.05304775346745
 10
336.4984577922078
 20
23.24505171233305
 10
338.47974025974025
 20
22.386885102640672
 10
340.46102272727273
 20
21.483786161094965
  0
LWPOLYLINE
  5
12D
330
17
100
AcDbEntity
  8
01_ЛИНИИ
370
70
420
1858698
100
AcDbPolyline
 90
141
 70
0
 10
63.08147727272727
 20
24.828515299604206
 10
65.06275974025974
 20
26.849434528119012
 10
67.04404220779222
 20
29.02752199826097
 10
69.02532467532467
 20
31.32286174937526
 10
71.00660714285713
 20
33.49041646063478
 10
72.9878896103896
 20
35.66560023671808
 10
74.96917207792207
 20
37.80687752007587
 10
76.95045454545453
 20
39.873355138508344
 10
78.93173701298701
 20
42.00595497436521
 10
80.91301948051947
 20
44.04910453883867
 10
82.89430194805195
 20
46.004664455743864
 10
84.87558441558441
 20
47.94556281718363
 10
86.85686688311688
 20
49.825688591902114
 10
88.83814935064935
 20
51.55817765360489
 10
90.81943181818181
 20
53.007908811977686
 10
92.80071428571429
 20
54.231054731936155
 10
94.78199675324674
 20
55.45837673867671
 10
96.76327922077921
 20
56.614706452376794
 10
98.74456168831169
 20
57.62740846396637
 10
100.72584415584416
 20
58.42964303748573
 10
102.70712662337662
 20
58.95747393138771
 10
104.68840909090908
 20
59.147764334863446
 10
106.66969155844154
 20
59.14776433486345
 10
108.65097402597402
 20
59.147764334863446
 10
110.63225649350649
 20
59.147764334863446
 10
112.61353896103897
 20
59.147764334863446
 10
114.59482142857144
 20
59.147764334863446
 10
116.57610389610389
 20
59.147764334863446
 10
118.55738636363637
 20
59.147764334863446
 10
120.53866883116883
 20
59.14776433486345
 10
122.51995129870132
 20
59.147764334863446
 10
124.50123376623377
 20
59.147764334863446
 10
126.48251623376622
 20
59.147764334863446
 10
128.4637987012987
 20
59.147764334863446
 10
130.44508116883117
 20
59.147764334863446
 10
132.42636363636365
 20
59.147764334863446
 10
134.4076461038961
 20
59.14776433486345
 10
136.38892857142858
 20
59.147764334863446
 10
138.37021103896103
 20
59.147764334863446
 10
140.3514935064935
 20
59.147764334863446
 10
142.33277597402596
 20
59.147764334863446
 10
144.31405844155844
 20
59.147764334863446
 10
146.2953409090909
 20
59.147764334863446
 10
148.27662337662338
 20
59.14776433486345
 10
150.25790584415583
 20
59.147764334863446
 10
152.23918831168834
 20
59.147764334863446
 10
154.22047077922076
 20
59.147764334863446
 10
156.20175324675324
 20
59.147764334863446
 10
158.18303571428572
 20
59.147764334863446
 10
160.1643181818182
 20
59.147764334863446
 10
162.14560064935065
 20
59.14776433486345
 10
164.1268831168831
 20
59.147764334863446
 10
166.1081655844156
 20
59.147764334863446
 10
168.08944805194804
 20
59.147764334863446
 10
170.07073051948052
 20
59.147764334863446
 10
172.05201298701297
 20
59.147764334863446
 10
174.03329545454545
 20
59.147764334863446
 10
176.0145779220779
 20
59.14776433486345
 10
177.99586038961039
 20
59.147764334863446
 10
179.97714285714284
 20
59.147764334863446
 10
181.95842532467535
 20
59.147764334863446
 10
183.9397077922078
 20
53.21019963232035
 10
185.92099025974025
 20
44.28396360835034
 10
187.9022727272727
 20
43.24595643510834
 10
189.8835551948052
 20
43.24595643510834
 10
191.86483766233766
 20
43.24595643510834
 10
193.84612012987014
 20
43.24595643510834
 10
195.8274025974026
 20
43.24595643510834
 10
197.80868506493508
 20
43.24595643510834
 10
199.78996753246753
 20
43.24595643510834
 10
201.77125000000004
 20
44.28396360835034
 10
203.7525324675325
 20
53.21019963232035
 10
205.7338149350649
 20
59.147764334863446
 10
207.71509740259737
 20
59.147764334863446
 10
209.69637987012987
 20
59.147764334863446
 10
211.67766233766233
 20
59.147764334863446
 10
213.6589448051948
 20
59.147764334863446
 10
215.64022727272726
 20
59.147764334863446
 10
217.62150974025977
 20
59.14776433486345
 10
219.60279220779222
 20
59.147764334863446
 10
221.58407467532467
 20
59.147764334863446
 10
223.56535714285715
 20
59.147764334863446
 10
225.5466396103896
 20
59.147764334863446
 10
227.52792207792206
 20
59.147764334863446
 10
229.50920454545457
 20
59.147764334863446
 10
231.49048701298702
 20
59.14776433486345
 10
233.4717694805195
 20
59.147764334863446
 10
235.45305194805195
 20
59.147764334863446
 10
237.4343344155844
 20
59.147764334863446
 10
239.4156168831169
 20
59.147764334863446
 10
241.39689935064936
 20
59.147764334863446
 10
243.37818181818182
 20
59.147764334863446
 10
245.35946428571427
 20
59.14776433486345
 10
247.34074675324675
 20
59.147764334863446
 10
249.3220292207792
 20
59.147764334863446
 10
251.3033116883117
 20
59.147764334863446
 10
253.2845941558442
 20
59.147764334863446
 10
255.26587662337664
 20
59.147764334863446
 10
257.2471590909091
 20
59.147764334863446
 10
259.22844155844155
 20
59.14776433486345
 10
261.209724025974
 20
59.147764334863446
 10
263.1910064935065
 20
59.147764334863446
 10
265.17228896103893
 20
59.147764334863446
 10
267.1535714285714
 20
59.147764334863446
 10
269.1348538961039
 20
59.147764334863446
 10
271.1161363636364
 20
59.147764334863446
 10
273.09741883116885
 20
59.14776433486345
 10
275.0787012987013
 20
59.147764334863446
 10
277.05998376623376
 20
59.147764334863446
 10
279.0412662337662
 20
59.147764334863446
 10
281.0225487012987
 20
59.147764334863446
 10
283.00383116883114
 20
59.147764334863446
 10
284.9851136363636
 20
59.147764334863446
 10
286.9663961038961
 20
59.14776433486345
 10
288.9476785714286
 20
59.147764334863446
 10
290.92896103896106
 20
59.147764334863446
 10
292.9102435064935
 20
59.147764334863446
 10
294.89152597402597
 20
59.147764334863446
 10
296.8728084415584
 20
59.147764334863446
 10
298.8540909090909
 20
59.147764334863446
 10
300.8353733766234
 20
58.81230041537209
 10
302.81665584415583
 20
57.88160100632044
 10
304.7979383116883
 20
56.475234283272144
 10
306.7792207792208
 20
54.71362772251661
 10
308.7605032467532
 20
52.71973331920386
 10
310.7417857142857
 20
50.614192808713526
 10
312.7230681818181
 20
48.512486212015375
 10
314.70435064935066
 20
45.81158716331081
 10
316.68563311688314
 20
42.37242680571934
 10
318.66691558441556
 20
38.760047361729605
 10
320.64819805194804
 20
35.42003588528079
 10
322.6294805194805
 20
32.11235487860778
 10
324.610762987013
 20
28.933848379009078
 10
326.5920454545455
 20
26.110042047187473
 10
328.57332792207797
 20
23.650580809583925
 10
330.5546103896104
 20
21.499097074253473
 10
332.53589285714287
 20
19.894915429524602
 10
334.5171753246753
 20
19.894915429524602
 10
336.4984577922078
 20
19.894915429524602
 10
338.47974025974025
 20
19.894915429524602
 10
340.46102272727273
 20
19.894915429524602
  0
HATCH
  5
12E
330
17
100
AcDbEntity
  8
05_ЗАЛИВКА
 62
7
420
11544116
100
AcDbHatch
 10
0.0
 20
0.0
 30
0.0
210
0.0
220
0.0
230
1.0
  2
SOLID
 70
1
 71
0
 91
1
 92
3
 72
0
 73
1
 93
284
 10
63.08147727272727
 20
19.894915429524602
 10
63.08147727272727
 20
29.04304589751489
 10
65.06275974025974
 20
29.54413251525245
 10
67.04404220779222
 20
29.991267800541277
 10
69.02532467532467
 20
30.367260196759336
 10
71.00660714285713
 20
33.08027502253444
 10
72.9878896103896
 20
44.29645662293757
 10
74.96917207792207
 20
56.00147227654721
 10
76.95045454545453
 20
59.748837173496945
 10
78.93173701298701
 20
59.94657079676129
 10
80.91301948051947
 20
60.13498706032556
 10
82.89430194805195
 20
60.30704301193661
 10
84.87558441558441
 20
60.46076531035472
 10
86.85686688311688
 20
56.74048703051338
 10
88.83814935064935
 20
53.32379606336039
 10
90.81943181818181
 20
49.54260495295992
 10
92.80071428571429
 20
57.764751415977045
 10
94.78199675324674
 20
57.838278530522786
 10
96.76327922077921
 20
57.9126448223833
 10
98.74456168831169
 20
57.9819644850694
 10
100.72584415584416
 20
59.136978108706586
 10
102.70712662337662
 20
57.09157914584073
 10
104.68840909090908
 20
51.81415581652196
 10
106.66969155844154
 20
51.81415581652196
 10
108.65097402597402
 20
51.81415581652196
 10
110.63225649350649
 20
46.00573737174167
 10
112.61353896103897
 20
46.00573737174167
 10
114.59482142857144
 20
46.13942319308979
 10
116.57610389610389
 20
46.13942319308979
 10
118.55738636363637
 20
48.31758010988239
 10
120.53866883116883
 20
48.31758010988239
 10
122.51995129870132
 20
48.89842195436043
 10
124.50123376623377
 20
48.89842195436043
 10
126.48251623376622
 20
48.89842195436043
 10
128.4637987012987
 20
48.89842195436043
 10
130.44508116883117
 20
58.19189146600888
 10
132.42636363636365
 20
58.19189146600888
 10
134.4076461038961
 20
58.19189146600888
 10
136.38892857142858
 20
56.013734549216274
 10
138.37021103896103
 20
56.013734549216274
 10
140.3514935064935
 20
56.013734549216274
 10
142.33277597402596
 20
47.32530862556576
 10
144.31405844155844
 20
47.32530862556576
 10
146.2953409090909
 20
47.32530862556576
 10
148.27662337662338
 20
47.32530862556576
 10
150.25790584415583
 20
55.06986655193948
 10
152.23918831168834
 20
55.06986655193948
 10
154.22047077922076
 20
55.06986655193948
 10
156.20175324675324
 20
55.06986655193948
 10
158.18303571428572
 20
55.06986655193948
 10
160.1643181818182
 20
55.06986655193948
 10
162.14560064935065
 20
55.06986655193948
 10
164.1268831168831
 20
47.32530862556576
 10
166.1081655844156
 20
47.32530862556576
 10
168.08944805194804
 20
47.32530862556576
 10
170.07073051948052
 20
47.32530862556576
 10
172.05201298701297
 20
75.39933110867047
 10
174.03329545454545
 20
75.39933110867047
 10
176.0145779220779
 20
75.39933110867047
 10
177.99586038961039
 20
75.39933110867047
 10
179.97714285714284
 20
75.39933110867047
 10
181.95842532467535
 20
75.39933110867047
 10
183.9397077922078
 20
75.39933110867047
 10
185.92099025974025
 20
62.330389607914825
 10
187.9022727272727
 20
79.46522402001669
 10
189.8835551948052
 20
79.46522402001669
 10
191.86483766233766
 20
73.17277070483802
 10
193.84612012987014
 20
73.17277070483802
 10
195.8274025974026
 20
73.17277070483802
 10
197.80868506493508
 20
73.17277070483802
 10
199.78996753246753
 20
62.330389607914825
 10
201.77125000000004
 20
62.330389607914825
 10
203.7525324675325
 20
62.537833123799835
 10
205.7338149350649
 20
62.537833123799835
 10
207.71509740259737
 20
62.537833123799835
 10
209.69637987012987
 20
62.537833123799835
 10
211.67766233766233
 20
62.537833123799835
 10
213.6589448051948
 20
52.74649917402736
 10
215.64022727272726
 20
64.7803507211619
 10
217.62150974025977
 20
64.7803507211619
 10
219.60279220779222
 20
64.7803507211619
 10
221.58407467532467
 20
64.7803507211619
 10
223.56535714285715
 20
64.7803507211619
 10
225.5466396103896
 20
64.7803507211619
 10
227.52792207792206
 20
64.26404685940365
 10
229.50920454545457
 20
64.26404685940365
 10
231.49048701298702
 20
64.26404685940365
 10
233.4717694805195
 20
61.68252755061241
 10
235.45305194805195
 20
56.26133700215081
 10
237.4343344155844
 20
56.26133700215081
 10
239.4156168831169
 20
56.26133700215081
 10
241.39689935064936
 20
56.26133700215081
 10
243.37818181818182
 20
47.32530862556576
 10
245.35946428571427
 20
61.79355093347303
 10
247.34074675324675
 20
61.79355093347303
 10
249.3220292207792
 20
61.79355093347303
 10
251.3033116883117
 20
64.69776015586316
 10
253.2845941558442
 20
64.69776015586316
 10
255.26587662337664
 20
64.69776015586316
 10
257.2471590909091
 20
64.69776015586316
 10
259.22844155844155
 20
64.69776015586316
 10
261.209724025974
 20
64.69776015586316
 10
263.1910064935065
 20
64.69776015586316
 10
265.17228896103893
 20
64.69776015586316
 10
267.1535714285714
 20
64.69776015586316
 10
269.1348538961039
 20
47.32530862556576
 10
271.1161363636364
 20
46.72026503756782
 10
273.09741883116885
 20
49.04363241547993
 10
275.0787012987013
 20
49.04363241547993
 10
277.05998376623376
 20
49.04363241547993
 10
279.0412662337662
 20
49.04363241547993
 10
281.0225487012987
 20
49.04363241547993
 10
283.00383116883114
 20
48.32910474965378
 10
284.9851136363636
 20
48.32910474965378
 10
286.9663961038961
 20
48.32910474965378
 10
288.9476785714286
 20
48.32910474965378
 10
290.92896103896106
 20
48.32910474965378
 10
292.9102435064935
 20
48.32910474965378
 10
294.89152597402597
 20
46.00573737174167
 10
296.8728084415584
 20
48.5872566805329
 10
298.8540909090909
 20
45.884180394580135
 10
300.8353733766234
 20
45.82133859685869
 10
302.81665584415583
 20
45.647954350499454
 10
304.7979383116883
 20
47.56482981979681
 10
306.7792207792208
 20
47.23831438423995
 10
308.7605032467532
 20
46.86934732953994
 10
310.7417857142857
 20
46.48089224368022
 10
312.7230681818181
 20
46.096114026659166
 10
314.70435064935066
 20
43.478356200875055
 10
316.68563311688314
 20
42.944866302287224
 10
318.66691558441556
 20
42.36971517211044
 10
320.64819805194804
 20
41.794673227545545
 10
322.6294805194805
 20
34.76692559921526
 10
324.610762987013
 20
34.13714890122725
 10
326.5920454545455
 20
33.49804005521902
 10
328.57332792207797
 20
32.853546162191655
 10
330.5546103896104
 20
32.18314464792147
 10
332.53589285714287
 20
31.47649565697907
 10
334.5171753246753
 20
24.05304775346745
 10
336.4984577922078
 20
23.24505171233305
 10
338.47974025974025
 20
22.386885102640672
 10
340.46102272727273
 20
21.483786161094965
 10
340.46102272727273
 20
19.894915429524602
 10
340.46102272727273
 20
19.894915429524602
 10
338.47974025974025
 20
19.894915429524602
 10
336.4984577922078
 20
19.894915429524602
 10
334.5171753246753
 20
19.894915429524602
 10
332.53589285714287
 20
19.894915429524602
 10
330.5546103896104
 20
19.894915429524602
 10
328.57332792207797
 20
19.894915429524602
 10
326.5920454545455
 20
19.894915429524602
 10
324.610762987013
 20
19.894915429524602
 10
322.6294805194805
 20
19.894915429524602
 10
320.64819805194804
 20
19.894915429524602
 10
318.66691558441556
 20
19.894915429524602
 10
316.68563311688314
 20
19.894915429524602
 10
314.70435064935066
 20
19.894915429524602
 10
312.7230681818181
 20
19.894915429524602
 10
310.7417857142857
 20
19.894915429524602
 10
308.7605032467532
 20
19.894915429524602
 10
306.7792207792208
 20
19.894915429524602
 10
304.7979383116883
 20
19.894915429524602
 10
302.81665584415583
 20
19.894915429524602
 10
300.8353733766234
 20
19.894915429524602
 10
298.8540909090909
 20
19.894915429524602
 10
296.8728084415584
 20
19.894915429524602
 10
294.89152597402597
 20
19.894915429524602
 10
292.9102435064935
 20
19.894915429524602
 10
290.92896103896106
 20
19.894915429524602
 10
288.9476785714286
 20
19.894915429524602
 10
286.9663961038961
 20
19.894915429524602
 10
284.9851136363636
 20
19.894915429524602
 10
283.00383116883114
 20
19.894915429524602
 10
281.0225487012987
 20
19.894915429524602
 10
279.0412662337662
 20
19.894915429524602
 10
277.05998376623376
 20
19.894915429524602
 10
275.0787012987013
 20
19.894915429524602
 10
273.09741883116885
 20
19.894915429524602
 10
271.1161363636364
 20
19.894915429524602
 10
269.1348538961039
 20
19.894915429524602
 10
267.1535714285714
 20
19.894915429524602
 10
265.17228896103893
 20
19.894915429524602
 10
263.1910064935065
 20
19.894915429524602
 10
261.209724025974
 20
19.894915429524602
 10
259.22844155844155
 20
19.894915429524602
 10
257.2471590909091
 20
19.894915429524602
 10
255.26587662337664
 20
19.894915429524602
 10
253.2845941558442
 20
19.894915429524602
 10
251.3033116883117
 20
19.894915429524602
 10
249.3220292207792
 20
19.894915429524602
 10
247.34074675324675
 20
19.894915429524602
 10
245.35946428571427
 20
19.894915429524602
 10
243.37818181818182
 20
19.894915429524602
 10
241.39689935064936
 20
19.894915429524602
 10
239.4156168831169
 20
19.894915429524602
 10
237.4343344155844
 20
19.894915429524602
 10
235.45305194805195
 20
19.894915429524602
 10
233.4717694805195
 20
19.894915429524602
 10
231.49048701298702
 20
19.894915429524602
 10
229.50920454545457
 20
19.894915429524602
 10
227.52792207792206
 20
19.894915429524602
 10
225.5466396103896
 20
19.894915429524602
 10
223.56535714285715
 20
19.894915429524602
 10
221.58407467532467
 20
19.894915429524602
 10
219.60279220779222
 20
19.894915429524602
 10
217.62150974025977
 20
19.894915429524602
 10
215.64022727272726
 20
19.894915429524602
 10
213.6589448051948
 20
19.894915429524602
 10
211.67766233766233
 20
19.894915429524602
 10
209.69637987012987
 20
19.894915429524602
 10
207.71509740259737
 20
19.894915429524602
 10
205.7338149350649
 20
19.894915429524602
 10
203.7525324675325
 20
19.894915429524602
 10
201.77125000000004
 20
19.894915429524602
 10
199.78996753246753
 20
19.894915429524602
 10
197.80868506493508
 20
19.894915429524602
 10
195.8274025974026
 20
19.894915429524602
 10
193.84612012987014
 20
19.894915429524602
 10
191.86483766233766
 20
19.894915429524602
 10
189.8835551948052
 20
19.894915429524602
 10
187.9022727272727
 20
19.894915429524602
 10
185.92099025974025
 20
19.894915429524602
 10
183.9397077922078
 20
19.894915429524602
 10
181.95842532467535
 20
19.894915429524602
 10
179.97714285714284
 20
19.894915429524602
 10
177.99586038961039
 20
19.894915429524602
 10
176.0145779220779
 20
19.894915429524602
 10
174.03329545454545
 20
19.894915429524602
 10
172.05201298701297
 20
19.894915429524602
 10
170.07073051948052
 20
19.894915429524602
 10
168.08944805194804
 20
19.894915429524602
 10
166.1081655844156
 20
19.894915429524602
 10
164.1268831168831
 20
19.894915429524602
 10
162.14560064935065
 20
19.894915429524602
 10
160.1643181818182
 20
19.894915429524602
 10
158.18303571428572
 20
19.894915429524602
 10
156.20175324675324
 20
19.894915429524602
 10
154.22047077922076
 20
19.894915429524602
 10
152.23918831168834
 20
19.894915429524602
 10
150.25790584415583
 20
19.894915429524602
 10
148.27662337662338
 20
19.894915429524602
 10
146.2953409090909
 20
19.894915429524602
 10
144.31405844155844
 20
19.894915429524602
 10
142.33277597402596
 20
19.894915429524602
 10
140.3514935064935
 20
19.894915429524602
 10
138.37021103896103
 20
19.894915429524602
 10
136.38892857142858
 20
19.894915429524602
 10
134.4076461038961
 20
19.894915429524602
 10
132.42636363636365
 20
19.894915429524602
 10
130.44508116883117
 20
19.894915429524602
 10
128.4637987012987
 20
19.894915429524602
 10
126.48251623376622
 20
19.894915429524602
 10
124.50123376623377
 20
19.894915429524602
 10
122.51995129870132
 20
19.894915429524602
 10
120.53866883116883
 20
19.894915429524602
 10
118.55738636363637
 20
19.894915429524602
 10
116.57610389610389
 20
19.894915429524602
 10
114.59482142857144
 20
19.894915429524602
 10
112.61353896103897
 20
19.894915429524602
 10
110.63225649350649
 20
19.894915429524602
 10
108.65097402597402
 20
19.894915429524602
 10
106.66969155844154
 20
19.894915429524602
 10
104.68840909090908
 20
19.894915429524602
 10
102.70712662337662
 20
19.894915429524602
 10
100.72584415584416
 20
19.894915429524602
 10
98.74456168831169
 20
19.894915429524602
 10
96.76327922077921
 20
19.894915429524602
 10
94.78199675324674
 20
19.894915429524602
 10
92.80071428571429
 20
19.894915429524602
 10
90.81943181818181
 20
19.894915429524602
 10
88.83814935064935
 20
19.894915429524602
 10
86.85686688311688
 20
19.894915429524602
 10
84.87558441558441
 20
19.894915429524602
 10
82.89430194805195
 20
19.894915429524602
 10
80.91301948051947
 20
19.894915429524602
 10
78.93173701298701
 20
19.894915429524602
 10
76.95045454545453
 20
19.894915429524602
 10
74.96917207792207
 20
19.894915429524602
 10
72.9878896103896
 20
19.894915429524602
 10
71.00660714285713
 20
19.894915429524602
 10
69.02532467532467
 20
19.894915429524602
 10
67.04404220779222
 20
19.894915429524602
 10
65.06275974025974
 20
19.894915429524602
 10
63.08147727272727
 20
19.894915429524602
 97
0
 75
0
 76
1
 98
0
  0
LWPOLYLINE
  5
12F
330
17
100
AcDbEntity
  8
01_ЛИНИИ
420
11544116
100
AcDbPolyline
 90
284
 70
1
 10
63.08147727272727
 20
19.894915429524602
 10
63.08147727272727
 20
29.04304589751489
 10
65.06275974025974
 20
29.54413251525245
 10
67.04404220779222
 20
29.991267800541277
 10
69.02532467532467
 20
30.367260196759336
 10
71.00660714285713
 20
33.08027502253444
 10
72.9878896103896
 20
44.29645662293757
 10
74.96917207792207
 20
56.00147227654721
 10
76.95045454545453
 20
59.748837173496945
 10
78.93173701298701
 20
59.94657079676129
 10
80.91301948051947
 20
60.13498706032556
 10
82.89430194805195
 20
60.30704301193661
 10
84.87558441558441
 20
60.46076531035472
 10
86.85686688311688
 20
56.74048703051338
 10
88.83814935064935
 20
53.32379606336039
 10
90.81943181818181
 20
49.54260495295992
 10
92.80071428571429
 20
57.764751415977045
 10
94.78199675324674
 20
57.838278530522786
 10
96.76327922077921
 20
57.9126448223833
 10
98.74456168831169
 20
57.9819644850694
 10
100.72584415584416
 20
59.136978108706586
 10
102.70712662337662
 20
57.09157914584073
 10
104.68840909090908
 20
51.81415581652196
 10
106.66969155844154
 20
51.81415581652196
 10
108.65097402597402
 20
51.81415581652196
 10
110.63225649350649
 20
46.00573737174167
 10
112.61353896103897
 20
46.00573737174167
 10
114.59482142857144
 20
46.13942319308979
 10
116.57610389610389
 20
46.13942319308979
 10
118.55738636363637
 20
48.31758010988239
 10
120.53866883116883
 20
48.31758010988239
 10
122.51995129870132
 20
48.89842195436043
 10
124.50123376623377
 20
48.89842195436043
 10
126.48251623376622
 20
48.89842195436043
 10
128.4637987012987
 20
48.89842195436043
 10
130.44508116883117
 20
58.19189146600888
 10
132.42636363636365
 20
58.19189146600888
 10
134.4076461038961
 20
58.19189146600888
 10
136.38892857142858
 20
56.013734549216274
 10
138.37021103896103
 20
56.013734549216274
 10
140.3514935064935
 20
56.013734549216274
 10
142.33277597402596
 20
47.32530862556576
 10
144.31405844155844
 20
47.32530862556576
 10
146.2953409090909
 20
47.32530862556576
 10
148.27662337662338
 20
47.32530862556576
 10
150.25790584415583
 20
55.06986655193948
 10
152.23918831168834
 20
55.06986655193948
 10
154.22047077922076
 20
55.06986655193948
 10
156.20175324675324
 20
55.06986655193948
 10
158.18303571428572
 20
55.06986655193948
 10
160.1643181818182
 20
55.06986655193948
 10
162.14560064935065
 20
55.06986655193948
 10
164.1268831168831
 20
47.32530862556576
 10
166.1081655844156
 20
47.32530862556576
 10
168.08944805194804
 20
47.32530862556576
 10
170.07073051948052
 20
47.32530862556576
 10
172.05201298701297
 20
75.39933110867047
 10
174.03329545454545
 20
75.39933110867047
 10
176.0145779220779
 20
75.39933110867047
 10
177.99586038961039
 20
75.39933110867047
 10
179.97714285714284
 20
75.39933110867047
 10
181.95842532467535
 20
75.39933110867047
 10
183.9397077922078
 20
75.39933110867047
 10
185.92099025974025
 20
62.330389607914825
 10
187.9022727272727
 20
79.46522402001669
 10
189.8835551948052
 20
79.46522402001669
 10
191.86483766233766
 20
73.17277070483802
 10
193.84612012987014
 20
73.17277070483802
 10
195.8274025974026
 20
73.17277070483802
 10
197.80868506493508
 20
73.17277070483802
 10
199.78996753246753
 20
62.330389607914825
 10
201.77125000000004
 20
62.330389607914825
 10
203.7525324675325
 20
62.537833123799835
 10
205.7338149350649
 20
62.537833123799835
 10
207.71509740259737
 20
62.537833123799835
 10
209.69637987012987
 20
62.537833123799835
 10
211.67766233766233
 20
62.537833123799835
 10
213.6589448051948
 20
52.74649917402736
 10
215.64022727272726
 20
64.7803507211619
 10
217.62150974025977
 20
64.7803507211619
 10
219.60279220779222
 20
64.7803507211619
 10
221.58407467532467
 20
64.7803507211619
 10
223.56535714285715
 20
64.7803507211619
 10
225.5466396103896
 20
64.7803507211619
 10
227.52792207792206
 20
64.26404685940365
 10
229.50920454545457
 20
64.26404685940365
 10
231.49048701298702
 20
64.26404685940365
 10
233.4717694805195
 20
61.68252755061241
 10
235.45305194805195
 20
56.26133700215081
 10
237.4343344155844
 20
56.26133700215081
 10
239.4156168831169
 20
56.26133700215081
 10
241.39689935064936
 20
56.26133700215081
 10
243.37818181818182
 20
47.32530862556576
 10
245.35946428571427
 20
61.79355093347303
 10
247.34074675324675
 20
61.79355093347303
 10
249.3220292207792
 20
61.79355093347303
 10
251.3033116883117
 20
64.69776015586316
 10
253.2845941558442
 20
64.69776015586316
 10
255.26587662337664
 20
64.69776015586316
 10
257.2471590909091
 20
64.69776015586316
 10
259.22844155844155
 20
64.69776015586316
 10
261.209724025974
 20
64.69776015586316
 10
263.1910064935065
 20
64.69776015586316
 10
265.17228896103893
 20
64.69776015586316
 10
267.1535714285714
 20
64.69776015586316
 10
269.1348538961039
 20
47.32530862556576
 10
271.1161363636364
 20
46.72026503756782
 10
273.09741883116885
 20
49.04363241547993
 10
275.0787012987013
 20
49.04363241547993
 10
277.05998376623376
 20
49.04363241547993
 10
279.0412662337662
 20
49.04363241547993
 10
281.0225487012987
 20
49.04363241547993
 10
283.00383116883114
 20
48.32910474965378
 10
284.9851136363636
 20
48.32910474965378
 10
286.9663961038961
 20
48.32910474965378
 10
288.9476785714286
 20
48.32910474965378
 10
290.92896103896106
 20
48.32910474965378
 10
292.9102435064935
 20
48.32910474965378
 10
294.89152597402597
 20
46.00573737174167
 10
296.8728084415584
 20
48.5872566805329
 10
298.8540909090909
 20
45.884180394580135
 10
300.8353733766234
 20
45.82133859685869
 10
302.81665584415583
 20
45.647954350499454
 10
304.7979383116883
 20
47.56482981979681
 10
306.7792207792208
 20
47.23831438423995
 10
308.7605032467532
 20
46.86934732953994
 10
310.7417857142857
 20
46.48089224368022
 10
312.7230681818181
 20
46.096114026659166
 10
314.70435064935066
 20
43.478356200875055
 10
316.68563311688314
 20
42.944866302287224
 10
318.66691558441556
 20
42.36971517211044
 10
320.64819805194804
 20
41.794673227545545
 10
322.6294805194805
 20
34.76692559921526
 10
324.610762987013
 20
34.13714890122725
 10
326.5920454545455
 20
33.49804005521902
 10
328.57332792207797
 20
32.853546162191655
 10
330.5546103896104
 20
32.18314464792147
 10
332.53589285714287
 20
31.47649565697907
 10
334.5171753246753
 20
24.05304775346745
 10
336.4984577922078
 20
23.24505171233305
 10
338.47974025974025
 20
22.386885102640672
 10
340.46102272727273
 20
21.483786161094965
 10
340.46102272727273
 20
19.894915429524602
 10
340.46102272727273
 20
19.894915429524602
 10
338.47974025974025
 20
19.894915429524602
 10
336.4984577922078
 20
19.894915429524602
 10
334.5171753246753
 20
19.894915429524602
 10
332.53589285714287
 20
19.894915429524602
 10
330.5546103896104
 20
19.894915429524602
 10
328.57332792207797
 20
19.894915429524602
 10
326.5920454545455
 20
19.894915429524602
 10
324.610762987013
 20
19.894915429524602
 10
322.6294805194805
 20
19.894915429524602
 10
320.64819805194804
 20
19.894915429524602
 10
318.66691558441556
 20
19.894915429524602
 10
316.68563311688314
 20
19.894915429524602
 10
314.70435064935066
 20
19.894915429524602
 10
312.7230681818181
 20
19.894915429524602
 10
310.7417857142857
 20
19.894915429524602
 10
308.7605032467532
 20
19.894915429524602
 10
306.7792207792208
 20
19.894915429524602
 10
304.7979383116883
 20
19.894915429524602
 10
302.81665584415583
 20
19.894915429524602
 10
300.8353733766234
 20
19.894915429524602
 10
298.8540909090909
 20
19.894915429524602
 10
296.8728084415584
 20
19.894915429524602
 10
294.89152597402597
 20
19.894915429524602
 10
292.9102435064935
 20
19.894915429524602
 10
290.92896103896106
 20
19.894915429524602
 10
288.9476785714286
 20
19.894915429524602
 10
286.9663961038961
 20
19.894915429524602
 10
284.9851136363636
 20
19.894915429524602
 10
283.00383116883114
 20
19.894915429524602
 10
281.0225487012987
 20
19.894915429524602
 10
279.0412662337662
 20
19.894915429524602
 10
277.05998376623376
 20
19.894915429524602
 10
275.0787012987013
 20
19.894915429524602
 10
273.09741883116885
 20
19.894915429524602
 10
271.1161363636364
 20
19.894915429524602
 10
269.1348538961039
 20
19.894915429524602
 10
267.1535714285714
 20
19.894915429524602
 10
265.17228896103893
 20
19.894915429524602
 10
263.1910064935065
 20
19.894915429524602
 10
261.209724025974
 20
19.894915429524602
 10
259.22844155844155
 20
19.894915429524602
 10
257.2471590909091
 20
19.894915429524602
 10
255.26587662337664
 20
19.894915429524602
 10
253.2845941558442
 20
19.894915429524602
 10
251.3033116883117
 20
19.894915429524602
 10
249.3220292207792
 20
19.894915429524602
 10
247.34074675324675
 20
19.894915429524602
 10
245.35946428571427
 20
19.894915429524602
 10
243.37818181818182
 20
19.894915429524602
 10
241.39689935064936
 20
19.894915429524602
 10
239.4156168831169
 20
19.894915429524602
 10
237.4343344155844
 20
19.894915429524602
 10
235.45305194805195
 20
19.894915429524602
 10
233.4717694805195
 20
19.894915429524602
 10
231.49048701298702
 20
19.894915429524602
 10
229.50920454545457
 20
19.894915429524602
 10
227.52792207792206
 20
19.894915429524602
 10
225.5466396103896
 20
19.894915429524602
 10
223.56535714285715
 20
19.894915429524602
 10
221.58407467532467
 20
19.894915429524602
 10
219.60279220779222
 20
19.894915429524602
 10
217.62150974025977
 20
19.894915429524602
 10
215.64022727272726
 20
19.894915429524602
 10
213.6589448051948
 20
19.894915429524602
 10
211.67766233766233
 20
19.894915429524602
 10
209.69637987012987
 20
19.894915429524602
 10
207.71509740259737
 20
19.894915429524602
 10
205.7338149350649
 20
19.894915429524602
 10
203.7525324675325
 20
19.894915429524602
 10
201.77125000000004
 20
19.894915429524602
 10
199.78996753246753
 20
19.894915429524602
 10
197.80868506493508
 20
19.894915429524602
 10
195.8274025974026
 20
19.894915429524602
 10
193.84612012987014
 20
19.894915429524602
 10
191.86483766233766
 20
19.894915429524602
 10
189.8835551948052
 20
19.894915429524602
 10
187.9022727272727
 20
19.894915429524602
 10
185.92099025974025
 20
19.894915429524602
 10
183.9397077922078
 20
19.894915429524602
 10
181.95842532467535
 20
19.894915429524602
 10
179.97714285714284
 20
19.894915429524602
 10
177.99586038961039
 20
19.894915429524602
 10
176.0145779220779
 20
19.894915429524602
 10
174.03329545454545
 20
19.894915429524602
 10
172.05201298701297
 20
19.894915429524602
 10
170.07073051948052
 20
19.894915429524602
 10
168.08944805194804
 20
19.894915429524602
 10
166.1081655844156
 20
19.894915429524602
 10
164.1268831168831
 20
19.894915429524602
 10
162.14560064935065
 20
19.894915429524602
 10
160.1643181818182
 20
19.894915429524602
 10
158.18303571428572
 20
19.894915429524602
 10
156.20175324675324
 20
19.894915429524602
 10
154.22047077922076
 20
19.894915429524602
 10
152.23918831168834
 20
19.894915429524602
 10
150.25790584415583
 20
19.894915429524602
 10
148.27662337662338
 20
19.894915429524602
 10
146.2953409090909
 20
19.894915429524602
 10
144.31405844155844
 20
19.894915429524602
 10
142.33277597402596
 20
19.894915429524602
 10
140.3514935064935
 20
19.894915429524602
 10
138.37021103896103
 20
19.894915429524602
 10
136.38892857142858
 20
19.894915429524602
 10
134.4076461038961
 20
19.894915429524602
 10
132.42636363636365
 20
19.894915429524602
 10
130.44508116883117
 20
19.894915429524602
 10
128.4637987012987
 20
19.894915429524602
 10
126.48251623376622
 20
19.894915429524602
 10
124.50123376623377
 20
19.894915429524602
 10
122.51995129870132
 20
19.894915429524602
 10
120.53866883116883
 20
19.894915429524602
 10
118.55738636363637
 20
19.894915429524602
 10
116.57610389610389
 20
19.894915429524602
 10
114.59482142857144
 20
19.894915429524602
 10
112.61353896103897
 20
19.894915429524602
 10
110.63225649350649
 20
19.894915429524602
 10
108.65097402597402
 20
19.894915429524602
 10
106.66969155844154
 20
19.894915429524602
 10
104.68840909090908
 20
19.894915429524602
 10
102.70712662337662
 20
19.894915429524602
 10
100.72584415584416
 20
19.894915429524602
 10
98.74456168831169
 20
19.894915429524602
 10
96.76327922077921
 20
19.894915429524602
 10
94.78199675324674
 20
19.894915429524602
 10
92.80071428571429
 20
19.894915429524602
 10
90.81943181818181
 20
19.894915429524602
 10
88.83814935064935
 20
19.894915429524602
 10
86.85686688311688
 20
19.894915429524602
 10
84.87558441558441
 20
19.894915429524602
 10
82.89430194805195
 20
19.894915429524602
 10
80.91301948051947
 20
19.894915429524602
 10
78.93173701298701
 20
19.894915429524602
 10
76.95045454545453
 20
19.894915429524602
 10
74.96917207792207
 20
19.894915429524602
 10
72.9878896103896
 20
19.894915429524602
 10
71.00660714285713
 20
19.894915429524602
 10
69.02532467532467
 20
19.894915429524602
 10
67.04404220779222
 20
19.894915429524602
 10
65.06275974025974
 20
19.894915429524602
 10
63.08147727272727
 20
19.894915429524602
  0
HATCH
  5
130
330
17
100
AcDbEntity
  8
05_ЗАЛИВКА
 62
7
420
16777215
100
AcDbHatch
 10
0.0
 20
0.0
 30
0.0
210
0.0
220
0.0
230
1.0
  2
SOLID
 70
1
 71
0
 91
1
 92
3
 72
0
 73
1
 93
17
 10
300.54549999999995
 20
69.61525116829128
 10
352.1075
 20
69.61525116829128
 10
352.3853125
 20
69.6549386682913
 10
352.7028125
 20
69.97243866829128
 10
352.74249999999995
 20
70.25025116829129
 10
352.74249999999995
 20
80.22123944954129
 10
352.7028125
 20
80.49905194954128
 10
352.3853125
 20
80.81655194954129
 10
352.1075
 20
80.85623944954128
 10
300.54549999999995
 20
80.85623944954128
 10
300.2676875
 20
80.81655194954129
 10
299.95018749999997
 20
80.49905194954128
 10
299.91049999999996
 20
80.22123944954129
 10
299.91049999999996
 20
70.25025116829129
 10
299.95018749999997
 20
69.97243866829128
 10
300.2676875
 20
69.6549386682913
 10
300.54549999999995
 20
69.61525116829128
 97
0
 75
0
 76
1
 98
0
  0
LWPOLYLINE
  5
131
330
17
100
AcDbEntity
  8
07_ЛЕГЕНДА
370
35
420
13421772
100
AcDbPolyline
 90
17
 70
1
 10
300.54549999999995
 20
69.61525116829128
 10
352.1075
 20
69.61525116829128
 10
352.3853125
 20
69.6549386682913
 10
352.7028125
 20
69.97243866829128
 10
352.74249999999995
 20
70.25025116829129
 10
352.74249999999995
 20
80.22123944954129
 10
352.7028125
 20
80.49905194954128
 10
352.3853125
 20
80.81655194954129
 10
352.1075
 20
80.85623944954128
 10
300.54549999999995
 20
80.85623944954128
 10
300.2676875
 20
80.81655194954129
 10
299.95018749999997
 20
80.49905194954128
 10
299.91049999999996
 20
80.22123944954129
 10
299.91049999999996
 20
70.25025116829129
 10
299.95018749999997
 20
69.97243866829128
 10
300.2676875
 20
69.6549386682913
 10
300.54549999999995
 20
69.61525116829128
  0
LWPOLYLINE
  5
132
330
17
100
AcDbEntity
  8
07_ЛЕГЕНДА
370
70
420
11544116
100
AcDbPolyline
 90
3
 70
0
 10
301.1805
 20
77.90348944954128
 10
304.3555
 20
77.90348944954128
 10
307.53049999999996
 20
77.90348944954128
  0
LWPOLYLINE
  5
133
330
17
100
AcDbEntity
  8
07_ЛЕГЕНДА
370
70
420
1858698
100
AcDbPolyline
 90
3
 70
0
 10
301.1805
 20
72.75924530891628
 10
304.3555
 20
72.75924530891628
 10
307.53049999999996
 20
72.75924530891628
  0
TEXT
  5
134
330
17
100
AcDbEntity
  8
07_ЛЕГЕНДА
420
1712948
100
AcDbText
 10
326.8345
 20
77.80786737922878
 30
0.0
 40
2.2859999999999996
  1
нагрузка масс w(x)
  7
ГОСТ
 72
1
 11
326.8345
 21
77.80786737922878
 31
0.0
100
AcDbText
 73
2
  0
TEXT
  5
135
330
17
100
AcDbEntity
  8
07_ЛЕГЕНДА
420
1712948
100
AcDbText
 10
330.7715
 20
72.66362323860378
 30
0.0
 40
2.2859999999999996
  1
силы поддержания b(x)
  7
ГОСТ
 72
1
 11
330.7715
 21
72.66362323860378
 31
0.0
100
AcDbText
 73
2
  0
TEXT
  5
136
330
17
100
AcDbEntity
  8
04_ТЕКСТ
420
1712948
100
AcDbText
 10
67.564
 20
177.69416666666663
 30
0.0
 40
3.8099999999999996
  1
Строевая по шпангоутам и нагрузка масс
  7
ГОСТ
 72
1
 11
67.564
 21
177.69416666666663
 31
0.0
100
AcDbText
 73
2
  0
TEXT
  5
137
330
17
100
AcDbEntity
  8
04_ТЕКСТ
420
5661306
100
AcDbText
 10
74.16799999999999
 20
174.09857562934027
 30
0.0
 40
2.413
  1
Слева корма. Площади погружённых сечений и распределение массы по длине
  7
ГОСТ
 72
1
 11
74.16799999999999
 21
174.09857562934027
 31
0.0
100
AcDbText
 73
2
  0
TEXT
  5
138
330
17
100
AcDbEntity
  8
04_ТЕКСТ
420
5661306
100
AcDbText
 10
358.14
 20
180.97462792968747
 30
0.0
 40
2.2859999999999996
  1
«Волжский Горизонт» · проект 2026
  7
ГОСТ
 72
1
 11
358.14
 21
180.97462792968747
 31
0.0
100
AcDbText
 73
2
  0
TEXT
  5
139
330
17
100
AcDbEntity
  8
04_ТЕКСТ
420
1712948
100
AcDbText
 10
67.564
 20
177.69416666666663
 30
0.0
 40
3.8099999999999996
  1
Строевая по шпангоутам и нагрузка масс
  7
ГОСТ
 72
1
 11
67.564
 21
177.69416666666663
 31
0.0
100
AcDbText
 73
2
  0
TEXT
  5
13A
330
17
100
AcDbEntity
  8
00_РАМКА
100
AcDbText
 10
2.0
 20
-4.5
 30
0.0
 40
2.5
  1
«Волжский Горизонт» · 03 строевая и нагрузка · лист 394 × 188 мм, 1 мм = 1 мм листа; величины по осям — как на графике
  7
ГОСТ
 11
2.0
 21
-4.5
 31
0.0
100
AcDbText
  0
ENDSEC
  0
SECTION
  2
OBJECTS
  0
DICTIONARY
  5
A
330
0
100
AcDbDictionary
281
1
  3
ACAD_COLOR
350
B
  3
ACAD_GROUP
350
C
  3
ACAD_LAYOUT
350
D
  3
ACAD_MATERIAL
350
E
  3
ACAD_MLEADERSTYLE
350
F
  3
ACAD_MLINESTYLE
350
10
  3
ACAD_PLOTSETTINGS
350
11
  3
ACAD_PLOTSTYLENAME
350
12
  3
ACAD_SCALELIST
350
14
  3
ACAD_TABLESTYLE
350
15
  3
ACAD_VISUALSTYLE
350
16
  3
EZDXF_META
350
2D
  0
DICTIONARY
  5
B
330
A
100
AcDbDictionary
281
1
  0
DICTIONARY
  5
C
330
A
100
AcDbDictionary
281
1
  0
DICTIONARY
  5
D
330
A
100
AcDbDictionary
281
1
  3
Model
350
1A
  3
Layout1
350
1E
  0
DICTIONARY
  5
E
330
A
100
AcDbDictionary
281
1
  3
ByBlock
350
1F
  3
ByLayer
350
20
  3
Global
350
21
  0
DICTIONARY
  5
F
330
A
100
AcDbDictionary
281
1
  3
Standard
350
2C
  0
DICTIONARY
  5
10
330
A
100
AcDbDictionary
281
1
  3
Standard
350
22
  0
DICTIONARY
  5
11
330
A
100
AcDbDictionary
281
1
  0
ACDBDICTIONARYWDFLT
  5
12
330
A
100
AcDbDictionary
281
1
  3
Normal
350
13
100
AcDbDictionaryWithDefault
340
13
  0
ACDBPLACEHOLDER
  5
13
330
12
  0
DICTIONARY
  5
14
330
A
100
AcDbDictionary
281
1
  0
DICTIONARY
  5
15
330
A
100
AcDbDictionary
281
1
  0
DICTIONARY
  5
16
330
A
100
AcDbDictionary
281
1
  3
2dWireframe
350
5A
  3
Basic
350
5B
  3
Brighten
350
5C
  3
ColorChange
350
5D
  3
Conceptual
350
5E
  3
Dim
350
5F
  3
EdgeColorOff
350
60
  3
Facepattern
350
61
  3
Flat
350
62
  3
FlatWithEdges
350
63
  3
Gouraud
350
64
  3
GouraudWithEdges
350
65
  3
Hidden
350
66
  3
JitterOff
350
67
  3
Linepattern
350
68
  3
Modeling
350
69
  3
OverhangOff
350
6A
  3
Realistic
350
6B
  3
Shaded
350
6C
  3
Shaded with edges
350
6D
  3
Shades of Gray
350
6E
  3
Sketchy
350
6F
  3
Thicken
350
70
  3
Wireframe
350
71
  3
X-Ray
350
72
  0
LAYOUT
  5
1A
330
D
100
AcDbPlotSettings
  1

  4
A3
  6

 40
7.5
 41
20.0
 42
7.5
 43
20.0
 44
420.0
 45
297.0
 46
0.0
 47
0.0
 48
0.0
 49
0.0
140
0.0
141
0.0
142
1.0
143
1.0
 70
1024
 72
1
 73
0
 74
5
  7

 75
16
 76
0
 77
2
 78
300
147
1.0
148
0.0
149
0.0
100
AcDbLayout
  1
Model
 70
1
 71
0
 10
0.0
 20
0.0
 11
420.0
 21
297.0
 12
0.0
 22
0.0
 32
0.0
 14
1e+20
 24
1e+20
 34
1e+20
 15
-1e+20
 25
-1e+20
 35
-1e+20
146
0.0
 13
0.0
 23
0.0
 33
0.0
 16
1.0
 26
0.0
 36
0.0
 17
0.0
 27
1.0
 37
0.0
 76
1
330
17
  0
LAYOUT
  5
1E
330
D
100
AcDbPlotSettings
  1

  4
A3
  6

 40
7.5
 41
20.0
 42
7.5
 43
20.0
 44
420.0
 45
297.0
 46
0.0
 47
0.0
 48
0.0
 49
0.0
140
0.0
141
0.0
142
1.0
143
1.0
 70
0
 72
1
 73
0
 74
5
  7

 75
16
 76
0
 77
2
 78
300
147
1.0
148
0.0
149
0.0
100
AcDbLayout
  1
Layout1
 70
1
 71
1
 10
0.0
 20
0.0
 11
420.0
 21
297.0
 12
0.0
 22
0.0
 32
0.0
 14
1e+20
 24
1e+20
 34
1e+20
 15
-1e+20
 25
-1e+20
 35
-1e+20
146
0.0
 13
0.0
 23
0.0
 33
0.0
 16
1.0
 26
0.0
 36
0.0
 17
0.0
 27
1.0
 37
0.0
 76
1
330
1B
  0
MATERIAL
  5
1F
102
{ACAD_REACTORS
330
E
102
}
330
E
100
AcDbMaterial
  1
ByBlock
  2

 70
0
 40
1.0
 71
1
 41
1.0
 91
-1023410177
 42
1.0
 72
1
  3

 73
1
 74
1
 75
1
 44
0.5
 73
0
 45
1.0
 46
1.0
 77
1
  4

 78
1
 79
1
170
1
 48
1.0
171
1
  6

172
1
173
1
174
1
140
1.0
141
1.0
175
1
  7

176
1
177
1
178
1
143
1.0
179
1
  8

270
1
271
1
272
1
145
1.0
146
1.0
273
1
  9

274
1
275
1
276
1
 42
1.0
 72
1
  3

 73
1
 74
1
 75
1
 94
63
  0
MATERIAL
  5
20
102
{ACAD_REACTORS
330
E
102
}
330
E
100
AcDbMaterial
  1
ByLayer
  2

 70
0
 40
1.0
 71
1
 41
1.0
 91
-1023410177
 42
1.0
 72
1
  3

 73
1
 74
1
 75
1
 44
0.5
 73
0
 45
1.0
 46
1.0
 77
1
  4

 78
1
 79
1
170
1
 48
1.0
171
1
  6

172
1
173
1
174
1
140
1.0
141
1.0
175
1
  7

176
1
177
1
178
1
143
1.0
179
1
  8

270
1
271
1
272
1
145
1.0
146
1.0
273
1
  9

274
1
275
1
276
1
 42
1.0
 72
1
  3

 73
1
 74
1
 75
1
 94
63
  0
MATERIAL
  5
21
102
{ACAD_REACTORS
330
E
102
}
330
E
100
AcDbMaterial
  1
Global
  2

 70
0
 40
1.0
 71
1
 41
1.0
 91
-1023410177
 42
1.0
 72
1
  3

 73
1
 74
1
 75
1
 44
0.5
 73
0
 45
1.0
 46
1.0
 77
1
  4

 78
1
 79
1
170
1
 48
1.0
171
1
  6

172
1
173
1
174
1
140
1.0
141
1.0
175
1
  7

176
1
177
1
178
1
143
1.0
179
1
  8

270
1
271
1
272
1
145
1.0
146
1.0
273
1
  9

274
1
275
1
276
1
 42
1.0
 72
1
  3

 73
1
 74
1
 75
1
 94
63
  0
MLINESTYLE
  5
22
102
{ACAD_REACTORS
330
10
102
}
330
10
100
AcDbMlineStyle
  2
Standard
 70
0
  3

 62
256
 51
90.0
 52
90.0
 71
2
 49
0.5
 62
256
  6
BYLAYER
 49
-0.5
 62
256
  6
BYLAYER
  0
MLEADERSTYLE
  5
2C
102
{ACAD_REACTORS
330
F
102
}
330
F
100
AcDbMLeaderStyle
179
2
170
2
171
1
172
0
 90
2
 40
0.0
 41
0.0
173
1
 91
-1056964608
 92
-2
290
1
 42
2.0
291
1
 43
8.0
  3
Standard
 44
4.0
300

342
29
174
1
175
1
176
0
178
1
 93
-1056964608
 45
4.0
292
0
297
0
 46
4.0
 94
-1056964608
 47
1.0
 49
1.0
140
1.0
294
1
141
0.0
177
0
142
1.0
295
0
296
0
143
3.75
271
0
272
9
273
9
  0
DICTIONARY
  5
2D
330
A
100
AcDbDictionary
280
1
281
1
  3
CREATED_BY_EZDXF
350
2E
  3
WRITTEN_BY_EZDXF
350
13D
  0
DICTIONARYVAR
  5
2E
330
2D
100
DictionaryVariables
280
0
  1
1.4.4 @ 2026-09-22T11:45:14.716809+00:00
  0
VISUALSTYLE
  5
5A
102
{ACAD_REACTORS
330
16
102
}
330
16
100
AcDbVisualStyle
  2
2dWireframe
 70
4
177
3
291
0
 70
58
 90
2
176
1
 90
2
176
1
 90
0
176
1
 90
0
176
1
 40
0.6
176
1
 40
30.0
176
1
 62
7
420
16777215
176
1
 90
1
176
1
 90
4
176
1
 62
7
176
1
 62
257
176
1
 90
1
176
1
 90
1
176
1
 40
1.0
176
1
 90
8
176
1
 62
7
176
1
 40
1.0
176
1
 90
1
176
1
 90
6
176
1
 90
2
176
1
 62
7
176
1
 90
5
176
1
 90
0
176
1
 90
0
176
1
290
0
176
1
 90
1
176
1
 40
0.0
176
1
 90
0
176
1
290
1
176
1
290
1
176
1
290
0
176
1
290
0
176
1
290
0
176
1
290
0
176
1
290
0
176
1
290
0
176
1
290
0
176
1
 90
50
176
1
 40
0.0
176
1
 40
1.0
176
1
 90
0
176
1
 62
18
420
0
176
1
 90
50
176
1
 90
3
176
1
 62
5
420
255
176
1
290
0
176
1
 90
50
176
1
 90
50
176
1
 90
50
176
1
290
0
176
1
 90
50
176
1
 62
256
176
0
 40
1.0
176
0
 90
2
176
1
  1
strokes_ogs.tif
176
1
290
0
176
1
 40
1.0
176
1
 40
1.0
176
1
  0
VISUALSTYLE
  5
5B
102
{ACAD_REACTORS
330
16
102
}
330
16
100
AcDbVisualStyle
  2
Basic
 70
7
177
3
291
1
 70
58
 90
2
176
1
 90
2
176
1
 90
0
176
1
 90
1
176
1
 40
0.6
176
1
 40
30.0
176
1
 62
7
420
16777215
176
1
 90
1
176
1
 90
4
176
1
 62
7
176
1
 62
257
176
1
 90
1
176
1
 90
1
176
1
 40
1.0
176
1
 90
8
176
1
 62
7
176
1
 40
1.0
176
1
 90
1
176
1
 90
6
176
1
 90
2
176
1
 62
7
176
1
 90
5
176
1
 90
0
176
1
 90
0
176
1
290
0
176
1
 90
1
176
1
 40
0.0
176
1
 90
0
176
1
290
0
176
1
290
1
176
1
290
1
176
1
290
0
176
1
290
0
176
1
290
0
176
1
290
0
176
1
290
0
176
1
290
0
176
1
 90
50
176
1
 40
0.0
176
1
 40
1.0
176
1
 90
0
176
1
 62
18
420
0
176
1
 90
50
176
1
 90
3
176
1
 62
5
420
255
176
1
290
0
176
1
 90
50
176
1
 90
50
176
1
 90
50
176
1
290
0
176
1
 90
50
176
1
 62
256
176
0
 40
1.0
176
0
 90
2
176
1
  1
strokes_ogs.tif
176
1
290
0
176
1
 40
1.0
176
1
 40
1.0
176
1
  0
VISUALSTYLE
  5
5C
102
{ACAD_REACTORS
330
16
102
}
330
16
100
AcDbVisualStyle
  2
Brighten
 70
12
177
3
291
1
 70
58
 90
2
176
1
 90
2
176
1
 90
0
176
1
 90
2
176
1
 40
0.6
176
1
 40
30.0
176
1
 62
7
420
16777215
176
1
 90
1
176
1
 90
4
176
1
 62
7
176
1
 62
257
176
1
 90
1
176
1
 90
1
176
1
 40
1.0
176
1
 90
8
176
1
 62
7
176
1
 40
1.0
176
1
 90
1
176
1
 90
6
176
1
 90
2
176
1
 62
7
176
1
 90
5
176
1
 90
0
176
1
 90
0
176
1
290
0
176
1
 90
1
176
1
 40
0.0
176
1
 90
0
176
1
290
0
176
1
290
1
176
1
290
1
176
1
290
0
176
1
290
0
176
1
290
0
176
1
290
0
176
1
290
0
176
1
290
0
176
1
 90
50
176
1
 40
0.0
176
1
 40
1.0
176
1
 90
0
176
1
 62
18
420
0
176
1
 90
50
176
1
 90
3
176
1
 62
5
420
255
176
1
290
0
176
1
 90
50
176
1
 90
50
176
1
 90
50
176
1
290
0
176
1
 90
50
176
1
 62
256
176
0
 40
1.0
176
0
 90
2
176
1
  1
strokes_ogs.tif
176
1
290
0
176
1
 40
1.0
176
1
 40
1.0
176
1
  0
VISUALSTYLE
  5
5D
102
{ACAD_REACTORS
330
16
102
}
330
16
100
AcDbVisualStyle
  2
ColorChange
 70
16
177
3
291
1
 70
58
 90
2
176
1
 90
2
176
1
 90
0
176
1
 90
2
176
1
 40
0.6
176
1
 40
30.0
176
1
 62
7
420
16777215
176
1
 90
1
176
1
 90
4
176
1
 62
7
176
1
 62
257
176
1
 90
1
176
1
 90
1
176
1
 40
1.0
176
1
 90
8
176
1
 62
7
176
1
 40
1.0
176
1
 90
1
176
1
 90
6
176
1
 90
2
176
1
 62
7
176
1
 90
5
176
1
 90
0
176
1
 90
0
176
1
290
0
176
1
 90
1
176
1
 40
0.0
176
1
 90
0
176
1
290
0
176
1
290
1
176
1
290
1
176
1
290
0
176
1
290
0
176
1
290
0
176
1
290
0
176
1
290
0
176
1
290
0
176
1
 90
50
176
1
 40
0.0
176
1
 40
1.0
176
1
 90
0
176
1
 62
18
420
0
176
1
 90
50
176
1
 90
3
176
1
 62
5
420
255
176
1
290
0
176
1
 90
50
176
1
 90
50
176
1
 90
50
176
1
290
0
176
1
 90
50
176
1
 62
256
176
0
 40
1.0
176
0
 90
2
176
1
  1
strokes_ogs.tif
176
1
290
0
176
1
 40
1.0
176
1
 40
1.0
176
1
  0
VISUALSTYLE
  5
5E
102
{ACAD_REACTORS
330
16
102
}
330
16
100
AcDbVisualStyle
  2
Conceptual
 70
9
177
3
291
0
 70
58
 90
2
176
1
 90
2
176
1
 90
0
176
1
 90
3
176
1
 40
0.6
176
1
 40
30.0
176
1
 62
7
420
16777215
176
1
 90
1
176
1
 90
4
176
1
 62
7
176
1
 62
257
176
1
 90
1
176
1
 90
1
176
1
 40
1.0
176
1
 90
8
176
1
 62
7
176
1
 40
1.0
176
1
 90
1
176
1
 90
6
176
1
 90
2
176
1
 62
7
176
1
 90
5
176
1
 90
0
176
1
 90
0
176
1
290
0
176
1
 90
1
176
1
 40
0.0
176
1
 90
0
176
1
290
0
176
1
290
1
176
1
290
1
176
1
290
0
176
1
290
0
176
1
290
0
176
1
290
0
176
1
290
0
176
1
290
0
176
1
 90
50
176
1
 40
0.0
176
1
 40
1.0
176
1
 90
0
176
1
 62
18
420
0
176
1
 90
50
176
1
 90
3
176
1
 62
5
420
255
176
1
290
0
176
1
 90
50
176
1
 90
50
176
1
 90
50
176
1
290
0
176
1
 90
50
176
1
 62
256
176
0
 40
1.0
176
0
 90
2
176
1
  1
strokes_ogs.tif
176
1
290
0
176
1
 40
1.0
176
1
 40
1.0
176
1
  0
VISUALSTYLE
  5
5F
102
{ACAD_REACTORS
330
16
102
}
330
16
100
AcDbVisualStyle
  2
Dim
 70
11
177
3
291
1
 70
58
 90
2
176
1
 90
2
176
1
 90
0
176
1
 90
2
176
1
 40
0.6
176
1
 40
30.0
176
1
 62
7
420
16777215
176
1
 90
1
176
1
 90
4
176
1
 62
7
176
1
 62
257
176
1
 90
1
176
1
 90
1
176
1
 40
1.0
176
1
 90
8
176
1
 62
7
176
1
 40
1.0
176
1
 90
1
176
1
 90
6
176
1
 90
2
176
1
 62
7
176
1
 90
5
176
1
 90
0
176
1
 90
0
176
1
290
0
176
1
 90
1
176
1
 40
0.0
176
1
 90
0
176
1
290
0
176
1
290
1
176
1
290
1
176
1
290
0
176
1
290
0
176
1
290
0
176
1
290
0
176
1
290
0
176
1
290
0
176
1
 90
50
176
1
 40
0.0
176
1
 40
1.0
176
1
 90
0
176
1
 62
18
420
0
176
1
 90
50
176
1
 90
3
176
1
 62
5
420
255
176
1
290
0
176
1
 90
50
176
1
 90
50
176
1
 90
50
176
1
290
0
176
1
 90
50
176
1
 62
256
176
0
 40
1.0
176
0
 90
2
176
1
  1
strokes_ogs.tif
176
1
290
0
176
1
 40
1.0
176
1
 40
1.0
176
1
  0
VISUALSTYLE
  5
60
102
{ACAD_REACTORS
330
16
102
}
330
16
100
AcDbVisualStyle
  2
EdgeColorOff
 70
22
177
3
291
1
 70
58
 90
2
176
1
 90
2
176
1
 90
0
176
1
 90
2
176
1
 40
0.6
176
1
 40
30.0
176
1
 62
7
420
16777215
176
1
 90
1
176
1
 90
4
176
1
 62
7
176
1
 62
257
176
1
 90
1
176
1
 90
1
176
1
 40
1.0
176
1
 90
8
176
1
 62
7
176
1
 40
1.0
176
1
 90
1
176
1
 90
6
176
1
 90
2
176
1
 62
7
176
1
 90
5
176
1
 90
0
176
1
 90
0
176
1
290
0
176
1
 90
1
176
1
 40
0.0
176
1
 90
0
176
1
290
0
176
1
290
1
176
1
290
1
176
1
290
0
176
1
290
0
176
1
290
0
176
1
290
0
176
1
290
0
176
1
290
0
176
1
 90
50
176
1
 40
0.0
176
1
 40
1.0
176
1
 90
0
176
1
 62
18
420
0
176
1
 90
50
176
1
 90
3
176
1
 62
5
420
255
176
1
290
0
176
1
 90
50
176
1
 90
50
176
1
 90
50
176
1
290
0
176
1
 90
50
176
1
 62
256
176
0
 40
1.0
176
0
 90
2
176
1
  1
strokes_ogs.tif
176
1
290
0
176
1
 40
1.0
176
1
 40
1.0
176
1
  0
VISUALSTYLE
  5
61
102
{ACAD_REACTORS
330
16
102
}
330
16
100
AcDbVisualStyle
  2
Facepattern
 70
15
177
3
291
1
 70
58
 90
2
176
1
 90
2
176
1
 90
0
176
1
 90
2
176
1
 40
0.6
176
1
 40
30.0
176
1
 62
7
420
16777215
176
1
 90
1
176
1
 90
4
176
1
 62
7
176
1
 62
257
176
1
 90
1
176
1
 90
1
176
1
 40
1.0
176
1
 90
8
176
1
 62
7
176
1
 40
1.0
176
1
 90
1
176
1
 90
6
176
1
 90
2
176
1
 62
7
176
1
 90
5
176
1
 90
0
176
1
 90
0
176
1
290
0
176
1
 90
1
176
1
 40
0.0
176
1
 90
0
176
1
290
0
176
1
290
1
176
1
290
1
176
1
290
0
176
1
290
0
176
1
290
0
176
1
290
0
176
1
290
0
176
1
290
0
176
1
 90
50
176
1
 40
0.0
176
1
 40
1.0
176
1
 90
0
176
1
 62
18
420
0
176
1
 90
50
176
1
 90
3
176
1
 62
5
420
255
176
1
290
0
176
1
 90
50
176
1
 90
50
176
1
 90
50
176
1
290
0
176
1
 90
50
176
1
 62
256
176
0
 40
1.0
176
0
 90
2
176
1
  1
strokes_ogs.tif
176
1
290
0
176
1
 40
1.0
176
1
 40
1.0
176
1
  0
VISUALSTYLE
  5
62
102
{ACAD_REACTORS
330
16
102
}
330
16
100
AcDbVisualStyle
  2
Flat
 70
0
177
3
291
1
 70
58
 90
2
176
1
 90
2
176
1
 90
0
176
1
 90
2
176
1
 40
0.6
176
1
 40
30.0
176
1
 62
7
420
16777215
176
1
 90
1
176
1
 90
4
176
1
 62
7
176
1
 62
257
176
1
 90
1
176
1
 90
1
176
1
 40
1.0
176
1
 90
8
176
1
 62
7
176
1
 40
1.0
176
1
 90
1
176
1
 90
6
176
1
 90
2
176
1
 62
7
176
1
 90
5
176
1
 90
0
176
1
 90
0
176
1
290
0
176
1
 90
1
176
1
 40
0.0
176
1
 90
0
176
1
290
0
176
1
290
1
176
1
290
1
176
1
290
0
176
1
290
0
176
1
290
0
176
1
290
0
176
1
290
0
176
1
290
0
176
1
 90
50
176
1
 40
0.0
176
1
 40
1.0
176
1
 90
0
176
1
 62
18
420
0
176
1
 90
50
176
1
 90
3
176
1
 62
5
420
255
176
1
290
0
176
1
 90
50
176
1
 90
50
176
1
 90
50
176
1
290
0
176
1
 90
50
176
1
 62
256
176
0
 40
1.0
176
0
 90
2
176
1
  1
strokes_ogs.tif
176
1
290
0
176
1
 40
1.0
176
1
 40
1.0
176
1
  0
VISUALSTYLE
  5
63
102
{ACAD_REACTORS
330
16
102
}
330
16
100
AcDbVisualStyle
  2
FlatWithEdges
 70
1
177
3
291
1
 70
58
 90
2
176
1
 90
2
176
1
 90
0
176
1
 90
2
176
1
 40
0.6
176
1
 40
30.0
176
1
 62
7
420
16777215
176
1
 90
1
176
1
 90
4
176
1
 62
7
176
1
 62
257
176
1
 90
1
176
1
 90
1
176
1
 40
1.0
176
1
 90
8
176
1
 62
7
176
1
 40
1.0
176
1
 90
1
176
1
 90
6
176
1
 90
2
176
1
 62
7
176
1
 90
5
176
1
 90
0
176
1
 90
0
176
1
290
0
176
1
 90
1
176
1
 40
0.0
176
1
 90
0
176
1
290
0
176
1
290
1
176
1
290
1
176
1
290
0
176
1
290
0
176
1
290
0
176
1
290
0
176
1
290
0
176
1
290
0
176
1
 90
50
176
1
 40
0.0
176
1
 40
1.0
176
1
 90
0
176
1
 62
18
420
0
176
1
 90
50
176
1
 90
3
176
1
 62
5
420
255
176
1
290
0
176
1
 90
50
176
1
 90
50
176
1
 90
50
176
1
290
0
176
1
 90
50
176
1
 62
256
176
0
 40
1.0
176
0
 90
2
176
1
  1
strokes_ogs.tif
176
1
290
0
176
1
 40
1.0
176
1
 40
1.0
176
1
  0
VISUALSTYLE
  5
64
102
{ACAD_REACTORS
330
16
102
}
330
16
100
AcDbVisualStyle
  2
Gouraud
 70
2
177
3
291
1
 70
58
 90
2
176
1
 90
2
176
1
 90
0
176
1
 90
2
176
1
 40
0.6
176
1
 40
30.0
176
1
 62
7
420
16777215
176
1
 90
1
176
1
 90
4
176
1
 62
7
176
1
 62
257
176
1
 90
1
176
1
 90
1
176
1
 40
1.0
176
1
 90
8
176
1
 62
7
176
1
 40
1.0
176
1
 90
1
176
1
 90
6
176
1
 90
2
176
1
 62
7
176
1
 90
5
176
1
 90
0
176
1
 90
0
176
1
290
0
176
1
 90
1
176
1
 40
0.0
176
1
 90
0
176
1
290
0
176
1
290
1
176
1
290
1
176
1
290
0
176
1
290
0
176
1
290
0
176
1
290
0
176
1
290
0
176
1
290
0
176
1
 90
50
176
1
 40
0.0
176
1
 40
1.0
176
1
 90
0
176
1
 62
18
420
0
176
1
 90
50
176
1
 90
3
176
1
 62
5
420
255
176
1
290
0
176
1
 90
50
176
1
 90
50
176
1
 90
50
176
1
290
0
176
1
 90
50
176
1
 62
256
176
0
 40
1.0
176
0
 90
2
176
1
  1
strokes_ogs.tif
176
1
290
0
176
1
 40
1.0
176
1
 40
1.0
176
1
  0
VISUALSTYLE
  5
65
102
{ACAD_REACTORS
330
16
102
}
330
16
100
AcDbVisualStyle
  2
GouraudWithEdges
 70
3
177
3
291
1
 70
58
 90
2
176
1
 90
2
176
1
 90
0
176
1
 90
2
176
1
 40
0.6
176
1
 40
30.0
176
1
 62
7
420
16777215
176
1
 90
1
176
1
 90
4
176
1
 62
7
176
1
 62
257
176
1
 90
1
176
1
 90
1
176
1
 40
1.0
176
1
 90
8
176
1
 62
7
176
1
 40
1.0
176
1
 90
1
176
1
 90
6
176
1
 90
2
176
1
 62
7
176
1
 90
5
176
1
 90
0
176
1
 90
0
176
1
290
0
176
1
 90
1
176
1
 40
0.0
176
1
 90
0
176
1
290
0
176
1
290
1
176
1
290
1
176
1
290
0
176
1
290
0
176
1
290
0
176
1
290
0
176
1
290
0
176
1
290
0
176
1
 90
50
176
1
 40
0.0
176
1
 40
1.0
176
1
 90
0
176
1
 62
18
420
0
176
1
 90
50
176
1
 90
3
176
1
 62
5
420
255
176
1
290
0
176
1
 90
50
176
1
 90
50
176
1
 90
50
176
1
290
0
176
1
 90
50
176
1
 62
256
176
0
 40
1.0
176
0
 90
2
176
1
  1
strokes_ogs.tif
176
1
290
0
176
1
 40
1.0
176
1
 40
1.0
176
1
  0
VISUALSTYLE
  5
66
102
{ACAD_REACTORS
330
16
102
}
330
16
100
AcDbVisualStyle
  2
Hidden
 70
6
177
3
291
0
 70
58
 90
2
176
1
 90
2
176
1
 90
0
176
1
 90
1
176
1
 40
0.6
176
1
 40
30.0
176
1
 62
7
420
16777215
176
1
 90
1
176
1
 90
4
176
1
 62
7
176
1
 62
257
176
1
 90
1
176
1
 90
1
176
1
 40
1.0
176
1
 90
8
176
1
 62
7
176
1
 40
1.0
176
1
 90
1
176
1
 90
6
176
1
 90
2
176
1
 62
7
176
1
 90
5
176
1
 90
0
176
1
 90
0
176
1
290
0
176
1
 90
1
176
1
 40
0.0
176
1
 90
0
176
1
290
0
176
1
290
1
176
1
290
1
176
1
290
0
176
1
290
0
176
1
290
0
176
1
290
0
176
1
290
0
176
1
290
0
176
1
 90
50
176
1
 40
0.0
176
1
 40
1.0
176
1
 90
0
176
1
 62
18
420
0
176
1
 90
50
176
1
 90
3
176
1
 62
5
420
255
176
1
290
0
176
1
 90
50
176
1
 90
50
176
1
 90
50
176
1
290
0
176
1
 90
50
176
1
 62
256
176
0
 40
1.0
176
0
 90
2
176
1
  1
strokes_ogs.tif
176
1
290
0
176
1
 40
1.0
176
1
 40
1.0
176
1
  0
VISUALSTYLE
  5
67
102
{ACAD_REACTORS
330
16
102
}
330
16
100
AcDbVisualStyle
  2
JitterOff
 70
20
177
3
291
1
 70
58
 90
2
176
1
 90
2
176
1
 90
0
176
1
 90
2
176
1
 40
0.6
176
1
 40
30.0
176
1
 62
7
420
16777215
176
1
 90
1
176
1
 90
4
176
1
 62
7
176
1
 62
257
176
1
 90
1
176
1
 90
1
176
1
 40
1.0
176
1
 90
8
176
1
 62
7
176
1
 40
1.0
176
1
 90
1
176
1
 90
6
176
1
 90
2
176
1
 62
7
176
1
 90
5
176
1
 90
0
176
1
 90
0
176
1
290
0
176
1
 90
1
176
1
 40
0.0
176
1
 90
0
176
1
290
0
176
1
290
1
176
1
290
1
176
1
290
0
176
1
290
0
176
1
290
0
176
1
290
0
176
1
290
0
176
1
290
0
176
1
 90
50
176
1
 40
0.0
176
1
 40
1.0
176
1
 90
0
176
1
 62
18
420
0
176
1
 90
50
176
1
 90
3
176
1
 62
5
420
255
176
1
290
0
176
1
 90
50
176
1
 90
50
176
1
 90
50
176
1
290
0
176
1
 90
50
176
1
 62
256
176
0
 40
1.0
176
0
 90
2
176
1
  1
strokes_ogs.tif
176
1
290
0
176
1
 40
1.0
176
1
 40
1.0
176
1
  0
VISUALSTYLE
  5
68
102
{ACAD_REACTORS
330
16
102
}
330
16
100
AcDbVisualStyle
  2
Linepattern
 70
14
177
3
291
1
 70
58
 90
2
176
1
 90
2
176
1
 90
0
176
1
 90
2
176
1
 40
0.6
176
1
 40
30.0
176
1
 62
7
420
16777215
176
1
 90
1
176
1
 90
4
176
1
 62
7
176
1
 62
257
176
1
 90
1
176
1
 90
1
176
1
 40
1.0
176
1
 90
8
176
1
 62
7
176
1
 40
1.0
176
1
 90
1
176
1
 90
6
176
1
 90
2
176
1
 62
7
176
1
 90
5
176
1
 90
0
176
1
 90
0
176
1
290
0
176
1
 90
1
176
1
 40
0.0
176
1
 90
0
176
1
290
0
176
1
290
1
176
1
290
1
176
1
290
0
176
1
290
0
176
1
290
0
176
1
290
0
176
1
290
0
176
1
290
0
176
1
 90
50
176
1
 40
0.0
176
1
 40
1.0
176
1
 90
0
176
1
 62
18
420
0
176
1
 90
50
176
1
 90
3
176
1
 62
5
420
255
176
1
290
0
176
1
 90
50
176
1
 90
50
176
1
 90
50
176
1
290
0
176
1
 90
50
176
1
 62
256
176
0
 40
1.0
176
0
 90
2
176
1
  1
strokes_ogs.tif
176
1
290
0
176
1
 40
1.0
176
1
 40
1.0
176
1
  0
VISUALSTYLE
  5
69
102
{ACAD_REACTORS
330
16
102
}
330
16
100
AcDbVisualStyle
  2
Modeling
 70
10
177
3
291
0
 70
58
 90
2
176
1
 90
2
176
1
 90
0
176
1
 90
2
176
1
 40
0.6
176
1
 40
30.0
176
1
 62
7
420
16777215
176
1
 90
1
176
1
 90
4
176
1
 62
7
176
1
 62
257
176
1
 90
1
176
1
 90
1
176
1
 40
1.0
176
1
 90
8
176
1
 62
7
176
1
 40
1.0
176
1
 90
1
176
1
 90
6
176
1
 90
2
176
1
 62
7
176
1
 90
5
176
1
 90
0
176
1
 90
0
176
1
290
0
176
1
 90
1
176
1
 40
0.0
176
1
 90
0
176
1
290
0
176
1
290
1
176
1
290
1
176
1
290
0
176
1
290
0
176
1
290
0
176
1
290
0
176
1
290
0
176
1
290
0
176
1
 90
50
176
1
 40
0.0
176
1
 40
1.0
176
1
 90
0
176
1
 62
18
420
0
176
1
 90
50
176
1
 90
3
176
1
 62
5
420
255
176
1
290
0
176
1
 90
50
176
1
 90
50
176
1
 90
50
176
1
290
0
176
1
 90
50
176
1
 62
256
176
0
 40
1.0
176
0
 90
2
176
1
  1
strokes_ogs.tif
176
1
290
0
176
1
 40
1.0
176
1
 40
1.0
176
1
  0
VISUALSTYLE
  5
6A
102
{ACAD_REACTORS
330
16
102
}
330
16
100
AcDbVisualStyle
  2
OverhangOff
 70
21
177
3
291
1
 70
58
 90
2
176
1
 90
2
176
1
 90
0
176
1
 90
2
176
1
 40
0.6
176
1
 40
30.0
176
1
 62
7
420
16777215
176
1
 90
1
176
1
 90
4
176
1
 62
7
176
1
 62
257
176
1
 90
1
176
1
 90
1
176
1
 40
1.0
176
1
 90
8
176
1
 62
7
176
1
 40
1.0
176
1
 90
1
176
1
 90
6
176
1
 90
2
176
1
 62
7
176
1
 90
5
176
1
 90
0
176
1
 90
0
176
1
290
0
176
1
 90
1
176
1
 40
0.0
176
1
 90
0
176
1
290
0
176
1
290
1
176
1
290
1
176
1
290
0
176
1
290
0
176
1
290
0
176
1
290
0
176
1
290
0
176
1
290
0
176
1
 90
50
176
1
 40
0.0
176
1
 40
1.0
176
1
 90
0
176
1
 62
18
420
0
176
1
 90
50
176
1
 90
3
176
1
 62
5
420
255
176
1
290
0
176
1
 90
50
176
1
 90
50
176
1
 90
50
176
1
290
0
176
1
 90
50
176
1
 62
256
176
0
 40
1.0
176
0
 90
2
176
1
  1
strokes_ogs.tif
176
1
290
0
176
1
 40
1.0
176
1
 40
1.0
176
1
  0
VISUALSTYLE
  5
6B
102
{ACAD_REACTORS
330
16
102
}
330
16
100
AcDbVisualStyle
  2
Realistic
 70
8
177
3
291
0
 70
58
 90
2
176
1
 90
2
176
1
 90
0
176
1
 90
2
176
1
 40
0.6
176
1
 40
30.0
176
1
 62
7
420
16777215
176
1
 90
1
176
1
 90
4
176
1
 62
7
176
1
 62
257
176
1
 90
1
176
1
 90
1
176
1
 40
1.0
176
1
 90
8
176
1
 62
7
176
1
 40
1.0
176
1
 90
1
176
1
 90
6
176
1
 90
2
176
1
 62
7
176
1
 90
5
176
1
 90
0
176
1
 90
0
176
1
290
0
176
1
 90
1
176
1
 40
0.0
176
1
 90
0
176
1
290
0
176
1
290
1
176
1
290
1
176
1
290
0
176
1
290
0
176
1
290
0
176
1
290
0
176
1
290
0
176
1
290
0
176
1
 90
50
176
1
 40
0.0
176
1
 40
1.0
176
1
 90
0
176
1
 62
18
420
0
176
1
 90
50
176
1
 90
3
176
1
 62
5
420
255
176
1
290
0
176
1
 90
50
176
1
 90
50
176
1
 90
50
176
1
290
0
176
1
 90
50
176
1
 62
256
176
0
 40
1.0
176
0
 90
2
176
1
  1
strokes_ogs.tif
176
1
290
0
176
1
 40
1.0
176
1
 40
1.0
176
1
  0
VISUALSTYLE
  5
6C
102
{ACAD_REACTORS
330
16
102
}
330
16
100
AcDbVisualStyle
  2
Shaded
 70
27
177
3
291
0
 70
58
 90
2
176
1
 90
2
176
1
 90
0
176
1
 90
2
176
1
 40
0.6
176
1
 40
30.0
176
1
 62
7
420
16777215
176
1
 90
1
176
1
 90
4
176
1
 62
7
176
1
 62
257
176
1
 90
1
176
1
 90
1
176
1
 40
1.0
176
1
 90
8
176
1
 62
7
176
1
 40
1.0
176
1
 90
1
176
1
 90
6
176
1
 90
2
176
1
 62
7
176
1
 90
5
176
1
 90
0
176
1
 90
0
176
1
290
0
176
1
 90
1
176
1
 40
0.0
176
1
 90
0
176
1
290
0
176
1
290
1
176
1
290
1
176
1
290
0
176
1
290
0
176
1
290
0
176
1
290
0
176
1
290
0
176
1
290
0
176
1
 90
50
176
1
 40
0.0
176
1
 40
1.0
176
1
 90
0
176
1
 62
18
420
0
176
1
 90
50
176
1
 90
3
176
1
 62
5
420
255
176
1
290
0
176
1
 90
50
176
1
 90
50
176
1
 90
50
176
1
290
0
176
1
 90
50
176
1
 62
256
176
0
 40
1.0
176
0
 90
2
176
1
  1
strokes_ogs.tif
176
1
290
0
176
1
 40
1.0
176
1
 40
1.0
176
1
  0
VISUALSTYLE
  5
6D
102
{ACAD_REACTORS
330
16
102
}
330
16
100
AcDbVisualStyle
  2
Shaded with edges
 70
26
177
3
291
0
 70
58
 90
2
176
1
 90
2
176
1
 90
0
176
1
 90
2
176
1
 40
0.6
176
1
 40
30.0
176
1
 62
7
420
16777215
176
1
 90
1
176
1
 90
4
176
1
 62
7
176
1
 62
257
176
1
 90
1
176
1
 90
1
176
1
 40
1.0
176
1
 90
8
176
1
 62
7
176
1
 40
1.0
176
1
 90
1
176
1
 90
6
176
1
 90
2
176
1
 62
7
176
1
 90
5
176
1
 90
0
176
1
 90
0
176
1
290
0
176
1
 90
1
176
1
 40
0.0
176
1
 90
0
176
1
290
0
176
1
290
1
176
1
290
1
176
1
290
0
176
1
290
0
176
1
290
0
176
1
290
0
176
1
290
0
176
1
290
0
176
1
 90
50
176
1
 40
0.0
176
1
 40
1.0
176
1
 90
0
176
1
 62
18
420
0
176
1
 90
50
176
1
 90
3
176
1
 62
5
420
255
176
1
290
0
176
1
 90
50
176
1
 90
50
176
1
 90
50
176
1
290
0
176
1
 90
50
176
1
 62
256
176
0
 40
1.0
176
0
 90
2
176
1
  1
strokes_ogs.tif
176
1
290
0
176
1
 40
1.0
176
1
 40
1.0
176
1
  0
VISUALSTYLE
  5
6E
102
{ACAD_REACTORS
330
16
102
}
330
16
100
AcDbVisualStyle
  2
Shades of Gray
 70
23
177
3
291
0
 70
58
 90
2
176
1
 90
2
176
1
 90
0
176
1
 90
2
176
1
 40
0.6
176
1
 40
30.0
176
1
 62
7
420
16777215
176
1
 90
1
176
1
 90
4
176
1
 62
7
176
1
 62
257
176
1
 90
1
176
1
 90
1
176
1
 40
1.0
176
1
 90
8
176
1
 62
7
176
1
 40
1.0
176
1
 90
1
176
1
 90
6
176
1
 90
2
176
1
 62
7
176
1
 90
5
176
1
 90
0
176
1
 90
0
176
1
290
0
176
1
 90
1
176
1
 40
0.0
176
1
 90
0
176
1
290
0
176
1
290
1
176
1
290
1
176
1
290
0
176
1
290
0
176
1
290
0
176
1
290
0
176
1
290
0
176
1
290
0
176
1
 90
50
176
1
 40
0.0
176
1
 40
1.0
176
1
 90
0
176
1
 62
18
420
0
176
1
 90
50
176
1
 90
3
176
1
 62
5
420
255
176
1
290
0
176
1
 90
50
176
1
 90
50
176
1
 90
50
176
1
290
0
176
1
 90
50
176
1
 62
256
176
0
 40
1.0
176
0
 90
2
176
1
  1
strokes_ogs.tif
176
1
290
0
176
1
 40
1.0
176
1
 40
1.0
176
1
  0
VISUALSTYLE
  5
6F
102
{ACAD_REACTORS
330
16
102
}
330
16
100
AcDbVisualStyle
  2
Sketchy
 70
24
177
3
291
0
 70
58
 90
2
176
1
 90
2
176
1
 90
0
176
1
 90
1
176
1
 40
0.6
176
1
 40
30.0
176
1
 62
7
420
16777215
176
1
 90
1
176
1
 90
4
176
1
 62
7
176
1
 62
257
176
1
 90
1
176
1
 90
1
176
1
 40
1.0
176
1
 90
8
176
1
 62
7
176
1
 40
1.0
176
1
 90
1
176
1
 90
6
176
1
 90
2
176
1
 62
7
176
1
 90
5
176
1
 90
0
176
1
 90
0
176
1
290
0
176
1
 90
1
176
1
 40
0.0
176
1
 90
0
176
1
290
0
176
1
290
1
176
1
290
1
176
1
290
0
176
1
290
0
176
1
290
0
176
1
290
0
176
1
290
0
176
1
290
0
176
1
 90
50
176
1
 40
0.0
176
1
 40
1.0
176
1
 90
0
176
1
 62
18
420
0
176
1
 90
50
176
1
 90
3
176
1
 62
5
420
255
176
1
290
0
176
1
 90
50
176
1
 90
50
176
1
 90
50
176
1
290
0
176
1
 90
50
176
1
 62
256
176
0
 40
1.0
176
0
 90
2
176
1
  1
strokes_ogs.tif
176
1
290
0
176
1
 40
1.0
176
1
 40
1.0
176
1
  0
VISUALSTYLE
  5
70
102
{ACAD_REACTORS
330
16
102
}
330
16
100
AcDbVisualStyle
  2
Thicken
 70
13
177
3
291
1
 70
58
 90
2
176
1
 90
2
176
1
 90
0
176
1
 90
2
176
1
 40
0.6
176
1
 40
30.0
176
1
 62
7
420
16777215
176
1
 90
1
176
1
 90
4
176
1
 62
7
176
1
 62
257
176
1
 90
1
176
1
 90
1
176
1
 40
1.0
176
1
 90
8
176
1
 62
7
176
1
 40
1.0
176
1
 90
1
176
1
 90
6
176
1
 90
2
176
1
 62
7
176
1
 90
5
176
1
 90
0
176
1
 90
0
176
1
290
0
176
1
 90
1
176
1
 40
0.0
176
1
 90
0
176
1
290
0
176
1
290
1
176
1
290
1
176
1
290
0
176
1
290
0
176
1
290
0
176
1
290
0
176
1
290
0
176
1
290
0
176
1
 90
50
176
1
 40
0.0
176
1
 40
1.0
176
1
 90
0
176
1
 62
18
420
0
176
1
 90
50
176
1
 90
3
176
1
 62
5
420
255
176
1
290
0
176
1
 90
50
176
1
 90
50
176
1
 90
50
176
1
290
0
176
1
 90
50
176
1
 62
256
176
0
 40
1.0
176
0
 90
2
176
1
  1
strokes_ogs.tif
176
1
290
0
176
1
 40
1.0
176
1
 40
1.0
176
1
  0
VISUALSTYLE
  5
71
102
{ACAD_REACTORS
330
16
102
}
330
16
100
AcDbVisualStyle
  2
Wireframe
 70
5
177
3
291
0
 70
58
 90
2
176
1
 90
2
176
1
 90
0
176
1
 90
0
176
1
 40
0.6
176
1
 40
30.0
176
1
 62
7
420
16777215
176
1
 90
1
176
1
 90
4
176
1
 62
7
176
1
 62
257
176
1
 90
1
176
1
 90
1
176
1
 40
1.0
176
1
 90
8
176
1
 62
7
176
1
 40
1.0
176
1
 90
1
176
1
 90
6
176
1
 90
2
176
1
 62
7
176
1
 90
5
176
1
 90
0
176
1
 90
0
176
1
290
0
176
1
 90
1
176
1
 40
0.0
176
1
 90
0
176
1
290
0
176
1
290
1
176
1
290
1
176
1
290
0
176
1
290
0
176
1
290
0
176
1
290
0
176
1
290
0
176
1
290
0
176
1
 90
50
176
1
 40
0.0
176
1
 40
1.0
176
1
 90
0
176
1
 62
18
420
0
176
1
 90
50
176
1
 90
3
176
1
 62
5
420
255
176
1
290
0
176
1
 90
50
176
1
 90
50
176
1
 90
50
176
1
290
0
176
1
 90
50
176
1
 62
256
176
0
 40
1.0
176
0
 90
2
176
1
  1
strokes_ogs.tif
176
1
290
0
176
1
 40
1.0
176
1
 40
1.0
176
1
  0
VISUALSTYLE
  5
72
102
{ACAD_REACTORS
330
16
102
}
330
16
100
AcDbVisualStyle
  2
X-Ray
 70
25
177
3
291
0
 70
58
 90
2
176
1
 90
2
176
1
 90
0
176
1
 90
2
176
1
 40
0.5
176
1
 40
30.0
176
1
 62
7
420
16777215
176
1
 90
1
176
1
 90
4
176
1
 62
7
176
1
 62
257
176
1
 90
1
176
1
 90
1
176
1
 40
1.0
176
1
 90
8
176
1
 62
7
176
1
 40
1.0
176
1
 90
1
176
1
 90
6
176
1
 90
2
176
1
 62
7
176
1
 90
5
176
1
 90
0
176
1
 90
0
176
1
290
0
176
1
 90
1
176
1
 40
0.0
176
1
 90
0
176
1
290
0
176
1
290
1
176
1
290
1
176
1
290
0
176
1
290
0
176
1
290
0
176
1
290
0
176
1
290
0
176
1
290
0
176
1
 90
50
176
1
 40
0.0
176
1
 40
1.0
176
1
 90
0
176
1
 62
18
420
0
176
1
 90
50
176
1
 90
3
176
1
 62
5
420
255
176
1
290
0
176
1
 90
50
176
1
 90
50
176
1
 90
50
176
1
290
0
176
1
 90
50
176
1
 62
256
176
0
 40
1.0
176
0
 90
2
176
1
  1
strokes_ogs.tif
176
1
290
0
176
1
 40
1.0
176
1
 40
1.0
176
1
  0
DICTIONARYVAR
  5
13D
330
2D
100
DictionaryVariables
280
0
  1
1.4.4 @ 2026-09-22T11:45:14.758097+00:00
  0
ENDSEC
  0
EOF
