  0
SECTION
  2
HEADER
  9
$ACADVER
  1
AC1027
  9
$ACADMAINTVER
 70
105
  9
$DWGCODEPAGE
  3
ANSI_1252
  9
$LASTSAVEDBY
  1
ezdxf
  9
$REQUIREDVERSIONS
160
0
  9
$INSBASE
 10
0.0
 20
0.0
 30
0.0
  9
$EXTMIN
 10
1e+20
 20
1e+20
 30
1e+20
  9
$EXTMAX
 10
-1e+20
 20
-1e+20
 30
-1e+20
  9
$LIMMIN
 10
0.0
 20
0.0
  9
$LIMMAX
 10
420.0
 20
297.0
  9
$ORTHOMODE
 70
0
  9
$REGENMODE
 70
1
  9
$FILLMODE
 70
1
  9
$QTEXTMODE
 70
0
  9
$MIRRTEXT
 70
1
  9
$LTSCALE
 40
1.0
  9
$ATTMODE
 70
1
  9
$TEXTSIZE
 40
2.5
  9
$TRACEWID
 40
1.0
  9
$TEXTSTYLE
  7
OpenSans
  9
$CLAYER
  8
0
  9
$CELTYPE
  6
ByLayer
  9
$CECOLOR
 62
256
  9
$CELTSCALE
 40
1.0
  9
$DISPSILH
 70
0
  9
$DIMSCALE
 40
1.0
  9
$DIMASZ
 40
0.175
  9
$DIMEXO
 40
0.125
  9
$DIMDLI
 40
3.75
  9
$DIMRND
 40
0.0
  9
$DIMDLE
 40
0.0
  9
$DIMEXE
 40
0.375
  9
$DIMTP
 40
0.0
  9
$DIMTM
 40
0.0
  9
$DIMTXT
 40
0.25
  9
$DIMCEN
 40
2.5
  9
$DIMTSZ
 40
0.0
  9
$DIMTOL
 70
0
  9
$DIMLIM
 70
0
  9
$DIMTIH
 70
0
  9
$DIMTOH
 70
0
  9
$DIMSE1
 70
0
  9
$DIMSE2
 70
0
  9
$DIMTAD
 70
1
  9
$DIMZIN
 70
12
  9
$DIMBLK
  1
ARCHTICK
  9
$DIMASO
 70
1
  9
$DIMSHO
 70
1
  9
$DIMPOST
  1

  9
$DIMAPOST
  1

  9
$DIMALT
 70
0
  9
$DIMALTD
 70
3
  9
$DIMALTF
 40
0.03937007874
  9
$DIMLFAC
 40
100.0
  9
$DIMTOFL
 70
1
  9
$DIMTVP
 40
0.0
  9
$DIMTIX
 70
0
  9
$DIMSOXD
 70
0
  9
$DIMSAH
 70
0
  9
$DIMBLK1
  1

  9
$DIMBLK2
  1

  9
$DIMSTYLE
  2
EZDXF
  9
$DIMCLRD
 70
0
  9
$DIMCLRE
 70
0
  9
$DIMCLRT
 70
0
  9
$DIMTFAC
 40
0.5
  9
$DIMGAP
 40
0.1
  9
$DIMJUST
 70
0
  9
$DIMSD1
 70
0
  9
$DIMSD2
 70
0
  9
$DIMTOLJ
 70
0
  9
$DIMTZIN
 70
8
  9
$DIMALTZ
 70
0
  9
$DIMALTTZ
 70
0
  9
$DIMUPT
 70
1
  9
$DIMDEC
 70
2
  9
$DIMTDEC
 70
2
  9
$DIMALTU
 70
2
  9
$DIMALTTD
 70
3
  9
$DIMTXSTY
  7
OpenSansCondensed-Light
  9
$DIMAUNIT
 70
0
  9
$DIMADEC
 70
2
  9
$DIMALTRND
 40
0.0
  9
$DIMAZIN
 70
3
  9
$DIMDSEP
 70
46
  9
$DIMATFIT
 70
3
  9
$DIMFRAC
 70
0
  9
$DIMLDRBLK
  1

  9
$DIMLUNIT
 70
2
  9
$DIMLWD
 70
-2
  9
$DIMLWE
 70
-2
  9
$DIMTMOVE
 70
2
  9
$DIMFXL
 40
1.0
  9
$DIMFXLON
 70
0
  9
$DIMJOGANG
 40
0.785398163397
  9
$DIMTFILL
 70
0
  9
$DIMTFILLCLR
 70
0
  9
$DIMARCSYM
 70
0
  9
$DIMLTYPE
  6

  9
$DIMLTEX1
  6

  9
$DIMLTEX2
  6

  9
$DIMTXTDIRECTION
 70
0
  9
$LUNITS
 70
2
  9
$LUPREC
 70
4
  9
$SKETCHINC
 40
1.0
  9
$FILLETRAD
 40
10.0
  9
$AUNITS
 70
0
  9
$AUPREC
 70
2
  9
$MENU
  1
.
  9
$ELEVATION
 40
0.0
  9
$PELEVATION
 40
0.0
  9
$THICKNESS
 40
0.0
  9
$LIMCHECK
 70
0
  9
$CHAMFERA
 40
0.0
  9
$CHAMFERB
 40
0.0
  9
$CHAMFERC
 40
0.0
  9
$CHAMFERD
 40
0.0
  9
$SKPOLY
 70
0
  9
$TDCREATE
 40
2461306.6161458334
  9
$TDUCREATE
 40
2458532.153996898
  9
$TDUPDATE
 40
2461306.6161458334
  9
$TDUUPDATE
 40
2458532.1544311
  9
$TDINDWG
 40
0.0
  9
$TDUSRTIMER
 40
0.0
  9
$USRTIMER
 70
1
  9
$ANGBASE
 50
0.0
  9
$ANGDIR
 70
0
  9
$PDMODE
 70
0
  9
$PDSIZE
 40
0.0
  9
$PLINEWID
 40
0.0
  9
$SPLFRAME
 70
0
  9
$SPLINETYPE
 70
6
  9
$SPLINESEGS
 70
8
  9
$HANDSEED
  5
12D
  9
$SURFTAB1
 70
6
  9
$SURFTAB2
 70
6
  9
$SURFTYPE
 70
6
  9
$SURFU
 70
6
  9
$SURFV
 70
6
  9
$UCSBASE
  2

  9
$UCSNAME
  2

  9
$UCSORG
 10
0.0
 20
0.0
 30
0.0
  9
$UCSXDIR
 10
1.0
 20
0.0
 30
0.0
  9
$UCSYDIR
 10
0.0
 20
1.0
 30
0.0
  9
$UCSORTHOREF
  2

  9
$UCSORTHOVIEW
 70
0
  9
$UCSORGTOP
 10
0.0
 20
0.0
 30
0.0
  9
$UCSORGBOTTOM
 10
0.0
 20
0.0
 30
0.0
  9
$UCSORGLEFT
 10
0.0
 20
0.0
 30
0.0
  9
$UCSORGRIGHT
 10
0.0
 20
0.0
 30
0.0
  9
$UCSORGFRONT
 10
0.0
 20
0.0
 30
0.0
  9
$UCSORGBACK
 10
0.0
 20
0.0
 30
0.0
  9
$PUCSBASE
  2

  9
$PUCSNAME
  2

  9
$PUCSORG
 10
0.0
 20
0.0
 30
0.0
  9
$PUCSXDIR
 10
1.0
 20
0.0
 30
0.0
  9
$PUCSYDIR
 10
0.0
 20
1.0
 30
0.0
  9
$PUCSORTHOREF
  2

  9
$PUCSORTHOVIEW
 70
0
  9
$PUCSORGTOP
 10
0.0
 20
0.0
 30
0.0
  9
$PUCSORGBOTTOM
 10
0.0
 20
0.0
 30
0.0
  9
$PUCSORGLEFT
 10
0.0
 20
0.0
 30
0.0
  9
$PUCSORGRIGHT
 10
0.0
 20
0.0
 30
0.0
  9
$PUCSORGFRONT
 10
0.0
 20
0.0
 30
0.0
  9
$PUCSORGBACK
 10
0.0
 20
0.0
 30
0.0
  9
$USERI1
 70
0
  9
$USERI2
 70
0
  9
$USERI3
 70
0
  9
$USERI4
 70
0
  9
$USERI5
 70
0
  9
$USERR1
 40
0.0
  9
$USERR2
 40
0.0
  9
$USERR3
 40
0.0
  9
$USERR4
 40
0.0
  9
$USERR5
 40
0.0
  9
$WORLDVIEW
 70
1
  9
$SHADEDGE
 70
3
  9
$SHADEDIF
 70
70
  9
$TILEMODE
 70
1
  9
$MAXACTVP
 70
64
  9
$PINSBASE
 10
0.0
 20
0.0
 30
0.0
  9
$PLIMCHECK
 70
0
  9
$PEXTMIN
 10
1e+20
 20
1e+20
 30
1e+20
  9
$PEXTMAX
 10
-1e+20
 20
-1e+20
 30
-1e+20
  9
$PLIMMIN
 10
0.0
 20
0.0
  9
$PLIMMAX
 10
420.0
 20
297.0
  9
$UNITMODE
 70
0
  9
$VISRETAIN
 70
1
  9
$PLINEGEN
 70
0
  9
$PSLTSCALE
 70
1
  9
$TREEDEPTH
 70
3020
  9
$CMLSTYLE
  2
Standard
  9
$CMLJUST
 70
0
  9
$CMLSCALE
 40
20.0
  9
$PROXYGRAPHICS
 70
1
  9
$MEASUREMENT
 70
1
  9
$CELWEIGHT
370
-1
  9
$ENDCAPS
280
0
  9
$JOINSTYLE
280
0
  9
$LWDISPLAY
290
0
  9
$INSUNITS
 70
4
  9
$HYPERLINKBASE
  1

  9
$STYLESHEET
  1

  9
$XEDIT
290
1
  9
$CEPSNTYPE
380
0
  9
$PSTYLEMODE
290
1
  9
$FINGERPRINTGUID
  2
{182B18EE-97F5-458E-874F-1E0CDF12C065}
  9
$VERSIONGUID
  2
{FA4D6195-CB9F-4D5F-9880-255360265454}
  9
$EXTNAMES
290
1
  9
$PSVPSCALE
 40
0.0
  9
$OLESTARTUP
290
0
  9
$SORTENTS
280
127
  9
$INDEXCTL
280
0
  9
$HIDETEXT
280
1
  9
$XCLIPFRAME
280
1
  9
$HALOGAP
280
0
  9
$OBSCOLOR
 70
257
  9
$OBSLTYPE
280
0
  9
$INTERSECTIONDISPLAY
280
0
  9
$INTERSECTIONCOLOR
 70
257
  9
$DIMASSOC
280
2
  9
$PROJECTNAME
  1

  9
$CAMERADISPLAY
290
0
  9
$LENSLENGTH
 40
50.0
  9
$CAMERAHEIGHT
 40
0.0
  9
$STEPSPERSEC
 40
24.0
  9
$STEPSIZE
 40
100.0
  9
$3DDWFPREC
 40
2.0
  9
$PSOLWIDTH
 40
0.005
  9
$PSOLHEIGHT
 40
0.08
  9
$LOFTANG1
 40
1.570796326795
  9
$LOFTANG2
 40
1.570796326795
  9
$LOFTMAG1
 40
0.0
  9
$LOFTMAG2
 40
0.0
  9
$LOFTPARAM
 70
7
  9
$LOFTNORMALS
280
1
  9
$LATITUDE
 40
37.795
  9
$LONGITUDE
 40
-122.394
  9
$NORTHDIRECTION
 40
0.0
  9
$TIMEZONE
 70
-8000
  9
$LIGHTGLYPHDISPLAY
280
1
  9
$TILEMODELIGHTSYNCH
280
1
  9
$CMATERIAL
347
20
  9
$SOLIDHIST
280
0
  9
$SHOWHIST
280
1
  9
$DWFFRAME
280
2
  9
$DGNFRAME
280
2
  9
$REALWORLDSCALE
290
1
  9
$INTERFERECOLOR
 62
256
  9
$CSHADOW
280
0
  9
$SHADOWPLANELOCATION
 40
0.0
  0
ENDSEC
  0
SECTION
  2
CLASSES
  0
CLASS
  1
ACDBDICTIONARYWDFLT
  2
AcDbDictionaryWithDefault
  3
ObjectDBX Classes
 90
0
 91
0
280
0
281
0
  0
CLASS
  1
SUN
  2
AcDbSun
  3
SCENEOE
 90
1153
 91
0
280
0
281
0
  0
CLASS
  1
VISUALSTYLE
  2
AcDbVisualStyle
  3
ObjectDBX Classes
 90
4095
 91
0
280
0
281
0
  0
CLASS
  1
MATERIAL
  2
AcDbMaterial
  3
ObjectDBX Classes
 90
1153
 91
0
280
0
281
0
  0
CLASS
  1
SCALE
  2
AcDbScale
  3
ObjectDBX Classes
 90
1153
 91
0
280
0
281
0
  0
CLASS
  1
TABLESTYLE
  2
AcDbTableStyle
  3
ObjectDBX Classes
 90
4095
 91
0
280
0
281
0
  0
CLASS
  1
MLEADERSTYLE
  2
AcDbMLeaderStyle
  3
ACDB_MLEADERSTYLE_CLASS
 90
4095
 91
0
280
0
281
0
  0
CLASS
  1
DICTIONARYVAR
  2
AcDbDictionaryVar
  3
ObjectDBX Classes
 90
0
 91
0
280
0
281
0
  0
CLASS
  1
CELLSTYLEMAP
  2
AcDbCellStyleMap
  3
ObjectDBX Classes
 90
1152
 91
0
280
0
281
0
  0
CLASS
  1
MENTALRAYRENDERSETTINGS
  2
AcDbMentalRayRenderSettings
  3
SCENEOE
 90
1024
 91
0
280
0
281
0
  0
CLASS
  1
ACDBDETAILVIEWSTYLE
  2
AcDbDetailViewStyle
  3
ObjectDBX Classes
 90
1025
 91
0
280
0
281
0
  0
CLASS
  1
ACDBSECTIONVIEWSTYLE
  2
AcDbSectionViewStyle
  3
ObjectDBX Classes
 90
1025
 91
0
280
0
281
0
  0
CLASS
  1
RASTERVARIABLES
  2
AcDbRasterVariables
  3
ISM
 90
0
 91
0
280
0
281
0
  0
CLASS
  1
LAYOUT
  2
AcDbLayout
  3
ObjectDBX Classes
 90
0
 91
0
280
0
281
0
  0
CLASS
  1
ACDBPLACEHOLDER
  2
AcDbPlaceHolder
  3
ObjectDBX Classes
 90
0
 91
0
280
0
281
0
  0
ENDSEC
  0
SECTION
  2
TABLES
  0
TABLE
  2
VPORT
  5
8
330
0
100
AcDbSymbolTable
 70
1
  0
VPORT
  5
23
330
8
100
AcDbSymbolTableRecord
100
AcDbViewportTableRecord
  2
*Active
 70
0
 10
0.0
 20
0.0
 11
1.0
 21
1.0
 12
0.0
 22
0.0
 13
0.0
 23
0.0
 14
0.5
 24
0.5
 15
0.5
 25
0.5
 16
0.0
 26
0.0
 36
1.0
 17
0.0
 27
0.0
 37
0.0
 40
1000.0
 41
1.34
 42
50.0
 43
0.0
 44
0.0
 50
0.0
 51
0.0
 71
0
 72
1000
 73
1
 74
3
 75
0
 76
0
 77
0
 78
0
281
0
 65
0
146
0.0
  0
ENDTAB
  0
TABLE
  2
LTYPE
  5
2
330
0
100
AcDbSymbolTable
 70
21
  0
LTYPE
  5
24
330
2
100
AcDbSymbolTableRecord
100
AcDbLinetypeTableRecord
  2
ByBlock
 70
0
  3

 72
65
 73
0
 40
0.0
  0
LTYPE
  5
25
330
2
100
AcDbSymbolTableRecord
100
AcDbLinetypeTableRecord
  2
ByLayer
 70
0
  3

 72
65
 73
0
 40
0.0
  0
LTYPE
  5
26
330
2
100
AcDbSymbolTableRecord
100
AcDbLinetypeTableRecord
  2
Continuous
 70
0
  3

 72
65
 73
0
 40
0.0
  0
LTYPE
  5
2F
330
2
100
AcDbSymbolTableRecord
100
AcDbLinetypeTableRecord
  2
CENTER
 70
0
  3
Center ____ _ ____ _ ____ _ ____ _ ____ _ ____
 72
65
 73
4
 40
5.08
 49
3.175
 74
0
 49
-0.635
 74
0
 49
0.635
 74
0
 49
-0.635
 74
0
  0
LTYPE
  5
30
330
2
100
AcDbSymbolTableRecord
100
AcDbLinetypeTableRecord
  2
CENTERX2
 70
0
  3
Center (2x) ________  __  ________  __  ________
 72
65
 73
4
 40
8.89
 49
6.35
 74
0
 49
-0.635
 74
0
 49
1.27
 74
0
 49
-0.635
 74
0
  0
LTYPE
  5
31
330
2
100
AcDbSymbolTableRecord
100
AcDbLinetypeTableRecord
  2
CENTER2
 70
0
  3
Center (.5x) ____ _ ____ _ ____ _ ____ _ ____
 72
65
 73
4
 40
2.54
 49
1.587
 74
0
 49
-0.318
 74
0
 49
0.318
 74
0
 49
-0.318
 74
0
  0
LTYPE
  5
32
330
2
100
AcDbSymbolTableRecord
100
AcDbLinetypeTableRecord
  2
DASHED
 70
0
  3
Dashed __ __ __ __ __ __ __ __ __ __ __ __ __ _
 72
65
 73
2
 40
1.524
 49
1.27
 74
0
 49
-0.254
 74
0
  0
LTYPE
  5
33
330
2
100
AcDbSymbolTableRecord
100
AcDbLinetypeTableRecord
  2
DASHEDX2
 70
0
  3
Dashed (2x) ____  ____  ____  ____  ____  ____
 72
65
 73
2
 40
3.048
 49
2.54
 74
0
 49
-0.508
 74
0
  0
LTYPE
  5
34
330
2
100
AcDbSymbolTableRecord
100
AcDbLinetypeTableRecord
  2
DASHED2
 70
0
  3
Dashed (.5x) _ _ _ _ _ _ _ _ _ _ _ _ _ _
 72
65
 73
2
 40
0.762
 49
0.635
 74
0
 49
-0.127
 74
0
  0
LTYPE
  5
35
330
2
100
AcDbSymbolTableRecord
100
AcDbLinetypeTableRecord
  2
PHANTOM
 70
0
  3
Phantom ______  __  __  ______  __  __  ______
 72
65
 73
6
 40
6.35
 49
3.175
 74
0
 49
-0.635
 74
0
 49
0.635
 74
0
 49
-0.635
 74
0
 49
0.635
 74
0
 49
-0.635
 74
0
  0
LTYPE
  5
36
330
2
100
AcDbSymbolTableRecord
100
AcDbLinetypeTableRecord
  2
PHANTOMX2
 70
0
  3
Phantom (2x)____________    ____    ____    ____________
 72
65
 73
6
 40
10.795
 49
6.35
 74
0
 49
-0.635
 74
0
 49
1.27
 74
0
 49
-0.635
 74
0
 49
1.27
 74
0
 49
-0.635
 74
0
  0
LTYPE
  5
37
330
2
100
AcDbSymbolTableRecord
100
AcDbLinetypeTableRecord
  2
PHANTOM2
 70
0
  3
Phantom (.5x) ___ _ _ ___ _ _ ___ _ _ ___ _ _ ___
 72
65
 73
6
 40
3.175
 49
1.587
 74
0
 49
-0.318
 74
0
 49
0.318
 74
0
 49
-0.318
 74
0
 49
0.318
 74
0
 49
-0.318
 74
0
  0
LTYPE
  5
38
330
2
100
AcDbSymbolTableRecord
100
AcDbLinetypeTableRecord
  2
DASHDOT
 70
0
  3
Dash dot __ . __ . __ . __ . __ . __ . __ . __
 72
65
 73
4
 40
3.556
 49
2.54
 74
0
 49
-0.508
 74
0
 49
0.0
 74
0
 49
-0.508
 74
0
  0
LTYPE
  5
39
330
2
100
AcDbSymbolTableRecord
100
AcDbLinetypeTableRecord
  2
DASHDOTX2
 70
0
  3
Dash dot (2x) ____  .  ____  .  ____  .  ____
 72
65
 73
4
 40
6.096
 49
5.08
 74
0
 49
-0.508
 74
0
 49
0.0
 74
0
 49
-0.508
 74
0
  0
LTYPE
  5
3A
330
2
100
AcDbSymbolTableRecord
100
AcDbLinetypeTableRecord
  2
DASHDOT2
 70
0
  3
Dash dot (.5x) _ . _ . _ . _ . _ . _ . _ . _
 72
65
 73
4
 40
1.778
 49
1.27
 74
0
 49
-0.254
 74
0
 49
0.0
 74
0
 49
-0.254
 74
0
  0
LTYPE
  5
3B
330
2
100
AcDbSymbolTableRecord
100
AcDbLinetypeTableRecord
  2
DOT
 70
0
  3
Dot .  .  .  .  .  .  .  .  .  .  .  .  .  .  .  .
 72
65
 73
2
 40
0.508
 49
0.0
 74
0
 49
-0.508
 74
0
  0
LTYPE
  5
3C
330
2
100
AcDbSymbolTableRecord
100
AcDbLinetypeTableRecord
  2
DOTX2
 70
0
  3
Dot (2x) .    .    .    .    .    .    .    . 
 72
65
 73
2
 40
1.016
 49
0.0
 74
0
 49
-1.016
 74
0
  0
LTYPE
  5
3D
330
2
100
AcDbSymbolTableRecord
100
AcDbLinetypeTableRecord
  2
DOT2
 70
0
  3
Dot (.5) . . . . . . . . . . . . . . . . . . . 
 72
65
 73
2
 40
0.254
 49
0.0
 74
0
 49
-0.254
 74
0
  0
LTYPE
  5
3E
330
2
100
AcDbSymbolTableRecord
100
AcDbLinetypeTableRecord
  2
DIVIDE
 70
0
  3
Divide __ . . __ . . __ . . __ . . __ . . __
 72
65
 73
6
 40
4.064
 49
2.54
 74
0
 49
-0.508
 74
0
 49
0.0
 74
0
 49
-0.508
 74
0
 49
0.0
 74
0
 49
-0.508
 74
0
  0
LTYPE
  5
3F
330
2
100
AcDbSymbolTableRecord
100
AcDbLinetypeTableRecord
  2
DIVIDEX2
 70
0
  3
Divide (2x) ____  . .  ____  . .  ____  . .  ____
 72
65
 73
6
 40
6.604
 49
5.08
 74
0
 49
-0.508
 74
0
 49
0.0
 74
0
 49
-0.508
 74
0
 49
0.0
 74
0
 49
-0.508
 74
0
  0
LTYPE
  5
40
330
2
100
AcDbSymbolTableRecord
100
AcDbLinetypeTableRecord
  2
DIVIDE2
 70
0
  3
Divide(.5x) _ . _ . _ . _ . _ . _ . _ . _
 72
65
 73
6
 40
2.032
 49
1.27
 74
0
 49
-0.254
 74
0
 49
0.0
 74
0
 49
-0.254
 74
0
 49
0.0
 74
0
 49
-0.254
 74
0
  0
ENDTAB
  0
TABLE
  2
LAYER
  5
1
330
0
100
AcDbSymbolTable
 70
10
  0
LAYER
  5
27
330
1
100
AcDbSymbolTableRecord
100
AcDbLayerTableRecord
  2
0
 70
0
 62
7
  6
Continuous
370
-3
390
13
347
21
  0
LAYER
  5
28
330
1
100
AcDbSymbolTableRecord
100
AcDbLayerTableRecord
  2
Defpoints
 70
0
 62
7
  6
Continuous
290
0
370
-3
390
13
347
21
  0
LAYER
  5
8A
330
1
100
AcDbSymbolTableRecord
100
AcDbLayerTableRecord
  2
00_РАМКА
 70
0
 62
7
  6
Continuous
370
-3
390
13
347
21
  0
LAYER
  5
8B
330
1
100
AcDbSymbolTableRecord
100
AcDbLayerTableRecord
  2
01_ЛИНИИ
 70
0
 62
7
  6
Continuous
370
-3
390
13
347
21
  0
LAYER
  5
8C
330
1
100
AcDbSymbolTableRecord
100
AcDbLayerTableRecord
  2
02_ОСИ
 70
0
 62
8
  6
Continuous
370
-3
390
13
347
21
  0
LAYER
  5
8D
330
1
100
AcDbSymbolTableRecord
100
AcDbLayerTableRecord
  2
03_СЕТКА
 70
0
 62
9
  6
Continuous
370
-3
390
13
347
21
  0
LAYER
  5
8E
330
1
100
AcDbSymbolTableRecord
100
AcDbLayerTableRecord
  2
04_ТЕКСТ
 70
0
 62
7
  6
Continuous
370
-3
390
13
347
21
  0
LAYER
  5
8F
330
1
100
AcDbSymbolTableRecord
100
AcDbLayerTableRecord
  2
05_ЗАЛИВКА
 70
0
 62
8
  6
Continuous
370
-3
390
13
347
21
  0
LAYER
  5
90
330
1
100
AcDbSymbolTableRecord
100
AcDbLayerTableRecord
  2
06_ТАБЛИЦА
 70
0
 62
7
  6
Continuous
370
-3
390
13
347
21
  0
LAYER
  5
91
330
1
100
AcDbSymbolTableRecord
100
AcDbLayerTableRecord
  2
07_ЛЕГЕНДА
 70
0
 62
8
  6
Continuous
370
-3
390
13
347
21
  0
ENDTAB
  0
TABLE
  2
STYLE
  5
5
330
0
100
AcDbSymbolTable
 70
27
  0
STYLE
  5
29
330
5
100
AcDbSymbolTableRecord
100
AcDbTextStyleTableRecord
  2
Standard
 70
0
 40
0.0
 41
1.0
 50
0.0
 71
0
 42
2.5
  3
txt
  4

  0
STYLE
  5
41
330
5
100
AcDbSymbolTableRecord
100
AcDbTextStyleTableRecord
  2
OpenSans-Light
 70
0
 40
0.0
 41
1.0
 50
0.0
 71
0
 42
2.5
  3
OpenSans-Light.ttf
  4

  0
STYLE
  5
42
330
5
100
AcDbSymbolTableRecord
100
AcDbTextStyleTableRecord
  2
OpenSans-Light-Italic
 70
0
 40
0.0
 41
1.0
 50
0.0
 71
0
 42
2.5
  3
OpenSans-LightItalic.ttf
  4

  0
STYLE
  5
43
330
5
100
AcDbSymbolTableRecord
100
AcDbTextStyleTableRecord
  2
OpenSans
 70
0
 40
0.0
 41
1.0
 50
0.0
 71
0
 42
2.5
  3
OpenSans-Regular.ttf
  4

  0
STYLE
  5
44
330
5
100
AcDbSymbolTableRecord
100
AcDbTextStyleTableRecord
  2
OpenSans-Italic
 70
0
 40
0.0
 41
1.0
 50
0.0
 71
0
 42
2.5
  3
OpenSans-Italic.ttf
  4

  0
STYLE
  5
45
330
5
100
AcDbSymbolTableRecord
100
AcDbTextStyleTableRecord
  2
OpenSans-SemiBold
 70
0
 40
0.0
 41
1.0
 50
0.0
 71
0
 42
2.5
  3
OpenSans-SemiBold.ttf
  4

  0
STYLE
  5
46
330
5
100
AcDbSymbolTableRecord
100
AcDbTextStyleTableRecord
  2
OpenSans-SemiBoldItalic
 70
0
 40
0.0
 41
1.0
 50
0.0
 71
0
 42
2.5
  3
OpenSans-SemiBoldItalic.ttf
  4

  0
STYLE
  5
47
330
5
100
AcDbSymbolTableRecord
100
AcDbTextStyleTableRecord
  2
OpenSans-Bold
 70
0
 40
0.0
 41
1.0
 50
0.0
 71
0
 42
2.5
  3
OpenSans-Bold.ttf
  4

  0
STYLE
  5
48
330
5
100
AcDbSymbolTableRecord
100
AcDbTextStyleTableRecord
  2
OpenSans-BoldItalic
 70
0
 40
0.0
 41
1.0
 50
0.0
 71
0
 42
2.5
  3
OpenSans-BoldItalic.ttf
  4

  0
STYLE
  5
49
330
5
100
AcDbSymbolTableRecord
100
AcDbTextStyleTableRecord
  2
OpenSans-ExtraBold
 70
0
 40
0.0
 41
1.0
 50
0.0
 71
0
 42
2.5
  3
OpenSans-ExtraBold.ttf
  4

  0
STYLE
  5
4A
330
5
100
AcDbSymbolTableRecord
100
AcDbTextStyleTableRecord
  2
OpenSans-ExtraBoldItalic
 70
0
 40
0.0
 41
1.0
 50
0.0
 71
0
 42
2.5
  3
OpenSans-ExtraBoldItalic.ttf
  4

  0
STYLE
  5
4B
330
5
100
AcDbSymbolTableRecord
100
AcDbTextStyleTableRecord
  2
OpenSansCondensed-Bold
 70
0
 40
0.0
 41
1.0
 50
0.0
 71
0
 42
2.5
  3
OpenSansCondensed-Bold.ttf
  4

  0
STYLE
  5
4C
330
5
100
AcDbSymbolTableRecord
100
AcDbTextStyleTableRecord
  2
OpenSansCondensed-Light
 70
0
 40
0.0
 41
1.0
 50
0.0
 71
0
 42
2.5
  3
OpenSansCondensed-Light.ttf
  4

  0
STYLE
  5
4D
330
5
100
AcDbSymbolTableRecord
100
AcDbTextStyleTableRecord
  2
OpenSansCondensed-Italic
 70
0
 40
0.0
 41
1.0
 50
0.0
 71
0
 42
2.5
  3
OpenSansCondensed-LightItalic.ttf
  4

  0
STYLE
  5
4E
330
5
100
AcDbSymbolTableRecord
100
AcDbTextStyleTableRecord
  2
LiberationSans
 70
0
 40
0.0
 41
1.0
 50
0.0
 71
0
 42
2.5
  3
LiberationSans-Regular.ttf
  4

  0
STYLE
  5
4F
330
5
100
AcDbSymbolTableRecord
100
AcDbTextStyleTableRecord
  2
LiberationSans-Bold
 70
0
 40
0.0
 41
1.0
 50
0.0
 71
0
 42
2.5
  3
LiberationSans-Bold.ttf
  4

  0
STYLE
  5
50
330
5
100
AcDbSymbolTableRecord
100
AcDbTextStyleTableRecord
  2
LiberationSans-BoldItalic
 70
0
 40
0.0
 41
1.0
 50
0.0
 71
0
 42
2.5
  3
LiberationSans-BoldItalic.ttf
  4

  0
STYLE
  5
51
330
5
100
AcDbSymbolTableRecord
100
AcDbTextStyleTableRecord
  2
LiberationSans-Italic
 70
0
 40
0.0
 41
1.0
 50
0.0
 71
0
 42
2.5
  3
LiberationSans-Italic.ttf
  4

  0
STYLE
  5
52
330
5
100
AcDbSymbolTableRecord
100
AcDbTextStyleTableRecord
  2
LiberationSerif
 70
0
 40
0.0
 41
1.0
 50
0.0
 71
0
 42
2.5
  3
LiberationSerif-Regular.ttf
  4

  0
STYLE
  5
53
330
5
100
AcDbSymbolTableRecord
100
AcDbTextStyleTableRecord
  2
LiberationSerif-Bold
 70
0
 40
0.0
 41
1.0
 50
0.0
 71
0
 42
2.5
  3
LiberationSerif-Bold.ttf
  4

  0
STYLE
  5
54
330
5
100
AcDbSymbolTableRecord
100
AcDbTextStyleTableRecord
  2
LiberationSerif-BoldItalic
 70
0
 40
0.0
 41
1.0
 50
0.0
 71
0
 42
2.5
  3
LiberationSerif-BoldItalic.ttf
  4

  0
STYLE
  5
55
330
5
100
AcDbSymbolTableRecord
100
AcDbTextStyleTableRecord
  2
LiberationSerif-Italic
 70
0
 40
0.0
 41
1.0
 50
0.0
 71
0
 42
2.5
  3
LiberationSerif-Italic.ttf
  4

  0
STYLE
  5
56
330
5
100
AcDbSymbolTableRecord
100
AcDbTextStyleTableRecord
  2
LiberationMono
 70
0
 40
0.0
 41
1.0
 50
0.0
 71
0
 42
2.5
  3
LiberationMono-Regular.ttf
  4

  0
STYLE
  5
57
330
5
100
AcDbSymbolTableRecord
100
AcDbTextStyleTableRecord
  2
LiberationMono-Bold
 70
0
 40
0.0
 41
1.0
 50
0.0
 71
0
 42
2.5
  3
LiberationMono-Bold.ttf
  4

  0
STYLE
  5
58
330
5
100
AcDbSymbolTableRecord
100
AcDbTextStyleTableRecord
  2
LiberationMono-BoldItalic
 70
0
 40
0.0
 41
1.0
 50
0.0
 71
0
 42
2.5
  3
LiberationMono-BoldItalic.ttf
  4

  0
STYLE
  5
59
330
5
100
AcDbSymbolTableRecord
100
AcDbTextStyleTableRecord
  2
LiberationMono-Italic
 70
0
 40
0.0
 41
1.0
 50
0.0
 71
0
 42
2.5
  3
LiberationMono-Italic.ttf
  4

  0
STYLE
  5
92
330
5
100
AcDbSymbolTableRecord
100
AcDbTextStyleTableRecord
  2
ГОСТ
 70
0
 40
0.0
 41
1.0
 50
0.0
 71
0
 42
2.5
  3
ISOCPEUR.TTF
  4

  0
ENDTAB
  0
TABLE
  2
VIEW
  5
7
330
0
100
AcDbSymbolTable
 70
0
  0
ENDTAB
  0
TABLE
  2
UCS
  5
6
330
0
100
AcDbSymbolTable
 70
0
  0
ENDTAB
  0
TABLE
  2
APPID
  5
3
330
0
100
AcDbSymbolTable
 70
3
  0
APPID
  5
2A
330
3
100
AcDbSymbolTableRecord
100
AcDbRegAppTableRecord
  2
ACAD
 70
0
  0
APPID
  5
12A
330
3
100
AcDbSymbolTableRecord
100
AcDbRegAppTableRecord
  2
HATCHBACKGROUNDCOLOR
 70
0
  0
APPID
  5
12B
330
3
100
AcDbSymbolTableRecord
100
AcDbRegAppTableRecord
  2
EZDXF
 70
0
  0
ENDTAB
  0
TABLE
  2
DIMSTYLE
  5
4
330
0
100
AcDbSymbolTable
 70
12
100
AcDbDimStyleTable
  0
DIMSTYLE
105
2B
330
4
100
AcDbSymbolTableRecord
100
AcDbDimStyleTableRecord
  2
Standard
 70
0
 40
1.0
 41
2.5
 42
0.625
 43
3.75
 44
1.25
 45
0.0
 46
0.0
 47
0.0
 48
0.0
 49
2.5
140
2.5
141
2.5
142
0.0
143
0.03937007874
144
1.0
145
0.0
146
1.0
147
0.625
148
0.0
 69
0
 70
0
 71
0
 72
0
 73
0
 74
0
 75
0
 76
0
 77
1
 78
8
 79
3
170
0
171
3
172
1
173
0
174
0
175
0
176
0
177
0
178
0
179
2
271
2
272
2
273
2
274
3
275
0
276
0
277
2
278
44
279
0
280
0
281
0
282
0
283
0
284
8
285
0
286
0
288
0
289
3
290
0
371
-2
372
-2
  0
DIMSTYLE
105
73
330
4
100
AcDbSymbolTableRecord
100
AcDbDimStyleTableRecord
  2
EZDXF
 70
0
 40
1.0
 41
0.175
 42
0.125
 43
3.75
 44
0.375
 45
0.0
 46
0.0
 47
0.0
 48
0.0
 49
2.5
140
0.25
141
2.5
142
0.0
143
0.03937007874
144
100.0
145
0.0
146
0.5
147
0.1
148
0.0
 69
0
 70
0
 71
0
 72
0
 73
0
 74
0
 75
0
 76
0
 77
1
 78
12
 79
3
170
0
171
3
172
1
173
0
174
0
175
0
176
0
177
0
178
0
179
2
271
2
272
2
273
2
274
3
275
0
276
0
277
2
278
46
279
2
280
0
281
0
282
0
283
0
284
8
285
0
286
0
288
1
289
3
290
0
340
4C
342
74
371
-2
372
-2
  0
DIMSTYLE
105
7C
330
4
100
AcDbSymbolTableRecord
100
AcDbDimStyleTableRecord
  2
EZ_M_100_H25_CM
 70
0
 40
1.0
 41
0.25
 42
0.125
 43
3.75
 44
0.375
 45
0.0
 46
0.0
 47
0.0
 48
0.0
 49
2.5
140
0.25
141
2.5
142
0.125
143
0.03937007874
144
100.0
145
0.0
146
0.5
147
0.1
148
0.0
 69
0
 70
0
 71
0
 72
0
 73
0
 74
0
 75
0
 76
0
 77
1
 78
12
 79
3
170
0
171
3
172
1
173
0
174
0
175
0
176
0
177
0
178
0
179
2
271
2
272
2
273
2
274
3
275
0
276
0
277
2
278
46
279
2
280
0
281
0
282
0
283
0
284
8
285
0
286
0
288
1
289
3
290
0
340
4C
371
-2
372
-2
  0
DIMSTYLE
105
7D
330
4
100
AcDbSymbolTableRecord
100
AcDbDimStyleTableRecord
  2
EZ_M_50_H25_CM
 70
0
 40
1.0
 41
0.125
 42
0.0625
 43
3.75
 44
0.1875
 45
0.0
 46
0.0
 47
0.0
 48
0.0
 49
2.5
140
0.125
141
2.5
142
0.0625
143
0.03937007874
144
100.0
145
0.0
146
0.5
147
0.05
148
0.0
 69
0
 70
0
 71
0
 72
0
 73
0
 74
0
 75
0
 76
0
 77
1
 78
12
 79
3
170
0
171
3
172
1
173
0
174
0
175
0
176
0
177
0
178
0
179
2
271
2
272
2
273
2
274
3
275
0
276
0
277
2
278
46
279
2
280
0
281
0
282
0
283
0
284
8
285
0
286
0
288
1
289
3
290
0
340
4C
371
-2
372
-2
  0
DIMSTYLE
105
7E
330
4
100
AcDbSymbolTableRecord
100
AcDbDimStyleTableRecord
  2
EZ_M_25_H25_CM
 70
0
 40
1.0
 41
0.0625
 42
0.03125
 43
3.75
 44
0.09375
 45
0.0
 46
0.0
 47
0.0
 48
0.0
 49
2.5
140
0.0625
141
2.5
142
0.03125
143
0.03937007874
144
100.0
145
0.0
146
0.5
147
0.025
148
0.0
 69
0
 70
0
 71
0
 72
0
 73
0
 74
0
 75
0
 76
0
 77
1
 78
12
 79
3
170
0
171
3
172
1
173
0
174
0
175
0
176
0
177
0
178
0
179
2
271
2
272
2
273
2
274
3
275
0
276
0
277
2
278
46
279
2
280
0
281
0
282
0
283
0
284
8
285
0
286
0
288
1
289
3
290
0
340
4C
371
-2
372
-2
  0
DIMSTYLE
105
7F
330
4
100
AcDbSymbolTableRecord
100
AcDbDimStyleTableRecord
  2
EZ_M_20_H25_CM
 70
0
 40
1.0
 41
0.05
 42
0.025
 43
3.75
 44
0.07500000000000001
 45
0.0
 46
0.0
 47
0.0
 48
0.0
 49
2.5
140
0.05
141
2.5
142
0.025
143
0.03937007874
144
100.0
145
0.0
146
0.5
147
0.020000000000000004
148
0.0
 69
0
 70
0
 71
0
 72
0
 73
0
 74
0
 75
0
 76
0
 77
1
 78
12
 79
3
170
0
171
3
172
1
173
0
174
0
175
0
176
0
177
0
178
0
179
2
271
2
272
2
273
2
274
3
275
0
276
0
277
2
278
46
279
2
280
0
281
0
282
0
283
0
284
8
285
0
286
0
288
1
289
3
290
0
340
4C
371
-2
372
-2
  0
DIMSTYLE
105
80
330
4
100
AcDbSymbolTableRecord
100
AcDbDimStyleTableRecord
  2
EZ_M_10_H25_CM
 70
0
 40
1.0
 41
0.025
 42
0.0125
 43
3.75
 44
0.037500000000000006
 45
0.0
 46
0.0
 47
0.0
 48
0.0
 49
2.5
140
0.025
141
2.5
142
0.0125
143
0.03937007874
144
100.0
145
0.0
146
0.5
147
0.010000000000000002
148
0.0
 69
0
 70
0
 71
0
 72
0
 73
0
 74
0
 75
0
 76
0
 77
1
 78
12
 79
3
170
0
171
3
172
1
173
0
174
0
175
0
176
0
177
0
178
0
179
2
271
2
272
2
273
2
274
3
275
0
276
0
277
2
278
46
279
2
280
0
281
0
282
0
283
0
284
8
285
0
286
0
288
1
289
3
290
0
340
4C
371
-2
372
-2
  0
DIMSTYLE
105
81
330
4
100
AcDbSymbolTableRecord
100
AcDbDimStyleTableRecord
  2
EZ_M_5_H25_CM
 70
0
 40
1.0
 41
0.0125
 42
0.00625
 43
3.75
 44
0.018750000000000003
 45
0.0
 46
0.0
 47
0.0
 48
0.0
 49
2.5
140
0.0125
141
2.5
142
0.00625
143
0.03937007874
144
100.0
145
0.0
146
0.5
147
0.005000000000000001
148
0.0
 69
0
 70
0
 71
0
 72
0
 73
0
 74
0
 75
0
 76
0
 77
1
 78
12
 79
3
170
0
171
3
172
1
173
0
174
0
175
0
176
0
177
0
178
0
179
2
271
2
272
2
273
2
274
3
275
0
276
0
277
2
278
46
279
2
280
0
281
0
282
0
283
0
284
8
285
0
286
0
288
1
289
3
290
0
340
4C
371
-2
372
-2
  0
DIMSTYLE
105
82
330
4
100
AcDbSymbolTableRecord
100
AcDbDimStyleTableRecord
  2
EZ_M_1_H25_CM
 70
0
 40
1.0
 41
0.0025
 42
0.00125
 43
3.75
 44
0.00375
 45
0.0
 46
0.0
 47
0.0
 48
0.0
 49
2.5
140
0.0025
141
2.5
142
0.00125
143
0.03937007874
144
100.0
145
0.0
146
0.5
147
0.001
148
0.0
 69
0
 70
0
 71
0
 72
0
 73
0
 74
0
 75
0
 76
0
 77
1
 78
12
 79
3
170
0
171
3
172
1
173
0
174
0
175
0
176
0
177
0
178
0
179
2
271
2
272
2
273
2
274
3
275
0
276
0
277
2
278
46
279
2
280
0
281
0
282
0
283
0
284
8
285
0
286
0
288
1
289
3
290
0
340
4C
371
-2
372
-2
  0
DIMSTYLE
105
83
330
4
100
AcDbSymbolTableRecord
100
AcDbDimStyleTableRecord
  2
EZ_RADIUS
 70
0
 40
1.0
 41
0.25
 42
0.125
 43
3.75
 44
0.375
 45
0.0
 46
0.0
 47
0.0
 48
0.0
 49
2.5
140
0.25
141
0.0
142
0.0
143
0.03937007874
144
100.0
145
0.0
146
0.5
147
0.1
148
0.0
 69
0
 70
0
 71
0
 72
0
 73
0
 74
0
 75
0
 76
0
 77
1
 78
12
 79
3
170
0
171
3
172
0
173
0
174
0
175
0
176
0
177
0
178
0
179
2
271
2
272
2
273
2
274
3
275
0
276
0
277
2
278
46
279
1
280
0
281
0
282
0
283
0
284
8
285
0
286
0
288
1
289
3
290
0
340
4C
342
84
371
-2
372
-2
  0
DIMSTYLE
105
88
330
4
100
AcDbSymbolTableRecord
100
AcDbDimStyleTableRecord
  2
EZ_RADIUS_INSIDE
 70
0
 40
1.0
 41
0.25
 42
0.125
 43
3.75
 44
0.375
 45
0.0
 46
0.0
 47
0.0
 48
0.0
 49
2.5
140
0.25
141
0.0
142
0.0
143
0.03937007874
144
100.0
145
0.0
146
0.5
147
0.1
148
0.0
 69
0
 70
0
 71
0
 72
0
 73
0
 74
0
 75
0
 76
0
 77
0
 78
12
 79
3
170
0
171
3
172
0
173
0
174
1
175
0
176
0
177
0
178
0
179
2
271
2
272
2
273
2
274
3
275
0
276
0
277
2
278
46
279
0
280
0
281
0
282
0
283
0
284
8
285
0
286
0
288
1
289
0
290
0
340
4C
342
84
371
-2
372
-2
  0
DIMSTYLE
105
89
330
4
100
AcDbSymbolTableRecord
100
AcDbDimStyleTableRecord
  2
EZ_CURVED
 70
0
 40
1.0
 41
0.25
 42
0.125
 43
3.75
 44
0.375
 45
0.0
 46
0.0
 47
0.0
 48
0.0
 49
2.5
140
0.25
141
2.5
142
0.0
143
0.03937007874
144
100.0
145
0.0
146
0.5
147
0.1
148
0.0
 69
0
 70
0
 71
0
 72
0
 73
0
 74
0
 75
0
 76
0
 77
1
 78
12
 79
2
 90
2
170
0
171
3
172
1
173
0
174
0
175
0
176
0
177
0
178
0
179
2
271
2
272
2
273
2
274
3
275
0
276
0
277
2
278
46
279
2
280
0
281
0
282
0
283
0
284
8
285
0
286
0
288
1
289
3
290
0
340
4C
371
-2
372
-2
  0
ENDTAB
  0
TABLE
  2
BLOCK_RECORD
  5
9
330
0
100
AcDbSymbolTable
 70
5
  0
BLOCK_RECORD
  5
17
330
9
100
AcDbSymbolTableRecord
100
AcDbBlockTableRecord
  2
*Model_Space
340
1A
 70
0
280
1
281
0
  0
BLOCK_RECORD
  5
1B
330
9
100
AcDbSymbolTableRecord
100
AcDbBlockTableRecord
  2
*Paper_Space
340
1E
 70
0
280
1
281
0
  0
BLOCK_RECORD
  5
74
330
9
100
AcDbSymbolTableRecord
100
AcDbBlockTableRecord
  2
_ARCHTICK
340
0
 70
0
280
1
281
0
  0
BLOCK_RECORD
  5
78
330
9
100
AcDbSymbolTableRecord
100
AcDbBlockTableRecord
  2
_CLOSEDFILLED
340
0
 70
0
280
1
281
0
  0
BLOCK_RECORD
  5
84
330
9
100
AcDbSymbolTableRecord
100
AcDbBlockTableRecord
  2
_CLOSEDBLANK
340
0
 70
0
280
1
281
0
  0
ENDTAB
  0
ENDSEC
  0
SECTION
  2
BLOCKS
  0
BLOCK
  5
18
330
17
100
AcDbEntity
  8
0
100
AcDbBlockBegin
  2
*Model_Space
 70
0
 10
0.0
 20
0.0
 30
0.0
  3
*Model_Space
  1

  0
ENDBLK
  5
19
330
17
100
AcDbEntity
  8
0
100
AcDbBlockEnd
  0
BLOCK
  5
1C
330
1B
100
AcDbEntity
  8
0
100
AcDbBlockBegin
  2
*Paper_Space
 70
0
 10
0.0
 20
0.0
 30
0.0
  3
*Paper_Space
  1

  0
ENDBLK
  5
1D
330
1B
100
AcDbEntity
  8
0
100
AcDbBlockEnd
  0
BLOCK
  5
75
330
74
100
AcDbEntity
  8
0
100
AcDbBlockBegin
  2
_ARCHTICK
 70
0
 10
0.0
 20
0.0
 30
0.0
  3
_ARCHTICK
  1

  0
LWPOLYLINE
  5
77
330
74
100
AcDbEntity
  8
0
  6
BYBLOCK
 62
0
100
AcDbPolyline
 90
2
 70
0
 43
0.15
 10
-0.5
 20
-0.5
 10
0.5
 20
0.5
  0
ENDBLK
  5
76
330
74
100
AcDbEntity
  8
0
100
AcDbBlockEnd
  0
BLOCK
  5
79
330
78
100
AcDbEntity
  8
0
100
AcDbBlockBegin
  2
_CLOSEDFILLED
 70
0
 10
0.0
 20
0.0
 30
0.0
  3
_CLOSEDFILLED
  1

  0
SOLID
  5
7B
330
78
100
AcDbEntity
  8
0
  6
BYBLOCK
 62
0
100
AcDbTrace
 10
-1.0
 20
0.16439898372402537
 30
0.0
 11
0.0
 21
0.0
 31
0.0
 12
-1.0
 22
-0.16439898372402537
 32
0.0
 13
-1.0
 23
-0.16439898372402537
 33
0.0
  0
ENDBLK
  5
7A
330
78
100
AcDbEntity
  8
0
100
AcDbBlockEnd
  0
BLOCK
  5
85
330
84
100
AcDbEntity
  8
0
100
AcDbBlockBegin
  2
_CLOSEDBLANK
 70
0
 10
0.0
 20
0.0
 30
0.0
  3
_CLOSEDBLANK
  1

  0
LWPOLYLINE
  5
87
330
84
100
AcDbEntity
  8
0
  6
BYBLOCK
 62
0
100
AcDbPolyline
 90
3
 70
1
 10
-1.0
 20
0.16439898372402537
 10
0.0
 20
0.0
 10
-1.0
 20
-0.16439898372402537
  0
ENDBLK
  5
86
330
84
100
AcDbEntity
  8
0
100
AcDbBlockEnd
  0
ENDSEC
  0
SECTION
  2
ENTITIES
  0
LWPOLYLINE
  5
93
330
17
100
AcDbEntity
  8
00_РАМКА
100
AcDbPolyline
 90
4
 70
1
 10
0.0
 20
0.0
 10
393.7
 20
0.0
 10
393.7
 20
137.16
 10
0.0
 20
137.16
  0
LWPOLYLINE
  5
94
330
17
100
AcDbEntity
  8
03_СЕТКА
370
25
420
14212581
100
AcDbPolyline
 90
2
 70
0
 10
36.23736533736534
 20
21.945600000000002
 10
36.23736533736534
 20
109.728
  0
LWPOLYLINE
  5
95
330
17
100
AcDbEntity
  8
03_СЕТКА
370
25
420
14212581
100
AcDbPolyline
 90
2
 70
0
 10
55.45978705978705
 20
21.945600000000002
 10
55.45978705978705
 20
109.728
  0
LWPOLYLINE
  5
96
330
17
100
AcDbEntity
  8
03_СЕТКА
370
25
420
14212581
100
AcDbPolyline
 90
2
 70
0
 10
74.68220878220878
 20
21.945600000000002
 10
74.68220878220878
 20
109.728
  0
LWPOLYLINE
  5
97
330
17
100
AcDbEntity
  8
03_СЕТКА
370
25
420
14212581
100
AcDbPolyline
 90
2
 70
0
 10
93.9046305046305
 20
21.945600000000002
 10
93.9046305046305
 20
109.728
  0
LWPOLYLINE
  5
98
330
17
100
AcDbEntity
  8
03_СЕТКА
370
25
420
14212581
100
AcDbPolyline
 90
2
 70
0
 10
113.12705222705223
 20
21.945600000000002
 10
113.12705222705223
 20
109.728
  0
LWPOLYLINE
  5
99
330
17
100
AcDbEntity
  8
03_СЕТКА
370
25
420
14212581
100
AcDbPolyline
 90
2
 70
0
 10
132.34947394947392
 20
21.945600000000002
 10
132.34947394947392
 20
109.728
  0
LWPOLYLINE
  5
9A
330
17
100
AcDbEntity
  8
03_СЕТКА
370
25
420
14212581
100
AcDbPolyline
 90
2
 70
0
 10
151.57189567189565
 20
21.945600000000002
 10
151.57189567189565
 20
109.728
  0
LWPOLYLINE
  5
9B
330
17
100
AcDbEntity
  8
03_СЕТКА
370
25
420
14212581
100
AcDbPolyline
 90
2
 70
0
 10
170.79431739431737
 20
21.945600000000002
 10
170.79431739431737
 20
109.728
  0
LWPOLYLINE
  5
9C
330
17
100
AcDbEntity
  8
03_СЕТКА
370
25
420
14212581
100
AcDbPolyline
 90
2
 70
0
 10
190.01673911673907
 20
21.945600000000002
 10
190.01673911673907
 20
109.728
  0
LWPOLYLINE
  5
9D
330
17
100
AcDbEntity
  8
03_СЕТКА
370
25
420
14212581
100
AcDbPolyline
 90
2
 70
0
 10
49.2125
 20
10.596594881954555
 10
186.6528153153153
 20
10.596594881954555
  0
LWPOLYLINE
  5
9E
330
17
100
AcDbEntity
  8
03_СЕТКА
370
25
420
14212581
100
AcDbPolyline
 90
2
 70
0
 10
49.2125
 20
25.679249674290965
 10
186.6528153153153
 20
25.679249674290965
  0
LWPOLYLINE
  5
9F
330
17
100
AcDbEntity
  8
03_СЕТКА
370
25
420
14212581
100
AcDbPolyline
 90
2
 70
0
 10
49.2125
 20
40.76190446662738
 10
186.6528153153153
 20
40.76190446662738
  0
LWPOLYLINE
  5
A0
330
17
100
AcDbEntity
  8
03_СЕТКА
370
25
420
14212581
100
AcDbPolyline
 90
2
 70
0
 10
49.2125
 20
55.84455925896378
 10
186.6528153153153
 20
55.84455925896378
  0
LWPOLYLINE
  5
A1
330
17
100
AcDbEntity
  8
03_СЕТКА
370
25
420
14212581
100
AcDbPolyline
 90
2
 70
0
 10
49.2125
 20
70.9272140513002
 10
186.6528153153153
 20
70.9272140513002
  0
LWPOLYLINE
  5
A2
330
17
100
AcDbEntity
  8
03_СЕТКА
370
25
420
14212581
100
AcDbPolyline
 90
2
 70
0
 10
49.2125
 20
86.0098688436366
 10
186.6528153153153
 20
86.0098688436366
  0
LWPOLYLINE
  5
A3
330
17
100
AcDbEntity
  8
03_СЕТКА
370
25
420
14212581
100
AcDbPolyline
 90
2
 70
0
 10
49.2125
 20
101.09252363597302
 10
186.6528153153153
 20
101.09252363597302
  0
LWPOLYLINE
  5
A4
330
17
100
AcDbEntity
  8
03_СЕТКА
370
25
420
14212581
100
AcDbPolyline
 90
2
 70
0
 10
49.2125
 20
116.17517842830942
 10
186.6528153153153
 20
116.17517842830942
  0
LWPOLYLINE
  5
A5
330
17
100
AcDbEntity
  8
02_ОСИ
370
30
420
3819096
100
AcDbPolyline
 90
2
 70
1
 10
49.2125
 20
21.945600000000002
 10
49.2125
 20
109.728
  0
LWPOLYLINE
  5
A6
330
17
100
AcDbEntity
  8
02_ОСИ
370
30
420
3819096
100
AcDbPolyline
 90
2
 70
1
 10
186.6528153153153
 20
21.945600000000002
 10
186.6528153153153
 20
109.728
  0
LWPOLYLINE
  5
A7
330
17
100
AcDbEntity
  8
02_ОСИ
370
30
420
3819096
100
AcDbPolyline
 90
2
 70
1
 10
49.2125
 20
21.945600000000002
 10
186.65281531531528
 20
21.945600000000002
  0
LWPOLYLINE
  5
A8
330
17
100
AcDbEntity
  8
02_ОСИ
370
30
420
3819096
100
AcDbPolyline
 90
2
 70
1
 10
49.2125
 20
109.728
 10
186.65281531531528
 20
109.728
  0
TEXT
  5
A9
330
17
100
AcDbEntity
  8
02_ОСИ
420
5661306
100
AcDbText
 10
36.23736533736534
 20
17.88865555555556
 30
0.0
 40
2.2859999999999996
  1
6
  7
ГОСТ
 72
1
 11
36.23736533736534
 21
17.88865555555556
 31
0.0
100
AcDbText
 73
2
  0
LINE
  5
AA
330
17
100
AcDbEntity
  8
02_ОСИ
100
AcDbLine
 10
55.45978705978705
 20
21.945600000000002
 30
0.0
 11
55.45978705978705
 21
20.71087777777778
 31
0.0
  0
TEXT
  5
AB
330
17
100
AcDbEntity
  8
02_ОСИ
420
5661306
100
AcDbText
 10
55.45978705978705
 20
17.88865555555556
 30
0.0
 40
2.2859999999999996
  1
8
  7
ГОСТ
 72
1
 11
55.45978705978705
 21
17.88865555555556
 31
0.0
100
AcDbText
 73
2
  0
LINE
  5
AC
330
17
100
AcDbEntity
  8
02_ОСИ
100
AcDbLine
 10
74.68220878220878
 20
21.945600000000002
 30
0.0
 11
74.68220878220878
 21
20.71087777777778
 31
0.0
  0
TEXT
  5
AD
330
17
100
AcDbEntity
  8
02_ОСИ
420
5661306
100
AcDbText
 10
74.68220878220878
 20
17.88865555555556
 30
0.0
 40
2.2859999999999996
  1
10
  7
ГОСТ
 72
1
 11
74.68220878220878
 21
17.88865555555556
 31
0.0
100
AcDbText
 73
2
  0
LINE
  5
AE
330
17
100
AcDbEntity
  8
02_ОСИ
100
AcDbLine
 10
93.9046305046305
 20
21.945600000000002
 30
0.0
 11
93.9046305046305
 21
20.71087777777778
 31
0.0
  0
TEXT
  5
AF
330
17
100
AcDbEntity
  8
02_ОСИ
420
5661306
100
AcDbText
 10
93.9046305046305
 20
17.88865555555556
 30
0.0
 40
2.2859999999999996
  1
12
  7
ГОСТ
 72
1
 11
93.9046305046305
 21
17.88865555555556
 31
0.0
100
AcDbText
 73
2
  0
LINE
  5
B0
330
17
100
AcDbEntity
  8
02_ОСИ
100
AcDbLine
 10
113.12705222705223
 20
21.945600000000002
 30
0.0
 11
113.12705222705223
 21
20.71087777777778
 31
0.0
  0
TEXT
  5
B1
330
17
100
AcDbEntity
  8
02_ОСИ
420
5661306
100
AcDbText
 10
113.12705222705223
 20
17.88865555555556
 30
0.0
 40
2.2859999999999996
  1
14
  7
ГОСТ
 72
1
 11
113.12705222705223
 21
17.88865555555556
 31
0.0
100
AcDbText
 73
2
  0
LINE
  5
B2
330
17
100
AcDbEntity
  8
02_ОСИ
100
AcDbLine
 10
132.34947394947392
 20
21.945600000000002
 30
0.0
 11
132.34947394947392
 21
20.71087777777778
 31
0.0
  0
TEXT
  5
B3
330
17
100
AcDbEntity
  8
02_ОСИ
420
5661306
100
AcDbText
 10
132.34947394947392
 20
17.88865555555556
 30
0.0
 40
2.2859999999999996
  1
16
  7
ГОСТ
 72
1
 11
132.34947394947392
 21
17.88865555555556
 31
0.0
100
AcDbText
 73
2
  0
LINE
  5
B4
330
17
100
AcDbEntity
  8
02_ОСИ
100
AcDbLine
 10
151.57189567189565
 20
21.945600000000002
 30
0.0
 11
151.57189567189565
 21
20.71087777777778
 31
0.0
  0
TEXT
  5
B5
330
17
100
AcDbEntity
  8
02_ОСИ
420
5661306
100
AcDbText
 10
151.57189567189565
 20
17.88865555555556
 30
0.0
 40
2.2859999999999996
  1
18
  7
ГОСТ
 72
1
 11
151.57189567189565
 21
17.88865555555556
 31
0.0
100
AcDbText
 73
2
  0
LINE
  5
B6
330
17
100
AcDbEntity
  8
02_ОСИ
100
AcDbLine
 10
170.79431739431737
 20
21.945600000000002
 30
0.0
 11
170.79431739431737
 21
20.71087777777778
 31
0.0
  0
TEXT
  5
B7
330
17
100
AcDbEntity
  8
02_ОСИ
420
5661306
100
AcDbText
 10
170.79431739431737
 20
17.88865555555556
 30
0.0
 40
2.2859999999999996
  1
20
  7
ГОСТ
 72
1
 11
170.79431739431737
 21
17.88865555555556
 31
0.0
100
AcDbText
 73
2
  0
TEXT
  5
B8
330
17
100
AcDbEntity
  8
02_ОСИ
420
5661306
100
AcDbText
 10
190.01673911673907
 20
17.88865555555556
 30
0.0
 40
2.2859999999999996
  1
22
  7
ГОСТ
 72
1
 11
190.01673911673907
 21
17.88865555555556
 31
0.0
100
AcDbText
 73
2
  0
TEXT
  5
B9
330
17
100
AcDbEntity
  8
02_ОСИ
420
5661306
100
AcDbText
 10
43.31405555555555
 20
10.215222811642056
 30
0.0
 40
2.2859999999999996
  1
−20
  7
ГОСТ
 72
1
 11
43.31405555555555
 21
10.215222811642056
 31
0.0
100
AcDbText
 73
2
  0
LINE
  5
BA
330
17
100
AcDbEntity
  8
02_ОСИ
100
AcDbLine
 10
49.2125
 20
25.679249674290965
 30
0.0
 11
47.977777777777774
 21
25.679249674290965
 31
0.0
  0
TEXT
  5
BB
330
17
100
AcDbEntity
  8
02_ОСИ
420
5661306
100
AcDbText
 10
45.72705555555555
 20
25.297877603978467
 30
0.0
 40
2.2859999999999996
  1
0
  7
ГОСТ
 72
1
 11
45.72705555555555
 21
25.297877603978467
 31
0.0
100
AcDbText
 73
2
  0
LINE
  5
BC
330
17
100
AcDbEntity
  8
02_ОСИ
100
AcDbLine
 10
49.2125
 20
40.76190446662738
 30
0.0
 11
47.977777777777774
 21
40.76190446662738
 31
0.0
  0
TEXT
  5
BD
330
17
100
AcDbEntity
  8
02_ОСИ
420
5661306
100
AcDbText
 10
44.71105555555555
 20
40.38053239631488
 30
0.0
 40
2.2859999999999996
  1
20
  7
ГОСТ
 72
1
 11
44.71105555555555
 21
40.38053239631488
 31
0.0
100
AcDbText
 73
2
  0
LINE
  5
BE
330
17
100
AcDbEntity
  8
02_ОСИ
100
AcDbLine
 10
49.2125
 20
55.84455925896378
 30
0.0
 11
47.977777777777774
 21
55.84455925896378
 31
0.0
  0
TEXT
  5
BF
330
17
100
AcDbEntity
  8
02_ОСИ
420
5661306
100
AcDbText
 10
44.71105555555555
 20
55.46318718865128
 30
0.0
 40
2.2859999999999996
  1
40
  7
ГОСТ
 72
1
 11
44.71105555555555
 21
55.46318718865128
 31
0.0
100
AcDbText
 73
2
  0
LINE
  5
C0
330
17
100
AcDbEntity
  8
02_ОСИ
100
AcDbLine
 10
49.2125
 20
70.9272140513002
 30
0.0
 11
47.977777777777774
 21
70.9272140513002
 31
0.0
  0
TEXT
  5
C1
330
17
100
AcDbEntity
  8
02_ОСИ
420
5661306
100
AcDbText
 10
44.71105555555555
 20
70.5458419809877
 30
0.0
 40
2.2859999999999996
  1
60
  7
ГОСТ
 72
1
 11
44.71105555555555
 21
70.5458419809877
 31
0.0
100
AcDbText
 73
2
  0
LINE
  5
C2
330
17
100
AcDbEntity
  8
02_ОСИ
100
AcDbLine
 10
49.2125
 20
86.0098688436366
 30
0.0
 11
47.977777777777774
 21
86.0098688436366
 31
0.0
  0
TEXT
  5
C3
330
17
100
AcDbEntity
  8
02_ОСИ
420
5661306
100
AcDbText
 10
44.71105555555555
 20
85.6284967733241
 30
0.0
 40
2.2859999999999996
  1
80
  7
ГОСТ
 72
1
 11
44.71105555555555
 21
85.6284967733241
 31
0.0
100
AcDbText
 73
2
  0
LINE
  5
C4
330
17
100
AcDbEntity
  8
02_ОСИ
100
AcDbLine
 10
49.2125
 20
101.09252363597302
 30
0.0
 11
47.977777777777774
 21
101.09252363597302
 31
0.0
  0
TEXT
  5
C5
330
17
100
AcDbEntity
  8
02_ОСИ
420
5661306
100
AcDbText
 10
43.695055555555555
 20
100.71115156566051
 30
0.0
 40
2.2859999999999996
  1
100
  7
ГОСТ
 72
1
 11
43.695055555555555
 21
100.71115156566051
 31
0.0
100
AcDbText
 73
2
  0
TEXT
  5
C6
330
17
100
AcDbEntity
  8
02_ОСИ
420
5661306
100
AcDbText
 10
43.695055555555555
 20
115.79380635799691
 30
0.0
 40
2.2859999999999996
  1
120
  7
ГОСТ
 72
1
 11
43.695055555555555
 21
115.79380635799691
 31
0.0
100
AcDbText
 73
2
  0
TEXT
  5
C7
330
17
100
AcDbEntity
  8
02_ОСИ
420
1712948
100
AcDbText
 10
117.93265765765763
 20
13.302544444444447
 30
0.0
 40
2.2859999999999996
  1
скорость, км/ч
  7
ГОСТ
 72
1
 11
117.93265765765763
 21
13.302544444444447
 31
0.0
100
AcDbText
 73
2
  0
TEXT
  5
C8
330
17
100
AcDbEntity
  8
02_ОСИ
420
1712948
100
AcDbText
 10
37.64844444444444
 20
65.8368
 30
0.0
 40
2.2859999999999996
  1
R, кН
 50
90.0
  7
ГОСТ
 72
1
 11
37.64844444444444
 21
65.8368
 31
0.0
100
AcDbText
 73
2
  0
TEXT
  5
C9
330
17
100
AcDbEntity
  8
04_ТЕКСТ
420
1712948
100
AcDbText
 10
78.5495
 20
112.76106206597221
 30
0.0
 40
2.54
  1
Буксировочное сопротивление
  7
ГОСТ
 72
1
 11
78.5495
 21
112.76106206597221
 31
0.0
100
AcDbText
 73
2
  0
LWPOLYLINE
  5
CA
330
17
100
AcDbEntity
  8
01_ЛИНИИ
370
80
420
1858698
100
AcDbPolyline
 90
27
 70
0
 10
55.45978705978705
 20
36.12666949952345
 10
60.26539249039248
 20
37.41688420638357
 10
65.07099792099791
 20
38.783418982832345
 10
69.87660335160334
 20
40.227664192792005
 10
74.68220878220878
 20
41.7513424941631
 10
79.4878142128142
 20
43.35654202713009
 10
84.29341964341963
 20
45.045751885711475
 10
89.09902507402506
 20
46.82189980184617
 10
93.9046305046305
 20
48.68839198762282
 10
98.71023593523593
 20
50.6491550932728
 10
103.51584136584137
 20
52.70868024752404
 10
108.32144679644679
 20
54.872069153709774
 10
113.12705222705223
 20
57.14508222023527
 10
117.93265765765763
 20
59.534188708041036
 10
122.73826308826308
 20
62.04661888086152
 10
127.54386851886848
 20
64.69041814657409
 10
132.34947394947392
 20
67.47450317992411
 10
137.1550793800794
 20
70.40872001851004
 10
141.9606848106848
 20
73.50390412520835
 10
146.76629024129025
 20
76.77194241127243
 10
151.57189567189565
 20
80.2258372152074
 10
156.3775011025011
 20
83.8797722332363
 10
161.1831065331065
 20
87.74918039776942
 10
165.98871196371195
 20
91.85081370078261
 10
170.79431739431737
 20
96.20281495942793
 10
175.5999228249228
 20
100.82479152155172
 10
180.40552825552822
 20
105.73789090909091
  0
LWPOLYLINE
  5
CB
330
17
100
AcDbEntity
  8
01_ЛИНИИ
  6
DASHED
370
50
420
1602644
100
AcDbPolyline
 90
27
 70
0
 10
55.45978705978705
 20
35.02335365872251
 10
60.26539249039248
 20
36.15748173811199
 10
65.07099792099791
 20
37.352954090128286
 10
69.87660335160334
 20
38.6094416455215
 10
74.68220878220878
 20
39.92663622679087
 10
79.4878142128142
 20
41.30424821167281
 10
84.29341964341963
 20
42.74200455961311
 10
89.09902507402506
 20
44.23964713051496
 10
93.9046305046305
 20
45.79693124136963
 10
98.71023593523593
 20
47.4136244183902
 10
103.51584136584137
 20
49.08950531124593
 10
108.32144679644679
 20
50.82436274279105
 10
113.12705222705223
 20
52.617994872891046
 10
117.93265765765763
 20
54.47020845898521
 10
122.73826308826308
 20
56.380818199184084
 10
127.54386851886848
 20
58.3496461461969
 10
132.34947394947392
 20
60.376521182374695
 10
137.1550793800794
 20
62.46127854775299
 10
141.9606848106848
 20
64.60375941427384
 10
146.76629024129025
 20
66.80381050042168
 10
151.57189567189565
 20
69.06128372137442
 10
156.3775011025011
 20
71.37603587048567
 10
161.1831065331065
 20
73.74792832850963
 10
165.98871196371195
 20
76.17682679747452
 10
170.79431739431737
 20
78.66260105652816
 10
175.5999228249228
 20
81.20512473743014
 10
180.40552825552822
 20
83.80427511766233
  0
LWPOLYLINE
  5
CC
330
17
100
AcDbEntity
  8
01_ЛИНИИ
  6
DASHED
370
50
420
11544116
100
AcDbPolyline
 90
27
 70
0
 10
55.45978705978705
 20
25.935709090909093
 10
60.26539249039248
 20
25.982630632449922
 10
65.07099792099791
 20
26.03791190513867
 10
69.87660335160334
 20
26.103272342147438
 10
74.68220878220878
 20
26.180742778877555
 10
79.4878142128142
 20
26.27270097777708
 10
84.29341964341963
 20
26.38190907341872
 10
89.09902507402506
 20
26.511552937838175
 10
93.9046305046305
 20
26.665283466132855
 10
98.71023593523593
 20
26.847259782321018
 10
103.51584136584137
 20
27.062194365461348
 10
108.32144679644679
 20
27.315400096032874
 10
113.12705222705223
 20
27.612839222575346
 10
117.93265765765763
 20
27.961174248589998
 10
122.73826308826308
 20
28.36782073970073
 10
127.54386851886848
 20
28.84100205107566
 10
132.34947394947392
 20
29.38980597510914
 10
137.1550793800794
 20
30.024243309364127
 10
141.9606848106848
 20
30.75530834477499
 10
146.76629024129025
 20
31.595041274110706
 10
151.57189567189565
 20
32.55659252069848
 10
156.3775011025011
 20
33.654288987407746
 10
161.1831065331065
 20
34.903702225894605
 10
165.98871196371195
 20
36.32171852610666
 10
170.79431739431737
 20
37.92661092604819
 10
175.5999228249228
 20
39.73811314180591
 10
180.40552825552822
 20
41.77749541783488
  0
HATCH
  5
CD
330
17
100
AcDbEntity
  8
05_ЗАЛИВКА
 62
7
420
16777215
100
AcDbHatch
 10
0.0
 20
0.0
 30
0.0
210
0.0
220
0.0
230
1.0
  2
SOLID
 70
1
 71
0
 91
1
 92
3
 72
0
 73
1
 93
17
 10
51.18805555555554
 20
94.34490451388889
 10
96.79516666666666
 20
94.34490451388889
 10
97.0421111111111
 20
94.38018229166667
 10
97.32433333333331
 20
94.66240451388889
 10
97.3596111111111
 20
94.90934895833334
 10
97.3596111111111
 20
107.75244444444444
 10
97.32433333333331
 20
107.99938888888889
 10
97.0421111111111
 20
108.28161111111112
 10
96.79516666666666
 20
108.3168888888889
 10
51.18805555555554
 20
108.3168888888889
 10
50.941111111111105
 20
108.28161111111112
 10
50.65888888888888
 20
107.99938888888889
 10
50.6236111111111
 20
107.75244444444444
 10
50.6236111111111
 20
94.90934895833334
 10
50.65888888888888
 20
94.66240451388889
 10
50.941111111111105
 20
94.38018229166667
 10
51.18805555555554
 20
94.34490451388889
 97
0
 75
0
 76
1
 98
0
  0
LWPOLYLINE
  5
CE
330
17
100
AcDbEntity
  8
07_ЛЕГЕНДА
370
35
420
13421772
100
AcDbPolyline
 90
17
 70
1
 10
51.18805555555554
 20
94.34490451388889
 10
96.79516666666666
 20
94.34490451388889
 10
97.0421111111111
 20
94.38018229166667
 10
97.32433333333331
 20
94.66240451388889
 10
97.3596111111111
 20
94.90934895833334
 10
97.3596111111111
 20
107.75244444444444
 10
97.32433333333331
 20
107.99938888888889
 10
97.0421111111111
 20
108.28161111111112
 10
96.79516666666666
 20
108.3168888888889
 10
51.18805555555554
 20
108.3168888888889
 10
50.941111111111105
 20
108.28161111111112
 10
50.65888888888888
 20
107.99938888888889
 10
50.6236111111111
 20
107.75244444444444
 10
50.6236111111111
 20
94.90934895833334
 10
50.65888888888888
 20
94.66240451388889
 10
50.941111111111105
 20
94.38018229166667
 10
51.18805555555554
 20
94.34490451388889
  0
LWPOLYLINE
  5
CF
330
17
100
AcDbEntity
  8
07_ЛЕГЕНДА
370
80
420
1858698
100
AcDbPolyline
 90
3
 70
0
 10
51.7525
 20
105.8897777777778
 10
54.57472222222222
 20
105.8897777777778
 10
57.39694444444444
 20
105.8897777777778
  0
LWPOLYLINE
  5
D0
330
17
100
AcDbEntity
  8
07_ЛЕГЕНДА
  6
DASHED
370
50
420
1602644
100
AcDbPolyline
 90
3
 70
0
 10
51.7525
 20
101.51467187499999
 10
54.57472222222222
 20
101.51467187499999
 10
57.39694444444444
 20
101.51467187499999
  0
LWPOLYLINE
  5
D1
330
17
100
AcDbEntity
  8
07_ЛЕГЕНДА
  6
DASHED
370
50
420
11544116
100
AcDbPolyline
 90
3
 70
0
 10
51.7525
 20
97.13956597222221
 10
54.57472222222222
 20
97.13956597222221
 10
57.39694444444444
 20
97.13956597222221
  0
TEXT
  5
D2
330
17
100
AcDbEntity
  8
07_ЛЕГЕНДА
420
1712948
100
AcDbText
 10
66.51272222222221
 20
105.63511631944444
 30
0.0
 40
2.0319999999999996
  1
полное R
  7
ГОСТ
 72
1
 11
66.51272222222221
 21
105.63511631944444
 31
0.0
100
AcDbText
 73
2
  0
TEXT
  5
D3
330
17
100
AcDbEntity
  8
07_ЛЕГЕНДА
420
1712948
100
AcDbText
 10
77.9427222222222
 20
101.33089670138888
 30
0.0
 40
2.0319999999999996
  1
трение с формфактором
  7
ГОСТ
 72
1
 11
77.9427222222222
 21
101.33089670138888
 31
0.0
100
AcDbText
 73
2
  0
TEXT
  5
D4
330
17
100
AcDbEntity
  8
07_ЛЕГЕНДА
420
1712948
100
AcDbText
 10
68.16372222222222
 20
96.88490451388888
 30
0.0
 40
2.0319999999999996
  1
остаточное
  7
ГОСТ
 72
1
 11
68.16372222222222
 21
96.88490451388888
 31
0.0
100
AcDbText
 73
2
  0
LWPOLYLINE
  5
D5
330
17
100
AcDbEntity
  8
03_СЕТКА
370
25
420
14212581
100
AcDbPolyline
 90
2
 70
0
 10
204.46071911946734
 20
21.945600000000002
 10
204.46071911946734
 20
109.728
  0
LWPOLYLINE
  5
D6
330
17
100
AcDbEntity
  8
03_СЕТКА
370
25
420
14212581
100
AcDbPolyline
 90
2
 70
0
 10
223.13697174447168
 20
21.945600000000002
 10
223.13697174447168
 20
109.728
  0
LWPOLYLINE
  5
D7
330
17
100
AcDbEntity
  8
03_СЕТКА
370
25
420
14212581
100
AcDbPolyline
 90
2
 70
0
 10
241.81322436947605
 20
21.945600000000002
 10
241.81322436947605
 20
109.728
  0
LWPOLYLINE
  5
D8
330
17
100
AcDbEntity
  8
03_СЕТКА
370
25
420
14212581
100
AcDbPolyline
 90
2
 70
0
 10
260.4894769944804
 20
21.945600000000002
 10
260.4894769944804
 20
109.728
  0
LWPOLYLINE
  5
D9
330
17
100
AcDbEntity
  8
03_СЕТКА
370
25
420
14212581
100
AcDbPolyline
 90
2
 70
0
 10
279.1657296194847
 20
21.945600000000002
 10
279.1657296194847
 20
109.728
  0
LWPOLYLINE
  5
DA
330
17
100
AcDbEntity
  8
03_СЕТКА
370
25
420
14212581
100
AcDbPolyline
 90
2
 70
0
 10
297.8419822444891
 20
21.945600000000002
 10
297.8419822444891
 20
109.728
  0
LWPOLYLINE
  5
DB
330
17
100
AcDbEntity
  8
03_СЕТКА
370
25
420
14212581
100
AcDbPolyline
 90
2
 70
0
 10
316.51823486949337
 20
21.945600000000002
 10
316.51823486949337
 20
109.728
  0
LWPOLYLINE
  5
DC
330
17
100
AcDbEntity
  8
03_СЕТКА
370
25
420
14212581
100
AcDbPolyline
 90
2
 70
0
 10
335.19448749449776
 20
21.945600000000002
 10
335.19448749449776
 20
109.728
  0
LWPOLYLINE
  5
DD
330
17
100
AcDbEntity
  8
03_СЕТКА
370
25
420
14212581
100
AcDbPolyline
 90
2
 70
0
 10
353.87074011950205
 20
21.945600000000002
 10
353.87074011950205
 20
109.728
  0
LWPOLYLINE
  5
DE
330
17
100
AcDbEntity
  8
03_СЕТКА
370
25
420
14212581
100
AcDbPolyline
 90
2
 70
0
 10
372.5469927445064
 20
21.945600000000002
 10
372.5469927445064
 20
109.728
  0
LWPOLYLINE
  5
DF
330
17
100
AcDbEntity
  8
03_СЕТКА
370
25
420
14212581
100
AcDbPolyline
 90
2
 70
0
 10
216.88968468468465
 20
21.945600000000002
 10
354.3299999999999
 20
21.945600000000002
  0
LWPOLYLINE
  5
E0
330
17
100
AcDbEntity
  8
03_СЕТКА
370
25
420
14212581
100
AcDbPolyline
 90
2
 70
0
 10
216.88968468468465
 20
31.92087272727273
 10
354.3299999999999
 20
31.92087272727273
  0
LWPOLYLINE
  5
E1
330
17
100
AcDbEntity
  8
03_СЕТКА
370
25
420
14212581
100
AcDbPolyline
 90
2
 70
0
 10
216.88968468468465
 20
41.89614545454545
 10
354.3299999999999
 20
41.89614545454545
  0
LWPOLYLINE
  5
E2
330
17
100
AcDbEntity
  8
03_СЕТКА
370
25
420
14212581
100
AcDbPolyline
 90
2
 70
0
 10
216.88968468468465
 20
51.87141818181818
 10
354.3299999999999
 20
51.87141818181818
  0
LWPOLYLINE
  5
E3
330
17
100
AcDbEntity
  8
03_СЕТКА
370
25
420
14212581
100
AcDbPolyline
 90
2
 70
0
 10
216.88968468468465
 20
61.84669090909091
 10
354.3299999999999
 20
61.84669090909091
  0
LWPOLYLINE
  5
E4
330
17
100
AcDbEntity
  8
03_СЕТКА
370
25
420
14212581
100
AcDbPolyline
 90
2
 70
0
 10
216.88968468468465
 20
71.82196363636363
 10
354.3299999999999
 20
71.82196363636363
  0
LWPOLYLINE
  5
E5
330
17
100
AcDbEntity
  8
03_СЕТКА
370
25
420
14212581
100
AcDbPolyline
 90
2
 70
0
 10
216.88968468468465
 20
81.79723636363634
 10
354.3299999999999
 20
81.79723636363634
  0
LWPOLYLINE
  5
E6
330
17
100
AcDbEntity
  8
03_СЕТКА
370
25
420
14212581
100
AcDbPolyline
 90
2
 70
0
 10
216.88968468468465
 20
91.77250909090908
 10
354.3299999999999
 20
91.77250909090908
  0
LWPOLYLINE
  5
E7
330
17
100
AcDbEntity
  8
03_СЕТКА
370
25
420
14212581
100
AcDbPolyline
 90
2
 70
0
 10
216.88968468468465
 20
101.7477818181818
 10
354.3299999999999
 20
101.7477818181818
  0
LWPOLYLINE
  5
E8
330
17
100
AcDbEntity
  8
03_СЕТКА
370
25
420
14212581
100
AcDbPolyline
 90
2
 70
0
 10
216.88968468468465
 20
111.72305454545453
 10
354.3299999999999
 20
111.72305454545453
  0
LWPOLYLINE
  5
E9
330
17
100
AcDbEntity
  8
02_ОСИ
370
30
420
3819096
100
AcDbPolyline
 90
2
 70
1
 10
216.88968468468465
 20
21.945600000000002
 10
216.88968468468465
 20
109.72799999999998
  0
LWPOLYLINE
  5
EA
330
17
100
AcDbEntity
  8
02_ОСИ
370
30
420
3819096
100
AcDbPolyline
 90
2
 70
1
 10
354.3299999999999
 20
21.945600000000002
 10
354.3299999999999
 20
109.72799999999998
  0
LWPOLYLINE
  5
EB
330
17
100
AcDbEntity
  8
02_ОСИ
370
30
420
3819096
100
AcDbPolyline
 90
2
 70
1
 10
216.88968468468465
 20
21.945600000000002
 10
354.32999999999987
 20
21.945600000000002
  0
LWPOLYLINE
  5
EC
330
17
100
AcDbEntity
  8
02_ОСИ
370
30
420
3819096
100
AcDbPolyline
 90
2
 70
1
 10
216.88968468468465
 20
109.728
 10
354.32999999999987
 20
109.728
  0
TEXT
  5
ED
330
17
100
AcDbEntity
  8
02_ОСИ
420
5661306
100
AcDbText
 10
204.46071911946734
 20
17.88865555555556
 30
0.0
 40
2.2859999999999996
  1
6
  7
ГОСТ
 72
1
 11
204.46071911946734
 21
17.88865555555556
 31
0.0
100
AcDbText
 73
2
  0
LINE
  5
EE
330
17
100
AcDbEntity
  8
02_ОСИ
100
AcDbLine
 10
223.13697174447168
 20
21.945600000000002
 30
0.0
 11
223.13697174447168
 21
20.71087777777778
 31
0.0
  0
TEXT
  5
EF
330
17
100
AcDbEntity
  8
02_ОСИ
420
5661306
100
AcDbText
 10
223.13697174447168
 20
17.88865555555556
 30
0.0
 40
2.2859999999999996
  1
8
  7
ГОСТ
 72
1
 11
223.13697174447168
 21
17.88865555555556
 31
0.0
100
AcDbText
 73
2
  0
LINE
  5
F0
330
17
100
AcDbEntity
  8
02_ОСИ
100
AcDbLine
 10
241.81322436947605
 20
21.945600000000002
 30
0.0
 11
241.81322436947605
 21
20.71087777777778
 31
0.0
  0
TEXT
  5
F1
330
17
100
AcDbEntity
  8
02_ОСИ
420
5661306
100
AcDbText
 10
241.81322436947605
 20
17.88865555555556
 30
0.0
 40
2.2859999999999996
  1
10
  7
ГОСТ
 72
1
 11
241.81322436947605
 21
17.88865555555556
 31
0.0
100
AcDbText
 73
2
  0
LINE
  5
F2
330
17
100
AcDbEntity
  8
02_ОСИ
100
AcDbLine
 10
260.4894769944804
 20
21.945600000000002
 30
0.0
 11
260.4894769944804
 21
20.71087777777778
 31
0.0
  0
TEXT
  5
F3
330
17
100
AcDbEntity
  8
02_ОСИ
420
5661306
100
AcDbText
 10
260.4894769944804
 20
17.88865555555556
 30
0.0
 40
2.2859999999999996
  1
12
  7
ГОСТ
 72
1
 11
260.4894769944804
 21
17.88865555555556
 31
0.0
100
AcDbText
 73
2
  0
LINE
  5
F4
330
17
100
AcDbEntity
  8
02_ОСИ
100
AcDbLine
 10
279.1657296194847
 20
21.945600000000002
 30
0.0
 11
279.1657296194847
 21
20.71087777777778
 31
0.0
  0
TEXT
  5
F5
330
17
100
AcDbEntity
  8
02_ОСИ
420
5661306
100
AcDbText
 10
279.1657296194847
 20
17.88865555555556
 30
0.0
 40
2.2859999999999996
  1
14
  7
ГОСТ
 72
1
 11
279.1657296194847
 21
17.88865555555556
 31
0.0
100
AcDbText
 73
2
  0
LINE
  5
F6
330
17
100
AcDbEntity
  8
02_ОСИ
100
AcDbLine
 10
297.8419822444891
 20
21.945600000000002
 30
0.0
 11
297.8419822444891
 21
20.71087777777778
 31
0.0
  0
TEXT
  5
F7
330
17
100
AcDbEntity
  8
02_ОСИ
420
5661306
100
AcDbText
 10
297.8419822444891
 20
17.88865555555556
 30
0.0
 40
2.2859999999999996
  1
16
  7
ГОСТ
 72
1
 11
297.8419822444891
 21
17.88865555555556
 31
0.0
100
AcDbText
 73
2
  0
LINE
  5
F8
330
17
100
AcDbEntity
  8
02_ОСИ
100
AcDbLine
 10
316.51823486949337
 20
21.945600000000002
 30
0.0
 11
316.51823486949337
 21
20.71087777777778
 31
0.0
  0
TEXT
  5
F9
330
17
100
AcDbEntity
  8
02_ОСИ
420
5661306
100
AcDbText
 10
316.51823486949337
 20
17.88865555555556
 30
0.0
 40
2.2859999999999996
  1
18
  7
ГОСТ
 72
1
 11
316.51823486949337
 21
17.88865555555556
 31
0.0
100
AcDbText
 73
2
  0
LINE
  5
FA
330
17
100
AcDbEntity
  8
02_ОСИ
100
AcDbLine
 10
335.19448749449776
 20
21.945600000000002
 30
0.0
 11
335.19448749449776
 21
20.71087777777778
 31
0.0
  0
TEXT
  5
FB
330
17
100
AcDbEntity
  8
02_ОСИ
420
5661306
100
AcDbText
 10
335.19448749449776
 20
17.88865555555556
 30
0.0
 40
2.2859999999999996
  1
20
  7
ГОСТ
 72
1
 11
335.19448749449776
 21
17.88865555555556
 31
0.0
100
AcDbText
 73
2
  0
LINE
  5
FC
330
17
100
AcDbEntity
  8
02_ОСИ
100
AcDbLine
 10
353.87074011950205
 20
21.945600000000002
 30
0.0
 11
353.87074011950205
 21
20.71087777777778
 31
0.0
  0
TEXT
  5
FD
330
17
100
AcDbEntity
  8
02_ОСИ
420
5661306
100
AcDbText
 10
353.87074011950205
 20
17.88865555555556
 30
0.0
 40
2.2859999999999996
  1
22
  7
ГОСТ
 72
1
 11
353.87074011950205
 21
17.88865555555556
 31
0.0
100
AcDbText
 73
2
  0
TEXT
  5
FE
330
17
100
AcDbEntity
  8
02_ОСИ
420
5661306
100
AcDbText
 10
372.5469927445064
 20
17.88865555555556
 30
0.0
 40
2.2859999999999996
  1
24
  7
ГОСТ
 72
1
 11
372.5469927445064
 21
17.88865555555556
 31
0.0
100
AcDbText
 73
2
  0
LINE
  5
FF
330
17
100
AcDbEntity
  8
02_ОСИ
100
AcDbLine
 10
216.88968468468465
 20
21.945600000000002
 30
0.0
 11
215.65496246246244
 21
21.945600000000002
 31
0.0
  0
TEXT
  5
100
330
17
100
AcDbEntity
  8
02_ОСИ
420
5661306
100
AcDbText
 10
213.40424024024026
 20
21.564227929687505
 30
0.0
 40
2.2859999999999996
  1
0
  7
ГОСТ
 72
1
 11
213.40424024024026
 21
21.564227929687505
 31
0.0
100
AcDbText
 73
2
  0
LINE
  5
101
330
17
100
AcDbEntity
  8
02_ОСИ
100
AcDbLine
 10
216.88968468468465
 20
31.92087272727273
 30
0.0
 11
215.65496246246244
 21
31.92087272727273
 31
0.0
  0
TEXT
  5
102
330
17
100
AcDbEntity
  8
02_ОСИ
420
5661306
100
AcDbText
 10
211.37224024024027
 20
31.53950065696023
 30
0.0
 40
2.2859999999999996
  1
200
  7
ГОСТ
 72
1
 11
211.37224024024027
 21
31.53950065696023
 31
0.0
100
AcDbText
 73
2
  0
LINE
  5
103
330
17
100
AcDbEntity
  8
02_ОСИ
100
AcDbLine
 10
216.88968468468465
 20
41.89614545454545
 30
0.0
 11
215.65496246246244
 21
41.89614545454545
 31
0.0
  0
TEXT
  5
104
330
17
100
AcDbEntity
  8
02_ОСИ
420
5661306
100
AcDbText
 10
211.37224024024027
 20
41.514773384232946
 30
0.0
 40
2.2859999999999996
  1
400
  7
ГОСТ
 72
1
 11
211.37224024024027
 21
41.514773384232946
 31
0.0
100
AcDbText
 73
2
  0
LINE
  5
105
330
17
100
AcDbEntity
  8
02_ОСИ
100
AcDbLine
 10
216.88968468468465
 20
51.87141818181818
 30
0.0
 11
215.65496246246244
 21
51.87141818181818
 31
0.0
  0
TEXT
  5
106
330
17
100
AcDbEntity
  8
02_ОСИ
420
5661306
100
AcDbText
 10
211.37224024024027
 20
51.49004611150568
 30
0.0
 40
2.2859999999999996
  1
600
  7
ГОСТ
 72
1
 11
211.37224024024027
 21
51.49004611150568
 31
0.0
100
AcDbText
 73
2
  0
LINE
  5
107
330
17
100
AcDbEntity
  8
02_ОСИ
100
AcDbLine
 10
216.88968468468465
 20
61.84669090909091
 30
0.0
 11
215.65496246246244
 21
61.84669090909091
 31
0.0
  0
TEXT
  5
108
330
17
100
AcDbEntity
  8
02_ОСИ
420
5661306
100
AcDbText
 10
211.37224024024027
 20
61.46531883877841
 30
0.0
 40
2.2859999999999996
  1
800
  7
ГОСТ
 72
1
 11
211.37224024024027
 21
61.46531883877841
 31
0.0
100
AcDbText
 73
2
  0
LINE
  5
109
330
17
100
AcDbEntity
  8
02_ОСИ
100
AcDbLine
 10
216.88968468468465
 20
71.82196363636363
 30
0.0
 11
215.65496246246244
 21
71.82196363636363
 31
0.0
  0
TEXT
  5
10A
330
17
100
AcDbEntity
  8
02_ОСИ
420
5661306
100
AcDbText
 10
210.35624024024023
 20
71.44059156605114
 30
0.0
 40
2.2859999999999996
  1
1000
  7
ГОСТ
 72
1
 11
210.35624024024023
 21
71.44059156605114
 31
0.0
100
AcDbText
 73
2
  0
LINE
  5
10B
330
17
100
AcDbEntity
  8
02_ОСИ
100
AcDbLine
 10
216.88968468468465
 20
81.79723636363634
 30
0.0
 11
215.65496246246244
 21
81.79723636363634
 31
0.0
  0
TEXT
  5
10C
330
17
100
AcDbEntity
  8
02_ОСИ
420
5661306
100
AcDbText
 10
210.35624024024023
 20
81.41586429332385
 30
0.0
 40
2.2859999999999996
  1
1200
  7
ГОСТ
 72
1
 11
210.35624024024023
 21
81.41586429332385
 31
0.0
100
AcDbText
 73
2
  0
LINE
  5
10D
330
17
100
AcDbEntity
  8
02_ОСИ
100
AcDbLine
 10
216.88968468468465
 20
91.77250909090908
 30
0.0
 11
215.65496246246244
 21
91.77250909090908
 31
0.0
  0
TEXT
  5
10E
330
17
100
AcDbEntity
  8
02_ОСИ
420
5661306
100
AcDbText
 10
210.35624024024023
 20
91.39113702059659
 30
0.0
 40
2.2859999999999996
  1
1400
  7
ГОСТ
 72
1
 11
210.35624024024023
 21
91.39113702059659
 31
0.0
100
AcDbText
 73
2
  0
LINE
  5
10F
330
17
100
AcDbEntity
  8
02_ОСИ
100
AcDbLine
 10
216.88968468468465
 20
101.7477818181818
 30
0.0
 11
215.65496246246244
 21
101.7477818181818
 31
0.0
  0
TEXT
  5
110
330
17
100
AcDbEntity
  8
02_ОСИ
420
5661306
100
AcDbText
 10
210.35624024024023
 20
101.3664097478693
 30
0.0
 40
2.2859999999999996
  1
1600
  7
ГОСТ
 72
1
 11
210.35624024024023
 21
101.3664097478693
 31
0.0
100
AcDbText
 73
2
  0
TEXT
  5
111
330
17
100
AcDbEntity
  8
02_ОСИ
420
5661306
100
AcDbText
 10
210.35624024024023
 20
111.34168247514202
 30
0.0
 40
2.2859999999999996
  1
1800
  7
ГОСТ
 72
1
 11
210.35624024024023
 21
111.34168247514202
 31
0.0
100
AcDbText
 73
2
  0
TEXT
  5
112
330
17
100
AcDbEntity
  8
02_ОСИ
420
1712948
100
AcDbText
 10
285.6098423423423
 20
13.302544444444447
 30
0.0
 40
2.2859999999999996
  1
скорость, км/ч
  7
ГОСТ
 72
1
 11
285.6098423423423
 21
13.302544444444447
 31
0.0
100
AcDbText
 73
2
  0
TEXT
  5
113
330
17
100
AcDbEntity
  8
02_ОСИ
420
1712948
100
AcDbText
 10
203.29362912912913
 20
65.8368
 30
0.0
 40
2.2859999999999996
  1
мощность на движителях, кВт
 50
90.0
  7
ГОСТ
 72
1
 11
203.29362912912913
 21
65.8368
 31
0.0
100
AcDbText
 73
2
  0
TEXT
  5
114
330
17
100
AcDbEntity
  8
04_ТЕКСТ
420
1712948
100
AcDbText
 10
253.5926846846847
 20
112.833794921875
 30
0.0
 40
2.54
  1
Потребная и установленная мощность
  7
ГОСТ
 72
1
 11
253.5926846846847
 21
112.833794921875
 31
0.0
100
AcDbText
 73
2
  0
LWPOLYLINE
  5
115
330
17
100
AcDbEntity
  8
01_ЛИНИИ
370
80
420
1858698
100
AcDbPolyline
 90
27
 70
0
 10
223.13697174447168
 20
24.498772138763908
 10
227.8060349007228
 20
24.993358641499707
 10
232.47509805697388
 20
25.548341213369586
 10
237.14416121322495
 20
26.16762046911241
 10
241.81322436947605
 20
26.855283477567603
 10
246.48228752572712
 20
27.615639784105397
 10
251.15135068197824
 20
28.453261241785224
 10
255.82041383822929
 20
29.373025870521296
 10
260.4894769944804
 20
30.38016596087521
 10
265.1585401507315
 20
31.480320637036503
 10
269.82760330698255
 20
32.6795930919385
 10
274.4966664632336
 20
33.984612706178254
 10
279.1657296194847
 20
35.40260226138596
 10
283.83479277573576
 20
36.94145045786253
 10
288.5038559319869
 20
38.60978994563032
 10
293.1729190882379
 20
40.417081077488724
 10
297.8419822444891
 20
42.37370159220958
 10
302.5110454007401
 20
44.49104243562492
 10
307.18010855699123
 20
46.7816099270419
 10
311.8491717132423
 20
49.259134478149285
 10
316.51823486949337
 20
51.938686071352905
 10
321.1872980257445
 20
54.83679670428185
 10
325.85636118199557
 20
57.97159000704247
 10
330.52542433824664
 20
61.36291823865247
 10
335.19448749449776
 20
65.03250686896511
 10
339.8635506507488
 20
69.00410695228605
 10
344.53261380699985
 20
73.3036554987914
  0
LWPOLYLINE
  5
116
330
17
100
AcDbEntity
  8
01_ЛИНИИ
370
60
420
11544116
100
AcDbPolyline
 90
2
 70
0
 10
216.88968468468465
 20
76.80959999999999
 10
354.3299999999999
 20
76.80959999999999
  0
LWPOLYLINE
  5
117
330
17
100
AcDbEntity
  8
01_ЛИНИИ
  6
DASHED
370
50
420
9081765
100
AcDbPolyline
 90
2
 70
0
 10
216.88968468468465
 20
57.97159000704247
 10
354.3299999999999
 20
57.97159000704247
  0
LWPOLYLINE
  5
118
330
17
100
AcDbEntity
  8
01_ЛИНИИ
  6
DOT
370
35
420
11544116
100
AcDbPolyline
 90
2
 70
0
 10
348.08271294021284
 20
21.945600000000002
 10
348.08271294021284
 20
76.80960000000005
  0
LWPOLYLINE
  5
119
330
17
100
AcDbEntity
  8
01_ЛИНИИ
  6
DOT
370
50
420
1602644
100
AcDbPolyline
 90
2
 70
0
 10
311.8491717132423
 20
21.945600000000002
 10
311.8491717132423
 20
109.728
  0
LWPOLYLINE
  5
11A
330
17
100
AcDbEntity
  8
01_ЛИНИИ
  6
DOT
370
50
420
1602644
100
AcDbPolyline
 90
2
 70
0
 10
325.85636118199557
 20
21.945600000000002
 10
325.85636118199557
 20
109.728
  0
TEXT
  5
11B
330
17
100
AcDbEntity
  8
04_ТЕКСТ
420
11544116
100
AcDbText
 10
285.6804748944769
 20
73.20935520241476
 30
0.0
 40
2.2859999999999996
  1
установлено 2 x 550 = 1100 кВт на ГЭД колёс
  7
ГОСТ
 72
1
 11
285.6804748944769
 21
73.20935520241476
 31
0.0
100
AcDbText
 73
2
  0
TEXT
  5
11C
330
17
100
AcDbEntity
  8
04_ТЕКСТ
420
5661306
100
AcDbText
 10
292.9194748944769
 20
60.85527248218453
 30
0.0
 40
2.2859999999999996
  1
на 19.0 км/ч нужно 722 кВт — 66 % от установленной
  7
ГОСТ
 72
1
 11
292.9194748944769
 21
60.85527248218453
 31
0.0
100
AcDbText
 73
2
  0
TEXT
  5
11D
330
17
100
AcDbEntity
  8
04_ТЕКСТ
420
11544116
100
AcDbText
 10
345.4680560995869
 20
41.52594676846591
 30
0.0
 40
2.2859999999999996
  1
21.4 км/ч
 50
90.0
  7
ГОСТ
 72
1
 11
345.4680560995869
 21
41.52594676846591
 31
0.0
100
AcDbText
 73
2
  0
TEXT
  5
11E
330
17
100
AcDbEntity
  8
04_ТЕКСТ
420
1602644
100
AcDbText
 10
315.3042969757427
 20
71.932055859375
 30
0.0
 40
2.2859999999999996
  1
эксплуатационная 17.5
 50
90.0
  7
ГОСТ
 72
1
 11
315.3042969757427
 21
71.932055859375
 31
0.0
100
AcDbText
 73
2
  0
TEXT
  5
11F
330
17
100
AcDbEntity
  8
04_ТЕКСТ
420
1602644
100
AcDbText
 10
329.311486444496
 20
68.122055859375
 30
0.0
 40
2.2859999999999996
  1
максимальная 19.0
 50
90.0
  7
ГОСТ
 72
1
 11
329.311486444496
 21
68.122055859375
 31
0.0
100
AcDbText
 73
2
  0
HATCH
  5
120
330
17
100
AcDbEntity
  8
05_ЗАЛИВКА
 62
7
420
16777215
100
AcDbHatch
 10
0.0
 20
0.0
 30
0.0
210
0.0
220
0.0
230
1.0
  2
SOLID
 70
1
 71
0
 91
1
 92
3
 72
0
 73
1
 93
17
 10
218.8652402402402
 20
103.07130381944445
 10
259.13835135135133
 20
103.07130381944445
 10
259.3852957957958
 20
103.1065815972222
 10
259.667518018018
 20
103.38880381944445
 10
259.7027957957958
 20
103.63574826388889
 10
259.7027957957958
 20
107.75244444444444
 10
259.667518018018
 20
107.99938888888889
 10
259.3852957957958
 20
108.28161111111112
 10
259.13835135135133
 20
108.3168888888889
 10
218.8652402402402
 20
108.3168888888889
 10
218.6182957957958
 20
108.28161111111112
 10
218.33607357357357
 20
107.99938888888889
 10
218.30079579579578
 20
107.75244444444444
 10
218.30079579579578
 20
103.63574826388889
 10
218.33607357357357
 20
103.38880381944445
 10
218.6182957957958
 20
103.1065815972222
 10
218.8652402402402
 20
103.07130381944445
 97
0
 75
0
 76
1
 98
0
  0
LWPOLYLINE
  5
121
330
17
100
AcDbEntity
  8
07_ЛЕГЕНДА
370
35
420
13421772
100
AcDbPolyline
 90
17
 70
1
 10
218.8652402402402
 20
103.07130381944445
 10
259.13835135135133
 20
103.07130381944445
 10
259.3852957957958
 20
103.1065815972222
 10
259.667518018018
 20
103.38880381944445
 10
259.7027957957958
 20
103.63574826388889
 10
259.7027957957958
 20
107.75244444444444
 10
259.667518018018
 20
107.99938888888889
 10
259.3852957957958
 20
108.28161111111112
 10
259.13835135135133
 20
108.3168888888889
 10
218.8652402402402
 20
108.3168888888889
 10
218.6182957957958
 20
108.28161111111112
 10
218.33607357357357
 20
107.99938888888889
 10
218.30079579579578
 20
107.75244444444444
 10
218.30079579579578
 20
103.63574826388889
 10
218.33607357357357
 20
103.38880381944445
 10
218.6182957957958
 20
103.1065815972222
 10
218.8652402402402
 20
103.07130381944445
  0
LWPOLYLINE
  5
122
330
17
100
AcDbEntity
  8
07_ЛЕГЕНДА
370
80
420
1858698
100
AcDbPolyline
 90
3
 70
0
 10
219.4296846846847
 20
105.86596527777779
 10
222.25190690690692
 20
105.86596527777779
 10
225.07412912912912
 20
105.86596527777779
  0
TEXT
  5
123
330
17
100
AcDbEntity
  8
07_ЛЕГЕНДА
420
1712948
100
AcDbText
 10
242.9529069069069
 20
105.69409635416666
 30
0.0
 40
2.0319999999999996
  1
потребная мощность
  7
ГОСТ
 72
1
 11
242.9529069069069
 21
105.69409635416666
 31
0.0
100
AcDbText
 73
2
  0
TEXT
  5
124
330
17
100
AcDbEntity
  8
04_ТЕКСТ
420
1712948
100
AcDbText
 10
18.160999999999998
 20
126.89416666666666
 30
0.0
 40
3.8099999999999996
  1
Ходкость
  7
ГОСТ
 72
1
 11
18.160999999999998
 21
126.89416666666666
 31
0.0
100
AcDbText
 73
2
  0
TEXT
  5
125
330
17
100
AcDbEntity
  8
04_ТЕКСТ
420
5661306
100
AcDbText
 10
86.868
 20
123.43633121744791
 30
0.0
 40
2.413
  1
Сопротивление и потребная мощность на глубокой воде, ограничение по глубине фарватера
  7
ГОСТ
 72
1
 11
86.868
 21
123.43633121744791
 31
0.0
100
AcDbText
 73
2
  0
TEXT
  5
126
330
17
100
AcDbEntity
  8
04_ТЕКСТ
420
5661306
100
AcDbText
 10
358.14
 20
130.1746279296875
 30
0.0
 40
2.2859999999999996
  1
«Волжский Горизонт» · проект 2026
  7
ГОСТ
 72
1
 11
358.14
 21
130.1746279296875
 31
0.0
100
AcDbText
 73
2
  0
TEXT
  5
127
330
17
100
AcDbEntity
  8
04_ТЕКСТ
420
5661306
100
AcDbText
 10
266.827
 20
2.4079200000000003
 30
0.0
 40
2.159
  1
Мелководье, км/ч —  H=4: v_кр=22.6, предел 15.8, по мощности 17.8;  H=5: v_кр=25.2, предел 17.6, по мощности 18.6;  H=6: v_кр=27.6, предел 19.3, по мощности 19.1;  H=8: v_кр=31.9, предел 22.3, по мощности 19.7;  H=10: v_кр=35.7, предел 25.0, по мощности 20.1;  H=15: v_кр=43.7, предел 30.6, по мощности 20.5
  7
ГОСТ
 72
1
 11
266.827
 21
2.4079200000000003
 31
0.0
100
AcDbText
 73
2
  0
TEXT
  5
128
330
17
100
AcDbEntity
  8
04_ТЕКСТ
420
1712948
100
AcDbText
 10
18.160999999999998
 20
126.89416666666666
 30
0.0
 40
3.8099999999999996
  1
Ходкость
  7
ГОСТ
 72
1
 11
18.160999999999998
 21
126.89416666666666
 31
0.0
100
AcDbText
 73
2
  0
TEXT
  5
129
330
17
100
AcDbEntity
  8
00_РАМКА
100
AcDbText
 10
2.0
 20
-4.5
 30
0.0
 40
2.5
  1
«Волжский Горизонт» · 06 ходкость · лист 394 × 137 мм, 1 мм = 1 мм листа; величины по осям — как на графике
  7
ГОСТ
 11
2.0
 21
-4.5
 31
0.0
100
AcDbText
  0
ENDSEC
  0
SECTION
  2
OBJECTS
  0
DICTIONARY
  5
A
330
0
100
AcDbDictionary
281
1
  3
ACAD_COLOR
350
B
  3
ACAD_GROUP
350
C
  3
ACAD_LAYOUT
350
D
  3
ACAD_MATERIAL
350
E
  3
ACAD_MLEADERSTYLE
350
F
  3
ACAD_MLINESTYLE
350
10
  3
ACAD_PLOTSETTINGS
350
11
  3
ACAD_PLOTSTYLENAME
350
12
  3
ACAD_SCALELIST
350
14
  3
ACAD_TABLESTYLE
350
15
  3
ACAD_VISUALSTYLE
350
16
  3
EZDXF_META
350
2D
  0
DICTIONARY
  5
B
330
A
100
AcDbDictionary
281
1
  0
DICTIONARY
  5
C
330
A
100
AcDbDictionary
281
1
  0
DICTIONARY
  5
D
330
A
100
AcDbDictionary
281
1
  3
Model
350
1A
  3
Layout1
350
1E
  0
DICTIONARY
  5
E
330
A
100
AcDbDictionary
281
1
  3
ByBlock
350
1F
  3
ByLayer
350
20
  3
Global
350
21
  0
DICTIONARY
  5
F
330
A
100
AcDbDictionary
281
1
  3
Standard
350
2C
  0
DICTIONARY
  5
10
330
A
100
AcDbDictionary
281
1
  3
Standard
350
22
  0
DICTIONARY
  5
11
330
A
100
AcDbDictionary
281
1
  0
ACDBDICTIONARYWDFLT
  5
12
330
A
100
AcDbDictionary
281
1
  3
Normal
350
13
100
AcDbDictionaryWithDefault
340
13
  0
ACDBPLACEHOLDER
  5
13
330
12
  0
DICTIONARY
  5
14
330
A
100
AcDbDictionary
281
1
  0
DICTIONARY
  5
15
330
A
100
AcDbDictionary
281
1
  0
DICTIONARY
  5
16
330
A
100
AcDbDictionary
281
1
  3
2dWireframe
350
5A
  3
Basic
350
5B
  3
Brighten
350
5C
  3
ColorChange
350
5D
  3
Conceptual
350
5E
  3
Dim
350
5F
  3
EdgeColorOff
350
60
  3
Facepattern
350
61
  3
Flat
350
62
  3
FlatWithEdges
350
63
  3
Gouraud
350
64
  3
GouraudWithEdges
350
65
  3
Hidden
350
66
  3
JitterOff
350
67
  3
Linepattern
350
68
  3
Modeling
350
69
  3
OverhangOff
350
6A
  3
Realistic
350
6B
  3
Shaded
350
6C
  3
Shaded with edges
350
6D
  3
Shades of Gray
350
6E
  3
Sketchy
350
6F
  3
Thicken
350
70
  3
Wireframe
350
71
  3
X-Ray
350
72
  0
LAYOUT
  5
1A
330
D
100
AcDbPlotSettings
  1

  4
A3
  6

 40
7.5
 41
20.0
 42
7.5
 43
20.0
 44
420.0
 45
297.0
 46
0.0
 47
0.0
 48
0.0
 49
0.0
140
0.0
141
0.0
142
1.0
143
1.0
 70
1024
 72
1
 73
0
 74
5
  7

 75
16
 76
0
 77
2
 78
300
147
1.0
148
0.0
149
0.0
100
AcDbLayout
  1
Model
 70
1
 71
0
 10
0.0
 20
0.0
 11
420.0
 21
297.0
 12
0.0
 22
0.0
 32
0.0
 14
1e+20
 24
1e+20
 34
1e+20
 15
-1e+20
 25
-1e+20
 35
-1e+20
146
0.0
 13
0.0
 23
0.0
 33
0.0
 16
1.0
 26
0.0
 36
0.0
 17
0.0
 27
1.0
 37
0.0
 76
1
330
17
  0
LAYOUT
  5
1E
330
D
100
AcDbPlotSettings
  1

  4
A3
  6

 40
7.5
 41
20.0
 42
7.5
 43
20.0
 44
420.0
 45
297.0
 46
0.0
 47
0.0
 48
0.0
 49
0.0
140
0.0
141
0.0
142
1.0
143
1.0
 70
0
 72
1
 73
0
 74
5
  7

 75
16
 76
0
 77
2
 78
300
147
1.0
148
0.0
149
0.0
100
AcDbLayout
  1
Layout1
 70
1
 71
1
 10
0.0
 20
0.0
 11
420.0
 21
297.0
 12
0.0
 22
0.0
 32
0.0
 14
1e+20
 24
1e+20
 34
1e+20
 15
-1e+20
 25
-1e+20
 35
-1e+20
146
0.0
 13
0.0
 23
0.0
 33
0.0
 16
1.0
 26
0.0
 36
0.0
 17
0.0
 27
1.0
 37
0.0
 76
1
330
1B
  0
MATERIAL
  5
1F
102
{ACAD_REACTORS
330
E
102
}
330
E
100
AcDbMaterial
  1
ByBlock
  2

 70
0
 40
1.0
 71
1
 41
1.0
 91
-1023410177
 42
1.0
 72
1
  3

 73
1
 74
1
 75
1
 44
0.5
 73
0
 45
1.0
 46
1.0
 77
1
  4

 78
1
 79
1
170
1
 48
1.0
171
1
  6

172
1
173
1
174
1
140
1.0
141
1.0
175
1
  7

176
1
177
1
178
1
143
1.0
179
1
  8

270
1
271
1
272
1
145
1.0
146
1.0
273
1
  9

274
1
275
1
276
1
 42
1.0
 72
1
  3

 73
1
 74
1
 75
1
 94
63
  0
MATERIAL
  5
20
102
{ACAD_REACTORS
330
E
102
}
330
E
100
AcDbMaterial
  1
ByLayer
  2

 70
0
 40
1.0
 71
1
 41
1.0
 91
-1023410177
 42
1.0
 72
1
  3

 73
1
 74
1
 75
1
 44
0.5
 73
0
 45
1.0
 46
1.0
 77
1
  4

 78
1
 79
1
170
1
 48
1.0
171
1
  6

172
1
173
1
174
1
140
1.0
141
1.0
175
1
  7

176
1
177
1
178
1
143
1.0
179
1
  8

270
1
271
1
272
1
145
1.0
146
1.0
273
1
  9

274
1
275
1
276
1
 42
1.0
 72
1
  3

 73
1
 74
1
 75
1
 94
63
  0
MATERIAL
  5
21
102
{ACAD_REACTORS
330
E
102
}
330
E
100
AcDbMaterial
  1
Global
  2

 70
0
 40
1.0
 71
1
 41
1.0
 91
-1023410177
 42
1.0
 72
1
  3

 73
1
 74
1
 75
1
 44
0.5
 73
0
 45
1.0
 46
1.0
 77
1
  4

 78
1
 79
1
170
1
 48
1.0
171
1
  6

172
1
173
1
174
1
140
1.0
141
1.0
175
1
  7

176
1
177
1
178
1
143
1.0
179
1
  8

270
1
271
1
272
1
145
1.0
146
1.0
273
1
  9

274
1
275
1
276
1
 42
1.0
 72
1
  3

 73
1
 74
1
 75
1
 94
63
  0
MLINESTYLE
  5
22
102
{ACAD_REACTORS
330
10
102
}
330
10
100
AcDbMlineStyle
  2
Standard
 70
0
  3

 62
256
 51
90.0
 52
90.0
 71
2
 49
0.5
 62
256
  6
BYLAYER
 49
-0.5
 62
256
  6
BYLAYER
  0
MLEADERSTYLE
  5
2C
102
{ACAD_REACTORS
330
F
102
}
330
F
100
AcDbMLeaderStyle
179
2
170
2
171
1
172
0
 90
2
 40
0.0
 41
0.0
173
1
 91
-1056964608
 92
-2
290
1
 42
2.0
291
1
 43
8.0
  3
Standard
 44
4.0
300

342
29
174
1
175
1
176
0
178
1
 93
-1056964608
 45
4.0
292
0
297
0
 46
4.0
 94
-1056964608
 47
1.0
 49
1.0
140
1.0
294
1
141
0.0
177
0
142
1.0
295
0
296
0
143
3.75
271
0
272
9
273
9
  0
DICTIONARY
  5
2D
330
A
100
AcDbDictionary
280
1
281
1
  3
CREATED_BY_EZDXF
350
2E
  3
WRITTEN_BY_EZDXF
350
12C
  0
DICTIONARYVAR
  5
2E
330
2D
100
DictionaryVariables
280
0
  1
1.4.4 @ 2026-09-22T11:47:15.771268+00:00
  0
VISUALSTYLE
  5
5A
102
{ACAD_REACTORS
330
16
102
}
330
16
100
AcDbVisualStyle
  2
2dWireframe
 70
4
177
3
291
0
 70
58
 90
2
176
1
 90
2
176
1
 90
0
176
1
 90
0
176
1
 40
0.6
176
1
 40
30.0
176
1
 62
7
420
16777215
176
1
 90
1
176
1
 90
4
176
1
 62
7
176
1
 62
257
176
1
 90
1
176
1
 90
1
176
1
 40
1.0
176
1
 90
8
176
1
 62
7
176
1
 40
1.0
176
1
 90
1
176
1
 90
6
176
1
 90
2
176
1
 62
7
176
1
 90
5
176
1
 90
0
176
1
 90
0
176
1
290
0
176
1
 90
1
176
1
 40
0.0
176
1
 90
0
176
1
290
1
176
1
290
1
176
1
290
0
176
1
290
0
176
1
290
0
176
1
290
0
176
1
290
0
176
1
290
0
176
1
290
0
176
1
 90
50
176
1
 40
0.0
176
1
 40
1.0
176
1
 90
0
176
1
 62
18
420
0
176
1
 90
50
176
1
 90
3
176
1
 62
5
420
255
176
1
290
0
176
1
 90
50
176
1
 90
50
176
1
 90
50
176
1
290
0
176
1
 90
50
176
1
 62
256
176
0
 40
1.0
176
0
 90
2
176
1
  1
strokes_ogs.tif
176
1
290
0
176
1
 40
1.0
176
1
 40
1.0
176
1
  0
VISUALSTYLE
  5
5B
102
{ACAD_REACTORS
330
16
102
}
330
16
100
AcDbVisualStyle
  2
Basic
 70
7
177
3
291
1
 70
58
 90
2
176
1
 90
2
176
1
 90
0
176
1
 90
1
176
1
 40
0.6
176
1
 40
30.0
176
1
 62
7
420
16777215
176
1
 90
1
176
1
 90
4
176
1
 62
7
176
1
 62
257
176
1
 90
1
176
1
 90
1
176
1
 40
1.0
176
1
 90
8
176
1
 62
7
176
1
 40
1.0
176
1
 90
1
176
1
 90
6
176
1
 90
2
176
1
 62
7
176
1
 90
5
176
1
 90
0
176
1
 90
0
176
1
290
0
176
1
 90
1
176
1
 40
0.0
176
1
 90
0
176
1
290
0
176
1
290
1
176
1
290
1
176
1
290
0
176
1
290
0
176
1
290
0
176
1
290
0
176
1
290
0
176
1
290
0
176
1
 90
50
176
1
 40
0.0
176
1
 40
1.0
176
1
 90
0
176
1
 62
18
420
0
176
1
 90
50
176
1
 90
3
176
1
 62
5
420
255
176
1
290
0
176
1
 90
50
176
1
 90
50
176
1
 90
50
176
1
290
0
176
1
 90
50
176
1
 62
256
176
0
 40
1.0
176
0
 90
2
176
1
  1
strokes_ogs.tif
176
1
290
0
176
1
 40
1.0
176
1
 40
1.0
176
1
  0
VISUALSTYLE
  5
5C
102
{ACAD_REACTORS
330
16
102
}
330
16
100
AcDbVisualStyle
  2
Brighten
 70
12
177
3
291
1
 70
58
 90
2
176
1
 90
2
176
1
 90
0
176
1
 90
2
176
1
 40
0.6
176
1
 40
30.0
176
1
 62
7
420
16777215
176
1
 90
1
176
1
 90
4
176
1
 62
7
176
1
 62
257
176
1
 90
1
176
1
 90
1
176
1
 40
1.0
176
1
 90
8
176
1
 62
7
176
1
 40
1.0
176
1
 90
1
176
1
 90
6
176
1
 90
2
176
1
 62
7
176
1
 90
5
176
1
 90
0
176
1
 90
0
176
1
290
0
176
1
 90
1
176
1
 40
0.0
176
1
 90
0
176
1
290
0
176
1
290
1
176
1
290
1
176
1
290
0
176
1
290
0
176
1
290
0
176
1
290
0
176
1
290
0
176
1
290
0
176
1
 90
50
176
1
 40
0.0
176
1
 40
1.0
176
1
 90
0
176
1
 62
18
420
0
176
1
 90
50
176
1
 90
3
176
1
 62
5
420
255
176
1
290
0
176
1
 90
50
176
1
 90
50
176
1
 90
50
176
1
290
0
176
1
 90
50
176
1
 62
256
176
0
 40
1.0
176
0
 90
2
176
1
  1
strokes_ogs.tif
176
1
290
0
176
1
 40
1.0
176
1
 40
1.0
176
1
  0
VISUALSTYLE
  5
5D
102
{ACAD_REACTORS
330
16
102
}
330
16
100
AcDbVisualStyle
  2
ColorChange
 70
16
177
3
291
1
 70
58
 90
2
176
1
 90
2
176
1
 90
0
176
1
 90
2
176
1
 40
0.6
176
1
 40
30.0
176
1
 62
7
420
16777215
176
1
 90
1
176
1
 90
4
176
1
 62
7
176
1
 62
257
176
1
 90
1
176
1
 90
1
176
1
 40
1.0
176
1
 90
8
176
1
 62
7
176
1
 40
1.0
176
1
 90
1
176
1
 90
6
176
1
 90
2
176
1
 62
7
176
1
 90
5
176
1
 90
0
176
1
 90
0
176
1
290
0
176
1
 90
1
176
1
 40
0.0
176
1
 90
0
176
1
290
0
176
1
290
1
176
1
290
1
176
1
290
0
176
1
290
0
176
1
290
0
176
1
290
0
176
1
290
0
176
1
290
0
176
1
 90
50
176
1
 40
0.0
176
1
 40
1.0
176
1
 90
0
176
1
 62
18
420
0
176
1
 90
50
176
1
 90
3
176
1
 62
5
420
255
176
1
290
0
176
1
 90
50
176
1
 90
50
176
1
 90
50
176
1
290
0
176
1
 90
50
176
1
 62
256
176
0
 40
1.0
176
0
 90
2
176
1
  1
strokes_ogs.tif
176
1
290
0
176
1
 40
1.0
176
1
 40
1.0
176
1
  0
VISUALSTYLE
  5
5E
102
{ACAD_REACTORS
330
16
102
}
330
16
100
AcDbVisualStyle
  2
Conceptual
 70
9
177
3
291
0
 70
58
 90
2
176
1
 90
2
176
1
 90
0
176
1
 90
3
176
1
 40
0.6
176
1
 40
30.0
176
1
 62
7
420
16777215
176
1
 90
1
176
1
 90
4
176
1
 62
7
176
1
 62
257
176
1
 90
1
176
1
 90
1
176
1
 40
1.0
176
1
 90
8
176
1
 62
7
176
1
 40
1.0
176
1
 90
1
176
1
 90
6
176
1
 90
2
176
1
 62
7
176
1
 90
5
176
1
 90
0
176
1
 90
0
176
1
290
0
176
1
 90
1
176
1
 40
0.0
176
1
 90
0
176
1
290
0
176
1
290
1
176
1
290
1
176
1
290
0
176
1
290
0
176
1
290
0
176
1
290
0
176
1
290
0
176
1
290
0
176
1
 90
50
176
1
 40
0.0
176
1
 40
1.0
176
1
 90
0
176
1
 62
18
420
0
176
1
 90
50
176
1
 90
3
176
1
 62
5
420
255
176
1
290
0
176
1
 90
50
176
1
 90
50
176
1
 90
50
176
1
290
0
176
1
 90
50
176
1
 62
256
176
0
 40
1.0
176
0
 90
2
176
1
  1
strokes_ogs.tif
176
1
290
0
176
1
 40
1.0
176
1
 40
1.0
176
1
  0
VISUALSTYLE
  5
5F
102
{ACAD_REACTORS
330
16
102
}
330
16
100
AcDbVisualStyle
  2
Dim
 70
11
177
3
291
1
 70
58
 90
2
176
1
 90
2
176
1
 90
0
176
1
 90
2
176
1
 40
0.6
176
1
 40
30.0
176
1
 62
7
420
16777215
176
1
 90
1
176
1
 90
4
176
1
 62
7
176
1
 62
257
176
1
 90
1
176
1
 90
1
176
1
 40
1.0
176
1
 90
8
176
1
 62
7
176
1
 40
1.0
176
1
 90
1
176
1
 90
6
176
1
 90
2
176
1
 62
7
176
1
 90
5
176
1
 90
0
176
1
 90
0
176
1
290
0
176
1
 90
1
176
1
 40
0.0
176
1
 90
0
176
1
290
0
176
1
290
1
176
1
290
1
176
1
290
0
176
1
290
0
176
1
290
0
176
1
290
0
176
1
290
0
176
1
290
0
176
1
 90
50
176
1
 40
0.0
176
1
 40
1.0
176
1
 90
0
176
1
 62
18
420
0
176
1
 90
50
176
1
 90
3
176
1
 62
5
420
255
176
1
290
0
176
1
 90
50
176
1
 90
50
176
1
 90
50
176
1
290
0
176
1
 90
50
176
1
 62
256
176
0
 40
1.0
176
0
 90
2
176
1
  1
strokes_ogs.tif
176
1
290
0
176
1
 40
1.0
176
1
 40
1.0
176
1
  0
VISUALSTYLE
  5
60
102
{ACAD_REACTORS
330
16
102
}
330
16
100
AcDbVisualStyle
  2
EdgeColorOff
 70
22
177
3
291
1
 70
58
 90
2
176
1
 90
2
176
1
 90
0
176
1
 90
2
176
1
 40
0.6
176
1
 40
30.0
176
1
 62
7
420
16777215
176
1
 90
1
176
1
 90
4
176
1
 62
7
176
1
 62
257
176
1
 90
1
176
1
 90
1
176
1
 40
1.0
176
1
 90
8
176
1
 62
7
176
1
 40
1.0
176
1
 90
1
176
1
 90
6
176
1
 90
2
176
1
 62
7
176
1
 90
5
176
1
 90
0
176
1
 90
0
176
1
290
0
176
1
 90
1
176
1
 40
0.0
176
1
 90
0
176
1
290
0
176
1
290
1
176
1
290
1
176
1
290
0
176
1
290
0
176
1
290
0
176
1
290
0
176
1
290
0
176
1
290
0
176
1
 90
50
176
1
 40
0.0
176
1
 40
1.0
176
1
 90
0
176
1
 62
18
420
0
176
1
 90
50
176
1
 90
3
176
1
 62
5
420
255
176
1
290
0
176
1
 90
50
176
1
 90
50
176
1
 90
50
176
1
290
0
176
1
 90
50
176
1
 62
256
176
0
 40
1.0
176
0
 90
2
176
1
  1
strokes_ogs.tif
176
1
290
0
176
1
 40
1.0
176
1
 40
1.0
176
1
  0
VISUALSTYLE
  5
61
102
{ACAD_REACTORS
330
16
102
}
330
16
100
AcDbVisualStyle
  2
Facepattern
 70
15
177
3
291
1
 70
58
 90
2
176
1
 90
2
176
1
 90
0
176
1
 90
2
176
1
 40
0.6
176
1
 40
30.0
176
1
 62
7
420
16777215
176
1
 90
1
176
1
 90
4
176
1
 62
7
176
1
 62
257
176
1
 90
1
176
1
 90
1
176
1
 40
1.0
176
1
 90
8
176
1
 62
7
176
1
 40
1.0
176
1
 90
1
176
1
 90
6
176
1
 90
2
176
1
 62
7
176
1
 90
5
176
1
 90
0
176
1
 90
0
176
1
290
0
176
1
 90
1
176
1
 40
0.0
176
1
 90
0
176
1
290
0
176
1
290
1
176
1
290
1
176
1
290
0
176
1
290
0
176
1
290
0
176
1
290
0
176
1
290
0
176
1
290
0
176
1
 90
50
176
1
 40
0.0
176
1
 40
1.0
176
1
 90
0
176
1
 62
18
420
0
176
1
 90
50
176
1
 90
3
176
1
 62
5
420
255
176
1
290
0
176
1
 90
50
176
1
 90
50
176
1
 90
50
176
1
290
0
176
1
 90
50
176
1
 62
256
176
0
 40
1.0
176
0
 90
2
176
1
  1
strokes_ogs.tif
176
1
290
0
176
1
 40
1.0
176
1
 40
1.0
176
1
  0
VISUALSTYLE
  5
62
102
{ACAD_REACTORS
330
16
102
}
330
16
100
AcDbVisualStyle
  2
Flat
 70
0
177
3
291
1
 70
58
 90
2
176
1
 90
2
176
1
 90
0
176
1
 90
2
176
1
 40
0.6
176
1
 40
30.0
176
1
 62
7
420
16777215
176
1
 90
1
176
1
 90
4
176
1
 62
7
176
1
 62
257
176
1
 90
1
176
1
 90
1
176
1
 40
1.0
176
1
 90
8
176
1
 62
7
176
1
 40
1.0
176
1
 90
1
176
1
 90
6
176
1
 90
2
176
1
 62
7
176
1
 90
5
176
1
 90
0
176
1
 90
0
176
1
290
0
176
1
 90
1
176
1
 40
0.0
176
1
 90
0
176
1
290
0
176
1
290
1
176
1
290
1
176
1
290
0
176
1
290
0
176
1
290
0
176
1
290
0
176
1
290
0
176
1
290
0
176
1
 90
50
176
1
 40
0.0
176
1
 40
1.0
176
1
 90
0
176
1
 62
18
420
0
176
1
 90
50
176
1
 90
3
176
1
 62
5
420
255
176
1
290
0
176
1
 90
50
176
1
 90
50
176
1
 90
50
176
1
290
0
176
1
 90
50
176
1
 62
256
176
0
 40
1.0
176
0
 90
2
176
1
  1
strokes_ogs.tif
176
1
290
0
176
1
 40
1.0
176
1
 40
1.0
176
1
  0
VISUALSTYLE
  5
63
102
{ACAD_REACTORS
330
16
102
}
330
16
100
AcDbVisualStyle
  2
FlatWithEdges
 70
1
177
3
291
1
 70
58
 90
2
176
1
 90
2
176
1
 90
0
176
1
 90
2
176
1
 40
0.6
176
1
 40
30.0
176
1
 62
7
420
16777215
176
1
 90
1
176
1
 90
4
176
1
 62
7
176
1
 62
257
176
1
 90
1
176
1
 90
1
176
1
 40
1.0
176
1
 90
8
176
1
 62
7
176
1
 40
1.0
176
1
 90
1
176
1
 90
6
176
1
 90
2
176
1
 62
7
176
1
 90
5
176
1
 90
0
176
1
 90
0
176
1
290
0
176
1
 90
1
176
1
 40
0.0
176
1
 90
0
176
1
290
0
176
1
290
1
176
1
290
1
176
1
290
0
176
1
290
0
176
1
290
0
176
1
290
0
176
1
290
0
176
1
290
0
176
1
 90
50
176
1
 40
0.0
176
1
 40
1.0
176
1
 90
0
176
1
 62
18
420
0
176
1
 90
50
176
1
 90
3
176
1
 62
5
420
255
176
1
290
0
176
1
 90
50
176
1
 90
50
176
1
 90
50
176
1
290
0
176
1
 90
50
176
1
 62
256
176
0
 40
1.0
176
0
 90
2
176
1
  1
strokes_ogs.tif
176
1
290
0
176
1
 40
1.0
176
1
 40
1.0
176
1
  0
VISUALSTYLE
  5
64
102
{ACAD_REACTORS
330
16
102
}
330
16
100
AcDbVisualStyle
  2
Gouraud
 70
2
177
3
291
1
 70
58
 90
2
176
1
 90
2
176
1
 90
0
176
1
 90
2
176
1
 40
0.6
176
1
 40
30.0
176
1
 62
7
420
16777215
176
1
 90
1
176
1
 90
4
176
1
 62
7
176
1
 62
257
176
1
 90
1
176
1
 90
1
176
1
 40
1.0
176
1
 90
8
176
1
 62
7
176
1
 40
1.0
176
1
 90
1
176
1
 90
6
176
1
 90
2
176
1
 62
7
176
1
 90
5
176
1
 90
0
176
1
 90
0
176
1
290
0
176
1
 90
1
176
1
 40
0.0
176
1
 90
0
176
1
290
0
176
1
290
1
176
1
290
1
176
1
290
0
176
1
290
0
176
1
290
0
176
1
290
0
176
1
290
0
176
1
290
0
176
1
 90
50
176
1
 40
0.0
176
1
 40
1.0
176
1
 90
0
176
1
 62
18
420
0
176
1
 90
50
176
1
 90
3
176
1
 62
5
420
255
176
1
290
0
176
1
 90
50
176
1
 90
50
176
1
 90
50
176
1
290
0
176
1
 90
50
176
1
 62
256
176
0
 40
1.0
176
0
 90
2
176
1
  1
strokes_ogs.tif
176
1
290
0
176
1
 40
1.0
176
1
 40
1.0
176
1
  0
VISUALSTYLE
  5
65
102
{ACAD_REACTORS
330
16
102
}
330
16
100
AcDbVisualStyle
  2
GouraudWithEdges
 70
3
177
3
291
1
 70
58
 90
2
176
1
 90
2
176
1
 90
0
176
1
 90
2
176
1
 40
0.6
176
1
 40
30.0
176
1
 62
7
420
16777215
176
1
 90
1
176
1
 90
4
176
1
 62
7
176
1
 62
257
176
1
 90
1
176
1
 90
1
176
1
 40
1.0
176
1
 90
8
176
1
 62
7
176
1
 40
1.0
176
1
 90
1
176
1
 90
6
176
1
 90
2
176
1
 62
7
176
1
 90
5
176
1
 90
0
176
1
 90
0
176
1
290
0
176
1
 90
1
176
1
 40
0.0
176
1
 90
0
176
1
290
0
176
1
290
1
176
1
290
1
176
1
290
0
176
1
290
0
176
1
290
0
176
1
290
0
176
1
290
0
176
1
290
0
176
1
 90
50
176
1
 40
0.0
176
1
 40
1.0
176
1
 90
0
176
1
 62
18
420
0
176
1
 90
50
176
1
 90
3
176
1
 62
5
420
255
176
1
290
0
176
1
 90
50
176
1
 90
50
176
1
 90
50
176
1
290
0
176
1
 90
50
176
1
 62
256
176
0
 40
1.0
176
0
 90
2
176
1
  1
strokes_ogs.tif
176
1
290
0
176
1
 40
1.0
176
1
 40
1.0
176
1
  0
VISUALSTYLE
  5
66
102
{ACAD_REACTORS
330
16
102
}
330
16
100
AcDbVisualStyle
  2
Hidden
 70
6
177
3
291
0
 70
58
 90
2
176
1
 90
2
176
1
 90
0
176
1
 90
1
176
1
 40
0.6
176
1
 40
30.0
176
1
 62
7
420
16777215
176
1
 90
1
176
1
 90
4
176
1
 62
7
176
1
 62
257
176
1
 90
1
176
1
 90
1
176
1
 40
1.0
176
1
 90
8
176
1
 62
7
176
1
 40
1.0
176
1
 90
1
176
1
 90
6
176
1
 90
2
176
1
 62
7
176
1
 90
5
176
1
 90
0
176
1
 90
0
176
1
290
0
176
1
 90
1
176
1
 40
0.0
176
1
 90
0
176
1
290
0
176
1
290
1
176
1
290
1
176
1
290
0
176
1
290
0
176
1
290
0
176
1
290
0
176
1
290
0
176
1
290
0
176
1
 90
50
176
1
 40
0.0
176
1
 40
1.0
176
1
 90
0
176
1
 62
18
420
0
176
1
 90
50
176
1
 90
3
176
1
 62
5
420
255
176
1
290
0
176
1
 90
50
176
1
 90
50
176
1
 90
50
176
1
290
0
176
1
 90
50
176
1
 62
256
176
0
 40
1.0
176
0
 90
2
176
1
  1
strokes_ogs.tif
176
1
290
0
176
1
 40
1.0
176
1
 40
1.0
176
1
  0
VISUALSTYLE
  5
67
102
{ACAD_REACTORS
330
16
102
}
330
16
100
AcDbVisualStyle
  2
JitterOff
 70
20
177
3
291
1
 70
58
 90
2
176
1
 90
2
176
1
 90
0
176
1
 90
2
176
1
 40
0.6
176
1
 40
30.0
176
1
 62
7
420
16777215
176
1
 90
1
176
1
 90
4
176
1
 62
7
176
1
 62
257
176
1
 90
1
176
1
 90
1
176
1
 40
1.0
176
1
 90
8
176
1
 62
7
176
1
 40
1.0
176
1
 90
1
176
1
 90
6
176
1
 90
2
176
1
 62
7
176
1
 90
5
176
1
 90
0
176
1
 90
0
176
1
290
0
176
1
 90
1
176
1
 40
0.0
176
1
 90
0
176
1
290
0
176
1
290
1
176
1
290
1
176
1
290
0
176
1
290
0
176
1
290
0
176
1
290
0
176
1
290
0
176
1
290
0
176
1
 90
50
176
1
 40
0.0
176
1
 40
1.0
176
1
 90
0
176
1
 62
18
420
0
176
1
 90
50
176
1
 90
3
176
1
 62
5
420
255
176
1
290
0
176
1
 90
50
176
1
 90
50
176
1
 90
50
176
1
290
0
176
1
 90
50
176
1
 62
256
176
0
 40
1.0
176
0
 90
2
176
1
  1
strokes_ogs.tif
176
1
290
0
176
1
 40
1.0
176
1
 40
1.0
176
1
  0
VISUALSTYLE
  5
68
102
{ACAD_REACTORS
330
16
102
}
330
16
100
AcDbVisualStyle
  2
Linepattern
 70
14
177
3
291
1
 70
58
 90
2
176
1
 90
2
176
1
 90
0
176
1
 90
2
176
1
 40
0.6
176
1
 40
30.0
176
1
 62
7
420
16777215
176
1
 90
1
176
1
 90
4
176
1
 62
7
176
1
 62
257
176
1
 90
1
176
1
 90
1
176
1
 40
1.0
176
1
 90
8
176
1
 62
7
176
1
 40
1.0
176
1
 90
1
176
1
 90
6
176
1
 90
2
176
1
 62
7
176
1
 90
5
176
1
 90
0
176
1
 90
0
176
1
290
0
176
1
 90
1
176
1
 40
0.0
176
1
 90
0
176
1
290
0
176
1
290
1
176
1
290
1
176
1
290
0
176
1
290
0
176
1
290
0
176
1
290
0
176
1
290
0
176
1
290
0
176
1
 90
50
176
1
 40
0.0
176
1
 40
1.0
176
1
 90
0
176
1
 62
18
420
0
176
1
 90
50
176
1
 90
3
176
1
 62
5
420
255
176
1
290
0
176
1
 90
50
176
1
 90
50
176
1
 90
50
176
1
290
0
176
1
 90
50
176
1
 62
256
176
0
 40
1.0
176
0
 90
2
176
1
  1
strokes_ogs.tif
176
1
290
0
176
1
 40
1.0
176
1
 40
1.0
176
1
  0
VISUALSTYLE
  5
69
102
{ACAD_REACTORS
330
16
102
}
330
16
100
AcDbVisualStyle
  2
Modeling
 70
10
177
3
291
0
 70
58
 90
2
176
1
 90
2
176
1
 90
0
176
1
 90
2
176
1
 40
0.6
176
1
 40
30.0
176
1
 62
7
420
16777215
176
1
 90
1
176
1
 90
4
176
1
 62
7
176
1
 62
257
176
1
 90
1
176
1
 90
1
176
1
 40
1.0
176
1
 90
8
176
1
 62
7
176
1
 40
1.0
176
1
 90
1
176
1
 90
6
176
1
 90
2
176
1
 62
7
176
1
 90
5
176
1
 90
0
176
1
 90
0
176
1
290
0
176
1
 90
1
176
1
 40
0.0
176
1
 90
0
176
1
290
0
176
1
290
1
176
1
290
1
176
1
290
0
176
1
290
0
176
1
290
0
176
1
290
0
176
1
290
0
176
1
290
0
176
1
 90
50
176
1
 40
0.0
176
1
 40
1.0
176
1
 90
0
176
1
 62
18
420
0
176
1
 90
50
176
1
 90
3
176
1
 62
5
420
255
176
1
290
0
176
1
 90
50
176
1
 90
50
176
1
 90
50
176
1
290
0
176
1
 90
50
176
1
 62
256
176
0
 40
1.0
176
0
 90
2
176
1
  1
strokes_ogs.tif
176
1
290
0
176
1
 40
1.0
176
1
 40
1.0
176
1
  0
VISUALSTYLE
  5
6A
102
{ACAD_REACTORS
330
16
102
}
330
16
100
AcDbVisualStyle
  2
OverhangOff
 70
21
177
3
291
1
 70
58
 90
2
176
1
 90
2
176
1
 90
0
176
1
 90
2
176
1
 40
0.6
176
1
 40
30.0
176
1
 62
7
420
16777215
176
1
 90
1
176
1
 90
4
176
1
 62
7
176
1
 62
257
176
1
 90
1
176
1
 90
1
176
1
 40
1.0
176
1
 90
8
176
1
 62
7
176
1
 40
1.0
176
1
 90
1
176
1
 90
6
176
1
 90
2
176
1
 62
7
176
1
 90
5
176
1
 90
0
176
1
 90
0
176
1
290
0
176
1
 90
1
176
1
 40
0.0
176
1
 90
0
176
1
290
0
176
1
290
1
176
1
290
1
176
1
290
0
176
1
290
0
176
1
290
0
176
1
290
0
176
1
290
0
176
1
290
0
176
1
 90
50
176
1
 40
0.0
176
1
 40
1.0
176
1
 90
0
176
1
 62
18
420
0
176
1
 90
50
176
1
 90
3
176
1
 62
5
420
255
176
1
290
0
176
1
 90
50
176
1
 90
50
176
1
 90
50
176
1
290
0
176
1
 90
50
176
1
 62
256
176
0
 40
1.0
176
0
 90
2
176
1
  1
strokes_ogs.tif
176
1
290
0
176
1
 40
1.0
176
1
 40
1.0
176
1
  0
VISUALSTYLE
  5
6B
102
{ACAD_REACTORS
330
16
102
}
330
16
100
AcDbVisualStyle
  2
Realistic
 70
8
177
3
291
0
 70
58
 90
2
176
1
 90
2
176
1
 90
0
176
1
 90
2
176
1
 40
0.6
176
1
 40
30.0
176
1
 62
7
420
16777215
176
1
 90
1
176
1
 90
4
176
1
 62
7
176
1
 62
257
176
1
 90
1
176
1
 90
1
176
1
 40
1.0
176
1
 90
8
176
1
 62
7
176
1
 40
1.0
176
1
 90
1
176
1
 90
6
176
1
 90
2
176
1
 62
7
176
1
 90
5
176
1
 90
0
176
1
 90
0
176
1
290
0
176
1
 90
1
176
1
 40
0.0
176
1
 90
0
176
1
290
0
176
1
290
1
176
1
290
1
176
1
290
0
176
1
290
0
176
1
290
0
176
1
290
0
176
1
290
0
176
1
290
0
176
1
 90
50
176
1
 40
0.0
176
1
 40
1.0
176
1
 90
0
176
1
 62
18
420
0
176
1
 90
50
176
1
 90
3
176
1
 62
5
420
255
176
1
290
0
176
1
 90
50
176
1
 90
50
176
1
 90
50
176
1
290
0
176
1
 90
50
176
1
 62
256
176
0
 40
1.0
176
0
 90
2
176
1
  1
strokes_ogs.tif
176
1
290
0
176
1
 40
1.0
176
1
 40
1.0
176
1
  0
VISUALSTYLE
  5
6C
102
{ACAD_REACTORS
330
16
102
}
330
16
100
AcDbVisualStyle
  2
Shaded
 70
27
177
3
291
0
 70
58
 90
2
176
1
 90
2
176
1
 90
0
176
1
 90
2
176
1
 40
0.6
176
1
 40
30.0
176
1
 62
7
420
16777215
176
1
 90
1
176
1
 90
4
176
1
 62
7
176
1
 62
257
176
1
 90
1
176
1
 90
1
176
1
 40
1.0
176
1
 90
8
176
1
 62
7
176
1
 40
1.0
176
1
 90
1
176
1
 90
6
176
1
 90
2
176
1
 62
7
176
1
 90
5
176
1
 90
0
176
1
 90
0
176
1
290
0
176
1
 90
1
176
1
 40
0.0
176
1
 90
0
176
1
290
0
176
1
290
1
176
1
290
1
176
1
290
0
176
1
290
0
176
1
290
0
176
1
290
0
176
1
290
0
176
1
290
0
176
1
 90
50
176
1
 40
0.0
176
1
 40
1.0
176
1
 90
0
176
1
 62
18
420
0
176
1
 90
50
176
1
 90
3
176
1
 62
5
420
255
176
1
290
0
176
1
 90
50
176
1
 90
50
176
1
 90
50
176
1
290
0
176
1
 90
50
176
1
 62
256
176
0
 40
1.0
176
0
 90
2
176
1
  1
strokes_ogs.tif
176
1
290
0
176
1
 40
1.0
176
1
 40
1.0
176
1
  0
VISUALSTYLE
  5
6D
102
{ACAD_REACTORS
330
16
102
}
330
16
100
AcDbVisualStyle
  2
Shaded with edges
 70
26
177
3
291
0
 70
58
 90
2
176
1
 90
2
176
1
 90
0
176
1
 90
2
176
1
 40
0.6
176
1
 40
30.0
176
1
 62
7
420
16777215
176
1
 90
1
176
1
 90
4
176
1
 62
7
176
1
 62
257
176
1
 90
1
176
1
 90
1
176
1
 40
1.0
176
1
 90
8
176
1
 62
7
176
1
 40
1.0
176
1
 90
1
176
1
 90
6
176
1
 90
2
176
1
 62
7
176
1
 90
5
176
1
 90
0
176
1
 90
0
176
1
290
0
176
1
 90
1
176
1
 40
0.0
176
1
 90
0
176
1
290
0
176
1
290
1
176
1
290
1
176
1
290
0
176
1
290
0
176
1
290
0
176
1
290
0
176
1
290
0
176
1
290
0
176
1
 90
50
176
1
 40
0.0
176
1
 40
1.0
176
1
 90
0
176
1
 62
18
420
0
176
1
 90
50
176
1
 90
3
176
1
 62
5
420
255
176
1
290
0
176
1
 90
50
176
1
 90
50
176
1
 90
50
176
1
290
0
176
1
 90
50
176
1
 62
256
176
0
 40
1.0
176
0
 90
2
176
1
  1
strokes_ogs.tif
176
1
290
0
176
1
 40
1.0
176
1
 40
1.0
176
1
  0
VISUALSTYLE
  5
6E
102
{ACAD_REACTORS
330
16
102
}
330
16
100
AcDbVisualStyle
  2
Shades of Gray
 70
23
177
3
291
0
 70
58
 90
2
176
1
 90
2
176
1
 90
0
176
1
 90
2
176
1
 40
0.6
176
1
 40
30.0
176
1
 62
7
420
16777215
176
1
 90
1
176
1
 90
4
176
1
 62
7
176
1
 62
257
176
1
 90
1
176
1
 90
1
176
1
 40
1.0
176
1
 90
8
176
1
 62
7
176
1
 40
1.0
176
1
 90
1
176
1
 90
6
176
1
 90
2
176
1
 62
7
176
1
 90
5
176
1
 90
0
176
1
 90
0
176
1
290
0
176
1
 90
1
176
1
 40
0.0
176
1
 90
0
176
1
290
0
176
1
290
1
176
1
290
1
176
1
290
0
176
1
290
0
176
1
290
0
176
1
290
0
176
1
290
0
176
1
290
0
176
1
 90
50
176
1
 40
0.0
176
1
 40
1.0
176
1
 90
0
176
1
 62
18
420
0
176
1
 90
50
176
1
 90
3
176
1
 62
5
420
255
176
1
290
0
176
1
 90
50
176
1
 90
50
176
1
 90
50
176
1
290
0
176
1
 90
50
176
1
 62
256
176
0
 40
1.0
176
0
 90
2
176
1
  1
strokes_ogs.tif
176
1
290
0
176
1
 40
1.0
176
1
 40
1.0
176
1
  0
VISUALSTYLE
  5
6F
102
{ACAD_REACTORS
330
16
102
}
330
16
100
AcDbVisualStyle
  2
Sketchy
 70
24
177
3
291
0
 70
58
 90
2
176
1
 90
2
176
1
 90
0
176
1
 90
1
176
1
 40
0.6
176
1
 40
30.0
176
1
 62
7
420
16777215
176
1
 90
1
176
1
 90
4
176
1
 62
7
176
1
 62
257
176
1
 90
1
176
1
 90
1
176
1
 40
1.0
176
1
 90
8
176
1
 62
7
176
1
 40
1.0
176
1
 90
1
176
1
 90
6
176
1
 90
2
176
1
 62
7
176
1
 90
5
176
1
 90
0
176
1
 90
0
176
1
290
0
176
1
 90
1
176
1
 40
0.0
176
1
 90
0
176
1
290
0
176
1
290
1
176
1
290
1
176
1
290
0
176
1
290
0
176
1
290
0
176
1
290
0
176
1
290
0
176
1
290
0
176
1
 90
50
176
1
 40
0.0
176
1
 40
1.0
176
1
 90
0
176
1
 62
18
420
0
176
1
 90
50
176
1
 90
3
176
1
 62
5
420
255
176
1
290
0
176
1
 90
50
176
1
 90
50
176
1
 90
50
176
1
290
0
176
1
 90
50
176
1
 62
256
176
0
 40
1.0
176
0
 90
2
176
1
  1
strokes_ogs.tif
176
1
290
0
176
1
 40
1.0
176
1
 40
1.0
176
1
  0
VISUALSTYLE
  5
70
102
{ACAD_REACTORS
330
16
102
}
330
16
100
AcDbVisualStyle
  2
Thicken
 70
13
177
3
291
1
 70
58
 90
2
176
1
 90
2
176
1
 90
0
176
1
 90
2
176
1
 40
0.6
176
1
 40
30.0
176
1
 62
7
420
16777215
176
1
 90
1
176
1
 90
4
176
1
 62
7
176
1
 62
257
176
1
 90
1
176
1
 90
1
176
1
 40
1.0
176
1
 90
8
176
1
 62
7
176
1
 40
1.0
176
1
 90
1
176
1
 90
6
176
1
 90
2
176
1
 62
7
176
1
 90
5
176
1
 90
0
176
1
 90
0
176
1
290
0
176
1
 90
1
176
1
 40
0.0
176
1
 90
0
176
1
290
0
176
1
290
1
176
1
290
1
176
1
290
0
176
1
290
0
176
1
290
0
176
1
290
0
176
1
290
0
176
1
290
0
176
1
 90
50
176
1
 40
0.0
176
1
 40
1.0
176
1
 90
0
176
1
 62
18
420
0
176
1
 90
50
176
1
 90
3
176
1
 62
5
420
255
176
1
290
0
176
1
 90
50
176
1
 90
50
176
1
 90
50
176
1
290
0
176
1
 90
50
176
1
 62
256
176
0
 40
1.0
176
0
 90
2
176
1
  1
strokes_ogs.tif
176
1
290
0
176
1
 40
1.0
176
1
 40
1.0
176
1
  0
VISUALSTYLE
  5
71
102
{ACAD_REACTORS
330
16
102
}
330
16
100
AcDbVisualStyle
  2
Wireframe
 70
5
177
3
291
0
 70
58
 90
2
176
1
 90
2
176
1
 90
0
176
1
 90
0
176
1
 40
0.6
176
1
 40
30.0
176
1
 62
7
420
16777215
176
1
 90
1
176
1
 90
4
176
1
 62
7
176
1
 62
257
176
1
 90
1
176
1
 90
1
176
1
 40
1.0
176
1
 90
8
176
1
 62
7
176
1
 40
1.0
176
1
 90
1
176
1
 90
6
176
1
 90
2
176
1
 62
7
176
1
 90
5
176
1
 90
0
176
1
 90
0
176
1
290
0
176
1
 90
1
176
1
 40
0.0
176
1
 90
0
176
1
290
0
176
1
290
1
176
1
290
1
176
1
290
0
176
1
290
0
176
1
290
0
176
1
290
0
176
1
290
0
176
1
290
0
176
1
 90
50
176
1
 40
0.0
176
1
 40
1.0
176
1
 90
0
176
1
 62
18
420
0
176
1
 90
50
176
1
 90
3
176
1
 62
5
420
255
176
1
290
0
176
1
 90
50
176
1
 90
50
176
1
 90
50
176
1
290
0
176
1
 90
50
176
1
 62
256
176
0
 40
1.0
176
0
 90
2
176
1
  1
strokes_ogs.tif
176
1
290
0
176
1
 40
1.0
176
1
 40
1.0
176
1
  0
VISUALSTYLE
  5
72
102
{ACAD_REACTORS
330
16
102
}
330
16
100
AcDbVisualStyle
  2
X-Ray
 70
25
177
3
291
0
 70
58
 90
2
176
1
 90
2
176
1
 90
0
176
1
 90
2
176
1
 40
0.5
176
1
 40
30.0
176
1
 62
7
420
16777215
176
1
 90
1
176
1
 90
4
176
1
 62
7
176
1
 62
257
176
1
 90
1
176
1
 90
1
176
1
 40
1.0
176
1
 90
8
176
1
 62
7
176
1
 40
1.0
176
1
 90
1
176
1
 90
6
176
1
 90
2
176
1
 62
7
176
1
 90
5
176
1
 90
0
176
1
 90
0
176
1
290
0
176
1
 90
1
176
1
 40
0.0
176
1
 90
0
176
1
290
0
176
1
290
1
176
1
290
1
176
1
290
0
176
1
290
0
176
1
290
0
176
1
290
0
176
1
290
0
176
1
290
0
176
1
 90
50
176
1
 40
0.0
176
1
 40
1.0
176
1
 90
0
176
1
 62
18
420
0
176
1
 90
50
176
1
 90
3
176
1
 62
5
420
255
176
1
290
0
176
1
 90
50
176
1
 90
50
176
1
 90
50
176
1
290
0
176
1
 90
50
176
1
 62
256
176
0
 40
1.0
176
0
 90
2
176
1
  1
strokes_ogs.tif
176
1
290
0
176
1
 40
1.0
176
1
 40
1.0
176
1
  0
DICTIONARYVAR
  5
12C
330
2D
100
DictionaryVariables
280
0
  1
1.4.4 @ 2026-09-22T11:47:15.814259+00:00
  0
ENDSEC
  0
EOF
