  0
SECTION
  2
HEADER
  9
$ACADVER
  1
AC1027
  9
$ACADMAINTVER
 70
105
  9
$DWGCODEPAGE
  3
ANSI_1252
  9
$LASTSAVEDBY
  1
ezdxf
  9
$REQUIREDVERSIONS
160
0
  9
$INSBASE
 10
0.0
 20
0.0
 30
0.0
  9
$EXTMIN
 10
1e+20
 20
1e+20
 30
1e+20
  9
$EXTMAX
 10
-1e+20
 20
-1e+20
 30
-1e+20
  9
$LIMMIN
 10
0.0
 20
0.0
  9
$LIMMAX
 10
420.0
 20
297.0
  9
$ORTHOMODE
 70
0
  9
$REGENMODE
 70
1
  9
$FILLMODE
 70
1
  9
$QTEXTMODE
 70
0
  9
$MIRRTEXT
 70
1
  9
$LTSCALE
 40
1.0
  9
$ATTMODE
 70
1
  9
$TEXTSIZE
 40
2.5
  9
$TRACEWID
 40
1.0
  9
$TEXTSTYLE
  7
OpenSans
  9
$CLAYER
  8
0
  9
$CELTYPE
  6
ByLayer
  9
$CECOLOR
 62
256
  9
$CELTSCALE
 40
1.0
  9
$DISPSILH
 70
0
  9
$DIMSCALE
 40
1.0
  9
$DIMASZ
 40
0.175
  9
$DIMEXO
 40
0.125
  9
$DIMDLI
 40
3.75
  9
$DIMRND
 40
0.0
  9
$DIMDLE
 40
0.0
  9
$DIMEXE
 40
0.375
  9
$DIMTP
 40
0.0
  9
$DIMTM
 40
0.0
  9
$DIMTXT
 40
0.25
  9
$DIMCEN
 40
2.5
  9
$DIMTSZ
 40
0.0
  9
$DIMTOL
 70
0
  9
$DIMLIM
 70
0
  9
$DIMTIH
 70
0
  9
$DIMTOH
 70
0
  9
$DIMSE1
 70
0
  9
$DIMSE2
 70
0
  9
$DIMTAD
 70
1
  9
$DIMZIN
 70
12
  9
$DIMBLK
  1
ARCHTICK
  9
$DIMASO
 70
1
  9
$DIMSHO
 70
1
  9
$DIMPOST
  1

  9
$DIMAPOST
  1

  9
$DIMALT
 70
0
  9
$DIMALTD
 70
3
  9
$DIMALTF
 40
0.03937007874
  9
$DIMLFAC
 40
100.0
  9
$DIMTOFL
 70
1
  9
$DIMTVP
 40
0.0
  9
$DIMTIX
 70
0
  9
$DIMSOXD
 70
0
  9
$DIMSAH
 70
0
  9
$DIMBLK1
  1

  9
$DIMBLK2
  1

  9
$DIMSTYLE
  2
EZDXF
  9
$DIMCLRD
 70
0
  9
$DIMCLRE
 70
0
  9
$DIMCLRT
 70
0
  9
$DIMTFAC
 40
0.5
  9
$DIMGAP
 40
0.1
  9
$DIMJUST
 70
0
  9
$DIMSD1
 70
0
  9
$DIMSD2
 70
0
  9
$DIMTOLJ
 70
0
  9
$DIMTZIN
 70
8
  9
$DIMALTZ
 70
0
  9
$DIMALTTZ
 70
0
  9
$DIMUPT
 70
1
  9
$DIMDEC
 70
2
  9
$DIMTDEC
 70
2
  9
$DIMALTU
 70
2
  9
$DIMALTTD
 70
3
  9
$DIMTXSTY
  7
OpenSansCondensed-Light
  9
$DIMAUNIT
 70
0
  9
$DIMADEC
 70
2
  9
$DIMALTRND
 40
0.0
  9
$DIMAZIN
 70
3
  9
$DIMDSEP
 70
46
  9
$DIMATFIT
 70
3
  9
$DIMFRAC
 70
0
  9
$DIMLDRBLK
  1

  9
$DIMLUNIT
 70
2
  9
$DIMLWD
 70
-2
  9
$DIMLWE
 70
-2
  9
$DIMTMOVE
 70
2
  9
$DIMFXL
 40
1.0
  9
$DIMFXLON
 70
0
  9
$DIMJOGANG
 40
0.785398163397
  9
$DIMTFILL
 70
0
  9
$DIMTFILLCLR
 70
0
  9
$DIMARCSYM
 70
0
  9
$DIMLTYPE
  6

  9
$DIMLTEX1
  6

  9
$DIMLTEX2
  6

  9
$DIMTXTDIRECTION
 70
0
  9
$LUNITS
 70
2
  9
$LUPREC
 70
4
  9
$SKETCHINC
 40
1.0
  9
$FILLETRAD
 40
10.0
  9
$AUNITS
 70
0
  9
$AUPREC
 70
2
  9
$MENU
  1
.
  9
$ELEVATION
 40
0.0
  9
$PELEVATION
 40
0.0
  9
$THICKNESS
 40
0.0
  9
$LIMCHECK
 70
0
  9
$CHAMFERA
 40
0.0
  9
$CHAMFERB
 40
0.0
  9
$CHAMFERC
 40
0.0
  9
$CHAMFERD
 40
0.0
  9
$SKPOLY
 70
0
  9
$TDCREATE
 40
2461306.6664583334
  9
$TDUCREATE
 40
2458532.153996898
  9
$TDUPDATE
 40
2461306.6664583334
  9
$TDUUPDATE
 40
2458532.1544311
  9
$TDINDWG
 40
0.0
  9
$TDUSRTIMER
 40
0.0
  9
$USRTIMER
 70
1
  9
$ANGBASE
 50
0.0
  9
$ANGDIR
 70
0
  9
$PDMODE
 70
0
  9
$PDSIZE
 40
0.0
  9
$PLINEWID
 40
0.0
  9
$SPLFRAME
 70
0
  9
$SPLINETYPE
 70
6
  9
$SPLINESEGS
 70
8
  9
$HANDSEED
  5
172
  9
$SURFTAB1
 70
6
  9
$SURFTAB2
 70
6
  9
$SURFTYPE
 70
6
  9
$SURFU
 70
6
  9
$SURFV
 70
6
  9
$UCSBASE
  2

  9
$UCSNAME
  2

  9
$UCSORG
 10
0.0
 20
0.0
 30
0.0
  9
$UCSXDIR
 10
1.0
 20
0.0
 30
0.0
  9
$UCSYDIR
 10
0.0
 20
1.0
 30
0.0
  9
$UCSORTHOREF
  2

  9
$UCSORTHOVIEW
 70
0
  9
$UCSORGTOP
 10
0.0
 20
0.0
 30
0.0
  9
$UCSORGBOTTOM
 10
0.0
 20
0.0
 30
0.0
  9
$UCSORGLEFT
 10
0.0
 20
0.0
 30
0.0
  9
$UCSORGRIGHT
 10
0.0
 20
0.0
 30
0.0
  9
$UCSORGFRONT
 10
0.0
 20
0.0
 30
0.0
  9
$UCSORGBACK
 10
0.0
 20
0.0
 30
0.0
  9
$PUCSBASE
  2

  9
$PUCSNAME
  2

  9
$PUCSORG
 10
0.0
 20
0.0
 30
0.0
  9
$PUCSXDIR
 10
1.0
 20
0.0
 30
0.0
  9
$PUCSYDIR
 10
0.0
 20
1.0
 30
0.0
  9
$PUCSORTHOREF
  2

  9
$PUCSORTHOVIEW
 70
0
  9
$PUCSORGTOP
 10
0.0
 20
0.0
 30
0.0
  9
$PUCSORGBOTTOM
 10
0.0
 20
0.0
 30
0.0
  9
$PUCSORGLEFT
 10
0.0
 20
0.0
 30
0.0
  9
$PUCSORGRIGHT
 10
0.0
 20
0.0
 30
0.0
  9
$PUCSORGFRONT
 10
0.0
 20
0.0
 30
0.0
  9
$PUCSORGBACK
 10
0.0
 20
0.0
 30
0.0
  9
$USERI1
 70
0
  9
$USERI2
 70
0
  9
$USERI3
 70
0
  9
$USERI4
 70
0
  9
$USERI5
 70
0
  9
$USERR1
 40
0.0
  9
$USERR2
 40
0.0
  9
$USERR3
 40
0.0
  9
$USERR4
 40
0.0
  9
$USERR5
 40
0.0
  9
$WORLDVIEW
 70
1
  9
$SHADEDGE
 70
3
  9
$SHADEDIF
 70
70
  9
$TILEMODE
 70
1
  9
$MAXACTVP
 70
64
  9
$PINSBASE
 10
0.0
 20
0.0
 30
0.0
  9
$PLIMCHECK
 70
0
  9
$PEXTMIN
 10
1e+20
 20
1e+20
 30
1e+20
  9
$PEXTMAX
 10
-1e+20
 20
-1e+20
 30
-1e+20
  9
$PLIMMIN
 10
0.0
 20
0.0
  9
$PLIMMAX
 10
420.0
 20
297.0
  9
$UNITMODE
 70
0
  9
$VISRETAIN
 70
1
  9
$PLINEGEN
 70
0
  9
$PSLTSCALE
 70
1
  9
$TREEDEPTH
 70
3020
  9
$CMLSTYLE
  2
Standard
  9
$CMLJUST
 70
0
  9
$CMLSCALE
 40
20.0
  9
$PROXYGRAPHICS
 70
1
  9
$MEASUREMENT
 70
1
  9
$CELWEIGHT
370
-1
  9
$ENDCAPS
280
0
  9
$JOINSTYLE
280
0
  9
$LWDISPLAY
290
0
  9
$INSUNITS
 70
4
  9
$HYPERLINKBASE
  1

  9
$STYLESHEET
  1

  9
$XEDIT
290
1
  9
$CEPSNTYPE
380
0
  9
$PSTYLEMODE
290
1
  9
$FINGERPRINTGUID
  2
{219AB654-6896-4F8F-8329-622EE29A9674}
  9
$VERSIONGUID
  2
{A47B40D4-9609-4663-852E-9F268BAD2480}
  9
$EXTNAMES
290
1
  9
$PSVPSCALE
 40
0.0
  9
$OLESTARTUP
290
0
  9
$SORTENTS
280
127
  9
$INDEXCTL
280
0
  9
$HIDETEXT
280
1
  9
$XCLIPFRAME
280
1
  9
$HALOGAP
280
0
  9
$OBSCOLOR
 70
257
  9
$OBSLTYPE
280
0
  9
$INTERSECTIONDISPLAY
280
0
  9
$INTERSECTIONCOLOR
 70
257
  9
$DIMASSOC
280
2
  9
$PROJECTNAME
  1

  9
$CAMERADISPLAY
290
0
  9
$LENSLENGTH
 40
50.0
  9
$CAMERAHEIGHT
 40
0.0
  9
$STEPSPERSEC
 40
24.0
  9
$STEPSIZE
 40
100.0
  9
$3DDWFPREC
 40
2.0
  9
$PSOLWIDTH
 40
0.005
  9
$PSOLHEIGHT
 40
0.08
  9
$LOFTANG1
 40
1.570796326795
  9
$LOFTANG2
 40
1.570796326795
  9
$LOFTMAG1
 40
0.0
  9
$LOFTMAG2
 40
0.0
  9
$LOFTPARAM
 70
7
  9
$LOFTNORMALS
280
1
  9
$LATITUDE
 40
37.795
  9
$LONGITUDE
 40
-122.394
  9
$NORTHDIRECTION
 40
0.0
  9
$TIMEZONE
 70
-8000
  9
$LIGHTGLYPHDISPLAY
280
1
  9
$TILEMODELIGHTSYNCH
280
1
  9
$CMATERIAL
347
20
  9
$SOLIDHIST
280
0
  9
$SHOWHIST
280
1
  9
$DWFFRAME
280
2
  9
$DGNFRAME
280
2
  9
$REALWORLDSCALE
290
1
  9
$INTERFERECOLOR
 62
256
  9
$CSHADOW
280
0
  9
$SHADOWPLANELOCATION
 40
0.0
  0
ENDSEC
  0
SECTION
  2
CLASSES
  0
CLASS
  1
ACDBDICTIONARYWDFLT
  2
AcDbDictionaryWithDefault
  3
ObjectDBX Classes
 90
0
 91
0
280
0
281
0
  0
CLASS
  1
SUN
  2
AcDbSun
  3
SCENEOE
 90
1153
 91
0
280
0
281
0
  0
CLASS
  1
VISUALSTYLE
  2
AcDbVisualStyle
  3
ObjectDBX Classes
 90
4095
 91
0
280
0
281
0
  0
CLASS
  1
MATERIAL
  2
AcDbMaterial
  3
ObjectDBX Classes
 90
1153
 91
0
280
0
281
0
  0
CLASS
  1
SCALE
  2
AcDbScale
  3
ObjectDBX Classes
 90
1153
 91
0
280
0
281
0
  0
CLASS
  1
TABLESTYLE
  2
AcDbTableStyle
  3
ObjectDBX Classes
 90
4095
 91
0
280
0
281
0
  0
CLASS
  1
MLEADERSTYLE
  2
AcDbMLeaderStyle
  3
ACDB_MLEADERSTYLE_CLASS
 90
4095
 91
0
280
0
281
0
  0
CLASS
  1
DICTIONARYVAR
  2
AcDbDictionaryVar
  3
ObjectDBX Classes
 90
0
 91
0
280
0
281
0
  0
CLASS
  1
CELLSTYLEMAP
  2
AcDbCellStyleMap
  3
ObjectDBX Classes
 90
1152
 91
0
280
0
281
0
  0
CLASS
  1
MENTALRAYRENDERSETTINGS
  2
AcDbMentalRayRenderSettings
  3
SCENEOE
 90
1024
 91
0
280
0
281
0
  0
CLASS
  1
ACDBDETAILVIEWSTYLE
  2
AcDbDetailViewStyle
  3
ObjectDBX Classes
 90
1025
 91
0
280
0
281
0
  0
CLASS
  1
ACDBSECTIONVIEWSTYLE
  2
AcDbSectionViewStyle
  3
ObjectDBX Classes
 90
1025
 91
0
280
0
281
0
  0
CLASS
  1
RASTERVARIABLES
  2
AcDbRasterVariables
  3
ISM
 90
0
 91
0
280
0
281
0
  0
CLASS
  1
ACDBPLACEHOLDER
  2
AcDbPlaceHolder
  3
ObjectDBX Classes
 90
0
 91
0
280
0
281
0
  0
CLASS
  1
LAYOUT
  2
AcDbLayout
  3
ObjectDBX Classes
 90
0
 91
0
280
0
281
0
  0
ENDSEC
  0
SECTION
  2
TABLES
  0
TABLE
  2
VPORT
  5
8
330
0
100
AcDbSymbolTable
 70
1
  0
VPORT
  5
23
330
8
100
AcDbSymbolTableRecord
100
AcDbViewportTableRecord
  2
*Active
 70
0
 10
0.0
 20
0.0
 11
1.0
 21
1.0
 12
0.0
 22
0.0
 13
0.0
 23
0.0
 14
0.5
 24
0.5
 15
0.5
 25
0.5
 16
0.0
 26
0.0
 36
1.0
 17
0.0
 27
0.0
 37
0.0
 40
1000.0
 41
1.34
 42
50.0
 43
0.0
 44
0.0
 50
0.0
 51
0.0
 71
0
 72
1000
 73
1
 74
3
 75
0
 76
0
 77
0
 78
0
281
0
 65
0
146
0.0
  0
ENDTAB
  0
TABLE
  2
LTYPE
  5
2
330
0
100
AcDbSymbolTable
 70
21
  0
LTYPE
  5
24
330
2
100
AcDbSymbolTableRecord
100
AcDbLinetypeTableRecord
  2
ByBlock
 70
0
  3

 72
65
 73
0
 40
0.0
  0
LTYPE
  5
25
330
2
100
AcDbSymbolTableRecord
100
AcDbLinetypeTableRecord
  2
ByLayer
 70
0
  3

 72
65
 73
0
 40
0.0
  0
LTYPE
  5
26
330
2
100
AcDbSymbolTableRecord
100
AcDbLinetypeTableRecord
  2
Continuous
 70
0
  3

 72
65
 73
0
 40
0.0
  0
LTYPE
  5
2F
330
2
100
AcDbSymbolTableRecord
100
AcDbLinetypeTableRecord
  2
CENTER
 70
0
  3
Center ____ _ ____ _ ____ _ ____ _ ____ _ ____
 72
65
 73
4
 40
5.08
 49
3.175
 74
0
 49
-0.635
 74
0
 49
0.635
 74
0
 49
-0.635
 74
0
  0
LTYPE
  5
30
330
2
100
AcDbSymbolTableRecord
100
AcDbLinetypeTableRecord
  2
CENTERX2
 70
0
  3
Center (2x) ________  __  ________  __  ________
 72
65
 73
4
 40
8.89
 49
6.35
 74
0
 49
-0.635
 74
0
 49
1.27
 74
0
 49
-0.635
 74
0
  0
LTYPE
  5
31
330
2
100
AcDbSymbolTableRecord
100
AcDbLinetypeTableRecord
  2
CENTER2
 70
0
  3
Center (.5x) ____ _ ____ _ ____ _ ____ _ ____
 72
65
 73
4
 40
2.54
 49
1.587
 74
0
 49
-0.318
 74
0
 49
0.318
 74
0
 49
-0.318
 74
0
  0
LTYPE
  5
32
330
2
100
AcDbSymbolTableRecord
100
AcDbLinetypeTableRecord
  2
DASHED
 70
0
  3
Dashed __ __ __ __ __ __ __ __ __ __ __ __ __ _
 72
65
 73
2
 40
1.524
 49
1.27
 74
0
 49
-0.254
 74
0
  0
LTYPE
  5
33
330
2
100
AcDbSymbolTableRecord
100
AcDbLinetypeTableRecord
  2
DASHEDX2
 70
0
  3
Dashed (2x) ____  ____  ____  ____  ____  ____
 72
65
 73
2
 40
3.048
 49
2.54
 74
0
 49
-0.508
 74
0
  0
LTYPE
  5
34
330
2
100
AcDbSymbolTableRecord
100
AcDbLinetypeTableRecord
  2
DASHED2
 70
0
  3
Dashed (.5x) _ _ _ _ _ _ _ _ _ _ _ _ _ _
 72
65
 73
2
 40
0.762
 49
0.635
 74
0
 49
-0.127
 74
0
  0
LTYPE
  5
35
330
2
100
AcDbSymbolTableRecord
100
AcDbLinetypeTableRecord
  2
PHANTOM
 70
0
  3
Phantom ______  __  __  ______  __  __  ______
 72
65
 73
6
 40
6.35
 49
3.175
 74
0
 49
-0.635
 74
0
 49
0.635
 74
0
 49
-0.635
 74
0
 49
0.635
 74
0
 49
-0.635
 74
0
  0
LTYPE
  5
36
330
2
100
AcDbSymbolTableRecord
100
AcDbLinetypeTableRecord
  2
PHANTOMX2
 70
0
  3
Phantom (2x)____________    ____    ____    ____________
 72
65
 73
6
 40
10.795
 49
6.35
 74
0
 49
-0.635
 74
0
 49
1.27
 74
0
 49
-0.635
 74
0
 49
1.27
 74
0
 49
-0.635
 74
0
  0
LTYPE
  5
37
330
2
100
AcDbSymbolTableRecord
100
AcDbLinetypeTableRecord
  2
PHANTOM2
 70
0
  3
Phantom (.5x) ___ _ _ ___ _ _ ___ _ _ ___ _ _ ___
 72
65
 73
6
 40
3.175
 49
1.587
 74
0
 49
-0.318
 74
0
 49
0.318
 74
0
 49
-0.318
 74
0
 49
0.318
 74
0
 49
-0.318
 74
0
  0
LTYPE
  5
38
330
2
100
AcDbSymbolTableRecord
100
AcDbLinetypeTableRecord
  2
DASHDOT
 70
0
  3
Dash dot __ . __ . __ . __ . __ . __ . __ . __
 72
65
 73
4
 40
3.556
 49
2.54
 74
0
 49
-0.508
 74
0
 49
0.0
 74
0
 49
-0.508
 74
0
  0
LTYPE
  5
39
330
2
100
AcDbSymbolTableRecord
100
AcDbLinetypeTableRecord
  2
DASHDOTX2
 70
0
  3
Dash dot (2x) ____  .  ____  .  ____  .  ____
 72
65
 73
4
 40
6.096
 49
5.08
 74
0
 49
-0.508
 74
0
 49
0.0
 74
0
 49
-0.508
 74
0
  0
LTYPE
  5
3A
330
2
100
AcDbSymbolTableRecord
100
AcDbLinetypeTableRecord
  2
DASHDOT2
 70
0
  3
Dash dot (.5x) _ . _ . _ . _ . _ . _ . _ . _
 72
65
 73
4
 40
1.778
 49
1.27
 74
0
 49
-0.254
 74
0
 49
0.0
 74
0
 49
-0.254
 74
0
  0
LTYPE
  5
3B
330
2
100
AcDbSymbolTableRecord
100
AcDbLinetypeTableRecord
  2
DOT
 70
0
  3
Dot .  .  .  .  .  .  .  .  .  .  .  .  .  .  .  .
 72
65
 73
2
 40
0.508
 49
0.0
 74
0
 49
-0.508
 74
0
  0
LTYPE
  5
3C
330
2
100
AcDbSymbolTableRecord
100
AcDbLinetypeTableRecord
  2
DOTX2
 70
0
  3
Dot (2x) .    .    .    .    .    .    .    . 
 72
65
 73
2
 40
1.016
 49
0.0
 74
0
 49
-1.016
 74
0
  0
LTYPE
  5
3D
330
2
100
AcDbSymbolTableRecord
100
AcDbLinetypeTableRecord
  2
DOT2
 70
0
  3
Dot (.5) . . . . . . . . . . . . . . . . . . . 
 72
65
 73
2
 40
0.254
 49
0.0
 74
0
 49
-0.254
 74
0
  0
LTYPE
  5
3E
330
2
100
AcDbSymbolTableRecord
100
AcDbLinetypeTableRecord
  2
DIVIDE
 70
0
  3
Divide __ . . __ . . __ . . __ . . __ . . __
 72
65
 73
6
 40
4.064
 49
2.54
 74
0
 49
-0.508
 74
0
 49
0.0
 74
0
 49
-0.508
 74
0
 49
0.0
 74
0
 49
-0.508
 74
0
  0
LTYPE
  5
3F
330
2
100
AcDbSymbolTableRecord
100
AcDbLinetypeTableRecord
  2
DIVIDEX2
 70
0
  3
Divide (2x) ____  . .  ____  . .  ____  . .  ____
 72
65
 73
6
 40
6.604
 49
5.08
 74
0
 49
-0.508
 74
0
 49
0.0
 74
0
 49
-0.508
 74
0
 49
0.0
 74
0
 49
-0.508
 74
0
  0
LTYPE
  5
40
330
2
100
AcDbSymbolTableRecord
100
AcDbLinetypeTableRecord
  2
DIVIDE2
 70
0
  3
Divide(.5x) _ . _ . _ . _ . _ . _ . _ . _
 72
65
 73
6
 40
2.032
 49
1.27
 74
0
 49
-0.254
 74
0
 49
0.0
 74
0
 49
-0.254
 74
0
 49
0.0
 74
0
 49
-0.254
 74
0
  0
ENDTAB
  0
TABLE
  2
LAYER
  5
1
330
0
100
AcDbSymbolTable
 70
23
  0
LAYER
  5
27
330
1
100
AcDbSymbolTableRecord
100
AcDbLayerTableRecord
  2
0
 70
0
 62
7
  6
Continuous
370
-3
390
13
347
21
  0
LAYER
  5
28
330
1
100
AcDbSymbolTableRecord
100
AcDbLayerTableRecord
  2
Defpoints
 70
0
 62
7
  6
Continuous
290
0
370
-3
390
13
347
21
  0
LAYER
  5
8A
330
1
100
AcDbSymbolTableRecord
100
AcDbLayerTableRecord
  2
00_РАМКА
 70
0
 62
7
  6
CONTINUOUS
370
-3
390
13
347
21
  0
LAYER
  5
8B
330
1
100
AcDbSymbolTableRecord
100
AcDbLayerTableRecord
  2
01_ОБШИВКА
 70
0
 62
7
  6
CONTINUOUS
370
-3
390
13
347
21
  0
LAYER
  5
8C
330
1
100
AcDbSymbolTableRecord
100
AcDbLayerTableRecord
  2
02_ПАЛУБЫ
 70
0
 62
4
  6
CONTINUOUS
370
-3
390
13
347
21
  0
LAYER
  5
8D
330
1
100
AcDbSymbolTableRecord
100
AcDbLayerTableRecord
  2
03_ПЕРЕБОРКИ
 70
0
 62
1
  6
CONTINUOUS
370
-3
390
13
347
21
  0
LAYER
  5
8E
330
1
100
AcDbSymbolTableRecord
100
AcDbLayerTableRecord
  2
04_ЦИСТЕРНЫ
 70
0
 62
3
  6
CONTINUOUS
370
-3
390
13
347
21
  0
LAYER
  5
8F
330
1
100
AcDbSymbolTableRecord
100
AcDbLayerTableRecord
  2
05_ОБОРУДОВАНИЕ
 70
0
 62
5
  6
CONTINUOUS
370
-3
390
13
347
21
  0
LAYER
  5
90
330
1
100
AcDbSymbolTableRecord
100
AcDbLayerTableRecord
  2
06_ПОМЕЩЕНИЯ
 70
0
 62
8
  6
CONTINUOUS
370
-3
390
13
347
21
  0
LAYER
  5
91
330
1
100
AcDbSymbolTableRecord
100
AcDbLayerTableRecord
  2
07_ОСИ
 70
0
 62
2
  6
CENTER
370
-3
390
13
347
21
  0
LAYER
  5
92
330
1
100
AcDbSymbolTableRecord
100
AcDbLayerTableRecord
  2
08_ТЕКСТ
 70
0
 62
7
  6
CONTINUOUS
370
-3
390
13
347
21
  0
LAYER
  5
93
330
1
100
AcDbSymbolTableRecord
100
AcDbLayerTableRecord
  2
09_РАЗМЕРЫ
 70
0
 62
6
  6
CONTINUOUS
370
-3
390
13
347
21
  0
LAYER
  5
94
330
1
100
AcDbSymbolTableRecord
100
AcDbLayerTableRecord
  2
10_НАБОР
 70
0
 62
9
  6
CONTINUOUS
370
-3
390
13
347
21
  0
LAYER
  5
95
330
1
100
AcDbSymbolTableRecord
100
AcDbLayerTableRecord
  2
11_КАЮТЫ
 70
0
 62
30
  6
CONTINUOUS
370
-3
390
13
347
21
  0
LAYER
  5
96
330
1
100
AcDbSymbolTableRecord
100
AcDbLayerTableRecord
  2
12_ТРАПЫ_ЛИФТЫ
 70
0
 62
6
  6
CONTINUOUS
370
-3
390
13
347
21
  0
LAYER
  5
97
330
1
100
AcDbSymbolTableRecord
100
AcDbLayerTableRecord
  2
13_КОЛЁСА
 70
0
 62
1
  6
CONTINUOUS
370
-3
390
13
347
21
  0
LAYER
  5
98
330
1
100
AcDbSymbolTableRecord
100
AcDbLayerTableRecord
  2
14_МЕБЕЛЬ
 70
0
 62
252
  6
CONTINUOUS
370
-3
390
13
347
21
  0
LAYER
  5
9A
330
1
100
AcDbSymbolTableRecord
100
AcDbLayerTableRecord
  2
20_ГРАФИК
 70
0
 62
8
  6
CONTINUOUS
370
-3
390
13
347
21
  0
LAYER
  5
9B
330
1
100
AcDbSymbolTableRecord
100
AcDbLayerTableRecord
  2
21_СЕТКА
 70
0
 62
9
  6
CONTINUOUS
370
-3
390
13
347
21
  0
LAYER
  5
9C
330
1
100
AcDbSymbolTableRecord
100
AcDbLayerTableRecord
  2
22_КРИВАЯ_А
 70
0
 62
5
  6
CONTINUOUS
370
-3
390
13
347
21
  0
LAYER
  5
9D
330
1
100
AcDbSymbolTableRecord
100
AcDbLayerTableRecord
  2
23_КРИВАЯ_Б
 70
0
 62
1
  6
CONTINUOUS
370
-3
390
13
347
21
  0
LAYER
  5
9E
330
1
100
AcDbSymbolTableRecord
100
AcDbLayerTableRecord
  2
24_КРИВАЯ_В
 70
0
 62
3
  6
CONTINUOUS
370
-3
390
13
347
21
  0
LAYER
  5
9F
330
1
100
AcDbSymbolTableRecord
100
AcDbLayerTableRecord
  2
25_КРИВАЯ_Г
 70
0
 62
30
  6
CONTINUOUS
370
-3
390
13
347
21
  0
ENDTAB
  0
TABLE
  2
STYLE
  5
5
330
0
100
AcDbSymbolTable
 70
27
  0
STYLE
  5
29
330
5
100
AcDbSymbolTableRecord
100
AcDbTextStyleTableRecord
  2
Standard
 70
0
 40
0.0
 41
1.0
 50
0.0
 71
0
 42
2.5
  3
txt
  4

  0
STYLE
  5
41
330
5
100
AcDbSymbolTableRecord
100
AcDbTextStyleTableRecord
  2
OpenSans-Light
 70
0
 40
0.0
 41
1.0
 50
0.0
 71
0
 42
2.5
  3
OpenSans-Light.ttf
  4

  0
STYLE
  5
42
330
5
100
AcDbSymbolTableRecord
100
AcDbTextStyleTableRecord
  2
OpenSans-Light-Italic
 70
0
 40
0.0
 41
1.0
 50
0.0
 71
0
 42
2.5
  3
OpenSans-LightItalic.ttf
  4

  0
STYLE
  5
43
330
5
100
AcDbSymbolTableRecord
100
AcDbTextStyleTableRecord
  2
OpenSans
 70
0
 40
0.0
 41
1.0
 50
0.0
 71
0
 42
2.5
  3
OpenSans-Regular.ttf
  4

  0
STYLE
  5
44
330
5
100
AcDbSymbolTableRecord
100
AcDbTextStyleTableRecord
  2
OpenSans-Italic
 70
0
 40
0.0
 41
1.0
 50
0.0
 71
0
 42
2.5
  3
OpenSans-Italic.ttf
  4

  0
STYLE
  5
45
330
5
100
AcDbSymbolTableRecord
100
AcDbTextStyleTableRecord
  2
OpenSans-SemiBold
 70
0
 40
0.0
 41
1.0
 50
0.0
 71
0
 42
2.5
  3
OpenSans-SemiBold.ttf
  4

  0
STYLE
  5
46
330
5
100
AcDbSymbolTableRecord
100
AcDbTextStyleTableRecord
  2
OpenSans-SemiBoldItalic
 70
0
 40
0.0
 41
1.0
 50
0.0
 71
0
 42
2.5
  3
OpenSans-SemiBoldItalic.ttf
  4

  0
STYLE
  5
47
330
5
100
AcDbSymbolTableRecord
100
AcDbTextStyleTableRecord
  2
OpenSans-Bold
 70
0
 40
0.0
 41
1.0
 50
0.0
 71
0
 42
2.5
  3
OpenSans-Bold.ttf
  4

  0
STYLE
  5
48
330
5
100
AcDbSymbolTableRecord
100
AcDbTextStyleTableRecord
  2
OpenSans-BoldItalic
 70
0
 40
0.0
 41
1.0
 50
0.0
 71
0
 42
2.5
  3
OpenSans-BoldItalic.ttf
  4

  0
STYLE
  5
49
330
5
100
AcDbSymbolTableRecord
100
AcDbTextStyleTableRecord
  2
OpenSans-ExtraBold
 70
0
 40
0.0
 41
1.0
 50
0.0
 71
0
 42
2.5
  3
OpenSans-ExtraBold.ttf
  4

  0
STYLE
  5
4A
330
5
100
AcDbSymbolTableRecord
100
AcDbTextStyleTableRecord
  2
OpenSans-ExtraBoldItalic
 70
0
 40
0.0
 41
1.0
 50
0.0
 71
0
 42
2.5
  3
OpenSans-ExtraBoldItalic.ttf
  4

  0
STYLE
  5
4B
330
5
100
AcDbSymbolTableRecord
100
AcDbTextStyleTableRecord
  2
OpenSansCondensed-Bold
 70
0
 40
0.0
 41
1.0
 50
0.0
 71
0
 42
2.5
  3
OpenSansCondensed-Bold.ttf
  4

  0
STYLE
  5
4C
330
5
100
AcDbSymbolTableRecord
100
AcDbTextStyleTableRecord
  2
OpenSansCondensed-Light
 70
0
 40
0.0
 41
1.0
 50
0.0
 71
0
 42
2.5
  3
OpenSansCondensed-Light.ttf
  4

  0
STYLE
  5
4D
330
5
100
AcDbSymbolTableRecord
100
AcDbTextStyleTableRecord
  2
OpenSansCondensed-Italic
 70
0
 40
0.0
 41
1.0
 50
0.0
 71
0
 42
2.5
  3
OpenSansCondensed-LightItalic.ttf
  4

  0
STYLE
  5
4E
330
5
100
AcDbSymbolTableRecord
100
AcDbTextStyleTableRecord
  2
LiberationSans
 70
0
 40
0.0
 41
1.0
 50
0.0
 71
0
 42
2.5
  3
LiberationSans-Regular.ttf
  4

  0
STYLE
  5
4F
330
5
100
AcDbSymbolTableRecord
100
AcDbTextStyleTableRecord
  2
LiberationSans-Bold
 70
0
 40
0.0
 41
1.0
 50
0.0
 71
0
 42
2.5
  3
LiberationSans-Bold.ttf
  4

  0
STYLE
  5
50
330
5
100
AcDbSymbolTableRecord
100
AcDbTextStyleTableRecord
  2
LiberationSans-BoldItalic
 70
0
 40
0.0
 41
1.0
 50
0.0
 71
0
 42
2.5
  3
LiberationSans-BoldItalic.ttf
  4

  0
STYLE
  5
51
330
5
100
AcDbSymbolTableRecord
100
AcDbTextStyleTableRecord
  2
LiberationSans-Italic
 70
0
 40
0.0
 41
1.0
 50
0.0
 71
0
 42
2.5
  3
LiberationSans-Italic.ttf
  4

  0
STYLE
  5
52
330
5
100
AcDbSymbolTableRecord
100
AcDbTextStyleTableRecord
  2
LiberationSerif
 70
0
 40
0.0
 41
1.0
 50
0.0
 71
0
 42
2.5
  3
LiberationSerif-Regular.ttf
  4

  0
STYLE
  5
53
330
5
100
AcDbSymbolTableRecord
100
AcDbTextStyleTableRecord
  2
LiberationSerif-Bold
 70
0
 40
0.0
 41
1.0
 50
0.0
 71
0
 42
2.5
  3
LiberationSerif-Bold.ttf
  4

  0
STYLE
  5
54
330
5
100
AcDbSymbolTableRecord
100
AcDbTextStyleTableRecord
  2
LiberationSerif-BoldItalic
 70
0
 40
0.0
 41
1.0
 50
0.0
 71
0
 42
2.5
  3
LiberationSerif-BoldItalic.ttf
  4

  0
STYLE
  5
55
330
5
100
AcDbSymbolTableRecord
100
AcDbTextStyleTableRecord
  2
LiberationSerif-Italic
 70
0
 40
0.0
 41
1.0
 50
0.0
 71
0
 42
2.5
  3
LiberationSerif-Italic.ttf
  4

  0
STYLE
  5
56
330
5
100
AcDbSymbolTableRecord
100
AcDbTextStyleTableRecord
  2
LiberationMono
 70
0
 40
0.0
 41
1.0
 50
0.0
 71
0
 42
2.5
  3
LiberationMono-Regular.ttf
  4

  0
STYLE
  5
57
330
5
100
AcDbSymbolTableRecord
100
AcDbTextStyleTableRecord
  2
LiberationMono-Bold
 70
0
 40
0.0
 41
1.0
 50
0.0
 71
0
 42
2.5
  3
LiberationMono-Bold.ttf
  4

  0
STYLE
  5
58
330
5
100
AcDbSymbolTableRecord
100
AcDbTextStyleTableRecord
  2
LiberationMono-BoldItalic
 70
0
 40
0.0
 41
1.0
 50
0.0
 71
0
 42
2.5
  3
LiberationMono-BoldItalic.ttf
  4

  0
STYLE
  5
59
330
5
100
AcDbSymbolTableRecord
100
AcDbTextStyleTableRecord
  2
LiberationMono-Italic
 70
0
 40
0.0
 41
1.0
 50
0.0
 71
0
 42
2.5
  3
LiberationMono-Italic.ttf
  4

  0
STYLE
  5
99
330
5
100
AcDbSymbolTableRecord
100
AcDbTextStyleTableRecord
  2
ГОСТ
 70
0
 40
0.0
 41
1.0
 50
0.0
 71
0
 42
2.5
  3
ISOCPEUR.TTF
  4

  0
ENDTAB
  0
TABLE
  2
VIEW
  5
7
330
0
100
AcDbSymbolTable
 70
0
  0
ENDTAB
  0
TABLE
  2
UCS
  5
6
330
0
100
AcDbSymbolTable
 70
0
  0
ENDTAB
  0
TABLE
  2
APPID
  5
3
330
0
100
AcDbSymbolTable
 70
3
  0
APPID
  5
2A
330
3
100
AcDbSymbolTableRecord
100
AcDbRegAppTableRecord
  2
ACAD
 70
0
  0
APPID
  5
16F
330
3
100
AcDbSymbolTableRecord
100
AcDbRegAppTableRecord
  2
HATCHBACKGROUNDCOLOR
 70
0
  0
APPID
  5
170
330
3
100
AcDbSymbolTableRecord
100
AcDbRegAppTableRecord
  2
EZDXF
 70
0
  0
ENDTAB
  0
TABLE
  2
DIMSTYLE
  5
4
330
0
100
AcDbSymbolTable
 70
12
100
AcDbDimStyleTable
  0
DIMSTYLE
105
2B
330
4
100
AcDbSymbolTableRecord
100
AcDbDimStyleTableRecord
  2
Standard
 70
0
 40
1.0
 41
2.5
 42
0.625
 43
3.75
 44
1.25
 45
0.0
 46
0.0
 47
0.0
 48
0.0
 49
2.5
140
2.5
141
2.5
142
0.0
143
0.03937007874
144
1.0
145
0.0
146
1.0
147
0.625
148
0.0
 69
0
 70
0
 71
0
 72
0
 73
0
 74
0
 75
0
 76
0
 77
1
 78
8
 79
3
170
0
171
3
172
1
173
0
174
0
175
0
176
0
177
0
178
0
179
2
271
2
272
2
273
2
274
3
275
0
276
0
277
2
278
44
279
0
280
0
281
0
282
0
283
0
284
8
285
0
286
0
288
0
289
3
290
0
371
-2
372
-2
  0
DIMSTYLE
105
73
330
4
100
AcDbSymbolTableRecord
100
AcDbDimStyleTableRecord
  2
EZDXF
 70
0
 40
1.0
 41
0.175
 42
0.125
 43
3.75
 44
0.375
 45
0.0
 46
0.0
 47
0.0
 48
0.0
 49
2.5
140
0.25
141
2.5
142
0.0
143
0.03937007874
144
100.0
145
0.0
146
0.5
147
0.1
148
0.0
 69
0
 70
0
 71
0
 72
0
 73
0
 74
0
 75
0
 76
0
 77
1
 78
12
 79
3
170
0
171
3
172
1
173
0
174
0
175
0
176
0
177
0
178
0
179
2
271
2
272
2
273
2
274
3
275
0
276
0
277
2
278
46
279
2
280
0
281
0
282
0
283
0
284
8
285
0
286
0
288
1
289
3
290
0
340
4C
342
74
371
-2
372
-2
  0
DIMSTYLE
105
7C
330
4
100
AcDbSymbolTableRecord
100
AcDbDimStyleTableRecord
  2
EZ_M_100_H25_CM
 70
0
 40
1.0
 41
0.25
 42
0.125
 43
3.75
 44
0.375
 45
0.0
 46
0.0
 47
0.0
 48
0.0
 49
2.5
140
0.25
141
2.5
142
0.125
143
0.03937007874
144
100.0
145
0.0
146
0.5
147
0.1
148
0.0
 69
0
 70
0
 71
0
 72
0
 73
0
 74
0
 75
0
 76
0
 77
1
 78
12
 79
3
170
0
171
3
172
1
173
0
174
0
175
0
176
0
177
0
178
0
179
2
271
2
272
2
273
2
274
3
275
0
276
0
277
2
278
46
279
2
280
0
281
0
282
0
283
0
284
8
285
0
286
0
288
1
289
3
290
0
340
4C
371
-2
372
-2
  0
DIMSTYLE
105
7D
330
4
100
AcDbSymbolTableRecord
100
AcDbDimStyleTableRecord
  2
EZ_M_50_H25_CM
 70
0
 40
1.0
 41
0.125
 42
0.0625
 43
3.75
 44
0.1875
 45
0.0
 46
0.0
 47
0.0
 48
0.0
 49
2.5
140
0.125
141
2.5
142
0.0625
143
0.03937007874
144
100.0
145
0.0
146
0.5
147
0.05
148
0.0
 69
0
 70
0
 71
0
 72
0
 73
0
 74
0
 75
0
 76
0
 77
1
 78
12
 79
3
170
0
171
3
172
1
173
0
174
0
175
0
176
0
177
0
178
0
179
2
271
2
272
2
273
2
274
3
275
0
276
0
277
2
278
46
279
2
280
0
281
0
282
0
283
0
284
8
285
0
286
0
288
1
289
3
290
0
340
4C
371
-2
372
-2
  0
DIMSTYLE
105
7E
330
4
100
AcDbSymbolTableRecord
100
AcDbDimStyleTableRecord
  2
EZ_M_25_H25_CM
 70
0
 40
1.0
 41
0.0625
 42
0.03125
 43
3.75
 44
0.09375
 45
0.0
 46
0.0
 47
0.0
 48
0.0
 49
2.5
140
0.0625
141
2.5
142
0.03125
143
0.03937007874
144
100.0
145
0.0
146
0.5
147
0.025
148
0.0
 69
0
 70
0
 71
0
 72
0
 73
0
 74
0
 75
0
 76
0
 77
1
 78
12
 79
3
170
0
171
3
172
1
173
0
174
0
175
0
176
0
177
0
178
0
179
2
271
2
272
2
273
2
274
3
275
0
276
0
277
2
278
46
279
2
280
0
281
0
282
0
283
0
284
8
285
0
286
0
288
1
289
3
290
0
340
4C
371
-2
372
-2
  0
DIMSTYLE
105
7F
330
4
100
AcDbSymbolTableRecord
100
AcDbDimStyleTableRecord
  2
EZ_M_20_H25_CM
 70
0
 40
1.0
 41
0.05
 42
0.025
 43
3.75
 44
0.07500000000000001
 45
0.0
 46
0.0
 47
0.0
 48
0.0
 49
2.5
140
0.05
141
2.5
142
0.025
143
0.03937007874
144
100.0
145
0.0
146
0.5
147
0.020000000000000004
148
0.0
 69
0
 70
0
 71
0
 72
0
 73
0
 74
0
 75
0
 76
0
 77
1
 78
12
 79
3
170
0
171
3
172
1
173
0
174
0
175
0
176
0
177
0
178
0
179
2
271
2
272
2
273
2
274
3
275
0
276
0
277
2
278
46
279
2
280
0
281
0
282
0
283
0
284
8
285
0
286
0
288
1
289
3
290
0
340
4C
371
-2
372
-2
  0
DIMSTYLE
105
80
330
4
100
AcDbSymbolTableRecord
100
AcDbDimStyleTableRecord
  2
EZ_M_10_H25_CM
 70
0
 40
1.0
 41
0.025
 42
0.0125
 43
3.75
 44
0.037500000000000006
 45
0.0
 46
0.0
 47
0.0
 48
0.0
 49
2.5
140
0.025
141
2.5
142
0.0125
143
0.03937007874
144
100.0
145
0.0
146
0.5
147
0.010000000000000002
148
0.0
 69
0
 70
0
 71
0
 72
0
 73
0
 74
0
 75
0
 76
0
 77
1
 78
12
 79
3
170
0
171
3
172
1
173
0
174
0
175
0
176
0
177
0
178
0
179
2
271
2
272
2
273
2
274
3
275
0
276
0
277
2
278
46
279
2
280
0
281
0
282
0
283
0
284
8
285
0
286
0
288
1
289
3
290
0
340
4C
371
-2
372
-2
  0
DIMSTYLE
105
81
330
4
100
AcDbSymbolTableRecord
100
AcDbDimStyleTableRecord
  2
EZ_M_5_H25_CM
 70
0
 40
1.0
 41
0.0125
 42
0.00625
 43
3.75
 44
0.018750000000000003
 45
0.0
 46
0.0
 47
0.0
 48
0.0
 49
2.5
140
0.0125
141
2.5
142
0.00625
143
0.03937007874
144
100.0
145
0.0
146
0.5
147
0.005000000000000001
148
0.0
 69
0
 70
0
 71
0
 72
0
 73
0
 74
0
 75
0
 76
0
 77
1
 78
12
 79
3
170
0
171
3
172
1
173
0
174
0
175
0
176
0
177
0
178
0
179
2
271
2
272
2
273
2
274
3
275
0
276
0
277
2
278
46
279
2
280
0
281
0
282
0
283
0
284
8
285
0
286
0
288
1
289
3
290
0
340
4C
371
-2
372
-2
  0
DIMSTYLE
105
82
330
4
100
AcDbSymbolTableRecord
100
AcDbDimStyleTableRecord
  2
EZ_M_1_H25_CM
 70
0
 40
1.0
 41
0.0025
 42
0.00125
 43
3.75
 44
0.00375
 45
0.0
 46
0.0
 47
0.0
 48
0.0
 49
2.5
140
0.0025
141
2.5
142
0.00125
143
0.03937007874
144
100.0
145
0.0
146
0.5
147
0.001
148
0.0
 69
0
 70
0
 71
0
 72
0
 73
0
 74
0
 75
0
 76
0
 77
1
 78
12
 79
3
170
0
171
3
172
1
173
0
174
0
175
0
176
0
177
0
178
0
179
2
271
2
272
2
273
2
274
3
275
0
276
0
277
2
278
46
279
2
280
0
281
0
282
0
283
0
284
8
285
0
286
0
288
1
289
3
290
0
340
4C
371
-2
372
-2
  0
DIMSTYLE
105
83
330
4
100
AcDbSymbolTableRecord
100
AcDbDimStyleTableRecord
  2
EZ_RADIUS
 70
0
 40
1.0
 41
0.25
 42
0.125
 43
3.75
 44
0.375
 45
0.0
 46
0.0
 47
0.0
 48
0.0
 49
2.5
140
0.25
141
0.0
142
0.0
143
0.03937007874
144
100.0
145
0.0
146
0.5
147
0.1
148
0.0
 69
0
 70
0
 71
0
 72
0
 73
0
 74
0
 75
0
 76
0
 77
1
 78
12
 79
3
170
0
171
3
172
0
173
0
174
0
175
0
176
0
177
0
178
0
179
2
271
2
272
2
273
2
274
3
275
0
276
0
277
2
278
46
279
1
280
0
281
0
282
0
283
0
284
8
285
0
286
0
288
1
289
3
290
0
340
4C
342
84
371
-2
372
-2
  0
DIMSTYLE
105
88
330
4
100
AcDbSymbolTableRecord
100
AcDbDimStyleTableRecord
  2
EZ_RADIUS_INSIDE
 70
0
 40
1.0
 41
0.25
 42
0.125
 43
3.75
 44
0.375
 45
0.0
 46
0.0
 47
0.0
 48
0.0
 49
2.5
140
0.25
141
0.0
142
0.0
143
0.03937007874
144
100.0
145
0.0
146
0.5
147
0.1
148
0.0
 69
0
 70
0
 71
0
 72
0
 73
0
 74
0
 75
0
 76
0
 77
0
 78
12
 79
3
170
0
171
3
172
0
173
0
174
1
175
0
176
0
177
0
178
0
179
2
271
2
272
2
273
2
274
3
275
0
276
0
277
2
278
46
279
0
280
0
281
0
282
0
283
0
284
8
285
0
286
0
288
1
289
0
290
0
340
4C
342
84
371
-2
372
-2
  0
DIMSTYLE
105
89
330
4
100
AcDbSymbolTableRecord
100
AcDbDimStyleTableRecord
  2
EZ_CURVED
 70
0
 40
1.0
 41
0.25
 42
0.125
 43
3.75
 44
0.375
 45
0.0
 46
0.0
 47
0.0
 48
0.0
 49
2.5
140
0.25
141
2.5
142
0.0
143
0.03937007874
144
100.0
145
0.0
146
0.5
147
0.1
148
0.0
 69
0
 70
0
 71
0
 72
0
 73
0
 74
0
 75
0
 76
0
 77
1
 78
12
 79
2
 90
2
170
0
171
3
172
1
173
0
174
0
175
0
176
0
177
0
178
0
179
2
271
2
272
2
273
2
274
3
275
0
276
0
277
2
278
46
279
2
280
0
281
0
282
0
283
0
284
8
285
0
286
0
288
1
289
3
290
0
340
4C
371
-2
372
-2
  0
ENDTAB
  0
TABLE
  2
BLOCK_RECORD
  5
9
330
0
100
AcDbSymbolTable
 70
5
  0
BLOCK_RECORD
  5
17
330
9
100
AcDbSymbolTableRecord
100
AcDbBlockTableRecord
  2
*Model_Space
340
1A
 70
0
280
1
281
0
  0
BLOCK_RECORD
  5
1B
330
9
100
AcDbSymbolTableRecord
100
AcDbBlockTableRecord
  2
*Paper_Space
340
1E
 70
0
280
1
281
0
  0
BLOCK_RECORD
  5
74
330
9
100
AcDbSymbolTableRecord
100
AcDbBlockTableRecord
  2
_ARCHTICK
340
0
 70
0
280
1
281
0
  0
BLOCK_RECORD
  5
78
330
9
100
AcDbSymbolTableRecord
100
AcDbBlockTableRecord
  2
_CLOSEDFILLED
340
0
 70
0
280
1
281
0
  0
BLOCK_RECORD
  5
84
330
9
100
AcDbSymbolTableRecord
100
AcDbBlockTableRecord
  2
_CLOSEDBLANK
340
0
 70
0
280
1
281
0
  0
ENDTAB
  0
ENDSEC
  0
SECTION
  2
BLOCKS
  0
BLOCK
  5
18
330
17
100
AcDbEntity
  8
0
100
AcDbBlockBegin
  2
*Model_Space
 70
0
 10
0.0
 20
0.0
 30
0.0
  3
*Model_Space
  1

  0
ENDBLK
  5
19
330
17
100
AcDbEntity
  8
0
100
AcDbBlockEnd
  0
BLOCK
  5
1C
330
1B
100
AcDbEntity
  8
0
100
AcDbBlockBegin
  2
*Paper_Space
 70
0
 10
0.0
 20
0.0
 30
0.0
  3
*Paper_Space
  1

  0
ENDBLK
  5
1D
330
1B
100
AcDbEntity
  8
0
100
AcDbBlockEnd
  0
BLOCK
  5
75
330
74
100
AcDbEntity
  8
0
100
AcDbBlockBegin
  2
_ARCHTICK
 70
0
 10
0.0
 20
0.0
 30
0.0
  3
_ARCHTICK
  1

  0
LWPOLYLINE
  5
77
330
74
100
AcDbEntity
  8
0
  6
BYBLOCK
 62
0
100
AcDbPolyline
 90
2
 70
0
 43
0.15
 10
-0.5
 20
-0.5
 10
0.5
 20
0.5
  0
ENDBLK
  5
76
330
74
100
AcDbEntity
  8
0
100
AcDbBlockEnd
  0
BLOCK
  5
79
330
78
100
AcDbEntity
  8
0
100
AcDbBlockBegin
  2
_CLOSEDFILLED
 70
0
 10
0.0
 20
0.0
 30
0.0
  3
_CLOSEDFILLED
  1

  0
SOLID
  5
7B
330
78
100
AcDbEntity
  8
0
  6
BYBLOCK
 62
0
100
AcDbTrace
 10
-1.0
 20
0.16439898372402537
 30
0.0
 11
0.0
 21
0.0
 31
0.0
 12
-1.0
 22
-0.16439898372402537
 32
0.0
 13
-1.0
 23
-0.16439898372402537
 33
0.0
  0
ENDBLK
  5
7A
330
78
100
AcDbEntity
  8
0
100
AcDbBlockEnd
  0
BLOCK
  5
85
330
84
100
AcDbEntity
  8
0
100
AcDbBlockBegin
  2
_CLOSEDBLANK
 70
0
 10
0.0
 20
0.0
 30
0.0
  3
_CLOSEDBLANK
  1

  0
LWPOLYLINE
  5
87
330
84
100
AcDbEntity
  8
0
  6
BYBLOCK
 62
0
100
AcDbPolyline
 90
3
 70
1
 10
-1.0
 20
0.16439898372402537
 10
0.0
 20
0.0
 10
-1.0
 20
-0.16439898372402537
  0
ENDBLK
  5
86
330
84
100
AcDbEntity
  8
0
100
AcDbBlockEnd
  0
ENDSEC
  0
SECTION
  2
ENTITIES
  0
LWPOLYLINE
  5
A0
330
17
100
AcDbEntity
  8
00_РАМКА
100
AcDbPolyline
 90
4
 70
1
 10
0.0
 20
0.0
 10
841.0
 20
0.0
 10
841.0
 20
594.0
 10
0.0
 20
594.0
  0
LWPOLYLINE
  5
A1
330
17
100
AcDbEntity
  8
00_РАМКА
100
AcDbPolyline
 90
4
 70
1
 10
20.0
 20
5.0
 10
836.0
 20
5.0
 10
836.0
 20
589.0
 10
20.0
 20
589.0
  0
LWPOLYLINE
  5
A2
330
17
100
AcDbEntity
  8
00_РАМКА
100
AcDbPolyline
 90
4
 70
1
 10
651.0
 20
5.0
 10
836.0
 20
5.0
 10
836.0
 20
60.0
 10
651.0
 20
60.0
  0
LINE
  5
A3
330
17
100
AcDbEntity
  8
00_РАМКА
100
AcDbLine
 10
651.0
 20
17.0
 30
0.0
 11
836.0
 21
17.0
 31
0.0
  0
LINE
  5
A4
330
17
100
AcDbEntity
  8
00_РАМКА
100
AcDbLine
 10
651.0
 20
29.0
 30
0.0
 11
836.0
 21
29.0
 31
0.0
  0
LINE
  5
A5
330
17
100
AcDbEntity
  8
00_РАМКА
100
AcDbLine
 10
651.0
 20
41.0
 30
0.0
 11
836.0
 21
41.0
 31
0.0
  0
LINE
  5
A6
330
17
100
AcDbEntity
  8
00_РАМКА
100
AcDbLine
 10
771.0
 20
5.0
 30
0.0
 11
771.0
 21
41.0
 31
0.0
  0
TEXT
  5
A7
330
17
100
AcDbEntity
  8
08_ТЕКСТ
100
AcDbText
 10
654.0
 20
50.5
 30
0.0
 40
5.0
  1
Остойчивость на больших углах крена
  7
ГОСТ
 11
654.0
 21
50.5
 31
0.0
100
AcDbText
 73
2
  0
TEXT
  5
A8
330
17
100
AcDbEntity
  8
08_ТЕКСТ
100
AcDbText
 10
654.0
 20
35.0
 30
0.0
 40
2.5
  1
Волжский Горизонт · класс «О» · D = 2378 т · h = 15,51 м
  7
ГОСТ
 11
654.0
 21
35.0
 31
0.0
100
AcDbText
 73
2
  0
TEXT
  5
A9
330
17
100
AcDbEntity
  8
08_ТЕКСТ
100
AcDbText
 10
654.0
 20
23.0
 30
0.0
 40
4.5
  1
ВГ-2026 РТ-04 остойчивость
  7
ГОСТ
 11
654.0
 21
23.0
 31
0.0
100
AcDbText
 73
2
  0
TEXT
  5
AA
330
17
100
AcDbEntity
  8
08_ТЕКСТ
100
AcDbText
 10
774.0
 20
23.0
 30
0.0
 40
3.5
  1
Масштаб 1 : 1
  7
ГОСТ
 11
774.0
 21
23.0
 31
0.0
100
AcDbText
 73
2
  0
TEXT
  5
AB
330
17
100
AcDbEntity
  8
08_ТЕКСТ
100
AcDbText
 10
654.0
 20
11.0
 30
0.0
 40
2.5
  1
—
  7
ГОСТ
 11
654.0
 21
11.0
 31
0.0
100
AcDbText
 73
2
  0
TEXT
  5
AC
330
17
100
AcDbEntity
  8
08_ТЕКСТ
100
AcDbText
 10
774.0
 20
11.0
 30
0.0
 40
3.0
  1
Формат A1
  7
ГОСТ
 11
774.0
 21
11.0
 31
0.0
100
AcDbText
 73
2
  0
TEXT
  5
AD
330
17
100
AcDbEntity
  8
08_ТЕКСТ
100
AcDbText
 10
654.0
 20
64.0
 30
0.0
 40
3.0
  1
УЖЦ ОСК 2026 · «Волжский Горизонт» · ПБ «Без границ»
  7
ГОСТ
 11
654.0
 21
64.0
 31
0.0
100
AcDbText
 73
2
  0
TEXT
  5
AE
330
17
100
AcDbEntity
  8
08_ТЕКСТ
100
AcDbText
 10
654.0
 20
81.0
 30
0.0
 40
2.5
  1
1. Сплошная — корпус до высоты борта 3,00 м, штриховая — с закрытым ярусом главной палубы до 5,80 м.
  7
ГОСТ
 11
654.0
 21
81.0
 31
0.0
100
AcDbText
 73
2
  0
TEXT
  5
AF
330
17
100
AcDbEntity
  8
08_ТЕКСТ
100
AcDbText
 10
654.0
 20
76.0
 30
0.0
 40
2.5
  1
2. Пантокарены — gorizont_hydro.pantocarene по обводам с нишами; ДСО GZ = l_k − zg·sin(theta), ДДО — интеграл ДСО.
  7
ГОСТ
 11
654.0
 21
76.0
 31
0.0
100
AcDbText
 73
2
  0
TEXT
  5
B0
330
17
100
AcDbEntity
  8
08_ТЕКСТ
100
AcDbText
 10
654.0
 20
71.0
 30
0.0
 40
2.5
  1
3. Критерий погоды K = 31,7 (корпус) и 40,8 (с надстройкой) при норме не менее 1,0; амплитуда качки 19,8°; кренящий момент ветра 98 т·м.
  7
ГОСТ
 11
654.0
 21
71.0
 31
0.0
100
AcDbText
 73
2
  0
TEXT
  5
B1
330
17
100
AcDbEntity
  8
08_ТЕКСТ
100
AcDbText
 10
654.0
 20
87.5
 30
0.0
 40
3.5
  1
Технические требования
  7
ГОСТ
 11
654.0
 21
87.5
 31
0.0
100
AcDbText
 73
2
  0
TEXT
  5
B2
330
17
100
AcDbEntity
  8
08_ТЕКСТ
100
AcDbText
 10
30.0
 20
580.0
 30
0.0
 40
5.0
  1
Остойчивость на больших углах крена: пантокарены, ДСО, ДДО и нормы РРР
  7
ГОСТ
 11
30.0
 21
580.0
 31
0.0
100
AcDbText
 73
2
  0
LWPOLYLINE
  5
B3
330
17
100
AcDbEntity
  8
20_ГРАФИК
100
AcDbPolyline
 90
4
 70
1
 10
40.0
 20
300.0
 10
260.0
 20
300.0
 10
260.0
 20
520.0
 10
40.0
 20
520.0
  0
LINE
  5
B4
330
17
100
AcDbEntity
  8
21_СЕТКА
100
AcDbLine
 10
40.0
 20
300.0
 30
0.0
 11
40.0
 21
520.0
 31
0.0
  0
LINE
  5
B5
330
17
100
AcDbEntity
  8
20_ГРАФИК
100
AcDbLine
 10
40.0
 20
300.0
 30
0.0
 11
40.0
 21
298.5
 31
0.0
  0
TEXT
  5
B6
330
17
100
AcDbEntity
  8
08_ТЕКСТ
100
AcDbText
 10
40.0
 20
296.0
 30
0.0
 40
2.5
  1
0
  7
ГОСТ
 72
1
 11
40.0
 21
296.0
 31
0.0
100
AcDbText
 73
3
  0
LINE
  5
B7
330
17
100
AcDbEntity
  8
21_СЕТКА
100
AcDbLine
 10
88.88888888888889
 20
300.0
 30
0.0
 11
88.88888888888889
 21
520.0
 31
0.0
  0
LINE
  5
B8
330
17
100
AcDbEntity
  8
20_ГРАФИК
100
AcDbLine
 10
88.88888888888889
 20
300.0
 30
0.0
 11
88.88888888888889
 21
298.5
 31
0.0
  0
TEXT
  5
B9
330
17
100
AcDbEntity
  8
08_ТЕКСТ
100
AcDbText
 10
88.88888888888889
 20
296.0
 30
0.0
 40
2.5
  1
20
  7
ГОСТ
 72
1
 11
88.88888888888889
 21
296.0
 31
0.0
100
AcDbText
 73
3
  0
LINE
  5
BA
330
17
100
AcDbEntity
  8
21_СЕТКА
100
AcDbLine
 10
137.77777777777777
 20
300.0
 30
0.0
 11
137.77777777777777
 21
520.0
 31
0.0
  0
LINE
  5
BB
330
17
100
AcDbEntity
  8
20_ГРАФИК
100
AcDbLine
 10
137.77777777777777
 20
300.0
 30
0.0
 11
137.77777777777777
 21
298.5
 31
0.0
  0
TEXT
  5
BC
330
17
100
AcDbEntity
  8
08_ТЕКСТ
100
AcDbText
 10
137.77777777777777
 20
296.0
 30
0.0
 40
2.5
  1
40
  7
ГОСТ
 72
1
 11
137.77777777777777
 21
296.0
 31
0.0
100
AcDbText
 73
3
  0
LINE
  5
BD
330
17
100
AcDbEntity
  8
21_СЕТКА
100
AcDbLine
 10
186.66666666666666
 20
300.0
 30
0.0
 11
186.66666666666666
 21
520.0
 31
0.0
  0
LINE
  5
BE
330
17
100
AcDbEntity
  8
20_ГРАФИК
100
AcDbLine
 10
186.66666666666666
 20
300.0
 30
0.0
 11
186.66666666666666
 21
298.5
 31
0.0
  0
TEXT
  5
BF
330
17
100
AcDbEntity
  8
08_ТЕКСТ
100
AcDbText
 10
186.66666666666666
 20
296.0
 30
0.0
 40
2.5
  1
60
  7
ГОСТ
 72
1
 11
186.66666666666666
 21
296.0
 31
0.0
100
AcDbText
 73
3
  0
LINE
  5
C0
330
17
100
AcDbEntity
  8
21_СЕТКА
100
AcDbLine
 10
235.55555555555554
 20
300.0
 30
0.0
 11
235.55555555555554
 21
520.0
 31
0.0
  0
LINE
  5
C1
330
17
100
AcDbEntity
  8
20_ГРАФИК
100
AcDbLine
 10
235.55555555555554
 20
300.0
 30
0.0
 11
235.55555555555554
 21
298.5
 31
0.0
  0
TEXT
  5
C2
330
17
100
AcDbEntity
  8
08_ТЕКСТ
100
AcDbText
 10
235.55555555555554
 20
296.0
 30
0.0
 40
2.5
  1
80
  7
ГОСТ
 72
1
 11
235.55555555555554
 21
296.0
 31
0.0
100
AcDbText
 73
3
  0
LINE
  5
C3
330
17
100
AcDbEntity
  8
21_СЕТКА
100
AcDbLine
 10
40.0
 20
300.0
 30
0.0
 11
260.0
 21
300.0
 31
0.0
  0
LINE
  5
C4
330
17
100
AcDbEntity
  8
20_ГРАФИК
100
AcDbLine
 10
40.0
 20
300.0
 30
0.0
 11
38.5
 21
300.0
 31
0.0
  0
TEXT
  5
C5
330
17
100
AcDbEntity
  8
08_ТЕКСТ
100
AcDbText
 10
37.5
 20
300.0
 30
0.0
 40
2.5
  1
0
  7
ГОСТ
 72
2
 11
37.5
 21
300.0
 31
0.0
100
AcDbText
 73
2
  0
LINE
  5
C6
330
17
100
AcDbEntity
  8
21_СЕТКА
100
AcDbLine
 10
40.0
 20
342.1300994722345
 30
0.0
 11
260.0
 21
342.1300994722345
 31
0.0
  0
LINE
  5
C7
330
17
100
AcDbEntity
  8
20_ГРАФИК
100
AcDbLine
 10
40.0
 20
342.1300994722345
 30
0.0
 11
38.5
 21
342.1300994722345
 31
0.0
  0
TEXT
  5
C8
330
17
100
AcDbEntity
  8
08_ТЕКСТ
100
AcDbText
 10
37.5
 20
342.1300994722345
 30
0.0
 40
2.5
  1
1
  7
ГОСТ
 72
2
 11
37.5
 21
342.1300994722345
 31
0.0
100
AcDbText
 73
2
  0
LINE
  5
C9
330
17
100
AcDbEntity
  8
21_СЕТКА
100
AcDbLine
 10
40.0
 20
384.26019894446904
 30
0.0
 11
260.0
 21
384.26019894446904
 31
0.0
  0
LINE
  5
CA
330
17
100
AcDbEntity
  8
20_ГРАФИК
100
AcDbLine
 10
40.0
 20
384.26019894446904
 30
0.0
 11
38.5
 21
384.26019894446904
 31
0.0
  0
TEXT
  5
CB
330
17
100
AcDbEntity
  8
08_ТЕКСТ
100
AcDbText
 10
37.5
 20
384.26019894446904
 30
0.0
 40
2.5
  1
2
  7
ГОСТ
 72
2
 11
37.5
 21
384.26019894446904
 31
0.0
100
AcDbText
 73
2
  0
LINE
  5
CC
330
17
100
AcDbEntity
  8
21_СЕТКА
100
AcDbLine
 10
40.0
 20
426.39029841670356
 30
0.0
 11
260.0
 21
426.39029841670356
 31
0.0
  0
LINE
  5
CD
330
17
100
AcDbEntity
  8
20_ГРАФИК
100
AcDbLine
 10
40.0
 20
426.39029841670356
 30
0.0
 11
38.5
 21
426.39029841670356
 31
0.0
  0
TEXT
  5
CE
330
17
100
AcDbEntity
  8
08_ТЕКСТ
100
AcDbText
 10
37.5
 20
426.39029841670356
 30
0.0
 40
2.5
  1
3
  7
ГОСТ
 72
2
 11
37.5
 21
426.39029841670356
 31
0.0
100
AcDbText
 73
2
  0
LINE
  5
CF
330
17
100
AcDbEntity
  8
21_СЕТКА
100
AcDbLine
 10
40.0
 20
468.5203978889381
 30
0.0
 11
260.0
 21
468.5203978889381
 31
0.0
  0
LINE
  5
D0
330
17
100
AcDbEntity
  8
20_ГРАФИК
100
AcDbLine
 10
40.0
 20
468.5203978889381
 30
0.0
 11
38.5
 21
468.5203978889381
 31
0.0
  0
TEXT
  5
D1
330
17
100
AcDbEntity
  8
08_ТЕКСТ
100
AcDbText
 10
37.5
 20
468.5203978889381
 30
0.0
 40
2.5
  1
4
  7
ГОСТ
 72
2
 11
37.5
 21
468.5203978889381
 31
0.0
100
AcDbText
 73
2
  0
LINE
  5
D2
330
17
100
AcDbEntity
  8
21_СЕТКА
100
AcDbLine
 10
40.0
 20
510.6504973611726
 30
0.0
 11
260.0
 21
510.6504973611726
 31
0.0
  0
LINE
  5
D3
330
17
100
AcDbEntity
  8
20_ГРАФИК
100
AcDbLine
 10
40.0
 20
510.6504973611726
 30
0.0
 11
38.5
 21
510.6504973611726
 31
0.0
  0
TEXT
  5
D4
330
17
100
AcDbEntity
  8
08_ТЕКСТ
100
AcDbText
 10
37.5
 20
510.6504973611726
 30
0.0
 40
2.5
  1
5
  7
ГОСТ
 72
2
 11
37.5
 21
510.6504973611726
 31
0.0
100
AcDbText
 73
2
  0
LINE
  5
D5
330
17
100
AcDbEntity
  8
20_ГРАФИК
100
AcDbLine
 10
40.0
 20
300.0
 30
0.0
 11
260.0
 21
300.0
 31
0.0
  0
TEXT
  5
D6
330
17
100
AcDbEntity
  8
08_ТЕКСТ
100
AcDbText
 10
150.0
 20
290.5
 30
0.0
 40
2.8
  1
угол крена, град
  7
ГОСТ
 72
1
 11
150.0
 21
290.5
 31
0.0
100
AcDbText
 73
3
  0
TEXT
  5
D7
330
17
100
AcDbEntity
  8
08_ТЕКСТ
100
AcDbText
 10
26.0
 20
410.0
 30
0.0
 40
2.8
  1
l_k, м
 50
90.0
  7
ГОСТ
 72
1
 11
26.0
 21
410.0
 31
0.0
100
AcDbText
 73
2
  0
TEXT
  5
D8
330
17
100
AcDbEntity
  8
08_ТЕКСТ
100
AcDbText
 10
40.0
 20
523.0
 30
0.0
 40
3.5
  1
Пантокарены l_k
  7
ГОСТ
 11
40.0
 21
523.0
 31
0.0
100
AcDbText
 73
1
  0
LWPOLYLINE
  5
D9
330
17
100
AcDbEntity
  8
22_КРИВАЯ_А
  6
CONTINUOUS
100
AcDbPolyline
 90
19
 70
0
 10
40.0
 20
300.0
 10
52.22222222222222
 20
366.954889266857
 10
64.44444444444444
 20
430.1462017381716
 10
76.66666666666666
 20
469.5600708807408
 10
88.88888888888889
 20
485.27969528633616
 10
101.11111111111111
 20
491.33763409620155
 10
113.33333333333333
 20
492.5568045078691
 10
125.55555555555556
 20
490.6583164377714
 10
137.77777777777777
 20
486.4144599969842
 10
150.0
 20
480.2244717070024
 10
162.22222222222223
 20
472.3318896890306
 10
174.44444444444446
 20
462.90958013616716
 10
186.66666666666666
 20
452.0988319934128
 10
198.88888888888889
 20
440.0273947298491
 10
211.11111111111111
 20
426.8171608419156
 10
223.33333333333334
 20
412.5906250737116
 10
235.55555555555554
 20
397.4729376053352
 10
247.77777777777777
 20
381.5927309968145
 10
260.0
 20
365.0812182746805
  0
LWPOLYLINE
  5
DA
330
17
100
AcDbEntity
  8
22_КРИВАЯ_А
  6
DASHED
100
AcDbPolyline
 90
19
 70
0
 10
40.0
 20
300.0
 10
52.22222222222222
 20
366.954889266857
 10
64.44444444444444
 20
430.1462017381716
 10
76.66666666666666
 20
469.6155738333041
 10
88.88888888888889
 20
489.6903460775308
 10
101.11111111111111
 20
502.7265862896005
 10
113.33333333333333
 20
511.29120920675024
 10
125.55555555555556
 20
516.6015307580369
 10
137.77777777777777
 20
519.3768507768964
 10
150.0
 20
520.0
 10
162.22222222222223
 20
517.4996020030612
 10
174.44444444444446
 20
511.92940141449265
 10
186.66666666666666
 20
503.75479128369705
 10
198.88888888888889
 20
493.3287258573841
 10
211.11111111111111
 20
480.93501968947004
 10
223.33333333333334
 20
466.81473591246635
 10
235.55555555555554
 20
451.19493155722853
 10
247.77777777777777
 20
434.2882224790492
 10
260.0
 20
416.3042134611979
  0
LINE
  5
DB
330
17
100
AcDbEntity
  8
22_КРИВАЯ_А
  6
CONTINUOUS
100
AcDbLine
 10
43.0
 20
516.0
 30
0.0
 11
51.0
 21
516.0
 31
0.0
  0
TEXT
  5
DC
330
17
100
AcDbEntity
  8
08_ТЕКСТ
100
AcDbText
 10
53.0
 20
516.0
 30
0.0
 40
2.5
  1
корпус
  7
ГОСТ
 11
53.0
 21
516.0
 31
0.0
100
AcDbText
 73
2
  0
LINE
  5
DD
330
17
100
AcDbEntity
  8
22_КРИВАЯ_А
  6
DASHED
100
AcDbLine
 10
43.0
 20
511.5
 30
0.0
 11
51.0
 21
511.5
 31
0.0
  0
TEXT
  5
DE
330
17
100
AcDbEntity
  8
08_ТЕКСТ
100
AcDbText
 10
53.0
 20
511.5
 30
0.0
 40
2.5
  1
с надстройкой
  7
ГОСТ
 11
53.0
 21
511.5
 31
0.0
100
AcDbText
 73
2
  0
LWPOLYLINE
  5
DF
330
17
100
AcDbEntity
  8
20_ГРАФИК
100
AcDbPolyline
 90
4
 70
1
 10
295.0
 20
300.0
 10
515.0
 20
300.0
 10
515.0
 20
520.0
 10
295.0
 20
520.0
  0
LINE
  5
E0
330
17
100
AcDbEntity
  8
21_СЕТКА
100
AcDbLine
 10
295.0
 20
300.0
 30
0.0
 11
295.0
 21
520.0
 31
0.0
  0
LINE
  5
E1
330
17
100
AcDbEntity
  8
20_ГРАФИК
100
AcDbLine
 10
295.0
 20
300.0
 30
0.0
 11
295.0
 21
298.5
 31
0.0
  0
TEXT
  5
E2
330
17
100
AcDbEntity
  8
08_ТЕКСТ
100
AcDbText
 10
295.0
 20
296.0
 30
0.0
 40
2.5
  1
0
  7
ГОСТ
 72
1
 11
295.0
 21
296.0
 31
0.0
100
AcDbText
 73
3
  0
LINE
  5
E3
330
17
100
AcDbEntity
  8
21_СЕТКА
100
AcDbLine
 10
343.8888888888889
 20
300.0
 30
0.0
 11
343.8888888888889
 21
520.0
 31
0.0
  0
LINE
  5
E4
330
17
100
AcDbEntity
  8
20_ГРАФИК
100
AcDbLine
 10
343.8888888888889
 20
300.0
 30
0.0
 11
343.8888888888889
 21
298.5
 31
0.0
  0
TEXT
  5
E5
330
17
100
AcDbEntity
  8
08_ТЕКСТ
100
AcDbText
 10
343.8888888888889
 20
296.0
 30
0.0
 40
2.5
  1
20
  7
ГОСТ
 72
1
 11
343.8888888888889
 21
296.0
 31
0.0
100
AcDbText
 73
3
  0
LINE
  5
E6
330
17
100
AcDbEntity
  8
21_СЕТКА
100
AcDbLine
 10
392.77777777777777
 20
300.0
 30
0.0
 11
392.77777777777777
 21
520.0
 31
0.0
  0
LINE
  5
E7
330
17
100
AcDbEntity
  8
20_ГРАФИК
100
AcDbLine
 10
392.77777777777777
 20
300.0
 30
0.0
 11
392.77777777777777
 21
298.5
 31
0.0
  0
TEXT
  5
E8
330
17
100
AcDbEntity
  8
08_ТЕКСТ
100
AcDbText
 10
392.77777777777777
 20
296.0
 30
0.0
 40
2.5
  1
40
  7
ГОСТ
 72
1
 11
392.77777777777777
 21
296.0
 31
0.0
100
AcDbText
 73
3
  0
LINE
  5
E9
330
17
100
AcDbEntity
  8
21_СЕТКА
100
AcDbLine
 10
441.66666666666663
 20
300.0
 30
0.0
 11
441.66666666666663
 21
520.0
 31
0.0
  0
LINE
  5
EA
330
17
100
AcDbEntity
  8
20_ГРАФИК
100
AcDbLine
 10
441.66666666666663
 20
300.0
 30
0.0
 11
441.66666666666663
 21
298.5
 31
0.0
  0
TEXT
  5
EB
330
17
100
AcDbEntity
  8
08_ТЕКСТ
100
AcDbText
 10
441.66666666666663
 20
296.0
 30
0.0
 40
2.5
  1
60
  7
ГОСТ
 72
1
 11
441.66666666666663
 21
296.0
 31
0.0
100
AcDbText
 73
3
  0
LINE
  5
EC
330
17
100
AcDbEntity
  8
21_СЕТКА
100
AcDbLine
 10
490.55555555555554
 20
300.0
 30
0.0
 11
490.55555555555554
 21
520.0
 31
0.0
  0
LINE
  5
ED
330
17
100
AcDbEntity
  8
20_ГРАФИК
100
AcDbLine
 10
490.55555555555554
 20
300.0
 30
0.0
 11
490.55555555555554
 21
298.5
 31
0.0
  0
TEXT
  5
EE
330
17
100
AcDbEntity
  8
08_ТЕКСТ
100
AcDbText
 10
490.55555555555554
 20
296.0
 30
0.0
 40
2.5
  1
80
  7
ГОСТ
 72
1
 11
490.55555555555554
 21
296.0
 31
0.0
100
AcDbText
 73
3
  0
LINE
  5
EF
330
17
100
AcDbEntity
  8
21_СЕТКА
100
AcDbLine
 10
295.0
 20
315.4707095928471
 30
0.0
 11
515.0
 21
315.4707095928471
 31
0.0
  0
LINE
  5
F0
330
17
100
AcDbEntity
  8
20_ГРАФИК
100
AcDbLine
 10
295.0
 20
315.4707095928471
 30
0.0
 11
293.5
 21
315.4707095928471
 31
0.0
  0
TEXT
  5
F1
330
17
100
AcDbEntity
  8
08_ТЕКСТ
100
AcDbText
 10
292.5
 20
315.4707095928471
 30
0.0
 40
2.5
  1
0
  7
ГОСТ
 72
2
 11
292.5
 21
315.4707095928471
 31
0.0
100
AcDbText
 73
2
  0
LINE
  5
F2
330
17
100
AcDbEntity
  8
21_СЕТКА
100
AcDbLine
 10
295.0
 20
348.4370538584802
 30
0.0
 11
515.0
 21
348.4370538584802
 31
0.0
  0
LINE
  5
F3
330
17
100
AcDbEntity
  8
20_ГРАФИК
100
AcDbLine
 10
295.0
 20
348.4370538584802
 30
0.0
 11
293.5
 21
348.4370538584802
 31
0.0
  0
TEXT
  5
F4
330
17
100
AcDbEntity
  8
08_ТЕКСТ
100
AcDbText
 10
292.5
 20
348.4370538584802
 30
0.0
 40
2.5
  1
2,5
  7
ГОСТ
 72
2
 11
292.5
 21
348.4370538584802
 31
0.0
100
AcDbText
 73
2
  0
LINE
  5
F5
330
17
100
AcDbEntity
  8
21_СЕТКА
100
AcDbLine
 10
295.0
 20
381.4033981241134
 30
0.0
 11
515.0
 21
381.4033981241134
 31
0.0
  0
LINE
  5
F6
330
17
100
AcDbEntity
  8
20_ГРАФИК
100
AcDbLine
 10
295.0
 20
381.4033981241134
 30
0.0
 11
293.5
 21
381.4033981241134
 31
0.0
  0
TEXT
  5
F7
330
17
100
AcDbEntity
  8
08_ТЕКСТ
100
AcDbText
 10
292.5
 20
381.4033981241134
 30
0.0
 40
2.5
  1
5
  7
ГОСТ
 72
2
 11
292.5
 21
381.4033981241134
 31
0.0
100
AcDbText
 73
2
  0
LINE
  5
F8
330
17
100
AcDbEntity
  8
21_СЕТКА
100
AcDbLine
 10
295.0
 20
414.36974238974653
 30
0.0
 11
515.0
 21
414.36974238974653
 31
0.0
  0
LINE
  5
F9
330
17
100
AcDbEntity
  8
20_ГРАФИК
100
AcDbLine
 10
295.0
 20
414.36974238974653
 30
0.0
 11
293.5
 21
414.36974238974653
 31
0.0
  0
TEXT
  5
FA
330
17
100
AcDbEntity
  8
08_ТЕКСТ
100
AcDbText
 10
292.5
 20
414.36974238974653
 30
0.0
 40
2.5
  1
7,5
  7
ГОСТ
 72
2
 11
292.5
 21
414.36974238974653
 31
0.0
100
AcDbText
 73
2
  0
LINE
  5
FB
330
17
100
AcDbEntity
  8
21_СЕТКА
100
AcDbLine
 10
295.0
 20
447.33608665537963
 30
0.0
 11
515.0
 21
447.33608665537963
 31
0.0
  0
LINE
  5
FC
330
17
100
AcDbEntity
  8
20_ГРАФИК
100
AcDbLine
 10
295.0
 20
447.33608665537963
 30
0.0
 11
293.5
 21
447.33608665537963
 31
0.0
  0
TEXT
  5
FD
330
17
100
AcDbEntity
  8
08_ТЕКСТ
100
AcDbText
 10
292.5
 20
447.33608665537963
 30
0.0
 40
2.5
  1
10
  7
ГОСТ
 72
2
 11
292.5
 21
447.33608665537963
 31
0.0
100
AcDbText
 73
2
  0
LINE
  5
FE
330
17
100
AcDbEntity
  8
21_СЕТКА
100
AcDbLine
 10
295.0
 20
480.3024309210128
 30
0.0
 11
515.0
 21
480.3024309210128
 31
0.0
  0
LINE
  5
FF
330
17
100
AcDbEntity
  8
20_ГРАФИК
100
AcDbLine
 10
295.0
 20
480.3024309210128
 30
0.0
 11
293.5
 21
480.3024309210128
 31
0.0
  0
TEXT
  5
100
330
17
100
AcDbEntity
  8
08_ТЕКСТ
100
AcDbText
 10
292.5
 20
480.3024309210128
 30
0.0
 40
2.5
  1
12,5
  7
ГОСТ
 72
2
 11
292.5
 21
480.3024309210128
 31
0.0
100
AcDbText
 73
2
  0
LINE
  5
101
330
17
100
AcDbEntity
  8
21_СЕТКА
100
AcDbLine
 10
295.0
 20
513.2687751866459
 30
0.0
 11
515.0
 21
513.2687751866459
 31
0.0
  0
LINE
  5
102
330
17
100
AcDbEntity
  8
20_ГРАФИК
100
AcDbLine
 10
295.0
 20
513.2687751866459
 30
0.0
 11
293.5
 21
513.2687751866459
 31
0.0
  0
TEXT
  5
103
330
17
100
AcDbEntity
  8
08_ТЕКСТ
100
AcDbText
 10
292.5
 20
513.2687751866459
 30
0.0
 40
2.5
  1
15
  7
ГОСТ
 72
2
 11
292.5
 21
513.2687751866459
 31
0.0
100
AcDbText
 73
2
  0
LINE
  5
104
330
17
100
AcDbEntity
  8
20_ГРАФИК
100
AcDbLine
 10
295.0
 20
315.4707095928471
 30
0.0
 11
515.0
 21
315.4707095928471
 31
0.0
  0
TEXT
  5
105
330
17
100
AcDbEntity
  8
08_ТЕКСТ
100
AcDbText
 10
405.0
 20
290.5
 30
0.0
 40
2.8
  1
угол крена, град
  7
ГОСТ
 72
1
 11
405.0
 21
290.5
 31
0.0
100
AcDbText
 73
3
  0
TEXT
  5
106
330
17
100
AcDbEntity
  8
08_ТЕКСТ
100
AcDbText
 10
281.0
 20
410.0
 30
0.0
 40
2.8
  1
GZ, м
 50
90.0
  7
ГОСТ
 72
1
 11
281.0
 21
410.0
 31
0.0
100
AcDbText
 73
2
  0
TEXT
  5
107
330
17
100
AcDbEntity
  8
08_ТЕКСТ
100
AcDbText
 10
295.0
 20
523.0
 30
0.0
 40
3.5
  1
ДСО — плечи статической остойчивости
  7
ГОСТ
 11
295.0
 21
523.0
 31
0.0
100
AcDbText
 73
1
  0
LWPOLYLINE
  5
108
330
17
100
AcDbEntity
  8
23_КРИВАЯ_Б
  6
CONTINUOUS
100
AcDbPolyline
 90
19
 70
0
 10
295.0
 20
315.4707095928471
 10
307.22222222222223
 20
333.30356273150727
 10
319.44444444444446
 20
349.98220623401073
 10
331.6666666666667
 20
359.2659795969976
 10
343.8888888888889
 20
361.204155716805
 10
356.1111111111111
 20
360.2115593132757
 10
368.3333333333333
 20
357.81972725928193
 10
380.55555555555554
 20
354.5884669199513
 10
392.77777777777777
 20
350.77957121829286
 10
405.0
 20
346.5368782130628
 10
417.22222222222223
 20
341.95415864787174
 10
429.44444444444446
 20
337.10159534352056
 10
441.66666666666663
 20
332.0378973111006
 10
453.8888888888889
 20
326.81583524752557
 10
466.1111111111111
 20
321.48454881894514
 10
478.33333333333337
 20
316.0914847444382
 10
490.55555555555554
 20
310.68297012984044
 10
502.77777777777777
 20
305.30441683881975
 10
515.0
 20
300.0
  0
LWPOLYLINE
  5
109
330
17
100
AcDbEntity
  8
23_КРИВАЯ_Б
  6
DASHED
100
AcDbPolyline
 90
19
 70
0
 10
295.0
 20
315.4707095928471
 10
307.22222222222223
 20
333.30356273150727
 10
319.44444444444446
 20
349.98220623401073
 10
331.6666666666667
 20
359.2833517794978
 10
343.8888888888889
 20
362.5846702110927
 10
356.1111111111111
 20
363.77625176390586
 10
368.3333333333333
 20
363.6835143630559
 10
380.55555555555554
 20
362.7085800490706
 10
392.77777777777777
 20
361.0966560187697
 10
405.0
 20
358.9864453916882
 10
417.22222222222223
 20
356.091455948266
 10
429.44444444444446
 20
352.4445859781959
 10
441.66666666666663
 20
348.20598766614313
 10
453.8888888888889
 20
343.4989198239089
 10
466.1111111111111
 20
338.4232030166471
 10
478.33333333333337
 20
333.0633953527796
 10
490.55555555555554
 20
327.49772033874086
 10
502.77777777777777
 20
321.7978762439651
 10
515.0
 20
316.0325744756286
  0
LWPOLYLINE
  5
10A
330
17
100
AcDbEntity
  8
25_КРИВАЯ_Г
  6
DOT
100
AcDbPolyline
 90
2
 70
0
 10
295.0
 20
315.4707095928471
 10
435.06666666666666
 20
520.0
  0
LINE
  5
10B
330
17
100
AcDbEntity
  8
23_КРИВАЯ_Б
  6
CONTINUOUS
100
AcDbLine
 10
298.0
 20
516.0
 30
0.0
 11
306.0
 21
516.0
 31
0.0
  0
TEXT
  5
10C
330
17
100
AcDbEntity
  8
08_ТЕКСТ
100
AcDbText
 10
308.0
 20
516.0
 30
0.0
 40
2.5
  1
корпус
  7
ГОСТ
 11
308.0
 21
516.0
 31
0.0
100
AcDbText
 73
2
  0
LINE
  5
10D
330
17
100
AcDbEntity
  8
23_КРИВАЯ_Б
  6
DASHED
100
AcDbLine
 10
298.0
 20
511.5
 30
0.0
 11
306.0
 21
511.5
 31
0.0
  0
TEXT
  5
10E
330
17
100
AcDbEntity
  8
08_ТЕКСТ
100
AcDbText
 10
308.0
 20
511.5
 30
0.0
 40
2.5
  1
с надстройкой
  7
ГОСТ
 11
308.0
 21
511.5
 31
0.0
100
AcDbText
 73
2
  0
LINE
  5
10F
330
17
100
AcDbEntity
  8
25_КРИВАЯ_Г
  6
DOT
100
AcDbLine
 10
298.0
 20
507.0
 30
0.0
 11
306.0
 21
507.0
 31
0.0
  0
TEXT
  5
110
330
17
100
AcDbEntity
  8
08_ТЕКСТ
100
AcDbText
 10
308.0
 20
507.0
 30
0.0
 40
2.5
  1
h = 15,51 м (касательная)
  7
ГОСТ
 11
308.0
 21
507.0
 31
0.0
100
AcDbText
 73
2
  0
LWPOLYLINE
  5
111
330
17
100
AcDbEntity
  8
20_ГРАФИК
100
AcDbPolyline
 90
4
 70
1
 10
550.0
 20
300.0
 10
770.0
 20
300.0
 10
770.0
 20
520.0
 10
550.0
 20
520.0
  0
LINE
  5
112
330
17
100
AcDbEntity
  8
21_СЕТКА
100
AcDbLine
 10
550.0
 20
300.0
 30
0.0
 11
550.0
 21
520.0
 31
0.0
  0
LINE
  5
113
330
17
100
AcDbEntity
  8
20_ГРАФИК
100
AcDbLine
 10
550.0
 20
300.0
 30
0.0
 11
550.0
 21
298.5
 31
0.0
  0
TEXT
  5
114
330
17
100
AcDbEntity
  8
08_ТЕКСТ
100
AcDbText
 10
550.0
 20
296.0
 30
0.0
 40
2.5
  1
0
  7
ГОСТ
 72
1
 11
550.0
 21
296.0
 31
0.0
100
AcDbText
 73
3
  0
LINE
  5
115
330
17
100
AcDbEntity
  8
21_СЕТКА
100
AcDbLine
 10
598.8888888888889
 20
300.0
 30
0.0
 11
598.8888888888889
 21
520.0
 31
0.0
  0
LINE
  5
116
330
17
100
AcDbEntity
  8
20_ГРАФИК
100
AcDbLine
 10
598.8888888888889
 20
300.0
 30
0.0
 11
598.8888888888889
 21
298.5
 31
0.0
  0
TEXT
  5
117
330
17
100
AcDbEntity
  8
08_ТЕКСТ
100
AcDbText
 10
598.8888888888889
 20
296.0
 30
0.0
 40
2.5
  1
20
  7
ГОСТ
 72
1
 11
598.8888888888889
 21
296.0
 31
0.0
100
AcDbText
 73
3
  0
LINE
  5
118
330
17
100
AcDbEntity
  8
21_СЕТКА
100
AcDbLine
 10
647.7777777777778
 20
300.0
 30
0.0
 11
647.7777777777778
 21
520.0
 31
0.0
  0
LINE
  5
119
330
17
100
AcDbEntity
  8
20_ГРАФИК
100
AcDbLine
 10
647.7777777777778
 20
300.0
 30
0.0
 11
647.7777777777778
 21
298.5
 31
0.0
  0
TEXT
  5
11A
330
17
100
AcDbEntity
  8
08_ТЕКСТ
100
AcDbText
 10
647.7777777777778
 20
296.0
 30
0.0
 40
2.5
  1
40
  7
ГОСТ
 72
1
 11
647.7777777777778
 21
296.0
 31
0.0
100
AcDbText
 73
3
  0
LINE
  5
11B
330
17
100
AcDbEntity
  8
21_СЕТКА
100
AcDbLine
 10
696.6666666666666
 20
300.0
 30
0.0
 11
696.6666666666666
 21
520.0
 31
0.0
  0
LINE
  5
11C
330
17
100
AcDbEntity
  8
20_ГРАФИК
100
AcDbLine
 10
696.6666666666666
 20
300.0
 30
0.0
 11
696.6666666666666
 21
298.5
 31
0.0
  0
TEXT
  5
11D
330
17
100
AcDbEntity
  8
08_ТЕКСТ
100
AcDbText
 10
696.6666666666666
 20
296.0
 30
0.0
 40
2.5
  1
60
  7
ГОСТ
 72
1
 11
696.6666666666666
 21
296.0
 31
0.0
100
AcDbText
 73
3
  0
LINE
  5
11E
330
17
100
AcDbEntity
  8
21_СЕТКА
100
AcDbLine
 10
745.5555555555555
 20
300.0
 30
0.0
 11
745.5555555555555
 21
520.0
 31
0.0
  0
LINE
  5
11F
330
17
100
AcDbEntity
  8
20_ГРАФИК
100
AcDbLine
 10
745.5555555555555
 20
300.0
 30
0.0
 11
745.5555555555555
 21
298.5
 31
0.0
  0
TEXT
  5
120
330
17
100
AcDbEntity
  8
08_ТЕКСТ
100
AcDbText
 10
745.5555555555555
 20
296.0
 30
0.0
 40
2.5
  1
80
  7
ГОСТ
 72
1
 11
745.5555555555555
 21
296.0
 31
0.0
100
AcDbText
 73
3
  0
LINE
  5
121
330
17
100
AcDbEntity
  8
21_СЕТКА
100
AcDbLine
 10
550.0
 20
300.0
 30
0.0
 11
770.0
 21
300.0
 31
0.0
  0
LINE
  5
122
330
17
100
AcDbEntity
  8
20_ГРАФИК
100
AcDbLine
 10
550.0
 20
300.0
 30
0.0
 11
548.5
 21
300.0
 31
0.0
  0
TEXT
  5
123
330
17
100
AcDbEntity
  8
08_ТЕКСТ
100
AcDbText
 10
547.5
 20
300.0
 30
0.0
 40
2.5
  1
0
  7
ГОСТ
 72
2
 11
547.5
 21
300.0
 31
0.0
100
AcDbText
 73
2
  0
LINE
  5
124
330
17
100
AcDbEntity
  8
21_СЕТКА
100
AcDbLine
 10
550.0
 20
357.94497101856484
 30
0.0
 11
770.0
 21
357.94497101856484
 31
0.0
  0
LINE
  5
125
330
17
100
AcDbEntity
  8
20_ГРАФИК
100
AcDbLine
 10
550.0
 20
357.94497101856484
 30
0.0
 11
548.5
 21
357.94497101856484
 31
0.0
  0
TEXT
  5
126
330
17
100
AcDbEntity
  8
08_ТЕКСТ
100
AcDbText
 10
547.5
 20
357.94497101856484
 30
0.0
 40
2.5
  1
1
  7
ГОСТ
 72
2
 11
547.5
 21
357.94497101856484
 31
0.0
100
AcDbText
 73
2
  0
LINE
  5
127
330
17
100
AcDbEntity
  8
21_СЕТКА
100
AcDbLine
 10
550.0
 20
415.88994203712963
 30
0.0
 11
770.0
 21
415.88994203712963
 31
0.0
  0
LINE
  5
128
330
17
100
AcDbEntity
  8
20_ГРАФИК
100
AcDbLine
 10
550.0
 20
415.88994203712963
 30
0.0
 11
548.5
 21
415.88994203712963
 31
0.0
  0
TEXT
  5
129
330
17
100
AcDbEntity
  8
08_ТЕКСТ
100
AcDbText
 10
547.5
 20
415.88994203712963
 30
0.0
 40
2.5
  1
2
  7
ГОСТ
 72
2
 11
547.5
 21
415.88994203712963
 31
0.0
100
AcDbText
 73
2
  0
LINE
  5
12A
330
17
100
AcDbEntity
  8
21_СЕТКА
100
AcDbLine
 10
550.0
 20
473.83491305569447
 30
0.0
 11
770.0
 21
473.83491305569447
 31
0.0
  0
LINE
  5
12B
330
17
100
AcDbEntity
  8
20_ГРАФИК
100
AcDbLine
 10
550.0
 20
473.83491305569447
 30
0.0
 11
548.5
 21
473.83491305569447
 31
0.0
  0
TEXT
  5
12C
330
17
100
AcDbEntity
  8
08_ТЕКСТ
100
AcDbText
 10
547.5
 20
473.83491305569447
 30
0.0
 40
2.5
  1
3
  7
ГОСТ
 72
2
 11
547.5
 21
473.83491305569447
 31
0.0
100
AcDbText
 73
2
  0
TEXT
  5
12D
330
17
100
AcDbEntity
  8
08_ТЕКСТ
100
AcDbText
 10
660.0
 20
290.5
 30
0.0
 40
2.8
  1
угол крена, град
  7
ГОСТ
 72
1
 11
660.0
 21
290.5
 31
0.0
100
AcDbText
 73
3
  0
TEXT
  5
12E
330
17
100
AcDbEntity
  8
08_ТЕКСТ
100
AcDbText
 10
536.0
 20
410.0
 30
0.0
 40
2.8
  1
l_d, м·рад
 50
90.0
  7
ГОСТ
 72
1
 11
536.0
 21
410.0
 31
0.0
100
AcDbText
 73
2
  0
TEXT
  5
12F
330
17
100
AcDbEntity
  8
08_ТЕКСТ
100
AcDbText
 10
550.0
 20
523.0
 30
0.0
 40
3.5
  1
ДДО — работа восстанавливающего момента
  7
ГОСТ
 11
550.0
 21
523.0
 31
0.0
100
AcDbText
 73
1
  0
LWPOLYLINE
  5
130
330
17
100
AcDbEntity
  8
24_КРИВАЯ_В
  6
CONTINUOUS
100
AcDbPolyline
 90
19
 70
0
 10
550.0
 20
300.0
 10
562.2222222222222
 20
303.4191895561309
 10
574.4444444444445
 20
313.4554553571222
 10
586.6666666666666
 20
328.4696360160537
 10
598.8888888888889
 20
345.63546185327783
 10
611.1111111111111
 20
362.9825888129442
 10
623.3333333333334
 20
379.6808009665806
 10
635.5555555555555
 20
395.3008671480095
 10
647.7777777777778
 20
409.5710860659797
 10
660.0
 20
422.2975302552066
 10
672.2222222222222
 20
433.3318302735205
 10
684.4444444444445
 20
442.55705238400714
 10
696.6666666666666
 20
449.8809759790561
 10
708.8888888888889
 20
455.23275505950403
 10
721.1111111111111
 20
458.56108345227926
 10
733.3333333333334
 20
459.83317401528467
 10
745.5555555555555
 20
459.03421936996915
 10
757.7777777777778
 20
456.1670017474744
 10
770.0
 20
451.2514803783839
  0
LWPOLYLINE
  5
131
330
17
100
AcDbEntity
  8
24_КРИВАЯ_В
  6
DASHED
100
AcDbPolyline
 90
19
 70
0
 10
550.0
 20
300.0
 10
562.2222222222222
 20
303.4191895561309
 10
574.4444444444445
 20
313.4554553571222
 10
586.6666666666666
 20
328.4729668787323
 10
598.8888888888889
 20
345.9068171026748
 10
611.1111111111111
 20
364.20211538453486
 10
623.3333333333334
 20
382.7081010095247
 10
635.5555555555555
 20
401.0093761516571
 10
647.7777777777778
 20
418.8146589270493
 10
660.0
 20
435.90627665691704
 10
672.2222222222222
 20
452.0382202575614
 10
684.4444444444445
 20
466.9158577070606
 10
696.6666666666666
 20
480.2815715969481
 10
708.8888888888889
 20
491.9320844447173
 10
721.1111111111111
 20
501.7068909855177
 10
733.3333333333334
 20
509.4808378766033
 10
745.5555555555555
 20
515.1599827762453
 10
757.7777777777778
 20
518.6791286571245
 10
770.0
 20
520.0
  0
LINE
  5
132
330
17
100
AcDbEntity
  8
24_КРИВАЯ_В
  6
CONTINUOUS
100
AcDbLine
 10
553.0
 20
516.0
 30
0.0
 11
561.0
 21
516.0
 31
0.0
  0
TEXT
  5
133
330
17
100
AcDbEntity
  8
08_ТЕКСТ
100
AcDbText
 10
563.0
 20
516.0
 30
0.0
 40
2.5
  1
корпус
  7
ГОСТ
 11
563.0
 21
516.0
 31
0.0
100
AcDbText
 73
2
  0
LINE
  5
134
330
17
100
AcDbEntity
  8
24_КРИВАЯ_В
  6
DASHED
100
AcDbLine
 10
553.0
 20
511.5
 30
0.0
 11
561.0
 21
511.5
 31
0.0
  0
TEXT
  5
135
330
17
100
AcDbEntity
  8
08_ТЕКСТ
100
AcDbText
 10
563.0
 20
511.5
 30
0.0
 40
2.5
  1
с надстройкой
  7
ГОСТ
 11
563.0
 21
511.5
 31
0.0
100
AcDbText
 73
2
  0
TEXT
  5
136
330
17
100
AcDbEntity
  8
08_ТЕКСТ
100
AcDbText
 10
40.0
 20
262.0
 30
0.0
 40
3.5
  1
Нормы остойчивости Российского Речного Регистра, класс «О»
  7
ГОСТ
 11
40.0
 21
262.0
 31
0.0
100
AcDbText
 73
1
  0
LINE
  5
137
330
17
100
AcDbEntity
  8
00_РАМКА
100
AcDbLine
 10
40.0
 20
258.0
 30
0.0
 11
244.0
 21
258.0
 31
0.0
  0
LINE
  5
138
330
17
100
AcDbEntity
  8
00_РАМКА
100
AcDbLine
 10
40.0
 20
252.0
 30
0.0
 11
244.0
 21
252.0
 31
0.0
  0
LINE
  5
139
330
17
100
AcDbEntity
  8
00_РАМКА
100
AcDbLine
 10
40.0
 20
246.0
 30
0.0
 11
244.0
 21
246.0
 31
0.0
  0
LINE
  5
13A
330
17
100
AcDbEntity
  8
00_РАМКА
100
AcDbLine
 10
40.0
 20
240.0
 30
0.0
 11
244.0
 21
240.0
 31
0.0
  0
LINE
  5
13B
330
17
100
AcDbEntity
  8
00_РАМКА
100
AcDbLine
 10
40.0
 20
234.0
 30
0.0
 11
244.0
 21
234.0
 31
0.0
  0
LINE
  5
13C
330
17
100
AcDbEntity
  8
00_РАМКА
100
AcDbLine
 10
40.0
 20
228.0
 30
0.0
 11
244.0
 21
228.0
 31
0.0
  0
LINE
  5
13D
330
17
100
AcDbEntity
  8
00_РАМКА
100
AcDbLine
 10
40.0
 20
222.0
 30
0.0
 11
244.0
 21
222.0
 31
0.0
  0
LINE
  5
13E
330
17
100
AcDbEntity
  8
00_РАМКА
100
AcDbLine
 10
40.0
 20
216.0
 30
0.0
 11
244.0
 21
216.0
 31
0.0
  0
LINE
  5
13F
330
17
100
AcDbEntity
  8
00_РАМКА
100
AcDbLine
 10
40.0
 20
210.0
 30
0.0
 11
244.0
 21
210.0
 31
0.0
  0
LINE
  5
140
330
17
100
AcDbEntity
  8
00_РАМКА
100
AcDbLine
 10
40.0
 20
204.0
 30
0.0
 11
244.0
 21
204.0
 31
0.0
  0
LINE
  5
141
330
17
100
AcDbEntity
  8
00_РАМКА
100
AcDbLine
 10
40.0
 20
198.0
 30
0.0
 11
244.0
 21
198.0
 31
0.0
  0
LINE
  5
142
330
17
100
AcDbEntity
  8
00_РАМКА
100
AcDbLine
 10
40.0
 20
258.0
 30
0.0
 11
40.0
 21
198.0
 31
0.0
  0
LINE
  5
143
330
17
100
AcDbEntity
  8
00_РАМКА
100
AcDbLine
 10
150.0
 20
258.0
 30
0.0
 11
150.0
 21
198.0
 31
0.0
  0
LINE
  5
144
330
17
100
AcDbEntity
  8
00_РАМКА
100
AcDbLine
 10
180.0
 20
258.0
 30
0.0
 11
180.0
 21
198.0
 31
0.0
  0
LINE
  5
145
330
17
100
AcDbEntity
  8
00_РАМКА
100
AcDbLine
 10
210.0
 20
258.0
 30
0.0
 11
210.0
 21
198.0
 31
0.0
  0
LINE
  5
146
330
17
100
AcDbEntity
  8
00_РАМКА
100
AcDbLine
 10
244.0
 20
258.0
 30
0.0
 11
244.0
 21
198.0
 31
0.0
  0
TEXT
  5
147
330
17
100
AcDbEntity
  8
08_ТЕКСТ
100
AcDbText
 10
41.5
 20
255.0
 30
0.0
 40
2.8
  1
Критерий
  7
ГОСТ
 11
41.5
 21
255.0
 31
0.0
100
AcDbText
 73
2
  0
TEXT
  5
148
330
17
100
AcDbEntity
  8
08_ТЕКСТ
100
AcDbText
 10
151.5
 20
255.0
 30
0.0
 40
2.8
  1
Значение
  7
ГОСТ
 11
151.5
 21
255.0
 31
0.0
100
AcDbText
 73
2
  0
TEXT
  5
149
330
17
100
AcDbEntity
  8
08_ТЕКСТ
100
AcDbText
 10
181.5
 20
255.0
 30
0.0
 40
2.8
  1
Норма
  7
ГОСТ
 11
181.5
 21
255.0
 31
0.0
100
AcDbText
 73
2
  0
TEXT
  5
14A
330
17
100
AcDbEntity
  8
08_ТЕКСТ
100
AcDbText
 10
211.5
 20
255.0
 30
0.0
 40
2.8
  1
Итог
  7
ГОСТ
 11
211.5
 21
255.0
 31
0.0
100
AcDbText
 73
2
  0
TEXT
  5
14B
330
17
100
AcDbEntity
  8
08_ТЕКСТ
100
AcDbText
 10
41.5
 20
249.0
 30
0.0
 40
2.5
  1
Критерий погоды K
  7
ГОСТ
 11
41.5
 21
249.0
 31
0.0
100
AcDbText
 73
2
  0
TEXT
  5
14C
330
17
100
AcDbEntity
  8
08_ТЕКСТ
100
AcDbText
 10
151.5
 20
249.0
 30
0.0
 40
2.5
  1
31,69
  7
ГОСТ
 11
151.5
 21
249.0
 31
0.0
100
AcDbText
 73
2
  0
TEXT
  5
14D
330
17
100
AcDbEntity
  8
08_ТЕКСТ
100
AcDbText
 10
181.5
 20
249.0
 30
0.0
 40
2.5
  1
>= 1
  7
ГОСТ
 11
181.5
 21
249.0
 31
0.0
100
AcDbText
 73
2
  0
TEXT
  5
14E
330
17
100
AcDbEntity
  8
08_ТЕКСТ
100
AcDbText
 10
211.5
 20
249.0
 30
0.0
 40
2.5
  1
выполнено
  7
ГОСТ
 11
211.5
 21
249.0
 31
0.0
100
AcDbText
 73
2
  0
TEXT
  5
14F
330
17
100
AcDbEntity
  8
08_ТЕКСТ
100
AcDbText
 10
41.5
 20
243.0
 30
0.0
 40
2.5
  1
Начальная метацентрическая высота h, м
  7
ГОСТ
 11
41.5
 21
243.0
 31
0.0
100
AcDbText
 73
2
  0
TEXT
  5
150
330
17
100
AcDbEntity
  8
08_ТЕКСТ
100
AcDbText
 10
151.5
 20
243.0
 30
0.0
 40
2.5
  1
15,51
  7
ГОСТ
 11
151.5
 21
243.0
 31
0.0
100
AcDbText
 73
2
  0
TEXT
  5
151
330
17
100
AcDbEntity
  8
08_ТЕКСТ
100
AcDbText
 10
181.5
 20
243.0
 30
0.0
 40
2.5
  1
>= 0,2
  7
ГОСТ
 11
181.5
 21
243.0
 31
0.0
100
AcDbText
 73
2
  0
TEXT
  5
152
330
17
100
AcDbEntity
  8
08_ТЕКСТ
100
AcDbText
 10
211.5
 20
243.0
 30
0.0
 40
2.5
  1
выполнено
  7
ГОСТ
 11
211.5
 21
243.0
 31
0.0
100
AcDbText
 73
2
  0
TEXT
  5
153
330
17
100
AcDbEntity
  8
08_ТЕКСТ
100
AcDbText
 10
41.5
 20
237.0
 30
0.0
 40
2.5
  1
Максимальное плечо ДСО, м
  7
ГОСТ
 11
41.5
 21
237.0
 31
0.0
100
AcDbText
 73
2
  0
TEXT
  5
154
330
17
100
AcDbEntity
  8
08_ТЕКСТ
100
AcDbText
 10
151.5
 20
237.0
 30
0.0
 40
2.5
  1
3,47
  7
ГОСТ
 11
151.5
 21
237.0
 31
0.0
100
AcDbText
 73
2
  0
TEXT
  5
155
330
17
100
AcDbEntity
  8
08_ТЕКСТ
100
AcDbText
 10
181.5
 20
237.0
 30
0.0
 40
2.5
  1
>= 0,25
  7
ГОСТ
 11
181.5
 21
237.0
 31
0.0
100
AcDbText
 73
2
  0
TEXT
  5
156
330
17
100
AcDbEntity
  8
08_ТЕКСТ
100
AcDbText
 10
211.5
 20
237.0
 30
0.0
 40
2.5
  1
выполнено
  7
ГОСТ
 11
211.5
 21
237.0
 31
0.0
100
AcDbText
 73
2
  0
TEXT
  5
157
330
17
100
AcDbEntity
  8
08_ТЕКСТ
100
AcDbText
 10
41.5
 20
231.0
 30
0.0
 40
2.5
  1
Угол максимума ДСО, град (B/T = 13.1)
  7
ГОСТ
 11
41.5
 21
231.0
 31
0.0
100
AcDbText
 73
2
  0
TEXT
  5
158
330
17
100
AcDbEntity
  8
08_ТЕКСТ
100
AcDbText
 10
151.5
 20
231.0
 30
0.0
 40
2.5
  1
20,00
  7
ГОСТ
 11
151.5
 21
231.0
 31
0.0
100
AcDbText
 73
2
  0
TEXT
  5
159
330
17
100
AcDbEntity
  8
08_ТЕКСТ
100
AcDbText
 10
181.5
 20
231.0
 30
0.0
 40
2.5
  1
>= 15
  7
ГОСТ
 11
181.5
 21
231.0
 31
0.0
100
AcDbText
 73
2
  0
TEXT
  5
15A
330
17
100
AcDbEntity
  8
08_ТЕКСТ
100
AcDbText
 10
211.5
 20
231.0
 30
0.0
 40
2.5
  1
выполнено
  7
ГОСТ
 11
211.5
 21
231.0
 31
0.0
100
AcDbText
 73
2
  0
TEXT
  5
15B
330
17
100
AcDbEntity
  8
08_ТЕКСТ
100
AcDbText
 10
41.5
 20
225.0
 30
0.0
 40
2.5
  1
Угол заката ДСО, град
  7
ГОСТ
 11
41.5
 21
225.0
 31
0.0
100
AcDbText
 73
2
  0
TEXT
  5
15C
330
17
100
AcDbEntity
  8
08_ТЕКСТ
100
AcDbText
 10
151.5
 20
225.0
 30
0.0
 40
2.5
  1
75,57
  7
ГОСТ
 11
151.5
 21
225.0
 31
0.0
100
AcDbText
 73
2
  0
TEXT
  5
15D
330
17
100
AcDbEntity
  8
08_ТЕКСТ
100
AcDbText
 10
181.5
 20
225.0
 30
0.0
 40
2.5
  1
>= 55
  7
ГОСТ
 11
181.5
 21
225.0
 31
0.0
100
AcDbText
 73
2
  0
TEXT
  5
15E
330
17
100
AcDbEntity
  8
08_ТЕКСТ
100
AcDbText
 10
211.5
 20
225.0
 30
0.0
 40
2.5
  1
выполнено
  7
ГОСТ
 11
211.5
 21
225.0
 31
0.0
100
AcDbText
 73
2
  0
TEXT
  5
15F
330
17
100
AcDbEntity
  8
08_ТЕКСТ
100
AcDbText
 10
41.5
 20
219.0
 30
0.0
 40
2.5
  1
Плечо ДСО при 30 град, м
  7
ГОСТ
 11
41.5
 21
219.0
 31
0.0
100
AcDbText
 73
2
  0
TEXT
  5
160
330
17
100
AcDbEntity
  8
08_ТЕКСТ
100
AcDbText
 10
151.5
 20
219.0
 30
0.0
 40
2.5
  1
3,21
  7
ГОСТ
 11
151.5
 21
219.0
 31
0.0
100
AcDbText
 73
2
  0
TEXT
  5
161
330
17
100
AcDbEntity
  8
08_ТЕКСТ
100
AcDbText
 10
181.5
 20
219.0
 30
0.0
 40
2.5
  1
>= 0,2
  7
ГОСТ
 11
181.5
 21
219.0
 31
0.0
100
AcDbText
 73
2
  0
TEXT
  5
162
330
17
100
AcDbEntity
  8
08_ТЕКСТ
100
AcDbText
 10
211.5
 20
219.0
 30
0.0
 40
2.5
  1
выполнено
  7
ГОСТ
 11
211.5
 21
219.0
 31
0.0
100
AcDbText
 73
2
  0
TEXT
  5
163
330
17
100
AcDbEntity
  8
08_ТЕКСТ
100
AcDbText
 10
41.5
 20
213.0
 30
0.0
 40
2.5
  1
Работа ДДО до 30 град, м-рад
  7
ГОСТ
 11
41.5
 21
213.0
 31
0.0
100
AcDbText
 73
2
  0
TEXT
  5
164
330
17
100
AcDbEntity
  8
08_ТЕКСТ
100
AcDbText
 10
151.5
 20
213.0
 30
0.0
 40
2.5
  1
1,38
  7
ГОСТ
 11
151.5
 21
213.0
 31
0.0
100
AcDbText
 73
2
  0
TEXT
  5
165
330
17
100
AcDbEntity
  8
08_ТЕКСТ
100
AcDbText
 10
181.5
 20
213.0
 30
0.0
 40
2.5
  1
>= 0,055
  7
ГОСТ
 11
181.5
 21
213.0
 31
0.0
100
AcDbText
 73
2
  0
TEXT
  5
166
330
17
100
AcDbEntity
  8
08_ТЕКСТ
100
AcDbText
 10
211.5
 20
213.0
 30
0.0
 40
2.5
  1
выполнено
  7
ГОСТ
 11
211.5
 21
213.0
 31
0.0
100
AcDbText
 73
2
  0
TEXT
  5
167
330
17
100
AcDbEntity
  8
08_ТЕКСТ
100
AcDbText
 10
41.5
 20
207.0
 30
0.0
 40
2.5
  1
Работа ДДО до 40 град, м-рад
  7
ГОСТ
 11
41.5
 21
207.0
 31
0.0
100
AcDbText
 73
2
  0
TEXT
  5
168
330
17
100
AcDbEntity
  8
08_ТЕКСТ
100
AcDbText
 10
151.5
 20
207.0
 30
0.0
 40
2.5
  1
1,89
  7
ГОСТ
 11
151.5
 21
207.0
 31
0.0
100
AcDbText
 73
2
  0
TEXT
  5
169
330
17
100
AcDbEntity
  8
08_ТЕКСТ
100
AcDbText
 10
181.5
 20
207.0
 30
0.0
 40
2.5
  1
>= 0,09
  7
ГОСТ
 11
181.5
 21
207.0
 31
0.0
100
AcDbText
 73
2
  0
TEXT
  5
16A
330
17
100
AcDbEntity
  8
08_ТЕКСТ
100
AcDbText
 10
211.5
 20
207.0
 30
0.0
 40
2.5
  1
выполнено
  7
ГОСТ
 11
211.5
 21
207.0
 31
0.0
100
AcDbText
 73
2
  0
TEXT
  5
16B
330
17
100
AcDbEntity
  8
08_ТЕКСТ
100
AcDbText
 10
41.5
 20
201.0
 30
0.0
 40
2.5
  1
Статический крен от ветра, град
  7
ГОСТ
 11
41.5
 21
201.0
 31
0.0
100
AcDbText
 73
2
  0
TEXT
  5
16C
330
17
100
AcDbEntity
  8
08_ТЕКСТ
100
AcDbText
 10
151.5
 20
201.0
 30
0.0
 40
2.5
  1
0,15
  7
ГОСТ
 11
151.5
 21
201.0
 31
0.0
100
AcDbText
 73
2
  0
TEXT
  5
16D
330
17
100
AcDbEntity
  8
08_ТЕКСТ
100
AcDbText
 10
181.5
 20
201.0
 30
0.0
 40
2.5
  1
<= 12
  7
ГОСТ
 11
181.5
 21
201.0
 31
0.0
100
AcDbText
 73
2
  0
TEXT
  5
16E
330
17
100
AcDbEntity
  8
08_ТЕКСТ
100
AcDbText
 10
211.5
 20
201.0
 30
0.0
 40
2.5
  1
выполнено
  7
ГОСТ
 11
211.5
 21
201.0
 31
0.0
100
AcDbText
 73
2
  0
ENDSEC
  0
SECTION
  2
OBJECTS
  0
DICTIONARY
  5
A
330
0
100
AcDbDictionary
281
1
  3
ACAD_COLOR
350
B
  3
ACAD_GROUP
350
C
  3
ACAD_LAYOUT
350
D
  3
ACAD_MATERIAL
350
E
  3
ACAD_MLEADERSTYLE
350
F
  3
ACAD_MLINESTYLE
350
10
  3
ACAD_PLOTSETTINGS
350
11
  3
ACAD_PLOTSTYLENAME
350
12
  3
ACAD_SCALELIST
350
14
  3
ACAD_TABLESTYLE
350
15
  3
ACAD_VISUALSTYLE
350
16
  3
EZDXF_META
350
2D
  0
DICTIONARY
  5
B
330
A
100
AcDbDictionary
281
1
  0
DICTIONARY
  5
C
330
A
100
AcDbDictionary
281
1
  0
DICTIONARY
  5
D
330
A
100
AcDbDictionary
281
1
  3
Model
350
1A
  3
Layout1
350
1E
  0
DICTIONARY
  5
E
330
A
100
AcDbDictionary
281
1
  3
ByBlock
350
1F
  3
ByLayer
350
20
  3
Global
350
21
  0
DICTIONARY
  5
F
330
A
100
AcDbDictionary
281
1
  3
Standard
350
2C
  0
DICTIONARY
  5
10
330
A
100
AcDbDictionary
281
1
  3
Standard
350
22
  0
DICTIONARY
  5
11
330
A
100
AcDbDictionary
281
1
  0
ACDBDICTIONARYWDFLT
  5
12
330
A
100
AcDbDictionary
281
1
  3
Normal
350
13
100
AcDbDictionaryWithDefault
340
13
  0
ACDBPLACEHOLDER
  5
13
330
12
  0
DICTIONARY
  5
14
330
A
100
AcDbDictionary
281
1
  0
DICTIONARY
  5
15
330
A
100
AcDbDictionary
281
1
  0
DICTIONARY
  5
16
330
A
100
AcDbDictionary
281
1
  3
2dWireframe
350
5A
  3
Basic
350
5B
  3
Brighten
350
5C
  3
ColorChange
350
5D
  3
Conceptual
350
5E
  3
Dim
350
5F
  3
EdgeColorOff
350
60
  3
Facepattern
350
61
  3
Flat
350
62
  3
FlatWithEdges
350
63
  3
Gouraud
350
64
  3
GouraudWithEdges
350
65
  3
Hidden
350
66
  3
JitterOff
350
67
  3
Linepattern
350
68
  3
Modeling
350
69
  3
OverhangOff
350
6A
  3
Realistic
350
6B
  3
Shaded
350
6C
  3
Shaded with edges
350
6D
  3
Shades of Gray
350
6E
  3
Sketchy
350
6F
  3
Thicken
350
70
  3
Wireframe
350
71
  3
X-Ray
350
72
  0
LAYOUT
  5
1A
330
D
100
AcDbPlotSettings
  1

  4
A3
  6

 40
7.5
 41
20.0
 42
7.5
 43
20.0
 44
420.0
 45
297.0
 46
0.0
 47
0.0
 48
0.0
 49
0.0
140
0.0
141
0.0
142
1.0
143
1.0
 70
1024
 72
1
 73
0
 74
5
  7

 75
16
 76
0
 77
2
 78
300
147
1.0
148
0.0
149
0.0
100
AcDbLayout
  1
Model
 70
1
 71
0
 10
0.0
 20
0.0
 11
420.0
 21
297.0
 12
0.0
 22
0.0
 32
0.0
 14
1e+20
 24
1e+20
 34
1e+20
 15
-1e+20
 25
-1e+20
 35
-1e+20
146
0.0
 13
0.0
 23
0.0
 33
0.0
 16
1.0
 26
0.0
 36
0.0
 17
0.0
 27
1.0
 37
0.0
 76
1
330
17
  0
LAYOUT
  5
1E
330
D
100
AcDbPlotSettings
  1

  4
A3
  6

 40
7.5
 41
20.0
 42
7.5
 43
20.0
 44
420.0
 45
297.0
 46
0.0
 47
0.0
 48
0.0
 49
0.0
140
0.0
141
0.0
142
1.0
143
1.0
 70
0
 72
1
 73
0
 74
5
  7

 75
16
 76
0
 77
2
 78
300
147
1.0
148
0.0
149
0.0
100
AcDbLayout
  1
Layout1
 70
1
 71
1
 10
0.0
 20
0.0
 11
420.0
 21
297.0
 12
0.0
 22
0.0
 32
0.0
 14
1e+20
 24
1e+20
 34
1e+20
 15
-1e+20
 25
-1e+20
 35
-1e+20
146
0.0
 13
0.0
 23
0.0
 33
0.0
 16
1.0
 26
0.0
 36
0.0
 17
0.0
 27
1.0
 37
0.0
 76
1
330
1B
  0
MATERIAL
  5
1F
102
{ACAD_REACTORS
330
E
102
}
330
E
100
AcDbMaterial
  1
ByBlock
  2

 70
0
 40
1.0
 71
1
 41
1.0
 91
-1023410177
 42
1.0
 72
1
  3

 73
1
 74
1
 75
1
 44
0.5
 73
0
 45
1.0
 46
1.0
 77
1
  4

 78
1
 79
1
170
1
 48
1.0
171
1
  6

172
1
173
1
174
1
140
1.0
141
1.0
175
1
  7

176
1
177
1
178
1
143
1.0
179
1
  8

270
1
271
1
272
1
145
1.0
146
1.0
273
1
  9

274
1
275
1
276
1
 42
1.0
 72
1
  3

 73
1
 74
1
 75
1
 94
63
  0
MATERIAL
  5
20
102
{ACAD_REACTORS
330
E
102
}
330
E
100
AcDbMaterial
  1
ByLayer
  2

 70
0
 40
1.0
 71
1
 41
1.0
 91
-1023410177
 42
1.0
 72
1
  3

 73
1
 74
1
 75
1
 44
0.5
 73
0
 45
1.0
 46
1.0
 77
1
  4

 78
1
 79
1
170
1
 48
1.0
171
1
  6

172
1
173
1
174
1
140
1.0
141
1.0
175
1
  7

176
1
177
1
178
1
143
1.0
179
1
  8

270
1
271
1
272
1
145
1.0
146
1.0
273
1
  9

274
1
275
1
276
1
 42
1.0
 72
1
  3

 73
1
 74
1
 75
1
 94
63
  0
MATERIAL
  5
21
102
{ACAD_REACTORS
330
E
102
}
330
E
100
AcDbMaterial
  1
Global
  2

 70
0
 40
1.0
 71
1
 41
1.0
 91
-1023410177
 42
1.0
 72
1
  3

 73
1
 74
1
 75
1
 44
0.5
 73
0
 45
1.0
 46
1.0
 77
1
  4

 78
1
 79
1
170
1
 48
1.0
171
1
  6

172
1
173
1
174
1
140
1.0
141
1.0
175
1
  7

176
1
177
1
178
1
143
1.0
179
1
  8

270
1
271
1
272
1
145
1.0
146
1.0
273
1
  9

274
1
275
1
276
1
 42
1.0
 72
1
  3

 73
1
 74
1
 75
1
 94
63
  0
MLINESTYLE
  5
22
102
{ACAD_REACTORS
330
10
102
}
330
10
100
AcDbMlineStyle
  2
Standard
 70
0
  3

 62
256
 51
90.0
 52
90.0
 71
2
 49
0.5
 62
256
  6
BYLAYER
 49
-0.5
 62
256
  6
BYLAYER
  0
MLEADERSTYLE
  5
2C
102
{ACAD_REACTORS
330
F
102
}
330
F
100
AcDbMLeaderStyle
179
2
170
2
171
1
172
0
 90
2
 40
0.0
 41
0.0
173
1
 91
-1056964608
 92
-2
290
1
 42
2.0
291
1
 43
8.0
  3
Standard
 44
4.0
300

342
29
174
1
175
1
176
0
178
1
 93
-1056964608
 45
4.0
292
0
297
0
 46
4.0
 94
-1056964608
 47
1.0
 49
1.0
140
1.0
294
1
141
0.0
177
0
142
1.0
295
0
296
0
143
3.75
271
0
272
9
273
9
  0
DICTIONARY
  5
2D
330
A
100
AcDbDictionary
280
1
281
1
  3
CREATED_BY_EZDXF
350
2E
  3
WRITTEN_BY_EZDXF
350
171
  0
DICTIONARYVAR
  5
2E
330
2D
100
DictionaryVariables
280
0
  1
1.4.4 @ 2026-09-22T12:59:42.781843+00:00
  0
VISUALSTYLE
  5
5A
102
{ACAD_REACTORS
330
16
102
}
330
16
100
AcDbVisualStyle
  2
2dWireframe
 70
4
177
3
291
0
 70
58
 90
2
176
1
 90
2
176
1
 90
0
176
1
 90
0
176
1
 40
0.6
176
1
 40
30.0
176
1
 62
7
420
16777215
176
1
 90
1
176
1
 90
4
176
1
 62
7
176
1
 62
257
176
1
 90
1
176
1
 90
1
176
1
 40
1.0
176
1
 90
8
176
1
 62
7
176
1
 40
1.0
176
1
 90
1
176
1
 90
6
176
1
 90
2
176
1
 62
7
176
1
 90
5
176
1
 90
0
176
1
 90
0
176
1
290
0
176
1
 90
1
176
1
 40
0.0
176
1
 90
0
176
1
290
1
176
1
290
1
176
1
290
0
176
1
290
0
176
1
290
0
176
1
290
0
176
1
290
0
176
1
290
0
176
1
290
0
176
1
 90
50
176
1
 40
0.0
176
1
 40
1.0
176
1
 90
0
176
1
 62
18
420
0
176
1
 90
50
176
1
 90
3
176
1
 62
5
420
255
176
1
290
0
176
1
 90
50
176
1
 90
50
176
1
 90
50
176
1
290
0
176
1
 90
50
176
1
 62
256
176
0
 40
1.0
176
0
 90
2
176
1
  1
strokes_ogs.tif
176
1
290
0
176
1
 40
1.0
176
1
 40
1.0
176
1
  0
VISUALSTYLE
  5
5B
102
{ACAD_REACTORS
330
16
102
}
330
16
100
AcDbVisualStyle
  2
Basic
 70
7
177
3
291
1
 70
58
 90
2
176
1
 90
2
176
1
 90
0
176
1
 90
1
176
1
 40
0.6
176
1
 40
30.0
176
1
 62
7
420
16777215
176
1
 90
1
176
1
 90
4
176
1
 62
7
176
1
 62
257
176
1
 90
1
176
1
 90
1
176
1
 40
1.0
176
1
 90
8
176
1
 62
7
176
1
 40
1.0
176
1
 90
1
176
1
 90
6
176
1
 90
2
176
1
 62
7
176
1
 90
5
176
1
 90
0
176
1
 90
0
176
1
290
0
176
1
 90
1
176
1
 40
0.0
176
1
 90
0
176
1
290
0
176
1
290
1
176
1
290
1
176
1
290
0
176
1
290
0
176
1
290
0
176
1
290
0
176
1
290
0
176
1
290
0
176
1
 90
50
176
1
 40
0.0
176
1
 40
1.0
176
1
 90
0
176
1
 62
18
420
0
176
1
 90
50
176
1
 90
3
176
1
 62
5
420
255
176
1
290
0
176
1
 90
50
176
1
 90
50
176
1
 90
50
176
1
290
0
176
1
 90
50
176
1
 62
256
176
0
 40
1.0
176
0
 90
2
176
1
  1
strokes_ogs.tif
176
1
290
0
176
1
 40
1.0
176
1
 40
1.0
176
1
  0
VISUALSTYLE
  5
5C
102
{ACAD_REACTORS
330
16
102
}
330
16
100
AcDbVisualStyle
  2
Brighten
 70
12
177
3
291
1
 70
58
 90
2
176
1
 90
2
176
1
 90
0
176
1
 90
2
176
1
 40
0.6
176
1
 40
30.0
176
1
 62
7
420
16777215
176
1
 90
1
176
1
 90
4
176
1
 62
7
176
1
 62
257
176
1
 90
1
176
1
 90
1
176
1
 40
1.0
176
1
 90
8
176
1
 62
7
176
1
 40
1.0
176
1
 90
1
176
1
 90
6
176
1
 90
2
176
1
 62
7
176
1
 90
5
176
1
 90
0
176
1
 90
0
176
1
290
0
176
1
 90
1
176
1
 40
0.0
176
1
 90
0
176
1
290
0
176
1
290
1
176
1
290
1
176
1
290
0
176
1
290
0
176
1
290
0
176
1
290
0
176
1
290
0
176
1
290
0
176
1
 90
50
176
1
 40
0.0
176
1
 40
1.0
176
1
 90
0
176
1
 62
18
420
0
176
1
 90
50
176
1
 90
3
176
1
 62
5
420
255
176
1
290
0
176
1
 90
50
176
1
 90
50
176
1
 90
50
176
1
290
0
176
1
 90
50
176
1
 62
256
176
0
 40
1.0
176
0
 90
2
176
1
  1
strokes_ogs.tif
176
1
290
0
176
1
 40
1.0
176
1
 40
1.0
176
1
  0
VISUALSTYLE
  5
5D
102
{ACAD_REACTORS
330
16
102
}
330
16
100
AcDbVisualStyle
  2
ColorChange
 70
16
177
3
291
1
 70
58
 90
2
176
1
 90
2
176
1
 90
0
176
1
 90
2
176
1
 40
0.6
176
1
 40
30.0
176
1
 62
7
420
16777215
176
1
 90
1
176
1
 90
4
176
1
 62
7
176
1
 62
257
176
1
 90
1
176
1
 90
1
176
1
 40
1.0
176
1
 90
8
176
1
 62
7
176
1
 40
1.0
176
1
 90
1
176
1
 90
6
176
1
 90
2
176
1
 62
7
176
1
 90
5
176
1
 90
0
176
1
 90
0
176
1
290
0
176
1
 90
1
176
1
 40
0.0
176
1
 90
0
176
1
290
0
176
1
290
1
176
1
290
1
176
1
290
0
176
1
290
0
176
1
290
0
176
1
290
0
176
1
290
0
176
1
290
0
176
1
 90
50
176
1
 40
0.0
176
1
 40
1.0
176
1
 90
0
176
1
 62
18
420
0
176
1
 90
50
176
1
 90
3
176
1
 62
5
420
255
176
1
290
0
176
1
 90
50
176
1
 90
50
176
1
 90
50
176
1
290
0
176
1
 90
50
176
1
 62
256
176
0
 40
1.0
176
0
 90
2
176
1
  1
strokes_ogs.tif
176
1
290
0
176
1
 40
1.0
176
1
 40
1.0
176
1
  0
VISUALSTYLE
  5
5E
102
{ACAD_REACTORS
330
16
102
}
330
16
100
AcDbVisualStyle
  2
Conceptual
 70
9
177
3
291
0
 70
58
 90
2
176
1
 90
2
176
1
 90
0
176
1
 90
3
176
1
 40
0.6
176
1
 40
30.0
176
1
 62
7
420
16777215
176
1
 90
1
176
1
 90
4
176
1
 62
7
176
1
 62
257
176
1
 90
1
176
1
 90
1
176
1
 40
1.0
176
1
 90
8
176
1
 62
7
176
1
 40
1.0
176
1
 90
1
176
1
 90
6
176
1
 90
2
176
1
 62
7
176
1
 90
5
176
1
 90
0
176
1
 90
0
176
1
290
0
176
1
 90
1
176
1
 40
0.0
176
1
 90
0
176
1
290
0
176
1
290
1
176
1
290
1
176
1
290
0
176
1
290
0
176
1
290
0
176
1
290
0
176
1
290
0
176
1
290
0
176
1
 90
50
176
1
 40
0.0
176
1
 40
1.0
176
1
 90
0
176
1
 62
18
420
0
176
1
 90
50
176
1
 90
3
176
1
 62
5
420
255
176
1
290
0
176
1
 90
50
176
1
 90
50
176
1
 90
50
176
1
290
0
176
1
 90
50
176
1
 62
256
176
0
 40
1.0
176
0
 90
2
176
1
  1
strokes_ogs.tif
176
1
290
0
176
1
 40
1.0
176
1
 40
1.0
176
1
  0
VISUALSTYLE
  5
5F
102
{ACAD_REACTORS
330
16
102
}
330
16
100
AcDbVisualStyle
  2
Dim
 70
11
177
3
291
1
 70
58
 90
2
176
1
 90
2
176
1
 90
0
176
1
 90
2
176
1
 40
0.6
176
1
 40
30.0
176
1
 62
7
420
16777215
176
1
 90
1
176
1
 90
4
176
1
 62
7
176
1
 62
257
176
1
 90
1
176
1
 90
1
176
1
 40
1.0
176
1
 90
8
176
1
 62
7
176
1
 40
1.0
176
1
 90
1
176
1
 90
6
176
1
 90
2
176
1
 62
7
176
1
 90
5
176
1
 90
0
176
1
 90
0
176
1
290
0
176
1
 90
1
176
1
 40
0.0
176
1
 90
0
176
1
290
0
176
1
290
1
176
1
290
1
176
1
290
0
176
1
290
0
176
1
290
0
176
1
290
0
176
1
290
0
176
1
290
0
176
1
 90
50
176
1
 40
0.0
176
1
 40
1.0
176
1
 90
0
176
1
 62
18
420
0
176
1
 90
50
176
1
 90
3
176
1
 62
5
420
255
176
1
290
0
176
1
 90
50
176
1
 90
50
176
1
 90
50
176
1
290
0
176
1
 90
50
176
1
 62
256
176
0
 40
1.0
176
0
 90
2
176
1
  1
strokes_ogs.tif
176
1
290
0
176
1
 40
1.0
176
1
 40
1.0
176
1
  0
VISUALSTYLE
  5
60
102
{ACAD_REACTORS
330
16
102
}
330
16
100
AcDbVisualStyle
  2
EdgeColorOff
 70
22
177
3
291
1
 70
58
 90
2
176
1
 90
2
176
1
 90
0
176
1
 90
2
176
1
 40
0.6
176
1
 40
30.0
176
1
 62
7
420
16777215
176
1
 90
1
176
1
 90
4
176
1
 62
7
176
1
 62
257
176
1
 90
1
176
1
 90
1
176
1
 40
1.0
176
1
 90
8
176
1
 62
7
176
1
 40
1.0
176
1
 90
1
176
1
 90
6
176
1
 90
2
176
1
 62
7
176
1
 90
5
176
1
 90
0
176
1
 90
0
176
1
290
0
176
1
 90
1
176
1
 40
0.0
176
1
 90
0
176
1
290
0
176
1
290
1
176
1
290
1
176
1
290
0
176
1
290
0
176
1
290
0
176
1
290
0
176
1
290
0
176
1
290
0
176
1
 90
50
176
1
 40
0.0
176
1
 40
1.0
176
1
 90
0
176
1
 62
18
420
0
176
1
 90
50
176
1
 90
3
176
1
 62
5
420
255
176
1
290
0
176
1
 90
50
176
1
 90
50
176
1
 90
50
176
1
290
0
176
1
 90
50
176
1
 62
256
176
0
 40
1.0
176
0
 90
2
176
1
  1
strokes_ogs.tif
176
1
290
0
176
1
 40
1.0
176
1
 40
1.0
176
1
  0
VISUALSTYLE
  5
61
102
{ACAD_REACTORS
330
16
102
}
330
16
100
AcDbVisualStyle
  2
Facepattern
 70
15
177
3
291
1
 70
58
 90
2
176
1
 90
2
176
1
 90
0
176
1
 90
2
176
1
 40
0.6
176
1
 40
30.0
176
1
 62
7
420
16777215
176
1
 90
1
176
1
 90
4
176
1
 62
7
176
1
 62
257
176
1
 90
1
176
1
 90
1
176
1
 40
1.0
176
1
 90
8
176
1
 62
7
176
1
 40
1.0
176
1
 90
1
176
1
 90
6
176
1
 90
2
176
1
 62
7
176
1
 90
5
176
1
 90
0
176
1
 90
0
176
1
290
0
176
1
 90
1
176
1
 40
0.0
176
1
 90
0
176
1
290
0
176
1
290
1
176
1
290
1
176
1
290
0
176
1
290
0
176
1
290
0
176
1
290
0
176
1
290
0
176
1
290
0
176
1
 90
50
176
1
 40
0.0
176
1
 40
1.0
176
1
 90
0
176
1
 62
18
420
0
176
1
 90
50
176
1
 90
3
176
1
 62
5
420
255
176
1
290
0
176
1
 90
50
176
1
 90
50
176
1
 90
50
176
1
290
0
176
1
 90
50
176
1
 62
256
176
0
 40
1.0
176
0
 90
2
176
1
  1
strokes_ogs.tif
176
1
290
0
176
1
 40
1.0
176
1
 40
1.0
176
1
  0
VISUALSTYLE
  5
62
102
{ACAD_REACTORS
330
16
102
}
330
16
100
AcDbVisualStyle
  2
Flat
 70
0
177
3
291
1
 70
58
 90
2
176
1
 90
2
176
1
 90
0
176
1
 90
2
176
1
 40
0.6
176
1
 40
30.0
176
1
 62
7
420
16777215
176
1
 90
1
176
1
 90
4
176
1
 62
7
176
1
 62
257
176
1
 90
1
176
1
 90
1
176
1
 40
1.0
176
1
 90
8
176
1
 62
7
176
1
 40
1.0
176
1
 90
1
176
1
 90
6
176
1
 90
2
176
1
 62
7
176
1
 90
5
176
1
 90
0
176
1
 90
0
176
1
290
0
176
1
 90
1
176
1
 40
0.0
176
1
 90
0
176
1
290
0
176
1
290
1
176
1
290
1
176
1
290
0
176
1
290
0
176
1
290
0
176
1
290
0
176
1
290
0
176
1
290
0
176
1
 90
50
176
1
 40
0.0
176
1
 40
1.0
176
1
 90
0
176
1
 62
18
420
0
176
1
 90
50
176
1
 90
3
176
1
 62
5
420
255
176
1
290
0
176
1
 90
50
176
1
 90
50
176
1
 90
50
176
1
290
0
176
1
 90
50
176
1
 62
256
176
0
 40
1.0
176
0
 90
2
176
1
  1
strokes_ogs.tif
176
1
290
0
176
1
 40
1.0
176
1
 40
1.0
176
1
  0
VISUALSTYLE
  5
63
102
{ACAD_REACTORS
330
16
102
}
330
16
100
AcDbVisualStyle
  2
FlatWithEdges
 70
1
177
3
291
1
 70
58
 90
2
176
1
 90
2
176
1
 90
0
176
1
 90
2
176
1
 40
0.6
176
1
 40
30.0
176
1
 62
7
420
16777215
176
1
 90
1
176
1
 90
4
176
1
 62
7
176
1
 62
257
176
1
 90
1
176
1
 90
1
176
1
 40
1.0
176
1
 90
8
176
1
 62
7
176
1
 40
1.0
176
1
 90
1
176
1
 90
6
176
1
 90
2
176
1
 62
7
176
1
 90
5
176
1
 90
0
176
1
 90
0
176
1
290
0
176
1
 90
1
176
1
 40
0.0
176
1
 90
0
176
1
290
0
176
1
290
1
176
1
290
1
176
1
290
0
176
1
290
0
176
1
290
0
176
1
290
0
176
1
290
0
176
1
290
0
176
1
 90
50
176
1
 40
0.0
176
1
 40
1.0
176
1
 90
0
176
1
 62
18
420
0
176
1
 90
50
176
1
 90
3
176
1
 62
5
420
255
176
1
290
0
176
1
 90
50
176
1
 90
50
176
1
 90
50
176
1
290
0
176
1
 90
50
176
1
 62
256
176
0
 40
1.0
176
0
 90
2
176
1
  1
strokes_ogs.tif
176
1
290
0
176
1
 40
1.0
176
1
 40
1.0
176
1
  0
VISUALSTYLE
  5
64
102
{ACAD_REACTORS
330
16
102
}
330
16
100
AcDbVisualStyle
  2
Gouraud
 70
2
177
3
291
1
 70
58
 90
2
176
1
 90
2
176
1
 90
0
176
1
 90
2
176
1
 40
0.6
176
1
 40
30.0
176
1
 62
7
420
16777215
176
1
 90
1
176
1
 90
4
176
1
 62
7
176
1
 62
257
176
1
 90
1
176
1
 90
1
176
1
 40
1.0
176
1
 90
8
176
1
 62
7
176
1
 40
1.0
176
1
 90
1
176
1
 90
6
176
1
 90
2
176
1
 62
7
176
1
 90
5
176
1
 90
0
176
1
 90
0
176
1
290
0
176
1
 90
1
176
1
 40
0.0
176
1
 90
0
176
1
290
0
176
1
290
1
176
1
290
1
176
1
290
0
176
1
290
0
176
1
290
0
176
1
290
0
176
1
290
0
176
1
290
0
176
1
 90
50
176
1
 40
0.0
176
1
 40
1.0
176
1
 90
0
176
1
 62
18
420
0
176
1
 90
50
176
1
 90
3
176
1
 62
5
420
255
176
1
290
0
176
1
 90
50
176
1
 90
50
176
1
 90
50
176
1
290
0
176
1
 90
50
176
1
 62
256
176
0
 40
1.0
176
0
 90
2
176
1
  1
strokes_ogs.tif
176
1
290
0
176
1
 40
1.0
176
1
 40
1.0
176
1
  0
VISUALSTYLE
  5
65
102
{ACAD_REACTORS
330
16
102
}
330
16
100
AcDbVisualStyle
  2
GouraudWithEdges
 70
3
177
3
291
1
 70
58
 90
2
176
1
 90
2
176
1
 90
0
176
1
 90
2
176
1
 40
0.6
176
1
 40
30.0
176
1
 62
7
420
16777215
176
1
 90
1
176
1
 90
4
176
1
 62
7
176
1
 62
257
176
1
 90
1
176
1
 90
1
176
1
 40
1.0
176
1
 90
8
176
1
 62
7
176
1
 40
1.0
176
1
 90
1
176
1
 90
6
176
1
 90
2
176
1
 62
7
176
1
 90
5
176
1
 90
0
176
1
 90
0
176
1
290
0
176
1
 90
1
176
1
 40
0.0
176
1
 90
0
176
1
290
0
176
1
290
1
176
1
290
1
176
1
290
0
176
1
290
0
176
1
290
0
176
1
290
0
176
1
290
0
176
1
290
0
176
1
 90
50
176
1
 40
0.0
176
1
 40
1.0
176
1
 90
0
176
1
 62
18
420
0
176
1
 90
50
176
1
 90
3
176
1
 62
5
420
255
176
1
290
0
176
1
 90
50
176
1
 90
50
176
1
 90
50
176
1
290
0
176
1
 90
50
176
1
 62
256
176
0
 40
1.0
176
0
 90
2
176
1
  1
strokes_ogs.tif
176
1
290
0
176
1
 40
1.0
176
1
 40
1.0
176
1
  0
VISUALSTYLE
  5
66
102
{ACAD_REACTORS
330
16
102
}
330
16
100
AcDbVisualStyle
  2
Hidden
 70
6
177
3
291
0
 70
58
 90
2
176
1
 90
2
176
1
 90
0
176
1
 90
1
176
1
 40
0.6
176
1
 40
30.0
176
1
 62
7
420
16777215
176
1
 90
1
176
1
 90
4
176
1
 62
7
176
1
 62
257
176
1
 90
1
176
1
 90
1
176
1
 40
1.0
176
1
 90
8
176
1
 62
7
176
1
 40
1.0
176
1
 90
1
176
1
 90
6
176
1
 90
2
176
1
 62
7
176
1
 90
5
176
1
 90
0
176
1
 90
0
176
1
290
0
176
1
 90
1
176
1
 40
0.0
176
1
 90
0
176
1
290
0
176
1
290
1
176
1
290
1
176
1
290
0
176
1
290
0
176
1
290
0
176
1
290
0
176
1
290
0
176
1
290
0
176
1
 90
50
176
1
 40
0.0
176
1
 40
1.0
176
1
 90
0
176
1
 62
18
420
0
176
1
 90
50
176
1
 90
3
176
1
 62
5
420
255
176
1
290
0
176
1
 90
50
176
1
 90
50
176
1
 90
50
176
1
290
0
176
1
 90
50
176
1
 62
256
176
0
 40
1.0
176
0
 90
2
176
1
  1
strokes_ogs.tif
176
1
290
0
176
1
 40
1.0
176
1
 40
1.0
176
1
  0
VISUALSTYLE
  5
67
102
{ACAD_REACTORS
330
16
102
}
330
16
100
AcDbVisualStyle
  2
JitterOff
 70
20
177
3
291
1
 70
58
 90
2
176
1
 90
2
176
1
 90
0
176
1
 90
2
176
1
 40
0.6
176
1
 40
30.0
176
1
 62
7
420
16777215
176
1
 90
1
176
1
 90
4
176
1
 62
7
176
1
 62
257
176
1
 90
1
176
1
 90
1
176
1
 40
1.0
176
1
 90
8
176
1
 62
7
176
1
 40
1.0
176
1
 90
1
176
1
 90
6
176
1
 90
2
176
1
 62
7
176
1
 90
5
176
1
 90
0
176
1
 90
0
176
1
290
0
176
1
 90
1
176
1
 40
0.0
176
1
 90
0
176
1
290
0
176
1
290
1
176
1
290
1
176
1
290
0
176
1
290
0
176
1
290
0
176
1
290
0
176
1
290
0
176
1
290
0
176
1
 90
50
176
1
 40
0.0
176
1
 40
1.0
176
1
 90
0
176
1
 62
18
420
0
176
1
 90
50
176
1
 90
3
176
1
 62
5
420
255
176
1
290
0
176
1
 90
50
176
1
 90
50
176
1
 90
50
176
1
290
0
176
1
 90
50
176
1
 62
256
176
0
 40
1.0
176
0
 90
2
176
1
  1
strokes_ogs.tif
176
1
290
0
176
1
 40
1.0
176
1
 40
1.0
176
1
  0
VISUALSTYLE
  5
68
102
{ACAD_REACTORS
330
16
102
}
330
16
100
AcDbVisualStyle
  2
Linepattern
 70
14
177
3
291
1
 70
58
 90
2
176
1
 90
2
176
1
 90
0
176
1
 90
2
176
1
 40
0.6
176
1
 40
30.0
176
1
 62
7
420
16777215
176
1
 90
1
176
1
 90
4
176
1
 62
7
176
1
 62
257
176
1
 90
1
176
1
 90
1
176
1
 40
1.0
176
1
 90
8
176
1
 62
7
176
1
 40
1.0
176
1
 90
1
176
1
 90
6
176
1
 90
2
176
1
 62
7
176
1
 90
5
176
1
 90
0
176
1
 90
0
176
1
290
0
176
1
 90
1
176
1
 40
0.0
176
1
 90
0
176
1
290
0
176
1
290
1
176
1
290
1
176
1
290
0
176
1
290
0
176
1
290
0
176
1
290
0
176
1
290
0
176
1
290
0
176
1
 90
50
176
1
 40
0.0
176
1
 40
1.0
176
1
 90
0
176
1
 62
18
420
0
176
1
 90
50
176
1
 90
3
176
1
 62
5
420
255
176
1
290
0
176
1
 90
50
176
1
 90
50
176
1
 90
50
176
1
290
0
176
1
 90
50
176
1
 62
256
176
0
 40
1.0
176
0
 90
2
176
1
  1
strokes_ogs.tif
176
1
290
0
176
1
 40
1.0
176
1
 40
1.0
176
1
  0
VISUALSTYLE
  5
69
102
{ACAD_REACTORS
330
16
102
}
330
16
100
AcDbVisualStyle
  2
Modeling
 70
10
177
3
291
0
 70
58
 90
2
176
1
 90
2
176
1
 90
0
176
1
 90
2
176
1
 40
0.6
176
1
 40
30.0
176
1
 62
7
420
16777215
176
1
 90
1
176
1
 90
4
176
1
 62
7
176
1
 62
257
176
1
 90
1
176
1
 90
1
176
1
 40
1.0
176
1
 90
8
176
1
 62
7
176
1
 40
1.0
176
1
 90
1
176
1
 90
6
176
1
 90
2
176
1
 62
7
176
1
 90
5
176
1
 90
0
176
1
 90
0
176
1
290
0
176
1
 90
1
176
1
 40
0.0
176
1
 90
0
176
1
290
0
176
1
290
1
176
1
290
1
176
1
290
0
176
1
290
0
176
1
290
0
176
1
290
0
176
1
290
0
176
1
290
0
176
1
 90
50
176
1
 40
0.0
176
1
 40
1.0
176
1
 90
0
176
1
 62
18
420
0
176
1
 90
50
176
1
 90
3
176
1
 62
5
420
255
176
1
290
0
176
1
 90
50
176
1
 90
50
176
1
 90
50
176
1
290
0
176
1
 90
50
176
1
 62
256
176
0
 40
1.0
176
0
 90
2
176
1
  1
strokes_ogs.tif
176
1
290
0
176
1
 40
1.0
176
1
 40
1.0
176
1
  0
VISUALSTYLE
  5
6A
102
{ACAD_REACTORS
330
16
102
}
330
16
100
AcDbVisualStyle
  2
OverhangOff
 70
21
177
3
291
1
 70
58
 90
2
176
1
 90
2
176
1
 90
0
176
1
 90
2
176
1
 40
0.6
176
1
 40
30.0
176
1
 62
7
420
16777215
176
1
 90
1
176
1
 90
4
176
1
 62
7
176
1
 62
257
176
1
 90
1
176
1
 90
1
176
1
 40
1.0
176
1
 90
8
176
1
 62
7
176
1
 40
1.0
176
1
 90
1
176
1
 90
6
176
1
 90
2
176
1
 62
7
176
1
 90
5
176
1
 90
0
176
1
 90
0
176
1
290
0
176
1
 90
1
176
1
 40
0.0
176
1
 90
0
176
1
290
0
176
1
290
1
176
1
290
1
176
1
290
0
176
1
290
0
176
1
290
0
176
1
290
0
176
1
290
0
176
1
290
0
176
1
 90
50
176
1
 40
0.0
176
1
 40
1.0
176
1
 90
0
176
1
 62
18
420
0
176
1
 90
50
176
1
 90
3
176
1
 62
5
420
255
176
1
290
0
176
1
 90
50
176
1
 90
50
176
1
 90
50
176
1
290
0
176
1
 90
50
176
1
 62
256
176
0
 40
1.0
176
0
 90
2
176
1
  1
strokes_ogs.tif
176
1
290
0
176
1
 40
1.0
176
1
 40
1.0
176
1
  0
VISUALSTYLE
  5
6B
102
{ACAD_REACTORS
330
16
102
}
330
16
100
AcDbVisualStyle
  2
Realistic
 70
8
177
3
291
0
 70
58
 90
2
176
1
 90
2
176
1
 90
0
176
1
 90
2
176
1
 40
0.6
176
1
 40
30.0
176
1
 62
7
420
16777215
176
1
 90
1
176
1
 90
4
176
1
 62
7
176
1
 62
257
176
1
 90
1
176
1
 90
1
176
1
 40
1.0
176
1
 90
8
176
1
 62
7
176
1
 40
1.0
176
1
 90
1
176
1
 90
6
176
1
 90
2
176
1
 62
7
176
1
 90
5
176
1
 90
0
176
1
 90
0
176
1
290
0
176
1
 90
1
176
1
 40
0.0
176
1
 90
0
176
1
290
0
176
1
290
1
176
1
290
1
176
1
290
0
176
1
290
0
176
1
290
0
176
1
290
0
176
1
290
0
176
1
290
0
176
1
 90
50
176
1
 40
0.0
176
1
 40
1.0
176
1
 90
0
176
1
 62
18
420
0
176
1
 90
50
176
1
 90
3
176
1
 62
5
420
255
176
1
290
0
176
1
 90
50
176
1
 90
50
176
1
 90
50
176
1
290
0
176
1
 90
50
176
1
 62
256
176
0
 40
1.0
176
0
 90
2
176
1
  1
strokes_ogs.tif
176
1
290
0
176
1
 40
1.0
176
1
 40
1.0
176
1
  0
VISUALSTYLE
  5
6C
102
{ACAD_REACTORS
330
16
102
}
330
16
100
AcDbVisualStyle
  2
Shaded
 70
27
177
3
291
0
 70
58
 90
2
176
1
 90
2
176
1
 90
0
176
1
 90
2
176
1
 40
0.6
176
1
 40
30.0
176
1
 62
7
420
16777215
176
1
 90
1
176
1
 90
4
176
1
 62
7
176
1
 62
257
176
1
 90
1
176
1
 90
1
176
1
 40
1.0
176
1
 90
8
176
1
 62
7
176
1
 40
1.0
176
1
 90
1
176
1
 90
6
176
1
 90
2
176
1
 62
7
176
1
 90
5
176
1
 90
0
176
1
 90
0
176
1
290
0
176
1
 90
1
176
1
 40
0.0
176
1
 90
0
176
1
290
0
176
1
290
1
176
1
290
1
176
1
290
0
176
1
290
0
176
1
290
0
176
1
290
0
176
1
290
0
176
1
290
0
176
1
 90
50
176
1
 40
0.0
176
1
 40
1.0
176
1
 90
0
176
1
 62
18
420
0
176
1
 90
50
176
1
 90
3
176
1
 62
5
420
255
176
1
290
0
176
1
 90
50
176
1
 90
50
176
1
 90
50
176
1
290
0
176
1
 90
50
176
1
 62
256
176
0
 40
1.0
176
0
 90
2
176
1
  1
strokes_ogs.tif
176
1
290
0
176
1
 40
1.0
176
1
 40
1.0
176
1
  0
VISUALSTYLE
  5
6D
102
{ACAD_REACTORS
330
16
102
}
330
16
100
AcDbVisualStyle
  2
Shaded with edges
 70
26
177
3
291
0
 70
58
 90
2
176
1
 90
2
176
1
 90
0
176
1
 90
2
176
1
 40
0.6
176
1
 40
30.0
176
1
 62
7
420
16777215
176
1
 90
1
176
1
 90
4
176
1
 62
7
176
1
 62
257
176
1
 90
1
176
1
 90
1
176
1
 40
1.0
176
1
 90
8
176
1
 62
7
176
1
 40
1.0
176
1
 90
1
176
1
 90
6
176
1
 90
2
176
1
 62
7
176
1
 90
5
176
1
 90
0
176
1
 90
0
176
1
290
0
176
1
 90
1
176
1
 40
0.0
176
1
 90
0
176
1
290
0
176
1
290
1
176
1
290
1
176
1
290
0
176
1
290
0
176
1
290
0
176
1
290
0
176
1
290
0
176
1
290
0
176
1
 90
50
176
1
 40
0.0
176
1
 40
1.0
176
1
 90
0
176
1
 62
18
420
0
176
1
 90
50
176
1
 90
3
176
1
 62
5
420
255
176
1
290
0
176
1
 90
50
176
1
 90
50
176
1
 90
50
176
1
290
0
176
1
 90
50
176
1
 62
256
176
0
 40
1.0
176
0
 90
2
176
1
  1
strokes_ogs.tif
176
1
290
0
176
1
 40
1.0
176
1
 40
1.0
176
1
  0
VISUALSTYLE
  5
6E
102
{ACAD_REACTORS
330
16
102
}
330
16
100
AcDbVisualStyle
  2
Shades of Gray
 70
23
177
3
291
0
 70
58
 90
2
176
1
 90
2
176
1
 90
0
176
1
 90
2
176
1
 40
0.6
176
1
 40
30.0
176
1
 62
7
420
16777215
176
1
 90
1
176
1
 90
4
176
1
 62
7
176
1
 62
257
176
1
 90
1
176
1
 90
1
176
1
 40
1.0
176
1
 90
8
176
1
 62
7
176
1
 40
1.0
176
1
 90
1
176
1
 90
6
176
1
 90
2
176
1
 62
7
176
1
 90
5
176
1
 90
0
176
1
 90
0
176
1
290
0
176
1
 90
1
176
1
 40
0.0
176
1
 90
0
176
1
290
0
176
1
290
1
176
1
290
1
176
1
290
0
176
1
290
0
176
1
290
0
176
1
290
0
176
1
290
0
176
1
290
0
176
1
 90
50
176
1
 40
0.0
176
1
 40
1.0
176
1
 90
0
176
1
 62
18
420
0
176
1
 90
50
176
1
 90
3
176
1
 62
5
420
255
176
1
290
0
176
1
 90
50
176
1
 90
50
176
1
 90
50
176
1
290
0
176
1
 90
50
176
1
 62
256
176
0
 40
1.0
176
0
 90
2
176
1
  1
strokes_ogs.tif
176
1
290
0
176
1
 40
1.0
176
1
 40
1.0
176
1
  0
VISUALSTYLE
  5
6F
102
{ACAD_REACTORS
330
16
102
}
330
16
100
AcDbVisualStyle
  2
Sketchy
 70
24
177
3
291
0
 70
58
 90
2
176
1
 90
2
176
1
 90
0
176
1
 90
1
176
1
 40
0.6
176
1
 40
30.0
176
1
 62
7
420
16777215
176
1
 90
1
176
1
 90
4
176
1
 62
7
176
1
 62
257
176
1
 90
1
176
1
 90
1
176
1
 40
1.0
176
1
 90
8
176
1
 62
7
176
1
 40
1.0
176
1
 90
1
176
1
 90
6
176
1
 90
2
176
1
 62
7
176
1
 90
5
176
1
 90
0
176
1
 90
0
176
1
290
0
176
1
 90
1
176
1
 40
0.0
176
1
 90
0
176
1
290
0
176
1
290
1
176
1
290
1
176
1
290
0
176
1
290
0
176
1
290
0
176
1
290
0
176
1
290
0
176
1
290
0
176
1
 90
50
176
1
 40
0.0
176
1
 40
1.0
176
1
 90
0
176
1
 62
18
420
0
176
1
 90
50
176
1
 90
3
176
1
 62
5
420
255
176
1
290
0
176
1
 90
50
176
1
 90
50
176
1
 90
50
176
1
290
0
176
1
 90
50
176
1
 62
256
176
0
 40
1.0
176
0
 90
2
176
1
  1
strokes_ogs.tif
176
1
290
0
176
1
 40
1.0
176
1
 40
1.0
176
1
  0
VISUALSTYLE
  5
70
102
{ACAD_REACTORS
330
16
102
}
330
16
100
AcDbVisualStyle
  2
Thicken
 70
13
177
3
291
1
 70
58
 90
2
176
1
 90
2
176
1
 90
0
176
1
 90
2
176
1
 40
0.6
176
1
 40
30.0
176
1
 62
7
420
16777215
176
1
 90
1
176
1
 90
4
176
1
 62
7
176
1
 62
257
176
1
 90
1
176
1
 90
1
176
1
 40
1.0
176
1
 90
8
176
1
 62
7
176
1
 40
1.0
176
1
 90
1
176
1
 90
6
176
1
 90
2
176
1
 62
7
176
1
 90
5
176
1
 90
0
176
1
 90
0
176
1
290
0
176
1
 90
1
176
1
 40
0.0
176
1
 90
0
176
1
290
0
176
1
290
1
176
1
290
1
176
1
290
0
176
1
290
0
176
1
290
0
176
1
290
0
176
1
290
0
176
1
290
0
176
1
 90
50
176
1
 40
0.0
176
1
 40
1.0
176
1
 90
0
176
1
 62
18
420
0
176
1
 90
50
176
1
 90
3
176
1
 62
5
420
255
176
1
290
0
176
1
 90
50
176
1
 90
50
176
1
 90
50
176
1
290
0
176
1
 90
50
176
1
 62
256
176
0
 40
1.0
176
0
 90
2
176
1
  1
strokes_ogs.tif
176
1
290
0
176
1
 40
1.0
176
1
 40
1.0
176
1
  0
VISUALSTYLE
  5
71
102
{ACAD_REACTORS
330
16
102
}
330
16
100
AcDbVisualStyle
  2
Wireframe
 70
5
177
3
291
0
 70
58
 90
2
176
1
 90
2
176
1
 90
0
176
1
 90
0
176
1
 40
0.6
176
1
 40
30.0
176
1
 62
7
420
16777215
176
1
 90
1
176
1
 90
4
176
1
 62
7
176
1
 62
257
176
1
 90
1
176
1
 90
1
176
1
 40
1.0
176
1
 90
8
176
1
 62
7
176
1
 40
1.0
176
1
 90
1
176
1
 90
6
176
1
 90
2
176
1
 62
7
176
1
 90
5
176
1
 90
0
176
1
 90
0
176
1
290
0
176
1
 90
1
176
1
 40
0.0
176
1
 90
0
176
1
290
0
176
1
290
1
176
1
290
1
176
1
290
0
176
1
290
0
176
1
290
0
176
1
290
0
176
1
290
0
176
1
290
0
176
1
 90
50
176
1
 40
0.0
176
1
 40
1.0
176
1
 90
0
176
1
 62
18
420
0
176
1
 90
50
176
1
 90
3
176
1
 62
5
420
255
176
1
290
0
176
1
 90
50
176
1
 90
50
176
1
 90
50
176
1
290
0
176
1
 90
50
176
1
 62
256
176
0
 40
1.0
176
0
 90
2
176
1
  1
strokes_ogs.tif
176
1
290
0
176
1
 40
1.0
176
1
 40
1.0
176
1
  0
VISUALSTYLE
  5
72
102
{ACAD_REACTORS
330
16
102
}
330
16
100
AcDbVisualStyle
  2
X-Ray
 70
25
177
3
291
0
 70
58
 90
2
176
1
 90
2
176
1
 90
0
176
1
 90
2
176
1
 40
0.5
176
1
 40
30.0
176
1
 62
7
420
16777215
176
1
 90
1
176
1
 90
4
176
1
 62
7
176
1
 62
257
176
1
 90
1
176
1
 90
1
176
1
 40
1.0
176
1
 90
8
176
1
 62
7
176
1
 40
1.0
176
1
 90
1
176
1
 90
6
176
1
 90
2
176
1
 62
7
176
1
 90
5
176
1
 90
0
176
1
 90
0
176
1
290
0
176
1
 90
1
176
1
 40
0.0
176
1
 90
0
176
1
290
0
176
1
290
1
176
1
290
1
176
1
290
0
176
1
290
0
176
1
290
0
176
1
290
0
176
1
290
0
176
1
290
0
176
1
 90
50
176
1
 40
0.0
176
1
 40
1.0
176
1
 90
0
176
1
 62
18
420
0
176
1
 90
50
176
1
 90
3
176
1
 62
5
420
255
176
1
290
0
176
1
 90
50
176
1
 90
50
176
1
 90
50
176
1
290
0
176
1
 90
50
176
1
 62
256
176
0
 40
1.0
176
0
 90
2
176
1
  1
strokes_ogs.tif
176
1
290
0
176
1
 40
1.0
176
1
 40
1.0
176
1
  0
DICTIONARYVAR
  5
171
330
2D
100
DictionaryVariables
280
0
  1
1.4.4 @ 2026-09-22T12:59:42.792194+00:00
  0
ENDSEC
  0
EOF
