  0
SECTION
  2
HEADER
  9
$ACADVER
  1
AC1027
  9
$ACADMAINTVER
 70
105
  9
$DWGCODEPAGE
  3
ANSI_1252
  9
$LASTSAVEDBY
  1
ezdxf
  9
$REQUIREDVERSIONS
160
0
  9
$INSBASE
 10
0.0
 20
0.0
 30
0.0
  9
$EXTMIN
 10
1e+20
 20
1e+20
 30
1e+20
  9
$EXTMAX
 10
-1e+20
 20
-1e+20
 30
-1e+20
  9
$LIMMIN
 10
0.0
 20
0.0
  9
$LIMMAX
 10
420.0
 20
297.0
  9
$ORTHOMODE
 70
0
  9
$REGENMODE
 70
1
  9
$FILLMODE
 70
1
  9
$QTEXTMODE
 70
0
  9
$MIRRTEXT
 70
1
  9
$LTSCALE
 40
1.0
  9
$ATTMODE
 70
1
  9
$TEXTSIZE
 40
2.5
  9
$TRACEWID
 40
1.0
  9
$TEXTSTYLE
  7
OpenSans
  9
$CLAYER
  8
0
  9
$CELTYPE
  6
ByLayer
  9
$CECOLOR
 62
256
  9
$CELTSCALE
 40
1.0
  9
$DISPSILH
 70
0
  9
$DIMSCALE
 40
1.0
  9
$DIMASZ
 40
0.175
  9
$DIMEXO
 40
0.125
  9
$DIMDLI
 40
3.75
  9
$DIMRND
 40
0.0
  9
$DIMDLE
 40
0.0
  9
$DIMEXE
 40
0.375
  9
$DIMTP
 40
0.0
  9
$DIMTM
 40
0.0
  9
$DIMTXT
 40
0.25
  9
$DIMCEN
 40
2.5
  9
$DIMTSZ
 40
0.0
  9
$DIMTOL
 70
0
  9
$DIMLIM
 70
0
  9
$DIMTIH
 70
0
  9
$DIMTOH
 70
0
  9
$DIMSE1
 70
0
  9
$DIMSE2
 70
0
  9
$DIMTAD
 70
1
  9
$DIMZIN
 70
12
  9
$DIMBLK
  1
ARCHTICK
  9
$DIMASO
 70
1
  9
$DIMSHO
 70
1
  9
$DIMPOST
  1

  9
$DIMAPOST
  1

  9
$DIMALT
 70
0
  9
$DIMALTD
 70
3
  9
$DIMALTF
 40
0.03937007874
  9
$DIMLFAC
 40
100.0
  9
$DIMTOFL
 70
1
  9
$DIMTVP
 40
0.0
  9
$DIMTIX
 70
0
  9
$DIMSOXD
 70
0
  9
$DIMSAH
 70
0
  9
$DIMBLK1
  1

  9
$DIMBLK2
  1

  9
$DIMSTYLE
  2
EZDXF
  9
$DIMCLRD
 70
0
  9
$DIMCLRE
 70
0
  9
$DIMCLRT
 70
0
  9
$DIMTFAC
 40
0.5
  9
$DIMGAP
 40
0.1
  9
$DIMJUST
 70
0
  9
$DIMSD1
 70
0
  9
$DIMSD2
 70
0
  9
$DIMTOLJ
 70
0
  9
$DIMTZIN
 70
8
  9
$DIMALTZ
 70
0
  9
$DIMALTTZ
 70
0
  9
$DIMUPT
 70
1
  9
$DIMDEC
 70
2
  9
$DIMTDEC
 70
2
  9
$DIMALTU
 70
2
  9
$DIMALTTD
 70
3
  9
$DIMTXSTY
  7
OpenSansCondensed-Light
  9
$DIMAUNIT
 70
0
  9
$DIMADEC
 70
2
  9
$DIMALTRND
 40
0.0
  9
$DIMAZIN
 70
3
  9
$DIMDSEP
 70
46
  9
$DIMATFIT
 70
3
  9
$DIMFRAC
 70
0
  9
$DIMLDRBLK
  1

  9
$DIMLUNIT
 70
2
  9
$DIMLWD
 70
-2
  9
$DIMLWE
 70
-2
  9
$DIMTMOVE
 70
2
  9
$DIMFXL
 40
1.0
  9
$DIMFXLON
 70
0
  9
$DIMJOGANG
 40
0.785398163397
  9
$DIMTFILL
 70
0
  9
$DIMTFILLCLR
 70
0
  9
$DIMARCSYM
 70
0
  9
$DIMLTYPE
  6

  9
$DIMLTEX1
  6

  9
$DIMLTEX2
  6

  9
$DIMTXTDIRECTION
 70
0
  9
$LUNITS
 70
2
  9
$LUPREC
 70
4
  9
$SKETCHINC
 40
1.0
  9
$FILLETRAD
 40
10.0
  9
$AUNITS
 70
0
  9
$AUPREC
 70
2
  9
$MENU
  1
.
  9
$ELEVATION
 40
0.0
  9
$PELEVATION
 40
0.0
  9
$THICKNESS
 40
0.0
  9
$LIMCHECK
 70
0
  9
$CHAMFERA
 40
0.0
  9
$CHAMFERB
 40
0.0
  9
$CHAMFERC
 40
0.0
  9
$CHAMFERD
 40
0.0
  9
$SKPOLY
 70
0
  9
$TDCREATE
 40
2461307.9894675924
  9
$TDUCREATE
 40
2458532.153996898
  9
$TDUPDATE
 40
2461307.9894675924
  9
$TDUUPDATE
 40
2458532.1544311
  9
$TDINDWG
 40
0.0
  9
$TDUSRTIMER
 40
0.0
  9
$USRTIMER
 70
1
  9
$ANGBASE
 50
0.0
  9
$ANGDIR
 70
0
  9
$PDMODE
 70
0
  9
$PDSIZE
 40
0.0
  9
$PLINEWID
 40
0.0
  9
$SPLFRAME
 70
0
  9
$SPLINETYPE
 70
6
  9
$SPLINESEGS
 70
8
  9
$HANDSEED
  5
16E
  9
$SURFTAB1
 70
6
  9
$SURFTAB2
 70
6
  9
$SURFTYPE
 70
6
  9
$SURFU
 70
6
  9
$SURFV
 70
6
  9
$UCSBASE
  2

  9
$UCSNAME
  2

  9
$UCSORG
 10
0.0
 20
0.0
 30
0.0
  9
$UCSXDIR
 10
1.0
 20
0.0
 30
0.0
  9
$UCSYDIR
 10
0.0
 20
1.0
 30
0.0
  9
$UCSORTHOREF
  2

  9
$UCSORTHOVIEW
 70
0
  9
$UCSORGTOP
 10
0.0
 20
0.0
 30
0.0
  9
$UCSORGBOTTOM
 10
0.0
 20
0.0
 30
0.0
  9
$UCSORGLEFT
 10
0.0
 20
0.0
 30
0.0
  9
$UCSORGRIGHT
 10
0.0
 20
0.0
 30
0.0
  9
$UCSORGFRONT
 10
0.0
 20
0.0
 30
0.0
  9
$UCSORGBACK
 10
0.0
 20
0.0
 30
0.0
  9
$PUCSBASE
  2

  9
$PUCSNAME
  2

  9
$PUCSORG
 10
0.0
 20
0.0
 30
0.0
  9
$PUCSXDIR
 10
1.0
 20
0.0
 30
0.0
  9
$PUCSYDIR
 10
0.0
 20
1.0
 30
0.0
  9
$PUCSORTHOREF
  2

  9
$PUCSORTHOVIEW
 70
0
  9
$PUCSORGTOP
 10
0.0
 20
0.0
 30
0.0
  9
$PUCSORGBOTTOM
 10
0.0
 20
0.0
 30
0.0
  9
$PUCSORGLEFT
 10
0.0
 20
0.0
 30
0.0
  9
$PUCSORGRIGHT
 10
0.0
 20
0.0
 30
0.0
  9
$PUCSORGFRONT
 10
0.0
 20
0.0
 30
0.0
  9
$PUCSORGBACK
 10
0.0
 20
0.0
 30
0.0
  9
$USERI1
 70
0
  9
$USERI2
 70
0
  9
$USERI3
 70
0
  9
$USERI4
 70
0
  9
$USERI5
 70
0
  9
$USERR1
 40
0.0
  9
$USERR2
 40
0.0
  9
$USERR3
 40
0.0
  9
$USERR4
 40
0.0
  9
$USERR5
 40
0.0
  9
$WORLDVIEW
 70
1
  9
$SHADEDGE
 70
3
  9
$SHADEDIF
 70
70
  9
$TILEMODE
 70
1
  9
$MAXACTVP
 70
64
  9
$PINSBASE
 10
0.0
 20
0.0
 30
0.0
  9
$PLIMCHECK
 70
0
  9
$PEXTMIN
 10
1e+20
 20
1e+20
 30
1e+20
  9
$PEXTMAX
 10
-1e+20
 20
-1e+20
 30
-1e+20
  9
$PLIMMIN
 10
0.0
 20
0.0
  9
$PLIMMAX
 10
420.0
 20
297.0
  9
$UNITMODE
 70
0
  9
$VISRETAIN
 70
1
  9
$PLINEGEN
 70
0
  9
$PSLTSCALE
 70
1
  9
$TREEDEPTH
 70
3020
  9
$CMLSTYLE
  2
Standard
  9
$CMLJUST
 70
0
  9
$CMLSCALE
 40
20.0
  9
$PROXYGRAPHICS
 70
1
  9
$MEASUREMENT
 70
1
  9
$CELWEIGHT
370
-1
  9
$ENDCAPS
280
0
  9
$JOINSTYLE
280
0
  9
$LWDISPLAY
290
0
  9
$INSUNITS
 70
4
  9
$HYPERLINKBASE
  1

  9
$STYLESHEET
  1

  9
$XEDIT
290
1
  9
$CEPSNTYPE
380
0
  9
$PSTYLEMODE
290
1
  9
$FINGERPRINTGUID
  2
{B40013D6-A06D-48A3-9B2A-6F3DC43DE418}
  9
$VERSIONGUID
  2
{9F5DE56D-FD74-4469-8A6D-1DEEFEBFAD75}
  9
$EXTNAMES
290
1
  9
$PSVPSCALE
 40
0.0
  9
$OLESTARTUP
290
0
  9
$SORTENTS
280
127
  9
$INDEXCTL
280
0
  9
$HIDETEXT
280
1
  9
$XCLIPFRAME
280
1
  9
$HALOGAP
280
0
  9
$OBSCOLOR
 70
257
  9
$OBSLTYPE
280
0
  9
$INTERSECTIONDISPLAY
280
0
  9
$INTERSECTIONCOLOR
 70
257
  9
$DIMASSOC
280
2
  9
$PROJECTNAME
  1

  9
$CAMERADISPLAY
290
0
  9
$LENSLENGTH
 40
50.0
  9
$CAMERAHEIGHT
 40
0.0
  9
$STEPSPERSEC
 40
24.0
  9
$STEPSIZE
 40
100.0
  9
$3DDWFPREC
 40
2.0
  9
$PSOLWIDTH
 40
0.005
  9
$PSOLHEIGHT
 40
0.08
  9
$LOFTANG1
 40
1.570796326795
  9
$LOFTANG2
 40
1.570796326795
  9
$LOFTMAG1
 40
0.0
  9
$LOFTMAG2
 40
0.0
  9
$LOFTPARAM
 70
7
  9
$LOFTNORMALS
280
1
  9
$LATITUDE
 40
37.795
  9
$LONGITUDE
 40
-122.394
  9
$NORTHDIRECTION
 40
0.0
  9
$TIMEZONE
 70
-8000
  9
$LIGHTGLYPHDISPLAY
280
1
  9
$TILEMODELIGHTSYNCH
280
1
  9
$CMATERIAL
347
20
  9
$SOLIDHIST
280
0
  9
$SHOWHIST
280
1
  9
$DWFFRAME
280
2
  9
$DGNFRAME
280
2
  9
$REALWORLDSCALE
290
1
  9
$INTERFERECOLOR
 62
256
  9
$CSHADOW
280
0
  9
$SHADOWPLANELOCATION
 40
0.0
  0
ENDSEC
  0
SECTION
  2
CLASSES
  0
CLASS
  1
ACDBDICTIONARYWDFLT
  2
AcDbDictionaryWithDefault
  3
ObjectDBX Classes
 90
0
 91
0
280
0
281
0
  0
CLASS
  1
SUN
  2
AcDbSun
  3
SCENEOE
 90
1153
 91
0
280
0
281
0
  0
CLASS
  1
VISUALSTYLE
  2
AcDbVisualStyle
  3
ObjectDBX Classes
 90
4095
 91
0
280
0
281
0
  0
CLASS
  1
MATERIAL
  2
AcDbMaterial
  3
ObjectDBX Classes
 90
1153
 91
0
280
0
281
0
  0
CLASS
  1
SCALE
  2
AcDbScale
  3
ObjectDBX Classes
 90
1153
 91
0
280
0
281
0
  0
CLASS
  1
TABLESTYLE
  2
AcDbTableStyle
  3
ObjectDBX Classes
 90
4095
 91
0
280
0
281
0
  0
CLASS
  1
MLEADERSTYLE
  2
AcDbMLeaderStyle
  3
ACDB_MLEADERSTYLE_CLASS
 90
4095
 91
0
280
0
281
0
  0
CLASS
  1
DICTIONARYVAR
  2
AcDbDictionaryVar
  3
ObjectDBX Classes
 90
0
 91
0
280
0
281
0
  0
CLASS
  1
CELLSTYLEMAP
  2
AcDbCellStyleMap
  3
ObjectDBX Classes
 90
1152
 91
0
280
0
281
0
  0
CLASS
  1
MENTALRAYRENDERSETTINGS
  2
AcDbMentalRayRenderSettings
  3
SCENEOE
 90
1024
 91
0
280
0
281
0
  0
CLASS
  1
ACDBDETAILVIEWSTYLE
  2
AcDbDetailViewStyle
  3
ObjectDBX Classes
 90
1025
 91
0
280
0
281
0
  0
CLASS
  1
ACDBSECTIONVIEWSTYLE
  2
AcDbSectionViewStyle
  3
ObjectDBX Classes
 90
1025
 91
0
280
0
281
0
  0
CLASS
  1
RASTERVARIABLES
  2
AcDbRasterVariables
  3
ISM
 90
0
 91
0
280
0
281
0
  0
CLASS
  1
LAYOUT
  2
AcDbLayout
  3
ObjectDBX Classes
 90
0
 91
0
280
0
281
0
  0
CLASS
  1
ACDBPLACEHOLDER
  2
AcDbPlaceHolder
  3
ObjectDBX Classes
 90
0
 91
0
280
0
281
0
  0
ENDSEC
  0
SECTION
  2
TABLES
  0
TABLE
  2
VPORT
  5
8
330
0
100
AcDbSymbolTable
 70
1
  0
VPORT
  5
23
330
8
100
AcDbSymbolTableRecord
100
AcDbViewportTableRecord
  2
*Active
 70
0
 10
0.0
 20
0.0
 11
1.0
 21
1.0
 12
0.0
 22
0.0
 13
0.0
 23
0.0
 14
0.5
 24
0.5
 15
0.5
 25
0.5
 16
0.0
 26
0.0
 36
1.0
 17
0.0
 27
0.0
 37
0.0
 40
1000.0
 41
1.34
 42
50.0
 43
0.0
 44
0.0
 50
0.0
 51
0.0
 71
0
 72
1000
 73
1
 74
3
 75
0
 76
0
 77
0
 78
0
281
0
 65
0
146
0.0
  0
ENDTAB
  0
TABLE
  2
LTYPE
  5
2
330
0
100
AcDbSymbolTable
 70
21
  0
LTYPE
  5
24
330
2
100
AcDbSymbolTableRecord
100
AcDbLinetypeTableRecord
  2
ByBlock
 70
0
  3

 72
65
 73
0
 40
0.0
  0
LTYPE
  5
25
330
2
100
AcDbSymbolTableRecord
100
AcDbLinetypeTableRecord
  2
ByLayer
 70
0
  3

 72
65
 73
0
 40
0.0
  0
LTYPE
  5
26
330
2
100
AcDbSymbolTableRecord
100
AcDbLinetypeTableRecord
  2
Continuous
 70
0
  3

 72
65
 73
0
 40
0.0
  0
LTYPE
  5
2F
330
2
100
AcDbSymbolTableRecord
100
AcDbLinetypeTableRecord
  2
CENTER
 70
0
  3
Center ____ _ ____ _ ____ _ ____ _ ____ _ ____
 72
65
 73
4
 40
5.08
 49
3.175
 74
0
 49
-0.635
 74
0
 49
0.635
 74
0
 49
-0.635
 74
0
  0
LTYPE
  5
30
330
2
100
AcDbSymbolTableRecord
100
AcDbLinetypeTableRecord
  2
CENTERX2
 70
0
  3
Center (2x) ________  __  ________  __  ________
 72
65
 73
4
 40
8.89
 49
6.35
 74
0
 49
-0.635
 74
0
 49
1.27
 74
0
 49
-0.635
 74
0
  0
LTYPE
  5
31
330
2
100
AcDbSymbolTableRecord
100
AcDbLinetypeTableRecord
  2
CENTER2
 70
0
  3
Center (.5x) ____ _ ____ _ ____ _ ____ _ ____
 72
65
 73
4
 40
2.54
 49
1.587
 74
0
 49
-0.318
 74
0
 49
0.318
 74
0
 49
-0.318
 74
0
  0
LTYPE
  5
32
330
2
100
AcDbSymbolTableRecord
100
AcDbLinetypeTableRecord
  2
DASHED
 70
0
  3
Dashed __ __ __ __ __ __ __ __ __ __ __ __ __ _
 72
65
 73
2
 40
1.524
 49
1.27
 74
0
 49
-0.254
 74
0
  0
LTYPE
  5
33
330
2
100
AcDbSymbolTableRecord
100
AcDbLinetypeTableRecord
  2
DASHEDX2
 70
0
  3
Dashed (2x) ____  ____  ____  ____  ____  ____
 72
65
 73
2
 40
3.048
 49
2.54
 74
0
 49
-0.508
 74
0
  0
LTYPE
  5
34
330
2
100
AcDbSymbolTableRecord
100
AcDbLinetypeTableRecord
  2
DASHED2
 70
0
  3
Dashed (.5x) _ _ _ _ _ _ _ _ _ _ _ _ _ _
 72
65
 73
2
 40
0.762
 49
0.635
 74
0
 49
-0.127
 74
0
  0
LTYPE
  5
35
330
2
100
AcDbSymbolTableRecord
100
AcDbLinetypeTableRecord
  2
PHANTOM
 70
0
  3
Phantom ______  __  __  ______  __  __  ______
 72
65
 73
6
 40
6.35
 49
3.175
 74
0
 49
-0.635
 74
0
 49
0.635
 74
0
 49
-0.635
 74
0
 49
0.635
 74
0
 49
-0.635
 74
0
  0
LTYPE
  5
36
330
2
100
AcDbSymbolTableRecord
100
AcDbLinetypeTableRecord
  2
PHANTOMX2
 70
0
  3
Phantom (2x)____________    ____    ____    ____________
 72
65
 73
6
 40
10.795
 49
6.35
 74
0
 49
-0.635
 74
0
 49
1.27
 74
0
 49
-0.635
 74
0
 49
1.27
 74
0
 49
-0.635
 74
0
  0
LTYPE
  5
37
330
2
100
AcDbSymbolTableRecord
100
AcDbLinetypeTableRecord
  2
PHANTOM2
 70
0
  3
Phantom (.5x) ___ _ _ ___ _ _ ___ _ _ ___ _ _ ___
 72
65
 73
6
 40
3.175
 49
1.587
 74
0
 49
-0.318
 74
0
 49
0.318
 74
0
 49
-0.318
 74
0
 49
0.318
 74
0
 49
-0.318
 74
0
  0
LTYPE
  5
38
330
2
100
AcDbSymbolTableRecord
100
AcDbLinetypeTableRecord
  2
DASHDOT
 70
0
  3
Dash dot __ . __ . __ . __ . __ . __ . __ . __
 72
65
 73
4
 40
3.556
 49
2.54
 74
0
 49
-0.508
 74
0
 49
0.0
 74
0
 49
-0.508
 74
0
  0
LTYPE
  5
39
330
2
100
AcDbSymbolTableRecord
100
AcDbLinetypeTableRecord
  2
DASHDOTX2
 70
0
  3
Dash dot (2x) ____  .  ____  .  ____  .  ____
 72
65
 73
4
 40
6.096
 49
5.08
 74
0
 49
-0.508
 74
0
 49
0.0
 74
0
 49
-0.508
 74
0
  0
LTYPE
  5
3A
330
2
100
AcDbSymbolTableRecord
100
AcDbLinetypeTableRecord
  2
DASHDOT2
 70
0
  3
Dash dot (.5x) _ . _ . _ . _ . _ . _ . _ . _
 72
65
 73
4
 40
1.778
 49
1.27
 74
0
 49
-0.254
 74
0
 49
0.0
 74
0
 49
-0.254
 74
0
  0
LTYPE
  5
3B
330
2
100
AcDbSymbolTableRecord
100
AcDbLinetypeTableRecord
  2
DOT
 70
0
  3
Dot .  .  .  .  .  .  .  .  .  .  .  .  .  .  .  .
 72
65
 73
2
 40
0.508
 49
0.0
 74
0
 49
-0.508
 74
0
  0
LTYPE
  5
3C
330
2
100
AcDbSymbolTableRecord
100
AcDbLinetypeTableRecord
  2
DOTX2
 70
0
  3
Dot (2x) .    .    .    .    .    .    .    . 
 72
65
 73
2
 40
1.016
 49
0.0
 74
0
 49
-1.016
 74
0
  0
LTYPE
  5
3D
330
2
100
AcDbSymbolTableRecord
100
AcDbLinetypeTableRecord
  2
DOT2
 70
0
  3
Dot (.5) . . . . . . . . . . . . . . . . . . . 
 72
65
 73
2
 40
0.254
 49
0.0
 74
0
 49
-0.254
 74
0
  0
LTYPE
  5
3E
330
2
100
AcDbSymbolTableRecord
100
AcDbLinetypeTableRecord
  2
DIVIDE
 70
0
  3
Divide __ . . __ . . __ . . __ . . __ . . __
 72
65
 73
6
 40
4.064
 49
2.54
 74
0
 49
-0.508
 74
0
 49
0.0
 74
0
 49
-0.508
 74
0
 49
0.0
 74
0
 49
-0.508
 74
0
  0
LTYPE
  5
3F
330
2
100
AcDbSymbolTableRecord
100
AcDbLinetypeTableRecord
  2
DIVIDEX2
 70
0
  3
Divide (2x) ____  . .  ____  . .  ____  . .  ____
 72
65
 73
6
 40
6.604
 49
5.08
 74
0
 49
-0.508
 74
0
 49
0.0
 74
0
 49
-0.508
 74
0
 49
0.0
 74
0
 49
-0.508
 74
0
  0
LTYPE
  5
40
330
2
100
AcDbSymbolTableRecord
100
AcDbLinetypeTableRecord
  2
DIVIDE2
 70
0
  3
Divide(.5x) _ . _ . _ . _ . _ . _ . _ . _
 72
65
 73
6
 40
2.032
 49
1.27
 74
0
 49
-0.254
 74
0
 49
0.0
 74
0
 49
-0.254
 74
0
 49
0.0
 74
0
 49
-0.254
 74
0
  0
ENDTAB
  0
TABLE
  2
LAYER
  5
1
330
0
100
AcDbSymbolTable
 70
23
  0
LAYER
  5
27
330
1
100
AcDbSymbolTableRecord
100
AcDbLayerTableRecord
  2
0
 70
0
 62
7
  6
Continuous
370
-3
390
13
347
21
  0
LAYER
  5
28
330
1
100
AcDbSymbolTableRecord
100
AcDbLayerTableRecord
  2
Defpoints
 70
0
 62
7
  6
Continuous
290
0
370
-3
390
13
347
21
  0
LAYER
  5
8A
330
1
100
AcDbSymbolTableRecord
100
AcDbLayerTableRecord
  2
00_РАМКА
 70
0
 62
7
  6
CONTINUOUS
370
-3
390
13
347
21
  0
LAYER
  5
8B
330
1
100
AcDbSymbolTableRecord
100
AcDbLayerTableRecord
  2
01_ОБШИВКА
 70
0
 62
7
  6
CONTINUOUS
370
-3
390
13
347
21
  0
LAYER
  5
8C
330
1
100
AcDbSymbolTableRecord
100
AcDbLayerTableRecord
  2
02_ПАЛУБЫ
 70
0
 62
4
  6
CONTINUOUS
370
-3
390
13
347
21
  0
LAYER
  5
8D
330
1
100
AcDbSymbolTableRecord
100
AcDbLayerTableRecord
  2
03_ПЕРЕБОРКИ
 70
0
 62
1
  6
CONTINUOUS
370
-3
390
13
347
21
  0
LAYER
  5
8E
330
1
100
AcDbSymbolTableRecord
100
AcDbLayerTableRecord
  2
04_ЦИСТЕРНЫ
 70
0
 62
3
  6
CONTINUOUS
370
-3
390
13
347
21
  0
LAYER
  5
8F
330
1
100
AcDbSymbolTableRecord
100
AcDbLayerTableRecord
  2
05_ОБОРУДОВАНИЕ
 70
0
 62
5
  6
CONTINUOUS
370
-3
390
13
347
21
  0
LAYER
  5
90
330
1
100
AcDbSymbolTableRecord
100
AcDbLayerTableRecord
  2
06_ПОМЕЩЕНИЯ
 70
0
 62
8
  6
CONTINUOUS
370
-3
390
13
347
21
  0
LAYER
  5
91
330
1
100
AcDbSymbolTableRecord
100
AcDbLayerTableRecord
  2
07_ОСИ
 70
0
 62
2
  6
CENTER
370
-3
390
13
347
21
  0
LAYER
  5
92
330
1
100
AcDbSymbolTableRecord
100
AcDbLayerTableRecord
  2
08_ТЕКСТ
 70
0
 62
7
  6
CONTINUOUS
370
-3
390
13
347
21
  0
LAYER
  5
93
330
1
100
AcDbSymbolTableRecord
100
AcDbLayerTableRecord
  2
09_РАЗМЕРЫ
 70
0
 62
6
  6
CONTINUOUS
370
-3
390
13
347
21
  0
LAYER
  5
94
330
1
100
AcDbSymbolTableRecord
100
AcDbLayerTableRecord
  2
10_НАБОР
 70
0
 62
9
  6
CONTINUOUS
370
-3
390
13
347
21
  0
LAYER
  5
95
330
1
100
AcDbSymbolTableRecord
100
AcDbLayerTableRecord
  2
11_КАЮТЫ
 70
0
 62
30
  6
CONTINUOUS
370
-3
390
13
347
21
  0
LAYER
  5
96
330
1
100
AcDbSymbolTableRecord
100
AcDbLayerTableRecord
  2
12_ТРАПЫ_ЛИФТЫ
 70
0
 62
6
  6
CONTINUOUS
370
-3
390
13
347
21
  0
LAYER
  5
97
330
1
100
AcDbSymbolTableRecord
100
AcDbLayerTableRecord
  2
13_КОЛЁСА
 70
0
 62
1
  6
CONTINUOUS
370
-3
390
13
347
21
  0
LAYER
  5
98
330
1
100
AcDbSymbolTableRecord
100
AcDbLayerTableRecord
  2
14_МЕБЕЛЬ
 70
0
 62
252
  6
CONTINUOUS
370
-3
390
13
347
21
  0
LAYER
  5
9A
330
1
100
AcDbSymbolTableRecord
100
AcDbLayerTableRecord
  2
20_ГРАФИК
 70
0
 62
8
  6
CONTINUOUS
370
-3
390
13
347
21
  0
LAYER
  5
9B
330
1
100
AcDbSymbolTableRecord
100
AcDbLayerTableRecord
  2
21_СЕТКА
 70
0
 62
9
  6
CONTINUOUS
370
-3
390
13
347
21
  0
LAYER
  5
9C
330
1
100
AcDbSymbolTableRecord
100
AcDbLayerTableRecord
  2
22_КРИВАЯ_А
 70
0
 62
5
  6
CONTINUOUS
370
-3
390
13
347
21
  0
LAYER
  5
9D
330
1
100
AcDbSymbolTableRecord
100
AcDbLayerTableRecord
  2
23_КРИВАЯ_Б
 70
0
 62
1
  6
CONTINUOUS
370
-3
390
13
347
21
  0
LAYER
  5
9E
330
1
100
AcDbSymbolTableRecord
100
AcDbLayerTableRecord
  2
24_КРИВАЯ_В
 70
0
 62
3
  6
CONTINUOUS
370
-3
390
13
347
21
  0
LAYER
  5
9F
330
1
100
AcDbSymbolTableRecord
100
AcDbLayerTableRecord
  2
25_КРИВАЯ_Г
 70
0
 62
30
  6
CONTINUOUS
370
-3
390
13
347
21
  0
ENDTAB
  0
TABLE
  2
STYLE
  5
5
330
0
100
AcDbSymbolTable
 70
27
  0
STYLE
  5
29
330
5
100
AcDbSymbolTableRecord
100
AcDbTextStyleTableRecord
  2
Standard
 70
0
 40
0.0
 41
1.0
 50
0.0
 71
0
 42
2.5
  3
txt
  4

  0
STYLE
  5
41
330
5
100
AcDbSymbolTableRecord
100
AcDbTextStyleTableRecord
  2
OpenSans-Light
 70
0
 40
0.0
 41
1.0
 50
0.0
 71
0
 42
2.5
  3
OpenSans-Light.ttf
  4

  0
STYLE
  5
42
330
5
100
AcDbSymbolTableRecord
100
AcDbTextStyleTableRecord
  2
OpenSans-Light-Italic
 70
0
 40
0.0
 41
1.0
 50
0.0
 71
0
 42
2.5
  3
OpenSans-LightItalic.ttf
  4

  0
STYLE
  5
43
330
5
100
AcDbSymbolTableRecord
100
AcDbTextStyleTableRecord
  2
OpenSans
 70
0
 40
0.0
 41
1.0
 50
0.0
 71
0
 42
2.5
  3
OpenSans-Regular.ttf
  4

  0
STYLE
  5
44
330
5
100
AcDbSymbolTableRecord
100
AcDbTextStyleTableRecord
  2
OpenSans-Italic
 70
0
 40
0.0
 41
1.0
 50
0.0
 71
0
 42
2.5
  3
OpenSans-Italic.ttf
  4

  0
STYLE
  5
45
330
5
100
AcDbSymbolTableRecord
100
AcDbTextStyleTableRecord
  2
OpenSans-SemiBold
 70
0
 40
0.0
 41
1.0
 50
0.0
 71
0
 42
2.5
  3
OpenSans-SemiBold.ttf
  4

  0
STYLE
  5
46
330
5
100
AcDbSymbolTableRecord
100
AcDbTextStyleTableRecord
  2
OpenSans-SemiBoldItalic
 70
0
 40
0.0
 41
1.0
 50
0.0
 71
0
 42
2.5
  3
OpenSans-SemiBoldItalic.ttf
  4

  0
STYLE
  5
47
330
5
100
AcDbSymbolTableRecord
100
AcDbTextStyleTableRecord
  2
OpenSans-Bold
 70
0
 40
0.0
 41
1.0
 50
0.0
 71
0
 42
2.5
  3
OpenSans-Bold.ttf
  4

  0
STYLE
  5
48
330
5
100
AcDbSymbolTableRecord
100
AcDbTextStyleTableRecord
  2
OpenSans-BoldItalic
 70
0
 40
0.0
 41
1.0
 50
0.0
 71
0
 42
2.5
  3
OpenSans-BoldItalic.ttf
  4

  0
STYLE
  5
49
330
5
100
AcDbSymbolTableRecord
100
AcDbTextStyleTableRecord
  2
OpenSans-ExtraBold
 70
0
 40
0.0
 41
1.0
 50
0.0
 71
0
 42
2.5
  3
OpenSans-ExtraBold.ttf
  4

  0
STYLE
  5
4A
330
5
100
AcDbSymbolTableRecord
100
AcDbTextStyleTableRecord
  2
OpenSans-ExtraBoldItalic
 70
0
 40
0.0
 41
1.0
 50
0.0
 71
0
 42
2.5
  3
OpenSans-ExtraBoldItalic.ttf
  4

  0
STYLE
  5
4B
330
5
100
AcDbSymbolTableRecord
100
AcDbTextStyleTableRecord
  2
OpenSansCondensed-Bold
 70
0
 40
0.0
 41
1.0
 50
0.0
 71
0
 42
2.5
  3
OpenSansCondensed-Bold.ttf
  4

  0
STYLE
  5
4C
330
5
100
AcDbSymbolTableRecord
100
AcDbTextStyleTableRecord
  2
OpenSansCondensed-Light
 70
0
 40
0.0
 41
1.0
 50
0.0
 71
0
 42
2.5
  3
OpenSansCondensed-Light.ttf
  4

  0
STYLE
  5
4D
330
5
100
AcDbSymbolTableRecord
100
AcDbTextStyleTableRecord
  2
OpenSansCondensed-Italic
 70
0
 40
0.0
 41
1.0
 50
0.0
 71
0
 42
2.5
  3
OpenSansCondensed-LightItalic.ttf
  4

  0
STYLE
  5
4E
330
5
100
AcDbSymbolTableRecord
100
AcDbTextStyleTableRecord
  2
LiberationSans
 70
0
 40
0.0
 41
1.0
 50
0.0
 71
0
 42
2.5
  3
LiberationSans-Regular.ttf
  4

  0
STYLE
  5
4F
330
5
100
AcDbSymbolTableRecord
100
AcDbTextStyleTableRecord
  2
LiberationSans-Bold
 70
0
 40
0.0
 41
1.0
 50
0.0
 71
0
 42
2.5
  3
LiberationSans-Bold.ttf
  4

  0
STYLE
  5
50
330
5
100
AcDbSymbolTableRecord
100
AcDbTextStyleTableRecord
  2
LiberationSans-BoldItalic
 70
0
 40
0.0
 41
1.0
 50
0.0
 71
0
 42
2.5
  3
LiberationSans-BoldItalic.ttf
  4

  0
STYLE
  5
51
330
5
100
AcDbSymbolTableRecord
100
AcDbTextStyleTableRecord
  2
LiberationSans-Italic
 70
0
 40
0.0
 41
1.0
 50
0.0
 71
0
 42
2.5
  3
LiberationSans-Italic.ttf
  4

  0
STYLE
  5
52
330
5
100
AcDbSymbolTableRecord
100
AcDbTextStyleTableRecord
  2
LiberationSerif
 70
0
 40
0.0
 41
1.0
 50
0.0
 71
0
 42
2.5
  3
LiberationSerif-Regular.ttf
  4

  0
STYLE
  5
53
330
5
100
AcDbSymbolTableRecord
100
AcDbTextStyleTableRecord
  2
LiberationSerif-Bold
 70
0
 40
0.0
 41
1.0
 50
0.0
 71
0
 42
2.5
  3
LiberationSerif-Bold.ttf
  4

  0
STYLE
  5
54
330
5
100
AcDbSymbolTableRecord
100
AcDbTextStyleTableRecord
  2
LiberationSerif-BoldItalic
 70
0
 40
0.0
 41
1.0
 50
0.0
 71
0
 42
2.5
  3
LiberationSerif-BoldItalic.ttf
  4

  0
STYLE
  5
55
330
5
100
AcDbSymbolTableRecord
100
AcDbTextStyleTableRecord
  2
LiberationSerif-Italic
 70
0
 40
0.0
 41
1.0
 50
0.0
 71
0
 42
2.5
  3
LiberationSerif-Italic.ttf
  4

  0
STYLE
  5
56
330
5
100
AcDbSymbolTableRecord
100
AcDbTextStyleTableRecord
  2
LiberationMono
 70
0
 40
0.0
 41
1.0
 50
0.0
 71
0
 42
2.5
  3
LiberationMono-Regular.ttf
  4

  0
STYLE
  5
57
330
5
100
AcDbSymbolTableRecord
100
AcDbTextStyleTableRecord
  2
LiberationMono-Bold
 70
0
 40
0.0
 41
1.0
 50
0.0
 71
0
 42
2.5
  3
LiberationMono-Bold.ttf
  4

  0
STYLE
  5
58
330
5
100
AcDbSymbolTableRecord
100
AcDbTextStyleTableRecord
  2
LiberationMono-BoldItalic
 70
0
 40
0.0
 41
1.0
 50
0.0
 71
0
 42
2.5
  3
LiberationMono-BoldItalic.ttf
  4

  0
STYLE
  5
59
330
5
100
AcDbSymbolTableRecord
100
AcDbTextStyleTableRecord
  2
LiberationMono-Italic
 70
0
 40
0.0
 41
1.0
 50
0.0
 71
0
 42
2.5
  3
LiberationMono-Italic.ttf
  4

  0
STYLE
  5
99
330
5
100
AcDbSymbolTableRecord
100
AcDbTextStyleTableRecord
  2
ГОСТ
 70
0
 40
0.0
 41
1.0
 50
0.0
 71
0
 42
2.5
  3
ISOCPEUR.TTF
  4

  0
ENDTAB
  0
TABLE
  2
VIEW
  5
7
330
0
100
AcDbSymbolTable
 70
0
  0
ENDTAB
  0
TABLE
  2
UCS
  5
6
330
0
100
AcDbSymbolTable
 70
0
  0
ENDTAB
  0
TABLE
  2
APPID
  5
3
330
0
100
AcDbSymbolTable
 70
3
  0
APPID
  5
2A
330
3
100
AcDbSymbolTableRecord
100
AcDbRegAppTableRecord
  2
ACAD
 70
0
  0
APPID
  5
16B
330
3
100
AcDbSymbolTableRecord
100
AcDbRegAppTableRecord
  2
HATCHBACKGROUNDCOLOR
 70
0
  0
APPID
  5
16C
330
3
100
AcDbSymbolTableRecord
100
AcDbRegAppTableRecord
  2
EZDXF
 70
0
  0
ENDTAB
  0
TABLE
  2
DIMSTYLE
  5
4
330
0
100
AcDbSymbolTable
 70
12
100
AcDbDimStyleTable
  0
DIMSTYLE
105
2B
330
4
100
AcDbSymbolTableRecord
100
AcDbDimStyleTableRecord
  2
Standard
 70
0
 40
1.0
 41
2.5
 42
0.625
 43
3.75
 44
1.25
 45
0.0
 46
0.0
 47
0.0
 48
0.0
 49
2.5
140
2.5
141
2.5
142
0.0
143
0.03937007874
144
1.0
145
0.0
146
1.0
147
0.625
148
0.0
 69
0
 70
0
 71
0
 72
0
 73
0
 74
0
 75
0
 76
0
 77
1
 78
8
 79
3
170
0
171
3
172
1
173
0
174
0
175
0
176
0
177
0
178
0
179
2
271
2
272
2
273
2
274
3
275
0
276
0
277
2
278
44
279
0
280
0
281
0
282
0
283
0
284
8
285
0
286
0
288
0
289
3
290
0
371
-2
372
-2
  0
DIMSTYLE
105
73
330
4
100
AcDbSymbolTableRecord
100
AcDbDimStyleTableRecord
  2
EZDXF
 70
0
 40
1.0
 41
0.175
 42
0.125
 43
3.75
 44
0.375
 45
0.0
 46
0.0
 47
0.0
 48
0.0
 49
2.5
140
0.25
141
2.5
142
0.0
143
0.03937007874
144
100.0
145
0.0
146
0.5
147
0.1
148
0.0
 69
0
 70
0
 71
0
 72
0
 73
0
 74
0
 75
0
 76
0
 77
1
 78
12
 79
3
170
0
171
3
172
1
173
0
174
0
175
0
176
0
177
0
178
0
179
2
271
2
272
2
273
2
274
3
275
0
276
0
277
2
278
46
279
2
280
0
281
0
282
0
283
0
284
8
285
0
286
0
288
1
289
3
290
0
340
4C
342
74
371
-2
372
-2
  0
DIMSTYLE
105
7C
330
4
100
AcDbSymbolTableRecord
100
AcDbDimStyleTableRecord
  2
EZ_M_100_H25_CM
 70
0
 40
1.0
 41
0.25
 42
0.125
 43
3.75
 44
0.375
 45
0.0
 46
0.0
 47
0.0
 48
0.0
 49
2.5
140
0.25
141
2.5
142
0.125
143
0.03937007874
144
100.0
145
0.0
146
0.5
147
0.1
148
0.0
 69
0
 70
0
 71
0
 72
0
 73
0
 74
0
 75
0
 76
0
 77
1
 78
12
 79
3
170
0
171
3
172
1
173
0
174
0
175
0
176
0
177
0
178
0
179
2
271
2
272
2
273
2
274
3
275
0
276
0
277
2
278
46
279
2
280
0
281
0
282
0
283
0
284
8
285
0
286
0
288
1
289
3
290
0
340
4C
371
-2
372
-2
  0
DIMSTYLE
105
7D
330
4
100
AcDbSymbolTableRecord
100
AcDbDimStyleTableRecord
  2
EZ_M_50_H25_CM
 70
0
 40
1.0
 41
0.125
 42
0.0625
 43
3.75
 44
0.1875
 45
0.0
 46
0.0
 47
0.0
 48
0.0
 49
2.5
140
0.125
141
2.5
142
0.0625
143
0.03937007874
144
100.0
145
0.0
146
0.5
147
0.05
148
0.0
 69
0
 70
0
 71
0
 72
0
 73
0
 74
0
 75
0
 76
0
 77
1
 78
12
 79
3
170
0
171
3
172
1
173
0
174
0
175
0
176
0
177
0
178
0
179
2
271
2
272
2
273
2
274
3
275
0
276
0
277
2
278
46
279
2
280
0
281
0
282
0
283
0
284
8
285
0
286
0
288
1
289
3
290
0
340
4C
371
-2
372
-2
  0
DIMSTYLE
105
7E
330
4
100
AcDbSymbolTableRecord
100
AcDbDimStyleTableRecord
  2
EZ_M_25_H25_CM
 70
0
 40
1.0
 41
0.0625
 42
0.03125
 43
3.75
 44
0.09375
 45
0.0
 46
0.0
 47
0.0
 48
0.0
 49
2.5
140
0.0625
141
2.5
142
0.03125
143
0.03937007874
144
100.0
145
0.0
146
0.5
147
0.025
148
0.0
 69
0
 70
0
 71
0
 72
0
 73
0
 74
0
 75
0
 76
0
 77
1
 78
12
 79
3
170
0
171
3
172
1
173
0
174
0
175
0
176
0
177
0
178
0
179
2
271
2
272
2
273
2
274
3
275
0
276
0
277
2
278
46
279
2
280
0
281
0
282
0
283
0
284
8
285
0
286
0
288
1
289
3
290
0
340
4C
371
-2
372
-2
  0
DIMSTYLE
105
7F
330
4
100
AcDbSymbolTableRecord
100
AcDbDimStyleTableRecord
  2
EZ_M_20_H25_CM
 70
0
 40
1.0
 41
0.05
 42
0.025
 43
3.75
 44
0.07500000000000001
 45
0.0
 46
0.0
 47
0.0
 48
0.0
 49
2.5
140
0.05
141
2.5
142
0.025
143
0.03937007874
144
100.0
145
0.0
146
0.5
147
0.020000000000000004
148
0.0
 69
0
 70
0
 71
0
 72
0
 73
0
 74
0
 75
0
 76
0
 77
1
 78
12
 79
3
170
0
171
3
172
1
173
0
174
0
175
0
176
0
177
0
178
0
179
2
271
2
272
2
273
2
274
3
275
0
276
0
277
2
278
46
279
2
280
0
281
0
282
0
283
0
284
8
285
0
286
0
288
1
289
3
290
0
340
4C
371
-2
372
-2
  0
DIMSTYLE
105
80
330
4
100
AcDbSymbolTableRecord
100
AcDbDimStyleTableRecord
  2
EZ_M_10_H25_CM
 70
0
 40
1.0
 41
0.025
 42
0.0125
 43
3.75
 44
0.037500000000000006
 45
0.0
 46
0.0
 47
0.0
 48
0.0
 49
2.5
140
0.025
141
2.5
142
0.0125
143
0.03937007874
144
100.0
145
0.0
146
0.5
147
0.010000000000000002
148
0.0
 69
0
 70
0
 71
0
 72
0
 73
0
 74
0
 75
0
 76
0
 77
1
 78
12
 79
3
170
0
171
3
172
1
173
0
174
0
175
0
176
0
177
0
178
0
179
2
271
2
272
2
273
2
274
3
275
0
276
0
277
2
278
46
279
2
280
0
281
0
282
0
283
0
284
8
285
0
286
0
288
1
289
3
290
0
340
4C
371
-2
372
-2
  0
DIMSTYLE
105
81
330
4
100
AcDbSymbolTableRecord
100
AcDbDimStyleTableRecord
  2
EZ_M_5_H25_CM
 70
0
 40
1.0
 41
0.0125
 42
0.00625
 43
3.75
 44
0.018750000000000003
 45
0.0
 46
0.0
 47
0.0
 48
0.0
 49
2.5
140
0.0125
141
2.5
142
0.00625
143
0.03937007874
144
100.0
145
0.0
146
0.5
147
0.005000000000000001
148
0.0
 69
0
 70
0
 71
0
 72
0
 73
0
 74
0
 75
0
 76
0
 77
1
 78
12
 79
3
170
0
171
3
172
1
173
0
174
0
175
0
176
0
177
0
178
0
179
2
271
2
272
2
273
2
274
3
275
0
276
0
277
2
278
46
279
2
280
0
281
0
282
0
283
0
284
8
285
0
286
0
288
1
289
3
290
0
340
4C
371
-2
372
-2
  0
DIMSTYLE
105
82
330
4
100
AcDbSymbolTableRecord
100
AcDbDimStyleTableRecord
  2
EZ_M_1_H25_CM
 70
0
 40
1.0
 41
0.0025
 42
0.00125
 43
3.75
 44
0.00375
 45
0.0
 46
0.0
 47
0.0
 48
0.0
 49
2.5
140
0.0025
141
2.5
142
0.00125
143
0.03937007874
144
100.0
145
0.0
146
0.5
147
0.001
148
0.0
 69
0
 70
0
 71
0
 72
0
 73
0
 74
0
 75
0
 76
0
 77
1
 78
12
 79
3
170
0
171
3
172
1
173
0
174
0
175
0
176
0
177
0
178
0
179
2
271
2
272
2
273
2
274
3
275
0
276
0
277
2
278
46
279
2
280
0
281
0
282
0
283
0
284
8
285
0
286
0
288
1
289
3
290
0
340
4C
371
-2
372
-2
  0
DIMSTYLE
105
83
330
4
100
AcDbSymbolTableRecord
100
AcDbDimStyleTableRecord
  2
EZ_RADIUS
 70
0
 40
1.0
 41
0.25
 42
0.125
 43
3.75
 44
0.375
 45
0.0
 46
0.0
 47
0.0
 48
0.0
 49
2.5
140
0.25
141
0.0
142
0.0
143
0.03937007874
144
100.0
145
0.0
146
0.5
147
0.1
148
0.0
 69
0
 70
0
 71
0
 72
0
 73
0
 74
0
 75
0
 76
0
 77
1
 78
12
 79
3
170
0
171
3
172
0
173
0
174
0
175
0
176
0
177
0
178
0
179
2
271
2
272
2
273
2
274
3
275
0
276
0
277
2
278
46
279
1
280
0
281
0
282
0
283
0
284
8
285
0
286
0
288
1
289
3
290
0
340
4C
342
84
371
-2
372
-2
  0
DIMSTYLE
105
88
330
4
100
AcDbSymbolTableRecord
100
AcDbDimStyleTableRecord
  2
EZ_RADIUS_INSIDE
 70
0
 40
1.0
 41
0.25
 42
0.125
 43
3.75
 44
0.375
 45
0.0
 46
0.0
 47
0.0
 48
0.0
 49
2.5
140
0.25
141
0.0
142
0.0
143
0.03937007874
144
100.0
145
0.0
146
0.5
147
0.1
148
0.0
 69
0
 70
0
 71
0
 72
0
 73
0
 74
0
 75
0
 76
0
 77
0
 78
12
 79
3
170
0
171
3
172
0
173
0
174
1
175
0
176
0
177
0
178
0
179
2
271
2
272
2
273
2
274
3
275
0
276
0
277
2
278
46
279
0
280
0
281
0
282
0
283
0
284
8
285
0
286
0
288
1
289
0
290
0
340
4C
342
84
371
-2
372
-2
  0
DIMSTYLE
105
89
330
4
100
AcDbSymbolTableRecord
100
AcDbDimStyleTableRecord
  2
EZ_CURVED
 70
0
 40
1.0
 41
0.25
 42
0.125
 43
3.75
 44
0.375
 45
0.0
 46
0.0
 47
0.0
 48
0.0
 49
2.5
140
0.25
141
2.5
142
0.0
143
0.03937007874
144
100.0
145
0.0
146
0.5
147
0.1
148
0.0
 69
0
 70
0
 71
0
 72
0
 73
0
 74
0
 75
0
 76
0
 77
1
 78
12
 79
2
 90
2
170
0
171
3
172
1
173
0
174
0
175
0
176
0
177
0
178
0
179
2
271
2
272
2
273
2
274
3
275
0
276
0
277
2
278
46
279
2
280
0
281
0
282
0
283
0
284
8
285
0
286
0
288
1
289
3
290
0
340
4C
371
-2
372
-2
  0
ENDTAB
  0
TABLE
  2
BLOCK_RECORD
  5
9
330
0
100
AcDbSymbolTable
 70
5
  0
BLOCK_RECORD
  5
17
330
9
100
AcDbSymbolTableRecord
100
AcDbBlockTableRecord
  2
*Model_Space
340
1A
 70
0
280
1
281
0
  0
BLOCK_RECORD
  5
1B
330
9
100
AcDbSymbolTableRecord
100
AcDbBlockTableRecord
  2
*Paper_Space
340
1E
 70
0
280
1
281
0
  0
BLOCK_RECORD
  5
74
330
9
100
AcDbSymbolTableRecord
100
AcDbBlockTableRecord
  2
_ARCHTICK
340
0
 70
0
280
1
281
0
  0
BLOCK_RECORD
  5
78
330
9
100
AcDbSymbolTableRecord
100
AcDbBlockTableRecord
  2
_CLOSEDFILLED
340
0
 70
0
280
1
281
0
  0
BLOCK_RECORD
  5
84
330
9
100
AcDbSymbolTableRecord
100
AcDbBlockTableRecord
  2
_CLOSEDBLANK
340
0
 70
0
280
1
281
0
  0
ENDTAB
  0
ENDSEC
  0
SECTION
  2
BLOCKS
  0
BLOCK
  5
18
330
17
100
AcDbEntity
  8
0
100
AcDbBlockBegin
  2
*Model_Space
 70
0
 10
0.0
 20
0.0
 30
0.0
  3
*Model_Space
  1

  0
ENDBLK
  5
19
330
17
100
AcDbEntity
  8
0
100
AcDbBlockEnd
  0
BLOCK
  5
1C
330
1B
100
AcDbEntity
  8
0
100
AcDbBlockBegin
  2
*Paper_Space
 70
0
 10
0.0
 20
0.0
 30
0.0
  3
*Paper_Space
  1

  0
ENDBLK
  5
1D
330
1B
100
AcDbEntity
  8
0
100
AcDbBlockEnd
  0
BLOCK
  5
75
330
74
100
AcDbEntity
  8
0
100
AcDbBlockBegin
  2
_ARCHTICK
 70
0
 10
0.0
 20
0.0
 30
0.0
  3
_ARCHTICK
  1

  0
LWPOLYLINE
  5
77
330
74
100
AcDbEntity
  8
0
  6
BYBLOCK
 62
0
100
AcDbPolyline
 90
2
 70
0
 43
0.15
 10
-0.5
 20
-0.5
 10
0.5
 20
0.5
  0
ENDBLK
  5
76
330
74
100
AcDbEntity
  8
0
100
AcDbBlockEnd
  0
BLOCK
  5
79
330
78
100
AcDbEntity
  8
0
100
AcDbBlockBegin
  2
_CLOSEDFILLED
 70
0
 10
0.0
 20
0.0
 30
0.0
  3
_CLOSEDFILLED
  1

  0
SOLID
  5
7B
330
78
100
AcDbEntity
  8
0
  6
BYBLOCK
 62
0
100
AcDbTrace
 10
-1.0
 20
0.16439898372402537
 30
0.0
 11
0.0
 21
0.0
 31
0.0
 12
-1.0
 22
-0.16439898372402537
 32
0.0
 13
-1.0
 23
-0.16439898372402537
 33
0.0
  0
ENDBLK
  5
7A
330
78
100
AcDbEntity
  8
0
100
AcDbBlockEnd
  0
BLOCK
  5
85
330
84
100
AcDbEntity
  8
0
100
AcDbBlockBegin
  2
_CLOSEDBLANK
 70
0
 10
0.0
 20
0.0
 30
0.0
  3
_CLOSEDBLANK
  1

  0
LWPOLYLINE
  5
87
330
84
100
AcDbEntity
  8
0
  6
BYBLOCK
 62
0
100
AcDbPolyline
 90
3
 70
1
 10
-1.0
 20
0.16439898372402537
 10
0.0
 20
0.0
 10
-1.0
 20
-0.16439898372402537
  0
ENDBLK
  5
86
330
84
100
AcDbEntity
  8
0
100
AcDbBlockEnd
  0
ENDSEC
  0
SECTION
  2
ENTITIES
  0
LWPOLYLINE
  5
A0
330
17
100
AcDbEntity
  8
00_РАМКА
100
AcDbPolyline
 90
4
 70
1
 10
0.0
 20
0.0
 10
841.0
 20
0.0
 10
841.0
 20
594.0
 10
0.0
 20
594.0
  0
LWPOLYLINE
  5
A1
330
17
100
AcDbEntity
  8
00_РАМКА
100
AcDbPolyline
 90
4
 70
1
 10
20.0
 20
5.0
 10
836.0
 20
5.0
 10
836.0
 20
589.0
 10
20.0
 20
589.0
  0
LWPOLYLINE
  5
A2
330
17
100
AcDbEntity
  8
00_РАМКА
100
AcDbPolyline
 90
4
 70
1
 10
651.0
 20
5.0
 10
836.0
 20
5.0
 10
836.0
 20
60.0
 10
651.0
 20
60.0
  0
LINE
  5
A3
330
17
100
AcDbEntity
  8
00_РАМКА
100
AcDbLine
 10
651.0
 20
17.0
 30
0.0
 11
836.0
 21
17.0
 31
0.0
  0
LINE
  5
A4
330
17
100
AcDbEntity
  8
00_РАМКА
100
AcDbLine
 10
651.0
 20
29.0
 30
0.0
 11
836.0
 21
29.0
 31
0.0
  0
LINE
  5
A5
330
17
100
AcDbEntity
  8
00_РАМКА
100
AcDbLine
 10
651.0
 20
41.0
 30
0.0
 11
836.0
 21
41.0
 31
0.0
  0
LINE
  5
A6
330
17
100
AcDbEntity
  8
00_РАМКА
100
AcDbLine
 10
771.0
 20
5.0
 30
0.0
 11
771.0
 21
41.0
 31
0.0
  0
TEXT
  5
A7
330
17
100
AcDbEntity
  8
08_ТЕКСТ
100
AcDbText
 10
654.0
 20
50.5
 30
0.0
 40
5.0
  1
Общая продольная прочность
  7
ГОСТ
 11
654.0
 21
50.5
 31
0.0
100
AcDbText
 73
2
  0
TEXT
  5
A8
330
17
100
AcDbEntity
  8
08_ТЕКСТ
100
AcDbText
 10
654.0
 20
35.0
 30
0.0
 40
2.5
  1
Волжский Горизонт · волна h = 2,0 м, длина 40 м, класс «О»
  7
ГОСТ
 11
654.0
 21
35.0
 31
0.0
100
AcDbText
 73
2
  0
TEXT
  5
A9
330
17
100
AcDbEntity
  8
08_ТЕКСТ
100
AcDbText
 10
654.0
 20
23.0
 30
0.0
 40
4.5
  1
ВГ-2026 РТ-05 продольная прочность
  7
ГОСТ
 11
654.0
 21
23.0
 31
0.0
100
AcDbText
 73
2
  0
TEXT
  5
AA
330
17
100
AcDbEntity
  8
08_ТЕКСТ
100
AcDbText
 10
774.0
 20
23.0
 30
0.0
 40
3.5
  1
Масштаб 1 : 1
  7
ГОСТ
 11
774.0
 21
23.0
 31
0.0
100
AcDbText
 73
2
  0
TEXT
  5
AB
330
17
100
AcDbEntity
  8
08_ТЕКСТ
100
AcDbText
 10
654.0
 20
11.0
 30
0.0
 40
2.5
  1
-
  7
ГОСТ
 11
654.0
 21
11.0
 31
0.0
100
AcDbText
 73
2
  0
TEXT
  5
AC
330
17
100
AcDbEntity
  8
08_ТЕКСТ
100
AcDbText
 10
774.0
 20
11.0
 30
0.0
 40
3.0
  1
Формат A1
  7
ГОСТ
 11
774.0
 21
11.0
 31
0.0
100
AcDbText
 73
2
  0
TEXT
  5
AD
330
17
100
AcDbEntity
  8
08_ТЕКСТ
100
AcDbText
 10
654.0
 20
64.0
 30
0.0
 40
3.0
  1
УЖЦ ОСК 2026 · «Волжский Горизонт» · ПБ «Без границ»
  7
ГОСТ
 11
654.0
 21
64.0
 31
0.0
100
AcDbText
 73
2
  0
TEXT
  5
AE
330
17
100
AcDbEntity
  8
08_ТЕКСТ
100
AcDbText
 10
654.0
 20
96.0
 30
0.0
 40
2.5
  1
1. Нагрузка q(x) = b(x) - w(x) на тихой воде и на волне (перегиб, прогиб), N и M - интегрированием
  7
ГОСТ
 11
654.0
 21
96.0
 31
0.0
100
AcDbText
 73
2
  0
TEXT
  5
AF
330
17
100
AcDbEntity
  8
08_ТЕКСТ
100
AcDbText
 10
654.0
 20
91.0
 30
0.0
 40
2.5
  1
    по длине.
  7
ГОСТ
 11
654.0
 21
91.0
 31
0.0
100
AcDbText
 73
2
  0
TEXT
  5
B0
330
17
100
AcDbEntity
  8
08_ТЕКСТ
100
AcDbText
 10
654.0
 20
86.0
 30
0.0
 40
2.5
  1
2. Эквивалентный брус (лист РТ-08) - A = 6342 см², z0 = 1,356 м, I = 1,023 м⁴, W палубы 0,622 м³,
  7
ГОСТ
 11
654.0
 21
86.0
 31
0.0
100
AcDbText
 73
2
  0
TEXT
  5
B1
330
17
100
AcDbEntity
  8
08_ТЕКСТ
100
AcDbText
 10
654.0
 20
81.0
 30
0.0
 40
2.5
  1
    W днища 0,754 м³.
  7
ГОСТ
 11
654.0
 21
81.0
 31
0.0
100
AcDbText
 73
2
  0
TEXT
  5
B2
330
17
100
AcDbEntity
  8
08_ТЕКСТ
100
AcDbText
 10
654.0
 20
76.0
 30
0.0
 40
2.5
  1
3. Предельный момент по допускаемому напряжению 195 МПа (0,6 ReH стали 09Г2С ГОСТ 19281-2014) - ±
  7
ГОСТ
 11
654.0
 21
76.0
 31
0.0
100
AcDbText
 73
2
  0
TEXT
  5
B3
330
17
100
AcDbEntity
  8
08_ТЕКСТ
100
AcDbText
 10
654.0
 20
71.0
 30
0.0
 40
2.5
  1
    121 МН·м - штриховые линии.
  7
ГОСТ
 11
654.0
 21
71.0
 31
0.0
100
AcDbText
 73
2
  0
TEXT
  5
B4
330
17
100
AcDbEntity
  8
08_ТЕКСТ
100
AcDbText
 10
654.0
 20
102.5
 30
0.0
 40
3.5
  1
Технические требования
  7
ГОСТ
 11
654.0
 21
102.5
 31
0.0
100
AcDbText
 73
2
  0
TEXT
  5
B5
330
17
100
AcDbEntity
  8
08_ТЕКСТ
100
AcDbText
 10
30.0
 20
580.0
 30
0.0
 40
5.0
  1
Общая продольная прочность - нагрузка, перерезывающие силы, изгибающие моменты
  7
ГОСТ
 11
30.0
 21
580.0
 31
0.0
100
AcDbText
 73
2
  0
LWPOLYLINE
  5
B6
330
17
100
AcDbEntity
  8
20_ГРАФИК
100
AcDbPolyline
 90
4
 70
1
 10
40.0
 20
395.0
 10
740.0
 20
395.0
 10
740.0
 20
515.0
 10
40.0
 20
515.0
  0
LINE
  5
B7
330
17
100
AcDbEntity
  8
21_СЕТКА
100
AcDbLine
 10
40.0
 20
395.0
 30
0.0
 11
40.0
 21
515.0
 31
0.0
  0
LINE
  5
B8
330
17
100
AcDbEntity
  8
20_ГРАФИК
100
AcDbLine
 10
40.0
 20
395.0
 30
0.0
 11
40.0
 21
393.5
 31
0.0
  0
TEXT
  5
B9
330
17
100
AcDbEntity
  8
08_ТЕКСТ
100
AcDbText
 10
40.0
 20
391.0
 30
0.0
 40
2.5
  1
0
  7
ГОСТ
 72
1
 11
40.0
 21
391.0
 31
0.0
100
AcDbText
 73
3
  0
LINE
  5
BA
330
17
100
AcDbEntity
  8
21_СЕТКА
100
AcDbLine
 10
140.0
 20
395.0
 30
0.0
 11
140.0
 21
515.0
 31
0.0
  0
LINE
  5
BB
330
17
100
AcDbEntity
  8
20_ГРАФИК
100
AcDbLine
 10
140.0
 20
395.0
 30
0.0
 11
140.0
 21
393.5
 31
0.0
  0
TEXT
  5
BC
330
17
100
AcDbEntity
  8
08_ТЕКСТ
100
AcDbText
 10
140.0
 20
391.0
 30
0.0
 40
2.5
  1
20
  7
ГОСТ
 72
1
 11
140.0
 21
391.0
 31
0.0
100
AcDbText
 73
3
  0
LINE
  5
BD
330
17
100
AcDbEntity
  8
21_СЕТКА
100
AcDbLine
 10
240.0
 20
395.0
 30
0.0
 11
240.0
 21
515.0
 31
0.0
  0
LINE
  5
BE
330
17
100
AcDbEntity
  8
20_ГРАФИК
100
AcDbLine
 10
240.0
 20
395.0
 30
0.0
 11
240.0
 21
393.5
 31
0.0
  0
TEXT
  5
BF
330
17
100
AcDbEntity
  8
08_ТЕКСТ
100
AcDbText
 10
240.0
 20
391.0
 30
0.0
 40
2.5
  1
40
  7
ГОСТ
 72
1
 11
240.0
 21
391.0
 31
0.0
100
AcDbText
 73
3
  0
LINE
  5
C0
330
17
100
AcDbEntity
  8
21_СЕТКА
100
AcDbLine
 10
340.0
 20
395.0
 30
0.0
 11
340.0
 21
515.0
 31
0.0
  0
LINE
  5
C1
330
17
100
AcDbEntity
  8
20_ГРАФИК
100
AcDbLine
 10
340.0
 20
395.0
 30
0.0
 11
340.0
 21
393.5
 31
0.0
  0
TEXT
  5
C2
330
17
100
AcDbEntity
  8
08_ТЕКСТ
100
AcDbText
 10
340.0
 20
391.0
 30
0.0
 40
2.5
  1
60
  7
ГОСТ
 72
1
 11
340.0
 21
391.0
 31
0.0
100
AcDbText
 73
3
  0
LINE
  5
C3
330
17
100
AcDbEntity
  8
21_СЕТКА
100
AcDbLine
 10
440.0
 20
395.0
 30
0.0
 11
440.0
 21
515.0
 31
0.0
  0
LINE
  5
C4
330
17
100
AcDbEntity
  8
20_ГРАФИК
100
AcDbLine
 10
440.0
 20
395.0
 30
0.0
 11
440.0
 21
393.5
 31
0.0
  0
TEXT
  5
C5
330
17
100
AcDbEntity
  8
08_ТЕКСТ
100
AcDbText
 10
440.0
 20
391.0
 30
0.0
 40
2.5
  1
80
  7
ГОСТ
 72
1
 11
440.0
 21
391.0
 31
0.0
100
AcDbText
 73
3
  0
LINE
  5
C6
330
17
100
AcDbEntity
  8
21_СЕТКА
100
AcDbLine
 10
540.0
 20
395.0
 30
0.0
 11
540.0
 21
515.0
 31
0.0
  0
LINE
  5
C7
330
17
100
AcDbEntity
  8
20_ГРАФИК
100
AcDbLine
 10
540.0
 20
395.0
 30
0.0
 11
540.0
 21
393.5
 31
0.0
  0
TEXT
  5
C8
330
17
100
AcDbEntity
  8
08_ТЕКСТ
100
AcDbText
 10
540.0
 20
391.0
 30
0.0
 40
2.5
  1
100
  7
ГОСТ
 72
1
 11
540.0
 21
391.0
 31
0.0
100
AcDbText
 73
3
  0
LINE
  5
C9
330
17
100
AcDbEntity
  8
21_СЕТКА
100
AcDbLine
 10
640.0
 20
395.0
 30
0.0
 11
640.0
 21
515.0
 31
0.0
  0
LINE
  5
CA
330
17
100
AcDbEntity
  8
20_ГРАФИК
100
AcDbLine
 10
640.0
 20
395.0
 30
0.0
 11
640.0
 21
393.5
 31
0.0
  0
TEXT
  5
CB
330
17
100
AcDbEntity
  8
08_ТЕКСТ
100
AcDbText
 10
640.0
 20
391.0
 30
0.0
 40
2.5
  1
120
  7
ГОСТ
 72
1
 11
640.0
 21
391.0
 31
0.0
100
AcDbText
 73
3
  0
LINE
  5
CC
330
17
100
AcDbEntity
  8
21_СЕТКА
100
AcDbLine
 10
740.0
 20
395.0
 30
0.0
 11
740.0
 21
515.0
 31
0.0
  0
LINE
  5
CD
330
17
100
AcDbEntity
  8
20_ГРАФИК
100
AcDbLine
 10
740.0
 20
395.0
 30
0.0
 11
740.0
 21
393.5
 31
0.0
  0
TEXT
  5
CE
330
17
100
AcDbEntity
  8
08_ТЕКСТ
100
AcDbText
 10
740.0
 20
391.0
 30
0.0
 40
2.5
  1
140
  7
ГОСТ
 72
1
 11
740.0
 21
391.0
 31
0.0
100
AcDbText
 73
3
  0
LINE
  5
CF
330
17
100
AcDbEntity
  8
21_СЕТКА
100
AcDbLine
 10
40.0
 20
404.8986654407955
 30
0.0
 11
740.0
 21
404.8986654407955
 31
0.0
  0
LINE
  5
D0
330
17
100
AcDbEntity
  8
20_ГРАФИК
100
AcDbLine
 10
40.0
 20
404.8986654407955
 30
0.0
 11
38.5
 21
404.8986654407955
 31
0.0
  0
TEXT
  5
D1
330
17
100
AcDbEntity
  8
08_ТЕКСТ
100
AcDbText
 10
37.5
 20
404.8986654407955
 30
0.0
 40
2.5
  1
-200
  7
ГОСТ
 72
2
 11
37.5
 21
404.8986654407955
 31
0.0
100
AcDbText
 73
2
  0
LINE
  5
D2
330
17
100
AcDbEntity
  8
21_СЕТКА
100
AcDbLine
 10
40.0
 20
429.25772311223454
 30
0.0
 11
740.0
 21
429.25772311223454
 31
0.0
  0
LINE
  5
D3
330
17
100
AcDbEntity
  8
20_ГРАФИК
100
AcDbLine
 10
40.0
 20
429.25772311223454
 30
0.0
 11
38.5
 21
429.25772311223454
 31
0.0
  0
TEXT
  5
D4
330
17
100
AcDbEntity
  8
08_ТЕКСТ
100
AcDbText
 10
37.5
 20
429.25772311223454
 30
0.0
 40
2.5
  1
-100
  7
ГОСТ
 72
2
 11
37.5
 21
429.25772311223454
 31
0.0
100
AcDbText
 73
2
  0
LINE
  5
D5
330
17
100
AcDbEntity
  8
21_СЕТКА
100
AcDbLine
 10
40.0
 20
453.61678078367356
 30
0.0
 11
740.0
 21
453.61678078367356
 31
0.0
  0
LINE
  5
D6
330
17
100
AcDbEntity
  8
20_ГРАФИК
100
AcDbLine
 10
40.0
 20
453.61678078367356
 30
0.0
 11
38.5
 21
453.61678078367356
 31
0.0
  0
TEXT
  5
D7
330
17
100
AcDbEntity
  8
08_ТЕКСТ
100
AcDbText
 10
37.5
 20
453.61678078367356
 30
0.0
 40
2.5
  1
0
  7
ГОСТ
 72
2
 11
37.5
 21
453.61678078367356
 31
0.0
100
AcDbText
 73
2
  0
LINE
  5
D8
330
17
100
AcDbEntity
  8
21_СЕТКА
100
AcDbLine
 10
40.0
 20
477.9758384551126
 30
0.0
 11
740.0
 21
477.9758384551126
 31
0.0
  0
LINE
  5
D9
330
17
100
AcDbEntity
  8
20_ГРАФИК
100
AcDbLine
 10
40.0
 20
477.9758384551126
 30
0.0
 11
38.5
 21
477.9758384551126
 31
0.0
  0
TEXT
  5
DA
330
17
100
AcDbEntity
  8
08_ТЕКСТ
100
AcDbText
 10
37.5
 20
477.9758384551126
 30
0.0
 40
2.5
  1
100
  7
ГОСТ
 72
2
 11
37.5
 21
477.9758384551126
 31
0.0
100
AcDbText
 73
2
  0
LINE
  5
DB
330
17
100
AcDbEntity
  8
21_СЕТКА
100
AcDbLine
 10
40.0
 20
502.3348961265516
 30
0.0
 11
740.0
 21
502.3348961265516
 31
0.0
  0
LINE
  5
DC
330
17
100
AcDbEntity
  8
20_ГРАФИК
100
AcDbLine
 10
40.0
 20
502.3348961265516
 30
0.0
 11
38.5
 21
502.3348961265516
 31
0.0
  0
TEXT
  5
DD
330
17
100
AcDbEntity
  8
08_ТЕКСТ
100
AcDbText
 10
37.5
 20
502.3348961265516
 30
0.0
 40
2.5
  1
200
  7
ГОСТ
 72
2
 11
37.5
 21
502.3348961265516
 31
0.0
100
AcDbText
 73
2
  0
LINE
  5
DE
330
17
100
AcDbEntity
  8
20_ГРАФИК
100
AcDbLine
 10
40.0
 20
453.61678078367356
 30
0.0
 11
740.0
 21
453.61678078367356
 31
0.0
  0
TEXT
  5
DF
330
17
100
AcDbEntity
  8
08_ТЕКСТ
100
AcDbText
 10
390.0
 20
385.5
 30
0.0
 40
2.8
  1

  7
ГОСТ
 72
1
 11
390.0
 21
385.5
 31
0.0
100
AcDbText
 73
3
  0
TEXT
  5
E0
330
17
100
AcDbEntity
  8
08_ТЕКСТ
100
AcDbText
 10
26.0
 20
455.0
 30
0.0
 40
2.8
  1
q, кН/м
 50
90.0
  7
ГОСТ
 72
1
 11
26.0
 21
455.0
 31
0.0
100
AcDbText
 73
2
  0
TEXT
  5
E1
330
17
100
AcDbEntity
  8
08_ТЕКСТ
100
AcDbText
 10
40.0
 20
518.0
 30
0.0
 40
3.5
  1
Нагрузка q(x)
  7
ГОСТ
 11
40.0
 21
518.0
 31
0.0
100
AcDbText
 73
1
  0
LWPOLYLINE
  5
E2
330
17
100
AcDbEntity
  8
22_КРИВАЯ_А
  6
CONTINUOUS
100
AcDbPolyline
 90
281
 70
0
 10
40.0
 20
457.6504546384484
 10
42.5
 20
456.67915460992356
 10
45.0
 20
455.65525147462427
 10
47.5
 20
454.583318776245
 10
50.0
 20
453.421912712969
 10
52.5
 20
452.17591249805696
 10
55.0
 20
450.97919944533146
 10
57.5
 20
449.7929368658463
 10
60.0
 20
451.6019280024897
 10
62.5
 20
450.42819110943003
 10
65.0
 20
462.7264443554078
 10
67.5
 20
471.05918441823405
 10
70.0
 20
474.50658522450465
 10
72.5
 20
477.7200830598817
 10
75.0
 20
476.5631574014532
 10
77.5
 20
484.9047136448928
 10
80.0
 20
474.16059506740214
 10
82.5
 20
473.0010947671149
 10
85.0
 20
471.86155290989433
 10
87.5
 20
470.74478100957776
 10
90.0
 20
469.6555474292971
 10
92.5
 20
468.523996901964
 10
95.0
 20
467.45012353531166
 10
97.5
 20
471.1554332867712
 10
100.0
 20
460.5408525935955
 10
102.5
 20
459.52509945878404
 10
105.0
 20
454.1934389470931
 10
107.5
 20
453.33423573756755
 10
110.0
 20
447.7534744274641
 10
112.5
 20
444.9314173807959
 10
115.0
 20
456.41371878158986
 10
117.5
 20
455.7077726442898
 10
120.0
 20
455.01347578875266
 10
122.5
 20
454.3420895004972
 10
125.0
 20
453.7041428306189
 10
127.5
 20
453.10848589692085
 10
130.0
 20
452.56667731411164
 10
132.5
 20
453.4406690309187
 10
135.0
 20
453.0296620044932
 10
137.5
 20
450.12520052303375
 10
140.0
 20
449.8823375698489
 10
142.5
 20
452.7629916626662
 10
145.0
 20
443.1639132242649
 10
147.5
 20
443.1792632798219
 10
150.0
 20
443.1946133200733
 10
152.5
 20
443.2099633450191
 10
155.0
 20
443.2253133546593
 10
157.5
 20
443.24066334899396
 10
160.0
 20
436.0871426553185
 10
162.5
 20
436.1024926190419
 10
165.0
 20
436.1178425674598
 10
167.5
 20
436.1331925005721
 10
170.0
 20
436.31354023544895
 10
172.5
 20
436.32889013795005
 10
175.0
 20
436.34424002514555
 10
177.5
 20
436.35958989703545
 10
180.0
 20
439.063266255884
 10
182.5
 20
439.07861609716275
 10
185.0
 20
439.0939659231359
 10
187.5
 20
439.10931573380344
 10
190.0
 20
439.84155259643586
 10
192.5
 20
439.85690237649226
 10
195.0
 20
439.87225214124305
 10
197.5
 20
439.88760189068825
 10
200.0
 20
439.9029516248279
 10
202.5
 20
439.9183013436619
 10
205.0
 20
439.9336510471903
 10
207.5
 20
439.94900073541316
 10
210.0
 20
451.43454348465764
 10
212.5
 20
451.44989314226933
 10
215.0
 20
451.46524278457537
 10
217.5
 20
451.4805924115759
 10
219.99999999999997
 20
451.4959420232708
 10
222.5
 20
448.82296511739594
 10
225.0
 20
448.8383146984796
 10
227.5
 20
448.85366426425776
 10
229.99999999999997
 20
448.8690138147303
 10
232.50000000000003
 20
448.8843633498973
 10
235.0
 20
448.8997128697586
 10
237.5
 20
437.4448692979872
 10
240.0
 20
438.20697614897745
 10
242.50000000000003
 20
438.222325622922
 10
245.0
 20
438.23767508156106
 10
247.5
 20
438.25302452489444
 10
250.0
 20
438.2683739529223
 10
252.49999999999997
 20
438.2837233656445
 10
255.0
 20
438.2990727630612
 10
257.5
 20
438.3144221451723
 10
260.0
 20
447.8882657422504
 10
262.5
 20
447.9036150937503
 10
265.0
 20
447.9189644299446
 10
267.5
 20
447.93431375083327
 10
270.0
 20
447.9496630564164
 10
272.5
 20
447.9650123466939
 10
275.0
 20
447.9803616216659
 10
277.5
 20
447.99571088133223
 10
280.0
 20
448.011060125693
 10
282.5
 20
448.0264093547482
 10
285.0
 20
448.04175856849776
 10
287.5
 20
448.0571077669417
 10
290.0
 20
448.0724569500801
 10
292.5
 20
438.52931188764023
 10
295.0
 20
438.5446610401675
 10
297.5
 20
438.56001017738913
 10
300.0
 20
438.57535929930515
 10
302.5
 20
438.5907084059156
 10
305.0
 20
438.6060574972205
 10
307.5
 20
438.6214065732198
 10
310.0
 20
438.6367556339135
 10
312.5
 20
438.65210467930154
 10
315.0
 20
473.31699529412253
 10
317.5
 20
473.33234430889945
 10
320.0
 20
473.34769330837076
 10
322.5
 20
473.36304229253653
 10
325.0
 20
473.3783912613967
 10
327.5
 20
473.39374021495126
 10
330.0
 20
473.4090891532002
 10
332.5
 20
473.4244380761436
 10
335.0
 20
473.4397869837814
 10
337.5
 20
473.4551358761136
 10
340.0
 20
473.4704847531402
 10
342.5
 20
475.36960140346343
 10
345.0
 20
480.8581684243927
 10
347.5
 20
452.59239183147906
 10
350.0
 20
475.8024907165332
 10
352.5
 20
477.0962815980086
 10
355.0
 20
498.2534199276606
 10
357.5
 20
498.26238977283424
 10
360.0
 20
498.2713596180079
 10
362.5
 20
498.2803294631816
 10
365.0
 20
490.5230227462587
 10
367.5
 20
490.53199259143236
 10
370.0
 20
490.540962436606
 10
372.5
 20
490.54993228177966
 10
375.0
 20
490.55890212695334
 10
377.5
 20
490.567871972127
 10
380.0
 20
490.57684181730065
 10
382.5
 20
477.2039197400926
 10
385.0
 20
477.2128895852662
 10
387.5
 20
477.2218594304399
 10
390.0
 20
475.9523879214037
 10
392.5
 20
452.78716744666707
 10
395.0
 20
465.240188788091
 10
397.5
 20
459.8156247968782
 10
399.99999999999994
 20
457.96492529197087
 10
402.50000000000006
 20
457.98027378635777
 10
405.0
 20
457.99562226543907
 10
407.5
 20
458.01097072921476
 10
410.0
 20
458.0263191776849
 10
412.5
 20
458.04166761084946
 10
415.0
 20
458.0570160287084
 10
417.5
 20
439.2967507646547
 10
419.99999999999994
 20
446.0030451130933
 10
422.49999999999994
 20
446.0183934850355
 10
425.00000000000006
 20
460.88617133794196
 10
427.5
 20
460.90151967927295
 10
430.0
 20
460.91686800529834
 10
432.5
 20
460.9322163160182
 10
435.0
 20
460.9475646114324
 10
437.5
 20
460.962912891541
 10
440.0
 20
460.97826115634405
 10
442.49999999999994
 20
460.99360940584154
 10
445.00000000000006
 20
461.00895764003343
 10
447.50000000000006
 20
461.0243058589197
 10
450.0
 20
461.0396540625004
 10
452.5
 20
460.4177693020906
 10
455.0
 20
460.43311747506016
 10
457.5
 20
460.4484656327241
 10
460.0
 20
460.46381377508243
 10
462.5
 20
460.47916190213516
 10
464.99999999999994
 20
460.49451001388235
 10
467.50000000000006
 20
460.5098581103239
 10
470.0
 20
457.33904144803563
 10
472.5
 20
450.6634435526752
 10
475.0
 20
450.6787916032
 10
477.5
 20
450.6941396384192
 10
480.0
 20
450.7094876583328
 10
482.5
 20
450.72483566294085
 10
485.0
 20
450.7401836522433
 10
487.49999999999994
 20
450.75553162624016
 10
490.00000000000006
 20
450.77087958493144
 10
492.5
 20
439.7571957241563
 10
495.0
 20
439.7725436522364
 10
497.5
 20
439.7878915650109
 10
500.0
 20
457.660244592671
 10
502.5
 20
457.67559247483433
 10
505.0
 20
457.69094034169206
 10
507.49999999999994
 20
457.70628819324423
 10
509.99999999999994
 20
457.72163602949075
 10
512.5
 20
457.7369838504317
 10
515.0
 20
461.33676699241937
 10
517.5
 20
461.35211478274914
 10
520.0
 20
461.36746255777337
 10
522.5
 20
461.38281031749193
 10
525.0
 20
461.39815806190495
 10
527.5
 20
461.41350579101237
 10
530.0
 20
461.42885350481424
 10
532.5
 20
461.44420120331046
 10
535.0
 20
461.4595488865011
 10
537.5
 20
461.4748965543862
 10
540.0
 20
461.4902442069657
 10
542.5
 20
461.5055918442396
 10
545.0
 20
461.5209394662079
 10
547.5
 20
461.5362870728706
 10
550.0
 20
461.55163466422766
 10
552.5
 20
461.56698224027923
 10
555.0
 20
461.5823298010252
 10
557.5
 20
440.15623687992206
 10
560.0
 20
440.1715844100568
 10
562.5
 20
439.44017456314594
 10
565.0
 20
439.45552206266956
 10
567.5
 20
439.47086954688757
 10
570.0
 20
442.3537652848818
 10
572.5
 20
442.3691127384886
 10
575.0
 20
442.38446017678984
 10
577.5
 20
442.39980759978545
 10
580.0
 20
442.4151550074755
 10
582.5
 20
442.43050239985996
 10
585.0
 20
442.44584977693887
 10
587.5
 20
442.4611971387121
 10
590.0
 20
442.47654448517983
 10
592.5
 20
441.6100069320013
 10
595.0
 20
441.62535424785784
 10
597.5
 20
441.64070154840874
 10
600.0
 20
441.6560488336541
 10
602.5
 20
441.67139610359385
 10
605.0
 20
441.686743358228
 10
607.5
 20
441.7020905975566
 10
610.0
 20
441.71743782157955
 10
612.5
 20
441.73278503029695
 10
615.0
 20
441.74813222370875
 10
617.5
 20
441.76347940181495
 10
620.0
 20
441.7788265646156
 10
622.5
 20
438.92662544302885
 10
625.0
 20
438.9419725752183
 10
627.5
 20
438.95731969210215
 10
630.0
 20
442.1588315371046
 10
632.5
 20
438.8379857342676
 10
635.0
 20
438.8533328052347
 10
637.5
 20
438.9523198289837
 10
640.0
 20
439.2098389351594
 10
642.5
 20
439.61226900965283
 10
645.0
 20
440.1451539551324
 10
647.5
 20
440.7933210750881
 10
650.0
 20
444.23108254245074
 10
652.5
 20
445.06679017757153
 10
655.0
 20
445.9737113467048
 10
657.5
 20
446.9368552750825
 10
660.0
 20
447.94143804851956
 10
662.5
 20
448.9730289491949
 10
665.0
 20
450.0177098708998
 10
667.5
 20
451.0613728101033
 10
670.0
 20
452.0928951008001
 10
672.5
 20
450.6162416282783
 10
675.0
 20
452.14231149895295
 10
677.5
 20
453.84281425836593
 10
680.0
 20
455.6589143355478
 10
682.5
 20
457.51853185789594
 10
685.0
 20
459.3282951083892
 10
687.5
 20
461.01681443599995
 10
690.0
 20
462.6578863659333
 10
692.5
 20
456.3720037927401
 10
695.0
 20
457.97585947284443
 10
697.5
 20
459.5438124691999
 10
700.0
 20
461.0229007702343
 10
702.5
 20
462.40833736941005
 10
705.0
 20
463.62170799503144
 10
707.5
 20
464.7398278236507
 10
710.0
 20
465.76883493960884
 10
712.5
 20
466.6943713632427
 10
715.0
 20
467.5001567148961
 10
717.5
 20
468.167404946448
 10
720.0
 20
467.91072743754404
 10
722.5
 20
459.2219616065325
 10
725.0
 20
458.74860667235447
 10
727.5
 20
458.2581560341583
 10
730.0
 20
457.7514177886342
 10
732.5
 20
457.2292000324724
 10
735.0
 20
456.69231086236306
 10
737.5
 20
456.14155837499635
 10
740.0
 20
455.57775066706245
  0
LWPOLYLINE
  5
E3
330
17
100
AcDbEntity
  8
23_КРИВАЯ_Б
  6
CONTINUOUS
100
AcDbPolyline
 90
281
 70
0
 10
40.0
 20
453.47633497563635
 10
42.5
 20
454.2466768349779
 10
45.0
 20
455.122901069302
 10
47.5
 20
456.07770010798293
 10
50.0
 20
457.031419212965
 10
52.5
 20
457.95640762132825
 10
55.0
 20
458.95727878030556
 10
57.5
 20
459.9441519955879
 10
60.0
 20
463.885644460725
 10
62.5
 20
464.785545263653
 10
65.0
 20
479.0513552744301
 10
67.5
 20
489.2691797687277
 10
70.0
 20
494.50288846522113
 10
72.5
 20
499.38756540116015
 10
75.0
 20
499.7586963046513
 10
77.5
 20
509.5057002117419
 10
80.0
 20
500.0264488497261
 10
82.5
 20
499.96248136981325
 10
85.0
 20
499.73588172803113
 10
87.5
 20
499.33591220819113
 10
90.0
 20
498.7542315611012
 10
92.5
 20
497.908624639379
 10
95.0
 20
496.8997408898955
 10
97.5
 20
500.44723946706256
 10
100.0
 20
489.4383050757034
 10
102.5
 20
487.7805136000031
 10
105.0
 20
481.5511696290059
 10
107.5
 20
479.53439357804376
 10
110.0
 20
472.53323642677924
 10
112.5
 20
468.0566328644879
 10
115.0
 20
477.6773963899695
 10
117.5
 20
474.9095559784581
 10
120.0
 20
471.95972153986366
 10
122.5
 20
468.8565059292862
 10
125.0
 20
465.63084043288904
 10
127.5
 20
462.31391737225505
 10
130.0
 20
458.9427597334711
 10
132.5
 20
456.9035905773138
 10
135.0
 20
453.51541405059595
 10
137.5
 20
447.589787222948
 10
140.0
 20
444.3024044514924
 10
142.5
 20
444.1362549680813
 10
145.0
 20
431.50938417732687
 10
147.5
 20
428.53535198142447
 10
150.0
 20
425.6173131966958
 10
152.5
 20
422.7736153008902
 10
155.0
 20
420.02215651547635
 10
157.5
 20
417.38027430139533
 10
160.0
 20
407.69576644205824
 10
162.5
 20
405.32226945057084
 10
165.0
 20
403.10593489100756
 10
167.5
 20
401.06081772272336
 10
170.0
 20
399.36491501858364
 10
172.5
 20
397.7000927798685
 10
175.0
 20
396.24199798001314
 10
177.5
 20
395.0
 10
180.0
 20
396.6704556691762
 10
182.5
 20
395.88335239838347
 10
185.0
 20
395.33222510335395
 10
187.5
 20
395.02081716107307
 10
190.0
 20
395.6682702269181
 10
192.5
 20
395.84156165856433
 10
195.0
 20
396.2568221563861
 10
197.5
 20
396.9117923076968
 10
200.0
 20
397.8027240106997
 10
202.5
 20
398.92440427569005
 10
205.0
 20
400.27018830715804
 10
207.5
 20
401.8320416398051
 10
210.0
 20
415.07078411641686
 10
212.5
 20
417.0353769023272
 10
215.0
 20
419.1841482781267
 10
217.5
 20
421.504096228273
 10
219.99999999999997
 20
423.98116346598033
 10
222.5
 20
423.911999385058
 10
225.0
 20
426.65736043940507
 10
227.5
 20
429.5122507915966
 10
229.99999999999997
 20
432.4593326207553
 10
232.50000000000003
 20
435.48070787520396
 10
235.0
 20
438.5580297826091
 10
237.5
 20
430.2024238229624
 10
240.0
 20
434.0821332579694
 10
242.50000000000003
 20
437.2144481703358
 10
245.0
 20
440.3271392343292
 10
247.5
 20
443.4013521112942
 10
250.0
 20
446.4184806367932
 10
252.49999999999997
 20
449.3602808487696
 10
255.0
 20
452.20898253228484
 10
257.5
 20
454.94739761609884
 10
260.0
 20
467.1164916133306
 10
262.5
 20
469.582109042302
 10
265.0
 20
471.8895440174332
 10
267.5
 20
474.02359458343426
 10
270.0
 20
475.96957806075017
 10
272.5
 20
477.7179199420323
 10
275.0
 20
479.25865864256116
 10
277.5
 20
480.58268211307956
 10
280.0
 20
481.68317061427905
 10
282.5
 20
482.55582668521345
 10
285.0
 20
483.196453819336
 10
287.5
 20
483.6021903804783
 10
290.0
 20
483.7714037949414
 10
292.5
 20
474.1451170064783
 10
295.0
 20
473.8409489274192
 10
297.5
 20
473.3021632197291
 10
300.0
 20
472.5317061475076
 10
302.5
 20
471.53380602594694
 10
305.0
 20
470.31370456503527
 10
307.5
 20
468.87676157873614
 10
310.0
 20
467.2324917498248
 10
312.5
 20
465.39095584209304
 10
315.0
 20
498.01176150716407
 10
317.5
 20
495.8087525313956
 10
320.0
 20
493.4468969188747
 10
322.5
 20
490.9416580857759
 10
325.0
 20
488.30696856085444
 10
327.5
 20
485.5620096734042
 10
330.0
 20
482.7239998909173
 10
332.5
 20
479.8107092585409
 10
335.0
 20
476.8403810329158
 10
337.5
 20
473.83162013634285
 10
340.0
 20
470.80327913236425
 10
342.5
 20
469.9588919141197
 10
345.0
 20
473.57526797619965
 10
347.5
 20
444.3287807990659
 10
350.0
 20
466.85948541149145
 10
352.5
 20
466.8652463684753
 10
355.0
 20
486.40786193704395
 10
357.5
 20
484.86651921698785
 10
360.0
 20
483.3990761384284
 10
362.5
 20
482.0147665311447
 10
365.0
 20
472.95603511732406
 10
367.5
 20
471.76358999033096
 10
370.0
 20
470.6786929640303
 10
372.5
 20
469.70821934457956
 10
375.0
 20
468.8583389797833
 10
377.5
 20
468.1344782199298
 10
380.0
 20
467.5412864625372
 10
382.5
 20
453.7007155648897
 10
385.0
 20
453.37956383538506
 10
387.5
 20
453.19810591407304
 10
390.0
 20
450.80909775091476
 10
392.5
 20
423.85722270965346
 10
395.0
 20
431.3583144141059
 10
397.5
 20
421.91584965671495
 10
399.99999999999994
 20
418.7899681887266
 10
402.50000000000006
 20
419.9113474265525
 10
405.0
 20
421.25677025896846
 10
407.5
 20
422.8182043616813
 10
410.0
 20
424.58627899993445
 10
412.5
 20
426.55034433287494
 10
415.0
 20
428.6985387307821
 10
417.5
 20
412.2422499828602
 10
419.99999999999994
 20
421.4095978520174
 10
422.49999999999994
 20
424.0280566614107
 10
425.00000000000006
 20
441.6251095699661
 10
427.5
 20
444.4792327118848
 10
430.0
 20
447.4255224067588
 10
432.5
 20
450.44608540077513
 10
435.0
 20
453.52257984354907
 10
437.5
 20
456.6363293070871
 10
440.0
 20
459.76843861720346
 10
442.49999999999994
 20
462.8999107664193
 10
445.00000000000006
 20
466.01176417727015
 10
447.50000000000006
 20
469.08514958960404
 10
450.0
 20
472.1014658546707
 10
452.5
 20
474.4052409836776
 10
455.0
 20
477.25314313777
 10
457.5
 20
479.98768772974233
 10
460.0
 20
482.59430960876665
 10
462.5
 20
485.0559799643216
 10
464.99999999999994
 20
487.35511390346204
 10
467.50000000000006
 20
489.47932228202984
 10
470.0
 20
488.2299063494488
 10
472.5
 20
483.27516205015445
 10
475.0
 20
484.8040984500973
 10
477.5
 20
486.1176563428703
 10
480.0
 20
487.20928767209637
 10
482.5
 20
488.07249065331746
 10
485.0
 20
488.7056250942202
 10
487.49999999999994
 20
489.10650154937827
 10
490.00000000000006
 20
489.27366014088136
 10
492.5
 20
478.1776610336204
 10
495.0
 20
477.8771627053585
 10
497.5
 20
477.34475102157904
 10
500.0
 20
494.4401539540555
 10
502.5
 20
493.45129823324066
 10
505.0
 20
492.2406136660828
 10
507.49999999999994
 20
490.81510353565363
 10
509.99999999999994
 20
489.1828322808551
 10
512.5
 20
487.3518300066497
 10
515.0
 20
488.91702317014506
 10
517.5
 20
486.7233294481376
 10
520.0
 20
484.3674348960551
 10
522.5
 20
481.865373409522
 10
525.0
 20
479.23516003617976
 10
527.5
 20
476.49230816503217
 10
530.0
 20
473.65506264907606
 10
532.5
 20
470.74255640937804
 10
535.0
 20
467.7730277806302
 10
537.5
 20
464.76507666944576
 10
540.0
 20
461.7375505608638
 10
542.5
 20
458.7094287328449
 10
545.0
 20
455.6997053823636
 10
547.5
 20
452.7272723802157
 10
550.0
 20
449.81080238084377
 10
552.5
 20
446.96863301809975
 10
555.0
 20
444.21865291772366
 10
557.5
 20
420.13674978571436
 10
560.0
 20
417.622464087471
 10
562.5
 20
414.50348465821753
 10
565.0
 20
412.28834042606877
 10
567.5
 20
410.2443214780613
 10
570.0
 20
411.25196839636516
 10
572.5
 20
409.58803994620496
 10
575.0
 20
408.1307278707101
 10
577.5
 20
406.88939655329307
 10
580.0
 20
405.87207203902614
 10
582.5
 20
405.08539120322837
 10
585.0
 20
404.5345596831014
 10
587.5
 20
404.22331886026615
 10
590.0
 20
404.1539221206684
 10
592.5
 20
403.44523567063845
 10
595.0
 20
403.86027331350664
 10
597.5
 20
404.51489195440695
 10
600.0
 20
405.405345486907
 10
602.5
 20
406.5264236975684
 10
605.0
 20
407.8714853309324
 10
607.5
 20
409.432500203711
 10
610.0
 20
411.2001000799327
 10
612.5
 20
413.1636379599033
 10
615.0
 20
415.3112553799181
 10
617.5
 20
417.629957267142
 10
620.0
 20
420.10569384536745
 10
622.5
 20
419.85590077373035
 10
625.0
 20
422.5997865439545
 10
627.5
 20
425.4531424756003
 10
630.0
 20
431.58480477961376
 10
632.5
 20
431.26836262408807
 10
635.0
 20
434.34402960223076
 10
637.5
 20
437.54295177693535
 10
640.0
 20
440.90290378858685
 10
642.5
 20
444.3631037455306
 10
645.0
 20
447.86607980224903
 10
647.5
 20
451.3584272443291
 10
650.0
 20
457.48152743797345
 10
652.5
 20
460.81649103103905
 10
655.0
 20
464.0152874735109
 10
657.5
 20
467.04740376465145
 10
660.0
 20
469.8879680960519
 10
662.5
 20
472.519097410717
 10
665.0
 20
474.92982566696986
 10
667.5
 20
477.1102019705388
 10
670.0
 20
479.0634703942839
 10
672.5
 20
478.24119272352004
 10
675.0
 20
480.08025908083744
 10
677.5
 20
481.78454656740496
 10
680.0
 20
482.06487542235425
 10
682.5
 20
481.7123798143655
 10
685.0
 20
481.3550522496241
 10
687.5
 20
481.0008758491852
 10
690.0
 20
480.64536382839384
 10
692.5
 20
472.34739984758363
 10
695.0
 20
471.97161387016996
 10
697.5
 20
471.58698132433096
 10
700.0
 20
471.1943745144202
 10
702.5
 20
470.79467470612826
 10
705.0
 20
470.405617881613
 10
707.5
 20
470.01111576530786
 10
710.0
 20
469.6102152892313
 10
712.5
 20
469.2013213359
 10
715.0
 20
468.78283878783054
 10
717.5
 20
468.3531725275397
 10
720.0
 20
467.91072743754404
 10
722.5
 20
459.2219616065325
 10
725.0
 20
458.74860667235447
 10
727.5
 20
458.2581560341583
 10
730.0
 20
457.7514177886342
 10
732.5
 20
457.2292000324724
 10
735.0
 20
456.69231086236306
 10
737.5
 20
456.14155837499635
 10
740.0
 20
455.57775066706245
  0
LWPOLYLINE
  5
E4
330
17
100
AcDbEntity
  8
24_КРИВАЯ_В
  6
CONTINUOUS
100
AcDbPolyline
 90
281
 70
0
 10
40.0
 20
461.27017419861807
 10
42.5
 20
458.7525750062614
 10
45.0
 20
455.8847878000452
 10
47.5
 20
452.7540716762412
 10
50.0
 20
449.3721020398035
 10
52.5
 20
445.79080710185826
 10
55.0
 20
442.19014864395774
 10
57.5
 20
438.5895809240126
 10
60.0
 20
438.0162906642171
 10
62.5
 20
434.52259166305646
 10
65.0
 20
444.58742178855056
 10
67.5
 20
450.8003367607479
 10
70.0
 20
452.2614548987837
 10
72.5
 20
453.63740722544907
 10
75.0
 20
450.8031089778925
 10
77.5
 20
457.6426908057626
 10
80.0
 20
445.59203523009774
 10
82.5
 20
443.3366819161069
 10
85.0
 20
441.32590006821715
 10
87.5
 20
439.57467898393435
 10
90.0
 20
438.09561691928803
 10
92.5
 20
436.8318364426667
 10
95.0
 20
435.8729980045514
 10
97.5
 20
439.93206331963967
 10
100.0
 20
429.9185087918948
 10
102.5
 20
429.7574443880694
 10
105.0
 20
425.53565827404924
 10
107.5
 20
426.0427537259008
 10
110.0
 20
422.08178864104116
 10
112.5
 20
421.1003113476073
 10
115.0
 20
434.60862084493226
 10
117.5
 20
436.0986814946652
 10
120.0
 20
437.76247330234526
 10
122.5
 20
439.5959422772015
 10
125.0
 20
441.59310521509843
 10
127.5
 20
443.74663596297813
 10
130.0
 20
446.0515025582084
 10
132.5
 20
449.8521264057035
 10
135.0
 20
452.42927457137046
 10
137.5
 20
452.55520009668487
 10
140.0
 20
455.36486664014774
 10
142.5
 20
461.29938183883905
 10
145.0
 20
454.7340611596988
 10
147.5
 20
457.74350029985754
 10
150.0
 20
460.69591211847853
 10
152.5
 20
463.57135814949356
 10
155.0
 20
466.35137758810754
 10
157.5
 20
469.01910344415865
 10
160.0
 20
464.3858757438339
 10
162.5
 20
466.77365642760924
 10
165.0
 20
468.9990526692537
 10
167.5
 20
471.04602808136525
 10
170.0
 20
473.07064455269347
 10
172.5
 20
474.7318510356979
 10
175.0
 20
476.18281535147713
 10
177.5
 20
477.4199069738563
 10
180.0
 20
481.12563511544715
 10
182.5
 20
481.9186890364744
 10
185.0
 20
482.4841230456544
 10
187.5
 20
482.8198389465639
 10
190.0
 20
483.64157252422564
 10
192.5
 20
483.51516544018807
 10
195.0
 20
483.1578224424726
 10
197.5
 20
482.5706406435452
 10
200.0
 20
481.7556839745008
 10
202.5
 20
480.7162118234754
 10
205.0
 20
479.4568882197997
 10
207.5
 20
477.9831575753027
 10
210.0
 20
487.76943806186915
 10
212.5
 20
485.88701625434936
 10
215.0
 20
483.8169524147491
 10
217.5
 20
481.56842921316667
 10
219.99999999999997
 20
479.15764578798485
 10
222.5
 20
473.91039451494555
 10
225.0
 20
471.21974763343064
 10
227.5
 20
468.41709044323136
 10
229.99999999999997
 20
465.51856623206106
 10
232.50000000000003
 20
462.54354593011413
 10
235.0
 20
459.5114881209216
 10
237.5
 20
444.9707960406097
 10
240.0
 20
442.6274573645062
 10
242.50000000000003
 20
439.5367405386434
 10
245.0
 20
436.46439440077273
 10
247.5
 20
433.42930842818083
 10
250.0
 20
430.4501532225765
 10
252.49999999999997
 20
427.5452647161252
 10
255.0
 20
424.73253019110376
 10
257.5
 20
422.0292768388692
 10
260.0
 20
429.01065780403377
 10
262.5
 20
426.5755710326411
 10
265.0
 20
424.29752505853094
 10
267.5
 20
422.19056777709045
 10
270.0
 20
420.2676922846508
 10
272.5
 20
418.5407549906765
 10
275.0
 20
417.02040078171115
 10
277.5
 20
415.71599574121814
 10
280.0
 20
414.6355678807352
 10
282.5
 20
413.7857562852438
 10
285.0
 20
413.1717690197206
 10
287.5
 20
412.7973500849488
 10
290.0
 20
412.66475564929453
 10
292.5
 20
403.2162454895481
 10
295.0
 20
403.56805512108156
 10
297.5
 20
404.1594351962318
 10
300.0
 20
404.9866427434584
 10
302.5
 20
406.044470694662
 10
305.0
 20
407.3262809190213
 10
307.5
 20
408.82404630645823
 10
310.0
 20
410.52840161274275
 10
312.5
 20
412.42870271935004
 10
315.0
 20
449.1626354899907
 10
317.5
 20
451.41812426003384
 10
320.0
 20
453.8306632258332
 10
322.5
 20
456.38523849055696
 10
325.0
 20
459.06596394887134
 10
327.5
 20
461.85618087792585
 10
330.0
 20
464.73856216477134
 10
332.5
 20
467.6952204901438
 10
335.0
 20
470.70781976821166
 10
337.5
 20
473.75768912668184
 10
340.0
 20
476.82593870158064
 10
342.5
 20
481.44228650055595
 10
345.0
 20
488.73174994101606
 10
347.5
 20
461.362363386214
 10
350.0
 20
485.1898789537223
 10
352.5
 20
487.75851420883254
 10
355.0
 20
510.53590285544055
 10
357.5
 20
512.1009128217166
 10
360.0
 20
513.5920231464962
 10
362.5
 20
515.0
 10
365.0
 20
508.54984553584745
 10
367.5
 20
509.76595790906066
 10
370.0
 20
510.87452218158137
 10
372.5
 20
511.8686630472522
 10
375.0
 20
512.7422106582685
 10
377.5
 20
513.489738664342
 10
380.0
 20
514.1065976679547
 10
382.5
 20
501.2070519670587
 10
385.0
 20
501.5518709427834
 10
387.5
 20
501.75699611031547
 10
390.0
 20
501.63577556531
 10
392.5
 20
482.34784366191457
 10
395.0
 20
499.87617604636534
 10
397.5
 20
498.5816755051519
 10
399.99999999999994
 20
497.7199644354223
 10
402.50000000000006
 20
496.67775716828464
 10
405.0
 20
495.41559331954466
 10
407.5
 20
493.93654947587453
 10
410.0
 20
492.2492375057186
 10
412.5
 20
490.36377768389383
 10
415.0
 20
488.2897252658021
 10
417.5
 20
467.2628531158949
 10
419.99999999999994
 20
471.5409703400569
 10
422.49999999999994
 20
468.9793261466792
 10
425.00000000000006
 20
481.13998534571044
 10
427.5
 20
478.3369455194728
 10
430.0
 20
475.4370860112998
 10
432.5
 20
472.4618911424333
 10
435.0
 20
469.4296554542717
 10
437.5
 20
466.35897635187507
 10
440.0
 20
463.2686991024665
 10
442.49999999999994
 20
460.1778010650387
 10
445.00000000000006
 20
457.10527482875597
 10
447.50000000000006
 20
454.0700109771951
 10
450.0
 20
451.09068120467117
 10
452.5
 20
447.5483895668514
 10
455.0
 20
444.73549028853864
 10
457.5
 20
442.0320786240872
 10
460.0
 20
439.45481445980766
 10
462.5
 20
437.01958512855595
 10
464.99999999999994
 20
434.74140580875144
 10
467.50000000000006
 20
432.6343252138253
 10
470.0
 20
427.5251724528767
 10
472.5
 20
419.10718815070544
 10
475.0
 20
417.58674499172474
 10
477.5
 20
416.2822636425368
 10
480.0
 20
415.20177258107134
 10
482.5
 20
414.35191127788835
 10
485.0
 20
413.7378881003523
 10
487.49999999999994
 20
413.3634472665792
 10
490.00000000000006
 20
413.2308450758735
 10
492.5
 20
402.31180377487317
 10
495.0
 20
402.6636339829906
 10
497.5
 20
403.2550486477365
 10
500.0
 20
421.9393097104287
 10
502.5
 20
422.9971995401975
 10
505.0
 20
424.2790847508345
 10
507.49999999999994
 20
425.7769377658696
 10
509.99999999999994
 20
427.48139279674285
 10
512.5
 20
429.38180510601774
 10
515.0
 20
435.0507536193405
 10
517.5
 20
437.3063744126608
 10
520.0
 20
439.71905461590194
 10
522.5
 20
442.27377945738
 10
525.0
 20
444.95466190549394
 10
527.5
 20
447.74504226542257
 10
530.0
 20
450.62759241253434
 10
532.5
 20
453.5844239824092
 10
535.0
 20
456.5971998170288
 10
537.5
 20
459.64724795149374
 10
540.0
 20
462.71567741554037
 10
542.5
 20
465.78349511908556
 10
545.0
 20
468.8317230909026
 10
547.5
 20
471.84151534416486
 10
550.0
 20
474.7942736517905
 10
552.5
 20
477.6717338973632
 10
555.0
 20
480.45314824435343
 10
557.5
 20
461.6815609199202
 10
560.0
 20
464.222023531507
 10
562.5
 20
465.86753631964734
 10
565.0
 20
468.09825904422826
 10
567.5
 20
470.1530857300065
 10
570.0
 20
474.88607208448445
 10
572.5
 20
476.55377489515433
 10
575.0
 20
478.0141992061267
 10
577.5
 20
479.2578350633
 10
580.0
 20
480.280367518532
 10
582.5
 20
481.0779557020706
 10
585.0
 20
481.64695793557206
 10
587.5
 20
481.9849424261241
 10
590.0
 20
482.09052229857593
 10
592.5
 20
481.08134766681474
 10
595.0
 20
480.7216019975181
 10
597.5
 20
480.13074438976275
 10
600.0
 20
479.31117806165014
 10
602.5
 20
478.2665328631603
 10
605.0
 20
477.0002918784662
 10
607.5
 20
475.51732308654107
 10
610.0
 20
473.82695955704565
 10
612.5
 20
471.9387894505163
 10
615.0
 20
469.8607523617476
 10
617.5
 20
467.6070858093464
 10
620.0
 20
465.19163373146756
 10
622.5
 20
459.76067799591243
 10
625.0
 20
457.0680989463497
 10
627.5
 20
454.26366795492686
 10
630.0
 20
454.54976019085797
 10
632.5
 20
448.23819786596215
 10
635.0
 20
445.20578429883165
 10
637.5
 20
442.21306780055073
 10
640.0
 20
439.36923295538816
 10
642.5
 20
436.7080691277065
 10
645.0
 20
434.2581322084678
 10
647.5
 20
432.04230869583483
 10
650.0
 20
432.7675955197732
 10
652.5
 20
431.06936709649557
 10
655.0
 20
429.6420964802798
 10
657.5
 20
428.48615694750043
 10
660.0
 20
427.59638750983936
 10
662.5
 20
426.9624586076436
 10
665.0
 20
426.5693619131678
 10
667.5
 20
426.39714019315085
 10
670.0
 20
426.4245867995007
 10
672.5
 20
424.20151976636964
 10
675.0
 20
425.28807956193344
 10
677.5
 20
426.8424424724465
 10
680.0
 20
428.7853792674314
 10
682.5
 20
431.0186014886592
 10
685.0
 20
433.4178635975737
 10
687.5
 20
435.87746852281714
 10
690.0
 20
438.46503416144134
 10
692.5
 20
433.3047819072821
 10
695.0
 20
436.19068405364294
 10
697.5
 20
439.17271153268825
 10
700.0
 20
442.1722246596495
 10
702.5
 20
445.1578610875546
 10
705.0
 20
447.9161872472811
 10
707.5
 20
450.60275890629686
 10
710.0
 20
453.20036589972614
 10
712.5
 20
455.677250692317
 10
715.0
 20
458.00077339454754
 10
717.5
 20
460.136868522
 10
720.0
 20
462.04919491127896
 10
722.5
 20
455.46590604555786
 10
725.0
 20
456.8116425867668
 10
727.5
 20
457.8066967032518
 10
730.0
 20
457.7514177886342
 10
732.5
 20
457.2292000324724
 10
735.0
 20
456.69231086236306
 10
737.5
 20
456.14155837499635
 10
740.0
 20
455.57775066706245
  0
LINE
  5
E5
330
17
100
AcDbEntity
  8
22_КРИВАЯ_А
  6
CONTINUOUS
100
AcDbLine
 10
43.0
 20
511.0
 30
0.0
 11
51.0
 21
511.0
 31
0.0
  0
TEXT
  5
E6
330
17
100
AcDbEntity
  8
08_ТЕКСТ
100
AcDbText
 10
53.0
 20
511.0
 30
0.0
 40
2.5
  1
тихая вода
  7
ГОСТ
 11
53.0
 21
511.0
 31
0.0
100
AcDbText
 73
2
  0
LINE
  5
E7
330
17
100
AcDbEntity
  8
23_КРИВАЯ_Б
  6
CONTINUOUS
100
AcDbLine
 10
43.0
 20
506.5
 30
0.0
 11
51.0
 21
506.5
 31
0.0
  0
TEXT
  5
E8
330
17
100
AcDbEntity
  8
08_ТЕКСТ
100
AcDbText
 10
53.0
 20
506.5
 30
0.0
 40
2.5
  1
перегиб
  7
ГОСТ
 11
53.0
 21
506.5
 31
0.0
100
AcDbText
 73
2
  0
LINE
  5
E9
330
17
100
AcDbEntity
  8
24_КРИВАЯ_В
  6
CONTINUOUS
100
AcDbLine
 10
43.0
 20
502.0
 30
0.0
 11
51.0
 21
502.0
 31
0.0
  0
TEXT
  5
EA
330
17
100
AcDbEntity
  8
08_ТЕКСТ
100
AcDbText
 10
53.0
 20
502.0
 30
0.0
 40
2.5
  1
прогиб
  7
ГОСТ
 11
53.0
 21
502.0
 31
0.0
100
AcDbText
 73
2
  0
LWPOLYLINE
  5
EB
330
17
100
AcDbEntity
  8
20_ГРАФИК
100
AcDbPolyline
 90
4
 70
1
 10
40.0
 20
250.0
 10
740.0
 20
250.0
 10
740.0
 20
370.0
 10
40.0
 20
370.0
  0
LINE
  5
EC
330
17
100
AcDbEntity
  8
21_СЕТКА
100
AcDbLine
 10
40.0
 20
250.0
 30
0.0
 11
40.0
 21
370.0
 31
0.0
  0
LINE
  5
ED
330
17
100
AcDbEntity
  8
20_ГРАФИК
100
AcDbLine
 10
40.0
 20
250.0
 30
0.0
 11
40.0
 21
248.5
 31
0.0
  0
TEXT
  5
EE
330
17
100
AcDbEntity
  8
08_ТЕКСТ
100
AcDbText
 10
40.0
 20
246.0
 30
0.0
 40
2.5
  1
0
  7
ГОСТ
 72
1
 11
40.0
 21
246.0
 31
0.0
100
AcDbText
 73
3
  0
LINE
  5
EF
330
17
100
AcDbEntity
  8
21_СЕТКА
100
AcDbLine
 10
140.0
 20
250.0
 30
0.0
 11
140.0
 21
370.0
 31
0.0
  0
LINE
  5
F0
330
17
100
AcDbEntity
  8
20_ГРАФИК
100
AcDbLine
 10
140.0
 20
250.0
 30
0.0
 11
140.0
 21
248.5
 31
0.0
  0
TEXT
  5
F1
330
17
100
AcDbEntity
  8
08_ТЕКСТ
100
AcDbText
 10
140.0
 20
246.0
 30
0.0
 40
2.5
  1
20
  7
ГОСТ
 72
1
 11
140.0
 21
246.0
 31
0.0
100
AcDbText
 73
3
  0
LINE
  5
F2
330
17
100
AcDbEntity
  8
21_СЕТКА
100
AcDbLine
 10
240.0
 20
250.0
 30
0.0
 11
240.0
 21
370.0
 31
0.0
  0
LINE
  5
F3
330
17
100
AcDbEntity
  8
20_ГРАФИК
100
AcDbLine
 10
240.0
 20
250.0
 30
0.0
 11
240.0
 21
248.5
 31
0.0
  0
TEXT
  5
F4
330
17
100
AcDbEntity
  8
08_ТЕКСТ
100
AcDbText
 10
240.0
 20
246.0
 30
0.0
 40
2.5
  1
40
  7
ГОСТ
 72
1
 11
240.0
 21
246.0
 31
0.0
100
AcDbText
 73
3
  0
LINE
  5
F5
330
17
100
AcDbEntity
  8
21_СЕТКА
100
AcDbLine
 10
340.0
 20
250.0
 30
0.0
 11
340.0
 21
370.0
 31
0.0
  0
LINE
  5
F6
330
17
100
AcDbEntity
  8
20_ГРАФИК
100
AcDbLine
 10
340.0
 20
250.0
 30
0.0
 11
340.0
 21
248.5
 31
0.0
  0
TEXT
  5
F7
330
17
100
AcDbEntity
  8
08_ТЕКСТ
100
AcDbText
 10
340.0
 20
246.0
 30
0.0
 40
2.5
  1
60
  7
ГОСТ
 72
1
 11
340.0
 21
246.0
 31
0.0
100
AcDbText
 73
3
  0
LINE
  5
F8
330
17
100
AcDbEntity
  8
21_СЕТКА
100
AcDbLine
 10
440.0
 20
250.0
 30
0.0
 11
440.0
 21
370.0
 31
0.0
  0
LINE
  5
F9
330
17
100
AcDbEntity
  8
20_ГРАФИК
100
AcDbLine
 10
440.0
 20
250.0
 30
0.0
 11
440.0
 21
248.5
 31
0.0
  0
TEXT
  5
FA
330
17
100
AcDbEntity
  8
08_ТЕКСТ
100
AcDbText
 10
440.0
 20
246.0
 30
0.0
 40
2.5
  1
80
  7
ГОСТ
 72
1
 11
440.0
 21
246.0
 31
0.0
100
AcDbText
 73
3
  0
LINE
  5
FB
330
17
100
AcDbEntity
  8
21_СЕТКА
100
AcDbLine
 10
540.0
 20
250.0
 30
0.0
 11
540.0
 21
370.0
 31
0.0
  0
LINE
  5
FC
330
17
100
AcDbEntity
  8
20_ГРАФИК
100
AcDbLine
 10
540.0
 20
250.0
 30
0.0
 11
540.0
 21
248.5
 31
0.0
  0
TEXT
  5
FD
330
17
100
AcDbEntity
  8
08_ТЕКСТ
100
AcDbText
 10
540.0
 20
246.0
 30
0.0
 40
2.5
  1
100
  7
ГОСТ
 72
1
 11
540.0
 21
246.0
 31
0.0
100
AcDbText
 73
3
  0
LINE
  5
FE
330
17
100
AcDbEntity
  8
21_СЕТКА
100
AcDbLine
 10
640.0
 20
250.0
 30
0.0
 11
640.0
 21
370.0
 31
0.0
  0
LINE
  5
FF
330
17
100
AcDbEntity
  8
20_ГРАФИК
100
AcDbLine
 10
640.0
 20
250.0
 30
0.0
 11
640.0
 21
248.5
 31
0.0
  0
TEXT
  5
100
330
17
100
AcDbEntity
  8
08_ТЕКСТ
100
AcDbText
 10
640.0
 20
246.0
 30
0.0
 40
2.5
  1
120
  7
ГОСТ
 72
1
 11
640.0
 21
246.0
 31
0.0
100
AcDbText
 73
3
  0
LINE
  5
101
330
17
100
AcDbEntity
  8
21_СЕТКА
100
AcDbLine
 10
740.0
 20
250.0
 30
0.0
 11
740.0
 21
370.0
 31
0.0
  0
LINE
  5
102
330
17
100
AcDbEntity
  8
20_ГРАФИК
100
AcDbLine
 10
740.0
 20
250.0
 30
0.0
 11
740.0
 21
248.5
 31
0.0
  0
TEXT
  5
103
330
17
100
AcDbEntity
  8
08_ТЕКСТ
100
AcDbText
 10
740.0
 20
246.0
 30
0.0
 40
2.5
  1
140
  7
ГОСТ
 72
1
 11
740.0
 21
246.0
 31
0.0
100
AcDbText
 73
3
  0
LINE
  5
104
330
17
100
AcDbEntity
  8
21_СЕТКА
100
AcDbLine
 10
40.0
 20
275.0573795124624
 30
0.0
 11
740.0
 21
275.0573795124624
 31
0.0
  0
LINE
  5
105
330
17
100
AcDbEntity
  8
20_ГРАФИК
100
AcDbLine
 10
40.0
 20
275.0573795124624
 30
0.0
 11
38.5
 21
275.0573795124624
 31
0.0
  0
TEXT
  5
106
330
17
100
AcDbEntity
  8
08_ТЕКСТ
100
AcDbText
 10
37.5
 20
275.0573795124624
 30
0.0
 40
2.5
  1
-1000
  7
ГОСТ
 72
2
 11
37.5
 21
275.0573795124624
 31
0.0
100
AcDbText
 73
2
  0
LINE
  5
107
330
17
100
AcDbEntity
  8
21_СЕТКА
100
AcDbLine
 10
40.0
 20
308.5792708544833
 30
0.0
 11
740.0
 21
308.5792708544833
 31
0.0
  0
LINE
  5
108
330
17
100
AcDbEntity
  8
20_ГРАФИК
100
AcDbLine
 10
40.0
 20
308.5792708544833
 30
0.0
 11
38.5
 21
308.5792708544833
 31
0.0
  0
TEXT
  5
109
330
17
100
AcDbEntity
  8
08_ТЕКСТ
100
AcDbText
 10
37.5
 20
308.5792708544833
 30
0.0
 40
2.5
  1
0
  7
ГОСТ
 72
2
 11
37.5
 21
308.5792708544833
 31
0.0
100
AcDbText
 73
2
  0
LINE
  5
10A
330
17
100
AcDbEntity
  8
21_СЕТКА
100
AcDbLine
 10
40.0
 20
342.1011621965042
 30
0.0
 11
740.0
 21
342.1011621965042
 31
0.0
  0
LINE
  5
10B
330
17
100
AcDbEntity
  8
20_ГРАФИК
100
AcDbLine
 10
40.0
 20
342.1011621965042
 30
0.0
 11
38.5
 21
342.1011621965042
 31
0.0
  0
TEXT
  5
10C
330
17
100
AcDbEntity
  8
08_ТЕКСТ
100
AcDbText
 10
37.5
 20
342.1011621965042
 30
0.0
 40
2.5
  1
1000
  7
ГОСТ
 72
2
 11
37.5
 21
342.1011621965042
 31
0.0
100
AcDbText
 73
2
  0
LINE
  5
10D
330
17
100
AcDbEntity
  8
20_ГРАФИК
100
AcDbLine
 10
40.0
 20
308.5792708544833
 30
0.0
 11
740.0
 21
308.5792708544833
 31
0.0
  0
TEXT
  5
10E
330
17
100
AcDbEntity
  8
08_ТЕКСТ
100
AcDbText
 10
390.0
 20
240.5
 30
0.0
 40
2.8
  1

  7
ГОСТ
 72
1
 11
390.0
 21
240.5
 31
0.0
100
AcDbText
 73
3
  0
TEXT
  5
10F
330
17
100
AcDbEntity
  8
08_ТЕКСТ
100
AcDbText
 10
26.0
 20
310.0
 30
0.0
 40
2.8
  1
N, кН
 50
90.0
  7
ГОСТ
 72
1
 11
26.0
 21
310.0
 31
0.0
100
AcDbText
 73
2
  0
TEXT
  5
110
330
17
100
AcDbEntity
  8
08_ТЕКСТ
100
AcDbText
 10
40.0
 20
373.0
 30
0.0
 40
3.5
  1
Перерезывающие силы N(x)
  7
ГОСТ
 11
40.0
 21
373.0
 31
0.0
100
AcDbText
 73
1
  0
LWPOLYLINE
  5
111
330
17
100
AcDbEntity
  8
22_КРИВАЯ_А
  6
CONTINUOUS
100
AcDbPolyline
 90
281
 70
0
 10
40.0
 20
308.5792708544833
 10
42.5
 20
308.7653418203602
 10
45.0
 20
308.88276995882865
 10
47.5
 20
308.9280931106891
 10
50.0
 20
308.8965806350101
 10
52.5
 20
308.78224392536237
 10
55.0
 20
308.5838682825979
 10
57.5
 20
308.3035089160672
 10
60.0
 20
308.04457385842215
 10
62.5
 20
307.8074940424855
 10
65.0
 20
307.9531412940786
 10
67.5
 20
308.8085757686669
 10
70.0
 20
310.06929336989947
 10
72.5
 20
311.5591720531383
 10
75.0
 20
313.11980489893807
 10
77.5
 20
314.9276172631862
 10
80.0
 20
316.6527720441744
 10
82.5
 20
317.96839556991046
 10
85.0
 20
319.2049230131603
 10
87.5
 20
320.36382439875024
 10
90.0
 20
321.4468305290538
 10
92.5
 20
322.45343296124054
 10
95.0
 20
323.3841601470051
 10
97.5
 20
324.4054190825553
 10
100.0
 20
325.18897195319437
 10
102.5
 20
325.5723956479517
 10
105.0
 20
325.7374433761271
 10
107.5
 20
325.68950107018975
 10
110.0
 20
325.4199986840295
 10
112.5
 20
324.8614063341669
 10
115.0
 20
324.60076041366744
 10
117.5
 20
324.7108634513979
 10
120.0
 20
324.7727926290273
 10
122.5
 20
324.78773694113835
 10
125.0
 20
324.75763505550117
 10
127.5
 20
324.6850923594312
 10
130.0
 20
324.5734163808222
 10
132.5
 20
324.47316880707365
 10
135.0
 20
324.3888497256064
 10
137.5
 20
324.19046550195645
 10
140.0
 20
323.88380095283236
 10
142.5
 20
323.6678867820259
 10
145.0
 20
323.220832418996
 10
147.5
 20
322.4440601479148
 10
150.0
 20
321.6683440807412
 10
152.5
 20
320.8936842164219
 10
155.0
 20
320.12008055390396
 10
157.5
 20
319.3475330921341
 10
160.0
 20
318.3294045145103
 10
162.5
 20
317.0656948199794
 10
165.0
 20
315.80304132303723
 10
167.5
 20
314.54144402263057
 10
170.0
 20
313.286579490842
 10
172.5
 20
312.0384477266183
 10
175.0
 20
310.7913721557707
 10
177.5
 20
309.5453527772461
 10
180.0
 20
308.3928785833221
 10
182.5
 20
307.3339495729457
 10
185.0
 20
306.2760767517328
 10
187.5
 20
305.21926011863025
 10
190.0
 20
304.18816340413986
 10
192.5
 20
303.1827866072084
 10
195.0
 20
302.17846599522795
 10
197.5
 20
301.1752015671453
 10
200.0
 20
300.1729933219073
 10
202.5
 20
299.1718412584608
 10
205.0
 20
298.1717453757527
 10
207.5
 20
297.1727056727298
 10
210.0
 20
296.5693418532173
 10
212.5
 20
296.36165391616197
 10
215.0
 20
296.1550221556324
 10
217.5
 20
295.94944657057556
 10
219.99999999999997
 20
295.74492715993813
 10
222.5
 20
295.44897492933626
 10
225.0
 20
295.06158987771676
 10
227.5
 20
294.6752609973573
 10
229.99999999999997
 20
294.2899882872048
 10
232.50000000000003
 20
293.905771746206
 10
235.0
 20
293.52261137330794
 10
237.5
 20
292.74588746257905
 10
240.0
 20
291.6012914000026
 10
242.50000000000003
 20
290.48344288940365
 10
245.0
 20
289.3666505426928
 10
247.5
 20
288.25091435881683
 10
250.0
 20
287.1362343367226
 10
252.49999999999997
 20
286.02261047535706
 10
255.0
 20
284.91004277366693
 10
257.5
 20
283.79853123059917
 10
260.0
 20
283.0169255991658
 10
262.5
 20
282.5652258783137
 10
265.0
 20
282.1145823129245
 10
267.5
 20
281.664994901945
 10
270.0
 20
281.2164636443222
 10
272.5
 20
280.7689885390028
 10
275.0
 20
280.3225695849337
 10
277.5
 20
279.87720678106183
 10
280.0
 20
279.43290012633395
 10
282.5
 20
278.989649619697
 10
285.0
 20
278.5474552600977
 10
287.5
 20
278.10631704648307
 10
290.0
 20
277.66623497779983
 10
292.5
 20
276.8983592989297
 10
295.0
 20
275.80269000881947
 10
297.5
 20
274.7080768604813
 10
300.0
 20
273.614519852862
 10
302.5
 20
272.52201898490836
 10
305.0
 20
271.43057425556736
 10
307.5
 20
270.34018566378575
 10
310.0
 20
269.2508532085105
 10
312.5
 20
268.1625768886883
 10
315.0
 20
268.2674370617526
 10
317.5
 20
269.56543372665016
 10
320.0
 20
270.8644865238415
 10
322.5
 20
272.1645954522733
 10
325.0
 20
273.4657605108926
 10
327.5
 20
274.76798169864617
 10
330.0
 20
276.0712590144808
 10
332.5
 20
277.3755924573435
 10
335.0
 20
278.680982026181
 10
337.5
 20
279.98742771994023
 10
340.0
 20
281.29492953756795
 10
342.5
 20
282.6682964907148
 10
345.0
 20
284.29582878621324
 10
347.5
 20
285.13973558740355
 10
350.0
 20
285.8097072131561
 10
352.5
 20
287.32270891553355
 10
355.0
 20
289.608110785945
 10
357.5
 20
292.6217099330535
 10
360.0
 20
295.63592627598985
 10
362.5
 20
298.65075981475394
 10
365.0
 20
301.3990201241678
 10
367.5
 20
303.88070720423144
 10
370.0
 20
306.36301148012285
 10
372.5
 20
308.84593295184203
 10
375.0
 20
311.329471619389
 10
377.5
 20
313.8136274827637
 10
380.0
 20
316.2984005419662
 10
382.5
 20
318.32340114130517
 10
385.0
 20
319.8886292807806
 10
387.5
 20
321.4544746160838
 10
390.0
 20
322.97695374200566
 10
392.5
 20
323.6587834668876
 10
395.0
 20
323.9720714564686
 10
397.5
 20
324.5271659916617
 10
399.99999999999994
 20
324.83196288019394
 10
402.50000000000006
 20
325.0736164834039
 10
405.0
 20
325.31632618310067
 10
407.5
 20
325.56009197823107
 10
410.0
 20
325.80491386774196
 10
412.5
 20
326.05079185058025
 10
415.0
 20
326.2977259256927
 10
417.5
 20
325.8997612179695
 10
419.99999999999994
 20
325.08709255420325
 10
422.49999999999994
 20
324.50567480739744
 10
425.00000000000006
 20
324.4362950742007
 10
427.5
 20
324.87895335355995
 10
430.0
 20
325.3226677188746
 10
432.5
 20
325.76743816909135
 10
435.0
 20
326.2132647031572
 10
437.5
 20
326.66014732001895
 10
440.0
 20
327.10808601862345
 10
442.49999999999994
 20
327.5570807979176
 10
445.00000000000006
 20
328.0071316568482
 10
447.50000000000006
 20
328.4582385943621
 10
450.0
 20
328.9104016094062
 10
452.5
 20
329.34169738398964
 10
455.0
 20
329.75212591705935
 10
457.5
 20
330.16361052449975
 10
460.0
 20
330.5761512052578
 10
462.5
 20
330.98974795828025
 10
464.99999999999994
 20
331.404400782514
 10
467.50000000000006
 20
331.820109676906
 10
470.0
 20
332.1272580557145
 10
472.5
 20
332.09565109004086
 10
475.0
 20
331.8349053635203
 10
477.5
 20
331.57521570294534
 10
480.0
 20
331.31658210726283
 10
482.5
 20
331.05900457541964
 10
485.0
 20
330.8024831063625
 10
487.49999999999994
 20
330.54701769903846
 10
490.00000000000006
 20
330.29260835239427
 10
492.5
 20
329.6598130414554
 10
495.0
 20
328.6486317651686
 10
497.5
 20
327.6385065464023
 10
500.0
 20
327.2437885155615
 10
502.5
 20
327.46447767159304
 10
505.0
 20
327.6862228819856
 10
507.49999999999994
 20
327.909024145686
 10
509.99999999999994
 20
328.1328814616411
 10
512.5
 20
328.35779482879775
 10
515.0
 20
328.7070829038772
 10
517.5
 20
329.18074568582654
 10
520.0
 20
329.6554645158179
 10
522.5
 20
330.13123939279825
 10
525.0
 20
330.6080703157145
 10
527.5
 20
331.0859572835133
 10
530.0
 20
331.5649002951418
 10
532.5
 20
332.04489934954665
 10
535.0
 20
332.52595444567476
 10
537.5
 20
333.0080655824729
 10
540.0
 20
333.49123275888815
 10
542.5
 20
333.9754559738671
 10
545.0
 20
334.4607352263568
 10
547.5
 20
334.947070515304
 10
550.0
 20
335.43446183965557
 10
552.5
 20
335.9229091983584
 10
555.0
 20
336.41241259035934
 10
557.5
 20
336.16530222537256
 10
560.0
 20
335.18157810234493
 10
562.5
 20
334.1732186224196
 10
565.0
 20
333.1402237845434
 10
567.5
 20
332.1082849746997
 10
570.0
 20
331.1760571180547
 10
572.5
 20
330.34354021355534
 10
575.0
 20
329.5120793339289
 10
577.5
 20
328.6816744781224
 10
580.0
 20
327.8523256450824
 10
582.5
 20
327.02403283375594
 10
585.0
 20
326.1967960430899
 10
587.5
 20
325.370615272031
 10
590.0
 20
324.5454905195262
 10
592.5
 20
323.69108147983184
 10
595.0
 20
322.80738815189466
 10
597.5
 20
321.9247508393521
 10
600.0
 20
321.0431695411511
 10
602.5
 20
320.16264425623837
 10
605.0
 20
319.2831749835609
 10
607.5
 20
318.4047617220655
 10
610.0
 20
317.5274044706989
 10
612.5
 20
316.65110322840815
 10
615.0
 20
315.77585799414004
 10
617.5
 20
314.9016687668414
 10
620.0
 20
314.0285355454591
 10
622.5
 20
313.05780340272037
 10
625.0
 20
311.9894723375722
 10
627.5
 20
310.92219727518085
 10
630.0
 20
309.9655947991817
 10
632.5
 20
309.0048867662046
 10
635.0
 20
307.9304565905081
 10
637.5
 20
306.85995995685516
 10
640.0
 20
305.80172853468054
 10
642.5
 20
304.76620195706937
 10
645.0
 20
303.7628538907259
 10
647.5
 20
302.8001386554435
 10
650.0
 20
301.97799541598994
 10
652.5
 20
301.302876302879
 10
655.0
 20
300.68771046691614
 10
657.5
 20
300.13688221724954
 10
660.0
 20
299.6537514967513
 10
662.5
 20
299.2406731501767
 10
665.0
 20
298.8990267113601
 10
667.5
 20
298.62922750585443
 10
670.0
 20
298.4308228250565
 10
672.5
 20
298.21710388281286
 10
675.0
 20
298.0050850588084
 10
677.5
 20
297.90407300954433
 10
680.0
 20
297.9240459135689
 10
682.5
 20
298.0704779438427
 10
685.0
 20
298.34315108863217
 10
687.5
 20
298.73617889784316
 10
690.0
 20
299.2437577273094
 10
692.5
 20
299.5915368225373
 10
695.0
 20
299.7782357983211
 10
697.5
 20
300.07405745368885
 10
700.0
 20
300.4747093006259
 10
702.5
 20
300.97391205801534
 10
705.0
 20
301.5625239938956
 10
707.5
 20
302.2313483611496
 10
710.0
 20
302.9740423307344
 10
712.5
 20
303.7839802769143
 10
715.0
 20
304.6534824940237
 10
717.5
 20
305.573662853516
 10
720.0
 20
306.5079684588803
 10
722.5
 20
307.1345156693063
 10
725.0
 20
307.44584993010204
 10
727.5
 20
307.72402549269634
 10
730.0
 20
307.9678938400255
 10
732.5
 20
308.1763620584278
 10
735.0
 20
308.34839283764336
 10
737.5
 20
308.4830044708139
 10
740.0
 20
308.5792708544833
  0
LWPOLYLINE
  5
112
330
17
100
AcDbEntity
  8
23_КРИВАЯ_Б
  6
CONTINUOUS
100
AcDbPolyline
 90
281
 70
0
 10
40.0
 20
308.5792708544833
 10
42.5
 20
308.53805920290824
 10
45.0
 20
308.5534958938345
 10
47.5
 20
308.6319269789101
 10
50.0
 20
308.7760185861404
 10
52.5
 20
308.98474511272525
 10
55.0
 20
309.25972877456866
 10
57.5
 20
309.6030986521562
 10
60.0
 20
310.1160236712655
 10
62.5
 20
310.79551163922235
 10
65.0
 20
311.9967596408377
 10
67.5
 20
314.04034085850674
 10
70.0
 20
316.615515522519
 10
72.5
 20
319.53880240448126
 10
75.0
 20
322.6429097246603
 10
77.5
 20
326.0951206335323
 10
80.0
 20
329.55654328187677
 10
82.5
 20
332.68964170952756
 10
85.0
 20
335.81274348663834
 10
87.5
 20
338.91428882298135
 10
90.0
 20
341.9820615369639
 10
92.5
 20
345.0007299511816
 10
95.0
 20
347.9555966005554
 10
97.5
 20
350.99780157348073
 10
100.0
 20
353.7833038405867
 10
102.5
 20
356.13302097398383
 10
105.0
 20
358.21138966175334
 10
107.5
 20
360.0060594241601
 10
110.0
 20
361.49047685557355
 10
112.5
 20
362.58001422565695
 10
115.0
 20
363.84653090838253
 10
117.5
 20
365.34881506937046
 10
120.0
 20
366.6543887524332
 10
122.5
 20
367.7517137331313
 10
125.0
 20
368.6313003394162
 10
127.5
 20
369.28579619541165
 10
130.0
 20
369.7101957998233
 10
132.5
 20
369.94845890688845
 10
135.0
 20
370.0
 10
137.5
 20
369.7311096664968
 10
140.0
 20
369.14525560754925
 10
142.5
 20
368.44058647111046
 10
145.0
 20
367.2957871771845
 10
147.5
 20
365.6142555291069
 10
150.0
 20
363.7300134910625
 10
152.5
 20
361.64754507502
 10
155.0
 20
359.3725812874003
 10
157.5
 20
356.91206538052967
 10
160.0
 20
354.0274732283319
 10
162.5
 20
350.7280383368717
 10
165.0
 20
347.2706952079421
 10
167.5
 20
343.66674139757004
 10
170.0
 20
339.9340818062076
 10
172.5
 20
336.0858000735
 10
175.0
 20
332.1300777256329
 10
177.5
 20
328.08146157825905
 10
180.0
 20
324.047586058678
 10
182.5
 20
320.04410133203606
 10
185.0
 20
315.99457621641113
 10
187.5
 20
311.9153764999727
 10
190.0
 20
307.8477380560084
 10
192.5
 20
303.8083364472242
 10
195.0
 20
299.78918333706304
 10
197.5
 20
295.80685036585703
 10
200.0
 20
291.87770249183814
 10
202.5
 20
288.0177963764853
 10
205.0
 20
284.24278072688026
 10
207.5
 20
280.5677992258623
 10
210.0
 20
277.4020163679192
 10
212.5
 20
274.75928797248935
 10
215.0
 20
272.2580754644338
 10
217.5
 20
269.91060445748934
 10
219.99999999999997
 20
267.72816961908455
 10
222.5
 20
265.62857610922435
 10
225.0
 20
263.6210542892495
 10
227.5
 20
261.8062031194186
 10
229.99999999999997
 20
260.19096258688745
 10
232.50000000000003
 20
258.7810604263644
 10
235.0
 20
257.5809774082165
 10
237.5
 20
256.1993006818286
 10
240.0
 20
254.6636355304974
 10
242.50000000000003
 20
253.36921156492016
 10
245.0
 20
252.28964033974188
 10
247.5
 20
251.42292291667871
 10
250.0
 20
250.76577156896911
 10
252.49999999999997
 20
250.3136307807266
 10
255.0
 20
250.06070600688682
 10
257.5
 20
250.0
 10
260.0
 20
250.45217087276865
 10
262.5
 20
251.4078333141235
 10
265.0
 20
252.52770751011423
 10
267.5
 20
253.80038625802482
 10
270.0
 20
255.21343420629265
 10
272.5
 20
256.7535814608261
 10
275.0
 20
258.4068860092149
 10
277.5
 20
260.1587496311051
 10
280.0
 20
261.99402599002474
 10
282.5
 20
263.89718627413697
 10
285.0
 20
265.8524094457528
 10
287.5
 20
267.8436316393443
 10
290.0
 20
269.85463437090795
 10
292.5
 20
271.54027662431514
 10
295.0
 20
272.8842722164106
 10
297.5
 20
274.1992668865215
 10
300.0
 20
275.46921846136945
 10
302.5
 20
276.6783316013902
 10
305.0
 20
277.8111367730907
 10
307.5
 20
278.85252917705236
 10
310.0
 20
279.7879157549817
 10
312.5
 20
280.60337692085363
 10
315.0
 20
282.4777658891771
 10
317.5
 20
285.398646566289
 10
320.0
 20
288.1624779675385
 10
322.5
 20
290.7588621984601
 10
325.0
 20
293.1784127005822
 10
327.5
 20
295.4128821622447
 10
330.0
 20
297.45527556780127
 10
332.5
 20
299.29980164389985
 10
335.0
 20
300.9419081162559
 10
337.5
 20
302.3783104327061
 10
340.0
 20
303.6070127257598
 10
342.5
 20
304.7024779531462
 10
345.0
 20
305.89331048709846
 10
347.5
 20
306.2023665054406
 10
350.0
 20
306.2803732192002
 10
352.5
 20
307.13372288776634
 10
355.0
 20
308.6596135086973
 10
357.5
 20
310.8048186373827
 10
360.0
 20
312.8465097139514
 10
362.5
 20
314.79008929442017
 10
365.0
 20
316.37438723609205
 10
367.5
 20
317.6060044308687
 10
370.0
 20
318.7592721085571
 10
372.5
 20
319.8418269610782
 10
375.0
 20
320.8617544848998
 10
377.5
 20
321.82753913126226
 10
380.0
 20
322.7480119967152
 10
382.5
 20
323.1719067207792
 10
385.0
 20
323.1085825491797
 10
387.5
 20
323.027966630985
 10
390.0
 20
322.85891658087087
 10
392.5
 20
321.68042487672807
 10
395.0
 20
319.83274980932833
 10
397.5
 20
317.91828388181744
 10
399.99999999999994
 20
315.57141746677655
 10
402.50000000000006
 20
313.1555882999118
 10
405.0
 20
310.8246268156113
 10
407.5
 20
308.59367263007465
 10
410.0
 20
306.4772666258987
 10
412.5
 20
304.48926089922435
 10
415.0
 20
302.64273306316363
 10
417.5
 20
300.30395056912107
 10
419.99999999999994
 20
297.71439987272015
 10
422.49999999999994
 20
295.53032722906806
 10
425.00000000000006
 20
294.0417476093795
 10
427.5
 20
293.2567687925499
 10
430.0
 20
292.6713469654411
 10
432.5
 20
292.2912083128589
 10
435.0
 20
292.12083238966767
 10
437.5
 20
292.1634251765215
 10
440.0
 20
292.42090004335165
 10
442.49999999999994
 20
292.8938667201727
 10
445.00000000000006
 20
293.58162832447033
 10
447.50000000000006
 20
294.48218644429
 10
450.0
 20
295.592254226479
 10
452.5
 20
296.8853540537159
 10
455.0
 20
298.3556918189331
 10
457.5
 20
300.0180876840247
 10
460.0
 20
301.8642406596082
 10
462.5
 20
303.8847627999073
 10
464.99999999999994
 20
306.06907531175943
 10
467.50000000000006
 20
308.40556817736615
 10
470.0
 20
310.77215733992
 10
472.5
 20
312.9252990161561
 10
475.0
 20
314.9605794416517
 10
477.5
 20
317.09365283815004
 10
480.0
 20
319.30947419317414
 10
482.5
 20
321.592549528453
 10
485.0
 20
323.9271047497275
 10
487.49999999999994
 20
326.29723400815465
 10
490.00000000000006
 20
328.6869059038313
 10
492.5
 20
330.7005827495301
 10
495.0
 20
332.32217530992307
 10
497.5
 20
333.91511249364055
 10
500.0
 20
336.0778816474887
 10
502.5
 20
338.7947793033576
 10
505.0
 20
341.4360041319661
 10
507.49999999999994
 20
343.9865335061354
 10
509.99999999999994
 20
346.4318631875191
 10
512.5
 20
348.75804265331067
 10
515.0
 20
351.0750772414071
 10
517.5
 20
353.3704889410948
 10
520.0
 20
355.50937693014464
 10
522.5
 20
357.4811321459698
 10
525.0
 20
359.27631694339993
 10
527.5
 20
360.886647187209
 10
530.0
 20
362.30500015832195
 10
532.5
 20
363.525539079938
 10
535.0
 20
364.54371289327526
 10
537.5
 20
365.3562379197794
 10
540.0
 20
365.961118818289
 10
542.5
 20
366.35766163689993
 10
545.0
 20
366.5464788604329
 10
547.5
 20
366.5294864032829
 10
550.0
 20
366.3098925470934
 10
552.5
 20
365.89217887282797
 10
555.0
 20
365.2820732871023
 10
557.5
 20
363.7488455035172
 10
560.0
 20
361.30060433548067
 10
562.5
 20
358.65855671559797
 10
565.0
 20
355.8329942855425
 10
567.5
 20
352.86089990907624
 10
570.0
 20
349.8531502631839
 10
572.5
 20
346.8228219542565
 10
575.0
 20
343.68511070880027
 10
577.5
 20
340.4545555284429
 10
580.0
 20
337.14629371387366
 10
582.5
 20
333.7759670278499
 10
585.0
 20
330.35962466208525
 10
587.5
 20
326.91362362089126
 10
590.0
 20
323.45452715213526
 10
592.5
 20
319.9686615647935
 10
595.0
 20
316.4726933048246
 10
597.5
 20
313.0135254233858
 10
600.0
 20
309.6075140948511
 10
602.5
 20
306.27070736100444
 10
605.0
 20
303.01874552653845
 10
607.5
 20
299.8667641410131
 10
610.0
 20
296.82930018001264
 10
612.5
 20
293.9202020163803
 10
615.0
 20
291.15254374660094
 10
617.5
 20
288.5385444078602
 10
620.0
 20
286.08949258828517
 10
622.5
 20
283.71702197042146
 10
625.0
 20
281.4303579399539
 10
627.5
 20
279.33626101396555
 10
630.0
 20
277.5512840148072
 10
632.5
 20
275.9663734350656
 10
635.0
 20
274.47639102941383
 10
637.5
 20
273.2022791416559
 10
640.0
 20
272.15381829381766
 10
642.5
 20
271.3399974680927
 10
645.0
 20
270.76573725353103
 10
647.5
 20
270.43214364991957
 10
650.0
 20
270.4293592212743
 10
652.5
 20
270.7519693448736
 10
655.0
 20
271.29936648293835
 10
657.5
 20
272.0611314984833
 10
660.0
 20
273.0249397994978
 10
662.5
 20
274.17699585862994
 10
665.0
 20
275.50251162619367
 10
667.5
 20
276.9859794277298
 10
670.0
 20
278.61166084777346
 10
672.5
 20
280.27625279305335
 10
675.0
 20
281.9758262638178
 10
677.5
 20
283.7973050276185
 10
680.0
 20
285.68706239054785
 10
682.5
 20
287.57433693365044
 10
685.0
 20
289.4371907709223
 10
687.5
 20
291.2755660764998
 10
690.0
 20
293.08952531222764
 10
692.5
 20
294.60577097650986
 10
695.0
 20
295.8236055655883
 10
697.5
 20
297.01527877000365
 10
700.0
 20
298.1802118870338
 10
702.5
 20
299.31788654365556
 10
705.0
 20
300.4284248733133
 10
707.5
 20
301.5120056970316
 10
710.0
 20
302.56822154666656
 10
712.5
 20
303.5965772864831
 10
715.0
 20
304.5964680241298
 10
717.5
 20
305.5671791106389
 10
720.0
 20
306.50788614042636
 10
722.5
 20
307.13444364065913
 10
725.0
 20
307.44578819126156
 10
727.5
 20
307.72397404366257
 10
730.0
 20
307.9678526807985
 10
732.5
 20
308.17633118900756
 10
735.0
 20
308.3483722580298
 10
737.5
 20
308.48299418100714
 10
740.0
 20
308.5792708544833
  0
LWPOLYLINE
  5
113
330
17
100
AcDbEntity
  8
24_КРИВАЯ_В
  6
CONTINUOUS
100
AcDbPolyline
 90
281
 70
0
 10
40.0
 20
308.5792708544833
 10
42.5
 20
308.96119504780177
 10
45.0
 20
309.15784079139246
 10
47.5
 20
309.1481144540555
 10
50.0
 20
308.91432614011796
 10
52.5
 20
308.44097416818033
 10
55.0
 20
307.72053478361954
 10
57.5
 20
306.7523449270176
 10
60.0
 20
305.64055795803847
 10
62.5
 20
304.3888505804645
 10
65.0
 20
303.36321592963066
 10
67.5
 20
302.8975996606837
 10
70.0
 20
302.69600027977293
 10
72.5
 20
302.5920072688726
 10
75.0
 20
302.4378414288766
 10
77.5
 20
302.42147307963774
 10
80.0
 20
302.2258233206815
 10
82.5
 20
301.537990651773
 10
85.0
 20
300.70338617289144
 10
87.5
 20
299.73935401332784
 10
90.0
 20
298.66418742259805
 10
92.5
 20
297.494656272618
 10
95.0
 20
296.24865829994775
 10
97.5
 20
295.1093203117351
 10
100.0
 20
293.76512450115075
 10
102.5
 20
292.07088182620174
 10
105.0
 20
290.2258518744939
 10
107.5
 20
288.25302197006823
 10
110.0
 20
286.1613653810178
 10
112.5
 20
283.89966935673544
 10
115.0
 20
282.06894557454734
 10
117.5
 20
280.75422464965226
 10
120.0
 20
279.5480086398612
 10
122.5
 20
278.4621121407099
 10
125.0
 20
277.50800442879597
 10
127.5
 20
276.696696886541
 10
130.0
 20
276.0387757286356
 10
132.5
 20
275.5909074286561
 10
135.0
 20
275.3624595423408
 10
137.5
 20
275.22700801058556
 10
140.0
 20
275.1925523790838
 10
142.5
 20
275.45893095285896
 10
145.0
 20
275.70360733985547
 10
147.5
 20
275.82594743188656
 10
150.0
 20
276.1533986192782
 10
152.5
 20
276.68135101265585
 10
155.0
 20
277.40387363686773
 10
157.5
 20
278.31382010182296
 10
160.0
 20
279.15614558145
 10
162.5
 20
279.92121886199953
 10
165.0
 20
280.84500355261395
 10
167.5
 20
281.91577461302325
 10
170.0
 20
283.12662443032315
 10
172.5
 20
284.46428103777856
 10
175.0
 20
285.909008547526
 10
177.5
 20
287.44621574213613
 10
180.0
 20
289.1534753555281
 10
182.5
 20
291.01551074628037
 10
185.0
 20
292.9242834589358
 10
187.5
 20
294.86405926885425
 10
190.0
 20
296.84365588811784
 10
192.5
 20
298.84717447049775
 10
195.0
 20
300.8340501495519
 10
197.5
 20
302.78843046483837
 10
200.0
 20
304.69457170823233
 10
202.5
 20
306.5369133147044
 10
205.0
 20
308.30016731591485
 10
207.5
 20
309.9693935136129
 10
210.0
 20
311.9246040834688
 10
212.5
 20
314.15173844384594
 10
215.0
 20
316.24289176979556
 10
217.5
 20
318.185468735056
 10
219.99999999999997
 20
319.9677472472952
 10
222.5
 20
321.4865592797245
 10
225.0
 20
322.7322764299439
 10
227.5
 20
323.7890023385023
 10
229.99999999999997
 20
324.64958520857
 10
232.50000000000003
 20
325.30809507193834
 10
235.0
 20
325.7599378482207
 10
237.5
 20
325.6072089900806
 10
240.0
 20
324.87360314147355
 10
242.50000000000003
 20
323.95304443477517
 10
245.0
 20
322.8204521492425
 10
247.5
 20
321.4777402047854
 10
250.0
 20
319.9281147355939
 10
252.49999999999997
 20
318.1760550460113
 10
255.0
 20
316.22728666126807
 10
257.5
 20
314.0887466228351
 10
260.0
 20
312.0973909818061
 10
262.5
 20
310.26244572211044
 10
265.0
 20
308.2653501794417
 10
267.5
 20
306.11739329737964
 10
270.0
 20
303.8307943358551
 10
272.5
 20
301.418627475425
 10
275.0
 20
298.8947410296299
 10
277.5
 20
296.2736717679959
 10
280.0
 20
293.57055488525344
 10
282.5
 20
290.80103018187606
 10
285.0
 20
287.98114504683974
 10
287.5
 20
285.1272548553528
 10
290.0
 20
282.2559214120152
 10
292.5
 20
279.05496032922235
 10
295.0
 20
275.54103700996825
 10
297.5
 20
272.05956312214215
 10
300.0
 20
268.626894221744
 10
302.5
 20
265.2590779482481
 10
305.0
 20
261.97175441974946
 10
307.5
 20
258.7800592124408
 10
310.0
 20
255.69852953719706
 10
312.5
 20
252.74101420420345
 10
315.0
 20
251.11266829925574
 10
317.5
 20
250.82571167340512
 10
320.0
 20
250.6993535409908
 10
322.5
 20
250.7438836524537
 10
325.0
 20
250.968528676763
 10
327.5
 20
251.38139561293926
 10
330.0
 20
251.98942221373105
 10
332.5
 20
252.79833471707155
 10
335.0
 20
253.81261313344743
 10
337.5
 20
255.0354642885963
 10
340.0
 20
256.46880277136296
 10
342.5
 20
258.166521594339
 10
345.0
 20
260.27384709842124
 10
347.5
 20
261.6903443591923
 10
350.0
 20
262.98498734301944
 10
352.5
 20
265.1877616179442
 10
355.0
 20
268.26253869224433
 10
357.5
 20
272.17478991303216
 10
360.0
 20
276.19218367844
 10
362.5
 20
280.3093174324512
 10
365.0
 20
284.2529804674067
 10
367.5
 20
288.0165718914048
 10
370.0
 20
291.8601413249946
 10
372.5
 20
295.7760520762551
 10
375.0
 20
299.75621864871846
 10
377.5
 20
303.7921565911443
 10
380.0
 20
307.87503480698314
 10
382.5
 20
311.53534034533163
 10
385.0
 20
314.76371396046443
 10
387.5
 20
318.01100781469574
 10
390.0
 20
321.2611883175789
 10
392.5
 20
323.84361772332204
 10
395.0
 20
326.3655099926587
 10
397.5
 20
329.4459098554066
 10
399.99999999999994
 20
332.4521275676098
 10
402.50000000000006
 20
335.3928430090833
 10
405.0
 20
338.25427903096676
 10
407.5
 20
341.02140673882354
 10
410.0
 20
343.67959936699356
 10
412.5
 20
346.2148746091382
 10
415.0
 20
348.6139270744577
 10
417.5
 20
350.21821697782406
 10
419.99999999999994
 20
351.2462839107579
 10
422.49999999999994
 20
352.333404259474
 10
425.00000000000006
 20
353.75076843612277
 10
427.5
 20
355.4900714825606
 10
430.0
 20
357.03317238686185
 10
432.5
 20
358.374148339213
 10
435.0
 20
359.5084450789549
 10
437.5
 20
360.43277757332436
 10
440.0
 20
361.1451489645861
 10
442.49999999999994
 20
361.6448636419407
 10
445.00000000000006
 20
361.93253230997817
 10
447.50000000000006
 20
362.010069003263
 10
450.0
 20
361.88068004629025
 10
452.5
 20
361.5269216912479
 10
455.0
 20
360.9545198009938
 10
457.5
 20
360.1923351423273
 10
460.0
 20
359.2484744889129
 10
462.5
 20
358.1321643666232
 10
464.99999999999994
 20
356.85369446912534
 10
467.50000000000006
 20
355.42435440215
 10
470.0
 20
353.74674755725044
 10
472.5
 20
351.6037540531923
 10
475.0
 20
349.11883959927945
 10
477.5
 20
346.5367366439789
 10
480.0
 20
343.87258126788885
 10
482.5
 20
341.14201418666187
 10
485.0
 20
338.3610837281218
 10
487.49999999999994
 20
335.54614622420513
 10
490.00000000000006
 20
332.71376444822175
 10
492.5
 20
329.5011627174307
 10
495.0
 20
325.9250074095454
 10
497.5
 20
322.38130343102137
 10
500.0
 20
319.5007584260451
 10
502.5
 20
317.2994209729385
 10
505.0
 20
315.17858097351746
 10
507.49999999999994
 20
313.1533748898426
 10
509.99999999999994
 20
311.238340783884
 10
512.5
 20
309.44732827690177
 10
515.0
 20
307.91673152003415
 10
517.5
 20
306.658771080643
 10
520.0
 20
305.56141853593056
 10
522.5
 20
304.6349642402461
 10
525.0
 20
303.88863540450194
 10
527.5
 20
303.33053950435476
 10
530.0
 20
302.96761470094384
 10
532.5
 20
302.80558756982964
 10
535.0
 20
302.8489383862814
 10
537.5
 20
303.1008741663418
 10
540.0
 20
303.5633096135099
 10
542.5
 20
304.23685607077357
 10
545.0
 20
305.1208185274345
 10
547.5
 20
306.21320068003763
 10
550.0
 20
307.51071799706233
 10
552.5
 20
309.0088177375501
 10
555.0
 20
310.7016049960945
 10
557.5
 20
311.84426748347573
 10
560.0
 20
312.4285155133668
 10
562.5
 20
313.15677754248827
 10
565.0
 20
314.0183973018494
 10
567.5
 20
315.0274567976041
 10
570.0
 20
316.2700437292869
 10
572.5
 20
317.73283951469693
 10
575.0
 20
319.30325516259313
 10
577.5
 20
320.96670110373947
 10
580.0
 20
322.7081121379488
 10
582.5
 20
324.51214247285645
 10
585.0
 20
326.36318888704653
 10
587.5
 20
328.24543920783117
 10
590.0
 20
330.14294988533845
 10
592.5
 20
332.0093733531645
 10
595.0
 20
333.82870058454444
 10
597.5
 20
335.61532332855006
 10
600.0
 20
337.35342194801626
 10
602.5
 20
339.02738436702253
 10
605.0
 20
340.62184322252756
 10
607.5
 20
342.1217184608712
 10
610.0
 20
343.51241860025823
 10
612.5
 20
344.7800031235481
 10
615.0
 20
345.9111345372452
 10
617.5
 20
346.8932383276823
 10
620.0
 20
347.7147060936286
 10
622.5
 20
348.26622660453853
 10
625.0
 20
348.5382656038349
 10
627.5
 20
348.6211858615676
 10
630.0
 20
348.6174653722909
 10
632.5
 20
348.40644503963426
 10
635.0
 20
347.8739552265282
 10
637.5
 20
347.1341772681884
 10
640.0
 20
346.1935990135213
 10
642.5
 20
345.0636271769697
 10
645.0
 20
343.75781339469575
 10
647.5
 20
342.2914791231496
 10
650.0
 20
340.7738645336272
 10
652.5
 20
339.22277693068304
 10
655.0
 20
337.56415988160353
 10
657.5
 20
335.8166702547172
 10
660.0
 20
333.9988002022522
 10
662.5
 20
332.12850894072847
 10
665.0
 20
330.2228839637944
 10
667.5
 20
328.2978098124301
 10
670.0
 20
326.3677548283763
 10
672.5
 20
324.3621618756872
 10
675.0
 20
322.31746860901944
 10
677.5
 20
320.36363345885786
 10
680.0
 20
318.5301191584389
 10
682.5
 20
316.84028113509174
 10
685.0
 20
315.30981877238514
 10
687.5
 20
313.946520524729
 10
690.0
 20
312.75686477333517
 10
692.5
 20
311.4786984950294
 10
695.0
 20
310.1222856377553
 10
697.5
 20
308.96775261298404
 10
700.0
 20
308.01900808479274
 10
702.5
 20
307.2761762152008
 10
705.0
 20
306.73095922498175
 10
707.5
 20
306.3730681111474
 10
710.0
 20
306.19697350295826
 10
712.5
 20
306.19546134841056
 10
715.0
 20
306.35910207108964
 10
717.5
 20
306.6761711676512
 10
720.0
 20
307.132521869459
 10
722.5
 20
307.4281731112242
 10
725.0
 20
307.54363197620637
 10
727.5
 20
307.73962323609885
 10
730.0
 20
307.96794645503905
 10
732.5
 20
308.176401519688
 10
735.0
 20
308.3484191451501
 10
737.5
 20
308.4830176245673
 10
740.0
 20
308.5792708544833
  0
LINE
  5
114
330
17
100
AcDbEntity
  8
22_КРИВАЯ_А
  6
CONTINUOUS
100
AcDbLine
 10
43.0
 20
366.0
 30
0.0
 11
51.0
 21
366.0
 31
0.0
  0
TEXT
  5
115
330
17
100
AcDbEntity
  8
08_ТЕКСТ
100
AcDbText
 10
53.0
 20
366.0
 30
0.0
 40
2.5
  1
тихая вода
  7
ГОСТ
 11
53.0
 21
366.0
 31
0.0
100
AcDbText
 73
2
  0
LINE
  5
116
330
17
100
AcDbEntity
  8
23_КРИВАЯ_Б
  6
CONTINUOUS
100
AcDbLine
 10
43.0
 20
361.5
 30
0.0
 11
51.0
 21
361.5
 31
0.0
  0
TEXT
  5
117
330
17
100
AcDbEntity
  8
08_ТЕКСТ
100
AcDbText
 10
53.0
 20
361.5
 30
0.0
 40
2.5
  1
перегиб
  7
ГОСТ
 11
53.0
 21
361.5
 31
0.0
100
AcDbText
 73
2
  0
LINE
  5
118
330
17
100
AcDbEntity
  8
24_КРИВАЯ_В
  6
CONTINUOUS
100
AcDbLine
 10
43.0
 20
357.0
 30
0.0
 11
51.0
 21
357.0
 31
0.0
  0
TEXT
  5
119
330
17
100
AcDbEntity
  8
08_ТЕКСТ
100
AcDbText
 10
53.0
 20
357.0
 30
0.0
 40
2.5
  1
прогиб
  7
ГОСТ
 11
53.0
 21
357.0
 31
0.0
100
AcDbText
 73
2
  0
LWPOLYLINE
  5
11A
330
17
100
AcDbEntity
  8
20_ГРАФИК
100
AcDbPolyline
 90
4
 70
1
 10
40.0
 20
105.0
 10
740.0
 20
105.0
 10
740.0
 20
225.0
 10
40.0
 20
225.0
  0
LINE
  5
11B
330
17
100
AcDbEntity
  8
21_СЕТКА
100
AcDbLine
 10
40.0
 20
105.0
 30
0.0
 11
40.0
 21
225.0
 31
0.0
  0
LINE
  5
11C
330
17
100
AcDbEntity
  8
20_ГРАФИК
100
AcDbLine
 10
40.0
 20
105.0
 30
0.0
 11
40.0
 21
103.5
 31
0.0
  0
TEXT
  5
11D
330
17
100
AcDbEntity
  8
08_ТЕКСТ
100
AcDbText
 10
40.0
 20
101.0
 30
0.0
 40
2.5
  1
0
  7
ГОСТ
 72
1
 11
40.0
 21
101.0
 31
0.0
100
AcDbText
 73
3
  0
LINE
  5
11E
330
17
100
AcDbEntity
  8
21_СЕТКА
100
AcDbLine
 10
140.0
 20
105.0
 30
0.0
 11
140.0
 21
225.0
 31
0.0
  0
LINE
  5
11F
330
17
100
AcDbEntity
  8
20_ГРАФИК
100
AcDbLine
 10
140.0
 20
105.0
 30
0.0
 11
140.0
 21
103.5
 31
0.0
  0
TEXT
  5
120
330
17
100
AcDbEntity
  8
08_ТЕКСТ
100
AcDbText
 10
140.0
 20
101.0
 30
0.0
 40
2.5
  1
20
  7
ГОСТ
 72
1
 11
140.0
 21
101.0
 31
0.0
100
AcDbText
 73
3
  0
LINE
  5
121
330
17
100
AcDbEntity
  8
21_СЕТКА
100
AcDbLine
 10
240.0
 20
105.0
 30
0.0
 11
240.0
 21
225.0
 31
0.0
  0
LINE
  5
122
330
17
100
AcDbEntity
  8
20_ГРАФИК
100
AcDbLine
 10
240.0
 20
105.0
 30
0.0
 11
240.0
 21
103.5
 31
0.0
  0
TEXT
  5
123
330
17
100
AcDbEntity
  8
08_ТЕКСТ
100
AcDbText
 10
240.0
 20
101.0
 30
0.0
 40
2.5
  1
40
  7
ГОСТ
 72
1
 11
240.0
 21
101.0
 31
0.0
100
AcDbText
 73
3
  0
LINE
  5
124
330
17
100
AcDbEntity
  8
21_СЕТКА
100
AcDbLine
 10
340.0
 20
105.0
 30
0.0
 11
340.0
 21
225.0
 31
0.0
  0
LINE
  5
125
330
17
100
AcDbEntity
  8
20_ГРАФИК
100
AcDbLine
 10
340.0
 20
105.0
 30
0.0
 11
340.0
 21
103.5
 31
0.0
  0
TEXT
  5
126
330
17
100
AcDbEntity
  8
08_ТЕКСТ
100
AcDbText
 10
340.0
 20
101.0
 30
0.0
 40
2.5
  1
60
  7
ГОСТ
 72
1
 11
340.0
 21
101.0
 31
0.0
100
AcDbText
 73
3
  0
LINE
  5
127
330
17
100
AcDbEntity
  8
21_СЕТКА
100
AcDbLine
 10
440.0
 20
105.0
 30
0.0
 11
440.0
 21
225.0
 31
0.0
  0
LINE
  5
128
330
17
100
AcDbEntity
  8
20_ГРАФИК
100
AcDbLine
 10
440.0
 20
105.0
 30
0.0
 11
440.0
 21
103.5
 31
0.0
  0
TEXT
  5
129
330
17
100
AcDbEntity
  8
08_ТЕКСТ
100
AcDbText
 10
440.0
 20
101.0
 30
0.0
 40
2.5
  1
80
  7
ГОСТ
 72
1
 11
440.0
 21
101.0
 31
0.0
100
AcDbText
 73
3
  0
LINE
  5
12A
330
17
100
AcDbEntity
  8
21_СЕТКА
100
AcDbLine
 10
540.0
 20
105.0
 30
0.0
 11
540.0
 21
225.0
 31
0.0
  0
LINE
  5
12B
330
17
100
AcDbEntity
  8
20_ГРАФИК
100
AcDbLine
 10
540.0
 20
105.0
 30
0.0
 11
540.0
 21
103.5
 31
0.0
  0
TEXT
  5
12C
330
17
100
AcDbEntity
  8
08_ТЕКСТ
100
AcDbText
 10
540.0
 20
101.0
 30
0.0
 40
2.5
  1
100
  7
ГОСТ
 72
1
 11
540.0
 21
101.0
 31
0.0
100
AcDbText
 73
3
  0
LINE
  5
12D
330
17
100
AcDbEntity
  8
21_СЕТКА
100
AcDbLine
 10
640.0
 20
105.0
 30
0.0
 11
640.0
 21
225.0
 31
0.0
  0
LINE
  5
12E
330
17
100
AcDbEntity
  8
20_ГРАФИК
100
AcDbLine
 10
640.0
 20
105.0
 30
0.0
 11
640.0
 21
103.5
 31
0.0
  0
TEXT
  5
12F
330
17
100
AcDbEntity
  8
08_ТЕКСТ
100
AcDbText
 10
640.0
 20
101.0
 30
0.0
 40
2.5
  1
120
  7
ГОСТ
 72
1
 11
640.0
 21
101.0
 31
0.0
100
AcDbText
 73
3
  0
LINE
  5
130
330
17
100
AcDbEntity
  8
21_СЕТКА
100
AcDbLine
 10
740.0
 20
105.0
 30
0.0
 11
740.0
 21
225.0
 31
0.0
  0
LINE
  5
131
330
17
100
AcDbEntity
  8
20_ГРАФИК
100
AcDbLine
 10
740.0
 20
105.0
 30
0.0
 11
740.0
 21
103.5
 31
0.0
  0
TEXT
  5
132
330
17
100
AcDbEntity
  8
08_ТЕКСТ
100
AcDbText
 10
740.0
 20
101.0
 30
0.0
 40
2.5
  1
140
  7
ГОСТ
 72
1
 11
740.0
 21
101.0
 31
0.0
100
AcDbText
 73
3
  0
LINE
  5
133
330
17
100
AcDbEntity
  8
21_СЕТКА
100
AcDbLine
 10
40.0
 20
119.90377054379405
 30
0.0
 11
740.0
 21
119.90377054379405
 31
0.0
  0
LINE
  5
134
330
17
100
AcDbEntity
  8
20_ГРАФИК
100
AcDbLine
 10
40.0
 20
119.90377054379405
 30
0.0
 11
38.5
 21
119.90377054379405
 31
0.0
  0
TEXT
  5
135
330
17
100
AcDbEntity
  8
08_ТЕКСТ
100
AcDbText
 10
37.5
 20
119.90377054379405
 30
0.0
 40
2.5
  1
-40
  7
ГОСТ
 72
2
 11
37.5
 21
119.90377054379405
 31
0.0
100
AcDbText
 73
2
  0
LINE
  5
136
330
17
100
AcDbEntity
  8
21_СЕТКА
100
AcDbLine
 10
40.0
 20
153.74324745058078
 30
0.0
 11
740.0
 21
153.74324745058078
 31
0.0
  0
LINE
  5
137
330
17
100
AcDbEntity
  8
20_ГРАФИК
100
AcDbLine
 10
40.0
 20
153.74324745058078
 30
0.0
 11
38.5
 21
153.74324745058078
 31
0.0
  0
TEXT
  5
138
330
17
100
AcDbEntity
  8
08_ТЕКСТ
100
AcDbText
 10
37.5
 20
153.74324745058078
 30
0.0
 40
2.5
  1
-20
  7
ГОСТ
 72
2
 11
37.5
 21
153.74324745058078
 31
0.0
100
AcDbText
 73
2
  0
LINE
  5
139
330
17
100
AcDbEntity
  8
21_СЕТКА
100
AcDbLine
 10
40.0
 20
187.5827243573675
 30
0.0
 11
740.0
 21
187.5827243573675
 31
0.0
  0
LINE
  5
13A
330
17
100
AcDbEntity
  8
20_ГРАФИК
100
AcDbLine
 10
40.0
 20
187.5827243573675
 30
0.0
 11
38.5
 21
187.5827243573675
 31
0.0
  0
TEXT
  5
13B
330
17
100
AcDbEntity
  8
08_ТЕКСТ
100
AcDbText
 10
37.5
 20
187.5827243573675
 30
0.0
 40
2.5
  1
0
  7
ГОСТ
 72
2
 11
37.5
 21
187.5827243573675
 31
0.0
100
AcDbText
 73
2
  0
LINE
  5
13C
330
17
100
AcDbEntity
  8
21_СЕТКА
100
AcDbLine
 10
40.0
 20
221.4222012641542
 30
0.0
 11
740.0
 21
221.4222012641542
 31
0.0
  0
LINE
  5
13D
330
17
100
AcDbEntity
  8
20_ГРАФИК
100
AcDbLine
 10
40.0
 20
221.4222012641542
 30
0.0
 11
38.5
 21
221.4222012641542
 31
0.0
  0
TEXT
  5
13E
330
17
100
AcDbEntity
  8
08_ТЕКСТ
100
AcDbText
 10
37.5
 20
221.4222012641542
 30
0.0
 40
2.5
  1
20
  7
ГОСТ
 72
2
 11
37.5
 21
221.4222012641542
 31
0.0
100
AcDbText
 73
2
  0
LINE
  5
13F
330
17
100
AcDbEntity
  8
20_ГРАФИК
100
AcDbLine
 10
40.0
 20
187.5827243573675
 30
0.0
 11
740.0
 21
187.5827243573675
 31
0.0
  0
TEXT
  5
140
330
17
100
AcDbEntity
  8
08_ТЕКСТ
100
AcDbText
 10
390.0
 20
95.5
 30
0.0
 40
2.8
  1
x от кормового перпендикуляра, м
  7
ГОСТ
 72
1
 11
390.0
 21
95.5
 31
0.0
100
AcDbText
 73
3
  0
TEXT
  5
141
330
17
100
AcDbEntity
  8
08_ТЕКСТ
100
AcDbText
 10
26.0
 20
165.0
 30
0.0
 40
2.8
  1
M, МН·м
 50
90.0
  7
ГОСТ
 72
1
 11
26.0
 21
165.0
 31
0.0
100
AcDbText
 73
2
  0
TEXT
  5
142
330
17
100
AcDbEntity
  8
08_ТЕКСТ
100
AcDbText
 10
40.0
 20
228.0
 30
0.0
 40
3.5
  1
Изгибающие моменты M(x)
  7
ГОСТ
 11
40.0
 21
228.0
 31
0.0
100
AcDbText
 73
1
  0
LWPOLYLINE
  5
143
330
17
100
AcDbEntity
  8
22_КРИВАЯ_А
  6
CONTINUOUS
100
AcDbPolyline
 90
281
 70
0
 10
40.0
 20
187.5827243573675
 10
42.5
 20
187.33865242523063
 10
45.0
 20
187.09987544920216
 10
47.5
 20
186.86461741359068
 10
50.0
 20
186.6309989224735
 10
52.5
 20
186.39700531991235
 10
55.0
 20
186.16053105559985
 10
57.5
 20
185.91948118514352
 10
60.0
 20
185.6730915441275
 10
62.5
 20
185.42190825230148
 10
65.0
 20
185.17103650106515
 10
67.5
 20
184.93426209971523
 10
70.0
 20
184.7256554794817
 10
72.5
 20
184.5532223268308
 10
75.0
 20
184.4207470996892
 10
77.5
 20
184.33224162026687
 10
80.0
 20
184.28978189621273
 10
82.5
 20
184.28715727973508
 10
85.0
 20
184.3182020635718
 10
87.5
 20
184.38093866120022
 10
90.0
 20
184.47342987549482
 10
92.5
 20
184.59375393358184
 10
95.0
 20
184.73998931506787
 10
97.5
 20
184.91232096193684
 10
100.0
 20
185.10889176617715
 10
102.5
 20
185.32165325183882
 10
105.0
 20
185.54280085836183
 10
107.5
 20
185.76689142635303
 10
110.0
 20
185.98844161792107
 10
112.5
 20
186.2010078339441
 10
115.0
 20
186.40470182906714
 10
117.5
 20
186.6079614856785
 10
120.0
 20
186.8148571933604
 10
122.5
 20
187.0241881989002
 10
125.0
 20
187.23479321525696
 10
127.5
 20
187.44556829420668
 10
130.0
 20
187.65548409920063
 10
132.5
 20
187.86419103832628
 10
135.0
 20
188.07203431252998
 10
137.5
 20
188.27777559188564
 10
140.0
 20
188.47860922685476
 10
142.5
 20
188.6743140171193
 10
145.0
 20
188.86311846438534
 10
147.5
 20
189.03794542295333
 10
150.0
 20
189.19464769986138
 10
152.5
 20
189.3332519503551
 10
155.0
 20
189.45378482965356
 10
157.5
 20
189.55627299294923
 10
160.0
 20
189.63763092101624
 10
162.5
 20
189.69166092021044
 10
165.0
 20
189.71527747125268
 10
167.5
 20
189.70850722922924
 10
170.0
 20
189.67144847861027
 10
172.5
 20
189.60427113325
 10
175.0
 20
189.50707347756546
 10
177.5
 20
189.37988216653653
 10
180.0
 20
189.22389092051338
 10
182.5
 20
189.04146052521656
 10
185.0
 20
188.8337847009431
 10
187.5
 20
188.60089010256655
 10
190.0
 20
188.34311460237308
 10
192.5
 20
188.0611072900614
 10
195.0
 20
187.75520603786447
 10
197.5
 20
187.42543750054955
 10
200.0
 20
187.0718283328573
 10
202.5
 20
186.69440518950185
 10
205.0
 20
186.29319472517062
 10
207.5
 20
185.86822359452458
 10
210.0
 20
185.42449793122486
 10
212.5
 20
184.97200334793297
 10
215.0
 20
184.51574597825683
 10
217.5
 20
184.05575247675114
 10
219.99999999999997
 20
183.59204949794386
 10
222.5
 20
183.1234966309396
 10
225.0
 20
182.64778639941935
 10
227.5
 20
182.1637783924345
 10
229.99999999999997
 20
181.67149926440675
 10
232.50000000000003
 20
181.17097566973132
 10
235.0
 20
180.66223426277674
 10
237.5
 20
180.1403222188581
 10
240.0
 20
179.59563141906966
 10
242.50000000000003
 20
179.02385740833836
 10
245.0
 20
178.42535102575897
 10
247.5
 20
177.8001389255671
 10
250.0
 20
177.14824776197187
 10
252.49999999999997
 20
176.4697041891558
 10
255.0
 20
175.76453486127483
 10
257.5
 20
175.03276643245832
 10
260.0
 20
174.27857512266473
 10
262.5
 20
173.51028671768165
 10
265.0
 20
172.73207743741446
 10
267.5
 20
171.94397393588613
 10
270.0
 20
171.14600286709316
 10
272.5
 20
170.33819088500547
 10
275.0
 20
169.52056464356633
 10
277.5
 20
168.69315079669252
 10
280.0
 20
167.85597599827418
 10
282.5
 20
167.00906690217482
 10
285.0
 20
166.15245016223156
 10
287.5
 20
165.28615243225477
 10
290.0
 20
164.41020036602828
 10
292.5
 20
163.52047105145365
 10
295.0
 20
162.60869201055024
 10
297.5
 20
161.67074033116643
 10
300.0
 20
160.70664266697972
 10
302.5
 20
159.71642567164113
 10
305.0
 20
158.700115998775
 10
307.5
 20
157.65774030197915
 10
310.0
 20
156.58932523482477
 10
312.5
 20
155.49489745085654
 10
315.0
 20
154.3895257798194
 10
317.5
 20
153.3033212276586
 10
320.0
 20
152.251352624066
 10
322.5
 20
151.23364662247985
 10
325.0
 20
150.250229876312
 10
327.5
 20
149.30112903894752
 10
330.0
 20
148.3863707637451
 10
332.5
 20
147.5059817040367
 10
335.0
 20
146.6599885131278
 10
337.5
 20
145.84841784429722
 10
340.0
 20
145.07129635079727
 10
342.5
 20
144.32946847349962
 10
345.0
 20
143.62697249288752
 10
347.5
 20
142.9571274559076
 10
350.0
 20
142.30785045536345
 10
352.5
 20
141.68758441487557
 10
355.0
 20
141.11671351932665
 10
357.5
 20
140.61417294456163
 10
360.0
 20
140.1891591811144
 10
362.5
 20
139.84168780506312
 10
365.0
 20
139.5684028702281
 10
367.5
 20
139.36257690817212
 10
370.0
 20
139.22085397271542
 10
372.5
 20
139.14324963993624
 10
375.0
 20
139.12977948591265
 10
377.5
 20
139.18045908672286
 10
380.0
 20
139.295304018445
 10
382.5
 20
139.4685204649592
 10
385.0
 20
139.6885052179477
 10
387.5
 20
139.94946446129063
 10
390.0
 20
140.25085876977997
 10
392.5
 20
140.58153325901162
 10
395.0
 20
140.92622984169697
 10
397.5
 20
141.2833493193895
 10
399.99999999999994
 20
141.65278454777
 10
402.50000000000006
 20
142.03058039604392
 10
405.0
 20
142.41595342169467
 10
407.5
 20
142.80893027725696
 10
410.0
 20
143.2095376152389
 10
412.5
 20
143.617802088122
 10
415.0
 20
144.0337503483612
 10
417.5
 20
144.44925811545403
 10
419.99999999999994
 20
144.8509548720396
 10
422.49999999999994
 20
145.23652572976027
 10
425.00000000000006
 20
145.6153498240087
 10
427.5
 20
146.00034938099688
 10
430.0
 20
146.39799883996534
 10
432.5
 20
146.80832485318294
 10
435.0
 20
147.231354072892
 10
437.5
 20
147.66711315130829
 10
440.0
 20
148.11562874062096
 10
442.49999999999994
 20
148.57692749299258
 10
445.00000000000006
 20
149.05103606055917
 10
447.50000000000006
 20
149.53798109543015
 10
450.0
 20
150.03778924968836
 10
452.5
 20
150.55021053766637
 10
455.0
 20
151.07471833594647
 10
457.5
 20
151.61106265880804
 10
460.0
 20
152.1592701582276
 10
462.5
 20
152.71936748615514
 10
464.99999999999994
 20
153.29138129451403
 10
467.50000000000006
 20
153.87533823520107
 10
470.0
 20
154.46988177146795
 10
472.5
 20
155.06936748182216
 10
475.0
 20
155.66662943726422
 10
477.5
 20
156.2587895934857
 10
480.0
 20
156.84587460225043
 10
482.5
 20
157.42791111529584
 10
485.0
 20
158.0049257843326
 10
487.49999999999994
 20
158.57694526104495
 10
490.00000000000006
 20
159.14399619709044
 10
492.5
 20
159.70131728349742
 10
495.0
 20
160.23935925066485
 10
497.5
 20
160.7533607895679
 10
500.0
 20
161.2511006952428
 10
502.5
 20
161.74810990618414
 10
505.0
 20
162.25216721737507
 10
507.49999999999994
 20
162.76329928028713
 10
509.99999999999994
 20
163.28153274636526
 10
512.5
 20
163.80689426702787
 10
515.0
 20
164.3409665808627
 10
517.5
 20
164.88688851362673
 10
520.0
 20
165.44624280385452
 10
522.5
 20
166.01905610285817
 10
525.0
 20
166.60535506192318
 10
527.5
 20
167.20516633230847
 10
530.0
 20
167.8185165652464
 10
532.5
 20
168.4454324119427
 10
535.0
 20
169.08594052357665
 10
537.5
 20
169.74006755130083
 10
540.0
 20
170.40784014624126
 10
542.5
 20
171.08928495949743
 10
545.0
 20
171.7844286421422
 10
547.5
 20
172.4932978452219
 10
550.0
 20
173.21591921975624
 10
552.5
 20
173.95231941673836
 10
555.0
 20
174.70252508713486
 10
557.5
 20
175.45725465120486
 10
560.0
 20
176.1979182985001
 10
562.5
 20
176.91491026439414
 10
565.0
 20
177.6076088300822
 10
567.5
 20
178.2757164615656
 10
570.0
 20
178.92050467940805
 10
572.5
 20
179.54448987390353
 10
575.0
 20
180.14894356556266
 10
577.5
 20
180.7338924051129
 10
580.0
 20
181.29936304325497
 10
582.5
 20
181.8453821306631
 10
585.0
 20
182.37197631798495
 10
587.5
 20
182.87917225584152
 10
590.0
 20
183.3669965948273
 10
592.5
 20
183.83509313866045
 10
595.0
 20
184.28272284418273
 10
597.5
 20
184.70952951505905
 10
600.0
 20
185.11553980177763
 10
602.5
 20
185.5007803548
 10
605.0
 20
185.86527782456122
 10
607.5
 20
186.2090588614697
 10
610.0
 20
186.53215011590734
 10
612.5
 20
186.83457823822937
 10
615.0
 20
187.1163698787645
 10
617.5
 20
187.3775516878148
 10
620.0
 20
187.6181503156559
 10
622.5
 20
187.83694754278
 10
625.0
 20
188.0314802798961
 10
627.5
 20
188.20053030744327
 10
630.0
 20
188.34550746420933
 10
632.5
 20
188.46775645822925
 10
635.0
 20
188.56579048954814
 10
637.5
 20
188.63822419897662
 10
640.0
 20
188.68526198926614
 10
642.5
 20
188.70734512743513
 10
645.0
 20
188.70516615497587
 10
647.5
 20
188.67964383632813
 10
650.0
 20
188.63306469095318
 10
652.5
 20
188.56905772885963
 10
655.0
 20
188.4902346788257
 10
657.5
 20
188.39816389575128
 10
660.0
 20
188.29451145479726
 10
662.5
 20
188.18101554274168
 10
665.0
 20
188.05946146833764
 10
667.5
 20
187.93165718863622
 10
670.0
 20
187.79941018897335
 10
672.5
 20
187.66342811392747
 10
675.0
 20
187.5235391744579
 10
677.5
 20
187.38116555400563
 10
680.0
 20
187.23923462271927
 10
682.5
 20
187.10086873508118
 10
685.0
 20
186.96925657004846
 10
687.5
 20
186.84750977788622
 10
690.0
 20
186.73859249828553
 10
692.5
 20
186.64193376375687
 10
695.0
 20
186.55348457603213
 10
697.5
 20
186.47258931406952
 10
700.0
 20
186.40194772606068
 10
702.5
 20
186.34412616112462
 10
705.0
 20
186.30149637948824
 10
707.5
 20
186.27619873866126
 10
710.0
 20
186.27017751118188
 10
712.5
 20
186.28521332811846
 10
715.0
 20
186.3229063097923
 10
717.5
 20
186.3846475417933
 10
720.0
 20
186.47125474079579
 10
722.5
 20
186.57902271902208
 10
725.0
 20
186.7000905594772
 10
727.5
 20
186.83006236075926
 10
730.0
 20
186.96808680932003
 10
732.5
 20
187.1132843082866
 10
735.0
 20
187.26474838071584
 10
737.5
 20
187.42154707284925
 10
740.0
 20
187.5827243573675
  0
LWPOLYLINE
  5
144
330
17
100
AcDbEntity
  8
23_КРИВАЯ_Б
  6
CONTINUOUS
100
AcDbPolyline
 90
281
 70
0
 10
40.0
 20
187.5827243573675
 10
42.5
 20
187.33575924959015
 10
45.0
 20
187.0899339182477
 10
47.5
 20
186.8467580662021
 10
50.0
 20
186.60785511582569
 10
52.5
 20
186.3748691903344
 10
55.0
 20
186.14945194126182
 10
57.5
 20
185.93330235559247
 10
60.0
 20
185.7294228784234
 10
62.5
 20
185.5420547905646
 10
65.0
 20
185.37988364373257
 10
67.5
 20
185.26012214586765
 10
70.0
 20
185.20010708708767
 10
72.5
 20
185.21093896706606
 10
75.0
 20
185.29929208269022
 10
77.5
 20
185.47184062195998
 10
80.0
 20
185.73309334143408
 10
82.5
 20
186.07902354430087
 10
85.0
 20
186.50536215412592
 10
87.5
 20
187.01171102060286
 10
90.0
 20
187.59737197811546
 10
92.5
 20
188.26129925046354
 10
95.0
 20
189.00206814097373
 10
97.5
 20
189.8199756439396
 10
100.0
 20
190.71288464765854
 10
102.5
 20
191.6720570464793
 10
105.0
 20
192.68856992858588
 10
107.5
 20
193.75541947052864
 10
110.0
 20
194.8651109431102
 10
112.5
 20
196.00874668634222
 10
115.0
 20
197.18357713603768
 10
117.5
 20
198.39481050649331
 10
120.0
 20
199.6429396355264
 10
122.5
 20
200.92285457621836
 10
125.0
 20
202.22918004272225
 10
127.5
 20
203.55632822907796
 10
130.0
 20
204.8985553923829
 10
132.5
 20
206.25060933104155
 10
135.0
 20
207.6077851580094
 10
137.5
 20
208.96368339579072
 10
140.0
 20
210.31026112166228
 10
142.5
 20
211.64201949361797
 10
145.0
 20
212.95190550330494
 10
147.5
 20
214.22759268468852
 10
150.0
 20
215.45975043519013
 10
152.5
 20
216.64331956439815
 10
155.0
 20
217.77336977934112
 10
157.5
 20
218.84513071622717
 10
160.0
 20
219.8509098254496
 10
162.5
 20
220.78012127098103
 10
165.0
 20
221.625537837756
 10
167.5
 20
222.38331697672987
 10
170.0
 20
223.04998462785574
 10
172.5
 20
223.62245775764615
 10
175.0
 20
224.0979216655072
 10
177.5
 20
224.4738484467148
 10
180.0
 20
224.74925193135755
 10
182.5
 20
224.92470160686895
 10
185.0
 20
225.0
 10
187.5
 20
224.97419170685407
 10
190.0
 20
224.84704816576163
 10
192.5
 20
224.61907156614694
 10
195.0
 20
224.29087371654302
 10
197.5
 20
223.86317473325533
 10
200.0
 20
223.33711034057774
 10
202.5
 20
222.7142253725708
 10
205.0
 20
221.99646473510035
 10
207.5
 20
221.1861618854856
 10
210.0
 20
220.2910043818262
 10
212.5
 20
219.32401763219514
 10
215.0
 20
218.29358746750304
 10
217.5
 20
217.2034395708704
 10
219.99999999999997
 20
216.05759641431428
 10
222.5
 20
214.85918582136372
 10
225.0
 20
213.61041491876892
 10
227.5
 20
212.31487670630344
 10
229.99999999999997
 20
210.9775211558497
 10
232.50000000000003
 20
209.60345808598458
 10
235.0
 20
208.19792613053752
 10
237.5
 20
206.76128145002338
 10
240.0
 20
205.2892895265676
 10
242.50000000000003
 20
203.78305135256142
 10
245.0
 20
202.24832211486313
 10
247.5
 20
200.69049879626846
 10
250.0
 20
199.11491167018846
 10
252.49999999999997
 20
197.52679204066737
 10
255.0
 20
195.93124061028502
 10
257.5
 20
194.3331966693505
 10
260.0
 20
192.74155741417928
 10
262.5
 20
191.16914781349175
 10
265.0
 20
189.6243932313867
 10
267.5
 20
188.11129391425354
 10
270.0
 20
186.63354925300627
 10
272.5
 20
185.19453427885236
 10
275.0
 20
183.7972806516065
 10
277.5
 20
182.44445989830564
 10
280.0
 20
181.13836821653652
 10
282.5
 20
179.88091473183707
 10
285.0
 20
178.67361298402997
 10
287.5
 20
177.51757417568803
 10
290.0
 20
176.41350215698753
 10
292.5
 20
175.35754099046687
 10
295.0
 20
174.34127409676955
 10
297.5
 20
173.36002448727953
 10
300.0
 20
172.41285784314155
 10
302.5
 20
171.4984381062422
 10
305.0
 20
170.6150347050219
 10
307.5
 20
169.760531268004
 10
310.0
 20
168.9324366835307
 10
312.5
 20
168.1279000552893
 10
315.0
 20
167.35877011422582
 10
317.5
 20
166.65161393788176
 10
320.0
 20
166.0176548886123
 10
322.5
 20
165.4527983324493
 10
325.0
 20
164.95269998679524
 10
327.5
 20
164.51279305739035
 10
330.0
 20
164.12831841581564
 10
332.5
 20
163.79435559082742
 10
335.0
 20
163.50585359190507
 10
337.5
 20
163.25766254012356
 10
340.0
 20
163.04456592598032
 10
342.5
 20
162.8622616604932
 10
345.0
 20
162.71027188695905
 10
347.5
 20
162.5786733599987
 10
350.0
 20
162.45342397080805
 10
352.5
 20
162.34139184782111
 10
355.0
 20
162.26084700507909
 10
357.5
 20
162.22809062341466
 10
360.0
 20
162.24963129203195
 10
362.5
 20
162.32292481413532
 10
365.0
 20
162.4421996088988
 10
367.5
 20
162.59847183257708
 10
370.0
 20
162.7863025622454
 10
372.5
 20
163.00381086596394
 10
375.0
 20
163.24931420104318
 10
377.5
 20
163.52133911143073
 10
380.0
 20
163.81863063601003
 10
382.5
 20
164.13435097760677
 10
385.0
 20
164.45608616739958
 10
387.5
 20
164.7774700758442
 10
390.0
 20
165.097168608905
 10
392.5
 20
165.401328303659
 10
395.0
 20
165.6687675567444
 10
397.5
 20
165.89019953285043
 10
399.99999999999994
 20
166.05932522355153
 10
402.50000000000006
 20
166.16981821457
 10
405.0
 20
166.22187920107663
 10
407.5
 20
166.21784101410012
 10
410.0
 20
166.1604110058081
 10
412.5
 20
166.05265480303206
 10
415.0
 20
165.89797784311156
 10
417.5
 20
165.69195387582488
 10
419.99999999999994
 20
165.4252071231666
 10
422.49999999999994
 20
165.09968977973244
 10
425.00000000000006
 20
164.7292943661389
 10
427.5
 20
164.33167524247256
 10
430.0
 20
163.91822883732146
 10
432.5
 20
163.49406359580937
 10
435.0
 20
163.06441674341727
 10
437.5
 20
162.63462248497746
 10
440.0
 20
162.21007962346198
 10
442.49999999999994
 20
161.79621879938946
 10
445.00000000000006
 20
161.39846955355145
 10
447.50000000000006
 20
161.02222741636905
 10
450.0
 20
160.67282122654376
 10
452.5
 20
160.35520424204788
 10
455.0
 20
160.07392250253008
 10
457.5
 20
159.83363594223192
 10
460.0
 20
159.6390867570825
 10
462.5
 20
159.49479393651464
 10
464.99999999999994
 20
159.40502452116965
 10
467.50000000000006
 20
159.3737655638488
 10
470.0
 20
159.40331710874156
 10
472.5
 20
159.49136555267316
 10
475.0
 20
159.63373030129623
 10
477.5
 20
159.83015812453422
 10
480.0
 20
160.08292716450975
 10
482.5
 20
160.39393020939048
 10
485.0
 20
160.76466549352574
 10
487.49999999999994
 20
161.19623150028872
 10
490.00000000000006
 20
161.6893237152844
 10
492.5
 20
162.23944427058757
 10
495.0
 20
162.83690121495067
 10
497.5
 20
163.47638547663536
 10
500.0
 20
164.16472585172957
 10
502.5
 20
164.9161049508047
 10
505.0
 20
165.73656013075976
 10
507.49999999999994
 20
166.62399208596145
 10
509.99999999999994
 20
167.57592892824758
 10
512.5
 20
168.58953971519526
 10
515.0
 20
169.6632055648319
 10
517.5
 20
170.79653823641803
 10
520.0
 20
171.98728980051
 10
522.5
 20
173.23137622214108
 10
525.0
 20
174.52446050847232
 10
527.5
 20
175.86198204571366
 10
530.0
 20
177.2391858098443
 10
532.5
 20
178.65115324842057
 10
535.0
 20
180.09283473087805
 10
537.5
 20
181.55908176460915
 10
540.0
 20
183.04467924409354
 10
542.5
 20
184.54437812916896
 10
545.0
 20
186.05292835168683
 10
547.5
 20
187.5651117479137
 10
550.0
 20
189.0757748133979
 10
552.5
 20
190.57986107764
 10
555.0
 20
192.07244289779055
 10
557.5
 20
193.53944424307156
 10
560.0
 20
194.95767073806925
 10
562.5
 20
196.31313082318565
 10
565.0
 20
197.60106329849228
 10
567.5
 20
198.81730349384736
 10
570.0
 20
199.95955249358855
 10
572.5
 20
201.0270754772247
 10
575.0
 20
202.0182325340993
 10
577.5
 20
202.9304971165144
 10
580.0
 20
203.76171714495803
 10
582.5
 20
204.51012892321228
 10
585.0
 20
205.17436864498146
 10
587.5
 20
205.75348141911405
 10
590.0
 20
206.2469277561812
 10
592.5
 20
206.65420462840967
 10
595.0
 20
206.97484677187882
 10
597.5
 20
207.20919106958002
 10
600.0
 20
207.3583726362778
 10
602.5
 20
207.4239354768979
 10
605.0
 20
207.40782345337965
 10
607.5
 20
207.3123687704615
 10
610.0
 20
207.14027805340567
 10
612.5
 20
206.89461610585593
 10
615.0
 20
206.5787874506076
 10
617.5
 20
206.1965157699584
 10
620.0
 20
205.7518213754057
 10
622.5
 20
205.2477519789242
 10
625.0
 20
204.68635665860108
 10
627.5
 20
204.07114805190275
 10
630.0
 20
203.40845665885124
 10
632.5
 20
202.70470760900938
 10
635.0
 20
201.963623269439
 10
637.5
 20
201.18912543002847
 10
640.0
 20
200.38678539730353
 10
642.5
 20
199.56241131936557
 10
645.0
 20
198.7219868611931
 10
647.5
 20
197.87157173382195
 10
650.0
 20
197.01837706141842
 10
652.5
 20
196.17068310129497
 10
655.0
 20
195.33543227811649
 10
657.5
 20
194.51816603481376
 10
660.0
 20
193.72413882428623
 10
662.5
 20
192.95827550467413
 10
665.0
 20
192.22514025440375
 10
667.5
 20
191.52891496758753
 10
670.0
 20
190.87338726190563
 10
672.5
 20
190.26084263872525
 10
675.0
 20
189.69221349932346
 10
677.5
 20
189.16947950820457
 10
680.0
 20
188.6950404864889
 10
682.5
 20
188.2697266732624
 10
685.0
 20
187.8931985884127
 10
687.5
 20
187.56483920059378
 10
690.0
 20
187.2840315369583
 10
692.5
 20
187.0467108288875
 10
695.0
 20
186.84535492242233
 10
697.5
 20
186.67586822442178
 10
700.0
 20
186.53758320164485
 10
702.5
 20
186.4298184774829
 10
705.0
 20
186.35188767540808
 10
707.5
 20
186.3031082164636
 10
710.0
 20
186.28279463652652
 10
712.5
 20
186.29025008203456
 10
715.0
 20
186.32476381880406
 10
717.5
 20
186.3856084621185
 10
720.0
 20
186.47203720681745
 10
722.5
 20
186.57970737679102
 10
725.0
 20
186.70067740899347
 10
727.5
 20
186.8305514020228
 10
730.0
 20
186.96847804233084
 10
732.5
 20
187.1135777330447
 10
735.0
 20
187.26494399722125
 10
737.5
 20
187.42164488110197
 10
740.0
 20
187.5827243573675
  0
LWPOLYLINE
  5
145
330
17
100
AcDbEntity
  8
24_КРИВАЯ_В
  6
CONTINUOUS
100
AcDbPolyline
 90
281
 70
0
 10
40.0
 20
187.5827243573675
 10
42.5
 20
187.34114567961427
 10
45.0
 20
187.10833325051357
 10
47.5
 20
186.8793450573399
 10
50.0
 20
186.64874970035467
 10
52.5
 20
186.41069695440382
 10
55.0
 20
186.15904604960275
 10
57.5
 20
185.88755291137056
 10
60.0
 20
185.59127934968606
 10
62.5
 20
185.26664782006276
 10
65.0
 20
184.914745429039
 10
67.5
 20
184.54549140806773
 10
70.0
 20
184.16928378414366
 10
72.5
 20
183.79068567311418
 10
75.0
 20
183.41029561154315
 10
77.5
 20
183.02921928462462
 10
80.0
 20
182.64693323065137
 10
82.5
 20
182.25496462767427
 10
85.0
 20
181.8452508736802
 10
87.5
 20
181.41430676619711
 10
90.0
 20
180.95909679033366
 10
92.5
 20
180.47702787255562
 10
95.0
 20
179.96594438993543
 10
97.5
 20
179.4262273326109
 10
100.0
 20
178.85663759855976
 10
102.5
 20
178.25017316478278
 10
105.0
 20
177.60051429338847
 10
107.5
 20
176.9041456524024
 10
110.0
 20
176.15795520217483
 10
112.5
 20
175.3582979073272
 10
115.0
 20
174.50846632883182
 10
117.5
 20
173.62040980066269
 10
120.0
 20
172.70200862711357
 10
122.5
 20
171.75615021196774
 10
125.0
 20
170.78601576479545
 10
127.5
 20
169.79507016566976
 10
130.0
 20
168.7870508223163
 10
132.5
 20
167.76654376544283
 10
135.0
 20
166.7389682711829
 10
137.5
 20
165.70826654699786
 10
140.0
 20
164.67688646954542
 10
142.5
 20
163.64989850175002
 10
145.0
 20
162.63082484996534
 10
147.5
 20
161.61784797545724
 10
150.0
 20
160.61201236581059
 10
152.5
 20
159.6184362093029
 10
155.0
 20
158.64210468510652
 10
157.5
 20
157.68783795664532
 10
160.0
 20
156.75714774722792
 10
162.5
 20
155.84820598548737
 10
165.0
 20
154.96204055834278
 10
167.5
 20
154.10250889020693
 10
170.0
 20
153.27323329076177
 10
172.5
 20
152.4775814351833
 10
175.0
 20
151.71850449152012
 10
177.5
 20
150.9985204738279
 10
180.0
 20
150.32094212368494
 10
182.5
 20
149.6898682612212
 10
185.0
 20
149.10784166430352
 10
187.5
 20
148.57584329455648
 10
190.0
 20
148.0947668381118
 10
192.5
 20
147.66541662834328
 10
195.0
 20
147.28788451551867
 10
197.5
 20
146.96155045211532
 10
200.0
 20
146.685395696737
 10
202.5
 20
146.4580064973743
 10
205.0
 20
146.27757984212272
 10
207.5
 20
146.1419312872341
 10
210.0
 20
146.05348302221344
 10
212.5
 20
146.01927496919498
 10
215.0
 20
146.04102251160847
 10
217.5
 20
146.11513498339394
 10
219.99999999999997
 20
146.23771487097622
 10
222.5
 20
146.4034149284645
 10
225.0
 20
146.6054645967211
 10
227.5
 20
146.83803307679204
 10
229.99999999999997
 20
147.09626058076805
 10
232.50000000000003
 20
147.37512224947292
 10
235.0
 20
147.66946042681582
 10
237.5
 20
147.96903855808455
 10
240.0
 20
148.2588981490831
 10
242.50000000000003
 20
148.5293503966935
 10
245.0
 20
148.77536072060937
 10
247.5
 20
148.99160221199284
 10
250.0
 20
149.17281256902305
 10
252.49999999999997
 20
149.31382646800645
 10
255.0
 20
149.40960735412304
 10
257.5
 20
149.455278454197
 10
260.0
 20
149.4503023841422
 10
262.5
 20
149.39851003181008
 10
265.0
 20
149.29982896868415
 10
267.5
 20
149.15030948118073
 10
270.0
 20
148.94629849221172
 10
272.5
 20
148.68446208806307
 10
275.0
 20
148.3618060744848
 10
277.5
 20
147.97569443225993
 10
280.0
 20
147.5238655556179
 10
282.5
 20
147.00444617074731
 10
285.0
 20
146.4159628462506
 10
287.5
 20
145.75735102256968
 10
290.0
 20
145.02796150310084
 10
292.5
 20
144.22341479994037
 10
295.0
 20
143.33560244113306
 10
297.5
 20
142.3609847969743
 10
300.0
 20
141.30058717022902
 10
302.5
 20
140.15584374094405
 10
305.0
 20
138.92858853874856
 10
307.5
 20
137.62104393405244
 10
310.0
 20
136.2358067210944
 10
312.5
 20
134.77583188098225
 10
315.0
 20
133.25945630368085
 10
317.5
 20
131.72037823311402
 10
320.0
 20
130.17755038887339
 10
322.5
 20
128.63515561138925
 10
325.0
 20
127.09762300756026
 10
327.5
 20
125.5696004078693
 10
330.0
 20
124.05592548386645
 10
332.5
 20
122.56159570671437
 10
335.0
 20
121.09173733435281
 10
337.5
 20
119.65157362048554
 10
340.0
 20
118.2463924430005
 10
342.5
 20
116.88218588380143
 10
345.0
 20
115.56745859735821
 10
347.5
 20
114.29866201056727
 10
350.0
 20
113.06554135025057
 10
352.5
 20
111.87801819369601
 10
355.0
 20
110.75855502886067
 10
357.5
 20
109.72872276184364
 10
360.0
 20
108.80041573037235
 10
362.5
 20
107.97621922926237
 10
365.0
 20
107.25520289284422
 10
367.5
 20
106.63290557385223
 10
370.0
 20
106.10806424871569
 10
372.5
 20
105.68260094739439
 10
375.0
 20
105.35823931059794
 10
377.5
 20
105.13649389239866
 10
380.0
 20
105.01866075193323
 10
382.5
 20
105.0
 10
385.0
 20
105.0697291346485
 10
387.5
 20
105.22263659904694
 10
390.0
 20
105.45899756176613
 10
392.5
 20
105.7704224808344
 10
395.0
 20
106.14772150602477
 10
397.5
 20
106.59717824004635
 10
399.99999999999994
 20
107.12490410702495
 10
402.50000000000006
 20
107.7291365096105
 10
405.0
 20
108.40804853094733
 10
407.5
 20
109.15944976729185
 10
410.0
 20
109.98077560718694
 10
412.5
 20
110.86910043775501
 10
415.0
 20
111.82115431836725
 10
417.5
 20
112.82518968063961
 10
419.99999999999994
 20
113.86390684688192
 10
422.49999999999994
 20
114.93077995201726
 10
425.00000000000006
 20
116.03072131399718
 10
427.5
 20
117.17196045107639
 10
430.0
 20
118.3560839626834
 10
432.5
 20
119.57806558837986
 10
435.0
 20
120.83274686360272
 10
437.5
 20
122.11487040425524
 10
440.0
 20
123.41911217710319
 10
442.49999999999994
 20
124.74011417420091
 10
445.00000000000006
 20
126.07251731622019
 10
447.50000000000006
 20
127.41099438206362
 10
450.0
 20
128.75028276149902
 10
452.5
 20
130.0849401904403
 10
455.0
 20
131.40937654355258
 10
457.5
 20
132.7184381242825
 10
460.0
 20
134.00743770820202
 10
462.5
 20
135.271906789818
 10
464.99999999999994
 20
136.5076231275836
 10
467.50000000000006
 20
137.71063677671646
 10
470.0
 20
138.8759112577051
 10
472.5
 20
139.99444138839962
 10
475.0
 20
141.05604021853475
 10
477.5
 20
142.05516687856976
 10
480.0
 20
142.98955963042692
 10
482.5
 20
143.8573450907142
 10
485.0
 20
144.65704974184814
 10
487.49999999999994
 20
145.38760896200407
 10
490.00000000000006
 20
146.04837351660765
 10
492.5
 20
146.63432550956054
 10
495.0
 20
147.1360796905647
 10
497.5
 20
147.54945807084272
 10
500.0
 20
147.88323815661482
 10
502.5
 20
148.1543584987871
 10
505.0
 20
148.37240537775813
 10
507.49999999999994
 20
148.5396012939484
 10
509.99999999999994
 20
148.65854319352516
 10
512.5
 20
148.73218623049857
 10
515.0
 20
148.76538139860583
 10
517.5
 20
148.76485497521716
 10
520.0
 20
148.73607381979565
 10
522.5
 20
148.6832210176496
 10
525.0
 20
148.61072593501476
 10
527.5
 20
148.52323667456375
 10
530.0
 20
148.4255911912041
 10
532.5
 20
148.32278724886947
 10
535.0
 20
148.21995140587225
 10
537.5
 20
148.12230722203103
 10
540.0
 20
148.03514288519693
 10
542.5
 20
147.96377845794834
 10
545.0
 20
147.91353294710893
 10
547.5
 20
147.8896913993575
 10
550.0
 20
147.89747222555428
 10
552.5
 20
147.94199494252706
 10
555.0
 20
148.0282472342648
 10
557.5
 20
148.15174404255743
 10
560.0
 20
148.2984973486333
 10
562.5
 20
148.46327807151877
 10
565.0
 20
148.64958620549302
 10
567.5
 20
148.86096497224165
 10
570.0
 20
149.10222157733762
 10
572.5
 20
149.3790814579806
 10
575.0
 20
149.6956812961371
 10
577.5
 20
150.05455298068614
 10
580.0
 20
150.45785420403206
 10
582.5
 20
150.90735891976
 10
585.0
 20
151.40445055365552
 10
587.5
 20
151.95011611871956
 10
590.0
 20
152.54494192075956
 10
592.5
 20
153.18872824982338
 10
595.0
 20
153.88048855398412
 10
597.5
 20
154.61921587381812
 10
600.0
 20
155.40388523220338
 10
602.5
 20
156.2330750333134
 10
605.0
 20
157.10497276960433
 10
607.5
 20
158.0173817350976
 10
610.0
 20
158.96773081577913
 10
612.5
 20
159.9530888687551
 10
615.0
 20
160.97018054560868
 10
617.5
 20
162.01540352921222
 10
620.0
 20
163.08485035214764
 10
622.5
 20
164.1730877317298
 10
625.0
 20
165.2731827424448
 10
627.5
 20
166.37922238728854
 10
630.0
 20
167.48772701592222
 10
632.5
 20
168.59498756114291
 10
635.0
 20
169.69433178706004
 10
637.5
 20
170.7790876053951
 10
640.0
 20
171.84410558288175
 10
642.5
 20
172.8844620874537
 10
645.0
 20
173.895548422112
 10
647.5
 20
174.87312022280247
 10
650.0
 20
175.81450489698972
 10
652.5
 20
176.71863299114443
 10
655.0
 20
177.5837252763497
 10
657.5
 20
178.40730346845748
 10
660.0
 20
179.18735804543823
 10
662.5
 20
179.9223394441135
 10
665.0
 20
180.61114033557777
 10
667.5
 20
181.25306944606137
 10
670.0
 20
181.84781850735925
 10
672.5
 20
182.39437149904091
 10
675.0
 20
182.89128186657067
 10
677.5
 20
183.33920271188174
 10
680.0
 20
183.74079878085576
 10
682.5
 20
184.0994013013555
 10
685.0
 20
184.4188343114339
 10
687.5
 20
184.70321822865844
 10
690.0
 20
184.95685349558758
 10
692.5
 20
185.18081434356515
 10
695.0
 20
185.3729965606093
 10
697.5
 20
185.5349602036187
 10
700.0
 20
185.67184940470213
 10
702.5
 20
185.78885918388062
 10
705.0
 20
185.89108142300194
 10
707.5
 20
185.9833734680024
 10
710.0
 20
186.0703930618608
 10
712.5
 20
186.1566371456356
 10
715.0
 20
186.2463926440136
 10
717.5
 20
186.34367955051925
 10
720.0
 20
186.45219140397992
 10
722.5
 20
186.57165794480792
 10
725.0
 20
186.69777765503306
 10
727.5
 20
186.82929298267962
 10
730.0
 20
186.96762809809812
 10
732.5
 20
187.11294027487014
 10
735.0
 20
187.26451902510487
 10
737.5
 20
187.42143239504378
 10
740.0
 20
187.5827243573675
  0
LINE
  5
146
330
17
100
AcDbEntity
  8
22_КРИВАЯ_А
  6
CONTINUOUS
100
AcDbLine
 10
43.0
 20
221.0
 30
0.0
 11
51.0
 21
221.0
 31
0.0
  0
TEXT
  5
147
330
17
100
AcDbEntity
  8
08_ТЕКСТ
100
AcDbText
 10
53.0
 20
221.0
 30
0.0
 40
2.5
  1
тихая вода
  7
ГОСТ
 11
53.0
 21
221.0
 31
0.0
100
AcDbText
 73
2
  0
LINE
  5
148
330
17
100
AcDbEntity
  8
23_КРИВАЯ_Б
  6
CONTINUOUS
100
AcDbLine
 10
43.0
 20
216.5
 30
0.0
 11
51.0
 21
216.5
 31
0.0
  0
TEXT
  5
149
330
17
100
AcDbEntity
  8
08_ТЕКСТ
100
AcDbText
 10
53.0
 20
216.5
 30
0.0
 40
2.5
  1
перегиб
  7
ГОСТ
 11
53.0
 21
216.5
 31
0.0
100
AcDbText
 73
2
  0
LINE
  5
14A
330
17
100
AcDbEntity
  8
24_КРИВАЯ_В
  6
CONTINUOUS
100
AcDbLine
 10
43.0
 20
212.0
 30
0.0
 11
51.0
 21
212.0
 31
0.0
  0
TEXT
  5
14B
330
17
100
AcDbEntity
  8
08_ТЕКСТ
100
AcDbText
 10
53.0
 20
212.0
 30
0.0
 40
2.5
  1
прогиб
  7
ГОСТ
 11
53.0
 21
212.0
 31
0.0
100
AcDbText
 73
2
  0
LINE
  5
14C
330
17
100
AcDbEntity
  8
00_РАМКА
100
AcDbLine
 10
40.0
 20
62.0
 30
0.0
 11
234.0
 21
62.0
 31
0.0
  0
TEXT
  5
14D
330
17
100
AcDbEntity
  8
08_ТЕКСТ
100
AcDbText
 10
41.5
 20
59.0
 30
0.0
 40
2.8
  1
Случай
  7
ГОСТ
 11
41.5
 21
59.0
 31
0.0
100
AcDbText
 73
2
  0
TEXT
  5
14E
330
17
100
AcDbEntity
  8
08_ТЕКСТ
100
AcDbText
 10
81.5
 20
59.0
 30
0.0
 40
2.8
  1
M, МН·м
  7
ГОСТ
 11
81.5
 21
59.0
 31
0.0
100
AcDbText
 73
2
  0
TEXT
  5
14F
330
17
100
AcDbEntity
  8
08_ТЕКСТ
100
AcDbText
 10
111.5
 20
59.0
 30
0.0
 40
2.8
  1
σ палубы, МПа
  7
ГОСТ
 11
111.5
 21
59.0
 31
0.0
100
AcDbText
 73
2
  0
TEXT
  5
150
330
17
100
AcDbEntity
  8
08_ТЕКСТ
100
AcDbText
 10
153.5
 20
59.0
 30
0.0
 40
2.8
  1
σ днища, МПа
  7
ГОСТ
 11
153.5
 21
59.0
 31
0.0
100
AcDbText
 73
2
  0
TEXT
  5
151
330
17
100
AcDbEntity
  8
08_ТЕКСТ
100
AcDbText
 10
195.5
 20
59.0
 30
0.0
 40
2.8
  1
Итог
  7
ГОСТ
 11
195.5
 21
59.0
 31
0.0
100
AcDbText
 73
2
  0
LINE
  5
152
330
17
100
AcDbEntity
  8
00_РАМКА
100
AcDbLine
 10
40.0
 20
56.0
 30
0.0
 11
234.0
 21
56.0
 31
0.0
  0
TEXT
  5
153
330
17
100
AcDbEntity
  8
08_ТЕКСТ
100
AcDbText
 10
41.5
 20
53.0
 30
0.0
 40
2.5
  1
тихая вода
  7
ГОСТ
 11
41.5
 21
53.0
 31
0.0
100
AcDbText
 73
2
  0
TEXT
  5
154
330
17
100
AcDbEntity
  8
08_ТЕКСТ
100
AcDbText
 10
81.5
 20
53.0
 30
0.0
 40
2.5
  1
-28,6
  7
ГОСТ
 11
81.5
 21
53.0
 31
0.0
100
AcDbText
 73
2
  0
TEXT
  5
155
330
17
100
AcDbEntity
  8
08_ТЕКСТ
100
AcDbText
 10
111.5
 20
53.0
 30
0.0
 40
2.5
  1
46
  7
ГОСТ
 11
111.5
 21
53.0
 31
0.0
100
AcDbText
 73
2
  0
TEXT
  5
156
330
17
100
AcDbEntity
  8
08_ТЕКСТ
100
AcDbText
 10
153.5
 20
53.0
 30
0.0
 40
2.5
  1
38
  7
ГОСТ
 11
153.5
 21
53.0
 31
0.0
100
AcDbText
 73
2
  0
TEXT
  5
157
330
17
100
AcDbEntity
  8
08_ТЕКСТ
100
AcDbText
 10
195.5
 20
53.0
 30
0.0
 40
2.5
  1
проходит
  7
ГОСТ
 11
195.5
 21
53.0
 31
0.0
100
AcDbText
 73
2
  0
LINE
  5
158
330
17
100
AcDbEntity
  8
00_РАМКА
100
AcDbLine
 10
40.0
 20
50.0
 30
0.0
 11
234.0
 21
50.0
 31
0.0
  0
TEXT
  5
159
330
17
100
AcDbEntity
  8
08_ТЕКСТ
100
AcDbText
 10
41.5
 20
47.0
 30
0.0
 40
2.5
  1
перегиб
  7
ГОСТ
 11
41.5
 21
47.0
 31
0.0
100
AcDbText
 73
2
  0
TEXT
  5
15A
330
17
100
AcDbEntity
  8
08_ТЕКСТ
100
AcDbText
 10
81.5
 20
47.0
 30
0.0
 40
2.5
  1
22,1
  7
ГОСТ
 11
81.5
 21
47.0
 31
0.0
100
AcDbText
 73
2
  0
TEXT
  5
15B
330
17
100
AcDbEntity
  8
08_ТЕКСТ
100
AcDbText
 10
111.5
 20
47.0
 30
0.0
 40
2.5
  1
36
  7
ГОСТ
 11
111.5
 21
47.0
 31
0.0
100
AcDbText
 73
2
  0
TEXT
  5
15C
330
17
100
AcDbEntity
  8
08_ТЕКСТ
100
AcDbText
 10
153.5
 20
47.0
 30
0.0
 40
2.5
  1
29
  7
ГОСТ
 11
153.5
 21
47.0
 31
0.0
100
AcDbText
 73
2
  0
TEXT
  5
15D
330
17
100
AcDbEntity
  8
08_ТЕКСТ
100
AcDbText
 10
195.5
 20
47.0
 30
0.0
 40
2.5
  1
проходит
  7
ГОСТ
 11
195.5
 21
47.0
 31
0.0
100
AcDbText
 73
2
  0
LINE
  5
15E
330
17
100
AcDbEntity
  8
00_РАМКА
100
AcDbLine
 10
40.0
 20
44.0
 30
0.0
 11
234.0
 21
44.0
 31
0.0
  0
TEXT
  5
15F
330
17
100
AcDbEntity
  8
08_ТЕКСТ
100
AcDbText
 10
41.5
 20
41.0
 30
0.0
 40
2.5
  1
прогиб
  7
ГОСТ
 11
41.5
 21
41.0
 31
0.0
100
AcDbText
 73
2
  0
TEXT
  5
160
330
17
100
AcDbEntity
  8
08_ТЕКСТ
100
AcDbText
 10
81.5
 20
41.0
 30
0.0
 40
2.5
  1
-48,8
  7
ГОСТ
 11
81.5
 21
41.0
 31
0.0
100
AcDbText
 73
2
  0
TEXT
  5
161
330
17
100
AcDbEntity
  8
08_ТЕКСТ
100
AcDbText
 10
111.5
 20
41.0
 30
0.0
 40
2.5
  1
78
  7
ГОСТ
 11
111.5
 21
41.0
 31
0.0
100
AcDbText
 73
2
  0
TEXT
  5
162
330
17
100
AcDbEntity
  8
08_ТЕКСТ
100
AcDbText
 10
153.5
 20
41.0
 30
0.0
 40
2.5
  1
65
  7
ГОСТ
 11
153.5
 21
41.0
 31
0.0
100
AcDbText
 73
2
  0
TEXT
  5
163
330
17
100
AcDbEntity
  8
08_ТЕКСТ
100
AcDbText
 10
195.5
 20
41.0
 30
0.0
 40
2.5
  1
проходит
  7
ГОСТ
 11
195.5
 21
41.0
 31
0.0
100
AcDbText
 73
2
  0
LINE
  5
164
330
17
100
AcDbEntity
  8
00_РАМКА
100
AcDbLine
 10
40.0
 20
38.0
 30
0.0
 11
234.0
 21
38.0
 31
0.0
  0
LINE
  5
165
330
17
100
AcDbEntity
  8
00_РАМКА
100
AcDbLine
 10
40.0
 20
62.0
 30
0.0
 11
40.0
 21
38.0
 31
0.0
  0
LINE
  5
166
330
17
100
AcDbEntity
  8
00_РАМКА
100
AcDbLine
 10
80.0
 20
62.0
 30
0.0
 11
80.0
 21
38.0
 31
0.0
  0
LINE
  5
167
330
17
100
AcDbEntity
  8
00_РАМКА
100
AcDbLine
 10
110.0
 20
62.0
 30
0.0
 11
110.0
 21
38.0
 31
0.0
  0
LINE
  5
168
330
17
100
AcDbEntity
  8
00_РАМКА
100
AcDbLine
 10
152.0
 20
62.0
 30
0.0
 11
152.0
 21
38.0
 31
0.0
  0
LINE
  5
169
330
17
100
AcDbEntity
  8
00_РАМКА
100
AcDbLine
 10
194.0
 20
62.0
 30
0.0
 11
194.0
 21
38.0
 31
0.0
  0
LINE
  5
16A
330
17
100
AcDbEntity
  8
00_РАМКА
100
AcDbLine
 10
234.0
 20
62.0
 30
0.0
 11
234.0
 21
38.0
 31
0.0
  0
ENDSEC
  0
SECTION
  2
OBJECTS
  0
DICTIONARY
  5
A
330
0
100
AcDbDictionary
281
1
  3
ACAD_COLOR
350
B
  3
ACAD_GROUP
350
C
  3
ACAD_LAYOUT
350
D
  3
ACAD_MATERIAL
350
E
  3
ACAD_MLEADERSTYLE
350
F
  3
ACAD_MLINESTYLE
350
10
  3
ACAD_PLOTSETTINGS
350
11
  3
ACAD_PLOTSTYLENAME
350
12
  3
ACAD_SCALELIST
350
14
  3
ACAD_TABLESTYLE
350
15
  3
ACAD_VISUALSTYLE
350
16
  3
EZDXF_META
350
2D
  0
DICTIONARY
  5
B
330
A
100
AcDbDictionary
281
1
  0
DICTIONARY
  5
C
330
A
100
AcDbDictionary
281
1
  0
DICTIONARY
  5
D
330
A
100
AcDbDictionary
281
1
  3
Model
350
1A
  3
Layout1
350
1E
  0
DICTIONARY
  5
E
330
A
100
AcDbDictionary
281
1
  3
ByBlock
350
1F
  3
ByLayer
350
20
  3
Global
350
21
  0
DICTIONARY
  5
F
330
A
100
AcDbDictionary
281
1
  3
Standard
350
2C
  0
DICTIONARY
  5
10
330
A
100
AcDbDictionary
281
1
  3
Standard
350
22
  0
DICTIONARY
  5
11
330
A
100
AcDbDictionary
281
1
  0
ACDBDICTIONARYWDFLT
  5
12
330
A
100
AcDbDictionary
281
1
  3
Normal
350
13
100
AcDbDictionaryWithDefault
340
13
  0
ACDBPLACEHOLDER
  5
13
330
12
  0
DICTIONARY
  5
14
330
A
100
AcDbDictionary
281
1
  0
DICTIONARY
  5
15
330
A
100
AcDbDictionary
281
1
  0
DICTIONARY
  5
16
330
A
100
AcDbDictionary
281
1
  3
2dWireframe
350
5A
  3
Basic
350
5B
  3
Brighten
350
5C
  3
ColorChange
350
5D
  3
Conceptual
350
5E
  3
Dim
350
5F
  3
EdgeColorOff
350
60
  3
Facepattern
350
61
  3
Flat
350
62
  3
FlatWithEdges
350
63
  3
Gouraud
350
64
  3
GouraudWithEdges
350
65
  3
Hidden
350
66
  3
JitterOff
350
67
  3
Linepattern
350
68
  3
Modeling
350
69
  3
OverhangOff
350
6A
  3
Realistic
350
6B
  3
Shaded
350
6C
  3
Shaded with edges
350
6D
  3
Shades of Gray
350
6E
  3
Sketchy
350
6F
  3
Thicken
350
70
  3
Wireframe
350
71
  3
X-Ray
350
72
  0
LAYOUT
  5
1A
330
D
100
AcDbPlotSettings
  1

  4
A3
  6

 40
7.5
 41
20.0
 42
7.5
 43
20.0
 44
420.0
 45
297.0
 46
0.0
 47
0.0
 48
0.0
 49
0.0
140
0.0
141
0.0
142
1.0
143
1.0
 70
1024
 72
1
 73
0
 74
5
  7

 75
16
 76
0
 77
2
 78
300
147
1.0
148
0.0
149
0.0
100
AcDbLayout
  1
Model
 70
1
 71
0
 10
0.0
 20
0.0
 11
420.0
 21
297.0
 12
0.0
 22
0.0
 32
0.0
 14
1e+20
 24
1e+20
 34
1e+20
 15
-1e+20
 25
-1e+20
 35
-1e+20
146
0.0
 13
0.0
 23
0.0
 33
0.0
 16
1.0
 26
0.0
 36
0.0
 17
0.0
 27
1.0
 37
0.0
 76
1
330
17
  0
LAYOUT
  5
1E
330
D
100
AcDbPlotSettings
  1

  4
A3
  6

 40
7.5
 41
20.0
 42
7.5
 43
20.0
 44
420.0
 45
297.0
 46
0.0
 47
0.0
 48
0.0
 49
0.0
140
0.0
141
0.0
142
1.0
143
1.0
 70
0
 72
1
 73
0
 74
5
  7

 75
16
 76
0
 77
2
 78
300
147
1.0
148
0.0
149
0.0
100
AcDbLayout
  1
Layout1
 70
1
 71
1
 10
0.0
 20
0.0
 11
420.0
 21
297.0
 12
0.0
 22
0.0
 32
0.0
 14
1e+20
 24
1e+20
 34
1e+20
 15
-1e+20
 25
-1e+20
 35
-1e+20
146
0.0
 13
0.0
 23
0.0
 33
0.0
 16
1.0
 26
0.0
 36
0.0
 17
0.0
 27
1.0
 37
0.0
 76
1
330
1B
  0
MATERIAL
  5
1F
102
{ACAD_REACTORS
330
E
102
}
330
E
100
AcDbMaterial
  1
ByBlock
  2

 70
0
 40
1.0
 71
1
 41
1.0
 91
-1023410177
 42
1.0
 72
1
  3

 73
1
 74
1
 75
1
 44
0.5
 73
0
 45
1.0
 46
1.0
 77
1
  4

 78
1
 79
1
170
1
 48
1.0
171
1
  6

172
1
173
1
174
1
140
1.0
141
1.0
175
1
  7

176
1
177
1
178
1
143
1.0
179
1
  8

270
1
271
1
272
1
145
1.0
146
1.0
273
1
  9

274
1
275
1
276
1
 42
1.0
 72
1
  3

 73
1
 74
1
 75
1
 94
63
  0
MATERIAL
  5
20
102
{ACAD_REACTORS
330
E
102
}
330
E
100
AcDbMaterial
  1
ByLayer
  2

 70
0
 40
1.0
 71
1
 41
1.0
 91
-1023410177
 42
1.0
 72
1
  3

 73
1
 74
1
 75
1
 44
0.5
 73
0
 45
1.0
 46
1.0
 77
1
  4

 78
1
 79
1
170
1
 48
1.0
171
1
  6

172
1
173
1
174
1
140
1.0
141
1.0
175
1
  7

176
1
177
1
178
1
143
1.0
179
1
  8

270
1
271
1
272
1
145
1.0
146
1.0
273
1
  9

274
1
275
1
276
1
 42
1.0
 72
1
  3

 73
1
 74
1
 75
1
 94
63
  0
MATERIAL
  5
21
102
{ACAD_REACTORS
330
E
102
}
330
E
100
AcDbMaterial
  1
Global
  2

 70
0
 40
1.0
 71
1
 41
1.0
 91
-1023410177
 42
1.0
 72
1
  3

 73
1
 74
1
 75
1
 44
0.5
 73
0
 45
1.0
 46
1.0
 77
1
  4

 78
1
 79
1
170
1
 48
1.0
171
1
  6

172
1
173
1
174
1
140
1.0
141
1.0
175
1
  7

176
1
177
1
178
1
143
1.0
179
1
  8

270
1
271
1
272
1
145
1.0
146
1.0
273
1
  9

274
1
275
1
276
1
 42
1.0
 72
1
  3

 73
1
 74
1
 75
1
 94
63
  0
MLINESTYLE
  5
22
102
{ACAD_REACTORS
330
10
102
}
330
10
100
AcDbMlineStyle
  2
Standard
 70
0
  3

 62
256
 51
90.0
 52
90.0
 71
2
 49
0.5
 62
256
  6
BYLAYER
 49
-0.5
 62
256
  6
BYLAYER
  0
MLEADERSTYLE
  5
2C
102
{ACAD_REACTORS
330
F
102
}
330
F
100
AcDbMLeaderStyle
179
2
170
2
171
1
172
0
 90
2
 40
0.0
 41
0.0
173
1
 91
-1056964608
 92
-2
290
1
 42
2.0
291
1
 43
8.0
  3
Standard
 44
4.0
300

342
29
174
1
175
1
176
0
178
1
 93
-1056964608
 45
4.0
292
0
297
0
 46
4.0
 94
-1056964608
 47
1.0
 49
1.0
140
1.0
294
1
141
0.0
177
0
142
1.0
295
0
296
0
143
3.75
271
0
272
9
273
9
  0
DICTIONARY
  5
2D
330
A
100
AcDbDictionary
280
1
281
1
  3
CREATED_BY_EZDXF
350
2E
  3
WRITTEN_BY_EZDXF
350
16D
  0
DICTIONARYVAR
  5
2E
330
2D
100
DictionaryVariables
280
0
  1
1.4.4 @ 2026-09-23T20:44:50.337564+00:00
  0
VISUALSTYLE
  5
5A
102
{ACAD_REACTORS
330
16
102
}
330
16
100
AcDbVisualStyle
  2
2dWireframe
 70
4
177
3
291
0
 70
58
 90
2
176
1
 90
2
176
1
 90
0
176
1
 90
0
176
1
 40
0.6
176
1
 40
30.0
176
1
 62
7
420
16777215
176
1
 90
1
176
1
 90
4
176
1
 62
7
176
1
 62
257
176
1
 90
1
176
1
 90
1
176
1
 40
1.0
176
1
 90
8
176
1
 62
7
176
1
 40
1.0
176
1
 90
1
176
1
 90
6
176
1
 90
2
176
1
 62
7
176
1
 90
5
176
1
 90
0
176
1
 90
0
176
1
290
0
176
1
 90
1
176
1
 40
0.0
176
1
 90
0
176
1
290
1
176
1
290
1
176
1
290
0
176
1
290
0
176
1
290
0
176
1
290
0
176
1
290
0
176
1
290
0
176
1
290
0
176
1
 90
50
176
1
 40
0.0
176
1
 40
1.0
176
1
 90
0
176
1
 62
18
420
0
176
1
 90
50
176
1
 90
3
176
1
 62
5
420
255
176
1
290
0
176
1
 90
50
176
1
 90
50
176
1
 90
50
176
1
290
0
176
1
 90
50
176
1
 62
256
176
0
 40
1.0
176
0
 90
2
176
1
  1
strokes_ogs.tif
176
1
290
0
176
1
 40
1.0
176
1
 40
1.0
176
1
  0
VISUALSTYLE
  5
5B
102
{ACAD_REACTORS
330
16
102
}
330
16
100
AcDbVisualStyle
  2
Basic
 70
7
177
3
291
1
 70
58
 90
2
176
1
 90
2
176
1
 90
0
176
1
 90
1
176
1
 40
0.6
176
1
 40
30.0
176
1
 62
7
420
16777215
176
1
 90
1
176
1
 90
4
176
1
 62
7
176
1
 62
257
176
1
 90
1
176
1
 90
1
176
1
 40
1.0
176
1
 90
8
176
1
 62
7
176
1
 40
1.0
176
1
 90
1
176
1
 90
6
176
1
 90
2
176
1
 62
7
176
1
 90
5
176
1
 90
0
176
1
 90
0
176
1
290
0
176
1
 90
1
176
1
 40
0.0
176
1
 90
0
176
1
290
0
176
1
290
1
176
1
290
1
176
1
290
0
176
1
290
0
176
1
290
0
176
1
290
0
176
1
290
0
176
1
290
0
176
1
 90
50
176
1
 40
0.0
176
1
 40
1.0
176
1
 90
0
176
1
 62
18
420
0
176
1
 90
50
176
1
 90
3
176
1
 62
5
420
255
176
1
290
0
176
1
 90
50
176
1
 90
50
176
1
 90
50
176
1
290
0
176
1
 90
50
176
1
 62
256
176
0
 40
1.0
176
0
 90
2
176
1
  1
strokes_ogs.tif
176
1
290
0
176
1
 40
1.0
176
1
 40
1.0
176
1
  0
VISUALSTYLE
  5
5C
102
{ACAD_REACTORS
330
16
102
}
330
16
100
AcDbVisualStyle
  2
Brighten
 70
12
177
3
291
1
 70
58
 90
2
176
1
 90
2
176
1
 90
0
176
1
 90
2
176
1
 40
0.6
176
1
 40
30.0
176
1
 62
7
420
16777215
176
1
 90
1
176
1
 90
4
176
1
 62
7
176
1
 62
257
176
1
 90
1
176
1
 90
1
176
1
 40
1.0
176
1
 90
8
176
1
 62
7
176
1
 40
1.0
176
1
 90
1
176
1
 90
6
176
1
 90
2
176
1
 62
7
176
1
 90
5
176
1
 90
0
176
1
 90
0
176
1
290
0
176
1
 90
1
176
1
 40
0.0
176
1
 90
0
176
1
290
0
176
1
290
1
176
1
290
1
176
1
290
0
176
1
290
0
176
1
290
0
176
1
290
0
176
1
290
0
176
1
290
0
176
1
 90
50
176
1
 40
0.0
176
1
 40
1.0
176
1
 90
0
176
1
 62
18
420
0
176
1
 90
50
176
1
 90
3
176
1
 62
5
420
255
176
1
290
0
176
1
 90
50
176
1
 90
50
176
1
 90
50
176
1
290
0
176
1
 90
50
176
1
 62
256
176
0
 40
1.0
176
0
 90
2
176
1
  1
strokes_ogs.tif
176
1
290
0
176
1
 40
1.0
176
1
 40
1.0
176
1
  0
VISUALSTYLE
  5
5D
102
{ACAD_REACTORS
330
16
102
}
330
16
100
AcDbVisualStyle
  2
ColorChange
 70
16
177
3
291
1
 70
58
 90
2
176
1
 90
2
176
1
 90
0
176
1
 90
2
176
1
 40
0.6
176
1
 40
30.0
176
1
 62
7
420
16777215
176
1
 90
1
176
1
 90
4
176
1
 62
7
176
1
 62
257
176
1
 90
1
176
1
 90
1
176
1
 40
1.0
176
1
 90
8
176
1
 62
7
176
1
 40
1.0
176
1
 90
1
176
1
 90
6
176
1
 90
2
176
1
 62
7
176
1
 90
5
176
1
 90
0
176
1
 90
0
176
1
290
0
176
1
 90
1
176
1
 40
0.0
176
1
 90
0
176
1
290
0
176
1
290
1
176
1
290
1
176
1
290
0
176
1
290
0
176
1
290
0
176
1
290
0
176
1
290
0
176
1
290
0
176
1
 90
50
176
1
 40
0.0
176
1
 40
1.0
176
1
 90
0
176
1
 62
18
420
0
176
1
 90
50
176
1
 90
3
176
1
 62
5
420
255
176
1
290
0
176
1
 90
50
176
1
 90
50
176
1
 90
50
176
1
290
0
176
1
 90
50
176
1
 62
256
176
0
 40
1.0
176
0
 90
2
176
1
  1
strokes_ogs.tif
176
1
290
0
176
1
 40
1.0
176
1
 40
1.0
176
1
  0
VISUALSTYLE
  5
5E
102
{ACAD_REACTORS
330
16
102
}
330
16
100
AcDbVisualStyle
  2
Conceptual
 70
9
177
3
291
0
 70
58
 90
2
176
1
 90
2
176
1
 90
0
176
1
 90
3
176
1
 40
0.6
176
1
 40
30.0
176
1
 62
7
420
16777215
176
1
 90
1
176
1
 90
4
176
1
 62
7
176
1
 62
257
176
1
 90
1
176
1
 90
1
176
1
 40
1.0
176
1
 90
8
176
1
 62
7
176
1
 40
1.0
176
1
 90
1
176
1
 90
6
176
1
 90
2
176
1
 62
7
176
1
 90
5
176
1
 90
0
176
1
 90
0
176
1
290
0
176
1
 90
1
176
1
 40
0.0
176
1
 90
0
176
1
290
0
176
1
290
1
176
1
290
1
176
1
290
0
176
1
290
0
176
1
290
0
176
1
290
0
176
1
290
0
176
1
290
0
176
1
 90
50
176
1
 40
0.0
176
1
 40
1.0
176
1
 90
0
176
1
 62
18
420
0
176
1
 90
50
176
1
 90
3
176
1
 62
5
420
255
176
1
290
0
176
1
 90
50
176
1
 90
50
176
1
 90
50
176
1
290
0
176
1
 90
50
176
1
 62
256
176
0
 40
1.0
176
0
 90
2
176
1
  1
strokes_ogs.tif
176
1
290
0
176
1
 40
1.0
176
1
 40
1.0
176
1
  0
VISUALSTYLE
  5
5F
102
{ACAD_REACTORS
330
16
102
}
330
16
100
AcDbVisualStyle
  2
Dim
 70
11
177
3
291
1
 70
58
 90
2
176
1
 90
2
176
1
 90
0
176
1
 90
2
176
1
 40
0.6
176
1
 40
30.0
176
1
 62
7
420
16777215
176
1
 90
1
176
1
 90
4
176
1
 62
7
176
1
 62
257
176
1
 90
1
176
1
 90
1
176
1
 40
1.0
176
1
 90
8
176
1
 62
7
176
1
 40
1.0
176
1
 90
1
176
1
 90
6
176
1
 90
2
176
1
 62
7
176
1
 90
5
176
1
 90
0
176
1
 90
0
176
1
290
0
176
1
 90
1
176
1
 40
0.0
176
1
 90
0
176
1
290
0
176
1
290
1
176
1
290
1
176
1
290
0
176
1
290
0
176
1
290
0
176
1
290
0
176
1
290
0
176
1
290
0
176
1
 90
50
176
1
 40
0.0
176
1
 40
1.0
176
1
 90
0
176
1
 62
18
420
0
176
1
 90
50
176
1
 90
3
176
1
 62
5
420
255
176
1
290
0
176
1
 90
50
176
1
 90
50
176
1
 90
50
176
1
290
0
176
1
 90
50
176
1
 62
256
176
0
 40
1.0
176
0
 90
2
176
1
  1
strokes_ogs.tif
176
1
290
0
176
1
 40
1.0
176
1
 40
1.0
176
1
  0
VISUALSTYLE
  5
60
102
{ACAD_REACTORS
330
16
102
}
330
16
100
AcDbVisualStyle
  2
EdgeColorOff
 70
22
177
3
291
1
 70
58
 90
2
176
1
 90
2
176
1
 90
0
176
1
 90
2
176
1
 40
0.6
176
1
 40
30.0
176
1
 62
7
420
16777215
176
1
 90
1
176
1
 90
4
176
1
 62
7
176
1
 62
257
176
1
 90
1
176
1
 90
1
176
1
 40
1.0
176
1
 90
8
176
1
 62
7
176
1
 40
1.0
176
1
 90
1
176
1
 90
6
176
1
 90
2
176
1
 62
7
176
1
 90
5
176
1
 90
0
176
1
 90
0
176
1
290
0
176
1
 90
1
176
1
 40
0.0
176
1
 90
0
176
1
290
0
176
1
290
1
176
1
290
1
176
1
290
0
176
1
290
0
176
1
290
0
176
1
290
0
176
1
290
0
176
1
290
0
176
1
 90
50
176
1
 40
0.0
176
1
 40
1.0
176
1
 90
0
176
1
 62
18
420
0
176
1
 90
50
176
1
 90
3
176
1
 62
5
420
255
176
1
290
0
176
1
 90
50
176
1
 90
50
176
1
 90
50
176
1
290
0
176
1
 90
50
176
1
 62
256
176
0
 40
1.0
176
0
 90
2
176
1
  1
strokes_ogs.tif
176
1
290
0
176
1
 40
1.0
176
1
 40
1.0
176
1
  0
VISUALSTYLE
  5
61
102
{ACAD_REACTORS
330
16
102
}
330
16
100
AcDbVisualStyle
  2
Facepattern
 70
15
177
3
291
1
 70
58
 90
2
176
1
 90
2
176
1
 90
0
176
1
 90
2
176
1
 40
0.6
176
1
 40
30.0
176
1
 62
7
420
16777215
176
1
 90
1
176
1
 90
4
176
1
 62
7
176
1
 62
257
176
1
 90
1
176
1
 90
1
176
1
 40
1.0
176
1
 90
8
176
1
 62
7
176
1
 40
1.0
176
1
 90
1
176
1
 90
6
176
1
 90
2
176
1
 62
7
176
1
 90
5
176
1
 90
0
176
1
 90
0
176
1
290
0
176
1
 90
1
176
1
 40
0.0
176
1
 90
0
176
1
290
0
176
1
290
1
176
1
290
1
176
1
290
0
176
1
290
0
176
1
290
0
176
1
290
0
176
1
290
0
176
1
290
0
176
1
 90
50
176
1
 40
0.0
176
1
 40
1.0
176
1
 90
0
176
1
 62
18
420
0
176
1
 90
50
176
1
 90
3
176
1
 62
5
420
255
176
1
290
0
176
1
 90
50
176
1
 90
50
176
1
 90
50
176
1
290
0
176
1
 90
50
176
1
 62
256
176
0
 40
1.0
176
0
 90
2
176
1
  1
strokes_ogs.tif
176
1
290
0
176
1
 40
1.0
176
1
 40
1.0
176
1
  0
VISUALSTYLE
  5
62
102
{ACAD_REACTORS
330
16
102
}
330
16
100
AcDbVisualStyle
  2
Flat
 70
0
177
3
291
1
 70
58
 90
2
176
1
 90
2
176
1
 90
0
176
1
 90
2
176
1
 40
0.6
176
1
 40
30.0
176
1
 62
7
420
16777215
176
1
 90
1
176
1
 90
4
176
1
 62
7
176
1
 62
257
176
1
 90
1
176
1
 90
1
176
1
 40
1.0
176
1
 90
8
176
1
 62
7
176
1
 40
1.0
176
1
 90
1
176
1
 90
6
176
1
 90
2
176
1
 62
7
176
1
 90
5
176
1
 90
0
176
1
 90
0
176
1
290
0
176
1
 90
1
176
1
 40
0.0
176
1
 90
0
176
1
290
0
176
1
290
1
176
1
290
1
176
1
290
0
176
1
290
0
176
1
290
0
176
1
290
0
176
1
290
0
176
1
290
0
176
1
 90
50
176
1
 40
0.0
176
1
 40
1.0
176
1
 90
0
176
1
 62
18
420
0
176
1
 90
50
176
1
 90
3
176
1
 62
5
420
255
176
1
290
0
176
1
 90
50
176
1
 90
50
176
1
 90
50
176
1
290
0
176
1
 90
50
176
1
 62
256
176
0
 40
1.0
176
0
 90
2
176
1
  1
strokes_ogs.tif
176
1
290
0
176
1
 40
1.0
176
1
 40
1.0
176
1
  0
VISUALSTYLE
  5
63
102
{ACAD_REACTORS
330
16
102
}
330
16
100
AcDbVisualStyle
  2
FlatWithEdges
 70
1
177
3
291
1
 70
58
 90
2
176
1
 90
2
176
1
 90
0
176
1
 90
2
176
1
 40
0.6
176
1
 40
30.0
176
1
 62
7
420
16777215
176
1
 90
1
176
1
 90
4
176
1
 62
7
176
1
 62
257
176
1
 90
1
176
1
 90
1
176
1
 40
1.0
176
1
 90
8
176
1
 62
7
176
1
 40
1.0
176
1
 90
1
176
1
 90
6
176
1
 90
2
176
1
 62
7
176
1
 90
5
176
1
 90
0
176
1
 90
0
176
1
290
0
176
1
 90
1
176
1
 40
0.0
176
1
 90
0
176
1
290
0
176
1
290
1
176
1
290
1
176
1
290
0
176
1
290
0
176
1
290
0
176
1
290
0
176
1
290
0
176
1
290
0
176
1
 90
50
176
1
 40
0.0
176
1
 40
1.0
176
1
 90
0
176
1
 62
18
420
0
176
1
 90
50
176
1
 90
3
176
1
 62
5
420
255
176
1
290
0
176
1
 90
50
176
1
 90
50
176
1
 90
50
176
1
290
0
176
1
 90
50
176
1
 62
256
176
0
 40
1.0
176
0
 90
2
176
1
  1
strokes_ogs.tif
176
1
290
0
176
1
 40
1.0
176
1
 40
1.0
176
1
  0
VISUALSTYLE
  5
64
102
{ACAD_REACTORS
330
16
102
}
330
16
100
AcDbVisualStyle
  2
Gouraud
 70
2
177
3
291
1
 70
58
 90
2
176
1
 90
2
176
1
 90
0
176
1
 90
2
176
1
 40
0.6
176
1
 40
30.0
176
1
 62
7
420
16777215
176
1
 90
1
176
1
 90
4
176
1
 62
7
176
1
 62
257
176
1
 90
1
176
1
 90
1
176
1
 40
1.0
176
1
 90
8
176
1
 62
7
176
1
 40
1.0
176
1
 90
1
176
1
 90
6
176
1
 90
2
176
1
 62
7
176
1
 90
5
176
1
 90
0
176
1
 90
0
176
1
290
0
176
1
 90
1
176
1
 40
0.0
176
1
 90
0
176
1
290
0
176
1
290
1
176
1
290
1
176
1
290
0
176
1
290
0
176
1
290
0
176
1
290
0
176
1
290
0
176
1
290
0
176
1
 90
50
176
1
 40
0.0
176
1
 40
1.0
176
1
 90
0
176
1
 62
18
420
0
176
1
 90
50
176
1
 90
3
176
1
 62
5
420
255
176
1
290
0
176
1
 90
50
176
1
 90
50
176
1
 90
50
176
1
290
0
176
1
 90
50
176
1
 62
256
176
0
 40
1.0
176
0
 90
2
176
1
  1
strokes_ogs.tif
176
1
290
0
176
1
 40
1.0
176
1
 40
1.0
176
1
  0
VISUALSTYLE
  5
65
102
{ACAD_REACTORS
330
16
102
}
330
16
100
AcDbVisualStyle
  2
GouraudWithEdges
 70
3
177
3
291
1
 70
58
 90
2
176
1
 90
2
176
1
 90
0
176
1
 90
2
176
1
 40
0.6
176
1
 40
30.0
176
1
 62
7
420
16777215
176
1
 90
1
176
1
 90
4
176
1
 62
7
176
1
 62
257
176
1
 90
1
176
1
 90
1
176
1
 40
1.0
176
1
 90
8
176
1
 62
7
176
1
 40
1.0
176
1
 90
1
176
1
 90
6
176
1
 90
2
176
1
 62
7
176
1
 90
5
176
1
 90
0
176
1
 90
0
176
1
290
0
176
1
 90
1
176
1
 40
0.0
176
1
 90
0
176
1
290
0
176
1
290
1
176
1
290
1
176
1
290
0
176
1
290
0
176
1
290
0
176
1
290
0
176
1
290
0
176
1
290
0
176
1
 90
50
176
1
 40
0.0
176
1
 40
1.0
176
1
 90
0
176
1
 62
18
420
0
176
1
 90
50
176
1
 90
3
176
1
 62
5
420
255
176
1
290
0
176
1
 90
50
176
1
 90
50
176
1
 90
50
176
1
290
0
176
1
 90
50
176
1
 62
256
176
0
 40
1.0
176
0
 90
2
176
1
  1
strokes_ogs.tif
176
1
290
0
176
1
 40
1.0
176
1
 40
1.0
176
1
  0
VISUALSTYLE
  5
66
102
{ACAD_REACTORS
330
16
102
}
330
16
100
AcDbVisualStyle
  2
Hidden
 70
6
177
3
291
0
 70
58
 90
2
176
1
 90
2
176
1
 90
0
176
1
 90
1
176
1
 40
0.6
176
1
 40
30.0
176
1
 62
7
420
16777215
176
1
 90
1
176
1
 90
4
176
1
 62
7
176
1
 62
257
176
1
 90
1
176
1
 90
1
176
1
 40
1.0
176
1
 90
8
176
1
 62
7
176
1
 40
1.0
176
1
 90
1
176
1
 90
6
176
1
 90
2
176
1
 62
7
176
1
 90
5
176
1
 90
0
176
1
 90
0
176
1
290
0
176
1
 90
1
176
1
 40
0.0
176
1
 90
0
176
1
290
0
176
1
290
1
176
1
290
1
176
1
290
0
176
1
290
0
176
1
290
0
176
1
290
0
176
1
290
0
176
1
290
0
176
1
 90
50
176
1
 40
0.0
176
1
 40
1.0
176
1
 90
0
176
1
 62
18
420
0
176
1
 90
50
176
1
 90
3
176
1
 62
5
420
255
176
1
290
0
176
1
 90
50
176
1
 90
50
176
1
 90
50
176
1
290
0
176
1
 90
50
176
1
 62
256
176
0
 40
1.0
176
0
 90
2
176
1
  1
strokes_ogs.tif
176
1
290
0
176
1
 40
1.0
176
1
 40
1.0
176
1
  0
VISUALSTYLE
  5
67
102
{ACAD_REACTORS
330
16
102
}
330
16
100
AcDbVisualStyle
  2
JitterOff
 70
20
177
3
291
1
 70
58
 90
2
176
1
 90
2
176
1
 90
0
176
1
 90
2
176
1
 40
0.6
176
1
 40
30.0
176
1
 62
7
420
16777215
176
1
 90
1
176
1
 90
4
176
1
 62
7
176
1
 62
257
176
1
 90
1
176
1
 90
1
176
1
 40
1.0
176
1
 90
8
176
1
 62
7
176
1
 40
1.0
176
1
 90
1
176
1
 90
6
176
1
 90
2
176
1
 62
7
176
1
 90
5
176
1
 90
0
176
1
 90
0
176
1
290
0
176
1
 90
1
176
1
 40
0.0
176
1
 90
0
176
1
290
0
176
1
290
1
176
1
290
1
176
1
290
0
176
1
290
0
176
1
290
0
176
1
290
0
176
1
290
0
176
1
290
0
176
1
 90
50
176
1
 40
0.0
176
1
 40
1.0
176
1
 90
0
176
1
 62
18
420
0
176
1
 90
50
176
1
 90
3
176
1
 62
5
420
255
176
1
290
0
176
1
 90
50
176
1
 90
50
176
1
 90
50
176
1
290
0
176
1
 90
50
176
1
 62
256
176
0
 40
1.0
176
0
 90
2
176
1
  1
strokes_ogs.tif
176
1
290
0
176
1
 40
1.0
176
1
 40
1.0
176
1
  0
VISUALSTYLE
  5
68
102
{ACAD_REACTORS
330
16
102
}
330
16
100
AcDbVisualStyle
  2
Linepattern
 70
14
177
3
291
1
 70
58
 90
2
176
1
 90
2
176
1
 90
0
176
1
 90
2
176
1
 40
0.6
176
1
 40
30.0
176
1
 62
7
420
16777215
176
1
 90
1
176
1
 90
4
176
1
 62
7
176
1
 62
257
176
1
 90
1
176
1
 90
1
176
1
 40
1.0
176
1
 90
8
176
1
 62
7
176
1
 40
1.0
176
1
 90
1
176
1
 90
6
176
1
 90
2
176
1
 62
7
176
1
 90
5
176
1
 90
0
176
1
 90
0
176
1
290
0
176
1
 90
1
176
1
 40
0.0
176
1
 90
0
176
1
290
0
176
1
290
1
176
1
290
1
176
1
290
0
176
1
290
0
176
1
290
0
176
1
290
0
176
1
290
0
176
1
290
0
176
1
 90
50
176
1
 40
0.0
176
1
 40
1.0
176
1
 90
0
176
1
 62
18
420
0
176
1
 90
50
176
1
 90
3
176
1
 62
5
420
255
176
1
290
0
176
1
 90
50
176
1
 90
50
176
1
 90
50
176
1
290
0
176
1
 90
50
176
1
 62
256
176
0
 40
1.0
176
0
 90
2
176
1
  1
strokes_ogs.tif
176
1
290
0
176
1
 40
1.0
176
1
 40
1.0
176
1
  0
VISUALSTYLE
  5
69
102
{ACAD_REACTORS
330
16
102
}
330
16
100
AcDbVisualStyle
  2
Modeling
 70
10
177
3
291
0
 70
58
 90
2
176
1
 90
2
176
1
 90
0
176
1
 90
2
176
1
 40
0.6
176
1
 40
30.0
176
1
 62
7
420
16777215
176
1
 90
1
176
1
 90
4
176
1
 62
7
176
1
 62
257
176
1
 90
1
176
1
 90
1
176
1
 40
1.0
176
1
 90
8
176
1
 62
7
176
1
 40
1.0
176
1
 90
1
176
1
 90
6
176
1
 90
2
176
1
 62
7
176
1
 90
5
176
1
 90
0
176
1
 90
0
176
1
290
0
176
1
 90
1
176
1
 40
0.0
176
1
 90
0
176
1
290
0
176
1
290
1
176
1
290
1
176
1
290
0
176
1
290
0
176
1
290
0
176
1
290
0
176
1
290
0
176
1
290
0
176
1
 90
50
176
1
 40
0.0
176
1
 40
1.0
176
1
 90
0
176
1
 62
18
420
0
176
1
 90
50
176
1
 90
3
176
1
 62
5
420
255
176
1
290
0
176
1
 90
50
176
1
 90
50
176
1
 90
50
176
1
290
0
176
1
 90
50
176
1
 62
256
176
0
 40
1.0
176
0
 90
2
176
1
  1
strokes_ogs.tif
176
1
290
0
176
1
 40
1.0
176
1
 40
1.0
176
1
  0
VISUALSTYLE
  5
6A
102
{ACAD_REACTORS
330
16
102
}
330
16
100
AcDbVisualStyle
  2
OverhangOff
 70
21
177
3
291
1
 70
58
 90
2
176
1
 90
2
176
1
 90
0
176
1
 90
2
176
1
 40
0.6
176
1
 40
30.0
176
1
 62
7
420
16777215
176
1
 90
1
176
1
 90
4
176
1
 62
7
176
1
 62
257
176
1
 90
1
176
1
 90
1
176
1
 40
1.0
176
1
 90
8
176
1
 62
7
176
1
 40
1.0
176
1
 90
1
176
1
 90
6
176
1
 90
2
176
1
 62
7
176
1
 90
5
176
1
 90
0
176
1
 90
0
176
1
290
0
176
1
 90
1
176
1
 40
0.0
176
1
 90
0
176
1
290
0
176
1
290
1
176
1
290
1
176
1
290
0
176
1
290
0
176
1
290
0
176
1
290
0
176
1
290
0
176
1
290
0
176
1
 90
50
176
1
 40
0.0
176
1
 40
1.0
176
1
 90
0
176
1
 62
18
420
0
176
1
 90
50
176
1
 90
3
176
1
 62
5
420
255
176
1
290
0
176
1
 90
50
176
1
 90
50
176
1
 90
50
176
1
290
0
176
1
 90
50
176
1
 62
256
176
0
 40
1.0
176
0
 90
2
176
1
  1
strokes_ogs.tif
176
1
290
0
176
1
 40
1.0
176
1
 40
1.0
176
1
  0
VISUALSTYLE
  5
6B
102
{ACAD_REACTORS
330
16
102
}
330
16
100
AcDbVisualStyle
  2
Realistic
 70
8
177
3
291
0
 70
58
 90
2
176
1
 90
2
176
1
 90
0
176
1
 90
2
176
1
 40
0.6
176
1
 40
30.0
176
1
 62
7
420
16777215
176
1
 90
1
176
1
 90
4
176
1
 62
7
176
1
 62
257
176
1
 90
1
176
1
 90
1
176
1
 40
1.0
176
1
 90
8
176
1
 62
7
176
1
 40
1.0
176
1
 90
1
176
1
 90
6
176
1
 90
2
176
1
 62
7
176
1
 90
5
176
1
 90
0
176
1
 90
0
176
1
290
0
176
1
 90
1
176
1
 40
0.0
176
1
 90
0
176
1
290
0
176
1
290
1
176
1
290
1
176
1
290
0
176
1
290
0
176
1
290
0
176
1
290
0
176
1
290
0
176
1
290
0
176
1
 90
50
176
1
 40
0.0
176
1
 40
1.0
176
1
 90
0
176
1
 62
18
420
0
176
1
 90
50
176
1
 90
3
176
1
 62
5
420
255
176
1
290
0
176
1
 90
50
176
1
 90
50
176
1
 90
50
176
1
290
0
176
1
 90
50
176
1
 62
256
176
0
 40
1.0
176
0
 90
2
176
1
  1
strokes_ogs.tif
176
1
290
0
176
1
 40
1.0
176
1
 40
1.0
176
1
  0
VISUALSTYLE
  5
6C
102
{ACAD_REACTORS
330
16
102
}
330
16
100
AcDbVisualStyle
  2
Shaded
 70
27
177
3
291
0
 70
58
 90
2
176
1
 90
2
176
1
 90
0
176
1
 90
2
176
1
 40
0.6
176
1
 40
30.0
176
1
 62
7
420
16777215
176
1
 90
1
176
1
 90
4
176
1
 62
7
176
1
 62
257
176
1
 90
1
176
1
 90
1
176
1
 40
1.0
176
1
 90
8
176
1
 62
7
176
1
 40
1.0
176
1
 90
1
176
1
 90
6
176
1
 90
2
176
1
 62
7
176
1
 90
5
176
1
 90
0
176
1
 90
0
176
1
290
0
176
1
 90
1
176
1
 40
0.0
176
1
 90
0
176
1
290
0
176
1
290
1
176
1
290
1
176
1
290
0
176
1
290
0
176
1
290
0
176
1
290
0
176
1
290
0
176
1
290
0
176
1
 90
50
176
1
 40
0.0
176
1
 40
1.0
176
1
 90
0
176
1
 62
18
420
0
176
1
 90
50
176
1
 90
3
176
1
 62
5
420
255
176
1
290
0
176
1
 90
50
176
1
 90
50
176
1
 90
50
176
1
290
0
176
1
 90
50
176
1
 62
256
176
0
 40
1.0
176
0
 90
2
176
1
  1
strokes_ogs.tif
176
1
290
0
176
1
 40
1.0
176
1
 40
1.0
176
1
  0
VISUALSTYLE
  5
6D
102
{ACAD_REACTORS
330
16
102
}
330
16
100
AcDbVisualStyle
  2
Shaded with edges
 70
26
177
3
291
0
 70
58
 90
2
176
1
 90
2
176
1
 90
0
176
1
 90
2
176
1
 40
0.6
176
1
 40
30.0
176
1
 62
7
420
16777215
176
1
 90
1
176
1
 90
4
176
1
 62
7
176
1
 62
257
176
1
 90
1
176
1
 90
1
176
1
 40
1.0
176
1
 90
8
176
1
 62
7
176
1
 40
1.0
176
1
 90
1
176
1
 90
6
176
1
 90
2
176
1
 62
7
176
1
 90
5
176
1
 90
0
176
1
 90
0
176
1
290
0
176
1
 90
1
176
1
 40
0.0
176
1
 90
0
176
1
290
0
176
1
290
1
176
1
290
1
176
1
290
0
176
1
290
0
176
1
290
0
176
1
290
0
176
1
290
0
176
1
290
0
176
1
 90
50
176
1
 40
0.0
176
1
 40
1.0
176
1
 90
0
176
1
 62
18
420
0
176
1
 90
50
176
1
 90
3
176
1
 62
5
420
255
176
1
290
0
176
1
 90
50
176
1
 90
50
176
1
 90
50
176
1
290
0
176
1
 90
50
176
1
 62
256
176
0
 40
1.0
176
0
 90
2
176
1
  1
strokes_ogs.tif
176
1
290
0
176
1
 40
1.0
176
1
 40
1.0
176
1
  0
VISUALSTYLE
  5
6E
102
{ACAD_REACTORS
330
16
102
}
330
16
100
AcDbVisualStyle
  2
Shades of Gray
 70
23
177
3
291
0
 70
58
 90
2
176
1
 90
2
176
1
 90
0
176
1
 90
2
176
1
 40
0.6
176
1
 40
30.0
176
1
 62
7
420
16777215
176
1
 90
1
176
1
 90
4
176
1
 62
7
176
1
 62
257
176
1
 90
1
176
1
 90
1
176
1
 40
1.0
176
1
 90
8
176
1
 62
7
176
1
 40
1.0
176
1
 90
1
176
1
 90
6
176
1
 90
2
176
1
 62
7
176
1
 90
5
176
1
 90
0
176
1
 90
0
176
1
290
0
176
1
 90
1
176
1
 40
0.0
176
1
 90
0
176
1
290
0
176
1
290
1
176
1
290
1
176
1
290
0
176
1
290
0
176
1
290
0
176
1
290
0
176
1
290
0
176
1
290
0
176
1
 90
50
176
1
 40
0.0
176
1
 40
1.0
176
1
 90
0
176
1
 62
18
420
0
176
1
 90
50
176
1
 90
3
176
1
 62
5
420
255
176
1
290
0
176
1
 90
50
176
1
 90
50
176
1
 90
50
176
1
290
0
176
1
 90
50
176
1
 62
256
176
0
 40
1.0
176
0
 90
2
176
1
  1
strokes_ogs.tif
176
1
290
0
176
1
 40
1.0
176
1
 40
1.0
176
1
  0
VISUALSTYLE
  5
6F
102
{ACAD_REACTORS
330
16
102
}
330
16
100
AcDbVisualStyle
  2
Sketchy
 70
24
177
3
291
0
 70
58
 90
2
176
1
 90
2
176
1
 90
0
176
1
 90
1
176
1
 40
0.6
176
1
 40
30.0
176
1
 62
7
420
16777215
176
1
 90
1
176
1
 90
4
176
1
 62
7
176
1
 62
257
176
1
 90
1
176
1
 90
1
176
1
 40
1.0
176
1
 90
8
176
1
 62
7
176
1
 40
1.0
176
1
 90
1
176
1
 90
6
176
1
 90
2
176
1
 62
7
176
1
 90
5
176
1
 90
0
176
1
 90
0
176
1
290
0
176
1
 90
1
176
1
 40
0.0
176
1
 90
0
176
1
290
0
176
1
290
1
176
1
290
1
176
1
290
0
176
1
290
0
176
1
290
0
176
1
290
0
176
1
290
0
176
1
290
0
176
1
 90
50
176
1
 40
0.0
176
1
 40
1.0
176
1
 90
0
176
1
 62
18
420
0
176
1
 90
50
176
1
 90
3
176
1
 62
5
420
255
176
1
290
0
176
1
 90
50
176
1
 90
50
176
1
 90
50
176
1
290
0
176
1
 90
50
176
1
 62
256
176
0
 40
1.0
176
0
 90
2
176
1
  1
strokes_ogs.tif
176
1
290
0
176
1
 40
1.0
176
1
 40
1.0
176
1
  0
VISUALSTYLE
  5
70
102
{ACAD_REACTORS
330
16
102
}
330
16
100
AcDbVisualStyle
  2
Thicken
 70
13
177
3
291
1
 70
58
 90
2
176
1
 90
2
176
1
 90
0
176
1
 90
2
176
1
 40
0.6
176
1
 40
30.0
176
1
 62
7
420
16777215
176
1
 90
1
176
1
 90
4
176
1
 62
7
176
1
 62
257
176
1
 90
1
176
1
 90
1
176
1
 40
1.0
176
1
 90
8
176
1
 62
7
176
1
 40
1.0
176
1
 90
1
176
1
 90
6
176
1
 90
2
176
1
 62
7
176
1
 90
5
176
1
 90
0
176
1
 90
0
176
1
290
0
176
1
 90
1
176
1
 40
0.0
176
1
 90
0
176
1
290
0
176
1
290
1
176
1
290
1
176
1
290
0
176
1
290
0
176
1
290
0
176
1
290
0
176
1
290
0
176
1
290
0
176
1
 90
50
176
1
 40
0.0
176
1
 40
1.0
176
1
 90
0
176
1
 62
18
420
0
176
1
 90
50
176
1
 90
3
176
1
 62
5
420
255
176
1
290
0
176
1
 90
50
176
1
 90
50
176
1
 90
50
176
1
290
0
176
1
 90
50
176
1
 62
256
176
0
 40
1.0
176
0
 90
2
176
1
  1
strokes_ogs.tif
176
1
290
0
176
1
 40
1.0
176
1
 40
1.0
176
1
  0
VISUALSTYLE
  5
71
102
{ACAD_REACTORS
330
16
102
}
330
16
100
AcDbVisualStyle
  2
Wireframe
 70
5
177
3
291
0
 70
58
 90
2
176
1
 90
2
176
1
 90
0
176
1
 90
0
176
1
 40
0.6
176
1
 40
30.0
176
1
 62
7
420
16777215
176
1
 90
1
176
1
 90
4
176
1
 62
7
176
1
 62
257
176
1
 90
1
176
1
 90
1
176
1
 40
1.0
176
1
 90
8
176
1
 62
7
176
1
 40
1.0
176
1
 90
1
176
1
 90
6
176
1
 90
2
176
1
 62
7
176
1
 90
5
176
1
 90
0
176
1
 90
0
176
1
290
0
176
1
 90
1
176
1
 40
0.0
176
1
 90
0
176
1
290
0
176
1
290
1
176
1
290
1
176
1
290
0
176
1
290
0
176
1
290
0
176
1
290
0
176
1
290
0
176
1
290
0
176
1
 90
50
176
1
 40
0.0
176
1
 40
1.0
176
1
 90
0
176
1
 62
18
420
0
176
1
 90
50
176
1
 90
3
176
1
 62
5
420
255
176
1
290
0
176
1
 90
50
176
1
 90
50
176
1
 90
50
176
1
290
0
176
1
 90
50
176
1
 62
256
176
0
 40
1.0
176
0
 90
2
176
1
  1
strokes_ogs.tif
176
1
290
0
176
1
 40
1.0
176
1
 40
1.0
176
1
  0
VISUALSTYLE
  5
72
102
{ACAD_REACTORS
330
16
102
}
330
16
100
AcDbVisualStyle
  2
X-Ray
 70
25
177
3
291
0
 70
58
 90
2
176
1
 90
2
176
1
 90
0
176
1
 90
2
176
1
 40
0.5
176
1
 40
30.0
176
1
 62
7
420
16777215
176
1
 90
1
176
1
 90
4
176
1
 62
7
176
1
 62
257
176
1
 90
1
176
1
 90
1
176
1
 40
1.0
176
1
 90
8
176
1
 62
7
176
1
 40
1.0
176
1
 90
1
176
1
 90
6
176
1
 90
2
176
1
 62
7
176
1
 90
5
176
1
 90
0
176
1
 90
0
176
1
290
0
176
1
 90
1
176
1
 40
0.0
176
1
 90
0
176
1
290
0
176
1
290
1
176
1
290
1
176
1
290
0
176
1
290
0
176
1
290
0
176
1
290
0
176
1
290
0
176
1
290
0
176
1
 90
50
176
1
 40
0.0
176
1
 40
1.0
176
1
 90
0
176
1
 62
18
420
0
176
1
 90
50
176
1
 90
3
176
1
 62
5
420
255
176
1
290
0
176
1
 90
50
176
1
 90
50
176
1
 90
50
176
1
290
0
176
1
 90
50
176
1
 62
256
176
0
 40
1.0
176
0
 90
2
176
1
  1
strokes_ogs.tif
176
1
290
0
176
1
 40
1.0
176
1
 40
1.0
176
1
  0
DICTIONARYVAR
  5
16D
330
2D
100
DictionaryVariables
280
0
  1
1.4.4 @ 2026-09-23T20:44:50.435196+00:00
  0
ENDSEC
  0
EOF
