  0
SECTION
  2
HEADER
  9
$ACADVER
  1
AC1027
  9
$ACADMAINTVER
 70
105
  9
$DWGCODEPAGE
  3
ANSI_1252
  9
$LASTSAVEDBY
  1
ezdxf
  9
$REQUIREDVERSIONS
160
0
  9
$INSBASE
 10
0.0
 20
0.0
 30
0.0
  9
$EXTMIN
 10
1e+20
 20
1e+20
 30
1e+20
  9
$EXTMAX
 10
-1e+20
 20
-1e+20
 30
-1e+20
  9
$LIMMIN
 10
0.0
 20
0.0
  9
$LIMMAX
 10
420.0
 20
297.0
  9
$ORTHOMODE
 70
0
  9
$REGENMODE
 70
1
  9
$FILLMODE
 70
1
  9
$QTEXTMODE
 70
0
  9
$MIRRTEXT
 70
1
  9
$LTSCALE
 40
1.0
  9
$ATTMODE
 70
1
  9
$TEXTSIZE
 40
2.5
  9
$TRACEWID
 40
1.0
  9
$TEXTSTYLE
  7
OpenSans
  9
$CLAYER
  8
0
  9
$CELTYPE
  6
ByLayer
  9
$CECOLOR
 62
256
  9
$CELTSCALE
 40
1.0
  9
$DISPSILH
 70
0
  9
$DIMSCALE
 40
1.0
  9
$DIMASZ
 40
0.175
  9
$DIMEXO
 40
0.125
  9
$DIMDLI
 40
3.75
  9
$DIMRND
 40
0.0
  9
$DIMDLE
 40
0.0
  9
$DIMEXE
 40
0.375
  9
$DIMTP
 40
0.0
  9
$DIMTM
 40
0.0
  9
$DIMTXT
 40
0.25
  9
$DIMCEN
 40
2.5
  9
$DIMTSZ
 40
0.0
  9
$DIMTOL
 70
0
  9
$DIMLIM
 70
0
  9
$DIMTIH
 70
0
  9
$DIMTOH
 70
0
  9
$DIMSE1
 70
0
  9
$DIMSE2
 70
0
  9
$DIMTAD
 70
1
  9
$DIMZIN
 70
12
  9
$DIMBLK
  1
ARCHTICK
  9
$DIMASO
 70
1
  9
$DIMSHO
 70
1
  9
$DIMPOST
  1

  9
$DIMAPOST
  1

  9
$DIMALT
 70
0
  9
$DIMALTD
 70
3
  9
$DIMALTF
 40
0.03937007874
  9
$DIMLFAC
 40
100.0
  9
$DIMTOFL
 70
1
  9
$DIMTVP
 40
0.0
  9
$DIMTIX
 70
0
  9
$DIMSOXD
 70
0
  9
$DIMSAH
 70
0
  9
$DIMBLK1
  1

  9
$DIMBLK2
  1

  9
$DIMSTYLE
  2
EZDXF
  9
$DIMCLRD
 70
0
  9
$DIMCLRE
 70
0
  9
$DIMCLRT
 70
0
  9
$DIMTFAC
 40
0.5
  9
$DIMGAP
 40
0.1
  9
$DIMJUST
 70
0
  9
$DIMSD1
 70
0
  9
$DIMSD2
 70
0
  9
$DIMTOLJ
 70
0
  9
$DIMTZIN
 70
8
  9
$DIMALTZ
 70
0
  9
$DIMALTTZ
 70
0
  9
$DIMUPT
 70
1
  9
$DIMDEC
 70
2
  9
$DIMTDEC
 70
2
  9
$DIMALTU
 70
2
  9
$DIMALTTD
 70
3
  9
$DIMTXSTY
  7
OpenSansCondensed-Light
  9
$DIMAUNIT
 70
0
  9
$DIMADEC
 70
2
  9
$DIMALTRND
 40
0.0
  9
$DIMAZIN
 70
3
  9
$DIMDSEP
 70
46
  9
$DIMATFIT
 70
3
  9
$DIMFRAC
 70
0
  9
$DIMLDRBLK
  1

  9
$DIMLUNIT
 70
2
  9
$DIMLWD
 70
-2
  9
$DIMLWE
 70
-2
  9
$DIMTMOVE
 70
2
  9
$DIMFXL
 40
1.0
  9
$DIMFXLON
 70
0
  9
$DIMJOGANG
 40
0.785398163397
  9
$DIMTFILL
 70
0
  9
$DIMTFILLCLR
 70
0
  9
$DIMARCSYM
 70
0
  9
$DIMLTYPE
  6

  9
$DIMLTEX1
  6

  9
$DIMLTEX2
  6

  9
$DIMTXTDIRECTION
 70
0
  9
$LUNITS
 70
2
  9
$LUPREC
 70
4
  9
$SKETCHINC
 40
1.0
  9
$FILLETRAD
 40
10.0
  9
$AUNITS
 70
0
  9
$AUPREC
 70
2
  9
$MENU
  1
.
  9
$ELEVATION
 40
0.0
  9
$PELEVATION
 40
0.0
  9
$THICKNESS
 40
0.0
  9
$LIMCHECK
 70
0
  9
$CHAMFERA
 40
0.0
  9
$CHAMFERB
 40
0.0
  9
$CHAMFERC
 40
0.0
  9
$CHAMFERD
 40
0.0
  9
$SKPOLY
 70
0
  9
$TDCREATE
 40
2461307.634907407
  9
$TDUCREATE
 40
2458532.153996898
  9
$TDUPDATE
 40
2461307.634907407
  9
$TDUUPDATE
 40
2458532.1544311
  9
$TDINDWG
 40
0.0
  9
$TDUSRTIMER
 40
0.0
  9
$USRTIMER
 70
1
  9
$ANGBASE
 50
0.0
  9
$ANGDIR
 70
0
  9
$PDMODE
 70
0
  9
$PDSIZE
 40
0.0
  9
$PLINEWID
 40
0.0
  9
$SPLFRAME
 70
0
  9
$SPLINETYPE
 70
6
  9
$SPLINESEGS
 70
8
  9
$HANDSEED
  5
160
  9
$SURFTAB1
 70
6
  9
$SURFTAB2
 70
6
  9
$SURFTYPE
 70
6
  9
$SURFU
 70
6
  9
$SURFV
 70
6
  9
$UCSBASE
  2

  9
$UCSNAME
  2

  9
$UCSORG
 10
0.0
 20
0.0
 30
0.0
  9
$UCSXDIR
 10
1.0
 20
0.0
 30
0.0
  9
$UCSYDIR
 10
0.0
 20
1.0
 30
0.0
  9
$UCSORTHOREF
  2

  9
$UCSORTHOVIEW
 70
0
  9
$UCSORGTOP
 10
0.0
 20
0.0
 30
0.0
  9
$UCSORGBOTTOM
 10
0.0
 20
0.0
 30
0.0
  9
$UCSORGLEFT
 10
0.0
 20
0.0
 30
0.0
  9
$UCSORGRIGHT
 10
0.0
 20
0.0
 30
0.0
  9
$UCSORGFRONT
 10
0.0
 20
0.0
 30
0.0
  9
$UCSORGBACK
 10
0.0
 20
0.0
 30
0.0
  9
$PUCSBASE
  2

  9
$PUCSNAME
  2

  9
$PUCSORG
 10
0.0
 20
0.0
 30
0.0
  9
$PUCSXDIR
 10
1.0
 20
0.0
 30
0.0
  9
$PUCSYDIR
 10
0.0
 20
1.0
 30
0.0
  9
$PUCSORTHOREF
  2

  9
$PUCSORTHOVIEW
 70
0
  9
$PUCSORGTOP
 10
0.0
 20
0.0
 30
0.0
  9
$PUCSORGBOTTOM
 10
0.0
 20
0.0
 30
0.0
  9
$PUCSORGLEFT
 10
0.0
 20
0.0
 30
0.0
  9
$PUCSORGRIGHT
 10
0.0
 20
0.0
 30
0.0
  9
$PUCSORGFRONT
 10
0.0
 20
0.0
 30
0.0
  9
$PUCSORGBACK
 10
0.0
 20
0.0
 30
0.0
  9
$USERI1
 70
0
  9
$USERI2
 70
0
  9
$USERI3
 70
0
  9
$USERI4
 70
0
  9
$USERI5
 70
0
  9
$USERR1
 40
0.0
  9
$USERR2
 40
0.0
  9
$USERR3
 40
0.0
  9
$USERR4
 40
0.0
  9
$USERR5
 40
0.0
  9
$WORLDVIEW
 70
1
  9
$SHADEDGE
 70
3
  9
$SHADEDIF
 70
70
  9
$TILEMODE
 70
1
  9
$MAXACTVP
 70
64
  9
$PINSBASE
 10
0.0
 20
0.0
 30
0.0
  9
$PLIMCHECK
 70
0
  9
$PEXTMIN
 10
1e+20
 20
1e+20
 30
1e+20
  9
$PEXTMAX
 10
-1e+20
 20
-1e+20
 30
-1e+20
  9
$PLIMMIN
 10
0.0
 20
0.0
  9
$PLIMMAX
 10
420.0
 20
297.0
  9
$UNITMODE
 70
0
  9
$VISRETAIN
 70
1
  9
$PLINEGEN
 70
0
  9
$PSLTSCALE
 70
1
  9
$TREEDEPTH
 70
3020
  9
$CMLSTYLE
  2
Standard
  9
$CMLJUST
 70
0
  9
$CMLSCALE
 40
20.0
  9
$PROXYGRAPHICS
 70
1
  9
$MEASUREMENT
 70
1
  9
$CELWEIGHT
370
-1
  9
$ENDCAPS
280
0
  9
$JOINSTYLE
280
0
  9
$LWDISPLAY
290
0
  9
$INSUNITS
 70
4
  9
$HYPERLINKBASE
  1

  9
$STYLESHEET
  1

  9
$XEDIT
290
1
  9
$CEPSNTYPE
380
0
  9
$PSTYLEMODE
290
1
  9
$FINGERPRINTGUID
  2
{096D50AE-75A1-48D3-B601-B2B4BA05FEEF}
  9
$VERSIONGUID
  2
{73466AF6-0FDC-46CB-ABA0-5C91EBEB5876}
  9
$EXTNAMES
290
1
  9
$PSVPSCALE
 40
0.0
  9
$OLESTARTUP
290
0
  9
$SORTENTS
280
127
  9
$INDEXCTL
280
0
  9
$HIDETEXT
280
1
  9
$XCLIPFRAME
280
1
  9
$HALOGAP
280
0
  9
$OBSCOLOR
 70
257
  9
$OBSLTYPE
280
0
  9
$INTERSECTIONDISPLAY
280
0
  9
$INTERSECTIONCOLOR
 70
257
  9
$DIMASSOC
280
2
  9
$PROJECTNAME
  1

  9
$CAMERADISPLAY
290
0
  9
$LENSLENGTH
 40
50.0
  9
$CAMERAHEIGHT
 40
0.0
  9
$STEPSPERSEC
 40
24.0
  9
$STEPSIZE
 40
100.0
  9
$3DDWFPREC
 40
2.0
  9
$PSOLWIDTH
 40
0.005
  9
$PSOLHEIGHT
 40
0.08
  9
$LOFTANG1
 40
1.570796326795
  9
$LOFTANG2
 40
1.570796326795
  9
$LOFTMAG1
 40
0.0
  9
$LOFTMAG2
 40
0.0
  9
$LOFTPARAM
 70
7
  9
$LOFTNORMALS
280
1
  9
$LATITUDE
 40
37.795
  9
$LONGITUDE
 40
-122.394
  9
$NORTHDIRECTION
 40
0.0
  9
$TIMEZONE
 70
-8000
  9
$LIGHTGLYPHDISPLAY
280
1
  9
$TILEMODELIGHTSYNCH
280
1
  9
$CMATERIAL
347
20
  9
$SOLIDHIST
280
0
  9
$SHOWHIST
280
1
  9
$DWFFRAME
280
2
  9
$DGNFRAME
280
2
  9
$REALWORLDSCALE
290
1
  9
$INTERFERECOLOR
 62
256
  9
$CSHADOW
280
0
  9
$SHADOWPLANELOCATION
 40
0.0
  0
ENDSEC
  0
SECTION
  2
CLASSES
  0
CLASS
  1
ACDBDICTIONARYWDFLT
  2
AcDbDictionaryWithDefault
  3
ObjectDBX Classes
 90
0
 91
0
280
0
281
0
  0
CLASS
  1
SUN
  2
AcDbSun
  3
SCENEOE
 90
1153
 91
0
280
0
281
0
  0
CLASS
  1
VISUALSTYLE
  2
AcDbVisualStyle
  3
ObjectDBX Classes
 90
4095
 91
0
280
0
281
0
  0
CLASS
  1
MATERIAL
  2
AcDbMaterial
  3
ObjectDBX Classes
 90
1153
 91
0
280
0
281
0
  0
CLASS
  1
SCALE
  2
AcDbScale
  3
ObjectDBX Classes
 90
1153
 91
0
280
0
281
0
  0
CLASS
  1
TABLESTYLE
  2
AcDbTableStyle
  3
ObjectDBX Classes
 90
4095
 91
0
280
0
281
0
  0
CLASS
  1
MLEADERSTYLE
  2
AcDbMLeaderStyle
  3
ACDB_MLEADERSTYLE_CLASS
 90
4095
 91
0
280
0
281
0
  0
CLASS
  1
DICTIONARYVAR
  2
AcDbDictionaryVar
  3
ObjectDBX Classes
 90
0
 91
0
280
0
281
0
  0
CLASS
  1
CELLSTYLEMAP
  2
AcDbCellStyleMap
  3
ObjectDBX Classes
 90
1152
 91
0
280
0
281
0
  0
CLASS
  1
MENTALRAYRENDERSETTINGS
  2
AcDbMentalRayRenderSettings
  3
SCENEOE
 90
1024
 91
0
280
0
281
0
  0
CLASS
  1
ACDBDETAILVIEWSTYLE
  2
AcDbDetailViewStyle
  3
ObjectDBX Classes
 90
1025
 91
0
280
0
281
0
  0
CLASS
  1
ACDBSECTIONVIEWSTYLE
  2
AcDbSectionViewStyle
  3
ObjectDBX Classes
 90
1025
 91
0
280
0
281
0
  0
CLASS
  1
RASTERVARIABLES
  2
AcDbRasterVariables
  3
ISM
 90
0
 91
0
280
0
281
0
  0
CLASS
  1
LAYOUT
  2
AcDbLayout
  3
ObjectDBX Classes
 90
0
 91
0
280
0
281
0
  0
CLASS
  1
ACDBPLACEHOLDER
  2
AcDbPlaceHolder
  3
ObjectDBX Classes
 90
0
 91
0
280
0
281
0
  0
ENDSEC
  0
SECTION
  2
TABLES
  0
TABLE
  2
VPORT
  5
8
330
0
100
AcDbSymbolTable
 70
1
  0
VPORT
  5
23
330
8
100
AcDbSymbolTableRecord
100
AcDbViewportTableRecord
  2
*Active
 70
0
 10
0.0
 20
0.0
 11
1.0
 21
1.0
 12
0.0
 22
0.0
 13
0.0
 23
0.0
 14
0.5
 24
0.5
 15
0.5
 25
0.5
 16
0.0
 26
0.0
 36
1.0
 17
0.0
 27
0.0
 37
0.0
 40
1000.0
 41
1.34
 42
50.0
 43
0.0
 44
0.0
 50
0.0
 51
0.0
 71
0
 72
1000
 73
1
 74
3
 75
0
 76
0
 77
0
 78
0
281
0
 65
0
146
0.0
  0
ENDTAB
  0
TABLE
  2
LTYPE
  5
2
330
0
100
AcDbSymbolTable
 70
21
  0
LTYPE
  5
24
330
2
100
AcDbSymbolTableRecord
100
AcDbLinetypeTableRecord
  2
ByBlock
 70
0
  3

 72
65
 73
0
 40
0.0
  0
LTYPE
  5
25
330
2
100
AcDbSymbolTableRecord
100
AcDbLinetypeTableRecord
  2
ByLayer
 70
0
  3

 72
65
 73
0
 40
0.0
  0
LTYPE
  5
26
330
2
100
AcDbSymbolTableRecord
100
AcDbLinetypeTableRecord
  2
Continuous
 70
0
  3

 72
65
 73
0
 40
0.0
  0
LTYPE
  5
2F
330
2
100
AcDbSymbolTableRecord
100
AcDbLinetypeTableRecord
  2
CENTER
 70
0
  3
Center ____ _ ____ _ ____ _ ____ _ ____ _ ____
 72
65
 73
4
 40
5.08
 49
3.175
 74
0
 49
-0.635
 74
0
 49
0.635
 74
0
 49
-0.635
 74
0
  0
LTYPE
  5
30
330
2
100
AcDbSymbolTableRecord
100
AcDbLinetypeTableRecord
  2
CENTERX2
 70
0
  3
Center (2x) ________  __  ________  __  ________
 72
65
 73
4
 40
8.89
 49
6.35
 74
0
 49
-0.635
 74
0
 49
1.27
 74
0
 49
-0.635
 74
0
  0
LTYPE
  5
31
330
2
100
AcDbSymbolTableRecord
100
AcDbLinetypeTableRecord
  2
CENTER2
 70
0
  3
Center (.5x) ____ _ ____ _ ____ _ ____ _ ____
 72
65
 73
4
 40
2.54
 49
1.587
 74
0
 49
-0.318
 74
0
 49
0.318
 74
0
 49
-0.318
 74
0
  0
LTYPE
  5
32
330
2
100
AcDbSymbolTableRecord
100
AcDbLinetypeTableRecord
  2
DASHED
 70
0
  3
Dashed __ __ __ __ __ __ __ __ __ __ __ __ __ _
 72
65
 73
2
 40
1.524
 49
1.27
 74
0
 49
-0.254
 74
0
  0
LTYPE
  5
33
330
2
100
AcDbSymbolTableRecord
100
AcDbLinetypeTableRecord
  2
DASHEDX2
 70
0
  3
Dashed (2x) ____  ____  ____  ____  ____  ____
 72
65
 73
2
 40
3.048
 49
2.54
 74
0
 49
-0.508
 74
0
  0
LTYPE
  5
34
330
2
100
AcDbSymbolTableRecord
100
AcDbLinetypeTableRecord
  2
DASHED2
 70
0
  3
Dashed (.5x) _ _ _ _ _ _ _ _ _ _ _ _ _ _
 72
65
 73
2
 40
0.762
 49
0.635
 74
0
 49
-0.127
 74
0
  0
LTYPE
  5
35
330
2
100
AcDbSymbolTableRecord
100
AcDbLinetypeTableRecord
  2
PHANTOM
 70
0
  3
Phantom ______  __  __  ______  __  __  ______
 72
65
 73
6
 40
6.35
 49
3.175
 74
0
 49
-0.635
 74
0
 49
0.635
 74
0
 49
-0.635
 74
0
 49
0.635
 74
0
 49
-0.635
 74
0
  0
LTYPE
  5
36
330
2
100
AcDbSymbolTableRecord
100
AcDbLinetypeTableRecord
  2
PHANTOMX2
 70
0
  3
Phantom (2x)____________    ____    ____    ____________
 72
65
 73
6
 40
10.795
 49
6.35
 74
0
 49
-0.635
 74
0
 49
1.27
 74
0
 49
-0.635
 74
0
 49
1.27
 74
0
 49
-0.635
 74
0
  0
LTYPE
  5
37
330
2
100
AcDbSymbolTableRecord
100
AcDbLinetypeTableRecord
  2
PHANTOM2
 70
0
  3
Phantom (.5x) ___ _ _ ___ _ _ ___ _ _ ___ _ _ ___
 72
65
 73
6
 40
3.175
 49
1.587
 74
0
 49
-0.318
 74
0
 49
0.318
 74
0
 49
-0.318
 74
0
 49
0.318
 74
0
 49
-0.318
 74
0
  0
LTYPE
  5
38
330
2
100
AcDbSymbolTableRecord
100
AcDbLinetypeTableRecord
  2
DASHDOT
 70
0
  3
Dash dot __ . __ . __ . __ . __ . __ . __ . __
 72
65
 73
4
 40
3.556
 49
2.54
 74
0
 49
-0.508
 74
0
 49
0.0
 74
0
 49
-0.508
 74
0
  0
LTYPE
  5
39
330
2
100
AcDbSymbolTableRecord
100
AcDbLinetypeTableRecord
  2
DASHDOTX2
 70
0
  3
Dash dot (2x) ____  .  ____  .  ____  .  ____
 72
65
 73
4
 40
6.096
 49
5.08
 74
0
 49
-0.508
 74
0
 49
0.0
 74
0
 49
-0.508
 74
0
  0
LTYPE
  5
3A
330
2
100
AcDbSymbolTableRecord
100
AcDbLinetypeTableRecord
  2
DASHDOT2
 70
0
  3
Dash dot (.5x) _ . _ . _ . _ . _ . _ . _ . _
 72
65
 73
4
 40
1.778
 49
1.27
 74
0
 49
-0.254
 74
0
 49
0.0
 74
0
 49
-0.254
 74
0
  0
LTYPE
  5
3B
330
2
100
AcDbSymbolTableRecord
100
AcDbLinetypeTableRecord
  2
DOT
 70
0
  3
Dot .  .  .  .  .  .  .  .  .  .  .  .  .  .  .  .
 72
65
 73
2
 40
0.508
 49
0.0
 74
0
 49
-0.508
 74
0
  0
LTYPE
  5
3C
330
2
100
AcDbSymbolTableRecord
100
AcDbLinetypeTableRecord
  2
DOTX2
 70
0
  3
Dot (2x) .    .    .    .    .    .    .    . 
 72
65
 73
2
 40
1.016
 49
0.0
 74
0
 49
-1.016
 74
0
  0
LTYPE
  5
3D
330
2
100
AcDbSymbolTableRecord
100
AcDbLinetypeTableRecord
  2
DOT2
 70
0
  3
Dot (.5) . . . . . . . . . . . . . . . . . . . 
 72
65
 73
2
 40
0.254
 49
0.0
 74
0
 49
-0.254
 74
0
  0
LTYPE
  5
3E
330
2
100
AcDbSymbolTableRecord
100
AcDbLinetypeTableRecord
  2
DIVIDE
 70
0
  3
Divide __ . . __ . . __ . . __ . . __ . . __
 72
65
 73
6
 40
4.064
 49
2.54
 74
0
 49
-0.508
 74
0
 49
0.0
 74
0
 49
-0.508
 74
0
 49
0.0
 74
0
 49
-0.508
 74
0
  0
LTYPE
  5
3F
330
2
100
AcDbSymbolTableRecord
100
AcDbLinetypeTableRecord
  2
DIVIDEX2
 70
0
  3
Divide (2x) ____  . .  ____  . .  ____  . .  ____
 72
65
 73
6
 40
6.604
 49
5.08
 74
0
 49
-0.508
 74
0
 49
0.0
 74
0
 49
-0.508
 74
0
 49
0.0
 74
0
 49
-0.508
 74
0
  0
LTYPE
  5
40
330
2
100
AcDbSymbolTableRecord
100
AcDbLinetypeTableRecord
  2
DIVIDE2
 70
0
  3
Divide(.5x) _ . _ . _ . _ . _ . _ . _ . _
 72
65
 73
6
 40
2.032
 49
1.27
 74
0
 49
-0.254
 74
0
 49
0.0
 74
0
 49
-0.254
 74
0
 49
0.0
 74
0
 49
-0.254
 74
0
  0
ENDTAB
  0
TABLE
  2
LAYER
  5
1
330
0
100
AcDbSymbolTable
 70
23
  0
LAYER
  5
27
330
1
100
AcDbSymbolTableRecord
100
AcDbLayerTableRecord
  2
0
 70
0
 62
7
  6
Continuous
370
-3
390
13
347
21
  0
LAYER
  5
28
330
1
100
AcDbSymbolTableRecord
100
AcDbLayerTableRecord
  2
Defpoints
 70
0
 62
7
  6
Continuous
290
0
370
-3
390
13
347
21
  0
LAYER
  5
8A
330
1
100
AcDbSymbolTableRecord
100
AcDbLayerTableRecord
  2
00_РАМКА
 70
0
 62
7
  6
CONTINUOUS
370
-3
390
13
347
21
  0
LAYER
  5
8B
330
1
100
AcDbSymbolTableRecord
100
AcDbLayerTableRecord
  2
01_ОБШИВКА
 70
0
 62
7
  6
CONTINUOUS
370
-3
390
13
347
21
  0
LAYER
  5
8C
330
1
100
AcDbSymbolTableRecord
100
AcDbLayerTableRecord
  2
02_ПАЛУБЫ
 70
0
 62
4
  6
CONTINUOUS
370
-3
390
13
347
21
  0
LAYER
  5
8D
330
1
100
AcDbSymbolTableRecord
100
AcDbLayerTableRecord
  2
03_ПЕРЕБОРКИ
 70
0
 62
1
  6
CONTINUOUS
370
-3
390
13
347
21
  0
LAYER
  5
8E
330
1
100
AcDbSymbolTableRecord
100
AcDbLayerTableRecord
  2
04_ЦИСТЕРНЫ
 70
0
 62
3
  6
CONTINUOUS
370
-3
390
13
347
21
  0
LAYER
  5
8F
330
1
100
AcDbSymbolTableRecord
100
AcDbLayerTableRecord
  2
05_ОБОРУДОВАНИЕ
 70
0
 62
5
  6
CONTINUOUS
370
-3
390
13
347
21
  0
LAYER
  5
90
330
1
100
AcDbSymbolTableRecord
100
AcDbLayerTableRecord
  2
06_ПОМЕЩЕНИЯ
 70
0
 62
8
  6
CONTINUOUS
370
-3
390
13
347
21
  0
LAYER
  5
91
330
1
100
AcDbSymbolTableRecord
100
AcDbLayerTableRecord
  2
07_ОСИ
 70
0
 62
2
  6
CENTER
370
-3
390
13
347
21
  0
LAYER
  5
92
330
1
100
AcDbSymbolTableRecord
100
AcDbLayerTableRecord
  2
08_ТЕКСТ
 70
0
 62
7
  6
CONTINUOUS
370
-3
390
13
347
21
  0
LAYER
  5
93
330
1
100
AcDbSymbolTableRecord
100
AcDbLayerTableRecord
  2
09_РАЗМЕРЫ
 70
0
 62
6
  6
CONTINUOUS
370
-3
390
13
347
21
  0
LAYER
  5
94
330
1
100
AcDbSymbolTableRecord
100
AcDbLayerTableRecord
  2
10_НАБОР
 70
0
 62
9
  6
CONTINUOUS
370
-3
390
13
347
21
  0
LAYER
  5
95
330
1
100
AcDbSymbolTableRecord
100
AcDbLayerTableRecord
  2
11_КАЮТЫ
 70
0
 62
30
  6
CONTINUOUS
370
-3
390
13
347
21
  0
LAYER
  5
96
330
1
100
AcDbSymbolTableRecord
100
AcDbLayerTableRecord
  2
12_ТРАПЫ_ЛИФТЫ
 70
0
 62
6
  6
CONTINUOUS
370
-3
390
13
347
21
  0
LAYER
  5
97
330
1
100
AcDbSymbolTableRecord
100
AcDbLayerTableRecord
  2
13_КОЛЁСА
 70
0
 62
1
  6
CONTINUOUS
370
-3
390
13
347
21
  0
LAYER
  5
98
330
1
100
AcDbSymbolTableRecord
100
AcDbLayerTableRecord
  2
14_МЕБЕЛЬ
 70
0
 62
252
  6
CONTINUOUS
370
-3
390
13
347
21
  0
LAYER
  5
9A
330
1
100
AcDbSymbolTableRecord
100
AcDbLayerTableRecord
  2
20_ГРАФИК
 70
0
 62
8
  6
CONTINUOUS
370
-3
390
13
347
21
  0
LAYER
  5
9B
330
1
100
AcDbSymbolTableRecord
100
AcDbLayerTableRecord
  2
21_СЕТКА
 70
0
 62
9
  6
CONTINUOUS
370
-3
390
13
347
21
  0
LAYER
  5
9C
330
1
100
AcDbSymbolTableRecord
100
AcDbLayerTableRecord
  2
22_КРИВАЯ_А
 70
0
 62
5
  6
CONTINUOUS
370
-3
390
13
347
21
  0
LAYER
  5
9D
330
1
100
AcDbSymbolTableRecord
100
AcDbLayerTableRecord
  2
23_КРИВАЯ_Б
 70
0
 62
1
  6
CONTINUOUS
370
-3
390
13
347
21
  0
LAYER
  5
9E
330
1
100
AcDbSymbolTableRecord
100
AcDbLayerTableRecord
  2
24_КРИВАЯ_В
 70
0
 62
3
  6
CONTINUOUS
370
-3
390
13
347
21
  0
LAYER
  5
9F
330
1
100
AcDbSymbolTableRecord
100
AcDbLayerTableRecord
  2
25_КРИВАЯ_Г
 70
0
 62
30
  6
CONTINUOUS
370
-3
390
13
347
21
  0
ENDTAB
  0
TABLE
  2
STYLE
  5
5
330
0
100
AcDbSymbolTable
 70
27
  0
STYLE
  5
29
330
5
100
AcDbSymbolTableRecord
100
AcDbTextStyleTableRecord
  2
Standard
 70
0
 40
0.0
 41
1.0
 50
0.0
 71
0
 42
2.5
  3
txt
  4

  0
STYLE
  5
41
330
5
100
AcDbSymbolTableRecord
100
AcDbTextStyleTableRecord
  2
OpenSans-Light
 70
0
 40
0.0
 41
1.0
 50
0.0
 71
0
 42
2.5
  3
OpenSans-Light.ttf
  4

  0
STYLE
  5
42
330
5
100
AcDbSymbolTableRecord
100
AcDbTextStyleTableRecord
  2
OpenSans-Light-Italic
 70
0
 40
0.0
 41
1.0
 50
0.0
 71
0
 42
2.5
  3
OpenSans-LightItalic.ttf
  4

  0
STYLE
  5
43
330
5
100
AcDbSymbolTableRecord
100
AcDbTextStyleTableRecord
  2
OpenSans
 70
0
 40
0.0
 41
1.0
 50
0.0
 71
0
 42
2.5
  3
OpenSans-Regular.ttf
  4

  0
STYLE
  5
44
330
5
100
AcDbSymbolTableRecord
100
AcDbTextStyleTableRecord
  2
OpenSans-Italic
 70
0
 40
0.0
 41
1.0
 50
0.0
 71
0
 42
2.5
  3
OpenSans-Italic.ttf
  4

  0
STYLE
  5
45
330
5
100
AcDbSymbolTableRecord
100
AcDbTextStyleTableRecord
  2
OpenSans-SemiBold
 70
0
 40
0.0
 41
1.0
 50
0.0
 71
0
 42
2.5
  3
OpenSans-SemiBold.ttf
  4

  0
STYLE
  5
46
330
5
100
AcDbSymbolTableRecord
100
AcDbTextStyleTableRecord
  2
OpenSans-SemiBoldItalic
 70
0
 40
0.0
 41
1.0
 50
0.0
 71
0
 42
2.5
  3
OpenSans-SemiBoldItalic.ttf
  4

  0
STYLE
  5
47
330
5
100
AcDbSymbolTableRecord
100
AcDbTextStyleTableRecord
  2
OpenSans-Bold
 70
0
 40
0.0
 41
1.0
 50
0.0
 71
0
 42
2.5
  3
OpenSans-Bold.ttf
  4

  0
STYLE
  5
48
330
5
100
AcDbSymbolTableRecord
100
AcDbTextStyleTableRecord
  2
OpenSans-BoldItalic
 70
0
 40
0.0
 41
1.0
 50
0.0
 71
0
 42
2.5
  3
OpenSans-BoldItalic.ttf
  4

  0
STYLE
  5
49
330
5
100
AcDbSymbolTableRecord
100
AcDbTextStyleTableRecord
  2
OpenSans-ExtraBold
 70
0
 40
0.0
 41
1.0
 50
0.0
 71
0
 42
2.5
  3
OpenSans-ExtraBold.ttf
  4

  0
STYLE
  5
4A
330
5
100
AcDbSymbolTableRecord
100
AcDbTextStyleTableRecord
  2
OpenSans-ExtraBoldItalic
 70
0
 40
0.0
 41
1.0
 50
0.0
 71
0
 42
2.5
  3
OpenSans-ExtraBoldItalic.ttf
  4

  0
STYLE
  5
4B
330
5
100
AcDbSymbolTableRecord
100
AcDbTextStyleTableRecord
  2
OpenSansCondensed-Bold
 70
0
 40
0.0
 41
1.0
 50
0.0
 71
0
 42
2.5
  3
OpenSansCondensed-Bold.ttf
  4

  0
STYLE
  5
4C
330
5
100
AcDbSymbolTableRecord
100
AcDbTextStyleTableRecord
  2
OpenSansCondensed-Light
 70
0
 40
0.0
 41
1.0
 50
0.0
 71
0
 42
2.5
  3
OpenSansCondensed-Light.ttf
  4

  0
STYLE
  5
4D
330
5
100
AcDbSymbolTableRecord
100
AcDbTextStyleTableRecord
  2
OpenSansCondensed-Italic
 70
0
 40
0.0
 41
1.0
 50
0.0
 71
0
 42
2.5
  3
OpenSansCondensed-LightItalic.ttf
  4

  0
STYLE
  5
4E
330
5
100
AcDbSymbolTableRecord
100
AcDbTextStyleTableRecord
  2
LiberationSans
 70
0
 40
0.0
 41
1.0
 50
0.0
 71
0
 42
2.5
  3
LiberationSans-Regular.ttf
  4

  0
STYLE
  5
4F
330
5
100
AcDbSymbolTableRecord
100
AcDbTextStyleTableRecord
  2
LiberationSans-Bold
 70
0
 40
0.0
 41
1.0
 50
0.0
 71
0
 42
2.5
  3
LiberationSans-Bold.ttf
  4

  0
STYLE
  5
50
330
5
100
AcDbSymbolTableRecord
100
AcDbTextStyleTableRecord
  2
LiberationSans-BoldItalic
 70
0
 40
0.0
 41
1.0
 50
0.0
 71
0
 42
2.5
  3
LiberationSans-BoldItalic.ttf
  4

  0
STYLE
  5
51
330
5
100
AcDbSymbolTableRecord
100
AcDbTextStyleTableRecord
  2
LiberationSans-Italic
 70
0
 40
0.0
 41
1.0
 50
0.0
 71
0
 42
2.5
  3
LiberationSans-Italic.ttf
  4

  0
STYLE
  5
52
330
5
100
AcDbSymbolTableRecord
100
AcDbTextStyleTableRecord
  2
LiberationSerif
 70
0
 40
0.0
 41
1.0
 50
0.0
 71
0
 42
2.5
  3
LiberationSerif-Regular.ttf
  4

  0
STYLE
  5
53
330
5
100
AcDbSymbolTableRecord
100
AcDbTextStyleTableRecord
  2
LiberationSerif-Bold
 70
0
 40
0.0
 41
1.0
 50
0.0
 71
0
 42
2.5
  3
LiberationSerif-Bold.ttf
  4

  0
STYLE
  5
54
330
5
100
AcDbSymbolTableRecord
100
AcDbTextStyleTableRecord
  2
LiberationSerif-BoldItalic
 70
0
 40
0.0
 41
1.0
 50
0.0
 71
0
 42
2.5
  3
LiberationSerif-BoldItalic.ttf
  4

  0
STYLE
  5
55
330
5
100
AcDbSymbolTableRecord
100
AcDbTextStyleTableRecord
  2
LiberationSerif-Italic
 70
0
 40
0.0
 41
1.0
 50
0.0
 71
0
 42
2.5
  3
LiberationSerif-Italic.ttf
  4

  0
STYLE
  5
56
330
5
100
AcDbSymbolTableRecord
100
AcDbTextStyleTableRecord
  2
LiberationMono
 70
0
 40
0.0
 41
1.0
 50
0.0
 71
0
 42
2.5
  3
LiberationMono-Regular.ttf
  4

  0
STYLE
  5
57
330
5
100
AcDbSymbolTableRecord
100
AcDbTextStyleTableRecord
  2
LiberationMono-Bold
 70
0
 40
0.0
 41
1.0
 50
0.0
 71
0
 42
2.5
  3
LiberationMono-Bold.ttf
  4

  0
STYLE
  5
58
330
5
100
AcDbSymbolTableRecord
100
AcDbTextStyleTableRecord
  2
LiberationMono-BoldItalic
 70
0
 40
0.0
 41
1.0
 50
0.0
 71
0
 42
2.5
  3
LiberationMono-BoldItalic.ttf
  4

  0
STYLE
  5
59
330
5
100
AcDbSymbolTableRecord
100
AcDbTextStyleTableRecord
  2
LiberationMono-Italic
 70
0
 40
0.0
 41
1.0
 50
0.0
 71
0
 42
2.5
  3
LiberationMono-Italic.ttf
  4

  0
STYLE
  5
99
330
5
100
AcDbSymbolTableRecord
100
AcDbTextStyleTableRecord
  2
ГОСТ
 70
0
 40
0.0
 41
1.0
 50
0.0
 71
0
 42
2.5
  3
ISOCPEUR.TTF
  4

  0
ENDTAB
  0
TABLE
  2
VIEW
  5
7
330
0
100
AcDbSymbolTable
 70
0
  0
ENDTAB
  0
TABLE
  2
UCS
  5
6
330
0
100
AcDbSymbolTable
 70
0
  0
ENDTAB
  0
TABLE
  2
APPID
  5
3
330
0
100
AcDbSymbolTable
 70
3
  0
APPID
  5
2A
330
3
100
AcDbSymbolTableRecord
100
AcDbRegAppTableRecord
  2
ACAD
 70
0
  0
APPID
  5
15D
330
3
100
AcDbSymbolTableRecord
100
AcDbRegAppTableRecord
  2
HATCHBACKGROUNDCOLOR
 70
0
  0
APPID
  5
15E
330
3
100
AcDbSymbolTableRecord
100
AcDbRegAppTableRecord
  2
EZDXF
 70
0
  0
ENDTAB
  0
TABLE
  2
DIMSTYLE
  5
4
330
0
100
AcDbSymbolTable
 70
12
100
AcDbDimStyleTable
  0
DIMSTYLE
105
2B
330
4
100
AcDbSymbolTableRecord
100
AcDbDimStyleTableRecord
  2
Standard
 70
0
 40
1.0
 41
2.5
 42
0.625
 43
3.75
 44
1.25
 45
0.0
 46
0.0
 47
0.0
 48
0.0
 49
2.5
140
2.5
141
2.5
142
0.0
143
0.03937007874
144
1.0
145
0.0
146
1.0
147
0.625
148
0.0
 69
0
 70
0
 71
0
 72
0
 73
0
 74
0
 75
0
 76
0
 77
1
 78
8
 79
3
170
0
171
3
172
1
173
0
174
0
175
0
176
0
177
0
178
0
179
2
271
2
272
2
273
2
274
3
275
0
276
0
277
2
278
44
279
0
280
0
281
0
282
0
283
0
284
8
285
0
286
0
288
0
289
3
290
0
371
-2
372
-2
  0
DIMSTYLE
105
73
330
4
100
AcDbSymbolTableRecord
100
AcDbDimStyleTableRecord
  2
EZDXF
 70
0
 40
1.0
 41
0.175
 42
0.125
 43
3.75
 44
0.375
 45
0.0
 46
0.0
 47
0.0
 48
0.0
 49
2.5
140
0.25
141
2.5
142
0.0
143
0.03937007874
144
100.0
145
0.0
146
0.5
147
0.1
148
0.0
 69
0
 70
0
 71
0
 72
0
 73
0
 74
0
 75
0
 76
0
 77
1
 78
12
 79
3
170
0
171
3
172
1
173
0
174
0
175
0
176
0
177
0
178
0
179
2
271
2
272
2
273
2
274
3
275
0
276
0
277
2
278
46
279
2
280
0
281
0
282
0
283
0
284
8
285
0
286
0
288
1
289
3
290
0
340
4C
342
74
371
-2
372
-2
  0
DIMSTYLE
105
7C
330
4
100
AcDbSymbolTableRecord
100
AcDbDimStyleTableRecord
  2
EZ_M_100_H25_CM
 70
0
 40
1.0
 41
0.25
 42
0.125
 43
3.75
 44
0.375
 45
0.0
 46
0.0
 47
0.0
 48
0.0
 49
2.5
140
0.25
141
2.5
142
0.125
143
0.03937007874
144
100.0
145
0.0
146
0.5
147
0.1
148
0.0
 69
0
 70
0
 71
0
 72
0
 73
0
 74
0
 75
0
 76
0
 77
1
 78
12
 79
3
170
0
171
3
172
1
173
0
174
0
175
0
176
0
177
0
178
0
179
2
271
2
272
2
273
2
274
3
275
0
276
0
277
2
278
46
279
2
280
0
281
0
282
0
283
0
284
8
285
0
286
0
288
1
289
3
290
0
340
4C
371
-2
372
-2
  0
DIMSTYLE
105
7D
330
4
100
AcDbSymbolTableRecord
100
AcDbDimStyleTableRecord
  2
EZ_M_50_H25_CM
 70
0
 40
1.0
 41
0.125
 42
0.0625
 43
3.75
 44
0.1875
 45
0.0
 46
0.0
 47
0.0
 48
0.0
 49
2.5
140
0.125
141
2.5
142
0.0625
143
0.03937007874
144
100.0
145
0.0
146
0.5
147
0.05
148
0.0
 69
0
 70
0
 71
0
 72
0
 73
0
 74
0
 75
0
 76
0
 77
1
 78
12
 79
3
170
0
171
3
172
1
173
0
174
0
175
0
176
0
177
0
178
0
179
2
271
2
272
2
273
2
274
3
275
0
276
0
277
2
278
46
279
2
280
0
281
0
282
0
283
0
284
8
285
0
286
0
288
1
289
3
290
0
340
4C
371
-2
372
-2
  0
DIMSTYLE
105
7E
330
4
100
AcDbSymbolTableRecord
100
AcDbDimStyleTableRecord
  2
EZ_M_25_H25_CM
 70
0
 40
1.0
 41
0.0625
 42
0.03125
 43
3.75
 44
0.09375
 45
0.0
 46
0.0
 47
0.0
 48
0.0
 49
2.5
140
0.0625
141
2.5
142
0.03125
143
0.03937007874
144
100.0
145
0.0
146
0.5
147
0.025
148
0.0
 69
0
 70
0
 71
0
 72
0
 73
0
 74
0
 75
0
 76
0
 77
1
 78
12
 79
3
170
0
171
3
172
1
173
0
174
0
175
0
176
0
177
0
178
0
179
2
271
2
272
2
273
2
274
3
275
0
276
0
277
2
278
46
279
2
280
0
281
0
282
0
283
0
284
8
285
0
286
0
288
1
289
3
290
0
340
4C
371
-2
372
-2
  0
DIMSTYLE
105
7F
330
4
100
AcDbSymbolTableRecord
100
AcDbDimStyleTableRecord
  2
EZ_M_20_H25_CM
 70
0
 40
1.0
 41
0.05
 42
0.025
 43
3.75
 44
0.07500000000000001
 45
0.0
 46
0.0
 47
0.0
 48
0.0
 49
2.5
140
0.05
141
2.5
142
0.025
143
0.03937007874
144
100.0
145
0.0
146
0.5
147
0.020000000000000004
148
0.0
 69
0
 70
0
 71
0
 72
0
 73
0
 74
0
 75
0
 76
0
 77
1
 78
12
 79
3
170
0
171
3
172
1
173
0
174
0
175
0
176
0
177
0
178
0
179
2
271
2
272
2
273
2
274
3
275
0
276
0
277
2
278
46
279
2
280
0
281
0
282
0
283
0
284
8
285
0
286
0
288
1
289
3
290
0
340
4C
371
-2
372
-2
  0
DIMSTYLE
105
80
330
4
100
AcDbSymbolTableRecord
100
AcDbDimStyleTableRecord
  2
EZ_M_10_H25_CM
 70
0
 40
1.0
 41
0.025
 42
0.0125
 43
3.75
 44
0.037500000000000006
 45
0.0
 46
0.0
 47
0.0
 48
0.0
 49
2.5
140
0.025
141
2.5
142
0.0125
143
0.03937007874
144
100.0
145
0.0
146
0.5
147
0.010000000000000002
148
0.0
 69
0
 70
0
 71
0
 72
0
 73
0
 74
0
 75
0
 76
0
 77
1
 78
12
 79
3
170
0
171
3
172
1
173
0
174
0
175
0
176
0
177
0
178
0
179
2
271
2
272
2
273
2
274
3
275
0
276
0
277
2
278
46
279
2
280
0
281
0
282
0
283
0
284
8
285
0
286
0
288
1
289
3
290
0
340
4C
371
-2
372
-2
  0
DIMSTYLE
105
81
330
4
100
AcDbSymbolTableRecord
100
AcDbDimStyleTableRecord
  2
EZ_M_5_H25_CM
 70
0
 40
1.0
 41
0.0125
 42
0.00625
 43
3.75
 44
0.018750000000000003
 45
0.0
 46
0.0
 47
0.0
 48
0.0
 49
2.5
140
0.0125
141
2.5
142
0.00625
143
0.03937007874
144
100.0
145
0.0
146
0.5
147
0.005000000000000001
148
0.0
 69
0
 70
0
 71
0
 72
0
 73
0
 74
0
 75
0
 76
0
 77
1
 78
12
 79
3
170
0
171
3
172
1
173
0
174
0
175
0
176
0
177
0
178
0
179
2
271
2
272
2
273
2
274
3
275
0
276
0
277
2
278
46
279
2
280
0
281
0
282
0
283
0
284
8
285
0
286
0
288
1
289
3
290
0
340
4C
371
-2
372
-2
  0
DIMSTYLE
105
82
330
4
100
AcDbSymbolTableRecord
100
AcDbDimStyleTableRecord
  2
EZ_M_1_H25_CM
 70
0
 40
1.0
 41
0.0025
 42
0.00125
 43
3.75
 44
0.00375
 45
0.0
 46
0.0
 47
0.0
 48
0.0
 49
2.5
140
0.0025
141
2.5
142
0.00125
143
0.03937007874
144
100.0
145
0.0
146
0.5
147
0.001
148
0.0
 69
0
 70
0
 71
0
 72
0
 73
0
 74
0
 75
0
 76
0
 77
1
 78
12
 79
3
170
0
171
3
172
1
173
0
174
0
175
0
176
0
177
0
178
0
179
2
271
2
272
2
273
2
274
3
275
0
276
0
277
2
278
46
279
2
280
0
281
0
282
0
283
0
284
8
285
0
286
0
288
1
289
3
290
0
340
4C
371
-2
372
-2
  0
DIMSTYLE
105
83
330
4
100
AcDbSymbolTableRecord
100
AcDbDimStyleTableRecord
  2
EZ_RADIUS
 70
0
 40
1.0
 41
0.25
 42
0.125
 43
3.75
 44
0.375
 45
0.0
 46
0.0
 47
0.0
 48
0.0
 49
2.5
140
0.25
141
0.0
142
0.0
143
0.03937007874
144
100.0
145
0.0
146
0.5
147
0.1
148
0.0
 69
0
 70
0
 71
0
 72
0
 73
0
 74
0
 75
0
 76
0
 77
1
 78
12
 79
3
170
0
171
3
172
0
173
0
174
0
175
0
176
0
177
0
178
0
179
2
271
2
272
2
273
2
274
3
275
0
276
0
277
2
278
46
279
1
280
0
281
0
282
0
283
0
284
8
285
0
286
0
288
1
289
3
290
0
340
4C
342
84
371
-2
372
-2
  0
DIMSTYLE
105
88
330
4
100
AcDbSymbolTableRecord
100
AcDbDimStyleTableRecord
  2
EZ_RADIUS_INSIDE
 70
0
 40
1.0
 41
0.25
 42
0.125
 43
3.75
 44
0.375
 45
0.0
 46
0.0
 47
0.0
 48
0.0
 49
2.5
140
0.25
141
0.0
142
0.0
143
0.03937007874
144
100.0
145
0.0
146
0.5
147
0.1
148
0.0
 69
0
 70
0
 71
0
 72
0
 73
0
 74
0
 75
0
 76
0
 77
0
 78
12
 79
3
170
0
171
3
172
0
173
0
174
1
175
0
176
0
177
0
178
0
179
2
271
2
272
2
273
2
274
3
275
0
276
0
277
2
278
46
279
0
280
0
281
0
282
0
283
0
284
8
285
0
286
0
288
1
289
0
290
0
340
4C
342
84
371
-2
372
-2
  0
DIMSTYLE
105
89
330
4
100
AcDbSymbolTableRecord
100
AcDbDimStyleTableRecord
  2
EZ_CURVED
 70
0
 40
1.0
 41
0.25
 42
0.125
 43
3.75
 44
0.375
 45
0.0
 46
0.0
 47
0.0
 48
0.0
 49
2.5
140
0.25
141
2.5
142
0.0
143
0.03937007874
144
100.0
145
0.0
146
0.5
147
0.1
148
0.0
 69
0
 70
0
 71
0
 72
0
 73
0
 74
0
 75
0
 76
0
 77
1
 78
12
 79
2
 90
2
170
0
171
3
172
1
173
0
174
0
175
0
176
0
177
0
178
0
179
2
271
2
272
2
273
2
274
3
275
0
276
0
277
2
278
46
279
2
280
0
281
0
282
0
283
0
284
8
285
0
286
0
288
1
289
3
290
0
340
4C
371
-2
372
-2
  0
ENDTAB
  0
TABLE
  2
BLOCK_RECORD
  5
9
330
0
100
AcDbSymbolTable
 70
5
  0
BLOCK_RECORD
  5
17
330
9
100
AcDbSymbolTableRecord
100
AcDbBlockTableRecord
  2
*Model_Space
340
1A
 70
0
280
1
281
0
  0
BLOCK_RECORD
  5
1B
330
9
100
AcDbSymbolTableRecord
100
AcDbBlockTableRecord
  2
*Paper_Space
340
1E
 70
0
280
1
281
0
  0
BLOCK_RECORD
  5
74
330
9
100
AcDbSymbolTableRecord
100
AcDbBlockTableRecord
  2
_ARCHTICK
340
0
 70
0
280
1
281
0
  0
BLOCK_RECORD
  5
78
330
9
100
AcDbSymbolTableRecord
100
AcDbBlockTableRecord
  2
_CLOSEDFILLED
340
0
 70
0
280
1
281
0
  0
BLOCK_RECORD
  5
84
330
9
100
AcDbSymbolTableRecord
100
AcDbBlockTableRecord
  2
_CLOSEDBLANK
340
0
 70
0
280
1
281
0
  0
ENDTAB
  0
ENDSEC
  0
SECTION
  2
BLOCKS
  0
BLOCK
  5
18
330
17
100
AcDbEntity
  8
0
100
AcDbBlockBegin
  2
*Model_Space
 70
0
 10
0.0
 20
0.0
 30
0.0
  3
*Model_Space
  1

  0
ENDBLK
  5
19
330
17
100
AcDbEntity
  8
0
100
AcDbBlockEnd
  0
BLOCK
  5
1C
330
1B
100
AcDbEntity
  8
0
100
AcDbBlockBegin
  2
*Paper_Space
 70
0
 10
0.0
 20
0.0
 30
0.0
  3
*Paper_Space
  1

  0
ENDBLK
  5
1D
330
1B
100
AcDbEntity
  8
0
100
AcDbBlockEnd
  0
BLOCK
  5
75
330
74
100
AcDbEntity
  8
0
100
AcDbBlockBegin
  2
_ARCHTICK
 70
0
 10
0.0
 20
0.0
 30
0.0
  3
_ARCHTICK
  1

  0
LWPOLYLINE
  5
77
330
74
100
AcDbEntity
  8
0
  6
BYBLOCK
 62
0
100
AcDbPolyline
 90
2
 70
0
 43
0.15
 10
-0.5
 20
-0.5
 10
0.5
 20
0.5
  0
ENDBLK
  5
76
330
74
100
AcDbEntity
  8
0
100
AcDbBlockEnd
  0
BLOCK
  5
79
330
78
100
AcDbEntity
  8
0
100
AcDbBlockBegin
  2
_CLOSEDFILLED
 70
0
 10
0.0
 20
0.0
 30
0.0
  3
_CLOSEDFILLED
  1

  0
SOLID
  5
7B
330
78
100
AcDbEntity
  8
0
  6
BYBLOCK
 62
0
100
AcDbTrace
 10
-1.0
 20
0.16439898372402537
 30
0.0
 11
0.0
 21
0.0
 31
0.0
 12
-1.0
 22
-0.16439898372402537
 32
0.0
 13
-1.0
 23
-0.16439898372402537
 33
0.0
  0
ENDBLK
  5
7A
330
78
100
AcDbEntity
  8
0
100
AcDbBlockEnd
  0
BLOCK
  5
85
330
84
100
AcDbEntity
  8
0
100
AcDbBlockBegin
  2
_CLOSEDBLANK
 70
0
 10
0.0
 20
0.0
 30
0.0
  3
_CLOSEDBLANK
  1

  0
LWPOLYLINE
  5
87
330
84
100
AcDbEntity
  8
0
  6
BYBLOCK
 62
0
100
AcDbPolyline
 90
3
 70
1
 10
-1.0
 20
0.16439898372402537
 10
0.0
 20
0.0
 10
-1.0
 20
-0.16439898372402537
  0
ENDBLK
  5
86
330
84
100
AcDbEntity
  8
0
100
AcDbBlockEnd
  0
ENDSEC
  0
SECTION
  2
ENTITIES
  0
LWPOLYLINE
  5
A0
330
17
100
AcDbEntity
  8
00_РАМКА
100
AcDbPolyline
 90
4
 70
1
 10
0.0
 20
0.0
 10
841.0
 20
0.0
 10
841.0
 20
594.0
 10
0.0
 20
594.0
  0
LWPOLYLINE
  5
A1
330
17
100
AcDbEntity
  8
00_РАМКА
100
AcDbPolyline
 90
4
 70
1
 10
20.0
 20
5.0
 10
836.0
 20
5.0
 10
836.0
 20
589.0
 10
20.0
 20
589.0
  0
LWPOLYLINE
  5
A2
330
17
100
AcDbEntity
  8
00_РАМКА
100
AcDbPolyline
 90
4
 70
1
 10
651.0
 20
5.0
 10
836.0
 20
5.0
 10
836.0
 20
60.0
 10
651.0
 20
60.0
  0
LINE
  5
A3
330
17
100
AcDbEntity
  8
00_РАМКА
100
AcDbLine
 10
651.0
 20
17.0
 30
0.0
 11
836.0
 21
17.0
 31
0.0
  0
LINE
  5
A4
330
17
100
AcDbEntity
  8
00_РАМКА
100
AcDbLine
 10
651.0
 20
29.0
 30
0.0
 11
836.0
 21
29.0
 31
0.0
  0
LINE
  5
A5
330
17
100
AcDbEntity
  8
00_РАМКА
100
AcDbLine
 10
651.0
 20
41.0
 30
0.0
 11
836.0
 21
41.0
 31
0.0
  0
LINE
  5
A6
330
17
100
AcDbEntity
  8
00_РАМКА
100
AcDbLine
 10
771.0
 20
5.0
 30
0.0
 11
771.0
 21
41.0
 31
0.0
  0
TEXT
  5
A7
330
17
100
AcDbEntity
  8
08_ТЕКСТ
100
AcDbText
 10
654.0
 20
50.5
 30
0.0
 40
5.0
  1
Кривые элементов теоретического чертежа
  7
ГОСТ
 11
654.0
 21
50.5
 31
0.0
100
AcDbText
 73
2
  0
TEXT
  5
A8
330
17
100
AcDbEntity
  8
08_ТЕКСТ
100
AcDbText
 10
654.0
 20
35.0
 30
0.0
 40
2.5
  1
Волжский Горизонт · осадка 0,6…3,0 м · T = 1,26 м
  7
ГОСТ
 11
654.0
 21
35.0
 31
0.0
100
AcDbText
 73
2
  0
TEXT
  5
A9
330
17
100
AcDbEntity
  8
08_ТЕКСТ
100
AcDbText
 10
654.0
 20
23.0
 30
0.0
 40
4.5
  1
ВГ-2026 РТ-02 кривые элементов
  7
ГОСТ
 11
654.0
 21
23.0
 31
0.0
100
AcDbText
 73
2
  0
TEXT
  5
AA
330
17
100
AcDbEntity
  8
08_ТЕКСТ
100
AcDbText
 10
774.0
 20
23.0
 30
0.0
 40
3.5
  1
Масштаб 1 : 1
  7
ГОСТ
 11
774.0
 21
23.0
 31
0.0
100
AcDbText
 73
2
  0
TEXT
  5
AB
330
17
100
AcDbEntity
  8
08_ТЕКСТ
100
AcDbText
 10
654.0
 20
11.0
 30
0.0
 40
2.5
  1
-
  7
ГОСТ
 11
654.0
 21
11.0
 31
0.0
100
AcDbText
 73
2
  0
TEXT
  5
AC
330
17
100
AcDbEntity
  8
08_ТЕКСТ
100
AcDbText
 10
774.0
 20
11.0
 30
0.0
 40
3.0
  1
Формат A1
  7
ГОСТ
 11
774.0
 21
11.0
 31
0.0
100
AcDbText
 73
2
  0
TEXT
  5
AD
330
17
100
AcDbEntity
  8
08_ТЕКСТ
100
AcDbText
 10
654.0
 20
64.0
 30
0.0
 40
3.0
  1
УЖЦ ОСК 2026 · «Волжский Горизонт» · ПБ «Без границ»
  7
ГОСТ
 11
654.0
 21
64.0
 31
0.0
100
AcDbText
 73
2
  0
TEXT
  5
AE
330
17
100
AcDbEntity
  8
08_ТЕКСТ
100
AcDbText
 10
654.0
 20
91.0
 30
0.0
 40
2.5
  1
1. Гидростатика - интегрированием по обводам с нишами колёс, шаг по длине 0,5 м.
  7
ГОСТ
 11
654.0
 21
91.0
 31
0.0
100
AcDbText
 73
2
  0
TEXT
  5
AF
330
17
100
AcDbEntity
  8
08_ТЕКСТ
100
AcDbText
 10
654.0
 20
86.0
 30
0.0
 40
2.5
  1
2. Штриховая горизонталь - осадка в полном грузу 1,26 м по нагрузке масс.
  7
ГОСТ
 11
654.0
 21
86.0
 31
0.0
100
AcDbText
 73
2
  0
TEXT
  5
B0
330
17
100
AcDbEntity
  8
08_ТЕКСТ
100
AcDbText
 10
654.0
 20
81.0
 30
0.0
 40
2.5
  1
3. Обозначения. V - объёмное водоизмещение, Aw - площадь ватерлинии, xc, xf - абсциссы ЦВ и ЦТ ВЛ,
  7
ГОСТ
 11
654.0
 21
81.0
 31
0.0
100
AcDbText
 73
2
  0
TEXT
  5
B1
330
17
100
AcDbEntity
  8
08_ТЕКСТ
100
AcDbText
 10
654.0
 20
76.0
 30
0.0
 40
2.5
  1
4. zc - аппликата ЦВ, zm - поперечный метацентр, r - метацентрический радиус. Delta, alpha, beta -
  7
ГОСТ
 11
654.0
 21
76.0
 31
0.0
100
AcDbText
 73
2
  0
TEXT
  5
B2
330
17
100
AcDbEntity
  8
08_ТЕКСТ
100
AcDbText
 10
654.0
 20
71.0
 30
0.0
 40
2.5
  1
    коэффициенты полноты.
  7
ГОСТ
 11
654.0
 21
71.0
 31
0.0
100
AcDbText
 73
2
  0
TEXT
  5
B3
330
17
100
AcDbEntity
  8
08_ТЕКСТ
100
AcDbText
 10
654.0
 20
97.5
 30
0.0
 40
3.5
  1
Технические требования
  7
ГОСТ
 11
654.0
 21
97.5
 31
0.0
100
AcDbText
 73
2
  0
TEXT
  5
B4
330
17
100
AcDbEntity
  8
08_ТЕКСТ
100
AcDbText
 10
30.0
 20
580.0
 30
0.0
 40
5.0
  1
Кривые элементов теоретического чертежа - по осадке
  7
ГОСТ
 11
30.0
 21
580.0
 31
0.0
100
AcDbText
 73
2
  0
LWPOLYLINE
  5
B5
330
17
100
AcDbEntity
  8
20_ГРАФИК
100
AcDbPolyline
 90
4
 70
1
 10
40.0
 20
120.0
 10
200.0
 20
120.0
 10
200.0
 20
450.0
 10
40.0
 20
450.0
  0
LINE
  5
B6
330
17
100
AcDbEntity
  8
21_СЕТКА
100
AcDbLine
 10
70.45882030675727
 20
120.0
 30
0.0
 11
70.45882030675727
 21
450.0
 31
0.0
  0
LINE
  5
B7
330
17
100
AcDbEntity
  8
20_ГРАФИК
100
AcDbLine
 10
70.45882030675727
 20
120.0
 30
0.0
 11
70.45882030675727
 21
118.5
 31
0.0
  0
TEXT
  5
B8
330
17
100
AcDbEntity
  8
08_ТЕКСТ
100
AcDbText
 10
70.45882030675727
 20
116.0
 30
0.0
 40
2.5
  1
2000
  7
ГОСТ
 72
1
 11
70.45882030675727
 21
116.0
 31
0.0
100
AcDbText
 73
3
  0
LINE
  5
B9
330
17
100
AcDbEntity
  8
21_СЕТКА
100
AcDbLine
 10
102.89726472661908
 20
120.0
 30
0.0
 11
102.89726472661908
 21
450.0
 31
0.0
  0
LINE
  5
BA
330
17
100
AcDbEntity
  8
20_ГРАФИК
100
AcDbLine
 10
102.89726472661908
 20
120.0
 30
0.0
 11
102.89726472661908
 21
118.5
 31
0.0
  0
TEXT
  5
BB
330
17
100
AcDbEntity
  8
08_ТЕКСТ
100
AcDbText
 10
102.89726472661908
 20
116.0
 30
0.0
 40
2.5
  1
3000
  7
ГОСТ
 72
1
 11
102.89726472661908
 21
116.0
 31
0.0
100
AcDbText
 73
3
  0
LINE
  5
BC
330
17
100
AcDbEntity
  8
21_СЕТКА
100
AcDbLine
 10
135.33570914648092
 20
120.0
 30
0.0
 11
135.33570914648092
 21
450.0
 31
0.0
  0
LINE
  5
BD
330
17
100
AcDbEntity
  8
20_ГРАФИК
100
AcDbLine
 10
135.33570914648092
 20
120.0
 30
0.0
 11
135.33570914648092
 21
118.5
 31
0.0
  0
TEXT
  5
BE
330
17
100
AcDbEntity
  8
08_ТЕКСТ
100
AcDbText
 10
135.33570914648092
 20
116.0
 30
0.0
 40
2.5
  1
4000
  7
ГОСТ
 72
1
 11
135.33570914648092
 21
116.0
 31
0.0
100
AcDbText
 73
3
  0
LINE
  5
BF
330
17
100
AcDbEntity
  8
21_СЕТКА
100
AcDbLine
 10
167.77415356634273
 20
120.0
 30
0.0
 11
167.77415356634273
 21
450.0
 31
0.0
  0
LINE
  5
C0
330
17
100
AcDbEntity
  8
20_ГРАФИК
100
AcDbLine
 10
167.77415356634273
 20
120.0
 30
0.0
 11
167.77415356634273
 21
118.5
 31
0.0
  0
TEXT
  5
C1
330
17
100
AcDbEntity
  8
08_ТЕКСТ
100
AcDbText
 10
167.77415356634273
 20
116.0
 30
0.0
 40
2.5
  1
5000
  7
ГОСТ
 72
1
 11
167.77415356634273
 21
116.0
 31
0.0
100
AcDbText
 73
3
  0
LINE
  5
C2
330
17
100
AcDbEntity
  8
21_СЕТКА
100
AcDbLine
 10
40.0
 20
175.0
 30
0.0
 11
200.0
 21
175.0
 31
0.0
  0
LINE
  5
C3
330
17
100
AcDbEntity
  8
20_ГРАФИК
100
AcDbLine
 10
40.0
 20
175.0
 30
0.0
 11
38.5
 21
175.0
 31
0.0
  0
TEXT
  5
C4
330
17
100
AcDbEntity
  8
08_ТЕКСТ
100
AcDbText
 10
37.5
 20
175.0
 30
0.0
 40
2.5
  1
1
  7
ГОСТ
 72
2
 11
37.5
 21
175.0
 31
0.0
100
AcDbText
 73
2
  0
LINE
  5
C5
330
17
100
AcDbEntity
  8
21_СЕТКА
100
AcDbLine
 10
40.0
 20
243.75
 30
0.0
 11
200.0
 21
243.75
 31
0.0
  0
LINE
  5
C6
330
17
100
AcDbEntity
  8
20_ГРАФИК
100
AcDbLine
 10
40.0
 20
243.75
 30
0.0
 11
38.5
 21
243.75
 31
0.0
  0
TEXT
  5
C7
330
17
100
AcDbEntity
  8
08_ТЕКСТ
100
AcDbText
 10
37.5
 20
243.75
 30
0.0
 40
2.5
  1
1,5
  7
ГОСТ
 72
2
 11
37.5
 21
243.75
 31
0.0
100
AcDbText
 73
2
  0
LINE
  5
C8
330
17
100
AcDbEntity
  8
21_СЕТКА
100
AcDbLine
 10
40.0
 20
312.5
 30
0.0
 11
200.0
 21
312.5
 31
0.0
  0
LINE
  5
C9
330
17
100
AcDbEntity
  8
20_ГРАФИК
100
AcDbLine
 10
40.0
 20
312.5
 30
0.0
 11
38.5
 21
312.5
 31
0.0
  0
TEXT
  5
CA
330
17
100
AcDbEntity
  8
08_ТЕКСТ
100
AcDbText
 10
37.5
 20
312.5
 30
0.0
 40
2.5
  1
2
  7
ГОСТ
 72
2
 11
37.5
 21
312.5
 31
0.0
100
AcDbText
 73
2
  0
LINE
  5
CB
330
17
100
AcDbEntity
  8
21_СЕТКА
100
AcDbLine
 10
40.0
 20
381.25
 30
0.0
 11
200.0
 21
381.25
 31
0.0
  0
LINE
  5
CC
330
17
100
AcDbEntity
  8
20_ГРАФИК
100
AcDbLine
 10
40.0
 20
381.25
 30
0.0
 11
38.5
 21
381.25
 31
0.0
  0
TEXT
  5
CD
330
17
100
AcDbEntity
  8
08_ТЕКСТ
100
AcDbText
 10
37.5
 20
381.25
 30
0.0
 40
2.5
  1
2,5
  7
ГОСТ
 72
2
 11
37.5
 21
381.25
 31
0.0
100
AcDbText
 73
2
  0
LINE
  5
CE
330
17
100
AcDbEntity
  8
21_СЕТКА
100
AcDbLine
 10
40.0
 20
450.0
 30
0.0
 11
200.0
 21
450.0
 31
0.0
  0
LINE
  5
CF
330
17
100
AcDbEntity
  8
20_ГРАФИК
100
AcDbLine
 10
40.0
 20
450.0
 30
0.0
 11
38.5
 21
450.0
 31
0.0
  0
TEXT
  5
D0
330
17
100
AcDbEntity
  8
08_ТЕКСТ
100
AcDbText
 10
37.5
 20
450.0
 30
0.0
 40
2.5
  1
3
  7
ГОСТ
 72
2
 11
37.5
 21
450.0
 31
0.0
100
AcDbText
 73
2
  0
TEXT
  5
D1
330
17
100
AcDbEntity
  8
08_ТЕКСТ
100
AcDbText
 10
120.0
 20
110.5
 30
0.0
 40
2.8
  1
V, м³ / Aw, м²
  7
ГОСТ
 72
1
 11
120.0
 21
110.5
 31
0.0
100
AcDbText
 73
3
  0
TEXT
  5
D2
330
17
100
AcDbEntity
  8
08_ТЕКСТ
100
AcDbText
 10
26.0
 20
285.0
 30
0.0
 40
2.8
  1
осадка T, м
 50
90.0
  7
ГОСТ
 72
1
 11
26.0
 21
285.0
 31
0.0
100
AcDbText
 73
2
  0
TEXT
  5
D3
330
17
100
AcDbEntity
  8
08_ТЕКСТ
100
AcDbText
 10
40.0
 20
453.0
 30
0.0
 40
3.5
  1
Водоизмещение и площадь ватерлинии
  7
ГОСТ
 11
40.0
 21
453.0
 31
0.0
100
AcDbText
 73
1
  0
LINE
  5
D4
330
17
100
AcDbEntity
  8
20_ГРАФИК
  6
DASHED
100
AcDbLine
 10
40.0
 20
210.24324374999998
 30
0.0
 11
200.0
 21
210.24324374999998
 31
0.0
  0
TEXT
  5
D5
330
17
100
AcDbEntity
  8
08_ТЕКСТ
100
AcDbText
 10
199.0
 20
211.24324374999998
 30
0.0
 40
2.2
  1
T = 1,26
  7
ГОСТ
 72
2
 11
199.0
 21
211.24324374999998
 31
0.0
100
AcDbText
 73
1
  0
LWPOLYLINE
  5
D6
330
17
100
AcDbEntity
  8
22_КРИВАЯ_А
  6
CONTINUOUS
100
AcDbPolyline
 90
17
 70
0
 10
40.0
 20
120.0
 10
49.51964346338161
 20
140.625
 10
59.22796433414847
 20
161.25
 10
69.07183138276983
 20
181.87499999999997
 10
78.98267809708993
 20
202.5
 10
88.94345104506456
 20
223.125
 10
98.94286299711811
 20
243.75
 10
108.9758018502498
 20
264.375
 10
119.03418551306825
 20
285.0
 10
129.1136578969668
 20
305.625
 10
139.20809212540786
 20
326.25
 10
149.31427721477078
 20
346.875
 10
159.43235987468643
 20
367.5
 10
169.56016133980518
 20
388.12499999999994
 10
179.6977124161327
 20
408.75000000000006
 10
189.8444359889442
 20
429.375
 10
200.0
 20
450.0
  0
LWPOLYLINE
  5
D7
330
17
100
AcDbEntity
  8
23_КРИВАЯ_Б
  6
CONTINUOUS
100
AcDbPolyline
 90
17
 70
0
 10
68.3068825628927
 20
120.0
 10
69.77619893696405
 20
140.625
 10
70.85928451878075
 20
161.25
 10
71.49717957408231
 20
181.87499999999997
 10
71.86650068985938
 20
202.5
 10
72.10464188033797
 20
223.125
 10
72.36867961575805
 20
243.75
 10
72.57919363443776
 20
264.375
 10
72.71553495973868
 20
285.0
 10
72.8406589708889
 20
305.625
 10
72.92482310061158
 20
326.25
 10
73.00132396876145
 20
346.875
 10
73.07152125321497
 20
367.5
 10
73.13670785503487
 20
388.12499999999994
 10
73.19813078115827
 20
408.75000000000006
 10
73.25671254207012
 20
429.375
 10
73.31523273924827
 20
450.0
  0
LINE
  5
D8
330
17
100
AcDbEntity
  8
22_КРИВАЯ_А
  6
CONTINUOUS
100
AcDbLine
 10
43.0
 20
446.0
 30
0.0
 11
51.0
 21
446.0
 31
0.0
  0
TEXT
  5
D9
330
17
100
AcDbEntity
  8
08_ТЕКСТ
100
AcDbText
 10
53.0
 20
446.0
 30
0.0
 40
2.5
  1
V, м³
  7
ГОСТ
 11
53.0
 21
446.0
 31
0.0
100
AcDbText
 73
2
  0
LINE
  5
DA
330
17
100
AcDbEntity
  8
23_КРИВАЯ_Б
  6
CONTINUOUS
100
AcDbLine
 10
43.0
 20
441.5
 30
0.0
 11
51.0
 21
441.5
 31
0.0
  0
TEXT
  5
DB
330
17
100
AcDbEntity
  8
08_ТЕКСТ
100
AcDbText
 10
53.0
 20
441.5
 30
0.0
 40
2.5
  1
Aw, м²
  7
ГОСТ
 11
53.0
 21
441.5
 31
0.0
100
AcDbText
 73
2
  0
LWPOLYLINE
  5
DC
330
17
100
AcDbEntity
  8
20_ГРАФИК
100
AcDbPolyline
 90
4
 70
1
 10
235.0
 20
120.0
 10
395.0
 20
120.0
 10
395.0
 20
450.0
 10
235.0
 20
450.0
  0
LINE
  5
DD
330
17
100
AcDbEntity
  8
21_СЕТКА
100
AcDbLine
 10
261.8768947366455
 20
120.0
 30
0.0
 11
261.8768947366455
 21
450.0
 31
0.0
  0
LINE
  5
DE
330
17
100
AcDbEntity
  8
20_ГРАФИК
100
AcDbLine
 10
261.8768947366455
 20
120.0
 30
0.0
 11
261.8768947366455
 21
118.5
 31
0.0
  0
TEXT
  5
DF
330
17
100
AcDbEntity
  8
08_ТЕКСТ
100
AcDbText
 10
261.8768947366455
 20
116.0
 30
0.0
 40
2.5
  1
67
  7
ГОСТ
 72
1
 11
261.8768947366455
 21
116.0
 31
0.0
100
AcDbText
 73
3
  0
LINE
  5
E0
330
17
100
AcDbEntity
  8
21_СЕТКА
100
AcDbLine
 10
291.5393624476538
 20
120.0
 30
0.0
 11
291.5393624476538
 21
450.0
 31
0.0
  0
LINE
  5
E1
330
17
100
AcDbEntity
  8
20_ГРАФИК
100
AcDbLine
 10
291.5393624476538
 20
120.0
 30
0.0
 11
291.5393624476538
 21
118.5
 31
0.0
  0
TEXT
  5
E2
330
17
100
AcDbEntity
  8
08_ТЕКСТ
100
AcDbText
 10
291.5393624476538
 20
116.0
 30
0.0
 40
2.5
  1
67,5
  7
ГОСТ
 72
1
 11
291.5393624476538
 21
116.0
 31
0.0
100
AcDbText
 73
3
  0
LINE
  5
E3
330
17
100
AcDbEntity
  8
21_СЕТКА
100
AcDbLine
 10
321.2018301586621
 20
120.0
 30
0.0
 11
321.2018301586621
 21
450.0
 31
0.0
  0
LINE
  5
E4
330
17
100
AcDbEntity
  8
20_ГРАФИК
100
AcDbLine
 10
321.2018301586621
 20
120.0
 30
0.0
 11
321.2018301586621
 21
118.5
 31
0.0
  0
TEXT
  5
E5
330
17
100
AcDbEntity
  8
08_ТЕКСТ
100
AcDbText
 10
321.2018301586621
 20
116.0
 30
0.0
 40
2.5
  1
68
  7
ГОСТ
 72
1
 11
321.2018301586621
 21
116.0
 31
0.0
100
AcDbText
 73
3
  0
LINE
  5
E6
330
17
100
AcDbEntity
  8
21_СЕТКА
100
AcDbLine
 10
350.8642978696704
 20
120.0
 30
0.0
 11
350.8642978696704
 21
450.0
 31
0.0
  0
LINE
  5
E7
330
17
100
AcDbEntity
  8
20_ГРАФИК
100
AcDbLine
 10
350.8642978696704
 20
120.0
 30
0.0
 11
350.8642978696704
 21
118.5
 31
0.0
  0
TEXT
  5
E8
330
17
100
AcDbEntity
  8
08_ТЕКСТ
100
AcDbText
 10
350.8642978696704
 20
116.0
 30
0.0
 40
2.5
  1
68,5
  7
ГОСТ
 72
1
 11
350.8642978696704
 21
116.0
 31
0.0
100
AcDbText
 73
3
  0
LINE
  5
E9
330
17
100
AcDbEntity
  8
21_СЕТКА
100
AcDbLine
 10
380.52676558067867
 20
120.0
 30
0.0
 11
380.52676558067867
 21
450.0
 31
0.0
  0
LINE
  5
EA
330
17
100
AcDbEntity
  8
20_ГРАФИК
100
AcDbLine
 10
380.52676558067867
 20
120.0
 30
0.0
 11
380.52676558067867
 21
118.5
 31
0.0
  0
TEXT
  5
EB
330
17
100
AcDbEntity
  8
08_ТЕКСТ
100
AcDbText
 10
380.52676558067867
 20
116.0
 30
0.0
 40
2.5
  1
69
  7
ГОСТ
 72
1
 11
380.52676558067867
 21
116.0
 31
0.0
100
AcDbText
 73
3
  0
LINE
  5
EC
330
17
100
AcDbEntity
  8
21_СЕТКА
100
AcDbLine
 10
235.0
 20
175.0
 30
0.0
 11
395.0
 21
175.0
 31
0.0
  0
LINE
  5
ED
330
17
100
AcDbEntity
  8
20_ГРАФИК
100
AcDbLine
 10
235.0
 20
175.0
 30
0.0
 11
233.5
 21
175.0
 31
0.0
  0
TEXT
  5
EE
330
17
100
AcDbEntity
  8
08_ТЕКСТ
100
AcDbText
 10
232.5
 20
175.0
 30
0.0
 40
2.5
  1
1
  7
ГОСТ
 72
2
 11
232.5
 21
175.0
 31
0.0
100
AcDbText
 73
2
  0
LINE
  5
EF
330
17
100
AcDbEntity
  8
21_СЕТКА
100
AcDbLine
 10
235.0
 20
243.75
 30
0.0
 11
395.0
 21
243.75
 31
0.0
  0
LINE
  5
F0
330
17
100
AcDbEntity
  8
20_ГРАФИК
100
AcDbLine
 10
235.0
 20
243.75
 30
0.0
 11
233.5
 21
243.75
 31
0.0
  0
TEXT
  5
F1
330
17
100
AcDbEntity
  8
08_ТЕКСТ
100
AcDbText
 10
232.5
 20
243.75
 30
0.0
 40
2.5
  1
1,5
  7
ГОСТ
 72
2
 11
232.5
 21
243.75
 31
0.0
100
AcDbText
 73
2
  0
LINE
  5
F2
330
17
100
AcDbEntity
  8
21_СЕТКА
100
AcDbLine
 10
235.0
 20
312.5
 30
0.0
 11
395.0
 21
312.5
 31
0.0
  0
LINE
  5
F3
330
17
100
AcDbEntity
  8
20_ГРАФИК
100
AcDbLine
 10
235.0
 20
312.5
 30
0.0
 11
233.5
 21
312.5
 31
0.0
  0
TEXT
  5
F4
330
17
100
AcDbEntity
  8
08_ТЕКСТ
100
AcDbText
 10
232.5
 20
312.5
 30
0.0
 40
2.5
  1
2
  7
ГОСТ
 72
2
 11
232.5
 21
312.5
 31
0.0
100
AcDbText
 73
2
  0
LINE
  5
F5
330
17
100
AcDbEntity
  8
21_СЕТКА
100
AcDbLine
 10
235.0
 20
381.25
 30
0.0
 11
395.0
 21
381.25
 31
0.0
  0
LINE
  5
F6
330
17
100
AcDbEntity
  8
20_ГРАФИК
100
AcDbLine
 10
235.0
 20
381.25
 30
0.0
 11
233.5
 21
381.25
 31
0.0
  0
TEXT
  5
F7
330
17
100
AcDbEntity
  8
08_ТЕКСТ
100
AcDbText
 10
232.5
 20
381.25
 30
0.0
 40
2.5
  1
2,5
  7
ГОСТ
 72
2
 11
232.5
 21
381.25
 31
0.0
100
AcDbText
 73
2
  0
LINE
  5
F8
330
17
100
AcDbEntity
  8
21_СЕТКА
100
AcDbLine
 10
235.0
 20
450.0
 30
0.0
 11
395.0
 21
450.0
 31
0.0
  0
LINE
  5
F9
330
17
100
AcDbEntity
  8
20_ГРАФИК
100
AcDbLine
 10
235.0
 20
450.0
 30
0.0
 11
233.5
 21
450.0
 31
0.0
  0
TEXT
  5
FA
330
17
100
AcDbEntity
  8
08_ТЕКСТ
100
AcDbText
 10
232.5
 20
450.0
 30
0.0
 40
2.5
  1
3
  7
ГОСТ
 72
2
 11
232.5
 21
450.0
 31
0.0
100
AcDbText
 73
2
  0
TEXT
  5
FB
330
17
100
AcDbEntity
  8
08_ТЕКСТ
100
AcDbText
 10
315.0
 20
110.5
 30
0.0
 40
2.8
  1
x, м
  7
ГОСТ
 72
1
 11
315.0
 21
110.5
 31
0.0
100
AcDbText
 73
3
  0
TEXT
  5
FC
330
17
100
AcDbEntity
  8
08_ТЕКСТ
100
AcDbText
 10
221.0
 20
285.0
 30
0.0
 40
2.8
  1
осадка T, м
 50
90.0
  7
ГОСТ
 72
1
 11
221.0
 21
285.0
 31
0.0
100
AcDbText
 73
2
  0
TEXT
  5
FD
330
17
100
AcDbEntity
  8
08_ТЕКСТ
100
AcDbText
 10
235.0
 20
453.0
 30
0.0
 40
3.5
  1
Абсциссы ЦВ и ЦТ ватерлинии
  7
ГОСТ
 11
235.0
 21
453.0
 31
0.0
100
AcDbText
 73
1
  0
LINE
  5
FE
330
17
100
AcDbEntity
  8
20_ГРАФИК
  6
DASHED
100
AcDbLine
 10
235.0
 20
210.24324374999998
 30
0.0
 11
395.0
 21
210.24324374999998
 31
0.0
  0
TEXT
  5
FF
330
17
100
AcDbEntity
  8
08_ТЕКСТ
100
AcDbText
 10
394.0
 20
211.24324374999998
 30
0.0
 40
2.2
  1
T = 1,26
  7
ГОСТ
 72
2
 11
394.0
 21
211.24324374999998
 31
0.0
100
AcDbText
 73
1
  0
LWPOLYLINE
  5
100
330
17
100
AcDbEntity
  8
22_КРИВАЯ_А
  6
CONTINUOUS
100
AcDbPolyline
 90
17
 70
0
 10
395.0
 20
120.0
 10
374.2278125749686
 20
140.625
 10
354.5537106503206
 20
161.25
 10
337.1730433018417
 20
181.87499999999997
 10
324.0998158796782
 20
202.5
 10
314.22608229847106
 20
223.125
 10
306.6689986928188
 20
243.75
 10
300.5418092217403
 20
264.375
 10
295.5527461301907
 20
285.0
 10
291.27315705224095
 20
305.625
 10
287.55286462677685
 20
326.25
 10
284.23219971639674
 20
346.875
 10
281.22988640233297
 20
367.5
 10
278.5369877128655
 20
388.12499999999994
 10
276.0995606526317
 20
408.75000000000006
 10
273.8876937260348
 20
429.375
 10
271.87269065432156
 20
450.0
  0
LWPOLYLINE
  5
101
330
17
100
AcDbEntity
  8
23_КРИВАЯ_Б
  6
CONTINUOUS
100
AcDbPolyline
 90
17
 70
0
 10
311.55196144230763
 20
120.0
 10
284.29682276151334
 20
140.625
 10
251.31553183477087
 20
161.25
 10
240.36703000560627
 20
181.87499999999997
 10
242.31775549132135
 20
202.5
 10
240.43670622501088
 20
223.125
 10
243.10242889993606
 20
243.75
 10
244.68729637959245
 20
264.375
 10
243.37677497386645
 20
285.0
 10
242.79939837032617
 20
305.625
 10
240.76131611305263
 20
326.25
 10
239.17020252257046
 20
346.875
 10
237.92544724954428
 20
367.5
 10
236.95356554560604
 20
388.12499999999994
 10
236.19394550177364
 20
408.75000000000006
 10
235.595754090907
 20
429.375
 10
235.0
 20
450.0
  0
LINE
  5
102
330
17
100
AcDbEntity
  8
22_КРИВАЯ_А
  6
CONTINUOUS
100
AcDbLine
 10
238.0
 20
446.0
 30
0.0
 11
246.0
 21
446.0
 31
0.0
  0
TEXT
  5
103
330
17
100
AcDbEntity
  8
08_ТЕКСТ
100
AcDbText
 10
248.0
 20
446.0
 30
0.0
 40
2.5
  1
xc, м
  7
ГОСТ
 11
248.0
 21
446.0
 31
0.0
100
AcDbText
 73
2
  0
LINE
  5
104
330
17
100
AcDbEntity
  8
23_КРИВАЯ_Б
  6
CONTINUOUS
100
AcDbLine
 10
238.0
 20
441.5
 30
0.0
 11
246.0
 21
441.5
 31
0.0
  0
TEXT
  5
105
330
17
100
AcDbEntity
  8
08_ТЕКСТ
100
AcDbText
 10
248.0
 20
441.5
 30
0.0
 40
2.5
  1
xf, м
  7
ГОСТ
 11
248.0
 21
441.5
 31
0.0
100
AcDbText
 73
2
  0
LWPOLYLINE
  5
106
330
17
100
AcDbEntity
  8
20_ГРАФИК
100
AcDbPolyline
 90
4
 70
1
 10
430.0
 20
120.0
 10
590.0
 20
120.0
 10
590.0
 20
450.0
 10
430.0
 20
450.0
  0
LINE
  5
107
330
17
100
AcDbEntity
  8
21_СЕТКА
100
AcDbLine
 10
471.5533719261954
 20
120.0
 30
0.0
 11
471.5533719261954
 21
450.0
 31
0.0
  0
LINE
  5
108
330
17
100
AcDbEntity
  8
20_ГРАФИК
100
AcDbLine
 10
471.5533719261954
 20
120.0
 30
0.0
 11
471.5533719261954
 21
118.5
 31
0.0
  0
TEXT
  5
109
330
17
100
AcDbEntity
  8
08_ТЕКСТ
100
AcDbText
 10
471.5533719261954
 20
116.0
 30
0.0
 40
2.5
  1
10
  7
ГОСТ
 72
1
 11
471.5533719261954
 21
116.0
 31
0.0
100
AcDbText
 73
3
  0
LINE
  5
10A
330
17
100
AcDbEntity
  8
21_СЕТКА
100
AcDbLine
 10
514.4440150066188
 20
120.0
 30
0.0
 11
514.4440150066188
 21
450.0
 31
0.0
  0
LINE
  5
10B
330
17
100
AcDbEntity
  8
20_ГРАФИК
100
AcDbLine
 10
514.4440150066188
 20
120.0
 30
0.0
 11
514.4440150066188
 21
118.5
 31
0.0
  0
TEXT
  5
10C
330
17
100
AcDbEntity
  8
08_ТЕКСТ
100
AcDbText
 10
514.4440150066188
 20
116.0
 30
0.0
 40
2.5
  1
20
  7
ГОСТ
 72
1
 11
514.4440150066188
 21
116.0
 31
0.0
100
AcDbText
 73
3
  0
LINE
  5
10D
330
17
100
AcDbEntity
  8
21_СЕТКА
100
AcDbLine
 10
557.3346580870423
 20
120.0
 30
0.0
 11
557.3346580870423
 21
450.0
 31
0.0
  0
LINE
  5
10E
330
17
100
AcDbEntity
  8
20_ГРАФИК
100
AcDbLine
 10
557.3346580870423
 20
120.0
 30
0.0
 11
557.3346580870423
 21
118.5
 31
0.0
  0
TEXT
  5
10F
330
17
100
AcDbEntity
  8
08_ТЕКСТ
100
AcDbText
 10
557.3346580870423
 20
116.0
 30
0.0
 40
2.5
  1
30
  7
ГОСТ
 72
1
 11
557.3346580870423
 21
116.0
 31
0.0
100
AcDbText
 73
3
  0
LINE
  5
110
330
17
100
AcDbEntity
  8
21_СЕТКА
100
AcDbLine
 10
430.0
 20
175.0
 30
0.0
 11
590.0
 21
175.0
 31
0.0
  0
LINE
  5
111
330
17
100
AcDbEntity
  8
20_ГРАФИК
100
AcDbLine
 10
430.0
 20
175.0
 30
0.0
 11
428.5
 21
175.0
 31
0.0
  0
TEXT
  5
112
330
17
100
AcDbEntity
  8
08_ТЕКСТ
100
AcDbText
 10
427.5
 20
175.0
 30
0.0
 40
2.5
  1
1
  7
ГОСТ
 72
2
 11
427.5
 21
175.0
 31
0.0
100
AcDbText
 73
2
  0
LINE
  5
113
330
17
100
AcDbEntity
  8
21_СЕТКА
100
AcDbLine
 10
430.0
 20
243.75
 30
0.0
 11
590.0
 21
243.75
 31
0.0
  0
LINE
  5
114
330
17
100
AcDbEntity
  8
20_ГРАФИК
100
AcDbLine
 10
430.0
 20
243.75
 30
0.0
 11
428.5
 21
243.75
 31
0.0
  0
TEXT
  5
115
330
17
100
AcDbEntity
  8
08_ТЕКСТ
100
AcDbText
 10
427.5
 20
243.75
 30
0.0
 40
2.5
  1
1,5
  7
ГОСТ
 72
2
 11
427.5
 21
243.75
 31
0.0
100
AcDbText
 73
2
  0
LINE
  5
116
330
17
100
AcDbEntity
  8
21_СЕТКА
100
AcDbLine
 10
430.0
 20
312.5
 30
0.0
 11
590.0
 21
312.5
 31
0.0
  0
LINE
  5
117
330
17
100
AcDbEntity
  8
20_ГРАФИК
100
AcDbLine
 10
430.0
 20
312.5
 30
0.0
 11
428.5
 21
312.5
 31
0.0
  0
TEXT
  5
118
330
17
100
AcDbEntity
  8
08_ТЕКСТ
100
AcDbText
 10
427.5
 20
312.5
 30
0.0
 40
2.5
  1
2
  7
ГОСТ
 72
2
 11
427.5
 21
312.5
 31
0.0
100
AcDbText
 73
2
  0
LINE
  5
119
330
17
100
AcDbEntity
  8
21_СЕТКА
100
AcDbLine
 10
430.0
 20
381.25
 30
0.0
 11
590.0
 21
381.25
 31
0.0
  0
LINE
  5
11A
330
17
100
AcDbEntity
  8
20_ГРАФИК
100
AcDbLine
 10
430.0
 20
381.25
 30
0.0
 11
428.5
 21
381.25
 31
0.0
  0
TEXT
  5
11B
330
17
100
AcDbEntity
  8
08_ТЕКСТ
100
AcDbText
 10
427.5
 20
381.25
 30
0.0
 40
2.5
  1
2,5
  7
ГОСТ
 72
2
 11
427.5
 21
381.25
 31
0.0
100
AcDbText
 73
2
  0
LINE
  5
11C
330
17
100
AcDbEntity
  8
21_СЕТКА
100
AcDbLine
 10
430.0
 20
450.0
 30
0.0
 11
590.0
 21
450.0
 31
0.0
  0
LINE
  5
11D
330
17
100
AcDbEntity
  8
20_ГРАФИК
100
AcDbLine
 10
430.0
 20
450.0
 30
0.0
 11
428.5
 21
450.0
 31
0.0
  0
TEXT
  5
11E
330
17
100
AcDbEntity
  8
08_ТЕКСТ
100
AcDbText
 10
427.5
 20
450.0
 30
0.0
 40
2.5
  1
3
  7
ГОСТ
 72
2
 11
427.5
 21
450.0
 31
0.0
100
AcDbText
 73
2
  0
TEXT
  5
11F
330
17
100
AcDbEntity
  8
08_ТЕКСТ
100
AcDbText
 10
510.0
 20
110.5
 30
0.0
 40
2.8
  1
z, м
  7
ГОСТ
 72
1
 11
510.0
 21
110.5
 31
0.0
100
AcDbText
 73
3
  0
TEXT
  5
120
330
17
100
AcDbEntity
  8
08_ТЕКСТ
100
AcDbText
 10
416.0
 20
285.0
 30
0.0
 40
2.8
  1
осадка T, м
 50
90.0
  7
ГОСТ
 72
1
 11
416.0
 21
285.0
 31
0.0
100
AcDbText
 73
2
  0
TEXT
  5
121
330
17
100
AcDbEntity
  8
08_ТЕКСТ
100
AcDbText
 10
430.0
 20
453.0
 30
0.0
 40
3.5
  1
Аппликаты ЦВ и метацентра, радиус
  7
ГОСТ
 11
430.0
 21
453.0
 31
0.0
100
AcDbText
 73
1
  0
LINE
  5
122
330
17
100
AcDbEntity
  8
20_ГРАФИК
  6
DASHED
100
AcDbLine
 10
430.0
 20
210.24324374999998
 30
0.0
 11
590.0
 21
210.24324374999998
 31
0.0
  0
TEXT
  5
123
330
17
100
AcDbEntity
  8
08_ТЕКСТ
100
AcDbText
 10
589.0
 20
211.24324374999998
 30
0.0
 40
2.2
  1
T = 1,26
  7
ГОСТ
 72
2
 11
589.0
 21
211.24324374999998
 31
0.0
100
AcDbText
 73
1
  0
LWPOLYLINE
  5
124
330
17
100
AcDbEntity
  8
22_КРИВАЯ_А
  6
CONTINUOUS
100
AcDbPolyline
 90
17
 70
0
 10
430.0
 20
120.0
 10
430.3370748055831
 20
140.625
 10
430.67451783637694
 20
161.25
 10
431.0106998151951
 20
181.87499999999997
 10
431.3450475897681
 20
202.5
 10
431.6773942133942
 20
223.125
 10
432.00972092807126
 20
243.75
 10
432.34019580162953
 20
264.375
 10
432.66989997625956
 20
285.0
 10
432.9992424854187
 20
305.625
 10
433.32808982172054
 20
326.25
 10
433.6550081691104
 20
346.875
 10
433.9835141900765
 20
367.5
 10
434.31053261534936
 20
388.12499999999994
 10
434.6373001937178
 20
408.75000000000006
 10
434.9633618970196
 20
429.375
 10
435.29103786143696
 20
450.0
  0
LWPOLYLINE
  5
125
330
17
100
AcDbEntity
  8
23_КРИВАЯ_Б
  6
CONTINUOUS
100
AcDbPolyline
 90
17
 70
0
 10
590.0
 20
120.0
 10
558.6666037190198
 20
140.625
 10
537.1722186293135
 20
161.25
 10
521.7845560213558
 20
181.87499999999997
 10
510.386226399045
 20
202.5
 10
501.66220524548646
 20
223.125
 10
494.80508524992257
 20
243.75
 10
489.2838289531397
 20
264.375
 10
484.7597831807688
 20
285.0
 10
480.99941254832584
 20
305.625
 10
477.8368038963743
 20
326.25
 10
475.14902036678353
 20
346.875
 10
472.8481965312035
 20
367.5
 10
470.86248584895804
 20
388.12499999999994
 10
469.1397414817725
 20
408.75000000000006
 10
467.6374807970395
 20
429.375
 10
466.3263229669218
 20
450.0
  0
LWPOLYLINE
  5
126
330
17
100
AcDbEntity
  8
24_КРИВАЯ_В
  6
CONTINUOUS
100
AcDbPolyline
 90
17
 70
0
 10
588.6627288457719
 20
120.0
 10
556.9922577592085
 20
140.625
 10
535.1604296387086
 20
161.25
 10
519.4365850519326
 20
181.87499999999997
 10
507.70390765504885
 20
202.5
 10
498.6475398778642
 20
223.125
 10
491.45809316762325
 20
243.75
 10
485.6063619972821
 20
264.375
 10
480.7526120502812
 20
285.0
 10
476.66289890867915
 20
305.625
 10
473.1714429204257
 20
326.25
 10
470.1567410434451
 20
346.875
 10
467.5274111868989
 20
367.5
 10
465.21468207938057
 20
388.12499999999994
 10
463.1651701338266
 20
408.75000000000006
 10
461.33684774579183
 20
429.375
 10
459.69801395125677
 20
450.0
  0
LINE
  5
127
330
17
100
AcDbEntity
  8
22_КРИВАЯ_А
  6
CONTINUOUS
100
AcDbLine
 10
433.0
 20
446.0
 30
0.0
 11
441.0
 21
446.0
 31
0.0
  0
TEXT
  5
128
330
17
100
AcDbEntity
  8
08_ТЕКСТ
100
AcDbText
 10
443.0
 20
446.0
 30
0.0
 40
2.5
  1
zc, м
  7
ГОСТ
 11
443.0
 21
446.0
 31
0.0
100
AcDbText
 73
2
  0
LINE
  5
129
330
17
100
AcDbEntity
  8
23_КРИВАЯ_Б
  6
CONTINUOUS
100
AcDbLine
 10
433.0
 20
441.5
 30
0.0
 11
441.0
 21
441.5
 31
0.0
  0
TEXT
  5
12A
330
17
100
AcDbEntity
  8
08_ТЕКСТ
100
AcDbText
 10
443.0
 20
441.5
 30
0.0
 40
2.5
  1
zm, м
  7
ГОСТ
 11
443.0
 21
441.5
 31
0.0
100
AcDbText
 73
2
  0
LINE
  5
12B
330
17
100
AcDbEntity
  8
24_КРИВАЯ_В
  6
CONTINUOUS
100
AcDbLine
 10
433.0
 20
437.0
 30
0.0
 11
441.0
 21
437.0
 31
0.0
  0
TEXT
  5
12C
330
17
100
AcDbEntity
  8
08_ТЕКСТ
100
AcDbText
 10
443.0
 20
437.0
 30
0.0
 40
2.5
  1
r, м
  7
ГОСТ
 11
443.0
 21
437.0
 31
0.0
100
AcDbText
 73
2
  0
LWPOLYLINE
  5
12D
330
17
100
AcDbEntity
  8
20_ГРАФИК
100
AcDbPolyline
 90
4
 70
1
 10
625.0
 20
120.0
 10
785.0
 20
120.0
 10
785.0
 20
450.0
 10
625.0
 20
450.0
  0
LINE
  5
12E
330
17
100
AcDbEntity
  8
21_СЕТКА
100
AcDbLine
 10
631.4697390710305
 20
120.0
 30
0.0
 11
631.4697390710305
 21
450.0
 31
0.0
  0
LINE
  5
12F
330
17
100
AcDbEntity
  8
20_ГРАФИК
100
AcDbLine
 10
631.4697390710305
 20
120.0
 30
0.0
 11
631.4697390710305
 21
118.5
 31
0.0
  0
TEXT
  5
130
330
17
100
AcDbEntity
  8
08_ТЕКСТ
100
AcDbText
 10
631.4697390710305
 20
116.0
 30
0.0
 40
2.5
  1
0,85
  7
ГОСТ
 72
1
 11
631.4697390710305
 21
116.0
 31
0.0
100
AcDbText
 73
3
  0
LINE
  5
131
330
17
100
AcDbEntity
  8
21_СЕТКА
100
AcDbLine
 10
658.981557521276
 20
120.0
 30
0.0
 11
658.981557521276
 21
450.0
 31
0.0
  0
LINE
  5
132
330
17
100
AcDbEntity
  8
20_ГРАФИК
100
AcDbLine
 10
658.981557521276
 20
120.0
 30
0.0
 11
658.981557521276
 21
118.5
 31
0.0
  0
TEXT
  5
133
330
17
100
AcDbEntity
  8
08_ТЕКСТ
100
AcDbText
 10
658.981557521276
 20
116.0
 30
0.0
 40
2.5
  1
0,875
  7
ГОСТ
 72
1
 11
658.981557521276
 21
116.0
 31
0.0
100
AcDbText
 73
3
  0
LINE
  5
134
330
17
100
AcDbEntity
  8
21_СЕТКА
100
AcDbLine
 10
686.4933759715217
 20
120.0
 30
0.0
 11
686.4933759715217
 21
450.0
 31
0.0
  0
LINE
  5
135
330
17
100
AcDbEntity
  8
20_ГРАФИК
100
AcDbLine
 10
686.4933759715217
 20
120.0
 30
0.0
 11
686.4933759715217
 21
118.5
 31
0.0
  0
TEXT
  5
136
330
17
100
AcDbEntity
  8
08_ТЕКСТ
100
AcDbText
 10
686.4933759715217
 20
116.0
 30
0.0
 40
2.5
  1
0,9
  7
ГОСТ
 72
1
 11
686.4933759715217
 21
116.0
 31
0.0
100
AcDbText
 73
3
  0
LINE
  5
137
330
17
100
AcDbEntity
  8
21_СЕТКА
100
AcDbLine
 10
714.0051944217672
 20
120.0
 30
0.0
 11
714.0051944217672
 21
450.0
 31
0.0
  0
LINE
  5
138
330
17
100
AcDbEntity
  8
20_ГРАФИК
100
AcDbLine
 10
714.0051944217672
 20
120.0
 30
0.0
 11
714.0051944217672
 21
118.5
 31
0.0
  0
TEXT
  5
139
330
17
100
AcDbEntity
  8
08_ТЕКСТ
100
AcDbText
 10
714.0051944217672
 20
116.0
 30
0.0
 40
2.5
  1
0,925
  7
ГОСТ
 72
1
 11
714.0051944217672
 21
116.0
 31
0.0
100
AcDbText
 73
3
  0
LINE
  5
13A
330
17
100
AcDbEntity
  8
21_СЕТКА
100
AcDbLine
 10
741.5170128720126
 20
120.0
 30
0.0
 11
741.5170128720126
 21
450.0
 31
0.0
  0
LINE
  5
13B
330
17
100
AcDbEntity
  8
20_ГРАФИК
100
AcDbLine
 10
741.5170128720126
 20
120.0
 30
0.0
 11
741.5170128720126
 21
118.5
 31
0.0
  0
TEXT
  5
13C
330
17
100
AcDbEntity
  8
08_ТЕКСТ
100
AcDbText
 10
741.5170128720126
 20
116.0
 30
0.0
 40
2.5
  1
0,95
  7
ГОСТ
 72
1
 11
741.5170128720126
 21
116.0
 31
0.0
100
AcDbText
 73
3
  0
LINE
  5
13D
330
17
100
AcDbEntity
  8
21_СЕТКА
100
AcDbLine
 10
769.0288313222583
 20
120.0
 30
0.0
 11
769.0288313222583
 21
450.0
 31
0.0
  0
LINE
  5
13E
330
17
100
AcDbEntity
  8
20_ГРАФИК
100
AcDbLine
 10
769.0288313222583
 20
120.0
 30
0.0
 11
769.0288313222583
 21
118.5
 31
0.0
  0
TEXT
  5
13F
330
17
100
AcDbEntity
  8
08_ТЕКСТ
100
AcDbText
 10
769.0288313222583
 20
116.0
 30
0.0
 40
2.5
  1
0,975
  7
ГОСТ
 72
1
 11
769.0288313222583
 21
116.0
 31
0.0
100
AcDbText
 73
3
  0
LINE
  5
140
330
17
100
AcDbEntity
  8
21_СЕТКА
100
AcDbLine
 10
625.0
 20
175.0
 30
0.0
 11
785.0
 21
175.0
 31
0.0
  0
LINE
  5
141
330
17
100
AcDbEntity
  8
20_ГРАФИК
100
AcDbLine
 10
625.0
 20
175.0
 30
0.0
 11
623.5
 21
175.0
 31
0.0
  0
TEXT
  5
142
330
17
100
AcDbEntity
  8
08_ТЕКСТ
100
AcDbText
 10
622.5
 20
175.0
 30
0.0
 40
2.5
  1
1
  7
ГОСТ
 72
2
 11
622.5
 21
175.0
 31
0.0
100
AcDbText
 73
2
  0
LINE
  5
143
330
17
100
AcDbEntity
  8
21_СЕТКА
100
AcDbLine
 10
625.0
 20
243.75
 30
0.0
 11
785.0
 21
243.75
 31
0.0
  0
LINE
  5
144
330
17
100
AcDbEntity
  8
20_ГРАФИК
100
AcDbLine
 10
625.0
 20
243.75
 30
0.0
 11
623.5
 21
243.75
 31
0.0
  0
TEXT
  5
145
330
17
100
AcDbEntity
  8
08_ТЕКСТ
100
AcDbText
 10
622.5
 20
243.75
 30
0.0
 40
2.5
  1
1,5
  7
ГОСТ
 72
2
 11
622.5
 21
243.75
 31
0.0
100
AcDbText
 73
2
  0
LINE
  5
146
330
17
100
AcDbEntity
  8
21_СЕТКА
100
AcDbLine
 10
625.0
 20
312.5
 30
0.0
 11
785.0
 21
312.5
 31
0.0
  0
LINE
  5
147
330
17
100
AcDbEntity
  8
20_ГРАФИК
100
AcDbLine
 10
625.0
 20
312.5
 30
0.0
 11
623.5
 21
312.5
 31
0.0
  0
TEXT
  5
148
330
17
100
AcDbEntity
  8
08_ТЕКСТ
100
AcDbText
 10
622.5
 20
312.5
 30
0.0
 40
2.5
  1
2
  7
ГОСТ
 72
2
 11
622.5
 21
312.5
 31
0.0
100
AcDbText
 73
2
  0
LINE
  5
149
330
17
100
AcDbEntity
  8
21_СЕТКА
100
AcDbLine
 10
625.0
 20
381.25
 30
0.0
 11
785.0
 21
381.25
 31
0.0
  0
LINE
  5
14A
330
17
100
AcDbEntity
  8
20_ГРАФИК
100
AcDbLine
 10
625.0
 20
381.25
 30
0.0
 11
623.5
 21
381.25
 31
0.0
  0
TEXT
  5
14B
330
17
100
AcDbEntity
  8
08_ТЕКСТ
100
AcDbText
 10
622.5
 20
381.25
 30
0.0
 40
2.5
  1
2,5
  7
ГОСТ
 72
2
 11
622.5
 21
381.25
 31
0.0
100
AcDbText
 73
2
  0
LINE
  5
14C
330
17
100
AcDbEntity
  8
21_СЕТКА
100
AcDbLine
 10
625.0
 20
450.0
 30
0.0
 11
785.0
 21
450.0
 31
0.0
  0
LINE
  5
14D
330
17
100
AcDbEntity
  8
20_ГРАФИК
100
AcDbLine
 10
625.0
 20
450.0
 30
0.0
 11
623.5
 21
450.0
 31
0.0
  0
TEXT
  5
14E
330
17
100
AcDbEntity
  8
08_ТЕКСТ
100
AcDbText
 10
622.5
 20
450.0
 30
0.0
 40
2.5
  1
3
  7
ГОСТ
 72
2
 11
622.5
 21
450.0
 31
0.0
100
AcDbText
 73
2
  0
TEXT
  5
14F
330
17
100
AcDbEntity
  8
08_ТЕКСТ
100
AcDbText
 10
705.0
 20
110.5
 30
0.0
 40
2.8
  1
-
  7
ГОСТ
 72
1
 11
705.0
 21
110.5
 31
0.0
100
AcDbText
 73
3
  0
TEXT
  5
150
330
17
100
AcDbEntity
  8
08_ТЕКСТ
100
AcDbText
 10
611.0
 20
285.0
 30
0.0
 40
2.8
  1
осадка T, м
 50
90.0
  7
ГОСТ
 72
1
 11
611.0
 21
285.0
 31
0.0
100
AcDbText
 73
2
  0
TEXT
  5
151
330
17
100
AcDbEntity
  8
08_ТЕКСТ
100
AcDbText
 10
625.0
 20
453.0
 30
0.0
 40
3.5
  1
Коэффициенты полноты
  7
ГОСТ
 11
625.0
 21
453.0
 31
0.0
100
AcDbText
 73
1
  0
LINE
  5
152
330
17
100
AcDbEntity
  8
20_ГРАФИК
  6
DASHED
100
AcDbLine
 10
625.0
 20
210.24324374999998
 30
0.0
 11
785.0
 21
210.24324374999998
 31
0.0
  0
TEXT
  5
153
330
17
100
AcDbEntity
  8
08_ТЕКСТ
100
AcDbText
 10
784.0
 20
211.24324374999998
 30
0.0
 40
2.2
  1
T = 1,26
  7
ГОСТ
 72
2
 11
784.0
 21
211.24324374999998
 31
0.0
100
AcDbText
 73
1
  0
LWPOLYLINE
  5
154
330
17
100
AcDbEntity
  8
22_КРИВАЯ_А
  6
CONTINUOUS
100
AcDbPolyline
 90
17
 70
0
 10
641.7488875823858
 20
120.0
 10
632.0455498639268
 20
140.625
 10
625.9682112310986
 20
161.25
 10
625.0
 20
181.87499999999997
 10
628.4730281395039
 20
202.5
 10
633.5252795728067
 20
223.125
 10
633.7289353538836
 20
243.75
 10
632.8924809053476
 20
264.375
 10
634.6049578223069
 20
285.0
 10
632.258745470478
 20
305.625
 10
632.7086412991587
 20
326.25
 10
636.022967757294
 20
346.875
 10
638.948889407527
 20
367.5
 10
641.5423579645495
 20
388.12499999999994
 10
643.85893725449
 20
408.75000000000006
 10
645.9393594065682
 20
429.375
 10
647.817414091001
 20
450.0
  0
LWPOLYLINE
  5
155
330
17
100
AcDbEntity
  8
23_КРИВАЯ_Б
  6
CONTINUOUS
100
AcDbPolyline
 90
17
 70
0
 10
730.1374366767717
 20
120.0
 10
721.6857031113611
 20
140.625
 10
714.4337482732476
 20
161.25
 10
708.7065930273952
 20
181.87499999999997
 10
706.4784209368001
 20
202.5
 10
705.9940405219352
 20
223.125
 10
702.2167837554771
 20
243.75
 10
697.6913513466152
 20
264.375
 10
695.7243222740848
 20
285.0
 10
690.0284245121342
 20
305.625
 10
687.3393750733849
 20
326.25
 10
688.0867693129456
 20
346.875
 10
688.7408769077654
 20
367.5
 10
689.3208139948748
 20
388.12499999999994
 10
689.8449930464539
 20
408.75000000000006
 10
690.327031062181
 20
429.375
 10
690.8077977720948
 20
450.0
  0
LWPOLYLINE
  5
156
330
17
100
AcDbEntity
  8
24_КРИВАЯ_В
  6
CONTINUOUS
100
AcDbPolyline
 90
17
 70
0
 10
763.8927289657709
 20
120.0
 10
766.6088195898346
 20
140.625
 10
770.6470699359304
 20
161.25
 10
773.9635280757252
 20
181.87499999999997
 10
776.3984972935793
 20
202.5
 10
778.2458606460176
 20
223.125
 10
779.6819478934383
 20
243.75
 10
780.818968816661
 20
264.375
 10
781.7317298752012
 20
285.0
 10
782.4720201001879
 20
305.625
 10
783.0768316046012
 20
326.25
 10
783.5732918894133
 20
346.875
 10
783.9817465349307
 20
367.5
 10
784.3177538834203
 20
388.12499999999994
 10
784.5934148275346
 20
408.75000000000006
 10
784.8182826655437
 20
429.375
 10
785.0
 20
450.0
  0
LINE
  5
157
330
17
100
AcDbEntity
  8
22_КРИВАЯ_А
  6
CONTINUOUS
100
AcDbLine
 10
628.0
 20
446.0
 30
0.0
 11
636.0
 21
446.0
 31
0.0
  0
TEXT
  5
158
330
17
100
AcDbEntity
  8
08_ТЕКСТ
100
AcDbText
 10
638.0
 20
446.0
 30
0.0
 40
2.5
  1
delta
  7
ГОСТ
 11
638.0
 21
446.0
 31
0.0
100
AcDbText
 73
2
  0
LINE
  5
159
330
17
100
AcDbEntity
  8
23_КРИВАЯ_Б
  6
CONTINUOUS
100
AcDbLine
 10
628.0
 20
441.5
 30
0.0
 11
636.0
 21
441.5
 31
0.0
  0
TEXT
  5
15A
330
17
100
AcDbEntity
  8
08_ТЕКСТ
100
AcDbText
 10
638.0
 20
441.5
 30
0.0
 40
2.5
  1
alpha
  7
ГОСТ
 11
638.0
 21
441.5
 31
0.0
100
AcDbText
 73
2
  0
LINE
  5
15B
330
17
100
AcDbEntity
  8
24_КРИВАЯ_В
  6
CONTINUOUS
100
AcDbLine
 10
628.0
 20
437.0
 30
0.0
 11
636.0
 21
437.0
 31
0.0
  0
TEXT
  5
15C
330
17
100
AcDbEntity
  8
08_ТЕКСТ
100
AcDbText
 10
638.0
 20
437.0
 30
0.0
 40
2.5
  1
beta
  7
ГОСТ
 11
638.0
 21
437.0
 31
0.0
100
AcDbText
 73
2
  0
ENDSEC
  0
SECTION
  2
OBJECTS
  0
DICTIONARY
  5
A
330
0
100
AcDbDictionary
281
1
  3
ACAD_COLOR
350
B
  3
ACAD_GROUP
350
C
  3
ACAD_LAYOUT
350
D
  3
ACAD_MATERIAL
350
E
  3
ACAD_MLEADERSTYLE
350
F
  3
ACAD_MLINESTYLE
350
10
  3
ACAD_PLOTSETTINGS
350
11
  3
ACAD_PLOTSTYLENAME
350
12
  3
ACAD_SCALELIST
350
14
  3
ACAD_TABLESTYLE
350
15
  3
ACAD_VISUALSTYLE
350
16
  3
EZDXF_META
350
2D
  0
DICTIONARY
  5
B
330
A
100
AcDbDictionary
281
1
  0
DICTIONARY
  5
C
330
A
100
AcDbDictionary
281
1
  0
DICTIONARY
  5
D
330
A
100
AcDbDictionary
281
1
  3
Model
350
1A
  3
Layout1
350
1E
  0
DICTIONARY
  5
E
330
A
100
AcDbDictionary
281
1
  3
ByBlock
350
1F
  3
ByLayer
350
20
  3
Global
350
21
  0
DICTIONARY
  5
F
330
A
100
AcDbDictionary
281
1
  3
Standard
350
2C
  0
DICTIONARY
  5
10
330
A
100
AcDbDictionary
281
1
  3
Standard
350
22
  0
DICTIONARY
  5
11
330
A
100
AcDbDictionary
281
1
  0
ACDBDICTIONARYWDFLT
  5
12
330
A
100
AcDbDictionary
281
1
  3
Normal
350
13
100
AcDbDictionaryWithDefault
340
13
  0
ACDBPLACEHOLDER
  5
13
330
12
  0
DICTIONARY
  5
14
330
A
100
AcDbDictionary
281
1
  0
DICTIONARY
  5
15
330
A
100
AcDbDictionary
281
1
  0
DICTIONARY
  5
16
330
A
100
AcDbDictionary
281
1
  3
2dWireframe
350
5A
  3
Basic
350
5B
  3
Brighten
350
5C
  3
ColorChange
350
5D
  3
Conceptual
350
5E
  3
Dim
350
5F
  3
EdgeColorOff
350
60
  3
Facepattern
350
61
  3
Flat
350
62
  3
FlatWithEdges
350
63
  3
Gouraud
350
64
  3
GouraudWithEdges
350
65
  3
Hidden
350
66
  3
JitterOff
350
67
  3
Linepattern
350
68
  3
Modeling
350
69
  3
OverhangOff
350
6A
  3
Realistic
350
6B
  3
Shaded
350
6C
  3
Shaded with edges
350
6D
  3
Shades of Gray
350
6E
  3
Sketchy
350
6F
  3
Thicken
350
70
  3
Wireframe
350
71
  3
X-Ray
350
72
  0
LAYOUT
  5
1A
330
D
100
AcDbPlotSettings
  1

  4
A3
  6

 40
7.5
 41
20.0
 42
7.5
 43
20.0
 44
420.0
 45
297.0
 46
0.0
 47
0.0
 48
0.0
 49
0.0
140
0.0
141
0.0
142
1.0
143
1.0
 70
1024
 72
1
 73
0
 74
5
  7

 75
16
 76
0
 77
2
 78
300
147
1.0
148
0.0
149
0.0
100
AcDbLayout
  1
Model
 70
1
 71
0
 10
0.0
 20
0.0
 11
420.0
 21
297.0
 12
0.0
 22
0.0
 32
0.0
 14
1e+20
 24
1e+20
 34
1e+20
 15
-1e+20
 25
-1e+20
 35
-1e+20
146
0.0
 13
0.0
 23
0.0
 33
0.0
 16
1.0
 26
0.0
 36
0.0
 17
0.0
 27
1.0
 37
0.0
 76
1
330
17
  0
LAYOUT
  5
1E
330
D
100
AcDbPlotSettings
  1

  4
A3
  6

 40
7.5
 41
20.0
 42
7.5
 43
20.0
 44
420.0
 45
297.0
 46
0.0
 47
0.0
 48
0.0
 49
0.0
140
0.0
141
0.0
142
1.0
143
1.0
 70
0
 72
1
 73
0
 74
5
  7

 75
16
 76
0
 77
2
 78
300
147
1.0
148
0.0
149
0.0
100
AcDbLayout
  1
Layout1
 70
1
 71
1
 10
0.0
 20
0.0
 11
420.0
 21
297.0
 12
0.0
 22
0.0
 32
0.0
 14
1e+20
 24
1e+20
 34
1e+20
 15
-1e+20
 25
-1e+20
 35
-1e+20
146
0.0
 13
0.0
 23
0.0
 33
0.0
 16
1.0
 26
0.0
 36
0.0
 17
0.0
 27
1.0
 37
0.0
 76
1
330
1B
  0
MATERIAL
  5
1F
102
{ACAD_REACTORS
330
E
102
}
330
E
100
AcDbMaterial
  1
ByBlock
  2

 70
0
 40
1.0
 71
1
 41
1.0
 91
-1023410177
 42
1.0
 72
1
  3

 73
1
 74
1
 75
1
 44
0.5
 73
0
 45
1.0
 46
1.0
 77
1
  4

 78
1
 79
1
170
1
 48
1.0
171
1
  6

172
1
173
1
174
1
140
1.0
141
1.0
175
1
  7

176
1
177
1
178
1
143
1.0
179
1
  8

270
1
271
1
272
1
145
1.0
146
1.0
273
1
  9

274
1
275
1
276
1
 42
1.0
 72
1
  3

 73
1
 74
1
 75
1
 94
63
  0
MATERIAL
  5
20
102
{ACAD_REACTORS
330
E
102
}
330
E
100
AcDbMaterial
  1
ByLayer
  2

 70
0
 40
1.0
 71
1
 41
1.0
 91
-1023410177
 42
1.0
 72
1
  3

 73
1
 74
1
 75
1
 44
0.5
 73
0
 45
1.0
 46
1.0
 77
1
  4

 78
1
 79
1
170
1
 48
1.0
171
1
  6

172
1
173
1
174
1
140
1.0
141
1.0
175
1
  7

176
1
177
1
178
1
143
1.0
179
1
  8

270
1
271
1
272
1
145
1.0
146
1.0
273
1
  9

274
1
275
1
276
1
 42
1.0
 72
1
  3

 73
1
 74
1
 75
1
 94
63
  0
MATERIAL
  5
21
102
{ACAD_REACTORS
330
E
102
}
330
E
100
AcDbMaterial
  1
Global
  2

 70
0
 40
1.0
 71
1
 41
1.0
 91
-1023410177
 42
1.0
 72
1
  3

 73
1
 74
1
 75
1
 44
0.5
 73
0
 45
1.0
 46
1.0
 77
1
  4

 78
1
 79
1
170
1
 48
1.0
171
1
  6

172
1
173
1
174
1
140
1.0
141
1.0
175
1
  7

176
1
177
1
178
1
143
1.0
179
1
  8

270
1
271
1
272
1
145
1.0
146
1.0
273
1
  9

274
1
275
1
276
1
 42
1.0
 72
1
  3

 73
1
 74
1
 75
1
 94
63
  0
MLINESTYLE
  5
22
102
{ACAD_REACTORS
330
10
102
}
330
10
100
AcDbMlineStyle
  2
Standard
 70
0
  3

 62
256
 51
90.0
 52
90.0
 71
2
 49
0.5
 62
256
  6
BYLAYER
 49
-0.5
 62
256
  6
BYLAYER
  0
MLEADERSTYLE
  5
2C
102
{ACAD_REACTORS
330
F
102
}
330
F
100
AcDbMLeaderStyle
179
2
170
2
171
1
172
0
 90
2
 40
0.0
 41
0.0
173
1
 91
-1056964608
 92
-2
290
1
 42
2.0
291
1
 43
8.0
  3
Standard
 44
4.0
300

342
29
174
1
175
1
176
0
178
1
 93
-1056964608
 45
4.0
292
0
297
0
 46
4.0
 94
-1056964608
 47
1.0
 49
1.0
140
1.0
294
1
141
0.0
177
0
142
1.0
295
0
296
0
143
3.75
271
0
272
9
273
9
  0
DICTIONARY
  5
2D
330
A
100
AcDbDictionary
280
1
281
1
  3
CREATED_BY_EZDXF
350
2E
  3
WRITTEN_BY_EZDXF
350
15F
  0
DICTIONARYVAR
  5
2E
330
2D
100
DictionaryVariables
280
0
  1
1.4.4 @ 2026-09-23T12:14:16.348755+00:00
  0
VISUALSTYLE
  5
5A
102
{ACAD_REACTORS
330
16
102
}
330
16
100
AcDbVisualStyle
  2
2dWireframe
 70
4
177
3
291
0
 70
58
 90
2
176
1
 90
2
176
1
 90
0
176
1
 90
0
176
1
 40
0.6
176
1
 40
30.0
176
1
 62
7
420
16777215
176
1
 90
1
176
1
 90
4
176
1
 62
7
176
1
 62
257
176
1
 90
1
176
1
 90
1
176
1
 40
1.0
176
1
 90
8
176
1
 62
7
176
1
 40
1.0
176
1
 90
1
176
1
 90
6
176
1
 90
2
176
1
 62
7
176
1
 90
5
176
1
 90
0
176
1
 90
0
176
1
290
0
176
1
 90
1
176
1
 40
0.0
176
1
 90
0
176
1
290
1
176
1
290
1
176
1
290
0
176
1
290
0
176
1
290
0
176
1
290
0
176
1
290
0
176
1
290
0
176
1
290
0
176
1
 90
50
176
1
 40
0.0
176
1
 40
1.0
176
1
 90
0
176
1
 62
18
420
0
176
1
 90
50
176
1
 90
3
176
1
 62
5
420
255
176
1
290
0
176
1
 90
50
176
1
 90
50
176
1
 90
50
176
1
290
0
176
1
 90
50
176
1
 62
256
176
0
 40
1.0
176
0
 90
2
176
1
  1
strokes_ogs.tif
176
1
290
0
176
1
 40
1.0
176
1
 40
1.0
176
1
  0
VISUALSTYLE
  5
5B
102
{ACAD_REACTORS
330
16
102
}
330
16
100
AcDbVisualStyle
  2
Basic
 70
7
177
3
291
1
 70
58
 90
2
176
1
 90
2
176
1
 90
0
176
1
 90
1
176
1
 40
0.6
176
1
 40
30.0
176
1
 62
7
420
16777215
176
1
 90
1
176
1
 90
4
176
1
 62
7
176
1
 62
257
176
1
 90
1
176
1
 90
1
176
1
 40
1.0
176
1
 90
8
176
1
 62
7
176
1
 40
1.0
176
1
 90
1
176
1
 90
6
176
1
 90
2
176
1
 62
7
176
1
 90
5
176
1
 90
0
176
1
 90
0
176
1
290
0
176
1
 90
1
176
1
 40
0.0
176
1
 90
0
176
1
290
0
176
1
290
1
176
1
290
1
176
1
290
0
176
1
290
0
176
1
290
0
176
1
290
0
176
1
290
0
176
1
290
0
176
1
 90
50
176
1
 40
0.0
176
1
 40
1.0
176
1
 90
0
176
1
 62
18
420
0
176
1
 90
50
176
1
 90
3
176
1
 62
5
420
255
176
1
290
0
176
1
 90
50
176
1
 90
50
176
1
 90
50
176
1
290
0
176
1
 90
50
176
1
 62
256
176
0
 40
1.0
176
0
 90
2
176
1
  1
strokes_ogs.tif
176
1
290
0
176
1
 40
1.0
176
1
 40
1.0
176
1
  0
VISUALSTYLE
  5
5C
102
{ACAD_REACTORS
330
16
102
}
330
16
100
AcDbVisualStyle
  2
Brighten
 70
12
177
3
291
1
 70
58
 90
2
176
1
 90
2
176
1
 90
0
176
1
 90
2
176
1
 40
0.6
176
1
 40
30.0
176
1
 62
7
420
16777215
176
1
 90
1
176
1
 90
4
176
1
 62
7
176
1
 62
257
176
1
 90
1
176
1
 90
1
176
1
 40
1.0
176
1
 90
8
176
1
 62
7
176
1
 40
1.0
176
1
 90
1
176
1
 90
6
176
1
 90
2
176
1
 62
7
176
1
 90
5
176
1
 90
0
176
1
 90
0
176
1
290
0
176
1
 90
1
176
1
 40
0.0
176
1
 90
0
176
1
290
0
176
1
290
1
176
1
290
1
176
1
290
0
176
1
290
0
176
1
290
0
176
1
290
0
176
1
290
0
176
1
290
0
176
1
 90
50
176
1
 40
0.0
176
1
 40
1.0
176
1
 90
0
176
1
 62
18
420
0
176
1
 90
50
176
1
 90
3
176
1
 62
5
420
255
176
1
290
0
176
1
 90
50
176
1
 90
50
176
1
 90
50
176
1
290
0
176
1
 90
50
176
1
 62
256
176
0
 40
1.0
176
0
 90
2
176
1
  1
strokes_ogs.tif
176
1
290
0
176
1
 40
1.0
176
1
 40
1.0
176
1
  0
VISUALSTYLE
  5
5D
102
{ACAD_REACTORS
330
16
102
}
330
16
100
AcDbVisualStyle
  2
ColorChange
 70
16
177
3
291
1
 70
58
 90
2
176
1
 90
2
176
1
 90
0
176
1
 90
2
176
1
 40
0.6
176
1
 40
30.0
176
1
 62
7
420
16777215
176
1
 90
1
176
1
 90
4
176
1
 62
7
176
1
 62
257
176
1
 90
1
176
1
 90
1
176
1
 40
1.0
176
1
 90
8
176
1
 62
7
176
1
 40
1.0
176
1
 90
1
176
1
 90
6
176
1
 90
2
176
1
 62
7
176
1
 90
5
176
1
 90
0
176
1
 90
0
176
1
290
0
176
1
 90
1
176
1
 40
0.0
176
1
 90
0
176
1
290
0
176
1
290
1
176
1
290
1
176
1
290
0
176
1
290
0
176
1
290
0
176
1
290
0
176
1
290
0
176
1
290
0
176
1
 90
50
176
1
 40
0.0
176
1
 40
1.0
176
1
 90
0
176
1
 62
18
420
0
176
1
 90
50
176
1
 90
3
176
1
 62
5
420
255
176
1
290
0
176
1
 90
50
176
1
 90
50
176
1
 90
50
176
1
290
0
176
1
 90
50
176
1
 62
256
176
0
 40
1.0
176
0
 90
2
176
1
  1
strokes_ogs.tif
176
1
290
0
176
1
 40
1.0
176
1
 40
1.0
176
1
  0
VISUALSTYLE
  5
5E
102
{ACAD_REACTORS
330
16
102
}
330
16
100
AcDbVisualStyle
  2
Conceptual
 70
9
177
3
291
0
 70
58
 90
2
176
1
 90
2
176
1
 90
0
176
1
 90
3
176
1
 40
0.6
176
1
 40
30.0
176
1
 62
7
420
16777215
176
1
 90
1
176
1
 90
4
176
1
 62
7
176
1
 62
257
176
1
 90
1
176
1
 90
1
176
1
 40
1.0
176
1
 90
8
176
1
 62
7
176
1
 40
1.0
176
1
 90
1
176
1
 90
6
176
1
 90
2
176
1
 62
7
176
1
 90
5
176
1
 90
0
176
1
 90
0
176
1
290
0
176
1
 90
1
176
1
 40
0.0
176
1
 90
0
176
1
290
0
176
1
290
1
176
1
290
1
176
1
290
0
176
1
290
0
176
1
290
0
176
1
290
0
176
1
290
0
176
1
290
0
176
1
 90
50
176
1
 40
0.0
176
1
 40
1.0
176
1
 90
0
176
1
 62
18
420
0
176
1
 90
50
176
1
 90
3
176
1
 62
5
420
255
176
1
290
0
176
1
 90
50
176
1
 90
50
176
1
 90
50
176
1
290
0
176
1
 90
50
176
1
 62
256
176
0
 40
1.0
176
0
 90
2
176
1
  1
strokes_ogs.tif
176
1
290
0
176
1
 40
1.0
176
1
 40
1.0
176
1
  0
VISUALSTYLE
  5
5F
102
{ACAD_REACTORS
330
16
102
}
330
16
100
AcDbVisualStyle
  2
Dim
 70
11
177
3
291
1
 70
58
 90
2
176
1
 90
2
176
1
 90
0
176
1
 90
2
176
1
 40
0.6
176
1
 40
30.0
176
1
 62
7
420
16777215
176
1
 90
1
176
1
 90
4
176
1
 62
7
176
1
 62
257
176
1
 90
1
176
1
 90
1
176
1
 40
1.0
176
1
 90
8
176
1
 62
7
176
1
 40
1.0
176
1
 90
1
176
1
 90
6
176
1
 90
2
176
1
 62
7
176
1
 90
5
176
1
 90
0
176
1
 90
0
176
1
290
0
176
1
 90
1
176
1
 40
0.0
176
1
 90
0
176
1
290
0
176
1
290
1
176
1
290
1
176
1
290
0
176
1
290
0
176
1
290
0
176
1
290
0
176
1
290
0
176
1
290
0
176
1
 90
50
176
1
 40
0.0
176
1
 40
1.0
176
1
 90
0
176
1
 62
18
420
0
176
1
 90
50
176
1
 90
3
176
1
 62
5
420
255
176
1
290
0
176
1
 90
50
176
1
 90
50
176
1
 90
50
176
1
290
0
176
1
 90
50
176
1
 62
256
176
0
 40
1.0
176
0
 90
2
176
1
  1
strokes_ogs.tif
176
1
290
0
176
1
 40
1.0
176
1
 40
1.0
176
1
  0
VISUALSTYLE
  5
60
102
{ACAD_REACTORS
330
16
102
}
330
16
100
AcDbVisualStyle
  2
EdgeColorOff
 70
22
177
3
291
1
 70
58
 90
2
176
1
 90
2
176
1
 90
0
176
1
 90
2
176
1
 40
0.6
176
1
 40
30.0
176
1
 62
7
420
16777215
176
1
 90
1
176
1
 90
4
176
1
 62
7
176
1
 62
257
176
1
 90
1
176
1
 90
1
176
1
 40
1.0
176
1
 90
8
176
1
 62
7
176
1
 40
1.0
176
1
 90
1
176
1
 90
6
176
1
 90
2
176
1
 62
7
176
1
 90
5
176
1
 90
0
176
1
 90
0
176
1
290
0
176
1
 90
1
176
1
 40
0.0
176
1
 90
0
176
1
290
0
176
1
290
1
176
1
290
1
176
1
290
0
176
1
290
0
176
1
290
0
176
1
290
0
176
1
290
0
176
1
290
0
176
1
 90
50
176
1
 40
0.0
176
1
 40
1.0
176
1
 90
0
176
1
 62
18
420
0
176
1
 90
50
176
1
 90
3
176
1
 62
5
420
255
176
1
290
0
176
1
 90
50
176
1
 90
50
176
1
 90
50
176
1
290
0
176
1
 90
50
176
1
 62
256
176
0
 40
1.0
176
0
 90
2
176
1
  1
strokes_ogs.tif
176
1
290
0
176
1
 40
1.0
176
1
 40
1.0
176
1
  0
VISUALSTYLE
  5
61
102
{ACAD_REACTORS
330
16
102
}
330
16
100
AcDbVisualStyle
  2
Facepattern
 70
15
177
3
291
1
 70
58
 90
2
176
1
 90
2
176
1
 90
0
176
1
 90
2
176
1
 40
0.6
176
1
 40
30.0
176
1
 62
7
420
16777215
176
1
 90
1
176
1
 90
4
176
1
 62
7
176
1
 62
257
176
1
 90
1
176
1
 90
1
176
1
 40
1.0
176
1
 90
8
176
1
 62
7
176
1
 40
1.0
176
1
 90
1
176
1
 90
6
176
1
 90
2
176
1
 62
7
176
1
 90
5
176
1
 90
0
176
1
 90
0
176
1
290
0
176
1
 90
1
176
1
 40
0.0
176
1
 90
0
176
1
290
0
176
1
290
1
176
1
290
1
176
1
290
0
176
1
290
0
176
1
290
0
176
1
290
0
176
1
290
0
176
1
290
0
176
1
 90
50
176
1
 40
0.0
176
1
 40
1.0
176
1
 90
0
176
1
 62
18
420
0
176
1
 90
50
176
1
 90
3
176
1
 62
5
420
255
176
1
290
0
176
1
 90
50
176
1
 90
50
176
1
 90
50
176
1
290
0
176
1
 90
50
176
1
 62
256
176
0
 40
1.0
176
0
 90
2
176
1
  1
strokes_ogs.tif
176
1
290
0
176
1
 40
1.0
176
1
 40
1.0
176
1
  0
VISUALSTYLE
  5
62
102
{ACAD_REACTORS
330
16
102
}
330
16
100
AcDbVisualStyle
  2
Flat
 70
0
177
3
291
1
 70
58
 90
2
176
1
 90
2
176
1
 90
0
176
1
 90
2
176
1
 40
0.6
176
1
 40
30.0
176
1
 62
7
420
16777215
176
1
 90
1
176
1
 90
4
176
1
 62
7
176
1
 62
257
176
1
 90
1
176
1
 90
1
176
1
 40
1.0
176
1
 90
8
176
1
 62
7
176
1
 40
1.0
176
1
 90
1
176
1
 90
6
176
1
 90
2
176
1
 62
7
176
1
 90
5
176
1
 90
0
176
1
 90
0
176
1
290
0
176
1
 90
1
176
1
 40
0.0
176
1
 90
0
176
1
290
0
176
1
290
1
176
1
290
1
176
1
290
0
176
1
290
0
176
1
290
0
176
1
290
0
176
1
290
0
176
1
290
0
176
1
 90
50
176
1
 40
0.0
176
1
 40
1.0
176
1
 90
0
176
1
 62
18
420
0
176
1
 90
50
176
1
 90
3
176
1
 62
5
420
255
176
1
290
0
176
1
 90
50
176
1
 90
50
176
1
 90
50
176
1
290
0
176
1
 90
50
176
1
 62
256
176
0
 40
1.0
176
0
 90
2
176
1
  1
strokes_ogs.tif
176
1
290
0
176
1
 40
1.0
176
1
 40
1.0
176
1
  0
VISUALSTYLE
  5
63
102
{ACAD_REACTORS
330
16
102
}
330
16
100
AcDbVisualStyle
  2
FlatWithEdges
 70
1
177
3
291
1
 70
58
 90
2
176
1
 90
2
176
1
 90
0
176
1
 90
2
176
1
 40
0.6
176
1
 40
30.0
176
1
 62
7
420
16777215
176
1
 90
1
176
1
 90
4
176
1
 62
7
176
1
 62
257
176
1
 90
1
176
1
 90
1
176
1
 40
1.0
176
1
 90
8
176
1
 62
7
176
1
 40
1.0
176
1
 90
1
176
1
 90
6
176
1
 90
2
176
1
 62
7
176
1
 90
5
176
1
 90
0
176
1
 90
0
176
1
290
0
176
1
 90
1
176
1
 40
0.0
176
1
 90
0
176
1
290
0
176
1
290
1
176
1
290
1
176
1
290
0
176
1
290
0
176
1
290
0
176
1
290
0
176
1
290
0
176
1
290
0
176
1
 90
50
176
1
 40
0.0
176
1
 40
1.0
176
1
 90
0
176
1
 62
18
420
0
176
1
 90
50
176
1
 90
3
176
1
 62
5
420
255
176
1
290
0
176
1
 90
50
176
1
 90
50
176
1
 90
50
176
1
290
0
176
1
 90
50
176
1
 62
256
176
0
 40
1.0
176
0
 90
2
176
1
  1
strokes_ogs.tif
176
1
290
0
176
1
 40
1.0
176
1
 40
1.0
176
1
  0
VISUALSTYLE
  5
64
102
{ACAD_REACTORS
330
16
102
}
330
16
100
AcDbVisualStyle
  2
Gouraud
 70
2
177
3
291
1
 70
58
 90
2
176
1
 90
2
176
1
 90
0
176
1
 90
2
176
1
 40
0.6
176
1
 40
30.0
176
1
 62
7
420
16777215
176
1
 90
1
176
1
 90
4
176
1
 62
7
176
1
 62
257
176
1
 90
1
176
1
 90
1
176
1
 40
1.0
176
1
 90
8
176
1
 62
7
176
1
 40
1.0
176
1
 90
1
176
1
 90
6
176
1
 90
2
176
1
 62
7
176
1
 90
5
176
1
 90
0
176
1
 90
0
176
1
290
0
176
1
 90
1
176
1
 40
0.0
176
1
 90
0
176
1
290
0
176
1
290
1
176
1
290
1
176
1
290
0
176
1
290
0
176
1
290
0
176
1
290
0
176
1
290
0
176
1
290
0
176
1
 90
50
176
1
 40
0.0
176
1
 40
1.0
176
1
 90
0
176
1
 62
18
420
0
176
1
 90
50
176
1
 90
3
176
1
 62
5
420
255
176
1
290
0
176
1
 90
50
176
1
 90
50
176
1
 90
50
176
1
290
0
176
1
 90
50
176
1
 62
256
176
0
 40
1.0
176
0
 90
2
176
1
  1
strokes_ogs.tif
176
1
290
0
176
1
 40
1.0
176
1
 40
1.0
176
1
  0
VISUALSTYLE
  5
65
102
{ACAD_REACTORS
330
16
102
}
330
16
100
AcDbVisualStyle
  2
GouraudWithEdges
 70
3
177
3
291
1
 70
58
 90
2
176
1
 90
2
176
1
 90
0
176
1
 90
2
176
1
 40
0.6
176
1
 40
30.0
176
1
 62
7
420
16777215
176
1
 90
1
176
1
 90
4
176
1
 62
7
176
1
 62
257
176
1
 90
1
176
1
 90
1
176
1
 40
1.0
176
1
 90
8
176
1
 62
7
176
1
 40
1.0
176
1
 90
1
176
1
 90
6
176
1
 90
2
176
1
 62
7
176
1
 90
5
176
1
 90
0
176
1
 90
0
176
1
290
0
176
1
 90
1
176
1
 40
0.0
176
1
 90
0
176
1
290
0
176
1
290
1
176
1
290
1
176
1
290
0
176
1
290
0
176
1
290
0
176
1
290
0
176
1
290
0
176
1
290
0
176
1
 90
50
176
1
 40
0.0
176
1
 40
1.0
176
1
 90
0
176
1
 62
18
420
0
176
1
 90
50
176
1
 90
3
176
1
 62
5
420
255
176
1
290
0
176
1
 90
50
176
1
 90
50
176
1
 90
50
176
1
290
0
176
1
 90
50
176
1
 62
256
176
0
 40
1.0
176
0
 90
2
176
1
  1
strokes_ogs.tif
176
1
290
0
176
1
 40
1.0
176
1
 40
1.0
176
1
  0
VISUALSTYLE
  5
66
102
{ACAD_REACTORS
330
16
102
}
330
16
100
AcDbVisualStyle
  2
Hidden
 70
6
177
3
291
0
 70
58
 90
2
176
1
 90
2
176
1
 90
0
176
1
 90
1
176
1
 40
0.6
176
1
 40
30.0
176
1
 62
7
420
16777215
176
1
 90
1
176
1
 90
4
176
1
 62
7
176
1
 62
257
176
1
 90
1
176
1
 90
1
176
1
 40
1.0
176
1
 90
8
176
1
 62
7
176
1
 40
1.0
176
1
 90
1
176
1
 90
6
176
1
 90
2
176
1
 62
7
176
1
 90
5
176
1
 90
0
176
1
 90
0
176
1
290
0
176
1
 90
1
176
1
 40
0.0
176
1
 90
0
176
1
290
0
176
1
290
1
176
1
290
1
176
1
290
0
176
1
290
0
176
1
290
0
176
1
290
0
176
1
290
0
176
1
290
0
176
1
 90
50
176
1
 40
0.0
176
1
 40
1.0
176
1
 90
0
176
1
 62
18
420
0
176
1
 90
50
176
1
 90
3
176
1
 62
5
420
255
176
1
290
0
176
1
 90
50
176
1
 90
50
176
1
 90
50
176
1
290
0
176
1
 90
50
176
1
 62
256
176
0
 40
1.0
176
0
 90
2
176
1
  1
strokes_ogs.tif
176
1
290
0
176
1
 40
1.0
176
1
 40
1.0
176
1
  0
VISUALSTYLE
  5
67
102
{ACAD_REACTORS
330
16
102
}
330
16
100
AcDbVisualStyle
  2
JitterOff
 70
20
177
3
291
1
 70
58
 90
2
176
1
 90
2
176
1
 90
0
176
1
 90
2
176
1
 40
0.6
176
1
 40
30.0
176
1
 62
7
420
16777215
176
1
 90
1
176
1
 90
4
176
1
 62
7
176
1
 62
257
176
1
 90
1
176
1
 90
1
176
1
 40
1.0
176
1
 90
8
176
1
 62
7
176
1
 40
1.0
176
1
 90
1
176
1
 90
6
176
1
 90
2
176
1
 62
7
176
1
 90
5
176
1
 90
0
176
1
 90
0
176
1
290
0
176
1
 90
1
176
1
 40
0.0
176
1
 90
0
176
1
290
0
176
1
290
1
176
1
290
1
176
1
290
0
176
1
290
0
176
1
290
0
176
1
290
0
176
1
290
0
176
1
290
0
176
1
 90
50
176
1
 40
0.0
176
1
 40
1.0
176
1
 90
0
176
1
 62
18
420
0
176
1
 90
50
176
1
 90
3
176
1
 62
5
420
255
176
1
290
0
176
1
 90
50
176
1
 90
50
176
1
 90
50
176
1
290
0
176
1
 90
50
176
1
 62
256
176
0
 40
1.0
176
0
 90
2
176
1
  1
strokes_ogs.tif
176
1
290
0
176
1
 40
1.0
176
1
 40
1.0
176
1
  0
VISUALSTYLE
  5
68
102
{ACAD_REACTORS
330
16
102
}
330
16
100
AcDbVisualStyle
  2
Linepattern
 70
14
177
3
291
1
 70
58
 90
2
176
1
 90
2
176
1
 90
0
176
1
 90
2
176
1
 40
0.6
176
1
 40
30.0
176
1
 62
7
420
16777215
176
1
 90
1
176
1
 90
4
176
1
 62
7
176
1
 62
257
176
1
 90
1
176
1
 90
1
176
1
 40
1.0
176
1
 90
8
176
1
 62
7
176
1
 40
1.0
176
1
 90
1
176
1
 90
6
176
1
 90
2
176
1
 62
7
176
1
 90
5
176
1
 90
0
176
1
 90
0
176
1
290
0
176
1
 90
1
176
1
 40
0.0
176
1
 90
0
176
1
290
0
176
1
290
1
176
1
290
1
176
1
290
0
176
1
290
0
176
1
290
0
176
1
290
0
176
1
290
0
176
1
290
0
176
1
 90
50
176
1
 40
0.0
176
1
 40
1.0
176
1
 90
0
176
1
 62
18
420
0
176
1
 90
50
176
1
 90
3
176
1
 62
5
420
255
176
1
290
0
176
1
 90
50
176
1
 90
50
176
1
 90
50
176
1
290
0
176
1
 90
50
176
1
 62
256
176
0
 40
1.0
176
0
 90
2
176
1
  1
strokes_ogs.tif
176
1
290
0
176
1
 40
1.0
176
1
 40
1.0
176
1
  0
VISUALSTYLE
  5
69
102
{ACAD_REACTORS
330
16
102
}
330
16
100
AcDbVisualStyle
  2
Modeling
 70
10
177
3
291
0
 70
58
 90
2
176
1
 90
2
176
1
 90
0
176
1
 90
2
176
1
 40
0.6
176
1
 40
30.0
176
1
 62
7
420
16777215
176
1
 90
1
176
1
 90
4
176
1
 62
7
176
1
 62
257
176
1
 90
1
176
1
 90
1
176
1
 40
1.0
176
1
 90
8
176
1
 62
7
176
1
 40
1.0
176
1
 90
1
176
1
 90
6
176
1
 90
2
176
1
 62
7
176
1
 90
5
176
1
 90
0
176
1
 90
0
176
1
290
0
176
1
 90
1
176
1
 40
0.0
176
1
 90
0
176
1
290
0
176
1
290
1
176
1
290
1
176
1
290
0
176
1
290
0
176
1
290
0
176
1
290
0
176
1
290
0
176
1
290
0
176
1
 90
50
176
1
 40
0.0
176
1
 40
1.0
176
1
 90
0
176
1
 62
18
420
0
176
1
 90
50
176
1
 90
3
176
1
 62
5
420
255
176
1
290
0
176
1
 90
50
176
1
 90
50
176
1
 90
50
176
1
290
0
176
1
 90
50
176
1
 62
256
176
0
 40
1.0
176
0
 90
2
176
1
  1
strokes_ogs.tif
176
1
290
0
176
1
 40
1.0
176
1
 40
1.0
176
1
  0
VISUALSTYLE
  5
6A
102
{ACAD_REACTORS
330
16
102
}
330
16
100
AcDbVisualStyle
  2
OverhangOff
 70
21
177
3
291
1
 70
58
 90
2
176
1
 90
2
176
1
 90
0
176
1
 90
2
176
1
 40
0.6
176
1
 40
30.0
176
1
 62
7
420
16777215
176
1
 90
1
176
1
 90
4
176
1
 62
7
176
1
 62
257
176
1
 90
1
176
1
 90
1
176
1
 40
1.0
176
1
 90
8
176
1
 62
7
176
1
 40
1.0
176
1
 90
1
176
1
 90
6
176
1
 90
2
176
1
 62
7
176
1
 90
5
176
1
 90
0
176
1
 90
0
176
1
290
0
176
1
 90
1
176
1
 40
0.0
176
1
 90
0
176
1
290
0
176
1
290
1
176
1
290
1
176
1
290
0
176
1
290
0
176
1
290
0
176
1
290
0
176
1
290
0
176
1
290
0
176
1
 90
50
176
1
 40
0.0
176
1
 40
1.0
176
1
 90
0
176
1
 62
18
420
0
176
1
 90
50
176
1
 90
3
176
1
 62
5
420
255
176
1
290
0
176
1
 90
50
176
1
 90
50
176
1
 90
50
176
1
290
0
176
1
 90
50
176
1
 62
256
176
0
 40
1.0
176
0
 90
2
176
1
  1
strokes_ogs.tif
176
1
290
0
176
1
 40
1.0
176
1
 40
1.0
176
1
  0
VISUALSTYLE
  5
6B
102
{ACAD_REACTORS
330
16
102
}
330
16
100
AcDbVisualStyle
  2
Realistic
 70
8
177
3
291
0
 70
58
 90
2
176
1
 90
2
176
1
 90
0
176
1
 90
2
176
1
 40
0.6
176
1
 40
30.0
176
1
 62
7
420
16777215
176
1
 90
1
176
1
 90
4
176
1
 62
7
176
1
 62
257
176
1
 90
1
176
1
 90
1
176
1
 40
1.0
176
1
 90
8
176
1
 62
7
176
1
 40
1.0
176
1
 90
1
176
1
 90
6
176
1
 90
2
176
1
 62
7
176
1
 90
5
176
1
 90
0
176
1
 90
0
176
1
290
0
176
1
 90
1
176
1
 40
0.0
176
1
 90
0
176
1
290
0
176
1
290
1
176
1
290
1
176
1
290
0
176
1
290
0
176
1
290
0
176
1
290
0
176
1
290
0
176
1
290
0
176
1
 90
50
176
1
 40
0.0
176
1
 40
1.0
176
1
 90
0
176
1
 62
18
420
0
176
1
 90
50
176
1
 90
3
176
1
 62
5
420
255
176
1
290
0
176
1
 90
50
176
1
 90
50
176
1
 90
50
176
1
290
0
176
1
 90
50
176
1
 62
256
176
0
 40
1.0
176
0
 90
2
176
1
  1
strokes_ogs.tif
176
1
290
0
176
1
 40
1.0
176
1
 40
1.0
176
1
  0
VISUALSTYLE
  5
6C
102
{ACAD_REACTORS
330
16
102
}
330
16
100
AcDbVisualStyle
  2
Shaded
 70
27
177
3
291
0
 70
58
 90
2
176
1
 90
2
176
1
 90
0
176
1
 90
2
176
1
 40
0.6
176
1
 40
30.0
176
1
 62
7
420
16777215
176
1
 90
1
176
1
 90
4
176
1
 62
7
176
1
 62
257
176
1
 90
1
176
1
 90
1
176
1
 40
1.0
176
1
 90
8
176
1
 62
7
176
1
 40
1.0
176
1
 90
1
176
1
 90
6
176
1
 90
2
176
1
 62
7
176
1
 90
5
176
1
 90
0
176
1
 90
0
176
1
290
0
176
1
 90
1
176
1
 40
0.0
176
1
 90
0
176
1
290
0
176
1
290
1
176
1
290
1
176
1
290
0
176
1
290
0
176
1
290
0
176
1
290
0
176
1
290
0
176
1
290
0
176
1
 90
50
176
1
 40
0.0
176
1
 40
1.0
176
1
 90
0
176
1
 62
18
420
0
176
1
 90
50
176
1
 90
3
176
1
 62
5
420
255
176
1
290
0
176
1
 90
50
176
1
 90
50
176
1
 90
50
176
1
290
0
176
1
 90
50
176
1
 62
256
176
0
 40
1.0
176
0
 90
2
176
1
  1
strokes_ogs.tif
176
1
290
0
176
1
 40
1.0
176
1
 40
1.0
176
1
  0
VISUALSTYLE
  5
6D
102
{ACAD_REACTORS
330
16
102
}
330
16
100
AcDbVisualStyle
  2
Shaded with edges
 70
26
177
3
291
0
 70
58
 90
2
176
1
 90
2
176
1
 90
0
176
1
 90
2
176
1
 40
0.6
176
1
 40
30.0
176
1
 62
7
420
16777215
176
1
 90
1
176
1
 90
4
176
1
 62
7
176
1
 62
257
176
1
 90
1
176
1
 90
1
176
1
 40
1.0
176
1
 90
8
176
1
 62
7
176
1
 40
1.0
176
1
 90
1
176
1
 90
6
176
1
 90
2
176
1
 62
7
176
1
 90
5
176
1
 90
0
176
1
 90
0
176
1
290
0
176
1
 90
1
176
1
 40
0.0
176
1
 90
0
176
1
290
0
176
1
290
1
176
1
290
1
176
1
290
0
176
1
290
0
176
1
290
0
176
1
290
0
176
1
290
0
176
1
290
0
176
1
 90
50
176
1
 40
0.0
176
1
 40
1.0
176
1
 90
0
176
1
 62
18
420
0
176
1
 90
50
176
1
 90
3
176
1
 62
5
420
255
176
1
290
0
176
1
 90
50
176
1
 90
50
176
1
 90
50
176
1
290
0
176
1
 90
50
176
1
 62
256
176
0
 40
1.0
176
0
 90
2
176
1
  1
strokes_ogs.tif
176
1
290
0
176
1
 40
1.0
176
1
 40
1.0
176
1
  0
VISUALSTYLE
  5
6E
102
{ACAD_REACTORS
330
16
102
}
330
16
100
AcDbVisualStyle
  2
Shades of Gray
 70
23
177
3
291
0
 70
58
 90
2
176
1
 90
2
176
1
 90
0
176
1
 90
2
176
1
 40
0.6
176
1
 40
30.0
176
1
 62
7
420
16777215
176
1
 90
1
176
1
 90
4
176
1
 62
7
176
1
 62
257
176
1
 90
1
176
1
 90
1
176
1
 40
1.0
176
1
 90
8
176
1
 62
7
176
1
 40
1.0
176
1
 90
1
176
1
 90
6
176
1
 90
2
176
1
 62
7
176
1
 90
5
176
1
 90
0
176
1
 90
0
176
1
290
0
176
1
 90
1
176
1
 40
0.0
176
1
 90
0
176
1
290
0
176
1
290
1
176
1
290
1
176
1
290
0
176
1
290
0
176
1
290
0
176
1
290
0
176
1
290
0
176
1
290
0
176
1
 90
50
176
1
 40
0.0
176
1
 40
1.0
176
1
 90
0
176
1
 62
18
420
0
176
1
 90
50
176
1
 90
3
176
1
 62
5
420
255
176
1
290
0
176
1
 90
50
176
1
 90
50
176
1
 90
50
176
1
290
0
176
1
 90
50
176
1
 62
256
176
0
 40
1.0
176
0
 90
2
176
1
  1
strokes_ogs.tif
176
1
290
0
176
1
 40
1.0
176
1
 40
1.0
176
1
  0
VISUALSTYLE
  5
6F
102
{ACAD_REACTORS
330
16
102
}
330
16
100
AcDbVisualStyle
  2
Sketchy
 70
24
177
3
291
0
 70
58
 90
2
176
1
 90
2
176
1
 90
0
176
1
 90
1
176
1
 40
0.6
176
1
 40
30.0
176
1
 62
7
420
16777215
176
1
 90
1
176
1
 90
4
176
1
 62
7
176
1
 62
257
176
1
 90
1
176
1
 90
1
176
1
 40
1.0
176
1
 90
8
176
1
 62
7
176
1
 40
1.0
176
1
 90
1
176
1
 90
6
176
1
 90
2
176
1
 62
7
176
1
 90
5
176
1
 90
0
176
1
 90
0
176
1
290
0
176
1
 90
1
176
1
 40
0.0
176
1
 90
0
176
1
290
0
176
1
290
1
176
1
290
1
176
1
290
0
176
1
290
0
176
1
290
0
176
1
290
0
176
1
290
0
176
1
290
0
176
1
 90
50
176
1
 40
0.0
176
1
 40
1.0
176
1
 90
0
176
1
 62
18
420
0
176
1
 90
50
176
1
 90
3
176
1
 62
5
420
255
176
1
290
0
176
1
 90
50
176
1
 90
50
176
1
 90
50
176
1
290
0
176
1
 90
50
176
1
 62
256
176
0
 40
1.0
176
0
 90
2
176
1
  1
strokes_ogs.tif
176
1
290
0
176
1
 40
1.0
176
1
 40
1.0
176
1
  0
VISUALSTYLE
  5
70
102
{ACAD_REACTORS
330
16
102
}
330
16
100
AcDbVisualStyle
  2
Thicken
 70
13
177
3
291
1
 70
58
 90
2
176
1
 90
2
176
1
 90
0
176
1
 90
2
176
1
 40
0.6
176
1
 40
30.0
176
1
 62
7
420
16777215
176
1
 90
1
176
1
 90
4
176
1
 62
7
176
1
 62
257
176
1
 90
1
176
1
 90
1
176
1
 40
1.0
176
1
 90
8
176
1
 62
7
176
1
 40
1.0
176
1
 90
1
176
1
 90
6
176
1
 90
2
176
1
 62
7
176
1
 90
5
176
1
 90
0
176
1
 90
0
176
1
290
0
176
1
 90
1
176
1
 40
0.0
176
1
 90
0
176
1
290
0
176
1
290
1
176
1
290
1
176
1
290
0
176
1
290
0
176
1
290
0
176
1
290
0
176
1
290
0
176
1
290
0
176
1
 90
50
176
1
 40
0.0
176
1
 40
1.0
176
1
 90
0
176
1
 62
18
420
0
176
1
 90
50
176
1
 90
3
176
1
 62
5
420
255
176
1
290
0
176
1
 90
50
176
1
 90
50
176
1
 90
50
176
1
290
0
176
1
 90
50
176
1
 62
256
176
0
 40
1.0
176
0
 90
2
176
1
  1
strokes_ogs.tif
176
1
290
0
176
1
 40
1.0
176
1
 40
1.0
176
1
  0
VISUALSTYLE
  5
71
102
{ACAD_REACTORS
330
16
102
}
330
16
100
AcDbVisualStyle
  2
Wireframe
 70
5
177
3
291
0
 70
58
 90
2
176
1
 90
2
176
1
 90
0
176
1
 90
0
176
1
 40
0.6
176
1
 40
30.0
176
1
 62
7
420
16777215
176
1
 90
1
176
1
 90
4
176
1
 62
7
176
1
 62
257
176
1
 90
1
176
1
 90
1
176
1
 40
1.0
176
1
 90
8
176
1
 62
7
176
1
 40
1.0
176
1
 90
1
176
1
 90
6
176
1
 90
2
176
1
 62
7
176
1
 90
5
176
1
 90
0
176
1
 90
0
176
1
290
0
176
1
 90
1
176
1
 40
0.0
176
1
 90
0
176
1
290
0
176
1
290
1
176
1
290
1
176
1
290
0
176
1
290
0
176
1
290
0
176
1
290
0
176
1
290
0
176
1
290
0
176
1
 90
50
176
1
 40
0.0
176
1
 40
1.0
176
1
 90
0
176
1
 62
18
420
0
176
1
 90
50
176
1
 90
3
176
1
 62
5
420
255
176
1
290
0
176
1
 90
50
176
1
 90
50
176
1
 90
50
176
1
290
0
176
1
 90
50
176
1
 62
256
176
0
 40
1.0
176
0
 90
2
176
1
  1
strokes_ogs.tif
176
1
290
0
176
1
 40
1.0
176
1
 40
1.0
176
1
  0
VISUALSTYLE
  5
72
102
{ACAD_REACTORS
330
16
102
}
330
16
100
AcDbVisualStyle
  2
X-Ray
 70
25
177
3
291
0
 70
58
 90
2
176
1
 90
2
176
1
 90
0
176
1
 90
2
176
1
 40
0.5
176
1
 40
30.0
176
1
 62
7
420
16777215
176
1
 90
1
176
1
 90
4
176
1
 62
7
176
1
 62
257
176
1
 90
1
176
1
 90
1
176
1
 40
1.0
176
1
 90
8
176
1
 62
7
176
1
 40
1.0
176
1
 90
1
176
1
 90
6
176
1
 90
2
176
1
 62
7
176
1
 90
5
176
1
 90
0
176
1
 90
0
176
1
290
0
176
1
 90
1
176
1
 40
0.0
176
1
 90
0
176
1
290
0
176
1
290
1
176
1
290
1
176
1
290
0
176
1
290
0
176
1
290
0
176
1
290
0
176
1
290
0
176
1
290
0
176
1
 90
50
176
1
 40
0.0
176
1
 40
1.0
176
1
 90
0
176
1
 62
18
420
0
176
1
 90
50
176
1
 90
3
176
1
 62
5
420
255
176
1
290
0
176
1
 90
50
176
1
 90
50
176
1
 90
50
176
1
290
0
176
1
 90
50
176
1
 62
256
176
0
 40
1.0
176
0
 90
2
176
1
  1
strokes_ogs.tif
176
1
290
0
176
1
 40
1.0
176
1
 40
1.0
176
1
  0
DICTIONARYVAR
  5
15F
330
2D
100
DictionaryVariables
280
0
  1
1.4.4 @ 2026-09-23T12:14:16.417520+00:00
  0
ENDSEC
  0
EOF
