  0
SECTION
  2
HEADER
  9
$ACADVER
  1
AC1027
  9
$ACADMAINTVER
 70
105
  9
$DWGCODEPAGE
  3
ANSI_1252
  9
$LASTSAVEDBY
  1
ezdxf
  9
$REQUIREDVERSIONS
160
0
  9
$INSBASE
 10
0.0
 20
0.0
 30
0.0
  9
$EXTMIN
 10
1e+20
 20
1e+20
 30
1e+20
  9
$EXTMAX
 10
-1e+20
 20
-1e+20
 30
-1e+20
  9
$LIMMIN
 10
0.0
 20
0.0
  9
$LIMMAX
 10
420.0
 20
297.0
  9
$ORTHOMODE
 70
0
  9
$REGENMODE
 70
1
  9
$FILLMODE
 70
1
  9
$QTEXTMODE
 70
0
  9
$MIRRTEXT
 70
1
  9
$LTSCALE
 40
1.0
  9
$ATTMODE
 70
1
  9
$TEXTSIZE
 40
2.5
  9
$TRACEWID
 40
1.0
  9
$TEXTSTYLE
  7
OpenSans
  9
$CLAYER
  8
0
  9
$CELTYPE
  6
ByLayer
  9
$CECOLOR
 62
256
  9
$CELTSCALE
 40
1.0
  9
$DISPSILH
 70
0
  9
$DIMSCALE
 40
1.0
  9
$DIMASZ
 40
0.175
  9
$DIMEXO
 40
0.125
  9
$DIMDLI
 40
3.75
  9
$DIMRND
 40
0.0
  9
$DIMDLE
 40
0.0
  9
$DIMEXE
 40
0.375
  9
$DIMTP
 40
0.0
  9
$DIMTM
 40
0.0
  9
$DIMTXT
 40
0.25
  9
$DIMCEN
 40
2.5
  9
$DIMTSZ
 40
0.0
  9
$DIMTOL
 70
0
  9
$DIMLIM
 70
0
  9
$DIMTIH
 70
0
  9
$DIMTOH
 70
0
  9
$DIMSE1
 70
0
  9
$DIMSE2
 70
0
  9
$DIMTAD
 70
1
  9
$DIMZIN
 70
12
  9
$DIMBLK
  1
ARCHTICK
  9
$DIMASO
 70
1
  9
$DIMSHO
 70
1
  9
$DIMPOST
  1

  9
$DIMAPOST
  1

  9
$DIMALT
 70
0
  9
$DIMALTD
 70
3
  9
$DIMALTF
 40
0.03937007874
  9
$DIMLFAC
 40
100.0
  9
$DIMTOFL
 70
1
  9
$DIMTVP
 40
0.0
  9
$DIMTIX
 70
0
  9
$DIMSOXD
 70
0
  9
$DIMSAH
 70
0
  9
$DIMBLK1
  1

  9
$DIMBLK2
  1

  9
$DIMSTYLE
  2
EZDXF
  9
$DIMCLRD
 70
0
  9
$DIMCLRE
 70
0
  9
$DIMCLRT
 70
0
  9
$DIMTFAC
 40
0.5
  9
$DIMGAP
 40
0.1
  9
$DIMJUST
 70
0
  9
$DIMSD1
 70
0
  9
$DIMSD2
 70
0
  9
$DIMTOLJ
 70
0
  9
$DIMTZIN
 70
8
  9
$DIMALTZ
 70
0
  9
$DIMALTTZ
 70
0
  9
$DIMUPT
 70
1
  9
$DIMDEC
 70
2
  9
$DIMTDEC
 70
2
  9
$DIMALTU
 70
2
  9
$DIMALTTD
 70
3
  9
$DIMTXSTY
  7
OpenSansCondensed-Light
  9
$DIMAUNIT
 70
0
  9
$DIMADEC
 70
2
  9
$DIMALTRND
 40
0.0
  9
$DIMAZIN
 70
3
  9
$DIMDSEP
 70
46
  9
$DIMATFIT
 70
3
  9
$DIMFRAC
 70
0
  9
$DIMLDRBLK
  1

  9
$DIMLUNIT
 70
2
  9
$DIMLWD
 70
-2
  9
$DIMLWE
 70
-2
  9
$DIMTMOVE
 70
2
  9
$DIMFXL
 40
1.0
  9
$DIMFXLON
 70
0
  9
$DIMJOGANG
 40
0.785398163397
  9
$DIMTFILL
 70
0
  9
$DIMTFILLCLR
 70
0
  9
$DIMARCSYM
 70
0
  9
$DIMLTYPE
  6

  9
$DIMLTEX1
  6

  9
$DIMLTEX2
  6

  9
$DIMTXTDIRECTION
 70
0
  9
$LUNITS
 70
2
  9
$LUPREC
 70
4
  9
$SKETCHINC
 40
1.0
  9
$FILLETRAD
 40
10.0
  9
$AUNITS
 70
0
  9
$AUPREC
 70
2
  9
$MENU
  1
.
  9
$ELEVATION
 40
0.0
  9
$PELEVATION
 40
0.0
  9
$THICKNESS
 40
0.0
  9
$LIMCHECK
 70
0
  9
$CHAMFERA
 40
0.0
  9
$CHAMFERB
 40
0.0
  9
$CHAMFERC
 40
0.0
  9
$CHAMFERD
 40
0.0
  9
$SKPOLY
 70
0
  9
$TDCREATE
 40
2461304.1296180557
  9
$TDUCREATE
 40
2458532.153996898
  9
$TDUPDATE
 40
2461304.1296180557
  9
$TDUUPDATE
 40
2458532.1544311
  9
$TDINDWG
 40
0.0
  9
$TDUSRTIMER
 40
0.0
  9
$USRTIMER
 70
1
  9
$ANGBASE
 50
0.0
  9
$ANGDIR
 70
0
  9
$PDMODE
 70
0
  9
$PDSIZE
 40
0.0
  9
$PLINEWID
 40
0.0
  9
$SPLFRAME
 70
0
  9
$SPLINETYPE
 70
6
  9
$SPLINESEGS
 70
8
  9
$HANDSEED
  5
1A8
  9
$SURFTAB1
 70
6
  9
$SURFTAB2
 70
6
  9
$SURFTYPE
 70
6
  9
$SURFU
 70
6
  9
$SURFV
 70
6
  9
$UCSBASE
  2

  9
$UCSNAME
  2

  9
$UCSORG
 10
0.0
 20
0.0
 30
0.0
  9
$UCSXDIR
 10
1.0
 20
0.0
 30
0.0
  9
$UCSYDIR
 10
0.0
 20
1.0
 30
0.0
  9
$UCSORTHOREF
  2

  9
$UCSORTHOVIEW
 70
0
  9
$UCSORGTOP
 10
0.0
 20
0.0
 30
0.0
  9
$UCSORGBOTTOM
 10
0.0
 20
0.0
 30
0.0
  9
$UCSORGLEFT
 10
0.0
 20
0.0
 30
0.0
  9
$UCSORGRIGHT
 10
0.0
 20
0.0
 30
0.0
  9
$UCSORGFRONT
 10
0.0
 20
0.0
 30
0.0
  9
$UCSORGBACK
 10
0.0
 20
0.0
 30
0.0
  9
$PUCSBASE
  2

  9
$PUCSNAME
  2

  9
$PUCSORG
 10
0.0
 20
0.0
 30
0.0
  9
$PUCSXDIR
 10
1.0
 20
0.0
 30
0.0
  9
$PUCSYDIR
 10
0.0
 20
1.0
 30
0.0
  9
$PUCSORTHOREF
  2

  9
$PUCSORTHOVIEW
 70
0
  9
$PUCSORGTOP
 10
0.0
 20
0.0
 30
0.0
  9
$PUCSORGBOTTOM
 10
0.0
 20
0.0
 30
0.0
  9
$PUCSORGLEFT
 10
0.0
 20
0.0
 30
0.0
  9
$PUCSORGRIGHT
 10
0.0
 20
0.0
 30
0.0
  9
$PUCSORGFRONT
 10
0.0
 20
0.0
 30
0.0
  9
$PUCSORGBACK
 10
0.0
 20
0.0
 30
0.0
  9
$USERI1
 70
0
  9
$USERI2
 70
0
  9
$USERI3
 70
0
  9
$USERI4
 70
0
  9
$USERI5
 70
0
  9
$USERR1
 40
0.0
  9
$USERR2
 40
0.0
  9
$USERR3
 40
0.0
  9
$USERR4
 40
0.0
  9
$USERR5
 40
0.0
  9
$WORLDVIEW
 70
1
  9
$SHADEDGE
 70
3
  9
$SHADEDIF
 70
70
  9
$TILEMODE
 70
1
  9
$MAXACTVP
 70
64
  9
$PINSBASE
 10
0.0
 20
0.0
 30
0.0
  9
$PLIMCHECK
 70
0
  9
$PEXTMIN
 10
1e+20
 20
1e+20
 30
1e+20
  9
$PEXTMAX
 10
-1e+20
 20
-1e+20
 30
-1e+20
  9
$PLIMMIN
 10
0.0
 20
0.0
  9
$PLIMMAX
 10
420.0
 20
297.0
  9
$UNITMODE
 70
0
  9
$VISRETAIN
 70
1
  9
$PLINEGEN
 70
0
  9
$PSLTSCALE
 70
1
  9
$TREEDEPTH
 70
3020
  9
$CMLSTYLE
  2
Standard
  9
$CMLJUST
 70
0
  9
$CMLSCALE
 40
20.0
  9
$PROXYGRAPHICS
 70
1
  9
$MEASUREMENT
 70
1
  9
$CELWEIGHT
370
-1
  9
$ENDCAPS
280
0
  9
$JOINSTYLE
280
0
  9
$LWDISPLAY
290
0
  9
$INSUNITS
 70
4
  9
$HYPERLINKBASE
  1

  9
$STYLESHEET
  1

  9
$XEDIT
290
1
  9
$CEPSNTYPE
380
0
  9
$PSTYLEMODE
290
1
  9
$FINGERPRINTGUID
  2
{D05177A3-A5CE-4810-9A94-7C4EB61AB215}
  9
$VERSIONGUID
  2
{78CEE033-9356-4721-9890-D38F1ADD3326}
  9
$EXTNAMES
290
1
  9
$PSVPSCALE
 40
0.0
  9
$OLESTARTUP
290
0
  9
$SORTENTS
280
127
  9
$INDEXCTL
280
0
  9
$HIDETEXT
280
1
  9
$XCLIPFRAME
280
1
  9
$HALOGAP
280
0
  9
$OBSCOLOR
 70
257
  9
$OBSLTYPE
280
0
  9
$INTERSECTIONDISPLAY
280
0
  9
$INTERSECTIONCOLOR
 70
257
  9
$DIMASSOC
280
2
  9
$PROJECTNAME
  1

  9
$CAMERADISPLAY
290
0
  9
$LENSLENGTH
 40
50.0
  9
$CAMERAHEIGHT
 40
0.0
  9
$STEPSPERSEC
 40
24.0
  9
$STEPSIZE
 40
100.0
  9
$3DDWFPREC
 40
2.0
  9
$PSOLWIDTH
 40
0.005
  9
$PSOLHEIGHT
 40
0.08
  9
$LOFTANG1
 40
1.570796326795
  9
$LOFTANG2
 40
1.570796326795
  9
$LOFTMAG1
 40
0.0
  9
$LOFTMAG2
 40
0.0
  9
$LOFTPARAM
 70
7
  9
$LOFTNORMALS
280
1
  9
$LATITUDE
 40
37.795
  9
$LONGITUDE
 40
-122.394
  9
$NORTHDIRECTION
 40
0.0
  9
$TIMEZONE
 70
-8000
  9
$LIGHTGLYPHDISPLAY
280
1
  9
$TILEMODELIGHTSYNCH
280
1
  9
$CMATERIAL
347
20
  9
$SOLIDHIST
280
0
  9
$SHOWHIST
280
1
  9
$DWFFRAME
280
2
  9
$DGNFRAME
280
2
  9
$REALWORLDSCALE
290
1
  9
$INTERFERECOLOR
 62
256
  9
$CSHADOW
280
0
  9
$SHADOWPLANELOCATION
 40
0.0
  0
ENDSEC
  0
SECTION
  2
CLASSES
  0
CLASS
  1
ACDBDICTIONARYWDFLT
  2
AcDbDictionaryWithDefault
  3
ObjectDBX Classes
 90
0
 91
0
280
0
281
0
  0
CLASS
  1
SUN
  2
AcDbSun
  3
SCENEOE
 90
1153
 91
0
280
0
281
0
  0
CLASS
  1
VISUALSTYLE
  2
AcDbVisualStyle
  3
ObjectDBX Classes
 90
4095
 91
0
280
0
281
0
  0
CLASS
  1
MATERIAL
  2
AcDbMaterial
  3
ObjectDBX Classes
 90
1153
 91
0
280
0
281
0
  0
CLASS
  1
SCALE
  2
AcDbScale
  3
ObjectDBX Classes
 90
1153
 91
0
280
0
281
0
  0
CLASS
  1
TABLESTYLE
  2
AcDbTableStyle
  3
ObjectDBX Classes
 90
4095
 91
0
280
0
281
0
  0
CLASS
  1
MLEADERSTYLE
  2
AcDbMLeaderStyle
  3
ACDB_MLEADERSTYLE_CLASS
 90
4095
 91
0
280
0
281
0
  0
CLASS
  1
DICTIONARYVAR
  2
AcDbDictionaryVar
  3
ObjectDBX Classes
 90
0
 91
0
280
0
281
0
  0
CLASS
  1
CELLSTYLEMAP
  2
AcDbCellStyleMap
  3
ObjectDBX Classes
 90
1152
 91
0
280
0
281
0
  0
CLASS
  1
MENTALRAYRENDERSETTINGS
  2
AcDbMentalRayRenderSettings
  3
SCENEOE
 90
1024
 91
0
280
0
281
0
  0
CLASS
  1
ACDBDETAILVIEWSTYLE
  2
AcDbDetailViewStyle
  3
ObjectDBX Classes
 90
1025
 91
0
280
0
281
0
  0
CLASS
  1
ACDBSECTIONVIEWSTYLE
  2
AcDbSectionViewStyle
  3
ObjectDBX Classes
 90
1025
 91
0
280
0
281
0
  0
CLASS
  1
RASTERVARIABLES
  2
AcDbRasterVariables
  3
ISM
 90
0
 91
0
280
0
281
0
  0
CLASS
  1
ACDBPLACEHOLDER
  2
AcDbPlaceHolder
  3
ObjectDBX Classes
 90
0
 91
0
280
0
281
0
  0
CLASS
  1
LAYOUT
  2
AcDbLayout
  3
ObjectDBX Classes
 90
0
 91
0
280
0
281
0
  0
ENDSEC
  0
SECTION
  2
TABLES
  0
TABLE
  2
VPORT
  5
8
330
0
100
AcDbSymbolTable
 70
1
  0
VPORT
  5
23
330
8
100
AcDbSymbolTableRecord
100
AcDbViewportTableRecord
  2
*Active
 70
0
 10
0.0
 20
0.0
 11
1.0
 21
1.0
 12
0.0
 22
0.0
 13
0.0
 23
0.0
 14
0.5
 24
0.5
 15
0.5
 25
0.5
 16
0.0
 26
0.0
 36
1.0
 17
0.0
 27
0.0
 37
0.0
 40
1000.0
 41
1.34
 42
50.0
 43
0.0
 44
0.0
 50
0.0
 51
0.0
 71
0
 72
1000
 73
1
 74
3
 75
0
 76
0
 77
0
 78
0
281
0
 65
0
146
0.0
  0
ENDTAB
  0
TABLE
  2
LTYPE
  5
2
330
0
100
AcDbSymbolTable
 70
21
  0
LTYPE
  5
24
330
2
100
AcDbSymbolTableRecord
100
AcDbLinetypeTableRecord
  2
ByBlock
 70
0
  3

 72
65
 73
0
 40
0.0
  0
LTYPE
  5
25
330
2
100
AcDbSymbolTableRecord
100
AcDbLinetypeTableRecord
  2
ByLayer
 70
0
  3

 72
65
 73
0
 40
0.0
  0
LTYPE
  5
26
330
2
100
AcDbSymbolTableRecord
100
AcDbLinetypeTableRecord
  2
Continuous
 70
0
  3

 72
65
 73
0
 40
0.0
  0
LTYPE
  5
2F
330
2
100
AcDbSymbolTableRecord
100
AcDbLinetypeTableRecord
  2
CENTER
 70
0
  3
Center ____ _ ____ _ ____ _ ____ _ ____ _ ____
 72
65
 73
4
 40
5.08
 49
3.175
 74
0
 49
-0.635
 74
0
 49
0.635
 74
0
 49
-0.635
 74
0
  0
LTYPE
  5
30
330
2
100
AcDbSymbolTableRecord
100
AcDbLinetypeTableRecord
  2
CENTERX2
 70
0
  3
Center (2x) ________  __  ________  __  ________
 72
65
 73
4
 40
8.89
 49
6.35
 74
0
 49
-0.635
 74
0
 49
1.27
 74
0
 49
-0.635
 74
0
  0
LTYPE
  5
31
330
2
100
AcDbSymbolTableRecord
100
AcDbLinetypeTableRecord
  2
CENTER2
 70
0
  3
Center (.5x) ____ _ ____ _ ____ _ ____ _ ____
 72
65
 73
4
 40
2.54
 49
1.587
 74
0
 49
-0.318
 74
0
 49
0.318
 74
0
 49
-0.318
 74
0
  0
LTYPE
  5
32
330
2
100
AcDbSymbolTableRecord
100
AcDbLinetypeTableRecord
  2
DASHED
 70
0
  3
Dashed __ __ __ __ __ __ __ __ __ __ __ __ __ _
 72
65
 73
2
 40
1.524
 49
1.27
 74
0
 49
-0.254
 74
0
  0
LTYPE
  5
33
330
2
100
AcDbSymbolTableRecord
100
AcDbLinetypeTableRecord
  2
DASHEDX2
 70
0
  3
Dashed (2x) ____  ____  ____  ____  ____  ____
 72
65
 73
2
 40
3.048
 49
2.54
 74
0
 49
-0.508
 74
0
  0
LTYPE
  5
34
330
2
100
AcDbSymbolTableRecord
100
AcDbLinetypeTableRecord
  2
DASHED2
 70
0
  3
Dashed (.5x) _ _ _ _ _ _ _ _ _ _ _ _ _ _
 72
65
 73
2
 40
0.762
 49
0.635
 74
0
 49
-0.127
 74
0
  0
LTYPE
  5
35
330
2
100
AcDbSymbolTableRecord
100
AcDbLinetypeTableRecord
  2
PHANTOM
 70
0
  3
Phantom ______  __  __  ______  __  __  ______
 72
65
 73
6
 40
6.35
 49
3.175
 74
0
 49
-0.635
 74
0
 49
0.635
 74
0
 49
-0.635
 74
0
 49
0.635
 74
0
 49
-0.635
 74
0
  0
LTYPE
  5
36
330
2
100
AcDbSymbolTableRecord
100
AcDbLinetypeTableRecord
  2
PHANTOMX2
 70
0
  3
Phantom (2x)____________    ____    ____    ____________
 72
65
 73
6
 40
10.795
 49
6.35
 74
0
 49
-0.635
 74
0
 49
1.27
 74
0
 49
-0.635
 74
0
 49
1.27
 74
0
 49
-0.635
 74
0
  0
LTYPE
  5
37
330
2
100
AcDbSymbolTableRecord
100
AcDbLinetypeTableRecord
  2
PHANTOM2
 70
0
  3
Phantom (.5x) ___ _ _ ___ _ _ ___ _ _ ___ _ _ ___
 72
65
 73
6
 40
3.175
 49
1.587
 74
0
 49
-0.318
 74
0
 49
0.318
 74
0
 49
-0.318
 74
0
 49
0.318
 74
0
 49
-0.318
 74
0
  0
LTYPE
  5
38
330
2
100
AcDbSymbolTableRecord
100
AcDbLinetypeTableRecord
  2
DASHDOT
 70
0
  3
Dash dot __ . __ . __ . __ . __ . __ . __ . __
 72
65
 73
4
 40
3.556
 49
2.54
 74
0
 49
-0.508
 74
0
 49
0.0
 74
0
 49
-0.508
 74
0
  0
LTYPE
  5
39
330
2
100
AcDbSymbolTableRecord
100
AcDbLinetypeTableRecord
  2
DASHDOTX2
 70
0
  3
Dash dot (2x) ____  .  ____  .  ____  .  ____
 72
65
 73
4
 40
6.096
 49
5.08
 74
0
 49
-0.508
 74
0
 49
0.0
 74
0
 49
-0.508
 74
0
  0
LTYPE
  5
3A
330
2
100
AcDbSymbolTableRecord
100
AcDbLinetypeTableRecord
  2
DASHDOT2
 70
0
  3
Dash dot (.5x) _ . _ . _ . _ . _ . _ . _ . _
 72
65
 73
4
 40
1.778
 49
1.27
 74
0
 49
-0.254
 74
0
 49
0.0
 74
0
 49
-0.254
 74
0
  0
LTYPE
  5
3B
330
2
100
AcDbSymbolTableRecord
100
AcDbLinetypeTableRecord
  2
DOT
 70
0
  3
Dot .  .  .  .  .  .  .  .  .  .  .  .  .  .  .  .
 72
65
 73
2
 40
0.508
 49
0.0
 74
0
 49
-0.508
 74
0
  0
LTYPE
  5
3C
330
2
100
AcDbSymbolTableRecord
100
AcDbLinetypeTableRecord
  2
DOTX2
 70
0
  3
Dot (2x) .    .    .    .    .    .    .    . 
 72
65
 73
2
 40
1.016
 49
0.0
 74
0
 49
-1.016
 74
0
  0
LTYPE
  5
3D
330
2
100
AcDbSymbolTableRecord
100
AcDbLinetypeTableRecord
  2
DOT2
 70
0
  3
Dot (.5) . . . . . . . . . . . . . . . . . . . 
 72
65
 73
2
 40
0.254
 49
0.0
 74
0
 49
-0.254
 74
0
  0
LTYPE
  5
3E
330
2
100
AcDbSymbolTableRecord
100
AcDbLinetypeTableRecord
  2
DIVIDE
 70
0
  3
Divide __ . . __ . . __ . . __ . . __ . . __
 72
65
 73
6
 40
4.064
 49
2.54
 74
0
 49
-0.508
 74
0
 49
0.0
 74
0
 49
-0.508
 74
0
 49
0.0
 74
0
 49
-0.508
 74
0
  0
LTYPE
  5
3F
330
2
100
AcDbSymbolTableRecord
100
AcDbLinetypeTableRecord
  2
DIVIDEX2
 70
0
  3
Divide (2x) ____  . .  ____  . .  ____  . .  ____
 72
65
 73
6
 40
6.604
 49
5.08
 74
0
 49
-0.508
 74
0
 49
0.0
 74
0
 49
-0.508
 74
0
 49
0.0
 74
0
 49
-0.508
 74
0
  0
LTYPE
  5
40
330
2
100
AcDbSymbolTableRecord
100
AcDbLinetypeTableRecord
  2
DIVIDE2
 70
0
  3
Divide(.5x) _ . _ . _ . _ . _ . _ . _ . _
 72
65
 73
6
 40
2.032
 49
1.27
 74
0
 49
-0.254
 74
0
 49
0.0
 74
0
 49
-0.254
 74
0
 49
0.0
 74
0
 49
-0.254
 74
0
  0
ENDTAB
  0
TABLE
  2
LAYER
  5
1
330
0
100
AcDbSymbolTable
 70
15
  0
LAYER
  5
27
330
1
100
AcDbSymbolTableRecord
100
AcDbLayerTableRecord
  2
0
 70
0
 62
7
  6
Continuous
370
-3
390
13
347
21
  0
LAYER
  5
28
330
1
100
AcDbSymbolTableRecord
100
AcDbLayerTableRecord
  2
Defpoints
 70
0
 62
7
  6
Continuous
290
0
370
-3
390
13
347
21
  0
LAYER
  5
8A
330
1
100
AcDbSymbolTableRecord
100
AcDbLayerTableRecord
  2
00_РАМКА
 70
0
 62
7
  6
CONTINUOUS
370
-3
390
13
347
21
  0
LAYER
  5
8B
330
1
100
AcDbSymbolTableRecord
100
AcDbLayerTableRecord
  2
01_ОБШИВКА
 70
0
 62
7
  6
CONTINUOUS
370
-3
390
13
347
21
  0
LAYER
  5
8C
330
1
100
AcDbSymbolTableRecord
100
AcDbLayerTableRecord
  2
02_ПАЛУБЫ
 70
0
 62
4
  6
CONTINUOUS
370
-3
390
13
347
21
  0
LAYER
  5
8D
330
1
100
AcDbSymbolTableRecord
100
AcDbLayerTableRecord
  2
03_ПЕРЕБОРКИ
 70
0
 62
1
  6
CONTINUOUS
370
-3
390
13
347
21
  0
LAYER
  5
8E
330
1
100
AcDbSymbolTableRecord
100
AcDbLayerTableRecord
  2
04_ЦИСТЕРНЫ
 70
0
 62
3
  6
CONTINUOUS
370
-3
390
13
347
21
  0
LAYER
  5
8F
330
1
100
AcDbSymbolTableRecord
100
AcDbLayerTableRecord
  2
05_ОБОРУДОВАНИЕ
 70
0
 62
5
  6
CONTINUOUS
370
-3
390
13
347
21
  0
LAYER
  5
90
330
1
100
AcDbSymbolTableRecord
100
AcDbLayerTableRecord
  2
06_ПОМЕЩЕНИЯ
 70
0
 62
8
  6
CONTINUOUS
370
-3
390
13
347
21
  0
LAYER
  5
91
330
1
100
AcDbSymbolTableRecord
100
AcDbLayerTableRecord
  2
07_ОСИ
 70
0
 62
2
  6
CENTER
370
-3
390
13
347
21
  0
LAYER
  5
92
330
1
100
AcDbSymbolTableRecord
100
AcDbLayerTableRecord
  2
08_ТЕКСТ
 70
0
 62
7
  6
CONTINUOUS
370
-3
390
13
347
21
  0
LAYER
  5
93
330
1
100
AcDbSymbolTableRecord
100
AcDbLayerTableRecord
  2
09_РАЗМЕРЫ
 70
0
 62
6
  6
CONTINUOUS
370
-3
390
13
347
21
  0
LAYER
  5
94
330
1
100
AcDbSymbolTableRecord
100
AcDbLayerTableRecord
  2
10_НАБОР
 70
0
 62
9
  6
CONTINUOUS
370
-3
390
13
347
21
  0
LAYER
  5
95
330
1
100
AcDbSymbolTableRecord
100
AcDbLayerTableRecord
  2
11_КАЮТЫ
 70
0
 62
30
  6
CONTINUOUS
370
-3
390
13
347
21
  0
LAYER
  5
96
330
1
100
AcDbSymbolTableRecord
100
AcDbLayerTableRecord
  2
12_ТРАПЫ_ЛИФТЫ
 70
0
 62
6
  6
CONTINUOUS
370
-3
390
13
347
21
  0
ENDTAB
  0
TABLE
  2
STYLE
  5
5
330
0
100
AcDbSymbolTable
 70
27
  0
STYLE
  5
29
330
5
100
AcDbSymbolTableRecord
100
AcDbTextStyleTableRecord
  2
Standard
 70
0
 40
0.0
 41
1.0
 50
0.0
 71
0
 42
2.5
  3
txt
  4

  0
STYLE
  5
41
330
5
100
AcDbSymbolTableRecord
100
AcDbTextStyleTableRecord
  2
OpenSans-Light
 70
0
 40
0.0
 41
1.0
 50
0.0
 71
0
 42
2.5
  3
OpenSans-Light.ttf
  4

  0
STYLE
  5
42
330
5
100
AcDbSymbolTableRecord
100
AcDbTextStyleTableRecord
  2
OpenSans-Light-Italic
 70
0
 40
0.0
 41
1.0
 50
0.0
 71
0
 42
2.5
  3
OpenSans-LightItalic.ttf
  4

  0
STYLE
  5
43
330
5
100
AcDbSymbolTableRecord
100
AcDbTextStyleTableRecord
  2
OpenSans
 70
0
 40
0.0
 41
1.0
 50
0.0
 71
0
 42
2.5
  3
OpenSans-Regular.ttf
  4

  0
STYLE
  5
44
330
5
100
AcDbSymbolTableRecord
100
AcDbTextStyleTableRecord
  2
OpenSans-Italic
 70
0
 40
0.0
 41
1.0
 50
0.0
 71
0
 42
2.5
  3
OpenSans-Italic.ttf
  4

  0
STYLE
  5
45
330
5
100
AcDbSymbolTableRecord
100
AcDbTextStyleTableRecord
  2
OpenSans-SemiBold
 70
0
 40
0.0
 41
1.0
 50
0.0
 71
0
 42
2.5
  3
OpenSans-SemiBold.ttf
  4

  0
STYLE
  5
46
330
5
100
AcDbSymbolTableRecord
100
AcDbTextStyleTableRecord
  2
OpenSans-SemiBoldItalic
 70
0
 40
0.0
 41
1.0
 50
0.0
 71
0
 42
2.5
  3
OpenSans-SemiBoldItalic.ttf
  4

  0
STYLE
  5
47
330
5
100
AcDbSymbolTableRecord
100
AcDbTextStyleTableRecord
  2
OpenSans-Bold
 70
0
 40
0.0
 41
1.0
 50
0.0
 71
0
 42
2.5
  3
OpenSans-Bold.ttf
  4

  0
STYLE
  5
48
330
5
100
AcDbSymbolTableRecord
100
AcDbTextStyleTableRecord
  2
OpenSans-BoldItalic
 70
0
 40
0.0
 41
1.0
 50
0.0
 71
0
 42
2.5
  3
OpenSans-BoldItalic.ttf
  4

  0
STYLE
  5
49
330
5
100
AcDbSymbolTableRecord
100
AcDbTextStyleTableRecord
  2
OpenSans-ExtraBold
 70
0
 40
0.0
 41
1.0
 50
0.0
 71
0
 42
2.5
  3
OpenSans-ExtraBold.ttf
  4

  0
STYLE
  5
4A
330
5
100
AcDbSymbolTableRecord
100
AcDbTextStyleTableRecord
  2
OpenSans-ExtraBoldItalic
 70
0
 40
0.0
 41
1.0
 50
0.0
 71
0
 42
2.5
  3
OpenSans-ExtraBoldItalic.ttf
  4

  0
STYLE
  5
4B
330
5
100
AcDbSymbolTableRecord
100
AcDbTextStyleTableRecord
  2
OpenSansCondensed-Bold
 70
0
 40
0.0
 41
1.0
 50
0.0
 71
0
 42
2.5
  3
OpenSansCondensed-Bold.ttf
  4

  0
STYLE
  5
4C
330
5
100
AcDbSymbolTableRecord
100
AcDbTextStyleTableRecord
  2
OpenSansCondensed-Light
 70
0
 40
0.0
 41
1.0
 50
0.0
 71
0
 42
2.5
  3
OpenSansCondensed-Light.ttf
  4

  0
STYLE
  5
4D
330
5
100
AcDbSymbolTableRecord
100
AcDbTextStyleTableRecord
  2
OpenSansCondensed-Italic
 70
0
 40
0.0
 41
1.0
 50
0.0
 71
0
 42
2.5
  3
OpenSansCondensed-LightItalic.ttf
  4

  0
STYLE
  5
4E
330
5
100
AcDbSymbolTableRecord
100
AcDbTextStyleTableRecord
  2
LiberationSans
 70
0
 40
0.0
 41
1.0
 50
0.0
 71
0
 42
2.5
  3
LiberationSans-Regular.ttf
  4

  0
STYLE
  5
4F
330
5
100
AcDbSymbolTableRecord
100
AcDbTextStyleTableRecord
  2
LiberationSans-Bold
 70
0
 40
0.0
 41
1.0
 50
0.0
 71
0
 42
2.5
  3
LiberationSans-Bold.ttf
  4

  0
STYLE
  5
50
330
5
100
AcDbSymbolTableRecord
100
AcDbTextStyleTableRecord
  2
LiberationSans-BoldItalic
 70
0
 40
0.0
 41
1.0
 50
0.0
 71
0
 42
2.5
  3
LiberationSans-BoldItalic.ttf
  4

  0
STYLE
  5
51
330
5
100
AcDbSymbolTableRecord
100
AcDbTextStyleTableRecord
  2
LiberationSans-Italic
 70
0
 40
0.0
 41
1.0
 50
0.0
 71
0
 42
2.5
  3
LiberationSans-Italic.ttf
  4

  0
STYLE
  5
52
330
5
100
AcDbSymbolTableRecord
100
AcDbTextStyleTableRecord
  2
LiberationSerif
 70
0
 40
0.0
 41
1.0
 50
0.0
 71
0
 42
2.5
  3
LiberationSerif-Regular.ttf
  4

  0
STYLE
  5
53
330
5
100
AcDbSymbolTableRecord
100
AcDbTextStyleTableRecord
  2
LiberationSerif-Bold
 70
0
 40
0.0
 41
1.0
 50
0.0
 71
0
 42
2.5
  3
LiberationSerif-Bold.ttf
  4

  0
STYLE
  5
54
330
5
100
AcDbSymbolTableRecord
100
AcDbTextStyleTableRecord
  2
LiberationSerif-BoldItalic
 70
0
 40
0.0
 41
1.0
 50
0.0
 71
0
 42
2.5
  3
LiberationSerif-BoldItalic.ttf
  4

  0
STYLE
  5
55
330
5
100
AcDbSymbolTableRecord
100
AcDbTextStyleTableRecord
  2
LiberationSerif-Italic
 70
0
 40
0.0
 41
1.0
 50
0.0
 71
0
 42
2.5
  3
LiberationSerif-Italic.ttf
  4

  0
STYLE
  5
56
330
5
100
AcDbSymbolTableRecord
100
AcDbTextStyleTableRecord
  2
LiberationMono
 70
0
 40
0.0
 41
1.0
 50
0.0
 71
0
 42
2.5
  3
LiberationMono-Regular.ttf
  4

  0
STYLE
  5
57
330
5
100
AcDbSymbolTableRecord
100
AcDbTextStyleTableRecord
  2
LiberationMono-Bold
 70
0
 40
0.0
 41
1.0
 50
0.0
 71
0
 42
2.5
  3
LiberationMono-Bold.ttf
  4

  0
STYLE
  5
58
330
5
100
AcDbSymbolTableRecord
100
AcDbTextStyleTableRecord
  2
LiberationMono-BoldItalic
 70
0
 40
0.0
 41
1.0
 50
0.0
 71
0
 42
2.5
  3
LiberationMono-BoldItalic.ttf
  4

  0
STYLE
  5
59
330
5
100
AcDbSymbolTableRecord
100
AcDbTextStyleTableRecord
  2
LiberationMono-Italic
 70
0
 40
0.0
 41
1.0
 50
0.0
 71
0
 42
2.5
  3
LiberationMono-Italic.ttf
  4

  0
STYLE
  5
97
330
5
100
AcDbSymbolTableRecord
100
AcDbTextStyleTableRecord
  2
ГОСТ
 70
0
 40
0.0
 41
1.0
 50
0.0
 71
0
 42
2.5
  3
ISOCPEUR.TTF
  4

  0
ENDTAB
  0
TABLE
  2
VIEW
  5
7
330
0
100
AcDbSymbolTable
 70
0
  0
ENDTAB
  0
TABLE
  2
UCS
  5
6
330
0
100
AcDbSymbolTable
 70
0
  0
ENDTAB
  0
TABLE
  2
APPID
  5
3
330
0
100
AcDbSymbolTable
 70
3
  0
APPID
  5
2A
330
3
100
AcDbSymbolTableRecord
100
AcDbRegAppTableRecord
  2
ACAD
 70
0
  0
APPID
  5
1A5
330
3
100
AcDbSymbolTableRecord
100
AcDbRegAppTableRecord
  2
HATCHBACKGROUNDCOLOR
 70
0
  0
APPID
  5
1A6
330
3
100
AcDbSymbolTableRecord
100
AcDbRegAppTableRecord
  2
EZDXF
 70
0
  0
ENDTAB
  0
TABLE
  2
DIMSTYLE
  5
4
330
0
100
AcDbSymbolTable
 70
12
100
AcDbDimStyleTable
  0
DIMSTYLE
105
2B
330
4
100
AcDbSymbolTableRecord
100
AcDbDimStyleTableRecord
  2
Standard
 70
0
 40
1.0
 41
2.5
 42
0.625
 43
3.75
 44
1.25
 45
0.0
 46
0.0
 47
0.0
 48
0.0
 49
2.5
140
2.5
141
2.5
142
0.0
143
0.03937007874
144
1.0
145
0.0
146
1.0
147
0.625
148
0.0
 69
0
 70
0
 71
0
 72
0
 73
0
 74
0
 75
0
 76
0
 77
1
 78
8
 79
3
170
0
171
3
172
1
173
0
174
0
175
0
176
0
177
0
178
0
179
2
271
2
272
2
273
2
274
3
275
0
276
0
277
2
278
44
279
0
280
0
281
0
282
0
283
0
284
8
285
0
286
0
288
0
289
3
290
0
371
-2
372
-2
  0
DIMSTYLE
105
73
330
4
100
AcDbSymbolTableRecord
100
AcDbDimStyleTableRecord
  2
EZDXF
 70
0
 40
1.0
 41
0.175
 42
0.125
 43
3.75
 44
0.375
 45
0.0
 46
0.0
 47
0.0
 48
0.0
 49
2.5
140
0.25
141
2.5
142
0.0
143
0.03937007874
144
100.0
145
0.0
146
0.5
147
0.1
148
0.0
 69
0
 70
0
 71
0
 72
0
 73
0
 74
0
 75
0
 76
0
 77
1
 78
12
 79
3
170
0
171
3
172
1
173
0
174
0
175
0
176
0
177
0
178
0
179
2
271
2
272
2
273
2
274
3
275
0
276
0
277
2
278
46
279
2
280
0
281
0
282
0
283
0
284
8
285
0
286
0
288
1
289
3
290
0
340
4C
342
74
371
-2
372
-2
  0
DIMSTYLE
105
7C
330
4
100
AcDbSymbolTableRecord
100
AcDbDimStyleTableRecord
  2
EZ_M_100_H25_CM
 70
0
 40
1.0
 41
0.25
 42
0.125
 43
3.75
 44
0.375
 45
0.0
 46
0.0
 47
0.0
 48
0.0
 49
2.5
140
0.25
141
2.5
142
0.125
143
0.03937007874
144
100.0
145
0.0
146
0.5
147
0.1
148
0.0
 69
0
 70
0
 71
0
 72
0
 73
0
 74
0
 75
0
 76
0
 77
1
 78
12
 79
3
170
0
171
3
172
1
173
0
174
0
175
0
176
0
177
0
178
0
179
2
271
2
272
2
273
2
274
3
275
0
276
0
277
2
278
46
279
2
280
0
281
0
282
0
283
0
284
8
285
0
286
0
288
1
289
3
290
0
340
4C
371
-2
372
-2
  0
DIMSTYLE
105
7D
330
4
100
AcDbSymbolTableRecord
100
AcDbDimStyleTableRecord
  2
EZ_M_50_H25_CM
 70
0
 40
1.0
 41
0.125
 42
0.0625
 43
3.75
 44
0.1875
 45
0.0
 46
0.0
 47
0.0
 48
0.0
 49
2.5
140
0.125
141
2.5
142
0.0625
143
0.03937007874
144
100.0
145
0.0
146
0.5
147
0.05
148
0.0
 69
0
 70
0
 71
0
 72
0
 73
0
 74
0
 75
0
 76
0
 77
1
 78
12
 79
3
170
0
171
3
172
1
173
0
174
0
175
0
176
0
177
0
178
0
179
2
271
2
272
2
273
2
274
3
275
0
276
0
277
2
278
46
279
2
280
0
281
0
282
0
283
0
284
8
285
0
286
0
288
1
289
3
290
0
340
4C
371
-2
372
-2
  0
DIMSTYLE
105
7E
330
4
100
AcDbSymbolTableRecord
100
AcDbDimStyleTableRecord
  2
EZ_M_25_H25_CM
 70
0
 40
1.0
 41
0.0625
 42
0.03125
 43
3.75
 44
0.09375
 45
0.0
 46
0.0
 47
0.0
 48
0.0
 49
2.5
140
0.0625
141
2.5
142
0.03125
143
0.03937007874
144
100.0
145
0.0
146
0.5
147
0.025
148
0.0
 69
0
 70
0
 71
0
 72
0
 73
0
 74
0
 75
0
 76
0
 77
1
 78
12
 79
3
170
0
171
3
172
1
173
0
174
0
175
0
176
0
177
0
178
0
179
2
271
2
272
2
273
2
274
3
275
0
276
0
277
2
278
46
279
2
280
0
281
0
282
0
283
0
284
8
285
0
286
0
288
1
289
3
290
0
340
4C
371
-2
372
-2
  0
DIMSTYLE
105
7F
330
4
100
AcDbSymbolTableRecord
100
AcDbDimStyleTableRecord
  2
EZ_M_20_H25_CM
 70
0
 40
1.0
 41
0.05
 42
0.025
 43
3.75
 44
0.07500000000000001
 45
0.0
 46
0.0
 47
0.0
 48
0.0
 49
2.5
140
0.05
141
2.5
142
0.025
143
0.03937007874
144
100.0
145
0.0
146
0.5
147
0.020000000000000004
148
0.0
 69
0
 70
0
 71
0
 72
0
 73
0
 74
0
 75
0
 76
0
 77
1
 78
12
 79
3
170
0
171
3
172
1
173
0
174
0
175
0
176
0
177
0
178
0
179
2
271
2
272
2
273
2
274
3
275
0
276
0
277
2
278
46
279
2
280
0
281
0
282
0
283
0
284
8
285
0
286
0
288
1
289
3
290
0
340
4C
371
-2
372
-2
  0
DIMSTYLE
105
80
330
4
100
AcDbSymbolTableRecord
100
AcDbDimStyleTableRecord
  2
EZ_M_10_H25_CM
 70
0
 40
1.0
 41
0.025
 42
0.0125
 43
3.75
 44
0.037500000000000006
 45
0.0
 46
0.0
 47
0.0
 48
0.0
 49
2.5
140
0.025
141
2.5
142
0.0125
143
0.03937007874
144
100.0
145
0.0
146
0.5
147
0.010000000000000002
148
0.0
 69
0
 70
0
 71
0
 72
0
 73
0
 74
0
 75
0
 76
0
 77
1
 78
12
 79
3
170
0
171
3
172
1
173
0
174
0
175
0
176
0
177
0
178
0
179
2
271
2
272
2
273
2
274
3
275
0
276
0
277
2
278
46
279
2
280
0
281
0
282
0
283
0
284
8
285
0
286
0
288
1
289
3
290
0
340
4C
371
-2
372
-2
  0
DIMSTYLE
105
81
330
4
100
AcDbSymbolTableRecord
100
AcDbDimStyleTableRecord
  2
EZ_M_5_H25_CM
 70
0
 40
1.0
 41
0.0125
 42
0.00625
 43
3.75
 44
0.018750000000000003
 45
0.0
 46
0.0
 47
0.0
 48
0.0
 49
2.5
140
0.0125
141
2.5
142
0.00625
143
0.03937007874
144
100.0
145
0.0
146
0.5
147
0.005000000000000001
148
0.0
 69
0
 70
0
 71
0
 72
0
 73
0
 74
0
 75
0
 76
0
 77
1
 78
12
 79
3
170
0
171
3
172
1
173
0
174
0
175
0
176
0
177
0
178
0
179
2
271
2
272
2
273
2
274
3
275
0
276
0
277
2
278
46
279
2
280
0
281
0
282
0
283
0
284
8
285
0
286
0
288
1
289
3
290
0
340
4C
371
-2
372
-2
  0
DIMSTYLE
105
82
330
4
100
AcDbSymbolTableRecord
100
AcDbDimStyleTableRecord
  2
EZ_M_1_H25_CM
 70
0
 40
1.0
 41
0.0025
 42
0.00125
 43
3.75
 44
0.00375
 45
0.0
 46
0.0
 47
0.0
 48
0.0
 49
2.5
140
0.0025
141
2.5
142
0.00125
143
0.03937007874
144
100.0
145
0.0
146
0.5
147
0.001
148
0.0
 69
0
 70
0
 71
0
 72
0
 73
0
 74
0
 75
0
 76
0
 77
1
 78
12
 79
3
170
0
171
3
172
1
173
0
174
0
175
0
176
0
177
0
178
0
179
2
271
2
272
2
273
2
274
3
275
0
276
0
277
2
278
46
279
2
280
0
281
0
282
0
283
0
284
8
285
0
286
0
288
1
289
3
290
0
340
4C
371
-2
372
-2
  0
DIMSTYLE
105
83
330
4
100
AcDbSymbolTableRecord
100
AcDbDimStyleTableRecord
  2
EZ_RADIUS
 70
0
 40
1.0
 41
0.25
 42
0.125
 43
3.75
 44
0.375
 45
0.0
 46
0.0
 47
0.0
 48
0.0
 49
2.5
140
0.25
141
0.0
142
0.0
143
0.03937007874
144
100.0
145
0.0
146
0.5
147
0.1
148
0.0
 69
0
 70
0
 71
0
 72
0
 73
0
 74
0
 75
0
 76
0
 77
1
 78
12
 79
3
170
0
171
3
172
0
173
0
174
0
175
0
176
0
177
0
178
0
179
2
271
2
272
2
273
2
274
3
275
0
276
0
277
2
278
46
279
1
280
0
281
0
282
0
283
0
284
8
285
0
286
0
288
1
289
3
290
0
340
4C
342
84
371
-2
372
-2
  0
DIMSTYLE
105
88
330
4
100
AcDbSymbolTableRecord
100
AcDbDimStyleTableRecord
  2
EZ_RADIUS_INSIDE
 70
0
 40
1.0
 41
0.25
 42
0.125
 43
3.75
 44
0.375
 45
0.0
 46
0.0
 47
0.0
 48
0.0
 49
2.5
140
0.25
141
0.0
142
0.0
143
0.03937007874
144
100.0
145
0.0
146
0.5
147
0.1
148
0.0
 69
0
 70
0
 71
0
 72
0
 73
0
 74
0
 75
0
 76
0
 77
0
 78
12
 79
3
170
0
171
3
172
0
173
0
174
1
175
0
176
0
177
0
178
0
179
2
271
2
272
2
273
2
274
3
275
0
276
0
277
2
278
46
279
0
280
0
281
0
282
0
283
0
284
8
285
0
286
0
288
1
289
0
290
0
340
4C
342
84
371
-2
372
-2
  0
DIMSTYLE
105
89
330
4
100
AcDbSymbolTableRecord
100
AcDbDimStyleTableRecord
  2
EZ_CURVED
 70
0
 40
1.0
 41
0.25
 42
0.125
 43
3.75
 44
0.375
 45
0.0
 46
0.0
 47
0.0
 48
0.0
 49
2.5
140
0.25
141
2.5
142
0.0
143
0.03937007874
144
100.0
145
0.0
146
0.5
147
0.1
148
0.0
 69
0
 70
0
 71
0
 72
0
 73
0
 74
0
 75
0
 76
0
 77
1
 78
12
 79
2
 90
2
170
0
171
3
172
1
173
0
174
0
175
0
176
0
177
0
178
0
179
2
271
2
272
2
273
2
274
3
275
0
276
0
277
2
278
46
279
2
280
0
281
0
282
0
283
0
284
8
285
0
286
0
288
1
289
3
290
0
340
4C
371
-2
372
-2
  0
ENDTAB
  0
TABLE
  2
BLOCK_RECORD
  5
9
330
0
100
AcDbSymbolTable
 70
5
  0
BLOCK_RECORD
  5
17
330
9
100
AcDbSymbolTableRecord
100
AcDbBlockTableRecord
  2
*Model_Space
340
1A
 70
0
280
1
281
0
  0
BLOCK_RECORD
  5
1B
330
9
100
AcDbSymbolTableRecord
100
AcDbBlockTableRecord
  2
*Paper_Space
340
1E
 70
0
280
1
281
0
  0
BLOCK_RECORD
  5
74
330
9
100
AcDbSymbolTableRecord
100
AcDbBlockTableRecord
  2
_ARCHTICK
340
0
 70
0
280
1
281
0
  0
BLOCK_RECORD
  5
78
330
9
100
AcDbSymbolTableRecord
100
AcDbBlockTableRecord
  2
_CLOSEDFILLED
340
0
 70
0
280
1
281
0
  0
BLOCK_RECORD
  5
84
330
9
100
AcDbSymbolTableRecord
100
AcDbBlockTableRecord
  2
_CLOSEDBLANK
340
0
 70
0
280
1
281
0
  0
ENDTAB
  0
ENDSEC
  0
SECTION
  2
BLOCKS
  0
BLOCK
  5
18
330
17
100
AcDbEntity
  8
0
100
AcDbBlockBegin
  2
*Model_Space
 70
0
 10
0.0
 20
0.0
 30
0.0
  3
*Model_Space
  1

  0
ENDBLK
  5
19
330
17
100
AcDbEntity
  8
0
100
AcDbBlockEnd
  0
BLOCK
  5
1C
330
1B
100
AcDbEntity
  8
0
100
AcDbBlockBegin
  2
*Paper_Space
 70
0
 10
0.0
 20
0.0
 30
0.0
  3
*Paper_Space
  1

  0
ENDBLK
  5
1D
330
1B
100
AcDbEntity
  8
0
100
AcDbBlockEnd
  0
BLOCK
  5
75
330
74
100
AcDbEntity
  8
0
100
AcDbBlockBegin
  2
_ARCHTICK
 70
0
 10
0.0
 20
0.0
 30
0.0
  3
_ARCHTICK
  1

  0
LWPOLYLINE
  5
77
330
74
100
AcDbEntity
  8
0
  6
BYBLOCK
 62
0
100
AcDbPolyline
 90
2
 70
0
 43
0.15
 10
-0.5
 20
-0.5
 10
0.5
 20
0.5
  0
ENDBLK
  5
76
330
74
100
AcDbEntity
  8
0
100
AcDbBlockEnd
  0
BLOCK
  5
79
330
78
100
AcDbEntity
  8
0
100
AcDbBlockBegin
  2
_CLOSEDFILLED
 70
0
 10
0.0
 20
0.0
 30
0.0
  3
_CLOSEDFILLED
  1

  0
SOLID
  5
7B
330
78
100
AcDbEntity
  8
0
  6
BYBLOCK
 62
0
100
AcDbTrace
 10
-1.0
 20
0.16439898372402537
 30
0.0
 11
0.0
 21
0.0
 31
0.0
 12
-1.0
 22
-0.16439898372402537
 32
0.0
 13
-1.0
 23
-0.16439898372402537
 33
0.0
  0
ENDBLK
  5
7A
330
78
100
AcDbEntity
  8
0
100
AcDbBlockEnd
  0
BLOCK
  5
85
330
84
100
AcDbEntity
  8
0
100
AcDbBlockBegin
  2
_CLOSEDBLANK
 70
0
 10
0.0
 20
0.0
 30
0.0
  3
_CLOSEDBLANK
  1

  0
LWPOLYLINE
  5
87
330
84
100
AcDbEntity
  8
0
  6
BYBLOCK
 62
0
100
AcDbPolyline
 90
3
 70
1
 10
-1.0
 20
0.16439898372402537
 10
0.0
 20
0.0
 10
-1.0
 20
-0.16439898372402537
  0
ENDBLK
  5
86
330
84
100
AcDbEntity
  8
0
100
AcDbBlockEnd
  0
ENDSEC
  0
SECTION
  2
ENTITIES
  0
LWPOLYLINE
  5
98
330
17
100
AcDbEntity
  8
01_ОБШИВКА
100
AcDbPolyline
 90
77
 70
0
 10
0.0
 20
4946.930685115357
 10
500.0
 20
5166.997950451458
 10
1000.0
 20
5370.508479780092
 10
1500.0
 20
5559.544816360198
 10
2000.0
 20
5735.521762642173
 10
2500.0
 20
5899.426140800651
 10
3000.0
 20
6051.954512963011
 10
3500.0
 20
6193.597776599979
 10
4000.0
 20
6325.053718577141
 10
4500.0
 20
6447.8801754434635
 10
5000.0
 20
6563.6252074949725
 10
5500.0
 20
6673.689716425803
 10
6000.0
 20
6779.357554182021
 10
6500.0
 20
6881.816591490515
 10
7000.0
 20
6982.2014460410755
 10
7500.0
 20
7083.978762747302
 10
8000.0
 20
7186.727374500052
 10
8500.0
 20
7287.211381677992
 10
9000.0
 20
7382.207100611695
 10
9500.0
 20
7468.491094143369
 10
10000.0
 20
7542.829692196526
 10
10500.0
 20
7602.114977050134
 10
11000.0
 20
7652.08269093975
 10
11500.0
 20
7697.589087212818
 10
12000.0
 20
7739.184386341624
 10
12500.0
 20
7777.3239931500075
 10
13000.0
 20
7812.377456675792
 10
13500.0
 20
7844.630860528064
 10
14000.0
 20
7874.316666982809
 10
14500.0
 20
7902.608073022114
 10
15000.0
 20
7929.8321567155035
 10
15500.0
 20
7955.743780282583
 10
16000.0
 20
7980.124792871355
 10
16500.0
 20
8002.786489050417
 10
17000.0
 20
8023.571846415455
 10
17500.0
 20
8042.357484611891
 10
18000.0
 20
8059.055247078419
 10
18500.0
 20
8073.613257485958
 10
19000.0
 20
8086.016245594278
 10
19500.0
 20
8096.545542342053
 10
20000.0
 20
8105.692259088569
 10
20500.0
 20
8113.376737929872
 10
21000.0
 20
8119.576763037376
 10
21500.0
 20
8125.373646570192
 10
22000.0
 20
8131.139965413844
 10
22500.0
 20
8136.855732370702
 10
23000.0
 20
8142.500973215481
 10
23500.0
 20
8148.055724448911
 10
24000.0
 20
8153.500031057931
 10
24500.0
 20
8158.813944324807
 10
25000.0
 20
8163.977519724536
 10
25500.0
 20
8168.970814946246
 10
26000.0
 20
8173.773888069975
 10
26500.0
 20
8178.366795925257
 10
27000.0
 20
8182.729592652343
 10
27500.0
 20
8186.842328480646
 10
28000.0
 20
8190.705543137334
 10
28500.0
 20
8194.48930399848
 10
29000.0
 20
8198.221069528796
 10
29500.0
 20
8201.882272103683
 10
30000.0
 20
8205.454346376398
 10
30500.0
 20
8208.918728430135
 10
31000.0
 20
8212.256854983549
 10
31500.0
 20
8215.450162669558
 10
32000.0
 20
8218.480087404045
 10
32500.0
 20
8221.328063857574
 10
33000.0
 20
8223.975525039077
 10
33500.0
 20
8226.403901995784
 10
34000.0
 20
8228.594623628529
 10
34500.0
 20
8230.529116615791
 10
35000.0
 20
8232.220425831085
 10
35500.0
 20
8233.843281362892
 10
36000.0
 20
8235.419887567243
 10
36500.0
 20
8236.941226765128
 10
37000.0
 20
8238.398281245052
 10
37500.0
 20
8239.782033203688
 10
38000.0
 20
8241.083464697405
  0
LWPOLYLINE
  5
99
330
17
100
AcDbEntity
  8
01_ОБШИВКА
100
AcDbPolyline
 90
77
 70
0
 10
0.0
 20
-4946.930685115357
 10
500.0
 20
-5166.997950451458
 10
1000.0
 20
-5370.508479780092
 10
1500.0
 20
-5559.544816360198
 10
2000.0
 20
-5735.521762642173
 10
2500.0
 20
-5899.426140800651
 10
3000.0
 20
-6051.954512963011
 10
3500.0
 20
-6193.597776599979
 10
4000.0
 20
-6325.053718577141
 10
4500.0
 20
-6447.8801754434635
 10
5000.0
 20
-6563.6252074949725
 10
5500.0
 20
-6673.689716425803
 10
6000.0
 20
-6779.357554182021
 10
6500.0
 20
-6881.816591490515
 10
7000.0
 20
-6982.2014460410755
 10
7500.0
 20
-7083.978762747302
 10
8000.0
 20
-7186.727374500052
 10
8500.0
 20
-7287.211381677992
 10
9000.0
 20
-7382.207100611695
 10
9500.0
 20
-7468.491094143369
 10
10000.0
 20
-7542.829692196526
 10
10500.0
 20
-7602.114977050134
 10
11000.0
 20
-7652.08269093975
 10
11500.0
 20
-7697.589087212818
 10
12000.0
 20
-7739.184386341624
 10
12500.0
 20
-7777.3239931500075
 10
13000.0
 20
-7812.377456675792
 10
13500.0
 20
-7844.630860528064
 10
14000.0
 20
-7874.316666982809
 10
14500.0
 20
-7902.608073022114
 10
15000.0
 20
-7929.8321567155035
 10
15500.0
 20
-7955.743780282583
 10
16000.0
 20
-7980.124792871355
 10
16500.0
 20
-8002.786489050417
 10
17000.0
 20
-8023.571846415455
 10
17500.0
 20
-8042.357484611891
 10
18000.0
 20
-8059.055247078419
 10
18500.0
 20
-8073.613257485958
 10
19000.0
 20
-8086.016245594278
 10
19500.0
 20
-8096.545542342053
 10
20000.0
 20
-8105.692259088569
 10
20500.0
 20
-8113.376737929872
 10
21000.0
 20
-8119.576763037376
 10
21500.0
 20
-8125.373646570192
 10
22000.0
 20
-8131.139965413844
 10
22500.0
 20
-8136.855732370702
 10
23000.0
 20
-8142.500973215481
 10
23500.0
 20
-8148.055724448911
 10
24000.0
 20
-8153.500031057931
 10
24500.0
 20
-8158.813944324807
 10
25000.0
 20
-8163.977519724536
 10
25500.0
 20
-8168.970814946246
 10
26000.0
 20
-8173.773888069975
 10
26500.0
 20
-8178.366795925257
 10
27000.0
 20
-8182.729592652343
 10
27500.0
 20
-8186.842328480646
 10
28000.0
 20
-8190.705543137334
 10
28500.0
 20
-8194.48930399848
 10
29000.0
 20
-8198.221069528796
 10
29500.0
 20
-8201.882272103683
 10
30000.0
 20
-8205.454346376398
 10
30500.0
 20
-8208.918728430135
 10
31000.0
 20
-8212.256854983549
 10
31500.0
 20
-8215.450162669558
 10
32000.0
 20
-8218.480087404045
 10
32500.0
 20
-8221.328063857574
 10
33000.0
 20
-8223.975525039077
 10
33500.0
 20
-8226.403901995784
 10
34000.0
 20
-8228.594623628529
 10
34500.0
 20
-8230.529116615791
 10
35000.0
 20
-8232.220425831085
 10
35500.0
 20
-8233.843281362892
 10
36000.0
 20
-8235.419887567243
 10
36500.0
 20
-8236.941226765128
 10
37000.0
 20
-8238.398281245052
 10
37500.0
 20
-8239.782033203688
 10
38000.0
 20
-8241.083464697405
  0
LWPOLYLINE
  5
9A
330
17
100
AcDbEntity
  8
02_ПАЛУБЫ
100
AcDbPolyline
 90
77
 70
0
 10
0.0
 20
6597.510427302443
 10
500.0
 20
6704.670626164262
 10
1000.0
 20
6807.957857744588
 10
1500.0
 20
6907.011880016426
 10
2000.0
 20
7001.47245112713
 10
2500.0
 20
7090.979329397836
 10
3000.0
 20
7175.172273322789
 10
3500.0
 20
7253.691924778146
 10
4000.0
 20
7326.775136150112
 10
4500.0
 20
7395.352603335381
 10
5000.0
 20
7460.208292078834
 10
5500.0
 20
7522.126169057789
 10
6000.0
 20
7581.890201835655
 10
6500.0
 20
7640.2843588112755
 10
7000.0
 20
7698.124082561227
 10
7500.0
 20
7759.0558617509605
 10
8000.0
 20
7822.761388442486
 10
8500.0
 20
7885.803104727035
 10
9000.0
 20
7944.7434544615135
 10
9500.0
 20
7996.144883114229
 10
10000.0
 20
8036.569837596455
 10
10500.0
 20
8062.737807700124
 10
11000.0
 20
8080.857361898328
 10
11500.0
 20
8096.072103254084
 10
12000.0
 20
8108.967277413468
 10
12500.0
 20
8120.128143813542
 10
13000.0
 20
8130.139973241128
 10
13500.0
 20
8139.588044573042
 10
14000.0
 20
8149.055306410053
 10
14500.0
 20
8158.871225245461
 10
15000.0
 20
8168.918298136338
 10
15500.0
 20
8179.036921774168
 10
16000.0
 20
8189.0674918429
 10
16500.0
 20
8198.850403189508
 10
17000.0
 20
8208.226049964725
 10
17500.0
 20
8217.034825738336
 10
18000.0
 20
8225.11712359293
 10
18500.0
 20
8232.313336199339
 10
19000.0
 20
8238.463855876531
 10
19500.0
 20
8243.409074638525
 10
20000.0
 20
8246.989384230317
 10
20500.0
 20
8249.045176155016
 10
21000.0
 20
8249.498372165528
 10
21500.0
 20
8249.520667871424
 10
22000.0
 20
8249.54284602082
 10
22500.0
 20
8249.564829739888
 10
23000.0
 20
8249.586542204675
 10
23500.0
 20
8249.607906632496
 10
24000.0
 20
8249.6288462733
 10
24500.0
 20
8249.649284401248
 10
25000.0
 20
8249.669144306632
 10
25500.0
 20
8249.688349288253
 10
26000.0
 20
8249.706822646423
 10
26500.0
 20
8249.724487676636
 10
27000.0
 20
8249.741267664047
 10
27500.0
 20
8249.757085878771
 10
28000.0
 20
8249.771944396683
 10
28500.0
 20
8249.786497323072
 10
29000.0
 20
8249.80085026742
 10
29500.0
 20
8249.814931815785
 10
30000.0
 20
8249.828670562985
 10
30500.0
 20
8249.841995109346
 10
31000.0
 20
8249.854834057627
 10
31500.0
 20
8249.867116010266
 10
32000.0
 20
8249.878769566938
 10
32500.0
 20
8249.889723322529
 10
33000.0
 20
8249.899905865535
 10
33500.0
 20
8249.909245776907
 10
34000.0
 20
8249.91767162934
 10
34500.0
 20
8249.925111986984
 10
35000.0
 20
8249.931617022428
 10
35500.0
 20
8249.937858774472
 10
36000.0
 20
8249.943922644488
 10
36500.0
 20
8249.949773949098
 10
37000.0
 20
8249.955378004788
 10
37500.0
 20
8249.960700127707
 10
38000.0
 20
8249.96570563345
  0
LWPOLYLINE
  5
9B
330
17
100
AcDbEntity
  8
02_ПАЛУБЫ
100
AcDbPolyline
 90
77
 70
0
 10
0.0
 20
-6597.510427302443
 10
500.0
 20
-6704.670626164262
 10
1000.0
 20
-6807.957857744588
 10
1500.0
 20
-6907.011880016426
 10
2000.0
 20
-7001.47245112713
 10
2500.0
 20
-7090.979329397836
 10
3000.0
 20
-7175.172273322789
 10
3500.0
 20
-7253.691924778146
 10
4000.0
 20
-7326.775136150112
 10
4500.0
 20
-7395.352603335381
 10
5000.0
 20
-7460.208292078834
 10
5500.0
 20
-7522.126169057789
 10
6000.0
 20
-7581.890201835655
 10
6500.0
 20
-7640.2843588112755
 10
7000.0
 20
-7698.124082561227
 10
7500.0
 20
-7759.0558617509605
 10
8000.0
 20
-7822.761388442486
 10
8500.0
 20
-7885.803104727035
 10
9000.0
 20
-7944.7434544615135
 10
9500.0
 20
-7996.144883114229
 10
10000.0
 20
-8036.569837596455
 10
10500.0
 20
-8062.737807700124
 10
11000.0
 20
-8080.857361898328
 10
11500.0
 20
-8096.072103254084
 10
12000.0
 20
-8108.967277413468
 10
12500.0
 20
-8120.128143813542
 10
13000.0
 20
-8130.139973241128
 10
13500.0
 20
-8139.588044573042
 10
14000.0
 20
-8149.055306410053
 10
14500.0
 20
-8158.871225245461
 10
15000.0
 20
-8168.918298136338
 10
15500.0
 20
-8179.036921774168
 10
16000.0
 20
-8189.0674918429
 10
16500.0
 20
-8198.850403189508
 10
17000.0
 20
-8208.226049964725
 10
17500.0
 20
-8217.034825738336
 10
18000.0
 20
-8225.11712359293
 10
18500.0
 20
-8232.313336199339
 10
19000.0
 20
-8238.463855876531
 10
19500.0
 20
-8243.409074638525
 10
20000.0
 20
-8246.989384230317
 10
20500.0
 20
-8249.045176155016
 10
21000.0
 20
-8249.498372165528
 10
21500.0
 20
-8249.520667871424
 10
22000.0
 20
-8249.54284602082
 10
22500.0
 20
-8249.564829739888
 10
23000.0
 20
-8249.586542204675
 10
23500.0
 20
-8249.607906632496
 10
24000.0
 20
-8249.6288462733
 10
24500.0
 20
-8249.649284401248
 10
25000.0
 20
-8249.669144306632
 10
25500.0
 20
-8249.688349288253
 10
26000.0
 20
-8249.706822646423
 10
26500.0
 20
-8249.724487676636
 10
27000.0
 20
-8249.741267664047
 10
27500.0
 20
-8249.757085878771
 10
28000.0
 20
-8249.771944396683
 10
28500.0
 20
-8249.786497323072
 10
29000.0
 20
-8249.80085026742
 10
29500.0
 20
-8249.814931815785
 10
30000.0
 20
-8249.828670562985
 10
30500.0
 20
-8249.841995109346
 10
31000.0
 20
-8249.854834057627
 10
31500.0
 20
-8249.867116010266
 10
32000.0
 20
-8249.878769566938
 10
32500.0
 20
-8249.889723322529
 10
33000.0
 20
-8249.899905865535
 10
33500.0
 20
-8249.909245776907
 10
34000.0
 20
-8249.91767162934
 10
34500.0
 20
-8249.925111986984
 10
35000.0
 20
-8249.931617022428
 10
35500.0
 20
-8249.937858774472
 10
36000.0
 20
-8249.943922644488
 10
36500.0
 20
-8249.949773949098
 10
37000.0
 20
-8249.955378004788
 10
37500.0
 20
-8249.960700127707
 10
38000.0
 20
-8249.96570563345
  0
LINE
  5
9C
330
17
100
AcDbEntity
  8
07_ОСИ
100
AcDbLine
 10
0.0
 20
0.0
 30
0.0
 11
38000.0
 21
0.0
 31
0.0
  0
LINE
  5
9D
330
17
100
AcDbEntity
  8
03_ПЕРЕБОРКИ
100
AcDbLine
 10
9500.0
 20
-7468.491094143369
 30
0.0
 11
9500.0
 21
7468.491094143369
 31
0.0
  0
TEXT
  5
9E
330
17
100
AcDbEntity
  8
03_ПЕРЕБОРКИ
100
AcDbText
 10
9500.0
 20
8468.491094143368
 30
0.0
 40
300.0
  1
9.5
  7
ГОСТ
 72
1
 11
9500.0
 21
8468.491094143368
 31
0.0
100
AcDbText
 73
2
  0
LINE
  5
9F
330
17
100
AcDbEntity
  8
03_ПЕРЕБОРКИ
100
AcDbLine
 10
12000.0
 20
-7739.184386341624
 30
0.0
 11
12000.0
 21
7739.184386341624
 31
0.0
  0
TEXT
  5
A0
330
17
100
AcDbEntity
  8
03_ПЕРЕБОРКИ
100
AcDbText
 10
12000.0
 20
8739.184386341623
 30
0.0
 40
300.0
  1
12.0
  7
ГОСТ
 72
1
 11
12000.0
 21
8739.184386341623
 31
0.0
100
AcDbText
 73
2
  0
LINE
  5
A1
330
17
100
AcDbEntity
  8
03_ПЕРЕБОРКИ
100
AcDbLine
 10
30000.0
 20
-8205.454346376398
 30
0.0
 11
30000.0
 21
8205.454346376398
 31
0.0
  0
TEXT
  5
A2
330
17
100
AcDbEntity
  8
03_ПЕРЕБОРКИ
100
AcDbText
 10
30000.0
 20
9205.454346376398
 30
0.0
 40
300.0
  1
30.0
  7
ГОСТ
 72
1
 11
30000.0
 21
9205.454346376398
 31
0.0
100
AcDbText
 73
2
  0
LINE
  5
A3
330
17
100
AcDbEntity
  8
03_ПЕРЕБОРКИ
100
AcDbLine
 10
34000.0
 20
-8228.594623628529
 30
0.0
 11
34000.0
 21
8228.594623628529
 31
0.0
  0
TEXT
  5
A4
330
17
100
AcDbEntity
  8
03_ПЕРЕБОРКИ
100
AcDbText
 10
34000.0
 20
9228.594623628529
 30
0.0
 40
300.0
  1
34.0
  7
ГОСТ
 72
1
 11
34000.0
 21
9228.594623628529
 31
0.0
100
AcDbText
 73
2
  0
LWPOLYLINE
  5
A5
330
17
100
AcDbEntity
  8
05_ОБОРУДОВАНИЕ
100
AcDbPolyline
 90
4
 70
1
 10
14500.0
 20
4500.0
 10
19700.0
 20
4500.0
 10
19700.0
 20
6300.0
 10
14500.0
 20
6300.0
  0
TEXT
  5
A6
330
17
100
AcDbEntity
  8
05_ОБОРУДОВАНИЕ
100
AcDbText
 10
17100.0
 20
5400.0
 30
0.0
 40
320.0
  1
ГДГ-1
  7
ГОСТ
 72
1
 11
17100.0
 21
5400.0
 31
0.0
100
AcDbText
 73
2
  0
LWPOLYLINE
  5
A7
330
17
100
AcDbEntity
  8
05_ОБОРУДОВАНИЕ
100
AcDbPolyline
 90
4
 70
1
 10
14500.0
 20
-6300.0
 10
19700.0
 20
-6300.0
 10
19700.0
 20
-4500.0
 10
14500.0
 20
-4500.0
  0
TEXT
  5
A8
330
17
100
AcDbEntity
  8
05_ОБОРУДОВАНИЕ
100
AcDbText
 10
17100.0
 20
-5400.0
 30
0.0
 40
320.0
  1
ГДГ-1
  7
ГОСТ
 72
1
 11
17100.0
 21
-5400.0
 31
0.0
100
AcDbText
 73
2
  0
LWPOLYLINE
  5
A9
330
17
100
AcDbEntity
  8
05_ОБОРУДОВАНИЕ
100
AcDbPolyline
 90
4
 70
1
 10
21000.0
 20
-1150.0
 10
26200.0
 20
-1150.0
 10
26200.0
 20
1150.0
 10
21000.0
 20
1150.0
  0
TEXT
  5
AA
330
17
100
AcDbEntity
  8
05_ОБОРУДОВАНИЕ
100
AcDbText
 10
23600.0
 20
0.0
 30
0.0
 40
320.0
  1
ГДГ-3
  7
ГОСТ
 72
1
 11
23600.0
 21
0.0
 31
0.0
100
AcDbText
 73
2
  0
LWPOLYLINE
  5
AB
330
17
100
AcDbEntity
  8
05_ОБОРУДОВАНИЕ
100
AcDbPolyline
 90
4
 70
1
 10
14050.0
 20
2020.0
 10
17350.0
 20
2020.0
 10
17350.0
 20
3980.0
 10
14050.0
 20
3980.0
  0
TEXT
  5
AC
330
17
100
AcDbEntity
  8
05_ОБОРУДОВАНИЕ
100
AcDbText
 10
15700.000000000002
 20
3000.0
 30
0.0
 40
320.0
  1
ГЭД
  7
ГОСТ
 72
1
 11
15700.000000000002
 21
3000.0
 31
0.0
100
AcDbText
 73
2
  0
LWPOLYLINE
  5
AD
330
17
100
AcDbEntity
  8
05_ОБОРУДОВАНИЕ
100
AcDbPolyline
 90
4
 70
1
 10
14050.0
 20
-3980.0
 10
17350.0
 20
-3980.0
 10
17350.0
 20
-2020.0
 10
14050.0
 20
-2020.0
  0
TEXT
  5
AE
330
17
100
AcDbEntity
  8
05_ОБОРУДОВАНИЕ
100
AcDbText
 10
15700.000000000002
 20
-3000.0
 30
0.0
 40
320.0
  1
ГЭД
  7
ГОСТ
 72
1
 11
15700.000000000002
 21
-3000.0
 31
0.0
100
AcDbText
 73
2
  0
LWPOLYLINE
  5
AF
330
17
100
AcDbEntity
  8
05_ОБОРУДОВАНИЕ
100
AcDbPolyline
 90
4
 70
1
 10
6520.0
 20
2550.0
 10
17350.0
 20
2550.0
 10
17350.0
 20
3450.0
 10
6520.0
 20
3450.0
  0
TEXT
  5
B0
330
17
100
AcDbEntity
  8
05_ОБОРУДОВАНИЕ
100
AcDbText
 10
11935.0
 20
3000.0
 30
0.0
 40
320.0
  1
ВАЛ
  7
ГОСТ
 72
1
 11
11935.0
 21
3000.0
 31
0.0
100
AcDbText
 73
2
  0
LWPOLYLINE
  5
B1
330
17
100
AcDbEntity
  8
05_ОБОРУДОВАНИЕ
100
AcDbPolyline
 90
4
 70
1
 10
6520.0
 20
-3450.0
 10
17350.0
 20
-3450.0
 10
17350.0
 20
-2550.0
 10
6520.0
 20
-2550.0
  0
TEXT
  5
B2
330
17
100
AcDbEntity
  8
05_ОБОРУДОВАНИЕ
100
AcDbText
 10
11935.0
 20
-3000.0
 30
0.0
 40
320.0
  1
ВАЛ
  7
ГОСТ
 72
1
 11
11935.0
 21
-3000.0
 31
0.0
100
AcDbText
 73
2
  0
LWPOLYLINE
  5
B3
330
17
100
AcDbEntity
  8
05_ОБОРУДОВАНИЕ
100
AcDbPolyline
 90
4
 70
1
 10
5280.0
 20
2029.9999999999998
 10
6720.0
 20
2029.9999999999998
 10
6720.0
 20
3970.0
 10
5280.0
 20
3970.0
  0
TEXT
  5
B4
330
17
100
AcDbEntity
  8
05_ОБОРУДОВАНИЕ
100
AcDbText
 10
6000.0
 20
3000.0
 30
0.0
 40
320.0
  1
ВФШ
  7
ГОСТ
 72
1
 11
6000.0
 21
3000.0
 31
0.0
100
AcDbText
 73
2
  0
LWPOLYLINE
  5
B5
330
17
100
AcDbEntity
  8
05_ОБОРУДОВАНИЕ
100
AcDbPolyline
 90
4
 70
1
 10
5280.0
 20
-3970.0
 10
6720.0
 20
-3970.0
 10
6720.0
 20
-2029.9999999999998
 10
5280.0
 20
-2029.9999999999998
  0
TEXT
  5
B6
330
17
100
AcDbEntity
  8
05_ОБОРУДОВАНИЕ
100
AcDbText
 10
6000.0
 20
-3000.0
 30
0.0
 40
320.0
  1
ВФШ
  7
ГОСТ
 72
1
 11
6000.0
 21
-3000.0
 31
0.0
100
AcDbText
 73
2
  0
LWPOLYLINE
  5
B7
330
17
100
AcDbEntity
  8
05_ОБОРУДОВАНИЕ
100
AcDbPolyline
 90
4
 70
1
 10
3050.0
 20
1250.0
 10
4600.0
 20
1250.0
 10
4600.0
 20
3150.0
 10
3050.0
 20
3150.0
  0
TEXT
  5
B8
330
17
100
AcDbEntity
  8
05_ОБОРУДОВАНИЕ
100
AcDbText
 10
3824.9999999999995
 20
2200.0
 30
0.0
 40
320.0
  1
РУЛЬ
  7
ГОСТ
 72
1
 11
3824.9999999999995
 21
2200.0
 31
0.0
100
AcDbText
 73
2
  0
LWPOLYLINE
  5
B9
330
17
100
AcDbEntity
  8
05_ОБОРУДОВАНИЕ
100
AcDbPolyline
 90
4
 70
1
 10
3050.0
 20
-3150.0
 10
4600.0
 20
-3150.0
 10
4600.0
 20
-1250.0
 10
3050.0
 20
-1250.0
  0
TEXT
  5
BA
330
17
100
AcDbEntity
  8
05_ОБОРУДОВАНИЕ
100
AcDbText
 10
3824.9999999999995
 20
-2200.0
 30
0.0
 40
320.0
  1
РУЛЬ
  7
ГОСТ
 72
1
 11
3824.9999999999995
 21
-2200.0
 31
0.0
100
AcDbText
 73
2
  0
LWPOLYLINE
  5
BB
330
17
100
AcDbEntity
  8
05_ОБОРУДОВАНИЕ
100
AcDbPolyline
 90
4
 70
1
 10
27200.0
 20
-5300.0
 10
28800.0
 20
-5300.0
 10
28800.0
 20
-3300.0
 10
27200.0
 20
-3300.0
  0
TEXT
  5
BC
330
17
100
AcDbEntity
  8
05_ОБОРУДОВАНИЕ
100
AcDbText
 10
28000.0
 20
-4300.0
 30
0.0
 40
320.0
  1
КОТ
  7
ГОСТ
 72
1
 11
28000.0
 21
-4300.0
 31
0.0
100
AcDbText
 73
2
  0
LWPOLYLINE
  5
BD
330
17
100
AcDbEntity
  8
05_ОБОРУДОВАНИЕ
100
AcDbPolyline
 90
4
 70
1
 10
26850.0
 20
3150.0
 10
29150.0
 20
3150.0
 10
29150.0
 20
5450.0
 10
26850.0
 20
5450.0
  0
TEXT
  5
BE
330
17
100
AcDbEntity
  8
05_ОБОРУДОВАНИЕ
100
AcDbText
 10
28000.0
 20
4300.0
 30
0.0
 40
320.0
  1
ТО
  7
ГОСТ
 72
1
 11
28000.0
 21
4300.0
 31
0.0
100
AcDbText
 73
2
  0
LWPOLYLINE
  5
BF
330
17
100
AcDbEntity
  8
05_ОБОРУДОВАНИЕ
100
AcDbPolyline
 90
4
 70
1
 10
29000.0
 20
3150.0
 10
29900.0
 20
3150.0
 10
29900.0
 20
4600.0
 10
29000.0
 20
4600.0
  0
TEXT
  5
C0
330
17
100
AcDbEntity
  8
05_ОБОРУДОВАНИЕ
100
AcDbText
 10
29450.0
 20
3875.0
 30
0.0
 40
320.0
  1
ДЕА
  7
ГОСТ
 72
1
 11
29450.0
 21
3875.0
 31
0.0
100
AcDbText
 73
2
  0
LWPOLYLINE
  5
C1
330
17
100
AcDbEntity
  8
05_ОБОРУДОВАНИЕ
100
AcDbPolyline
 90
4
 70
1
 10
30300.0
 20
-6000.0
 10
33500.0
 20
-6000.0
 10
33500.0
 20
-3600.0
 10
30300.0
 20
-3600.0
  0
TEXT
  5
C2
330
17
100
AcDbEntity
  8
05_ОБОРУДОВАНИЕ
100
AcDbText
 10
31900.0
 20
-4800.0
 30
0.0
 40
320.0
  1
ГРЩ
  7
ГОСТ
 72
1
 11
31900.0
 21
-4800.0
 31
0.0
100
AcDbText
 73
2
  0
LWPOLYLINE
  5
C3
330
17
100
AcDbEntity
  8
05_ОБОРУДОВАНИЕ
100
AcDbPolyline
 90
4
 70
1
 10
30400.0
 20
-3300.0
 10
32800.0
 20
-3300.0
 10
32800.0
 20
-700.0
 10
30400.0
 20
-700.0
  0
TEXT
  5
C4
330
17
100
AcDbEntity
  8
05_ОБОРУДОВАНИЕ
100
AcDbText
 10
31599.999999999996
 20
-2000.0
 30
0.0
 40
320.0
  1
ЧРП
  7
ГОСТ
 72
1
 11
31599.999999999996
 21
-2000.0
 31
0.0
100
AcDbText
 73
2
  0
LWPOLYLINE
  5
C5
330
17
100
AcDbEntity
  8
05_ОБОРУДОВАНИЕ
100
AcDbPolyline
 90
4
 70
1
 10
30400.0
 20
800.0
 10
32200.000000000004
 20
800.0
 10
32200.000000000004
 20
3200.0
 10
30400.0
 20
3200.0
  0
TEXT
  5
C6
330
17
100
AcDbEntity
  8
05_ОБОРУДОВАНИЕ
100
AcDbText
 10
31300.0
 20
2000.0
 30
0.0
 40
320.0
  1
МБР
  7
ГОСТ
 72
1
 11
31300.0
 21
2000.0
 31
0.0
100
AcDbText
 73
2
  0
LWPOLYLINE
  5
C7
330
17
100
AcDbEntity
  8
05_ОБОРУДОВАНИЕ
100
AcDbPolyline
 90
4
 70
1
 10
30400.0
 20
3500.0
 10
32200.000000000004
 20
3500.0
 10
32200.000000000004
 20
5800.0
 10
30400.0
 20
5800.0
  0
TEXT
  5
C8
330
17
100
AcDbEntity
  8
05_ОБОРУДОВАНИЕ
100
AcDbText
 10
31300.0
 20
4650.0
 30
0.0
 40
320.0
  1
БИО
  7
ГОСТ
 72
1
 11
31300.0
 21
4650.0
 31
0.0
100
AcDbText
 73
2
  0
LWPOLYLINE
  5
C9
330
17
100
AcDbEntity
  8
05_ОБОРУДОВАНИЕ
100
AcDbPolyline
 90
4
 70
1
 10
32600.0
 20
800.0
 10
33500.0
 20
800.0
 10
33500.0
 20
2200.0
 10
32600.0
 20
2200.0
  0
TEXT
  5
CA
330
17
100
AcDbEntity
  8
05_ОБОРУДОВАНИЕ
100
AcDbText
 10
33050.0
 20
1500.0
 30
0.0
 40
320.0
  1
СЕП
  7
ГОСТ
 72
1
 11
33050.0
 21
1500.0
 31
0.0
100
AcDbText
 73
2
  0
LWPOLYLINE
  5
CB
330
17
100
AcDbEntity
  8
05_ОБОРУДОВАНИЕ
100
AcDbPolyline
 90
4
 70
1
 10
32600.0
 20
2500.0
 10
33500.0
 20
2500.0
 10
33500.0
 20
3900.0
 10
32600.0
 20
3900.0
  0
TEXT
  5
CC
330
17
100
AcDbEntity
  8
05_ОБОРУДОВАНИЕ
100
AcDbText
 10
33050.0
 20
3200.0
 30
0.0
 40
320.0
  1
УФ
  7
ГОСТ
 72
1
 11
33050.0
 21
3200.0
 31
0.0
100
AcDbText
 73
2
  0
LWPOLYLINE
  5
CD
330
17
100
AcDbEntity
  8
05_ОБОРУДОВАНИЕ
100
AcDbPolyline
 90
4
 70
1
 10
32600.0
 20
4200.0
 10
33500.0
 20
4200.0
 10
33500.0
 20
5800.0
 10
32600.0
 20
5800.0
  0
TEXT
  5
CE
330
17
100
AcDbEntity
  8
05_ОБОРУДОВАНИЕ
100
AcDbText
 10
33050.0
 20
5000.0
 30
0.0
 40
320.0
  1
НАС
  7
ГОСТ
 72
1
 11
33050.0
 21
5000.0
 31
0.0
100
AcDbText
 73
2
  0
LWPOLYLINE
  5
CF
330
17
100
AcDbEntity
  8
05_ОБОРУДОВАНИЕ
100
AcDbPolyline
 90
4
 70
1
 10
10170.0
 20
-7410.0
 10
11330.0
 20
-7410.0
 10
11330.0
 20
7410.0
 10
10170.0
 20
7410.0
  0
TEXT
  5
D0
330
17
100
AcDbEntity
  8
05_ОБОРУДОВАНИЕ
100
AcDbText
 10
10750.0
 20
0.0
 30
0.0
 40
320.0
  1
ПУ-К
  7
ГОСТ
 72
1
 11
10750.0
 21
0.0
 31
0.0
100
AcDbText
 73
2
  0
LINE
  5
D1
330
17
100
AcDbEntity
  8
09_РАЗМЕРЫ
100
AcDbLine
 10
0.0
 20
-8600.0
 30
0.0
 11
0.0
 21
-8900.0
 31
0.0
  0
TEXT
  5
D2
330
17
100
AcDbEntity
  8
09_РАЗМЕРЫ
100
AcDbText
 10
0.0
 20
-9300.0
 30
0.0
 40
300.0
  1
0
  7
ГОСТ
 72
1
 11
0.0
 21
-9300.0
 31
0.0
100
AcDbText
 73
2
  0
LINE
  5
D3
330
17
100
AcDbEntity
  8
09_РАЗМЕРЫ
100
AcDbLine
 10
2750.0
 20
-8600.0
 30
0.0
 11
2750.0
 21
-8740.0
 31
0.0
  0
LINE
  5
D4
330
17
100
AcDbEntity
  8
09_РАЗМЕРЫ
100
AcDbLine
 10
5500.0
 20
-8600.0
 30
0.0
 11
5500.0
 21
-8740.0
 31
0.0
  0
LINE
  5
D5
330
17
100
AcDbEntity
  8
09_РАЗМЕРЫ
100
AcDbLine
 10
8250.0
 20
-8600.0
 30
0.0
 11
8250.0
 21
-8740.0
 31
0.0
  0
LINE
  5
D6
330
17
100
AcDbEntity
  8
09_РАЗМЕРЫ
100
AcDbLine
 10
11000.0
 20
-8600.0
 30
0.0
 11
11000.0
 21
-8900.0
 31
0.0
  0
TEXT
  5
D7
330
17
100
AcDbEntity
  8
09_РАЗМЕРЫ
100
AcDbText
 10
11000.0
 20
-9300.0
 30
0.0
 40
300.0
  1
20
  7
ГОСТ
 72
1
 11
11000.0
 21
-9300.0
 31
0.0
100
AcDbText
 73
2
  0
LINE
  5
D8
330
17
100
AcDbEntity
  8
09_РАЗМЕРЫ
100
AcDbLine
 10
13750.000000000002
 20
-8600.0
 30
0.0
 11
13750.000000000002
 21
-8740.0
 31
0.0
  0
LINE
  5
D9
330
17
100
AcDbEntity
  8
09_РАЗМЕРЫ
100
AcDbLine
 10
16500.0
 20
-8600.0
 30
0.0
 11
16500.0
 21
-8740.0
 31
0.0
  0
LINE
  5
DA
330
17
100
AcDbEntity
  8
09_РАЗМЕРЫ
100
AcDbLine
 10
19250.0
 20
-8600.0
 30
0.0
 11
19250.0
 21
-8740.0
 31
0.0
  0
LINE
  5
DB
330
17
100
AcDbEntity
  8
09_РАЗМЕРЫ
100
AcDbLine
 10
22000.0
 20
-8600.0
 30
0.0
 11
22000.0
 21
-8900.0
 31
0.0
  0
TEXT
  5
DC
330
17
100
AcDbEntity
  8
09_РАЗМЕРЫ
100
AcDbText
 10
22000.0
 20
-9300.0
 30
0.0
 40
300.0
  1
40
  7
ГОСТ
 72
1
 11
22000.0
 21
-9300.0
 31
0.0
100
AcDbText
 73
2
  0
LINE
  5
DD
330
17
100
AcDbEntity
  8
09_РАЗМЕРЫ
100
AcDbLine
 10
24750.000000000004
 20
-8600.0
 30
0.0
 11
24750.000000000004
 21
-8740.0
 31
0.0
  0
LINE
  5
DE
330
17
100
AcDbEntity
  8
09_РАЗМЕРЫ
100
AcDbLine
 10
27500.000000000004
 20
-8600.0
 30
0.0
 11
27500.000000000004
 21
-8740.0
 31
0.0
  0
LINE
  5
DF
330
17
100
AcDbEntity
  8
09_РАЗМЕРЫ
100
AcDbLine
 10
30250.000000000004
 20
-8600.0
 30
0.0
 11
30250.000000000004
 21
-8740.0
 31
0.0
  0
LINE
  5
E0
330
17
100
AcDbEntity
  8
09_РАЗМЕРЫ
100
AcDbLine
 10
33000.0
 20
-8600.0
 30
0.0
 11
33000.0
 21
-8900.0
 31
0.0
  0
TEXT
  5
E1
330
17
100
AcDbEntity
  8
09_РАЗМЕРЫ
100
AcDbText
 10
33000.0
 20
-9300.0
 30
0.0
 40
300.0
  1
60
  7
ГОСТ
 72
1
 11
33000.0
 21
-9300.0
 31
0.0
100
AcDbText
 73
2
  0
LINE
  5
E2
330
17
100
AcDbEntity
  8
09_РАЗМЕРЫ
100
AcDbLine
 10
35750.0
 20
-8600.0
 30
0.0
 11
35750.0
 21
-8740.0
 31
0.0
  0
LINE
  5
E3
330
17
100
AcDbEntity
  8
09_РАЗМЕРЫ
100
AcDbLine
 10
0.0
 20
-8600.0
 30
0.0
 11
37950.0
 21
-8600.0
 31
0.0
  0
TEXT
  5
E4
330
17
100
AcDbEntity
  8
09_РАЗМЕРЫ
100
AcDbText
 10
42000.0
 20
-9300.0
 30
0.0
 40
300.0
  1
№ шп., шпация 550
  7
ГОСТ
 11
42000.0
 21
-9300.0
 31
0.0
100
AcDbText
 73
2
  0
LINE
  5
E5
330
17
100
AcDbEntity
  8
00_РАМКА
100
AcDbLine
 10
0.0
 20
-15600.0
 30
0.0
 11
26800.0
 21
-15600.0
 31
0.0
  0
LINE
  5
E6
330
17
100
AcDbEntity
  8
00_РАМКА
100
AcDbLine
 10
0.0
 20
-16150.0
 30
0.0
 11
26800.0
 21
-16150.0
 31
0.0
  0
LINE
  5
E7
330
17
100
AcDbEntity
  8
00_РАМКА
100
AcDbLine
 10
0.0
 20
-16700.0
 30
0.0
 11
26800.0
 21
-16700.0
 31
0.0
  0
LINE
  5
E8
330
17
100
AcDbEntity
  8
00_РАМКА
100
AcDbLine
 10
0.0
 20
-17250.0
 30
0.0
 11
26800.0
 21
-17250.0
 31
0.0
  0
LINE
  5
E9
330
17
100
AcDbEntity
  8
00_РАМКА
100
AcDbLine
 10
0.0
 20
-17800.0
 30
0.0
 11
26800.0
 21
-17800.0
 31
0.0
  0
LINE
  5
EA
330
17
100
AcDbEntity
  8
00_РАМКА
100
AcDbLine
 10
0.0
 20
-18350.0
 30
0.0
 11
26800.0
 21
-18350.0
 31
0.0
  0
LINE
  5
EB
330
17
100
AcDbEntity
  8
00_РАМКА
100
AcDbLine
 10
0.0
 20
-18900.0
 30
0.0
 11
26800.0
 21
-18900.0
 31
0.0
  0
LINE
  5
EC
330
17
100
AcDbEntity
  8
00_РАМКА
100
AcDbLine
 10
0.0
 20
-19450.0
 30
0.0
 11
26800.0
 21
-19450.0
 31
0.0
  0
LINE
  5
ED
330
17
100
AcDbEntity
  8
00_РАМКА
100
AcDbLine
 10
0.0
 20
-20000.0
 30
0.0
 11
26800.0
 21
-20000.0
 31
0.0
  0
LINE
  5
EE
330
17
100
AcDbEntity
  8
00_РАМКА
100
AcDbLine
 10
0.0
 20
-20550.0
 30
0.0
 11
26800.0
 21
-20550.0
 31
0.0
  0
LINE
  5
EF
330
17
100
AcDbEntity
  8
00_РАМКА
100
AcDbLine
 10
0.0
 20
-21100.0
 30
0.0
 11
26800.0
 21
-21100.0
 31
0.0
  0
LINE
  5
F0
330
17
100
AcDbEntity
  8
00_РАМКА
100
AcDbLine
 10
0.0
 20
-21650.0
 30
0.0
 11
26800.0
 21
-21650.0
 31
0.0
  0
LINE
  5
F1
330
17
100
AcDbEntity
  8
00_РАМКА
100
AcDbLine
 10
0.0
 20
-22200.0
 30
0.0
 11
26800.0
 21
-22200.0
 31
0.0
  0
LINE
  5
F2
330
17
100
AcDbEntity
  8
00_РАМКА
100
AcDbLine
 10
0.0
 20
-22750.0
 30
0.0
 11
26800.0
 21
-22750.0
 31
0.0
  0
LINE
  5
F3
330
17
100
AcDbEntity
  8
00_РАМКА
100
AcDbLine
 10
0.0
 20
-23300.0
 30
0.0
 11
26800.0
 21
-23300.0
 31
0.0
  0
LINE
  5
F4
330
17
100
AcDbEntity
  8
00_РАМКА
100
AcDbLine
 10
0.0
 20
-23850.0
 30
0.0
 11
26800.0
 21
-23850.0
 31
0.0
  0
LINE
  5
F5
330
17
100
AcDbEntity
  8
00_РАМКА
100
AcDbLine
 10
0.0
 20
-24400.0
 30
0.0
 11
26800.0
 21
-24400.0
 31
0.0
  0
LINE
  5
F6
330
17
100
AcDbEntity
  8
00_РАМКА
100
AcDbLine
 10
0.0
 20
-24950.0
 30
0.0
 11
26800.0
 21
-24950.0
 31
0.0
  0
LINE
  5
F7
330
17
100
AcDbEntity
  8
00_РАМКА
100
AcDbLine
 10
0.0
 20
-25500.0
 30
0.0
 11
26800.0
 21
-25500.0
 31
0.0
  0
LINE
  5
F8
330
17
100
AcDbEntity
  8
00_РАМКА
100
AcDbLine
 10
0.0
 20
-15600.0
 30
0.0
 11
0.0
 21
-25500.0
 31
0.0
  0
LINE
  5
F9
330
17
100
AcDbEntity
  8
00_РАМКА
100
AcDbLine
 10
1000.0
 20
-15600.0
 30
0.0
 11
1000.0
 21
-25500.0
 31
0.0
  0
LINE
  5
FA
330
17
100
AcDbEntity
  8
00_РАМКА
100
AcDbLine
 10
2600.0
 20
-15600.0
 30
0.0
 11
2600.0
 21
-25500.0
 31
0.0
  0
LINE
  5
FB
330
17
100
AcDbEntity
  8
00_РАМКА
100
AcDbLine
 10
10800.0
 20
-15600.0
 30
0.0
 11
10800.0
 21
-25500.0
 31
0.0
  0
LINE
  5
FC
330
17
100
AcDbEntity
  8
00_РАМКА
100
AcDbLine
 10
12200.0
 20
-15600.0
 30
0.0
 11
12200.0
 21
-25500.0
 31
0.0
  0
LINE
  5
FD
330
17
100
AcDbEntity
  8
00_РАМКА
100
AcDbLine
 10
13600.0
 20
-15600.0
 30
0.0
 11
13600.0
 21
-25500.0
 31
0.0
  0
LINE
  5
FE
330
17
100
AcDbEntity
  8
00_РАМКА
100
AcDbLine
 10
14800.0
 20
-15600.0
 30
0.0
 11
14800.0
 21
-25500.0
 31
0.0
  0
LINE
  5
FF
330
17
100
AcDbEntity
  8
00_РАМКА
100
AcDbLine
 10
17200.0
 20
-15600.0
 30
0.0
 11
17200.0
 21
-25500.0
 31
0.0
  0
LINE
  5
100
330
17
100
AcDbEntity
  8
00_РАМКА
100
AcDbLine
 10
26800.0
 20
-15600.0
 30
0.0
 11
26800.0
 21
-25500.0
 31
0.0
  0
TEXT
  5
101
330
17
100
AcDbEntity
  8
08_ТЕКСТ
100
AcDbText
 10
150.0
 20
-15875.0
 30
0.0
 40
280.0
  1
№
  7
ГОСТ
 11
150.0
 21
-15875.0
 31
0.0
100
AcDbText
 73
2
  0
TEXT
  5
102
330
17
100
AcDbEntity
  8
08_ТЕКСТ
100
AcDbText
 10
1150.0
 20
-15875.0
 30
0.0
 40
280.0
  1
Код
  7
ГОСТ
 11
1150.0
 21
-15875.0
 31
0.0
100
AcDbText
 73
2
  0
TEXT
  5
103
330
17
100
AcDbEntity
  8
08_ТЕКСТ
100
AcDbText
 10
2750.0
 20
-15875.0
 30
0.0
 40
280.0
  1
Наименование
  7
ГОСТ
 11
2750.0
 21
-15875.0
 31
0.0
100
AcDbText
 73
2
  0
TEXT
  5
104
330
17
100
AcDbEntity
  8
08_ТЕКСТ
100
AcDbText
 10
10950.0
 20
-15875.0
 30
0.0
 40
280.0
  1
Кол.
  7
ГОСТ
 11
10950.0
 21
-15875.0
 31
0.0
100
AcDbText
 73
2
  0
TEXT
  5
105
330
17
100
AcDbEntity
  8
08_ТЕКСТ
100
AcDbText
 10
12350.0
 20
-15875.0
 30
0.0
 40
280.0
  1
кВт
  7
ГОСТ
 11
12350.0
 21
-15875.0
 31
0.0
100
AcDbText
 73
2
  0
TEXT
  5
106
330
17
100
AcDbEntity
  8
08_ТЕКСТ
100
AcDbText
 10
13750.0
 20
-15875.0
 30
0.0
 40
280.0
  1
т
  7
ГОСТ
 11
13750.0
 21
-15875.0
 31
0.0
100
AcDbText
 73
2
  0
TEXT
  5
107
330
17
100
AcDbEntity
  8
08_ТЕКСТ
100
AcDbText
 10
14950.0
 20
-15875.0
 30
0.0
 40
280.0
  1
x, м
  7
ГОСТ
 11
14950.0
 21
-15875.0
 31
0.0
100
AcDbText
 73
2
  0
TEXT
  5
108
330
17
100
AcDbEntity
  8
08_ТЕКСТ
100
AcDbText
 10
17350.0
 20
-15875.0
 30
0.0
 40
280.0
  1
Примечание
  7
ГОСТ
 11
17350.0
 21
-15875.0
 31
0.0
100
AcDbText
 73
2
  0
TEXT
  5
109
330
17
100
AcDbEntity
  8
08_ТЕКСТ
100
AcDbText
 10
150.0
 20
-16425.0
 30
0.0
 40
250.0
  1
1
  7
ГОСТ
 11
150.0
 21
-16425.0
 31
0.0
100
AcDbText
 73
2
  0
TEXT
  5
10A
330
17
100
AcDbEntity
  8
08_ТЕКСТ
100
AcDbText
 10
1150.0
 20
-16425.0
 30
0.0
 40
250.0
  1
ГДГ-1
  7
ГОСТ
 11
1150.0
 21
-16425.0
 31
0.0
100
AcDbText
 73
2
  0
TEXT
  5
10B
330
17
100
AcDbEntity
  8
08_ТЕКСТ
100
AcDbText
 10
2750.0
 20
-16425.0
 30
0.0
 40
250.0
  1
Главный дизель-генератор 1600 кВт, 690 В
  7
ГОСТ
 11
2750.0
 21
-16425.0
 31
0.0
100
AcDbText
 73
2
  0
TEXT
  5
10C
330
17
100
AcDbEntity
  8
08_ТЕКСТ
100
AcDbText
 10
10950.0
 20
-16425.0
 30
0.0
 40
250.0
  1
4
  7
ГОСТ
 11
10950.0
 21
-16425.0
 31
0.0
100
AcDbText
 73
2
  0
TEXT
  5
10D
330
17
100
AcDbEntity
  8
08_ТЕКСТ
100
AcDbText
 10
12350.0
 20
-16425.0
 30
0.0
 40
250.0
  1
1600
  7
ГОСТ
 11
12350.0
 21
-16425.0
 31
0.0
100
AcDbText
 73
2
  0
TEXT
  5
10E
330
17
100
AcDbEntity
  8
08_ТЕКСТ
100
AcDbText
 10
13750.0
 20
-16425.0
 30
0.0
 40
250.0
  1
18.0
  7
ГОСТ
 11
13750.0
 21
-16425.0
 31
0.0
100
AcDbText
 73
2
  0
TEXT
  5
10F
330
17
100
AcDbEntity
  8
08_ТЕКСТ
100
AcDbText
 10
14950.0
 20
-16425.0
 30
0.0
 40
250.0
  1
14.5…19.7
  7
ГОСТ
 11
14950.0
 21
-16425.0
 31
0.0
100
AcDbText
 73
2
  0
TEXT
  5
110
330
17
100
AcDbEntity
  8
08_ТЕКСТ
100
AcDbText
 10
17350.0
 20
-16425.0
 30
0.0
 40
250.0
  1
на амортизаторах, выхлоп в бортовую шахту
  7
ГОСТ
 11
17350.0
 21
-16425.0
 31
0.0
100
AcDbText
 73
2
  0
TEXT
  5
111
330
17
100
AcDbEntity
  8
08_ТЕКСТ
100
AcDbText
 10
150.0
 20
-16975.0
 30
0.0
 40
250.0
  1
2
  7
ГОСТ
 11
150.0
 21
-16975.0
 31
0.0
100
AcDbText
 73
2
  0
TEXT
  5
112
330
17
100
AcDbEntity
  8
08_ТЕКСТ
100
AcDbText
 10
1150.0
 20
-16975.0
 30
0.0
 40
250.0
  1
ГДГ-3
  7
ГОСТ
 11
1150.0
 21
-16975.0
 31
0.0
100
AcDbText
 73
2
  0
TEXT
  5
113
330
17
100
AcDbEntity
  8
08_ТЕКСТ
100
AcDbText
 10
2750.0
 20
-16975.0
 30
0.0
 40
250.0
  1
Главный дизель-генератор 1600 кВт, 690 В
  7
ГОСТ
 11
2750.0
 21
-16975.0
 31
0.0
100
AcDbText
 73
2
  0
TEXT
  5
114
330
17
100
AcDbEntity
  8
08_ТЕКСТ
100
AcDbText
 10
10950.0
 20
-16975.0
 30
0.0
 40
250.0
  1
1
  7
ГОСТ
 11
10950.0
 21
-16975.0
 31
0.0
100
AcDbText
 73
2
  0
TEXT
  5
115
330
17
100
AcDbEntity
  8
08_ТЕКСТ
100
AcDbText
 10
12350.0
 20
-16975.0
 30
0.0
 40
250.0
  1
1600
  7
ГОСТ
 11
12350.0
 21
-16975.0
 31
0.0
100
AcDbText
 73
2
  0
TEXT
  5
116
330
17
100
AcDbEntity
  8
08_ТЕКСТ
100
AcDbText
 10
13750.0
 20
-16975.0
 30
0.0
 40
250.0
  1
18.0
  7
ГОСТ
 11
13750.0
 21
-16975.0
 31
0.0
100
AcDbText
 73
2
  0
TEXT
  5
117
330
17
100
AcDbEntity
  8
08_ТЕКСТ
100
AcDbText
 10
14950.0
 20
-16975.0
 30
0.0
 40
250.0
  1
21.0…26.2
  7
ГОСТ
 11
14950.0
 21
-16975.0
 31
0.0
100
AcDbText
 73
2
  0
TEXT
  5
118
330
17
100
AcDbEntity
  8
08_ТЕКСТ
100
AcDbText
 10
17350.0
 20
-16975.0
 30
0.0
 40
250.0
  1
центральный, выхлоп в общую шахту
  7
ГОСТ
 11
17350.0
 21
-16975.0
 31
0.0
100
AcDbText
 73
2
  0
TEXT
  5
119
330
17
100
AcDbEntity
  8
08_ТЕКСТ
100
AcDbText
 10
150.0
 20
-17525.0
 30
0.0
 40
250.0
  1
3
  7
ГОСТ
 11
150.0
 21
-17525.0
 31
0.0
100
AcDbText
 73
2
  0
TEXT
  5
11A
330
17
100
AcDbEntity
  8
08_ТЕКСТ
100
AcDbText
 10
1150.0
 20
-17525.0
 30
0.0
 40
250.0
  1
ГЭД
  7
ГОСТ
 11
1150.0
 21
-17525.0
 31
0.0
100
AcDbText
 73
2
  0
TEXT
  5
11B
330
17
100
AcDbEntity
  8
08_ТЕКСТ
100
AcDbText
 10
2750.0
 20
-17525.0
 30
0.0
 40
250.0
  1
Гребной электродвигатель 1800 кВт
  7
ГОСТ
 11
2750.0
 21
-17525.0
 31
0.0
100
AcDbText
 73
2
  0
TEXT
  5
11C
330
17
100
AcDbEntity
  8
08_ТЕКСТ
100
AcDbText
 10
10950.0
 20
-17525.0
 30
0.0
 40
250.0
  1
4
  7
ГОСТ
 11
10950.0
 21
-17525.0
 31
0.0
100
AcDbText
 73
2
  0
TEXT
  5
11D
330
17
100
AcDbEntity
  8
08_ТЕКСТ
100
AcDbText
 10
12350.0
 20
-17525.0
 30
0.0
 40
250.0
  1
1800
  7
ГОСТ
 11
12350.0
 21
-17525.0
 31
0.0
100
AcDbText
 73
2
  0
TEXT
  5
11E
330
17
100
AcDbEntity
  8
08_ТЕКСТ
100
AcDbText
 10
13750.0
 20
-17525.0
 30
0.0
 40
250.0
  1
12.0
  7
ГОСТ
 11
13750.0
 21
-17525.0
 31
0.0
100
AcDbText
 73
2
  0
TEXT
  5
11F
330
17
100
AcDbEntity
  8
08_ТЕКСТ
100
AcDbText
 10
14950.0
 20
-17525.0
 30
0.0
 40
250.0
  1
14.1…17.4
  7
ГОСТ
 11
14950.0
 21
-17525.0
 31
0.0
100
AcDbText
 73
2
  0
TEXT
  5
120
330
17
100
AcDbEntity
  8
08_ТЕКСТ
100
AcDbText
 10
17350.0
 20
-17525.0
 30
0.0
 40
250.0
  1
прямой привод на линию вала
  7
ГОСТ
 11
17350.0
 21
-17525.0
 31
0.0
100
AcDbText
 73
2
  0
TEXT
  5
121
330
17
100
AcDbEntity
  8
08_ТЕКСТ
100
AcDbText
 10
150.0
 20
-18075.0
 30
0.0
 40
250.0
  1
4
  7
ГОСТ
 11
150.0
 21
-18075.0
 31
0.0
100
AcDbText
 73
2
  0
TEXT
  5
122
330
17
100
AcDbEntity
  8
08_ТЕКСТ
100
AcDbText
 10
1150.0
 20
-18075.0
 30
0.0
 40
250.0
  1
ВАЛ
  7
ГОСТ
 11
1150.0
 21
-18075.0
 31
0.0
100
AcDbText
 73
2
  0
TEXT
  5
123
330
17
100
AcDbEntity
  8
08_ТЕКСТ
100
AcDbText
 10
2750.0
 20
-18075.0
 30
0.0
 40
250.0
  1
Валопровод с дейдвудом и упорным подшипником
  7
ГОСТ
 11
2750.0
 21
-18075.0
 31
0.0
100
AcDbText
 73
2
  0
TEXT
  5
124
330
17
100
AcDbEntity
  8
08_ТЕКСТ
100
AcDbText
 10
10950.0
 20
-18075.0
 30
0.0
 40
250.0
  1
4
  7
ГОСТ
 11
10950.0
 21
-18075.0
 31
0.0
100
AcDbText
 73
2
  0
TEXT
  5
125
330
17
100
AcDbEntity
  8
08_ТЕКСТ
100
AcDbText
 10
12350.0
 20
-18075.0
 30
0.0
 40
250.0
  1
—
  7
ГОСТ
 11
12350.0
 21
-18075.0
 31
0.0
100
AcDbText
 73
2
  0
TEXT
  5
126
330
17
100
AcDbEntity
  8
08_ТЕКСТ
100
AcDbText
 10
13750.0
 20
-18075.0
 30
0.0
 40
250.0
  1
9.0
  7
ГОСТ
 11
13750.0
 21
-18075.0
 31
0.0
100
AcDbText
 73
2
  0
TEXT
  5
127
330
17
100
AcDbEntity
  8
08_ТЕКСТ
100
AcDbText
 10
14950.0
 20
-18075.0
 30
0.0
 40
250.0
  1
6.5…17.4
  7
ГОСТ
 11
14950.0
 21
-18075.0
 31
0.0
100
AcDbText
 73
2
  0
TEXT
  5
128
330
17
100
AcDbEntity
  8
08_ТЕКСТ
100
AcDbText
 10
17350.0
 20
-18075.0
 30
0.0
 40
250.0
  1
ось вала 1.58 м в МО, 1.00 м у винта
  7
ГОСТ
 11
17350.0
 21
-18075.0
 31
0.0
100
AcDbText
 73
2
  0
TEXT
  5
129
330
17
100
AcDbEntity
  8
08_ТЕКСТ
100
AcDbText
 10
150.0
 20
-18625.0
 30
0.0
 40
250.0
  1
5
  7
ГОСТ
 11
150.0
 21
-18625.0
 31
0.0
100
AcDbText
 73
2
  0
TEXT
  5
12A
330
17
100
AcDbEntity
  8
08_ТЕКСТ
100
AcDbText
 10
1150.0
 20
-18625.0
 30
0.0
 40
250.0
  1
ВФШ
  7
ГОСТ
 11
1150.0
 21
-18625.0
 31
0.0
100
AcDbText
 73
2
  0
TEXT
  5
12B
330
17
100
AcDbEntity
  8
08_ТЕКСТ
100
AcDbText
 10
2750.0
 20
-18625.0
 30
0.0
 40
250.0
  1
Винт фиксированного шага D = 1.70 м в насадке Корт
  7
ГОСТ
 11
2750.0
 21
-18625.0
 31
0.0
100
AcDbText
 73
2
  0
TEXT
  5
12C
330
17
100
AcDbEntity
  8
08_ТЕКСТ
100
AcDbText
 10
10950.0
 20
-18625.0
 30
0.0
 40
250.0
  1
4
  7
ГОСТ
 11
10950.0
 21
-18625.0
 31
0.0
100
AcDbText
 73
2
  0
TEXT
  5
12D
330
17
100
AcDbEntity
  8
08_ТЕКСТ
100
AcDbText
 10
12350.0
 20
-18625.0
 30
0.0
 40
250.0
  1
—
  7
ГОСТ
 11
12350.0
 21
-18625.0
 31
0.0
100
AcDbText
 73
2
  0
TEXT
  5
12E
330
17
100
AcDbEntity
  8
08_ТЕКСТ
100
AcDbText
 10
13750.0
 20
-18625.0
 30
0.0
 40
250.0
  1
3.2
  7
ГОСТ
 11
13750.0
 21
-18625.0
 31
0.0
100
AcDbText
 73
2
  0
TEXT
  5
12F
330
17
100
AcDbEntity
  8
08_ТЕКСТ
100
AcDbText
 10
14950.0
 20
-18625.0
 30
0.0
 40
250.0
  1
5.3…6.7
  7
ГОСТ
 11
14950.0
 21
-18625.0
 31
0.0
100
AcDbText
 73
2
  0
TEXT
  5
130
330
17
100
AcDbEntity
  8
08_ТЕКСТ
100
AcDbText
 10
17350.0
 20
-18625.0
 30
0.0
 40
250.0
  1
насадка Корт, наружный диаметр 1.94 м
  7
ГОСТ
 11
17350.0
 21
-18625.0
 31
0.0
100
AcDbText
 73
2
  0
TEXT
  5
131
330
17
100
AcDbEntity
  8
08_ТЕКСТ
100
AcDbText
 10
150.0
 20
-19175.0
 30
0.0
 40
250.0
  1
6
  7
ГОСТ
 11
150.0
 21
-19175.0
 31
0.0
100
AcDbText
 73
2
  0
TEXT
  5
132
330
17
100
AcDbEntity
  8
08_ТЕКСТ
100
AcDbText
 10
1150.0
 20
-19175.0
 30
0.0
 40
250.0
  1
РУЛЬ
  7
ГОСТ
 11
1150.0
 21
-19175.0
 31
0.0
100
AcDbText
 73
2
  0
TEXT
  5
133
330
17
100
AcDbEntity
  8
08_ТЕКСТ
100
AcDbText
 10
2750.0
 20
-19175.0
 30
0.0
 40
250.0
  1
Руль полуподвесной с рудерписом
  7
ГОСТ
 11
2750.0
 21
-19175.0
 31
0.0
100
AcDbText
 73
2
  0
TEXT
  5
134
330
17
100
AcDbEntity
  8
08_ТЕКСТ
100
AcDbText
 10
10950.0
 20
-19175.0
 30
0.0
 40
250.0
  1
4
  7
ГОСТ
 11
10950.0
 21
-19175.0
 31
0.0
100
AcDbText
 73
2
  0
TEXT
  5
135
330
17
100
AcDbEntity
  8
08_ТЕКСТ
100
AcDbText
 10
12350.0
 20
-19175.0
 30
0.0
 40
250.0
  1
—
  7
ГОСТ
 11
12350.0
 21
-19175.0
 31
0.0
100
AcDbText
 73
2
  0
TEXT
  5
136
330
17
100
AcDbEntity
  8
08_ТЕКСТ
100
AcDbText
 10
13750.0
 20
-19175.0
 30
0.0
 40
250.0
  1
4.5
  7
ГОСТ
 11
13750.0
 21
-19175.0
 31
0.0
100
AcDbText
 73
2
  0
TEXT
  5
137
330
17
100
AcDbEntity
  8
08_ТЕКСТ
100
AcDbText
 10
14950.0
 20
-19175.0
 30
0.0
 40
250.0
  1
3.0…4.6
  7
ГОСТ
 11
14950.0
 21
-19175.0
 31
0.0
100
AcDbText
 73
2
  0
TEXT
  5
138
330
17
100
AcDbEntity
  8
08_ТЕКСТ
100
AcDbText
 10
17350.0
 20
-19175.0
 30
0.0
 40
250.0
  1
баллер до z = 2.95, румпельное в ахтерпике
  7
ГОСТ
 11
17350.0
 21
-19175.0
 31
0.0
100
AcDbText
 73
2
  0
TEXT
  5
139
330
17
100
AcDbEntity
  8
08_ТЕКСТ
100
AcDbText
 10
150.0
 20
-19725.0
 30
0.0
 40
250.0
  1
7
  7
ГОСТ
 11
150.0
 21
-19725.0
 31
0.0
100
AcDbText
 73
2
  0
TEXT
  5
13A
330
17
100
AcDbEntity
  8
08_ТЕКСТ
100
AcDbText
 10
1150.0
 20
-19725.0
 30
0.0
 40
250.0
  1
КОТ
  7
ГОСТ
 11
1150.0
 21
-19725.0
 31
0.0
100
AcDbText
 73
2
  0
TEXT
  5
13B
330
17
100
AcDbEntity
  8
08_ТЕКСТ
100
AcDbText
 10
2750.0
 20
-19725.0
 30
0.0
 40
250.0
  1
Котёл комбинированный, 7…10 бар, 1.2 т/ч
  7
ГОСТ
 11
2750.0
 21
-19725.0
 31
0.0
100
AcDbText
 73
2
  0
TEXT
  5
13C
330
17
100
AcDbEntity
  8
08_ТЕКСТ
100
AcDbText
 10
10950.0
 20
-19725.0
 30
0.0
 40
250.0
  1
1
  7
ГОСТ
 11
10950.0
 21
-19725.0
 31
0.0
100
AcDbText
 73
2
  0
TEXT
  5
13D
330
17
100
AcDbEntity
  8
08_ТЕКСТ
100
AcDbText
 10
12350.0
 20
-19725.0
 30
0.0
 40
250.0
  1
900
  7
ГОСТ
 11
12350.0
 21
-19725.0
 31
0.0
100
AcDbText
 73
2
  0
TEXT
  5
13E
330
17
100
AcDbEntity
  8
08_ТЕКСТ
100
AcDbText
 10
13750.0
 20
-19725.0
 30
0.0
 40
250.0
  1
6.5
  7
ГОСТ
 11
13750.0
 21
-19725.0
 31
0.0
100
AcDbText
 73
2
  0
TEXT
  5
13F
330
17
100
AcDbEntity
  8
08_ТЕКСТ
100
AcDbText
 10
14950.0
 20
-19725.0
 30
0.0
 40
250.0
  1
27.2…28.8
  7
ГОСТ
 11
14950.0
 21
-19725.0
 31
0.0
100
AcDbText
 73
2
  0
TEXT
  5
140
330
17
100
AcDbEntity
  8
08_ТЕКСТ
100
AcDbText
 10
17350.0
 20
-19725.0
 30
0.0
 40
250.0
  1
утилизационный контур от ВТ-воды ГДГ + топливный догрев
  7
ГОСТ
 11
17350.0
 21
-19725.0
 31
0.0
100
AcDbText
 73
2
  0
TEXT
  5
141
330
17
100
AcDbEntity
  8
08_ТЕКСТ
100
AcDbText
 10
150.0
 20
-20275.0
 30
0.0
 40
250.0
  1
8
  7
ГОСТ
 11
150.0
 21
-20275.0
 31
0.0
100
AcDbText
 73
2
  0
TEXT
  5
142
330
17
100
AcDbEntity
  8
08_ТЕКСТ
100
AcDbText
 10
1150.0
 20
-20275.0
 30
0.0
 40
250.0
  1
ТО
  7
ГОСТ
 11
1150.0
 21
-20275.0
 31
0.0
100
AcDbText
 73
2
  0
TEXT
  5
143
330
17
100
AcDbEntity
  8
08_ТЕКСТ
100
AcDbText
 10
2750.0
 20
-20275.0
 30
0.0
 40
250.0
  1
Пластинчатый теплообменник центральный
  7
ГОСТ
 11
2750.0
 21
-20275.0
 31
0.0
100
AcDbText
 73
2
  0
TEXT
  5
144
330
17
100
AcDbEntity
  8
08_ТЕКСТ
100
AcDbText
 10
10950.0
 20
-20275.0
 30
0.0
 40
250.0
  1
1
  7
ГОСТ
 11
10950.0
 21
-20275.0
 31
0.0
100
AcDbText
 73
2
  0
TEXT
  5
145
330
17
100
AcDbEntity
  8
08_ТЕКСТ
100
AcDbText
 10
12350.0
 20
-20275.0
 30
0.0
 40
250.0
  1
—
  7
ГОСТ
 11
12350.0
 21
-20275.0
 31
0.0
100
AcDbText
 73
2
  0
TEXT
  5
146
330
17
100
AcDbEntity
  8
08_ТЕКСТ
100
AcDbText
 10
13750.0
 20
-20275.0
 30
0.0
 40
250.0
  1
3.4
  7
ГОСТ
 11
13750.0
 21
-20275.0
 31
0.0
100
AcDbText
 73
2
  0
TEXT
  5
147
330
17
100
AcDbEntity
  8
08_ТЕКСТ
100
AcDbText
 10
14950.0
 20
-20275.0
 30
0.0
 40
250.0
  1
26.9…29.1
  7
ГОСТ
 11
14950.0
 21
-20275.0
 31
0.0
100
AcDbText
 73
2
  0
TEXT
  5
148
330
17
100
AcDbEntity
  8
08_ТЕКСТ
100
AcDbText
 10
17350.0
 20
-20275.0
 30
0.0
 40
250.0
  1
коллекторы и байпас, один узел на всё судно
  7
ГОСТ
 11
17350.0
 21
-20275.0
 31
0.0
100
AcDbText
 73
2
  0
TEXT
  5
149
330
17
100
AcDbEntity
  8
08_ТЕКСТ
100
AcDbText
 10
150.0
 20
-20825.0
 30
0.0
 40
250.0
  1
9
  7
ГОСТ
 11
150.0
 21
-20825.0
 31
0.0
100
AcDbText
 73
2
  0
TEXT
  5
14A
330
17
100
AcDbEntity
  8
08_ТЕКСТ
100
AcDbText
 10
1150.0
 20
-20825.0
 30
0.0
 40
250.0
  1
ДЕА
  7
ГОСТ
 11
1150.0
 21
-20825.0
 31
0.0
100
AcDbText
 73
2
  0
TEXT
  5
14B
330
17
100
AcDbEntity
  8
08_ТЕКСТ
100
AcDbText
 10
2750.0
 20
-20825.0
 30
0.0
 40
250.0
  1
Деаэратор с конденсатным баком
  7
ГОСТ
 11
2750.0
 21
-20825.0
 31
0.0
100
AcDbText
 73
2
  0
TEXT
  5
14C
330
17
100
AcDbEntity
  8
08_ТЕКСТ
100
AcDbText
 10
10950.0
 20
-20825.0
 30
0.0
 40
250.0
  1
1
  7
ГОСТ
 11
10950.0
 21
-20825.0
 31
0.0
100
AcDbText
 73
2
  0
TEXT
  5
14D
330
17
100
AcDbEntity
  8
08_ТЕКСТ
100
AcDbText
 10
12350.0
 20
-20825.0
 30
0.0
 40
250.0
  1
—
  7
ГОСТ
 11
12350.0
 21
-20825.0
 31
0.0
100
AcDbText
 73
2
  0
TEXT
  5
14E
330
17
100
AcDbEntity
  8
08_ТЕКСТ
100
AcDbText
 10
13750.0
 20
-20825.0
 30
0.0
 40
250.0
  1
1.2
  7
ГОСТ
 11
13750.0
 21
-20825.0
 31
0.0
100
AcDbText
 73
2
  0
TEXT
  5
14F
330
17
100
AcDbEntity
  8
08_ТЕКСТ
100
AcDbText
 10
14950.0
 20
-20825.0
 30
0.0
 40
250.0
  1
29.0…29.9
  7
ГОСТ
 11
14950.0
 21
-20825.0
 31
0.0
100
AcDbText
 73
2
  0
TEXT
  5
150
330
17
100
AcDbEntity
  8
08_ТЕКСТ
100
AcDbText
 10
17350.0
 20
-20825.0
 30
0.0
 40
250.0
  1
конденсат → деаэратор → питательный насос → котёл
  7
ГОСТ
 11
17350.0
 21
-20825.0
 31
0.0
100
AcDbText
 73
2
  0
TEXT
  5
151
330
17
100
AcDbEntity
  8
08_ТЕКСТ
100
AcDbText
 10
150.0
 20
-21375.0
 30
0.0
 40
250.0
  1
10
  7
ГОСТ
 11
150.0
 21
-21375.0
 31
0.0
100
AcDbText
 73
2
  0
TEXT
  5
152
330
17
100
AcDbEntity
  8
08_ТЕКСТ
100
AcDbText
 10
1150.0
 20
-21375.0
 30
0.0
 40
250.0
  1
ГРЩ
  7
ГОСТ
 11
1150.0
 21
-21375.0
 31
0.0
100
AcDbText
 73
2
  0
TEXT
  5
153
330
17
100
AcDbEntity
  8
08_ТЕКСТ
100
AcDbText
 10
2750.0
 20
-21375.0
 30
0.0
 40
250.0
  1
Главный распределительный щит 690 В, 50 Гц
  7
ГОСТ
 11
2750.0
 21
-21375.0
 31
0.0
100
AcDbText
 73
2
  0
TEXT
  5
154
330
17
100
AcDbEntity
  8
08_ТЕКСТ
100
AcDbText
 10
10950.0
 20
-21375.0
 30
0.0
 40
250.0
  1
1
  7
ГОСТ
 11
10950.0
 21
-21375.0
 31
0.0
100
AcDbText
 73
2
  0
TEXT
  5
155
330
17
100
AcDbEntity
  8
08_ТЕКСТ
100
AcDbText
 10
12350.0
 20
-21375.0
 30
0.0
 40
250.0
  1
—
  7
ГОСТ
 11
12350.0
 21
-21375.0
 31
0.0
100
AcDbText
 73
2
  0
TEXT
  5
156
330
17
100
AcDbEntity
  8
08_ТЕКСТ
100
AcDbText
 10
13750.0
 20
-21375.0
 30
0.0
 40
250.0
  1
8.0
  7
ГОСТ
 11
13750.0
 21
-21375.0
 31
0.0
100
AcDbText
 73
2
  0
TEXT
  5
157
330
17
100
AcDbEntity
  8
08_ТЕКСТ
100
AcDbText
 10
14950.0
 20
-21375.0
 30
0.0
 40
250.0
  1
30.3…33.5
  7
ГОСТ
 11
14950.0
 21
-21375.0
 31
0.0
100
AcDbText
 73
2
  0
TEXT
  5
158
330
17
100
AcDbEntity
  8
08_ТЕКСТ
100
AcDbText
 10
17350.0
 20
-21375.0
 30
0.0
 40
250.0
  1
семь секций, две шины с секционным выключателем
  7
ГОСТ
 11
17350.0
 21
-21375.0
 31
0.0
100
AcDbText
 73
2
  0
TEXT
  5
159
330
17
100
AcDbEntity
  8
08_ТЕКСТ
100
AcDbText
 10
150.0
 20
-21925.0
 30
0.0
 40
250.0
  1
11
  7
ГОСТ
 11
150.0
 21
-21925.0
 31
0.0
100
AcDbText
 73
2
  0
TEXT
  5
15A
330
17
100
AcDbEntity
  8
08_ТЕКСТ
100
AcDbText
 10
1150.0
 20
-21925.0
 30
0.0
 40
250.0
  1
ЧРП
  7
ГОСТ
 11
1150.0
 21
-21925.0
 31
0.0
100
AcDbText
 73
2
  0
TEXT
  5
15B
330
17
100
AcDbEntity
  8
08_ТЕКСТ
100
AcDbText
 10
2750.0
 20
-21925.0
 30
0.0
 40
250.0
  1
Преобразователи частоты ГЭД
  7
ГОСТ
 11
2750.0
 21
-21925.0
 31
0.0
100
AcDbText
 73
2
  0
TEXT
  5
15C
330
17
100
AcDbEntity
  8
08_ТЕКСТ
100
AcDbText
 10
10950.0
 20
-21925.0
 30
0.0
 40
250.0
  1
2
  7
ГОСТ
 11
10950.0
 21
-21925.0
 31
0.0
100
AcDbText
 73
2
  0
TEXT
  5
15D
330
17
100
AcDbEntity
  8
08_ТЕКСТ
100
AcDbText
 10
12350.0
 20
-21925.0
 30
0.0
 40
250.0
  1
—
  7
ГОСТ
 11
12350.0
 21
-21925.0
 31
0.0
100
AcDbText
 73
2
  0
TEXT
  5
15E
330
17
100
AcDbEntity
  8
08_ТЕКСТ
100
AcDbText
 10
13750.0
 20
-21925.0
 30
0.0
 40
250.0
  1
4.0
  7
ГОСТ
 11
13750.0
 21
-21925.0
 31
0.0
100
AcDbText
 73
2
  0
TEXT
  5
15F
330
17
100
AcDbEntity
  8
08_ТЕКСТ
100
AcDbText
 10
14950.0
 20
-21925.0
 30
0.0
 40
250.0
  1
30.4…32.8
  7
ГОСТ
 11
14950.0
 21
-21925.0
 31
0.0
100
AcDbText
 73
2
  0
TEXT
  5
160
330
17
100
AcDbEntity
  8
08_ТЕКСТ
100
AcDbText
 10
17350.0
 20
-21925.0
 30
0.0
 40
250.0
  1
по одному на каждый ГЭД
  7
ГОСТ
 11
17350.0
 21
-21925.0
 31
0.0
100
AcDbText
 73
2
  0
TEXT
  5
161
330
17
100
AcDbEntity
  8
08_ТЕКСТ
100
AcDbText
 10
150.0
 20
-22475.0
 30
0.0
 40
250.0
  1
12
  7
ГОСТ
 11
150.0
 21
-22475.0
 31
0.0
100
AcDbText
 73
2
  0
TEXT
  5
162
330
17
100
AcDbEntity
  8
08_ТЕКСТ
100
AcDbText
 10
1150.0
 20
-22475.0
 30
0.0
 40
250.0
  1
МБР
  7
ГОСТ
 11
1150.0
 21
-22475.0
 31
0.0
100
AcDbText
 73
2
  0
TEXT
  5
163
330
17
100
AcDbEntity
  8
08_ТЕКСТ
100
AcDbText
 10
2750.0
 20
-22475.0
 30
0.0
 40
250.0
  1
Мембранный биореактор чёрных стоков + УФ
  7
ГОСТ
 11
2750.0
 21
-22475.0
 31
0.0
100
AcDbText
 73
2
  0
TEXT
  5
164
330
17
100
AcDbEntity
  8
08_ТЕКСТ
100
AcDbText
 10
10950.0
 20
-22475.0
 30
0.0
 40
250.0
  1
1
  7
ГОСТ
 11
10950.0
 21
-22475.0
 31
0.0
100
AcDbText
 73
2
  0
TEXT
  5
165
330
17
100
AcDbEntity
  8
08_ТЕКСТ
100
AcDbText
 10
12350.0
 20
-22475.0
 30
0.0
 40
250.0
  1
30
  7
ГОСТ
 11
12350.0
 21
-22475.0
 31
0.0
100
AcDbText
 73
2
  0
TEXT
  5
166
330
17
100
AcDbEntity
  8
08_ТЕКСТ
100
AcDbText
 10
13750.0
 20
-22475.0
 30
0.0
 40
250.0
  1
4.2
  7
ГОСТ
 11
13750.0
 21
-22475.0
 31
0.0
100
AcDbText
 73
2
  0
TEXT
  5
167
330
17
100
AcDbEntity
  8
08_ТЕКСТ
100
AcDbText
 10
14950.0
 20
-22475.0
 30
0.0
 40
250.0
  1
30.4…32.2
  7
ГОСТ
 11
14950.0
 21
-22475.0
 31
0.0
100
AcDbText
 73
2
  0
TEXT
  5
168
330
17
100
AcDbEntity
  8
08_ТЕКСТ
100
AcDbText
 10
17350.0
 20
-22475.0
 30
0.0
 40
250.0
  1
производительность 12 м3/сут
  7
ГОСТ
 11
17350.0
 21
-22475.0
 31
0.0
100
AcDbText
 73
2
  0
TEXT
  5
169
330
17
100
AcDbEntity
  8
08_ТЕКСТ
100
AcDbText
 10
150.0
 20
-23025.0
 30
0.0
 40
250.0
  1
13
  7
ГОСТ
 11
150.0
 21
-23025.0
 31
0.0
100
AcDbText
 73
2
  0
TEXT
  5
16A
330
17
100
AcDbEntity
  8
08_ТЕКСТ
100
AcDbText
 10
1150.0
 20
-23025.0
 30
0.0
 40
250.0
  1
БИО
  7
ГОСТ
 11
1150.0
 21
-23025.0
 31
0.0
100
AcDbText
 73
2
  0
TEXT
  5
16B
330
17
100
AcDbEntity
  8
08_ТЕКСТ
100
AcDbText
 10
2750.0
 20
-23025.0
 30
0.0
 40
250.0
  1
Биоблок серых стоков + УФ
  7
ГОСТ
 11
2750.0
 21
-23025.0
 31
0.0
100
AcDbText
 73
2
  0
TEXT
  5
16C
330
17
100
AcDbEntity
  8
08_ТЕКСТ
100
AcDbText
 10
10950.0
 20
-23025.0
 30
0.0
 40
250.0
  1
1
  7
ГОСТ
 11
10950.0
 21
-23025.0
 31
0.0
100
AcDbText
 73
2
  0
TEXT
  5
16D
330
17
100
AcDbEntity
  8
08_ТЕКСТ
100
AcDbText
 10
12350.0
 20
-23025.0
 30
0.0
 40
250.0
  1
20
  7
ГОСТ
 11
12350.0
 21
-23025.0
 31
0.0
100
AcDbText
 73
2
  0
TEXT
  5
16E
330
17
100
AcDbEntity
  8
08_ТЕКСТ
100
AcDbText
 10
13750.0
 20
-23025.0
 30
0.0
 40
250.0
  1
3.6
  7
ГОСТ
 11
13750.0
 21
-23025.0
 31
0.0
100
AcDbText
 73
2
  0
TEXT
  5
16F
330
17
100
AcDbEntity
  8
08_ТЕКСТ
100
AcDbText
 10
14950.0
 20
-23025.0
 30
0.0
 40
250.0
  1
30.4…32.2
  7
ГОСТ
 11
14950.0
 21
-23025.0
 31
0.0
100
AcDbText
 73
2
  0
TEXT
  5
170
330
17
100
AcDbEntity
  8
08_ТЕКСТ
100
AcDbText
 10
17350.0
 20
-23025.0
 30
0.0
 40
250.0
  1
производительность 25 м3/сут
  7
ГОСТ
 11
17350.0
 21
-23025.0
 31
0.0
100
AcDbText
 73
2
  0
TEXT
  5
171
330
17
100
AcDbEntity
  8
08_ТЕКСТ
100
AcDbText
 10
150.0
 20
-23575.0
 30
0.0
 40
250.0
  1
14
  7
ГОСТ
 11
150.0
 21
-23575.0
 31
0.0
100
AcDbText
 73
2
  0
TEXT
  5
172
330
17
100
AcDbEntity
  8
08_ТЕКСТ
100
AcDbText
 10
1150.0
 20
-23575.0
 30
0.0
 40
250.0
  1
СЕП
  7
ГОСТ
 11
1150.0
 21
-23575.0
 31
0.0
100
AcDbText
 73
2
  0
TEXT
  5
173
330
17
100
AcDbEntity
  8
08_ТЕКСТ
100
AcDbText
 10
2750.0
 20
-23575.0
 30
0.0
 40
250.0
  1
Сепаратор льяльных вод 15 → 5 ppm
  7
ГОСТ
 11
2750.0
 21
-23575.0
 31
0.0
100
AcDbText
 73
2
  0
TEXT
  5
174
330
17
100
AcDbEntity
  8
08_ТЕКСТ
100
AcDbText
 10
10950.0
 20
-23575.0
 30
0.0
 40
250.0
  1
1
  7
ГОСТ
 11
10950.0
 21
-23575.0
 31
0.0
100
AcDbText
 73
2
  0
TEXT
  5
175
330
17
100
AcDbEntity
  8
08_ТЕКСТ
100
AcDbText
 10
12350.0
 20
-23575.0
 30
0.0
 40
250.0
  1
5
  7
ГОСТ
 11
12350.0
 21
-23575.0
 31
0.0
100
AcDbText
 73
2
  0
TEXT
  5
176
330
17
100
AcDbEntity
  8
08_ТЕКСТ
100
AcDbText
 10
13750.0
 20
-23575.0
 30
0.0
 40
250.0
  1
1.1
  7
ГОСТ
 11
13750.0
 21
-23575.0
 31
0.0
100
AcDbText
 73
2
  0
TEXT
  5
177
330
17
100
AcDbEntity
  8
08_ТЕКСТ
100
AcDbText
 10
14950.0
 20
-23575.0
 30
0.0
 40
250.0
  1
32.6…33.5
  7
ГОСТ
 11
14950.0
 21
-23575.0
 31
0.0
100
AcDbText
 73
2
  0
TEXT
  5
178
330
17
100
AcDbEntity
  8
08_ТЕКСТ
100
AcDbText
 10
17350.0
 20
-23575.0
 30
0.0
 40
250.0
  1
с сигнализатором и автоматическим возвратом
  7
ГОСТ
 11
17350.0
 21
-23575.0
 31
0.0
100
AcDbText
 73
2
  0
TEXT
  5
179
330
17
100
AcDbEntity
  8
08_ТЕКСТ
100
AcDbText
 10
150.0
 20
-24125.0
 30
0.0
 40
250.0
  1
15
  7
ГОСТ
 11
150.0
 21
-24125.0
 31
0.0
100
AcDbText
 73
2
  0
TEXT
  5
17A
330
17
100
AcDbEntity
  8
08_ТЕКСТ
100
AcDbText
 10
1150.0
 20
-24125.0
 30
0.0
 40
250.0
  1
УФ
  7
ГОСТ
 11
1150.0
 21
-24125.0
 31
0.0
100
AcDbText
 73
2
  0
TEXT
  5
17B
330
17
100
AcDbEntity
  8
08_ТЕКСТ
100
AcDbText
 10
2750.0
 20
-24125.0
 30
0.0
 40
250.0
  1
Блок УФ-обеззараживания очищенной воды
  7
ГОСТ
 11
2750.0
 21
-24125.0
 31
0.0
100
AcDbText
 73
2
  0
TEXT
  5
17C
330
17
100
AcDbEntity
  8
08_ТЕКСТ
100
AcDbText
 10
10950.0
 20
-24125.0
 30
0.0
 40
250.0
  1
1
  7
ГОСТ
 11
10950.0
 21
-24125.0
 31
0.0
100
AcDbText
 73
2
  0
TEXT
  5
17D
330
17
100
AcDbEntity
  8
08_ТЕКСТ
100
AcDbText
 10
12350.0
 20
-24125.0
 30
0.0
 40
250.0
  1
4
  7
ГОСТ
 11
12350.0
 21
-24125.0
 31
0.0
100
AcDbText
 73
2
  0
TEXT
  5
17E
330
17
100
AcDbEntity
  8
08_ТЕКСТ
100
AcDbText
 10
13750.0
 20
-24125.0
 30
0.0
 40
250.0
  1
0.6
  7
ГОСТ
 11
13750.0
 21
-24125.0
 31
0.0
100
AcDbText
 73
2
  0
TEXT
  5
17F
330
17
100
AcDbEntity
  8
08_ТЕКСТ
100
AcDbText
 10
14950.0
 20
-24125.0
 30
0.0
 40
250.0
  1
32.6…33.5
  7
ГОСТ
 11
14950.0
 21
-24125.0
 31
0.0
100
AcDbText
 73
2
  0
TEXT
  5
180
330
17
100
AcDbEntity
  8
08_ТЕКСТ
100
AcDbText
 10
17350.0
 20
-24125.0
 30
0.0
 40
250.0
  1

  7
ГОСТ
 11
17350.0
 21
-24125.0
 31
0.0
100
AcDbText
 73
2
  0
TEXT
  5
181
330
17
100
AcDbEntity
  8
08_ТЕКСТ
100
AcDbText
 10
150.0
 20
-24675.0
 30
0.0
 40
250.0
  1
16
  7
ГОСТ
 11
150.0
 21
-24675.0
 31
0.0
100
AcDbText
 73
2
  0
TEXT
  5
182
330
17
100
AcDbEntity
  8
08_ТЕКСТ
100
AcDbText
 10
1150.0
 20
-24675.0
 30
0.0
 40
250.0
  1
НАС
  7
ГОСТ
 11
1150.0
 21
-24675.0
 31
0.0
100
AcDbText
 73
2
  0
TEXT
  5
183
330
17
100
AcDbEntity
  8
08_ТЕКСТ
100
AcDbText
 10
2750.0
 20
-24675.0
 30
0.0
 40
250.0
  1
Насосная группа систем
  7
ГОСТ
 11
2750.0
 21
-24675.0
 31
0.0
100
AcDbText
 73
2
  0
TEXT
  5
184
330
17
100
AcDbEntity
  8
08_ТЕКСТ
100
AcDbText
 10
10950.0
 20
-24675.0
 30
0.0
 40
250.0
  1
1
  7
ГОСТ
 11
10950.0
 21
-24675.0
 31
0.0
100
AcDbText
 73
2
  0
TEXT
  5
185
330
17
100
AcDbEntity
  8
08_ТЕКСТ
100
AcDbText
 10
12350.0
 20
-24675.0
 30
0.0
 40
250.0
  1
60
  7
ГОСТ
 11
12350.0
 21
-24675.0
 31
0.0
100
AcDbText
 73
2
  0
TEXT
  5
186
330
17
100
AcDbEntity
  8
08_ТЕКСТ
100
AcDbText
 10
13750.0
 20
-24675.0
 30
0.0
 40
250.0
  1
2.4
  7
ГОСТ
 11
13750.0
 21
-24675.0
 31
0.0
100
AcDbText
 73
2
  0
TEXT
  5
187
330
17
100
AcDbEntity
  8
08_ТЕКСТ
100
AcDbText
 10
14950.0
 20
-24675.0
 30
0.0
 40
250.0
  1
32.6…33.5
  7
ГОСТ
 11
14950.0
 21
-24675.0
 31
0.0
100
AcDbText
 73
2
  0
TEXT
  5
188
330
17
100
AcDbEntity
  8
08_ТЕКСТ
100
AcDbText
 10
17350.0
 20
-24675.0
 30
0.0
 40
250.0
  1
балластные, осушительные, пожарные, бытовые
  7
ГОСТ
 11
17350.0
 21
-24675.0
 31
0.0
100
AcDbText
 73
2
  0
TEXT
  5
189
330
17
100
AcDbEntity
  8
08_ТЕКСТ
100
AcDbText
 10
150.0
 20
-25225.0
 30
0.0
 40
250.0
  1
17
  7
ГОСТ
 11
150.0
 21
-25225.0
 31
0.0
100
AcDbText
 73
2
  0
TEXT
  5
18A
330
17
100
AcDbEntity
  8
08_ТЕКСТ
100
AcDbText
 10
1150.0
 20
-25225.0
 30
0.0
 40
250.0
  1
ПУ-К
  7
ГОСТ
 11
1150.0
 21
-25225.0
 31
0.0
100
AcDbText
 73
2
  0
TEXT
  5
18B
330
17
100
AcDbEntity
  8
08_ТЕКСТ
100
AcDbText
 10
2750.0
 20
-25225.0
 30
0.0
 40
250.0
  1
Подруливающее устройство кормовое 300 кВт
  7
ГОСТ
 11
2750.0
 21
-25225.0
 31
0.0
100
AcDbText
 73
2
  0
TEXT
  5
18C
330
17
100
AcDbEntity
  8
08_ТЕКСТ
100
AcDbText
 10
10950.0
 20
-25225.0
 30
0.0
 40
250.0
  1
1
  7
ГОСТ
 11
10950.0
 21
-25225.0
 31
0.0
100
AcDbText
 73
2
  0
TEXT
  5
18D
330
17
100
AcDbEntity
  8
08_ТЕКСТ
100
AcDbText
 10
12350.0
 20
-25225.0
 30
0.0
 40
250.0
  1
300
  7
ГОСТ
 11
12350.0
 21
-25225.0
 31
0.0
100
AcDbText
 73
2
  0
TEXT
  5
18E
330
17
100
AcDbEntity
  8
08_ТЕКСТ
100
AcDbText
 10
13750.0
 20
-25225.0
 30
0.0
 40
250.0
  1
8.0
  7
ГОСТ
 11
13750.0
 21
-25225.0
 31
0.0
100
AcDbText
 73
2
  0
TEXT
  5
18F
330
17
100
AcDbEntity
  8
08_ТЕКСТ
100
AcDbText
 10
14950.0
 20
-25225.0
 30
0.0
 40
250.0
  1
10.2…11.3
  7
ГОСТ
 11
14950.0
 21
-25225.0
 31
0.0
100
AcDbText
 73
2
  0
TEXT
  5
190
330
17
100
AcDbEntity
  8
08_ТЕКСТ
100
AcDbText
 10
17350.0
 20
-25225.0
 30
0.0
 40
250.0
  1
тоннель D = 1.16 м, ось 1.15 м
  7
ГОСТ
 11
17350.0
 21
-25225.0
 31
0.0
100
AcDbText
 73
2
  0
LWPOLYLINE
  5
191
330
17
100
AcDbEntity
  8
00_РАМКА
100
AcDbPolyline
 90
4
 70
1
 10
-22050.0
 20
-38650.0
 10
62050.0
 20
-38650.0
 10
62050.0
 20
20750.0
 10
-22050.0
 20
20750.0
  0
LWPOLYLINE
  5
192
330
17
100
AcDbEntity
  8
00_РАМКА
100
AcDbPolyline
 90
4
 70
1
 10
-20050.0
 20
-38150.0
 10
61550.0
 20
-38150.0
 10
61550.0
 20
20250.0
 10
-20050.0
 20
20250.0
  0
LWPOLYLINE
  5
193
330
17
100
AcDbEntity
  8
00_РАМКА
100
AcDbPolyline
 90
4
 70
1
 10
43050.0
 20
-38150.0
 10
61550.0
 20
-38150.0
 10
61550.0
 20
-32650.0
 10
43050.0
 20
-32650.0
  0
LINE
  5
194
330
17
100
AcDbEntity
  8
00_РАМКА
100
AcDbLine
 10
43050.0
 20
-36950.0
 30
0.0
 11
61550.0
 21
-36950.0
 31
0.0
  0
LINE
  5
195
330
17
100
AcDbEntity
  8
00_РАМКА
100
AcDbLine
 10
43050.0
 20
-35750.0
 30
0.0
 11
61550.0
 21
-35750.0
 31
0.0
  0
LINE
  5
196
330
17
100
AcDbEntity
  8
00_РАМКА
100
AcDbLine
 10
43050.0
 20
-34550.0
 30
0.0
 11
61550.0
 21
-34550.0
 31
0.0
  0
LINE
  5
197
330
17
100
AcDbEntity
  8
00_РАМКА
100
AcDbLine
 10
55050.0
 20
-38150.0
 30
0.0
 11
55050.0
 21
-34550.0
 31
0.0
  0
TEXT
  5
198
330
17
100
AcDbEntity
  8
08_ТЕКСТ
100
AcDbText
 10
43350.0
 20
-33600.0
 30
0.0
 40
500.0
  1
Машинное отделение. План
  7
ГОСТ
 11
43350.0
 21
-33600.0
 31
0.0
100
AcDbText
 73
2
  0
TEXT
  5
199
330
17
100
AcDbEntity
  8
08_ТЕКСТ
100
AcDbText
 10
43350.0
 20
-35150.0
 30
0.0
 40
250.0
  1
Волжский Горизонт · ДЭУ 3 x 1600 / 2 x 1800 кВт
  7
ГОСТ
 11
43350.0
 21
-35150.0
 31
0.0
100
AcDbText
 73
2
  0
TEXT
  5
19A
330
17
100
AcDbEntity
  8
08_ТЕКСТ
100
AcDbText
 10
43350.0
 20
-36350.0
 30
0.0
 40
450.0
  1
ВГ-2026 машинное отделение
  7
ГОСТ
 11
43350.0
 21
-36350.0
 31
0.0
100
AcDbText
 73
2
  0
TEXT
  5
19B
330
17
100
AcDbEntity
  8
08_ТЕКСТ
100
AcDbText
 10
55350.0
 20
-36350.0
 30
0.0
 40
350.0
  1
Масштаб 1 : 100
  7
ГОСТ
 11
55350.0
 21
-36350.0
 31
0.0
100
AcDbText
 73
2
  0
TEXT
  5
19C
330
17
100
AcDbEntity
  8
08_ТЕКСТ
100
AcDbText
 10
43350.0
 20
-37550.0
 30
0.0
 40
250.0
  1
Сталь 09Г2С ГОСТ 19281-2014
  7
ГОСТ
 11
43350.0
 21
-37550.0
 31
0.0
100
AcDbText
 73
2
  0
TEXT
  5
19D
330
17
100
AcDbEntity
  8
08_ТЕКСТ
100
AcDbText
 10
55350.0
 20
-37550.0
 30
0.0
 40
300.0
  1
Формат A1
  7
ГОСТ
 11
55350.0
 21
-37550.0
 31
0.0
100
AcDbText
 73
2
  0
TEXT
  5
19E
330
17
100
AcDbEntity
  8
08_ТЕКСТ
100
AcDbText
 10
43350.0
 20
-32250.0
 30
0.0
 40
300.0
  1
УЖЦ ОСК 2026 · «Волжский Горизонт»
  7
ГОСТ
 11
43350.0
 21
-32250.0
 31
0.0
100
AcDbText
 73
2
  0
TEXT
  5
19F
330
17
100
AcDbEntity
  8
08_ТЕКСТ
100
AcDbText
 10
43350.0
 20
-29550.0
 30
0.0
 40
250.0
  1
1. Машинное отделение между переборками 12,0 и 34,0 м.
  7
ГОСТ
 11
43350.0
 21
-29550.0
 31
0.0
100
AcDbText
 73
2
  0
TEXT
  5
1A0
330
17
100
AcDbEntity
  8
08_ТЕКСТ
100
AcDbText
 10
43350.0
 20
-30050.0
 30
0.0
 40
250.0
  1
2. Второе дно в МО опущено до 0,465 м, подволок — главная палуба 4,20 м.
  7
ГОСТ
 11
43350.0
 21
-30050.0
 31
0.0
100
AcDbText
 73
2
  0
TEXT
  5
1A1
330
17
100
AcDbEntity
  8
08_ТЕКСТ
100
AcDbText
 10
43350.0
 20
-30550.0
 30
0.0
 40
250.0
  1
3. ДЭУ: 3 ГДГ по 1600 кВт на ГРЩ 690 В, 2 ГЭД по 1800 кВт,
  7
ГОСТ
 11
43350.0
 21
-30550.0
 31
0.0
100
AcDbText
 73
2
  0
TEXT
  5
1A2
330
17
100
AcDbEntity
  8
08_ТЕКСТ
100
AcDbText
 10
43350.0
 20
-31050.0
 30
0.0
 40
250.0
  1
4. две линии вала, ВФШ D = 1,70 м в насадках Корт, 2 полуподвесных руля.
  7
ГОСТ
 11
43350.0
 21
-31050.0
 31
0.0
100
AcDbText
 73
2
  0
TEXT
  5
1A3
330
17
100
AcDbEntity
  8
08_ТЕКСТ
100
AcDbText
 10
43350.0
 20
-31550.0
 30
0.0
 40
250.0
  1
5. Тонкая линия — контур палубы на уровне 4,20 м.
  7
ГОСТ
 11
43350.0
 21
-31550.0
 31
0.0
100
AcDbText
 73
2
  0
TEXT
  5
1A4
330
17
100
AcDbEntity
  8
08_ТЕКСТ
100
AcDbText
 10
43350.0
 20
-28900.0
 30
0.0
 40
350.0
  1
Технические требования
  7
ГОСТ
 11
43350.0
 21
-28900.0
 31
0.0
100
AcDbText
 73
2
  0
ENDSEC
  0
SECTION
  2
OBJECTS
  0
DICTIONARY
  5
A
330
0
100
AcDbDictionary
281
1
  3
ACAD_COLOR
350
B
  3
ACAD_GROUP
350
C
  3
ACAD_LAYOUT
350
D
  3
ACAD_MATERIAL
350
E
  3
ACAD_MLEADERSTYLE
350
F
  3
ACAD_MLINESTYLE
350
10
  3
ACAD_PLOTSETTINGS
350
11
  3
ACAD_PLOTSTYLENAME
350
12
  3
ACAD_SCALELIST
350
14
  3
ACAD_TABLESTYLE
350
15
  3
ACAD_VISUALSTYLE
350
16
  3
EZDXF_META
350
2D
  0
DICTIONARY
  5
B
330
A
100
AcDbDictionary
281
1
  0
DICTIONARY
  5
C
330
A
100
AcDbDictionary
281
1
  0
DICTIONARY
  5
D
330
A
100
AcDbDictionary
281
1
  3
Model
350
1A
  3
Layout1
350
1E
  0
DICTIONARY
  5
E
330
A
100
AcDbDictionary
281
1
  3
ByBlock
350
1F
  3
ByLayer
350
20
  3
Global
350
21
  0
DICTIONARY
  5
F
330
A
100
AcDbDictionary
281
1
  3
Standard
350
2C
  0
DICTIONARY
  5
10
330
A
100
AcDbDictionary
281
1
  3
Standard
350
22
  0
DICTIONARY
  5
11
330
A
100
AcDbDictionary
281
1
  0
ACDBDICTIONARYWDFLT
  5
12
330
A
100
AcDbDictionary
281
1
  3
Normal
350
13
100
AcDbDictionaryWithDefault
340
13
  0
ACDBPLACEHOLDER
  5
13
330
12
  0
DICTIONARY
  5
14
330
A
100
AcDbDictionary
281
1
  0
DICTIONARY
  5
15
330
A
100
AcDbDictionary
281
1
  0
DICTIONARY
  5
16
330
A
100
AcDbDictionary
281
1
  3
2dWireframe
350
5A
  3
Basic
350
5B
  3
Brighten
350
5C
  3
ColorChange
350
5D
  3
Conceptual
350
5E
  3
Dim
350
5F
  3
EdgeColorOff
350
60
  3
Facepattern
350
61
  3
Flat
350
62
  3
FlatWithEdges
350
63
  3
Gouraud
350
64
  3
GouraudWithEdges
350
65
  3
Hidden
350
66
  3
JitterOff
350
67
  3
Linepattern
350
68
  3
Modeling
350
69
  3
OverhangOff
350
6A
  3
Realistic
350
6B
  3
Shaded
350
6C
  3
Shaded with edges
350
6D
  3
Shades of Gray
350
6E
  3
Sketchy
350
6F
  3
Thicken
350
70
  3
Wireframe
350
71
  3
X-Ray
350
72
  0
LAYOUT
  5
1A
330
D
100
AcDbPlotSettings
  1

  4
A3
  6

 40
7.5
 41
20.0
 42
7.5
 43
20.0
 44
420.0
 45
297.0
 46
0.0
 47
0.0
 48
0.0
 49
0.0
140
0.0
141
0.0
142
1.0
143
1.0
 70
1024
 72
1
 73
0
 74
5
  7

 75
16
 76
0
 77
2
 78
300
147
1.0
148
0.0
149
0.0
100
AcDbLayout
  1
Model
 70
1
 71
0
 10
0.0
 20
0.0
 11
420.0
 21
297.0
 12
0.0
 22
0.0
 32
0.0
 14
1e+20
 24
1e+20
 34
1e+20
 15
-1e+20
 25
-1e+20
 35
-1e+20
146
0.0
 13
0.0
 23
0.0
 33
0.0
 16
1.0
 26
0.0
 36
0.0
 17
0.0
 27
1.0
 37
0.0
 76
1
330
17
  0
LAYOUT
  5
1E
330
D
100
AcDbPlotSettings
  1

  4
A3
  6

 40
7.5
 41
20.0
 42
7.5
 43
20.0
 44
420.0
 45
297.0
 46
0.0
 47
0.0
 48
0.0
 49
0.0
140
0.0
141
0.0
142
1.0
143
1.0
 70
0
 72
1
 73
0
 74
5
  7

 75
16
 76
0
 77
2
 78
300
147
1.0
148
0.0
149
0.0
100
AcDbLayout
  1
Layout1
 70
1
 71
1
 10
0.0
 20
0.0
 11
420.0
 21
297.0
 12
0.0
 22
0.0
 32
0.0
 14
1e+20
 24
1e+20
 34
1e+20
 15
-1e+20
 25
-1e+20
 35
-1e+20
146
0.0
 13
0.0
 23
0.0
 33
0.0
 16
1.0
 26
0.0
 36
0.0
 17
0.0
 27
1.0
 37
0.0
 76
1
330
1B
  0
MATERIAL
  5
1F
102
{ACAD_REACTORS
330
E
102
}
330
E
100
AcDbMaterial
  1
ByBlock
  2

 70
0
 40
1.0
 71
1
 41
1.0
 91
-1023410177
 42
1.0
 72
1
  3

 73
1
 74
1
 75
1
 44
0.5
 73
0
 45
1.0
 46
1.0
 77
1
  4

 78
1
 79
1
170
1
 48
1.0
171
1
  6

172
1
173
1
174
1
140
1.0
141
1.0
175
1
  7

176
1
177
1
178
1
143
1.0
179
1
  8

270
1
271
1
272
1
145
1.0
146
1.0
273
1
  9

274
1
275
1
276
1
 42
1.0
 72
1
  3

 73
1
 74
1
 75
1
 94
63
  0
MATERIAL
  5
20
102
{ACAD_REACTORS
330
E
102
}
330
E
100
AcDbMaterial
  1
ByLayer
  2

 70
0
 40
1.0
 71
1
 41
1.0
 91
-1023410177
 42
1.0
 72
1
  3

 73
1
 74
1
 75
1
 44
0.5
 73
0
 45
1.0
 46
1.0
 77
1
  4

 78
1
 79
1
170
1
 48
1.0
171
1
  6

172
1
173
1
174
1
140
1.0
141
1.0
175
1
  7

176
1
177
1
178
1
143
1.0
179
1
  8

270
1
271
1
272
1
145
1.0
146
1.0
273
1
  9

274
1
275
1
276
1
 42
1.0
 72
1
  3

 73
1
 74
1
 75
1
 94
63
  0
MATERIAL
  5
21
102
{ACAD_REACTORS
330
E
102
}
330
E
100
AcDbMaterial
  1
Global
  2

 70
0
 40
1.0
 71
1
 41
1.0
 91
-1023410177
 42
1.0
 72
1
  3

 73
1
 74
1
 75
1
 44
0.5
 73
0
 45
1.0
 46
1.0
 77
1
  4

 78
1
 79
1
170
1
 48
1.0
171
1
  6

172
1
173
1
174
1
140
1.0
141
1.0
175
1
  7

176
1
177
1
178
1
143
1.0
179
1
  8

270
1
271
1
272
1
145
1.0
146
1.0
273
1
  9

274
1
275
1
276
1
 42
1.0
 72
1
  3

 73
1
 74
1
 75
1
 94
63
  0
MLINESTYLE
  5
22
102
{ACAD_REACTORS
330
10
102
}
330
10
100
AcDbMlineStyle
  2
Standard
 70
0
  3

 62
256
 51
90.0
 52
90.0
 71
2
 49
0.5
 62
256
  6
BYLAYER
 49
-0.5
 62
256
  6
BYLAYER
  0
MLEADERSTYLE
  5
2C
102
{ACAD_REACTORS
330
F
102
}
330
F
100
AcDbMLeaderStyle
179
2
170
2
171
1
172
0
 90
2
 40
0.0
 41
0.0
173
1
 91
-1056964608
 92
-2
290
1
 42
2.0
291
1
 43
8.0
  3
Standard
 44
4.0
300

342
29
174
1
175
1
176
0
178
1
 93
-1056964608
 45
4.0
292
0
297
0
 46
4.0
 94
-1056964608
 47
1.0
 49
1.0
140
1.0
294
1
141
0.0
177
0
142
1.0
295
0
296
0
143
3.75
271
0
272
9
273
9
  0
DICTIONARY
  5
2D
330
A
100
AcDbDictionary
280
1
281
1
  3
CREATED_BY_EZDXF
350
2E
  3
WRITTEN_BY_EZDXF
350
1A7
  0
DICTIONARYVAR
  5
2E
330
2D
100
DictionaryVariables
280
0
  1
1.4.4 @ 2026-09-20T00:06:39.935997+00:00
  0
VISUALSTYLE
  5
5A
102
{ACAD_REACTORS
330
16
102
}
330
16
100
AcDbVisualStyle
  2
2dWireframe
 70
4
177
3
291
0
 70
58
 90
2
176
1
 90
2
176
1
 90
0
176
1
 90
0
176
1
 40
0.6
176
1
 40
30.0
176
1
 62
7
420
16777215
176
1
 90
1
176
1
 90
4
176
1
 62
7
176
1
 62
257
176
1
 90
1
176
1
 90
1
176
1
 40
1.0
176
1
 90
8
176
1
 62
7
176
1
 40
1.0
176
1
 90
1
176
1
 90
6
176
1
 90
2
176
1
 62
7
176
1
 90
5
176
1
 90
0
176
1
 90
0
176
1
290
0
176
1
 90
1
176
1
 40
0.0
176
1
 90
0
176
1
290
1
176
1
290
1
176
1
290
0
176
1
290
0
176
1
290
0
176
1
290
0
176
1
290
0
176
1
290
0
176
1
290
0
176
1
 90
50
176
1
 40
0.0
176
1
 40
1.0
176
1
 90
0
176
1
 62
18
420
0
176
1
 90
50
176
1
 90
3
176
1
 62
5
420
255
176
1
290
0
176
1
 90
50
176
1
 90
50
176
1
 90
50
176
1
290
0
176
1
 90
50
176
1
 62
256
176
0
 40
1.0
176
0
 90
2
176
1
  1
strokes_ogs.tif
176
1
290
0
176
1
 40
1.0
176
1
 40
1.0
176
1
  0
VISUALSTYLE
  5
5B
102
{ACAD_REACTORS
330
16
102
}
330
16
100
AcDbVisualStyle
  2
Basic
 70
7
177
3
291
1
 70
58
 90
2
176
1
 90
2
176
1
 90
0
176
1
 90
1
176
1
 40
0.6
176
1
 40
30.0
176
1
 62
7
420
16777215
176
1
 90
1
176
1
 90
4
176
1
 62
7
176
1
 62
257
176
1
 90
1
176
1
 90
1
176
1
 40
1.0
176
1
 90
8
176
1
 62
7
176
1
 40
1.0
176
1
 90
1
176
1
 90
6
176
1
 90
2
176
1
 62
7
176
1
 90
5
176
1
 90
0
176
1
 90
0
176
1
290
0
176
1
 90
1
176
1
 40
0.0
176
1
 90
0
176
1
290
0
176
1
290
1
176
1
290
1
176
1
290
0
176
1
290
0
176
1
290
0
176
1
290
0
176
1
290
0
176
1
290
0
176
1
 90
50
176
1
 40
0.0
176
1
 40
1.0
176
1
 90
0
176
1
 62
18
420
0
176
1
 90
50
176
1
 90
3
176
1
 62
5
420
255
176
1
290
0
176
1
 90
50
176
1
 90
50
176
1
 90
50
176
1
290
0
176
1
 90
50
176
1
 62
256
176
0
 40
1.0
176
0
 90
2
176
1
  1
strokes_ogs.tif
176
1
290
0
176
1
 40
1.0
176
1
 40
1.0
176
1
  0
VISUALSTYLE
  5
5C
102
{ACAD_REACTORS
330
16
102
}
330
16
100
AcDbVisualStyle
  2
Brighten
 70
12
177
3
291
1
 70
58
 90
2
176
1
 90
2
176
1
 90
0
176
1
 90
2
176
1
 40
0.6
176
1
 40
30.0
176
1
 62
7
420
16777215
176
1
 90
1
176
1
 90
4
176
1
 62
7
176
1
 62
257
176
1
 90
1
176
1
 90
1
176
1
 40
1.0
176
1
 90
8
176
1
 62
7
176
1
 40
1.0
176
1
 90
1
176
1
 90
6
176
1
 90
2
176
1
 62
7
176
1
 90
5
176
1
 90
0
176
1
 90
0
176
1
290
0
176
1
 90
1
176
1
 40
0.0
176
1
 90
0
176
1
290
0
176
1
290
1
176
1
290
1
176
1
290
0
176
1
290
0
176
1
290
0
176
1
290
0
176
1
290
0
176
1
290
0
176
1
 90
50
176
1
 40
0.0
176
1
 40
1.0
176
1
 90
0
176
1
 62
18
420
0
176
1
 90
50
176
1
 90
3
176
1
 62
5
420
255
176
1
290
0
176
1
 90
50
176
1
 90
50
176
1
 90
50
176
1
290
0
176
1
 90
50
176
1
 62
256
176
0
 40
1.0
176
0
 90
2
176
1
  1
strokes_ogs.tif
176
1
290
0
176
1
 40
1.0
176
1
 40
1.0
176
1
  0
VISUALSTYLE
  5
5D
102
{ACAD_REACTORS
330
16
102
}
330
16
100
AcDbVisualStyle
  2
ColorChange
 70
16
177
3
291
1
 70
58
 90
2
176
1
 90
2
176
1
 90
0
176
1
 90
2
176
1
 40
0.6
176
1
 40
30.0
176
1
 62
7
420
16777215
176
1
 90
1
176
1
 90
4
176
1
 62
7
176
1
 62
257
176
1
 90
1
176
1
 90
1
176
1
 40
1.0
176
1
 90
8
176
1
 62
7
176
1
 40
1.0
176
1
 90
1
176
1
 90
6
176
1
 90
2
176
1
 62
7
176
1
 90
5
176
1
 90
0
176
1
 90
0
176
1
290
0
176
1
 90
1
176
1
 40
0.0
176
1
 90
0
176
1
290
0
176
1
290
1
176
1
290
1
176
1
290
0
176
1
290
0
176
1
290
0
176
1
290
0
176
1
290
0
176
1
290
0
176
1
 90
50
176
1
 40
0.0
176
1
 40
1.0
176
1
 90
0
176
1
 62
18
420
0
176
1
 90
50
176
1
 90
3
176
1
 62
5
420
255
176
1
290
0
176
1
 90
50
176
1
 90
50
176
1
 90
50
176
1
290
0
176
1
 90
50
176
1
 62
256
176
0
 40
1.0
176
0
 90
2
176
1
  1
strokes_ogs.tif
176
1
290
0
176
1
 40
1.0
176
1
 40
1.0
176
1
  0
VISUALSTYLE
  5
5E
102
{ACAD_REACTORS
330
16
102
}
330
16
100
AcDbVisualStyle
  2
Conceptual
 70
9
177
3
291
0
 70
58
 90
2
176
1
 90
2
176
1
 90
0
176
1
 90
3
176
1
 40
0.6
176
1
 40
30.0
176
1
 62
7
420
16777215
176
1
 90
1
176
1
 90
4
176
1
 62
7
176
1
 62
257
176
1
 90
1
176
1
 90
1
176
1
 40
1.0
176
1
 90
8
176
1
 62
7
176
1
 40
1.0
176
1
 90
1
176
1
 90
6
176
1
 90
2
176
1
 62
7
176
1
 90
5
176
1
 90
0
176
1
 90
0
176
1
290
0
176
1
 90
1
176
1
 40
0.0
176
1
 90
0
176
1
290
0
176
1
290
1
176
1
290
1
176
1
290
0
176
1
290
0
176
1
290
0
176
1
290
0
176
1
290
0
176
1
290
0
176
1
 90
50
176
1
 40
0.0
176
1
 40
1.0
176
1
 90
0
176
1
 62
18
420
0
176
1
 90
50
176
1
 90
3
176
1
 62
5
420
255
176
1
290
0
176
1
 90
50
176
1
 90
50
176
1
 90
50
176
1
290
0
176
1
 90
50
176
1
 62
256
176
0
 40
1.0
176
0
 90
2
176
1
  1
strokes_ogs.tif
176
1
290
0
176
1
 40
1.0
176
1
 40
1.0
176
1
  0
VISUALSTYLE
  5
5F
102
{ACAD_REACTORS
330
16
102
}
330
16
100
AcDbVisualStyle
  2
Dim
 70
11
177
3
291
1
 70
58
 90
2
176
1
 90
2
176
1
 90
0
176
1
 90
2
176
1
 40
0.6
176
1
 40
30.0
176
1
 62
7
420
16777215
176
1
 90
1
176
1
 90
4
176
1
 62
7
176
1
 62
257
176
1
 90
1
176
1
 90
1
176
1
 40
1.0
176
1
 90
8
176
1
 62
7
176
1
 40
1.0
176
1
 90
1
176
1
 90
6
176
1
 90
2
176
1
 62
7
176
1
 90
5
176
1
 90
0
176
1
 90
0
176
1
290
0
176
1
 90
1
176
1
 40
0.0
176
1
 90
0
176
1
290
0
176
1
290
1
176
1
290
1
176
1
290
0
176
1
290
0
176
1
290
0
176
1
290
0
176
1
290
0
176
1
290
0
176
1
 90
50
176
1
 40
0.0
176
1
 40
1.0
176
1
 90
0
176
1
 62
18
420
0
176
1
 90
50
176
1
 90
3
176
1
 62
5
420
255
176
1
290
0
176
1
 90
50
176
1
 90
50
176
1
 90
50
176
1
290
0
176
1
 90
50
176
1
 62
256
176
0
 40
1.0
176
0
 90
2
176
1
  1
strokes_ogs.tif
176
1
290
0
176
1
 40
1.0
176
1
 40
1.0
176
1
  0
VISUALSTYLE
  5
60
102
{ACAD_REACTORS
330
16
102
}
330
16
100
AcDbVisualStyle
  2
EdgeColorOff
 70
22
177
3
291
1
 70
58
 90
2
176
1
 90
2
176
1
 90
0
176
1
 90
2
176
1
 40
0.6
176
1
 40
30.0
176
1
 62
7
420
16777215
176
1
 90
1
176
1
 90
4
176
1
 62
7
176
1
 62
257
176
1
 90
1
176
1
 90
1
176
1
 40
1.0
176
1
 90
8
176
1
 62
7
176
1
 40
1.0
176
1
 90
1
176
1
 90
6
176
1
 90
2
176
1
 62
7
176
1
 90
5
176
1
 90
0
176
1
 90
0
176
1
290
0
176
1
 90
1
176
1
 40
0.0
176
1
 90
0
176
1
290
0
176
1
290
1
176
1
290
1
176
1
290
0
176
1
290
0
176
1
290
0
176
1
290
0
176
1
290
0
176
1
290
0
176
1
 90
50
176
1
 40
0.0
176
1
 40
1.0
176
1
 90
0
176
1
 62
18
420
0
176
1
 90
50
176
1
 90
3
176
1
 62
5
420
255
176
1
290
0
176
1
 90
50
176
1
 90
50
176
1
 90
50
176
1
290
0
176
1
 90
50
176
1
 62
256
176
0
 40
1.0
176
0
 90
2
176
1
  1
strokes_ogs.tif
176
1
290
0
176
1
 40
1.0
176
1
 40
1.0
176
1
  0
VISUALSTYLE
  5
61
102
{ACAD_REACTORS
330
16
102
}
330
16
100
AcDbVisualStyle
  2
Facepattern
 70
15
177
3
291
1
 70
58
 90
2
176
1
 90
2
176
1
 90
0
176
1
 90
2
176
1
 40
0.6
176
1
 40
30.0
176
1
 62
7
420
16777215
176
1
 90
1
176
1
 90
4
176
1
 62
7
176
1
 62
257
176
1
 90
1
176
1
 90
1
176
1
 40
1.0
176
1
 90
8
176
1
 62
7
176
1
 40
1.0
176
1
 90
1
176
1
 90
6
176
1
 90
2
176
1
 62
7
176
1
 90
5
176
1
 90
0
176
1
 90
0
176
1
290
0
176
1
 90
1
176
1
 40
0.0
176
1
 90
0
176
1
290
0
176
1
290
1
176
1
290
1
176
1
290
0
176
1
290
0
176
1
290
0
176
1
290
0
176
1
290
0
176
1
290
0
176
1
 90
50
176
1
 40
0.0
176
1
 40
1.0
176
1
 90
0
176
1
 62
18
420
0
176
1
 90
50
176
1
 90
3
176
1
 62
5
420
255
176
1
290
0
176
1
 90
50
176
1
 90
50
176
1
 90
50
176
1
290
0
176
1
 90
50
176
1
 62
256
176
0
 40
1.0
176
0
 90
2
176
1
  1
strokes_ogs.tif
176
1
290
0
176
1
 40
1.0
176
1
 40
1.0
176
1
  0
VISUALSTYLE
  5
62
102
{ACAD_REACTORS
330
16
102
}
330
16
100
AcDbVisualStyle
  2
Flat
 70
0
177
3
291
1
 70
58
 90
2
176
1
 90
2
176
1
 90
0
176
1
 90
2
176
1
 40
0.6
176
1
 40
30.0
176
1
 62
7
420
16777215
176
1
 90
1
176
1
 90
4
176
1
 62
7
176
1
 62
257
176
1
 90
1
176
1
 90
1
176
1
 40
1.0
176
1
 90
8
176
1
 62
7
176
1
 40
1.0
176
1
 90
1
176
1
 90
6
176
1
 90
2
176
1
 62
7
176
1
 90
5
176
1
 90
0
176
1
 90
0
176
1
290
0
176
1
 90
1
176
1
 40
0.0
176
1
 90
0
176
1
290
0
176
1
290
1
176
1
290
1
176
1
290
0
176
1
290
0
176
1
290
0
176
1
290
0
176
1
290
0
176
1
290
0
176
1
 90
50
176
1
 40
0.0
176
1
 40
1.0
176
1
 90
0
176
1
 62
18
420
0
176
1
 90
50
176
1
 90
3
176
1
 62
5
420
255
176
1
290
0
176
1
 90
50
176
1
 90
50
176
1
 90
50
176
1
290
0
176
1
 90
50
176
1
 62
256
176
0
 40
1.0
176
0
 90
2
176
1
  1
strokes_ogs.tif
176
1
290
0
176
1
 40
1.0
176
1
 40
1.0
176
1
  0
VISUALSTYLE
  5
63
102
{ACAD_REACTORS
330
16
102
}
330
16
100
AcDbVisualStyle
  2
FlatWithEdges
 70
1
177
3
291
1
 70
58
 90
2
176
1
 90
2
176
1
 90
0
176
1
 90
2
176
1
 40
0.6
176
1
 40
30.0
176
1
 62
7
420
16777215
176
1
 90
1
176
1
 90
4
176
1
 62
7
176
1
 62
257
176
1
 90
1
176
1
 90
1
176
1
 40
1.0
176
1
 90
8
176
1
 62
7
176
1
 40
1.0
176
1
 90
1
176
1
 90
6
176
1
 90
2
176
1
 62
7
176
1
 90
5
176
1
 90
0
176
1
 90
0
176
1
290
0
176
1
 90
1
176
1
 40
0.0
176
1
 90
0
176
1
290
0
176
1
290
1
176
1
290
1
176
1
290
0
176
1
290
0
176
1
290
0
176
1
290
0
176
1
290
0
176
1
290
0
176
1
 90
50
176
1
 40
0.0
176
1
 40
1.0
176
1
 90
0
176
1
 62
18
420
0
176
1
 90
50
176
1
 90
3
176
1
 62
5
420
255
176
1
290
0
176
1
 90
50
176
1
 90
50
176
1
 90
50
176
1
290
0
176
1
 90
50
176
1
 62
256
176
0
 40
1.0
176
0
 90
2
176
1
  1
strokes_ogs.tif
176
1
290
0
176
1
 40
1.0
176
1
 40
1.0
176
1
  0
VISUALSTYLE
  5
64
102
{ACAD_REACTORS
330
16
102
}
330
16
100
AcDbVisualStyle
  2
Gouraud
 70
2
177
3
291
1
 70
58
 90
2
176
1
 90
2
176
1
 90
0
176
1
 90
2
176
1
 40
0.6
176
1
 40
30.0
176
1
 62
7
420
16777215
176
1
 90
1
176
1
 90
4
176
1
 62
7
176
1
 62
257
176
1
 90
1
176
1
 90
1
176
1
 40
1.0
176
1
 90
8
176
1
 62
7
176
1
 40
1.0
176
1
 90
1
176
1
 90
6
176
1
 90
2
176
1
 62
7
176
1
 90
5
176
1
 90
0
176
1
 90
0
176
1
290
0
176
1
 90
1
176
1
 40
0.0
176
1
 90
0
176
1
290
0
176
1
290
1
176
1
290
1
176
1
290
0
176
1
290
0
176
1
290
0
176
1
290
0
176
1
290
0
176
1
290
0
176
1
 90
50
176
1
 40
0.0
176
1
 40
1.0
176
1
 90
0
176
1
 62
18
420
0
176
1
 90
50
176
1
 90
3
176
1
 62
5
420
255
176
1
290
0
176
1
 90
50
176
1
 90
50
176
1
 90
50
176
1
290
0
176
1
 90
50
176
1
 62
256
176
0
 40
1.0
176
0
 90
2
176
1
  1
strokes_ogs.tif
176
1
290
0
176
1
 40
1.0
176
1
 40
1.0
176
1
  0
VISUALSTYLE
  5
65
102
{ACAD_REACTORS
330
16
102
}
330
16
100
AcDbVisualStyle
  2
GouraudWithEdges
 70
3
177
3
291
1
 70
58
 90
2
176
1
 90
2
176
1
 90
0
176
1
 90
2
176
1
 40
0.6
176
1
 40
30.0
176
1
 62
7
420
16777215
176
1
 90
1
176
1
 90
4
176
1
 62
7
176
1
 62
257
176
1
 90
1
176
1
 90
1
176
1
 40
1.0
176
1
 90
8
176
1
 62
7
176
1
 40
1.0
176
1
 90
1
176
1
 90
6
176
1
 90
2
176
1
 62
7
176
1
 90
5
176
1
 90
0
176
1
 90
0
176
1
290
0
176
1
 90
1
176
1
 40
0.0
176
1
 90
0
176
1
290
0
176
1
290
1
176
1
290
1
176
1
290
0
176
1
290
0
176
1
290
0
176
1
290
0
176
1
290
0
176
1
290
0
176
1
 90
50
176
1
 40
0.0
176
1
 40
1.0
176
1
 90
0
176
1
 62
18
420
0
176
1
 90
50
176
1
 90
3
176
1
 62
5
420
255
176
1
290
0
176
1
 90
50
176
1
 90
50
176
1
 90
50
176
1
290
0
176
1
 90
50
176
1
 62
256
176
0
 40
1.0
176
0
 90
2
176
1
  1
strokes_ogs.tif
176
1
290
0
176
1
 40
1.0
176
1
 40
1.0
176
1
  0
VISUALSTYLE
  5
66
102
{ACAD_REACTORS
330
16
102
}
330
16
100
AcDbVisualStyle
  2
Hidden
 70
6
177
3
291
0
 70
58
 90
2
176
1
 90
2
176
1
 90
0
176
1
 90
1
176
1
 40
0.6
176
1
 40
30.0
176
1
 62
7
420
16777215
176
1
 90
1
176
1
 90
4
176
1
 62
7
176
1
 62
257
176
1
 90
1
176
1
 90
1
176
1
 40
1.0
176
1
 90
8
176
1
 62
7
176
1
 40
1.0
176
1
 90
1
176
1
 90
6
176
1
 90
2
176
1
 62
7
176
1
 90
5
176
1
 90
0
176
1
 90
0
176
1
290
0
176
1
 90
1
176
1
 40
0.0
176
1
 90
0
176
1
290
0
176
1
290
1
176
1
290
1
176
1
290
0
176
1
290
0
176
1
290
0
176
1
290
0
176
1
290
0
176
1
290
0
176
1
 90
50
176
1
 40
0.0
176
1
 40
1.0
176
1
 90
0
176
1
 62
18
420
0
176
1
 90
50
176
1
 90
3
176
1
 62
5
420
255
176
1
290
0
176
1
 90
50
176
1
 90
50
176
1
 90
50
176
1
290
0
176
1
 90
50
176
1
 62
256
176
0
 40
1.0
176
0
 90
2
176
1
  1
strokes_ogs.tif
176
1
290
0
176
1
 40
1.0
176
1
 40
1.0
176
1
  0
VISUALSTYLE
  5
67
102
{ACAD_REACTORS
330
16
102
}
330
16
100
AcDbVisualStyle
  2
JitterOff
 70
20
177
3
291
1
 70
58
 90
2
176
1
 90
2
176
1
 90
0
176
1
 90
2
176
1
 40
0.6
176
1
 40
30.0
176
1
 62
7
420
16777215
176
1
 90
1
176
1
 90
4
176
1
 62
7
176
1
 62
257
176
1
 90
1
176
1
 90
1
176
1
 40
1.0
176
1
 90
8
176
1
 62
7
176
1
 40
1.0
176
1
 90
1
176
1
 90
6
176
1
 90
2
176
1
 62
7
176
1
 90
5
176
1
 90
0
176
1
 90
0
176
1
290
0
176
1
 90
1
176
1
 40
0.0
176
1
 90
0
176
1
290
0
176
1
290
1
176
1
290
1
176
1
290
0
176
1
290
0
176
1
290
0
176
1
290
0
176
1
290
0
176
1
290
0
176
1
 90
50
176
1
 40
0.0
176
1
 40
1.0
176
1
 90
0
176
1
 62
18
420
0
176
1
 90
50
176
1
 90
3
176
1
 62
5
420
255
176
1
290
0
176
1
 90
50
176
1
 90
50
176
1
 90
50
176
1
290
0
176
1
 90
50
176
1
 62
256
176
0
 40
1.0
176
0
 90
2
176
1
  1
strokes_ogs.tif
176
1
290
0
176
1
 40
1.0
176
1
 40
1.0
176
1
  0
VISUALSTYLE
  5
68
102
{ACAD_REACTORS
330
16
102
}
330
16
100
AcDbVisualStyle
  2
Linepattern
 70
14
177
3
291
1
 70
58
 90
2
176
1
 90
2
176
1
 90
0
176
1
 90
2
176
1
 40
0.6
176
1
 40
30.0
176
1
 62
7
420
16777215
176
1
 90
1
176
1
 90
4
176
1
 62
7
176
1
 62
257
176
1
 90
1
176
1
 90
1
176
1
 40
1.0
176
1
 90
8
176
1
 62
7
176
1
 40
1.0
176
1
 90
1
176
1
 90
6
176
1
 90
2
176
1
 62
7
176
1
 90
5
176
1
 90
0
176
1
 90
0
176
1
290
0
176
1
 90
1
176
1
 40
0.0
176
1
 90
0
176
1
290
0
176
1
290
1
176
1
290
1
176
1
290
0
176
1
290
0
176
1
290
0
176
1
290
0
176
1
290
0
176
1
290
0
176
1
 90
50
176
1
 40
0.0
176
1
 40
1.0
176
1
 90
0
176
1
 62
18
420
0
176
1
 90
50
176
1
 90
3
176
1
 62
5
420
255
176
1
290
0
176
1
 90
50
176
1
 90
50
176
1
 90
50
176
1
290
0
176
1
 90
50
176
1
 62
256
176
0
 40
1.0
176
0
 90
2
176
1
  1
strokes_ogs.tif
176
1
290
0
176
1
 40
1.0
176
1
 40
1.0
176
1
  0
VISUALSTYLE
  5
69
102
{ACAD_REACTORS
330
16
102
}
330
16
100
AcDbVisualStyle
  2
Modeling
 70
10
177
3
291
0
 70
58
 90
2
176
1
 90
2
176
1
 90
0
176
1
 90
2
176
1
 40
0.6
176
1
 40
30.0
176
1
 62
7
420
16777215
176
1
 90
1
176
1
 90
4
176
1
 62
7
176
1
 62
257
176
1
 90
1
176
1
 90
1
176
1
 40
1.0
176
1
 90
8
176
1
 62
7
176
1
 40
1.0
176
1
 90
1
176
1
 90
6
176
1
 90
2
176
1
 62
7
176
1
 90
5
176
1
 90
0
176
1
 90
0
176
1
290
0
176
1
 90
1
176
1
 40
0.0
176
1
 90
0
176
1
290
0
176
1
290
1
176
1
290
1
176
1
290
0
176
1
290
0
176
1
290
0
176
1
290
0
176
1
290
0
176
1
290
0
176
1
 90
50
176
1
 40
0.0
176
1
 40
1.0
176
1
 90
0
176
1
 62
18
420
0
176
1
 90
50
176
1
 90
3
176
1
 62
5
420
255
176
1
290
0
176
1
 90
50
176
1
 90
50
176
1
 90
50
176
1
290
0
176
1
 90
50
176
1
 62
256
176
0
 40
1.0
176
0
 90
2
176
1
  1
strokes_ogs.tif
176
1
290
0
176
1
 40
1.0
176
1
 40
1.0
176
1
  0
VISUALSTYLE
  5
6A
102
{ACAD_REACTORS
330
16
102
}
330
16
100
AcDbVisualStyle
  2
OverhangOff
 70
21
177
3
291
1
 70
58
 90
2
176
1
 90
2
176
1
 90
0
176
1
 90
2
176
1
 40
0.6
176
1
 40
30.0
176
1
 62
7
420
16777215
176
1
 90
1
176
1
 90
4
176
1
 62
7
176
1
 62
257
176
1
 90
1
176
1
 90
1
176
1
 40
1.0
176
1
 90
8
176
1
 62
7
176
1
 40
1.0
176
1
 90
1
176
1
 90
6
176
1
 90
2
176
1
 62
7
176
1
 90
5
176
1
 90
0
176
1
 90
0
176
1
290
0
176
1
 90
1
176
1
 40
0.0
176
1
 90
0
176
1
290
0
176
1
290
1
176
1
290
1
176
1
290
0
176
1
290
0
176
1
290
0
176
1
290
0
176
1
290
0
176
1
290
0
176
1
 90
50
176
1
 40
0.0
176
1
 40
1.0
176
1
 90
0
176
1
 62
18
420
0
176
1
 90
50
176
1
 90
3
176
1
 62
5
420
255
176
1
290
0
176
1
 90
50
176
1
 90
50
176
1
 90
50
176
1
290
0
176
1
 90
50
176
1
 62
256
176
0
 40
1.0
176
0
 90
2
176
1
  1
strokes_ogs.tif
176
1
290
0
176
1
 40
1.0
176
1
 40
1.0
176
1
  0
VISUALSTYLE
  5
6B
102
{ACAD_REACTORS
330
16
102
}
330
16
100
AcDbVisualStyle
  2
Realistic
 70
8
177
3
291
0
 70
58
 90
2
176
1
 90
2
176
1
 90
0
176
1
 90
2
176
1
 40
0.6
176
1
 40
30.0
176
1
 62
7
420
16777215
176
1
 90
1
176
1
 90
4
176
1
 62
7
176
1
 62
257
176
1
 90
1
176
1
 90
1
176
1
 40
1.0
176
1
 90
8
176
1
 62
7
176
1
 40
1.0
176
1
 90
1
176
1
 90
6
176
1
 90
2
176
1
 62
7
176
1
 90
5
176
1
 90
0
176
1
 90
0
176
1
290
0
176
1
 90
1
176
1
 40
0.0
176
1
 90
0
176
1
290
0
176
1
290
1
176
1
290
1
176
1
290
0
176
1
290
0
176
1
290
0
176
1
290
0
176
1
290
0
176
1
290
0
176
1
 90
50
176
1
 40
0.0
176
1
 40
1.0
176
1
 90
0
176
1
 62
18
420
0
176
1
 90
50
176
1
 90
3
176
1
 62
5
420
255
176
1
290
0
176
1
 90
50
176
1
 90
50
176
1
 90
50
176
1
290
0
176
1
 90
50
176
1
 62
256
176
0
 40
1.0
176
0
 90
2
176
1
  1
strokes_ogs.tif
176
1
290
0
176
1
 40
1.0
176
1
 40
1.0
176
1
  0
VISUALSTYLE
  5
6C
102
{ACAD_REACTORS
330
16
102
}
330
16
100
AcDbVisualStyle
  2
Shaded
 70
27
177
3
291
0
 70
58
 90
2
176
1
 90
2
176
1
 90
0
176
1
 90
2
176
1
 40
0.6
176
1
 40
30.0
176
1
 62
7
420
16777215
176
1
 90
1
176
1
 90
4
176
1
 62
7
176
1
 62
257
176
1
 90
1
176
1
 90
1
176
1
 40
1.0
176
1
 90
8
176
1
 62
7
176
1
 40
1.0
176
1
 90
1
176
1
 90
6
176
1
 90
2
176
1
 62
7
176
1
 90
5
176
1
 90
0
176
1
 90
0
176
1
290
0
176
1
 90
1
176
1
 40
0.0
176
1
 90
0
176
1
290
0
176
1
290
1
176
1
290
1
176
1
290
0
176
1
290
0
176
1
290
0
176
1
290
0
176
1
290
0
176
1
290
0
176
1
 90
50
176
1
 40
0.0
176
1
 40
1.0
176
1
 90
0
176
1
 62
18
420
0
176
1
 90
50
176
1
 90
3
176
1
 62
5
420
255
176
1
290
0
176
1
 90
50
176
1
 90
50
176
1
 90
50
176
1
290
0
176
1
 90
50
176
1
 62
256
176
0
 40
1.0
176
0
 90
2
176
1
  1
strokes_ogs.tif
176
1
290
0
176
1
 40
1.0
176
1
 40
1.0
176
1
  0
VISUALSTYLE
  5
6D
102
{ACAD_REACTORS
330
16
102
}
330
16
100
AcDbVisualStyle
  2
Shaded with edges
 70
26
177
3
291
0
 70
58
 90
2
176
1
 90
2
176
1
 90
0
176
1
 90
2
176
1
 40
0.6
176
1
 40
30.0
176
1
 62
7
420
16777215
176
1
 90
1
176
1
 90
4
176
1
 62
7
176
1
 62
257
176
1
 90
1
176
1
 90
1
176
1
 40
1.0
176
1
 90
8
176
1
 62
7
176
1
 40
1.0
176
1
 90
1
176
1
 90
6
176
1
 90
2
176
1
 62
7
176
1
 90
5
176
1
 90
0
176
1
 90
0
176
1
290
0
176
1
 90
1
176
1
 40
0.0
176
1
 90
0
176
1
290
0
176
1
290
1
176
1
290
1
176
1
290
0
176
1
290
0
176
1
290
0
176
1
290
0
176
1
290
0
176
1
290
0
176
1
 90
50
176
1
 40
0.0
176
1
 40
1.0
176
1
 90
0
176
1
 62
18
420
0
176
1
 90
50
176
1
 90
3
176
1
 62
5
420
255
176
1
290
0
176
1
 90
50
176
1
 90
50
176
1
 90
50
176
1
290
0
176
1
 90
50
176
1
 62
256
176
0
 40
1.0
176
0
 90
2
176
1
  1
strokes_ogs.tif
176
1
290
0
176
1
 40
1.0
176
1
 40
1.0
176
1
  0
VISUALSTYLE
  5
6E
102
{ACAD_REACTORS
330
16
102
}
330
16
100
AcDbVisualStyle
  2
Shades of Gray
 70
23
177
3
291
0
 70
58
 90
2
176
1
 90
2
176
1
 90
0
176
1
 90
2
176
1
 40
0.6
176
1
 40
30.0
176
1
 62
7
420
16777215
176
1
 90
1
176
1
 90
4
176
1
 62
7
176
1
 62
257
176
1
 90
1
176
1
 90
1
176
1
 40
1.0
176
1
 90
8
176
1
 62
7
176
1
 40
1.0
176
1
 90
1
176
1
 90
6
176
1
 90
2
176
1
 62
7
176
1
 90
5
176
1
 90
0
176
1
 90
0
176
1
290
0
176
1
 90
1
176
1
 40
0.0
176
1
 90
0
176
1
290
0
176
1
290
1
176
1
290
1
176
1
290
0
176
1
290
0
176
1
290
0
176
1
290
0
176
1
290
0
176
1
290
0
176
1
 90
50
176
1
 40
0.0
176
1
 40
1.0
176
1
 90
0
176
1
 62
18
420
0
176
1
 90
50
176
1
 90
3
176
1
 62
5
420
255
176
1
290
0
176
1
 90
50
176
1
 90
50
176
1
 90
50
176
1
290
0
176
1
 90
50
176
1
 62
256
176
0
 40
1.0
176
0
 90
2
176
1
  1
strokes_ogs.tif
176
1
290
0
176
1
 40
1.0
176
1
 40
1.0
176
1
  0
VISUALSTYLE
  5
6F
102
{ACAD_REACTORS
330
16
102
}
330
16
100
AcDbVisualStyle
  2
Sketchy
 70
24
177
3
291
0
 70
58
 90
2
176
1
 90
2
176
1
 90
0
176
1
 90
1
176
1
 40
0.6
176
1
 40
30.0
176
1
 62
7
420
16777215
176
1
 90
1
176
1
 90
4
176
1
 62
7
176
1
 62
257
176
1
 90
1
176
1
 90
1
176
1
 40
1.0
176
1
 90
8
176
1
 62
7
176
1
 40
1.0
176
1
 90
1
176
1
 90
6
176
1
 90
2
176
1
 62
7
176
1
 90
5
176
1
 90
0
176
1
 90
0
176
1
290
0
176
1
 90
1
176
1
 40
0.0
176
1
 90
0
176
1
290
0
176
1
290
1
176
1
290
1
176
1
290
0
176
1
290
0
176
1
290
0
176
1
290
0
176
1
290
0
176
1
290
0
176
1
 90
50
176
1
 40
0.0
176
1
 40
1.0
176
1
 90
0
176
1
 62
18
420
0
176
1
 90
50
176
1
 90
3
176
1
 62
5
420
255
176
1
290
0
176
1
 90
50
176
1
 90
50
176
1
 90
50
176
1
290
0
176
1
 90
50
176
1
 62
256
176
0
 40
1.0
176
0
 90
2
176
1
  1
strokes_ogs.tif
176
1
290
0
176
1
 40
1.0
176
1
 40
1.0
176
1
  0
VISUALSTYLE
  5
70
102
{ACAD_REACTORS
330
16
102
}
330
16
100
AcDbVisualStyle
  2
Thicken
 70
13
177
3
291
1
 70
58
 90
2
176
1
 90
2
176
1
 90
0
176
1
 90
2
176
1
 40
0.6
176
1
 40
30.0
176
1
 62
7
420
16777215
176
1
 90
1
176
1
 90
4
176
1
 62
7
176
1
 62
257
176
1
 90
1
176
1
 90
1
176
1
 40
1.0
176
1
 90
8
176
1
 62
7
176
1
 40
1.0
176
1
 90
1
176
1
 90
6
176
1
 90
2
176
1
 62
7
176
1
 90
5
176
1
 90
0
176
1
 90
0
176
1
290
0
176
1
 90
1
176
1
 40
0.0
176
1
 90
0
176
1
290
0
176
1
290
1
176
1
290
1
176
1
290
0
176
1
290
0
176
1
290
0
176
1
290
0
176
1
290
0
176
1
290
0
176
1
 90
50
176
1
 40
0.0
176
1
 40
1.0
176
1
 90
0
176
1
 62
18
420
0
176
1
 90
50
176
1
 90
3
176
1
 62
5
420
255
176
1
290
0
176
1
 90
50
176
1
 90
50
176
1
 90
50
176
1
290
0
176
1
 90
50
176
1
 62
256
176
0
 40
1.0
176
0
 90
2
176
1
  1
strokes_ogs.tif
176
1
290
0
176
1
 40
1.0
176
1
 40
1.0
176
1
  0
VISUALSTYLE
  5
71
102
{ACAD_REACTORS
330
16
102
}
330
16
100
AcDbVisualStyle
  2
Wireframe
 70
5
177
3
291
0
 70
58
 90
2
176
1
 90
2
176
1
 90
0
176
1
 90
0
176
1
 40
0.6
176
1
 40
30.0
176
1
 62
7
420
16777215
176
1
 90
1
176
1
 90
4
176
1
 62
7
176
1
 62
257
176
1
 90
1
176
1
 90
1
176
1
 40
1.0
176
1
 90
8
176
1
 62
7
176
1
 40
1.0
176
1
 90
1
176
1
 90
6
176
1
 90
2
176
1
 62
7
176
1
 90
5
176
1
 90
0
176
1
 90
0
176
1
290
0
176
1
 90
1
176
1
 40
0.0
176
1
 90
0
176
1
290
0
176
1
290
1
176
1
290
1
176
1
290
0
176
1
290
0
176
1
290
0
176
1
290
0
176
1
290
0
176
1
290
0
176
1
 90
50
176
1
 40
0.0
176
1
 40
1.0
176
1
 90
0
176
1
 62
18
420
0
176
1
 90
50
176
1
 90
3
176
1
 62
5
420
255
176
1
290
0
176
1
 90
50
176
1
 90
50
176
1
 90
50
176
1
290
0
176
1
 90
50
176
1
 62
256
176
0
 40
1.0
176
0
 90
2
176
1
  1
strokes_ogs.tif
176
1
290
0
176
1
 40
1.0
176
1
 40
1.0
176
1
  0
VISUALSTYLE
  5
72
102
{ACAD_REACTORS
330
16
102
}
330
16
100
AcDbVisualStyle
  2
X-Ray
 70
25
177
3
291
0
 70
58
 90
2
176
1
 90
2
176
1
 90
0
176
1
 90
2
176
1
 40
0.5
176
1
 40
30.0
176
1
 62
7
420
16777215
176
1
 90
1
176
1
 90
4
176
1
 62
7
176
1
 62
257
176
1
 90
1
176
1
 90
1
176
1
 40
1.0
176
1
 90
8
176
1
 62
7
176
1
 40
1.0
176
1
 90
1
176
1
 90
6
176
1
 90
2
176
1
 62
7
176
1
 90
5
176
1
 90
0
176
1
 90
0
176
1
290
0
176
1
 90
1
176
1
 40
0.0
176
1
 90
0
176
1
290
0
176
1
290
1
176
1
290
1
176
1
290
0
176
1
290
0
176
1
290
0
176
1
290
0
176
1
290
0
176
1
290
0
176
1
 90
50
176
1
 40
0.0
176
1
 40
1.0
176
1
 90
0
176
1
 62
18
420
0
176
1
 90
50
176
1
 90
3
176
1
 62
5
420
255
176
1
290
0
176
1
 90
50
176
1
 90
50
176
1
 90
50
176
1
290
0
176
1
 90
50
176
1
 62
256
176
0
 40
1.0
176
0
 90
2
176
1
  1
strokes_ogs.tif
176
1
290
0
176
1
 40
1.0
176
1
 40
1.0
176
1
  0
DICTIONARYVAR
  5
1A7
330
2D
100
DictionaryVariables
280
0
  1
1.4.4 @ 2026-09-20T00:06:39.952647+00:00
  0
ENDSEC
  0
EOF
