  0
SECTION
  2
HEADER
  9
$ACADVER
  1
AC1027
  9
$ACADMAINTVER
 70
105
  9
$DWGCODEPAGE
  3
ANSI_1252
  9
$LASTSAVEDBY
  1
ezdxf
  9
$REQUIREDVERSIONS
160
0
  9
$INSBASE
 10
0.0
 20
0.0
 30
0.0
  9
$EXTMIN
 10
1e+20
 20
1e+20
 30
1e+20
  9
$EXTMAX
 10
-1e+20
 20
-1e+20
 30
-1e+20
  9
$LIMMIN
 10
0.0
 20
0.0
  9
$LIMMAX
 10
420.0
 20
297.0
  9
$ORTHOMODE
 70
0
  9
$REGENMODE
 70
1
  9
$FILLMODE
 70
1
  9
$QTEXTMODE
 70
0
  9
$MIRRTEXT
 70
1
  9
$LTSCALE
 40
1.0
  9
$ATTMODE
 70
1
  9
$TEXTSIZE
 40
2.5
  9
$TRACEWID
 40
1.0
  9
$TEXTSTYLE
  7
OpenSans
  9
$CLAYER
  8
0
  9
$CELTYPE
  6
ByLayer
  9
$CECOLOR
 62
256
  9
$CELTSCALE
 40
1.0
  9
$DISPSILH
 70
0
  9
$DIMSCALE
 40
1.0
  9
$DIMASZ
 40
0.175
  9
$DIMEXO
 40
0.125
  9
$DIMDLI
 40
3.75
  9
$DIMRND
 40
0.0
  9
$DIMDLE
 40
0.0
  9
$DIMEXE
 40
0.375
  9
$DIMTP
 40
0.0
  9
$DIMTM
 40
0.0
  9
$DIMTXT
 40
0.25
  9
$DIMCEN
 40
2.5
  9
$DIMTSZ
 40
0.0
  9
$DIMTOL
 70
0
  9
$DIMLIM
 70
0
  9
$DIMTIH
 70
0
  9
$DIMTOH
 70
0
  9
$DIMSE1
 70
0
  9
$DIMSE2
 70
0
  9
$DIMTAD
 70
1
  9
$DIMZIN
 70
12
  9
$DIMBLK
  1
ARCHTICK
  9
$DIMASO
 70
1
  9
$DIMSHO
 70
1
  9
$DIMPOST
  1

  9
$DIMAPOST
  1

  9
$DIMALT
 70
0
  9
$DIMALTD
 70
3
  9
$DIMALTF
 40
0.03937007874
  9
$DIMLFAC
 40
100.0
  9
$DIMTOFL
 70
1
  9
$DIMTVP
 40
0.0
  9
$DIMTIX
 70
0
  9
$DIMSOXD
 70
0
  9
$DIMSAH
 70
0
  9
$DIMBLK1
  1

  9
$DIMBLK2
  1

  9
$DIMSTYLE
  2
EZDXF
  9
$DIMCLRD
 70
0
  9
$DIMCLRE
 70
0
  9
$DIMCLRT
 70
0
  9
$DIMTFAC
 40
0.5
  9
$DIMGAP
 40
0.1
  9
$DIMJUST
 70
0
  9
$DIMSD1
 70
0
  9
$DIMSD2
 70
0
  9
$DIMTOLJ
 70
0
  9
$DIMTZIN
 70
8
  9
$DIMALTZ
 70
0
  9
$DIMALTTZ
 70
0
  9
$DIMUPT
 70
1
  9
$DIMDEC
 70
2
  9
$DIMTDEC
 70
2
  9
$DIMALTU
 70
2
  9
$DIMALTTD
 70
3
  9
$DIMTXSTY
  7
OpenSansCondensed-Light
  9
$DIMAUNIT
 70
0
  9
$DIMADEC
 70
2
  9
$DIMALTRND
 40
0.0
  9
$DIMAZIN
 70
3
  9
$DIMDSEP
 70
46
  9
$DIMATFIT
 70
3
  9
$DIMFRAC
 70
0
  9
$DIMLDRBLK
  1

  9
$DIMLUNIT
 70
2
  9
$DIMLWD
 70
-2
  9
$DIMLWE
 70
-2
  9
$DIMTMOVE
 70
2
  9
$DIMFXL
 40
1.0
  9
$DIMFXLON
 70
0
  9
$DIMJOGANG
 40
0.785398163397
  9
$DIMTFILL
 70
0
  9
$DIMTFILLCLR
 70
0
  9
$DIMARCSYM
 70
0
  9
$DIMLTYPE
  6

  9
$DIMLTEX1
  6

  9
$DIMLTEX2
  6

  9
$DIMTXTDIRECTION
 70
0
  9
$LUNITS
 70
2
  9
$LUPREC
 70
4
  9
$SKETCHINC
 40
1.0
  9
$FILLETRAD
 40
10.0
  9
$AUNITS
 70
0
  9
$AUPREC
 70
2
  9
$MENU
  1
.
  9
$ELEVATION
 40
0.0
  9
$PELEVATION
 40
0.0
  9
$THICKNESS
 40
0.0
  9
$LIMCHECK
 70
0
  9
$CHAMFERA
 40
0.0
  9
$CHAMFERB
 40
0.0
  9
$CHAMFERC
 40
0.0
  9
$CHAMFERD
 40
0.0
  9
$SKPOLY
 70
0
  9
$TDCREATE
 40
2461305.0871412037
  9
$TDUCREATE
 40
2458532.153996898
  9
$TDUPDATE
 40
2461305.0871527777
  9
$TDUUPDATE
 40
2458532.1544311
  9
$TDINDWG
 40
0.0
  9
$TDUSRTIMER
 40
0.0
  9
$USRTIMER
 70
1
  9
$ANGBASE
 50
0.0
  9
$ANGDIR
 70
0
  9
$PDMODE
 70
0
  9
$PDSIZE
 40
0.0
  9
$PLINEWID
 40
0.0
  9
$SPLFRAME
 70
0
  9
$SPLINETYPE
 70
6
  9
$SPLINESEGS
 70
8
  9
$HANDSEED
  5
203
  9
$SURFTAB1
 70
6
  9
$SURFTAB2
 70
6
  9
$SURFTYPE
 70
6
  9
$SURFU
 70
6
  9
$SURFV
 70
6
  9
$UCSBASE
  2

  9
$UCSNAME
  2

  9
$UCSORG
 10
0.0
 20
0.0
 30
0.0
  9
$UCSXDIR
 10
1.0
 20
0.0
 30
0.0
  9
$UCSYDIR
 10
0.0
 20
1.0
 30
0.0
  9
$UCSORTHOREF
  2

  9
$UCSORTHOVIEW
 70
0
  9
$UCSORGTOP
 10
0.0
 20
0.0
 30
0.0
  9
$UCSORGBOTTOM
 10
0.0
 20
0.0
 30
0.0
  9
$UCSORGLEFT
 10
0.0
 20
0.0
 30
0.0
  9
$UCSORGRIGHT
 10
0.0
 20
0.0
 30
0.0
  9
$UCSORGFRONT
 10
0.0
 20
0.0
 30
0.0
  9
$UCSORGBACK
 10
0.0
 20
0.0
 30
0.0
  9
$PUCSBASE
  2

  9
$PUCSNAME
  2

  9
$PUCSORG
 10
0.0
 20
0.0
 30
0.0
  9
$PUCSXDIR
 10
1.0
 20
0.0
 30
0.0
  9
$PUCSYDIR
 10
0.0
 20
1.0
 30
0.0
  9
$PUCSORTHOREF
  2

  9
$PUCSORTHOVIEW
 70
0
  9
$PUCSORGTOP
 10
0.0
 20
0.0
 30
0.0
  9
$PUCSORGBOTTOM
 10
0.0
 20
0.0
 30
0.0
  9
$PUCSORGLEFT
 10
0.0
 20
0.0
 30
0.0
  9
$PUCSORGRIGHT
 10
0.0
 20
0.0
 30
0.0
  9
$PUCSORGFRONT
 10
0.0
 20
0.0
 30
0.0
  9
$PUCSORGBACK
 10
0.0
 20
0.0
 30
0.0
  9
$USERI1
 70
0
  9
$USERI2
 70
0
  9
$USERI3
 70
0
  9
$USERI4
 70
0
  9
$USERI5
 70
0
  9
$USERR1
 40
0.0
  9
$USERR2
 40
0.0
  9
$USERR3
 40
0.0
  9
$USERR4
 40
0.0
  9
$USERR5
 40
0.0
  9
$WORLDVIEW
 70
1
  9
$SHADEDGE
 70
3
  9
$SHADEDIF
 70
70
  9
$TILEMODE
 70
1
  9
$MAXACTVP
 70
64
  9
$PINSBASE
 10
0.0
 20
0.0
 30
0.0
  9
$PLIMCHECK
 70
0
  9
$PEXTMIN
 10
1e+20
 20
1e+20
 30
1e+20
  9
$PEXTMAX
 10
-1e+20
 20
-1e+20
 30
-1e+20
  9
$PLIMMIN
 10
0.0
 20
0.0
  9
$PLIMMAX
 10
420.0
 20
297.0
  9
$UNITMODE
 70
0
  9
$VISRETAIN
 70
1
  9
$PLINEGEN
 70
0
  9
$PSLTSCALE
 70
1
  9
$TREEDEPTH
 70
3020
  9
$CMLSTYLE
  2
Standard
  9
$CMLJUST
 70
0
  9
$CMLSCALE
 40
20.0
  9
$PROXYGRAPHICS
 70
1
  9
$MEASUREMENT
 70
1
  9
$CELWEIGHT
370
-1
  9
$ENDCAPS
280
0
  9
$JOINSTYLE
280
0
  9
$LWDISPLAY
290
0
  9
$INSUNITS
 70
4
  9
$HYPERLINKBASE
  1

  9
$STYLESHEET
  1

  9
$XEDIT
290
1
  9
$CEPSNTYPE
380
0
  9
$PSTYLEMODE
290
1
  9
$FINGERPRINTGUID
  2
{2FEF2D90-88D7-4C71-8ADF-75ED55ECFB75}
  9
$VERSIONGUID
  2
{04B7607B-A76B-42BC-90B0-08CB32CC8E33}
  9
$EXTNAMES
290
1
  9
$PSVPSCALE
 40
0.0
  9
$OLESTARTUP
290
0
  9
$SORTENTS
280
127
  9
$INDEXCTL
280
0
  9
$HIDETEXT
280
1
  9
$XCLIPFRAME
280
1
  9
$HALOGAP
280
0
  9
$OBSCOLOR
 70
257
  9
$OBSLTYPE
280
0
  9
$INTERSECTIONDISPLAY
280
0
  9
$INTERSECTIONCOLOR
 70
257
  9
$DIMASSOC
280
2
  9
$PROJECTNAME
  1

  9
$CAMERADISPLAY
290
0
  9
$LENSLENGTH
 40
50.0
  9
$CAMERAHEIGHT
 40
0.0
  9
$STEPSPERSEC
 40
24.0
  9
$STEPSIZE
 40
100.0
  9
$3DDWFPREC
 40
2.0
  9
$PSOLWIDTH
 40
0.005
  9
$PSOLHEIGHT
 40
0.08
  9
$LOFTANG1
 40
1.570796326795
  9
$LOFTANG2
 40
1.570796326795
  9
$LOFTMAG1
 40
0.0
  9
$LOFTMAG2
 40
0.0
  9
$LOFTPARAM
 70
7
  9
$LOFTNORMALS
280
1
  9
$LATITUDE
 40
37.795
  9
$LONGITUDE
 40
-122.394
  9
$NORTHDIRECTION
 40
0.0
  9
$TIMEZONE
 70
-8000
  9
$LIGHTGLYPHDISPLAY
280
1
  9
$TILEMODELIGHTSYNCH
280
1
  9
$CMATERIAL
347
20
  9
$SOLIDHIST
280
0
  9
$SHOWHIST
280
1
  9
$DWFFRAME
280
2
  9
$DGNFRAME
280
2
  9
$REALWORLDSCALE
290
1
  9
$INTERFERECOLOR
 62
256
  9
$CSHADOW
280
0
  9
$SHADOWPLANELOCATION
 40
0.0
  0
ENDSEC
  0
SECTION
  2
CLASSES
  0
CLASS
  1
ACDBDICTIONARYWDFLT
  2
AcDbDictionaryWithDefault
  3
ObjectDBX Classes
 90
0
 91
0
280
0
281
0
  0
CLASS
  1
SUN
  2
AcDbSun
  3
SCENEOE
 90
1153
 91
0
280
0
281
0
  0
CLASS
  1
VISUALSTYLE
  2
AcDbVisualStyle
  3
ObjectDBX Classes
 90
4095
 91
0
280
0
281
0
  0
CLASS
  1
MATERIAL
  2
AcDbMaterial
  3
ObjectDBX Classes
 90
1153
 91
0
280
0
281
0
  0
CLASS
  1
SCALE
  2
AcDbScale
  3
ObjectDBX Classes
 90
1153
 91
0
280
0
281
0
  0
CLASS
  1
TABLESTYLE
  2
AcDbTableStyle
  3
ObjectDBX Classes
 90
4095
 91
0
280
0
281
0
  0
CLASS
  1
MLEADERSTYLE
  2
AcDbMLeaderStyle
  3
ACDB_MLEADERSTYLE_CLASS
 90
4095
 91
0
280
0
281
0
  0
CLASS
  1
DICTIONARYVAR
  2
AcDbDictionaryVar
  3
ObjectDBX Classes
 90
0
 91
0
280
0
281
0
  0
CLASS
  1
CELLSTYLEMAP
  2
AcDbCellStyleMap
  3
ObjectDBX Classes
 90
1152
 91
0
280
0
281
0
  0
CLASS
  1
MENTALRAYRENDERSETTINGS
  2
AcDbMentalRayRenderSettings
  3
SCENEOE
 90
1024
 91
0
280
0
281
0
  0
CLASS
  1
ACDBDETAILVIEWSTYLE
  2
AcDbDetailViewStyle
  3
ObjectDBX Classes
 90
1025
 91
0
280
0
281
0
  0
CLASS
  1
ACDBSECTIONVIEWSTYLE
  2
AcDbSectionViewStyle
  3
ObjectDBX Classes
 90
1025
 91
0
280
0
281
0
  0
CLASS
  1
RASTERVARIABLES
  2
AcDbRasterVariables
  3
ISM
 90
0
 91
0
280
0
281
0
  0
CLASS
  1
LAYOUT
  2
AcDbLayout
  3
ObjectDBX Classes
 90
0
 91
0
280
0
281
0
  0
CLASS
  1
ACDBPLACEHOLDER
  2
AcDbPlaceHolder
  3
ObjectDBX Classes
 90
0
 91
0
280
0
281
0
  0
ENDSEC
  0
SECTION
  2
TABLES
  0
TABLE
  2
VPORT
  5
8
330
0
100
AcDbSymbolTable
 70
1
  0
VPORT
  5
23
330
8
100
AcDbSymbolTableRecord
100
AcDbViewportTableRecord
  2
*Active
 70
0
 10
0.0
 20
0.0
 11
1.0
 21
1.0
 12
0.0
 22
0.0
 13
0.0
 23
0.0
 14
0.5
 24
0.5
 15
0.5
 25
0.5
 16
0.0
 26
0.0
 36
1.0
 17
0.0
 27
0.0
 37
0.0
 40
1000.0
 41
1.34
 42
50.0
 43
0.0
 44
0.0
 50
0.0
 51
0.0
 71
0
 72
1000
 73
1
 74
3
 75
0
 76
0
 77
0
 78
0
281
0
 65
0
146
0.0
  0
ENDTAB
  0
TABLE
  2
LTYPE
  5
2
330
0
100
AcDbSymbolTable
 70
21
  0
LTYPE
  5
24
330
2
100
AcDbSymbolTableRecord
100
AcDbLinetypeTableRecord
  2
ByBlock
 70
0
  3

 72
65
 73
0
 40
0.0
  0
LTYPE
  5
25
330
2
100
AcDbSymbolTableRecord
100
AcDbLinetypeTableRecord
  2
ByLayer
 70
0
  3

 72
65
 73
0
 40
0.0
  0
LTYPE
  5
26
330
2
100
AcDbSymbolTableRecord
100
AcDbLinetypeTableRecord
  2
Continuous
 70
0
  3

 72
65
 73
0
 40
0.0
  0
LTYPE
  5
2F
330
2
100
AcDbSymbolTableRecord
100
AcDbLinetypeTableRecord
  2
CENTER
 70
0
  3
Center ____ _ ____ _ ____ _ ____ _ ____ _ ____
 72
65
 73
4
 40
5.08
 49
3.175
 74
0
 49
-0.635
 74
0
 49
0.635
 74
0
 49
-0.635
 74
0
  0
LTYPE
  5
30
330
2
100
AcDbSymbolTableRecord
100
AcDbLinetypeTableRecord
  2
CENTERX2
 70
0
  3
Center (2x) ________  __  ________  __  ________
 72
65
 73
4
 40
8.89
 49
6.35
 74
0
 49
-0.635
 74
0
 49
1.27
 74
0
 49
-0.635
 74
0
  0
LTYPE
  5
31
330
2
100
AcDbSymbolTableRecord
100
AcDbLinetypeTableRecord
  2
CENTER2
 70
0
  3
Center (.5x) ____ _ ____ _ ____ _ ____ _ ____
 72
65
 73
4
 40
2.54
 49
1.587
 74
0
 49
-0.318
 74
0
 49
0.318
 74
0
 49
-0.318
 74
0
  0
LTYPE
  5
32
330
2
100
AcDbSymbolTableRecord
100
AcDbLinetypeTableRecord
  2
DASHED
 70
0
  3
Dashed __ __ __ __ __ __ __ __ __ __ __ __ __ _
 72
65
 73
2
 40
1.524
 49
1.27
 74
0
 49
-0.254
 74
0
  0
LTYPE
  5
33
330
2
100
AcDbSymbolTableRecord
100
AcDbLinetypeTableRecord
  2
DASHEDX2
 70
0
  3
Dashed (2x) ____  ____  ____  ____  ____  ____
 72
65
 73
2
 40
3.048
 49
2.54
 74
0
 49
-0.508
 74
0
  0
LTYPE
  5
34
330
2
100
AcDbSymbolTableRecord
100
AcDbLinetypeTableRecord
  2
DASHED2
 70
0
  3
Dashed (.5x) _ _ _ _ _ _ _ _ _ _ _ _ _ _
 72
65
 73
2
 40
0.762
 49
0.635
 74
0
 49
-0.127
 74
0
  0
LTYPE
  5
35
330
2
100
AcDbSymbolTableRecord
100
AcDbLinetypeTableRecord
  2
PHANTOM
 70
0
  3
Phantom ______  __  __  ______  __  __  ______
 72
65
 73
6
 40
6.35
 49
3.175
 74
0
 49
-0.635
 74
0
 49
0.635
 74
0
 49
-0.635
 74
0
 49
0.635
 74
0
 49
-0.635
 74
0
  0
LTYPE
  5
36
330
2
100
AcDbSymbolTableRecord
100
AcDbLinetypeTableRecord
  2
PHANTOMX2
 70
0
  3
Phantom (2x)____________    ____    ____    ____________
 72
65
 73
6
 40
10.795
 49
6.35
 74
0
 49
-0.635
 74
0
 49
1.27
 74
0
 49
-0.635
 74
0
 49
1.27
 74
0
 49
-0.635
 74
0
  0
LTYPE
  5
37
330
2
100
AcDbSymbolTableRecord
100
AcDbLinetypeTableRecord
  2
PHANTOM2
 70
0
  3
Phantom (.5x) ___ _ _ ___ _ _ ___ _ _ ___ _ _ ___
 72
65
 73
6
 40
3.175
 49
1.587
 74
0
 49
-0.318
 74
0
 49
0.318
 74
0
 49
-0.318
 74
0
 49
0.318
 74
0
 49
-0.318
 74
0
  0
LTYPE
  5
38
330
2
100
AcDbSymbolTableRecord
100
AcDbLinetypeTableRecord
  2
DASHDOT
 70
0
  3
Dash dot __ . __ . __ . __ . __ . __ . __ . __
 72
65
 73
4
 40
3.556
 49
2.54
 74
0
 49
-0.508
 74
0
 49
0.0
 74
0
 49
-0.508
 74
0
  0
LTYPE
  5
39
330
2
100
AcDbSymbolTableRecord
100
AcDbLinetypeTableRecord
  2
DASHDOTX2
 70
0
  3
Dash dot (2x) ____  .  ____  .  ____  .  ____
 72
65
 73
4
 40
6.096
 49
5.08
 74
0
 49
-0.508
 74
0
 49
0.0
 74
0
 49
-0.508
 74
0
  0
LTYPE
  5
3A
330
2
100
AcDbSymbolTableRecord
100
AcDbLinetypeTableRecord
  2
DASHDOT2
 70
0
  3
Dash dot (.5x) _ . _ . _ . _ . _ . _ . _ . _
 72
65
 73
4
 40
1.778
 49
1.27
 74
0
 49
-0.254
 74
0
 49
0.0
 74
0
 49
-0.254
 74
0
  0
LTYPE
  5
3B
330
2
100
AcDbSymbolTableRecord
100
AcDbLinetypeTableRecord
  2
DOT
 70
0
  3
Dot .  .  .  .  .  .  .  .  .  .  .  .  .  .  .  .
 72
65
 73
2
 40
0.508
 49
0.0
 74
0
 49
-0.508
 74
0
  0
LTYPE
  5
3C
330
2
100
AcDbSymbolTableRecord
100
AcDbLinetypeTableRecord
  2
DOTX2
 70
0
  3
Dot (2x) .    .    .    .    .    .    .    . 
 72
65
 73
2
 40
1.016
 49
0.0
 74
0
 49
-1.016
 74
0
  0
LTYPE
  5
3D
330
2
100
AcDbSymbolTableRecord
100
AcDbLinetypeTableRecord
  2
DOT2
 70
0
  3
Dot (.5) . . . . . . . . . . . . . . . . . . . 
 72
65
 73
2
 40
0.254
 49
0.0
 74
0
 49
-0.254
 74
0
  0
LTYPE
  5
3E
330
2
100
AcDbSymbolTableRecord
100
AcDbLinetypeTableRecord
  2
DIVIDE
 70
0
  3
Divide __ . . __ . . __ . . __ . . __ . . __
 72
65
 73
6
 40
4.064
 49
2.54
 74
0
 49
-0.508
 74
0
 49
0.0
 74
0
 49
-0.508
 74
0
 49
0.0
 74
0
 49
-0.508
 74
0
  0
LTYPE
  5
3F
330
2
100
AcDbSymbolTableRecord
100
AcDbLinetypeTableRecord
  2
DIVIDEX2
 70
0
  3
Divide (2x) ____  . .  ____  . .  ____  . .  ____
 72
65
 73
6
 40
6.604
 49
5.08
 74
0
 49
-0.508
 74
0
 49
0.0
 74
0
 49
-0.508
 74
0
 49
0.0
 74
0
 49
-0.508
 74
0
  0
LTYPE
  5
40
330
2
100
AcDbSymbolTableRecord
100
AcDbLinetypeTableRecord
  2
DIVIDE2
 70
0
  3
Divide(.5x) _ . _ . _ . _ . _ . _ . _ . _
 72
65
 73
6
 40
2.032
 49
1.27
 74
0
 49
-0.254
 74
0
 49
0.0
 74
0
 49
-0.254
 74
0
 49
0.0
 74
0
 49
-0.254
 74
0
  0
ENDTAB
  0
TABLE
  2
LAYER
  5
1
330
0
100
AcDbSymbolTable
 70
15
  0
LAYER
  5
27
330
1
100
AcDbSymbolTableRecord
100
AcDbLayerTableRecord
  2
0
 70
0
 62
7
  6
Continuous
370
-3
390
13
347
21
  0
LAYER
  5
28
330
1
100
AcDbSymbolTableRecord
100
AcDbLayerTableRecord
  2
Defpoints
 70
0
 62
7
  6
Continuous
290
0
370
-3
390
13
347
21
  0
LAYER
  5
8A
330
1
100
AcDbSymbolTableRecord
100
AcDbLayerTableRecord
  2
00_РАМКА
 70
0
 62
7
  6
CONTINUOUS
370
-3
390
13
347
21
  0
LAYER
  5
8B
330
1
100
AcDbSymbolTableRecord
100
AcDbLayerTableRecord
  2
01_ОБШИВКА
 70
0
 62
7
  6
CONTINUOUS
370
-3
390
13
347
21
  0
LAYER
  5
8C
330
1
100
AcDbSymbolTableRecord
100
AcDbLayerTableRecord
  2
02_ПАЛУБЫ
 70
0
 62
4
  6
CONTINUOUS
370
-3
390
13
347
21
  0
LAYER
  5
8D
330
1
100
AcDbSymbolTableRecord
100
AcDbLayerTableRecord
  2
03_ПЕРЕБОРКИ
 70
0
 62
1
  6
CONTINUOUS
370
-3
390
13
347
21
  0
LAYER
  5
8E
330
1
100
AcDbSymbolTableRecord
100
AcDbLayerTableRecord
  2
04_ЦИСТЕРНЫ
 70
0
 62
3
  6
CONTINUOUS
370
-3
390
13
347
21
  0
LAYER
  5
8F
330
1
100
AcDbSymbolTableRecord
100
AcDbLayerTableRecord
  2
05_ОБОРУДОВАНИЕ
 70
0
 62
5
  6
CONTINUOUS
370
-3
390
13
347
21
  0
LAYER
  5
90
330
1
100
AcDbSymbolTableRecord
100
AcDbLayerTableRecord
  2
06_ПОМЕЩЕНИЯ
 70
0
 62
8
  6
CONTINUOUS
370
-3
390
13
347
21
  0
LAYER
  5
91
330
1
100
AcDbSymbolTableRecord
100
AcDbLayerTableRecord
  2
07_ОСИ
 70
0
 62
2
  6
CENTER
370
-3
390
13
347
21
  0
LAYER
  5
92
330
1
100
AcDbSymbolTableRecord
100
AcDbLayerTableRecord
  2
08_ТЕКСТ
 70
0
 62
7
  6
CONTINUOUS
370
-3
390
13
347
21
  0
LAYER
  5
93
330
1
100
AcDbSymbolTableRecord
100
AcDbLayerTableRecord
  2
09_РАЗМЕРЫ
 70
0
 62
6
  6
CONTINUOUS
370
-3
390
13
347
21
  0
LAYER
  5
94
330
1
100
AcDbSymbolTableRecord
100
AcDbLayerTableRecord
  2
10_НАБОР
 70
0
 62
9
  6
CONTINUOUS
370
-3
390
13
347
21
  0
LAYER
  5
95
330
1
100
AcDbSymbolTableRecord
100
AcDbLayerTableRecord
  2
11_КАЮТЫ
 70
0
 62
30
  6
CONTINUOUS
370
-3
390
13
347
21
  0
LAYER
  5
96
330
1
100
AcDbSymbolTableRecord
100
AcDbLayerTableRecord
  2
12_ТРАПЫ_ЛИФТЫ
 70
0
 62
6
  6
CONTINUOUS
370
-3
390
13
347
21
  0
ENDTAB
  0
TABLE
  2
STYLE
  5
5
330
0
100
AcDbSymbolTable
 70
27
  0
STYLE
  5
29
330
5
100
AcDbSymbolTableRecord
100
AcDbTextStyleTableRecord
  2
Standard
 70
0
 40
0.0
 41
1.0
 50
0.0
 71
0
 42
2.5
  3
txt
  4

  0
STYLE
  5
41
330
5
100
AcDbSymbolTableRecord
100
AcDbTextStyleTableRecord
  2
OpenSans-Light
 70
0
 40
0.0
 41
1.0
 50
0.0
 71
0
 42
2.5
  3
OpenSans-Light.ttf
  4

  0
STYLE
  5
42
330
5
100
AcDbSymbolTableRecord
100
AcDbTextStyleTableRecord
  2
OpenSans-Light-Italic
 70
0
 40
0.0
 41
1.0
 50
0.0
 71
0
 42
2.5
  3
OpenSans-LightItalic.ttf
  4

  0
STYLE
  5
43
330
5
100
AcDbSymbolTableRecord
100
AcDbTextStyleTableRecord
  2
OpenSans
 70
0
 40
0.0
 41
1.0
 50
0.0
 71
0
 42
2.5
  3
OpenSans-Regular.ttf
  4

  0
STYLE
  5
44
330
5
100
AcDbSymbolTableRecord
100
AcDbTextStyleTableRecord
  2
OpenSans-Italic
 70
0
 40
0.0
 41
1.0
 50
0.0
 71
0
 42
2.5
  3
OpenSans-Italic.ttf
  4

  0
STYLE
  5
45
330
5
100
AcDbSymbolTableRecord
100
AcDbTextStyleTableRecord
  2
OpenSans-SemiBold
 70
0
 40
0.0
 41
1.0
 50
0.0
 71
0
 42
2.5
  3
OpenSans-SemiBold.ttf
  4

  0
STYLE
  5
46
330
5
100
AcDbSymbolTableRecord
100
AcDbTextStyleTableRecord
  2
OpenSans-SemiBoldItalic
 70
0
 40
0.0
 41
1.0
 50
0.0
 71
0
 42
2.5
  3
OpenSans-SemiBoldItalic.ttf
  4

  0
STYLE
  5
47
330
5
100
AcDbSymbolTableRecord
100
AcDbTextStyleTableRecord
  2
OpenSans-Bold
 70
0
 40
0.0
 41
1.0
 50
0.0
 71
0
 42
2.5
  3
OpenSans-Bold.ttf
  4

  0
STYLE
  5
48
330
5
100
AcDbSymbolTableRecord
100
AcDbTextStyleTableRecord
  2
OpenSans-BoldItalic
 70
0
 40
0.0
 41
1.0
 50
0.0
 71
0
 42
2.5
  3
OpenSans-BoldItalic.ttf
  4

  0
STYLE
  5
49
330
5
100
AcDbSymbolTableRecord
100
AcDbTextStyleTableRecord
  2
OpenSans-ExtraBold
 70
0
 40
0.0
 41
1.0
 50
0.0
 71
0
 42
2.5
  3
OpenSans-ExtraBold.ttf
  4

  0
STYLE
  5
4A
330
5
100
AcDbSymbolTableRecord
100
AcDbTextStyleTableRecord
  2
OpenSans-ExtraBoldItalic
 70
0
 40
0.0
 41
1.0
 50
0.0
 71
0
 42
2.5
  3
OpenSans-ExtraBoldItalic.ttf
  4

  0
STYLE
  5
4B
330
5
100
AcDbSymbolTableRecord
100
AcDbTextStyleTableRecord
  2
OpenSansCondensed-Bold
 70
0
 40
0.0
 41
1.0
 50
0.0
 71
0
 42
2.5
  3
OpenSansCondensed-Bold.ttf
  4

  0
STYLE
  5
4C
330
5
100
AcDbSymbolTableRecord
100
AcDbTextStyleTableRecord
  2
OpenSansCondensed-Light
 70
0
 40
0.0
 41
1.0
 50
0.0
 71
0
 42
2.5
  3
OpenSansCondensed-Light.ttf
  4

  0
STYLE
  5
4D
330
5
100
AcDbSymbolTableRecord
100
AcDbTextStyleTableRecord
  2
OpenSansCondensed-Italic
 70
0
 40
0.0
 41
1.0
 50
0.0
 71
0
 42
2.5
  3
OpenSansCondensed-LightItalic.ttf
  4

  0
STYLE
  5
4E
330
5
100
AcDbSymbolTableRecord
100
AcDbTextStyleTableRecord
  2
LiberationSans
 70
0
 40
0.0
 41
1.0
 50
0.0
 71
0
 42
2.5
  3
LiberationSans-Regular.ttf
  4

  0
STYLE
  5
4F
330
5
100
AcDbSymbolTableRecord
100
AcDbTextStyleTableRecord
  2
LiberationSans-Bold
 70
0
 40
0.0
 41
1.0
 50
0.0
 71
0
 42
2.5
  3
LiberationSans-Bold.ttf
  4

  0
STYLE
  5
50
330
5
100
AcDbSymbolTableRecord
100
AcDbTextStyleTableRecord
  2
LiberationSans-BoldItalic
 70
0
 40
0.0
 41
1.0
 50
0.0
 71
0
 42
2.5
  3
LiberationSans-BoldItalic.ttf
  4

  0
STYLE
  5
51
330
5
100
AcDbSymbolTableRecord
100
AcDbTextStyleTableRecord
  2
LiberationSans-Italic
 70
0
 40
0.0
 41
1.0
 50
0.0
 71
0
 42
2.5
  3
LiberationSans-Italic.ttf
  4

  0
STYLE
  5
52
330
5
100
AcDbSymbolTableRecord
100
AcDbTextStyleTableRecord
  2
LiberationSerif
 70
0
 40
0.0
 41
1.0
 50
0.0
 71
0
 42
2.5
  3
LiberationSerif-Regular.ttf
  4

  0
STYLE
  5
53
330
5
100
AcDbSymbolTableRecord
100
AcDbTextStyleTableRecord
  2
LiberationSerif-Bold
 70
0
 40
0.0
 41
1.0
 50
0.0
 71
0
 42
2.5
  3
LiberationSerif-Bold.ttf
  4

  0
STYLE
  5
54
330
5
100
AcDbSymbolTableRecord
100
AcDbTextStyleTableRecord
  2
LiberationSerif-BoldItalic
 70
0
 40
0.0
 41
1.0
 50
0.0
 71
0
 42
2.5
  3
LiberationSerif-BoldItalic.ttf
  4

  0
STYLE
  5
55
330
5
100
AcDbSymbolTableRecord
100
AcDbTextStyleTableRecord
  2
LiberationSerif-Italic
 70
0
 40
0.0
 41
1.0
 50
0.0
 71
0
 42
2.5
  3
LiberationSerif-Italic.ttf
  4

  0
STYLE
  5
56
330
5
100
AcDbSymbolTableRecord
100
AcDbTextStyleTableRecord
  2
LiberationMono
 70
0
 40
0.0
 41
1.0
 50
0.0
 71
0
 42
2.5
  3
LiberationMono-Regular.ttf
  4

  0
STYLE
  5
57
330
5
100
AcDbSymbolTableRecord
100
AcDbTextStyleTableRecord
  2
LiberationMono-Bold
 70
0
 40
0.0
 41
1.0
 50
0.0
 71
0
 42
2.5
  3
LiberationMono-Bold.ttf
  4

  0
STYLE
  5
58
330
5
100
AcDbSymbolTableRecord
100
AcDbTextStyleTableRecord
  2
LiberationMono-BoldItalic
 70
0
 40
0.0
 41
1.0
 50
0.0
 71
0
 42
2.5
  3
LiberationMono-BoldItalic.ttf
  4

  0
STYLE
  5
59
330
5
100
AcDbSymbolTableRecord
100
AcDbTextStyleTableRecord
  2
LiberationMono-Italic
 70
0
 40
0.0
 41
1.0
 50
0.0
 71
0
 42
2.5
  3
LiberationMono-Italic.ttf
  4

  0
STYLE
  5
97
330
5
100
AcDbSymbolTableRecord
100
AcDbTextStyleTableRecord
  2
ГОСТ
 70
0
 40
0.0
 41
1.0
 50
0.0
 71
0
 42
2.5
  3
ISOCPEUR.TTF
  4

  0
ENDTAB
  0
TABLE
  2
VIEW
  5
7
330
0
100
AcDbSymbolTable
 70
0
  0
ENDTAB
  0
TABLE
  2
UCS
  5
6
330
0
100
AcDbSymbolTable
 70
0
  0
ENDTAB
  0
TABLE
  2
APPID
  5
3
330
0
100
AcDbSymbolTable
 70
3
  0
APPID
  5
2A
330
3
100
AcDbSymbolTableRecord
100
AcDbRegAppTableRecord
  2
ACAD
 70
0
  0
APPID
  5
200
330
3
100
AcDbSymbolTableRecord
100
AcDbRegAppTableRecord
  2
HATCHBACKGROUNDCOLOR
 70
0
  0
APPID
  5
201
330
3
100
AcDbSymbolTableRecord
100
AcDbRegAppTableRecord
  2
EZDXF
 70
0
  0
ENDTAB
  0
TABLE
  2
DIMSTYLE
  5
4
330
0
100
AcDbSymbolTable
 70
12
100
AcDbDimStyleTable
  0
DIMSTYLE
105
2B
330
4
100
AcDbSymbolTableRecord
100
AcDbDimStyleTableRecord
  2
Standard
 70
0
 40
1.0
 41
2.5
 42
0.625
 43
3.75
 44
1.25
 45
0.0
 46
0.0
 47
0.0
 48
0.0
 49
2.5
140
2.5
141
2.5
142
0.0
143
0.03937007874
144
1.0
145
0.0
146
1.0
147
0.625
148
0.0
 69
0
 70
0
 71
0
 72
0
 73
0
 74
0
 75
0
 76
0
 77
1
 78
8
 79
3
170
0
171
3
172
1
173
0
174
0
175
0
176
0
177
0
178
0
179
2
271
2
272
2
273
2
274
3
275
0
276
0
277
2
278
44
279
0
280
0
281
0
282
0
283
0
284
8
285
0
286
0
288
0
289
3
290
0
371
-2
372
-2
  0
DIMSTYLE
105
73
330
4
100
AcDbSymbolTableRecord
100
AcDbDimStyleTableRecord
  2
EZDXF
 70
0
 40
1.0
 41
0.175
 42
0.125
 43
3.75
 44
0.375
 45
0.0
 46
0.0
 47
0.0
 48
0.0
 49
2.5
140
0.25
141
2.5
142
0.0
143
0.03937007874
144
100.0
145
0.0
146
0.5
147
0.1
148
0.0
 69
0
 70
0
 71
0
 72
0
 73
0
 74
0
 75
0
 76
0
 77
1
 78
12
 79
3
170
0
171
3
172
1
173
0
174
0
175
0
176
0
177
0
178
0
179
2
271
2
272
2
273
2
274
3
275
0
276
0
277
2
278
46
279
2
280
0
281
0
282
0
283
0
284
8
285
0
286
0
288
1
289
3
290
0
340
4C
342
74
371
-2
372
-2
  0
DIMSTYLE
105
7C
330
4
100
AcDbSymbolTableRecord
100
AcDbDimStyleTableRecord
  2
EZ_M_100_H25_CM
 70
0
 40
1.0
 41
0.25
 42
0.125
 43
3.75
 44
0.375
 45
0.0
 46
0.0
 47
0.0
 48
0.0
 49
2.5
140
0.25
141
2.5
142
0.125
143
0.03937007874
144
100.0
145
0.0
146
0.5
147
0.1
148
0.0
 69
0
 70
0
 71
0
 72
0
 73
0
 74
0
 75
0
 76
0
 77
1
 78
12
 79
3
170
0
171
3
172
1
173
0
174
0
175
0
176
0
177
0
178
0
179
2
271
2
272
2
273
2
274
3
275
0
276
0
277
2
278
46
279
2
280
0
281
0
282
0
283
0
284
8
285
0
286
0
288
1
289
3
290
0
340
4C
371
-2
372
-2
  0
DIMSTYLE
105
7D
330
4
100
AcDbSymbolTableRecord
100
AcDbDimStyleTableRecord
  2
EZ_M_50_H25_CM
 70
0
 40
1.0
 41
0.125
 42
0.0625
 43
3.75
 44
0.1875
 45
0.0
 46
0.0
 47
0.0
 48
0.0
 49
2.5
140
0.125
141
2.5
142
0.0625
143
0.03937007874
144
100.0
145
0.0
146
0.5
147
0.05
148
0.0
 69
0
 70
0
 71
0
 72
0
 73
0
 74
0
 75
0
 76
0
 77
1
 78
12
 79
3
170
0
171
3
172
1
173
0
174
0
175
0
176
0
177
0
178
0
179
2
271
2
272
2
273
2
274
3
275
0
276
0
277
2
278
46
279
2
280
0
281
0
282
0
283
0
284
8
285
0
286
0
288
1
289
3
290
0
340
4C
371
-2
372
-2
  0
DIMSTYLE
105
7E
330
4
100
AcDbSymbolTableRecord
100
AcDbDimStyleTableRecord
  2
EZ_M_25_H25_CM
 70
0
 40
1.0
 41
0.0625
 42
0.03125
 43
3.75
 44
0.09375
 45
0.0
 46
0.0
 47
0.0
 48
0.0
 49
2.5
140
0.0625
141
2.5
142
0.03125
143
0.03937007874
144
100.0
145
0.0
146
0.5
147
0.025
148
0.0
 69
0
 70
0
 71
0
 72
0
 73
0
 74
0
 75
0
 76
0
 77
1
 78
12
 79
3
170
0
171
3
172
1
173
0
174
0
175
0
176
0
177
0
178
0
179
2
271
2
272
2
273
2
274
3
275
0
276
0
277
2
278
46
279
2
280
0
281
0
282
0
283
0
284
8
285
0
286
0
288
1
289
3
290
0
340
4C
371
-2
372
-2
  0
DIMSTYLE
105
7F
330
4
100
AcDbSymbolTableRecord
100
AcDbDimStyleTableRecord
  2
EZ_M_20_H25_CM
 70
0
 40
1.0
 41
0.05
 42
0.025
 43
3.75
 44
0.07500000000000001
 45
0.0
 46
0.0
 47
0.0
 48
0.0
 49
2.5
140
0.05
141
2.5
142
0.025
143
0.03937007874
144
100.0
145
0.0
146
0.5
147
0.020000000000000004
148
0.0
 69
0
 70
0
 71
0
 72
0
 73
0
 74
0
 75
0
 76
0
 77
1
 78
12
 79
3
170
0
171
3
172
1
173
0
174
0
175
0
176
0
177
0
178
0
179
2
271
2
272
2
273
2
274
3
275
0
276
0
277
2
278
46
279
2
280
0
281
0
282
0
283
0
284
8
285
0
286
0
288
1
289
3
290
0
340
4C
371
-2
372
-2
  0
DIMSTYLE
105
80
330
4
100
AcDbSymbolTableRecord
100
AcDbDimStyleTableRecord
  2
EZ_M_10_H25_CM
 70
0
 40
1.0
 41
0.025
 42
0.0125
 43
3.75
 44
0.037500000000000006
 45
0.0
 46
0.0
 47
0.0
 48
0.0
 49
2.5
140
0.025
141
2.5
142
0.0125
143
0.03937007874
144
100.0
145
0.0
146
0.5
147
0.010000000000000002
148
0.0
 69
0
 70
0
 71
0
 72
0
 73
0
 74
0
 75
0
 76
0
 77
1
 78
12
 79
3
170
0
171
3
172
1
173
0
174
0
175
0
176
0
177
0
178
0
179
2
271
2
272
2
273
2
274
3
275
0
276
0
277
2
278
46
279
2
280
0
281
0
282
0
283
0
284
8
285
0
286
0
288
1
289
3
290
0
340
4C
371
-2
372
-2
  0
DIMSTYLE
105
81
330
4
100
AcDbSymbolTableRecord
100
AcDbDimStyleTableRecord
  2
EZ_M_5_H25_CM
 70
0
 40
1.0
 41
0.0125
 42
0.00625
 43
3.75
 44
0.018750000000000003
 45
0.0
 46
0.0
 47
0.0
 48
0.0
 49
2.5
140
0.0125
141
2.5
142
0.00625
143
0.03937007874
144
100.0
145
0.0
146
0.5
147
0.005000000000000001
148
0.0
 69
0
 70
0
 71
0
 72
0
 73
0
 74
0
 75
0
 76
0
 77
1
 78
12
 79
3
170
0
171
3
172
1
173
0
174
0
175
0
176
0
177
0
178
0
179
2
271
2
272
2
273
2
274
3
275
0
276
0
277
2
278
46
279
2
280
0
281
0
282
0
283
0
284
8
285
0
286
0
288
1
289
3
290
0
340
4C
371
-2
372
-2
  0
DIMSTYLE
105
82
330
4
100
AcDbSymbolTableRecord
100
AcDbDimStyleTableRecord
  2
EZ_M_1_H25_CM
 70
0
 40
1.0
 41
0.0025
 42
0.00125
 43
3.75
 44
0.00375
 45
0.0
 46
0.0
 47
0.0
 48
0.0
 49
2.5
140
0.0025
141
2.5
142
0.00125
143
0.03937007874
144
100.0
145
0.0
146
0.5
147
0.001
148
0.0
 69
0
 70
0
 71
0
 72
0
 73
0
 74
0
 75
0
 76
0
 77
1
 78
12
 79
3
170
0
171
3
172
1
173
0
174
0
175
0
176
0
177
0
178
0
179
2
271
2
272
2
273
2
274
3
275
0
276
0
277
2
278
46
279
2
280
0
281
0
282
0
283
0
284
8
285
0
286
0
288
1
289
3
290
0
340
4C
371
-2
372
-2
  0
DIMSTYLE
105
83
330
4
100
AcDbSymbolTableRecord
100
AcDbDimStyleTableRecord
  2
EZ_RADIUS
 70
0
 40
1.0
 41
0.25
 42
0.125
 43
3.75
 44
0.375
 45
0.0
 46
0.0
 47
0.0
 48
0.0
 49
2.5
140
0.25
141
0.0
142
0.0
143
0.03937007874
144
100.0
145
0.0
146
0.5
147
0.1
148
0.0
 69
0
 70
0
 71
0
 72
0
 73
0
 74
0
 75
0
 76
0
 77
1
 78
12
 79
3
170
0
171
3
172
0
173
0
174
0
175
0
176
0
177
0
178
0
179
2
271
2
272
2
273
2
274
3
275
0
276
0
277
2
278
46
279
1
280
0
281
0
282
0
283
0
284
8
285
0
286
0
288
1
289
3
290
0
340
4C
342
84
371
-2
372
-2
  0
DIMSTYLE
105
88
330
4
100
AcDbSymbolTableRecord
100
AcDbDimStyleTableRecord
  2
EZ_RADIUS_INSIDE
 70
0
 40
1.0
 41
0.25
 42
0.125
 43
3.75
 44
0.375
 45
0.0
 46
0.0
 47
0.0
 48
0.0
 49
2.5
140
0.25
141
0.0
142
0.0
143
0.03937007874
144
100.0
145
0.0
146
0.5
147
0.1
148
0.0
 69
0
 70
0
 71
0
 72
0
 73
0
 74
0
 75
0
 76
0
 77
0
 78
12
 79
3
170
0
171
3
172
0
173
0
174
1
175
0
176
0
177
0
178
0
179
2
271
2
272
2
273
2
274
3
275
0
276
0
277
2
278
46
279
0
280
0
281
0
282
0
283
0
284
8
285
0
286
0
288
1
289
0
290
0
340
4C
342
84
371
-2
372
-2
  0
DIMSTYLE
105
89
330
4
100
AcDbSymbolTableRecord
100
AcDbDimStyleTableRecord
  2
EZ_CURVED
 70
0
 40
1.0
 41
0.25
 42
0.125
 43
3.75
 44
0.375
 45
0.0
 46
0.0
 47
0.0
 48
0.0
 49
2.5
140
0.25
141
2.5
142
0.0
143
0.03937007874
144
100.0
145
0.0
146
0.5
147
0.1
148
0.0
 69
0
 70
0
 71
0
 72
0
 73
0
 74
0
 75
0
 76
0
 77
1
 78
12
 79
2
 90
2
170
0
171
3
172
1
173
0
174
0
175
0
176
0
177
0
178
0
179
2
271
2
272
2
273
2
274
3
275
0
276
0
277
2
278
46
279
2
280
0
281
0
282
0
283
0
284
8
285
0
286
0
288
1
289
3
290
0
340
4C
371
-2
372
-2
  0
ENDTAB
  0
TABLE
  2
BLOCK_RECORD
  5
9
330
0
100
AcDbSymbolTable
 70
5
  0
BLOCK_RECORD
  5
17
330
9
100
AcDbSymbolTableRecord
100
AcDbBlockTableRecord
  2
*Model_Space
340
1A
 70
0
280
1
281
0
  0
BLOCK_RECORD
  5
1B
330
9
100
AcDbSymbolTableRecord
100
AcDbBlockTableRecord
  2
*Paper_Space
340
1E
 70
0
280
1
281
0
  0
BLOCK_RECORD
  5
74
330
9
100
AcDbSymbolTableRecord
100
AcDbBlockTableRecord
  2
_ARCHTICK
340
0
 70
0
280
1
281
0
  0
BLOCK_RECORD
  5
78
330
9
100
AcDbSymbolTableRecord
100
AcDbBlockTableRecord
  2
_CLOSEDFILLED
340
0
 70
0
280
1
281
0
  0
BLOCK_RECORD
  5
84
330
9
100
AcDbSymbolTableRecord
100
AcDbBlockTableRecord
  2
_CLOSEDBLANK
340
0
 70
0
280
1
281
0
  0
ENDTAB
  0
ENDSEC
  0
SECTION
  2
BLOCKS
  0
BLOCK
  5
18
330
17
100
AcDbEntity
  8
0
100
AcDbBlockBegin
  2
*Model_Space
 70
0
 10
0.0
 20
0.0
 30
0.0
  3
*Model_Space
  1

  0
ENDBLK
  5
19
330
17
100
AcDbEntity
  8
0
100
AcDbBlockEnd
  0
BLOCK
  5
1C
330
1B
100
AcDbEntity
  8
0
100
AcDbBlockBegin
  2
*Paper_Space
 70
0
 10
0.0
 20
0.0
 30
0.0
  3
*Paper_Space
  1

  0
ENDBLK
  5
1D
330
1B
100
AcDbEntity
  8
0
100
AcDbBlockEnd
  0
BLOCK
  5
75
330
74
100
AcDbEntity
  8
0
100
AcDbBlockBegin
  2
_ARCHTICK
 70
0
 10
0.0
 20
0.0
 30
0.0
  3
_ARCHTICK
  1

  0
LWPOLYLINE
  5
77
330
74
100
AcDbEntity
  8
0
  6
BYBLOCK
 62
0
100
AcDbPolyline
 90
2
 70
0
 43
0.15
 10
-0.5
 20
-0.5
 10
0.5
 20
0.5
  0
ENDBLK
  5
76
330
74
100
AcDbEntity
  8
0
100
AcDbBlockEnd
  0
BLOCK
  5
79
330
78
100
AcDbEntity
  8
0
100
AcDbBlockBegin
  2
_CLOSEDFILLED
 70
0
 10
0.0
 20
0.0
 30
0.0
  3
_CLOSEDFILLED
  1

  0
SOLID
  5
7B
330
78
100
AcDbEntity
  8
0
  6
BYBLOCK
 62
0
100
AcDbTrace
 10
-1.0
 20
0.16439898372402537
 30
0.0
 11
0.0
 21
0.0
 31
0.0
 12
-1.0
 22
-0.16439898372402537
 32
0.0
 13
-1.0
 23
-0.16439898372402537
 33
0.0
  0
ENDBLK
  5
7A
330
78
100
AcDbEntity
  8
0
100
AcDbBlockEnd
  0
BLOCK
  5
85
330
84
100
AcDbEntity
  8
0
100
AcDbBlockBegin
  2
_CLOSEDBLANK
 70
0
 10
0.0
 20
0.0
 30
0.0
  3
_CLOSEDBLANK
  1

  0
LWPOLYLINE
  5
87
330
84
100
AcDbEntity
  8
0
  6
BYBLOCK
 62
0
100
AcDbPolyline
 90
3
 70
1
 10
-1.0
 20
0.16439898372402537
 10
0.0
 20
0.0
 10
-1.0
 20
-0.16439898372402537
  0
ENDBLK
  5
86
330
84
100
AcDbEntity
  8
0
100
AcDbBlockEnd
  0
ENDSEC
  0
SECTION
  2
ENTITIES
  0
LWPOLYLINE
  5
98
330
17
100
AcDbEntity
  8
01_ОБШИВКА
100
AcDbPolyline
 90
512
 70
1
 10
0.0
 20
4620.090874383201
 10
500.0
 20
4879.12444298461
 10
1000.0
 20
5111.729506087882
 10
1500.0
 20
5323.638399830138
 10
2000.0
 20
5518.24864544665
 10
2500.0
 20
5697.735165015352
 10
3000.0
 20
5863.558152772867
 10
3500.0
 20
6016.72596673112
 10
4000.0
 20
6158.288177482682
 10
4500.0
 20
6290.115478335499
 10
5000.0
 20
6414.01828303696
 10
5500.0
 20
6531.595993794574
 10
6000.0
 20
6644.286690029634
 10
6500.0
 20
6753.400668461899
 10
7000.0
 20
6860.171059470407
 10
7500.0
 20
6968.090887125344
 10
8000.0
 20
7076.711349982455
 10
8500.0
 20
7182.798189077256
 10
9000.0
 20
7283.146175723065
 10
9500.0
 20
7374.563956197803
 10
10000.0
 20
7453.861566394703
 10
10500.0
 20
7517.981984464751
 10
11000.0
 20
7572.518468718532
 10
11500.0
 20
7622.280734798092
 10
12000.0
 20
7667.891122277169
 10
12500.0
 20
7709.875601989207
 10
13000.0
 20
7748.673954420292
 10
13500.0
 20
7784.643405981046
 10
14000.0
 20
7818.08973828771
 10
14500.0
 20
7850.2332003689635
 10
15000.0
 20
7881.388598948992
 10
15500.0
 20
7911.291336258425
 10
16000.0
 20
7939.703620373867
 10
16500.0
 20
7966.4164774422325
 10
17000.0
 20
7991.251484029482
 10
17500.0
 20
8014.062167561072
 10
18000.0
 20
8034.734986759265
 10
18500.0
 20
8053.189762508522
 10
19000.0
 20
8069.379383738099
 10
19500.0
 20
8083.28856537323
 10
20000.0
 20
8094.931391260335
 10
20500.0
 20
8104.347342488019
 10
21000.0
 20
8111.671150988654
 10
21500.0
 20
8118.151470214846
 10
22000.0
 20
8124.28265572618
 10
22500.0
 20
8130.328178469011
 10
23000.0
 20
8136.299106285605
 10
23500.0
 20
8142.174323936349
 10
24000.0
 20
8147.932725157427
 10
24500.0
 20
8153.553210343545
 10
25000.0
 20
8159.014684324027
 10
25500.0
 20
8164.2960542700675
 10
26000.0
 20
8169.376227766321
 10
26500.0
 20
8174.234111074792
 10
27000.0
 20
8178.8486076130575
 10
27500.0
 20
8183.198616662223
 10
28000.0
 20
8187.284709087564
 10
28500.0
 20
8191.286763844549
 10
29000.0
 20
8195.233823540073
 10
29500.0
 20
8199.106249340433
 10
30000.0
 20
8202.884404821192
 10
30500.0
 20
8206.548655070335
 10
31000.0
 20
8210.079365847985
 10
31500.0
 20
8213.456902823571
 10
32000.0
 20
8216.661630908124
 10
32500.0
 20
8219.673913695513
 10
33000.0
 20
8222.474113022101
 10
33500.0
 20
8225.042588649387
 10
34000.0
 20
8227.359698068638
 10
34500.0
 20
8229.40579642055
 10
35000.0
 20
8231.194681167493
 10
35500.0
 20
8232.911162979983
 10
36000.0
 20
8234.578727234584
 10
36500.0
 20
8236.187836001576
 10
37000.0
 20
8237.728951316882
 10
37500.0
 20
8239.192535119288
 10
38000.0
 20
8240.569049199179
 10
38500.0
 20
8241.84895516003
 10
39000.0
 20
8243.022714393228
 10
39500.0
 20
8244.080788066334
 10
40000.0
 20
8245.01363712424
 10
40500.0
 20
8245.81172230182
 10
41000.0
 20
8246.465504146081
 10
41500.0
 20
8246.96544304488
 10
42000.0
 20
8247.330145789521
 10
42500.0
 20
8247.66905297263
 10
43000.0
 20
8247.9925869349
 10
43500.0
 20
8248.29886462712
 10
44000.0
 20
8248.586002998165
 10
44500.0
 20
8248.852118994762
 10
45000.0
 20
8249.095329561389
 10
45500.0
 20
8249.313751640277
 10
46000.0
 20
8249.505502171554
 10
46500.0
 20
8249.668698093472
 10
47000.0
 20
8249.801456342713
 10
47500.0
 20
8249.90189385475
 10
48000.0
 20
8249.968127564236
 10
48500.0
 20
8249.998274405358
 10
49000.0
 20
8250.0
 10
49500.0
 20
8250.0
 10
50000.0
 20
8250.0
 10
50500.0
 20
8250.0
 10
51000.0
 20
8250.0
 10
51500.0
 20
8250.0
 10
52000.0
 20
8250.0
 10
52500.0
 20
8250.0
 10
53000.0
 20
8250.0
 10
53500.0
 20
8250.0
 10
54000.0
 20
8250.0
 10
54500.0
 20
8250.0
 10
55000.0
 20
8250.0
 10
55500.0
 20
8250.0
 10
56000.0
 20
8250.0
 10
56500.0
 20
8250.0
 10
57000.0
 20
8250.0
 10
57500.0
 20
8250.0
 10
58000.0
 20
8250.0
 10
58500.0
 20
8250.0
 10
59000.0
 20
8250.0
 10
59500.0
 20
8250.0
 10
60000.0
 20
8250.0
 10
60500.0
 20
8250.0
 10
61000.0
 20
8250.0
 10
61500.0
 20
8250.0
 10
62000.0
 20
8250.0
 10
62500.0
 20
8250.0
 10
63000.0
 20
8250.0
 10
63500.0
 20
8250.0
 10
64000.0
 20
8250.0
 10
64500.0
 20
8250.0
 10
65000.0
 20
8250.0
 10
65500.0
 20
8250.0
 10
66000.0
 20
8250.0
 10
66500.0
 20
8250.0
 10
67000.0
 20
8250.0
 10
67500.0
 20
8250.0
 10
68000.0
 20
8250.0
 10
68500.0
 20
8250.0
 10
69000.0
 20
8250.0
 10
69500.0
 20
8250.0
 10
70000.0
 20
8250.0
 10
70500.0
 20
8250.0
 10
71000.0
 20
8250.0
 10
71500.0
 20
8250.0
 10
72000.0
 20
8250.0
 10
72500.0
 20
8250.0
 10
73000.0
 20
8250.0
 10
73500.0
 20
8250.0
 10
74000.0
 20
8250.0
 10
74500.0
 20
8250.0
 10
75000.0
 20
8250.0
 10
75500.0
 20
8250.0
 10
76000.0
 20
8250.0
 10
76500.0
 20
8249.999608440645
 10
77000.0
 20
8249.953440782005
 10
77500.0
 20
8249.833295607472
 10
78000.0
 20
8249.64323637394
 10
78500.0
 20
8249.387326534958
 10
79000.0
 20
8249.069629537933
 10
79500.0
 20
8248.694208821104
 10
80000.0
 20
8248.265127810668
 10
80500.0
 20
8247.7864499184
 10
81000.0
 20
8247.262238539968
 10
81500.0
 20
8246.696557054127
 10
82000.0
 20
8246.093468822899
 10
82500.0
 20
8245.457037192808
 10
83000.0
 20
8244.791325497152
 10
83500.0
 20
8244.094924709354
 10
84000.0
 20
8243.194421255464
 10
84500.0
 20
8242.017899133574
 10
85000.0
 20
8240.582381724616
 10
85500.0
 20
8238.904891471553
 10
86000.0
 20
8237.002449717114
 10
86500.0
 20
8234.892076578764
 10
87000.0
 20
8232.59079087768
 10
87500.0
 20
8230.115610133873
 10
88000.0
 20
8227.48355063496
 10
88500.0
 20
8224.711627582079
 10
89000.0
 20
8221.816855312753
 10
89500.0
 20
8218.816247596995
 10
90000.0
 20
8215.726818000145
 10
90500.0
 20
8212.546799616668
 10
91000.0
 20
8208.999672861702
 10
91500.0
 20
8205.00927226557
 10
92000.0
 20
8200.602478355817
 10
92500.0
 20
8195.806159258604
 10
93000.0
 20
8190.647170608642
 10
93500.0
 20
8185.152355890161
 10
94000.0
 20
8179.34854725052
 10
94500.0
 20
8173.262566808731
 10
95000.0
 20
8166.777653442111
 10
95500.0
 20
8159.712721806043
 10
96000.0
 20
8152.077671727081
 10
96500.0
 20
8143.889696427433
 10
97000.0
 20
8135.171891169639
 10
97500.0
 20
8125.863159924901
 10
98000.0
 20
8115.168812617966
 10
98500.0
 20
8102.929575725643
 10
99000.0
 20
8089.191848852458
 10
99500.0
 20
8074.005684494258
 10
100000.0
 20
8057.424984617312
 10
100500.0
 20
8039.5076388806465
 10
101000.0
 20
8020.315615188888
 10
101500.0
 20
7999.915011849314
 10
102000.0
 20
7978.376079169999
 10
102500.0
 20
7955.773216943505
 10
103000.0
 20
7932.184952957297
 10
103500.0
 20
7907.693906484513
 10
104000.0
 20
7882.3867396499445
 10
104500.0
 20
7856.243490919443
 10
105000.0
 20
7828.65615689283
 10
105500.0
 20
7799.505316476843
 10
106000.0
 20
7768.767112450916
 10
106500.0
 20
7736.4066446153665
 10
107000.0
 20
7702.377833161505
 10
107500.0
 20
7666.623171024162
 10
108000.0
 20
7629.073378877466
 10
108500.0
 20
7589.646975192853
 10
109000.0
 20
7548.249773108372
 10
109500.0
 20
7504.7743156432625
 10
110000.0
 20
7459.0992609261475
 10
110500.0
 20
7411.088729487249
 10
111000.0
 20
7360.591626190601
 10
111500.0
 20
7306.236375516616
 10
112000.0
 20
7243.212132668066
 10
112500.0
 20
7171.540361731104
 10
113000.0
 20
7091.810253184632
 10
113500.0
 20
7004.6242915054645
 10
114000.0
 20
6910.599068351952
 10
114500.0
 20
6810.36607327356
 10
115000.0
 20
6704.572484513664
 10
115500.0
 20
6593.881980063912
 10
116000.0
 20
6478.975587171655
 10
116500.0
 20
6360.552586816773
 10
117000.0
 20
6239.331488064744
 10
117500.0
 20
6116.051085442115
 10
118000.0
 20
5991.471610297266
 10
118500.0
 20
5864.604056198483
 10
119000.0
 20
5730.733411082737
 10
119500.0
 20
5589.557573662508
 10
120000.0
 20
5441.081382787032
 10
120500.0
 20
5285.2966810173375
 10
121000.0
 20
5122.174003608478
 10
121500.0
 20
4951.651640827107
 10
122000.0
 20
4773.621057131
 10
122500.0
 20
4587.907060894936
 10
123000.0
 20
4394.24011994703
 10
123500.0
 20
4192.216456700095
 10
124000.0
 20
3981.2382942533272
 10
124500.0
 20
3760.4202229725056
 10
125000.0
 20
3528.4341804550504
 10
125500.0
 20
3279.1572335368705
 10
126000.0
 20
3000.264191231252
 10
126500.0
 20
2683.035852407047
 10
127000.0
 20
2307.1784785320856
 10
127500.0
 20
1799.003508637928
 10
127500.0
 20
-1799.003508637928
 10
127000.0
 20
-2307.1784785320856
 10
126500.0
 20
-2683.035852407047
 10
126000.0
 20
-3000.264191231252
 10
125500.0
 20
-3279.1572335368705
 10
125000.0
 20
-3528.4341804550504
 10
124500.0
 20
-3760.4202229725056
 10
124000.0
 20
-3981.2382942533272
 10
123500.0
 20
-4192.216456700095
 10
123000.0
 20
-4394.24011994703
 10
122500.0
 20
-4587.907060894936
 10
122000.0
 20
-4773.621057131
 10
121500.0
 20
-4951.651640827107
 10
121000.0
 20
-5122.174003608478
 10
120500.0
 20
-5285.2966810173375
 10
120000.0
 20
-5441.081382787032
 10
119500.0
 20
-5589.557573662508
 10
119000.0
 20
-5730.733411082737
 10
118500.0
 20
-5864.604056198483
 10
118000.0
 20
-5991.471610297266
 10
117500.0
 20
-6116.051085442115
 10
117000.0
 20
-6239.331488064744
 10
116500.0
 20
-6360.552586816773
 10
116000.0
 20
-6478.975587171655
 10
115500.0
 20
-6593.881980063912
 10
115000.0
 20
-6704.572484513664
 10
114500.0
 20
-6810.36607327356
 10
114000.0
 20
-6910.599068351952
 10
113500.0
 20
-7004.6242915054645
 10
113000.0
 20
-7091.810253184632
 10
112500.0
 20
-7171.540361731104
 10
112000.0
 20
-7243.212132668066
 10
111500.0
 20
-7306.236375516616
 10
111000.0
 20
-7360.591626190601
 10
110500.0
 20
-7411.088729487249
 10
110000.0
 20
-7459.0992609261475
 10
109500.0
 20
-7504.7743156432625
 10
109000.0
 20
-7548.249773108372
 10
108500.0
 20
-7589.646975192853
 10
108000.0
 20
-7629.073378877466
 10
107500.0
 20
-7666.623171024162
 10
107000.0
 20
-7702.377833161505
 10
106500.0
 20
-7736.4066446153665
 10
106000.0
 20
-7768.767112450916
 10
105500.0
 20
-7799.505316476843
 10
105000.0
 20
-7828.65615689283
 10
104500.0
 20
-7856.243490919443
 10
104000.0
 20
-7882.3867396499445
 10
103500.0
 20
-7907.693906484513
 10
103000.0
 20
-7932.184952957297
 10
102500.0
 20
-7955.773216943505
 10
102000.0
 20
-7978.376079169999
 10
101500.0
 20
-7999.915011849314
 10
101000.0
 20
-8020.315615188888
 10
100500.0
 20
-8039.5076388806465
 10
100000.0
 20
-8057.424984617312
 10
99500.0
 20
-8074.005684494258
 10
99000.0
 20
-8089.191848852458
 10
98500.0
 20
-8102.929575725643
 10
98000.0
 20
-8115.168812617966
 10
97500.0
 20
-8125.863159924901
 10
97000.0
 20
-8135.171891169639
 10
96500.0
 20
-8143.889696427433
 10
96000.0
 20
-8152.077671727081
 10
95500.0
 20
-8159.712721806043
 10
95000.0
 20
-8166.777653442111
 10
94500.0
 20
-8173.262566808731
 10
94000.0
 20
-8179.34854725052
 10
93500.0
 20
-8185.152355890161
 10
93000.0
 20
-8190.647170608642
 10
92500.0
 20
-8195.806159258604
 10
92000.0
 20
-8200.602478355817
 10
91500.0
 20
-8205.00927226557
 10
91000.0
 20
-8208.999672861702
 10
90500.0
 20
-8212.546799616668
 10
90000.0
 20
-8215.726818000145
 10
89500.0
 20
-8218.816247596995
 10
89000.0
 20
-8221.816855312753
 10
88500.0
 20
-8224.711627582079
 10
88000.0
 20
-8227.48355063496
 10
87500.0
 20
-8230.115610133873
 10
87000.0
 20
-8232.59079087768
 10
86500.0
 20
-8234.892076578764
 10
86000.0
 20
-8237.002449717114
 10
85500.0
 20
-8238.904891471553
 10
85000.0
 20
-8240.582381724616
 10
84500.0
 20
-8242.017899133574
 10
84000.0
 20
-8243.194421255464
 10
83500.0
 20
-8244.094924709354
 10
83000.0
 20
-8244.791325497152
 10
82500.0
 20
-8245.457037192808
 10
82000.0
 20
-8246.093468822899
 10
81500.0
 20
-8246.696557054127
 10
81000.0
 20
-8247.262238539968
 10
80500.0
 20
-8247.7864499184
 10
80000.0
 20
-8248.265127810668
 10
79500.0
 20
-8248.694208821104
 10
79000.0
 20
-8249.069629537933
 10
78500.0
 20
-8249.387326534958
 10
78000.0
 20
-8249.64323637394
 10
77500.0
 20
-8249.833295607472
 10
77000.0
 20
-8249.953440782005
 10
76500.0
 20
-8249.999608440645
 10
76000.0
 20
-8250.0
 10
75500.0
 20
-8250.0
 10
75000.0
 20
-8250.0
 10
74500.0
 20
-8250.0
 10
74000.0
 20
-8250.0
 10
73500.0
 20
-8250.0
 10
73000.0
 20
-8250.0
 10
72500.0
 20
-8250.0
 10
72000.0
 20
-8250.0
 10
71500.0
 20
-8250.0
 10
71000.0
 20
-8250.0
 10
70500.0
 20
-8250.0
 10
70000.0
 20
-8250.0
 10
69500.0
 20
-8250.0
 10
69000.0
 20
-8250.0
 10
68500.0
 20
-8250.0
 10
68000.0
 20
-8250.0
 10
67500.0
 20
-8250.0
 10
67000.0
 20
-8250.0
 10
66500.0
 20
-8250.0
 10
66000.0
 20
-8250.0
 10
65500.0
 20
-8250.0
 10
65000.0
 20
-8250.0
 10
64500.0
 20
-8250.0
 10
64000.0
 20
-8250.0
 10
63500.0
 20
-8250.0
 10
63000.0
 20
-8250.0
 10
62500.0
 20
-8250.0
 10
62000.0
 20
-8250.0
 10
61500.0
 20
-8250.0
 10
61000.0
 20
-8250.0
 10
60500.0
 20
-8250.0
 10
60000.0
 20
-8250.0
 10
59500.0
 20
-8250.0
 10
59000.0
 20
-8250.0
 10
58500.0
 20
-8250.0
 10
58000.0
 20
-8250.0
 10
57500.0
 20
-8250.0
 10
57000.0
 20
-8250.0
 10
56500.0
 20
-8250.0
 10
56000.0
 20
-8250.0
 10
55500.0
 20
-8250.0
 10
55000.0
 20
-8250.0
 10
54500.0
 20
-8250.0
 10
54000.0
 20
-8250.0
 10
53500.0
 20
-8250.0
 10
53000.0
 20
-8250.0
 10
52500.0
 20
-8250.0
 10
52000.0
 20
-8250.0
 10
51500.0
 20
-8250.0
 10
51000.0
 20
-8250.0
 10
50500.0
 20
-8250.0
 10
50000.0
 20
-8250.0
 10
49500.0
 20
-8250.0
 10
49000.0
 20
-8250.0
 10
48500.0
 20
-8249.998274405358
 10
48000.0
 20
-8249.968127564236
 10
47500.0
 20
-8249.90189385475
 10
47000.0
 20
-8249.801456342713
 10
46500.0
 20
-8249.668698093472
 10
46000.0
 20
-8249.505502171554
 10
45500.0
 20
-8249.313751640277
 10
45000.0
 20
-8249.095329561389
 10
44500.0
 20
-8248.852118994762
 10
44000.0
 20
-8248.586002998165
 10
43500.0
 20
-8248.29886462712
 10
43000.0
 20
-8247.9925869349
 10
42500.0
 20
-8247.66905297263
 10
42000.0
 20
-8247.330145789521
 10
41500.0
 20
-8246.96544304488
 10
41000.0
 20
-8246.465504146081
 10
40500.0
 20
-8245.81172230182
 10
40000.0
 20
-8245.01363712424
 10
39500.0
 20
-8244.080788066334
 10
39000.0
 20
-8243.022714393228
 10
38500.0
 20
-8241.84895516003
 10
38000.0
 20
-8240.569049199179
 10
37500.0
 20
-8239.192535119288
 10
37000.0
 20
-8237.728951316882
 10
36500.0
 20
-8236.187836001576
 10
36000.0
 20
-8234.578727234584
 10
35500.0
 20
-8232.911162979983
 10
35000.0
 20
-8231.194681167493
 10
34500.0
 20
-8229.40579642055
 10
34000.0
 20
-8227.359698068638
 10
33500.0
 20
-8225.042588649387
 10
33000.0
 20
-8222.474113022101
 10
32500.0
 20
-8219.673913695513
 10
32000.0
 20
-8216.661630908124
 10
31500.0
 20
-8213.456902823571
 10
31000.0
 20
-8210.079365847985
 10
30500.0
 20
-8206.548655070335
 10
30000.0
 20
-8202.884404821192
 10
29500.0
 20
-8199.106249340433
 10
29000.0
 20
-8195.233823540073
 10
28500.0
 20
-8191.286763844549
 10
28000.0
 20
-8187.284709087564
 10
27500.0
 20
-8183.198616662223
 10
27000.0
 20
-8178.8486076130575
 10
26500.0
 20
-8174.234111074792
 10
26000.0
 20
-8169.376227766321
 10
25500.0
 20
-8164.2960542700675
 10
25000.0
 20
-8159.014684324027
 10
24500.0
 20
-8153.553210343545
 10
24000.0
 20
-8147.932725157427
 10
23500.0
 20
-8142.174323936349
 10
23000.0
 20
-8136.299106285605
 10
22500.0
 20
-8130.328178469011
 10
22000.0
 20
-8124.28265572618
 10
21500.0
 20
-8118.151470214846
 10
21000.0
 20
-8111.671150988654
 10
20500.0
 20
-8104.347342488019
 10
20000.0
 20
-8094.931391260335
 10
19500.0
 20
-8083.28856537323
 10
19000.0
 20
-8069.379383738099
 10
18500.0
 20
-8053.189762508522
 10
18000.0
 20
-8034.734986759265
 10
17500.0
 20
-8014.062167561072
 10
17000.0
 20
-7991.251484029482
 10
16500.0
 20
-7966.4164774422325
 10
16000.0
 20
-7939.703620373867
 10
15500.0
 20
-7911.291336258425
 10
15000.0
 20
-7881.388598948992
 10
14500.0
 20
-7850.2332003689635
 10
14000.0
 20
-7818.08973828771
 10
13500.0
 20
-7784.643405981046
 10
13000.0
 20
-7748.673954420292
 10
12500.0
 20
-7709.875601989207
 10
12000.0
 20
-7667.891122277169
 10
11500.0
 20
-7622.280734798092
 10
11000.0
 20
-7572.518468718532
 10
10500.0
 20
-7517.981984464751
 10
10000.0
 20
-7453.861566394703
 10
9500.0
 20
-7374.563956197803
 10
9000.0
 20
-7283.146175723065
 10
8500.0
 20
-7182.798189077256
 10
8000.0
 20
-7076.711349982455
 10
7500.0
 20
-6968.090887125344
 10
7000.0
 20
-6860.171059470407
 10
6500.0
 20
-6753.400668461899
 10
6000.0
 20
-6644.286690029634
 10
5500.0
 20
-6531.595993794574
 10
5000.0
 20
-6414.01828303696
 10
4500.0
 20
-6290.115478335499
 10
4000.0
 20
-6158.288177482682
 10
3500.0
 20
-6016.72596673112
 10
3000.0
 20
-5863.558152772867
 10
2500.0
 20
-5697.735165015352
 10
2000.0
 20
-5518.24864544665
 10
1500.0
 20
-5323.638399830138
 10
1000.0
 20
-5111.729506087882
 10
500.0
 20
-4879.12444298461
 10
0.0
 20
-4620.090874383201
  0
LINE
  5
99
330
17
100
AcDbEntity
  8
07_ОСИ
100
AcDbLine
 10
-2000.0
 20
0.0
 30
0.0
 11
141000.0
 21
0.0
 31
0.0
  0
LWPOLYLINE
  5
9A
330
17
100
AcDbEntity
  8
11_КАЮТЫ
100
AcDbPolyline
 90
4
 70
1
 10
62000.0
 20
-7950.0
 10
66300.0
 20
-7950.0
 10
66300.0
 20
-4950.0
 10
62000.0
 20
-4950.0
  0
TEXT
  5
9B
330
17
100
AcDbEntity
  8
11_КАЮТЫ
100
AcDbText
 10
64150.00000000001
 20
-6450.0
 30
0.0
 40
520.0
  1
С
  7
ГОСТ
 72
1
 11
64150.00000000001
 21
-6450.0
 31
0.0
100
AcDbText
 73
2
  0
LWPOLYLINE
  5
9C
330
17
100
AcDbEntity
  8
11_КАЮТЫ
100
AcDbPolyline
 90
4
 70
1
 10
66300.0
 20
-7950.0
 10
70600.0
 20
-7950.0
 10
70600.0
 20
-4950.0
 10
66300.0
 20
-4950.0
  0
TEXT
  5
9D
330
17
100
AcDbEntity
  8
11_КАЮТЫ
100
AcDbText
 10
68449.99999999999
 20
-6450.0
 30
0.0
 40
520.0
  1
С
  7
ГОСТ
 72
1
 11
68449.99999999999
 21
-6450.0
 31
0.0
100
AcDbText
 73
2
  0
LWPOLYLINE
  5
9E
330
17
100
AcDbEntity
  8
11_КАЮТЫ
100
AcDbPolyline
 90
4
 70
1
 10
70600.0
 20
-7950.0
 10
74900.0
 20
-7950.0
 10
74900.0
 20
-4950.0
 10
70600.0
 20
-4950.0
  0
TEXT
  5
9F
330
17
100
AcDbEntity
  8
11_КАЮТЫ
100
AcDbText
 10
72750.0
 20
-6450.0
 30
0.0
 40
520.0
  1
С
  7
ГОСТ
 72
1
 11
72750.0
 21
-6450.0
 31
0.0
100
AcDbText
 73
2
  0
LWPOLYLINE
  5
A0
330
17
100
AcDbEntity
  8
11_КАЮТЫ
100
AcDbPolyline
 90
4
 70
1
 10
74900.0
 20
-7950.0
 10
79200.0
 20
-7950.0
 10
79200.0
 20
-4950.0
 10
74900.0
 20
-4950.0
  0
TEXT
  5
A1
330
17
100
AcDbEntity
  8
11_КАЮТЫ
100
AcDbText
 10
77050.00000000001
 20
-6450.0
 30
0.0
 40
520.0
  1
С
  7
ГОСТ
 72
1
 11
77050.00000000001
 21
-6450.0
 31
0.0
100
AcDbText
 73
2
  0
LWPOLYLINE
  5
A2
330
17
100
AcDbEntity
  8
11_КАЮТЫ
100
AcDbPolyline
 90
4
 70
1
 10
79200.0
 20
-7950.0
 10
83500.0
 20
-7950.0
 10
83500.0
 20
-4950.0
 10
79200.0
 20
-4950.0
  0
TEXT
  5
A3
330
17
100
AcDbEntity
  8
11_КАЮТЫ
100
AcDbText
 10
81350.0
 20
-6450.0
 30
0.0
 40
520.0
  1
С
  7
ГОСТ
 72
1
 11
81350.0
 21
-6450.0
 31
0.0
100
AcDbText
 73
2
  0
LWPOLYLINE
  5
A4
330
17
100
AcDbEntity
  8
11_КАЮТЫ
100
AcDbPolyline
 90
4
 70
1
 10
83500.0
 20
-7950.0
 10
87800.0
 20
-7950.0
 10
87800.0
 20
-4950.0
 10
83500.0
 20
-4950.0
  0
TEXT
  5
A5
330
17
100
AcDbEntity
  8
11_КАЮТЫ
100
AcDbText
 10
85650.0
 20
-6450.0
 30
0.0
 40
520.0
  1
С
  7
ГОСТ
 72
1
 11
85650.0
 21
-6450.0
 31
0.0
100
AcDbText
 73
2
  0
LWPOLYLINE
  5
A6
330
17
100
AcDbEntity
  8
11_КАЮТЫ
100
AcDbPolyline
 90
4
 70
1
 10
98100.0
 20
-7829.0
 10
102400.0
 20
-7829.0
 10
102400.0
 20
-4829.0
 10
98100.0
 20
-4829.0
  0
TEXT
  5
A7
330
17
100
AcDbEntity
  8
11_КАЮТЫ
100
AcDbText
 10
100250.0
 20
-6329.0
 30
0.0
 40
520.0
  1
С
  7
ГОСТ
 72
1
 11
100250.0
 21
-6329.0
 31
0.0
100
AcDbText
 73
2
  0
LWPOLYLINE
  5
A8
330
17
100
AcDbEntity
  8
11_КАЮТЫ
100
AcDbPolyline
 90
4
 70
1
 10
102400.0
 20
-7622.0
 10
106700.0
 20
-7622.0
 10
106700.0
 20
-4622.0
 10
102400.0
 20
-4622.0
  0
TEXT
  5
A9
330
17
100
AcDbEntity
  8
11_КАЮТЫ
100
AcDbText
 10
104550.00000000001
 20
-6122.0
 30
0.0
 40
520.0
  1
С
  7
ГОСТ
 72
1
 11
104550.00000000001
 21
-6122.0
 31
0.0
100
AcDbText
 73
2
  0
LWPOLYLINE
  5
AA
330
17
100
AcDbEntity
  8
11_КАЮТЫ
100
AcDbPolyline
 90
4
 70
1
 10
110500.0
 20
-7148.0
 10
113400.0
 20
-7148.0
 10
113400.0
 20
-4148.0
 10
110500.0
 20
-4148.0
  0
TEXT
  5
AB
330
17
100
AcDbEntity
  8
11_КАЮТЫ
100
AcDbText
 10
111950.0
 20
-5648.0
 30
0.0
 40
520.0
  1
Эк2
  7
ГОСТ
 72
1
 11
111950.0
 21
-5648.0
 31
0.0
100
AcDbText
 73
2
  0
LWPOLYLINE
  5
AC
330
17
100
AcDbEntity
  8
11_КАЮТЫ
100
AcDbPolyline
 90
4
 70
1
 10
113400.0
 20
-6714.0
 10
116300.0
 20
-6714.0
 10
116300.0
 20
-3714.0
 10
113400.0
 20
-3714.0
  0
TEXT
  5
AD
330
17
100
AcDbEntity
  8
11_КАЮТЫ
100
AcDbText
 10
114850.0
 20
-5214.0
 30
0.0
 40
520.0
  1
Эк2
  7
ГОСТ
 72
1
 11
114850.0
 21
-5214.0
 31
0.0
100
AcDbText
 73
2
  0
LWPOLYLINE
  5
AE
330
17
100
AcDbEntity
  8
11_КАЮТЫ
100
AcDbPolyline
 90
4
 70
1
 10
116300.0
 20
-6265.0
 10
119200.0
 20
-6265.0
 10
119200.0
 20
-3265.0
 10
116300.0
 20
-3265.0
  0
TEXT
  5
AF
330
17
100
AcDbEntity
  8
11_КАЮТЫ
100
AcDbText
 10
117750.0
 20
-4765.0
 30
0.0
 40
520.0
  1
Эк2
  7
ГОСТ
 72
1
 11
117750.0
 21
-4765.0
 31
0.0
100
AcDbText
 73
2
  0
LWPOLYLINE
  5
B0
330
17
100
AcDbEntity
  8
11_КАЮТЫ
100
AcDbPolyline
 90
4
 70
1
 10
119200.0
 20
-5534.0
 10
122100.0
 20
-5534.0
 10
122100.0
 20
-2534.0
 10
119200.0
 20
-2534.0
  0
TEXT
  5
B1
330
17
100
AcDbEntity
  8
11_КАЮТЫ
100
AcDbText
 10
120650.0
 20
-4034.0
 30
0.0
 40
520.0
  1
Эк2
  7
ГОСТ
 72
1
 11
120650.0
 21
-4034.0
 31
0.0
100
AcDbText
 73
2
  0
LWPOLYLINE
  5
B2
330
17
100
AcDbEntity
  8
11_КАЮТЫ
100
AcDbPolyline
 90
4
 70
1
 10
87800.0
 20
-7938.0
 10
90800.0
 20
-7938.0
 10
90800.0
 20
-4938.0
 10
87800.0
 20
-4938.0
  0
TEXT
  5
B3
330
17
100
AcDbEntity
  8
11_КАЮТЫ
100
AcDbText
 10
89300.0
 20
-6438.0
 30
0.0
 40
520.0
  1
Э
  7
ГОСТ
 72
1
 11
89300.0
 21
-6438.0
 31
0.0
100
AcDbText
 73
2
  0
LWPOLYLINE
  5
B4
330
17
100
AcDbEntity
  8
11_КАЮТЫ
100
AcDbPolyline
 90
4
 70
1
 10
106700.0
 20
-7471.0
 10
109700.0
 20
-7471.0
 10
109700.0
 20
-4471.0
 10
106700.0
 20
-4471.0
  0
TEXT
  5
B5
330
17
100
AcDbEntity
  8
11_КАЮТЫ
100
AcDbText
 10
108200.0
 20
-5971.0
 30
0.0
 40
520.0
  1
Э
  7
ГОСТ
 72
1
 11
108200.0
 21
-5971.0
 31
0.0
100
AcDbText
 73
2
  0
LWPOLYLINE
  5
B6
330
17
100
AcDbEntity
  8
11_КАЮТЫ
100
AcDbPolyline
 90
4
 70
1
 10
60000.0
 20
-3470.0
 10
62770.0
 20
-3470.0
 10
62770.0
 20
-220.0
 10
60000.0
 20
-220.0
  0
TEXT
  5
B7
330
17
100
AcDbEntity
  8
11_КАЮТЫ
100
AcDbText
 10
61385.00000000001
 20
-1845.0000000000002
 30
0.0
 40
520.0
  1
Э
  7
ГОСТ
 72
1
 11
61385.00000000001
 21
-1845.0000000000002
 31
0.0
100
AcDbText
 73
2
  0
LWPOLYLINE
  5
B8
330
17
100
AcDbEntity
  8
11_КАЮТЫ
100
AcDbPolyline
 90
4
 70
1
 10
62770.0
 20
-3470.0
 10
65540.0
 20
-3470.0
 10
65540.0
 20
-220.0
 10
62770.0
 20
-220.0
  0
TEXT
  5
B9
330
17
100
AcDbEntity
  8
11_КАЮТЫ
100
AcDbText
 10
64155.0
 20
-1845.0000000000002
 30
0.0
 40
520.0
  1
Э
  7
ГОСТ
 72
1
 11
64155.0
 21
-1845.0000000000002
 31
0.0
100
AcDbText
 73
2
  0
LWPOLYLINE
  5
BA
330
17
100
AcDbEntity
  8
11_КАЮТЫ
100
AcDbPolyline
 90
4
 70
1
 10
65540.0
 20
-3470.0
 10
68310.0
 20
-3470.0
 10
68310.0
 20
-220.0
 10
65540.0
 20
-220.0
  0
TEXT
  5
BB
330
17
100
AcDbEntity
  8
11_КАЮТЫ
100
AcDbText
 10
66925.00000000001
 20
-1845.0000000000002
 30
0.0
 40
520.0
  1
Э
  7
ГОСТ
 72
1
 11
66925.00000000001
 21
-1845.0000000000002
 31
0.0
100
AcDbText
 73
2
  0
LWPOLYLINE
  5
BC
330
17
100
AcDbEntity
  8
11_КАЮТЫ
100
AcDbPolyline
 90
4
 70
1
 10
68310.0
 20
-3470.0
 10
71080.0
 20
-3470.0
 10
71080.0
 20
-220.0
 10
68310.0
 20
-220.0
  0
TEXT
  5
BD
330
17
100
AcDbEntity
  8
11_КАЮТЫ
100
AcDbText
 10
69695.0
 20
-1845.0000000000002
 30
0.0
 40
520.0
  1
Э
  7
ГОСТ
 72
1
 11
69695.0
 21
-1845.0000000000002
 31
0.0
100
AcDbText
 73
2
  0
LWPOLYLINE
  5
BE
330
17
100
AcDbEntity
  8
11_КАЮТЫ
100
AcDbPolyline
 90
4
 70
1
 10
71080.0
 20
-3470.0
 10
73850.0
 20
-3470.0
 10
73850.0
 20
-220.0
 10
71080.0
 20
-220.0
  0
TEXT
  5
BF
330
17
100
AcDbEntity
  8
11_КАЮТЫ
100
AcDbText
 10
72465.0
 20
-1845.0000000000002
 30
0.0
 40
520.0
  1
Э
  7
ГОСТ
 72
1
 11
72465.0
 21
-1845.0000000000002
 31
0.0
100
AcDbText
 73
2
  0
LWPOLYLINE
  5
C0
330
17
100
AcDbEntity
  8
11_КАЮТЫ
100
AcDbPolyline
 90
4
 70
1
 10
73850.0
 20
-3470.0
 10
76620.0
 20
-3470.0
 10
76620.0
 20
-220.0
 10
73850.0
 20
-220.0
  0
TEXT
  5
C1
330
17
100
AcDbEntity
  8
11_КАЮТЫ
100
AcDbText
 10
75235.0
 20
-1845.0000000000002
 30
0.0
 40
520.0
  1
Э
  7
ГОСТ
 72
1
 11
75235.0
 21
-1845.0000000000002
 31
0.0
100
AcDbText
 73
2
  0
LWPOLYLINE
  5
C2
330
17
100
AcDbEntity
  8
11_КАЮТЫ
100
AcDbPolyline
 90
4
 70
1
 10
76620.0
 20
-3470.0
 10
79390.0
 20
-3470.0
 10
79390.0
 20
-220.0
 10
76620.0
 20
-220.0
  0
TEXT
  5
C3
330
17
100
AcDbEntity
  8
11_КАЮТЫ
100
AcDbText
 10
78005.0
 20
-1845.0000000000002
 30
0.0
 40
520.0
  1
Э
  7
ГОСТ
 72
1
 11
78005.0
 21
-1845.0000000000002
 31
0.0
100
AcDbText
 73
2
  0
LWPOLYLINE
  5
C4
330
17
100
AcDbEntity
  8
11_КАЮТЫ
100
AcDbPolyline
 90
4
 70
1
 10
79390.0
 20
-3470.0
 10
82160.0
 20
-3470.0
 10
82160.0
 20
-220.0
 10
79390.0
 20
-220.0
  0
TEXT
  5
C5
330
17
100
AcDbEntity
  8
11_КАЮТЫ
100
AcDbText
 10
80775.0
 20
-1845.0000000000002
 30
0.0
 40
520.0
  1
Э
  7
ГОСТ
 72
1
 11
80775.0
 21
-1845.0000000000002
 31
0.0
100
AcDbText
 73
2
  0
LWPOLYLINE
  5
C6
330
17
100
AcDbEntity
  8
11_КАЮТЫ
100
AcDbPolyline
 90
4
 70
1
 10
82160.0
 20
-3470.0
 10
84930.0
 20
-3470.0
 10
84930.0
 20
-220.0
 10
82160.0
 20
-220.0
  0
TEXT
  5
C7
330
17
100
AcDbEntity
  8
11_КАЮТЫ
100
AcDbText
 10
83545.0
 20
-1845.0000000000002
 30
0.0
 40
520.0
  1
Э
  7
ГОСТ
 72
1
 11
83545.0
 21
-1845.0000000000002
 31
0.0
100
AcDbText
 73
2
  0
LWPOLYLINE
  5
C8
330
17
100
AcDbEntity
  8
11_КАЮТЫ
100
AcDbPolyline
 90
4
 70
1
 10
84930.0
 20
-3470.0
 10
87700.0
 20
-3470.0
 10
87700.0
 20
-220.0
 10
84930.0
 20
-220.0
  0
TEXT
  5
C9
330
17
100
AcDbEntity
  8
11_КАЮТЫ
100
AcDbText
 10
86315.0
 20
-1845.0000000000002
 30
0.0
 40
520.0
  1
Э
  7
ГОСТ
 72
1
 11
86315.0
 21
-1845.0000000000002
 31
0.0
100
AcDbText
 73
2
  0
LWPOLYLINE
  5
CA
330
17
100
AcDbEntity
  8
11_КАЮТЫ
100
AcDbPolyline
 90
4
 70
1
 10
87700.0
 20
-3470.0
 10
90470.0
 20
-3470.0
 10
90470.0
 20
-220.0
 10
87700.0
 20
-220.0
  0
TEXT
  5
CB
330
17
100
AcDbEntity
  8
11_КАЮТЫ
100
AcDbText
 10
89085.00000000001
 20
-1845.0000000000002
 30
0.0
 40
520.0
  1
Э
  7
ГОСТ
 72
1
 11
89085.00000000001
 21
-1845.0000000000002
 31
0.0
100
AcDbText
 73
2
  0
LWPOLYLINE
  5
CC
330
17
100
AcDbEntity
  8
11_КАЮТЫ
100
AcDbPolyline
 90
4
 70
1
 10
98100.0
 20
-3470.0
 10
100870.0
 20
-3470.0
 10
100870.0
 20
-220.0
 10
98100.0
 20
-220.0
  0
TEXT
  5
CD
330
17
100
AcDbEntity
  8
11_КАЮТЫ
100
AcDbText
 10
99485.0
 20
-1845.0000000000002
 30
0.0
 40
520.0
  1
Э
  7
ГОСТ
 72
1
 11
99485.0
 21
-1845.0000000000002
 31
0.0
100
AcDbText
 73
2
  0
LWPOLYLINE
  5
CE
330
17
100
AcDbEntity
  8
11_КАЮТЫ
100
AcDbPolyline
 90
4
 70
1
 10
100870.0
 20
-3470.0
 10
103640.0
 20
-3470.0
 10
103640.0
 20
-220.0
 10
100870.0
 20
-220.0
  0
TEXT
  5
CF
330
17
100
AcDbEntity
  8
11_КАЮТЫ
100
AcDbText
 10
102255.0
 20
-1845.0000000000002
 30
0.0
 40
520.0
  1
Э
  7
ГОСТ
 72
1
 11
102255.0
 21
-1845.0000000000002
 31
0.0
100
AcDbText
 73
2
  0
LWPOLYLINE
  5
D0
330
17
100
AcDbEntity
  8
11_КАЮТЫ
100
AcDbPolyline
 90
4
 70
1
 10
103640.0
 20
-3470.0
 10
106410.0
 20
-3470.0
 10
106410.0
 20
-220.0
 10
103640.0
 20
-220.0
  0
TEXT
  5
D1
330
17
100
AcDbEntity
  8
11_КАЮТЫ
100
AcDbText
 10
105025.0
 20
-1845.0000000000002
 30
0.0
 40
520.0
  1
Э
  7
ГОСТ
 72
1
 11
105025.0
 21
-1845.0000000000002
 31
0.0
100
AcDbText
 73
2
  0
LWPOLYLINE
  5
D2
330
17
100
AcDbEntity
  8
11_КАЮТЫ
100
AcDbPolyline
 90
4
 70
1
 10
106410.0
 20
-3470.0
 10
109180.0
 20
-3470.0
 10
109180.0
 20
-220.0
 10
106410.0
 20
-220.0
  0
TEXT
  5
D3
330
17
100
AcDbEntity
  8
11_КАЮТЫ
100
AcDbText
 10
107795.0
 20
-1845.0000000000002
 30
0.0
 40
520.0
  1
Э
  7
ГОСТ
 72
1
 11
107795.0
 21
-1845.0000000000002
 31
0.0
100
AcDbText
 73
2
  0
LWPOLYLINE
  5
D4
330
17
100
AcDbEntity
  8
11_КАЮТЫ
100
AcDbPolyline
 90
4
 70
1
 10
62000.0
 20
4950.0
 10
66300.0
 20
4950.0
 10
66300.0
 20
7950.0
 10
62000.0
 20
7950.0
  0
TEXT
  5
D5
330
17
100
AcDbEntity
  8
11_КАЮТЫ
100
AcDbText
 10
64150.00000000001
 20
6450.0
 30
0.0
 40
520.0
  1
С
  7
ГОСТ
 72
1
 11
64150.00000000001
 21
6450.0
 31
0.0
100
AcDbText
 73
2
  0
LWPOLYLINE
  5
D6
330
17
100
AcDbEntity
  8
11_КАЮТЫ
100
AcDbPolyline
 90
4
 70
1
 10
66300.0
 20
4950.0
 10
70600.0
 20
4950.0
 10
70600.0
 20
7950.0
 10
66300.0
 20
7950.0
  0
TEXT
  5
D7
330
17
100
AcDbEntity
  8
11_КАЮТЫ
100
AcDbText
 10
68449.99999999999
 20
6450.0
 30
0.0
 40
520.0
  1
С
  7
ГОСТ
 72
1
 11
68449.99999999999
 21
6450.0
 31
0.0
100
AcDbText
 73
2
  0
LWPOLYLINE
  5
D8
330
17
100
AcDbEntity
  8
11_КАЮТЫ
100
AcDbPolyline
 90
4
 70
1
 10
70600.0
 20
4950.0
 10
74900.0
 20
4950.0
 10
74900.0
 20
7950.0
 10
70600.0
 20
7950.0
  0
TEXT
  5
D9
330
17
100
AcDbEntity
  8
11_КАЮТЫ
100
AcDbText
 10
72750.0
 20
6450.0
 30
0.0
 40
520.0
  1
С
  7
ГОСТ
 72
1
 11
72750.0
 21
6450.0
 31
0.0
100
AcDbText
 73
2
  0
LWPOLYLINE
  5
DA
330
17
100
AcDbEntity
  8
11_КАЮТЫ
100
AcDbPolyline
 90
4
 70
1
 10
74900.0
 20
4950.0
 10
79200.0
 20
4950.0
 10
79200.0
 20
7950.0
 10
74900.0
 20
7950.0
  0
TEXT
  5
DB
330
17
100
AcDbEntity
  8
11_КАЮТЫ
100
AcDbText
 10
77050.00000000001
 20
6450.0
 30
0.0
 40
520.0
  1
С
  7
ГОСТ
 72
1
 11
77050.00000000001
 21
6450.0
 31
0.0
100
AcDbText
 73
2
  0
LWPOLYLINE
  5
DC
330
17
100
AcDbEntity
  8
11_КАЮТЫ
100
AcDbPolyline
 90
4
 70
1
 10
79200.0
 20
4950.0
 10
83500.0
 20
4950.0
 10
83500.0
 20
7950.0
 10
79200.0
 20
7950.0
  0
TEXT
  5
DD
330
17
100
AcDbEntity
  8
11_КАЮТЫ
100
AcDbText
 10
81350.0
 20
6450.0
 30
0.0
 40
520.0
  1
С
  7
ГОСТ
 72
1
 11
81350.0
 21
6450.0
 31
0.0
100
AcDbText
 73
2
  0
LWPOLYLINE
  5
DE
330
17
100
AcDbEntity
  8
11_КАЮТЫ
100
AcDbPolyline
 90
4
 70
1
 10
83500.0
 20
4950.0
 10
87800.0
 20
4950.0
 10
87800.0
 20
7950.0
 10
83500.0
 20
7950.0
  0
TEXT
  5
DF
330
17
100
AcDbEntity
  8
11_КАЮТЫ
100
AcDbText
 10
85650.0
 20
6450.0
 30
0.0
 40
520.0
  1
С
  7
ГОСТ
 72
1
 11
85650.0
 21
6450.0
 31
0.0
100
AcDbText
 73
2
  0
LWPOLYLINE
  5
E0
330
17
100
AcDbEntity
  8
11_КАЮТЫ
100
AcDbPolyline
 90
4
 70
1
 10
98100.0
 20
4829.0
 10
102400.0
 20
4829.0
 10
102400.0
 20
7829.0
 10
98100.0
 20
7829.0
  0
TEXT
  5
E1
330
17
100
AcDbEntity
  8
11_КАЮТЫ
100
AcDbText
 10
100250.0
 20
6329.0
 30
0.0
 40
520.0
  1
С
  7
ГОСТ
 72
1
 11
100250.0
 21
6329.0
 31
0.0
100
AcDbText
 73
2
  0
LWPOLYLINE
  5
E2
330
17
100
AcDbEntity
  8
11_КАЮТЫ
100
AcDbPolyline
 90
4
 70
1
 10
102400.0
 20
4622.0
 10
106700.0
 20
4622.0
 10
106700.0
 20
7622.0
 10
102400.0
 20
7622.0
  0
TEXT
  5
E3
330
17
100
AcDbEntity
  8
11_КАЮТЫ
100
AcDbText
 10
104550.00000000001
 20
6122.0
 30
0.0
 40
520.0
  1
С
  7
ГОСТ
 72
1
 11
104550.00000000001
 21
6122.0
 31
0.0
100
AcDbText
 73
2
  0
LWPOLYLINE
  5
E4
330
17
100
AcDbEntity
  8
11_КАЮТЫ
100
AcDbPolyline
 90
4
 70
1
 10
110500.0
 20
4280.0
 10
112500.0
 20
4280.0
 10
112500.0
 20
7280.0
 10
110500.0
 20
7280.0
  0
TEXT
  5
E5
330
17
100
AcDbEntity
  8
11_КАЮТЫ
100
AcDbText
 10
111500.0
 20
5780.0
 30
0.0
 40
520.0
  1
Эк1
  7
ГОСТ
 72
1
 11
111500.0
 21
5780.0
 31
0.0
100
AcDbText
 73
2
  0
LWPOLYLINE
  5
E6
330
17
100
AcDbEntity
  8
11_КАЮТЫ
100
AcDbPolyline
 90
4
 70
1
 10
112500.0
 20
3985.0
 10
114500.0
 20
3985.0
 10
114500.0
 20
6985.0
 10
112500.0
 20
6985.0
  0
TEXT
  5
E7
330
17
100
AcDbEntity
  8
11_КАЮТЫ
100
AcDbText
 10
113500.0
 20
5485.0
 30
0.0
 40
520.0
  1
Эк1
  7
ГОСТ
 72
1
 11
113500.0
 21
5485.0
 31
0.0
100
AcDbText
 73
2
  0
LWPOLYLINE
  5
E8
330
17
100
AcDbEntity
  8
11_КАЮТЫ
100
AcDbPolyline
 90
4
 70
1
 10
114500.0
 20
3683.0
 10
116500.0
 20
3683.0
 10
116500.0
 20
6683.0
 10
114500.0
 20
6683.0
  0
TEXT
  5
E9
330
17
100
AcDbEntity
  8
11_КАЮТЫ
100
AcDbText
 10
115500.0
 20
5183.0
 30
0.0
 40
520.0
  1
Эк1
  7
ГОСТ
 72
1
 11
115500.0
 21
5183.0
 31
0.0
100
AcDbText
 73
2
  0
LWPOLYLINE
  5
EA
330
17
100
AcDbEntity
  8
11_КАЮТЫ
100
AcDbPolyline
 90
4
 70
1
 10
116500.0
 20
3375.0
 10
118500.0
 20
3375.0
 10
118500.0
 20
6375.0
 10
116500.0
 20
6375.0
  0
TEXT
  5
EB
330
17
100
AcDbEntity
  8
11_КАЮТЫ
100
AcDbText
 10
117500.0
 20
4875.0
 30
0.0
 40
520.0
  1
Эк1
  7
ГОСТ
 72
1
 11
117500.0
 21
4875.0
 31
0.0
100
AcDbText
 73
2
  0
LWPOLYLINE
  5
EC
330
17
100
AcDbEntity
  8
11_КАЮТЫ
100
AcDbPolyline
 90
4
 70
1
 10
118500.0
 20
2996.0
 10
120500.0
 20
2996.0
 10
120500.0
 20
5996.0
 10
118500.0
 20
5996.0
  0
TEXT
  5
ED
330
17
100
AcDbEntity
  8
11_КАЮТЫ
100
AcDbText
 10
119500.0
 20
4496.0
 30
0.0
 40
520.0
  1
Эк1
  7
ГОСТ
 72
1
 11
119500.0
 21
4496.0
 31
0.0
100
AcDbText
 73
2
  0
LWPOLYLINE
  5
EE
330
17
100
AcDbEntity
  8
11_КАЮТЫ
100
AcDbPolyline
 90
4
 70
1
 10
87800.0
 20
4938.0
 10
90800.0
 20
4938.0
 10
90800.0
 20
7938.0
 10
87800.0
 20
7938.0
  0
TEXT
  5
EF
330
17
100
AcDbEntity
  8
11_КАЮТЫ
100
AcDbText
 10
89300.0
 20
6438.0
 30
0.0
 40
520.0
  1
Э
  7
ГОСТ
 72
1
 11
89300.0
 21
6438.0
 31
0.0
100
AcDbText
 73
2
  0
LWPOLYLINE
  5
F0
330
17
100
AcDbEntity
  8
11_КАЮТЫ
100
AcDbPolyline
 90
4
 70
1
 10
106700.0
 20
4471.0
 10
109700.0
 20
4471.0
 10
109700.0
 20
7471.0
 10
106700.0
 20
7471.0
  0
TEXT
  5
F1
330
17
100
AcDbEntity
  8
11_КАЮТЫ
100
AcDbText
 10
108200.0
 20
5971.0
 30
0.0
 40
520.0
  1
Э
  7
ГОСТ
 72
1
 11
108200.0
 21
5971.0
 31
0.0
100
AcDbText
 73
2
  0
LWPOLYLINE
  5
F2
330
17
100
AcDbEntity
  8
11_КАЮТЫ
100
AcDbPolyline
 90
4
 70
1
 10
60000.0
 20
220.0
 10
62770.0
 20
220.0
 10
62770.0
 20
3470.0
 10
60000.0
 20
3470.0
  0
TEXT
  5
F3
330
17
100
AcDbEntity
  8
11_КАЮТЫ
100
AcDbText
 10
61385.00000000001
 20
1845.0000000000002
 30
0.0
 40
520.0
  1
Э
  7
ГОСТ
 72
1
 11
61385.00000000001
 21
1845.0000000000002
 31
0.0
100
AcDbText
 73
2
  0
LWPOLYLINE
  5
F4
330
17
100
AcDbEntity
  8
11_КАЮТЫ
100
AcDbPolyline
 90
4
 70
1
 10
62770.0
 20
220.0
 10
65540.0
 20
220.0
 10
65540.0
 20
3470.0
 10
62770.0
 20
3470.0
  0
TEXT
  5
F5
330
17
100
AcDbEntity
  8
11_КАЮТЫ
100
AcDbText
 10
64155.0
 20
1845.0000000000002
 30
0.0
 40
520.0
  1
Э
  7
ГОСТ
 72
1
 11
64155.0
 21
1845.0000000000002
 31
0.0
100
AcDbText
 73
2
  0
LWPOLYLINE
  5
F6
330
17
100
AcDbEntity
  8
11_КАЮТЫ
100
AcDbPolyline
 90
4
 70
1
 10
65540.0
 20
220.0
 10
68310.0
 20
220.0
 10
68310.0
 20
3470.0
 10
65540.0
 20
3470.0
  0
TEXT
  5
F7
330
17
100
AcDbEntity
  8
11_КАЮТЫ
100
AcDbText
 10
66925.00000000001
 20
1845.0000000000002
 30
0.0
 40
520.0
  1
Э
  7
ГОСТ
 72
1
 11
66925.00000000001
 21
1845.0000000000002
 31
0.0
100
AcDbText
 73
2
  0
LWPOLYLINE
  5
F8
330
17
100
AcDbEntity
  8
11_КАЮТЫ
100
AcDbPolyline
 90
4
 70
1
 10
68310.0
 20
220.0
 10
71080.0
 20
220.0
 10
71080.0
 20
3470.0
 10
68310.0
 20
3470.0
  0
TEXT
  5
F9
330
17
100
AcDbEntity
  8
11_КАЮТЫ
100
AcDbText
 10
69695.0
 20
1845.0000000000002
 30
0.0
 40
520.0
  1
Э
  7
ГОСТ
 72
1
 11
69695.0
 21
1845.0000000000002
 31
0.0
100
AcDbText
 73
2
  0
LWPOLYLINE
  5
FA
330
17
100
AcDbEntity
  8
11_КАЮТЫ
100
AcDbPolyline
 90
4
 70
1
 10
71080.0
 20
220.0
 10
73850.0
 20
220.0
 10
73850.0
 20
3470.0
 10
71080.0
 20
3470.0
  0
TEXT
  5
FB
330
17
100
AcDbEntity
  8
11_КАЮТЫ
100
AcDbText
 10
72465.0
 20
1845.0000000000002
 30
0.0
 40
520.0
  1
Э
  7
ГОСТ
 72
1
 11
72465.0
 21
1845.0000000000002
 31
0.0
100
AcDbText
 73
2
  0
LWPOLYLINE
  5
FC
330
17
100
AcDbEntity
  8
11_КАЮТЫ
100
AcDbPolyline
 90
4
 70
1
 10
73850.0
 20
220.0
 10
76620.0
 20
220.0
 10
76620.0
 20
3470.0
 10
73850.0
 20
3470.0
  0
TEXT
  5
FD
330
17
100
AcDbEntity
  8
11_КАЮТЫ
100
AcDbText
 10
75235.0
 20
1845.0000000000002
 30
0.0
 40
520.0
  1
Э
  7
ГОСТ
 72
1
 11
75235.0
 21
1845.0000000000002
 31
0.0
100
AcDbText
 73
2
  0
LWPOLYLINE
  5
FE
330
17
100
AcDbEntity
  8
11_КАЮТЫ
100
AcDbPolyline
 90
4
 70
1
 10
76620.0
 20
220.0
 10
79390.0
 20
220.0
 10
79390.0
 20
3470.0
 10
76620.0
 20
3470.0
  0
TEXT
  5
FF
330
17
100
AcDbEntity
  8
11_КАЮТЫ
100
AcDbText
 10
78005.0
 20
1845.0000000000002
 30
0.0
 40
520.0
  1
Э
  7
ГОСТ
 72
1
 11
78005.0
 21
1845.0000000000002
 31
0.0
100
AcDbText
 73
2
  0
LWPOLYLINE
  5
100
330
17
100
AcDbEntity
  8
11_КАЮТЫ
100
AcDbPolyline
 90
4
 70
1
 10
79390.0
 20
220.0
 10
82160.0
 20
220.0
 10
82160.0
 20
3470.0
 10
79390.0
 20
3470.0
  0
TEXT
  5
101
330
17
100
AcDbEntity
  8
11_КАЮТЫ
100
AcDbText
 10
80775.0
 20
1845.0000000000002
 30
0.0
 40
520.0
  1
Э
  7
ГОСТ
 72
1
 11
80775.0
 21
1845.0000000000002
 31
0.0
100
AcDbText
 73
2
  0
LWPOLYLINE
  5
102
330
17
100
AcDbEntity
  8
11_КАЮТЫ
100
AcDbPolyline
 90
4
 70
1
 10
82160.0
 20
220.0
 10
84930.0
 20
220.0
 10
84930.0
 20
3470.0
 10
82160.0
 20
3470.0
  0
TEXT
  5
103
330
17
100
AcDbEntity
  8
11_КАЮТЫ
100
AcDbText
 10
83545.0
 20
1845.0000000000002
 30
0.0
 40
520.0
  1
Э
  7
ГОСТ
 72
1
 11
83545.0
 21
1845.0000000000002
 31
0.0
100
AcDbText
 73
2
  0
LWPOLYLINE
  5
104
330
17
100
AcDbEntity
  8
11_КАЮТЫ
100
AcDbPolyline
 90
4
 70
1
 10
84930.0
 20
220.0
 10
87700.0
 20
220.0
 10
87700.0
 20
3470.0
 10
84930.0
 20
3470.0
  0
TEXT
  5
105
330
17
100
AcDbEntity
  8
11_КАЮТЫ
100
AcDbText
 10
86315.0
 20
1845.0000000000002
 30
0.0
 40
520.0
  1
Э
  7
ГОСТ
 72
1
 11
86315.0
 21
1845.0000000000002
 31
0.0
100
AcDbText
 73
2
  0
LWPOLYLINE
  5
106
330
17
100
AcDbEntity
  8
11_КАЮТЫ
100
AcDbPolyline
 90
4
 70
1
 10
87700.0
 20
220.0
 10
90470.0
 20
220.0
 10
90470.0
 20
3470.0
 10
87700.0
 20
3470.0
  0
TEXT
  5
107
330
17
100
AcDbEntity
  8
11_КАЮТЫ
100
AcDbText
 10
89085.00000000001
 20
1845.0000000000002
 30
0.0
 40
520.0
  1
Э
  7
ГОСТ
 72
1
 11
89085.00000000001
 21
1845.0000000000002
 31
0.0
100
AcDbText
 73
2
  0
LWPOLYLINE
  5
108
330
17
100
AcDbEntity
  8
11_КАЮТЫ
100
AcDbPolyline
 90
4
 70
1
 10
98100.0
 20
220.0
 10
100870.0
 20
220.0
 10
100870.0
 20
3470.0
 10
98100.0
 20
3470.0
  0
TEXT
  5
109
330
17
100
AcDbEntity
  8
11_КАЮТЫ
100
AcDbText
 10
99485.0
 20
1845.0000000000002
 30
0.0
 40
520.0
  1
Э
  7
ГОСТ
 72
1
 11
99485.0
 21
1845.0000000000002
 31
0.0
100
AcDbText
 73
2
  0
LWPOLYLINE
  5
10A
330
17
100
AcDbEntity
  8
11_КАЮТЫ
100
AcDbPolyline
 90
4
 70
1
 10
100870.0
 20
220.0
 10
103640.0
 20
220.0
 10
103640.0
 20
3470.0
 10
100870.0
 20
3470.0
  0
TEXT
  5
10B
330
17
100
AcDbEntity
  8
11_КАЮТЫ
100
AcDbText
 10
102255.0
 20
1845.0000000000002
 30
0.0
 40
520.0
  1
Э
  7
ГОСТ
 72
1
 11
102255.0
 21
1845.0000000000002
 31
0.0
100
AcDbText
 73
2
  0
LWPOLYLINE
  5
10C
330
17
100
AcDbEntity
  8
11_КАЮТЫ
100
AcDbPolyline
 90
4
 70
1
 10
103640.0
 20
220.0
 10
106410.0
 20
220.0
 10
106410.0
 20
3470.0
 10
103640.0
 20
3470.0
  0
TEXT
  5
10D
330
17
100
AcDbEntity
  8
11_КАЮТЫ
100
AcDbText
 10
105025.0
 20
1845.0000000000002
 30
0.0
 40
520.0
  1
Э
  7
ГОСТ
 72
1
 11
105025.0
 21
1845.0000000000002
 31
0.0
100
AcDbText
 73
2
  0
LWPOLYLINE
  5
10E
330
17
100
AcDbEntity
  8
11_КАЮТЫ
100
AcDbPolyline
 90
4
 70
1
 10
106410.0
 20
220.0
 10
109180.0
 20
220.0
 10
109180.0
 20
3470.0
 10
106410.0
 20
3470.0
  0
TEXT
  5
10F
330
17
100
AcDbEntity
  8
11_КАЮТЫ
100
AcDbText
 10
107795.0
 20
1845.0000000000002
 30
0.0
 40
520.0
  1
Э
  7
ГОСТ
 72
1
 11
107795.0
 21
1845.0000000000002
 31
0.0
100
AcDbText
 73
2
  0
LWPOLYLINE
  5
110
330
17
100
AcDbEntity
  8
12_ТРАПЫ_ЛИФТЫ
100
AcDbPolyline
 90
4
 70
1
 10
34000.0
 20
-2000.0
 10
39520.0
 20
-2000.0
 10
39520.0
 20
-100.0
 10
34000.0
 20
-100.0
  0
LWPOLYLINE
  5
111
330
17
100
AcDbEntity
  8
12_ТРАПЫ_ЛИФТЫ
100
AcDbPolyline
 90
4
 70
1
 10
92000.0
 20
-2000.0
 10
97520.0
 20
-2000.0
 10
97520.0
 20
-100.0
 10
92000.0
 20
-100.0
  0
LINE
  5
112
330
17
100
AcDbEntity
  8
06_ПОМЕЩЕНИЯ
100
AcDbLine
 10
2000.0
 20
-5518.24864544665
 30
0.0
 11
2000.0
 21
5518.24864544665
 31
0.0
  0
LINE
  5
113
330
17
100
AcDbEntity
  8
06_ПОМЕЩЕНИЯ
100
AcDbLine
 10
9500.0
 20
-7374.563956197803
 30
0.0
 11
9500.0
 21
7374.563956197803
 31
0.0
  0
CIRCLE
  5
114
330
17
100
AcDbEntity
  8
06_ПОМЕЩЕНИЯ
100
AcDbCircle
 10
5750.0
 20
9400.0
 30
0.0
 40
720.0
  0
TEXT
  5
115
330
17
100
AcDbEntity
  8
06_ПОМЕЩЕНИЯ
100
AcDbText
 10
5750.0
 20
9400.0
 30
0.0
 40
800.0
  1
1
  7
ГОСТ
 72
1
 11
5750.0
 21
9400.0
 31
0.0
100
AcDbText
 73
2
  0
LINE
  5
116
330
17
100
AcDbEntity
  8
06_ПОМЕЩЕНИЯ
100
AcDbLine
 10
9500.0
 20
-7374.563956197803
 30
0.0
 11
9500.0
 21
7374.563956197803
 31
0.0
  0
LINE
  5
117
330
17
100
AcDbEntity
  8
06_ПОМЕЩЕНИЯ
100
AcDbLine
 10
12000.0
 20
-7667.891122277169
 30
0.0
 11
12000.0
 21
7667.891122277169
 31
0.0
  0
CIRCLE
  5
118
330
17
100
AcDbEntity
  8
06_ПОМЕЩЕНИЯ
100
AcDbCircle
 10
10750.0
 20
9400.0
 30
0.0
 40
720.0
  0
TEXT
  5
119
330
17
100
AcDbEntity
  8
06_ПОМЕЩЕНИЯ
100
AcDbText
 10
10750.0
 20
9400.0
 30
0.0
 40
800.0
  1
2
  7
ГОСТ
 72
1
 11
10750.0
 21
9400.0
 31
0.0
100
AcDbText
 73
2
  0
LINE
  5
11A
330
17
100
AcDbEntity
  8
06_ПОМЕЩЕНИЯ
100
AcDbLine
 10
12000.0
 20
-7667.891122277169
 30
0.0
 11
12000.0
 21
7667.891122277169
 31
0.0
  0
LINE
  5
11B
330
17
100
AcDbEntity
  8
06_ПОМЕЩЕНИЯ
100
AcDbLine
 10
30000.0
 20
-8202.884404821192
 30
0.0
 11
30000.0
 21
8202.884404821192
 31
0.0
  0
CIRCLE
  5
11C
330
17
100
AcDbEntity
  8
06_ПОМЕЩЕНИЯ
100
AcDbCircle
 10
21000.0
 20
9400.0
 30
0.0
 40
720.0
  0
TEXT
  5
11D
330
17
100
AcDbEntity
  8
06_ПОМЕЩЕНИЯ
100
AcDbText
 10
21000.0
 20
9400.0
 30
0.0
 40
800.0
  1
3
  7
ГОСТ
 72
1
 11
21000.0
 21
9400.0
 31
0.0
100
AcDbText
 73
2
  0
TEXT
  5
11E
330
17
100
AcDbEntity
  8
06_ПОМЕЩЕНИЯ
100
AcDbText
 10
21000.0
 20
-1000.0
 30
0.0
 40
640.0
  1
Машинное отделение, 3 ГДГ по 1600 кВт
  7
ГОСТ
 72
1
 11
21000.0
 21
-1000.0
 31
0.0
100
AcDbText
 73
2
  0
LINE
  5
11F
330
17
100
AcDbEntity
  8
06_ПОМЕЩЕНИЯ
100
AcDbLine
 10
30000.0
 20
-8202.884404821192
 30
0.0
 11
30000.0
 21
8202.884404821192
 31
0.0
  0
LINE
  5
120
330
17
100
AcDbEntity
  8
06_ПОМЕЩЕНИЯ
100
AcDbLine
 10
34000.0
 20
-8227.359698068638
 30
0.0
 11
34000.0
 21
8227.359698068638
 31
0.0
  0
CIRCLE
  5
121
330
17
100
AcDbEntity
  8
06_ПОМЕЩЕНИЯ
100
AcDbCircle
 10
32000.0
 20
9400.0
 30
0.0
 40
720.0
  0
TEXT
  5
122
330
17
100
AcDbEntity
  8
06_ПОМЕЩЕНИЯ
100
AcDbText
 10
32000.0
 20
9400.0
 30
0.0
 40
800.0
  1
4
  7
ГОСТ
 72
1
 11
32000.0
 21
9400.0
 31
0.0
100
AcDbText
 73
2
  0
LINE
  5
123
330
17
100
AcDbEntity
  8
06_ПОМЕЩЕНИЯ
100
AcDbLine
 10
34000.0
 20
-8227.359698068638
 30
0.0
 11
34000.0
 21
8227.359698068638
 31
0.0
  0
LINE
  5
124
330
17
100
AcDbEntity
  8
06_ПОМЕЩЕНИЯ
100
AcDbLine
 10
39600.0
 20
-8244.277681100708
 30
0.0
 11
39600.0
 21
8244.277681100708
 31
0.0
  0
CIRCLE
  5
125
330
17
100
AcDbEntity
  8
06_ПОМЕЩЕНИЯ
100
AcDbCircle
 10
36800.0
 20
9400.0
 30
0.0
 40
720.0
  0
TEXT
  5
126
330
17
100
AcDbEntity
  8
06_ПОМЕЩЕНИЯ
100
AcDbText
 10
36800.0
 20
9400.0
 30
0.0
 40
800.0
  1
5
  7
ГОСТ
 72
1
 11
36800.0
 21
9400.0
 31
0.0
100
AcDbText
 73
2
  0
LINE
  5
127
330
17
100
AcDbEntity
  8
06_ПОМЕЩЕНИЯ
100
AcDbLine
 10
39600.0
 20
-8244.277681100708
 30
0.0
 11
39600.0
 21
8244.277681100708
 31
0.0
  0
LINE
  5
128
330
17
100
AcDbEntity
  8
06_ПОМЕЩЕНИЯ
100
AcDbLine
 10
47500.0
 20
-8249.90189385475
 30
0.0
 11
47500.0
 21
8249.90189385475
 31
0.0
  0
CIRCLE
  5
129
330
17
100
AcDbEntity
  8
06_ПОМЕЩЕНИЯ
100
AcDbCircle
 10
43550.0
 20
9400.0
 30
0.0
 40
720.0
  0
TEXT
  5
12A
330
17
100
AcDbEntity
  8
06_ПОМЕЩЕНИЯ
100
AcDbText
 10
43550.0
 20
9400.0
 30
0.0
 40
800.0
  1
6
  7
ГОСТ
 72
1
 11
43550.0
 21
9400.0
 31
0.0
100
AcDbText
 73
2
  0
LINE
  5
12B
330
17
100
AcDbEntity
  8
06_ПОМЕЩЕНИЯ
100
AcDbLine
 10
47500.0
 20
-8249.90189385475
 30
0.0
 11
47500.0
 21
8249.90189385475
 31
0.0
  0
LINE
  5
12C
330
17
100
AcDbEntity
  8
06_ПОМЕЩЕНИЯ
100
AcDbLine
 10
53000.0
 20
-8250.0
 30
0.0
 11
53000.0
 21
8250.0
 31
0.0
  0
CIRCLE
  5
12D
330
17
100
AcDbEntity
  8
06_ПОМЕЩЕНИЯ
100
AcDbCircle
 10
50250.0
 20
9400.0
 30
0.0
 40
720.0
  0
TEXT
  5
12E
330
17
100
AcDbEntity
  8
06_ПОМЕЩЕНИЯ
100
AcDbText
 10
50250.0
 20
9400.0
 30
0.0
 40
800.0
  1
7
  7
ГОСТ
 72
1
 11
50250.0
 21
9400.0
 31
0.0
100
AcDbText
 73
2
  0
LINE
  5
12F
330
17
100
AcDbEntity
  8
06_ПОМЕЩЕНИЯ
100
AcDbLine
 10
53000.0
 20
-8250.0
 30
0.0
 11
53000.0
 21
8250.0
 31
0.0
  0
LINE
  5
130
330
17
100
AcDbEntity
  8
06_ПОМЕЩЕНИЯ
100
AcDbLine
 10
56500.0
 20
-8250.0
 30
0.0
 11
56500.0
 21
8250.0
 31
0.0
  0
CIRCLE
  5
131
330
17
100
AcDbEntity
  8
06_ПОМЕЩЕНИЯ
100
AcDbCircle
 10
54750.0
 20
9400.0
 30
0.0
 40
720.0
  0
TEXT
  5
132
330
17
100
AcDbEntity
  8
06_ПОМЕЩЕНИЯ
100
AcDbText
 10
54750.0
 20
9400.0
 30
0.0
 40
800.0
  1
8
  7
ГОСТ
 72
1
 11
54750.0
 21
9400.0
 31
0.0
100
AcDbText
 73
2
  0
LINE
  5
133
330
17
100
AcDbEntity
  8
06_ПОМЕЩЕНИЯ
100
AcDbLine
 10
56500.0
 20
-8250.0
 30
0.0
 11
56500.0
 21
8250.0
 31
0.0
  0
LINE
  5
134
330
17
100
AcDbEntity
  8
06_ПОМЕЩЕНИЯ
100
AcDbLine
 10
59900.0
 20
-8250.0
 30
0.0
 11
59900.0
 21
8250.0
 31
0.0
  0
CIRCLE
  5
135
330
17
100
AcDbEntity
  8
06_ПОМЕЩЕНИЯ
100
AcDbCircle
 10
58200.0
 20
9400.0
 30
0.0
 40
720.0
  0
TEXT
  5
136
330
17
100
AcDbEntity
  8
06_ПОМЕЩЕНИЯ
100
AcDbText
 10
58200.0
 20
9400.0
 30
0.0
 40
800.0
  1
9
  7
ГОСТ
 72
1
 11
58200.0
 21
9400.0
 31
0.0
100
AcDbText
 73
2
  0
LINE
  5
137
330
17
100
AcDbEntity
  8
06_ПОМЕЩЕНИЯ
100
AcDbLine
 10
60000.0
 20
-8250.0
 30
0.0
 11
60000.0
 21
8250.0
 31
0.0
  0
LINE
  5
138
330
17
100
AcDbEntity
  8
06_ПОМЕЩЕНИЯ
100
AcDbLine
 10
114200.0
 20
-6871.214920979791
 30
0.0
 11
114200.0
 21
6871.214920979791
 31
0.0
  0
CIRCLE
  5
139
330
17
100
AcDbEntity
  8
06_ПОМЕЩЕНИЯ
100
AcDbCircle
 10
87100.0
 20
9400.0
 30
0.0
 40
720.0
  0
TEXT
  5
13A
330
17
100
AcDbEntity
  8
06_ПОМЕЩЕНИЯ
100
AcDbText
 10
87100.0
 20
9400.0
 30
0.0
 40
800.0
  1
10
  7
ГОСТ
 72
1
 11
87100.0
 21
9400.0
 31
0.0
100
AcDbText
 73
2
  0
LINE
  5
13B
330
17
100
AcDbEntity
  8
06_ПОМЕЩЕНИЯ
100
AcDbLine
 10
114200.0
 20
-6871.214920979791
 30
0.0
 11
114200.0
 21
6871.214920979791
 31
0.0
  0
LINE
  5
13C
330
17
100
AcDbEntity
  8
06_ПОМЕЩЕНИЯ
100
AcDbLine
 10
127000.0
 20
-2307.1784785320856
 30
0.0
 11
127000.0
 21
2307.1784785320856
 31
0.0
  0
CIRCLE
  5
13D
330
17
100
AcDbEntity
  8
06_ПОМЕЩЕНИЯ
100
AcDbCircle
 10
120600.0
 20
9400.0
 30
0.0
 40
720.0
  0
TEXT
  5
13E
330
17
100
AcDbEntity
  8
06_ПОМЕЩЕНИЯ
100
AcDbText
 10
120600.0
 20
9400.0
 30
0.0
 40
800.0
  1
11
  7
ГОСТ
 72
1
 11
120600.0
 21
9400.0
 31
0.0
100
AcDbText
 73
2
  0
LINE
  5
13F
330
17
100
AcDbEntity
  8
03_ПЕРЕБОРКИ
100
AcDbLine
 10
9500.0
 20
-7374.563956197803
 30
0.0
 11
9500.0
 21
7374.563956197803
 31
0.0
  0
TEXT
  5
140
330
17
100
AcDbEntity
  8
03_ПЕРЕБОРКИ
100
AcDbText
 10
9500.0
 20
11400.0
 30
0.0
 40
560.0
  1
9.5
  7
ГОСТ
 72
1
 11
9500.0
 21
11400.0
 31
0.0
100
AcDbText
 73
2
  0
LINE
  5
141
330
17
100
AcDbEntity
  8
03_ПЕРЕБОРКИ
100
AcDbLine
 10
12000.0
 20
-7667.891122277169
 30
0.0
 11
12000.0
 21
7667.891122277169
 31
0.0
  0
TEXT
  5
142
330
17
100
AcDbEntity
  8
03_ПЕРЕБОРКИ
100
AcDbText
 10
12000.0
 20
11400.0
 30
0.0
 40
560.0
  1
12.0
  7
ГОСТ
 72
1
 11
12000.0
 21
11400.0
 31
0.0
100
AcDbText
 73
2
  0
LINE
  5
143
330
17
100
AcDbEntity
  8
03_ПЕРЕБОРКИ
100
AcDbLine
 10
30000.0
 20
-8202.884404821192
 30
0.0
 11
30000.0
 21
8202.884404821192
 31
0.0
  0
TEXT
  5
144
330
17
100
AcDbEntity
  8
03_ПЕРЕБОРКИ
100
AcDbText
 10
30000.0
 20
11400.0
 30
0.0
 40
560.0
  1
30.0
  7
ГОСТ
 72
1
 11
30000.0
 21
11400.0
 31
0.0
100
AcDbText
 73
2
  0
LINE
  5
145
330
17
100
AcDbEntity
  8
03_ПЕРЕБОРКИ
100
AcDbLine
 10
34000.0
 20
-8227.359698068638
 30
0.0
 11
34000.0
 21
8227.359698068638
 31
0.0
  0
TEXT
  5
146
330
17
100
AcDbEntity
  8
03_ПЕРЕБОРКИ
100
AcDbText
 10
34000.0
 20
11400.0
 30
0.0
 40
560.0
  1
34.0
  7
ГОСТ
 72
1
 11
34000.0
 21
11400.0
 31
0.0
100
AcDbText
 73
2
  0
LINE
  5
147
330
17
100
AcDbEntity
  8
03_ПЕРЕБОРКИ
100
AcDbLine
 10
60000.0
 20
-8250.0
 30
0.0
 11
60000.0
 21
8250.0
 31
0.0
  0
TEXT
  5
148
330
17
100
AcDbEntity
  8
03_ПЕРЕБОРКИ
100
AcDbText
 10
60000.0
 20
11400.0
 30
0.0
 40
560.0
  1
60.0
  7
ГОСТ
 72
1
 11
60000.0
 21
11400.0
 31
0.0
100
AcDbText
 73
2
  0
LINE
  5
149
330
17
100
AcDbEntity
  8
03_ПЕРЕБОРКИ
100
AcDbLine
 10
92000.0
 20
-8200.602478355817
 30
0.0
 11
92000.0
 21
8200.602478355817
 31
0.0
  0
TEXT
  5
14A
330
17
100
AcDbEntity
  8
03_ПЕРЕБОРКИ
100
AcDbText
 10
92000.0
 20
11400.0
 30
0.0
 40
560.0
  1
92.0
  7
ГОСТ
 72
1
 11
92000.0
 21
11400.0
 31
0.0
100
AcDbText
 73
2
  0
LINE
  5
14B
330
17
100
AcDbEntity
  8
03_ПЕРЕБОРКИ
100
AcDbLine
 10
116000.0
 20
-6478.975587171655
 30
0.0
 11
116000.0
 21
6478.975587171655
 31
0.0
  0
TEXT
  5
14C
330
17
100
AcDbEntity
  8
03_ПЕРЕБОРКИ
100
AcDbText
 10
116000.0
 20
11400.0
 30
0.0
 40
560.0
  1
116.0
  7
ГОСТ
 72
1
 11
116000.0
 21
11400.0
 31
0.0
100
AcDbText
 73
2
  0
LINE
  5
14D
330
17
100
AcDbEntity
  8
03_ПЕРЕБОРКИ
100
AcDbLine
 10
127000.0
 20
-2307.1784785320856
 30
0.0
 11
127000.0
 21
2307.1784785320856
 31
0.0
  0
TEXT
  5
14E
330
17
100
AcDbEntity
  8
03_ПЕРЕБОРКИ
100
AcDbText
 10
127000.0
 20
11400.0
 30
0.0
 40
560.0
  1
127.0
  7
ГОСТ
 72
1
 11
127000.0
 21
11400.0
 31
0.0
100
AcDbText
 73
2
  0
LINE
  5
14F
330
17
100
AcDbEntity
  8
09_РАЗМЕРЫ
100
AcDbLine
 10
0.0
 20
-8600.0
 30
0.0
 11
0.0
 21
-9200.0
 31
0.0
  0
TEXT
  5
150
330
17
100
AcDbEntity
  8
09_РАЗМЕРЫ
100
AcDbText
 10
0.0
 20
-10000.0
 30
0.0
 40
600.0
  1
0
  7
ГОСТ
 72
1
 11
0.0
 21
-10000.0
 31
0.0
100
AcDbText
 73
2
  0
LINE
  5
151
330
17
100
AcDbEntity
  8
09_РАЗМЕРЫ
100
AcDbLine
 10
2750.0
 20
-8600.0
 30
0.0
 11
2750.0
 21
-8880.0
 31
0.0
  0
LINE
  5
152
330
17
100
AcDbEntity
  8
09_РАЗМЕРЫ
100
AcDbLine
 10
5500.0
 20
-8600.0
 30
0.0
 11
5500.0
 21
-8880.0
 31
0.0
  0
LINE
  5
153
330
17
100
AcDbEntity
  8
09_РАЗМЕРЫ
100
AcDbLine
 10
8250.0
 20
-8600.0
 30
0.0
 11
8250.0
 21
-8880.0
 31
0.0
  0
LINE
  5
154
330
17
100
AcDbEntity
  8
09_РАЗМЕРЫ
100
AcDbLine
 10
11000.0
 20
-8600.0
 30
0.0
 11
11000.0
 21
-9200.0
 31
0.0
  0
TEXT
  5
155
330
17
100
AcDbEntity
  8
09_РАЗМЕРЫ
100
AcDbText
 10
11000.0
 20
-10000.0
 30
0.0
 40
600.0
  1
20
  7
ГОСТ
 72
1
 11
11000.0
 21
-10000.0
 31
0.0
100
AcDbText
 73
2
  0
LINE
  5
156
330
17
100
AcDbEntity
  8
09_РАЗМЕРЫ
100
AcDbLine
 10
13750.000000000002
 20
-8600.0
 30
0.0
 11
13750.000000000002
 21
-8880.0
 31
0.0
  0
LINE
  5
157
330
17
100
AcDbEntity
  8
09_РАЗМЕРЫ
100
AcDbLine
 10
16500.0
 20
-8600.0
 30
0.0
 11
16500.0
 21
-8880.0
 31
0.0
  0
LINE
  5
158
330
17
100
AcDbEntity
  8
09_РАЗМЕРЫ
100
AcDbLine
 10
19250.0
 20
-8600.0
 30
0.0
 11
19250.0
 21
-8880.0
 31
0.0
  0
LINE
  5
159
330
17
100
AcDbEntity
  8
09_РАЗМЕРЫ
100
AcDbLine
 10
22000.0
 20
-8600.0
 30
0.0
 11
22000.0
 21
-9200.0
 31
0.0
  0
TEXT
  5
15A
330
17
100
AcDbEntity
  8
09_РАЗМЕРЫ
100
AcDbText
 10
22000.0
 20
-10000.0
 30
0.0
 40
600.0
  1
40
  7
ГОСТ
 72
1
 11
22000.0
 21
-10000.0
 31
0.0
100
AcDbText
 73
2
  0
LINE
  5
15B
330
17
100
AcDbEntity
  8
09_РАЗМЕРЫ
100
AcDbLine
 10
24750.000000000004
 20
-8600.0
 30
0.0
 11
24750.000000000004
 21
-8880.0
 31
0.0
  0
LINE
  5
15C
330
17
100
AcDbEntity
  8
09_РАЗМЕРЫ
100
AcDbLine
 10
27500.000000000004
 20
-8600.0
 30
0.0
 11
27500.000000000004
 21
-8880.0
 31
0.0
  0
LINE
  5
15D
330
17
100
AcDbEntity
  8
09_РАЗМЕРЫ
100
AcDbLine
 10
30250.000000000004
 20
-8600.0
 30
0.0
 11
30250.000000000004
 21
-8880.0
 31
0.0
  0
LINE
  5
15E
330
17
100
AcDbEntity
  8
09_РАЗМЕРЫ
100
AcDbLine
 10
33000.0
 20
-8600.0
 30
0.0
 11
33000.0
 21
-9200.0
 31
0.0
  0
TEXT
  5
15F
330
17
100
AcDbEntity
  8
09_РАЗМЕРЫ
100
AcDbText
 10
33000.0
 20
-10000.0
 30
0.0
 40
600.0
  1
60
  7
ГОСТ
 72
1
 11
33000.0
 21
-10000.0
 31
0.0
100
AcDbText
 73
2
  0
LINE
  5
160
330
17
100
AcDbEntity
  8
09_РАЗМЕРЫ
100
AcDbLine
 10
35750.0
 20
-8600.0
 30
0.0
 11
35750.0
 21
-8880.0
 31
0.0
  0
LINE
  5
161
330
17
100
AcDbEntity
  8
09_РАЗМЕРЫ
100
AcDbLine
 10
38500.0
 20
-8600.0
 30
0.0
 11
38500.0
 21
-8880.0
 31
0.0
  0
LINE
  5
162
330
17
100
AcDbEntity
  8
09_РАЗМЕРЫ
100
AcDbLine
 10
41250.0
 20
-8600.0
 30
0.0
 11
41250.0
 21
-8880.0
 31
0.0
  0
LINE
  5
163
330
17
100
AcDbEntity
  8
09_РАЗМЕРЫ
100
AcDbLine
 10
44000.0
 20
-8600.0
 30
0.0
 11
44000.0
 21
-9200.0
 31
0.0
  0
TEXT
  5
164
330
17
100
AcDbEntity
  8
09_РАЗМЕРЫ
100
AcDbText
 10
44000.0
 20
-10000.0
 30
0.0
 40
600.0
  1
80
  7
ГОСТ
 72
1
 11
44000.0
 21
-10000.0
 31
0.0
100
AcDbText
 73
2
  0
LINE
  5
165
330
17
100
AcDbEntity
  8
09_РАЗМЕРЫ
100
AcDbLine
 10
46750.00000000001
 20
-8600.0
 30
0.0
 11
46750.00000000001
 21
-8880.0
 31
0.0
  0
LINE
  5
166
330
17
100
AcDbEntity
  8
09_РАЗМЕРЫ
100
AcDbLine
 10
49500.00000000001
 20
-8600.0
 30
0.0
 11
49500.00000000001
 21
-8880.0
 31
0.0
  0
LINE
  5
167
330
17
100
AcDbEntity
  8
09_РАЗМЕРЫ
100
AcDbLine
 10
52250.00000000001
 20
-8600.0
 30
0.0
 11
52250.00000000001
 21
-8880.0
 31
0.0
  0
LINE
  5
168
330
17
100
AcDbEntity
  8
09_РАЗМЕРЫ
100
AcDbLine
 10
55000.00000000001
 20
-8600.0
 30
0.0
 11
55000.00000000001
 21
-9200.0
 31
0.0
  0
TEXT
  5
169
330
17
100
AcDbEntity
  8
09_РАЗМЕРЫ
100
AcDbText
 10
55000.00000000001
 20
-10000.0
 30
0.0
 40
600.0
  1
100
  7
ГОСТ
 72
1
 11
55000.00000000001
 21
-10000.0
 31
0.0
100
AcDbText
 73
2
  0
LINE
  5
16A
330
17
100
AcDbEntity
  8
09_РАЗМЕРЫ
100
AcDbLine
 10
57750.00000000001
 20
-8600.0
 30
0.0
 11
57750.00000000001
 21
-8880.0
 31
0.0
  0
LINE
  5
16B
330
17
100
AcDbEntity
  8
09_РАЗМЕРЫ
100
AcDbLine
 10
60500.00000000001
 20
-8600.0
 30
0.0
 11
60500.00000000001
 21
-8880.0
 31
0.0
  0
LINE
  5
16C
330
17
100
AcDbEntity
  8
09_РАЗМЕРЫ
100
AcDbLine
 10
63250.00000000001
 20
-8600.0
 30
0.0
 11
63250.00000000001
 21
-8880.0
 31
0.0
  0
LINE
  5
16D
330
17
100
AcDbEntity
  8
09_РАЗМЕРЫ
100
AcDbLine
 10
66000.0
 20
-8600.0
 30
0.0
 11
66000.0
 21
-9200.0
 31
0.0
  0
TEXT
  5
16E
330
17
100
AcDbEntity
  8
09_РАЗМЕРЫ
100
AcDbText
 10
66000.0
 20
-10000.0
 30
0.0
 40
600.0
  1
120
  7
ГОСТ
 72
1
 11
66000.0
 21
-10000.0
 31
0.0
100
AcDbText
 73
2
  0
LINE
  5
16F
330
17
100
AcDbEntity
  8
09_РАЗМЕРЫ
100
AcDbLine
 10
68750.0
 20
-8600.0
 30
0.0
 11
68750.0
 21
-8880.0
 31
0.0
  0
LINE
  5
170
330
17
100
AcDbEntity
  8
09_РАЗМЕРЫ
100
AcDbLine
 10
71500.0
 20
-8600.0
 30
0.0
 11
71500.0
 21
-8880.0
 31
0.0
  0
LINE
  5
171
330
17
100
AcDbEntity
  8
09_РАЗМЕРЫ
100
AcDbLine
 10
74250.0
 20
-8600.0
 30
0.0
 11
74250.0
 21
-8880.0
 31
0.0
  0
LINE
  5
172
330
17
100
AcDbEntity
  8
09_РАЗМЕРЫ
100
AcDbLine
 10
77000.0
 20
-8600.0
 30
0.0
 11
77000.0
 21
-9200.0
 31
0.0
  0
TEXT
  5
173
330
17
100
AcDbEntity
  8
09_РАЗМЕРЫ
100
AcDbText
 10
77000.0
 20
-10000.0
 30
0.0
 40
600.0
  1
140
  7
ГОСТ
 72
1
 11
77000.0
 21
-10000.0
 31
0.0
100
AcDbText
 73
2
  0
LINE
  5
174
330
17
100
AcDbEntity
  8
09_РАЗМЕРЫ
100
AcDbLine
 10
79750.0
 20
-8600.0
 30
0.0
 11
79750.0
 21
-8880.0
 31
0.0
  0
LINE
  5
175
330
17
100
AcDbEntity
  8
09_РАЗМЕРЫ
100
AcDbLine
 10
82500.0
 20
-8600.0
 30
0.0
 11
82500.0
 21
-8880.0
 31
0.0
  0
LINE
  5
176
330
17
100
AcDbEntity
  8
09_РАЗМЕРЫ
100
AcDbLine
 10
85250.0
 20
-8600.0
 30
0.0
 11
85250.0
 21
-8880.0
 31
0.0
  0
LINE
  5
177
330
17
100
AcDbEntity
  8
09_РАЗМЕРЫ
100
AcDbLine
 10
88000.0
 20
-8600.0
 30
0.0
 11
88000.0
 21
-9200.0
 31
0.0
  0
TEXT
  5
178
330
17
100
AcDbEntity
  8
09_РАЗМЕРЫ
100
AcDbText
 10
88000.0
 20
-10000.0
 30
0.0
 40
600.0
  1
160
  7
ГОСТ
 72
1
 11
88000.0
 21
-10000.0
 31
0.0
100
AcDbText
 73
2
  0
LINE
  5
179
330
17
100
AcDbEntity
  8
09_РАЗМЕРЫ
100
AcDbLine
 10
90750.00000000001
 20
-8600.0
 30
0.0
 11
90750.00000000001
 21
-8880.0
 31
0.0
  0
LINE
  5
17A
330
17
100
AcDbEntity
  8
09_РАЗМЕРЫ
100
AcDbLine
 10
93500.00000000001
 20
-8600.0
 30
0.0
 11
93500.00000000001
 21
-8880.0
 31
0.0
  0
LINE
  5
17B
330
17
100
AcDbEntity
  8
09_РАЗМЕРЫ
100
AcDbLine
 10
96250.00000000001
 20
-8600.0
 30
0.0
 11
96250.00000000001
 21
-8880.0
 31
0.0
  0
LINE
  5
17C
330
17
100
AcDbEntity
  8
09_РАЗМЕРЫ
100
AcDbLine
 10
99000.00000000001
 20
-8600.0
 30
0.0
 11
99000.00000000001
 21
-9200.0
 31
0.0
  0
TEXT
  5
17D
330
17
100
AcDbEntity
  8
09_РАЗМЕРЫ
100
AcDbText
 10
99000.00000000001
 20
-10000.0
 30
0.0
 40
600.0
  1
180
  7
ГОСТ
 72
1
 11
99000.00000000001
 21
-10000.0
 31
0.0
100
AcDbText
 73
2
  0
LINE
  5
17E
330
17
100
AcDbEntity
  8
09_РАЗМЕРЫ
100
AcDbLine
 10
101750.00000000001
 20
-8600.0
 30
0.0
 11
101750.00000000001
 21
-8880.0
 31
0.0
  0
LINE
  5
17F
330
17
100
AcDbEntity
  8
09_РАЗМЕРЫ
100
AcDbLine
 10
104500.00000000001
 20
-8600.0
 30
0.0
 11
104500.00000000001
 21
-8880.0
 31
0.0
  0
LINE
  5
180
330
17
100
AcDbEntity
  8
09_РАЗМЕРЫ
100
AcDbLine
 10
107250.00000000001
 20
-8600.0
 30
0.0
 11
107250.00000000001
 21
-8880.0
 31
0.0
  0
LINE
  5
181
330
17
100
AcDbEntity
  8
09_РАЗМЕРЫ
100
AcDbLine
 10
110000.00000000001
 20
-8600.0
 30
0.0
 11
110000.00000000001
 21
-9200.0
 31
0.0
  0
TEXT
  5
182
330
17
100
AcDbEntity
  8
09_РАЗМЕРЫ
100
AcDbText
 10
110000.00000000001
 20
-10000.0
 30
0.0
 40
600.0
  1
200
  7
ГОСТ
 72
1
 11
110000.00000000001
 21
-10000.0
 31
0.0
100
AcDbText
 73
2
  0
LINE
  5
183
330
17
100
AcDbEntity
  8
09_РАЗМЕРЫ
100
AcDbLine
 10
112750.00000000001
 20
-8600.0
 30
0.0
 11
112750.00000000001
 21
-8880.0
 31
0.0
  0
LINE
  5
184
330
17
100
AcDbEntity
  8
09_РАЗМЕРЫ
100
AcDbLine
 10
115500.00000000001
 20
-8600.0
 30
0.0
 11
115500.00000000001
 21
-8880.0
 31
0.0
  0
LINE
  5
185
330
17
100
AcDbEntity
  8
09_РАЗМЕРЫ
100
AcDbLine
 10
118250.00000000001
 20
-8600.0
 30
0.0
 11
118250.00000000001
 21
-8880.0
 31
0.0
  0
LINE
  5
186
330
17
100
AcDbEntity
  8
09_РАЗМЕРЫ
100
AcDbLine
 10
121000.00000000001
 20
-8600.0
 30
0.0
 11
121000.00000000001
 21
-9200.0
 31
0.0
  0
TEXT
  5
187
330
17
100
AcDbEntity
  8
09_РАЗМЕРЫ
100
AcDbText
 10
121000.00000000001
 20
-10000.0
 30
0.0
 40
600.0
  1
220
  7
ГОСТ
 72
1
 11
121000.00000000001
 21
-10000.0
 31
0.0
100
AcDbText
 73
2
  0
LINE
  5
188
330
17
100
AcDbEntity
  8
09_РАЗМЕРЫ
100
AcDbLine
 10
123750.00000000001
 20
-8600.0
 30
0.0
 11
123750.00000000001
 21
-8880.0
 31
0.0
  0
LINE
  5
189
330
17
100
AcDbEntity
  8
09_РАЗМЕРЫ
100
AcDbLine
 10
126500.00000000001
 20
-8600.0
 30
0.0
 11
126500.00000000001
 21
-8880.0
 31
0.0
  0
LINE
  5
18A
330
17
100
AcDbEntity
  8
09_РАЗМЕРЫ
100
AcDbLine
 10
129250.0
 20
-8600.0
 30
0.0
 11
129250.0
 21
-8880.0
 31
0.0
  0
LINE
  5
18B
330
17
100
AcDbEntity
  8
09_РАЗМЕРЫ
100
AcDbLine
 10
132000.0
 20
-8600.0
 30
0.0
 11
132000.0
 21
-9200.0
 31
0.0
  0
TEXT
  5
18C
330
17
100
AcDbEntity
  8
09_РАЗМЕРЫ
100
AcDbText
 10
132000.0
 20
-10000.0
 30
0.0
 40
600.0
  1
240
  7
ГОСТ
 72
1
 11
132000.0
 21
-10000.0
 31
0.0
100
AcDbText
 73
2
  0
LINE
  5
18D
330
17
100
AcDbEntity
  8
09_РАЗМЕРЫ
100
AcDbLine
 10
134750.0
 20
-8600.0
 30
0.0
 11
134750.0
 21
-8880.0
 31
0.0
  0
LINE
  5
18E
330
17
100
AcDbEntity
  8
09_РАЗМЕРЫ
100
AcDbLine
 10
137500.0
 20
-8600.0
 30
0.0
 11
137500.0
 21
-8880.0
 31
0.0
  0
LINE
  5
18F
330
17
100
AcDbEntity
  8
09_РАЗМЕРЫ
100
AcDbLine
 10
0.0
 20
-8600.0
 30
0.0
 11
138600.00000000003
 21
-8600.0
 31
0.0
  0
TEXT
  5
190
330
17
100
AcDbEntity
  8
09_РАЗМЕРЫ
100
AcDbText
 10
143000.0
 20
-10000.0
 30
0.0
 40
600.0
  1
№ шп., шпация 550
  7
ГОСТ
 11
143000.0
 21
-10000.0
 31
0.0
100
AcDbText
 73
2
  0
LINE
  5
191
330
17
100
AcDbEntity
  8
00_РАМКА
100
AcDbLine
 10
0.0
 20
-20600.0
 30
0.0
 11
44000.0
 21
-20600.0
 31
0.0
  0
LINE
  5
192
330
17
100
AcDbEntity
  8
00_РАМКА
100
AcDbLine
 10
0.0
 20
-21800.0
 30
0.0
 11
44000.0
 21
-21800.0
 31
0.0
  0
LINE
  5
193
330
17
100
AcDbEntity
  8
00_РАМКА
100
AcDbLine
 10
0.0
 20
-23000.0
 30
0.0
 11
44000.0
 21
-23000.0
 31
0.0
  0
LINE
  5
194
330
17
100
AcDbEntity
  8
00_РАМКА
100
AcDbLine
 10
0.0
 20
-24200.0
 30
0.0
 11
44000.0
 21
-24200.0
 31
0.0
  0
LINE
  5
195
330
17
100
AcDbEntity
  8
00_РАМКА
100
AcDbLine
 10
0.0
 20
-25400.0
 30
0.0
 11
44000.0
 21
-25400.0
 31
0.0
  0
LINE
  5
196
330
17
100
AcDbEntity
  8
00_РАМКА
100
AcDbLine
 10
0.0
 20
-26600.0
 30
0.0
 11
44000.0
 21
-26600.0
 31
0.0
  0
LINE
  5
197
330
17
100
AcDbEntity
  8
00_РАМКА
100
AcDbLine
 10
0.0
 20
-27800.0
 30
0.0
 11
44000.0
 21
-27800.0
 31
0.0
  0
LINE
  5
198
330
17
100
AcDbEntity
  8
00_РАМКА
100
AcDbLine
 10
0.0
 20
-29000.0
 30
0.0
 11
44000.0
 21
-29000.0
 31
0.0
  0
LINE
  5
199
330
17
100
AcDbEntity
  8
00_РАМКА
100
AcDbLine
 10
0.0
 20
-30200.0
 30
0.0
 11
44000.0
 21
-30200.0
 31
0.0
  0
LINE
  5
19A
330
17
100
AcDbEntity
  8
00_РАМКА
100
AcDbLine
 10
0.0
 20
-31400.0
 30
0.0
 11
44000.0
 21
-31400.0
 31
0.0
  0
LINE
  5
19B
330
17
100
AcDbEntity
  8
00_РАМКА
100
AcDbLine
 10
0.0
 20
-32600.0
 30
0.0
 11
44000.0
 21
-32600.0
 31
0.0
  0
LINE
  5
19C
330
17
100
AcDbEntity
  8
00_РАМКА
100
AcDbLine
 10
0.0
 20
-33800.0
 30
0.0
 11
44000.0
 21
-33800.0
 31
0.0
  0
LINE
  5
19D
330
17
100
AcDbEntity
  8
00_РАМКА
100
AcDbLine
 10
0.0
 20
-35000.0
 30
0.0
 11
44000.0
 21
-35000.0
 31
0.0
  0
LINE
  5
19E
330
17
100
AcDbEntity
  8
00_РАМКА
100
AcDbLine
 10
0.0
 20
-20600.0
 30
0.0
 11
0.0
 21
-35000.0
 31
0.0
  0
LINE
  5
19F
330
17
100
AcDbEntity
  8
00_РАМКА
100
AcDbLine
 10
2400.0
 20
-20600.0
 30
0.0
 11
2400.0
 21
-35000.0
 31
0.0
  0
LINE
  5
1A0
330
17
100
AcDbEntity
  8
00_РАМКА
100
AcDbLine
 10
24000.0
 20
-20600.0
 30
0.0
 11
24000.0
 21
-35000.0
 31
0.0
  0
LINE
  5
1A1
330
17
100
AcDbEntity
  8
00_РАМКА
100
AcDbLine
 10
29200.0
 20
-20600.0
 30
0.0
 11
29200.0
 21
-35000.0
 31
0.0
  0
LINE
  5
1A2
330
17
100
AcDbEntity
  8
00_РАМКА
100
AcDbLine
 10
32800.0
 20
-20600.0
 30
0.0
 11
32800.0
 21
-35000.0
 31
0.0
  0
LINE
  5
1A3
330
17
100
AcDbEntity
  8
00_РАМКА
100
AcDbLine
 10
38000.0
 20
-20600.0
 30
0.0
 11
38000.0
 21
-35000.0
 31
0.0
  0
LINE
  5
1A4
330
17
100
AcDbEntity
  8
00_РАМКА
100
AcDbLine
 10
44000.0
 20
-20600.0
 30
0.0
 11
44000.0
 21
-35000.0
 31
0.0
  0
TEXT
  5
1A5
330
17
100
AcDbEntity
  8
08_ТЕКСТ
100
AcDbText
 10
300.0
 20
-21200.0
 30
0.0
 40
560.0
  1
№
  7
ГОСТ
 11
300.0
 21
-21200.0
 31
0.0
100
AcDbText
 73
2
  0
TEXT
  5
1A6
330
17
100
AcDbEntity
  8
08_ТЕКСТ
100
AcDbText
 10
2700.0
 20
-21200.0
 30
0.0
 40
560.0
  1
Наименование помещения
  7
ГОСТ
 11
2700.0
 21
-21200.0
 31
0.0
100
AcDbText
 73
2
  0
TEXT
  5
1A7
330
17
100
AcDbEntity
  8
08_ТЕКСТ
100
AcDbText
 10
24300.0
 20
-21200.0
 30
0.0
 40
560.0
  1
Площадь, м2
  7
ГОСТ
 11
24300.0
 21
-21200.0
 31
0.0
100
AcDbText
 73
2
  0
TEXT
  5
1A8
330
17
100
AcDbEntity
  8
08_ТЕКСТ
100
AcDbText
 10
29500.0
 20
-21200.0
 30
0.0
 40
560.0
  1
Мест
  7
ГОСТ
 11
29500.0
 21
-21200.0
 31
0.0
100
AcDbText
 73
2
  0
TEXT
  5
1A9
330
17
100
AcDbEntity
  8
08_ТЕКСТ
100
AcDbText
 10
33100.0
 20
-21200.0
 30
0.0
 40
560.0
  1
Шпангоуты
  7
ГОСТ
 11
33100.0
 21
-21200.0
 31
0.0
100
AcDbText
 73
2
  0
TEXT
  5
1AA
330
17
100
AcDbEntity
  8
08_ТЕКСТ
100
AcDbText
 10
38300.0
 20
-21200.0
 30
0.0
 40
560.0
  1
x, м
  7
ГОСТ
 11
38300.0
 21
-21200.0
 31
0.0
100
AcDbText
 73
2
  0
TEXT
  5
1AB
330
17
100
AcDbEntity
  8
08_ТЕКСТ
100
AcDbText
 10
300.0
 20
-22400.0
 30
0.0
 40
500.0
  1
1
  7
ГОСТ
 11
300.0
 21
-22400.0
 31
0.0
100
AcDbText
 73
2
  0
TEXT
  5
1AC
330
17
100
AcDbEntity
  8
08_ТЕКСТ
100
AcDbText
 10
2700.0
 20
-22400.0
 30
0.0
 40
500.0
  1
Ахтерпик и румпельное отделение
  7
ГОСТ
 11
2700.0
 21
-22400.0
 31
0.0
100
AcDbText
 73
2
  0
TEXT
  5
1AD
330
17
100
AcDbEntity
  8
08_ТЕКСТ
100
AcDbText
 10
24300.0
 20
-22400.0
 30
0.0
 40
500.0
  1
—
  7
ГОСТ
 11
24300.0
 21
-22400.0
 31
0.0
100
AcDbText
 73
2
  0
TEXT
  5
1AE
330
17
100
AcDbEntity
  8
08_ТЕКСТ
100
AcDbText
 10
29500.0
 20
-22400.0
 30
0.0
 40
500.0
  1
—
  7
ГОСТ
 11
29500.0
 21
-22400.0
 31
0.0
100
AcDbText
 73
2
  0
TEXT
  5
1AF
330
17
100
AcDbEntity
  8
08_ТЕКСТ
100
AcDbText
 10
33100.0
 20
-22400.0
 30
0.0
 40
500.0
  1
4…17
  7
ГОСТ
 11
33100.0
 21
-22400.0
 31
0.0
100
AcDbText
 73
2
  0
TEXT
  5
1B0
330
17
100
AcDbEntity
  8
08_ТЕКСТ
100
AcDbText
 10
38300.0
 20
-22400.0
 30
0.0
 40
500.0
  1
2.0…9.5
  7
ГОСТ
 11
38300.0
 21
-22400.0
 31
0.0
100
AcDbText
 73
2
  0
TEXT
  5
1B1
330
17
100
AcDbEntity
  8
08_ТЕКСТ
100
AcDbText
 10
300.0
 20
-23600.0
 30
0.0
 40
500.0
  1
2
  7
ГОСТ
 11
300.0
 21
-23600.0
 31
0.0
100
AcDbText
 73
2
  0
TEXT
  5
1B2
330
17
100
AcDbEntity
  8
08_ТЕКСТ
100
AcDbText
 10
2700.0
 20
-23600.0
 30
0.0
 40
500.0
  1
Помещение кормового ПУ
  7
ГОСТ
 11
2700.0
 21
-23600.0
 31
0.0
100
AcDbText
 73
2
  0
TEXT
  5
1B3
330
17
100
AcDbEntity
  8
08_ТЕКСТ
100
AcDbText
 10
24300.0
 20
-23600.0
 30
0.0
 40
500.0
  1
—
  7
ГОСТ
 11
24300.0
 21
-23600.0
 31
0.0
100
AcDbText
 73
2
  0
TEXT
  5
1B4
330
17
100
AcDbEntity
  8
08_ТЕКСТ
100
AcDbText
 10
29500.0
 20
-23600.0
 30
0.0
 40
500.0
  1
—
  7
ГОСТ
 11
29500.0
 21
-23600.0
 31
0.0
100
AcDbText
 73
2
  0
TEXT
  5
1B5
330
17
100
AcDbEntity
  8
08_ТЕКСТ
100
AcDbText
 10
33100.0
 20
-23600.0
 30
0.0
 40
500.0
  1
17…22
  7
ГОСТ
 11
33100.0
 21
-23600.0
 31
0.0
100
AcDbText
 73
2
  0
TEXT
  5
1B6
330
17
100
AcDbEntity
  8
08_ТЕКСТ
100
AcDbText
 10
38300.0
 20
-23600.0
 30
0.0
 40
500.0
  1
9.5…12.0
  7
ГОСТ
 11
38300.0
 21
-23600.0
 31
0.0
100
AcDbText
 73
2
  0
TEXT
  5
1B7
330
17
100
AcDbEntity
  8
08_ТЕКСТ
100
AcDbText
 10
300.0
 20
-24800.0
 30
0.0
 40
500.0
  1
3
  7
ГОСТ
 11
300.0
 21
-24800.0
 31
0.0
100
AcDbText
 73
2
  0
TEXT
  5
1B8
330
17
100
AcDbEntity
  8
08_ТЕКСТ
100
AcDbText
 10
2700.0
 20
-24800.0
 30
0.0
 40
500.0
  1
Машинное отделение, 3 ГДГ по 1600 кВт
  7
ГОСТ
 11
2700.0
 21
-24800.0
 31
0.0
100
AcDbText
 73
2
  0
TEXT
  5
1B9
330
17
100
AcDbEntity
  8
08_ТЕКСТ
100
AcDbText
 10
24300.0
 20
-24800.0
 30
0.0
 40
500.0
  1
—
  7
ГОСТ
 11
24300.0
 21
-24800.0
 31
0.0
100
AcDbText
 73
2
  0
TEXT
  5
1BA
330
17
100
AcDbEntity
  8
08_ТЕКСТ
100
AcDbText
 10
29500.0
 20
-24800.0
 30
0.0
 40
500.0
  1
—
  7
ГОСТ
 11
29500.0
 21
-24800.0
 31
0.0
100
AcDbText
 73
2
  0
TEXT
  5
1BB
330
17
100
AcDbEntity
  8
08_ТЕКСТ
100
AcDbText
 10
33100.0
 20
-24800.0
 30
0.0
 40
500.0
  1
22…55
  7
ГОСТ
 11
33100.0
 21
-24800.0
 31
0.0
100
AcDbText
 73
2
  0
TEXT
  5
1BC
330
17
100
AcDbEntity
  8
08_ТЕКСТ
100
AcDbText
 10
38300.0
 20
-24800.0
 30
0.0
 40
500.0
  1
12.0…30.0
  7
ГОСТ
 11
38300.0
 21
-24800.0
 31
0.0
100
AcDbText
 73
2
  0
TEXT
  5
1BD
330
17
100
AcDbEntity
  8
08_ТЕКСТ
100
AcDbText
 10
300.0
 20
-26000.0
 30
0.0
 40
500.0
  1
4
  7
ГОСТ
 11
300.0
 21
-26000.0
 31
0.0
100
AcDbText
 73
2
  0
TEXT
  5
1BE
330
17
100
AcDbEntity
  8
08_ТЕКСТ
100
AcDbText
 10
2700.0
 20
-26000.0
 30
0.0
 40
500.0
  1
Электростанция, ГРЩ, батареи 600 кВт·ч
  7
ГОСТ
 11
2700.0
 21
-26000.0
 31
0.0
100
AcDbText
 73
2
  0
TEXT
  5
1BF
330
17
100
AcDbEntity
  8
08_ТЕКСТ
100
AcDbText
 10
24300.0
 20
-26000.0
 30
0.0
 40
500.0
  1
—
  7
ГОСТ
 11
24300.0
 21
-26000.0
 31
0.0
100
AcDbText
 73
2
  0
TEXT
  5
1C0
330
17
100
AcDbEntity
  8
08_ТЕКСТ
100
AcDbText
 10
29500.0
 20
-26000.0
 30
0.0
 40
500.0
  1
—
  7
ГОСТ
 11
29500.0
 21
-26000.0
 31
0.0
100
AcDbText
 73
2
  0
TEXT
  5
1C1
330
17
100
AcDbEntity
  8
08_ТЕКСТ
100
AcDbText
 10
33100.0
 20
-26000.0
 30
0.0
 40
500.0
  1
55…62
  7
ГОСТ
 11
33100.0
 21
-26000.0
 31
0.0
100
AcDbText
 73
2
  0
TEXT
  5
1C2
330
17
100
AcDbEntity
  8
08_ТЕКСТ
100
AcDbText
 10
38300.0
 20
-26000.0
 30
0.0
 40
500.0
  1
30.0…34.0
  7
ГОСТ
 11
38300.0
 21
-26000.0
 31
0.0
100
AcDbText
 73
2
  0
TEXT
  5
1C3
330
17
100
AcDbEntity
  8
08_ТЕКСТ
100
AcDbText
 10
300.0
 20
-27200.0
 30
0.0
 40
500.0
  1
5
  7
ГОСТ
 11
300.0
 21
-27200.0
 31
0.0
100
AcDbText
 73
2
  0
TEXT
  5
1C4
330
17
100
AcDbEntity
  8
08_ТЕКСТ
100
AcDbText
 10
2700.0
 20
-27200.0
 30
0.0
 40
500.0
  1
Кормовой трап-холл и лифт
  7
ГОСТ
 11
2700.0
 21
-27200.0
 31
0.0
100
AcDbText
 73
2
  0
TEXT
  5
1C5
330
17
100
AcDbEntity
  8
08_ТЕКСТ
100
AcDbText
 10
24300.0
 20
-27200.0
 30
0.0
 40
500.0
  1
—
  7
ГОСТ
 11
24300.0
 21
-27200.0
 31
0.0
100
AcDbText
 73
2
  0
TEXT
  5
1C6
330
17
100
AcDbEntity
  8
08_ТЕКСТ
100
AcDbText
 10
29500.0
 20
-27200.0
 30
0.0
 40
500.0
  1
—
  7
ГОСТ
 11
29500.0
 21
-27200.0
 31
0.0
100
AcDbText
 73
2
  0
TEXT
  5
1C7
330
17
100
AcDbEntity
  8
08_ТЕКСТ
100
AcDbText
 10
33100.0
 20
-27200.0
 30
0.0
 40
500.0
  1
62…72
  7
ГОСТ
 11
33100.0
 21
-27200.0
 31
0.0
100
AcDbText
 73
2
  0
TEXT
  5
1C8
330
17
100
AcDbEntity
  8
08_ТЕКСТ
100
AcDbText
 10
38300.0
 20
-27200.0
 30
0.0
 40
500.0
  1
34.0…39.6
  7
ГОСТ
 11
38300.0
 21
-27200.0
 31
0.0
100
AcDbText
 73
2
  0
TEXT
  5
1C9
330
17
100
AcDbEntity
  8
08_ТЕКСТ
100
AcDbText
 10
300.0
 20
-28400.0
 30
0.0
 40
500.0
  1
6
  7
ГОСТ
 11
300.0
 21
-28400.0
 31
0.0
100
AcDbText
 73
2
  0
TEXT
  5
1CA
330
17
100
AcDbEntity
  8
08_ТЕКСТ
100
AcDbText
 10
2700.0
 20
-28400.0
 30
0.0
 40
500.0
  1
Камбуз и хлебопекарня
  7
ГОСТ
 11
2700.0
 21
-28400.0
 31
0.0
100
AcDbText
 73
2
  0
TEXT
  5
1CB
330
17
100
AcDbEntity
  8
08_ТЕКСТ
100
AcDbText
 10
24300.0
 20
-28400.0
 30
0.0
 40
500.0
  1
125
  7
ГОСТ
 11
24300.0
 21
-28400.0
 31
0.0
100
AcDbText
 73
2
  0
TEXT
  5
1CC
330
17
100
AcDbEntity
  8
08_ТЕКСТ
100
AcDbText
 10
29500.0
 20
-28400.0
 30
0.0
 40
500.0
  1
160
  7
ГОСТ
 11
29500.0
 21
-28400.0
 31
0.0
100
AcDbText
 73
2
  0
TEXT
  5
1CD
330
17
100
AcDbEntity
  8
08_ТЕКСТ
100
AcDbText
 10
33100.0
 20
-28400.0
 30
0.0
 40
500.0
  1
72…86
  7
ГОСТ
 11
33100.0
 21
-28400.0
 31
0.0
100
AcDbText
 73
2
  0
TEXT
  5
1CE
330
17
100
AcDbEntity
  8
08_ТЕКСТ
100
AcDbText
 10
38300.0
 20
-28400.0
 30
0.0
 40
500.0
  1
39.6…47.5
  7
ГОСТ
 11
38300.0
 21
-28400.0
 31
0.0
100
AcDbText
 73
2
  0
TEXT
  5
1CF
330
17
100
AcDbEntity
  8
08_ТЕКСТ
100
AcDbText
 10
300.0
 20
-29600.0
 30
0.0
 40
500.0
  1
7
  7
ГОСТ
 11
300.0
 21
-29600.0
 31
0.0
100
AcDbText
 73
2
  0
TEXT
  5
1D0
330
17
100
AcDbEntity
  8
08_ТЕКСТ
100
AcDbText
 10
2700.0
 20
-29600.0
 30
0.0
 40
500.0
  1
Провизионные склады и холодильные камеры
  7
ГОСТ
 11
2700.0
 21
-29600.0
 31
0.0
100
AcDbText
 73
2
  0
TEXT
  5
1D1
330
17
100
AcDbEntity
  8
08_ТЕКСТ
100
AcDbText
 10
24300.0
 20
-29600.0
 30
0.0
 40
500.0
  1
87
  7
ГОСТ
 11
24300.0
 21
-29600.0
 31
0.0
100
AcDbText
 73
2
  0
TEXT
  5
1D2
330
17
100
AcDbEntity
  8
08_ТЕКСТ
100
AcDbText
 10
29500.0
 20
-29600.0
 30
0.0
 40
500.0
  1
110
  7
ГОСТ
 11
29500.0
 21
-29600.0
 31
0.0
100
AcDbText
 73
2
  0
TEXT
  5
1D3
330
17
100
AcDbEntity
  8
08_ТЕКСТ
100
AcDbText
 10
33100.0
 20
-29600.0
 30
0.0
 40
500.0
  1
86…96
  7
ГОСТ
 11
33100.0
 21
-29600.0
 31
0.0
100
AcDbText
 73
2
  0
TEXT
  5
1D4
330
17
100
AcDbEntity
  8
08_ТЕКСТ
100
AcDbText
 10
38300.0
 20
-29600.0
 30
0.0
 40
500.0
  1
47.5…53.0
  7
ГОСТ
 11
38300.0
 21
-29600.0
 31
0.0
100
AcDbText
 73
2
  0
TEXT
  5
1D5
330
17
100
AcDbEntity
  8
08_ТЕКСТ
100
AcDbText
 10
300.0
 20
-30800.0
 30
0.0
 40
500.0
  1
8
  7
ГОСТ
 11
300.0
 21
-30800.0
 31
0.0
100
AcDbText
 73
2
  0
TEXT
  5
1D6
330
17
100
AcDbEntity
  8
08_ТЕКСТ
100
AcDbText
 10
2700.0
 20
-30800.0
 30
0.0
 40
500.0
  1
Прачечная и мусорная станция
  7
ГОСТ
 11
2700.0
 21
-30800.0
 31
0.0
100
AcDbText
 73
2
  0
TEXT
  5
1D7
330
17
100
AcDbEntity
  8
08_ТЕКСТ
100
AcDbText
 10
24300.0
 20
-30800.0
 30
0.0
 40
500.0
  1
55
  7
ГОСТ
 11
24300.0
 21
-30800.0
 31
0.0
100
AcDbText
 73
2
  0
TEXT
  5
1D8
330
17
100
AcDbEntity
  8
08_ТЕКСТ
100
AcDbText
 10
29500.0
 20
-30800.0
 30
0.0
 40
500.0
  1
80
  7
ГОСТ
 11
29500.0
 21
-30800.0
 31
0.0
100
AcDbText
 73
2
  0
TEXT
  5
1D9
330
17
100
AcDbEntity
  8
08_ТЕКСТ
100
AcDbText
 10
33100.0
 20
-30800.0
 30
0.0
 40
500.0
  1
96…103
  7
ГОСТ
 11
33100.0
 21
-30800.0
 31
0.0
100
AcDbText
 73
2
  0
TEXT
  5
1DA
330
17
100
AcDbEntity
  8
08_ТЕКСТ
100
AcDbText
 10
38300.0
 20
-30800.0
 30
0.0
 40
500.0
  1
53.0…56.5
  7
ГОСТ
 11
38300.0
 21
-30800.0
 31
0.0
100
AcDbText
 73
2
  0
TEXT
  5
1DB
330
17
100
AcDbEntity
  8
08_ТЕКСТ
100
AcDbText
 10
300.0
 20
-32000.0
 30
0.0
 40
500.0
  1
9
  7
ГОСТ
 11
300.0
 21
-32000.0
 31
0.0
100
AcDbText
 73
2
  0
TEXT
  5
1DC
330
17
100
AcDbEntity
  8
08_ТЕКСТ
100
AcDbText
 10
2700.0
 20
-32000.0
 30
0.0
 40
500.0
  1
Кают-компания и комната отдыха экипажа
  7
ГОСТ
 11
2700.0
 21
-32000.0
 31
0.0
100
AcDbText
 73
2
  0
TEXT
  5
1DD
330
17
100
AcDbEntity
  8
08_ТЕКСТ
100
AcDbText
 10
24300.0
 20
-32000.0
 30
0.0
 40
500.0
  1
54
  7
ГОСТ
 11
24300.0
 21
-32000.0
 31
0.0
100
AcDbText
 73
2
  0
TEXT
  5
1DE
330
17
100
AcDbEntity
  8
08_ТЕКСТ
100
AcDbText
 10
29500.0
 20
-32000.0
 30
0.0
 40
500.0
  1
75
  7
ГОСТ
 11
29500.0
 21
-32000.0
 31
0.0
100
AcDbText
 73
2
  0
TEXT
  5
1DF
330
17
100
AcDbEntity
  8
08_ТЕКСТ
100
AcDbText
 10
33100.0
 20
-32000.0
 30
0.0
 40
500.0
  1
103…109
  7
ГОСТ
 11
33100.0
 21
-32000.0
 31
0.0
100
AcDbText
 73
2
  0
TEXT
  5
1E0
330
17
100
AcDbEntity
  8
08_ТЕКСТ
100
AcDbText
 10
38300.0
 20
-32000.0
 30
0.0
 40
500.0
  1
56.5…59.9
  7
ГОСТ
 11
38300.0
 21
-32000.0
 31
0.0
100
AcDbText
 73
2
  0
TEXT
  5
1E1
330
17
100
AcDbEntity
  8
08_ТЕКСТ
100
AcDbText
 10
300.0
 20
-33200.0
 30
0.0
 40
500.0
  1
10
  7
ГОСТ
 11
300.0
 21
-33200.0
 31
0.0
100
AcDbText
 73
2
  0
TEXT
  5
1E2
330
17
100
AcDbEntity
  8
08_ТЕКСТ
100
AcDbText
 10
2700.0
 20
-33200.0
 30
0.0
 40
500.0
  1
Каюты эконом и каюты экипажа
  7
ГОСТ
 11
2700.0
 21
-33200.0
 31
0.0
100
AcDbText
 73
2
  0
TEXT
  5
1E3
330
17
100
AcDbEntity
  8
08_ТЕКСТ
100
AcDbText
 10
24300.0
 20
-33200.0
 30
0.0
 40
500.0
  1
—
  7
ГОСТ
 11
24300.0
 21
-33200.0
 31
0.0
100
AcDbText
 73
2
  0
TEXT
  5
1E4
330
17
100
AcDbEntity
  8
08_ТЕКСТ
100
AcDbText
 10
29500.0
 20
-33200.0
 30
0.0
 40
500.0
  1
—
  7
ГОСТ
 11
29500.0
 21
-33200.0
 31
0.0
100
AcDbText
 73
2
  0
TEXT
  5
1E5
330
17
100
AcDbEntity
  8
08_ТЕКСТ
100
AcDbText
 10
33100.0
 20
-33200.0
 30
0.0
 40
500.0
  1
109…208
  7
ГОСТ
 11
33100.0
 21
-33200.0
 31
0.0
100
AcDbText
 73
2
  0
TEXT
  5
1E6
330
17
100
AcDbEntity
  8
08_ТЕКСТ
100
AcDbText
 10
38300.0
 20
-33200.0
 30
0.0
 40
500.0
  1
60.0…114.2
  7
ГОСТ
 11
38300.0
 21
-33200.0
 31
0.0
100
AcDbText
 73
2
  0
TEXT
  5
1E7
330
17
100
AcDbEntity
  8
08_ТЕКСТ
100
AcDbText
 10
300.0
 20
-34400.0
 30
0.0
 40
500.0
  1
11
  7
ГОСТ
 11
300.0
 21
-34400.0
 31
0.0
100
AcDbText
 73
2
  0
TEXT
  5
1E8
330
17
100
AcDbEntity
  8
08_ТЕКСТ
100
AcDbText
 10
2700.0
 20
-34400.0
 30
0.0
 40
500.0
  1
Форпик, цепной ящик, балластные цистерны
  7
ГОСТ
 11
2700.0
 21
-34400.0
 31
0.0
100
AcDbText
 73
2
  0
TEXT
  5
1E9
330
17
100
AcDbEntity
  8
08_ТЕКСТ
100
AcDbText
 10
24300.0
 20
-34400.0
 30
0.0
 40
500.0
  1
—
  7
ГОСТ
 11
24300.0
 21
-34400.0
 31
0.0
100
AcDbText
 73
2
  0
TEXT
  5
1EA
330
17
100
AcDbEntity
  8
08_ТЕКСТ
100
AcDbText
 10
29500.0
 20
-34400.0
 30
0.0
 40
500.0
  1
—
  7
ГОСТ
 11
29500.0
 21
-34400.0
 31
0.0
100
AcDbText
 73
2
  0
TEXT
  5
1EB
330
17
100
AcDbEntity
  8
08_ТЕКСТ
100
AcDbText
 10
33100.0
 20
-34400.0
 30
0.0
 40
500.0
  1
208…231
  7
ГОСТ
 11
33100.0
 21
-34400.0
 31
0.0
100
AcDbText
 73
2
  0
TEXT
  5
1EC
330
17
100
AcDbEntity
  8
08_ТЕКСТ
100
AcDbText
 10
38300.0
 20
-34400.0
 30
0.0
 40
500.0
  1
114.2…127.0
  7
ГОСТ
 11
38300.0
 21
-34400.0
 31
0.0
100
AcDbText
 73
2
  0
LWPOLYLINE
  5
1ED
330
17
100
AcDbEntity
  8
00_РАМКА
100
AcDbPolyline
 90
4
 70
1
 10
-12600.0
 20
-71100.0
 10
155600.0
 20
-71100.0
 10
155600.0
 20
47700.0
 10
-12600.0
 20
47700.0
  0
LWPOLYLINE
  5
1EE
330
17
100
AcDbEntity
  8
00_РАМКА
100
AcDbPolyline
 90
4
 70
1
 10
-8600.0
 20
-70100.0
 10
154600.0
 20
-70100.0
 10
154600.0
 20
46700.0
 10
-8600.0
 20
46700.0
  0
LWPOLYLINE
  5
1EF
330
17
100
AcDbEntity
  8
00_РАМКА
100
AcDbPolyline
 90
4
 70
1
 10
117600.0
 20
-70100.0
 10
154600.0
 20
-70100.0
 10
154600.0
 20
-59100.0
 10
117600.0
 20
-59100.0
  0
LINE
  5
1F0
330
17
100
AcDbEntity
  8
00_РАМКА
100
AcDbLine
 10
117600.0
 20
-67700.0
 30
0.0
 11
154600.0
 21
-67700.0
 31
0.0
  0
LINE
  5
1F1
330
17
100
AcDbEntity
  8
00_РАМКА
100
AcDbLine
 10
117600.0
 20
-65300.0
 30
0.0
 11
154600.0
 21
-65300.0
 31
0.0
  0
LINE
  5
1F2
330
17
100
AcDbEntity
  8
00_РАМКА
100
AcDbLine
 10
117600.0
 20
-62900.0
 30
0.0
 11
154600.0
 21
-62900.0
 31
0.0
  0
LINE
  5
1F3
330
17
100
AcDbEntity
  8
00_РАМКА
100
AcDbLine
 10
141600.0
 20
-70100.0
 30
0.0
 11
141600.0
 21
-62900.0
 31
0.0
  0
TEXT
  5
1F4
330
17
100
AcDbEntity
  8
08_ТЕКСТ
100
AcDbText
 10
118200.0
 20
-61000.0
 30
0.0
 40
1000.0
  1
Первая палуба. План
  7
ГОСТ
 11
118200.0
 21
-61000.0
 31
0.0
100
AcDbText
 73
2
  0
TEXT
  5
1F5
330
17
100
AcDbEntity
  8
08_ТЕКСТ
100
AcDbText
 10
118200.0
 20
-64100.0
 30
0.0
 40
500.0
  1
Волжский Горизонт · L = 139,0 м · B = 16,5 м · T = 2.27 м
  7
ГОСТ
 11
118200.0
 21
-64100.0
 31
0.0
100
AcDbText
 73
2
  0
TEXT
  5
1F6
330
17
100
AcDbEntity
  8
08_ТЕКСТ
100
AcDbText
 10
118200.0
 20
-66500.0
 30
0.0
 40
900.0
  1
ВГ-2026 ярус 1 первая палуба
  7
ГОСТ
 11
118200.0
 21
-66500.0
 31
0.0
100
AcDbText
 73
2
  0
TEXT
  5
1F7
330
17
100
AcDbEntity
  8
08_ТЕКСТ
100
AcDbText
 10
142200.0
 20
-66500.0
 30
0.0
 40
700.0
  1
Масштаб 1 : 200
  7
ГОСТ
 11
142200.0
 21
-66500.0
 31
0.0
100
AcDbText
 73
2
  0
TEXT
  5
1F8
330
17
100
AcDbEntity
  8
08_ТЕКСТ
100
AcDbText
 10
118200.0
 20
-68900.0
 30
0.0
 40
500.0
  1
Сталь 09Г2С ГОСТ 19281-2014
  7
ГОСТ
 11
118200.0
 21
-68900.0
 31
0.0
100
AcDbText
 73
2
  0
TEXT
  5
1F9
330
17
100
AcDbEntity
  8
08_ТЕКСТ
100
AcDbText
 10
142200.0
 20
-68900.0
 30
0.0
 40
600.0
  1
Формат A1
  7
ГОСТ
 11
142200.0
 21
-68900.0
 31
0.0
100
AcDbText
 73
2
  0
TEXT
  5
1FA
330
17
100
AcDbEntity
  8
08_ТЕКСТ
100
AcDbText
 10
118200.0
 20
-58300.0
 30
0.0
 40
600.0
  1
УЖЦ ОСК 2026 · «Волжский Горизонт»
  7
ГОСТ
 11
118200.0
 21
-58300.0
 31
0.0
100
AcDbText
 73
2
  0
TEXT
  5
1FB
330
17
100
AcDbEntity
  8
08_ТЕКСТ
100
AcDbText
 10
118200.0
 20
-53900.0
 30
0.0
 40
500.0
  1
1. Уровень палубы z = 1.45 м от основной плоскости. Кают на ярусе — 59.
  7
ГОСТ
 11
118200.0
 21
-53900.0
 31
0.0
100
AcDbText
 73
2
  0
TEXT
  5
1FC
330
17
100
AcDbEntity
  8
08_ТЕКСТ
100
AcDbText
 10
118200.0
 20
-54900.0
 30
0.0
 40
500.0
  1
2. Размеры в миллиметрах, ось x — от кормового перпендикуляра.
  7
ГОСТ
 11
118200.0
 21
-54900.0
 31
0.0
100
AcDbText
 73
2
  0
TEXT
  5
1FD
330
17
100
AcDbEntity
  8
08_ТЕКСТ
100
AcDbText
 10
118200.0
 20
-55900.0
 30
0.0
 40
500.0
  1
3. Красные линии — водонепроницаемые переборки, цифра — абсцисса, м.
  7
ГОСТ
 11
118200.0
 21
-55900.0
 31
0.0
100
AcDbText
 73
2
  0
TEXT
  5
1FE
330
17
100
AcDbEntity
  8
08_ТЕКСТ
100
AcDbText
 10
118200.0
 20
-56900.0
 30
0.0
 40
500.0
  1
4. Ширина коридоров в свету 1400 мм, дверных проёмов 900 мм.
  7
ГОСТ
 11
118200.0
 21
-56900.0
 31
0.0
100
AcDbText
 73
2
  0
TEXT
  5
1FF
330
17
100
AcDbEntity
  8
08_ТЕКСТ
100
AcDbText
 10
118200.0
 20
-52600.0
 30
0.0
 40
700.0
  1
Технические требования
  7
ГОСТ
 11
118200.0
 21
-52600.0
 31
0.0
100
AcDbText
 73
2
  0
ENDSEC
  0
SECTION
  2
OBJECTS
  0
DICTIONARY
  5
A
330
0
100
AcDbDictionary
281
1
  3
ACAD_COLOR
350
B
  3
ACAD_GROUP
350
C
  3
ACAD_LAYOUT
350
D
  3
ACAD_MATERIAL
350
E
  3
ACAD_MLEADERSTYLE
350
F
  3
ACAD_MLINESTYLE
350
10
  3
ACAD_PLOTSETTINGS
350
11
  3
ACAD_PLOTSTYLENAME
350
12
  3
ACAD_SCALELIST
350
14
  3
ACAD_TABLESTYLE
350
15
  3
ACAD_VISUALSTYLE
350
16
  3
EZDXF_META
350
2D
  0
DICTIONARY
  5
B
330
A
100
AcDbDictionary
281
1
  0
DICTIONARY
  5
C
330
A
100
AcDbDictionary
281
1
  0
DICTIONARY
  5
D
330
A
100
AcDbDictionary
281
1
  3
Model
350
1A
  3
Layout1
350
1E
  0
DICTIONARY
  5
E
330
A
100
AcDbDictionary
281
1
  3
ByBlock
350
1F
  3
ByLayer
350
20
  3
Global
350
21
  0
DICTIONARY
  5
F
330
A
100
AcDbDictionary
281
1
  3
Standard
350
2C
  0
DICTIONARY
  5
10
330
A
100
AcDbDictionary
281
1
  3
Standard
350
22
  0
DICTIONARY
  5
11
330
A
100
AcDbDictionary
281
1
  0
ACDBDICTIONARYWDFLT
  5
12
330
A
100
AcDbDictionary
281
1
  3
Normal
350
13
100
AcDbDictionaryWithDefault
340
13
  0
ACDBPLACEHOLDER
  5
13
330
12
  0
DICTIONARY
  5
14
330
A
100
AcDbDictionary
281
1
  0
DICTIONARY
  5
15
330
A
100
AcDbDictionary
281
1
  0
DICTIONARY
  5
16
330
A
100
AcDbDictionary
281
1
  3
2dWireframe
350
5A
  3
Basic
350
5B
  3
Brighten
350
5C
  3
ColorChange
350
5D
  3
Conceptual
350
5E
  3
Dim
350
5F
  3
EdgeColorOff
350
60
  3
Facepattern
350
61
  3
Flat
350
62
  3
FlatWithEdges
350
63
  3
Gouraud
350
64
  3
GouraudWithEdges
350
65
  3
Hidden
350
66
  3
JitterOff
350
67
  3
Linepattern
350
68
  3
Modeling
350
69
  3
OverhangOff
350
6A
  3
Realistic
350
6B
  3
Shaded
350
6C
  3
Shaded with edges
350
6D
  3
Shades of Gray
350
6E
  3
Sketchy
350
6F
  3
Thicken
350
70
  3
Wireframe
350
71
  3
X-Ray
350
72
  0
LAYOUT
  5
1A
330
D
100
AcDbPlotSettings
  1

  4
A3
  6

 40
7.5
 41
20.0
 42
7.5
 43
20.0
 44
420.0
 45
297.0
 46
0.0
 47
0.0
 48
0.0
 49
0.0
140
0.0
141
0.0
142
1.0
143
1.0
 70
1024
 72
1
 73
0
 74
5
  7

 75
16
 76
0
 77
2
 78
300
147
1.0
148
0.0
149
0.0
100
AcDbLayout
  1
Model
 70
1
 71
0
 10
0.0
 20
0.0
 11
420.0
 21
297.0
 12
0.0
 22
0.0
 32
0.0
 14
1e+20
 24
1e+20
 34
1e+20
 15
-1e+20
 25
-1e+20
 35
-1e+20
146
0.0
 13
0.0
 23
0.0
 33
0.0
 16
1.0
 26
0.0
 36
0.0
 17
0.0
 27
1.0
 37
0.0
 76
1
330
17
  0
LAYOUT
  5
1E
330
D
100
AcDbPlotSettings
  1

  4
A3
  6

 40
7.5
 41
20.0
 42
7.5
 43
20.0
 44
420.0
 45
297.0
 46
0.0
 47
0.0
 48
0.0
 49
0.0
140
0.0
141
0.0
142
1.0
143
1.0
 70
0
 72
1
 73
0
 74
5
  7

 75
16
 76
0
 77
2
 78
300
147
1.0
148
0.0
149
0.0
100
AcDbLayout
  1
Layout1
 70
1
 71
1
 10
0.0
 20
0.0
 11
420.0
 21
297.0
 12
0.0
 22
0.0
 32
0.0
 14
1e+20
 24
1e+20
 34
1e+20
 15
-1e+20
 25
-1e+20
 35
-1e+20
146
0.0
 13
0.0
 23
0.0
 33
0.0
 16
1.0
 26
0.0
 36
0.0
 17
0.0
 27
1.0
 37
0.0
 76
1
330
1B
  0
MATERIAL
  5
1F
102
{ACAD_REACTORS
330
E
102
}
330
E
100
AcDbMaterial
  1
ByBlock
  2

 70
0
 40
1.0
 71
1
 41
1.0
 91
-1023410177
 42
1.0
 72
1
  3

 73
1
 74
1
 75
1
 44
0.5
 73
0
 45
1.0
 46
1.0
 77
1
  4

 78
1
 79
1
170
1
 48
1.0
171
1
  6

172
1
173
1
174
1
140
1.0
141
1.0
175
1
  7

176
1
177
1
178
1
143
1.0
179
1
  8

270
1
271
1
272
1
145
1.0
146
1.0
273
1
  9

274
1
275
1
276
1
 42
1.0
 72
1
  3

 73
1
 74
1
 75
1
 94
63
  0
MATERIAL
  5
20
102
{ACAD_REACTORS
330
E
102
}
330
E
100
AcDbMaterial
  1
ByLayer
  2

 70
0
 40
1.0
 71
1
 41
1.0
 91
-1023410177
 42
1.0
 72
1
  3

 73
1
 74
1
 75
1
 44
0.5
 73
0
 45
1.0
 46
1.0
 77
1
  4

 78
1
 79
1
170
1
 48
1.0
171
1
  6

172
1
173
1
174
1
140
1.0
141
1.0
175
1
  7

176
1
177
1
178
1
143
1.0
179
1
  8

270
1
271
1
272
1
145
1.0
146
1.0
273
1
  9

274
1
275
1
276
1
 42
1.0
 72
1
  3

 73
1
 74
1
 75
1
 94
63
  0
MATERIAL
  5
21
102
{ACAD_REACTORS
330
E
102
}
330
E
100
AcDbMaterial
  1
Global
  2

 70
0
 40
1.0
 71
1
 41
1.0
 91
-1023410177
 42
1.0
 72
1
  3

 73
1
 74
1
 75
1
 44
0.5
 73
0
 45
1.0
 46
1.0
 77
1
  4

 78
1
 79
1
170
1
 48
1.0
171
1
  6

172
1
173
1
174
1
140
1.0
141
1.0
175
1
  7

176
1
177
1
178
1
143
1.0
179
1
  8

270
1
271
1
272
1
145
1.0
146
1.0
273
1
  9

274
1
275
1
276
1
 42
1.0
 72
1
  3

 73
1
 74
1
 75
1
 94
63
  0
MLINESTYLE
  5
22
102
{ACAD_REACTORS
330
10
102
}
330
10
100
AcDbMlineStyle
  2
Standard
 70
0
  3

 62
256
 51
90.0
 52
90.0
 71
2
 49
0.5
 62
256
  6
BYLAYER
 49
-0.5
 62
256
  6
BYLAYER
  0
MLEADERSTYLE
  5
2C
102
{ACAD_REACTORS
330
F
102
}
330
F
100
AcDbMLeaderStyle
179
2
170
2
171
1
172
0
 90
2
 40
0.0
 41
0.0
173
1
 91
-1056964608
 92
-2
290
1
 42
2.0
291
1
 43
8.0
  3
Standard
 44
4.0
300

342
29
174
1
175
1
176
0
178
1
 93
-1056964608
 45
4.0
292
0
297
0
 46
4.0
 94
-1056964608
 47
1.0
 49
1.0
140
1.0
294
1
141
0.0
177
0
142
1.0
295
0
296
0
143
3.75
271
0
272
9
273
9
  0
DICTIONARY
  5
2D
330
A
100
AcDbDictionary
280
1
281
1
  3
CREATED_BY_EZDXF
350
2E
  3
WRITTEN_BY_EZDXF
350
202
  0
DICTIONARYVAR
  5
2E
330
2D
100
DictionaryVariables
280
0
  1
1.4.4 @ 2026-09-20T23:05:29.475037+00:00
  0
VISUALSTYLE
  5
5A
102
{ACAD_REACTORS
330
16
102
}
330
16
100
AcDbVisualStyle
  2
2dWireframe
 70
4
177
3
291
0
 70
58
 90
2
176
1
 90
2
176
1
 90
0
176
1
 90
0
176
1
 40
0.6
176
1
 40
30.0
176
1
 62
7
420
16777215
176
1
 90
1
176
1
 90
4
176
1
 62
7
176
1
 62
257
176
1
 90
1
176
1
 90
1
176
1
 40
1.0
176
1
 90
8
176
1
 62
7
176
1
 40
1.0
176
1
 90
1
176
1
 90
6
176
1
 90
2
176
1
 62
7
176
1
 90
5
176
1
 90
0
176
1
 90
0
176
1
290
0
176
1
 90
1
176
1
 40
0.0
176
1
 90
0
176
1
290
1
176
1
290
1
176
1
290
0
176
1
290
0
176
1
290
0
176
1
290
0
176
1
290
0
176
1
290
0
176
1
290
0
176
1
 90
50
176
1
 40
0.0
176
1
 40
1.0
176
1
 90
0
176
1
 62
18
420
0
176
1
 90
50
176
1
 90
3
176
1
 62
5
420
255
176
1
290
0
176
1
 90
50
176
1
 90
50
176
1
 90
50
176
1
290
0
176
1
 90
50
176
1
 62
256
176
0
 40
1.0
176
0
 90
2
176
1
  1
strokes_ogs.tif
176
1
290
0
176
1
 40
1.0
176
1
 40
1.0
176
1
  0
VISUALSTYLE
  5
5B
102
{ACAD_REACTORS
330
16
102
}
330
16
100
AcDbVisualStyle
  2
Basic
 70
7
177
3
291
1
 70
58
 90
2
176
1
 90
2
176
1
 90
0
176
1
 90
1
176
1
 40
0.6
176
1
 40
30.0
176
1
 62
7
420
16777215
176
1
 90
1
176
1
 90
4
176
1
 62
7
176
1
 62
257
176
1
 90
1
176
1
 90
1
176
1
 40
1.0
176
1
 90
8
176
1
 62
7
176
1
 40
1.0
176
1
 90
1
176
1
 90
6
176
1
 90
2
176
1
 62
7
176
1
 90
5
176
1
 90
0
176
1
 90
0
176
1
290
0
176
1
 90
1
176
1
 40
0.0
176
1
 90
0
176
1
290
0
176
1
290
1
176
1
290
1
176
1
290
0
176
1
290
0
176
1
290
0
176
1
290
0
176
1
290
0
176
1
290
0
176
1
 90
50
176
1
 40
0.0
176
1
 40
1.0
176
1
 90
0
176
1
 62
18
420
0
176
1
 90
50
176
1
 90
3
176
1
 62
5
420
255
176
1
290
0
176
1
 90
50
176
1
 90
50
176
1
 90
50
176
1
290
0
176
1
 90
50
176
1
 62
256
176
0
 40
1.0
176
0
 90
2
176
1
  1
strokes_ogs.tif
176
1
290
0
176
1
 40
1.0
176
1
 40
1.0
176
1
  0
VISUALSTYLE
  5
5C
102
{ACAD_REACTORS
330
16
102
}
330
16
100
AcDbVisualStyle
  2
Brighten
 70
12
177
3
291
1
 70
58
 90
2
176
1
 90
2
176
1
 90
0
176
1
 90
2
176
1
 40
0.6
176
1
 40
30.0
176
1
 62
7
420
16777215
176
1
 90
1
176
1
 90
4
176
1
 62
7
176
1
 62
257
176
1
 90
1
176
1
 90
1
176
1
 40
1.0
176
1
 90
8
176
1
 62
7
176
1
 40
1.0
176
1
 90
1
176
1
 90
6
176
1
 90
2
176
1
 62
7
176
1
 90
5
176
1
 90
0
176
1
 90
0
176
1
290
0
176
1
 90
1
176
1
 40
0.0
176
1
 90
0
176
1
290
0
176
1
290
1
176
1
290
1
176
1
290
0
176
1
290
0
176
1
290
0
176
1
290
0
176
1
290
0
176
1
290
0
176
1
 90
50
176
1
 40
0.0
176
1
 40
1.0
176
1
 90
0
176
1
 62
18
420
0
176
1
 90
50
176
1
 90
3
176
1
 62
5
420
255
176
1
290
0
176
1
 90
50
176
1
 90
50
176
1
 90
50
176
1
290
0
176
1
 90
50
176
1
 62
256
176
0
 40
1.0
176
0
 90
2
176
1
  1
strokes_ogs.tif
176
1
290
0
176
1
 40
1.0
176
1
 40
1.0
176
1
  0
VISUALSTYLE
  5
5D
102
{ACAD_REACTORS
330
16
102
}
330
16
100
AcDbVisualStyle
  2
ColorChange
 70
16
177
3
291
1
 70
58
 90
2
176
1
 90
2
176
1
 90
0
176
1
 90
2
176
1
 40
0.6
176
1
 40
30.0
176
1
 62
7
420
16777215
176
1
 90
1
176
1
 90
4
176
1
 62
7
176
1
 62
257
176
1
 90
1
176
1
 90
1
176
1
 40
1.0
176
1
 90
8
176
1
 62
7
176
1
 40
1.0
176
1
 90
1
176
1
 90
6
176
1
 90
2
176
1
 62
7
176
1
 90
5
176
1
 90
0
176
1
 90
0
176
1
290
0
176
1
 90
1
176
1
 40
0.0
176
1
 90
0
176
1
290
0
176
1
290
1
176
1
290
1
176
1
290
0
176
1
290
0
176
1
290
0
176
1
290
0
176
1
290
0
176
1
290
0
176
1
 90
50
176
1
 40
0.0
176
1
 40
1.0
176
1
 90
0
176
1
 62
18
420
0
176
1
 90
50
176
1
 90
3
176
1
 62
5
420
255
176
1
290
0
176
1
 90
50
176
1
 90
50
176
1
 90
50
176
1
290
0
176
1
 90
50
176
1
 62
256
176
0
 40
1.0
176
0
 90
2
176
1
  1
strokes_ogs.tif
176
1
290
0
176
1
 40
1.0
176
1
 40
1.0
176
1
  0
VISUALSTYLE
  5
5E
102
{ACAD_REACTORS
330
16
102
}
330
16
100
AcDbVisualStyle
  2
Conceptual
 70
9
177
3
291
0
 70
58
 90
2
176
1
 90
2
176
1
 90
0
176
1
 90
3
176
1
 40
0.6
176
1
 40
30.0
176
1
 62
7
420
16777215
176
1
 90
1
176
1
 90
4
176
1
 62
7
176
1
 62
257
176
1
 90
1
176
1
 90
1
176
1
 40
1.0
176
1
 90
8
176
1
 62
7
176
1
 40
1.0
176
1
 90
1
176
1
 90
6
176
1
 90
2
176
1
 62
7
176
1
 90
5
176
1
 90
0
176
1
 90
0
176
1
290
0
176
1
 90
1
176
1
 40
0.0
176
1
 90
0
176
1
290
0
176
1
290
1
176
1
290
1
176
1
290
0
176
1
290
0
176
1
290
0
176
1
290
0
176
1
290
0
176
1
290
0
176
1
 90
50
176
1
 40
0.0
176
1
 40
1.0
176
1
 90
0
176
1
 62
18
420
0
176
1
 90
50
176
1
 90
3
176
1
 62
5
420
255
176
1
290
0
176
1
 90
50
176
1
 90
50
176
1
 90
50
176
1
290
0
176
1
 90
50
176
1
 62
256
176
0
 40
1.0
176
0
 90
2
176
1
  1
strokes_ogs.tif
176
1
290
0
176
1
 40
1.0
176
1
 40
1.0
176
1
  0
VISUALSTYLE
  5
5F
102
{ACAD_REACTORS
330
16
102
}
330
16
100
AcDbVisualStyle
  2
Dim
 70
11
177
3
291
1
 70
58
 90
2
176
1
 90
2
176
1
 90
0
176
1
 90
2
176
1
 40
0.6
176
1
 40
30.0
176
1
 62
7
420
16777215
176
1
 90
1
176
1
 90
4
176
1
 62
7
176
1
 62
257
176
1
 90
1
176
1
 90
1
176
1
 40
1.0
176
1
 90
8
176
1
 62
7
176
1
 40
1.0
176
1
 90
1
176
1
 90
6
176
1
 90
2
176
1
 62
7
176
1
 90
5
176
1
 90
0
176
1
 90
0
176
1
290
0
176
1
 90
1
176
1
 40
0.0
176
1
 90
0
176
1
290
0
176
1
290
1
176
1
290
1
176
1
290
0
176
1
290
0
176
1
290
0
176
1
290
0
176
1
290
0
176
1
290
0
176
1
 90
50
176
1
 40
0.0
176
1
 40
1.0
176
1
 90
0
176
1
 62
18
420
0
176
1
 90
50
176
1
 90
3
176
1
 62
5
420
255
176
1
290
0
176
1
 90
50
176
1
 90
50
176
1
 90
50
176
1
290
0
176
1
 90
50
176
1
 62
256
176
0
 40
1.0
176
0
 90
2
176
1
  1
strokes_ogs.tif
176
1
290
0
176
1
 40
1.0
176
1
 40
1.0
176
1
  0
VISUALSTYLE
  5
60
102
{ACAD_REACTORS
330
16
102
}
330
16
100
AcDbVisualStyle
  2
EdgeColorOff
 70
22
177
3
291
1
 70
58
 90
2
176
1
 90
2
176
1
 90
0
176
1
 90
2
176
1
 40
0.6
176
1
 40
30.0
176
1
 62
7
420
16777215
176
1
 90
1
176
1
 90
4
176
1
 62
7
176
1
 62
257
176
1
 90
1
176
1
 90
1
176
1
 40
1.0
176
1
 90
8
176
1
 62
7
176
1
 40
1.0
176
1
 90
1
176
1
 90
6
176
1
 90
2
176
1
 62
7
176
1
 90
5
176
1
 90
0
176
1
 90
0
176
1
290
0
176
1
 90
1
176
1
 40
0.0
176
1
 90
0
176
1
290
0
176
1
290
1
176
1
290
1
176
1
290
0
176
1
290
0
176
1
290
0
176
1
290
0
176
1
290
0
176
1
290
0
176
1
 90
50
176
1
 40
0.0
176
1
 40
1.0
176
1
 90
0
176
1
 62
18
420
0
176
1
 90
50
176
1
 90
3
176
1
 62
5
420
255
176
1
290
0
176
1
 90
50
176
1
 90
50
176
1
 90
50
176
1
290
0
176
1
 90
50
176
1
 62
256
176
0
 40
1.0
176
0
 90
2
176
1
  1
strokes_ogs.tif
176
1
290
0
176
1
 40
1.0
176
1
 40
1.0
176
1
  0
VISUALSTYLE
  5
61
102
{ACAD_REACTORS
330
16
102
}
330
16
100
AcDbVisualStyle
  2
Facepattern
 70
15
177
3
291
1
 70
58
 90
2
176
1
 90
2
176
1
 90
0
176
1
 90
2
176
1
 40
0.6
176
1
 40
30.0
176
1
 62
7
420
16777215
176
1
 90
1
176
1
 90
4
176
1
 62
7
176
1
 62
257
176
1
 90
1
176
1
 90
1
176
1
 40
1.0
176
1
 90
8
176
1
 62
7
176
1
 40
1.0
176
1
 90
1
176
1
 90
6
176
1
 90
2
176
1
 62
7
176
1
 90
5
176
1
 90
0
176
1
 90
0
176
1
290
0
176
1
 90
1
176
1
 40
0.0
176
1
 90
0
176
1
290
0
176
1
290
1
176
1
290
1
176
1
290
0
176
1
290
0
176
1
290
0
176
1
290
0
176
1
290
0
176
1
290
0
176
1
 90
50
176
1
 40
0.0
176
1
 40
1.0
176
1
 90
0
176
1
 62
18
420
0
176
1
 90
50
176
1
 90
3
176
1
 62
5
420
255
176
1
290
0
176
1
 90
50
176
1
 90
50
176
1
 90
50
176
1
290
0
176
1
 90
50
176
1
 62
256
176
0
 40
1.0
176
0
 90
2
176
1
  1
strokes_ogs.tif
176
1
290
0
176
1
 40
1.0
176
1
 40
1.0
176
1
  0
VISUALSTYLE
  5
62
102
{ACAD_REACTORS
330
16
102
}
330
16
100
AcDbVisualStyle
  2
Flat
 70
0
177
3
291
1
 70
58
 90
2
176
1
 90
2
176
1
 90
0
176
1
 90
2
176
1
 40
0.6
176
1
 40
30.0
176
1
 62
7
420
16777215
176
1
 90
1
176
1
 90
4
176
1
 62
7
176
1
 62
257
176
1
 90
1
176
1
 90
1
176
1
 40
1.0
176
1
 90
8
176
1
 62
7
176
1
 40
1.0
176
1
 90
1
176
1
 90
6
176
1
 90
2
176
1
 62
7
176
1
 90
5
176
1
 90
0
176
1
 90
0
176
1
290
0
176
1
 90
1
176
1
 40
0.0
176
1
 90
0
176
1
290
0
176
1
290
1
176
1
290
1
176
1
290
0
176
1
290
0
176
1
290
0
176
1
290
0
176
1
290
0
176
1
290
0
176
1
 90
50
176
1
 40
0.0
176
1
 40
1.0
176
1
 90
0
176
1
 62
18
420
0
176
1
 90
50
176
1
 90
3
176
1
 62
5
420
255
176
1
290
0
176
1
 90
50
176
1
 90
50
176
1
 90
50
176
1
290
0
176
1
 90
50
176
1
 62
256
176
0
 40
1.0
176
0
 90
2
176
1
  1
strokes_ogs.tif
176
1
290
0
176
1
 40
1.0
176
1
 40
1.0
176
1
  0
VISUALSTYLE
  5
63
102
{ACAD_REACTORS
330
16
102
}
330
16
100
AcDbVisualStyle
  2
FlatWithEdges
 70
1
177
3
291
1
 70
58
 90
2
176
1
 90
2
176
1
 90
0
176
1
 90
2
176
1
 40
0.6
176
1
 40
30.0
176
1
 62
7
420
16777215
176
1
 90
1
176
1
 90
4
176
1
 62
7
176
1
 62
257
176
1
 90
1
176
1
 90
1
176
1
 40
1.0
176
1
 90
8
176
1
 62
7
176
1
 40
1.0
176
1
 90
1
176
1
 90
6
176
1
 90
2
176
1
 62
7
176
1
 90
5
176
1
 90
0
176
1
 90
0
176
1
290
0
176
1
 90
1
176
1
 40
0.0
176
1
 90
0
176
1
290
0
176
1
290
1
176
1
290
1
176
1
290
0
176
1
290
0
176
1
290
0
176
1
290
0
176
1
290
0
176
1
290
0
176
1
 90
50
176
1
 40
0.0
176
1
 40
1.0
176
1
 90
0
176
1
 62
18
420
0
176
1
 90
50
176
1
 90
3
176
1
 62
5
420
255
176
1
290
0
176
1
 90
50
176
1
 90
50
176
1
 90
50
176
1
290
0
176
1
 90
50
176
1
 62
256
176
0
 40
1.0
176
0
 90
2
176
1
  1
strokes_ogs.tif
176
1
290
0
176
1
 40
1.0
176
1
 40
1.0
176
1
  0
VISUALSTYLE
  5
64
102
{ACAD_REACTORS
330
16
102
}
330
16
100
AcDbVisualStyle
  2
Gouraud
 70
2
177
3
291
1
 70
58
 90
2
176
1
 90
2
176
1
 90
0
176
1
 90
2
176
1
 40
0.6
176
1
 40
30.0
176
1
 62
7
420
16777215
176
1
 90
1
176
1
 90
4
176
1
 62
7
176
1
 62
257
176
1
 90
1
176
1
 90
1
176
1
 40
1.0
176
1
 90
8
176
1
 62
7
176
1
 40
1.0
176
1
 90
1
176
1
 90
6
176
1
 90
2
176
1
 62
7
176
1
 90
5
176
1
 90
0
176
1
 90
0
176
1
290
0
176
1
 90
1
176
1
 40
0.0
176
1
 90
0
176
1
290
0
176
1
290
1
176
1
290
1
176
1
290
0
176
1
290
0
176
1
290
0
176
1
290
0
176
1
290
0
176
1
290
0
176
1
 90
50
176
1
 40
0.0
176
1
 40
1.0
176
1
 90
0
176
1
 62
18
420
0
176
1
 90
50
176
1
 90
3
176
1
 62
5
420
255
176
1
290
0
176
1
 90
50
176
1
 90
50
176
1
 90
50
176
1
290
0
176
1
 90
50
176
1
 62
256
176
0
 40
1.0
176
0
 90
2
176
1
  1
strokes_ogs.tif
176
1
290
0
176
1
 40
1.0
176
1
 40
1.0
176
1
  0
VISUALSTYLE
  5
65
102
{ACAD_REACTORS
330
16
102
}
330
16
100
AcDbVisualStyle
  2
GouraudWithEdges
 70
3
177
3
291
1
 70
58
 90
2
176
1
 90
2
176
1
 90
0
176
1
 90
2
176
1
 40
0.6
176
1
 40
30.0
176
1
 62
7
420
16777215
176
1
 90
1
176
1
 90
4
176
1
 62
7
176
1
 62
257
176
1
 90
1
176
1
 90
1
176
1
 40
1.0
176
1
 90
8
176
1
 62
7
176
1
 40
1.0
176
1
 90
1
176
1
 90
6
176
1
 90
2
176
1
 62
7
176
1
 90
5
176
1
 90
0
176
1
 90
0
176
1
290
0
176
1
 90
1
176
1
 40
0.0
176
1
 90
0
176
1
290
0
176
1
290
1
176
1
290
1
176
1
290
0
176
1
290
0
176
1
290
0
176
1
290
0
176
1
290
0
176
1
290
0
176
1
 90
50
176
1
 40
0.0
176
1
 40
1.0
176
1
 90
0
176
1
 62
18
420
0
176
1
 90
50
176
1
 90
3
176
1
 62
5
420
255
176
1
290
0
176
1
 90
50
176
1
 90
50
176
1
 90
50
176
1
290
0
176
1
 90
50
176
1
 62
256
176
0
 40
1.0
176
0
 90
2
176
1
  1
strokes_ogs.tif
176
1
290
0
176
1
 40
1.0
176
1
 40
1.0
176
1
  0
VISUALSTYLE
  5
66
102
{ACAD_REACTORS
330
16
102
}
330
16
100
AcDbVisualStyle
  2
Hidden
 70
6
177
3
291
0
 70
58
 90
2
176
1
 90
2
176
1
 90
0
176
1
 90
1
176
1
 40
0.6
176
1
 40
30.0
176
1
 62
7
420
16777215
176
1
 90
1
176
1
 90
4
176
1
 62
7
176
1
 62
257
176
1
 90
1
176
1
 90
1
176
1
 40
1.0
176
1
 90
8
176
1
 62
7
176
1
 40
1.0
176
1
 90
1
176
1
 90
6
176
1
 90
2
176
1
 62
7
176
1
 90
5
176
1
 90
0
176
1
 90
0
176
1
290
0
176
1
 90
1
176
1
 40
0.0
176
1
 90
0
176
1
290
0
176
1
290
1
176
1
290
1
176
1
290
0
176
1
290
0
176
1
290
0
176
1
290
0
176
1
290
0
176
1
290
0
176
1
 90
50
176
1
 40
0.0
176
1
 40
1.0
176
1
 90
0
176
1
 62
18
420
0
176
1
 90
50
176
1
 90
3
176
1
 62
5
420
255
176
1
290
0
176
1
 90
50
176
1
 90
50
176
1
 90
50
176
1
290
0
176
1
 90
50
176
1
 62
256
176
0
 40
1.0
176
0
 90
2
176
1
  1
strokes_ogs.tif
176
1
290
0
176
1
 40
1.0
176
1
 40
1.0
176
1
  0
VISUALSTYLE
  5
67
102
{ACAD_REACTORS
330
16
102
}
330
16
100
AcDbVisualStyle
  2
JitterOff
 70
20
177
3
291
1
 70
58
 90
2
176
1
 90
2
176
1
 90
0
176
1
 90
2
176
1
 40
0.6
176
1
 40
30.0
176
1
 62
7
420
16777215
176
1
 90
1
176
1
 90
4
176
1
 62
7
176
1
 62
257
176
1
 90
1
176
1
 90
1
176
1
 40
1.0
176
1
 90
8
176
1
 62
7
176
1
 40
1.0
176
1
 90
1
176
1
 90
6
176
1
 90
2
176
1
 62
7
176
1
 90
5
176
1
 90
0
176
1
 90
0
176
1
290
0
176
1
 90
1
176
1
 40
0.0
176
1
 90
0
176
1
290
0
176
1
290
1
176
1
290
1
176
1
290
0
176
1
290
0
176
1
290
0
176
1
290
0
176
1
290
0
176
1
290
0
176
1
 90
50
176
1
 40
0.0
176
1
 40
1.0
176
1
 90
0
176
1
 62
18
420
0
176
1
 90
50
176
1
 90
3
176
1
 62
5
420
255
176
1
290
0
176
1
 90
50
176
1
 90
50
176
1
 90
50
176
1
290
0
176
1
 90
50
176
1
 62
256
176
0
 40
1.0
176
0
 90
2
176
1
  1
strokes_ogs.tif
176
1
290
0
176
1
 40
1.0
176
1
 40
1.0
176
1
  0
VISUALSTYLE
  5
68
102
{ACAD_REACTORS
330
16
102
}
330
16
100
AcDbVisualStyle
  2
Linepattern
 70
14
177
3
291
1
 70
58
 90
2
176
1
 90
2
176
1
 90
0
176
1
 90
2
176
1
 40
0.6
176
1
 40
30.0
176
1
 62
7
420
16777215
176
1
 90
1
176
1
 90
4
176
1
 62
7
176
1
 62
257
176
1
 90
1
176
1
 90
1
176
1
 40
1.0
176
1
 90
8
176
1
 62
7
176
1
 40
1.0
176
1
 90
1
176
1
 90
6
176
1
 90
2
176
1
 62
7
176
1
 90
5
176
1
 90
0
176
1
 90
0
176
1
290
0
176
1
 90
1
176
1
 40
0.0
176
1
 90
0
176
1
290
0
176
1
290
1
176
1
290
1
176
1
290
0
176
1
290
0
176
1
290
0
176
1
290
0
176
1
290
0
176
1
290
0
176
1
 90
50
176
1
 40
0.0
176
1
 40
1.0
176
1
 90
0
176
1
 62
18
420
0
176
1
 90
50
176
1
 90
3
176
1
 62
5
420
255
176
1
290
0
176
1
 90
50
176
1
 90
50
176
1
 90
50
176
1
290
0
176
1
 90
50
176
1
 62
256
176
0
 40
1.0
176
0
 90
2
176
1
  1
strokes_ogs.tif
176
1
290
0
176
1
 40
1.0
176
1
 40
1.0
176
1
  0
VISUALSTYLE
  5
69
102
{ACAD_REACTORS
330
16
102
}
330
16
100
AcDbVisualStyle
  2
Modeling
 70
10
177
3
291
0
 70
58
 90
2
176
1
 90
2
176
1
 90
0
176
1
 90
2
176
1
 40
0.6
176
1
 40
30.0
176
1
 62
7
420
16777215
176
1
 90
1
176
1
 90
4
176
1
 62
7
176
1
 62
257
176
1
 90
1
176
1
 90
1
176
1
 40
1.0
176
1
 90
8
176
1
 62
7
176
1
 40
1.0
176
1
 90
1
176
1
 90
6
176
1
 90
2
176
1
 62
7
176
1
 90
5
176
1
 90
0
176
1
 90
0
176
1
290
0
176
1
 90
1
176
1
 40
0.0
176
1
 90
0
176
1
290
0
176
1
290
1
176
1
290
1
176
1
290
0
176
1
290
0
176
1
290
0
176
1
290
0
176
1
290
0
176
1
290
0
176
1
 90
50
176
1
 40
0.0
176
1
 40
1.0
176
1
 90
0
176
1
 62
18
420
0
176
1
 90
50
176
1
 90
3
176
1
 62
5
420
255
176
1
290
0
176
1
 90
50
176
1
 90
50
176
1
 90
50
176
1
290
0
176
1
 90
50
176
1
 62
256
176
0
 40
1.0
176
0
 90
2
176
1
  1
strokes_ogs.tif
176
1
290
0
176
1
 40
1.0
176
1
 40
1.0
176
1
  0
VISUALSTYLE
  5
6A
102
{ACAD_REACTORS
330
16
102
}
330
16
100
AcDbVisualStyle
  2
OverhangOff
 70
21
177
3
291
1
 70
58
 90
2
176
1
 90
2
176
1
 90
0
176
1
 90
2
176
1
 40
0.6
176
1
 40
30.0
176
1
 62
7
420
16777215
176
1
 90
1
176
1
 90
4
176
1
 62
7
176
1
 62
257
176
1
 90
1
176
1
 90
1
176
1
 40
1.0
176
1
 90
8
176
1
 62
7
176
1
 40
1.0
176
1
 90
1
176
1
 90
6
176
1
 90
2
176
1
 62
7
176
1
 90
5
176
1
 90
0
176
1
 90
0
176
1
290
0
176
1
 90
1
176
1
 40
0.0
176
1
 90
0
176
1
290
0
176
1
290
1
176
1
290
1
176
1
290
0
176
1
290
0
176
1
290
0
176
1
290
0
176
1
290
0
176
1
290
0
176
1
 90
50
176
1
 40
0.0
176
1
 40
1.0
176
1
 90
0
176
1
 62
18
420
0
176
1
 90
50
176
1
 90
3
176
1
 62
5
420
255
176
1
290
0
176
1
 90
50
176
1
 90
50
176
1
 90
50
176
1
290
0
176
1
 90
50
176
1
 62
256
176
0
 40
1.0
176
0
 90
2
176
1
  1
strokes_ogs.tif
176
1
290
0
176
1
 40
1.0
176
1
 40
1.0
176
1
  0
VISUALSTYLE
  5
6B
102
{ACAD_REACTORS
330
16
102
}
330
16
100
AcDbVisualStyle
  2
Realistic
 70
8
177
3
291
0
 70
58
 90
2
176
1
 90
2
176
1
 90
0
176
1
 90
2
176
1
 40
0.6
176
1
 40
30.0
176
1
 62
7
420
16777215
176
1
 90
1
176
1
 90
4
176
1
 62
7
176
1
 62
257
176
1
 90
1
176
1
 90
1
176
1
 40
1.0
176
1
 90
8
176
1
 62
7
176
1
 40
1.0
176
1
 90
1
176
1
 90
6
176
1
 90
2
176
1
 62
7
176
1
 90
5
176
1
 90
0
176
1
 90
0
176
1
290
0
176
1
 90
1
176
1
 40
0.0
176
1
 90
0
176
1
290
0
176
1
290
1
176
1
290
1
176
1
290
0
176
1
290
0
176
1
290
0
176
1
290
0
176
1
290
0
176
1
290
0
176
1
 90
50
176
1
 40
0.0
176
1
 40
1.0
176
1
 90
0
176
1
 62
18
420
0
176
1
 90
50
176
1
 90
3
176
1
 62
5
420
255
176
1
290
0
176
1
 90
50
176
1
 90
50
176
1
 90
50
176
1
290
0
176
1
 90
50
176
1
 62
256
176
0
 40
1.0
176
0
 90
2
176
1
  1
strokes_ogs.tif
176
1
290
0
176
1
 40
1.0
176
1
 40
1.0
176
1
  0
VISUALSTYLE
  5
6C
102
{ACAD_REACTORS
330
16
102
}
330
16
100
AcDbVisualStyle
  2
Shaded
 70
27
177
3
291
0
 70
58
 90
2
176
1
 90
2
176
1
 90
0
176
1
 90
2
176
1
 40
0.6
176
1
 40
30.0
176
1
 62
7
420
16777215
176
1
 90
1
176
1
 90
4
176
1
 62
7
176
1
 62
257
176
1
 90
1
176
1
 90
1
176
1
 40
1.0
176
1
 90
8
176
1
 62
7
176
1
 40
1.0
176
1
 90
1
176
1
 90
6
176
1
 90
2
176
1
 62
7
176
1
 90
5
176
1
 90
0
176
1
 90
0
176
1
290
0
176
1
 90
1
176
1
 40
0.0
176
1
 90
0
176
1
290
0
176
1
290
1
176
1
290
1
176
1
290
0
176
1
290
0
176
1
290
0
176
1
290
0
176
1
290
0
176
1
290
0
176
1
 90
50
176
1
 40
0.0
176
1
 40
1.0
176
1
 90
0
176
1
 62
18
420
0
176
1
 90
50
176
1
 90
3
176
1
 62
5
420
255
176
1
290
0
176
1
 90
50
176
1
 90
50
176
1
 90
50
176
1
290
0
176
1
 90
50
176
1
 62
256
176
0
 40
1.0
176
0
 90
2
176
1
  1
strokes_ogs.tif
176
1
290
0
176
1
 40
1.0
176
1
 40
1.0
176
1
  0
VISUALSTYLE
  5
6D
102
{ACAD_REACTORS
330
16
102
}
330
16
100
AcDbVisualStyle
  2
Shaded with edges
 70
26
177
3
291
0
 70
58
 90
2
176
1
 90
2
176
1
 90
0
176
1
 90
2
176
1
 40
0.6
176
1
 40
30.0
176
1
 62
7
420
16777215
176
1
 90
1
176
1
 90
4
176
1
 62
7
176
1
 62
257
176
1
 90
1
176
1
 90
1
176
1
 40
1.0
176
1
 90
8
176
1
 62
7
176
1
 40
1.0
176
1
 90
1
176
1
 90
6
176
1
 90
2
176
1
 62
7
176
1
 90
5
176
1
 90
0
176
1
 90
0
176
1
290
0
176
1
 90
1
176
1
 40
0.0
176
1
 90
0
176
1
290
0
176
1
290
1
176
1
290
1
176
1
290
0
176
1
290
0
176
1
290
0
176
1
290
0
176
1
290
0
176
1
290
0
176
1
 90
50
176
1
 40
0.0
176
1
 40
1.0
176
1
 90
0
176
1
 62
18
420
0
176
1
 90
50
176
1
 90
3
176
1
 62
5
420
255
176
1
290
0
176
1
 90
50
176
1
 90
50
176
1
 90
50
176
1
290
0
176
1
 90
50
176
1
 62
256
176
0
 40
1.0
176
0
 90
2
176
1
  1
strokes_ogs.tif
176
1
290
0
176
1
 40
1.0
176
1
 40
1.0
176
1
  0
VISUALSTYLE
  5
6E
102
{ACAD_REACTORS
330
16
102
}
330
16
100
AcDbVisualStyle
  2
Shades of Gray
 70
23
177
3
291
0
 70
58
 90
2
176
1
 90
2
176
1
 90
0
176
1
 90
2
176
1
 40
0.6
176
1
 40
30.0
176
1
 62
7
420
16777215
176
1
 90
1
176
1
 90
4
176
1
 62
7
176
1
 62
257
176
1
 90
1
176
1
 90
1
176
1
 40
1.0
176
1
 90
8
176
1
 62
7
176
1
 40
1.0
176
1
 90
1
176
1
 90
6
176
1
 90
2
176
1
 62
7
176
1
 90
5
176
1
 90
0
176
1
 90
0
176
1
290
0
176
1
 90
1
176
1
 40
0.0
176
1
 90
0
176
1
290
0
176
1
290
1
176
1
290
1
176
1
290
0
176
1
290
0
176
1
290
0
176
1
290
0
176
1
290
0
176
1
290
0
176
1
 90
50
176
1
 40
0.0
176
1
 40
1.0
176
1
 90
0
176
1
 62
18
420
0
176
1
 90
50
176
1
 90
3
176
1
 62
5
420
255
176
1
290
0
176
1
 90
50
176
1
 90
50
176
1
 90
50
176
1
290
0
176
1
 90
50
176
1
 62
256
176
0
 40
1.0
176
0
 90
2
176
1
  1
strokes_ogs.tif
176
1
290
0
176
1
 40
1.0
176
1
 40
1.0
176
1
  0
VISUALSTYLE
  5
6F
102
{ACAD_REACTORS
330
16
102
}
330
16
100
AcDbVisualStyle
  2
Sketchy
 70
24
177
3
291
0
 70
58
 90
2
176
1
 90
2
176
1
 90
0
176
1
 90
1
176
1
 40
0.6
176
1
 40
30.0
176
1
 62
7
420
16777215
176
1
 90
1
176
1
 90
4
176
1
 62
7
176
1
 62
257
176
1
 90
1
176
1
 90
1
176
1
 40
1.0
176
1
 90
8
176
1
 62
7
176
1
 40
1.0
176
1
 90
1
176
1
 90
6
176
1
 90
2
176
1
 62
7
176
1
 90
5
176
1
 90
0
176
1
 90
0
176
1
290
0
176
1
 90
1
176
1
 40
0.0
176
1
 90
0
176
1
290
0
176
1
290
1
176
1
290
1
176
1
290
0
176
1
290
0
176
1
290
0
176
1
290
0
176
1
290
0
176
1
290
0
176
1
 90
50
176
1
 40
0.0
176
1
 40
1.0
176
1
 90
0
176
1
 62
18
420
0
176
1
 90
50
176
1
 90
3
176
1
 62
5
420
255
176
1
290
0
176
1
 90
50
176
1
 90
50
176
1
 90
50
176
1
290
0
176
1
 90
50
176
1
 62
256
176
0
 40
1.0
176
0
 90
2
176
1
  1
strokes_ogs.tif
176
1
290
0
176
1
 40
1.0
176
1
 40
1.0
176
1
  0
VISUALSTYLE
  5
70
102
{ACAD_REACTORS
330
16
102
}
330
16
100
AcDbVisualStyle
  2
Thicken
 70
13
177
3
291
1
 70
58
 90
2
176
1
 90
2
176
1
 90
0
176
1
 90
2
176
1
 40
0.6
176
1
 40
30.0
176
1
 62
7
420
16777215
176
1
 90
1
176
1
 90
4
176
1
 62
7
176
1
 62
257
176
1
 90
1
176
1
 90
1
176
1
 40
1.0
176
1
 90
8
176
1
 62
7
176
1
 40
1.0
176
1
 90
1
176
1
 90
6
176
1
 90
2
176
1
 62
7
176
1
 90
5
176
1
 90
0
176
1
 90
0
176
1
290
0
176
1
 90
1
176
1
 40
0.0
176
1
 90
0
176
1
290
0
176
1
290
1
176
1
290
1
176
1
290
0
176
1
290
0
176
1
290
0
176
1
290
0
176
1
290
0
176
1
290
0
176
1
 90
50
176
1
 40
0.0
176
1
 40
1.0
176
1
 90
0
176
1
 62
18
420
0
176
1
 90
50
176
1
 90
3
176
1
 62
5
420
255
176
1
290
0
176
1
 90
50
176
1
 90
50
176
1
 90
50
176
1
290
0
176
1
 90
50
176
1
 62
256
176
0
 40
1.0
176
0
 90
2
176
1
  1
strokes_ogs.tif
176
1
290
0
176
1
 40
1.0
176
1
 40
1.0
176
1
  0
VISUALSTYLE
  5
71
102
{ACAD_REACTORS
330
16
102
}
330
16
100
AcDbVisualStyle
  2
Wireframe
 70
5
177
3
291
0
 70
58
 90
2
176
1
 90
2
176
1
 90
0
176
1
 90
0
176
1
 40
0.6
176
1
 40
30.0
176
1
 62
7
420
16777215
176
1
 90
1
176
1
 90
4
176
1
 62
7
176
1
 62
257
176
1
 90
1
176
1
 90
1
176
1
 40
1.0
176
1
 90
8
176
1
 62
7
176
1
 40
1.0
176
1
 90
1
176
1
 90
6
176
1
 90
2
176
1
 62
7
176
1
 90
5
176
1
 90
0
176
1
 90
0
176
1
290
0
176
1
 90
1
176
1
 40
0.0
176
1
 90
0
176
1
290
0
176
1
290
1
176
1
290
1
176
1
290
0
176
1
290
0
176
1
290
0
176
1
290
0
176
1
290
0
176
1
290
0
176
1
 90
50
176
1
 40
0.0
176
1
 40
1.0
176
1
 90
0
176
1
 62
18
420
0
176
1
 90
50
176
1
 90
3
176
1
 62
5
420
255
176
1
290
0
176
1
 90
50
176
1
 90
50
176
1
 90
50
176
1
290
0
176
1
 90
50
176
1
 62
256
176
0
 40
1.0
176
0
 90
2
176
1
  1
strokes_ogs.tif
176
1
290
0
176
1
 40
1.0
176
1
 40
1.0
176
1
  0
VISUALSTYLE
  5
72
102
{ACAD_REACTORS
330
16
102
}
330
16
100
AcDbVisualStyle
  2
X-Ray
 70
25
177
3
291
0
 70
58
 90
2
176
1
 90
2
176
1
 90
0
176
1
 90
2
176
1
 40
0.5
176
1
 40
30.0
176
1
 62
7
420
16777215
176
1
 90
1
176
1
 90
4
176
1
 62
7
176
1
 62
257
176
1
 90
1
176
1
 90
1
176
1
 40
1.0
176
1
 90
8
176
1
 62
7
176
1
 40
1.0
176
1
 90
1
176
1
 90
6
176
1
 90
2
176
1
 62
7
176
1
 90
5
176
1
 90
0
176
1
 90
0
176
1
290
0
176
1
 90
1
176
1
 40
0.0
176
1
 90
0
176
1
290
0
176
1
290
1
176
1
290
1
176
1
290
0
176
1
290
0
176
1
290
0
176
1
290
0
176
1
290
0
176
1
290
0
176
1
 90
50
176
1
 40
0.0
176
1
 40
1.0
176
1
 90
0
176
1
 62
18
420
0
176
1
 90
50
176
1
 90
3
176
1
 62
5
420
255
176
1
290
0
176
1
 90
50
176
1
 90
50
176
1
 90
50
176
1
290
0
176
1
 90
50
176
1
 62
256
176
0
 40
1.0
176
0
 90
2
176
1
  1
strokes_ogs.tif
176
1
290
0
176
1
 40
1.0
176
1
 40
1.0
176
1
  0
DICTIONARYVAR
  5
202
330
2D
100
DictionaryVariables
280
0
  1
1.4.4 @ 2026-09-20T23:05:30.007687+00:00
  0
ENDSEC
  0
EOF
