  0
SECTION
  2
HEADER
  9
$ACADVER
  1
AC1027
  9
$ACADMAINTVER
 70
105
  9
$DWGCODEPAGE
  3
ANSI_1252
  9
$LASTSAVEDBY
  1
ezdxf
  9
$REQUIREDVERSIONS
160
0
  9
$INSBASE
 10
0.0
 20
0.0
 30
0.0
  9
$EXTMIN
 10
1e+20
 20
1e+20
 30
1e+20
  9
$EXTMAX
 10
-1e+20
 20
-1e+20
 30
-1e+20
  9
$LIMMIN
 10
0.0
 20
0.0
  9
$LIMMAX
 10
420.0
 20
297.0
  9
$ORTHOMODE
 70
0
  9
$REGENMODE
 70
1
  9
$FILLMODE
 70
1
  9
$QTEXTMODE
 70
0
  9
$MIRRTEXT
 70
1
  9
$LTSCALE
 40
1.0
  9
$ATTMODE
 70
1
  9
$TEXTSIZE
 40
2.5
  9
$TRACEWID
 40
1.0
  9
$TEXTSTYLE
  7
OpenSans
  9
$CLAYER
  8
0
  9
$CELTYPE
  6
ByLayer
  9
$CECOLOR
 62
256
  9
$CELTSCALE
 40
1.0
  9
$DISPSILH
 70
0
  9
$DIMSCALE
 40
1.0
  9
$DIMASZ
 40
0.175
  9
$DIMEXO
 40
0.125
  9
$DIMDLI
 40
3.75
  9
$DIMRND
 40
0.0
  9
$DIMDLE
 40
0.0
  9
$DIMEXE
 40
0.375
  9
$DIMTP
 40
0.0
  9
$DIMTM
 40
0.0
  9
$DIMTXT
 40
0.25
  9
$DIMCEN
 40
2.5
  9
$DIMTSZ
 40
0.0
  9
$DIMTOL
 70
0
  9
$DIMLIM
 70
0
  9
$DIMTIH
 70
0
  9
$DIMTOH
 70
0
  9
$DIMSE1
 70
0
  9
$DIMSE2
 70
0
  9
$DIMTAD
 70
1
  9
$DIMZIN
 70
12
  9
$DIMBLK
  1
ARCHTICK
  9
$DIMASO
 70
1
  9
$DIMSHO
 70
1
  9
$DIMPOST
  1

  9
$DIMAPOST
  1

  9
$DIMALT
 70
0
  9
$DIMALTD
 70
3
  9
$DIMALTF
 40
0.03937007874
  9
$DIMLFAC
 40
100.0
  9
$DIMTOFL
 70
1
  9
$DIMTVP
 40
0.0
  9
$DIMTIX
 70
0
  9
$DIMSOXD
 70
0
  9
$DIMSAH
 70
0
  9
$DIMBLK1
  1

  9
$DIMBLK2
  1

  9
$DIMSTYLE
  2
EZDXF
  9
$DIMCLRD
 70
0
  9
$DIMCLRE
 70
0
  9
$DIMCLRT
 70
0
  9
$DIMTFAC
 40
0.5
  9
$DIMGAP
 40
0.1
  9
$DIMJUST
 70
0
  9
$DIMSD1
 70
0
  9
$DIMSD2
 70
0
  9
$DIMTOLJ
 70
0
  9
$DIMTZIN
 70
8
  9
$DIMALTZ
 70
0
  9
$DIMALTTZ
 70
0
  9
$DIMUPT
 70
1
  9
$DIMDEC
 70
2
  9
$DIMTDEC
 70
2
  9
$DIMALTU
 70
2
  9
$DIMALTTD
 70
3
  9
$DIMTXSTY
  7
OpenSansCondensed-Light
  9
$DIMAUNIT
 70
0
  9
$DIMADEC
 70
2
  9
$DIMALTRND
 40
0.0
  9
$DIMAZIN
 70
3
  9
$DIMDSEP
 70
46
  9
$DIMATFIT
 70
3
  9
$DIMFRAC
 70
0
  9
$DIMLDRBLK
  1

  9
$DIMLUNIT
 70
2
  9
$DIMLWD
 70
-2
  9
$DIMLWE
 70
-2
  9
$DIMTMOVE
 70
2
  9
$DIMFXL
 40
1.0
  9
$DIMFXLON
 70
0
  9
$DIMJOGANG
 40
0.785398163397
  9
$DIMTFILL
 70
0
  9
$DIMTFILLCLR
 70
0
  9
$DIMARCSYM
 70
0
  9
$DIMLTYPE
  6

  9
$DIMLTEX1
  6

  9
$DIMLTEX2
  6

  9
$DIMTXTDIRECTION
 70
0
  9
$LUNITS
 70
2
  9
$LUPREC
 70
4
  9
$SKETCHINC
 40
1.0
  9
$FILLETRAD
 40
10.0
  9
$AUNITS
 70
0
  9
$AUPREC
 70
2
  9
$MENU
  1
.
  9
$ELEVATION
 40
0.0
  9
$PELEVATION
 40
0.0
  9
$THICKNESS
 40
0.0
  9
$LIMCHECK
 70
0
  9
$CHAMFERA
 40
0.0
  9
$CHAMFERB
 40
0.0
  9
$CHAMFERC
 40
0.0
  9
$CHAMFERD
 40
0.0
  9
$SKPOLY
 70
0
  9
$TDCREATE
 40
2461307.5653819446
  9
$TDUCREATE
 40
2458532.153996898
  9
$TDUPDATE
 40
2461307.5653935187
  9
$TDUUPDATE
 40
2458532.1544311
  9
$TDINDWG
 40
0.0
  9
$TDUSRTIMER
 40
0.0
  9
$USRTIMER
 70
1
  9
$ANGBASE
 50
0.0
  9
$ANGDIR
 70
0
  9
$PDMODE
 70
0
  9
$PDSIZE
 40
0.0
  9
$PLINEWID
 40
0.0
  9
$SPLFRAME
 70
0
  9
$SPLINETYPE
 70
6
  9
$SPLINESEGS
 70
8
  9
$HANDSEED
  5
25A
  9
$SURFTAB1
 70
6
  9
$SURFTAB2
 70
6
  9
$SURFTYPE
 70
6
  9
$SURFU
 70
6
  9
$SURFV
 70
6
  9
$UCSBASE
  2

  9
$UCSNAME
  2

  9
$UCSORG
 10
0.0
 20
0.0
 30
0.0
  9
$UCSXDIR
 10
1.0
 20
0.0
 30
0.0
  9
$UCSYDIR
 10
0.0
 20
1.0
 30
0.0
  9
$UCSORTHOREF
  2

  9
$UCSORTHOVIEW
 70
0
  9
$UCSORGTOP
 10
0.0
 20
0.0
 30
0.0
  9
$UCSORGBOTTOM
 10
0.0
 20
0.0
 30
0.0
  9
$UCSORGLEFT
 10
0.0
 20
0.0
 30
0.0
  9
$UCSORGRIGHT
 10
0.0
 20
0.0
 30
0.0
  9
$UCSORGFRONT
 10
0.0
 20
0.0
 30
0.0
  9
$UCSORGBACK
 10
0.0
 20
0.0
 30
0.0
  9
$PUCSBASE
  2

  9
$PUCSNAME
  2

  9
$PUCSORG
 10
0.0
 20
0.0
 30
0.0
  9
$PUCSXDIR
 10
1.0
 20
0.0
 30
0.0
  9
$PUCSYDIR
 10
0.0
 20
1.0
 30
0.0
  9
$PUCSORTHOREF
  2

  9
$PUCSORTHOVIEW
 70
0
  9
$PUCSORGTOP
 10
0.0
 20
0.0
 30
0.0
  9
$PUCSORGBOTTOM
 10
0.0
 20
0.0
 30
0.0
  9
$PUCSORGLEFT
 10
0.0
 20
0.0
 30
0.0
  9
$PUCSORGRIGHT
 10
0.0
 20
0.0
 30
0.0
  9
$PUCSORGFRONT
 10
0.0
 20
0.0
 30
0.0
  9
$PUCSORGBACK
 10
0.0
 20
0.0
 30
0.0
  9
$USERI1
 70
0
  9
$USERI2
 70
0
  9
$USERI3
 70
0
  9
$USERI4
 70
0
  9
$USERI5
 70
0
  9
$USERR1
 40
0.0
  9
$USERR2
 40
0.0
  9
$USERR3
 40
0.0
  9
$USERR4
 40
0.0
  9
$USERR5
 40
0.0
  9
$WORLDVIEW
 70
1
  9
$SHADEDGE
 70
3
  9
$SHADEDIF
 70
70
  9
$TILEMODE
 70
1
  9
$MAXACTVP
 70
64
  9
$PINSBASE
 10
0.0
 20
0.0
 30
0.0
  9
$PLIMCHECK
 70
0
  9
$PEXTMIN
 10
1e+20
 20
1e+20
 30
1e+20
  9
$PEXTMAX
 10
-1e+20
 20
-1e+20
 30
-1e+20
  9
$PLIMMIN
 10
0.0
 20
0.0
  9
$PLIMMAX
 10
420.0
 20
297.0
  9
$UNITMODE
 70
0
  9
$VISRETAIN
 70
1
  9
$PLINEGEN
 70
0
  9
$PSLTSCALE
 70
1
  9
$TREEDEPTH
 70
3020
  9
$CMLSTYLE
  2
Standard
  9
$CMLJUST
 70
0
  9
$CMLSCALE
 40
20.0
  9
$PROXYGRAPHICS
 70
1
  9
$MEASUREMENT
 70
1
  9
$CELWEIGHT
370
-1
  9
$ENDCAPS
280
0
  9
$JOINSTYLE
280
0
  9
$LWDISPLAY
290
0
  9
$INSUNITS
 70
4
  9
$HYPERLINKBASE
  1

  9
$STYLESHEET
  1

  9
$XEDIT
290
1
  9
$CEPSNTYPE
380
0
  9
$PSTYLEMODE
290
1
  9
$FINGERPRINTGUID
  2
{301E2737-EF33-4A66-BBD8-44BBB7C803F6}
  9
$VERSIONGUID
  2
{5187196D-B329-413C-9FFC-26584C01353A}
  9
$EXTNAMES
290
1
  9
$PSVPSCALE
 40
0.0
  9
$OLESTARTUP
290
0
  9
$SORTENTS
280
127
  9
$INDEXCTL
280
0
  9
$HIDETEXT
280
1
  9
$XCLIPFRAME
280
1
  9
$HALOGAP
280
0
  9
$OBSCOLOR
 70
257
  9
$OBSLTYPE
280
0
  9
$INTERSECTIONDISPLAY
280
0
  9
$INTERSECTIONCOLOR
 70
257
  9
$DIMASSOC
280
2
  9
$PROJECTNAME
  1

  9
$CAMERADISPLAY
290
0
  9
$LENSLENGTH
 40
50.0
  9
$CAMERAHEIGHT
 40
0.0
  9
$STEPSPERSEC
 40
24.0
  9
$STEPSIZE
 40
100.0
  9
$3DDWFPREC
 40
2.0
  9
$PSOLWIDTH
 40
0.005
  9
$PSOLHEIGHT
 40
0.08
  9
$LOFTANG1
 40
1.570796326795
  9
$LOFTANG2
 40
1.570796326795
  9
$LOFTMAG1
 40
0.0
  9
$LOFTMAG2
 40
0.0
  9
$LOFTPARAM
 70
7
  9
$LOFTNORMALS
280
1
  9
$LATITUDE
 40
37.795
  9
$LONGITUDE
 40
-122.394
  9
$NORTHDIRECTION
 40
0.0
  9
$TIMEZONE
 70
-8000
  9
$LIGHTGLYPHDISPLAY
280
1
  9
$TILEMODELIGHTSYNCH
280
1
  9
$CMATERIAL
347
20
  9
$SOLIDHIST
280
0
  9
$SHOWHIST
280
1
  9
$DWFFRAME
280
2
  9
$DGNFRAME
280
2
  9
$REALWORLDSCALE
290
1
  9
$INTERFERECOLOR
 62
256
  9
$CSHADOW
280
0
  9
$SHADOWPLANELOCATION
 40
0.0
  0
ENDSEC
  0
SECTION
  2
CLASSES
  0
CLASS
  1
ACDBDICTIONARYWDFLT
  2
AcDbDictionaryWithDefault
  3
ObjectDBX Classes
 90
0
 91
0
280
0
281
0
  0
CLASS
  1
SUN
  2
AcDbSun
  3
SCENEOE
 90
1153
 91
0
280
0
281
0
  0
CLASS
  1
VISUALSTYLE
  2
AcDbVisualStyle
  3
ObjectDBX Classes
 90
4095
 91
0
280
0
281
0
  0
CLASS
  1
MATERIAL
  2
AcDbMaterial
  3
ObjectDBX Classes
 90
1153
 91
0
280
0
281
0
  0
CLASS
  1
SCALE
  2
AcDbScale
  3
ObjectDBX Classes
 90
1153
 91
0
280
0
281
0
  0
CLASS
  1
TABLESTYLE
  2
AcDbTableStyle
  3
ObjectDBX Classes
 90
4095
 91
0
280
0
281
0
  0
CLASS
  1
MLEADERSTYLE
  2
AcDbMLeaderStyle
  3
ACDB_MLEADERSTYLE_CLASS
 90
4095
 91
0
280
0
281
0
  0
CLASS
  1
DICTIONARYVAR
  2
AcDbDictionaryVar
  3
ObjectDBX Classes
 90
0
 91
0
280
0
281
0
  0
CLASS
  1
CELLSTYLEMAP
  2
AcDbCellStyleMap
  3
ObjectDBX Classes
 90
1152
 91
0
280
0
281
0
  0
CLASS
  1
MENTALRAYRENDERSETTINGS
  2
AcDbMentalRayRenderSettings
  3
SCENEOE
 90
1024
 91
0
280
0
281
0
  0
CLASS
  1
ACDBDETAILVIEWSTYLE
  2
AcDbDetailViewStyle
  3
ObjectDBX Classes
 90
1025
 91
0
280
0
281
0
  0
CLASS
  1
ACDBSECTIONVIEWSTYLE
  2
AcDbSectionViewStyle
  3
ObjectDBX Classes
 90
1025
 91
0
280
0
281
0
  0
CLASS
  1
RASTERVARIABLES
  2
AcDbRasterVariables
  3
ISM
 90
0
 91
0
280
0
281
0
  0
CLASS
  1
ACDBPLACEHOLDER
  2
AcDbPlaceHolder
  3
ObjectDBX Classes
 90
0
 91
0
280
0
281
0
  0
CLASS
  1
LAYOUT
  2
AcDbLayout
  3
ObjectDBX Classes
 90
0
 91
0
280
0
281
0
  0
ENDSEC
  0
SECTION
  2
TABLES
  0
TABLE
  2
VPORT
  5
8
330
0
100
AcDbSymbolTable
 70
1
  0
VPORT
  5
23
330
8
100
AcDbSymbolTableRecord
100
AcDbViewportTableRecord
  2
*Active
 70
0
 10
0.0
 20
0.0
 11
1.0
 21
1.0
 12
0.0
 22
0.0
 13
0.0
 23
0.0
 14
0.5
 24
0.5
 15
0.5
 25
0.5
 16
0.0
 26
0.0
 36
1.0
 17
0.0
 27
0.0
 37
0.0
 40
1000.0
 41
1.34
 42
50.0
 43
0.0
 44
0.0
 50
0.0
 51
0.0
 71
0
 72
1000
 73
1
 74
3
 75
0
 76
0
 77
0
 78
0
281
0
 65
0
146
0.0
  0
ENDTAB
  0
TABLE
  2
LTYPE
  5
2
330
0
100
AcDbSymbolTable
 70
21
  0
LTYPE
  5
24
330
2
100
AcDbSymbolTableRecord
100
AcDbLinetypeTableRecord
  2
ByBlock
 70
0
  3

 72
65
 73
0
 40
0.0
  0
LTYPE
  5
25
330
2
100
AcDbSymbolTableRecord
100
AcDbLinetypeTableRecord
  2
ByLayer
 70
0
  3

 72
65
 73
0
 40
0.0
  0
LTYPE
  5
26
330
2
100
AcDbSymbolTableRecord
100
AcDbLinetypeTableRecord
  2
Continuous
 70
0
  3

 72
65
 73
0
 40
0.0
  0
LTYPE
  5
2F
330
2
100
AcDbSymbolTableRecord
100
AcDbLinetypeTableRecord
  2
CENTER
 70
0
  3
Center ____ _ ____ _ ____ _ ____ _ ____ _ ____
 72
65
 73
4
 40
5.08
 49
3.175
 74
0
 49
-0.635
 74
0
 49
0.635
 74
0
 49
-0.635
 74
0
  0
LTYPE
  5
30
330
2
100
AcDbSymbolTableRecord
100
AcDbLinetypeTableRecord
  2
CENTERX2
 70
0
  3
Center (2x) ________  __  ________  __  ________
 72
65
 73
4
 40
8.89
 49
6.35
 74
0
 49
-0.635
 74
0
 49
1.27
 74
0
 49
-0.635
 74
0
  0
LTYPE
  5
31
330
2
100
AcDbSymbolTableRecord
100
AcDbLinetypeTableRecord
  2
CENTER2
 70
0
  3
Center (.5x) ____ _ ____ _ ____ _ ____ _ ____
 72
65
 73
4
 40
2.54
 49
1.587
 74
0
 49
-0.318
 74
0
 49
0.318
 74
0
 49
-0.318
 74
0
  0
LTYPE
  5
32
330
2
100
AcDbSymbolTableRecord
100
AcDbLinetypeTableRecord
  2
DASHED
 70
0
  3
Dashed __ __ __ __ __ __ __ __ __ __ __ __ __ _
 72
65
 73
2
 40
1.524
 49
1.27
 74
0
 49
-0.254
 74
0
  0
LTYPE
  5
33
330
2
100
AcDbSymbolTableRecord
100
AcDbLinetypeTableRecord
  2
DASHEDX2
 70
0
  3
Dashed (2x) ____  ____  ____  ____  ____  ____
 72
65
 73
2
 40
3.048
 49
2.54
 74
0
 49
-0.508
 74
0
  0
LTYPE
  5
34
330
2
100
AcDbSymbolTableRecord
100
AcDbLinetypeTableRecord
  2
DASHED2
 70
0
  3
Dashed (.5x) _ _ _ _ _ _ _ _ _ _ _ _ _ _
 72
65
 73
2
 40
0.762
 49
0.635
 74
0
 49
-0.127
 74
0
  0
LTYPE
  5
35
330
2
100
AcDbSymbolTableRecord
100
AcDbLinetypeTableRecord
  2
PHANTOM
 70
0
  3
Phantom ______  __  __  ______  __  __  ______
 72
65
 73
6
 40
6.35
 49
3.175
 74
0
 49
-0.635
 74
0
 49
0.635
 74
0
 49
-0.635
 74
0
 49
0.635
 74
0
 49
-0.635
 74
0
  0
LTYPE
  5
36
330
2
100
AcDbSymbolTableRecord
100
AcDbLinetypeTableRecord
  2
PHANTOMX2
 70
0
  3
Phantom (2x)____________    ____    ____    ____________
 72
65
 73
6
 40
10.795
 49
6.35
 74
0
 49
-0.635
 74
0
 49
1.27
 74
0
 49
-0.635
 74
0
 49
1.27
 74
0
 49
-0.635
 74
0
  0
LTYPE
  5
37
330
2
100
AcDbSymbolTableRecord
100
AcDbLinetypeTableRecord
  2
PHANTOM2
 70
0
  3
Phantom (.5x) ___ _ _ ___ _ _ ___ _ _ ___ _ _ ___
 72
65
 73
6
 40
3.175
 49
1.587
 74
0
 49
-0.318
 74
0
 49
0.318
 74
0
 49
-0.318
 74
0
 49
0.318
 74
0
 49
-0.318
 74
0
  0
LTYPE
  5
38
330
2
100
AcDbSymbolTableRecord
100
AcDbLinetypeTableRecord
  2
DASHDOT
 70
0
  3
Dash dot __ . __ . __ . __ . __ . __ . __ . __
 72
65
 73
4
 40
3.556
 49
2.54
 74
0
 49
-0.508
 74
0
 49
0.0
 74
0
 49
-0.508
 74
0
  0
LTYPE
  5
39
330
2
100
AcDbSymbolTableRecord
100
AcDbLinetypeTableRecord
  2
DASHDOTX2
 70
0
  3
Dash dot (2x) ____  .  ____  .  ____  .  ____
 72
65
 73
4
 40
6.096
 49
5.08
 74
0
 49
-0.508
 74
0
 49
0.0
 74
0
 49
-0.508
 74
0
  0
LTYPE
  5
3A
330
2
100
AcDbSymbolTableRecord
100
AcDbLinetypeTableRecord
  2
DASHDOT2
 70
0
  3
Dash dot (.5x) _ . _ . _ . _ . _ . _ . _ . _
 72
65
 73
4
 40
1.778
 49
1.27
 74
0
 49
-0.254
 74
0
 49
0.0
 74
0
 49
-0.254
 74
0
  0
LTYPE
  5
3B
330
2
100
AcDbSymbolTableRecord
100
AcDbLinetypeTableRecord
  2
DOT
 70
0
  3
Dot .  .  .  .  .  .  .  .  .  .  .  .  .  .  .  .
 72
65
 73
2
 40
0.508
 49
0.0
 74
0
 49
-0.508
 74
0
  0
LTYPE
  5
3C
330
2
100
AcDbSymbolTableRecord
100
AcDbLinetypeTableRecord
  2
DOTX2
 70
0
  3
Dot (2x) .    .    .    .    .    .    .    . 
 72
65
 73
2
 40
1.016
 49
0.0
 74
0
 49
-1.016
 74
0
  0
LTYPE
  5
3D
330
2
100
AcDbSymbolTableRecord
100
AcDbLinetypeTableRecord
  2
DOT2
 70
0
  3
Dot (.5) . . . . . . . . . . . . . . . . . . . 
 72
65
 73
2
 40
0.254
 49
0.0
 74
0
 49
-0.254
 74
0
  0
LTYPE
  5
3E
330
2
100
AcDbSymbolTableRecord
100
AcDbLinetypeTableRecord
  2
DIVIDE
 70
0
  3
Divide __ . . __ . . __ . . __ . . __ . . __
 72
65
 73
6
 40
4.064
 49
2.54
 74
0
 49
-0.508
 74
0
 49
0.0
 74
0
 49
-0.508
 74
0
 49
0.0
 74
0
 49
-0.508
 74
0
  0
LTYPE
  5
3F
330
2
100
AcDbSymbolTableRecord
100
AcDbLinetypeTableRecord
  2
DIVIDEX2
 70
0
  3
Divide (2x) ____  . .  ____  . .  ____  . .  ____
 72
65
 73
6
 40
6.604
 49
5.08
 74
0
 49
-0.508
 74
0
 49
0.0
 74
0
 49
-0.508
 74
0
 49
0.0
 74
0
 49
-0.508
 74
0
  0
LTYPE
  5
40
330
2
100
AcDbSymbolTableRecord
100
AcDbLinetypeTableRecord
  2
DIVIDE2
 70
0
  3
Divide(.5x) _ . _ . _ . _ . _ . _ . _ . _
 72
65
 73
6
 40
2.032
 49
1.27
 74
0
 49
-0.254
 74
0
 49
0.0
 74
0
 49
-0.254
 74
0
 49
0.0
 74
0
 49
-0.254
 74
0
  0
ENDTAB
  0
TABLE
  2
LAYER
  5
1
330
0
100
AcDbSymbolTable
 70
17
  0
LAYER
  5
27
330
1
100
AcDbSymbolTableRecord
100
AcDbLayerTableRecord
  2
0
 70
0
 62
7
  6
Continuous
370
-3
390
13
347
21
  0
LAYER
  5
28
330
1
100
AcDbSymbolTableRecord
100
AcDbLayerTableRecord
  2
Defpoints
 70
0
 62
7
  6
Continuous
290
0
370
-3
390
13
347
21
  0
LAYER
  5
8A
330
1
100
AcDbSymbolTableRecord
100
AcDbLayerTableRecord
  2
00_РАМКА
 70
0
 62
7
  6
CONTINUOUS
370
-3
390
13
347
21
  0
LAYER
  5
8B
330
1
100
AcDbSymbolTableRecord
100
AcDbLayerTableRecord
  2
01_ОБШИВКА
 70
0
 62
7
  6
CONTINUOUS
370
-3
390
13
347
21
  0
LAYER
  5
8C
330
1
100
AcDbSymbolTableRecord
100
AcDbLayerTableRecord
  2
02_ПАЛУБЫ
 70
0
 62
4
  6
CONTINUOUS
370
-3
390
13
347
21
  0
LAYER
  5
8D
330
1
100
AcDbSymbolTableRecord
100
AcDbLayerTableRecord
  2
03_ПЕРЕБОРКИ
 70
0
 62
1
  6
CONTINUOUS
370
-3
390
13
347
21
  0
LAYER
  5
8E
330
1
100
AcDbSymbolTableRecord
100
AcDbLayerTableRecord
  2
04_ЦИСТЕРНЫ
 70
0
 62
3
  6
CONTINUOUS
370
-3
390
13
347
21
  0
LAYER
  5
8F
330
1
100
AcDbSymbolTableRecord
100
AcDbLayerTableRecord
  2
05_ОБОРУДОВАНИЕ
 70
0
 62
5
  6
CONTINUOUS
370
-3
390
13
347
21
  0
LAYER
  5
90
330
1
100
AcDbSymbolTableRecord
100
AcDbLayerTableRecord
  2
06_ПОМЕЩЕНИЯ
 70
0
 62
8
  6
CONTINUOUS
370
-3
390
13
347
21
  0
LAYER
  5
91
330
1
100
AcDbSymbolTableRecord
100
AcDbLayerTableRecord
  2
07_ОСИ
 70
0
 62
2
  6
CENTER
370
-3
390
13
347
21
  0
LAYER
  5
92
330
1
100
AcDbSymbolTableRecord
100
AcDbLayerTableRecord
  2
08_ТЕКСТ
 70
0
 62
7
  6
CONTINUOUS
370
-3
390
13
347
21
  0
LAYER
  5
93
330
1
100
AcDbSymbolTableRecord
100
AcDbLayerTableRecord
  2
09_РАЗМЕРЫ
 70
0
 62
6
  6
CONTINUOUS
370
-3
390
13
347
21
  0
LAYER
  5
94
330
1
100
AcDbSymbolTableRecord
100
AcDbLayerTableRecord
  2
10_НАБОР
 70
0
 62
9
  6
CONTINUOUS
370
-3
390
13
347
21
  0
LAYER
  5
95
330
1
100
AcDbSymbolTableRecord
100
AcDbLayerTableRecord
  2
11_КАЮТЫ
 70
0
 62
30
  6
CONTINUOUS
370
-3
390
13
347
21
  0
LAYER
  5
96
330
1
100
AcDbSymbolTableRecord
100
AcDbLayerTableRecord
  2
12_ТРАПЫ_ЛИФТЫ
 70
0
 62
6
  6
CONTINUOUS
370
-3
390
13
347
21
  0
LAYER
  5
97
330
1
100
AcDbSymbolTableRecord
100
AcDbLayerTableRecord
  2
13_КОЛЁСА
 70
0
 62
1
  6
CONTINUOUS
370
-3
390
13
347
21
  0
LAYER
  5
98
330
1
100
AcDbSymbolTableRecord
100
AcDbLayerTableRecord
  2
14_МЕБЕЛЬ
 70
0
 62
252
  6
CONTINUOUS
370
-3
390
13
347
21
  0
ENDTAB
  0
TABLE
  2
STYLE
  5
5
330
0
100
AcDbSymbolTable
 70
27
  0
STYLE
  5
29
330
5
100
AcDbSymbolTableRecord
100
AcDbTextStyleTableRecord
  2
Standard
 70
0
 40
0.0
 41
1.0
 50
0.0
 71
0
 42
2.5
  3
txt
  4

  0
STYLE
  5
41
330
5
100
AcDbSymbolTableRecord
100
AcDbTextStyleTableRecord
  2
OpenSans-Light
 70
0
 40
0.0
 41
1.0
 50
0.0
 71
0
 42
2.5
  3
OpenSans-Light.ttf
  4

  0
STYLE
  5
42
330
5
100
AcDbSymbolTableRecord
100
AcDbTextStyleTableRecord
  2
OpenSans-Light-Italic
 70
0
 40
0.0
 41
1.0
 50
0.0
 71
0
 42
2.5
  3
OpenSans-LightItalic.ttf
  4

  0
STYLE
  5
43
330
5
100
AcDbSymbolTableRecord
100
AcDbTextStyleTableRecord
  2
OpenSans
 70
0
 40
0.0
 41
1.0
 50
0.0
 71
0
 42
2.5
  3
OpenSans-Regular.ttf
  4

  0
STYLE
  5
44
330
5
100
AcDbSymbolTableRecord
100
AcDbTextStyleTableRecord
  2
OpenSans-Italic
 70
0
 40
0.0
 41
1.0
 50
0.0
 71
0
 42
2.5
  3
OpenSans-Italic.ttf
  4

  0
STYLE
  5
45
330
5
100
AcDbSymbolTableRecord
100
AcDbTextStyleTableRecord
  2
OpenSans-SemiBold
 70
0
 40
0.0
 41
1.0
 50
0.0
 71
0
 42
2.5
  3
OpenSans-SemiBold.ttf
  4

  0
STYLE
  5
46
330
5
100
AcDbSymbolTableRecord
100
AcDbTextStyleTableRecord
  2
OpenSans-SemiBoldItalic
 70
0
 40
0.0
 41
1.0
 50
0.0
 71
0
 42
2.5
  3
OpenSans-SemiBoldItalic.ttf
  4

  0
STYLE
  5
47
330
5
100
AcDbSymbolTableRecord
100
AcDbTextStyleTableRecord
  2
OpenSans-Bold
 70
0
 40
0.0
 41
1.0
 50
0.0
 71
0
 42
2.5
  3
OpenSans-Bold.ttf
  4

  0
STYLE
  5
48
330
5
100
AcDbSymbolTableRecord
100
AcDbTextStyleTableRecord
  2
OpenSans-BoldItalic
 70
0
 40
0.0
 41
1.0
 50
0.0
 71
0
 42
2.5
  3
OpenSans-BoldItalic.ttf
  4

  0
STYLE
  5
49
330
5
100
AcDbSymbolTableRecord
100
AcDbTextStyleTableRecord
  2
OpenSans-ExtraBold
 70
0
 40
0.0
 41
1.0
 50
0.0
 71
0
 42
2.5
  3
OpenSans-ExtraBold.ttf
  4

  0
STYLE
  5
4A
330
5
100
AcDbSymbolTableRecord
100
AcDbTextStyleTableRecord
  2
OpenSans-ExtraBoldItalic
 70
0
 40
0.0
 41
1.0
 50
0.0
 71
0
 42
2.5
  3
OpenSans-ExtraBoldItalic.ttf
  4

  0
STYLE
  5
4B
330
5
100
AcDbSymbolTableRecord
100
AcDbTextStyleTableRecord
  2
OpenSansCondensed-Bold
 70
0
 40
0.0
 41
1.0
 50
0.0
 71
0
 42
2.5
  3
OpenSansCondensed-Bold.ttf
  4

  0
STYLE
  5
4C
330
5
100
AcDbSymbolTableRecord
100
AcDbTextStyleTableRecord
  2
OpenSansCondensed-Light
 70
0
 40
0.0
 41
1.0
 50
0.0
 71
0
 42
2.5
  3
OpenSansCondensed-Light.ttf
  4

  0
STYLE
  5
4D
330
5
100
AcDbSymbolTableRecord
100
AcDbTextStyleTableRecord
  2
OpenSansCondensed-Italic
 70
0
 40
0.0
 41
1.0
 50
0.0
 71
0
 42
2.5
  3
OpenSansCondensed-LightItalic.ttf
  4

  0
STYLE
  5
4E
330
5
100
AcDbSymbolTableRecord
100
AcDbTextStyleTableRecord
  2
LiberationSans
 70
0
 40
0.0
 41
1.0
 50
0.0
 71
0
 42
2.5
  3
LiberationSans-Regular.ttf
  4

  0
STYLE
  5
4F
330
5
100
AcDbSymbolTableRecord
100
AcDbTextStyleTableRecord
  2
LiberationSans-Bold
 70
0
 40
0.0
 41
1.0
 50
0.0
 71
0
 42
2.5
  3
LiberationSans-Bold.ttf
  4

  0
STYLE
  5
50
330
5
100
AcDbSymbolTableRecord
100
AcDbTextStyleTableRecord
  2
LiberationSans-BoldItalic
 70
0
 40
0.0
 41
1.0
 50
0.0
 71
0
 42
2.5
  3
LiberationSans-BoldItalic.ttf
  4

  0
STYLE
  5
51
330
5
100
AcDbSymbolTableRecord
100
AcDbTextStyleTableRecord
  2
LiberationSans-Italic
 70
0
 40
0.0
 41
1.0
 50
0.0
 71
0
 42
2.5
  3
LiberationSans-Italic.ttf
  4

  0
STYLE
  5
52
330
5
100
AcDbSymbolTableRecord
100
AcDbTextStyleTableRecord
  2
LiberationSerif
 70
0
 40
0.0
 41
1.0
 50
0.0
 71
0
 42
2.5
  3
LiberationSerif-Regular.ttf
  4

  0
STYLE
  5
53
330
5
100
AcDbSymbolTableRecord
100
AcDbTextStyleTableRecord
  2
LiberationSerif-Bold
 70
0
 40
0.0
 41
1.0
 50
0.0
 71
0
 42
2.5
  3
LiberationSerif-Bold.ttf
  4

  0
STYLE
  5
54
330
5
100
AcDbSymbolTableRecord
100
AcDbTextStyleTableRecord
  2
LiberationSerif-BoldItalic
 70
0
 40
0.0
 41
1.0
 50
0.0
 71
0
 42
2.5
  3
LiberationSerif-BoldItalic.ttf
  4

  0
STYLE
  5
55
330
5
100
AcDbSymbolTableRecord
100
AcDbTextStyleTableRecord
  2
LiberationSerif-Italic
 70
0
 40
0.0
 41
1.0
 50
0.0
 71
0
 42
2.5
  3
LiberationSerif-Italic.ttf
  4

  0
STYLE
  5
56
330
5
100
AcDbSymbolTableRecord
100
AcDbTextStyleTableRecord
  2
LiberationMono
 70
0
 40
0.0
 41
1.0
 50
0.0
 71
0
 42
2.5
  3
LiberationMono-Regular.ttf
  4

  0
STYLE
  5
57
330
5
100
AcDbSymbolTableRecord
100
AcDbTextStyleTableRecord
  2
LiberationMono-Bold
 70
0
 40
0.0
 41
1.0
 50
0.0
 71
0
 42
2.5
  3
LiberationMono-Bold.ttf
  4

  0
STYLE
  5
58
330
5
100
AcDbSymbolTableRecord
100
AcDbTextStyleTableRecord
  2
LiberationMono-BoldItalic
 70
0
 40
0.0
 41
1.0
 50
0.0
 71
0
 42
2.5
  3
LiberationMono-BoldItalic.ttf
  4

  0
STYLE
  5
59
330
5
100
AcDbSymbolTableRecord
100
AcDbTextStyleTableRecord
  2
LiberationMono-Italic
 70
0
 40
0.0
 41
1.0
 50
0.0
 71
0
 42
2.5
  3
LiberationMono-Italic.ttf
  4

  0
STYLE
  5
99
330
5
100
AcDbSymbolTableRecord
100
AcDbTextStyleTableRecord
  2
ГОСТ
 70
0
 40
0.0
 41
1.0
 50
0.0
 71
0
 42
2.5
  3
ISOCPEUR.TTF
  4

  0
ENDTAB
  0
TABLE
  2
VIEW
  5
7
330
0
100
AcDbSymbolTable
 70
0
  0
ENDTAB
  0
TABLE
  2
UCS
  5
6
330
0
100
AcDbSymbolTable
 70
0
  0
ENDTAB
  0
TABLE
  2
APPID
  5
3
330
0
100
AcDbSymbolTable
 70
3
  0
APPID
  5
2A
330
3
100
AcDbSymbolTableRecord
100
AcDbRegAppTableRecord
  2
ACAD
 70
0
  0
APPID
  5
257
330
3
100
AcDbSymbolTableRecord
100
AcDbRegAppTableRecord
  2
HATCHBACKGROUNDCOLOR
 70
0
  0
APPID
  5
258
330
3
100
AcDbSymbolTableRecord
100
AcDbRegAppTableRecord
  2
EZDXF
 70
0
  0
ENDTAB
  0
TABLE
  2
DIMSTYLE
  5
4
330
0
100
AcDbSymbolTable
 70
12
100
AcDbDimStyleTable
  0
DIMSTYLE
105
2B
330
4
100
AcDbSymbolTableRecord
100
AcDbDimStyleTableRecord
  2
Standard
 70
0
 40
1.0
 41
2.5
 42
0.625
 43
3.75
 44
1.25
 45
0.0
 46
0.0
 47
0.0
 48
0.0
 49
2.5
140
2.5
141
2.5
142
0.0
143
0.03937007874
144
1.0
145
0.0
146
1.0
147
0.625
148
0.0
 69
0
 70
0
 71
0
 72
0
 73
0
 74
0
 75
0
 76
0
 77
1
 78
8
 79
3
170
0
171
3
172
1
173
0
174
0
175
0
176
0
177
0
178
0
179
2
271
2
272
2
273
2
274
3
275
0
276
0
277
2
278
44
279
0
280
0
281
0
282
0
283
0
284
8
285
0
286
0
288
0
289
3
290
0
371
-2
372
-2
  0
DIMSTYLE
105
73
330
4
100
AcDbSymbolTableRecord
100
AcDbDimStyleTableRecord
  2
EZDXF
 70
0
 40
1.0
 41
0.175
 42
0.125
 43
3.75
 44
0.375
 45
0.0
 46
0.0
 47
0.0
 48
0.0
 49
2.5
140
0.25
141
2.5
142
0.0
143
0.03937007874
144
100.0
145
0.0
146
0.5
147
0.1
148
0.0
 69
0
 70
0
 71
0
 72
0
 73
0
 74
0
 75
0
 76
0
 77
1
 78
12
 79
3
170
0
171
3
172
1
173
0
174
0
175
0
176
0
177
0
178
0
179
2
271
2
272
2
273
2
274
3
275
0
276
0
277
2
278
46
279
2
280
0
281
0
282
0
283
0
284
8
285
0
286
0
288
1
289
3
290
0
340
4C
342
74
371
-2
372
-2
  0
DIMSTYLE
105
7C
330
4
100
AcDbSymbolTableRecord
100
AcDbDimStyleTableRecord
  2
EZ_M_100_H25_CM
 70
0
 40
1.0
 41
0.25
 42
0.125
 43
3.75
 44
0.375
 45
0.0
 46
0.0
 47
0.0
 48
0.0
 49
2.5
140
0.25
141
2.5
142
0.125
143
0.03937007874
144
100.0
145
0.0
146
0.5
147
0.1
148
0.0
 69
0
 70
0
 71
0
 72
0
 73
0
 74
0
 75
0
 76
0
 77
1
 78
12
 79
3
170
0
171
3
172
1
173
0
174
0
175
0
176
0
177
0
178
0
179
2
271
2
272
2
273
2
274
3
275
0
276
0
277
2
278
46
279
2
280
0
281
0
282
0
283
0
284
8
285
0
286
0
288
1
289
3
290
0
340
4C
371
-2
372
-2
  0
DIMSTYLE
105
7D
330
4
100
AcDbSymbolTableRecord
100
AcDbDimStyleTableRecord
  2
EZ_M_50_H25_CM
 70
0
 40
1.0
 41
0.125
 42
0.0625
 43
3.75
 44
0.1875
 45
0.0
 46
0.0
 47
0.0
 48
0.0
 49
2.5
140
0.125
141
2.5
142
0.0625
143
0.03937007874
144
100.0
145
0.0
146
0.5
147
0.05
148
0.0
 69
0
 70
0
 71
0
 72
0
 73
0
 74
0
 75
0
 76
0
 77
1
 78
12
 79
3
170
0
171
3
172
1
173
0
174
0
175
0
176
0
177
0
178
0
179
2
271
2
272
2
273
2
274
3
275
0
276
0
277
2
278
46
279
2
280
0
281
0
282
0
283
0
284
8
285
0
286
0
288
1
289
3
290
0
340
4C
371
-2
372
-2
  0
DIMSTYLE
105
7E
330
4
100
AcDbSymbolTableRecord
100
AcDbDimStyleTableRecord
  2
EZ_M_25_H25_CM
 70
0
 40
1.0
 41
0.0625
 42
0.03125
 43
3.75
 44
0.09375
 45
0.0
 46
0.0
 47
0.0
 48
0.0
 49
2.5
140
0.0625
141
2.5
142
0.03125
143
0.03937007874
144
100.0
145
0.0
146
0.5
147
0.025
148
0.0
 69
0
 70
0
 71
0
 72
0
 73
0
 74
0
 75
0
 76
0
 77
1
 78
12
 79
3
170
0
171
3
172
1
173
0
174
0
175
0
176
0
177
0
178
0
179
2
271
2
272
2
273
2
274
3
275
0
276
0
277
2
278
46
279
2
280
0
281
0
282
0
283
0
284
8
285
0
286
0
288
1
289
3
290
0
340
4C
371
-2
372
-2
  0
DIMSTYLE
105
7F
330
4
100
AcDbSymbolTableRecord
100
AcDbDimStyleTableRecord
  2
EZ_M_20_H25_CM
 70
0
 40
1.0
 41
0.05
 42
0.025
 43
3.75
 44
0.07500000000000001
 45
0.0
 46
0.0
 47
0.0
 48
0.0
 49
2.5
140
0.05
141
2.5
142
0.025
143
0.03937007874
144
100.0
145
0.0
146
0.5
147
0.020000000000000004
148
0.0
 69
0
 70
0
 71
0
 72
0
 73
0
 74
0
 75
0
 76
0
 77
1
 78
12
 79
3
170
0
171
3
172
1
173
0
174
0
175
0
176
0
177
0
178
0
179
2
271
2
272
2
273
2
274
3
275
0
276
0
277
2
278
46
279
2
280
0
281
0
282
0
283
0
284
8
285
0
286
0
288
1
289
3
290
0
340
4C
371
-2
372
-2
  0
DIMSTYLE
105
80
330
4
100
AcDbSymbolTableRecord
100
AcDbDimStyleTableRecord
  2
EZ_M_10_H25_CM
 70
0
 40
1.0
 41
0.025
 42
0.0125
 43
3.75
 44
0.037500000000000006
 45
0.0
 46
0.0
 47
0.0
 48
0.0
 49
2.5
140
0.025
141
2.5
142
0.0125
143
0.03937007874
144
100.0
145
0.0
146
0.5
147
0.010000000000000002
148
0.0
 69
0
 70
0
 71
0
 72
0
 73
0
 74
0
 75
0
 76
0
 77
1
 78
12
 79
3
170
0
171
3
172
1
173
0
174
0
175
0
176
0
177
0
178
0
179
2
271
2
272
2
273
2
274
3
275
0
276
0
277
2
278
46
279
2
280
0
281
0
282
0
283
0
284
8
285
0
286
0
288
1
289
3
290
0
340
4C
371
-2
372
-2
  0
DIMSTYLE
105
81
330
4
100
AcDbSymbolTableRecord
100
AcDbDimStyleTableRecord
  2
EZ_M_5_H25_CM
 70
0
 40
1.0
 41
0.0125
 42
0.00625
 43
3.75
 44
0.018750000000000003
 45
0.0
 46
0.0
 47
0.0
 48
0.0
 49
2.5
140
0.0125
141
2.5
142
0.00625
143
0.03937007874
144
100.0
145
0.0
146
0.5
147
0.005000000000000001
148
0.0
 69
0
 70
0
 71
0
 72
0
 73
0
 74
0
 75
0
 76
0
 77
1
 78
12
 79
3
170
0
171
3
172
1
173
0
174
0
175
0
176
0
177
0
178
0
179
2
271
2
272
2
273
2
274
3
275
0
276
0
277
2
278
46
279
2
280
0
281
0
282
0
283
0
284
8
285
0
286
0
288
1
289
3
290
0
340
4C
371
-2
372
-2
  0
DIMSTYLE
105
82
330
4
100
AcDbSymbolTableRecord
100
AcDbDimStyleTableRecord
  2
EZ_M_1_H25_CM
 70
0
 40
1.0
 41
0.0025
 42
0.00125
 43
3.75
 44
0.00375
 45
0.0
 46
0.0
 47
0.0
 48
0.0
 49
2.5
140
0.0025
141
2.5
142
0.00125
143
0.03937007874
144
100.0
145
0.0
146
0.5
147
0.001
148
0.0
 69
0
 70
0
 71
0
 72
0
 73
0
 74
0
 75
0
 76
0
 77
1
 78
12
 79
3
170
0
171
3
172
1
173
0
174
0
175
0
176
0
177
0
178
0
179
2
271
2
272
2
273
2
274
3
275
0
276
0
277
2
278
46
279
2
280
0
281
0
282
0
283
0
284
8
285
0
286
0
288
1
289
3
290
0
340
4C
371
-2
372
-2
  0
DIMSTYLE
105
83
330
4
100
AcDbSymbolTableRecord
100
AcDbDimStyleTableRecord
  2
EZ_RADIUS
 70
0
 40
1.0
 41
0.25
 42
0.125
 43
3.75
 44
0.375
 45
0.0
 46
0.0
 47
0.0
 48
0.0
 49
2.5
140
0.25
141
0.0
142
0.0
143
0.03937007874
144
100.0
145
0.0
146
0.5
147
0.1
148
0.0
 69
0
 70
0
 71
0
 72
0
 73
0
 74
0
 75
0
 76
0
 77
1
 78
12
 79
3
170
0
171
3
172
0
173
0
174
0
175
0
176
0
177
0
178
0
179
2
271
2
272
2
273
2
274
3
275
0
276
0
277
2
278
46
279
1
280
0
281
0
282
0
283
0
284
8
285
0
286
0
288
1
289
3
290
0
340
4C
342
84
371
-2
372
-2
  0
DIMSTYLE
105
88
330
4
100
AcDbSymbolTableRecord
100
AcDbDimStyleTableRecord
  2
EZ_RADIUS_INSIDE
 70
0
 40
1.0
 41
0.25
 42
0.125
 43
3.75
 44
0.375
 45
0.0
 46
0.0
 47
0.0
 48
0.0
 49
2.5
140
0.25
141
0.0
142
0.0
143
0.03937007874
144
100.0
145
0.0
146
0.5
147
0.1
148
0.0
 69
0
 70
0
 71
0
 72
0
 73
0
 74
0
 75
0
 76
0
 77
0
 78
12
 79
3
170
0
171
3
172
0
173
0
174
1
175
0
176
0
177
0
178
0
179
2
271
2
272
2
273
2
274
3
275
0
276
0
277
2
278
46
279
0
280
0
281
0
282
0
283
0
284
8
285
0
286
0
288
1
289
0
290
0
340
4C
342
84
371
-2
372
-2
  0
DIMSTYLE
105
89
330
4
100
AcDbSymbolTableRecord
100
AcDbDimStyleTableRecord
  2
EZ_CURVED
 70
0
 40
1.0
 41
0.25
 42
0.125
 43
3.75
 44
0.375
 45
0.0
 46
0.0
 47
0.0
 48
0.0
 49
2.5
140
0.25
141
2.5
142
0.0
143
0.03937007874
144
100.0
145
0.0
146
0.5
147
0.1
148
0.0
 69
0
 70
0
 71
0
 72
0
 73
0
 74
0
 75
0
 76
0
 77
1
 78
12
 79
2
 90
2
170
0
171
3
172
1
173
0
174
0
175
0
176
0
177
0
178
0
179
2
271
2
272
2
273
2
274
3
275
0
276
0
277
2
278
46
279
2
280
0
281
0
282
0
283
0
284
8
285
0
286
0
288
1
289
3
290
0
340
4C
371
-2
372
-2
  0
ENDTAB
  0
TABLE
  2
BLOCK_RECORD
  5
9
330
0
100
AcDbSymbolTable
 70
5
  0
BLOCK_RECORD
  5
17
330
9
100
AcDbSymbolTableRecord
100
AcDbBlockTableRecord
  2
*Model_Space
340
1A
 70
0
280
1
281
0
  0
BLOCK_RECORD
  5
1B
330
9
100
AcDbSymbolTableRecord
100
AcDbBlockTableRecord
  2
*Paper_Space
340
1E
 70
0
280
1
281
0
  0
BLOCK_RECORD
  5
74
330
9
100
AcDbSymbolTableRecord
100
AcDbBlockTableRecord
  2
_ARCHTICK
340
0
 70
0
280
1
281
0
  0
BLOCK_RECORD
  5
78
330
9
100
AcDbSymbolTableRecord
100
AcDbBlockTableRecord
  2
_CLOSEDFILLED
340
0
 70
0
280
1
281
0
  0
BLOCK_RECORD
  5
84
330
9
100
AcDbSymbolTableRecord
100
AcDbBlockTableRecord
  2
_CLOSEDBLANK
340
0
 70
0
280
1
281
0
  0
ENDTAB
  0
ENDSEC
  0
SECTION
  2
BLOCKS
  0
BLOCK
  5
18
330
17
100
AcDbEntity
  8
0
100
AcDbBlockBegin
  2
*Model_Space
 70
0
 10
0.0
 20
0.0
 30
0.0
  3
*Model_Space
  1

  0
ENDBLK
  5
19
330
17
100
AcDbEntity
  8
0
100
AcDbBlockEnd
  0
BLOCK
  5
1C
330
1B
100
AcDbEntity
  8
0
100
AcDbBlockBegin
  2
*Paper_Space
 70
0
 10
0.0
 20
0.0
 30
0.0
  3
*Paper_Space
  1

  0
ENDBLK
  5
1D
330
1B
100
AcDbEntity
  8
0
100
AcDbBlockEnd
  0
BLOCK
  5
75
330
74
100
AcDbEntity
  8
0
100
AcDbBlockBegin
  2
_ARCHTICK
 70
0
 10
0.0
 20
0.0
 30
0.0
  3
_ARCHTICK
  1

  0
LWPOLYLINE
  5
77
330
74
100
AcDbEntity
  8
0
  6
BYBLOCK
 62
0
100
AcDbPolyline
 90
2
 70
0
 43
0.15
 10
-0.5
 20
-0.5
 10
0.5
 20
0.5
  0
ENDBLK
  5
76
330
74
100
AcDbEntity
  8
0
100
AcDbBlockEnd
  0
BLOCK
  5
79
330
78
100
AcDbEntity
  8
0
100
AcDbBlockBegin
  2
_CLOSEDFILLED
 70
0
 10
0.0
 20
0.0
 30
0.0
  3
_CLOSEDFILLED
  1

  0
SOLID
  5
7B
330
78
100
AcDbEntity
  8
0
  6
BYBLOCK
 62
0
100
AcDbTrace
 10
-1.0
 20
0.16439898372402537
 30
0.0
 11
0.0
 21
0.0
 31
0.0
 12
-1.0
 22
-0.16439898372402537
 32
0.0
 13
-1.0
 23
-0.16439898372402537
 33
0.0
  0
ENDBLK
  5
7A
330
78
100
AcDbEntity
  8
0
100
AcDbBlockEnd
  0
BLOCK
  5
85
330
84
100
AcDbEntity
  8
0
100
AcDbBlockBegin
  2
_CLOSEDBLANK
 70
0
 10
0.0
 20
0.0
 30
0.0
  3
_CLOSEDBLANK
  1

  0
LWPOLYLINE
  5
87
330
84
100
AcDbEntity
  8
0
  6
BYBLOCK
 62
0
100
AcDbPolyline
 90
3
 70
1
 10
-1.0
 20
0.16439898372402537
 10
0.0
 20
0.0
 10
-1.0
 20
-0.16439898372402537
  0
ENDBLK
  5
86
330
84
100
AcDbEntity
  8
0
100
AcDbBlockEnd
  0
ENDSEC
  0
SECTION
  2
ENTITIES
  0
LWPOLYLINE
  5
9A
330
17
100
AcDbEntity
  8
01_ОБШИВКА
100
AcDbPolyline
 90
562
 70
1
 10
0.0
 20
6209.808616693166
 10
500.0
 20
6397.33793319102
 10
1000.0
 20
6573.228023712079
 10
1500.0
 20
6735.947127481189
 10
2000.0
 20
6883.965396768792
 10
2500.0
 20
7015.755348619787
 10
3000.0
 20
7130.51687015973
 10
3500.0
 20
7228.333749890662
 10
4000.0
 20
7311.783064331734
 10
4500.0
 20
7385.806865232545
 10
5000.0
 20
7452.37840651016
 10
5500.0
 20
7513.47094191581
 10
6000.0
 20
7571.057725045127
 10
6500.0
 20
7627.112009347985
 10
7000.0
 20
7683.607048137979
 10
7500.0
 20
7741.076110981368
 10
8000.0
 20
7798.096992163611
 10
8500.0
 20
7853.709732032458
 10
9000.0
 20
7906.954371001376
 10
9500.0
 20
7956.870949545001
 10
10000.0
 20
8002.499508194522
 10
10500.0
 20
8042.880087533043
 10
11000.0
 20
8081.805552937511
 10
11500.0
 20
8121.957191699203
 10
12000.0
 20
8160.707676381709
 10
12500.0
 20
8195.429678410585
 10
13000.0
 20
8223.49586817315
 10
13500.0
 20
8242.278915096558
 10
14000.0
 20
8249.151487711093
 10
14500.0
 20
8249.196657303082
 10
15000.0
 20
8249.248019339542
 10
15500.0
 20
8249.304031592515
 10
16000.0
 20
8249.36315729555
 10
16500.0
 20
8249.423865324303
 10
17000.0
 20
8249.484629740817
 10
17500.0
 20
8249.543928873629
 10
18000.0
 20
8249.600244124858
 10
18500.0
 20
8249.652058694677
 10
19000.0
 20
8249.69785639352
 10
19500.0
 20
8249.736120673448
 10
20000.0
 20
8249.765333951911
 10
20500.0
 20
8249.783977223833
 10
21000.0
 20
8249.790529860902
 10
21500.0
 20
8249.790529860902
 10
22000.0
 20
8249.790529860902
 10
22500.0
 20
8249.790529860902
 10
23000.0
 20
8249.790529860902
 10
23500.0
 20
8249.790529860902
 10
24000.0
 20
8249.790529860902
 10
24500.0
 20
8249.790529860902
 10
25000.0
 20
8249.790529860902
 10
25500.0
 20
8249.790529860902
 10
26000.0
 20
8249.790529860902
 10
26500.0
 20
8249.790529860902
 10
27000.0
 20
8249.790529860902
 10
27500.0
 20
8249.790529860902
 10
28000.0
 20
8249.790529860902
 10
28500.0
 20
8249.790529860902
 10
29000.0
 20
8249.790529860902
 10
29500.0
 20
8249.790529860902
 10
30000.0
 20
8249.790529860902
 10
30500.0
 20
8249.790529860902
 10
31000.0
 20
8249.790529860902
 10
31500.0
 20
8249.790529860902
 10
32000.0
 20
8249.790529860902
 10
32500.0
 20
8249.790529860902
 10
33000.0
 20
8249.790529860902
 10
33500.0
 20
8249.790529860902
 10
34000.0
 20
8249.790529860902
 10
34500.0
 20
8249.790529860902
 10
35000.0
 20
8249.790529860902
 10
35500.0
 20
8249.790529860902
 10
36000.0
 20
8249.790529860902
 10
36500.0
 20
8249.790529860902
 10
37000.0
 20
8249.790529860902
 10
37500.0
 20
8249.790529860902
 10
38000.0
 20
8249.790529860902
 10
38500.0
 20
8249.790529860902
 10
39000.0
 20
8249.790529860902
 10
39500.0
 20
8249.790529860902
 10
40000.0
 20
8249.790529860902
 10
40500.0
 20
8249.790529860902
 10
41000.0
 20
8249.790529860902
 10
41500.0
 20
8249.790529860902
 10
42000.0
 20
8249.790529860902
 10
42500.0
 20
8249.790529860902
 10
43000.0
 20
8249.790529860902
 10
43500.0
 20
8249.790529860902
 10
44000.0
 20
8249.790529860902
 10
44500.0
 20
8249.790529860902
 10
45000.0
 20
8249.790529860902
 10
45500.0
 20
8249.790529860902
 10
46000.0
 20
8249.790529860902
 10
46500.0
 20
8249.790529860902
 10
47000.0
 20
8249.790529860902
 10
47500.0
 20
8249.790529860902
 10
48000.0
 20
8249.790529860902
 10
48500.0
 20
8249.790529860902
 10
49000.0
 20
8249.790529860902
 10
49500.0
 20
8249.790529860902
 10
50000.0
 20
8249.790529860902
 10
50500.0
 20
8249.790529860902
 10
51000.0
 20
8249.790529860902
 10
51500.0
 20
8249.790529860902
 10
52000.0
 20
8249.790529860902
 10
52500.0
 20
8249.790529860902
 10
53000.0
 20
8249.790529860902
 10
53500.0
 20
8249.790529860902
 10
54000.0
 20
8249.790529860902
 10
54500.0
 20
8249.790529860902
 10
55000.0
 20
8249.790529860902
 10
55500.0
 20
8249.790529860902
 10
56000.0
 20
8249.790529860902
 10
56500.0
 20
8249.790529860902
 10
57000.0
 20
8249.790529860902
 10
57500.0
 20
8249.790529860902
 10
58000.0
 20
8249.790529860902
 10
58500.0
 20
8249.790529860902
 10
59000.0
 20
8249.790529860902
 10
59500.0
 20
8249.790529860902
 10
60000.0
 20
8236.397859767476
 10
60500.0
 20
7782.470882301935
 10
61000.0
 20
6848.2327676603745
 10
61500.0
 20
5790.530722050249
 10
62000.0
 20
5013.370976924335
 10
62500.0
 20
4800.0
 10
63000.0
 20
4800.0
 10
63500.0
 20
4800.0
 10
64000.0
 20
4800.0
 10
64500.0
 20
4800.0
 10
65000.0
 20
4800.0
 10
65500.0
 20
4800.0
 10
66000.0
 20
4800.0
 10
66500.0
 20
4800.0
 10
67000.0
 20
4800.0
 10
67500.0
 20
4800.0
 10
68000.0
 20
4800.0
 10
68500.0
 20
4800.0
 10
69000.0
 20
4800.0
 10
69500.0
 20
4800.0
 10
70000.0
 20
5013.370976924335
 10
70500.0
 20
5790.530722050249
 10
71000.0
 20
6848.2327676603745
 10
71500.0
 20
7782.470882301935
 10
72000.0
 20
8236.397859767476
 10
72500.0
 20
8249.790529860902
 10
73000.0
 20
8249.790529860902
 10
73500.0
 20
8249.790529860902
 10
74000.0
 20
8249.790529860902
 10
74500.0
 20
8249.790529860902
 10
75000.0
 20
8249.790529860902
 10
75500.0
 20
8249.790529860902
 10
76000.0
 20
8249.790529860902
 10
76500.0
 20
8249.790529860902
 10
77000.0
 20
8249.790529860902
 10
77500.0
 20
8249.790529860902
 10
78000.0
 20
8249.790529860902
 10
78500.0
 20
8249.790529860902
 10
79000.0
 20
8249.790529860902
 10
79500.0
 20
8249.790529860902
 10
80000.0
 20
8249.790529860902
 10
80500.0
 20
8249.790529860902
 10
81000.0
 20
8249.790529860902
 10
81500.0
 20
8249.790529860902
 10
82000.0
 20
8249.790529860902
 10
82500.0
 20
8249.790529860902
 10
83000.0
 20
8249.790529860902
 10
83500.0
 20
8249.790529860902
 10
84000.0
 20
8249.790529860902
 10
84500.0
 20
8249.790529860902
 10
85000.0
 20
8249.790529860902
 10
85500.0
 20
8249.790529860902
 10
86000.0
 20
8249.790529860902
 10
86500.0
 20
8249.790529860902
 10
87000.0
 20
8249.790529860902
 10
87500.0
 20
8249.790529860902
 10
88000.0
 20
8249.790529860902
 10
88500.0
 20
8249.790529860902
 10
89000.0
 20
8249.790529860902
 10
89500.0
 20
8249.790529860902
 10
90000.0
 20
8249.790529860902
 10
90500.0
 20
8249.790529860902
 10
91000.0
 20
8249.790529860902
 10
91500.0
 20
8249.790529860902
 10
92000.0
 20
8249.790529860902
 10
92500.0
 20
8249.790529860902
 10
93000.0
 20
8249.790529860902
 10
93500.0
 20
8249.790529860902
 10
94000.0
 20
8249.790529860902
 10
94500.0
 20
8249.790529860902
 10
95000.0
 20
8249.790529860902
 10
95500.0
 20
8249.790529860902
 10
96000.0
 20
8249.790529860902
 10
96500.0
 20
8249.790529860902
 10
97000.0
 20
8249.790529860902
 10
97500.0
 20
8249.790529860902
 10
98000.0
 20
8249.790529860902
 10
98500.0
 20
8249.790529860902
 10
99000.0
 20
8249.790529860902
 10
99500.0
 20
8249.790529860902
 10
100000.0
 20
8249.790529860902
 10
100500.0
 20
8249.790529860902
 10
101000.0
 20
8249.790529860902
 10
101500.0
 20
8249.790529860902
 10
102000.0
 20
8249.790529860902
 10
102500.0
 20
8249.790529860902
 10
103000.0
 20
8249.790529860902
 10
103500.0
 20
8249.790529860902
 10
104000.0
 20
8249.790529860902
 10
104500.0
 20
8249.790529860902
 10
105000.0
 20
8249.790529860902
 10
105500.0
 20
8249.790529860902
 10
106000.0
 20
8249.790529860902
 10
106500.0
 20
8249.790529860902
 10
107000.0
 20
8249.790529860902
 10
107500.0
 20
8249.790529860902
 10
108000.0
 20
8249.790529860902
 10
108500.0
 20
8249.790529860902
 10
109000.0
 20
8249.790529860902
 10
109500.0
 20
8249.790529860902
 10
110000.0
 20
8249.790529860902
 10
110500.0
 20
8249.790529860902
 10
111000.0
 20
8249.790529860902
 10
111500.0
 20
8249.790529860902
 10
112000.0
 20
8249.790529860902
 10
112500.0
 20
8249.790529860902
 10
113000.0
 20
8249.790529860902
 10
113500.0
 20
8249.790529860902
 10
114000.0
 20
8249.790529860902
 10
114500.0
 20
8249.790529860902
 10
115000.0
 20
8249.790529860902
 10
115500.0
 20
8249.790529860902
 10
116000.0
 20
8249.790529860902
 10
116500.0
 20
8249.790529860902
 10
117000.0
 20
8249.790529860902
 10
117500.0
 20
8249.790529860902
 10
118000.0
 20
8249.790529860902
 10
118500.0
 20
8249.790529860902
 10
119000.0
 20
8249.790529860902
 10
119500.0
 20
8236.90501861321
 10
120000.0
 20
8199.799495947955
 10
120500.0
 20
8140.800477649725
 10
121000.0
 20
8062.234478478539
 10
121500.0
 20
7966.428012255431
 10
122000.0
 20
7855.707592010152
 10
122500.0
 20
7732.399730252994
 10
123000.0
 20
7598.830939393458
 10
123500.0
 20
7457.327732295735
 10
124000.0
 20
7310.216622934305
 10
124500.0
 20
7159.824127092689
 10
125000.0
 20
7008.4767630340375
 10
125500.0
 20
6858.501052064197
 10
126000.0
 20
6712.223518905766
 10
126500.0
 20
6557.967976821761
 10
127000.0
 20
6385.102066290395
 10
127500.0
 20
6197.51805662318
 10
128000.0
 20
5999.108219160577
 10
128500.0
 20
5793.764827954009
 10
129000.0
 20
5585.380160399007
 10
129500.0
 20
5377.846497769888
 10
130000.0
 20
5168.922629519265
 10
130500.0
 20
4954.15124411769
 10
131000.0
 20
4734.100474512365
 10
131500.0
 20
4509.338453633454
 10
132000.0
 20
4280.433314393321
 10
132500.0
 20
4047.9531896857034
 10
133000.0
 20
3812.652094717668
 10
133500.0
 20
3573.5624512255704
 10
134000.0
 20
3329.762043462809
 10
134500.0
 20
3081.620835662548
 10
135000.0
 20
2829.507140212963
 10
135500.0
 20
2573.787017621415
 10
136000.0
 20
2314.823507602775
 10
136500.0
 20
2052.9756246191346
 10
137000.0
 20
1787.8660857339892
 10
137500.0
 20
1518.9235936420298
 10
138000.0
 20
1246.2104588267778
 10
138500.0
 20
969.7855976618268
 10
139000.0
 20
689.7029278755863
 10
139500.0
 20
406.0086991785326
 10
140000.0
 20
118.73684210526318
 10
140000.0
 20
-118.73684210526318
 10
139500.0
 20
-406.0086991785326
 10
139000.0
 20
-689.7029278755863
 10
138500.0
 20
-969.7855976618268
 10
138000.0
 20
-1246.2104588267778
 10
137500.0
 20
-1518.9235936420298
 10
137000.0
 20
-1787.8660857339892
 10
136500.0
 20
-2052.9756246191346
 10
136000.0
 20
-2314.823507602775
 10
135500.0
 20
-2573.787017621415
 10
135000.0
 20
-2829.507140212963
 10
134500.0
 20
-3081.620835662548
 10
134000.0
 20
-3329.762043462809
 10
133500.0
 20
-3573.5624512255704
 10
133000.0
 20
-3812.652094717668
 10
132500.0
 20
-4047.9531896857034
 10
132000.0
 20
-4280.433314393321
 10
131500.0
 20
-4509.338453633454
 10
131000.0
 20
-4734.100474512365
 10
130500.0
 20
-4954.15124411769
 10
130000.0
 20
-5168.922629519265
 10
129500.0
 20
-5377.846497769888
 10
129000.0
 20
-5585.380160399007
 10
128500.0
 20
-5793.764827954009
 10
128000.0
 20
-5999.108219160577
 10
127500.0
 20
-6197.51805662318
 10
127000.0
 20
-6385.102066290395
 10
126500.0
 20
-6557.967976821761
 10
126000.0
 20
-6712.223518905766
 10
125500.0
 20
-6858.501052064197
 10
125000.0
 20
-7008.4767630340375
 10
124500.0
 20
-7159.824127092689
 10
124000.0
 20
-7310.216622934305
 10
123500.0
 20
-7457.327732295735
 10
123000.0
 20
-7598.830939393458
 10
122500.0
 20
-7732.399730252994
 10
122000.0
 20
-7855.707592010152
 10
121500.0
 20
-7966.428012255431
 10
121000.0
 20
-8062.234478478539
 10
120500.0
 20
-8140.800477649725
 10
120000.0
 20
-8199.799495947955
 10
119500.0
 20
-8236.90501861321
 10
119000.0
 20
-8249.790529860902
 10
118500.0
 20
-8249.790529860902
 10
118000.0
 20
-8249.790529860902
 10
117500.0
 20
-8249.790529860902
 10
117000.0
 20
-8249.790529860902
 10
116500.0
 20
-8249.790529860902
 10
116000.0
 20
-8249.790529860902
 10
115500.0
 20
-8249.790529860902
 10
115000.0
 20
-8249.790529860902
 10
114500.0
 20
-8249.790529860902
 10
114000.0
 20
-8249.790529860902
 10
113500.0
 20
-8249.790529860902
 10
113000.0
 20
-8249.790529860902
 10
112500.0
 20
-8249.790529860902
 10
112000.0
 20
-8249.790529860902
 10
111500.0
 20
-8249.790529860902
 10
111000.0
 20
-8249.790529860902
 10
110500.0
 20
-8249.790529860902
 10
110000.0
 20
-8249.790529860902
 10
109500.0
 20
-8249.790529860902
 10
109000.0
 20
-8249.790529860902
 10
108500.0
 20
-8249.790529860902
 10
108000.0
 20
-8249.790529860902
 10
107500.0
 20
-8249.790529860902
 10
107000.0
 20
-8249.790529860902
 10
106500.0
 20
-8249.790529860902
 10
106000.0
 20
-8249.790529860902
 10
105500.0
 20
-8249.790529860902
 10
105000.0
 20
-8249.790529860902
 10
104500.0
 20
-8249.790529860902
 10
104000.0
 20
-8249.790529860902
 10
103500.0
 20
-8249.790529860902
 10
103000.0
 20
-8249.790529860902
 10
102500.0
 20
-8249.790529860902
 10
102000.0
 20
-8249.790529860902
 10
101500.0
 20
-8249.790529860902
 10
101000.0
 20
-8249.790529860902
 10
100500.0
 20
-8249.790529860902
 10
100000.0
 20
-8249.790529860902
 10
99500.0
 20
-8249.790529860902
 10
99000.0
 20
-8249.790529860902
 10
98500.0
 20
-8249.790529860902
 10
98000.0
 20
-8249.790529860902
 10
97500.0
 20
-8249.790529860902
 10
97000.0
 20
-8249.790529860902
 10
96500.0
 20
-8249.790529860902
 10
96000.0
 20
-8249.790529860902
 10
95500.0
 20
-8249.790529860902
 10
95000.0
 20
-8249.790529860902
 10
94500.0
 20
-8249.790529860902
 10
94000.0
 20
-8249.790529860902
 10
93500.0
 20
-8249.790529860902
 10
93000.0
 20
-8249.790529860902
 10
92500.0
 20
-8249.790529860902
 10
92000.0
 20
-8249.790529860902
 10
91500.0
 20
-8249.790529860902
 10
91000.0
 20
-8249.790529860902
 10
90500.0
 20
-8249.790529860902
 10
90000.0
 20
-8249.790529860902
 10
89500.0
 20
-8249.790529860902
 10
89000.0
 20
-8249.790529860902
 10
88500.0
 20
-8249.790529860902
 10
88000.0
 20
-8249.790529860902
 10
87500.0
 20
-8249.790529860902
 10
87000.0
 20
-8249.790529860902
 10
86500.0
 20
-8249.790529860902
 10
86000.0
 20
-8249.790529860902
 10
85500.0
 20
-8249.790529860902
 10
85000.0
 20
-8249.790529860902
 10
84500.0
 20
-8249.790529860902
 10
84000.0
 20
-8249.790529860902
 10
83500.0
 20
-8249.790529860902
 10
83000.0
 20
-8249.790529860902
 10
82500.0
 20
-8249.790529860902
 10
82000.0
 20
-8249.790529860902
 10
81500.0
 20
-8249.790529860902
 10
81000.0
 20
-8249.790529860902
 10
80500.0
 20
-8249.790529860902
 10
80000.0
 20
-8249.790529860902
 10
79500.0
 20
-8249.790529860902
 10
79000.0
 20
-8249.790529860902
 10
78500.0
 20
-8249.790529860902
 10
78000.0
 20
-8249.790529860902
 10
77500.0
 20
-8249.790529860902
 10
77000.0
 20
-8249.790529860902
 10
76500.0
 20
-8249.790529860902
 10
76000.0
 20
-8249.790529860902
 10
75500.0
 20
-8249.790529860902
 10
75000.0
 20
-8249.790529860902
 10
74500.0
 20
-8249.790529860902
 10
74000.0
 20
-8249.790529860902
 10
73500.0
 20
-8249.790529860902
 10
73000.0
 20
-8249.790529860902
 10
72500.0
 20
-8249.790529860902
 10
72000.0
 20
-8236.397859767476
 10
71500.0
 20
-7782.470882301935
 10
71000.0
 20
-6848.2327676603745
 10
70500.0
 20
-5790.530722050249
 10
70000.0
 20
-5013.370976924335
 10
69500.0
 20
-4800.0
 10
69000.0
 20
-4800.0
 10
68500.0
 20
-4800.0
 10
68000.0
 20
-4800.0
 10
67500.0
 20
-4800.0
 10
67000.0
 20
-4800.0
 10
66500.0
 20
-4800.0
 10
66000.0
 20
-4800.0
 10
65500.0
 20
-4800.0
 10
65000.0
 20
-4800.0
 10
64500.0
 20
-4800.0
 10
64000.0
 20
-4800.0
 10
63500.0
 20
-4800.0
 10
63000.0
 20
-4800.0
 10
62500.0
 20
-4800.0
 10
62000.0
 20
-5013.370976924335
 10
61500.0
 20
-5790.530722050249
 10
61000.0
 20
-6848.2327676603745
 10
60500.0
 20
-7782.470882301935
 10
60000.0
 20
-8236.397859767476
 10
59500.0
 20
-8249.790529860902
 10
59000.0
 20
-8249.790529860902
 10
58500.0
 20
-8249.790529860902
 10
58000.0
 20
-8249.790529860902
 10
57500.0
 20
-8249.790529860902
 10
57000.0
 20
-8249.790529860902
 10
56500.0
 20
-8249.790529860902
 10
56000.0
 20
-8249.790529860902
 10
55500.0
 20
-8249.790529860902
 10
55000.0
 20
-8249.790529860902
 10
54500.0
 20
-8249.790529860902
 10
54000.0
 20
-8249.790529860902
 10
53500.0
 20
-8249.790529860902
 10
53000.0
 20
-8249.790529860902
 10
52500.0
 20
-8249.790529860902
 10
52000.0
 20
-8249.790529860902
 10
51500.0
 20
-8249.790529860902
 10
51000.0
 20
-8249.790529860902
 10
50500.0
 20
-8249.790529860902
 10
50000.0
 20
-8249.790529860902
 10
49500.0
 20
-8249.790529860902
 10
49000.0
 20
-8249.790529860902
 10
48500.0
 20
-8249.790529860902
 10
48000.0
 20
-8249.790529860902
 10
47500.0
 20
-8249.790529860902
 10
47000.0
 20
-8249.790529860902
 10
46500.0
 20
-8249.790529860902
 10
46000.0
 20
-8249.790529860902
 10
45500.0
 20
-8249.790529860902
 10
45000.0
 20
-8249.790529860902
 10
44500.0
 20
-8249.790529860902
 10
44000.0
 20
-8249.790529860902
 10
43500.0
 20
-8249.790529860902
 10
43000.0
 20
-8249.790529860902
 10
42500.0
 20
-8249.790529860902
 10
42000.0
 20
-8249.790529860902
 10
41500.0
 20
-8249.790529860902
 10
41000.0
 20
-8249.790529860902
 10
40500.0
 20
-8249.790529860902
 10
40000.0
 20
-8249.790529860902
 10
39500.0
 20
-8249.790529860902
 10
39000.0
 20
-8249.790529860902
 10
38500.0
 20
-8249.790529860902
 10
38000.0
 20
-8249.790529860902
 10
37500.0
 20
-8249.790529860902
 10
37000.0
 20
-8249.790529860902
 10
36500.0
 20
-8249.790529860902
 10
36000.0
 20
-8249.790529860902
 10
35500.0
 20
-8249.790529860902
 10
35000.0
 20
-8249.790529860902
 10
34500.0
 20
-8249.790529860902
 10
34000.0
 20
-8249.790529860902
 10
33500.0
 20
-8249.790529860902
 10
33000.0
 20
-8249.790529860902
 10
32500.0
 20
-8249.790529860902
 10
32000.0
 20
-8249.790529860902
 10
31500.0
 20
-8249.790529860902
 10
31000.0
 20
-8249.790529860902
 10
30500.0
 20
-8249.790529860902
 10
30000.0
 20
-8249.790529860902
 10
29500.0
 20
-8249.790529860902
 10
29000.0
 20
-8249.790529860902
 10
28500.0
 20
-8249.790529860902
 10
28000.0
 20
-8249.790529860902
 10
27500.0
 20
-8249.790529860902
 10
27000.0
 20
-8249.790529860902
 10
26500.0
 20
-8249.790529860902
 10
26000.0
 20
-8249.790529860902
 10
25500.0
 20
-8249.790529860902
 10
25000.0
 20
-8249.790529860902
 10
24500.0
 20
-8249.790529860902
 10
24000.0
 20
-8249.790529860902
 10
23500.0
 20
-8249.790529860902
 10
23000.0
 20
-8249.790529860902
 10
22500.0
 20
-8249.790529860902
 10
22000.0
 20
-8249.790529860902
 10
21500.0
 20
-8249.790529860902
 10
21000.0
 20
-8249.790529860902
 10
20500.0
 20
-8249.783977223833
 10
20000.0
 20
-8249.765333951911
 10
19500.0
 20
-8249.736120673448
 10
19000.0
 20
-8249.69785639352
 10
18500.0
 20
-8249.652058694677
 10
18000.0
 20
-8249.600244124858
 10
17500.0
 20
-8249.543928873629
 10
17000.0
 20
-8249.484629740817
 10
16500.0
 20
-8249.423865324303
 10
16000.0
 20
-8249.36315729555
 10
15500.0
 20
-8249.304031592515
 10
15000.0
 20
-8249.248019339542
 10
14500.0
 20
-8249.196657303082
 10
14000.0
 20
-8249.151487711093
 10
13500.0
 20
-8242.278915096558
 10
13000.0
 20
-8223.49586817315
 10
12500.0
 20
-8195.429678410585
 10
12000.0
 20
-8160.707676381709
 10
11500.0
 20
-8121.957191699203
 10
11000.0
 20
-8081.805552937511
 10
10500.0
 20
-8042.880087533043
 10
10000.0
 20
-8002.499508194522
 10
9500.0
 20
-7956.870949545001
 10
9000.0
 20
-7906.954371001376
 10
8500.0
 20
-7853.709732032458
 10
8000.0
 20
-7798.096992163611
 10
7500.0
 20
-7741.076110981368
 10
7000.0
 20
-7683.607048137979
 10
6500.0
 20
-7627.112009347985
 10
6000.0
 20
-7571.057725045127
 10
5500.0
 20
-7513.47094191581
 10
5000.0
 20
-7452.37840651016
 10
4500.0
 20
-7385.806865232545
 10
4000.0
 20
-7311.783064331734
 10
3500.0
 20
-7228.333749890662
 10
3000.0
 20
-7130.51687015973
 10
2500.0
 20
-7015.755348619787
 10
2000.0
 20
-6883.965396768792
 10
1500.0
 20
-6735.947127481189
 10
1000.0
 20
-6573.228023712079
 10
500.0
 20
-6397.33793319102
 10
0.0
 20
-6209.808616693166
  0
LWPOLYLINE
  5
9B
330
17
100
AcDbEntity
  8
02_ПАЛУБЫ
100
AcDbPolyline
 90
598
 70
1
 10
15000.0
 20
4737.768716358051
 10
15150.0
 20
4735.152374719601
 10
15250.0
 20
4794.06677124031
 10
15300.0
 20
4826.040278885025
 10
15450.0
 20
4927.064581303513
 10
15500.0
 20
4961.9848745034615
 10
15600.0
 20
5033.533677703391
 10
15750.0
 20
5137.98907052063
 10
16000.0
 20
5294.086507202479
 10
16250.0
 20
5431.89588830653
 10
16500.0
 20
5554.803416905115
 10
16750.0
 20
5665.196534399896
 10
17000.0
 20
5764.839082306378
 10
17250.0
 20
5855.082291520787
 10
17500.0
 20
5936.991858702808
 10
17750.0
 20
6011.4287168848205
 10
18000.0
 20
6079.10266166419
 10
18250.0
 20
6140.609267650662
 10
18500.0
 20
6196.4560946463325
 10
18750.0
 20
6247.081792813265
 10
19000.0
 20
6292.870363348938
 10
19250.0
 20
6334.16203323511
 10
19400.0
 20
6356.906624708232
 10
19500.0
 20
6374.758390668029
 10
19550.0
 20
6386.14190735133
 10
19700.0
 20
6431.60337323298
 10
19750.0
 20
6451.387499426311
 10
19850.0
 20
6501.320838628159
 10
20000.0
 20
6683.967155741892
 10
20150.0
 20
6700.020167666907
 10
20250.0
 20
6710.060446341428
 10
20300.0
 20
6714.887264030576
 10
20450.0
 20
6728.614705182614
 10
20500.0
 20
6732.94504691394
 10
20600.0
 20
6741.247317480344
 10
20750.0
 20
6752.828715816649
 10
21000.0
 20
6769.910387770871
 10
21250.0
 20
6784.382808646274
 10
21500.0
 20
6796.435041811619
 10
21750.0
 20
6806.254964425491
 10
22000.0
 20
6814.031894267566
 10
22250.0
 20
6819.959541898439
 10
22500.0
 20
6824.239602107652
 10
22750.0
 20
6827.086572965585
 10
23000.0
 20
6828.735111727239
 10
23250.0
 20
6829.453658606719
 10
23500.0
 20
6829.5830589372945
 10
23750.0
 20
6829.5830589372945
 10
24000.0
 20
6829.5830589372945
 10
24500.0
 20
6829.5830589372945
 10
25000.0
 20
6829.5830589372945
 10
25500.0
 20
6829.5830589372945
 10
26000.0
 20
6829.5830589372945
 10
26500.0
 20
6829.5830589372945
 10
27000.0
 20
6829.5830589372945
 10
27500.0
 20
6829.5830589372945
 10
28000.0
 20
6829.5830589372945
 10
28500.0
 20
6829.5830589372945
 10
29000.0
 20
6829.5830589372945
 10
29500.0
 20
6829.5830589372945
 10
30000.0
 20
6829.5830589372945
 10
30500.0
 20
6829.5830589372945
 10
31000.0
 20
6829.5830589372945
 10
31500.0
 20
6829.5830589372945
 10
32000.0
 20
6829.5830589372945
 10
32500.0
 20
6829.5830589372945
 10
33000.0
 20
6829.5830589372945
 10
33500.0
 20
6829.5830589372945
 10
34000.0
 20
6829.5830589372945
 10
34500.0
 20
6829.5830589372945
 10
35000.0
 20
6829.5830589372945
 10
35500.0
 20
6829.5830589372945
 10
36000.0
 20
6829.5830589372945
 10
36500.0
 20
6829.5830589372945
 10
37000.0
 20
6829.5830589372945
 10
37500.0
 20
6829.5830589372945
 10
38000.0
 20
6829.5830589372945
 10
38500.0
 20
6829.5830589372945
 10
39000.0
 20
6829.5830589372945
 10
39500.0
 20
6829.5830589372945
 10
40000.0
 20
6829.5830589372945
 10
40500.0
 20
6829.5830589372945
 10
41000.0
 20
6829.5830589372945
 10
41500.0
 20
6829.5830589372945
 10
42000.0
 20
6829.5830589372945
 10
42500.0
 20
6829.5830589372945
 10
43000.0
 20
6829.5830589372945
 10
43500.0
 20
6829.5830589372945
 10
44000.0
 20
6829.5830589372945
 10
44500.0
 20
6829.5830589372945
 10
45000.0
 20
6829.5830589372945
 10
45500.0
 20
6829.5830589372945
 10
46000.0
 20
6829.5830589372945
 10
46500.0
 20
6829.5830589372945
 10
47000.0
 20
6829.5830589372945
 10
47500.0
 20
6829.5830589372945
 10
48000.0
 20
6829.5830589372945
 10
48500.0
 20
6829.5830589372945
 10
49000.0
 20
6829.5830589372945
 10
49500.0
 20
6829.5830589372945
 10
50000.0
 20
6829.5830589372945
 10
50500.0
 20
6829.5830589372945
 10
51000.0
 20
6829.5830589372945
 10
51500.0
 20
6829.5830589372945
 10
52000.0
 20
6829.5830589372945
 10
52500.0
 20
6829.5830589372945
 10
53000.0
 20
6829.5830589372945
 10
53500.0
 20
6829.5830589372945
 10
54000.0
 20
6829.5830589372945
 10
54500.0
 20
6829.5830589372945
 10
55000.0
 20
6829.5830589372945
 10
55500.0
 20
6829.5830589372945
 10
56000.0
 20
6829.5830589372945
 10
56500.0
 20
6829.5830589372945
 10
57000.0
 20
6829.5830589372945
 10
57400.0
 20
6829.5830589372945
 10
57500.0
 20
6829.5830589372945
 10
57550.0
 20
6829.5830589372945
 10
57700.0
 20
6829.5830589372945
 10
57850.0
 20
6829.5830589372945
 10
58000.0
 20
6829.5830589372945
 10
58150.0
 20
6664.223601995758
 10
58300.0
 20
6613.076707991185
 10
58450.0
 20
6587.521599799331
 10
58500.0
 20
6583.079734641477
 10
58600.0
 20
6579.5830589372945
 10
59000.0
 20
6579.5830589372945
 10
59500.0
 20
6579.5830589372945
 10
60000.0
 20
6579.5830589372945
 10
60500.0
 20
6579.5830589372945
 10
61000.0
 20
6579.5830589372945
 10
61500.0
 20
6579.5830589372945
 10
62000.0
 20
6579.5830589372945
 10
62500.0
 20
6579.5830589372945
 10
63000.0
 20
6579.5830589372945
 10
63500.0
 20
6579.5830589372945
 10
64000.0
 20
6579.5830589372945
 10
64500.0
 20
6579.5830589372945
 10
65000.0
 20
6579.5830589372945
 10
65500.0
 20
6579.5830589372945
 10
66000.0
 20
6579.5830589372945
 10
66500.0
 20
6579.5830589372945
 10
67000.0
 20
6579.5830589372945
 10
67500.0
 20
6579.5830589372945
 10
68000.0
 20
6579.5830589372945
 10
68500.0
 20
6579.5830589372945
 10
69000.0
 20
6579.5830589372945
 10
69500.0
 20
6579.5830589372945
 10
70000.0
 20
6579.5830589372945
 10
70500.0
 20
6579.5830589372945
 10
71000.0
 20
6579.5830589372945
 10
71500.0
 20
6579.5830589372945
 10
72000.0
 20
6579.5830589372945
 10
72500.0
 20
6579.5830589372945
 10
73000.0
 20
6579.5830589372945
 10
73400.0
 20
6579.5830589372945
 10
73500.0
 20
6583.079734641477
 10
73550.0
 20
6587.521599799331
 10
73700.0
 20
6613.076707991185
 10
73850.0
 20
6664.223601995755
 10
74000.0
 20
6829.5830589372945
 10
74150.0
 20
6829.5830589372945
 10
74300.0
 20
6829.5830589372945
 10
74450.0
 20
6829.5830589372945
 10
74500.0
 20
6829.5830589372945
 10
74600.0
 20
6829.5830589372945
 10
75000.0
 20
6829.5830589372945
 10
75500.0
 20
6829.5830589372945
 10
76000.0
 20
6829.5830589372945
 10
76500.0
 20
6829.5830589372945
 10
77000.0
 20
6829.5830589372945
 10
77500.0
 20
6829.5830589372945
 10
78000.0
 20
6829.5830589372945
 10
78500.0
 20
6829.5830589372945
 10
79000.0
 20
6829.5830589372945
 10
79500.0
 20
6829.5830589372945
 10
80000.0
 20
6829.5830589372945
 10
80500.0
 20
6829.5830589372945
 10
81000.0
 20
6829.5830589372945
 10
81500.0
 20
6829.5830589372945
 10
82000.0
 20
6829.5830589372945
 10
82500.0
 20
6829.5830589372945
 10
83000.0
 20
6829.5830589372945
 10
83500.0
 20
6829.5830589372945
 10
84000.0
 20
6829.5830589372945
 10
84500.0
 20
6829.5830589372945
 10
85000.0
 20
6829.5830589372945
 10
85500.0
 20
6829.5830589372945
 10
86000.0
 20
6829.5830589372945
 10
86500.0
 20
6829.5830589372945
 10
87000.0
 20
6829.5830589372945
 10
87500.0
 20
6829.5830589372945
 10
88000.0
 20
6829.5830589372945
 10
88500.0
 20
6829.5830589372945
 10
89000.0
 20
6829.5830589372945
 10
89500.0
 20
6829.5830589372945
 10
90000.0
 20
6829.5830589372945
 10
90500.0
 20
6829.5830589372945
 10
91000.0
 20
6829.5830589372945
 10
91500.0
 20
6829.5830589372945
 10
92000.0
 20
6829.5830589372945
 10
92500.0
 20
6829.5830589372945
 10
93000.0
 20
6829.5830589372945
 10
93500.0
 20
6829.5830589372945
 10
94000.0
 20
6829.5830589372945
 10
94500.0
 20
6829.5830589372945
 10
95000.0
 20
6829.5830589372945
 10
95500.0
 20
6829.5830589372945
 10
96000.0
 20
6829.5830589372945
 10
96500.0
 20
6829.5830589372945
 10
97000.0
 20
6829.5830589372945
 10
97500.0
 20
6829.5830589372945
 10
98000.0
 20
6829.5830589372945
 10
98500.0
 20
6829.5830589372945
 10
99000.0
 20
6829.5830589372945
 10
99500.0
 20
6829.5830589372945
 10
100000.0
 20
6829.5830589372945
 10
100500.0
 20
6829.5830589372945
 10
101000.0
 20
6829.5830589372945
 10
101250.0
 20
6829.5830589372945
 10
101500.0
 20
6829.5830589372945
 10
101750.0
 20
6829.5830589372945
 10
102000.0
 20
6827.183787930148
 10
102250.0
 20
6820.837465543496
 10
102500.0
 20
6811.3295689898305
 10
102750.0
 20
6798.982102448337
 10
103000.0
 20
6783.993475560609
 10
103250.0
 20
6766.502961873083
 10
103500.0
 20
6746.6152200085435
 10
103750.0
 20
6724.4122154430115
 10
104000.0
 20
6699.959882812835
 10
104250.0
 20
6673.312206367803
 10
104500.0
 20
6644.5138873260585
 10
104750.0
 20
6613.602174141121
 10
105000.0
 20
6580.608165890468
 10
105250.0
 20
6545.557767601044
 10
105500.0
 20
6508.472406289938
 10
105750.0
 20
6469.369576844838
 10
106000.0
 20
6428.263263275813
 10
106250.0
 20
6385.1642662343465
 10
106500.0
 20
6340.080458285405
 10
106750.0
 20
6293.016982174643
 10
107000.0
 20
6243.976403071292
 10
107250.0
 20
6192.958822781648
 10
107500.0
 20
6139.961961782714
 10
107750.0
 20
6084.981213344865
 10
108000.0
 20
6028.009672816001
 10
108250.0
 20
5969.038144207358
 10
108500.0
 20
5908.055125469992
 10
108750.0
 20
5845.0467732220895
 10
109000.0
 20
5779.996847137641
 10
109250.0
 20
5712.8866337032
 10
109500.0
 20
5643.694848564467
 10
109750.0
 20
5572.397516194558
 10
110000.0
 20
5498.967825098703
 10
110250.0
 20
5423.375956203184
 10
110500.0
 20
5345.588881434394
 10
110750.0
 20
5265.570128748597
 10
111000.0
 20
5183.279508989159
 10
111250.0
 20
5098.672798882632
 10
111500.0
 20
5011.701373182549
 10
111750.0
 20
4921.680150209459
 10
112000.0
 20
4827.00092580014
 10
112250.0
 20
4728.150460900704
 10
112500.0
 20
4625.383578162137
 10
112750.0
 20
4518.850670056329
 10
113000.0
 20
4408.653248128883
 10
113250.0
 20
4294.862369864763
 10
113400.0
 20
4224.88399966069
 10
113500.0
 20
4177.526616656106
 10
113550.0
 20
4153.637012542978
 10
113700.0
 20
4081.1263221280356
 10
113750.0
 20
4056.675800284136
 10
113850.0
 20
4007.3546367769595
 10
114000.0
 20
3932.3224653992156
 10
114150.0
 20
3690.668616505982
 10
114250.0
 20
3601.4037872653544
 10
114300.0
 20
3561.9610420947347
 10
114450.0
 20
3457.5724290374583
 10
114500.0
 20
3426.5683719359427
 10
114600.0
 20
3369.5183735499622
 10
114750.0
 20
3288.108783308312
 10
115000.0
 20
3149.5074529163767
 10
115250.0
 20
3007.1745625917865
 10
115500.0
 20
2860.9836938788885
 10
115750.0
 20
2710.7669340304365
 10
116000.0
 20
2556.303416645509
 10
116250.0
 20
2397.303068598134
 10
116500.0
 20
2233.3829965210766
 10
116750.0
 20
2064.0320956948917
 10
117000.0
 20
1888.555884981653
 10
117250.0
 20
1705.9861484480653
 10
117400.0
 20
1592.482466997935
 10
117500.0
 20
1518.4198517096008
 10
117550.0
 20
1483.4606145590346
 10
117700.0
 20
1388.0570728827688
 10
117750.0
 20
1360.1777104804103
 10
117850.0
 20
1313.5141526537748
 10
118000.0
 20
1347.420332493247
 10
118000.0
 20
-1347.420332493247
 10
117850.0
 20
-1313.5141526537748
 10
117750.0
 20
-1360.1777104804103
 10
117700.0
 20
-1388.0570728827688
 10
117550.0
 20
-1483.4606145590346
 10
117500.0
 20
-1518.4198517096008
 10
117400.0
 20
-1592.482466997935
 10
117250.0
 20
-1705.9861484480653
 10
117000.0
 20
-1888.555884981653
 10
116750.0
 20
-2064.0320956948917
 10
116500.0
 20
-2233.3829965210766
 10
116250.0
 20
-2397.303068598134
 10
116000.0
 20
-2556.303416645509
 10
115750.0
 20
-2710.7669340304365
 10
115500.0
 20
-2860.9836938788885
 10
115250.0
 20
-3007.1745625917865
 10
115000.0
 20
-3149.5074529163767
 10
114750.0
 20
-3288.108783308312
 10
114600.0
 20
-3369.5183735499622
 10
114500.0
 20
-3426.5683719359427
 10
114450.0
 20
-3457.5724290374583
 10
114300.0
 20
-3561.9610420947347
 10
114250.0
 20
-3601.4037872653544
 10
114150.0
 20
-3690.668616505982
 10
114000.0
 20
-3932.3224653992156
 10
113850.0
 20
-4007.3546367769595
 10
113750.0
 20
-4056.675800284136
 10
113700.0
 20
-4081.1263221280356
 10
113550.0
 20
-4153.637012542978
 10
113500.0
 20
-4177.526616656106
 10
113400.0
 20
-4224.88399966069
 10
113250.0
 20
-4294.862369864763
 10
113000.0
 20
-4408.653248128883
 10
112750.0
 20
-4518.850670056329
 10
112500.0
 20
-4625.383578162137
 10
112250.0
 20
-4728.150460900704
 10
112000.0
 20
-4827.00092580014
 10
111750.0
 20
-4921.680150209459
 10
111500.0
 20
-5011.701373182549
 10
111250.0
 20
-5098.672798882632
 10
111000.0
 20
-5183.279508989159
 10
110750.0
 20
-5265.570128748597
 10
110500.0
 20
-5345.588881434394
 10
110250.0
 20
-5423.375956203184
 10
110000.0
 20
-5498.967825098703
 10
109750.0
 20
-5572.397516194558
 10
109500.0
 20
-5643.694848564467
 10
109250.0
 20
-5712.8866337032
 10
109000.0
 20
-5779.996847137641
 10
108750.0
 20
-5845.0467732220895
 10
108500.0
 20
-5908.055125469992
 10
108250.0
 20
-5969.038144207358
 10
108000.0
 20
-6028.009672816001
 10
107750.0
 20
-6084.981213344865
 10
107500.0
 20
-6139.961961782714
 10
107250.0
 20
-6192.958822781648
 10
107000.0
 20
-6243.976403071292
 10
106750.0
 20
-6293.016982174643
 10
106500.0
 20
-6340.080458285405
 10
106250.0
 20
-6385.1642662343465
 10
106000.0
 20
-6428.263263275813
 10
105750.0
 20
-6469.369576844838
 10
105500.0
 20
-6508.472406289938
 10
105250.0
 20
-6545.557767601044
 10
105000.0
 20
-6580.608165890468
 10
104750.0
 20
-6613.602174141121
 10
104500.0
 20
-6644.5138873260585
 10
104250.0
 20
-6673.312206367803
 10
104000.0
 20
-6699.959882812835
 10
103750.0
 20
-6724.4122154430115
 10
103500.0
 20
-6746.6152200085435
 10
103250.0
 20
-6766.502961873083
 10
103000.0
 20
-6783.993475560609
 10
102750.0
 20
-6798.982102448337
 10
102500.0
 20
-6811.3295689898305
 10
102250.0
 20
-6820.837465543496
 10
102000.0
 20
-6827.183787930148
 10
101750.0
 20
-6829.5830589372945
 10
101500.0
 20
-6829.5830589372945
 10
101250.0
 20
-6829.5830589372945
 10
101000.0
 20
-6829.5830589372945
 10
100500.0
 20
-6829.5830589372945
 10
100000.0
 20
-6829.5830589372945
 10
99500.0
 20
-6829.5830589372945
 10
99000.0
 20
-6829.5830589372945
 10
98500.0
 20
-6829.5830589372945
 10
98000.0
 20
-6829.5830589372945
 10
97500.0
 20
-6829.5830589372945
 10
97000.0
 20
-6829.5830589372945
 10
96500.0
 20
-6829.5830589372945
 10
96000.0
 20
-6829.5830589372945
 10
95500.0
 20
-6829.5830589372945
 10
95000.0
 20
-6829.5830589372945
 10
94500.0
 20
-6829.5830589372945
 10
94000.0
 20
-6829.5830589372945
 10
93500.0
 20
-6829.5830589372945
 10
93000.0
 20
-6829.5830589372945
 10
92500.0
 20
-6829.5830589372945
 10
92000.0
 20
-6829.5830589372945
 10
91500.0
 20
-6829.5830589372945
 10
91000.0
 20
-6829.5830589372945
 10
90500.0
 20
-6829.5830589372945
 10
90000.0
 20
-6829.5830589372945
 10
89500.0
 20
-6829.5830589372945
 10
89000.0
 20
-6829.5830589372945
 10
88500.0
 20
-6829.5830589372945
 10
88000.0
 20
-6829.5830589372945
 10
87500.0
 20
-6829.5830589372945
 10
87000.0
 20
-6829.5830589372945
 10
86500.0
 20
-6829.5830589372945
 10
86000.0
 20
-6829.5830589372945
 10
85500.0
 20
-6829.5830589372945
 10
85000.0
 20
-6829.5830589372945
 10
84500.0
 20
-6829.5830589372945
 10
84000.0
 20
-6829.5830589372945
 10
83500.0
 20
-6829.5830589372945
 10
83000.0
 20
-6829.5830589372945
 10
82500.0
 20
-6829.5830589372945
 10
82000.0
 20
-6829.5830589372945
 10
81500.0
 20
-6829.5830589372945
 10
81000.0
 20
-6829.5830589372945
 10
80500.0
 20
-6829.5830589372945
 10
80000.0
 20
-6829.5830589372945
 10
79500.0
 20
-6829.5830589372945
 10
79000.0
 20
-6829.5830589372945
 10
78500.0
 20
-6829.5830589372945
 10
78000.0
 20
-6829.5830589372945
 10
77500.0
 20
-6829.5830589372945
 10
77000.0
 20
-6829.5830589372945
 10
76500.0
 20
-6829.5830589372945
 10
76000.0
 20
-6829.5830589372945
 10
75500.0
 20
-6829.5830589372945
 10
75000.0
 20
-6829.5830589372945
 10
74600.0
 20
-6829.5830589372945
 10
74500.0
 20
-6829.5830589372945
 10
74450.0
 20
-6829.5830589372945
 10
74300.0
 20
-6829.5830589372945
 10
74150.0
 20
-6829.5830589372945
 10
74000.0
 20
-6829.5830589372945
 10
73850.0
 20
-6664.223601995755
 10
73700.0
 20
-6613.076707991185
 10
73550.0
 20
-6587.521599799331
 10
73500.0
 20
-6583.079734641477
 10
73400.0
 20
-6579.5830589372945
 10
73000.0
 20
-6579.5830589372945
 10
72500.0
 20
-6579.5830589372945
 10
72000.0
 20
-6579.5830589372945
 10
71500.0
 20
-6579.5830589372945
 10
71000.0
 20
-6579.5830589372945
 10
70500.0
 20
-6579.5830589372945
 10
70000.0
 20
-6579.5830589372945
 10
69500.0
 20
-6579.5830589372945
 10
69000.0
 20
-6579.5830589372945
 10
68500.0
 20
-6579.5830589372945
 10
68000.0
 20
-6579.5830589372945
 10
67500.0
 20
-6579.5830589372945
 10
67000.0
 20
-6579.5830589372945
 10
66500.0
 20
-6579.5830589372945
 10
66000.0
 20
-6579.5830589372945
 10
65500.0
 20
-6579.5830589372945
 10
65000.0
 20
-6579.5830589372945
 10
64500.0
 20
-6579.5830589372945
 10
64000.0
 20
-6579.5830589372945
 10
63500.0
 20
-6579.5830589372945
 10
63000.0
 20
-6579.5830589372945
 10
62500.0
 20
-6579.5830589372945
 10
62000.0
 20
-6579.5830589372945
 10
61500.0
 20
-6579.5830589372945
 10
61000.0
 20
-6579.5830589372945
 10
60500.0
 20
-6579.5830589372945
 10
60000.0
 20
-6579.5830589372945
 10
59500.0
 20
-6579.5830589372945
 10
59000.0
 20
-6579.5830589372945
 10
58600.0
 20
-6579.5830589372945
 10
58500.0
 20
-6583.079734641477
 10
58450.0
 20
-6587.521599799331
 10
58300.0
 20
-6613.076707991185
 10
58150.0
 20
-6664.223601995758
 10
58000.0
 20
-6829.5830589372945
 10
57850.0
 20
-6829.5830589372945
 10
57700.0
 20
-6829.5830589372945
 10
57550.0
 20
-6829.5830589372945
 10
57500.0
 20
-6829.5830589372945
 10
57400.0
 20
-6829.5830589372945
 10
57000.0
 20
-6829.5830589372945
 10
56500.0
 20
-6829.5830589372945
 10
56000.0
 20
-6829.5830589372945
 10
55500.0
 20
-6829.5830589372945
 10
55000.0
 20
-6829.5830589372945
 10
54500.0
 20
-6829.5830589372945
 10
54000.0
 20
-6829.5830589372945
 10
53500.0
 20
-6829.5830589372945
 10
53000.0
 20
-6829.5830589372945
 10
52500.0
 20
-6829.5830589372945
 10
52000.0
 20
-6829.5830589372945
 10
51500.0
 20
-6829.5830589372945
 10
51000.0
 20
-6829.5830589372945
 10
50500.0
 20
-6829.5830589372945
 10
50000.0
 20
-6829.5830589372945
 10
49500.0
 20
-6829.5830589372945
 10
49000.0
 20
-6829.5830589372945
 10
48500.0
 20
-6829.5830589372945
 10
48000.0
 20
-6829.5830589372945
 10
47500.0
 20
-6829.5830589372945
 10
47000.0
 20
-6829.5830589372945
 10
46500.0
 20
-6829.5830589372945
 10
46000.0
 20
-6829.5830589372945
 10
45500.0
 20
-6829.5830589372945
 10
45000.0
 20
-6829.5830589372945
 10
44500.0
 20
-6829.5830589372945
 10
44000.0
 20
-6829.5830589372945
 10
43500.0
 20
-6829.5830589372945
 10
43000.0
 20
-6829.5830589372945
 10
42500.0
 20
-6829.5830589372945
 10
42000.0
 20
-6829.5830589372945
 10
41500.0
 20
-6829.5830589372945
 10
41000.0
 20
-6829.5830589372945
 10
40500.0
 20
-6829.5830589372945
 10
40000.0
 20
-6829.5830589372945
 10
39500.0
 20
-6829.5830589372945
 10
39000.0
 20
-6829.5830589372945
 10
38500.0
 20
-6829.5830589372945
 10
38000.0
 20
-6829.5830589372945
 10
37500.0
 20
-6829.5830589372945
 10
37000.0
 20
-6829.5830589372945
 10
36500.0
 20
-6829.5830589372945
 10
36000.0
 20
-6829.5830589372945
 10
35500.0
 20
-6829.5830589372945
 10
35000.0
 20
-6829.5830589372945
 10
34500.0
 20
-6829.5830589372945
 10
34000.0
 20
-6829.5830589372945
 10
33500.0
 20
-6829.5830589372945
 10
33000.0
 20
-6829.5830589372945
 10
32500.0
 20
-6829.5830589372945
 10
32000.0
 20
-6829.5830589372945
 10
31500.0
 20
-6829.5830589372945
 10
31000.0
 20
-6829.5830589372945
 10
30500.0
 20
-6829.5830589372945
 10
30000.0
 20
-6829.5830589372945
 10
29500.0
 20
-6829.5830589372945
 10
29000.0
 20
-6829.5830589372945
 10
28500.0
 20
-6829.5830589372945
 10
28000.0
 20
-6829.5830589372945
 10
27500.0
 20
-6829.5830589372945
 10
27000.0
 20
-6829.5830589372945
 10
26500.0
 20
-6829.5830589372945
 10
26000.0
 20
-6829.5830589372945
 10
25500.0
 20
-6829.5830589372945
 10
25000.0
 20
-6829.5830589372945
 10
24500.0
 20
-6829.5830589372945
 10
24000.0
 20
-6829.5830589372945
 10
23750.0
 20
-6829.5830589372945
 10
23500.0
 20
-6829.5830589372945
 10
23250.0
 20
-6829.453658606719
 10
23000.0
 20
-6828.735111727239
 10
22750.0
 20
-6827.086572965585
 10
22500.0
 20
-6824.239602107652
 10
22250.0
 20
-6819.959541898439
 10
22000.0
 20
-6814.031894267566
 10
21750.0
 20
-6806.254964425491
 10
21500.0
 20
-6796.435041811619
 10
21250.0
 20
-6784.382808646274
 10
21000.0
 20
-6769.910387770871
 10
20750.0
 20
-6752.828715816649
 10
20600.0
 20
-6741.247317480344
 10
20500.0
 20
-6732.94504691394
 10
20450.0
 20
-6728.614705182614
 10
20300.0
 20
-6714.887264030576
 10
20250.0
 20
-6710.060446341428
 10
20150.0
 20
-6700.020167666907
 10
20000.0
 20
-6683.967155741892
 10
19850.0
 20
-6501.320838628159
 10
19750.0
 20
-6451.387499426311
 10
19700.0
 20
-6431.60337323298
 10
19550.0
 20
-6386.14190735133
 10
19500.0
 20
-6374.758390668029
 10
19400.0
 20
-6356.906624708232
 10
19250.0
 20
-6334.16203323511
 10
19000.0
 20
-6292.870363348938
 10
18750.0
 20
-6247.081792813265
 10
18500.0
 20
-6196.4560946463325
 10
18250.0
 20
-6140.609267650662
 10
18000.0
 20
-6079.10266166419
 10
17750.0
 20
-6011.4287168848205
 10
17500.0
 20
-5936.991858702808
 10
17250.0
 20
-5855.082291520787
 10
17000.0
 20
-5764.839082306378
 10
16750.0
 20
-5665.196534399896
 10
16500.0
 20
-5554.803416905115
 10
16250.0
 20
-5431.89588830653
 10
16000.0
 20
-5294.086507202479
 10
15750.0
 20
-5137.98907052063
 10
15600.0
 20
-5033.533677703391
 10
15500.0
 20
-4961.9848745034615
 10
15450.0
 20
-4927.064581303513
 10
15300.0
 20
-4826.040278885025
 10
15250.0
 20
-4794.06677124031
 10
15150.0
 20
-4735.152374719601
 10
15000.0
 20
-4737.768716358051
  0
LINE
  5
9C
330
17
100
AcDbEntity
  8
07_ОСИ
100
AcDbLine
 10
-2000.0
 20
0.0
 30
0.0
 11
142000.0
 21
0.0
 31
0.0
  0
LINE
  5
9D
330
17
100
AcDbEntity
  8
06_ПОМЕЩЕНИЯ
100
AcDbLine
 10
15000.0
 20
-4737.768716358051
 30
0.0
 11
15000.0
 21
4737.768716358051
 31
0.0
  0
LINE
  5
9E
330
17
100
AcDbEntity
  8
06_ПОМЕЩЕНИЯ
100
AcDbLine
 10
20000.0
 20
-6683.967155741892
 30
0.0
 11
20000.0
 21
6683.967155741892
 31
0.0
  0
CIRCLE
  5
9F
330
17
100
AcDbEntity
  8
06_ПОМЕЩЕНИЯ
100
AcDbCircle
 10
17500.0
 20
8200.0
 30
0.0
 40
720.0
  0
TEXT
  5
A0
330
17
100
AcDbEntity
  8
06_ПОМЕЩЕНИЯ
100
AcDbText
 10
17500.0
 20
8200.0
 30
0.0
 40
800.0
  1
1
  7
ГОСТ
 72
1
 11
17500.0
 21
8200.0
 31
0.0
100
AcDbText
 73
2
  0
LINE
  5
A1
330
17
100
AcDbEntity
  8
06_ПОМЕЩЕНИЯ
100
AcDbLine
 10
20000.0
 20
-6683.967155741892
 30
0.0
 11
20000.0
 21
6683.967155741892
 31
0.0
  0
LINE
  5
A2
330
17
100
AcDbEntity
  8
06_ПОМЕЩЕНИЯ
100
AcDbLine
 10
26000.0
 20
-6829.5830589372945
 30
0.0
 11
26000.0
 21
6829.5830589372945
 31
0.0
  0
CIRCLE
  5
A3
330
17
100
AcDbEntity
  8
06_ПОМЕЩЕНИЯ
100
AcDbCircle
 10
23000.0
 20
8200.0
 30
0.0
 40
720.0
  0
TEXT
  5
A4
330
17
100
AcDbEntity
  8
06_ПОМЕЩЕНИЯ
100
AcDbText
 10
23000.0
 20
8200.0
 30
0.0
 40
800.0
  1
2
  7
ГОСТ
 72
1
 11
23000.0
 21
8200.0
 31
0.0
100
AcDbText
 73
2
  0
LINE
  5
A5
330
17
100
AcDbEntity
  8
06_ПОМЕЩЕНИЯ
100
AcDbLine
 10
26000.0
 20
-6829.5830589372945
 30
0.0
 11
26000.0
 21
6829.5830589372945
 31
0.0
  0
LINE
  5
A6
330
17
100
AcDbEntity
  8
06_ПОМЕЩЕНИЯ
100
AcDbLine
 10
58000.0
 20
-6829.5830589372945
 30
0.0
 11
58000.0
 21
6829.5830589372945
 31
0.0
  0
CIRCLE
  5
A7
330
17
100
AcDbEntity
  8
06_ПОМЕЩЕНИЯ
100
AcDbCircle
 10
42000.0
 20
8200.0
 30
0.0
 40
720.0
  0
TEXT
  5
A8
330
17
100
AcDbEntity
  8
06_ПОМЕЩЕНИЯ
100
AcDbText
 10
42000.0
 20
8200.0
 30
0.0
 40
800.0
  1
3
  7
ГОСТ
 72
1
 11
42000.0
 21
8200.0
 31
0.0
100
AcDbText
 73
2
  0
LINE
  5
A9
330
17
100
AcDbEntity
  8
06_ПОМЕЩЕНИЯ
100
AcDbLine
 10
58000.0
 20
-6829.5830589372945
 30
0.0
 11
58000.0
 21
6829.5830589372945
 31
0.0
  0
LINE
  5
AA
330
17
100
AcDbEntity
  8
06_ПОМЕЩЕНИЯ
100
AcDbLine
 10
74000.0
 20
-6829.5830589372945
 30
0.0
 11
74000.0
 21
6829.5830589372945
 31
0.0
  0
CIRCLE
  5
AB
330
17
100
AcDbEntity
  8
06_ПОМЕЩЕНИЯ
100
AcDbCircle
 10
66000.0
 20
8200.0
 30
0.0
 40
720.0
  0
TEXT
  5
AC
330
17
100
AcDbEntity
  8
06_ПОМЕЩЕНИЯ
100
AcDbText
 10
66000.0
 20
8200.0
 30
0.0
 40
800.0
  1
4
  7
ГОСТ
 72
1
 11
66000.0
 21
8200.0
 31
0.0
100
AcDbText
 73
2
  0
TEXT
  5
AD
330
17
100
AcDbEntity
  8
06_ПОМЕЩЕНИЯ
100
AcDbText
 10
66000.0
 20
-4600.0
 30
0.0
 40
560.0
  1
Верхний ярус атриума
  7
ГОСТ
 72
1
 11
66000.0
 21
-4600.0
 31
0.0
100
AcDbText
 73
2
  0
LINE
  5
AE
330
17
100
AcDbEntity
  8
06_ПОМЕЩЕНИЯ
100
AcDbLine
 10
74000.0
 20
-6829.5830589372945
 30
0.0
 11
74000.0
 21
6829.5830589372945
 31
0.0
  0
LINE
  5
AF
330
17
100
AcDbEntity
  8
06_ПОМЕЩЕНИЯ
100
AcDbLine
 10
108000.0
 20
-6028.009672816001
 30
0.0
 11
108000.0
 21
6028.009672816001
 31
0.0
  0
CIRCLE
  5
B0
330
17
100
AcDbEntity
  8
06_ПОМЕЩЕНИЯ
100
AcDbCircle
 10
91000.0
 20
8200.0
 30
0.0
 40
720.0
  0
TEXT
  5
B1
330
17
100
AcDbEntity
  8
06_ПОМЕЩЕНИЯ
100
AcDbText
 10
91000.0
 20
8200.0
 30
0.0
 40
800.0
  1
5
  7
ГОСТ
 72
1
 11
91000.0
 21
8200.0
 31
0.0
100
AcDbText
 73
2
  0
LINE
  5
B2
330
17
100
AcDbEntity
  8
06_ПОМЕЩЕНИЯ
100
AcDbLine
 10
108000.0
 20
-6028.009672816001
 30
0.0
 11
108000.0
 21
6028.009672816001
 31
0.0
  0
LINE
  5
B3
330
17
100
AcDbEntity
  8
06_ПОМЕЩЕНИЯ
100
AcDbLine
 10
114000.0
 20
-3932.3224653992156
 30
0.0
 11
114000.0
 21
3932.3224653992156
 31
0.0
  0
CIRCLE
  5
B4
330
17
100
AcDbEntity
  8
06_ПОМЕЩЕНИЯ
100
AcDbCircle
 10
111000.0
 20
8200.0
 30
0.0
 40
720.0
  0
TEXT
  5
B5
330
17
100
AcDbEntity
  8
06_ПОМЕЩЕНИЯ
100
AcDbText
 10
111000.0
 20
8200.0
 30
0.0
 40
800.0
  1
6
  7
ГОСТ
 72
1
 11
111000.0
 21
8200.0
 31
0.0
100
AcDbText
 73
2
  0
LINE
  5
B6
330
17
100
AcDbEntity
  8
06_ПОМЕЩЕНИЯ
100
AcDbLine
 10
114000.0
 20
-3932.3224653992156
 30
0.0
 11
114000.0
 21
3932.3224653992156
 31
0.0
  0
LINE
  5
B7
330
17
100
AcDbEntity
  8
06_ПОМЕЩЕНИЯ
100
AcDbLine
 10
118000.0
 20
-1347.420332493247
 30
0.0
 11
118000.0
 21
1347.420332493247
 31
0.0
  0
CIRCLE
  5
B8
330
17
100
AcDbEntity
  8
06_ПОМЕЩЕНИЯ
100
AcDbCircle
 10
116000.0
 20
8200.0
 30
0.0
 40
720.0
  0
TEXT
  5
B9
330
17
100
AcDbEntity
  8
06_ПОМЕЩЕНИЯ
100
AcDbText
 10
116000.0
 20
8200.0
 30
0.0
 40
800.0
  1
7
  7
ГОСТ
 72
1
 11
116000.0
 21
8200.0
 31
0.0
100
AcDbText
 73
2
  0
TEXT
  5
BA
330
17
100
AcDbEntity
  8
06_ПОМЕЩЕНИЯ
100
AcDbText
 10
116000.0
 20
-200.0
 30
0.0
 40
560.0
  1
Спа
  7
ГОСТ
 72
1
 11
116000.0
 21
-200.0
 31
0.0
100
AcDbText
 73
2
  0
LWPOLYLINE
  5
BB
330
17
100
AcDbEntity
  8
11_КАЮТЫ
100
AcDbPolyline
 90
4
 70
1
 10
26000.0
 20
3550.0
 10
32000.0
 20
3550.0
 10
32000.0
 20
6550.0
 10
26000.0
 20
6550.0
  0
TEXT
  5
BC
330
17
100
AcDbEntity
  8
11_КАЮТЫ
100
AcDbText
 10
29000.0
 20
5230.0
 30
0.0
 40
480.0
  1
С·М4
  7
ГОСТ
 72
1
 11
29000.0
 21
5230.0
 31
0.0
100
AcDbText
 73
2
  0
TEXT
  5
BD
330
17
100
AcDbEntity
  8
11_КАЮТЫ
100
AcDbText
 10
29000.0
 20
4650.0
 30
0.0
 40
360.0
  1
18.0 м² · 2
  7
ГОСТ
 72
1
 11
29000.0
 21
4650.0
 31
0.0
100
AcDbText
 73
2
  0
LWPOLYLINE
  5
BE
330
17
100
AcDbEntity
  8
11_КАЮТЫ
100
AcDbPolyline
 90
4
 70
1
 10
32000.0
 20
3550.0
 10
36000.0
 20
3550.0
 10
36000.0
 20
6550.0
 10
32000.0
 20
6550.0
  0
TEXT
  5
BF
330
17
100
AcDbEntity
  8
11_КАЮТЫ
100
AcDbText
 10
34000.0
 20
5230.0
 30
0.0
 40
480.0
  1
С
  7
ГОСТ
 72
1
 11
34000.0
 21
5230.0
 31
0.0
100
AcDbText
 73
2
  0
TEXT
  5
C0
330
17
100
AcDbEntity
  8
11_КАЮТЫ
100
AcDbText
 10
34000.0
 20
4650.0
 30
0.0
 40
360.0
  1
12.0 м² · 4
  7
ГОСТ
 72
1
 11
34000.0
 21
4650.0
 31
0.0
100
AcDbText
 73
2
  0
LWPOLYLINE
  5
C1
330
17
100
AcDbEntity
  8
11_КАЮТЫ
100
AcDbPolyline
 90
4
 70
1
 10
36000.0
 20
3550.0
 10
40000.0
 20
3550.0
 10
40000.0
 20
6550.0
 10
36000.0
 20
6550.0
  0
TEXT
  5
C2
330
17
100
AcDbEntity
  8
11_КАЮТЫ
100
AcDbText
 10
38000.0
 20
5230.0
 30
0.0
 40
480.0
  1
С
  7
ГОСТ
 72
1
 11
38000.0
 21
5230.0
 31
0.0
100
AcDbText
 73
2
  0
TEXT
  5
C3
330
17
100
AcDbEntity
  8
11_КАЮТЫ
100
AcDbText
 10
38000.0
 20
4650.0
 30
0.0
 40
360.0
  1
12.0 м² · 4
  7
ГОСТ
 72
1
 11
38000.0
 21
4650.0
 31
0.0
100
AcDbText
 73
2
  0
LWPOLYLINE
  5
C4
330
17
100
AcDbEntity
  8
11_КАЮТЫ
100
AcDbPolyline
 90
4
 70
1
 10
40000.0
 20
3550.0
 10
44000.0
 20
3550.0
 10
44000.0
 20
6550.0
 10
40000.0
 20
6550.0
  0
TEXT
  5
C5
330
17
100
AcDbEntity
  8
11_КАЮТЫ
100
AcDbText
 10
42000.0
 20
5230.0
 30
0.0
 40
480.0
  1
С
  7
ГОСТ
 72
1
 11
42000.0
 21
5230.0
 31
0.0
100
AcDbText
 73
2
  0
TEXT
  5
C6
330
17
100
AcDbEntity
  8
11_КАЮТЫ
100
AcDbText
 10
42000.0
 20
4650.0
 30
0.0
 40
360.0
  1
12.0 м² · 4
  7
ГОСТ
 72
1
 11
42000.0
 21
4650.0
 31
0.0
100
AcDbText
 73
2
  0
LWPOLYLINE
  5
C7
330
17
100
AcDbEntity
  8
11_КАЮТЫ
100
AcDbPolyline
 90
4
 70
1
 10
44000.0
 20
3550.0
 10
48000.0
 20
3550.0
 10
48000.0
 20
6550.0
 10
44000.0
 20
6550.0
  0
TEXT
  5
C8
330
17
100
AcDbEntity
  8
11_КАЮТЫ
100
AcDbText
 10
46000.0
 20
5230.0
 30
0.0
 40
480.0
  1
С
  7
ГОСТ
 72
1
 11
46000.0
 21
5230.0
 31
0.0
100
AcDbText
 73
2
  0
TEXT
  5
C9
330
17
100
AcDbEntity
  8
11_КАЮТЫ
100
AcDbText
 10
46000.0
 20
4650.0
 30
0.0
 40
360.0
  1
12.0 м² · 4
  7
ГОСТ
 72
1
 11
46000.0
 21
4650.0
 31
0.0
100
AcDbText
 73
2
  0
LWPOLYLINE
  5
CA
330
17
100
AcDbEntity
  8
11_КАЮТЫ
100
AcDbPolyline
 90
4
 70
1
 10
48000.0
 20
3550.0
 10
54000.0
 20
3550.0
 10
54000.0
 20
6550.0
 10
48000.0
 20
6550.0
  0
TEXT
  5
CB
330
17
100
AcDbEntity
  8
11_КАЮТЫ
100
AcDbText
 10
51000.0
 20
5230.0
 30
0.0
 40
480.0
  1
С·М4
  7
ГОСТ
 72
1
 11
51000.0
 21
5230.0
 31
0.0
100
AcDbText
 73
2
  0
TEXT
  5
CC
330
17
100
AcDbEntity
  8
11_КАЮТЫ
100
AcDbText
 10
51000.0
 20
4650.0
 30
0.0
 40
360.0
  1
18.0 м² · 2
  7
ГОСТ
 72
1
 11
51000.0
 21
4650.0
 31
0.0
100
AcDbText
 73
2
  0
LWPOLYLINE
  5
CD
330
17
100
AcDbEntity
  8
11_КАЮТЫ
100
AcDbPolyline
 90
4
 70
1
 10
54000.0
 20
3550.0
 10
58000.0
 20
3550.0
 10
58000.0
 20
6550.0
 10
54000.0
 20
6550.0
  0
TEXT
  5
CE
330
17
100
AcDbEntity
  8
11_КАЮТЫ
100
AcDbText
 10
56000.0
 20
5230.0
 30
0.0
 40
480.0
  1
С
  7
ГОСТ
 72
1
 11
56000.0
 21
5230.0
 31
0.0
100
AcDbText
 73
2
  0
TEXT
  5
CF
330
17
100
AcDbEntity
  8
11_КАЮТЫ
100
AcDbText
 10
56000.0
 20
4650.0
 30
0.0
 40
360.0
  1
12.0 м² · 4
  7
ГОСТ
 72
1
 11
56000.0
 21
4650.0
 31
0.0
100
AcDbText
 73
2
  0
LWPOLYLINE
  5
D0
330
17
100
AcDbEntity
  8
11_КАЮТЫ
100
AcDbPolyline
 90
4
 70
1
 10
26000.0
 20
-6550.0
 10
32000.0
 20
-6550.0
 10
32000.0
 20
-3550.0
 10
26000.0
 20
-3550.0
  0
TEXT
  5
D1
330
17
100
AcDbEntity
  8
11_КАЮТЫ
100
AcDbText
 10
29000.0
 20
-4870.0
 30
0.0
 40
480.0
  1
С·М4
  7
ГОСТ
 72
1
 11
29000.0
 21
-4870.0
 31
0.0
100
AcDbText
 73
2
  0
TEXT
  5
D2
330
17
100
AcDbEntity
  8
11_КАЮТЫ
100
AcDbText
 10
29000.0
 20
-5450.0
 30
0.0
 40
360.0
  1
18.0 м² · 2
  7
ГОСТ
 72
1
 11
29000.0
 21
-5450.0
 31
0.0
100
AcDbText
 73
2
  0
LWPOLYLINE
  5
D3
330
17
100
AcDbEntity
  8
11_КАЮТЫ
100
AcDbPolyline
 90
4
 70
1
 10
32000.0
 20
-6550.0
 10
36000.0
 20
-6550.0
 10
36000.0
 20
-3550.0
 10
32000.0
 20
-3550.0
  0
TEXT
  5
D4
330
17
100
AcDbEntity
  8
11_КАЮТЫ
100
AcDbText
 10
34000.0
 20
-4870.0
 30
0.0
 40
480.0
  1
С
  7
ГОСТ
 72
1
 11
34000.0
 21
-4870.0
 31
0.0
100
AcDbText
 73
2
  0
TEXT
  5
D5
330
17
100
AcDbEntity
  8
11_КАЮТЫ
100
AcDbText
 10
34000.0
 20
-5450.0
 30
0.0
 40
360.0
  1
12.0 м² · 4
  7
ГОСТ
 72
1
 11
34000.0
 21
-5450.0
 31
0.0
100
AcDbText
 73
2
  0
LWPOLYLINE
  5
D6
330
17
100
AcDbEntity
  8
11_КАЮТЫ
100
AcDbPolyline
 90
4
 70
1
 10
36000.0
 20
-6550.0
 10
40000.0
 20
-6550.0
 10
40000.0
 20
-3550.0
 10
36000.0
 20
-3550.0
  0
TEXT
  5
D7
330
17
100
AcDbEntity
  8
11_КАЮТЫ
100
AcDbText
 10
38000.0
 20
-4870.0
 30
0.0
 40
480.0
  1
С
  7
ГОСТ
 72
1
 11
38000.0
 21
-4870.0
 31
0.0
100
AcDbText
 73
2
  0
TEXT
  5
D8
330
17
100
AcDbEntity
  8
11_КАЮТЫ
100
AcDbText
 10
38000.0
 20
-5450.0
 30
0.0
 40
360.0
  1
12.0 м² · 4
  7
ГОСТ
 72
1
 11
38000.0
 21
-5450.0
 31
0.0
100
AcDbText
 73
2
  0
LWPOLYLINE
  5
D9
330
17
100
AcDbEntity
  8
11_КАЮТЫ
100
AcDbPolyline
 90
4
 70
1
 10
40000.0
 20
-6550.0
 10
44000.0
 20
-6550.0
 10
44000.0
 20
-3550.0
 10
40000.0
 20
-3550.0
  0
TEXT
  5
DA
330
17
100
AcDbEntity
  8
11_КАЮТЫ
100
AcDbText
 10
42000.0
 20
-4870.0
 30
0.0
 40
480.0
  1
С
  7
ГОСТ
 72
1
 11
42000.0
 21
-4870.0
 31
0.0
100
AcDbText
 73
2
  0
TEXT
  5
DB
330
17
100
AcDbEntity
  8
11_КАЮТЫ
100
AcDbText
 10
42000.0
 20
-5450.0
 30
0.0
 40
360.0
  1
12.0 м² · 4
  7
ГОСТ
 72
1
 11
42000.0
 21
-5450.0
 31
0.0
100
AcDbText
 73
2
  0
LWPOLYLINE
  5
DC
330
17
100
AcDbEntity
  8
11_КАЮТЫ
100
AcDbPolyline
 90
4
 70
1
 10
44000.0
 20
-6550.0
 10
48000.0
 20
-6550.0
 10
48000.0
 20
-3550.0
 10
44000.0
 20
-3550.0
  0
TEXT
  5
DD
330
17
100
AcDbEntity
  8
11_КАЮТЫ
100
AcDbText
 10
46000.0
 20
-4870.0
 30
0.0
 40
480.0
  1
С
  7
ГОСТ
 72
1
 11
46000.0
 21
-4870.0
 31
0.0
100
AcDbText
 73
2
  0
TEXT
  5
DE
330
17
100
AcDbEntity
  8
11_КАЮТЫ
100
AcDbText
 10
46000.0
 20
-5450.0
 30
0.0
 40
360.0
  1
12.0 м² · 4
  7
ГОСТ
 72
1
 11
46000.0
 21
-5450.0
 31
0.0
100
AcDbText
 73
2
  0
LWPOLYLINE
  5
DF
330
17
100
AcDbEntity
  8
11_КАЮТЫ
100
AcDbPolyline
 90
4
 70
1
 10
48000.0
 20
-6550.0
 10
54000.0
 20
-6550.0
 10
54000.0
 20
-3550.0
 10
48000.0
 20
-3550.0
  0
TEXT
  5
E0
330
17
100
AcDbEntity
  8
11_КАЮТЫ
100
AcDbText
 10
51000.0
 20
-4870.0
 30
0.0
 40
480.0
  1
С·М4
  7
ГОСТ
 72
1
 11
51000.0
 21
-4870.0
 31
0.0
100
AcDbText
 73
2
  0
TEXT
  5
E1
330
17
100
AcDbEntity
  8
11_КАЮТЫ
100
AcDbText
 10
51000.0
 20
-5450.0
 30
0.0
 40
360.0
  1
18.0 м² · 2
  7
ГОСТ
 72
1
 11
51000.0
 21
-5450.0
 31
0.0
100
AcDbText
 73
2
  0
LWPOLYLINE
  5
E2
330
17
100
AcDbEntity
  8
11_КАЮТЫ
100
AcDbPolyline
 90
4
 70
1
 10
54000.0
 20
-6550.0
 10
58000.0
 20
-6550.0
 10
58000.0
 20
-3550.0
 10
54000.0
 20
-3550.0
  0
TEXT
  5
E3
330
17
100
AcDbEntity
  8
11_КАЮТЫ
100
AcDbText
 10
56000.0
 20
-4870.0
 30
0.0
 40
480.0
  1
С
  7
ГОСТ
 72
1
 11
56000.0
 21
-4870.0
 31
0.0
100
AcDbText
 73
2
  0
TEXT
  5
E4
330
17
100
AcDbEntity
  8
11_КАЮТЫ
100
AcDbText
 10
56000.0
 20
-5450.0
 30
0.0
 40
360.0
  1
12.0 м² · 4
  7
ГОСТ
 72
1
 11
56000.0
 21
-5450.0
 31
0.0
100
AcDbText
 73
2
  0
LWPOLYLINE
  5
E5
330
17
100
AcDbEntity
  8
11_КАЮТЫ
100
AcDbPolyline
 90
4
 70
1
 10
26000.0
 20
0.0
 10
31600.0
 20
0.0
 10
31600.0
 20
2250.0
 10
26000.0
 20
2250.0
  0
TEXT
  5
E6
330
17
100
AcDbEntity
  8
11_КАЮТЫ
100
AcDbText
 10
28800.0
 20
1305.0
 30
0.0
 40
480.0
  1
Сем
  7
ГОСТ
 72
1
 11
28800.0
 21
1305.0
 31
0.0
100
AcDbText
 73
2
  0
TEXT
  5
E7
330
17
100
AcDbEntity
  8
11_КАЮТЫ
100
AcDbText
 10
28800.0
 20
725.0
 30
0.0
 40
360.0
  1
12.6 м² · 4
  7
ГОСТ
 72
1
 11
28800.0
 21
725.0
 31
0.0
100
AcDbText
 73
2
  0
LWPOLYLINE
  5
E8
330
17
100
AcDbEntity
  8
11_КАЮТЫ
100
AcDbPolyline
 90
4
 70
1
 10
31600.0
 20
0.0
 10
37200.0
 20
0.0
 10
37200.0
 20
2250.0
 10
31600.0
 20
2250.0
  0
TEXT
  5
E9
330
17
100
AcDbEntity
  8
11_КАЮТЫ
100
AcDbText
 10
34400.00000000001
 20
1305.0
 30
0.0
 40
480.0
  1
Сем
  7
ГОСТ
 72
1
 11
34400.00000000001
 21
1305.0
 31
0.0
100
AcDbText
 73
2
  0
TEXT
  5
EA
330
17
100
AcDbEntity
  8
11_КАЮТЫ
100
AcDbText
 10
34400.00000000001
 20
725.0
 30
0.0
 40
360.0
  1
12.6 м² · 4
  7
ГОСТ
 72
1
 11
34400.00000000001
 21
725.0
 31
0.0
100
AcDbText
 73
2
  0
LWPOLYLINE
  5
EB
330
17
100
AcDbEntity
  8
11_КАЮТЫ
100
AcDbPolyline
 90
4
 70
1
 10
37200.0
 20
0.0
 10
41000.0
 20
0.0
 10
41000.0
 20
2250.0
 10
37200.0
 20
2250.0
  0
TEXT
  5
EC
330
17
100
AcDbEntity
  8
11_КАЮТЫ
100
AcDbText
 10
39100.0
 20
1305.0
 30
0.0
 40
480.0
  1
Э
  7
ГОСТ
 72
1
 11
39100.0
 21
1305.0
 31
0.0
100
AcDbText
 73
2
  0
TEXT
  5
ED
330
17
100
AcDbEntity
  8
11_КАЮТЫ
100
AcDbText
 10
39100.0
 20
725.0
 30
0.0
 40
360.0
  1
8.5 м² · 2
  7
ГОСТ
 72
1
 11
39100.0
 21
725.0
 31
0.0
100
AcDbText
 73
2
  0
LWPOLYLINE
  5
EE
330
17
100
AcDbEntity
  8
11_КАЮТЫ
100
AcDbPolyline
 90
4
 70
1
 10
41000.0
 20
0.0
 10
46600.0
 20
0.0
 10
46600.0
 20
2250.0
 10
41000.0
 20
2250.0
  0
TEXT
  5
EF
330
17
100
AcDbEntity
  8
11_КАЮТЫ
100
AcDbText
 10
43800.0
 20
1305.0
 30
0.0
 40
480.0
  1
Сем
  7
ГОСТ
 72
1
 11
43800.0
 21
1305.0
 31
0.0
100
AcDbText
 73
2
  0
TEXT
  5
F0
330
17
100
AcDbEntity
  8
11_КАЮТЫ
100
AcDbText
 10
43800.0
 20
725.0
 30
0.0
 40
360.0
  1
12.6 м² · 4
  7
ГОСТ
 72
1
 11
43800.0
 21
725.0
 31
0.0
100
AcDbText
 73
2
  0
LWPOLYLINE
  5
F1
330
17
100
AcDbEntity
  8
11_КАЮТЫ
100
AcDbPolyline
 90
4
 70
1
 10
46600.0
 20
0.0
 10
52200.0
 20
0.0
 10
52200.0
 20
2250.0
 10
46600.0
 20
2250.0
  0
TEXT
  5
F2
330
17
100
AcDbEntity
  8
11_КАЮТЫ
100
AcDbText
 10
49400.00000000001
 20
1305.0
 30
0.0
 40
480.0
  1
Сем
  7
ГОСТ
 72
1
 11
49400.00000000001
 21
1305.0
 31
0.0
100
AcDbText
 73
2
  0
TEXT
  5
F3
330
17
100
AcDbEntity
  8
11_КАЮТЫ
100
AcDbText
 10
49400.00000000001
 20
725.0
 30
0.0
 40
360.0
  1
12.6 м² · 4
  7
ГОСТ
 72
1
 11
49400.00000000001
 21
725.0
 31
0.0
100
AcDbText
 73
2
  0
LWPOLYLINE
  5
F4
330
17
100
AcDbEntity
  8
11_КАЮТЫ
100
AcDbPolyline
 90
4
 70
1
 10
52200.0
 20
0.0
 10
56000.0
 20
0.0
 10
56000.0
 20
2250.0
 10
52200.0
 20
2250.0
  0
TEXT
  5
F5
330
17
100
AcDbEntity
  8
11_КАЮТЫ
100
AcDbText
 10
54100.0
 20
1305.0
 30
0.0
 40
480.0
  1
Э
  7
ГОСТ
 72
1
 11
54100.0
 21
1305.0
 31
0.0
100
AcDbText
 73
2
  0
TEXT
  5
F6
330
17
100
AcDbEntity
  8
11_КАЮТЫ
100
AcDbText
 10
54100.0
 20
725.0
 30
0.0
 40
360.0
  1
8.5 м² · 2
  7
ГОСТ
 72
1
 11
54100.0
 21
725.0
 31
0.0
100
AcDbText
 73
2
  0
LWPOLYLINE
  5
F7
330
17
100
AcDbEntity
  8
11_КАЮТЫ
100
AcDbPolyline
 90
4
 70
1
 10
26000.0
 20
-2250.0
 10
31600.0
 20
-2250.0
 10
31600.0
 20
-0.0
 10
26000.0
 20
-0.0
  0
TEXT
  5
F8
330
17
100
AcDbEntity
  8
11_КАЮТЫ
100
AcDbText
 10
28800.0
 20
-945.0
 30
0.0
 40
480.0
  1
Сем
  7
ГОСТ
 72
1
 11
28800.0
 21
-945.0
 31
0.0
100
AcDbText
 73
2
  0
TEXT
  5
F9
330
17
100
AcDbEntity
  8
11_КАЮТЫ
100
AcDbText
 10
28800.0
 20
-1525.0
 30
0.0
 40
360.0
  1
12.6 м² · 4
  7
ГОСТ
 72
1
 11
28800.0
 21
-1525.0
 31
0.0
100
AcDbText
 73
2
  0
LWPOLYLINE
  5
FA
330
17
100
AcDbEntity
  8
11_КАЮТЫ
100
AcDbPolyline
 90
4
 70
1
 10
31600.0
 20
-2250.0
 10
37200.0
 20
-2250.0
 10
37200.0
 20
-0.0
 10
31600.0
 20
-0.0
  0
TEXT
  5
FB
330
17
100
AcDbEntity
  8
11_КАЮТЫ
100
AcDbText
 10
34400.00000000001
 20
-945.0
 30
0.0
 40
480.0
  1
Сем
  7
ГОСТ
 72
1
 11
34400.00000000001
 21
-945.0
 31
0.0
100
AcDbText
 73
2
  0
TEXT
  5
FC
330
17
100
AcDbEntity
  8
11_КАЮТЫ
100
AcDbText
 10
34400.00000000001
 20
-1525.0
 30
0.0
 40
360.0
  1
12.6 м² · 4
  7
ГОСТ
 72
1
 11
34400.00000000001
 21
-1525.0
 31
0.0
100
AcDbText
 73
2
  0
LWPOLYLINE
  5
FD
330
17
100
AcDbEntity
  8
11_КАЮТЫ
100
AcDbPolyline
 90
4
 70
1
 10
37200.0
 20
-2250.0
 10
41000.0
 20
-2250.0
 10
41000.0
 20
-0.0
 10
37200.0
 20
-0.0
  0
TEXT
  5
FE
330
17
100
AcDbEntity
  8
11_КАЮТЫ
100
AcDbText
 10
39100.0
 20
-945.0
 30
0.0
 40
480.0
  1
Э
  7
ГОСТ
 72
1
 11
39100.0
 21
-945.0
 31
0.0
100
AcDbText
 73
2
  0
TEXT
  5
FF
330
17
100
AcDbEntity
  8
11_КАЮТЫ
100
AcDbText
 10
39100.0
 20
-1525.0
 30
0.0
 40
360.0
  1
8.5 м² · 2
  7
ГОСТ
 72
1
 11
39100.0
 21
-1525.0
 31
0.0
100
AcDbText
 73
2
  0
LWPOLYLINE
  5
100
330
17
100
AcDbEntity
  8
11_КАЮТЫ
100
AcDbPolyline
 90
4
 70
1
 10
41000.0
 20
-2250.0
 10
46600.0
 20
-2250.0
 10
46600.0
 20
-0.0
 10
41000.0
 20
-0.0
  0
TEXT
  5
101
330
17
100
AcDbEntity
  8
11_КАЮТЫ
100
AcDbText
 10
43800.0
 20
-945.0
 30
0.0
 40
480.0
  1
Сем
  7
ГОСТ
 72
1
 11
43800.0
 21
-945.0
 31
0.0
100
AcDbText
 73
2
  0
TEXT
  5
102
330
17
100
AcDbEntity
  8
11_КАЮТЫ
100
AcDbText
 10
43800.0
 20
-1525.0
 30
0.0
 40
360.0
  1
12.6 м² · 4
  7
ГОСТ
 72
1
 11
43800.0
 21
-1525.0
 31
0.0
100
AcDbText
 73
2
  0
LWPOLYLINE
  5
103
330
17
100
AcDbEntity
  8
11_КАЮТЫ
100
AcDbPolyline
 90
4
 70
1
 10
46600.0
 20
-2250.0
 10
52200.0
 20
-2250.0
 10
52200.0
 20
-0.0
 10
46600.0
 20
-0.0
  0
TEXT
  5
104
330
17
100
AcDbEntity
  8
11_КАЮТЫ
100
AcDbText
 10
49400.00000000001
 20
-945.0
 30
0.0
 40
480.0
  1
Сем
  7
ГОСТ
 72
1
 11
49400.00000000001
 21
-945.0
 31
0.0
100
AcDbText
 73
2
  0
TEXT
  5
105
330
17
100
AcDbEntity
  8
11_КАЮТЫ
100
AcDbText
 10
49400.00000000001
 20
-1525.0
 30
0.0
 40
360.0
  1
12.6 м² · 4
  7
ГОСТ
 72
1
 11
49400.00000000001
 21
-1525.0
 31
0.0
100
AcDbText
 73
2
  0
LWPOLYLINE
  5
106
330
17
100
AcDbEntity
  8
11_КАЮТЫ
100
AcDbPolyline
 90
4
 70
1
 10
52200.0
 20
-2250.0
 10
56000.0
 20
-2250.0
 10
56000.0
 20
-0.0
 10
52200.0
 20
-0.0
  0
TEXT
  5
107
330
17
100
AcDbEntity
  8
11_КАЮТЫ
100
AcDbText
 10
54100.0
 20
-945.0
 30
0.0
 40
480.0
  1
Э
  7
ГОСТ
 72
1
 11
54100.0
 21
-945.0
 31
0.0
100
AcDbText
 73
2
  0
TEXT
  5
108
330
17
100
AcDbEntity
  8
11_КАЮТЫ
100
AcDbText
 10
54100.0
 20
-1525.0
 30
0.0
 40
360.0
  1
8.5 м² · 2
  7
ГОСТ
 72
1
 11
54100.0
 21
-1525.0
 31
0.0
100
AcDbText
 73
2
  0
LWPOLYLINE
  5
109
330
17
100
AcDbEntity
  8
11_КАЮТЫ
100
AcDbPolyline
 90
4
 70
1
 10
74000.0
 20
3550.0
 10
79000.0
 20
3550.0
 10
79000.0
 20
6550.0
 10
74000.0
 20
6550.0
  0
TEXT
  5
10A
330
17
100
AcDbEntity
  8
11_КАЮТЫ
100
AcDbText
 10
76500.0
 20
5230.0
 30
0.0
 40
480.0
  1
Б
  7
ГОСТ
 72
1
 11
76500.0
 21
5230.0
 31
0.0
100
AcDbText
 73
2
  0
TEXT
  5
10B
330
17
100
AcDbEntity
  8
11_КАЮТЫ
100
AcDbText
 10
76500.0
 20
4650.0
 30
0.0
 40
360.0
  1
15.0 м² · 2
  7
ГОСТ
 72
1
 11
76500.0
 21
4650.0
 31
0.0
100
AcDbText
 73
2
  0
LWPOLYLINE
  5
10C
330
17
100
AcDbEntity
  8
11_КАЮТЫ
100
AcDbPolyline
 90
4
 70
1
 10
79000.0
 20
3550.0
 10
84000.0
 20
3550.0
 10
84000.0
 20
6550.0
 10
79000.0
 20
6550.0
  0
TEXT
  5
10D
330
17
100
AcDbEntity
  8
11_КАЮТЫ
100
AcDbText
 10
81500.0
 20
5230.0
 30
0.0
 40
480.0
  1
Б
  7
ГОСТ
 72
1
 11
81500.0
 21
5230.0
 31
0.0
100
AcDbText
 73
2
  0
TEXT
  5
10E
330
17
100
AcDbEntity
  8
11_КАЮТЫ
100
AcDbText
 10
81500.0
 20
4650.0
 30
0.0
 40
360.0
  1
15.0 м² · 2
  7
ГОСТ
 72
1
 11
81500.0
 21
4650.0
 31
0.0
100
AcDbText
 73
2
  0
LWPOLYLINE
  5
10F
330
17
100
AcDbEntity
  8
11_КАЮТЫ
100
AcDbPolyline
 90
4
 70
1
 10
84000.0
 20
3550.0
 10
89000.0
 20
3550.0
 10
89000.0
 20
6550.0
 10
84000.0
 20
6550.0
  0
TEXT
  5
110
330
17
100
AcDbEntity
  8
11_КАЮТЫ
100
AcDbText
 10
86500.0
 20
5230.0
 30
0.0
 40
480.0
  1
Б
  7
ГОСТ
 72
1
 11
86500.0
 21
5230.0
 31
0.0
100
AcDbText
 73
2
  0
TEXT
  5
111
330
17
100
AcDbEntity
  8
11_КАЮТЫ
100
AcDbText
 10
86500.0
 20
4650.0
 30
0.0
 40
360.0
  1
15.0 м² · 2
  7
ГОСТ
 72
1
 11
86500.0
 21
4650.0
 31
0.0
100
AcDbText
 73
2
  0
LWPOLYLINE
  5
112
330
17
100
AcDbEntity
  8
11_КАЮТЫ
100
AcDbPolyline
 90
4
 70
1
 10
89000.0
 20
3550.0
 10
95000.0
 20
3550.0
 10
95000.0
 20
6550.0
 10
89000.0
 20
6550.0
  0
TEXT
  5
113
330
17
100
AcDbEntity
  8
11_КАЮТЫ
100
AcDbText
 10
92000.0
 20
5230.0
 30
0.0
 40
480.0
  1
Л
  7
ГОСТ
 72
1
 11
92000.0
 21
5230.0
 31
0.0
100
AcDbText
 73
2
  0
TEXT
  5
114
330
17
100
AcDbEntity
  8
11_КАЮТЫ
100
AcDbText
 10
92000.0
 20
4650.0
 30
0.0
 40
360.0
  1
18.0 м² · 2
  7
ГОСТ
 72
1
 11
92000.0
 21
4650.0
 31
0.0
100
AcDbText
 73
2
  0
LWPOLYLINE
  5
115
330
17
100
AcDbEntity
  8
11_КАЮТЫ
100
AcDbPolyline
 90
4
 70
1
 10
95000.0
 20
3550.0
 10
101000.0
 20
3550.0
 10
101000.0
 20
6550.0
 10
95000.0
 20
6550.0
  0
TEXT
  5
116
330
17
100
AcDbEntity
  8
11_КАЮТЫ
100
AcDbText
 10
98000.0
 20
5230.0
 30
0.0
 40
480.0
  1
Л
  7
ГОСТ
 72
1
 11
98000.0
 21
5230.0
 31
0.0
100
AcDbText
 73
2
  0
TEXT
  5
117
330
17
100
AcDbEntity
  8
11_КАЮТЫ
100
AcDbText
 10
98000.0
 20
4650.0
 30
0.0
 40
360.0
  1
18.0 м² · 2
  7
ГОСТ
 72
1
 11
98000.0
 21
4650.0
 31
0.0
100
AcDbText
 73
2
  0
LWPOLYLINE
  5
118
330
17
100
AcDbEntity
  8
11_КАЮТЫ
100
AcDbPolyline
 90
4
 70
1
 10
101000.0
 20
3090.0
 10
107000.0
 20
3090.0
 10
107000.0
 20
6090.0
 10
101000.0
 20
6090.0
  0
TEXT
  5
119
330
17
100
AcDbEntity
  8
11_КАЮТЫ
100
AcDbText
 10
104000.0
 20
4770.0
 30
0.0
 40
480.0
  1
Л
  7
ГОСТ
 72
1
 11
104000.0
 21
4770.0
 31
0.0
100
AcDbText
 73
2
  0
TEXT
  5
11A
330
17
100
AcDbEntity
  8
11_КАЮТЫ
100
AcDbText
 10
104000.0
 20
4190.0
 30
0.0
 40
360.0
  1
18.0 м² · 2
  7
ГОСТ
 72
1
 11
104000.0
 21
4190.0
 31
0.0
100
AcDbText
 73
2
  0
LWPOLYLINE
  5
11B
330
17
100
AcDbEntity
  8
11_КАЮТЫ
100
AcDbPolyline
 90
4
 70
1
 10
74000.0
 20
-6550.0
 10
79000.0
 20
-6550.0
 10
79000.0
 20
-3550.0
 10
74000.0
 20
-3550.0
  0
TEXT
  5
11C
330
17
100
AcDbEntity
  8
11_КАЮТЫ
100
AcDbText
 10
76500.0
 20
-4870.0
 30
0.0
 40
480.0
  1
Б
  7
ГОСТ
 72
1
 11
76500.0
 21
-4870.0
 31
0.0
100
AcDbText
 73
2
  0
TEXT
  5
11D
330
17
100
AcDbEntity
  8
11_КАЮТЫ
100
AcDbText
 10
76500.0
 20
-5450.0
 30
0.0
 40
360.0
  1
15.0 м² · 2
  7
ГОСТ
 72
1
 11
76500.0
 21
-5450.0
 31
0.0
100
AcDbText
 73
2
  0
LWPOLYLINE
  5
11E
330
17
100
AcDbEntity
  8
11_КАЮТЫ
100
AcDbPolyline
 90
4
 70
1
 10
79000.0
 20
-6550.0
 10
84000.0
 20
-6550.0
 10
84000.0
 20
-3550.0
 10
79000.0
 20
-3550.0
  0
TEXT
  5
11F
330
17
100
AcDbEntity
  8
11_КАЮТЫ
100
AcDbText
 10
81500.0
 20
-4870.0
 30
0.0
 40
480.0
  1
Б
  7
ГОСТ
 72
1
 11
81500.0
 21
-4870.0
 31
0.0
100
AcDbText
 73
2
  0
TEXT
  5
120
330
17
100
AcDbEntity
  8
11_КАЮТЫ
100
AcDbText
 10
81500.0
 20
-5450.0
 30
0.0
 40
360.0
  1
15.0 м² · 2
  7
ГОСТ
 72
1
 11
81500.0
 21
-5450.0
 31
0.0
100
AcDbText
 73
2
  0
LWPOLYLINE
  5
121
330
17
100
AcDbEntity
  8
11_КАЮТЫ
100
AcDbPolyline
 90
4
 70
1
 10
84000.0
 20
-6550.0
 10
89000.0
 20
-6550.0
 10
89000.0
 20
-3550.0
 10
84000.0
 20
-3550.0
  0
TEXT
  5
122
330
17
100
AcDbEntity
  8
11_КАЮТЫ
100
AcDbText
 10
86500.0
 20
-4870.0
 30
0.0
 40
480.0
  1
Б
  7
ГОСТ
 72
1
 11
86500.0
 21
-4870.0
 31
0.0
100
AcDbText
 73
2
  0
TEXT
  5
123
330
17
100
AcDbEntity
  8
11_КАЮТЫ
100
AcDbText
 10
86500.0
 20
-5450.0
 30
0.0
 40
360.0
  1
15.0 м² · 2
  7
ГОСТ
 72
1
 11
86500.0
 21
-5450.0
 31
0.0
100
AcDbText
 73
2
  0
LWPOLYLINE
  5
124
330
17
100
AcDbEntity
  8
11_КАЮТЫ
100
AcDbPolyline
 90
4
 70
1
 10
89000.0
 20
-6550.0
 10
95000.0
 20
-6550.0
 10
95000.0
 20
-3550.0
 10
89000.0
 20
-3550.0
  0
TEXT
  5
125
330
17
100
AcDbEntity
  8
11_КАЮТЫ
100
AcDbText
 10
92000.0
 20
-4870.0
 30
0.0
 40
480.0
  1
Л
  7
ГОСТ
 72
1
 11
92000.0
 21
-4870.0
 31
0.0
100
AcDbText
 73
2
  0
TEXT
  5
126
330
17
100
AcDbEntity
  8
11_КАЮТЫ
100
AcDbText
 10
92000.0
 20
-5450.0
 30
0.0
 40
360.0
  1
18.0 м² · 2
  7
ГОСТ
 72
1
 11
92000.0
 21
-5450.0
 31
0.0
100
AcDbText
 73
2
  0
LWPOLYLINE
  5
127
330
17
100
AcDbEntity
  8
11_КАЮТЫ
100
AcDbPolyline
 90
4
 70
1
 10
95000.0
 20
-6550.0
 10
101000.0
 20
-6550.0
 10
101000.0
 20
-3550.0
 10
95000.0
 20
-3550.0
  0
TEXT
  5
128
330
17
100
AcDbEntity
  8
11_КАЮТЫ
100
AcDbText
 10
98000.0
 20
-4870.0
 30
0.0
 40
480.0
  1
Л
  7
ГОСТ
 72
1
 11
98000.0
 21
-4870.0
 31
0.0
100
AcDbText
 73
2
  0
TEXT
  5
129
330
17
100
AcDbEntity
  8
11_КАЮТЫ
100
AcDbText
 10
98000.0
 20
-5450.0
 30
0.0
 40
360.0
  1
18.0 м² · 2
  7
ГОСТ
 72
1
 11
98000.0
 21
-5450.0
 31
0.0
100
AcDbText
 73
2
  0
LWPOLYLINE
  5
12A
330
17
100
AcDbEntity
  8
11_КАЮТЫ
100
AcDbPolyline
 90
4
 70
1
 10
101000.0
 20
-6090.0
 10
107000.0
 20
-6090.0
 10
107000.0
 20
-3090.0
 10
101000.0
 20
-3090.0
  0
TEXT
  5
12B
330
17
100
AcDbEntity
  8
11_КАЮТЫ
100
AcDbText
 10
104000.0
 20
-4410.0
 30
0.0
 40
480.0
  1
Л
  7
ГОСТ
 72
1
 11
104000.0
 21
-4410.0
 31
0.0
100
AcDbText
 73
2
  0
TEXT
  5
12C
330
17
100
AcDbEntity
  8
11_КАЮТЫ
100
AcDbText
 10
104000.0
 20
-4990.0
 30
0.0
 40
360.0
  1
18.0 м² · 2
  7
ГОСТ
 72
1
 11
104000.0
 21
-4990.0
 31
0.0
100
AcDbText
 73
2
  0
LWPOLYLINE
  5
12D
330
17
100
AcDbEntity
  8
11_КАЮТЫ
100
AcDbPolyline
 90
4
 70
1
 10
74000.0
 20
0.0
 10
79600.0
 20
0.0
 10
79600.0
 20
2250.0
 10
74000.0
 20
2250.0
  0
TEXT
  5
12E
330
17
100
AcDbEntity
  8
11_КАЮТЫ
100
AcDbText
 10
76800.0
 20
1305.0
 30
0.0
 40
480.0
  1
Сем
  7
ГОСТ
 72
1
 11
76800.0
 21
1305.0
 31
0.0
100
AcDbText
 73
2
  0
TEXT
  5
12F
330
17
100
AcDbEntity
  8
11_КАЮТЫ
100
AcDbText
 10
76800.0
 20
725.0
 30
0.0
 40
360.0
  1
12.6 м² · 4
  7
ГОСТ
 72
1
 11
76800.0
 21
725.0
 31
0.0
100
AcDbText
 73
2
  0
LWPOLYLINE
  5
130
330
17
100
AcDbEntity
  8
11_КАЮТЫ
100
AcDbPolyline
 90
4
 70
1
 10
84000.0
 20
0.0
 10
89600.0
 20
0.0
 10
89600.0
 20
2250.0
 10
84000.0
 20
2250.0
  0
TEXT
  5
131
330
17
100
AcDbEntity
  8
11_КАЮТЫ
100
AcDbText
 10
86800.0
 20
1305.0
 30
0.0
 40
480.0
  1
Сем
  7
ГОСТ
 72
1
 11
86800.0
 21
1305.0
 31
0.0
100
AcDbText
 73
2
  0
TEXT
  5
132
330
17
100
AcDbEntity
  8
11_КАЮТЫ
100
AcDbText
 10
86800.0
 20
725.0
 30
0.0
 40
360.0
  1
12.6 м² · 4
  7
ГОСТ
 72
1
 11
86800.0
 21
725.0
 31
0.0
100
AcDbText
 73
2
  0
LWPOLYLINE
  5
133
330
17
100
AcDbEntity
  8
11_КАЮТЫ
100
AcDbPolyline
 90
4
 70
1
 10
89600.0
 20
0.0
 10
93400.0
 20
0.0
 10
93400.0
 20
2250.0
 10
89600.0
 20
2250.0
  0
TEXT
  5
134
330
17
100
AcDbEntity
  8
11_КАЮТЫ
100
AcDbText
 10
91500.0
 20
1305.0
 30
0.0
 40
480.0
  1
Э
  7
ГОСТ
 72
1
 11
91500.0
 21
1305.0
 31
0.0
100
AcDbText
 73
2
  0
TEXT
  5
135
330
17
100
AcDbEntity
  8
11_КАЮТЫ
100
AcDbText
 10
91500.0
 20
725.0
 30
0.0
 40
360.0
  1
8.5 м² · 2
  7
ГОСТ
 72
1
 11
91500.0
 21
725.0
 31
0.0
100
AcDbText
 73
2
  0
LWPOLYLINE
  5
136
330
17
100
AcDbEntity
  8
11_КАЮТЫ
100
AcDbPolyline
 90
4
 70
1
 10
93400.0
 20
0.0
 10
99000.0
 20
0.0
 10
99000.0
 20
2250.0
 10
93400.0
 20
2250.0
  0
TEXT
  5
137
330
17
100
AcDbEntity
  8
11_КАЮТЫ
100
AcDbText
 10
96200.0
 20
1305.0
 30
0.0
 40
480.0
  1
Сем
  7
ГОСТ
 72
1
 11
96200.0
 21
1305.0
 31
0.0
100
AcDbText
 73
2
  0
TEXT
  5
138
330
17
100
AcDbEntity
  8
11_КАЮТЫ
100
AcDbText
 10
96200.0
 20
725.0
 30
0.0
 40
360.0
  1
12.6 м² · 4
  7
ГОСТ
 72
1
 11
96200.0
 21
725.0
 31
0.0
100
AcDbText
 73
2
  0
LWPOLYLINE
  5
139
330
17
100
AcDbEntity
  8
11_КАЮТЫ
100
AcDbPolyline
 90
4
 70
1
 10
99000.0
 20
0.0
 10
104600.0
 20
0.0
 10
104600.0
 20
2120.0
 10
99000.0
 20
2120.0
  0
TEXT
  5
13A
330
17
100
AcDbEntity
  8
11_КАЮТЫ
100
AcDbText
 10
101800.0
 20
1240.0
 30
0.0
 40
480.0
  1
Сем
  7
ГОСТ
 72
1
 11
101800.0
 21
1240.0
 31
0.0
100
AcDbText
 73
2
  0
TEXT
  5
13B
330
17
100
AcDbEntity
  8
11_КАЮТЫ
100
AcDbText
 10
101800.0
 20
660.0
 30
0.0
 40
360.0
  1
11.9 м² · 4
  7
ГОСТ
 72
1
 11
101800.0
 21
660.0
 31
0.0
100
AcDbText
 73
2
  0
LWPOLYLINE
  5
13C
330
17
100
AcDbEntity
  8
11_КАЮТЫ
100
AcDbPolyline
 90
4
 70
1
 10
74000.0
 20
-2250.0
 10
79600.0
 20
-2250.0
 10
79600.0
 20
-0.0
 10
74000.0
 20
-0.0
  0
TEXT
  5
13D
330
17
100
AcDbEntity
  8
11_КАЮТЫ
100
AcDbText
 10
76800.0
 20
-945.0
 30
0.0
 40
480.0
  1
Сем
  7
ГОСТ
 72
1
 11
76800.0
 21
-945.0
 31
0.0
100
AcDbText
 73
2
  0
TEXT
  5
13E
330
17
100
AcDbEntity
  8
11_КАЮТЫ
100
AcDbText
 10
76800.0
 20
-1525.0
 30
0.0
 40
360.0
  1
12.6 м² · 4
  7
ГОСТ
 72
1
 11
76800.0
 21
-1525.0
 31
0.0
100
AcDbText
 73
2
  0
LWPOLYLINE
  5
13F
330
17
100
AcDbEntity
  8
11_КАЮТЫ
100
AcDbPolyline
 90
4
 70
1
 10
84000.0
 20
-2250.0
 10
89600.0
 20
-2250.0
 10
89600.0
 20
-0.0
 10
84000.0
 20
-0.0
  0
TEXT
  5
140
330
17
100
AcDbEntity
  8
11_КАЮТЫ
100
AcDbText
 10
86800.0
 20
-945.0
 30
0.0
 40
480.0
  1
Сем
  7
ГОСТ
 72
1
 11
86800.0
 21
-945.0
 31
0.0
100
AcDbText
 73
2
  0
TEXT
  5
141
330
17
100
AcDbEntity
  8
11_КАЮТЫ
100
AcDbText
 10
86800.0
 20
-1525.0
 30
0.0
 40
360.0
  1
12.6 м² · 4
  7
ГОСТ
 72
1
 11
86800.0
 21
-1525.0
 31
0.0
100
AcDbText
 73
2
  0
LWPOLYLINE
  5
142
330
17
100
AcDbEntity
  8
11_КАЮТЫ
100
AcDbPolyline
 90
4
 70
1
 10
89600.0
 20
-2250.0
 10
93400.0
 20
-2250.0
 10
93400.0
 20
-0.0
 10
89600.0
 20
-0.0
  0
TEXT
  5
143
330
17
100
AcDbEntity
  8
11_КАЮТЫ
100
AcDbText
 10
91500.0
 20
-945.0
 30
0.0
 40
480.0
  1
Э
  7
ГОСТ
 72
1
 11
91500.0
 21
-945.0
 31
0.0
100
AcDbText
 73
2
  0
TEXT
  5
144
330
17
100
AcDbEntity
  8
11_КАЮТЫ
100
AcDbText
 10
91500.0
 20
-1525.0
 30
0.0
 40
360.0
  1
8.5 м² · 2
  7
ГОСТ
 72
1
 11
91500.0
 21
-1525.0
 31
0.0
100
AcDbText
 73
2
  0
LWPOLYLINE
  5
145
330
17
100
AcDbEntity
  8
11_КАЮТЫ
100
AcDbPolyline
 90
4
 70
1
 10
93400.0
 20
-2250.0
 10
99000.0
 20
-2250.0
 10
99000.0
 20
-0.0
 10
93400.0
 20
-0.0
  0
TEXT
  5
146
330
17
100
AcDbEntity
  8
11_КАЮТЫ
100
AcDbText
 10
96200.0
 20
-945.0
 30
0.0
 40
480.0
  1
Сем
  7
ГОСТ
 72
1
 11
96200.0
 21
-945.0
 31
0.0
100
AcDbText
 73
2
  0
TEXT
  5
147
330
17
100
AcDbEntity
  8
11_КАЮТЫ
100
AcDbText
 10
96200.0
 20
-1525.0
 30
0.0
 40
360.0
  1
12.6 м² · 4
  7
ГОСТ
 72
1
 11
96200.0
 21
-1525.0
 31
0.0
100
AcDbText
 73
2
  0
LWPOLYLINE
  5
148
330
17
100
AcDbEntity
  8
11_КАЮТЫ
100
AcDbPolyline
 90
4
 70
1
 10
99000.0
 20
-2120.0
 10
104600.0
 20
-2120.0
 10
104600.0
 20
-0.0
 10
99000.0
 20
-0.0
  0
TEXT
  5
149
330
17
100
AcDbEntity
  8
11_КАЮТЫ
100
AcDbText
 10
101800.0
 20
-880.0
 30
0.0
 40
480.0
  1
Сем
  7
ГОСТ
 72
1
 11
101800.0
 21
-880.0
 31
0.0
100
AcDbText
 73
2
  0
TEXT
  5
14A
330
17
100
AcDbEntity
  8
11_КАЮТЫ
100
AcDbText
 10
101800.0
 20
-1460.0
 30
0.0
 40
360.0
  1
11.9 м² · 4
  7
ГОСТ
 72
1
 11
101800.0
 21
-1460.0
 31
0.0
100
AcDbText
 73
2
  0
LWPOLYLINE
  5
14B
330
17
100
AcDbEntity
  8
12_ТРАПЫ_ЛИФТЫ
100
AcDbPolyline
 90
4
 70
1
 10
20000.0
 20
-1600.0
 10
26000.0
 20
-1600.0
 10
26000.0
 20
1600.0
 10
20000.0
 20
1600.0
  0
LWPOLYLINE
  5
14C
330
17
100
AcDbEntity
  8
12_ТРАПЫ_ЛИФТЫ
100
AcDbPolyline
 90
4
 70
1
 10
20200.0
 20
100.0
 10
24400.0
 20
100.0
 10
24400.0
 20
1400.0
 10
20200.0
 20
1400.0
  0
LINE
  5
14D
330
17
100
AcDbEntity
  8
12_ТРАПЫ_ЛИФТЫ
100
AcDbLine
 10
20724.999999999996
 20
100.0
 30
0.0
 11
20724.999999999996
 21
1400.0
 31
0.0
  0
LINE
  5
14E
330
17
100
AcDbEntity
  8
12_ТРАПЫ_ЛИФТЫ
100
AcDbLine
 10
21250.0
 20
100.0
 30
0.0
 11
21250.0
 21
1400.0
 31
0.0
  0
LINE
  5
14F
330
17
100
AcDbEntity
  8
12_ТРАПЫ_ЛИФТЫ
100
AcDbLine
 10
21775.0
 20
100.0
 30
0.0
 11
21775.0
 21
1400.0
 31
0.0
  0
LINE
  5
150
330
17
100
AcDbEntity
  8
12_ТРАПЫ_ЛИФТЫ
100
AcDbLine
 10
22300.0
 20
100.0
 30
0.0
 11
22300.0
 21
1400.0
 31
0.0
  0
LINE
  5
151
330
17
100
AcDbEntity
  8
12_ТРАПЫ_ЛИФТЫ
100
AcDbLine
 10
22825.0
 20
100.0
 30
0.0
 11
22825.0
 21
1400.0
 31
0.0
  0
LINE
  5
152
330
17
100
AcDbEntity
  8
12_ТРАПЫ_ЛИФТЫ
100
AcDbLine
 10
23350.0
 20
100.0
 30
0.0
 11
23350.0
 21
1400.0
 31
0.0
  0
LINE
  5
153
330
17
100
AcDbEntity
  8
12_ТРАПЫ_ЛИФТЫ
100
AcDbLine
 10
23875.0
 20
100.0
 30
0.0
 11
23875.0
 21
1400.0
 31
0.0
  0
LWPOLYLINE
  5
154
330
17
100
AcDbEntity
  8
12_ТРАПЫ_ЛИФТЫ
100
AcDbPolyline
 90
4
 70
1
 10
20200.0
 20
-100.0
 10
24400.0
 20
-100.0
 10
24400.0
 20
-1400.0
 10
20200.0
 20
-1400.0
  0
LINE
  5
155
330
17
100
AcDbEntity
  8
12_ТРАПЫ_ЛИФТЫ
100
AcDbLine
 10
20724.999999999996
 20
-100.0
 30
0.0
 11
20724.999999999996
 21
-1400.0
 31
0.0
  0
LINE
  5
156
330
17
100
AcDbEntity
  8
12_ТРАПЫ_ЛИФТЫ
100
AcDbLine
 10
21250.0
 20
-100.0
 30
0.0
 11
21250.0
 21
-1400.0
 31
0.0
  0
LINE
  5
157
330
17
100
AcDbEntity
  8
12_ТРАПЫ_ЛИФТЫ
100
AcDbLine
 10
21775.0
 20
-100.0
 30
0.0
 11
21775.0
 21
-1400.0
 31
0.0
  0
LINE
  5
158
330
17
100
AcDbEntity
  8
12_ТРАПЫ_ЛИФТЫ
100
AcDbLine
 10
22300.0
 20
-100.0
 30
0.0
 11
22300.0
 21
-1400.0
 31
0.0
  0
LINE
  5
159
330
17
100
AcDbEntity
  8
12_ТРАПЫ_ЛИФТЫ
100
AcDbLine
 10
22825.0
 20
-100.0
 30
0.0
 11
22825.0
 21
-1400.0
 31
0.0
  0
LINE
  5
15A
330
17
100
AcDbEntity
  8
12_ТРАПЫ_ЛИФТЫ
100
AcDbLine
 10
23350.0
 20
-100.0
 30
0.0
 11
23350.0
 21
-1400.0
 31
0.0
  0
LINE
  5
15B
330
17
100
AcDbEntity
  8
12_ТРАПЫ_ЛИФТЫ
100
AcDbLine
 10
23875.0
 20
-100.0
 30
0.0
 11
23875.0
 21
-1400.0
 31
0.0
  0
TEXT
  5
15C
330
17
100
AcDbEntity
  8
12_ТРАПЫ_ЛИФТЫ
100
AcDbText
 10
23000.0
 20
0.0
 30
0.0
 40
440.00000000000006
  1
трап
  7
ГОСТ
 72
1
 11
23000.0
 21
0.0
 31
0.0
100
AcDbText
 73
2
  0
LWPOLYLINE
  5
15D
330
17
100
AcDbEntity
  8
12_ТРАПЫ_ЛИФТЫ
100
AcDbPolyline
 90
4
 70
1
 10
64000.0
 20
-1600.0
 10
70000.0
 20
-1600.0
 10
70000.0
 20
1600.0
 10
64000.0
 20
1600.0
  0
LWPOLYLINE
  5
15E
330
17
100
AcDbEntity
  8
12_ТРАПЫ_ЛИФТЫ
100
AcDbPolyline
 90
4
 70
1
 10
64200.0
 20
100.0
 10
68400.0
 20
100.0
 10
68400.0
 20
1400.0
 10
64200.0
 20
1400.0
  0
LINE
  5
15F
330
17
100
AcDbEntity
  8
12_ТРАПЫ_ЛИФТЫ
100
AcDbLine
 10
64725.00000000001
 20
100.0
 30
0.0
 11
64725.00000000001
 21
1400.0
 31
0.0
  0
LINE
  5
160
330
17
100
AcDbEntity
  8
12_ТРАПЫ_ЛИФТЫ
100
AcDbLine
 10
65250.0
 20
100.0
 30
0.0
 11
65250.0
 21
1400.0
 31
0.0
  0
LINE
  5
161
330
17
100
AcDbEntity
  8
12_ТРАПЫ_ЛИФТЫ
100
AcDbLine
 10
65775.0
 20
100.0
 30
0.0
 11
65775.0
 21
1400.0
 31
0.0
  0
LINE
  5
162
330
17
100
AcDbEntity
  8
12_ТРАПЫ_ЛИФТЫ
100
AcDbLine
 10
66300.0
 20
100.0
 30
0.0
 11
66300.0
 21
1400.0
 31
0.0
  0
LINE
  5
163
330
17
100
AcDbEntity
  8
12_ТРАПЫ_ЛИФТЫ
100
AcDbLine
 10
66825.0
 20
100.0
 30
0.0
 11
66825.0
 21
1400.0
 31
0.0
  0
LINE
  5
164
330
17
100
AcDbEntity
  8
12_ТРАПЫ_ЛИФТЫ
100
AcDbLine
 10
67350.00000000001
 20
100.0
 30
0.0
 11
67350.00000000001
 21
1400.0
 31
0.0
  0
LINE
  5
165
330
17
100
AcDbEntity
  8
12_ТРАПЫ_ЛИФТЫ
100
AcDbLine
 10
67875.0
 20
100.0
 30
0.0
 11
67875.0
 21
1400.0
 31
0.0
  0
LWPOLYLINE
  5
166
330
17
100
AcDbEntity
  8
12_ТРАПЫ_ЛИФТЫ
100
AcDbPolyline
 90
4
 70
1
 10
64200.0
 20
-100.0
 10
68400.0
 20
-100.0
 10
68400.0
 20
-1400.0
 10
64200.0
 20
-1400.0
  0
LINE
  5
167
330
17
100
AcDbEntity
  8
12_ТРАПЫ_ЛИФТЫ
100
AcDbLine
 10
64725.00000000001
 20
-100.0
 30
0.0
 11
64725.00000000001
 21
-1400.0
 31
0.0
  0
LINE
  5
168
330
17
100
AcDbEntity
  8
12_ТРАПЫ_ЛИФТЫ
100
AcDbLine
 10
65250.0
 20
-100.0
 30
0.0
 11
65250.0
 21
-1400.0
 31
0.0
  0
LINE
  5
169
330
17
100
AcDbEntity
  8
12_ТРАПЫ_ЛИФТЫ
100
AcDbLine
 10
65775.0
 20
-100.0
 30
0.0
 11
65775.0
 21
-1400.0
 31
0.0
  0
LINE
  5
16A
330
17
100
AcDbEntity
  8
12_ТРАПЫ_ЛИФТЫ
100
AcDbLine
 10
66300.0
 20
-100.0
 30
0.0
 11
66300.0
 21
-1400.0
 31
0.0
  0
LINE
  5
16B
330
17
100
AcDbEntity
  8
12_ТРАПЫ_ЛИФТЫ
100
AcDbLine
 10
66825.0
 20
-100.0
 30
0.0
 11
66825.0
 21
-1400.0
 31
0.0
  0
LINE
  5
16C
330
17
100
AcDbEntity
  8
12_ТРАПЫ_ЛИФТЫ
100
AcDbLine
 10
67350.00000000001
 20
-100.0
 30
0.0
 11
67350.00000000001
 21
-1400.0
 31
0.0
  0
LINE
  5
16D
330
17
100
AcDbEntity
  8
12_ТРАПЫ_ЛИФТЫ
100
AcDbLine
 10
67875.0
 20
-100.0
 30
0.0
 11
67875.0
 21
-1400.0
 31
0.0
  0
TEXT
  5
16E
330
17
100
AcDbEntity
  8
12_ТРАПЫ_ЛИФТЫ
100
AcDbText
 10
67000.0
 20
0.0
 30
0.0
 40
440.00000000000006
  1
трап
  7
ГОСТ
 72
1
 11
67000.0
 21
0.0
 31
0.0
100
AcDbText
 73
2
  0
LWPOLYLINE
  5
16F
330
17
100
AcDbEntity
  8
12_ТРАПЫ_ЛИФТЫ
100
AcDbPolyline
 90
4
 70
1
 10
108000.0
 20
-1600.0
 10
114000.0
 20
-1600.0
 10
114000.0
 20
1600.0
 10
108000.0
 20
1600.0
  0
LWPOLYLINE
  5
170
330
17
100
AcDbEntity
  8
12_ТРАПЫ_ЛИФТЫ
100
AcDbPolyline
 90
4
 70
1
 10
108200.0
 20
100.0
 10
112400.0
 20
100.0
 10
112400.0
 20
1400.0
 10
108200.0
 20
1400.0
  0
LINE
  5
171
330
17
100
AcDbEntity
  8
12_ТРАПЫ_ЛИФТЫ
100
AcDbLine
 10
108725.00000000001
 20
100.0
 30
0.0
 11
108725.00000000001
 21
1400.0
 31
0.0
  0
LINE
  5
172
330
17
100
AcDbEntity
  8
12_ТРАПЫ_ЛИФТЫ
100
AcDbLine
 10
109250.0
 20
100.0
 30
0.0
 11
109250.0
 21
1400.0
 31
0.0
  0
LINE
  5
173
330
17
100
AcDbEntity
  8
12_ТРАПЫ_ЛИФТЫ
100
AcDbLine
 10
109775.0
 20
100.0
 30
0.0
 11
109775.0
 21
1400.0
 31
0.0
  0
LINE
  5
174
330
17
100
AcDbEntity
  8
12_ТРАПЫ_ЛИФТЫ
100
AcDbLine
 10
110300.0
 20
100.0
 30
0.0
 11
110300.0
 21
1400.0
 31
0.0
  0
LINE
  5
175
330
17
100
AcDbEntity
  8
12_ТРАПЫ_ЛИФТЫ
100
AcDbLine
 10
110825.0
 20
100.0
 30
0.0
 11
110825.0
 21
1400.0
 31
0.0
  0
LINE
  5
176
330
17
100
AcDbEntity
  8
12_ТРАПЫ_ЛИФТЫ
100
AcDbLine
 10
111350.00000000001
 20
100.0
 30
0.0
 11
111350.00000000001
 21
1400.0
 31
0.0
  0
LINE
  5
177
330
17
100
AcDbEntity
  8
12_ТРАПЫ_ЛИФТЫ
100
AcDbLine
 10
111875.0
 20
100.0
 30
0.0
 11
111875.0
 21
1400.0
 31
0.0
  0
LWPOLYLINE
  5
178
330
17
100
AcDbEntity
  8
12_ТРАПЫ_ЛИФТЫ
100
AcDbPolyline
 90
4
 70
1
 10
108200.0
 20
-100.0
 10
112400.0
 20
-100.0
 10
112400.0
 20
-1400.0
 10
108200.0
 20
-1400.0
  0
LINE
  5
179
330
17
100
AcDbEntity
  8
12_ТРАПЫ_ЛИФТЫ
100
AcDbLine
 10
108725.00000000001
 20
-100.0
 30
0.0
 11
108725.00000000001
 21
-1400.0
 31
0.0
  0
LINE
  5
17A
330
17
100
AcDbEntity
  8
12_ТРАПЫ_ЛИФТЫ
100
AcDbLine
 10
109250.0
 20
-100.0
 30
0.0
 11
109250.0
 21
-1400.0
 31
0.0
  0
LINE
  5
17B
330
17
100
AcDbEntity
  8
12_ТРАПЫ_ЛИФТЫ
100
AcDbLine
 10
109775.0
 20
-100.0
 30
0.0
 11
109775.0
 21
-1400.0
 31
0.0
  0
LINE
  5
17C
330
17
100
AcDbEntity
  8
12_ТРАПЫ_ЛИФТЫ
100
AcDbLine
 10
110300.0
 20
-100.0
 30
0.0
 11
110300.0
 21
-1400.0
 31
0.0
  0
LINE
  5
17D
330
17
100
AcDbEntity
  8
12_ТРАПЫ_ЛИФТЫ
100
AcDbLine
 10
110825.0
 20
-100.0
 30
0.0
 11
110825.0
 21
-1400.0
 31
0.0
  0
LINE
  5
17E
330
17
100
AcDbEntity
  8
12_ТРАПЫ_ЛИФТЫ
100
AcDbLine
 10
111350.00000000001
 20
-100.0
 30
0.0
 11
111350.00000000001
 21
-1400.0
 31
0.0
  0
LINE
  5
17F
330
17
100
AcDbEntity
  8
12_ТРАПЫ_ЛИФТЫ
100
AcDbLine
 10
111875.0
 20
-100.0
 30
0.0
 11
111875.0
 21
-1400.0
 31
0.0
  0
TEXT
  5
180
330
17
100
AcDbEntity
  8
12_ТРАПЫ_ЛИФТЫ
100
AcDbText
 10
111000.0
 20
0.0
 30
0.0
 40
440.00000000000006
  1
трап
  7
ГОСТ
 72
1
 11
111000.0
 21
0.0
 31
0.0
100
AcDbText
 73
2
  0
LWPOLYLINE
  5
181
330
17
100
AcDbEntity
  8
12_ТРАПЫ_ЛИФТЫ
100
AcDbPolyline
 90
4
 70
1
 10
21000.0
 20
-1000.0
 10
23100.0
 20
-1000.0
 10
23100.0
 20
1000.0
 10
21000.0
 20
1000.0
  0
LINE
  5
182
330
17
100
AcDbEntity
  8
12_ТРАПЫ_ЛИФТЫ
100
AcDbLine
 10
21000.0
 20
-1000.0
 30
0.0
 11
23100.0
 21
1000.0
 31
0.0
  0
LINE
  5
183
330
17
100
AcDbEntity
  8
12_ТРАПЫ_ЛИФТЫ
100
AcDbLine
 10
21000.0
 20
1000.0
 30
0.0
 11
23100.0
 21
-1000.0
 31
0.0
  0
LWPOLYLINE
  5
184
330
17
100
AcDbEntity
  8
12_ТРАПЫ_ЛИФТЫ
100
AcDbPolyline
 90
4
 70
1
 10
60000.0
 20
2000.0
 10
62100.0
 20
2000.0
 10
62100.0
 20
4000.0
 10
60000.0
 20
4000.0
  0
LINE
  5
185
330
17
100
AcDbEntity
  8
12_ТРАПЫ_ЛИФТЫ
100
AcDbLine
 10
60000.0
 20
2000.0
 30
0.0
 11
62100.0
 21
4000.0
 31
0.0
  0
LINE
  5
186
330
17
100
AcDbEntity
  8
12_ТРАПЫ_ЛИФТЫ
100
AcDbLine
 10
60000.0
 20
4000.0
 30
0.0
 11
62100.0
 21
2000.0
 31
0.0
  0
LWPOLYLINE
  5
187
330
17
100
AcDbEntity
  8
12_ТРАПЫ_ЛИФТЫ
100
AcDbPolyline
 90
4
 70
1
 10
60000.0
 20
-4000.0
 10
62100.0
 20
-4000.0
 10
62100.0
 20
-2000.0
 10
60000.0
 20
-2000.0
  0
LINE
  5
188
330
17
100
AcDbEntity
  8
12_ТРАПЫ_ЛИФТЫ
100
AcDbLine
 10
60000.0
 20
-4000.0
 30
0.0
 11
62100.0
 21
-2000.0
 31
0.0
  0
LINE
  5
189
330
17
100
AcDbEntity
  8
12_ТРАПЫ_ЛИФТЫ
100
AcDbLine
 10
60000.0
 20
-2000.0
 30
0.0
 11
62100.0
 21
-4000.0
 31
0.0
  0
LWPOLYLINE
  5
18A
330
17
100
AcDbEntity
  8
12_ТРАПЫ_ЛИФТЫ
100
AcDbPolyline
 90
4
 70
1
 10
109000.0
 20
-1000.0
 10
111100.0
 20
-1000.0
 10
111100.0
 20
1000.0
 10
109000.0
 20
1000.0
  0
LINE
  5
18B
330
17
100
AcDbEntity
  8
12_ТРАПЫ_ЛИФТЫ
100
AcDbLine
 10
109000.0
 20
-1000.0
 30
0.0
 11
111100.0
 21
1000.0
 31
0.0
  0
LINE
  5
18C
330
17
100
AcDbEntity
  8
12_ТРАПЫ_ЛИФТЫ
100
AcDbLine
 10
109000.0
 20
1000.0
 30
0.0
 11
111100.0
 21
-1000.0
 31
0.0
  0
LINE
  5
18D
330
17
100
AcDbEntity
  8
06_ПОМЕЩЕНИЯ
100
AcDbLine
 10
14700.0
 20
-1300.0
 30
0.0
 11
15300.0
 21
-1300.0
 31
0.0
  0
LINE
  5
18E
330
17
100
AcDbEntity
  8
06_ПОМЕЩЕНИЯ
100
AcDbLine
 10
14700.0
 20
1300.0
 30
0.0
 11
15300.0
 21
1300.0
 31
0.0
  0
LINE
  5
18F
330
17
100
AcDbEntity
  8
06_ПОМЕЩЕНИЯ
100
AcDbLine
 10
19700.0
 20
-3900.0
 30
0.0
 11
20300.0
 21
-3900.0
 31
0.0
  0
LINE
  5
190
330
17
100
AcDbEntity
  8
06_ПОМЕЩЕНИЯ
100
AcDbLine
 10
19700.0
 20
-1700.0
 30
0.0
 11
20300.0
 21
-1700.0
 31
0.0
  0
LINE
  5
191
330
17
100
AcDbEntity
  8
06_ПОМЕЩЕНИЯ
100
AcDbLine
 10
19700.0
 20
1700.0
 30
0.0
 11
20300.0
 21
1700.0
 31
0.0
  0
LINE
  5
192
330
17
100
AcDbEntity
  8
06_ПОМЕЩЕНИЯ
100
AcDbLine
 10
19700.0
 20
3900.0
 30
0.0
 11
20300.0
 21
3900.0
 31
0.0
  0
LINE
  5
193
330
17
100
AcDbEntity
  8
06_ПОМЕЩЕНИЯ
100
AcDbLine
 10
25700.0
 20
-3900.0
 30
0.0
 11
26300.0
 21
-3900.0
 31
0.0
  0
LINE
  5
194
330
17
100
AcDbEntity
  8
06_ПОМЕЩЕНИЯ
100
AcDbLine
 10
25700.0
 20
-1700.0
 30
0.0
 11
26300.0
 21
-1700.0
 31
0.0
  0
LINE
  5
195
330
17
100
AcDbEntity
  8
06_ПОМЕЩЕНИЯ
100
AcDbLine
 10
25700.0
 20
-3550.0
 30
0.0
 11
26300.0
 21
-3550.0
 31
0.0
  0
LINE
  5
196
330
17
100
AcDbEntity
  8
06_ПОМЕЩЕНИЯ
100
AcDbLine
 10
25700.0
 20
-2250.0
 30
0.0
 11
26300.0
 21
-2250.0
 31
0.0
  0
LINE
  5
197
330
17
100
AcDbEntity
  8
06_ПОМЕЩЕНИЯ
100
AcDbLine
 10
25700.0
 20
1700.0
 30
0.0
 11
26300.0
 21
1700.0
 31
0.0
  0
LINE
  5
198
330
17
100
AcDbEntity
  8
06_ПОМЕЩЕНИЯ
100
AcDbLine
 10
25700.0
 20
3900.0
 30
0.0
 11
26300.0
 21
3900.0
 31
0.0
  0
LINE
  5
199
330
17
100
AcDbEntity
  8
06_ПОМЕЩЕНИЯ
100
AcDbLine
 10
25700.0
 20
2250.0
 30
0.0
 11
26300.0
 21
2250.0
 31
0.0
  0
LINE
  5
19A
330
17
100
AcDbEntity
  8
06_ПОМЕЩЕНИЯ
100
AcDbLine
 10
25700.0
 20
3550.0
 30
0.0
 11
26300.0
 21
3550.0
 31
0.0
  0
LINE
  5
19B
330
17
100
AcDbEntity
  8
06_ПОМЕЩЕНИЯ
100
AcDbLine
 10
57700.0
 20
-3550.0
 30
0.0
 11
58300.0
 21
-3550.0
 31
0.0
  0
LINE
  5
19C
330
17
100
AcDbEntity
  8
06_ПОМЕЩЕНИЯ
100
AcDbLine
 10
57700.0
 20
-2250.0
 30
0.0
 11
58300.0
 21
-2250.0
 31
0.0
  0
LINE
  5
19D
330
17
100
AcDbEntity
  8
06_ПОМЕЩЕНИЯ
100
AcDbLine
 10
57700.0
 20
2250.0
 30
0.0
 11
58300.0
 21
2250.0
 31
0.0
  0
LINE
  5
19E
330
17
100
AcDbEntity
  8
06_ПОМЕЩЕНИЯ
100
AcDbLine
 10
57700.0
 20
3550.0
 30
0.0
 11
58300.0
 21
3550.0
 31
0.0
  0
LINE
  5
19F
330
17
100
AcDbEntity
  8
06_ПОМЕЩЕНИЯ
100
AcDbLine
 10
73700.0
 20
-3550.0
 30
0.0
 11
74300.0
 21
-3550.0
 31
0.0
  0
LINE
  5
1A0
330
17
100
AcDbEntity
  8
06_ПОМЕЩЕНИЯ
100
AcDbLine
 10
73700.0
 20
-2250.0
 30
0.0
 11
74300.0
 21
-2250.0
 31
0.0
  0
LINE
  5
1A1
330
17
100
AcDbEntity
  8
06_ПОМЕЩЕНИЯ
100
AcDbLine
 10
73700.0
 20
2250.0
 30
0.0
 11
74300.0
 21
2250.0
 31
0.0
  0
LINE
  5
1A2
330
17
100
AcDbEntity
  8
06_ПОМЕЩЕНИЯ
100
AcDbLine
 10
73700.0
 20
3550.0
 30
0.0
 11
74300.0
 21
3550.0
 31
0.0
  0
LINE
  5
1A3
330
17
100
AcDbEntity
  8
06_ПОМЕЩЕНИЯ
100
AcDbLine
 10
107700.0
 20
-3900.0
 30
0.0
 11
108300.0
 21
-3900.0
 31
0.0
  0
LINE
  5
1A4
330
17
100
AcDbEntity
  8
06_ПОМЕЩЕНИЯ
100
AcDbLine
 10
107700.0
 20
-1700.0
 30
0.0
 11
108300.0
 21
-1700.0
 31
0.0
  0
LINE
  5
1A5
330
17
100
AcDbEntity
  8
06_ПОМЕЩЕНИЯ
100
AcDbLine
 10
107700.0
 20
1700.0
 30
0.0
 11
108300.0
 21
1700.0
 31
0.0
  0
LINE
  5
1A6
330
17
100
AcDbEntity
  8
06_ПОМЕЩЕНИЯ
100
AcDbLine
 10
107700.0
 20
3900.0
 30
0.0
 11
108300.0
 21
3900.0
 31
0.0
  0
LINE
  5
1A7
330
17
100
AcDbEntity
  8
06_ПОМЕЩЕНИЯ
100
AcDbLine
 10
113700.0
 20
-3900.0
 30
0.0
 11
114300.0
 21
-3900.0
 31
0.0
  0
LINE
  5
1A8
330
17
100
AcDbEntity
  8
06_ПОМЕЩЕНИЯ
100
AcDbLine
 10
113700.0
 20
-1700.0
 30
0.0
 11
114300.0
 21
-1700.0
 31
0.0
  0
LINE
  5
1A9
330
17
100
AcDbEntity
  8
06_ПОМЕЩЕНИЯ
100
AcDbLine
 10
113700.0
 20
1700.0
 30
0.0
 11
114300.0
 21
1700.0
 31
0.0
  0
LINE
  5
1AA
330
17
100
AcDbEntity
  8
06_ПОМЕЩЕНИЯ
100
AcDbLine
 10
113700.0
 20
3900.0
 30
0.0
 11
114300.0
 21
3900.0
 31
0.0
  0
LINE
  5
1AB
330
17
100
AcDbEntity
  8
06_ПОМЕЩЕНИЯ
100
AcDbLine
 10
117700.0
 20
-1300.0
 30
0.0
 11
118300.0
 21
-1300.0
 31
0.0
  0
LINE
  5
1AC
330
17
100
AcDbEntity
  8
06_ПОМЕЩЕНИЯ
100
AcDbLine
 10
117700.0
 20
1300.0
 30
0.0
 11
118300.0
 21
1300.0
 31
0.0
  0
LWPOLYLINE
  5
1AD
330
17
100
AcDbEntity
  8
14_МЕБЕЛЬ
100
AcDbPolyline
 90
4
 70
1
 10
15800.0
 20
-3000.0
 10
17800.0
 20
-3000.0
 10
17800.0
 20
-600.0
 10
15800.0
 20
-600.0
  0
LWPOLYLINE
  5
1AE
330
17
100
AcDbEntity
  8
14_МЕБЕЛЬ
100
AcDbPolyline
 90
4
 70
1
 10
18000.0
 20
-2000.0
 10
18800.0
 20
-2000.0
 10
18800.0
 20
-1200.0
 10
18000.0
 20
-1200.0
  0
LWPOLYLINE
  5
1AF
330
17
100
AcDbEntity
  8
14_МЕБЕЛЬ
100
AcDbPolyline
 90
4
 70
1
 10
19000.0
 20
-2000.0
 10
19800.0
 20
-2000.0
 10
19800.0
 20
-1200.0
 10
19000.0
 20
-1200.0
  0
LWPOLYLINE
  5
1B0
330
17
100
AcDbEntity
  8
14_МЕБЕЛЬ
100
AcDbPolyline
 90
4
 70
1
 10
16000.0
 20
2400.0
 10
19400.0
 20
2400.0
 10
19400.0
 20
3100.0
 10
16000.0
 20
3100.0
  0
LWPOLYLINE
  5
1B1
330
17
100
AcDbEntity
  8
14_МЕБЕЛЬ
100
AcDbPolyline
 90
4
 70
1
 10
16000.0
 20
3400.0
 10
17600.0
 20
3400.0
 10
17600.0
 20
3900.0
 10
16000.0
 20
3900.0
  0
LWPOLYLINE
  5
1B2
330
17
100
AcDbEntity
  8
14_МЕБЕЛЬ
100
AcDbPolyline
 90
4
 70
1
 10
67400.0
 20
-5999.0
 10
69400.0
 20
-5999.0
 10
69400.0
 20
-5299.0
 10
67400.0
 20
-5299.0
  0
LWPOLYLINE
  5
1B3
330
17
100
AcDbEntity
  8
14_МЕБЕЛЬ
100
AcDbPolyline
 90
4
 70
1
 10
70000.0
 20
-5999.0
 10
73200.0
 20
-5999.0
 10
73200.0
 20
-5449.0
 10
70000.0
 20
-5449.0
  0
LWPOLYLINE
  5
1B4
330
17
100
AcDbEntity
  8
14_МЕБЕЛЬ
100
AcDbPolyline
 90
4
 70
1
 10
71000.0
 20
-5299.0
 10
72600.0
 20
-5299.0
 10
72600.0
 20
-4799.0
 10
71000.0
 20
-4799.0
  0
LWPOLYLINE
  5
1B5
330
17
100
AcDbEntity
  8
14_МЕБЕЛЬ
100
AcDbPolyline
 90
4
 70
1
 10
67400.0
 20
5349.0
 10
69000.0
 20
5349.0
 10
69000.0
 20
5999.0
 10
67400.0
 20
5999.0
  0
LWPOLYLINE
  5
1B6
330
17
100
AcDbEntity
  8
14_МЕБЕЛЬ
100
AcDbPolyline
 90
4
 70
1
 10
69300.0
 20
5349.0
 10
70900.0
 20
5349.0
 10
70900.0
 20
5999.0
 10
69300.0
 20
5999.0
  0
LWPOLYLINE
  5
1B7
330
17
100
AcDbEntity
  8
14_МЕБЕЛЬ
100
AcDbPolyline
 90
4
 70
1
 10
71400.0
 20
5399.0
 10
72400.0
 20
5399.0
 10
72400.0
 20
5999.0
 10
71400.0
 20
5999.0
  0
LWPOLYLINE
  5
1B8
330
17
100
AcDbEntity
  8
14_МЕБЕЛЬ
100
AcDbPolyline
 90
4
 70
1
 10
67000.0
 20
3450.0
 10
73560.0
 20
3450.0
 10
73560.0
 20
3510.0
 10
67000.0
 20
3510.0
  0
LWPOLYLINE
  5
1B9
330
17
100
AcDbEntity
  8
14_МЕБЕЛЬ
100
AcDbPolyline
 90
4
 70
1
 10
67000.0
 20
1650.0
 10
67060.0
 20
1650.0
 10
67060.0
 20
3450.0
 10
67000.0
 20
3450.0
  0
LWPOLYLINE
  5
1BA
330
17
100
AcDbEntity
  8
14_МЕБЕЛЬ
100
AcDbPolyline
 90
4
 70
1
 10
67000.0
 20
-3510.0
 10
73560.0
 20
-3510.0
 10
73560.0
 20
-3450.0
 10
67000.0
 20
-3450.0
  0
LWPOLYLINE
  5
1BB
330
17
100
AcDbEntity
  8
14_МЕБЕЛЬ
100
AcDbPolyline
 90
4
 70
1
 10
67000.0
 20
-3450.0
 10
67060.0
 20
-3450.0
 10
67060.0
 20
-1650.0
 10
67000.0
 20
-1650.0
  0
LWPOLYLINE
  5
1BC
330
17
100
AcDbEntity
  8
14_МЕБЕЛЬ
100
AcDbPolyline
 90
4
 70
1
 10
73500.0
 20
-3450.0
 10
73560.0
 20
-3450.0
 10
73560.0
 20
3450.0
 10
73500.0
 20
3450.0
  0
LWPOLYLINE
  5
1BD
330
17
100
AcDbEntity
  8
14_МЕБЕЛЬ
100
AcDbPolyline
 90
4
 70
1
 10
114400.0
 20
750.0
 10
115900.0
 20
750.0
 10
115900.0
 20
2336.0
 10
114400.0
 20
2336.0
  0
LWPOLYLINE
  5
1BE
330
17
100
AcDbEntity
  8
14_МЕБЕЛЬ
100
AcDbPolyline
 90
4
 70
1
 10
114400.0
 20
-2336.0
 10
115900.0
 20
-2336.0
 10
115900.0
 20
-750.0
 10
114400.0
 20
-750.0
  0
LWPOLYLINE
  5
1BF
330
17
100
AcDbEntity
  8
14_МЕБЕЛЬ
100
AcDbPolyline
 90
4
 70
1
 10
116200.0
 20
700.0
 10
117300.0
 20
700.0
 10
117300.0
 20
1400.0
 10
116200.0
 20
1400.0
  0
LWPOLYLINE
  5
1C0
330
17
100
AcDbEntity
  8
14_МЕБЕЛЬ
100
AcDbPolyline
 90
4
 70
1
 10
116200.0
 20
-1400.0
 10
117300.0
 20
-1400.0
 10
117300.0
 20
-700.0
 10
116200.0
 20
-700.0
  0
LWPOLYLINE
  5
1C1
330
17
100
AcDbEntity
  8
02_ПАЛУБЫ
100
AcDbPolyline
 90
4
 70
1
 10
67000.0
 20
-3400.0
 10
73500.0
 20
-3400.0
 10
73500.0
 20
3400.0
 10
67000.0
 20
3400.0
  0
TEXT
  5
1C2
330
17
100
AcDbEntity
  8
02_ПАЛУБЫ
100
AcDbText
 10
70250.0
 20
2600.0
 30
0.0
 40
440.00000000000006
  1
проём атриума
  7
ГОСТ
 72
1
 11
70250.0
 21
2600.0
 31
0.0
100
AcDbText
 73
2
  0
LWPOLYLINE
  5
1C3
330
17
100
AcDbEntity
  8
13_КОЛЁСА
100
AcDbPolyline
 90
4
 70
1
 10
63550.0
 20
4800.0
 10
68450.0
 20
4800.0
 10
68450.0
 20
8000.0
 10
63550.0
 20
8000.0
  0
LINE
  5
1C4
330
17
100
AcDbEntity
  8
07_ОСИ
100
AcDbLine
 10
66000.0
 20
4800.0
 30
0.0
 11
66000.0
 21
8400.0
 31
0.0
  0
LWPOLYLINE
  5
1C5
330
17
100
AcDbEntity
  8
13_КОЛЁСА
100
AcDbPolyline
 90
49
 70
0
 10
59900.0
 20
8250.0
 10
60150.0
 20
8165.57249060914
 10
60400.0
 20
7920.554315296785
 10
60650.0
 20
7538.929560204519
 10
60900.0
 20
7058.0543152967875
 10
61150.0
 20
6525.000000000003
 10
61400.0
 20
5991.945684703218
 10
61650.0
 20
5511.070439795485
 10
61900.0
 20
5129.445684703217
 10
62150.0
 20
4884.427509390861
 10
62400.0
 20
4800.0
 10
62650.0
 20
4800.0
 10
62900.0
 20
4800.0
 10
63150.0
 20
4800.0
 10
63400.0
 20
4800.0
 10
63650.0
 20
4800.0
 10
63900.0
 20
4800.0
 10
64150.00000000001
 20
4800.0
 10
64400.00000000001
 20
4800.0
 10
64650.00000000001
 20
4800.0
 10
64900.00000000001
 20
4800.0
 10
65150.00000000001
 20
4800.0
 10
65400.00000000001
 20
4800.0
 10
65650.0
 20
4800.0
 10
65900.0
 20
4800.0
 10
66150.0
 20
4800.0
 10
66400.0
 20
4800.0
 10
66650.0
 20
4800.0
 10
66900.0
 20
4800.0
 10
67150.0
 20
4800.0
 10
67400.0
 20
4800.0
 10
67650.0
 20
4800.0
 10
67900.0
 20
4800.0
 10
68150.0
 20
4800.0
 10
68400.0
 20
4800.0
 10
68650.0
 20
4800.0
 10
68900.0
 20
4800.0
 10
69150.0
 20
4800.0
 10
69400.0
 20
4800.0
 10
69650.0
 20
4803.403893461233
 10
69900.0
 20
4921.135561842771
 10
70150.0
 20
5195.864656211771
 10
70400.0
 20
5600.698778661241
 10
70650.0
 20
6096.0099446406375
 10
70900.0
 20
6633.313646188078
 10
71150.0
 20
7160.01485338108
 10
71400.0
 20
7624.5563823164985
 10
71650.0
 20
7981.465671490982
 10
71900.0
 20
8195.805952946892
  0
LWPOLYLINE
  5
1C6
330
17
100
AcDbEntity
  8
13_КОЛЁСА
100
AcDbPolyline
 90
4
 70
1
 10
63550.0
 20
-4800.0
 10
68450.0
 20
-4800.0
 10
68450.0
 20
-8000.0
 10
63550.0
 20
-8000.0
  0
LINE
  5
1C7
330
17
100
AcDbEntity
  8
07_ОСИ
100
AcDbLine
 10
66000.0
 20
-4800.0
 30
0.0
 11
66000.0
 21
-8400.0
 31
0.0
  0
LWPOLYLINE
  5
1C8
330
17
100
AcDbEntity
  8
13_КОЛЁСА
100
AcDbPolyline
 90
49
 70
0
 10
59900.0
 20
-8250.0
 10
60150.0
 20
-8165.57249060914
 10
60400.0
 20
-7920.554315296785
 10
60650.0
 20
-7538.929560204519
 10
60900.0
 20
-7058.0543152967875
 10
61150.0
 20
-6525.000000000003
 10
61400.0
 20
-5991.945684703218
 10
61650.0
 20
-5511.070439795485
 10
61900.0
 20
-5129.445684703217
 10
62150.0
 20
-4884.427509390861
 10
62400.0
 20
-4800.0
 10
62650.0
 20
-4800.0
 10
62900.0
 20
-4800.0
 10
63150.0
 20
-4800.0
 10
63400.0
 20
-4800.0
 10
63650.0
 20
-4800.0
 10
63900.0
 20
-4800.0
 10
64150.00000000001
 20
-4800.0
 10
64400.00000000001
 20
-4800.0
 10
64650.00000000001
 20
-4800.0
 10
64900.00000000001
 20
-4800.0
 10
65150.00000000001
 20
-4800.0
 10
65400.00000000001
 20
-4800.0
 10
65650.0
 20
-4800.0
 10
65900.0
 20
-4800.0
 10
66150.0
 20
-4800.0
 10
66400.0
 20
-4800.0
 10
66650.0
 20
-4800.0
 10
66900.0
 20
-4800.0
 10
67150.0
 20
-4800.0
 10
67400.0
 20
-4800.0
 10
67650.0
 20
-4800.0
 10
67900.0
 20
-4800.0
 10
68150.0
 20
-4800.0
 10
68400.0
 20
-4800.0
 10
68650.0
 20
-4800.0
 10
68900.0
 20
-4800.0
 10
69150.0
 20
-4800.0
 10
69400.0
 20
-4800.0
 10
69650.0
 20
-4803.403893461233
 10
69900.0
 20
-4921.135561842771
 10
70150.0
 20
-5195.864656211771
 10
70400.0
 20
-5600.698778661241
 10
70650.0
 20
-6096.0099446406375
 10
70900.0
 20
-6633.313646188078
 10
71150.0
 20
-7160.01485338108
 10
71400.0
 20
-7624.5563823164985
 10
71650.0
 20
-7981.465671490982
 10
71900.0
 20
-8195.805952946892
  0
LINE
  5
1C9
330
17
100
AcDbEntity
  8
09_РАЗМЕРЫ
100
AcDbLine
 10
0.0
 20
-9200.0
 30
0.0
 11
0.0
 21
-9800.0
 31
0.0
  0
TEXT
  5
1CA
330
17
100
AcDbEntity
  8
09_РАЗМЕРЫ
100
AcDbText
 10
0.0
 20
-10600.0
 30
0.0
 40
600.0
  1
0
  7
ГОСТ
 72
1
 11
0.0
 21
-10600.0
 31
0.0
100
AcDbText
 73
2
  0
LINE
  5
1CB
330
17
100
AcDbEntity
  8
09_РАЗМЕРЫ
100
AcDbLine
 10
2750.0
 20
-9200.0
 30
0.0
 11
2750.0
 21
-9480.0
 31
0.0
  0
LINE
  5
1CC
330
17
100
AcDbEntity
  8
09_РАЗМЕРЫ
100
AcDbLine
 10
5500.0
 20
-9200.0
 30
0.0
 11
5500.0
 21
-9480.0
 31
0.0
  0
LINE
  5
1CD
330
17
100
AcDbEntity
  8
09_РАЗМЕРЫ
100
AcDbLine
 10
8250.0
 20
-9200.0
 30
0.0
 11
8250.0
 21
-9480.0
 31
0.0
  0
LINE
  5
1CE
330
17
100
AcDbEntity
  8
09_РАЗМЕРЫ
100
AcDbLine
 10
11000.0
 20
-9200.0
 30
0.0
 11
11000.0
 21
-9800.0
 31
0.0
  0
TEXT
  5
1CF
330
17
100
AcDbEntity
  8
09_РАЗМЕРЫ
100
AcDbText
 10
11000.0
 20
-10600.0
 30
0.0
 40
600.0
  1
20
  7
ГОСТ
 72
1
 11
11000.0
 21
-10600.0
 31
0.0
100
AcDbText
 73
2
  0
LINE
  5
1D0
330
17
100
AcDbEntity
  8
09_РАЗМЕРЫ
100
AcDbLine
 10
13750.000000000002
 20
-9200.0
 30
0.0
 11
13750.000000000002
 21
-9480.0
 31
0.0
  0
LINE
  5
1D1
330
17
100
AcDbEntity
  8
09_РАЗМЕРЫ
100
AcDbLine
 10
16500.0
 20
-9200.0
 30
0.0
 11
16500.0
 21
-9480.0
 31
0.0
  0
LINE
  5
1D2
330
17
100
AcDbEntity
  8
09_РАЗМЕРЫ
100
AcDbLine
 10
19250.0
 20
-9200.0
 30
0.0
 11
19250.0
 21
-9480.0
 31
0.0
  0
LINE
  5
1D3
330
17
100
AcDbEntity
  8
09_РАЗМЕРЫ
100
AcDbLine
 10
22000.0
 20
-9200.0
 30
0.0
 11
22000.0
 21
-9800.0
 31
0.0
  0
TEXT
  5
1D4
330
17
100
AcDbEntity
  8
09_РАЗМЕРЫ
100
AcDbText
 10
22000.0
 20
-10600.0
 30
0.0
 40
600.0
  1
40
  7
ГОСТ
 72
1
 11
22000.0
 21
-10600.0
 31
0.0
100
AcDbText
 73
2
  0
LINE
  5
1D5
330
17
100
AcDbEntity
  8
09_РАЗМЕРЫ
100
AcDbLine
 10
24750.000000000004
 20
-9200.0
 30
0.0
 11
24750.000000000004
 21
-9480.0
 31
0.0
  0
LINE
  5
1D6
330
17
100
AcDbEntity
  8
09_РАЗМЕРЫ
100
AcDbLine
 10
27500.000000000004
 20
-9200.0
 30
0.0
 11
27500.000000000004
 21
-9480.0
 31
0.0
  0
LINE
  5
1D7
330
17
100
AcDbEntity
  8
09_РАЗМЕРЫ
100
AcDbLine
 10
30250.000000000004
 20
-9200.0
 30
0.0
 11
30250.000000000004
 21
-9480.0
 31
0.0
  0
LINE
  5
1D8
330
17
100
AcDbEntity
  8
09_РАЗМЕРЫ
100
AcDbLine
 10
33000.0
 20
-9200.0
 30
0.0
 11
33000.0
 21
-9800.0
 31
0.0
  0
TEXT
  5
1D9
330
17
100
AcDbEntity
  8
09_РАЗМЕРЫ
100
AcDbText
 10
33000.0
 20
-10600.0
 30
0.0
 40
600.0
  1
60
  7
ГОСТ
 72
1
 11
33000.0
 21
-10600.0
 31
0.0
100
AcDbText
 73
2
  0
LINE
  5
1DA
330
17
100
AcDbEntity
  8
09_РАЗМЕРЫ
100
AcDbLine
 10
35750.0
 20
-9200.0
 30
0.0
 11
35750.0
 21
-9480.0
 31
0.0
  0
LINE
  5
1DB
330
17
100
AcDbEntity
  8
09_РАЗМЕРЫ
100
AcDbLine
 10
38500.0
 20
-9200.0
 30
0.0
 11
38500.0
 21
-9480.0
 31
0.0
  0
LINE
  5
1DC
330
17
100
AcDbEntity
  8
09_РАЗМЕРЫ
100
AcDbLine
 10
41250.0
 20
-9200.0
 30
0.0
 11
41250.0
 21
-9480.0
 31
0.0
  0
LINE
  5
1DD
330
17
100
AcDbEntity
  8
09_РАЗМЕРЫ
100
AcDbLine
 10
44000.0
 20
-9200.0
 30
0.0
 11
44000.0
 21
-9800.0
 31
0.0
  0
TEXT
  5
1DE
330
17
100
AcDbEntity
  8
09_РАЗМЕРЫ
100
AcDbText
 10
44000.0
 20
-10600.0
 30
0.0
 40
600.0
  1
80
  7
ГОСТ
 72
1
 11
44000.0
 21
-10600.0
 31
0.0
100
AcDbText
 73
2
  0
LINE
  5
1DF
330
17
100
AcDbEntity
  8
09_РАЗМЕРЫ
100
AcDbLine
 10
46750.00000000001
 20
-9200.0
 30
0.0
 11
46750.00000000001
 21
-9480.0
 31
0.0
  0
LINE
  5
1E0
330
17
100
AcDbEntity
  8
09_РАЗМЕРЫ
100
AcDbLine
 10
49500.00000000001
 20
-9200.0
 30
0.0
 11
49500.00000000001
 21
-9480.0
 31
0.0
  0
LINE
  5
1E1
330
17
100
AcDbEntity
  8
09_РАЗМЕРЫ
100
AcDbLine
 10
52250.00000000001
 20
-9200.0
 30
0.0
 11
52250.00000000001
 21
-9480.0
 31
0.0
  0
LINE
  5
1E2
330
17
100
AcDbEntity
  8
09_РАЗМЕРЫ
100
AcDbLine
 10
55000.00000000001
 20
-9200.0
 30
0.0
 11
55000.00000000001
 21
-9800.0
 31
0.0
  0
TEXT
  5
1E3
330
17
100
AcDbEntity
  8
09_РАЗМЕРЫ
100
AcDbText
 10
55000.00000000001
 20
-10600.0
 30
0.0
 40
600.0
  1
100
  7
ГОСТ
 72
1
 11
55000.00000000001
 21
-10600.0
 31
0.0
100
AcDbText
 73
2
  0
LINE
  5
1E4
330
17
100
AcDbEntity
  8
09_РАЗМЕРЫ
100
AcDbLine
 10
57750.00000000001
 20
-9200.0
 30
0.0
 11
57750.00000000001
 21
-9480.0
 31
0.0
  0
LINE
  5
1E5
330
17
100
AcDbEntity
  8
09_РАЗМЕРЫ
100
AcDbLine
 10
60500.00000000001
 20
-9200.0
 30
0.0
 11
60500.00000000001
 21
-9480.0
 31
0.0
  0
LINE
  5
1E6
330
17
100
AcDbEntity
  8
09_РАЗМЕРЫ
100
AcDbLine
 10
63250.00000000001
 20
-9200.0
 30
0.0
 11
63250.00000000001
 21
-9480.0
 31
0.0
  0
LINE
  5
1E7
330
17
100
AcDbEntity
  8
09_РАЗМЕРЫ
100
AcDbLine
 10
66000.0
 20
-9200.0
 30
0.0
 11
66000.0
 21
-9800.0
 31
0.0
  0
TEXT
  5
1E8
330
17
100
AcDbEntity
  8
09_РАЗМЕРЫ
100
AcDbText
 10
66000.0
 20
-10600.0
 30
0.0
 40
600.0
  1
120
  7
ГОСТ
 72
1
 11
66000.0
 21
-10600.0
 31
0.0
100
AcDbText
 73
2
  0
LINE
  5
1E9
330
17
100
AcDbEntity
  8
09_РАЗМЕРЫ
100
AcDbLine
 10
68750.0
 20
-9200.0
 30
0.0
 11
68750.0
 21
-9480.0
 31
0.0
  0
LINE
  5
1EA
330
17
100
AcDbEntity
  8
09_РАЗМЕРЫ
100
AcDbLine
 10
71500.0
 20
-9200.0
 30
0.0
 11
71500.0
 21
-9480.0
 31
0.0
  0
LINE
  5
1EB
330
17
100
AcDbEntity
  8
09_РАЗМЕРЫ
100
AcDbLine
 10
74250.0
 20
-9200.0
 30
0.0
 11
74250.0
 21
-9480.0
 31
0.0
  0
LINE
  5
1EC
330
17
100
AcDbEntity
  8
09_РАЗМЕРЫ
100
AcDbLine
 10
77000.0
 20
-9200.0
 30
0.0
 11
77000.0
 21
-9800.0
 31
0.0
  0
TEXT
  5
1ED
330
17
100
AcDbEntity
  8
09_РАЗМЕРЫ
100
AcDbText
 10
77000.0
 20
-10600.0
 30
0.0
 40
600.0
  1
140
  7
ГОСТ
 72
1
 11
77000.0
 21
-10600.0
 31
0.0
100
AcDbText
 73
2
  0
LINE
  5
1EE
330
17
100
AcDbEntity
  8
09_РАЗМЕРЫ
100
AcDbLine
 10
79750.0
 20
-9200.0
 30
0.0
 11
79750.0
 21
-9480.0
 31
0.0
  0
LINE
  5
1EF
330
17
100
AcDbEntity
  8
09_РАЗМЕРЫ
100
AcDbLine
 10
82500.0
 20
-9200.0
 30
0.0
 11
82500.0
 21
-9480.0
 31
0.0
  0
LINE
  5
1F0
330
17
100
AcDbEntity
  8
09_РАЗМЕРЫ
100
AcDbLine
 10
85250.0
 20
-9200.0
 30
0.0
 11
85250.0
 21
-9480.0
 31
0.0
  0
LINE
  5
1F1
330
17
100
AcDbEntity
  8
09_РАЗМЕРЫ
100
AcDbLine
 10
88000.0
 20
-9200.0
 30
0.0
 11
88000.0
 21
-9800.0
 31
0.0
  0
TEXT
  5
1F2
330
17
100
AcDbEntity
  8
09_РАЗМЕРЫ
100
AcDbText
 10
88000.0
 20
-10600.0
 30
0.0
 40
600.0
  1
160
  7
ГОСТ
 72
1
 11
88000.0
 21
-10600.0
 31
0.0
100
AcDbText
 73
2
  0
LINE
  5
1F3
330
17
100
AcDbEntity
  8
09_РАЗМЕРЫ
100
AcDbLine
 10
90750.00000000001
 20
-9200.0
 30
0.0
 11
90750.00000000001
 21
-9480.0
 31
0.0
  0
LINE
  5
1F4
330
17
100
AcDbEntity
  8
09_РАЗМЕРЫ
100
AcDbLine
 10
93500.00000000001
 20
-9200.0
 30
0.0
 11
93500.00000000001
 21
-9480.0
 31
0.0
  0
LINE
  5
1F5
330
17
100
AcDbEntity
  8
09_РАЗМЕРЫ
100
AcDbLine
 10
96250.00000000001
 20
-9200.0
 30
0.0
 11
96250.00000000001
 21
-9480.0
 31
0.0
  0
LINE
  5
1F6
330
17
100
AcDbEntity
  8
09_РАЗМЕРЫ
100
AcDbLine
 10
99000.00000000001
 20
-9200.0
 30
0.0
 11
99000.00000000001
 21
-9800.0
 31
0.0
  0
TEXT
  5
1F7
330
17
100
AcDbEntity
  8
09_РАЗМЕРЫ
100
AcDbText
 10
99000.00000000001
 20
-10600.0
 30
0.0
 40
600.0
  1
180
  7
ГОСТ
 72
1
 11
99000.00000000001
 21
-10600.0
 31
0.0
100
AcDbText
 73
2
  0
LINE
  5
1F8
330
17
100
AcDbEntity
  8
09_РАЗМЕРЫ
100
AcDbLine
 10
101750.00000000001
 20
-9200.0
 30
0.0
 11
101750.00000000001
 21
-9480.0
 31
0.0
  0
LINE
  5
1F9
330
17
100
AcDbEntity
  8
09_РАЗМЕРЫ
100
AcDbLine
 10
104500.00000000001
 20
-9200.0
 30
0.0
 11
104500.00000000001
 21
-9480.0
 31
0.0
  0
LINE
  5
1FA
330
17
100
AcDbEntity
  8
09_РАЗМЕРЫ
100
AcDbLine
 10
107250.00000000001
 20
-9200.0
 30
0.0
 11
107250.00000000001
 21
-9480.0
 31
0.0
  0
LINE
  5
1FB
330
17
100
AcDbEntity
  8
09_РАЗМЕРЫ
100
AcDbLine
 10
110000.00000000001
 20
-9200.0
 30
0.0
 11
110000.00000000001
 21
-9800.0
 31
0.0
  0
TEXT
  5
1FC
330
17
100
AcDbEntity
  8
09_РАЗМЕРЫ
100
AcDbText
 10
110000.00000000001
 20
-10600.0
 30
0.0
 40
600.0
  1
200
  7
ГОСТ
 72
1
 11
110000.00000000001
 21
-10600.0
 31
0.0
100
AcDbText
 73
2
  0
LINE
  5
1FD
330
17
100
AcDbEntity
  8
09_РАЗМЕРЫ
100
AcDbLine
 10
112750.00000000001
 20
-9200.0
 30
0.0
 11
112750.00000000001
 21
-9480.0
 31
0.0
  0
LINE
  5
1FE
330
17
100
AcDbEntity
  8
09_РАЗМЕРЫ
100
AcDbLine
 10
115500.00000000001
 20
-9200.0
 30
0.0
 11
115500.00000000001
 21
-9480.0
 31
0.0
  0
LINE
  5
1FF
330
17
100
AcDbEntity
  8
09_РАЗМЕРЫ
100
AcDbLine
 10
118250.00000000001
 20
-9200.0
 30
0.0
 11
118250.00000000001
 21
-9480.0
 31
0.0
  0
LINE
  5
200
330
17
100
AcDbEntity
  8
09_РАЗМЕРЫ
100
AcDbLine
 10
121000.00000000001
 20
-9200.0
 30
0.0
 11
121000.00000000001
 21
-9800.0
 31
0.0
  0
TEXT
  5
201
330
17
100
AcDbEntity
  8
09_РАЗМЕРЫ
100
AcDbText
 10
121000.00000000001
 20
-10600.0
 30
0.0
 40
600.0
  1
220
  7
ГОСТ
 72
1
 11
121000.00000000001
 21
-10600.0
 31
0.0
100
AcDbText
 73
2
  0
LINE
  5
202
330
17
100
AcDbEntity
  8
09_РАЗМЕРЫ
100
AcDbLine
 10
123750.00000000001
 20
-9200.0
 30
0.0
 11
123750.00000000001
 21
-9480.0
 31
0.0
  0
LINE
  5
203
330
17
100
AcDbEntity
  8
09_РАЗМЕРЫ
100
AcDbLine
 10
126500.00000000001
 20
-9200.0
 30
0.0
 11
126500.00000000001
 21
-9480.0
 31
0.0
  0
LINE
  5
204
330
17
100
AcDbEntity
  8
09_РАЗМЕРЫ
100
AcDbLine
 10
129250.0
 20
-9200.0
 30
0.0
 11
129250.0
 21
-9480.0
 31
0.0
  0
LINE
  5
205
330
17
100
AcDbEntity
  8
09_РАЗМЕРЫ
100
AcDbLine
 10
132000.0
 20
-9200.0
 30
0.0
 11
132000.0
 21
-9800.0
 31
0.0
  0
TEXT
  5
206
330
17
100
AcDbEntity
  8
09_РАЗМЕРЫ
100
AcDbText
 10
132000.0
 20
-10600.0
 30
0.0
 40
600.0
  1
240
  7
ГОСТ
 72
1
 11
132000.0
 21
-10600.0
 31
0.0
100
AcDbText
 73
2
  0
LINE
  5
207
330
17
100
AcDbEntity
  8
09_РАЗМЕРЫ
100
AcDbLine
 10
134750.0
 20
-9200.0
 30
0.0
 11
134750.0
 21
-9480.0
 31
0.0
  0
LINE
  5
208
330
17
100
AcDbEntity
  8
09_РАЗМЕРЫ
100
AcDbLine
 10
137500.0
 20
-9200.0
 30
0.0
 11
137500.0
 21
-9480.0
 31
0.0
  0
LINE
  5
209
330
17
100
AcDbEntity
  8
09_РАЗМЕРЫ
100
AcDbLine
 10
0.0
 20
-9200.0
 30
0.0
 11
139700.00000000003
 21
-9200.0
 31
0.0
  0
TEXT
  5
20A
330
17
100
AcDbEntity
  8
09_РАЗМЕРЫ
100
AcDbText
 10
144000.0
 20
-10600.0
 30
0.0
 40
600.0
  1
№ шп., шпация 550
  7
ГОСТ
 11
144000.0
 21
-10600.0
 31
0.0
100
AcDbText
 73
2
  0
LINE
  5
20B
330
17
100
AcDbEntity
  8
00_РАМКА
100
AcDbLine
 10
0.0
 20
-23200.0
 30
0.0
 11
58800.0
 21
-23200.0
 31
0.0
  0
TEXT
  5
20C
330
17
100
AcDbEntity
  8
08_ТЕКСТ
100
AcDbText
 10
300.0
 20
-23800.0
 30
0.0
 40
560.0
  1
№
  7
ГОСТ
 11
300.0
 21
-23800.0
 31
0.0
100
AcDbText
 73
2
  0
TEXT
  5
20D
330
17
100
AcDbEntity
  8
08_ТЕКСТ
100
AcDbText
 10
2700.0
 20
-23800.0
 30
0.0
 40
560.0
  1
Помещение
  7
ГОСТ
 11
2700.0
 21
-23800.0
 31
0.0
100
AcDbText
 73
2
  0
TEXT
  5
20E
330
17
100
AcDbEntity
  8
08_ТЕКСТ
100
AcDbText
 10
42700.0
 20
-23800.0
 30
0.0
 40
560.0
  1
Площадь, м²
  7
ГОСТ
 11
42700.0
 21
-23800.0
 31
0.0
100
AcDbText
 73
2
  0
TEXT
  5
20F
330
17
100
AcDbEntity
  8
08_ТЕКСТ
100
AcDbText
 10
47900.0
 20
-23800.0
 30
0.0
 40
560.0
  1
Шпангоуты
  7
ГОСТ
 11
47900.0
 21
-23800.0
 31
0.0
100
AcDbText
 73
2
  0
TEXT
  5
210
330
17
100
AcDbEntity
  8
08_ТЕКСТ
100
AcDbText
 10
53100.0
 20
-23800.0
 30
0.0
 40
560.0
  1
x, м
  7
ГОСТ
 11
53100.0
 21
-23800.0
 31
0.0
100
AcDbText
 73
2
  0
LINE
  5
211
330
17
100
AcDbEntity
  8
00_РАМКА
100
AcDbLine
 10
0.0
 20
-24400.0
 30
0.0
 11
58800.0
 21
-24400.0
 31
0.0
  0
TEXT
  5
212
330
17
100
AcDbEntity
  8
08_ТЕКСТ
100
AcDbText
 10
300.0
 20
-25000.0
 30
0.0
 40
500.0
  1
1
  7
ГОСТ
 11
300.0
 21
-25000.0
 31
0.0
100
AcDbText
 73
2
  0
TEXT
  5
213
330
17
100
AcDbEntity
  8
08_ТЕКСТ
100
AcDbText
 10
2700.0
 20
-25000.0
 30
0.0
 40
500.0
  1
Детский и подростковый клуб, творческая мастерская — выход на кормовую террасу-крышу
  7
ГОСТ
 11
2700.0
 21
-25000.0
 31
0.0
100
AcDbText
 73
2
  0
TEXT
  5
214
330
17
100
AcDbEntity
  8
08_ТЕКСТ
100
AcDbText
 10
42700.0
 20
-25000.0
 30
0.0
 40
500.0
  1
58
  7
ГОСТ
 11
42700.0
 21
-25000.0
 31
0.0
100
AcDbText
 73
2
  0
TEXT
  5
215
330
17
100
AcDbEntity
  8
08_ТЕКСТ
100
AcDbText
 10
47900.0
 20
-25000.0
 30
0.0
 40
500.0
  1
27…36
  7
ГОСТ
 11
47900.0
 21
-25000.0
 31
0.0
100
AcDbText
 73
2
  0
TEXT
  5
216
330
17
100
AcDbEntity
  8
08_ТЕКСТ
100
AcDbText
 10
53100.0
 20
-25000.0
 30
0.0
 40
500.0
  1
15.0…20.0
  7
ГОСТ
 11
53100.0
 21
-25000.0
 31
0.0
100
AcDbText
 73
2
  0
LINE
  5
217
330
17
100
AcDbEntity
  8
00_РАМКА
100
AcDbLine
 10
0.0
 20
-25600.0
 30
0.0
 11
58800.0
 21
-25600.0
 31
0.0
  0
TEXT
  5
218
330
17
100
AcDbEntity
  8
08_ТЕКСТ
100
AcDbText
 10
300.0
 20
-26200.0
 30
0.0
 40
500.0
  1
2
  7
ГОСТ
 11
300.0
 21
-26200.0
 31
0.0
100
AcDbText
 73
2
  0
TEXT
  5
219
330
17
100
AcDbEntity
  8
08_ТЕКСТ
100
AcDbText
 10
2700.0
 20
-26200.0
 30
0.0
 40
500.0
  1
Кормовой трап-холл, лифт — аварийный ДГ 150 кВт в выгородке ЛБ
  7
ГОСТ
 11
2700.0
 21
-26200.0
 31
0.0
100
AcDbText
 73
2
  0
TEXT
  5
21A
330
17
100
AcDbEntity
  8
08_ТЕКСТ
100
AcDbText
 10
42700.0
 20
-26200.0
 30
0.0
 40
500.0
  1
82
  7
ГОСТ
 11
42700.0
 21
-26200.0
 31
0.0
100
AcDbText
 73
2
  0
TEXT
  5
21B
330
17
100
AcDbEntity
  8
08_ТЕКСТ
100
AcDbText
 10
47900.0
 20
-26200.0
 30
0.0
 40
500.0
  1
36…47
  7
ГОСТ
 11
47900.0
 21
-26200.0
 31
0.0
100
AcDbText
 73
2
  0
TEXT
  5
21C
330
17
100
AcDbEntity
  8
08_ТЕКСТ
100
AcDbText
 10
53100.0
 20
-26200.0
 30
0.0
 40
500.0
  1
20.0…26.0
  7
ГОСТ
 11
53100.0
 21
-26200.0
 31
0.0
100
AcDbText
 73
2
  0
LINE
  5
21D
330
17
100
AcDbEntity
  8
00_РАМКА
100
AcDbLine
 10
0.0
 20
-26800.0
 30
0.0
 11
58800.0
 21
-26800.0
 31
0.0
  0
TEXT
  5
21E
330
17
100
AcDbEntity
  8
08_ТЕКСТ
100
AcDbText
 10
300.0
 20
-27400.0
 30
0.0
 40
500.0
  1
3
  7
ГОСТ
 11
300.0
 21
-27400.0
 31
0.0
100
AcDbText
 73
2
  0
TEXT
  5
21F
330
17
100
AcDbEntity
  8
08_ТЕКСТ
100
AcDbText
 10
2700.0
 20
-27400.0
 30
0.0
 40
500.0
  1
Каюты стандарт по бортам, семейные и эконом внутри
  7
ГОСТ
 11
2700.0
 21
-27400.0
 31
0.0
100
AcDbText
 73
2
  0
TEXT
  5
220
330
17
100
AcDbEntity
  8
08_ТЕКСТ
100
AcDbText
 10
42700.0
 20
-27400.0
 30
0.0
 40
500.0
  1
441
  7
ГОСТ
 11
42700.0
 21
-27400.0
 31
0.0
100
AcDbText
 73
2
  0
TEXT
  5
221
330
17
100
AcDbEntity
  8
08_ТЕКСТ
100
AcDbText
 10
47900.0
 20
-27400.0
 30
0.0
 40
500.0
  1
47…105
  7
ГОСТ
 11
47900.0
 21
-27400.0
 31
0.0
100
AcDbText
 73
2
  0
TEXT
  5
222
330
17
100
AcDbEntity
  8
08_ТЕКСТ
100
AcDbText
 10
53100.0
 20
-27400.0
 30
0.0
 40
500.0
  1
26.0…58.0
  7
ГОСТ
 11
53100.0
 21
-27400.0
 31
0.0
100
AcDbText
 73
2
  0
LINE
  5
223
330
17
100
AcDbEntity
  8
00_РАМКА
100
AcDbLine
 10
0.0
 20
-28000.0
 30
0.0
 11
58800.0
 21
-28000.0
 31
0.0
  0
TEXT
  5
224
330
17
100
AcDbEntity
  8
08_ТЕКСТ
100
AcDbText
 10
300.0
 20
-28600.0
 30
0.0
 40
500.0
  1
4
  7
ГОСТ
 11
300.0
 21
-28600.0
 31
0.0
100
AcDbText
 73
2
  0
TEXT
  5
225
330
17
100
AcDbEntity
  8
08_ТЕКСТ
100
AcDbText
 10
2700.0
 20
-28600.0
 30
0.0
 40
500.0
  1
Верхний ярус атриума: галереи, бар-лаунж, фитнес ПБ — витражи в щеках кожухов — вид на колёса
  7
ГОСТ
 11
2700.0
 21
-28600.0
 31
0.0
100
AcDbText
 73
2
  0
TEXT
  5
226
330
17
100
AcDbEntity
  8
08_ТЕКСТ
100
AcDbText
 10
42700.0
 20
-28600.0
 30
0.0
 40
500.0
  1
213
  7
ГОСТ
 11
42700.0
 21
-28600.0
 31
0.0
100
AcDbText
 73
2
  0
TEXT
  5
227
330
17
100
AcDbEntity
  8
08_ТЕКСТ
100
AcDbText
 10
47900.0
 20
-28600.0
 30
0.0
 40
500.0
  1
105…135
  7
ГОСТ
 11
47900.0
 21
-28600.0
 31
0.0
100
AcDbText
 73
2
  0
TEXT
  5
228
330
17
100
AcDbEntity
  8
08_ТЕКСТ
100
AcDbText
 10
53100.0
 20
-28600.0
 30
0.0
 40
500.0
  1
58.0…74.0
  7
ГОСТ
 11
53100.0
 21
-28600.0
 31
0.0
100
AcDbText
 73
2
  0
LINE
  5
229
330
17
100
AcDbEntity
  8
00_РАМКА
100
AcDbLine
 10
0.0
 20
-29200.0
 30
0.0
 11
58800.0
 21
-29200.0
 31
0.0
  0
TEXT
  5
22A
330
17
100
AcDbEntity
  8
08_ТЕКСТ
100
AcDbText
 10
300.0
 20
-29800.0
 30
0.0
 40
500.0
  1
5
  7
ГОСТ
 11
300.0
 21
-29800.0
 31
0.0
100
AcDbText
 73
2
  0
TEXT
  5
22B
330
17
100
AcDbEntity
  8
08_ТЕКСТ
100
AcDbText
 10
2700.0
 20
-29800.0
 30
0.0
 40
500.0
  1
Каюты люкс и бизнес по бортам, семейные и эконом внутри
  7
ГОСТ
 11
2700.0
 21
-29800.0
 31
0.0
100
AcDbText
 73
2
  0
TEXT
  5
22C
330
17
100
AcDbEntity
  8
08_ТЕКСТ
100
AcDbText
 10
42700.0
 20
-29800.0
 30
0.0
 40
500.0
  1
464
  7
ГОСТ
 11
42700.0
 21
-29800.0
 31
0.0
100
AcDbText
 73
2
  0
TEXT
  5
22D
330
17
100
AcDbEntity
  8
08_ТЕКСТ
100
AcDbText
 10
47900.0
 20
-29800.0
 30
0.0
 40
500.0
  1
135…196
  7
ГОСТ
 11
47900.0
 21
-29800.0
 31
0.0
100
AcDbText
 73
2
  0
TEXT
  5
22E
330
17
100
AcDbEntity
  8
08_ТЕКСТ
100
AcDbText
 10
53100.0
 20
-29800.0
 30
0.0
 40
500.0
  1
74.0…108.0
  7
ГОСТ
 11
53100.0
 21
-29800.0
 31
0.0
100
AcDbText
 73
2
  0
LINE
  5
22F
330
17
100
AcDbEntity
  8
00_РАМКА
100
AcDbLine
 10
0.0
 20
-30400.0
 30
0.0
 11
58800.0
 21
-30400.0
 31
0.0
  0
TEXT
  5
230
330
17
100
AcDbEntity
  8
08_ТЕКСТ
100
AcDbText
 10
300.0
 20
-31000.0
 30
0.0
 40
500.0
  1
6
  7
ГОСТ
 11
300.0
 21
-31000.0
 31
0.0
100
AcDbText
 73
2
  0
TEXT
  5
231
330
17
100
AcDbEntity
  8
08_ТЕКСТ
100
AcDbText
 10
2700.0
 20
-31000.0
 30
0.0
 40
500.0
  1
Носовой трап-холл, лифт
  7
ГОСТ
 11
2700.0
 21
-31000.0
 31
0.0
100
AcDbText
 73
2
  0
TEXT
  5
232
330
17
100
AcDbEntity
  8
08_ТЕКСТ
100
AcDbText
 10
42700.0
 20
-31000.0
 30
0.0
 40
500.0
  1
61
  7
ГОСТ
 11
42700.0
 21
-31000.0
 31
0.0
100
AcDbText
 73
2
  0
TEXT
  5
233
330
17
100
AcDbEntity
  8
08_ТЕКСТ
100
AcDbText
 10
47900.0
 20
-31000.0
 30
0.0
 40
500.0
  1
196…207
  7
ГОСТ
 11
47900.0
 21
-31000.0
 31
0.0
100
AcDbText
 73
2
  0
TEXT
  5
234
330
17
100
AcDbEntity
  8
08_ТЕКСТ
100
AcDbText
 10
53100.0
 20
-31000.0
 30
0.0
 40
500.0
  1
108.0…114.0
  7
ГОСТ
 11
53100.0
 21
-31000.0
 31
0.0
100
AcDbText
 73
2
  0
LINE
  5
235
330
17
100
AcDbEntity
  8
00_РАМКА
100
AcDbLine
 10
0.0
 20
-31600.0
 30
0.0
 11
58800.0
 21
-31600.0
 31
0.0
  0
TEXT
  5
236
330
17
100
AcDbEntity
  8
08_ТЕКСТ
100
AcDbText
 10
300.0
 20
-32200.0
 30
0.0
 40
500.0
  1
7
  7
ГОСТ
 11
300.0
 21
-32200.0
 31
0.0
100
AcDbText
 73
2
  0
TEXT
  5
237
330
17
100
AcDbEntity
  8
08_ТЕКСТ
100
AcDbText
 10
2700.0
 20
-32200.0
 30
0.0
 40
500.0
  1
Спа: сауна, хаммам, процедурные
  7
ГОСТ
 11
2700.0
 21
-32200.0
 31
0.0
100
AcDbText
 73
2
  0
TEXT
  5
238
330
17
100
AcDbEntity
  8
08_ТЕКСТ
100
AcDbText
 10
42700.0
 20
-32200.0
 30
0.0
 40
500.0
  1
19
  7
ГОСТ
 11
42700.0
 21
-32200.0
 31
0.0
100
AcDbText
 73
2
  0
TEXT
  5
239
330
17
100
AcDbEntity
  8
08_ТЕКСТ
100
AcDbText
 10
47900.0
 20
-32200.0
 30
0.0
 40
500.0
  1
207…215
  7
ГОСТ
 11
47900.0
 21
-32200.0
 31
0.0
100
AcDbText
 73
2
  0
TEXT
  5
23A
330
17
100
AcDbEntity
  8
08_ТЕКСТ
100
AcDbText
 10
53100.0
 20
-32200.0
 30
0.0
 40
500.0
  1
114.0…118.0
  7
ГОСТ
 11
53100.0
 21
-32200.0
 31
0.0
100
AcDbText
 73
2
  0
LINE
  5
23B
330
17
100
AcDbEntity
  8
00_РАМКА
100
AcDbLine
 10
0.0
 20
-32800.0
 30
0.0
 11
58800.0
 21
-32800.0
 31
0.0
  0
LINE
  5
23C
330
17
100
AcDbEntity
  8
00_РАМКА
100
AcDbLine
 10
0.0
 20
-23200.0
 30
0.0
 11
0.0
 21
-32800.0
 31
0.0
  0
LINE
  5
23D
330
17
100
AcDbEntity
  8
00_РАМКА
100
AcDbLine
 10
2400.0
 20
-23200.0
 30
0.0
 11
2400.0
 21
-32800.0
 31
0.0
  0
LINE
  5
23E
330
17
100
AcDbEntity
  8
00_РАМКА
100
AcDbLine
 10
42400.0
 20
-23200.0
 30
0.0
 11
42400.0
 21
-32800.0
 31
0.0
  0
LINE
  5
23F
330
17
100
AcDbEntity
  8
00_РАМКА
100
AcDbLine
 10
47600.0
 20
-23200.0
 30
0.0
 11
47600.0
 21
-32800.0
 31
0.0
  0
LINE
  5
240
330
17
100
AcDbEntity
  8
00_РАМКА
100
AcDbLine
 10
52800.0
 20
-23200.0
 30
0.0
 11
52800.0
 21
-32800.0
 31
0.0
  0
LINE
  5
241
330
17
100
AcDbEntity
  8
00_РАМКА
100
AcDbLine
 10
58800.0
 20
-23200.0
 30
0.0
 11
58800.0
 21
-32800.0
 31
0.0
  0
LWPOLYLINE
  5
242
330
17
100
AcDbEntity
  8
00_РАМКА
100
AcDbPolyline
 90
4
 70
1
 10
-12100.0
 20
-69700.0
 10
156100.0
 20
-69700.0
 10
156100.0
 20
49100.0
 10
-12100.0
 20
49100.0
  0
LWPOLYLINE
  5
243
330
17
100
AcDbEntity
  8
00_РАМКА
100
AcDbPolyline
 90
4
 70
1
 10
-8100.0
 20
-68700.0
 10
155100.0
 20
-68700.0
 10
155100.0
 20
48100.0
 10
-8100.0
 20
48100.0
  0
LWPOLYLINE
  5
244
330
17
100
AcDbEntity
  8
00_РАМКА
100
AcDbPolyline
 90
4
 70
1
 10
118100.0
 20
-68700.0
 10
155100.0
 20
-68700.0
 10
155100.0
 20
-57700.0
 10
118100.0
 20
-57700.0
  0
LINE
  5
245
330
17
100
AcDbEntity
  8
00_РАМКА
100
AcDbLine
 10
118100.0
 20
-66300.0
 30
0.0
 11
155100.0
 21
-66300.0
 31
0.0
  0
LINE
  5
246
330
17
100
AcDbEntity
  8
00_РАМКА
100
AcDbLine
 10
118100.0
 20
-63900.0
 30
0.0
 11
155100.0
 21
-63900.0
 31
0.0
  0
LINE
  5
247
330
17
100
AcDbEntity
  8
00_РАМКА
100
AcDbLine
 10
118100.0
 20
-61500.0
 30
0.0
 11
155100.0
 21
-61500.0
 31
0.0
  0
LINE
  5
248
330
17
100
AcDbEntity
  8
00_РАМКА
100
AcDbLine
 10
142100.0
 20
-68700.0
 30
0.0
 11
142100.0
 21
-61500.0
 31
0.0
  0
TEXT
  5
249
330
17
100
AcDbEntity
  8
08_ТЕКСТ
100
AcDbText
 10
118700.0
 20
-59600.0
 30
0.0
 40
1000.0
  1
Общее расположение. Средняя палуба
  7
ГОСТ
 11
118700.0
 21
-59600.0
 31
0.0
100
AcDbText
 73
2
  0
TEXT
  5
24A
330
17
100
AcDbEntity
  8
08_ТЕКСТ
100
AcDbText
 10
118700.0
 20
-62140.0
 30
0.0
 40
500.0
  1
Волжский Горизонт · L = 140.0 м · B = 16.5 м · T = 1.26 м ·
  7
ГОСТ
 11
118700.0
 21
-62140.0
 31
0.0
100
AcDbText
 73
2
  0
TEXT
  5
24B
330
17
100
AcDbEntity
  8
08_ТЕКСТ
100
AcDbText
 10
118700.0
 20
-63260.0
 30
0.0
 40
500.0
  1
208 пасс.
  7
ГОСТ
 11
118700.0
 21
-63260.0
 31
0.0
100
AcDbText
 73
2
  0
TEXT
  5
24C
330
17
100
AcDbEntity
  8
08_ТЕКСТ
100
AcDbText
 10
118700.0
 20
-65100.0
 30
0.0
 40
900.0
  1
ВГ-2026 ОР-02 средняя палуба
  7
ГОСТ
 11
118700.0
 21
-65100.0
 31
0.0
100
AcDbText
 73
2
  0
TEXT
  5
24D
330
17
100
AcDbEntity
  8
08_ТЕКСТ
100
AcDbText
 10
142700.0
 20
-65100.0
 30
0.0
 40
700.0
  1
Масштаб 1 : 200
  7
ГОСТ
 11
142700.0
 21
-65100.0
 31
0.0
100
AcDbText
 73
2
  0
TEXT
  5
24E
330
17
100
AcDbEntity
  8
08_ТЕКСТ
100
AcDbText
 10
118700.0
 20
-67500.0
 30
0.0
 40
500.0
  1
Корпус сталь D36; надстройка АМг5
  7
ГОСТ
 11
118700.0
 21
-67500.0
 31
0.0
100
AcDbText
 73
2
  0
TEXT
  5
24F
330
17
100
AcDbEntity
  8
08_ТЕКСТ
100
AcDbText
 10
142700.0
 20
-67500.0
 30
0.0
 40
600.0
  1
Формат A1
  7
ГОСТ
 11
142700.0
 21
-67500.0
 31
0.0
100
AcDbText
 73
2
  0
TEXT
  5
250
330
17
100
AcDbEntity
  8
08_ТЕКСТ
100
AcDbText
 10
118700.0
 20
-56900.0
 30
0.0
 40
600.0
  1
УЖЦ ОСК 2026 · «Волжский Горизонт» · ПБ «Без границ»
  7
ГОСТ
 11
118700.0
 21
-56900.0
 31
0.0
100
AcDbText
 73
2
  0
TEXT
  5
251
330
17
100
AcDbEntity
  8
08_ТЕКСТ
100
AcDbText
 10
118700.0
 20
-51500.0
 30
0.0
 40
500.0
  1
1. Уровень палубы z = 5.80 м от основной плоскости. Кают на палубе — 48.
  7
ГОСТ
 11
118700.0
 21
-51500.0
 31
0.0
100
AcDbText
 73
2
  0
TEXT
  5
252
330
17
100
AcDbEntity
  8
08_ТЕКСТ
100
AcDbText
 10
118700.0
 20
-52500.0
 30
0.0
 40
500.0
  1
2. Размеры в миллиметрах, ось x — от кормового перпендикуляра, шпация практическая 550 мм.
  7
ГОСТ
 11
118700.0
 21
-52500.0
 31
0.0
100
AcDbText
 73
2
  0
TEXT
  5
253
330
17
100
AcDbEntity
  8
08_ТЕКСТ
100
AcDbText
 10
118700.0
 20
-53500.0
 30
0.0
 40
500.0
  1
3. Красные линии — водонепроницаемые переборки трюма; тонкие — границы зон.
  7
ГОСТ
 11
118700.0
 21
-53500.0
 31
0.0
100
AcDbText
 73
2
  0
TEXT
  5
254
330
17
100
AcDbEntity
  8
08_ТЕКСТ
100
AcDbText
 10
118700.0
 20
-54500.0
 30
0.0
 40
500.0
  1
4. Коридоры 1.30 м в свету, бортовой проход главной палубы 1.00 м, двери кают 0,70 (М4 — 0,90) м.
  7
ГОСТ
 11
118700.0
 21
-54500.0
 31
0.0
100
AcDbText
 73
2
  0
TEXT
  5
255
330
17
100
AcDbEntity
  8
08_ТЕКСТ
100
AcDbText
 10
118700.0
 20
-55500.0
 30
0.0
 40
500.0
  1
5. Коды кают: Э эконом, С стандарт, Б бизнес, Л люкс, Сем семейная, Эк экипаж; М4 — доступная.
  7
ГОСТ
 11
118700.0
 21
-55500.0
 31
0.0
100
AcDbText
 73
2
  0
TEXT
  5
256
330
17
100
AcDbEntity
  8
08_ТЕКСТ
100
AcDbText
 10
118700.0
 20
-50200.0
 30
0.0
 40
700.0
  1
Технические требования
  7
ГОСТ
 11
118700.0
 21
-50200.0
 31
0.0
100
AcDbText
 73
2
  0
ENDSEC
  0
SECTION
  2
OBJECTS
  0
DICTIONARY
  5
A
330
0
100
AcDbDictionary
281
1
  3
ACAD_COLOR
350
B
  3
ACAD_GROUP
350
C
  3
ACAD_LAYOUT
350
D
  3
ACAD_MATERIAL
350
E
  3
ACAD_MLEADERSTYLE
350
F
  3
ACAD_MLINESTYLE
350
10
  3
ACAD_PLOTSETTINGS
350
11
  3
ACAD_PLOTSTYLENAME
350
12
  3
ACAD_SCALELIST
350
14
  3
ACAD_TABLESTYLE
350
15
  3
ACAD_VISUALSTYLE
350
16
  3
EZDXF_META
350
2D
  0
DICTIONARY
  5
B
330
A
100
AcDbDictionary
281
1
  0
DICTIONARY
  5
C
330
A
100
AcDbDictionary
281
1
  0
DICTIONARY
  5
D
330
A
100
AcDbDictionary
281
1
  3
Model
350
1A
  3
Layout1
350
1E
  0
DICTIONARY
  5
E
330
A
100
AcDbDictionary
281
1
  3
ByBlock
350
1F
  3
ByLayer
350
20
  3
Global
350
21
  0
DICTIONARY
  5
F
330
A
100
AcDbDictionary
281
1
  3
Standard
350
2C
  0
DICTIONARY
  5
10
330
A
100
AcDbDictionary
281
1
  3
Standard
350
22
  0
DICTIONARY
  5
11
330
A
100
AcDbDictionary
281
1
  0
ACDBDICTIONARYWDFLT
  5
12
330
A
100
AcDbDictionary
281
1
  3
Normal
350
13
100
AcDbDictionaryWithDefault
340
13
  0
ACDBPLACEHOLDER
  5
13
330
12
  0
DICTIONARY
  5
14
330
A
100
AcDbDictionary
281
1
  0
DICTIONARY
  5
15
330
A
100
AcDbDictionary
281
1
  0
DICTIONARY
  5
16
330
A
100
AcDbDictionary
281
1
  3
2dWireframe
350
5A
  3
Basic
350
5B
  3
Brighten
350
5C
  3
ColorChange
350
5D
  3
Conceptual
350
5E
  3
Dim
350
5F
  3
EdgeColorOff
350
60
  3
Facepattern
350
61
  3
Flat
350
62
  3
FlatWithEdges
350
63
  3
Gouraud
350
64
  3
GouraudWithEdges
350
65
  3
Hidden
350
66
  3
JitterOff
350
67
  3
Linepattern
350
68
  3
Modeling
350
69
  3
OverhangOff
350
6A
  3
Realistic
350
6B
  3
Shaded
350
6C
  3
Shaded with edges
350
6D
  3
Shades of Gray
350
6E
  3
Sketchy
350
6F
  3
Thicken
350
70
  3
Wireframe
350
71
  3
X-Ray
350
72
  0
LAYOUT
  5
1A
330
D
100
AcDbPlotSettings
  1

  4
A3
  6

 40
7.5
 41
20.0
 42
7.5
 43
20.0
 44
420.0
 45
297.0
 46
0.0
 47
0.0
 48
0.0
 49
0.0
140
0.0
141
0.0
142
1.0
143
1.0
 70
1024
 72
1
 73
0
 74
5
  7

 75
16
 76
0
 77
2
 78
300
147
1.0
148
0.0
149
0.0
100
AcDbLayout
  1
Model
 70
1
 71
0
 10
0.0
 20
0.0
 11
420.0
 21
297.0
 12
0.0
 22
0.0
 32
0.0
 14
1e+20
 24
1e+20
 34
1e+20
 15
-1e+20
 25
-1e+20
 35
-1e+20
146
0.0
 13
0.0
 23
0.0
 33
0.0
 16
1.0
 26
0.0
 36
0.0
 17
0.0
 27
1.0
 37
0.0
 76
1
330
17
  0
LAYOUT
  5
1E
330
D
100
AcDbPlotSettings
  1

  4
A3
  6

 40
7.5
 41
20.0
 42
7.5
 43
20.0
 44
420.0
 45
297.0
 46
0.0
 47
0.0
 48
0.0
 49
0.0
140
0.0
141
0.0
142
1.0
143
1.0
 70
0
 72
1
 73
0
 74
5
  7

 75
16
 76
0
 77
2
 78
300
147
1.0
148
0.0
149
0.0
100
AcDbLayout
  1
Layout1
 70
1
 71
1
 10
0.0
 20
0.0
 11
420.0
 21
297.0
 12
0.0
 22
0.0
 32
0.0
 14
1e+20
 24
1e+20
 34
1e+20
 15
-1e+20
 25
-1e+20
 35
-1e+20
146
0.0
 13
0.0
 23
0.0
 33
0.0
 16
1.0
 26
0.0
 36
0.0
 17
0.0
 27
1.0
 37
0.0
 76
1
330
1B
  0
MATERIAL
  5
1F
102
{ACAD_REACTORS
330
E
102
}
330
E
100
AcDbMaterial
  1
ByBlock
  2

 70
0
 40
1.0
 71
1
 41
1.0
 91
-1023410177
 42
1.0
 72
1
  3

 73
1
 74
1
 75
1
 44
0.5
 73
0
 45
1.0
 46
1.0
 77
1
  4

 78
1
 79
1
170
1
 48
1.0
171
1
  6

172
1
173
1
174
1
140
1.0
141
1.0
175
1
  7

176
1
177
1
178
1
143
1.0
179
1
  8

270
1
271
1
272
1
145
1.0
146
1.0
273
1
  9

274
1
275
1
276
1
 42
1.0
 72
1
  3

 73
1
 74
1
 75
1
 94
63
  0
MATERIAL
  5
20
102
{ACAD_REACTORS
330
E
102
}
330
E
100
AcDbMaterial
  1
ByLayer
  2

 70
0
 40
1.0
 71
1
 41
1.0
 91
-1023410177
 42
1.0
 72
1
  3

 73
1
 74
1
 75
1
 44
0.5
 73
0
 45
1.0
 46
1.0
 77
1
  4

 78
1
 79
1
170
1
 48
1.0
171
1
  6

172
1
173
1
174
1
140
1.0
141
1.0
175
1
  7

176
1
177
1
178
1
143
1.0
179
1
  8

270
1
271
1
272
1
145
1.0
146
1.0
273
1
  9

274
1
275
1
276
1
 42
1.0
 72
1
  3

 73
1
 74
1
 75
1
 94
63
  0
MATERIAL
  5
21
102
{ACAD_REACTORS
330
E
102
}
330
E
100
AcDbMaterial
  1
Global
  2

 70
0
 40
1.0
 71
1
 41
1.0
 91
-1023410177
 42
1.0
 72
1
  3

 73
1
 74
1
 75
1
 44
0.5
 73
0
 45
1.0
 46
1.0
 77
1
  4

 78
1
 79
1
170
1
 48
1.0
171
1
  6

172
1
173
1
174
1
140
1.0
141
1.0
175
1
  7

176
1
177
1
178
1
143
1.0
179
1
  8

270
1
271
1
272
1
145
1.0
146
1.0
273
1
  9

274
1
275
1
276
1
 42
1.0
 72
1
  3

 73
1
 74
1
 75
1
 94
63
  0
MLINESTYLE
  5
22
102
{ACAD_REACTORS
330
10
102
}
330
10
100
AcDbMlineStyle
  2
Standard
 70
0
  3

 62
256
 51
90.0
 52
90.0
 71
2
 49
0.5
 62
256
  6
BYLAYER
 49
-0.5
 62
256
  6
BYLAYER
  0
MLEADERSTYLE
  5
2C
102
{ACAD_REACTORS
330
F
102
}
330
F
100
AcDbMLeaderStyle
179
2
170
2
171
1
172
0
 90
2
 40
0.0
 41
0.0
173
1
 91
-1056964608
 92
-2
290
1
 42
2.0
291
1
 43
8.0
  3
Standard
 44
4.0
300

342
29
174
1
175
1
176
0
178
1
 93
-1056964608
 45
4.0
292
0
297
0
 46
4.0
 94
-1056964608
 47
1.0
 49
1.0
140
1.0
294
1
141
0.0
177
0
142
1.0
295
0
296
0
143
3.75
271
0
272
9
273
9
  0
DICTIONARY
  5
2D
330
A
100
AcDbDictionary
280
1
281
1
  3
CREATED_BY_EZDXF
350
2E
  3
WRITTEN_BY_EZDXF
350
259
  0
DICTIONARYVAR
  5
2E
330
2D
100
DictionaryVariables
280
0
  1
1.4.4 @ 2026-09-23T10:34:09.246335+00:00
  0
VISUALSTYLE
  5
5A
102
{ACAD_REACTORS
330
16
102
}
330
16
100
AcDbVisualStyle
  2
2dWireframe
 70
4
177
3
291
0
 70
58
 90
2
176
1
 90
2
176
1
 90
0
176
1
 90
0
176
1
 40
0.6
176
1
 40
30.0
176
1
 62
7
420
16777215
176
1
 90
1
176
1
 90
4
176
1
 62
7
176
1
 62
257
176
1
 90
1
176
1
 90
1
176
1
 40
1.0
176
1
 90
8
176
1
 62
7
176
1
 40
1.0
176
1
 90
1
176
1
 90
6
176
1
 90
2
176
1
 62
7
176
1
 90
5
176
1
 90
0
176
1
 90
0
176
1
290
0
176
1
 90
1
176
1
 40
0.0
176
1
 90
0
176
1
290
1
176
1
290
1
176
1
290
0
176
1
290
0
176
1
290
0
176
1
290
0
176
1
290
0
176
1
290
0
176
1
290
0
176
1
 90
50
176
1
 40
0.0
176
1
 40
1.0
176
1
 90
0
176
1
 62
18
420
0
176
1
 90
50
176
1
 90
3
176
1
 62
5
420
255
176
1
290
0
176
1
 90
50
176
1
 90
50
176
1
 90
50
176
1
290
0
176
1
 90
50
176
1
 62
256
176
0
 40
1.0
176
0
 90
2
176
1
  1
strokes_ogs.tif
176
1
290
0
176
1
 40
1.0
176
1
 40
1.0
176
1
  0
VISUALSTYLE
  5
5B
102
{ACAD_REACTORS
330
16
102
}
330
16
100
AcDbVisualStyle
  2
Basic
 70
7
177
3
291
1
 70
58
 90
2
176
1
 90
2
176
1
 90
0
176
1
 90
1
176
1
 40
0.6
176
1
 40
30.0
176
1
 62
7
420
16777215
176
1
 90
1
176
1
 90
4
176
1
 62
7
176
1
 62
257
176
1
 90
1
176
1
 90
1
176
1
 40
1.0
176
1
 90
8
176
1
 62
7
176
1
 40
1.0
176
1
 90
1
176
1
 90
6
176
1
 90
2
176
1
 62
7
176
1
 90
5
176
1
 90
0
176
1
 90
0
176
1
290
0
176
1
 90
1
176
1
 40
0.0
176
1
 90
0
176
1
290
0
176
1
290
1
176
1
290
1
176
1
290
0
176
1
290
0
176
1
290
0
176
1
290
0
176
1
290
0
176
1
290
0
176
1
 90
50
176
1
 40
0.0
176
1
 40
1.0
176
1
 90
0
176
1
 62
18
420
0
176
1
 90
50
176
1
 90
3
176
1
 62
5
420
255
176
1
290
0
176
1
 90
50
176
1
 90
50
176
1
 90
50
176
1
290
0
176
1
 90
50
176
1
 62
256
176
0
 40
1.0
176
0
 90
2
176
1
  1
strokes_ogs.tif
176
1
290
0
176
1
 40
1.0
176
1
 40
1.0
176
1
  0
VISUALSTYLE
  5
5C
102
{ACAD_REACTORS
330
16
102
}
330
16
100
AcDbVisualStyle
  2
Brighten
 70
12
177
3
291
1
 70
58
 90
2
176
1
 90
2
176
1
 90
0
176
1
 90
2
176
1
 40
0.6
176
1
 40
30.0
176
1
 62
7
420
16777215
176
1
 90
1
176
1
 90
4
176
1
 62
7
176
1
 62
257
176
1
 90
1
176
1
 90
1
176
1
 40
1.0
176
1
 90
8
176
1
 62
7
176
1
 40
1.0
176
1
 90
1
176
1
 90
6
176
1
 90
2
176
1
 62
7
176
1
 90
5
176
1
 90
0
176
1
 90
0
176
1
290
0
176
1
 90
1
176
1
 40
0.0
176
1
 90
0
176
1
290
0
176
1
290
1
176
1
290
1
176
1
290
0
176
1
290
0
176
1
290
0
176
1
290
0
176
1
290
0
176
1
290
0
176
1
 90
50
176
1
 40
0.0
176
1
 40
1.0
176
1
 90
0
176
1
 62
18
420
0
176
1
 90
50
176
1
 90
3
176
1
 62
5
420
255
176
1
290
0
176
1
 90
50
176
1
 90
50
176
1
 90
50
176
1
290
0
176
1
 90
50
176
1
 62
256
176
0
 40
1.0
176
0
 90
2
176
1
  1
strokes_ogs.tif
176
1
290
0
176
1
 40
1.0
176
1
 40
1.0
176
1
  0
VISUALSTYLE
  5
5D
102
{ACAD_REACTORS
330
16
102
}
330
16
100
AcDbVisualStyle
  2
ColorChange
 70
16
177
3
291
1
 70
58
 90
2
176
1
 90
2
176
1
 90
0
176
1
 90
2
176
1
 40
0.6
176
1
 40
30.0
176
1
 62
7
420
16777215
176
1
 90
1
176
1
 90
4
176
1
 62
7
176
1
 62
257
176
1
 90
1
176
1
 90
1
176
1
 40
1.0
176
1
 90
8
176
1
 62
7
176
1
 40
1.0
176
1
 90
1
176
1
 90
6
176
1
 90
2
176
1
 62
7
176
1
 90
5
176
1
 90
0
176
1
 90
0
176
1
290
0
176
1
 90
1
176
1
 40
0.0
176
1
 90
0
176
1
290
0
176
1
290
1
176
1
290
1
176
1
290
0
176
1
290
0
176
1
290
0
176
1
290
0
176
1
290
0
176
1
290
0
176
1
 90
50
176
1
 40
0.0
176
1
 40
1.0
176
1
 90
0
176
1
 62
18
420
0
176
1
 90
50
176
1
 90
3
176
1
 62
5
420
255
176
1
290
0
176
1
 90
50
176
1
 90
50
176
1
 90
50
176
1
290
0
176
1
 90
50
176
1
 62
256
176
0
 40
1.0
176
0
 90
2
176
1
  1
strokes_ogs.tif
176
1
290
0
176
1
 40
1.0
176
1
 40
1.0
176
1
  0
VISUALSTYLE
  5
5E
102
{ACAD_REACTORS
330
16
102
}
330
16
100
AcDbVisualStyle
  2
Conceptual
 70
9
177
3
291
0
 70
58
 90
2
176
1
 90
2
176
1
 90
0
176
1
 90
3
176
1
 40
0.6
176
1
 40
30.0
176
1
 62
7
420
16777215
176
1
 90
1
176
1
 90
4
176
1
 62
7
176
1
 62
257
176
1
 90
1
176
1
 90
1
176
1
 40
1.0
176
1
 90
8
176
1
 62
7
176
1
 40
1.0
176
1
 90
1
176
1
 90
6
176
1
 90
2
176
1
 62
7
176
1
 90
5
176
1
 90
0
176
1
 90
0
176
1
290
0
176
1
 90
1
176
1
 40
0.0
176
1
 90
0
176
1
290
0
176
1
290
1
176
1
290
1
176
1
290
0
176
1
290
0
176
1
290
0
176
1
290
0
176
1
290
0
176
1
290
0
176
1
 90
50
176
1
 40
0.0
176
1
 40
1.0
176
1
 90
0
176
1
 62
18
420
0
176
1
 90
50
176
1
 90
3
176
1
 62
5
420
255
176
1
290
0
176
1
 90
50
176
1
 90
50
176
1
 90
50
176
1
290
0
176
1
 90
50
176
1
 62
256
176
0
 40
1.0
176
0
 90
2
176
1
  1
strokes_ogs.tif
176
1
290
0
176
1
 40
1.0
176
1
 40
1.0
176
1
  0
VISUALSTYLE
  5
5F
102
{ACAD_REACTORS
330
16
102
}
330
16
100
AcDbVisualStyle
  2
Dim
 70
11
177
3
291
1
 70
58
 90
2
176
1
 90
2
176
1
 90
0
176
1
 90
2
176
1
 40
0.6
176
1
 40
30.0
176
1
 62
7
420
16777215
176
1
 90
1
176
1
 90
4
176
1
 62
7
176
1
 62
257
176
1
 90
1
176
1
 90
1
176
1
 40
1.0
176
1
 90
8
176
1
 62
7
176
1
 40
1.0
176
1
 90
1
176
1
 90
6
176
1
 90
2
176
1
 62
7
176
1
 90
5
176
1
 90
0
176
1
 90
0
176
1
290
0
176
1
 90
1
176
1
 40
0.0
176
1
 90
0
176
1
290
0
176
1
290
1
176
1
290
1
176
1
290
0
176
1
290
0
176
1
290
0
176
1
290
0
176
1
290
0
176
1
290
0
176
1
 90
50
176
1
 40
0.0
176
1
 40
1.0
176
1
 90
0
176
1
 62
18
420
0
176
1
 90
50
176
1
 90
3
176
1
 62
5
420
255
176
1
290
0
176
1
 90
50
176
1
 90
50
176
1
 90
50
176
1
290
0
176
1
 90
50
176
1
 62
256
176
0
 40
1.0
176
0
 90
2
176
1
  1
strokes_ogs.tif
176
1
290
0
176
1
 40
1.0
176
1
 40
1.0
176
1
  0
VISUALSTYLE
  5
60
102
{ACAD_REACTORS
330
16
102
}
330
16
100
AcDbVisualStyle
  2
EdgeColorOff
 70
22
177
3
291
1
 70
58
 90
2
176
1
 90
2
176
1
 90
0
176
1
 90
2
176
1
 40
0.6
176
1
 40
30.0
176
1
 62
7
420
16777215
176
1
 90
1
176
1
 90
4
176
1
 62
7
176
1
 62
257
176
1
 90
1
176
1
 90
1
176
1
 40
1.0
176
1
 90
8
176
1
 62
7
176
1
 40
1.0
176
1
 90
1
176
1
 90
6
176
1
 90
2
176
1
 62
7
176
1
 90
5
176
1
 90
0
176
1
 90
0
176
1
290
0
176
1
 90
1
176
1
 40
0.0
176
1
 90
0
176
1
290
0
176
1
290
1
176
1
290
1
176
1
290
0
176
1
290
0
176
1
290
0
176
1
290
0
176
1
290
0
176
1
290
0
176
1
 90
50
176
1
 40
0.0
176
1
 40
1.0
176
1
 90
0
176
1
 62
18
420
0
176
1
 90
50
176
1
 90
3
176
1
 62
5
420
255
176
1
290
0
176
1
 90
50
176
1
 90
50
176
1
 90
50
176
1
290
0
176
1
 90
50
176
1
 62
256
176
0
 40
1.0
176
0
 90
2
176
1
  1
strokes_ogs.tif
176
1
290
0
176
1
 40
1.0
176
1
 40
1.0
176
1
  0
VISUALSTYLE
  5
61
102
{ACAD_REACTORS
330
16
102
}
330
16
100
AcDbVisualStyle
  2
Facepattern
 70
15
177
3
291
1
 70
58
 90
2
176
1
 90
2
176
1
 90
0
176
1
 90
2
176
1
 40
0.6
176
1
 40
30.0
176
1
 62
7
420
16777215
176
1
 90
1
176
1
 90
4
176
1
 62
7
176
1
 62
257
176
1
 90
1
176
1
 90
1
176
1
 40
1.0
176
1
 90
8
176
1
 62
7
176
1
 40
1.0
176
1
 90
1
176
1
 90
6
176
1
 90
2
176
1
 62
7
176
1
 90
5
176
1
 90
0
176
1
 90
0
176
1
290
0
176
1
 90
1
176
1
 40
0.0
176
1
 90
0
176
1
290
0
176
1
290
1
176
1
290
1
176
1
290
0
176
1
290
0
176
1
290
0
176
1
290
0
176
1
290
0
176
1
290
0
176
1
 90
50
176
1
 40
0.0
176
1
 40
1.0
176
1
 90
0
176
1
 62
18
420
0
176
1
 90
50
176
1
 90
3
176
1
 62
5
420
255
176
1
290
0
176
1
 90
50
176
1
 90
50
176
1
 90
50
176
1
290
0
176
1
 90
50
176
1
 62
256
176
0
 40
1.0
176
0
 90
2
176
1
  1
strokes_ogs.tif
176
1
290
0
176
1
 40
1.0
176
1
 40
1.0
176
1
  0
VISUALSTYLE
  5
62
102
{ACAD_REACTORS
330
16
102
}
330
16
100
AcDbVisualStyle
  2
Flat
 70
0
177
3
291
1
 70
58
 90
2
176
1
 90
2
176
1
 90
0
176
1
 90
2
176
1
 40
0.6
176
1
 40
30.0
176
1
 62
7
420
16777215
176
1
 90
1
176
1
 90
4
176
1
 62
7
176
1
 62
257
176
1
 90
1
176
1
 90
1
176
1
 40
1.0
176
1
 90
8
176
1
 62
7
176
1
 40
1.0
176
1
 90
1
176
1
 90
6
176
1
 90
2
176
1
 62
7
176
1
 90
5
176
1
 90
0
176
1
 90
0
176
1
290
0
176
1
 90
1
176
1
 40
0.0
176
1
 90
0
176
1
290
0
176
1
290
1
176
1
290
1
176
1
290
0
176
1
290
0
176
1
290
0
176
1
290
0
176
1
290
0
176
1
290
0
176
1
 90
50
176
1
 40
0.0
176
1
 40
1.0
176
1
 90
0
176
1
 62
18
420
0
176
1
 90
50
176
1
 90
3
176
1
 62
5
420
255
176
1
290
0
176
1
 90
50
176
1
 90
50
176
1
 90
50
176
1
290
0
176
1
 90
50
176
1
 62
256
176
0
 40
1.0
176
0
 90
2
176
1
  1
strokes_ogs.tif
176
1
290
0
176
1
 40
1.0
176
1
 40
1.0
176
1
  0
VISUALSTYLE
  5
63
102
{ACAD_REACTORS
330
16
102
}
330
16
100
AcDbVisualStyle
  2
FlatWithEdges
 70
1
177
3
291
1
 70
58
 90
2
176
1
 90
2
176
1
 90
0
176
1
 90
2
176
1
 40
0.6
176
1
 40
30.0
176
1
 62
7
420
16777215
176
1
 90
1
176
1
 90
4
176
1
 62
7
176
1
 62
257
176
1
 90
1
176
1
 90
1
176
1
 40
1.0
176
1
 90
8
176
1
 62
7
176
1
 40
1.0
176
1
 90
1
176
1
 90
6
176
1
 90
2
176
1
 62
7
176
1
 90
5
176
1
 90
0
176
1
 90
0
176
1
290
0
176
1
 90
1
176
1
 40
0.0
176
1
 90
0
176
1
290
0
176
1
290
1
176
1
290
1
176
1
290
0
176
1
290
0
176
1
290
0
176
1
290
0
176
1
290
0
176
1
290
0
176
1
 90
50
176
1
 40
0.0
176
1
 40
1.0
176
1
 90
0
176
1
 62
18
420
0
176
1
 90
50
176
1
 90
3
176
1
 62
5
420
255
176
1
290
0
176
1
 90
50
176
1
 90
50
176
1
 90
50
176
1
290
0
176
1
 90
50
176
1
 62
256
176
0
 40
1.0
176
0
 90
2
176
1
  1
strokes_ogs.tif
176
1
290
0
176
1
 40
1.0
176
1
 40
1.0
176
1
  0
VISUALSTYLE
  5
64
102
{ACAD_REACTORS
330
16
102
}
330
16
100
AcDbVisualStyle
  2
Gouraud
 70
2
177
3
291
1
 70
58
 90
2
176
1
 90
2
176
1
 90
0
176
1
 90
2
176
1
 40
0.6
176
1
 40
30.0
176
1
 62
7
420
16777215
176
1
 90
1
176
1
 90
4
176
1
 62
7
176
1
 62
257
176
1
 90
1
176
1
 90
1
176
1
 40
1.0
176
1
 90
8
176
1
 62
7
176
1
 40
1.0
176
1
 90
1
176
1
 90
6
176
1
 90
2
176
1
 62
7
176
1
 90
5
176
1
 90
0
176
1
 90
0
176
1
290
0
176
1
 90
1
176
1
 40
0.0
176
1
 90
0
176
1
290
0
176
1
290
1
176
1
290
1
176
1
290
0
176
1
290
0
176
1
290
0
176
1
290
0
176
1
290
0
176
1
290
0
176
1
 90
50
176
1
 40
0.0
176
1
 40
1.0
176
1
 90
0
176
1
 62
18
420
0
176
1
 90
50
176
1
 90
3
176
1
 62
5
420
255
176
1
290
0
176
1
 90
50
176
1
 90
50
176
1
 90
50
176
1
290
0
176
1
 90
50
176
1
 62
256
176
0
 40
1.0
176
0
 90
2
176
1
  1
strokes_ogs.tif
176
1
290
0
176
1
 40
1.0
176
1
 40
1.0
176
1
  0
VISUALSTYLE
  5
65
102
{ACAD_REACTORS
330
16
102
}
330
16
100
AcDbVisualStyle
  2
GouraudWithEdges
 70
3
177
3
291
1
 70
58
 90
2
176
1
 90
2
176
1
 90
0
176
1
 90
2
176
1
 40
0.6
176
1
 40
30.0
176
1
 62
7
420
16777215
176
1
 90
1
176
1
 90
4
176
1
 62
7
176
1
 62
257
176
1
 90
1
176
1
 90
1
176
1
 40
1.0
176
1
 90
8
176
1
 62
7
176
1
 40
1.0
176
1
 90
1
176
1
 90
6
176
1
 90
2
176
1
 62
7
176
1
 90
5
176
1
 90
0
176
1
 90
0
176
1
290
0
176
1
 90
1
176
1
 40
0.0
176
1
 90
0
176
1
290
0
176
1
290
1
176
1
290
1
176
1
290
0
176
1
290
0
176
1
290
0
176
1
290
0
176
1
290
0
176
1
290
0
176
1
 90
50
176
1
 40
0.0
176
1
 40
1.0
176
1
 90
0
176
1
 62
18
420
0
176
1
 90
50
176
1
 90
3
176
1
 62
5
420
255
176
1
290
0
176
1
 90
50
176
1
 90
50
176
1
 90
50
176
1
290
0
176
1
 90
50
176
1
 62
256
176
0
 40
1.0
176
0
 90
2
176
1
  1
strokes_ogs.tif
176
1
290
0
176
1
 40
1.0
176
1
 40
1.0
176
1
  0
VISUALSTYLE
  5
66
102
{ACAD_REACTORS
330
16
102
}
330
16
100
AcDbVisualStyle
  2
Hidden
 70
6
177
3
291
0
 70
58
 90
2
176
1
 90
2
176
1
 90
0
176
1
 90
1
176
1
 40
0.6
176
1
 40
30.0
176
1
 62
7
420
16777215
176
1
 90
1
176
1
 90
4
176
1
 62
7
176
1
 62
257
176
1
 90
1
176
1
 90
1
176
1
 40
1.0
176
1
 90
8
176
1
 62
7
176
1
 40
1.0
176
1
 90
1
176
1
 90
6
176
1
 90
2
176
1
 62
7
176
1
 90
5
176
1
 90
0
176
1
 90
0
176
1
290
0
176
1
 90
1
176
1
 40
0.0
176
1
 90
0
176
1
290
0
176
1
290
1
176
1
290
1
176
1
290
0
176
1
290
0
176
1
290
0
176
1
290
0
176
1
290
0
176
1
290
0
176
1
 90
50
176
1
 40
0.0
176
1
 40
1.0
176
1
 90
0
176
1
 62
18
420
0
176
1
 90
50
176
1
 90
3
176
1
 62
5
420
255
176
1
290
0
176
1
 90
50
176
1
 90
50
176
1
 90
50
176
1
290
0
176
1
 90
50
176
1
 62
256
176
0
 40
1.0
176
0
 90
2
176
1
  1
strokes_ogs.tif
176
1
290
0
176
1
 40
1.0
176
1
 40
1.0
176
1
  0
VISUALSTYLE
  5
67
102
{ACAD_REACTORS
330
16
102
}
330
16
100
AcDbVisualStyle
  2
JitterOff
 70
20
177
3
291
1
 70
58
 90
2
176
1
 90
2
176
1
 90
0
176
1
 90
2
176
1
 40
0.6
176
1
 40
30.0
176
1
 62
7
420
16777215
176
1
 90
1
176
1
 90
4
176
1
 62
7
176
1
 62
257
176
1
 90
1
176
1
 90
1
176
1
 40
1.0
176
1
 90
8
176
1
 62
7
176
1
 40
1.0
176
1
 90
1
176
1
 90
6
176
1
 90
2
176
1
 62
7
176
1
 90
5
176
1
 90
0
176
1
 90
0
176
1
290
0
176
1
 90
1
176
1
 40
0.0
176
1
 90
0
176
1
290
0
176
1
290
1
176
1
290
1
176
1
290
0
176
1
290
0
176
1
290
0
176
1
290
0
176
1
290
0
176
1
290
0
176
1
 90
50
176
1
 40
0.0
176
1
 40
1.0
176
1
 90
0
176
1
 62
18
420
0
176
1
 90
50
176
1
 90
3
176
1
 62
5
420
255
176
1
290
0
176
1
 90
50
176
1
 90
50
176
1
 90
50
176
1
290
0
176
1
 90
50
176
1
 62
256
176
0
 40
1.0
176
0
 90
2
176
1
  1
strokes_ogs.tif
176
1
290
0
176
1
 40
1.0
176
1
 40
1.0
176
1
  0
VISUALSTYLE
  5
68
102
{ACAD_REACTORS
330
16
102
}
330
16
100
AcDbVisualStyle
  2
Linepattern
 70
14
177
3
291
1
 70
58
 90
2
176
1
 90
2
176
1
 90
0
176
1
 90
2
176
1
 40
0.6
176
1
 40
30.0
176
1
 62
7
420
16777215
176
1
 90
1
176
1
 90
4
176
1
 62
7
176
1
 62
257
176
1
 90
1
176
1
 90
1
176
1
 40
1.0
176
1
 90
8
176
1
 62
7
176
1
 40
1.0
176
1
 90
1
176
1
 90
6
176
1
 90
2
176
1
 62
7
176
1
 90
5
176
1
 90
0
176
1
 90
0
176
1
290
0
176
1
 90
1
176
1
 40
0.0
176
1
 90
0
176
1
290
0
176
1
290
1
176
1
290
1
176
1
290
0
176
1
290
0
176
1
290
0
176
1
290
0
176
1
290
0
176
1
290
0
176
1
 90
50
176
1
 40
0.0
176
1
 40
1.0
176
1
 90
0
176
1
 62
18
420
0
176
1
 90
50
176
1
 90
3
176
1
 62
5
420
255
176
1
290
0
176
1
 90
50
176
1
 90
50
176
1
 90
50
176
1
290
0
176
1
 90
50
176
1
 62
256
176
0
 40
1.0
176
0
 90
2
176
1
  1
strokes_ogs.tif
176
1
290
0
176
1
 40
1.0
176
1
 40
1.0
176
1
  0
VISUALSTYLE
  5
69
102
{ACAD_REACTORS
330
16
102
}
330
16
100
AcDbVisualStyle
  2
Modeling
 70
10
177
3
291
0
 70
58
 90
2
176
1
 90
2
176
1
 90
0
176
1
 90
2
176
1
 40
0.6
176
1
 40
30.0
176
1
 62
7
420
16777215
176
1
 90
1
176
1
 90
4
176
1
 62
7
176
1
 62
257
176
1
 90
1
176
1
 90
1
176
1
 40
1.0
176
1
 90
8
176
1
 62
7
176
1
 40
1.0
176
1
 90
1
176
1
 90
6
176
1
 90
2
176
1
 62
7
176
1
 90
5
176
1
 90
0
176
1
 90
0
176
1
290
0
176
1
 90
1
176
1
 40
0.0
176
1
 90
0
176
1
290
0
176
1
290
1
176
1
290
1
176
1
290
0
176
1
290
0
176
1
290
0
176
1
290
0
176
1
290
0
176
1
290
0
176
1
 90
50
176
1
 40
0.0
176
1
 40
1.0
176
1
 90
0
176
1
 62
18
420
0
176
1
 90
50
176
1
 90
3
176
1
 62
5
420
255
176
1
290
0
176
1
 90
50
176
1
 90
50
176
1
 90
50
176
1
290
0
176
1
 90
50
176
1
 62
256
176
0
 40
1.0
176
0
 90
2
176
1
  1
strokes_ogs.tif
176
1
290
0
176
1
 40
1.0
176
1
 40
1.0
176
1
  0
VISUALSTYLE
  5
6A
102
{ACAD_REACTORS
330
16
102
}
330
16
100
AcDbVisualStyle
  2
OverhangOff
 70
21
177
3
291
1
 70
58
 90
2
176
1
 90
2
176
1
 90
0
176
1
 90
2
176
1
 40
0.6
176
1
 40
30.0
176
1
 62
7
420
16777215
176
1
 90
1
176
1
 90
4
176
1
 62
7
176
1
 62
257
176
1
 90
1
176
1
 90
1
176
1
 40
1.0
176
1
 90
8
176
1
 62
7
176
1
 40
1.0
176
1
 90
1
176
1
 90
6
176
1
 90
2
176
1
 62
7
176
1
 90
5
176
1
 90
0
176
1
 90
0
176
1
290
0
176
1
 90
1
176
1
 40
0.0
176
1
 90
0
176
1
290
0
176
1
290
1
176
1
290
1
176
1
290
0
176
1
290
0
176
1
290
0
176
1
290
0
176
1
290
0
176
1
290
0
176
1
 90
50
176
1
 40
0.0
176
1
 40
1.0
176
1
 90
0
176
1
 62
18
420
0
176
1
 90
50
176
1
 90
3
176
1
 62
5
420
255
176
1
290
0
176
1
 90
50
176
1
 90
50
176
1
 90
50
176
1
290
0
176
1
 90
50
176
1
 62
256
176
0
 40
1.0
176
0
 90
2
176
1
  1
strokes_ogs.tif
176
1
290
0
176
1
 40
1.0
176
1
 40
1.0
176
1
  0
VISUALSTYLE
  5
6B
102
{ACAD_REACTORS
330
16
102
}
330
16
100
AcDbVisualStyle
  2
Realistic
 70
8
177
3
291
0
 70
58
 90
2
176
1
 90
2
176
1
 90
0
176
1
 90
2
176
1
 40
0.6
176
1
 40
30.0
176
1
 62
7
420
16777215
176
1
 90
1
176
1
 90
4
176
1
 62
7
176
1
 62
257
176
1
 90
1
176
1
 90
1
176
1
 40
1.0
176
1
 90
8
176
1
 62
7
176
1
 40
1.0
176
1
 90
1
176
1
 90
6
176
1
 90
2
176
1
 62
7
176
1
 90
5
176
1
 90
0
176
1
 90
0
176
1
290
0
176
1
 90
1
176
1
 40
0.0
176
1
 90
0
176
1
290
0
176
1
290
1
176
1
290
1
176
1
290
0
176
1
290
0
176
1
290
0
176
1
290
0
176
1
290
0
176
1
290
0
176
1
 90
50
176
1
 40
0.0
176
1
 40
1.0
176
1
 90
0
176
1
 62
18
420
0
176
1
 90
50
176
1
 90
3
176
1
 62
5
420
255
176
1
290
0
176
1
 90
50
176
1
 90
50
176
1
 90
50
176
1
290
0
176
1
 90
50
176
1
 62
256
176
0
 40
1.0
176
0
 90
2
176
1
  1
strokes_ogs.tif
176
1
290
0
176
1
 40
1.0
176
1
 40
1.0
176
1
  0
VISUALSTYLE
  5
6C
102
{ACAD_REACTORS
330
16
102
}
330
16
100
AcDbVisualStyle
  2
Shaded
 70
27
177
3
291
0
 70
58
 90
2
176
1
 90
2
176
1
 90
0
176
1
 90
2
176
1
 40
0.6
176
1
 40
30.0
176
1
 62
7
420
16777215
176
1
 90
1
176
1
 90
4
176
1
 62
7
176
1
 62
257
176
1
 90
1
176
1
 90
1
176
1
 40
1.0
176
1
 90
8
176
1
 62
7
176
1
 40
1.0
176
1
 90
1
176
1
 90
6
176
1
 90
2
176
1
 62
7
176
1
 90
5
176
1
 90
0
176
1
 90
0
176
1
290
0
176
1
 90
1
176
1
 40
0.0
176
1
 90
0
176
1
290
0
176
1
290
1
176
1
290
1
176
1
290
0
176
1
290
0
176
1
290
0
176
1
290
0
176
1
290
0
176
1
290
0
176
1
 90
50
176
1
 40
0.0
176
1
 40
1.0
176
1
 90
0
176
1
 62
18
420
0
176
1
 90
50
176
1
 90
3
176
1
 62
5
420
255
176
1
290
0
176
1
 90
50
176
1
 90
50
176
1
 90
50
176
1
290
0
176
1
 90
50
176
1
 62
256
176
0
 40
1.0
176
0
 90
2
176
1
  1
strokes_ogs.tif
176
1
290
0
176
1
 40
1.0
176
1
 40
1.0
176
1
  0
VISUALSTYLE
  5
6D
102
{ACAD_REACTORS
330
16
102
}
330
16
100
AcDbVisualStyle
  2
Shaded with edges
 70
26
177
3
291
0
 70
58
 90
2
176
1
 90
2
176
1
 90
0
176
1
 90
2
176
1
 40
0.6
176
1
 40
30.0
176
1
 62
7
420
16777215
176
1
 90
1
176
1
 90
4
176
1
 62
7
176
1
 62
257
176
1
 90
1
176
1
 90
1
176
1
 40
1.0
176
1
 90
8
176
1
 62
7
176
1
 40
1.0
176
1
 90
1
176
1
 90
6
176
1
 90
2
176
1
 62
7
176
1
 90
5
176
1
 90
0
176
1
 90
0
176
1
290
0
176
1
 90
1
176
1
 40
0.0
176
1
 90
0
176
1
290
0
176
1
290
1
176
1
290
1
176
1
290
0
176
1
290
0
176
1
290
0
176
1
290
0
176
1
290
0
176
1
290
0
176
1
 90
50
176
1
 40
0.0
176
1
 40
1.0
176
1
 90
0
176
1
 62
18
420
0
176
1
 90
50
176
1
 90
3
176
1
 62
5
420
255
176
1
290
0
176
1
 90
50
176
1
 90
50
176
1
 90
50
176
1
290
0
176
1
 90
50
176
1
 62
256
176
0
 40
1.0
176
0
 90
2
176
1
  1
strokes_ogs.tif
176
1
290
0
176
1
 40
1.0
176
1
 40
1.0
176
1
  0
VISUALSTYLE
  5
6E
102
{ACAD_REACTORS
330
16
102
}
330
16
100
AcDbVisualStyle
  2
Shades of Gray
 70
23
177
3
291
0
 70
58
 90
2
176
1
 90
2
176
1
 90
0
176
1
 90
2
176
1
 40
0.6
176
1
 40
30.0
176
1
 62
7
420
16777215
176
1
 90
1
176
1
 90
4
176
1
 62
7
176
1
 62
257
176
1
 90
1
176
1
 90
1
176
1
 40
1.0
176
1
 90
8
176
1
 62
7
176
1
 40
1.0
176
1
 90
1
176
1
 90
6
176
1
 90
2
176
1
 62
7
176
1
 90
5
176
1
 90
0
176
1
 90
0
176
1
290
0
176
1
 90
1
176
1
 40
0.0
176
1
 90
0
176
1
290
0
176
1
290
1
176
1
290
1
176
1
290
0
176
1
290
0
176
1
290
0
176
1
290
0
176
1
290
0
176
1
290
0
176
1
 90
50
176
1
 40
0.0
176
1
 40
1.0
176
1
 90
0
176
1
 62
18
420
0
176
1
 90
50
176
1
 90
3
176
1
 62
5
420
255
176
1
290
0
176
1
 90
50
176
1
 90
50
176
1
 90
50
176
1
290
0
176
1
 90
50
176
1
 62
256
176
0
 40
1.0
176
0
 90
2
176
1
  1
strokes_ogs.tif
176
1
290
0
176
1
 40
1.0
176
1
 40
1.0
176
1
  0
VISUALSTYLE
  5
6F
102
{ACAD_REACTORS
330
16
102
}
330
16
100
AcDbVisualStyle
  2
Sketchy
 70
24
177
3
291
0
 70
58
 90
2
176
1
 90
2
176
1
 90
0
176
1
 90
1
176
1
 40
0.6
176
1
 40
30.0
176
1
 62
7
420
16777215
176
1
 90
1
176
1
 90
4
176
1
 62
7
176
1
 62
257
176
1
 90
1
176
1
 90
1
176
1
 40
1.0
176
1
 90
8
176
1
 62
7
176
1
 40
1.0
176
1
 90
1
176
1
 90
6
176
1
 90
2
176
1
 62
7
176
1
 90
5
176
1
 90
0
176
1
 90
0
176
1
290
0
176
1
 90
1
176
1
 40
0.0
176
1
 90
0
176
1
290
0
176
1
290
1
176
1
290
1
176
1
290
0
176
1
290
0
176
1
290
0
176
1
290
0
176
1
290
0
176
1
290
0
176
1
 90
50
176
1
 40
0.0
176
1
 40
1.0
176
1
 90
0
176
1
 62
18
420
0
176
1
 90
50
176
1
 90
3
176
1
 62
5
420
255
176
1
290
0
176
1
 90
50
176
1
 90
50
176
1
 90
50
176
1
290
0
176
1
 90
50
176
1
 62
256
176
0
 40
1.0
176
0
 90
2
176
1
  1
strokes_ogs.tif
176
1
290
0
176
1
 40
1.0
176
1
 40
1.0
176
1
  0
VISUALSTYLE
  5
70
102
{ACAD_REACTORS
330
16
102
}
330
16
100
AcDbVisualStyle
  2
Thicken
 70
13
177
3
291
1
 70
58
 90
2
176
1
 90
2
176
1
 90
0
176
1
 90
2
176
1
 40
0.6
176
1
 40
30.0
176
1
 62
7
420
16777215
176
1
 90
1
176
1
 90
4
176
1
 62
7
176
1
 62
257
176
1
 90
1
176
1
 90
1
176
1
 40
1.0
176
1
 90
8
176
1
 62
7
176
1
 40
1.0
176
1
 90
1
176
1
 90
6
176
1
 90
2
176
1
 62
7
176
1
 90
5
176
1
 90
0
176
1
 90
0
176
1
290
0
176
1
 90
1
176
1
 40
0.0
176
1
 90
0
176
1
290
0
176
1
290
1
176
1
290
1
176
1
290
0
176
1
290
0
176
1
290
0
176
1
290
0
176
1
290
0
176
1
290
0
176
1
 90
50
176
1
 40
0.0
176
1
 40
1.0
176
1
 90
0
176
1
 62
18
420
0
176
1
 90
50
176
1
 90
3
176
1
 62
5
420
255
176
1
290
0
176
1
 90
50
176
1
 90
50
176
1
 90
50
176
1
290
0
176
1
 90
50
176
1
 62
256
176
0
 40
1.0
176
0
 90
2
176
1
  1
strokes_ogs.tif
176
1
290
0
176
1
 40
1.0
176
1
 40
1.0
176
1
  0
VISUALSTYLE
  5
71
102
{ACAD_REACTORS
330
16
102
}
330
16
100
AcDbVisualStyle
  2
Wireframe
 70
5
177
3
291
0
 70
58
 90
2
176
1
 90
2
176
1
 90
0
176
1
 90
0
176
1
 40
0.6
176
1
 40
30.0
176
1
 62
7
420
16777215
176
1
 90
1
176
1
 90
4
176
1
 62
7
176
1
 62
257
176
1
 90
1
176
1
 90
1
176
1
 40
1.0
176
1
 90
8
176
1
 62
7
176
1
 40
1.0
176
1
 90
1
176
1
 90
6
176
1
 90
2
176
1
 62
7
176
1
 90
5
176
1
 90
0
176
1
 90
0
176
1
290
0
176
1
 90
1
176
1
 40
0.0
176
1
 90
0
176
1
290
0
176
1
290
1
176
1
290
1
176
1
290
0
176
1
290
0
176
1
290
0
176
1
290
0
176
1
290
0
176
1
290
0
176
1
 90
50
176
1
 40
0.0
176
1
 40
1.0
176
1
 90
0
176
1
 62
18
420
0
176
1
 90
50
176
1
 90
3
176
1
 62
5
420
255
176
1
290
0
176
1
 90
50
176
1
 90
50
176
1
 90
50
176
1
290
0
176
1
 90
50
176
1
 62
256
176
0
 40
1.0
176
0
 90
2
176
1
  1
strokes_ogs.tif
176
1
290
0
176
1
 40
1.0
176
1
 40
1.0
176
1
  0
VISUALSTYLE
  5
72
102
{ACAD_REACTORS
330
16
102
}
330
16
100
AcDbVisualStyle
  2
X-Ray
 70
25
177
3
291
0
 70
58
 90
2
176
1
 90
2
176
1
 90
0
176
1
 90
2
176
1
 40
0.5
176
1
 40
30.0
176
1
 62
7
420
16777215
176
1
 90
1
176
1
 90
4
176
1
 62
7
176
1
 62
257
176
1
 90
1
176
1
 90
1
176
1
 40
1.0
176
1
 90
8
176
1
 62
7
176
1
 40
1.0
176
1
 90
1
176
1
 90
6
176
1
 90
2
176
1
 62
7
176
1
 90
5
176
1
 90
0
176
1
 90
0
176
1
290
0
176
1
 90
1
176
1
 40
0.0
176
1
 90
0
176
1
290
0
176
1
290
1
176
1
290
1
176
1
290
0
176
1
290
0
176
1
290
0
176
1
290
0
176
1
290
0
176
1
290
0
176
1
 90
50
176
1
 40
0.0
176
1
 40
1.0
176
1
 90
0
176
1
 62
18
420
0
176
1
 90
50
176
1
 90
3
176
1
 62
5
420
255
176
1
290
0
176
1
 90
50
176
1
 90
50
176
1
 90
50
176
1
290
0
176
1
 90
50
176
1
 62
256
176
0
 40
1.0
176
0
 90
2
176
1
  1
strokes_ogs.tif
176
1
290
0
176
1
 40
1.0
176
1
 40
1.0
176
1
  0
DICTIONARYVAR
  5
259
330
2D
100
DictionaryVariables
280
0
  1
1.4.4 @ 2026-09-23T10:34:10.443871+00:00
  0
ENDSEC
  0
EOF
