  0
SECTION
  2
HEADER
  9
$ACADVER
  1
AC1027
  9
$ACADMAINTVER
 70
105
  9
$DWGCODEPAGE
  3
ANSI_1252
  9
$LASTSAVEDBY
  1
ezdxf
  9
$REQUIREDVERSIONS
160
0
  9
$INSBASE
 10
0.0
 20
0.0
 30
0.0
  9
$EXTMIN
 10
1e+20
 20
1e+20
 30
1e+20
  9
$EXTMAX
 10
-1e+20
 20
-1e+20
 30
-1e+20
  9
$LIMMIN
 10
0.0
 20
0.0
  9
$LIMMAX
 10
420.0
 20
297.0
  9
$ORTHOMODE
 70
0
  9
$REGENMODE
 70
1
  9
$FILLMODE
 70
1
  9
$QTEXTMODE
 70
0
  9
$MIRRTEXT
 70
1
  9
$LTSCALE
 40
1.0
  9
$ATTMODE
 70
1
  9
$TEXTSIZE
 40
2.5
  9
$TRACEWID
 40
1.0
  9
$TEXTSTYLE
  7
OpenSans
  9
$CLAYER
  8
0
  9
$CELTYPE
  6
ByLayer
  9
$CECOLOR
 62
256
  9
$CELTSCALE
 40
1.0
  9
$DISPSILH
 70
0
  9
$DIMSCALE
 40
1.0
  9
$DIMASZ
 40
0.175
  9
$DIMEXO
 40
0.125
  9
$DIMDLI
 40
3.75
  9
$DIMRND
 40
0.0
  9
$DIMDLE
 40
0.0
  9
$DIMEXE
 40
0.375
  9
$DIMTP
 40
0.0
  9
$DIMTM
 40
0.0
  9
$DIMTXT
 40
0.25
  9
$DIMCEN
 40
2.5
  9
$DIMTSZ
 40
0.0
  9
$DIMTOL
 70
0
  9
$DIMLIM
 70
0
  9
$DIMTIH
 70
0
  9
$DIMTOH
 70
0
  9
$DIMSE1
 70
0
  9
$DIMSE2
 70
0
  9
$DIMTAD
 70
1
  9
$DIMZIN
 70
12
  9
$DIMBLK
  1
ARCHTICK
  9
$DIMASO
 70
1
  9
$DIMSHO
 70
1
  9
$DIMPOST
  1

  9
$DIMAPOST
  1

  9
$DIMALT
 70
0
  9
$DIMALTD
 70
3
  9
$DIMALTF
 40
0.03937007874
  9
$DIMLFAC
 40
100.0
  9
$DIMTOFL
 70
1
  9
$DIMTVP
 40
0.0
  9
$DIMTIX
 70
0
  9
$DIMSOXD
 70
0
  9
$DIMSAH
 70
0
  9
$DIMBLK1
  1

  9
$DIMBLK2
  1

  9
$DIMSTYLE
  2
EZDXF
  9
$DIMCLRD
 70
0
  9
$DIMCLRE
 70
0
  9
$DIMCLRT
 70
0
  9
$DIMTFAC
 40
0.5
  9
$DIMGAP
 40
0.1
  9
$DIMJUST
 70
0
  9
$DIMSD1
 70
0
  9
$DIMSD2
 70
0
  9
$DIMTOLJ
 70
0
  9
$DIMTZIN
 70
8
  9
$DIMALTZ
 70
0
  9
$DIMALTTZ
 70
0
  9
$DIMUPT
 70
1
  9
$DIMDEC
 70
2
  9
$DIMTDEC
 70
2
  9
$DIMALTU
 70
2
  9
$DIMALTTD
 70
3
  9
$DIMTXSTY
  7
OpenSansCondensed-Light
  9
$DIMAUNIT
 70
0
  9
$DIMADEC
 70
2
  9
$DIMALTRND
 40
0.0
  9
$DIMAZIN
 70
3
  9
$DIMDSEP
 70
46
  9
$DIMATFIT
 70
3
  9
$DIMFRAC
 70
0
  9
$DIMLDRBLK
  1

  9
$DIMLUNIT
 70
2
  9
$DIMLWD
 70
-2
  9
$DIMLWE
 70
-2
  9
$DIMTMOVE
 70
2
  9
$DIMFXL
 40
1.0
  9
$DIMFXLON
 70
0
  9
$DIMJOGANG
 40
0.785398163397
  9
$DIMTFILL
 70
0
  9
$DIMTFILLCLR
 70
0
  9
$DIMARCSYM
 70
0
  9
$DIMLTYPE
  6

  9
$DIMLTEX1
  6

  9
$DIMLTEX2
  6

  9
$DIMTXTDIRECTION
 70
0
  9
$LUNITS
 70
2
  9
$LUPREC
 70
4
  9
$SKETCHINC
 40
1.0
  9
$FILLETRAD
 40
10.0
  9
$AUNITS
 70
0
  9
$AUPREC
 70
2
  9
$MENU
  1
.
  9
$ELEVATION
 40
0.0
  9
$PELEVATION
 40
0.0
  9
$THICKNESS
 40
0.0
  9
$LIMCHECK
 70
0
  9
$CHAMFERA
 40
0.0
  9
$CHAMFERB
 40
0.0
  9
$CHAMFERC
 40
0.0
  9
$CHAMFERD
 40
0.0
  9
$SKPOLY
 70
0
  9
$TDCREATE
 40
2461304.1296296297
  9
$TDUCREATE
 40
2458532.153996898
  9
$TDUPDATE
 40
2461304.1296296297
  9
$TDUUPDATE
 40
2458532.1544311
  9
$TDINDWG
 40
0.0
  9
$TDUSRTIMER
 40
0.0
  9
$USRTIMER
 70
1
  9
$ANGBASE
 50
0.0
  9
$ANGDIR
 70
0
  9
$PDMODE
 70
0
  9
$PDSIZE
 40
0.0
  9
$PLINEWID
 40
0.0
  9
$SPLFRAME
 70
0
  9
$SPLINETYPE
 70
6
  9
$SPLINESEGS
 70
8
  9
$HANDSEED
  5
168
  9
$SURFTAB1
 70
6
  9
$SURFTAB2
 70
6
  9
$SURFTYPE
 70
6
  9
$SURFU
 70
6
  9
$SURFV
 70
6
  9
$UCSBASE
  2

  9
$UCSNAME
  2

  9
$UCSORG
 10
0.0
 20
0.0
 30
0.0
  9
$UCSXDIR
 10
1.0
 20
0.0
 30
0.0
  9
$UCSYDIR
 10
0.0
 20
1.0
 30
0.0
  9
$UCSORTHOREF
  2

  9
$UCSORTHOVIEW
 70
0
  9
$UCSORGTOP
 10
0.0
 20
0.0
 30
0.0
  9
$UCSORGBOTTOM
 10
0.0
 20
0.0
 30
0.0
  9
$UCSORGLEFT
 10
0.0
 20
0.0
 30
0.0
  9
$UCSORGRIGHT
 10
0.0
 20
0.0
 30
0.0
  9
$UCSORGFRONT
 10
0.0
 20
0.0
 30
0.0
  9
$UCSORGBACK
 10
0.0
 20
0.0
 30
0.0
  9
$PUCSBASE
  2

  9
$PUCSNAME
  2

  9
$PUCSORG
 10
0.0
 20
0.0
 30
0.0
  9
$PUCSXDIR
 10
1.0
 20
0.0
 30
0.0
  9
$PUCSYDIR
 10
0.0
 20
1.0
 30
0.0
  9
$PUCSORTHOREF
  2

  9
$PUCSORTHOVIEW
 70
0
  9
$PUCSORGTOP
 10
0.0
 20
0.0
 30
0.0
  9
$PUCSORGBOTTOM
 10
0.0
 20
0.0
 30
0.0
  9
$PUCSORGLEFT
 10
0.0
 20
0.0
 30
0.0
  9
$PUCSORGRIGHT
 10
0.0
 20
0.0
 30
0.0
  9
$PUCSORGFRONT
 10
0.0
 20
0.0
 30
0.0
  9
$PUCSORGBACK
 10
0.0
 20
0.0
 30
0.0
  9
$USERI1
 70
0
  9
$USERI2
 70
0
  9
$USERI3
 70
0
  9
$USERI4
 70
0
  9
$USERI5
 70
0
  9
$USERR1
 40
0.0
  9
$USERR2
 40
0.0
  9
$USERR3
 40
0.0
  9
$USERR4
 40
0.0
  9
$USERR5
 40
0.0
  9
$WORLDVIEW
 70
1
  9
$SHADEDGE
 70
3
  9
$SHADEDIF
 70
70
  9
$TILEMODE
 70
1
  9
$MAXACTVP
 70
64
  9
$PINSBASE
 10
0.0
 20
0.0
 30
0.0
  9
$PLIMCHECK
 70
0
  9
$PEXTMIN
 10
1e+20
 20
1e+20
 30
1e+20
  9
$PEXTMAX
 10
-1e+20
 20
-1e+20
 30
-1e+20
  9
$PLIMMIN
 10
0.0
 20
0.0
  9
$PLIMMAX
 10
420.0
 20
297.0
  9
$UNITMODE
 70
0
  9
$VISRETAIN
 70
1
  9
$PLINEGEN
 70
0
  9
$PSLTSCALE
 70
1
  9
$TREEDEPTH
 70
3020
  9
$CMLSTYLE
  2
Standard
  9
$CMLJUST
 70
0
  9
$CMLSCALE
 40
20.0
  9
$PROXYGRAPHICS
 70
1
  9
$MEASUREMENT
 70
1
  9
$CELWEIGHT
370
-1
  9
$ENDCAPS
280
0
  9
$JOINSTYLE
280
0
  9
$LWDISPLAY
290
0
  9
$INSUNITS
 70
4
  9
$HYPERLINKBASE
  1

  9
$STYLESHEET
  1

  9
$XEDIT
290
1
  9
$CEPSNTYPE
380
0
  9
$PSTYLEMODE
290
1
  9
$FINGERPRINTGUID
  2
{0D5753A5-D7E2-4458-B529-FD3CC43AB36F}
  9
$VERSIONGUID
  2
{EC2274DE-DA1B-46B5-9F08-C4B40C617A4D}
  9
$EXTNAMES
290
1
  9
$PSVPSCALE
 40
0.0
  9
$OLESTARTUP
290
0
  9
$SORTENTS
280
127
  9
$INDEXCTL
280
0
  9
$HIDETEXT
280
1
  9
$XCLIPFRAME
280
1
  9
$HALOGAP
280
0
  9
$OBSCOLOR
 70
257
  9
$OBSLTYPE
280
0
  9
$INTERSECTIONDISPLAY
280
0
  9
$INTERSECTIONCOLOR
 70
257
  9
$DIMASSOC
280
2
  9
$PROJECTNAME
  1

  9
$CAMERADISPLAY
290
0
  9
$LENSLENGTH
 40
50.0
  9
$CAMERAHEIGHT
 40
0.0
  9
$STEPSPERSEC
 40
24.0
  9
$STEPSIZE
 40
100.0
  9
$3DDWFPREC
 40
2.0
  9
$PSOLWIDTH
 40
0.005
  9
$PSOLHEIGHT
 40
0.08
  9
$LOFTANG1
 40
1.570796326795
  9
$LOFTANG2
 40
1.570796326795
  9
$LOFTMAG1
 40
0.0
  9
$LOFTMAG2
 40
0.0
  9
$LOFTPARAM
 70
7
  9
$LOFTNORMALS
280
1
  9
$LATITUDE
 40
37.795
  9
$LONGITUDE
 40
-122.394
  9
$NORTHDIRECTION
 40
0.0
  9
$TIMEZONE
 70
-8000
  9
$LIGHTGLYPHDISPLAY
280
1
  9
$TILEMODELIGHTSYNCH
280
1
  9
$CMATERIAL
347
20
  9
$SOLIDHIST
280
0
  9
$SHOWHIST
280
1
  9
$DWFFRAME
280
2
  9
$DGNFRAME
280
2
  9
$REALWORLDSCALE
290
1
  9
$INTERFERECOLOR
 62
256
  9
$CSHADOW
280
0
  9
$SHADOWPLANELOCATION
 40
0.0
  0
ENDSEC
  0
SECTION
  2
CLASSES
  0
CLASS
  1
ACDBDICTIONARYWDFLT
  2
AcDbDictionaryWithDefault
  3
ObjectDBX Classes
 90
0
 91
0
280
0
281
0
  0
CLASS
  1
SUN
  2
AcDbSun
  3
SCENEOE
 90
1153
 91
0
280
0
281
0
  0
CLASS
  1
VISUALSTYLE
  2
AcDbVisualStyle
  3
ObjectDBX Classes
 90
4095
 91
0
280
0
281
0
  0
CLASS
  1
MATERIAL
  2
AcDbMaterial
  3
ObjectDBX Classes
 90
1153
 91
0
280
0
281
0
  0
CLASS
  1
SCALE
  2
AcDbScale
  3
ObjectDBX Classes
 90
1153
 91
0
280
0
281
0
  0
CLASS
  1
TABLESTYLE
  2
AcDbTableStyle
  3
ObjectDBX Classes
 90
4095
 91
0
280
0
281
0
  0
CLASS
  1
MLEADERSTYLE
  2
AcDbMLeaderStyle
  3
ACDB_MLEADERSTYLE_CLASS
 90
4095
 91
0
280
0
281
0
  0
CLASS
  1
DICTIONARYVAR
  2
AcDbDictionaryVar
  3
ObjectDBX Classes
 90
0
 91
0
280
0
281
0
  0
CLASS
  1
CELLSTYLEMAP
  2
AcDbCellStyleMap
  3
ObjectDBX Classes
 90
1152
 91
0
280
0
281
0
  0
CLASS
  1
MENTALRAYRENDERSETTINGS
  2
AcDbMentalRayRenderSettings
  3
SCENEOE
 90
1024
 91
0
280
0
281
0
  0
CLASS
  1
ACDBDETAILVIEWSTYLE
  2
AcDbDetailViewStyle
  3
ObjectDBX Classes
 90
1025
 91
0
280
0
281
0
  0
CLASS
  1
ACDBSECTIONVIEWSTYLE
  2
AcDbSectionViewStyle
  3
ObjectDBX Classes
 90
1025
 91
0
280
0
281
0
  0
CLASS
  1
RASTERVARIABLES
  2
AcDbRasterVariables
  3
ISM
 90
0
 91
0
280
0
281
0
  0
CLASS
  1
ACDBPLACEHOLDER
  2
AcDbPlaceHolder
  3
ObjectDBX Classes
 90
0
 91
0
280
0
281
0
  0
CLASS
  1
LAYOUT
  2
AcDbLayout
  3
ObjectDBX Classes
 90
0
 91
0
280
0
281
0
  0
ENDSEC
  0
SECTION
  2
TABLES
  0
TABLE
  2
VPORT
  5
8
330
0
100
AcDbSymbolTable
 70
1
  0
VPORT
  5
23
330
8
100
AcDbSymbolTableRecord
100
AcDbViewportTableRecord
  2
*Active
 70
0
 10
0.0
 20
0.0
 11
1.0
 21
1.0
 12
0.0
 22
0.0
 13
0.0
 23
0.0
 14
0.5
 24
0.5
 15
0.5
 25
0.5
 16
0.0
 26
0.0
 36
1.0
 17
0.0
 27
0.0
 37
0.0
 40
1000.0
 41
1.34
 42
50.0
 43
0.0
 44
0.0
 50
0.0
 51
0.0
 71
0
 72
1000
 73
1
 74
3
 75
0
 76
0
 77
0
 78
0
281
0
 65
0
146
0.0
  0
ENDTAB
  0
TABLE
  2
LTYPE
  5
2
330
0
100
AcDbSymbolTable
 70
21
  0
LTYPE
  5
24
330
2
100
AcDbSymbolTableRecord
100
AcDbLinetypeTableRecord
  2
ByBlock
 70
0
  3

 72
65
 73
0
 40
0.0
  0
LTYPE
  5
25
330
2
100
AcDbSymbolTableRecord
100
AcDbLinetypeTableRecord
  2
ByLayer
 70
0
  3

 72
65
 73
0
 40
0.0
  0
LTYPE
  5
26
330
2
100
AcDbSymbolTableRecord
100
AcDbLinetypeTableRecord
  2
Continuous
 70
0
  3

 72
65
 73
0
 40
0.0
  0
LTYPE
  5
2F
330
2
100
AcDbSymbolTableRecord
100
AcDbLinetypeTableRecord
  2
CENTER
 70
0
  3
Center ____ _ ____ _ ____ _ ____ _ ____ _ ____
 72
65
 73
4
 40
5.08
 49
3.175
 74
0
 49
-0.635
 74
0
 49
0.635
 74
0
 49
-0.635
 74
0
  0
LTYPE
  5
30
330
2
100
AcDbSymbolTableRecord
100
AcDbLinetypeTableRecord
  2
CENTERX2
 70
0
  3
Center (2x) ________  __  ________  __  ________
 72
65
 73
4
 40
8.89
 49
6.35
 74
0
 49
-0.635
 74
0
 49
1.27
 74
0
 49
-0.635
 74
0
  0
LTYPE
  5
31
330
2
100
AcDbSymbolTableRecord
100
AcDbLinetypeTableRecord
  2
CENTER2
 70
0
  3
Center (.5x) ____ _ ____ _ ____ _ ____ _ ____
 72
65
 73
4
 40
2.54
 49
1.587
 74
0
 49
-0.318
 74
0
 49
0.318
 74
0
 49
-0.318
 74
0
  0
LTYPE
  5
32
330
2
100
AcDbSymbolTableRecord
100
AcDbLinetypeTableRecord
  2
DASHED
 70
0
  3
Dashed __ __ __ __ __ __ __ __ __ __ __ __ __ _
 72
65
 73
2
 40
1.524
 49
1.27
 74
0
 49
-0.254
 74
0
  0
LTYPE
  5
33
330
2
100
AcDbSymbolTableRecord
100
AcDbLinetypeTableRecord
  2
DASHEDX2
 70
0
  3
Dashed (2x) ____  ____  ____  ____  ____  ____
 72
65
 73
2
 40
3.048
 49
2.54
 74
0
 49
-0.508
 74
0
  0
LTYPE
  5
34
330
2
100
AcDbSymbolTableRecord
100
AcDbLinetypeTableRecord
  2
DASHED2
 70
0
  3
Dashed (.5x) _ _ _ _ _ _ _ _ _ _ _ _ _ _
 72
65
 73
2
 40
0.762
 49
0.635
 74
0
 49
-0.127
 74
0
  0
LTYPE
  5
35
330
2
100
AcDbSymbolTableRecord
100
AcDbLinetypeTableRecord
  2
PHANTOM
 70
0
  3
Phantom ______  __  __  ______  __  __  ______
 72
65
 73
6
 40
6.35
 49
3.175
 74
0
 49
-0.635
 74
0
 49
0.635
 74
0
 49
-0.635
 74
0
 49
0.635
 74
0
 49
-0.635
 74
0
  0
LTYPE
  5
36
330
2
100
AcDbSymbolTableRecord
100
AcDbLinetypeTableRecord
  2
PHANTOMX2
 70
0
  3
Phantom (2x)____________    ____    ____    ____________
 72
65
 73
6
 40
10.795
 49
6.35
 74
0
 49
-0.635
 74
0
 49
1.27
 74
0
 49
-0.635
 74
0
 49
1.27
 74
0
 49
-0.635
 74
0
  0
LTYPE
  5
37
330
2
100
AcDbSymbolTableRecord
100
AcDbLinetypeTableRecord
  2
PHANTOM2
 70
0
  3
Phantom (.5x) ___ _ _ ___ _ _ ___ _ _ ___ _ _ ___
 72
65
 73
6
 40
3.175
 49
1.587
 74
0
 49
-0.318
 74
0
 49
0.318
 74
0
 49
-0.318
 74
0
 49
0.318
 74
0
 49
-0.318
 74
0
  0
LTYPE
  5
38
330
2
100
AcDbSymbolTableRecord
100
AcDbLinetypeTableRecord
  2
DASHDOT
 70
0
  3
Dash dot __ . __ . __ . __ . __ . __ . __ . __
 72
65
 73
4
 40
3.556
 49
2.54
 74
0
 49
-0.508
 74
0
 49
0.0
 74
0
 49
-0.508
 74
0
  0
LTYPE
  5
39
330
2
100
AcDbSymbolTableRecord
100
AcDbLinetypeTableRecord
  2
DASHDOTX2
 70
0
  3
Dash dot (2x) ____  .  ____  .  ____  .  ____
 72
65
 73
4
 40
6.096
 49
5.08
 74
0
 49
-0.508
 74
0
 49
0.0
 74
0
 49
-0.508
 74
0
  0
LTYPE
  5
3A
330
2
100
AcDbSymbolTableRecord
100
AcDbLinetypeTableRecord
  2
DASHDOT2
 70
0
  3
Dash dot (.5x) _ . _ . _ . _ . _ . _ . _ . _
 72
65
 73
4
 40
1.778
 49
1.27
 74
0
 49
-0.254
 74
0
 49
0.0
 74
0
 49
-0.254
 74
0
  0
LTYPE
  5
3B
330
2
100
AcDbSymbolTableRecord
100
AcDbLinetypeTableRecord
  2
DOT
 70
0
  3
Dot .  .  .  .  .  .  .  .  .  .  .  .  .  .  .  .
 72
65
 73
2
 40
0.508
 49
0.0
 74
0
 49
-0.508
 74
0
  0
LTYPE
  5
3C
330
2
100
AcDbSymbolTableRecord
100
AcDbLinetypeTableRecord
  2
DOTX2
 70
0
  3
Dot (2x) .    .    .    .    .    .    .    . 
 72
65
 73
2
 40
1.016
 49
0.0
 74
0
 49
-1.016
 74
0
  0
LTYPE
  5
3D
330
2
100
AcDbSymbolTableRecord
100
AcDbLinetypeTableRecord
  2
DOT2
 70
0
  3
Dot (.5) . . . . . . . . . . . . . . . . . . . 
 72
65
 73
2
 40
0.254
 49
0.0
 74
0
 49
-0.254
 74
0
  0
LTYPE
  5
3E
330
2
100
AcDbSymbolTableRecord
100
AcDbLinetypeTableRecord
  2
DIVIDE
 70
0
  3
Divide __ . . __ . . __ . . __ . . __ . . __
 72
65
 73
6
 40
4.064
 49
2.54
 74
0
 49
-0.508
 74
0
 49
0.0
 74
0
 49
-0.508
 74
0
 49
0.0
 74
0
 49
-0.508
 74
0
  0
LTYPE
  5
3F
330
2
100
AcDbSymbolTableRecord
100
AcDbLinetypeTableRecord
  2
DIVIDEX2
 70
0
  3
Divide (2x) ____  . .  ____  . .  ____  . .  ____
 72
65
 73
6
 40
6.604
 49
5.08
 74
0
 49
-0.508
 74
0
 49
0.0
 74
0
 49
-0.508
 74
0
 49
0.0
 74
0
 49
-0.508
 74
0
  0
LTYPE
  5
40
330
2
100
AcDbSymbolTableRecord
100
AcDbLinetypeTableRecord
  2
DIVIDE2
 70
0
  3
Divide(.5x) _ . _ . _ . _ . _ . _ . _ . _
 72
65
 73
6
 40
2.032
 49
1.27
 74
0
 49
-0.254
 74
0
 49
0.0
 74
0
 49
-0.254
 74
0
 49
0.0
 74
0
 49
-0.254
 74
0
  0
ENDTAB
  0
TABLE
  2
LAYER
  5
1
330
0
100
AcDbSymbolTable
 70
15
  0
LAYER
  5
27
330
1
100
AcDbSymbolTableRecord
100
AcDbLayerTableRecord
  2
0
 70
0
 62
7
  6
Continuous
370
-3
390
13
347
21
  0
LAYER
  5
28
330
1
100
AcDbSymbolTableRecord
100
AcDbLayerTableRecord
  2
Defpoints
 70
0
 62
7
  6
Continuous
290
0
370
-3
390
13
347
21
  0
LAYER
  5
8A
330
1
100
AcDbSymbolTableRecord
100
AcDbLayerTableRecord
  2
00_РАМКА
 70
0
 62
7
  6
CONTINUOUS
370
-3
390
13
347
21
  0
LAYER
  5
8B
330
1
100
AcDbSymbolTableRecord
100
AcDbLayerTableRecord
  2
01_ОБШИВКА
 70
0
 62
7
  6
CONTINUOUS
370
-3
390
13
347
21
  0
LAYER
  5
8C
330
1
100
AcDbSymbolTableRecord
100
AcDbLayerTableRecord
  2
02_ПАЛУБЫ
 70
0
 62
4
  6
CONTINUOUS
370
-3
390
13
347
21
  0
LAYER
  5
8D
330
1
100
AcDbSymbolTableRecord
100
AcDbLayerTableRecord
  2
03_ПЕРЕБОРКИ
 70
0
 62
1
  6
CONTINUOUS
370
-3
390
13
347
21
  0
LAYER
  5
8E
330
1
100
AcDbSymbolTableRecord
100
AcDbLayerTableRecord
  2
04_ЦИСТЕРНЫ
 70
0
 62
3
  6
CONTINUOUS
370
-3
390
13
347
21
  0
LAYER
  5
8F
330
1
100
AcDbSymbolTableRecord
100
AcDbLayerTableRecord
  2
05_ОБОРУДОВАНИЕ
 70
0
 62
5
  6
CONTINUOUS
370
-3
390
13
347
21
  0
LAYER
  5
90
330
1
100
AcDbSymbolTableRecord
100
AcDbLayerTableRecord
  2
06_ПОМЕЩЕНИЯ
 70
0
 62
8
  6
CONTINUOUS
370
-3
390
13
347
21
  0
LAYER
  5
91
330
1
100
AcDbSymbolTableRecord
100
AcDbLayerTableRecord
  2
07_ОСИ
 70
0
 62
2
  6
CENTER
370
-3
390
13
347
21
  0
LAYER
  5
92
330
1
100
AcDbSymbolTableRecord
100
AcDbLayerTableRecord
  2
08_ТЕКСТ
 70
0
 62
7
  6
CONTINUOUS
370
-3
390
13
347
21
  0
LAYER
  5
93
330
1
100
AcDbSymbolTableRecord
100
AcDbLayerTableRecord
  2
09_РАЗМЕРЫ
 70
0
 62
6
  6
CONTINUOUS
370
-3
390
13
347
21
  0
LAYER
  5
94
330
1
100
AcDbSymbolTableRecord
100
AcDbLayerTableRecord
  2
10_НАБОР
 70
0
 62
9
  6
CONTINUOUS
370
-3
390
13
347
21
  0
LAYER
  5
95
330
1
100
AcDbSymbolTableRecord
100
AcDbLayerTableRecord
  2
11_КАЮТЫ
 70
0
 62
30
  6
CONTINUOUS
370
-3
390
13
347
21
  0
LAYER
  5
96
330
1
100
AcDbSymbolTableRecord
100
AcDbLayerTableRecord
  2
12_ТРАПЫ_ЛИФТЫ
 70
0
 62
6
  6
CONTINUOUS
370
-3
390
13
347
21
  0
ENDTAB
  0
TABLE
  2
STYLE
  5
5
330
0
100
AcDbSymbolTable
 70
27
  0
STYLE
  5
29
330
5
100
AcDbSymbolTableRecord
100
AcDbTextStyleTableRecord
  2
Standard
 70
0
 40
0.0
 41
1.0
 50
0.0
 71
0
 42
2.5
  3
txt
  4

  0
STYLE
  5
41
330
5
100
AcDbSymbolTableRecord
100
AcDbTextStyleTableRecord
  2
OpenSans-Light
 70
0
 40
0.0
 41
1.0
 50
0.0
 71
0
 42
2.5
  3
OpenSans-Light.ttf
  4

  0
STYLE
  5
42
330
5
100
AcDbSymbolTableRecord
100
AcDbTextStyleTableRecord
  2
OpenSans-Light-Italic
 70
0
 40
0.0
 41
1.0
 50
0.0
 71
0
 42
2.5
  3
OpenSans-LightItalic.ttf
  4

  0
STYLE
  5
43
330
5
100
AcDbSymbolTableRecord
100
AcDbTextStyleTableRecord
  2
OpenSans
 70
0
 40
0.0
 41
1.0
 50
0.0
 71
0
 42
2.5
  3
OpenSans-Regular.ttf
  4

  0
STYLE
  5
44
330
5
100
AcDbSymbolTableRecord
100
AcDbTextStyleTableRecord
  2
OpenSans-Italic
 70
0
 40
0.0
 41
1.0
 50
0.0
 71
0
 42
2.5
  3
OpenSans-Italic.ttf
  4

  0
STYLE
  5
45
330
5
100
AcDbSymbolTableRecord
100
AcDbTextStyleTableRecord
  2
OpenSans-SemiBold
 70
0
 40
0.0
 41
1.0
 50
0.0
 71
0
 42
2.5
  3
OpenSans-SemiBold.ttf
  4

  0
STYLE
  5
46
330
5
100
AcDbSymbolTableRecord
100
AcDbTextStyleTableRecord
  2
OpenSans-SemiBoldItalic
 70
0
 40
0.0
 41
1.0
 50
0.0
 71
0
 42
2.5
  3
OpenSans-SemiBoldItalic.ttf
  4

  0
STYLE
  5
47
330
5
100
AcDbSymbolTableRecord
100
AcDbTextStyleTableRecord
  2
OpenSans-Bold
 70
0
 40
0.0
 41
1.0
 50
0.0
 71
0
 42
2.5
  3
OpenSans-Bold.ttf
  4

  0
STYLE
  5
48
330
5
100
AcDbSymbolTableRecord
100
AcDbTextStyleTableRecord
  2
OpenSans-BoldItalic
 70
0
 40
0.0
 41
1.0
 50
0.0
 71
0
 42
2.5
  3
OpenSans-BoldItalic.ttf
  4

  0
STYLE
  5
49
330
5
100
AcDbSymbolTableRecord
100
AcDbTextStyleTableRecord
  2
OpenSans-ExtraBold
 70
0
 40
0.0
 41
1.0
 50
0.0
 71
0
 42
2.5
  3
OpenSans-ExtraBold.ttf
  4

  0
STYLE
  5
4A
330
5
100
AcDbSymbolTableRecord
100
AcDbTextStyleTableRecord
  2
OpenSans-ExtraBoldItalic
 70
0
 40
0.0
 41
1.0
 50
0.0
 71
0
 42
2.5
  3
OpenSans-ExtraBoldItalic.ttf
  4

  0
STYLE
  5
4B
330
5
100
AcDbSymbolTableRecord
100
AcDbTextStyleTableRecord
  2
OpenSansCondensed-Bold
 70
0
 40
0.0
 41
1.0
 50
0.0
 71
0
 42
2.5
  3
OpenSansCondensed-Bold.ttf
  4

  0
STYLE
  5
4C
330
5
100
AcDbSymbolTableRecord
100
AcDbTextStyleTableRecord
  2
OpenSansCondensed-Light
 70
0
 40
0.0
 41
1.0
 50
0.0
 71
0
 42
2.5
  3
OpenSansCondensed-Light.ttf
  4

  0
STYLE
  5
4D
330
5
100
AcDbSymbolTableRecord
100
AcDbTextStyleTableRecord
  2
OpenSansCondensed-Italic
 70
0
 40
0.0
 41
1.0
 50
0.0
 71
0
 42
2.5
  3
OpenSansCondensed-LightItalic.ttf
  4

  0
STYLE
  5
4E
330
5
100
AcDbSymbolTableRecord
100
AcDbTextStyleTableRecord
  2
LiberationSans
 70
0
 40
0.0
 41
1.0
 50
0.0
 71
0
 42
2.5
  3
LiberationSans-Regular.ttf
  4

  0
STYLE
  5
4F
330
5
100
AcDbSymbolTableRecord
100
AcDbTextStyleTableRecord
  2
LiberationSans-Bold
 70
0
 40
0.0
 41
1.0
 50
0.0
 71
0
 42
2.5
  3
LiberationSans-Bold.ttf
  4

  0
STYLE
  5
50
330
5
100
AcDbSymbolTableRecord
100
AcDbTextStyleTableRecord
  2
LiberationSans-BoldItalic
 70
0
 40
0.0
 41
1.0
 50
0.0
 71
0
 42
2.5
  3
LiberationSans-BoldItalic.ttf
  4

  0
STYLE
  5
51
330
5
100
AcDbSymbolTableRecord
100
AcDbTextStyleTableRecord
  2
LiberationSans-Italic
 70
0
 40
0.0
 41
1.0
 50
0.0
 71
0
 42
2.5
  3
LiberationSans-Italic.ttf
  4

  0
STYLE
  5
52
330
5
100
AcDbSymbolTableRecord
100
AcDbTextStyleTableRecord
  2
LiberationSerif
 70
0
 40
0.0
 41
1.0
 50
0.0
 71
0
 42
2.5
  3
LiberationSerif-Regular.ttf
  4

  0
STYLE
  5
53
330
5
100
AcDbSymbolTableRecord
100
AcDbTextStyleTableRecord
  2
LiberationSerif-Bold
 70
0
 40
0.0
 41
1.0
 50
0.0
 71
0
 42
2.5
  3
LiberationSerif-Bold.ttf
  4

  0
STYLE
  5
54
330
5
100
AcDbSymbolTableRecord
100
AcDbTextStyleTableRecord
  2
LiberationSerif-BoldItalic
 70
0
 40
0.0
 41
1.0
 50
0.0
 71
0
 42
2.5
  3
LiberationSerif-BoldItalic.ttf
  4

  0
STYLE
  5
55
330
5
100
AcDbSymbolTableRecord
100
AcDbTextStyleTableRecord
  2
LiberationSerif-Italic
 70
0
 40
0.0
 41
1.0
 50
0.0
 71
0
 42
2.5
  3
LiberationSerif-Italic.ttf
  4

  0
STYLE
  5
56
330
5
100
AcDbSymbolTableRecord
100
AcDbTextStyleTableRecord
  2
LiberationMono
 70
0
 40
0.0
 41
1.0
 50
0.0
 71
0
 42
2.5
  3
LiberationMono-Regular.ttf
  4

  0
STYLE
  5
57
330
5
100
AcDbSymbolTableRecord
100
AcDbTextStyleTableRecord
  2
LiberationMono-Bold
 70
0
 40
0.0
 41
1.0
 50
0.0
 71
0
 42
2.5
  3
LiberationMono-Bold.ttf
  4

  0
STYLE
  5
58
330
5
100
AcDbSymbolTableRecord
100
AcDbTextStyleTableRecord
  2
LiberationMono-BoldItalic
 70
0
 40
0.0
 41
1.0
 50
0.0
 71
0
 42
2.5
  3
LiberationMono-BoldItalic.ttf
  4

  0
STYLE
  5
59
330
5
100
AcDbSymbolTableRecord
100
AcDbTextStyleTableRecord
  2
LiberationMono-Italic
 70
0
 40
0.0
 41
1.0
 50
0.0
 71
0
 42
2.5
  3
LiberationMono-Italic.ttf
  4

  0
STYLE
  5
97
330
5
100
AcDbSymbolTableRecord
100
AcDbTextStyleTableRecord
  2
ГОСТ
 70
0
 40
0.0
 41
1.0
 50
0.0
 71
0
 42
2.5
  3
ISOCPEUR.TTF
  4

  0
ENDTAB
  0
TABLE
  2
VIEW
  5
7
330
0
100
AcDbSymbolTable
 70
0
  0
ENDTAB
  0
TABLE
  2
UCS
  5
6
330
0
100
AcDbSymbolTable
 70
0
  0
ENDTAB
  0
TABLE
  2
APPID
  5
3
330
0
100
AcDbSymbolTable
 70
3
  0
APPID
  5
2A
330
3
100
AcDbSymbolTableRecord
100
AcDbRegAppTableRecord
  2
ACAD
 70
0
  0
APPID
  5
165
330
3
100
AcDbSymbolTableRecord
100
AcDbRegAppTableRecord
  2
HATCHBACKGROUNDCOLOR
 70
0
  0
APPID
  5
166
330
3
100
AcDbSymbolTableRecord
100
AcDbRegAppTableRecord
  2
EZDXF
 70
0
  0
ENDTAB
  0
TABLE
  2
DIMSTYLE
  5
4
330
0
100
AcDbSymbolTable
 70
12
100
AcDbDimStyleTable
  0
DIMSTYLE
105
2B
330
4
100
AcDbSymbolTableRecord
100
AcDbDimStyleTableRecord
  2
Standard
 70
0
 40
1.0
 41
2.5
 42
0.625
 43
3.75
 44
1.25
 45
0.0
 46
0.0
 47
0.0
 48
0.0
 49
2.5
140
2.5
141
2.5
142
0.0
143
0.03937007874
144
1.0
145
0.0
146
1.0
147
0.625
148
0.0
 69
0
 70
0
 71
0
 72
0
 73
0
 74
0
 75
0
 76
0
 77
1
 78
8
 79
3
170
0
171
3
172
1
173
0
174
0
175
0
176
0
177
0
178
0
179
2
271
2
272
2
273
2
274
3
275
0
276
0
277
2
278
44
279
0
280
0
281
0
282
0
283
0
284
8
285
0
286
0
288
0
289
3
290
0
371
-2
372
-2
  0
DIMSTYLE
105
73
330
4
100
AcDbSymbolTableRecord
100
AcDbDimStyleTableRecord
  2
EZDXF
 70
0
 40
1.0
 41
0.175
 42
0.125
 43
3.75
 44
0.375
 45
0.0
 46
0.0
 47
0.0
 48
0.0
 49
2.5
140
0.25
141
2.5
142
0.0
143
0.03937007874
144
100.0
145
0.0
146
0.5
147
0.1
148
0.0
 69
0
 70
0
 71
0
 72
0
 73
0
 74
0
 75
0
 76
0
 77
1
 78
12
 79
3
170
0
171
3
172
1
173
0
174
0
175
0
176
0
177
0
178
0
179
2
271
2
272
2
273
2
274
3
275
0
276
0
277
2
278
46
279
2
280
0
281
0
282
0
283
0
284
8
285
0
286
0
288
1
289
3
290
0
340
4C
342
74
371
-2
372
-2
  0
DIMSTYLE
105
7C
330
4
100
AcDbSymbolTableRecord
100
AcDbDimStyleTableRecord
  2
EZ_M_100_H25_CM
 70
0
 40
1.0
 41
0.25
 42
0.125
 43
3.75
 44
0.375
 45
0.0
 46
0.0
 47
0.0
 48
0.0
 49
2.5
140
0.25
141
2.5
142
0.125
143
0.03937007874
144
100.0
145
0.0
146
0.5
147
0.1
148
0.0
 69
0
 70
0
 71
0
 72
0
 73
0
 74
0
 75
0
 76
0
 77
1
 78
12
 79
3
170
0
171
3
172
1
173
0
174
0
175
0
176
0
177
0
178
0
179
2
271
2
272
2
273
2
274
3
275
0
276
0
277
2
278
46
279
2
280
0
281
0
282
0
283
0
284
8
285
0
286
0
288
1
289
3
290
0
340
4C
371
-2
372
-2
  0
DIMSTYLE
105
7D
330
4
100
AcDbSymbolTableRecord
100
AcDbDimStyleTableRecord
  2
EZ_M_50_H25_CM
 70
0
 40
1.0
 41
0.125
 42
0.0625
 43
3.75
 44
0.1875
 45
0.0
 46
0.0
 47
0.0
 48
0.0
 49
2.5
140
0.125
141
2.5
142
0.0625
143
0.03937007874
144
100.0
145
0.0
146
0.5
147
0.05
148
0.0
 69
0
 70
0
 71
0
 72
0
 73
0
 74
0
 75
0
 76
0
 77
1
 78
12
 79
3
170
0
171
3
172
1
173
0
174
0
175
0
176
0
177
0
178
0
179
2
271
2
272
2
273
2
274
3
275
0
276
0
277
2
278
46
279
2
280
0
281
0
282
0
283
0
284
8
285
0
286
0
288
1
289
3
290
0
340
4C
371
-2
372
-2
  0
DIMSTYLE
105
7E
330
4
100
AcDbSymbolTableRecord
100
AcDbDimStyleTableRecord
  2
EZ_M_25_H25_CM
 70
0
 40
1.0
 41
0.0625
 42
0.03125
 43
3.75
 44
0.09375
 45
0.0
 46
0.0
 47
0.0
 48
0.0
 49
2.5
140
0.0625
141
2.5
142
0.03125
143
0.03937007874
144
100.0
145
0.0
146
0.5
147
0.025
148
0.0
 69
0
 70
0
 71
0
 72
0
 73
0
 74
0
 75
0
 76
0
 77
1
 78
12
 79
3
170
0
171
3
172
1
173
0
174
0
175
0
176
0
177
0
178
0
179
2
271
2
272
2
273
2
274
3
275
0
276
0
277
2
278
46
279
2
280
0
281
0
282
0
283
0
284
8
285
0
286
0
288
1
289
3
290
0
340
4C
371
-2
372
-2
  0
DIMSTYLE
105
7F
330
4
100
AcDbSymbolTableRecord
100
AcDbDimStyleTableRecord
  2
EZ_M_20_H25_CM
 70
0
 40
1.0
 41
0.05
 42
0.025
 43
3.75
 44
0.07500000000000001
 45
0.0
 46
0.0
 47
0.0
 48
0.0
 49
2.5
140
0.05
141
2.5
142
0.025
143
0.03937007874
144
100.0
145
0.0
146
0.5
147
0.020000000000000004
148
0.0
 69
0
 70
0
 71
0
 72
0
 73
0
 74
0
 75
0
 76
0
 77
1
 78
12
 79
3
170
0
171
3
172
1
173
0
174
0
175
0
176
0
177
0
178
0
179
2
271
2
272
2
273
2
274
3
275
0
276
0
277
2
278
46
279
2
280
0
281
0
282
0
283
0
284
8
285
0
286
0
288
1
289
3
290
0
340
4C
371
-2
372
-2
  0
DIMSTYLE
105
80
330
4
100
AcDbSymbolTableRecord
100
AcDbDimStyleTableRecord
  2
EZ_M_10_H25_CM
 70
0
 40
1.0
 41
0.025
 42
0.0125
 43
3.75
 44
0.037500000000000006
 45
0.0
 46
0.0
 47
0.0
 48
0.0
 49
2.5
140
0.025
141
2.5
142
0.0125
143
0.03937007874
144
100.0
145
0.0
146
0.5
147
0.010000000000000002
148
0.0
 69
0
 70
0
 71
0
 72
0
 73
0
 74
0
 75
0
 76
0
 77
1
 78
12
 79
3
170
0
171
3
172
1
173
0
174
0
175
0
176
0
177
0
178
0
179
2
271
2
272
2
273
2
274
3
275
0
276
0
277
2
278
46
279
2
280
0
281
0
282
0
283
0
284
8
285
0
286
0
288
1
289
3
290
0
340
4C
371
-2
372
-2
  0
DIMSTYLE
105
81
330
4
100
AcDbSymbolTableRecord
100
AcDbDimStyleTableRecord
  2
EZ_M_5_H25_CM
 70
0
 40
1.0
 41
0.0125
 42
0.00625
 43
3.75
 44
0.018750000000000003
 45
0.0
 46
0.0
 47
0.0
 48
0.0
 49
2.5
140
0.0125
141
2.5
142
0.00625
143
0.03937007874
144
100.0
145
0.0
146
0.5
147
0.005000000000000001
148
0.0
 69
0
 70
0
 71
0
 72
0
 73
0
 74
0
 75
0
 76
0
 77
1
 78
12
 79
3
170
0
171
3
172
1
173
0
174
0
175
0
176
0
177
0
178
0
179
2
271
2
272
2
273
2
274
3
275
0
276
0
277
2
278
46
279
2
280
0
281
0
282
0
283
0
284
8
285
0
286
0
288
1
289
3
290
0
340
4C
371
-2
372
-2
  0
DIMSTYLE
105
82
330
4
100
AcDbSymbolTableRecord
100
AcDbDimStyleTableRecord
  2
EZ_M_1_H25_CM
 70
0
 40
1.0
 41
0.0025
 42
0.00125
 43
3.75
 44
0.00375
 45
0.0
 46
0.0
 47
0.0
 48
0.0
 49
2.5
140
0.0025
141
2.5
142
0.00125
143
0.03937007874
144
100.0
145
0.0
146
0.5
147
0.001
148
0.0
 69
0
 70
0
 71
0
 72
0
 73
0
 74
0
 75
0
 76
0
 77
1
 78
12
 79
3
170
0
171
3
172
1
173
0
174
0
175
0
176
0
177
0
178
0
179
2
271
2
272
2
273
2
274
3
275
0
276
0
277
2
278
46
279
2
280
0
281
0
282
0
283
0
284
8
285
0
286
0
288
1
289
3
290
0
340
4C
371
-2
372
-2
  0
DIMSTYLE
105
83
330
4
100
AcDbSymbolTableRecord
100
AcDbDimStyleTableRecord
  2
EZ_RADIUS
 70
0
 40
1.0
 41
0.25
 42
0.125
 43
3.75
 44
0.375
 45
0.0
 46
0.0
 47
0.0
 48
0.0
 49
2.5
140
0.25
141
0.0
142
0.0
143
0.03937007874
144
100.0
145
0.0
146
0.5
147
0.1
148
0.0
 69
0
 70
0
 71
0
 72
0
 73
0
 74
0
 75
0
 76
0
 77
1
 78
12
 79
3
170
0
171
3
172
0
173
0
174
0
175
0
176
0
177
0
178
0
179
2
271
2
272
2
273
2
274
3
275
0
276
0
277
2
278
46
279
1
280
0
281
0
282
0
283
0
284
8
285
0
286
0
288
1
289
3
290
0
340
4C
342
84
371
-2
372
-2
  0
DIMSTYLE
105
88
330
4
100
AcDbSymbolTableRecord
100
AcDbDimStyleTableRecord
  2
EZ_RADIUS_INSIDE
 70
0
 40
1.0
 41
0.25
 42
0.125
 43
3.75
 44
0.375
 45
0.0
 46
0.0
 47
0.0
 48
0.0
 49
2.5
140
0.25
141
0.0
142
0.0
143
0.03937007874
144
100.0
145
0.0
146
0.5
147
0.1
148
0.0
 69
0
 70
0
 71
0
 72
0
 73
0
 74
0
 75
0
 76
0
 77
0
 78
12
 79
3
170
0
171
3
172
0
173
0
174
1
175
0
176
0
177
0
178
0
179
2
271
2
272
2
273
2
274
3
275
0
276
0
277
2
278
46
279
0
280
0
281
0
282
0
283
0
284
8
285
0
286
0
288
1
289
0
290
0
340
4C
342
84
371
-2
372
-2
  0
DIMSTYLE
105
89
330
4
100
AcDbSymbolTableRecord
100
AcDbDimStyleTableRecord
  2
EZ_CURVED
 70
0
 40
1.0
 41
0.25
 42
0.125
 43
3.75
 44
0.375
 45
0.0
 46
0.0
 47
0.0
 48
0.0
 49
2.5
140
0.25
141
2.5
142
0.0
143
0.03937007874
144
100.0
145
0.0
146
0.5
147
0.1
148
0.0
 69
0
 70
0
 71
0
 72
0
 73
0
 74
0
 75
0
 76
0
 77
1
 78
12
 79
2
 90
2
170
0
171
3
172
1
173
0
174
0
175
0
176
0
177
0
178
0
179
2
271
2
272
2
273
2
274
3
275
0
276
0
277
2
278
46
279
2
280
0
281
0
282
0
283
0
284
8
285
0
286
0
288
1
289
3
290
0
340
4C
371
-2
372
-2
  0
ENDTAB
  0
TABLE
  2
BLOCK_RECORD
  5
9
330
0
100
AcDbSymbolTable
 70
5
  0
BLOCK_RECORD
  5
17
330
9
100
AcDbSymbolTableRecord
100
AcDbBlockTableRecord
  2
*Model_Space
340
1A
 70
0
280
1
281
0
  0
BLOCK_RECORD
  5
1B
330
9
100
AcDbSymbolTableRecord
100
AcDbBlockTableRecord
  2
*Paper_Space
340
1E
 70
0
280
1
281
0
  0
BLOCK_RECORD
  5
74
330
9
100
AcDbSymbolTableRecord
100
AcDbBlockTableRecord
  2
_ARCHTICK
340
0
 70
0
280
1
281
0
  0
BLOCK_RECORD
  5
78
330
9
100
AcDbSymbolTableRecord
100
AcDbBlockTableRecord
  2
_CLOSEDFILLED
340
0
 70
0
280
1
281
0
  0
BLOCK_RECORD
  5
84
330
9
100
AcDbSymbolTableRecord
100
AcDbBlockTableRecord
  2
_CLOSEDBLANK
340
0
 70
0
280
1
281
0
  0
ENDTAB
  0
ENDSEC
  0
SECTION
  2
BLOCKS
  0
BLOCK
  5
18
330
17
100
AcDbEntity
  8
0
100
AcDbBlockBegin
  2
*Model_Space
 70
0
 10
0.0
 20
0.0
 30
0.0
  3
*Model_Space
  1

  0
ENDBLK
  5
19
330
17
100
AcDbEntity
  8
0
100
AcDbBlockEnd
  0
BLOCK
  5
1C
330
1B
100
AcDbEntity
  8
0
100
AcDbBlockBegin
  2
*Paper_Space
 70
0
 10
0.0
 20
0.0
 30
0.0
  3
*Paper_Space
  1

  0
ENDBLK
  5
1D
330
1B
100
AcDbEntity
  8
0
100
AcDbBlockEnd
  0
BLOCK
  5
75
330
74
100
AcDbEntity
  8
0
100
AcDbBlockBegin
  2
_ARCHTICK
 70
0
 10
0.0
 20
0.0
 30
0.0
  3
_ARCHTICK
  1

  0
LWPOLYLINE
  5
77
330
74
100
AcDbEntity
  8
0
  6
BYBLOCK
 62
0
100
AcDbPolyline
 90
2
 70
0
 43
0.15
 10
-0.5
 20
-0.5
 10
0.5
 20
0.5
  0
ENDBLK
  5
76
330
74
100
AcDbEntity
  8
0
100
AcDbBlockEnd
  0
BLOCK
  5
79
330
78
100
AcDbEntity
  8
0
100
AcDbBlockBegin
  2
_CLOSEDFILLED
 70
0
 10
0.0
 20
0.0
 30
0.0
  3
_CLOSEDFILLED
  1

  0
SOLID
  5
7B
330
78
100
AcDbEntity
  8
0
  6
BYBLOCK
 62
0
100
AcDbTrace
 10
-1.0
 20
0.16439898372402537
 30
0.0
 11
0.0
 21
0.0
 31
0.0
 12
-1.0
 22
-0.16439898372402537
 32
0.0
 13
-1.0
 23
-0.16439898372402537
 33
0.0
  0
ENDBLK
  5
7A
330
78
100
AcDbEntity
  8
0
100
AcDbBlockEnd
  0
BLOCK
  5
85
330
84
100
AcDbEntity
  8
0
100
AcDbBlockBegin
  2
_CLOSEDBLANK
 70
0
 10
0.0
 20
0.0
 30
0.0
  3
_CLOSEDBLANK
  1

  0
LWPOLYLINE
  5
87
330
84
100
AcDbEntity
  8
0
  6
BYBLOCK
 62
0
100
AcDbPolyline
 90
3
 70
1
 10
-1.0
 20
0.16439898372402537
 10
0.0
 20
0.0
 10
-1.0
 20
-0.16439898372402537
  0
ENDBLK
  5
86
330
84
100
AcDbEntity
  8
0
100
AcDbBlockEnd
  0
ENDSEC
  0
SECTION
  2
ENTITIES
  0
LWPOLYLINE
  5
98
330
17
100
AcDbEntity
  8
01_ОБШИВКА
100
AcDbPolyline
 90
279
 70
0
 10
0.0
 20
1250.0
 10
500.0
 20
1189.1790365442957
 10
1000.0
 20
1130.4285028693234
 10
1500.0
 20
1073.9212505600572
 10
2000.0
 20
1019.830131201469
 10
2500.0
 20
968.3279963785342
 10
3000.0
 20
919.587697676225
 10
3500.0
 20
873.7819730042721
 10
4000.0
 20
830.9131829842729
 10
4500.0
 20
790.5550704188958
 10
5000.0
 20
752.2236095774591
 10
5500.0
 20
715.4347747292809
 10
6000.0
 20
679.7045401436797
 10
6500.0
 20
644.5488800899734
 10
7000.0
 20
609.4781660213044
 10
7500.0
 20
573.6351591597088
 10
8000.0
 20
537.3169651413803
 10
8500.0
 20
501.4672570531702
 10
9000.0
 20
467.02970798192956
 10
9500.0
 20
434.9479910145094
 10
10000.0
 20
406.16577923776094
 10
10500.0
 20
381.5980482359491
 10
11000.0
 20
360.28140528896506
 10
11500.0
 20
341.0153791182199
 10
12000.0
 20
323.35362594126286
 10
12500.0
 20
306.8498019756431
 10
13000.0
 20
291.05756343890965
 10
13500.0
 20
275.5305665486117
 10
14000.0
 20
259.82246556349645
 10
14500.0
 20
243.6369104149384
 10
15000.0
 20
227.08607652063222
 10
15500.0
 20
210.34886324101308
 10
16000.0
 20
193.604169936516
 10
16500.0
 20
177.03089596757624
 10
17000.0
 20
160.80794069462877
 10
17500.0
 20
145.11420347810878
 10
18000.0
 20
130.12858367845132
 10
18500.0
 20
116.0299806560916
 10
19000.0
 20
102.9972937714646
 10
19500.0
 20
91.20942238500562
 10
20000.0
 20
80.84526585714966
 10
20500.0
 20
72.08372354833182
 10
21000.0
 20
65.02482990760858
 10
21500.0
 20
58.56259024539178
 10
22000.0
 20
52.31421981356723
 10
22500.0
 20
46.31454340277084
 10
23000.0
 20
40.59838580363861
 10
23500.0
 20
35.20057180680652
 10
24000.0
 20
30.155926202910518
 10
24500.0
 20
25.499273782586602
 10
25000.0
 20
21.265439336470727
 10
25500.0
 20
17.489247655198856
 10
26000.0
 20
14.205523529406967
 10
26500.0
 20
11.449091749731029
 10
27000.0
 20
9.254777106807024
 10
27500.0
 20
7.657404391270926
 10
28000.0
 20
6.642623116215022
 10
28500.0
 20
5.780078144579394
 10
29000.0
 20
4.964286340101821
 10
29500.0
 20
4.198515522753412
 10
30000.0
 20
3.486033512505273
 10
30500.0
 20
2.830108129328511
 10
31000.0
 20
2.2340071931942336
 10
31500.0
 20
1.7009985240735492
 10
32000.0
 20
1.2343499419375628
 10
32500.0
 20
0.8373292667573847
 10
33000.0
 20
0.5132043185041203
 10
33500.0
 20
0.265242917148876
 10
34000.0
 20
0.09671288266275917
 10
34500.0
 20
0.01088203501688006
 10
35000.0
 20
0.0
 10
35500.0
 20
0.0
 10
36000.0
 20
0.0
 10
36500.0
 20
0.0
 10
37000.0
 20
0.0
 10
37500.0
 20
0.0
 10
38000.0
 20
0.0
 10
38500.0
 20
0.0
 10
39000.0
 20
0.0
 10
39500.0
 20
0.0
 10
40000.0
 20
0.0
 10
40500.0
 20
0.0
 10
41000.0
 20
0.0
 10
41500.0
 20
0.0
 10
42000.0
 20
0.0
 10
42500.0
 20
0.0
 10
43000.0
 20
0.0
 10
43500.0
 20
0.0
 10
44000.0
 20
0.0
 10
44500.0
 20
0.0
 10
45000.0
 20
0.0
 10
45500.0
 20
0.0
 10
46000.0
 20
0.0
 10
46500.0
 20
0.0
 10
47000.0
 20
0.0
 10
47500.0
 20
0.0
 10
48000.0
 20
0.0
 10
48500.0
 20
0.0
 10
49000.0
 20
0.0
 10
49500.0
 20
0.0
 10
50000.0
 20
0.0
 10
50500.0
 20
0.0
 10
51000.0
 20
0.0
 10
51500.0
 20
0.0
 10
52000.0
 20
0.0
 10
52500.0
 20
0.0
 10
53000.0
 20
0.0
 10
53500.0
 20
0.0
 10
54000.0
 20
0.0
 10
54500.0
 20
0.0
 10
55000.0
 20
0.0
 10
55500.0
 20
0.0
 10
56000.0
 20
0.0
 10
56500.0
 20
0.0
 10
57000.0
 20
0.0
 10
57500.0
 20
0.0
 10
58000.0
 20
0.0
 10
58500.0
 20
0.0
 10
59000.0
 20
0.0
 10
59500.0
 20
0.0
 10
60000.0
 20
0.0
 10
60500.0
 20
0.0
 10
61000.0
 20
0.0
 10
61500.0
 20
0.0
 10
62000.0
 20
0.0
 10
62500.0
 20
0.0
 10
63000.0
 20
0.0
 10
63500.0
 20
0.0
 10
64000.0
 20
0.0
 10
64500.0
 20
0.0
 10
65000.0
 20
0.0
 10
65500.0
 20
0.0
 10
66000.0
 20
0.0
 10
66500.0
 20
0.0
 10
67000.0
 20
0.0
 10
67500.0
 20
0.0
 10
68000.0
 20
0.0
 10
68500.0
 20
0.0
 10
69000.0
 20
0.0
 10
69500.0
 20
0.0
 10
70000.0
 20
0.0
 10
70500.0
 20
0.0
 10
71000.0
 20
0.0
 10
71500.0
 20
0.0
 10
72000.0
 20
0.0
 10
72500.0
 20
0.0
 10
73000.0
 20
0.0
 10
73500.0
 20
0.0
 10
74000.0
 20
0.0
 10
74500.0
 20
0.0
 10
75000.0
 20
0.0
 10
75500.0
 20
0.0
 10
76000.0
 20
0.0
 10
76500.0
 20
0.0
 10
77000.0
 20
0.0
 10
77500.0
 20
0.0
 10
78000.0
 20
0.0
 10
78500.0
 20
0.0
 10
79000.0
 20
0.0
 10
79500.0
 20
0.0
 10
80000.0
 20
0.0
 10
80500.0
 20
0.0
 10
81000.0
 20
0.0
 10
81500.0
 20
0.0
 10
82000.0
 20
0.0
 10
82500.0
 20
0.0
 10
83000.0
 20
0.0
 10
83500.0
 20
0.00023423526072261088
 10
84000.0
 20
0.008360977487871383
 10
84500.0
 20
0.027861882121030378
 10
85000.0
 20
0.05843906625126877
 10
85500.0
 20
0.0997946469696556
 10
86000.0
 20
0.15163074136726012
 10
86500.0
 20
0.2136494665351513
 10
87000.0
 20
0.28555293956439853
 10
87500.0
 20
0.3670432775460706
 10
88000.0
 20
0.457822597571237
 10
88500.0
 20
0.5575930167309667
 10
89000.0
 20
0.6660566521163287
 10
89500.0
 20
0.7829156208183924
 10
90000.0
 20
0.9078720399282266
 10
90500.0
 20
1.0474396640617676
 10
91000.0
 20
1.3068059209166774
 10
91500.0
 20
1.7162795563946065
 10
92000.0
 20
2.268507566059314
 10
92500.0
 20
2.9561369454745594
 10
93000.0
 20
3.771814690204102
 10
93500.0
 20
4.708187795811701
 10
94000.0
 20
5.7579032578611145
 10
94500.0
 20
6.913608071916105
 10
95000.0
 20
8.167949233540424
 10
95500.0
 20
9.51357373829784
 10
96000.0
 20
10.943128581752106
 10
96500.0
 20
12.44926075946699
 10
97000.0
 20
14.024617267006235
 10
97500.0
 20
15.705734310668875
 10
98000.0
 20
17.87913540548307
 10
98500.0
 20
20.601403702657134
 10
99000.0
 20
23.828149422744424
 10
99500.0
 20
27.514982786298276
 10
100000.0
 20
31.617514013872068
 10
100500.0
 20
36.091353326019146
 10
101000.0
 20
40.89211094329286
 10
101500.0
 20
45.975397086246566
 10
102000.0
 20
51.29682197543366
 10
102500.0
 20
56.81199583140742
 10
103000.0
 20
62.476528874721254
 10
103500.0
 20
68.24603132592851
 10
104000.0
 20
74.07611340558253
 10
104500.0
 20
79.94650922923884
 10
105000.0
 20
85.99104525649244
 10
105500.0
 20
92.27499737930556
 10
106000.0
 20
98.84323680230806
 10
106500.0
 20
105.74063473012987
 10
107000.0
 20
113.01206236740092
 10
107500.0
 20
120.70239091875108
 10
108000.0
 20
128.85649158881023
 10
108500.0
 20
137.51923558220838
 10
109000.0
 20
146.73549410357535
 10
109500.0
 20
156.55013835754102
 10
110000.0
 20
167.00803954873535
 10
110500.0
 20
178.1540688817882
 10
111000.0
 20
190.03309756132958
 10
111500.0
 20
202.9697600124459
 10
112000.0
 20
218.074477837549
 10
112500.0
 20
235.32349670344777
 10
113000.0
 20
254.5634363624642
 10
113500.0
 20
275.6409165669204
 10
114000.0
 20
298.4025570691387
 10
114500.0
 20
322.6949776214409
 10
115000.0
 20
348.36479797614936
 10
115500.0
 20
375.25863788558615
 10
116000.0
 20
403.22311710207333
 10
116500.0
 20
432.10485537793295
 10
117000.0
 20
461.7504724654874
 10
117500.0
 20
492.00658811705847
 10
118000.0
 20
522.7198220849684
 10
118500.0
 20
554.1979169232449
 10
119000.0
 20
587.6548353993375
 10
119500.0
 20
623.0853449258732
 10
120000.0
 20
660.4004831592376
 10
120500.0
 20
699.5112877558154
 10
121000.0
 20
740.3287963719924
 10
121500.0
 20
782.7640466641534
 10
122000.0
 20
826.7280762886837
 10
122500.0
 20
872.1319229019684
 10
123000.0
 20
918.8866241603928
 10
123500.0
 20
966.9032177203418
 10
124000.0
 20
1016.092741238201
 10
124500.0
 20
1066.3662323703554
 10
125000.0
 20
1117.63472877319
 10
125500.0
 20
1170.8679514361304
 10
126000.0
 20
1227.9075293914334
 10
126500.0
 20
1288.265377796636
 10
127000.0
 20
1351.3841213478931
 10
127500.0
 20
1416.7063847413604
 10
128000.0
 20
1483.6747926731912
 10
128500.0
 20
1551.7319698395409
 10
129000.0
 20
1621.5832014373243
 10
129500.0
 20
1694.7128691508708
 10
130000.0
 20
1770.338293943727
 10
130500.0
 20
1847.6364790918237
 10
131000.0
 20
1925.7844278710922
 10
131500.0
 20
2003.9591435574628
 10
132000.0
 20
2081.3376294268674
 10
132500.0
 20
2157.2742329634984
 10
133000.0
 20
2232.212492063102
 10
133500.0
 20
2307.0044543280633
 10
134000.0
 20
2382.502770672157
 10
134500.0
 20
2459.560092009159
 10
135000.0
 20
2539.0290692528442
 10
135500.0
 20
2621.762353316989
 10
136000.0
 20
2707.906848090125
 10
136500.0
 20
2796.8534620732485
 10
137000.0
 20
2888.4979250284105
 10
137500.0
 20
2982.7375236271387
 10
138000.0
 20
3079.4695445409616
 10
138500.0
 20
3178.591274441406
 10
139000.0
 20
3280.0
  0
LWPOLYLINE
  5
99
330
17
100
AcDbEntity
  8
01_ОБШИВКА
100
AcDbPolyline
 90
279
 70
0
 10
0.0
 20
4200.0
 10
500.0
 20
4200.0
 10
1000.0
 20
4200.0
 10
1500.0
 20
4200.0
 10
2000.0
 20
4200.0
 10
2500.0
 20
4200.0
 10
3000.0
 20
4200.0
 10
3500.0
 20
4200.0
 10
4000.0
 20
4200.0
 10
4500.0
 20
4200.0
 10
5000.0
 20
4200.0
 10
5500.0
 20
4200.0
 10
6000.0
 20
4200.0
 10
6500.0
 20
4200.0
 10
7000.0
 20
4200.0
 10
7500.0
 20
4200.0
 10
8000.0
 20
4200.0
 10
8500.0
 20
4200.0
 10
9000.0
 20
4200.0
 10
9500.0
 20
4200.0
 10
10000.0
 20
4200.0
 10
10500.0
 20
4200.0
 10
11000.0
 20
4200.0
 10
11500.0
 20
4200.0
 10
12000.0
 20
4200.0
 10
12500.0
 20
4200.0
 10
13000.0
 20
4200.0
 10
13500.0
 20
4200.0
 10
14000.0
 20
4200.0
 10
14500.0
 20
4200.0
 10
15000.0
 20
4200.0
 10
15500.0
 20
4200.0
 10
16000.0
 20
4200.0
 10
16500.0
 20
4200.0
 10
17000.0
 20
4200.0
 10
17500.0
 20
4200.0
 10
18000.0
 20
4200.0
 10
18500.0
 20
4200.0
 10
19000.0
 20
4200.0
 10
19500.0
 20
4200.0
 10
20000.0
 20
4200.0
 10
20500.0
 20
4200.0
 10
21000.0
 20
4200.0
 10
21500.0
 20
4200.0
 10
22000.0
 20
4200.0
 10
22500.0
 20
4200.0
 10
23000.0
 20
4200.0
 10
23500.0
 20
4200.000000000001
 10
24000.0
 20
4200.0
 10
24500.0
 20
4200.0
 10
25000.0
 20
4200.0
 10
25500.0
 20
4200.0
 10
26000.0
 20
4200.0
 10
26500.0
 20
4200.0
 10
27000.0
 20
4200.0
 10
27500.0
 20
4200.0
 10
28000.0
 20
4200.0
 10
28500.0
 20
4200.000000000001
 10
29000.0
 20
4200.0
 10
29500.0
 20
4200.0
 10
30000.0
 20
4200.0
 10
30500.0
 20
4200.0
 10
31000.0
 20
4200.0
 10
31500.0
 20
4200.0
 10
32000.0
 20
4200.0
 10
32500.0
 20
4200.0
 10
33000.0
 20
4200.0
 10
33500.0
 20
4200.0
 10
34000.0
 20
4200.0
 10
34500.0
 20
4200.0
 10
35000.0
 20
4199.999999999999
 10
35500.0
 20
4200.0
 10
36000.0
 20
4200.0
 10
36500.0
 20
4200.0
 10
37000.0
 20
4200.0
 10
37500.0
 20
4200.0
 10
38000.0
 20
4200.0
 10
38500.0
 20
4200.0
 10
39000.0
 20
4200.0
 10
39500.0
 20
4200.0
 10
40000.0
 20
4200.0
 10
40500.0
 20
4200.0
 10
41000.0
 20
4200.0
 10
41500.0
 20
4200.0
 10
42000.0
 20
4199.999999999999
 10
42500.0
 20
4200.0
 10
43000.0
 20
4200.0
 10
43500.0
 20
4200.0
 10
44000.0
 20
4200.0
 10
44500.0
 20
4200.0
 10
45000.0
 20
4200.0
 10
45500.0
 20
4200.0
 10
46000.0
 20
4200.0
 10
46500.0
 20
4200.0
 10
47000.0
 20
4200.0
 10
47500.0
 20
4200.0
 10
48000.0
 20
4200.0
 10
48500.0
 20
4200.0
 10
49000.0
 20
4200.0
 10
49500.0
 20
4200.0
 10
50000.0
 20
4200.0
 10
50500.0
 20
4200.0
 10
51000.0
 20
4200.0
 10
51500.0
 20
4200.0
 10
52000.0
 20
4200.0
 10
52500.0
 20
4200.0
 10
53000.0
 20
4200.0
 10
53500.0
 20
4200.0
 10
54000.0
 20
4200.0
 10
54500.0
 20
4200.0
 10
55000.0
 20
4200.0
 10
55500.0
 20
4200.0
 10
56000.0
 20
4200.000000000001
 10
56500.0
 20
4200.0
 10
57000.0
 20
4200.0
 10
57500.0
 20
4200.0
 10
58000.0
 20
4200.0
 10
58500.0
 20
4200.0
 10
59000.0
 20
4200.0
 10
59500.0
 20
4200.0
 10
60000.0
 20
4200.0
 10
60500.0
 20
4200.0
 10
61000.0
 20
4200.0
 10
61500.0
 20
4200.0
 10
62000.0
 20
4200.0
 10
62500.0
 20
4200.0
 10
63000.0
 20
4200.0
 10
63500.0
 20
4200.0
 10
64000.0
 20
4200.0
 10
64500.0
 20
4200.0
 10
65000.0
 20
4200.0
 10
65500.0
 20
4200.0
 10
66000.0
 20
4200.0
 10
66500.0
 20
4200.0
 10
67000.0
 20
4200.0
 10
67500.0
 20
4200.0
 10
68000.0
 20
4200.0
 10
68500.0
 20
4200.0
 10
69000.0
 20
4200.0
 10
69500.0
 20
4200.0
 10
70000.0
 20
4200.0
 10
70500.0
 20
4200.0
 10
71000.0
 20
4200.0
 10
71500.0
 20
4200.0
 10
72000.0
 20
4200.0
 10
72500.0
 20
4200.0
 10
73000.0
 20
4200.0
 10
73500.0
 20
4200.0
 10
74000.0
 20
4200.0
 10
74500.0
 20
4200.0
 10
75000.0
 20
4200.0
 10
75500.0
 20
4200.0
 10
76000.0
 20
4200.0
 10
76500.0
 20
4200.0
 10
77000.0
 20
4200.0
 10
77500.0
 20
4200.0
 10
78000.0
 20
4200.0
 10
78500.0
 20
4200.0
 10
79000.0
 20
4200.0
 10
79500.0
 20
4200.0
 10
80000.0
 20
4200.0
 10
80500.0
 20
4200.0
 10
81000.0
 20
4200.0
 10
81500.0
 20
4200.0
 10
82000.0
 20
4200.0
 10
82500.0
 20
4200.0
 10
83000.0
 20
4200.0
 10
83500.0
 20
4199.999999999999
 10
84000.0
 20
4200.0
 10
84500.0
 20
4200.0
 10
85000.0
 20
4200.0
 10
85500.0
 20
4200.0
 10
86000.0
 20
4200.0
 10
86500.0
 20
4200.0
 10
87000.0
 20
4200.0
 10
87500.0
 20
4200.0
 10
88000.0
 20
4200.0
 10
88500.0
 20
4200.0
 10
89000.0
 20
4200.0
 10
89500.0
 20
4200.0
 10
90000.0
 20
4200.0
 10
90500.0
 20
4200.0
 10
91000.0
 20
4200.0
 10
91500.0
 20
4200.0
 10
92000.0
 20
4200.0
 10
92500.0
 20
4200.0
 10
93000.0
 20
4200.0
 10
93500.0
 20
4200.000000000001
 10
94000.0
 20
4200.0
 10
94500.0
 20
4200.0
 10
95000.0
 20
4200.0
 10
95500.0
 20
4200.0
 10
96000.0
 20
4200.0
 10
96500.0
 20
4200.0
 10
97000.0
 20
4200.0
 10
97500.0
 20
4200.0
 10
98000.0
 20
4200.0
 10
98500.0
 20
4200.0
 10
99000.0
 20
4200.0
 10
99500.0
 20
4200.0
 10
100000.0
 20
4200.0
 10
100500.0
 20
4200.0
 10
101000.0
 20
4200.0
 10
101500.0
 20
4200.0
 10
102000.0
 20
4200.0
 10
102500.0
 20
4200.0
 10
103000.0
 20
4200.0
 10
103500.0
 20
4200.0
 10
104000.0
 20
4200.0
 10
104500.0
 20
4199.999999999999
 10
105000.0
 20
4200.0
 10
105500.0
 20
4200.0
 10
106000.0
 20
4200.0
 10
106500.0
 20
4200.0
 10
107000.0
 20
4200.0
 10
107500.0
 20
4200.0
 10
108000.0
 20
4200.0
 10
108500.0
 20
4200.0
 10
109000.0
 20
4200.0
 10
109500.0
 20
4200.0
 10
110000.0
 20
4200.0
 10
110500.0
 20
4200.0
 10
111000.0
 20
4200.0
 10
111500.0
 20
4200.526497349817
 10
112000.0
 20
4203.615897916759
 10
112500.0
 20
4209.210010637426
 10
113000.0
 20
4217.008640423935
 10
113500.0
 20
4226.7115921884
 10
114000.0
 20
4238.018670842937
 10
114500.0
 20
4250.629681299663
 10
115000.0
 20
4264.244428470696
 10
115500.0
 20
4278.562717268149
 10
116000.0
 20
4293.284352604138
 10
116500.0
 20
4308.109139390781
 10
117000.0
 20
4322.736882540193
 10
117500.0
 20
4336.867386964488
 10
118000.0
 20
4350.200457575784
 10
118500.0
 20
4362.819221118336
 10
119000.0
 20
4375.674083675805
 10
119500.0
 20
4388.821042845526
 10
120000.0
 20
4402.2500422547655
 10
120500.0
 20
4415.951025530785
 10
121000.0
 20
4429.913936300848
 10
121500.0
 20
4444.12871819222
 10
122000.0
 20
4458.58531483216
 10
122500.0
 20
4473.2736698479375
 10
123000.0
 20
4488.183726866813
 10
123500.0
 20
4503.305429516049
 10
124000.0
 20
4518.6287214229105
 10
124500.0
 20
4534.143546214661
 10
125000.0
 20
4549.839847518563
 10
125500.0
 20
4565.807461969668
 10
126000.0
 20
4582.231439592025
 10
126500.0
 20
4599.087874525447
 10
127000.0
 20
4616.346482745749
 10
127500.0
 20
4633.976980228752
 10
128000.0
 20
4651.949082950275
 10
128500.0
 20
4670.232506886131
 10
129000.0
 20
4689.5287104024455
 10
129500.0
 20
4710.56417121855
 10
130000.0
 20
4732.4331656725
 10
130500.0
 20
4754.20380124519
 10
131000.0
 20
4774.94418541752
 10
131500.0
 20
4793.722425670383
 10
132000.0
 20
4809.606629484677
 10
132500.0
 20
4823.342470631703
 10
133000.0
 20
4836.741675497105
 10
133500.0
 20
4849.3904428217165
 10
134000.0
 20
4860.855091002963
 10
134500.0
 20
4870.7019384382575
 10
135000.0
 20
4878.497303525023
 10
135500.0
 20
4883.80750466068
 10
136000.0
 20
4887.489078480855
 10
136500.0
 20
4890.883444187125
 10
137000.0
 20
4893.891218123585
 10
137500.0
 20
4896.409580481668
 10
138000.0
 20
4898.335711452809
 10
138500.0
 20
4899.566791228441
 10
139000.0
 20
4900.0
  0
LINE
  5
9A
330
17
100
AcDbEntity
  8
01_ОБШИВКА
100
AcDbLine
 10
0.0
 20
1250.0
 30
0.0
 11
0.0
 21
4200.0
 31
0.0
  0
LINE
  5
9B
330
17
100
AcDbEntity
  8
01_ОБШИВКА
100
AcDbLine
 10
139000.0
 20
3280.0
 30
0.0
 11
139000.0
 21
4900.0
 31
0.0
  0
LINE
  5
9C
330
17
100
AcDbEntity
  8
02_ПАЛУБЫ
100
AcDbLine
 10
9000.0
 20
1300.0
 30
0.0
 11
127000.0
 21
1300.0
 31
0.0
  0
LINE
  5
9D
330
17
100
AcDbEntity
  8
02_ПАЛУБЫ
100
AcDbLine
 10
9000.0
 20
1400.0
 30
0.0
 11
127000.0
 21
1400.0
 31
0.0
  0
LINE
  5
9E
330
17
100
AcDbEntity
  8
02_ПАЛУБЫ
100
AcDbLine
 10
9000.0
 20
4200.0
 30
0.0
 11
127000.0
 21
4200.0
 31
0.0
  0
LINE
  5
9F
330
17
100
AcDbEntity
  8
02_ПАЛУБЫ
100
AcDbLine
 10
11000.0
 20
7000.0
 30
0.0
 11
131000.0
 21
7000.0
 31
0.0
  0
LINE
  5
A0
330
17
100
AcDbEntity
  8
02_ПАЛУБЫ
100
AcDbLine
 10
11000.0
 20
12600.0
 30
0.0
 11
131000.0
 21
12600.0
 31
0.0
  0
LINE
  5
A1
330
17
100
AcDbEntity
  8
02_ПАЛУБЫ
100
AcDbLine
 10
11000.0
 20
12600.0
 30
0.0
 11
131000.0
 21
12600.0
 31
0.0
  0
LINE
  5
A2
330
17
100
AcDbEntity
  8
02_ПАЛУБЫ
100
AcDbLine
 10
11000.0
 20
4200.0
 30
0.0
 11
11000.0
 21
12600.0
 31
0.0
  0
LINE
  5
A3
330
17
100
AcDbEntity
  8
02_ПАЛУБЫ
100
AcDbLine
 10
131000.0
 20
4200.0
 30
0.0
 11
131000.0
 21
12600.0
 31
0.0
  0
LWPOLYLINE
  5
A4
330
17
100
AcDbEntity
  8
02_ПАЛУБЫ
100
AcDbPolyline
 90
4
 70
1
 10
115400.0
 20
12600.0
 10
131000.0
 20
12600.0
 10
131000.0
 20
15400.0
 10
115400.0
 20
15400.0
  0
TEXT
  5
A5
330
17
100
AcDbEntity
  8
02_ПАЛУБЫ
100
AcDbText
 10
123200.0
 20
14000.0
 30
0.0
 40
650.0
  1
рулевая рубка
  7
ГОСТ
 72
1
 11
123200.0
 21
14000.0
 31
0.0
100
AcDbText
 73
2
  0
LINE
  5
A6
330
17
100
AcDbEntity
  8
03_ПЕРЕБОРКИ
100
AcDbLine
 10
9500.0
 20
434.9479910145094
 30
0.0
 11
9500.0
 21
4200.0
 31
0.0
  0
TEXT
  5
A7
330
17
100
AcDbEntity
  8
03_ПЕРЕБОРКИ
100
AcDbText
 10
9500.0
 20
-1100.0
 30
0.0
 40
750.0
  1
9.5
  7
ГОСТ
 72
1
 11
9500.0
 21
-1100.0
 31
0.0
100
AcDbText
 73
2
  0
LINE
  5
A8
330
17
100
AcDbEntity
  8
03_ПЕРЕБОРКИ
100
AcDbLine
 10
12000.0
 20
323.35362594126286
 30
0.0
 11
12000.0
 21
4200.0
 31
0.0
  0
TEXT
  5
A9
330
17
100
AcDbEntity
  8
03_ПЕРЕБОРКИ
100
AcDbText
 10
12000.0
 20
-1100.0
 30
0.0
 40
750.0
  1
12.0
  7
ГОСТ
 72
1
 11
12000.0
 21
-1100.0
 31
0.0
100
AcDbText
 73
2
  0
LINE
  5
AA
330
17
100
AcDbEntity
  8
03_ПЕРЕБОРКИ
100
AcDbLine
 10
30000.0
 20
3.486033512505273
 30
0.0
 11
30000.0
 21
4200.0
 31
0.0
  0
TEXT
  5
AB
330
17
100
AcDbEntity
  8
03_ПЕРЕБОРКИ
100
AcDbText
 10
30000.0
 20
-1100.0
 30
0.0
 40
750.0
  1
30.0
  7
ГОСТ
 72
1
 11
30000.0
 21
-1100.0
 31
0.0
100
AcDbText
 73
2
  0
LINE
  5
AC
330
17
100
AcDbEntity
  8
03_ПЕРЕБОРКИ
100
AcDbLine
 10
34000.0
 20
0.09671288266275917
 30
0.0
 11
34000.0
 21
4200.0
 31
0.0
  0
TEXT
  5
AD
330
17
100
AcDbEntity
  8
03_ПЕРЕБОРКИ
100
AcDbText
 10
34000.0
 20
-1100.0
 30
0.0
 40
750.0
  1
34.0
  7
ГОСТ
 72
1
 11
34000.0
 21
-1100.0
 31
0.0
100
AcDbText
 73
2
  0
LINE
  5
AE
330
17
100
AcDbEntity
  8
03_ПЕРЕБОРКИ
100
AcDbLine
 10
60000.0
 20
0.0
 30
0.0
 11
60000.0
 21
4200.0
 31
0.0
  0
TEXT
  5
AF
330
17
100
AcDbEntity
  8
03_ПЕРЕБОРКИ
100
AcDbText
 10
60000.0
 20
-1100.0
 30
0.0
 40
750.0
  1
60.0
  7
ГОСТ
 72
1
 11
60000.0
 21
-1100.0
 31
0.0
100
AcDbText
 73
2
  0
LINE
  5
B0
330
17
100
AcDbEntity
  8
03_ПЕРЕБОРКИ
100
AcDbLine
 10
92000.0
 20
2.268507566059314
 30
0.0
 11
92000.0
 21
4200.0
 31
0.0
  0
TEXT
  5
B1
330
17
100
AcDbEntity
  8
03_ПЕРЕБОРКИ
100
AcDbText
 10
92000.0
 20
-1100.0
 30
0.0
 40
750.0
  1
92.0
  7
ГОСТ
 72
1
 11
92000.0
 21
-1100.0
 31
0.0
100
AcDbText
 73
2
  0
LINE
  5
B2
330
17
100
AcDbEntity
  8
03_ПЕРЕБОРКИ
100
AcDbLine
 10
116000.0
 20
403.22311710207333
 30
0.0
 11
116000.0
 21
4200.0
 31
0.0
  0
TEXT
  5
B3
330
17
100
AcDbEntity
  8
03_ПЕРЕБОРКИ
100
AcDbText
 10
116000.0
 20
-1100.0
 30
0.0
 40
750.0
  1
116.0
  7
ГОСТ
 72
1
 11
116000.0
 21
-1100.0
 31
0.0
100
AcDbText
 73
2
  0
LINE
  5
B4
330
17
100
AcDbEntity
  8
03_ПЕРЕБОРКИ
100
AcDbLine
 10
127000.0
 20
1351.3841213478931
 30
0.0
 11
127000.0
 21
4200.0
 31
0.0
  0
TEXT
  5
B5
330
17
100
AcDbEntity
  8
03_ПЕРЕБОРКИ
100
AcDbText
 10
127000.0
 20
-1100.0
 30
0.0
 40
750.0
  1
127.0
  7
ГОСТ
 72
1
 11
127000.0
 21
-1100.0
 31
0.0
100
AcDbText
 73
2
  0
LINE
  5
B6
330
17
100
AcDbEntity
  8
07_ОСИ
100
AcDbLine
 10
-2000.0
 20
2224.5565
 30
0.0
 11
141000.0
 21
2224.5565
 31
0.0
  0
TEXT
  5
B7
330
17
100
AcDbEntity
  8
07_ОСИ
100
AcDbText
 10
140500.0
 20
2824.5565
 30
0.0
 40
750.0
  1
ВЛ 2.22 м
  7
ГОСТ
 11
140500.0
 21
2824.5565
 31
0.0
100
AcDbText
 73
2
  0
LINE
  5
B8
330
17
100
AcDbEntity
  8
09_РАЗМЕРЫ
100
AcDbLine
 10
148000.0
 20
0.0
 30
0.0
 11
148000.0
 21
1300.0
 31
0.0
  0
LINE
  5
B9
330
17
100
AcDbEntity
  8
09_РАЗМЕРЫ
100
AcDbLine
 10
147400.0
 20
0.0
 30
0.0
 11
148600.0
 21
0.0
 31
0.0
  0
LINE
  5
BA
330
17
100
AcDbEntity
  8
09_РАЗМЕРЫ
100
AcDbLine
 10
147400.0
 20
1300.0
 30
0.0
 11
148600.0
 21
1300.0
 31
0.0
  0
TEXT
  5
BB
330
17
100
AcDbEntity
  8
09_РАЗМЕРЫ
100
AcDbText
 10
149000.0
 20
650.0
 30
0.0
 40
750.0
  1
Ярус 0 · трюм, второе дно, цистерны
  7
ГОСТ
 11
149000.0
 21
650.0
 31
0.0
100
AcDbText
 73
2
  0
LINE
  5
BC
330
17
100
AcDbEntity
  8
09_РАЗМЕРЫ
100
AcDbLine
 10
148000.0
 20
1400.0
 30
0.0
 11
148000.0
 21
4200.0
 31
0.0
  0
LINE
  5
BD
330
17
100
AcDbEntity
  8
09_РАЗМЕРЫ
100
AcDbLine
 10
147400.0
 20
1400.0
 30
0.0
 11
148600.0
 21
1400.0
 31
0.0
  0
LINE
  5
BE
330
17
100
AcDbEntity
  8
09_РАЗМЕРЫ
100
AcDbLine
 10
147400.0
 20
4200.0
 30
0.0
 11
148600.0
 21
4200.0
 31
0.0
  0
TEXT
  5
BF
330
17
100
AcDbEntity
  8
09_РАЗМЕРЫ
100
AcDbText
 10
149000.0
 20
2800.0
 30
0.0
 40
750.0
  1
Ярус 1 · первая палуба
  7
ГОСТ
 11
149000.0
 21
2800.0
 31
0.0
100
AcDbText
 73
2
  0
LINE
  5
C0
330
17
100
AcDbEntity
  8
09_РАЗМЕРЫ
100
AcDbLine
 10
148000.0
 20
4200.0
 30
0.0
 11
148000.0
 21
7000.0
 31
0.0
  0
LINE
  5
C1
330
17
100
AcDbEntity
  8
09_РАЗМЕРЫ
100
AcDbLine
 10
147400.0
 20
4200.0
 30
0.0
 11
148600.0
 21
4200.0
 31
0.0
  0
LINE
  5
C2
330
17
100
AcDbEntity
  8
09_РАЗМЕРЫ
100
AcDbLine
 10
147400.0
 20
7000.0
 30
0.0
 11
148600.0
 21
7000.0
 31
0.0
  0
TEXT
  5
C3
330
17
100
AcDbEntity
  8
09_РАЗМЕРЫ
100
AcDbText
 10
149000.0
 20
5600.0
 30
0.0
 40
750.0
  1
Ярус 2 · главная палуба
  7
ГОСТ
 11
149000.0
 21
5600.0
 31
0.0
100
AcDbText
 73
2
  0
LINE
  5
C4
330
17
100
AcDbEntity
  8
09_РАЗМЕРЫ
100
AcDbLine
 10
148000.0
 20
7000.0
 30
0.0
 11
148000.0
 21
9800.0
 31
0.0
  0
LINE
  5
C5
330
17
100
AcDbEntity
  8
09_РАЗМЕРЫ
100
AcDbLine
 10
147400.0
 20
7000.0
 30
0.0
 11
148600.0
 21
7000.0
 31
0.0
  0
LINE
  5
C6
330
17
100
AcDbEntity
  8
09_РАЗМЕРЫ
100
AcDbLine
 10
147400.0
 20
9800.0
 30
0.0
 11
148600.0
 21
9800.0
 31
0.0
  0
TEXT
  5
C7
330
17
100
AcDbEntity
  8
09_РАЗМЕРЫ
100
AcDbText
 10
149000.0
 20
8400.0
 30
0.0
 40
750.0
  1
Ярус 3 · верхняя палуба
  7
ГОСТ
 11
149000.0
 21
8400.0
 31
0.0
100
AcDbText
 73
2
  0
LINE
  5
C8
330
17
100
AcDbEntity
  8
09_РАЗМЕРЫ
100
AcDbLine
 10
148000.0
 20
9800.0
 30
0.0
 11
148000.0
 21
12600.0
 31
0.0
  0
LINE
  5
C9
330
17
100
AcDbEntity
  8
09_РАЗМЕРЫ
100
AcDbLine
 10
147400.0
 20
9800.0
 30
0.0
 11
148600.0
 21
9800.0
 31
0.0
  0
LINE
  5
CA
330
17
100
AcDbEntity
  8
09_РАЗМЕРЫ
100
AcDbLine
 10
147400.0
 20
12600.0
 30
0.0
 11
148600.0
 21
12600.0
 31
0.0
  0
TEXT
  5
CB
330
17
100
AcDbEntity
  8
09_РАЗМЕРЫ
100
AcDbText
 10
149000.0
 20
11200.0
 30
0.0
 40
750.0
  1
Ярус 4 · шлюпочная палуба
  7
ГОСТ
 11
149000.0
 21
11200.0
 31
0.0
100
AcDbText
 73
2
  0
LINE
  5
CC
330
17
100
AcDbEntity
  8
09_РАЗМЕРЫ
100
AcDbLine
 10
148000.0
 20
12600.0
 30
0.0
 11
148000.0
 21
15400.0
 31
0.0
  0
LINE
  5
CD
330
17
100
AcDbEntity
  8
09_РАЗМЕРЫ
100
AcDbLine
 10
147400.0
 20
12600.0
 30
0.0
 11
148600.0
 21
12600.0
 31
0.0
  0
LINE
  5
CE
330
17
100
AcDbEntity
  8
09_РАЗМЕРЫ
100
AcDbLine
 10
147400.0
 20
15400.0
 30
0.0
 11
148600.0
 21
15400.0
 31
0.0
  0
TEXT
  5
CF
330
17
100
AcDbEntity
  8
09_РАЗМЕРЫ
100
AcDbText
 10
149000.0
 20
14000.0
 30
0.0
 40
750.0
  1
Ярус 5 · солнечная палуба и рубка
  7
ГОСТ
 11
149000.0
 21
14000.0
 31
0.0
100
AcDbText
 73
2
  0
LINE
  5
D0
330
17
100
AcDbEntity
  8
09_РАЗМЕРЫ
100
AcDbLine
 10
0.0
 20
-2200.0
 30
0.0
 11
0.0
 21
-2950.0
 31
0.0
  0
TEXT
  5
D1
330
17
100
AcDbEntity
  8
09_РАЗМЕРЫ
100
AcDbText
 10
0.0
 20
-3950.0
 30
0.0
 40
750.0
  1
0
  7
ГОСТ
 72
1
 11
0.0
 21
-3950.0
 31
0.0
100
AcDbText
 73
2
  0
LINE
  5
D2
330
17
100
AcDbEntity
  8
09_РАЗМЕРЫ
100
AcDbLine
 10
2750.0
 20
-2200.0
 30
0.0
 11
2750.0
 21
-2550.0
 31
0.0
  0
LINE
  5
D3
330
17
100
AcDbEntity
  8
09_РАЗМЕРЫ
100
AcDbLine
 10
5500.0
 20
-2200.0
 30
0.0
 11
5500.0
 21
-2550.0
 31
0.0
  0
LINE
  5
D4
330
17
100
AcDbEntity
  8
09_РАЗМЕРЫ
100
AcDbLine
 10
8250.0
 20
-2200.0
 30
0.0
 11
8250.0
 21
-2550.0
 31
0.0
  0
LINE
  5
D5
330
17
100
AcDbEntity
  8
09_РАЗМЕРЫ
100
AcDbLine
 10
11000.0
 20
-2200.0
 30
0.0
 11
11000.0
 21
-2950.0
 31
0.0
  0
TEXT
  5
D6
330
17
100
AcDbEntity
  8
09_РАЗМЕРЫ
100
AcDbText
 10
11000.0
 20
-3950.0
 30
0.0
 40
750.0
  1
20
  7
ГОСТ
 72
1
 11
11000.0
 21
-3950.0
 31
0.0
100
AcDbText
 73
2
  0
LINE
  5
D7
330
17
100
AcDbEntity
  8
09_РАЗМЕРЫ
100
AcDbLine
 10
13750.000000000002
 20
-2200.0
 30
0.0
 11
13750.000000000002
 21
-2550.0
 31
0.0
  0
LINE
  5
D8
330
17
100
AcDbEntity
  8
09_РАЗМЕРЫ
100
AcDbLine
 10
16500.0
 20
-2200.0
 30
0.0
 11
16500.0
 21
-2550.0
 31
0.0
  0
LINE
  5
D9
330
17
100
AcDbEntity
  8
09_РАЗМЕРЫ
100
AcDbLine
 10
19250.0
 20
-2200.0
 30
0.0
 11
19250.0
 21
-2550.0
 31
0.0
  0
LINE
  5
DA
330
17
100
AcDbEntity
  8
09_РАЗМЕРЫ
100
AcDbLine
 10
22000.0
 20
-2200.0
 30
0.0
 11
22000.0
 21
-2950.0
 31
0.0
  0
TEXT
  5
DB
330
17
100
AcDbEntity
  8
09_РАЗМЕРЫ
100
AcDbText
 10
22000.0
 20
-3950.0
 30
0.0
 40
750.0
  1
40
  7
ГОСТ
 72
1
 11
22000.0
 21
-3950.0
 31
0.0
100
AcDbText
 73
2
  0
LINE
  5
DC
330
17
100
AcDbEntity
  8
09_РАЗМЕРЫ
100
AcDbLine
 10
24750.000000000004
 20
-2200.0
 30
0.0
 11
24750.000000000004
 21
-2550.0
 31
0.0
  0
LINE
  5
DD
330
17
100
AcDbEntity
  8
09_РАЗМЕРЫ
100
AcDbLine
 10
27500.000000000004
 20
-2200.0
 30
0.0
 11
27500.000000000004
 21
-2550.0
 31
0.0
  0
LINE
  5
DE
330
17
100
AcDbEntity
  8
09_РАЗМЕРЫ
100
AcDbLine
 10
30250.000000000004
 20
-2200.0
 30
0.0
 11
30250.000000000004
 21
-2550.0
 31
0.0
  0
LINE
  5
DF
330
17
100
AcDbEntity
  8
09_РАЗМЕРЫ
100
AcDbLine
 10
33000.0
 20
-2200.0
 30
0.0
 11
33000.0
 21
-2950.0
 31
0.0
  0
TEXT
  5
E0
330
17
100
AcDbEntity
  8
09_РАЗМЕРЫ
100
AcDbText
 10
33000.0
 20
-3950.0
 30
0.0
 40
750.0
  1
60
  7
ГОСТ
 72
1
 11
33000.0
 21
-3950.0
 31
0.0
100
AcDbText
 73
2
  0
LINE
  5
E1
330
17
100
AcDbEntity
  8
09_РАЗМЕРЫ
100
AcDbLine
 10
35750.0
 20
-2200.0
 30
0.0
 11
35750.0
 21
-2550.0
 31
0.0
  0
LINE
  5
E2
330
17
100
AcDbEntity
  8
09_РАЗМЕРЫ
100
AcDbLine
 10
38500.0
 20
-2200.0
 30
0.0
 11
38500.0
 21
-2550.0
 31
0.0
  0
LINE
  5
E3
330
17
100
AcDbEntity
  8
09_РАЗМЕРЫ
100
AcDbLine
 10
41250.0
 20
-2200.0
 30
0.0
 11
41250.0
 21
-2550.0
 31
0.0
  0
LINE
  5
E4
330
17
100
AcDbEntity
  8
09_РАЗМЕРЫ
100
AcDbLine
 10
44000.0
 20
-2200.0
 30
0.0
 11
44000.0
 21
-2950.0
 31
0.0
  0
TEXT
  5
E5
330
17
100
AcDbEntity
  8
09_РАЗМЕРЫ
100
AcDbText
 10
44000.0
 20
-3950.0
 30
0.0
 40
750.0
  1
80
  7
ГОСТ
 72
1
 11
44000.0
 21
-3950.0
 31
0.0
100
AcDbText
 73
2
  0
LINE
  5
E6
330
17
100
AcDbEntity
  8
09_РАЗМЕРЫ
100
AcDbLine
 10
46750.00000000001
 20
-2200.0
 30
0.0
 11
46750.00000000001
 21
-2550.0
 31
0.0
  0
LINE
  5
E7
330
17
100
AcDbEntity
  8
09_РАЗМЕРЫ
100
AcDbLine
 10
49500.00000000001
 20
-2200.0
 30
0.0
 11
49500.00000000001
 21
-2550.0
 31
0.0
  0
LINE
  5
E8
330
17
100
AcDbEntity
  8
09_РАЗМЕРЫ
100
AcDbLine
 10
52250.00000000001
 20
-2200.0
 30
0.0
 11
52250.00000000001
 21
-2550.0
 31
0.0
  0
LINE
  5
E9
330
17
100
AcDbEntity
  8
09_РАЗМЕРЫ
100
AcDbLine
 10
55000.00000000001
 20
-2200.0
 30
0.0
 11
55000.00000000001
 21
-2950.0
 31
0.0
  0
TEXT
  5
EA
330
17
100
AcDbEntity
  8
09_РАЗМЕРЫ
100
AcDbText
 10
55000.00000000001
 20
-3950.0
 30
0.0
 40
750.0
  1
100
  7
ГОСТ
 72
1
 11
55000.00000000001
 21
-3950.0
 31
0.0
100
AcDbText
 73
2
  0
LINE
  5
EB
330
17
100
AcDbEntity
  8
09_РАЗМЕРЫ
100
AcDbLine
 10
57750.00000000001
 20
-2200.0
 30
0.0
 11
57750.00000000001
 21
-2550.0
 31
0.0
  0
LINE
  5
EC
330
17
100
AcDbEntity
  8
09_РАЗМЕРЫ
100
AcDbLine
 10
60500.00000000001
 20
-2200.0
 30
0.0
 11
60500.00000000001
 21
-2550.0
 31
0.0
  0
LINE
  5
ED
330
17
100
AcDbEntity
  8
09_РАЗМЕРЫ
100
AcDbLine
 10
63250.00000000001
 20
-2200.0
 30
0.0
 11
63250.00000000001
 21
-2550.0
 31
0.0
  0
LINE
  5
EE
330
17
100
AcDbEntity
  8
09_РАЗМЕРЫ
100
AcDbLine
 10
66000.0
 20
-2200.0
 30
0.0
 11
66000.0
 21
-2950.0
 31
0.0
  0
TEXT
  5
EF
330
17
100
AcDbEntity
  8
09_РАЗМЕРЫ
100
AcDbText
 10
66000.0
 20
-3950.0
 30
0.0
 40
750.0
  1
120
  7
ГОСТ
 72
1
 11
66000.0
 21
-3950.0
 31
0.0
100
AcDbText
 73
2
  0
LINE
  5
F0
330
17
100
AcDbEntity
  8
09_РАЗМЕРЫ
100
AcDbLine
 10
68750.0
 20
-2200.0
 30
0.0
 11
68750.0
 21
-2550.0
 31
0.0
  0
LINE
  5
F1
330
17
100
AcDbEntity
  8
09_РАЗМЕРЫ
100
AcDbLine
 10
71500.0
 20
-2200.0
 30
0.0
 11
71500.0
 21
-2550.0
 31
0.0
  0
LINE
  5
F2
330
17
100
AcDbEntity
  8
09_РАЗМЕРЫ
100
AcDbLine
 10
74250.0
 20
-2200.0
 30
0.0
 11
74250.0
 21
-2550.0
 31
0.0
  0
LINE
  5
F3
330
17
100
AcDbEntity
  8
09_РАЗМЕРЫ
100
AcDbLine
 10
77000.0
 20
-2200.0
 30
0.0
 11
77000.0
 21
-2950.0
 31
0.0
  0
TEXT
  5
F4
330
17
100
AcDbEntity
  8
09_РАЗМЕРЫ
100
AcDbText
 10
77000.0
 20
-3950.0
 30
0.0
 40
750.0
  1
140
  7
ГОСТ
 72
1
 11
77000.0
 21
-3950.0
 31
0.0
100
AcDbText
 73
2
  0
LINE
  5
F5
330
17
100
AcDbEntity
  8
09_РАЗМЕРЫ
100
AcDbLine
 10
79750.0
 20
-2200.0
 30
0.0
 11
79750.0
 21
-2550.0
 31
0.0
  0
LINE
  5
F6
330
17
100
AcDbEntity
  8
09_РАЗМЕРЫ
100
AcDbLine
 10
82500.0
 20
-2200.0
 30
0.0
 11
82500.0
 21
-2550.0
 31
0.0
  0
LINE
  5
F7
330
17
100
AcDbEntity
  8
09_РАЗМЕРЫ
100
AcDbLine
 10
85250.0
 20
-2200.0
 30
0.0
 11
85250.0
 21
-2550.0
 31
0.0
  0
LINE
  5
F8
330
17
100
AcDbEntity
  8
09_РАЗМЕРЫ
100
AcDbLine
 10
88000.0
 20
-2200.0
 30
0.0
 11
88000.0
 21
-2950.0
 31
0.0
  0
TEXT
  5
F9
330
17
100
AcDbEntity
  8
09_РАЗМЕРЫ
100
AcDbText
 10
88000.0
 20
-3950.0
 30
0.0
 40
750.0
  1
160
  7
ГОСТ
 72
1
 11
88000.0
 21
-3950.0
 31
0.0
100
AcDbText
 73
2
  0
LINE
  5
FA
330
17
100
AcDbEntity
  8
09_РАЗМЕРЫ
100
AcDbLine
 10
90750.00000000001
 20
-2200.0
 30
0.0
 11
90750.00000000001
 21
-2550.0
 31
0.0
  0
LINE
  5
FB
330
17
100
AcDbEntity
  8
09_РАЗМЕРЫ
100
AcDbLine
 10
93500.00000000001
 20
-2200.0
 30
0.0
 11
93500.00000000001
 21
-2550.0
 31
0.0
  0
LINE
  5
FC
330
17
100
AcDbEntity
  8
09_РАЗМЕРЫ
100
AcDbLine
 10
96250.00000000001
 20
-2200.0
 30
0.0
 11
96250.00000000001
 21
-2550.0
 31
0.0
  0
LINE
  5
FD
330
17
100
AcDbEntity
  8
09_РАЗМЕРЫ
100
AcDbLine
 10
99000.00000000001
 20
-2200.0
 30
0.0
 11
99000.00000000001
 21
-2950.0
 31
0.0
  0
TEXT
  5
FE
330
17
100
AcDbEntity
  8
09_РАЗМЕРЫ
100
AcDbText
 10
99000.00000000001
 20
-3950.0
 30
0.0
 40
750.0
  1
180
  7
ГОСТ
 72
1
 11
99000.00000000001
 21
-3950.0
 31
0.0
100
AcDbText
 73
2
  0
LINE
  5
FF
330
17
100
AcDbEntity
  8
09_РАЗМЕРЫ
100
AcDbLine
 10
101750.00000000001
 20
-2200.0
 30
0.0
 11
101750.00000000001
 21
-2550.0
 31
0.0
  0
LINE
  5
100
330
17
100
AcDbEntity
  8
09_РАЗМЕРЫ
100
AcDbLine
 10
104500.00000000001
 20
-2200.0
 30
0.0
 11
104500.00000000001
 21
-2550.0
 31
0.0
  0
LINE
  5
101
330
17
100
AcDbEntity
  8
09_РАЗМЕРЫ
100
AcDbLine
 10
107250.00000000001
 20
-2200.0
 30
0.0
 11
107250.00000000001
 21
-2550.0
 31
0.0
  0
LINE
  5
102
330
17
100
AcDbEntity
  8
09_РАЗМЕРЫ
100
AcDbLine
 10
110000.00000000001
 20
-2200.0
 30
0.0
 11
110000.00000000001
 21
-2950.0
 31
0.0
  0
TEXT
  5
103
330
17
100
AcDbEntity
  8
09_РАЗМЕРЫ
100
AcDbText
 10
110000.00000000001
 20
-3950.0
 30
0.0
 40
750.0
  1
200
  7
ГОСТ
 72
1
 11
110000.00000000001
 21
-3950.0
 31
0.0
100
AcDbText
 73
2
  0
LINE
  5
104
330
17
100
AcDbEntity
  8
09_РАЗМЕРЫ
100
AcDbLine
 10
112750.00000000001
 20
-2200.0
 30
0.0
 11
112750.00000000001
 21
-2550.0
 31
0.0
  0
LINE
  5
105
330
17
100
AcDbEntity
  8
09_РАЗМЕРЫ
100
AcDbLine
 10
115500.00000000001
 20
-2200.0
 30
0.0
 11
115500.00000000001
 21
-2550.0
 31
0.0
  0
LINE
  5
106
330
17
100
AcDbEntity
  8
09_РАЗМЕРЫ
100
AcDbLine
 10
118250.00000000001
 20
-2200.0
 30
0.0
 11
118250.00000000001
 21
-2550.0
 31
0.0
  0
LINE
  5
107
330
17
100
AcDbEntity
  8
09_РАЗМЕРЫ
100
AcDbLine
 10
121000.00000000001
 20
-2200.0
 30
0.0
 11
121000.00000000001
 21
-2950.0
 31
0.0
  0
TEXT
  5
108
330
17
100
AcDbEntity
  8
09_РАЗМЕРЫ
100
AcDbText
 10
121000.00000000001
 20
-3950.0
 30
0.0
 40
750.0
  1
220
  7
ГОСТ
 72
1
 11
121000.00000000001
 21
-3950.0
 31
0.0
100
AcDbText
 73
2
  0
LINE
  5
109
330
17
100
AcDbEntity
  8
09_РАЗМЕРЫ
100
AcDbLine
 10
123750.00000000001
 20
-2200.0
 30
0.0
 11
123750.00000000001
 21
-2550.0
 31
0.0
  0
LINE
  5
10A
330
17
100
AcDbEntity
  8
09_РАЗМЕРЫ
100
AcDbLine
 10
126500.00000000001
 20
-2200.0
 30
0.0
 11
126500.00000000001
 21
-2550.0
 31
0.0
  0
LINE
  5
10B
330
17
100
AcDbEntity
  8
09_РАЗМЕРЫ
100
AcDbLine
 10
129250.0
 20
-2200.0
 30
0.0
 11
129250.0
 21
-2550.0
 31
0.0
  0
LINE
  5
10C
330
17
100
AcDbEntity
  8
09_РАЗМЕРЫ
100
AcDbLine
 10
132000.0
 20
-2200.0
 30
0.0
 11
132000.0
 21
-2950.0
 31
0.0
  0
TEXT
  5
10D
330
17
100
AcDbEntity
  8
09_РАЗМЕРЫ
100
AcDbText
 10
132000.0
 20
-3950.0
 30
0.0
 40
750.0
  1
240
  7
ГОСТ
 72
1
 11
132000.0
 21
-3950.0
 31
0.0
100
AcDbText
 73
2
  0
LINE
  5
10E
330
17
100
AcDbEntity
  8
09_РАЗМЕРЫ
100
AcDbLine
 10
134750.0
 20
-2200.0
 30
0.0
 11
134750.0
 21
-2550.0
 31
0.0
  0
LINE
  5
10F
330
17
100
AcDbEntity
  8
09_РАЗМЕРЫ
100
AcDbLine
 10
137500.0
 20
-2200.0
 30
0.0
 11
137500.0
 21
-2550.0
 31
0.0
  0
LINE
  5
110
330
17
100
AcDbEntity
  8
09_РАЗМЕРЫ
100
AcDbLine
 10
0.0
 20
-2200.0
 30
0.0
 11
138600.00000000003
 21
-2200.0
 31
0.0
  0
TEXT
  5
111
330
17
100
AcDbEntity
  8
09_РАЗМЕРЫ
100
AcDbText
 10
143000.0
 20
-3950.0
 30
0.0
 40
750.0
  1
№ шп., шпация 550
  7
ГОСТ
 11
143000.0
 21
-3950.0
 31
0.0
100
AcDbText
 73
2
  0
LINE
  5
112
330
17
100
AcDbEntity
  8
00_РАМКА
100
AcDbLine
 10
0.0
 20
-6000.0
 30
0.0
 11
80500.0
 21
-6000.0
 31
0.0
  0
LINE
  5
113
330
17
100
AcDbEntity
  8
00_РАМКА
100
AcDbLine
 10
0.0
 20
-7500.0
 30
0.0
 11
80500.0
 21
-7500.0
 31
0.0
  0
LINE
  5
114
330
17
100
AcDbEntity
  8
00_РАМКА
100
AcDbLine
 10
0.0
 20
-9000.0
 30
0.0
 11
80500.0
 21
-9000.0
 31
0.0
  0
LINE
  5
115
330
17
100
AcDbEntity
  8
00_РАМКА
100
AcDbLine
 10
0.0
 20
-10500.0
 30
0.0
 11
80500.0
 21
-10500.0
 31
0.0
  0
LINE
  5
116
330
17
100
AcDbEntity
  8
00_РАМКА
100
AcDbLine
 10
0.0
 20
-12000.0
 30
0.0
 11
80500.0
 21
-12000.0
 31
0.0
  0
LINE
  5
117
330
17
100
AcDbEntity
  8
00_РАМКА
100
AcDbLine
 10
0.0
 20
-13500.0
 30
0.0
 11
80500.0
 21
-13500.0
 31
0.0
  0
LINE
  5
118
330
17
100
AcDbEntity
  8
00_РАМКА
100
AcDbLine
 10
0.0
 20
-15000.0
 30
0.0
 11
80500.0
 21
-15000.0
 31
0.0
  0
LINE
  5
119
330
17
100
AcDbEntity
  8
00_РАМКА
100
AcDbLine
 10
0.0
 20
-16500.0
 30
0.0
 11
80500.0
 21
-16500.0
 31
0.0
  0
LINE
  5
11A
330
17
100
AcDbEntity
  8
00_РАМКА
100
AcDbLine
 10
0.0
 20
-6000.0
 30
0.0
 11
0.0
 21
-16500.0
 31
0.0
  0
LINE
  5
11B
330
17
100
AcDbEntity
  8
00_РАМКА
100
AcDbLine
 10
3500.0
 20
-6000.0
 30
0.0
 11
3500.0
 21
-16500.0
 31
0.0
  0
LINE
  5
11C
330
17
100
AcDbEntity
  8
00_РАМКА
100
AcDbLine
 10
19000.0
 20
-6000.0
 30
0.0
 11
19000.0
 21
-16500.0
 31
0.0
  0
LINE
  5
11D
330
17
100
AcDbEntity
  8
00_РАМКА
100
AcDbLine
 10
26500.0
 20
-6000.0
 30
0.0
 11
26500.0
 21
-16500.0
 31
0.0
  0
LINE
  5
11E
330
17
100
AcDbEntity
  8
00_РАМКА
100
AcDbLine
 10
32500.0
 20
-6000.0
 30
0.0
 11
32500.0
 21
-16500.0
 31
0.0
  0
LINE
  5
11F
330
17
100
AcDbEntity
  8
00_РАМКА
100
AcDbLine
 10
39000.0
 20
-6000.0
 30
0.0
 11
39000.0
 21
-16500.0
 31
0.0
  0
LINE
  5
120
330
17
100
AcDbEntity
  8
00_РАМКА
100
AcDbLine
 10
43000.0
 20
-6000.0
 30
0.0
 11
43000.0
 21
-16500.0
 31
0.0
  0
LINE
  5
121
330
17
100
AcDbEntity
  8
00_РАМКА
100
AcDbLine
 10
80500.0
 20
-6000.0
 30
0.0
 11
80500.0
 21
-16500.0
 31
0.0
  0
TEXT
  5
122
330
17
100
AcDbEntity
  8
08_ТЕКСТ
100
AcDbText
 10
375.0
 20
-6750.0
 30
0.0
 40
700.0
  1
Ярус
  7
ГОСТ
 11
375.0
 21
-6750.0
 31
0.0
100
AcDbText
 73
2
  0
TEXT
  5
123
330
17
100
AcDbEntity
  8
08_ТЕКСТ
100
AcDbText
 10
3875.0
 20
-6750.0
 30
0.0
 40
700.0
  1
Наименование
  7
ГОСТ
 11
3875.0
 21
-6750.0
 31
0.0
100
AcDbText
 73
2
  0
TEXT
  5
124
330
17
100
AcDbEntity
  8
08_ТЕКСТ
100
AcDbText
 10
19375.0
 20
-6750.0
 30
0.0
 40
700.0
  1
z, м
  7
ГОСТ
 11
19375.0
 21
-6750.0
 31
0.0
100
AcDbText
 73
2
  0
TEXT
  5
125
330
17
100
AcDbEntity
  8
08_ТЕКСТ
100
AcDbText
 10
26875.0
 20
-6750.0
 30
0.0
 40
700.0
  1
Высота, м
  7
ГОСТ
 11
26875.0
 21
-6750.0
 31
0.0
100
AcDbText
 73
2
  0
TEXT
  5
126
330
17
100
AcDbEntity
  8
08_ТЕКСТ
100
AcDbText
 10
32875.0
 20
-6750.0
 30
0.0
 40
700.0
  1
Площадь, м2
  7
ГОСТ
 11
32875.0
 21
-6750.0
 31
0.0
100
AcDbText
 73
2
  0
TEXT
  5
127
330
17
100
AcDbEntity
  8
08_ТЕКСТ
100
AcDbText
 10
39375.0
 20
-6750.0
 30
0.0
 40
700.0
  1
Мест
  7
ГОСТ
 11
39375.0
 21
-6750.0
 31
0.0
100
AcDbText
 73
2
  0
TEXT
  5
128
330
17
100
AcDbEntity
  8
08_ТЕКСТ
100
AcDbText
 10
43375.0
 20
-6750.0
 30
0.0
 40
700.0
  1
Основные помещения
  7
ГОСТ
 11
43375.0
 21
-6750.0
 31
0.0
100
AcDbText
 73
2
  0
TEXT
  5
129
330
17
100
AcDbEntity
  8
08_ТЕКСТ
100
AcDbText
 10
375.0
 20
-8250.0
 30
0.0
 40
625.0
  1
0
  7
ГОСТ
 11
375.0
 21
-8250.0
 31
0.0
100
AcDbText
 73
2
  0
TEXT
  5
12A
330
17
100
AcDbEntity
  8
08_ТЕКСТ
100
AcDbText
 10
3875.0
 20
-8250.0
 30
0.0
 40
625.0
  1
трюм, второе дно, цистерны
  7
ГОСТ
 11
3875.0
 21
-8250.0
 31
0.0
100
AcDbText
 73
2
  0
TEXT
  5
12B
330
17
100
AcDbEntity
  8
08_ТЕКСТ
100
AcDbText
 10
19375.0
 20
-8250.0
 30
0.0
 40
625.0
  1
0.00…1.30
  7
ГОСТ
 11
19375.0
 21
-8250.0
 31
0.0
100
AcDbText
 73
2
  0
TEXT
  5
12C
330
17
100
AcDbEntity
  8
08_ТЕКСТ
100
AcDbText
 10
26875.0
 20
-8250.0
 30
0.0
 40
625.0
  1
1.3
  7
ГОСТ
 11
26875.0
 21
-8250.0
 31
0.0
100
AcDbText
 73
2
  0
TEXT
  5
12D
330
17
100
AcDbEntity
  8
08_ТЕКСТ
100
AcDbText
 10
32875.0
 20
-8250.0
 30
0.0
 40
625.0
  1
—
  7
ГОСТ
 11
32875.0
 21
-8250.0
 31
0.0
100
AcDbText
 73
2
  0
TEXT
  5
12E
330
17
100
AcDbEntity
  8
08_ТЕКСТ
100
AcDbText
 10
39375.0
 20
-8250.0
 30
0.0
 40
625.0
  1
—
  7
ГОСТ
 11
39375.0
 21
-8250.0
 31
0.0
100
AcDbText
 73
2
  0
TEXT
  5
12F
330
17
100
AcDbEntity
  8
08_ТЕКСТ
100
AcDbText
 10
43375.0
 20
-8250.0
 30
0.0
 40
625.0
  1
цистерны, машинное отделение, электростанция
  7
ГОСТ
 11
43375.0
 21
-8250.0
 31
0.0
100
AcDbText
 73
2
  0
TEXT
  5
130
330
17
100
AcDbEntity
  8
08_ТЕКСТ
100
AcDbText
 10
375.0
 20
-9750.0
 30
0.0
 40
625.0
  1
1
  7
ГОСТ
 11
375.0
 21
-9750.0
 31
0.0
100
AcDbText
 73
2
  0
TEXT
  5
131
330
17
100
AcDbEntity
  8
08_ТЕКСТ
100
AcDbText
 10
3875.0
 20
-9750.0
 30
0.0
 40
625.0
  1
первая палуба
  7
ГОСТ
 11
3875.0
 21
-9750.0
 31
0.0
100
AcDbText
 73
2
  0
TEXT
  5
132
330
17
100
AcDbEntity
  8
08_ТЕКСТ
100
AcDbText
 10
19375.0
 20
-9750.0
 30
0.0
 40
625.0
  1
1.40…4.20
  7
ГОСТ
 11
19375.0
 21
-9750.0
 31
0.0
100
AcDbText
 73
2
  0
TEXT
  5
133
330
17
100
AcDbEntity
  8
08_ТЕКСТ
100
AcDbText
 10
26875.0
 20
-9750.0
 30
0.0
 40
625.0
  1
2.8
  7
ГОСТ
 11
26875.0
 21
-9750.0
 31
0.0
100
AcDbText
 73
2
  0
TEXT
  5
134
330
17
100
AcDbEntity
  8
08_ТЕКСТ
100
AcDbText
 10
32875.0
 20
-9750.0
 30
0.0
 40
625.0
  1
320
  7
ГОСТ
 11
32875.0
 21
-9750.0
 31
0.0
100
AcDbText
 73
2
  0
TEXT
  5
135
330
17
100
AcDbEntity
  8
08_ТЕКСТ
100
AcDbText
 10
39375.0
 20
-9750.0
 30
0.0
 40
625.0
  1
425
  7
ГОСТ
 11
39375.0
 21
-9750.0
 31
0.0
100
AcDbText
 73
2
  0
TEXT
  5
136
330
17
100
AcDbEntity
  8
08_ТЕКСТ
100
AcDbText
 10
43375.0
 20
-9750.0
 30
0.0
 40
625.0
  1
Каюты эконом и каюты экипажа, Машинное отделение, Форпик
  7
ГОСТ
 11
43375.0
 21
-9750.0
 31
0.0
100
AcDbText
 73
2
  0
TEXT
  5
137
330
17
100
AcDbEntity
  8
08_ТЕКСТ
100
AcDbText
 10
375.0
 20
-11250.0
 30
0.0
 40
625.0
  1
2
  7
ГОСТ
 11
375.0
 21
-11250.0
 31
0.0
100
AcDbText
 73
2
  0
TEXT
  5
138
330
17
100
AcDbEntity
  8
08_ТЕКСТ
100
AcDbText
 10
3875.0
 20
-11250.0
 30
0.0
 40
625.0
  1
главная палуба
  7
ГОСТ
 11
3875.0
 21
-11250.0
 31
0.0
100
AcDbText
 73
2
  0
TEXT
  5
139
330
17
100
AcDbEntity
  8
08_ТЕКСТ
100
AcDbText
 10
19375.0
 20
-11250.0
 30
0.0
 40
625.0
  1
4.20…7.00
  7
ГОСТ
 11
19375.0
 21
-11250.0
 31
0.0
100
AcDbText
 73
2
  0
TEXT
  5
13A
330
17
100
AcDbEntity
  8
08_ТЕКСТ
100
AcDbText
 10
26875.0
 20
-11250.0
 30
0.0
 40
625.0
  1
2.8
  7
ГОСТ
 11
26875.0
 21
-11250.0
 31
0.0
100
AcDbText
 73
2
  0
TEXT
  5
13B
330
17
100
AcDbEntity
  8
08_ТЕКСТ
100
AcDbText
 10
32875.0
 20
-11250.0
 30
0.0
 40
625.0
  1
1209
  7
ГОСТ
 11
32875.0
 21
-11250.0
 31
0.0
100
AcDbText
 73
2
  0
TEXT
  5
13C
330
17
100
AcDbEntity
  8
08_ТЕКСТ
100
AcDbText
 10
39375.0
 20
-11250.0
 30
0.0
 40
625.0
  1
906
  7
ГОСТ
 11
39375.0
 21
-11250.0
 31
0.0
100
AcDbText
 73
2
  0
TEXT
  5
13D
330
17
100
AcDbEntity
  8
08_ТЕКСТ
100
AcDbText
 10
43375.0
 20
-11250.0
 30
0.0
 40
625.0
  1
Каюты стандарт и эконом, Главный ресторан, Театр-лаунж
  7
ГОСТ
 11
43375.0
 21
-11250.0
 31
0.0
100
AcDbText
 73
2
  0
TEXT
  5
13E
330
17
100
AcDbEntity
  8
08_ТЕКСТ
100
AcDbText
 10
375.0
 20
-12750.0
 30
0.0
 40
625.0
  1
3
  7
ГОСТ
 11
375.0
 21
-12750.0
 31
0.0
100
AcDbText
 73
2
  0
TEXT
  5
13F
330
17
100
AcDbEntity
  8
08_ТЕКСТ
100
AcDbText
 10
3875.0
 20
-12750.0
 30
0.0
 40
625.0
  1
верхняя палуба
  7
ГОСТ
 11
3875.0
 21
-12750.0
 31
0.0
100
AcDbText
 73
2
  0
TEXT
  5
140
330
17
100
AcDbEntity
  8
08_ТЕКСТ
100
AcDbText
 10
19375.0
 20
-12750.0
 30
0.0
 40
625.0
  1
7.00…9.80
  7
ГОСТ
 11
19375.0
 21
-12750.0
 31
0.0
100
AcDbText
 73
2
  0
TEXT
  5
141
330
17
100
AcDbEntity
  8
08_ТЕКСТ
100
AcDbText
 10
26875.0
 20
-12750.0
 30
0.0
 40
625.0
  1
2.8
  7
ГОСТ
 11
26875.0
 21
-12750.0
 31
0.0
100
AcDbText
 73
2
  0
TEXT
  5
142
330
17
100
AcDbEntity
  8
08_ТЕКСТ
100
AcDbText
 10
32875.0
 20
-12750.0
 30
0.0
 40
625.0
  1
705
  7
ГОСТ
 11
32875.0
 21
-12750.0
 31
0.0
100
AcDbText
 73
2
  0
TEXT
  5
143
330
17
100
AcDbEntity
  8
08_ТЕКСТ
100
AcDbText
 10
39375.0
 20
-12750.0
 30
0.0
 40
625.0
  1
395
  7
ГОСТ
 11
39375.0
 21
-12750.0
 31
0.0
100
AcDbText
 73
2
  0
TEXT
  5
144
330
17
100
AcDbEntity
  8
08_ТЕКСТ
100
AcDbText
 10
43375.0
 20
-12750.0
 30
0.0
 40
625.0
  1
Каюты стандарт, Каюты бизнес, Спа-комплекс
  7
ГОСТ
 11
43375.0
 21
-12750.0
 31
0.0
100
AcDbText
 73
2
  0
TEXT
  5
145
330
17
100
AcDbEntity
  8
08_ТЕКСТ
100
AcDbText
 10
375.0
 20
-14250.0
 30
0.0
 40
625.0
  1
4
  7
ГОСТ
 11
375.0
 21
-14250.0
 31
0.0
100
AcDbText
 73
2
  0
TEXT
  5
146
330
17
100
AcDbEntity
  8
08_ТЕКСТ
100
AcDbText
 10
3875.0
 20
-14250.0
 30
0.0
 40
625.0
  1
шлюпочная палуба
  7
ГОСТ
 11
3875.0
 21
-14250.0
 31
0.0
100
AcDbText
 73
2
  0
TEXT
  5
147
330
17
100
AcDbEntity
  8
08_ТЕКСТ
100
AcDbText
 10
19375.0
 20
-14250.0
 30
0.0
 40
625.0
  1
9.80…12.60
  7
ГОСТ
 11
19375.0
 21
-14250.0
 31
0.0
100
AcDbText
 73
2
  0
TEXT
  5
148
330
17
100
AcDbEntity
  8
08_ТЕКСТ
100
AcDbText
 10
26875.0
 20
-14250.0
 30
0.0
 40
625.0
  1
2.8
  7
ГОСТ
 11
26875.0
 21
-14250.0
 31
0.0
100
AcDbText
 73
2
  0
TEXT
  5
149
330
17
100
AcDbEntity
  8
08_ТЕКСТ
100
AcDbText
 10
32875.0
 20
-14250.0
 30
0.0
 40
625.0
  1
293
  7
ГОСТ
 11
32875.0
 21
-14250.0
 31
0.0
100
AcDbText
 73
2
  0
TEXT
  5
14A
330
17
100
AcDbEntity
  8
08_ТЕКСТ
100
AcDbText
 10
39375.0
 20
-14250.0
 30
0.0
 40
625.0
  1
282
  7
ГОСТ
 11
39375.0
 21
-14250.0
 31
0.0
100
AcDbText
 73
2
  0
TEXT
  5
14B
330
17
100
AcDbEntity
  8
08_ТЕКСТ
100
AcDbText
 10
43375.0
 20
-14250.0
 30
0.0
 40
625.0
  1
Каюты люкс с балконами, Бар и лаунж-зона, Каюты стандарт и служебный блок
  7
ГОСТ
 11
43375.0
 21
-14250.0
 31
0.0
100
AcDbText
 73
2
  0
TEXT
  5
14C
330
17
100
AcDbEntity
  8
08_ТЕКСТ
100
AcDbText
 10
375.0
 20
-15750.0
 30
0.0
 40
625.0
  1
5
  7
ГОСТ
 11
375.0
 21
-15750.0
 31
0.0
100
AcDbText
 73
2
  0
TEXT
  5
14D
330
17
100
AcDbEntity
  8
08_ТЕКСТ
100
AcDbText
 10
3875.0
 20
-15750.0
 30
0.0
 40
625.0
  1
солнечная палуба и рубка
  7
ГОСТ
 11
3875.0
 21
-15750.0
 31
0.0
100
AcDbText
 73
2
  0
TEXT
  5
14E
330
17
100
AcDbEntity
  8
08_ТЕКСТ
100
AcDbText
 10
19375.0
 20
-15750.0
 30
0.0
 40
625.0
  1
12.60…15.40
  7
ГОСТ
 11
19375.0
 21
-15750.0
 31
0.0
100
AcDbText
 73
2
  0
TEXT
  5
14F
330
17
100
AcDbEntity
  8
08_ТЕКСТ
100
AcDbText
 10
26875.0
 20
-15750.0
 30
0.0
 40
625.0
  1
2.8
  7
ГОСТ
 11
26875.0
 21
-15750.0
 31
0.0
100
AcDbText
 73
2
  0
TEXT
  5
150
330
17
100
AcDbEntity
  8
08_ТЕКСТ
100
AcDbText
 10
32875.0
 20
-15750.0
 30
0.0
 40
625.0
  1
990
  7
ГОСТ
 11
32875.0
 21
-15750.0
 31
0.0
100
AcDbText
 73
2
  0
TEXT
  5
151
330
17
100
AcDbEntity
  8
08_ТЕКСТ
100
AcDbText
 10
39375.0
 20
-15750.0
 30
0.0
 40
625.0
  1
—
  7
ГОСТ
 11
39375.0
 21
-15750.0
 31
0.0
100
AcDbText
 73
2
  0
TEXT
  5
152
330
17
100
AcDbEntity
  8
08_ТЕКСТ
100
AcDbText
 10
43375.0
 20
-15750.0
 30
0.0
 40
625.0
  1
Солнечная палуба: шезлонги
  7
ГОСТ
 11
43375.0
 21
-15750.0
 31
0.0
100
AcDbText
 73
2
  0
LWPOLYLINE
  5
153
330
17
100
AcDbEntity
  8
00_РАМКА
100
AcDbPolyline
 90
4
 70
1
 10
-20125.0
 20
-75250.0
 10
190125.0
 20
-75250.0
 10
190125.0
 20
73250.0
 10
-20125.0
 20
73250.0
  0
LWPOLYLINE
  5
154
330
17
100
AcDbEntity
  8
00_РАМКА
100
AcDbPolyline
 90
4
 70
1
 10
-15125.0
 20
-74000.0
 10
188875.0
 20
-74000.0
 10
188875.0
 20
72000.0
 10
-15125.0
 20
72000.0
  0
LWPOLYLINE
  5
155
330
17
100
AcDbEntity
  8
00_РАМКА
100
AcDbPolyline
 90
4
 70
1
 10
142625.0
 20
-74000.0
 10
188875.0
 20
-74000.0
 10
188875.0
 20
-60250.0
 10
142625.0
 20
-60250.0
  0
LINE
  5
156
330
17
100
AcDbEntity
  8
00_РАМКА
100
AcDbLine
 10
142625.0
 20
-71000.0
 30
0.0
 11
188875.0
 21
-71000.0
 31
0.0
  0
LINE
  5
157
330
17
100
AcDbEntity
  8
00_РАМКА
100
AcDbLine
 10
142625.0
 20
-68000.0
 30
0.0
 11
188875.0
 21
-68000.0
 31
0.0
  0
LINE
  5
158
330
17
100
AcDbEntity
  8
00_РАМКА
100
AcDbLine
 10
142625.0
 20
-65000.0
 30
0.0
 11
188875.0
 21
-65000.0
 31
0.0
  0
LINE
  5
159
330
17
100
AcDbEntity
  8
00_РАМКА
100
AcDbLine
 10
172625.0
 20
-74000.0
 30
0.0
 11
172625.0
 21
-65000.0
 31
0.0
  0
TEXT
  5
15A
330
17
100
AcDbEntity
  8
08_ТЕКСТ
100
AcDbText
 10
143375.0
 20
-62625.0
 30
0.0
 40
1250.0
  1
Продольный разрез. Обозначение ярусов
  7
ГОСТ
 11
143375.0
 21
-62625.0
 31
0.0
100
AcDbText
 73
2
  0
TEXT
  5
15B
330
17
100
AcDbEntity
  8
08_ТЕКСТ
100
AcDbText
 10
143375.0
 20
-66500.0
 30
0.0
 40
625.0
  1
Волжский Горизонт · L = 139,0 м · H = 4,2 м
  7
ГОСТ
 11
143375.0
 21
-66500.0
 31
0.0
100
AcDbText
 73
2
  0
TEXT
  5
15C
330
17
100
AcDbEntity
  8
08_ТЕКСТ
100
AcDbText
 10
143375.0
 20
-69500.0
 30
0.0
 40
1125.0
  1
ВГ-2026 продольный разрез
  7
ГОСТ
 11
143375.0
 21
-69500.0
 31
0.0
100
AcDbText
 73
2
  0
TEXT
  5
15D
330
17
100
AcDbEntity
  8
08_ТЕКСТ
100
AcDbText
 10
173375.0
 20
-69500.0
 30
0.0
 40
875.0
  1
Масштаб 1 : 250
  7
ГОСТ
 11
173375.0
 21
-69500.0
 31
0.0
100
AcDbText
 73
2
  0
TEXT
  5
15E
330
17
100
AcDbEntity
  8
08_ТЕКСТ
100
AcDbText
 10
143375.0
 20
-72500.0
 30
0.0
 40
625.0
  1
Сталь 09Г2С ГОСТ 19281-2014
  7
ГОСТ
 11
143375.0
 21
-72500.0
 31
0.0
100
AcDbText
 73
2
  0
TEXT
  5
15F
330
17
100
AcDbEntity
  8
08_ТЕКСТ
100
AcDbText
 10
173375.0
 20
-72500.0
 30
0.0
 40
750.0
  1
Формат A1
  7
ГОСТ
 11
173375.0
 21
-72500.0
 31
0.0
100
AcDbText
 73
2
  0
TEXT
  5
160
330
17
100
AcDbEntity
  8
08_ТЕКСТ
100
AcDbText
 10
143375.0
 20
-59250.0
 30
0.0
 40
750.0
  1
УЖЦ ОСК 2026 · «Волжский Горизонт»
  7
ГОСТ
 11
143375.0
 21
-59250.0
 31
0.0
100
AcDbText
 73
2
  0
TEXT
  5
161
330
17
100
AcDbEntity
  8
08_ТЕКСТ
100
AcDbText
 10
143375.0
 20
-55000.0
 30
0.0
 40
625.0
  1
1. Продольный разрез по ДП — только обозначение ярусов.
  7
ГОСТ
 11
143375.0
 21
-55000.0
 31
0.0
100
AcDbText
 73
2
  0
TEXT
  5
162
330
17
100
AcDbEntity
  8
08_ТЕКСТ
100
AcDbText
 10
143375.0
 20
-56250.0
 30
0.0
 40
625.0
  1
2. Высоты от основной плоскости, м. Габаритная высота от ВЛ — 13,2 м.
  7
ГОСТ
 11
143375.0
 21
-56250.0
 31
0.0
100
AcDbText
 73
2
  0
TEXT
  5
163
330
17
100
AcDbEntity
  8
08_ТЕКСТ
100
AcDbText
 10
143375.0
 20
-57500.0
 30
0.0
 40
625.0
  1
3. Красные линии — водонепроницаемые переборки (8 шт.).
  7
ГОСТ
 11
143375.0
 21
-57500.0
 31
0.0
100
AcDbText
 73
2
  0
TEXT
  5
164
330
17
100
AcDbEntity
  8
08_ТЕКСТ
100
AcDbText
 10
143375.0
 20
-53375.0
 30
0.0
 40
875.0
  1
Технические требования
  7
ГОСТ
 11
143375.0
 21
-53375.0
 31
0.0
100
AcDbText
 73
2
  0
ENDSEC
  0
SECTION
  2
OBJECTS
  0
DICTIONARY
  5
A
330
0
100
AcDbDictionary
281
1
  3
ACAD_COLOR
350
B
  3
ACAD_GROUP
350
C
  3
ACAD_LAYOUT
350
D
  3
ACAD_MATERIAL
350
E
  3
ACAD_MLEADERSTYLE
350
F
  3
ACAD_MLINESTYLE
350
10
  3
ACAD_PLOTSETTINGS
350
11
  3
ACAD_PLOTSTYLENAME
350
12
  3
ACAD_SCALELIST
350
14
  3
ACAD_TABLESTYLE
350
15
  3
ACAD_VISUALSTYLE
350
16
  3
EZDXF_META
350
2D
  0
DICTIONARY
  5
B
330
A
100
AcDbDictionary
281
1
  0
DICTIONARY
  5
C
330
A
100
AcDbDictionary
281
1
  0
DICTIONARY
  5
D
330
A
100
AcDbDictionary
281
1
  3
Model
350
1A
  3
Layout1
350
1E
  0
DICTIONARY
  5
E
330
A
100
AcDbDictionary
281
1
  3
ByBlock
350
1F
  3
ByLayer
350
20
  3
Global
350
21
  0
DICTIONARY
  5
F
330
A
100
AcDbDictionary
281
1
  3
Standard
350
2C
  0
DICTIONARY
  5
10
330
A
100
AcDbDictionary
281
1
  3
Standard
350
22
  0
DICTIONARY
  5
11
330
A
100
AcDbDictionary
281
1
  0
ACDBDICTIONARYWDFLT
  5
12
330
A
100
AcDbDictionary
281
1
  3
Normal
350
13
100
AcDbDictionaryWithDefault
340
13
  0
ACDBPLACEHOLDER
  5
13
330
12
  0
DICTIONARY
  5
14
330
A
100
AcDbDictionary
281
1
  0
DICTIONARY
  5
15
330
A
100
AcDbDictionary
281
1
  0
DICTIONARY
  5
16
330
A
100
AcDbDictionary
281
1
  3
2dWireframe
350
5A
  3
Basic
350
5B
  3
Brighten
350
5C
  3
ColorChange
350
5D
  3
Conceptual
350
5E
  3
Dim
350
5F
  3
EdgeColorOff
350
60
  3
Facepattern
350
61
  3
Flat
350
62
  3
FlatWithEdges
350
63
  3
Gouraud
350
64
  3
GouraudWithEdges
350
65
  3
Hidden
350
66
  3
JitterOff
350
67
  3
Linepattern
350
68
  3
Modeling
350
69
  3
OverhangOff
350
6A
  3
Realistic
350
6B
  3
Shaded
350
6C
  3
Shaded with edges
350
6D
  3
Shades of Gray
350
6E
  3
Sketchy
350
6F
  3
Thicken
350
70
  3
Wireframe
350
71
  3
X-Ray
350
72
  0
LAYOUT
  5
1A
330
D
100
AcDbPlotSettings
  1

  4
A3
  6

 40
7.5
 41
20.0
 42
7.5
 43
20.0
 44
420.0
 45
297.0
 46
0.0
 47
0.0
 48
0.0
 49
0.0
140
0.0
141
0.0
142
1.0
143
1.0
 70
1024
 72
1
 73
0
 74
5
  7

 75
16
 76
0
 77
2
 78
300
147
1.0
148
0.0
149
0.0
100
AcDbLayout
  1
Model
 70
1
 71
0
 10
0.0
 20
0.0
 11
420.0
 21
297.0
 12
0.0
 22
0.0
 32
0.0
 14
1e+20
 24
1e+20
 34
1e+20
 15
-1e+20
 25
-1e+20
 35
-1e+20
146
0.0
 13
0.0
 23
0.0
 33
0.0
 16
1.0
 26
0.0
 36
0.0
 17
0.0
 27
1.0
 37
0.0
 76
1
330
17
  0
LAYOUT
  5
1E
330
D
100
AcDbPlotSettings
  1

  4
A3
  6

 40
7.5
 41
20.0
 42
7.5
 43
20.0
 44
420.0
 45
297.0
 46
0.0
 47
0.0
 48
0.0
 49
0.0
140
0.0
141
0.0
142
1.0
143
1.0
 70
0
 72
1
 73
0
 74
5
  7

 75
16
 76
0
 77
2
 78
300
147
1.0
148
0.0
149
0.0
100
AcDbLayout
  1
Layout1
 70
1
 71
1
 10
0.0
 20
0.0
 11
420.0
 21
297.0
 12
0.0
 22
0.0
 32
0.0
 14
1e+20
 24
1e+20
 34
1e+20
 15
-1e+20
 25
-1e+20
 35
-1e+20
146
0.0
 13
0.0
 23
0.0
 33
0.0
 16
1.0
 26
0.0
 36
0.0
 17
0.0
 27
1.0
 37
0.0
 76
1
330
1B
  0
MATERIAL
  5
1F
102
{ACAD_REACTORS
330
E
102
}
330
E
100
AcDbMaterial
  1
ByBlock
  2

 70
0
 40
1.0
 71
1
 41
1.0
 91
-1023410177
 42
1.0
 72
1
  3

 73
1
 74
1
 75
1
 44
0.5
 73
0
 45
1.0
 46
1.0
 77
1
  4

 78
1
 79
1
170
1
 48
1.0
171
1
  6

172
1
173
1
174
1
140
1.0
141
1.0
175
1
  7

176
1
177
1
178
1
143
1.0
179
1
  8

270
1
271
1
272
1
145
1.0
146
1.0
273
1
  9

274
1
275
1
276
1
 42
1.0
 72
1
  3

 73
1
 74
1
 75
1
 94
63
  0
MATERIAL
  5
20
102
{ACAD_REACTORS
330
E
102
}
330
E
100
AcDbMaterial
  1
ByLayer
  2

 70
0
 40
1.0
 71
1
 41
1.0
 91
-1023410177
 42
1.0
 72
1
  3

 73
1
 74
1
 75
1
 44
0.5
 73
0
 45
1.0
 46
1.0
 77
1
  4

 78
1
 79
1
170
1
 48
1.0
171
1
  6

172
1
173
1
174
1
140
1.0
141
1.0
175
1
  7

176
1
177
1
178
1
143
1.0
179
1
  8

270
1
271
1
272
1
145
1.0
146
1.0
273
1
  9

274
1
275
1
276
1
 42
1.0
 72
1
  3

 73
1
 74
1
 75
1
 94
63
  0
MATERIAL
  5
21
102
{ACAD_REACTORS
330
E
102
}
330
E
100
AcDbMaterial
  1
Global
  2

 70
0
 40
1.0
 71
1
 41
1.0
 91
-1023410177
 42
1.0
 72
1
  3

 73
1
 74
1
 75
1
 44
0.5
 73
0
 45
1.0
 46
1.0
 77
1
  4

 78
1
 79
1
170
1
 48
1.0
171
1
  6

172
1
173
1
174
1
140
1.0
141
1.0
175
1
  7

176
1
177
1
178
1
143
1.0
179
1
  8

270
1
271
1
272
1
145
1.0
146
1.0
273
1
  9

274
1
275
1
276
1
 42
1.0
 72
1
  3

 73
1
 74
1
 75
1
 94
63
  0
MLINESTYLE
  5
22
102
{ACAD_REACTORS
330
10
102
}
330
10
100
AcDbMlineStyle
  2
Standard
 70
0
  3

 62
256
 51
90.0
 52
90.0
 71
2
 49
0.5
 62
256
  6
BYLAYER
 49
-0.5
 62
256
  6
BYLAYER
  0
MLEADERSTYLE
  5
2C
102
{ACAD_REACTORS
330
F
102
}
330
F
100
AcDbMLeaderStyle
179
2
170
2
171
1
172
0
 90
2
 40
0.0
 41
0.0
173
1
 91
-1056964608
 92
-2
290
1
 42
2.0
291
1
 43
8.0
  3
Standard
 44
4.0
300

342
29
174
1
175
1
176
0
178
1
 93
-1056964608
 45
4.0
292
0
297
0
 46
4.0
 94
-1056964608
 47
1.0
 49
1.0
140
1.0
294
1
141
0.0
177
0
142
1.0
295
0
296
0
143
3.75
271
0
272
9
273
9
  0
DICTIONARY
  5
2D
330
A
100
AcDbDictionary
280
1
281
1
  3
CREATED_BY_EZDXF
350
2E
  3
WRITTEN_BY_EZDXF
350
167
  0
DICTIONARYVAR
  5
2E
330
2D
100
DictionaryVariables
280
0
  1
1.4.4 @ 2026-09-20T00:06:40.038251+00:00
  0
VISUALSTYLE
  5
5A
102
{ACAD_REACTORS
330
16
102
}
330
16
100
AcDbVisualStyle
  2
2dWireframe
 70
4
177
3
291
0
 70
58
 90
2
176
1
 90
2
176
1
 90
0
176
1
 90
0
176
1
 40
0.6
176
1
 40
30.0
176
1
 62
7
420
16777215
176
1
 90
1
176
1
 90
4
176
1
 62
7
176
1
 62
257
176
1
 90
1
176
1
 90
1
176
1
 40
1.0
176
1
 90
8
176
1
 62
7
176
1
 40
1.0
176
1
 90
1
176
1
 90
6
176
1
 90
2
176
1
 62
7
176
1
 90
5
176
1
 90
0
176
1
 90
0
176
1
290
0
176
1
 90
1
176
1
 40
0.0
176
1
 90
0
176
1
290
1
176
1
290
1
176
1
290
0
176
1
290
0
176
1
290
0
176
1
290
0
176
1
290
0
176
1
290
0
176
1
290
0
176
1
 90
50
176
1
 40
0.0
176
1
 40
1.0
176
1
 90
0
176
1
 62
18
420
0
176
1
 90
50
176
1
 90
3
176
1
 62
5
420
255
176
1
290
0
176
1
 90
50
176
1
 90
50
176
1
 90
50
176
1
290
0
176
1
 90
50
176
1
 62
256
176
0
 40
1.0
176
0
 90
2
176
1
  1
strokes_ogs.tif
176
1
290
0
176
1
 40
1.0
176
1
 40
1.0
176
1
  0
VISUALSTYLE
  5
5B
102
{ACAD_REACTORS
330
16
102
}
330
16
100
AcDbVisualStyle
  2
Basic
 70
7
177
3
291
1
 70
58
 90
2
176
1
 90
2
176
1
 90
0
176
1
 90
1
176
1
 40
0.6
176
1
 40
30.0
176
1
 62
7
420
16777215
176
1
 90
1
176
1
 90
4
176
1
 62
7
176
1
 62
257
176
1
 90
1
176
1
 90
1
176
1
 40
1.0
176
1
 90
8
176
1
 62
7
176
1
 40
1.0
176
1
 90
1
176
1
 90
6
176
1
 90
2
176
1
 62
7
176
1
 90
5
176
1
 90
0
176
1
 90
0
176
1
290
0
176
1
 90
1
176
1
 40
0.0
176
1
 90
0
176
1
290
0
176
1
290
1
176
1
290
1
176
1
290
0
176
1
290
0
176
1
290
0
176
1
290
0
176
1
290
0
176
1
290
0
176
1
 90
50
176
1
 40
0.0
176
1
 40
1.0
176
1
 90
0
176
1
 62
18
420
0
176
1
 90
50
176
1
 90
3
176
1
 62
5
420
255
176
1
290
0
176
1
 90
50
176
1
 90
50
176
1
 90
50
176
1
290
0
176
1
 90
50
176
1
 62
256
176
0
 40
1.0
176
0
 90
2
176
1
  1
strokes_ogs.tif
176
1
290
0
176
1
 40
1.0
176
1
 40
1.0
176
1
  0
VISUALSTYLE
  5
5C
102
{ACAD_REACTORS
330
16
102
}
330
16
100
AcDbVisualStyle
  2
Brighten
 70
12
177
3
291
1
 70
58
 90
2
176
1
 90
2
176
1
 90
0
176
1
 90
2
176
1
 40
0.6
176
1
 40
30.0
176
1
 62
7
420
16777215
176
1
 90
1
176
1
 90
4
176
1
 62
7
176
1
 62
257
176
1
 90
1
176
1
 90
1
176
1
 40
1.0
176
1
 90
8
176
1
 62
7
176
1
 40
1.0
176
1
 90
1
176
1
 90
6
176
1
 90
2
176
1
 62
7
176
1
 90
5
176
1
 90
0
176
1
 90
0
176
1
290
0
176
1
 90
1
176
1
 40
0.0
176
1
 90
0
176
1
290
0
176
1
290
1
176
1
290
1
176
1
290
0
176
1
290
0
176
1
290
0
176
1
290
0
176
1
290
0
176
1
290
0
176
1
 90
50
176
1
 40
0.0
176
1
 40
1.0
176
1
 90
0
176
1
 62
18
420
0
176
1
 90
50
176
1
 90
3
176
1
 62
5
420
255
176
1
290
0
176
1
 90
50
176
1
 90
50
176
1
 90
50
176
1
290
0
176
1
 90
50
176
1
 62
256
176
0
 40
1.0
176
0
 90
2
176
1
  1
strokes_ogs.tif
176
1
290
0
176
1
 40
1.0
176
1
 40
1.0
176
1
  0
VISUALSTYLE
  5
5D
102
{ACAD_REACTORS
330
16
102
}
330
16
100
AcDbVisualStyle
  2
ColorChange
 70
16
177
3
291
1
 70
58
 90
2
176
1
 90
2
176
1
 90
0
176
1
 90
2
176
1
 40
0.6
176
1
 40
30.0
176
1
 62
7
420
16777215
176
1
 90
1
176
1
 90
4
176
1
 62
7
176
1
 62
257
176
1
 90
1
176
1
 90
1
176
1
 40
1.0
176
1
 90
8
176
1
 62
7
176
1
 40
1.0
176
1
 90
1
176
1
 90
6
176
1
 90
2
176
1
 62
7
176
1
 90
5
176
1
 90
0
176
1
 90
0
176
1
290
0
176
1
 90
1
176
1
 40
0.0
176
1
 90
0
176
1
290
0
176
1
290
1
176
1
290
1
176
1
290
0
176
1
290
0
176
1
290
0
176
1
290
0
176
1
290
0
176
1
290
0
176
1
 90
50
176
1
 40
0.0
176
1
 40
1.0
176
1
 90
0
176
1
 62
18
420
0
176
1
 90
50
176
1
 90
3
176
1
 62
5
420
255
176
1
290
0
176
1
 90
50
176
1
 90
50
176
1
 90
50
176
1
290
0
176
1
 90
50
176
1
 62
256
176
0
 40
1.0
176
0
 90
2
176
1
  1
strokes_ogs.tif
176
1
290
0
176
1
 40
1.0
176
1
 40
1.0
176
1
  0
VISUALSTYLE
  5
5E
102
{ACAD_REACTORS
330
16
102
}
330
16
100
AcDbVisualStyle
  2
Conceptual
 70
9
177
3
291
0
 70
58
 90
2
176
1
 90
2
176
1
 90
0
176
1
 90
3
176
1
 40
0.6
176
1
 40
30.0
176
1
 62
7
420
16777215
176
1
 90
1
176
1
 90
4
176
1
 62
7
176
1
 62
257
176
1
 90
1
176
1
 90
1
176
1
 40
1.0
176
1
 90
8
176
1
 62
7
176
1
 40
1.0
176
1
 90
1
176
1
 90
6
176
1
 90
2
176
1
 62
7
176
1
 90
5
176
1
 90
0
176
1
 90
0
176
1
290
0
176
1
 90
1
176
1
 40
0.0
176
1
 90
0
176
1
290
0
176
1
290
1
176
1
290
1
176
1
290
0
176
1
290
0
176
1
290
0
176
1
290
0
176
1
290
0
176
1
290
0
176
1
 90
50
176
1
 40
0.0
176
1
 40
1.0
176
1
 90
0
176
1
 62
18
420
0
176
1
 90
50
176
1
 90
3
176
1
 62
5
420
255
176
1
290
0
176
1
 90
50
176
1
 90
50
176
1
 90
50
176
1
290
0
176
1
 90
50
176
1
 62
256
176
0
 40
1.0
176
0
 90
2
176
1
  1
strokes_ogs.tif
176
1
290
0
176
1
 40
1.0
176
1
 40
1.0
176
1
  0
VISUALSTYLE
  5
5F
102
{ACAD_REACTORS
330
16
102
}
330
16
100
AcDbVisualStyle
  2
Dim
 70
11
177
3
291
1
 70
58
 90
2
176
1
 90
2
176
1
 90
0
176
1
 90
2
176
1
 40
0.6
176
1
 40
30.0
176
1
 62
7
420
16777215
176
1
 90
1
176
1
 90
4
176
1
 62
7
176
1
 62
257
176
1
 90
1
176
1
 90
1
176
1
 40
1.0
176
1
 90
8
176
1
 62
7
176
1
 40
1.0
176
1
 90
1
176
1
 90
6
176
1
 90
2
176
1
 62
7
176
1
 90
5
176
1
 90
0
176
1
 90
0
176
1
290
0
176
1
 90
1
176
1
 40
0.0
176
1
 90
0
176
1
290
0
176
1
290
1
176
1
290
1
176
1
290
0
176
1
290
0
176
1
290
0
176
1
290
0
176
1
290
0
176
1
290
0
176
1
 90
50
176
1
 40
0.0
176
1
 40
1.0
176
1
 90
0
176
1
 62
18
420
0
176
1
 90
50
176
1
 90
3
176
1
 62
5
420
255
176
1
290
0
176
1
 90
50
176
1
 90
50
176
1
 90
50
176
1
290
0
176
1
 90
50
176
1
 62
256
176
0
 40
1.0
176
0
 90
2
176
1
  1
strokes_ogs.tif
176
1
290
0
176
1
 40
1.0
176
1
 40
1.0
176
1
  0
VISUALSTYLE
  5
60
102
{ACAD_REACTORS
330
16
102
}
330
16
100
AcDbVisualStyle
  2
EdgeColorOff
 70
22
177
3
291
1
 70
58
 90
2
176
1
 90
2
176
1
 90
0
176
1
 90
2
176
1
 40
0.6
176
1
 40
30.0
176
1
 62
7
420
16777215
176
1
 90
1
176
1
 90
4
176
1
 62
7
176
1
 62
257
176
1
 90
1
176
1
 90
1
176
1
 40
1.0
176
1
 90
8
176
1
 62
7
176
1
 40
1.0
176
1
 90
1
176
1
 90
6
176
1
 90
2
176
1
 62
7
176
1
 90
5
176
1
 90
0
176
1
 90
0
176
1
290
0
176
1
 90
1
176
1
 40
0.0
176
1
 90
0
176
1
290
0
176
1
290
1
176
1
290
1
176
1
290
0
176
1
290
0
176
1
290
0
176
1
290
0
176
1
290
0
176
1
290
0
176
1
 90
50
176
1
 40
0.0
176
1
 40
1.0
176
1
 90
0
176
1
 62
18
420
0
176
1
 90
50
176
1
 90
3
176
1
 62
5
420
255
176
1
290
0
176
1
 90
50
176
1
 90
50
176
1
 90
50
176
1
290
0
176
1
 90
50
176
1
 62
256
176
0
 40
1.0
176
0
 90
2
176
1
  1
strokes_ogs.tif
176
1
290
0
176
1
 40
1.0
176
1
 40
1.0
176
1
  0
VISUALSTYLE
  5
61
102
{ACAD_REACTORS
330
16
102
}
330
16
100
AcDbVisualStyle
  2
Facepattern
 70
15
177
3
291
1
 70
58
 90
2
176
1
 90
2
176
1
 90
0
176
1
 90
2
176
1
 40
0.6
176
1
 40
30.0
176
1
 62
7
420
16777215
176
1
 90
1
176
1
 90
4
176
1
 62
7
176
1
 62
257
176
1
 90
1
176
1
 90
1
176
1
 40
1.0
176
1
 90
8
176
1
 62
7
176
1
 40
1.0
176
1
 90
1
176
1
 90
6
176
1
 90
2
176
1
 62
7
176
1
 90
5
176
1
 90
0
176
1
 90
0
176
1
290
0
176
1
 90
1
176
1
 40
0.0
176
1
 90
0
176
1
290
0
176
1
290
1
176
1
290
1
176
1
290
0
176
1
290
0
176
1
290
0
176
1
290
0
176
1
290
0
176
1
290
0
176
1
 90
50
176
1
 40
0.0
176
1
 40
1.0
176
1
 90
0
176
1
 62
18
420
0
176
1
 90
50
176
1
 90
3
176
1
 62
5
420
255
176
1
290
0
176
1
 90
50
176
1
 90
50
176
1
 90
50
176
1
290
0
176
1
 90
50
176
1
 62
256
176
0
 40
1.0
176
0
 90
2
176
1
  1
strokes_ogs.tif
176
1
290
0
176
1
 40
1.0
176
1
 40
1.0
176
1
  0
VISUALSTYLE
  5
62
102
{ACAD_REACTORS
330
16
102
}
330
16
100
AcDbVisualStyle
  2
Flat
 70
0
177
3
291
1
 70
58
 90
2
176
1
 90
2
176
1
 90
0
176
1
 90
2
176
1
 40
0.6
176
1
 40
30.0
176
1
 62
7
420
16777215
176
1
 90
1
176
1
 90
4
176
1
 62
7
176
1
 62
257
176
1
 90
1
176
1
 90
1
176
1
 40
1.0
176
1
 90
8
176
1
 62
7
176
1
 40
1.0
176
1
 90
1
176
1
 90
6
176
1
 90
2
176
1
 62
7
176
1
 90
5
176
1
 90
0
176
1
 90
0
176
1
290
0
176
1
 90
1
176
1
 40
0.0
176
1
 90
0
176
1
290
0
176
1
290
1
176
1
290
1
176
1
290
0
176
1
290
0
176
1
290
0
176
1
290
0
176
1
290
0
176
1
290
0
176
1
 90
50
176
1
 40
0.0
176
1
 40
1.0
176
1
 90
0
176
1
 62
18
420
0
176
1
 90
50
176
1
 90
3
176
1
 62
5
420
255
176
1
290
0
176
1
 90
50
176
1
 90
50
176
1
 90
50
176
1
290
0
176
1
 90
50
176
1
 62
256
176
0
 40
1.0
176
0
 90
2
176
1
  1
strokes_ogs.tif
176
1
290
0
176
1
 40
1.0
176
1
 40
1.0
176
1
  0
VISUALSTYLE
  5
63
102
{ACAD_REACTORS
330
16
102
}
330
16
100
AcDbVisualStyle
  2
FlatWithEdges
 70
1
177
3
291
1
 70
58
 90
2
176
1
 90
2
176
1
 90
0
176
1
 90
2
176
1
 40
0.6
176
1
 40
30.0
176
1
 62
7
420
16777215
176
1
 90
1
176
1
 90
4
176
1
 62
7
176
1
 62
257
176
1
 90
1
176
1
 90
1
176
1
 40
1.0
176
1
 90
8
176
1
 62
7
176
1
 40
1.0
176
1
 90
1
176
1
 90
6
176
1
 90
2
176
1
 62
7
176
1
 90
5
176
1
 90
0
176
1
 90
0
176
1
290
0
176
1
 90
1
176
1
 40
0.0
176
1
 90
0
176
1
290
0
176
1
290
1
176
1
290
1
176
1
290
0
176
1
290
0
176
1
290
0
176
1
290
0
176
1
290
0
176
1
290
0
176
1
 90
50
176
1
 40
0.0
176
1
 40
1.0
176
1
 90
0
176
1
 62
18
420
0
176
1
 90
50
176
1
 90
3
176
1
 62
5
420
255
176
1
290
0
176
1
 90
50
176
1
 90
50
176
1
 90
50
176
1
290
0
176
1
 90
50
176
1
 62
256
176
0
 40
1.0
176
0
 90
2
176
1
  1
strokes_ogs.tif
176
1
290
0
176
1
 40
1.0
176
1
 40
1.0
176
1
  0
VISUALSTYLE
  5
64
102
{ACAD_REACTORS
330
16
102
}
330
16
100
AcDbVisualStyle
  2
Gouraud
 70
2
177
3
291
1
 70
58
 90
2
176
1
 90
2
176
1
 90
0
176
1
 90
2
176
1
 40
0.6
176
1
 40
30.0
176
1
 62
7
420
16777215
176
1
 90
1
176
1
 90
4
176
1
 62
7
176
1
 62
257
176
1
 90
1
176
1
 90
1
176
1
 40
1.0
176
1
 90
8
176
1
 62
7
176
1
 40
1.0
176
1
 90
1
176
1
 90
6
176
1
 90
2
176
1
 62
7
176
1
 90
5
176
1
 90
0
176
1
 90
0
176
1
290
0
176
1
 90
1
176
1
 40
0.0
176
1
 90
0
176
1
290
0
176
1
290
1
176
1
290
1
176
1
290
0
176
1
290
0
176
1
290
0
176
1
290
0
176
1
290
0
176
1
290
0
176
1
 90
50
176
1
 40
0.0
176
1
 40
1.0
176
1
 90
0
176
1
 62
18
420
0
176
1
 90
50
176
1
 90
3
176
1
 62
5
420
255
176
1
290
0
176
1
 90
50
176
1
 90
50
176
1
 90
50
176
1
290
0
176
1
 90
50
176
1
 62
256
176
0
 40
1.0
176
0
 90
2
176
1
  1
strokes_ogs.tif
176
1
290
0
176
1
 40
1.0
176
1
 40
1.0
176
1
  0
VISUALSTYLE
  5
65
102
{ACAD_REACTORS
330
16
102
}
330
16
100
AcDbVisualStyle
  2
GouraudWithEdges
 70
3
177
3
291
1
 70
58
 90
2
176
1
 90
2
176
1
 90
0
176
1
 90
2
176
1
 40
0.6
176
1
 40
30.0
176
1
 62
7
420
16777215
176
1
 90
1
176
1
 90
4
176
1
 62
7
176
1
 62
257
176
1
 90
1
176
1
 90
1
176
1
 40
1.0
176
1
 90
8
176
1
 62
7
176
1
 40
1.0
176
1
 90
1
176
1
 90
6
176
1
 90
2
176
1
 62
7
176
1
 90
5
176
1
 90
0
176
1
 90
0
176
1
290
0
176
1
 90
1
176
1
 40
0.0
176
1
 90
0
176
1
290
0
176
1
290
1
176
1
290
1
176
1
290
0
176
1
290
0
176
1
290
0
176
1
290
0
176
1
290
0
176
1
290
0
176
1
 90
50
176
1
 40
0.0
176
1
 40
1.0
176
1
 90
0
176
1
 62
18
420
0
176
1
 90
50
176
1
 90
3
176
1
 62
5
420
255
176
1
290
0
176
1
 90
50
176
1
 90
50
176
1
 90
50
176
1
290
0
176
1
 90
50
176
1
 62
256
176
0
 40
1.0
176
0
 90
2
176
1
  1
strokes_ogs.tif
176
1
290
0
176
1
 40
1.0
176
1
 40
1.0
176
1
  0
VISUALSTYLE
  5
66
102
{ACAD_REACTORS
330
16
102
}
330
16
100
AcDbVisualStyle
  2
Hidden
 70
6
177
3
291
0
 70
58
 90
2
176
1
 90
2
176
1
 90
0
176
1
 90
1
176
1
 40
0.6
176
1
 40
30.0
176
1
 62
7
420
16777215
176
1
 90
1
176
1
 90
4
176
1
 62
7
176
1
 62
257
176
1
 90
1
176
1
 90
1
176
1
 40
1.0
176
1
 90
8
176
1
 62
7
176
1
 40
1.0
176
1
 90
1
176
1
 90
6
176
1
 90
2
176
1
 62
7
176
1
 90
5
176
1
 90
0
176
1
 90
0
176
1
290
0
176
1
 90
1
176
1
 40
0.0
176
1
 90
0
176
1
290
0
176
1
290
1
176
1
290
1
176
1
290
0
176
1
290
0
176
1
290
0
176
1
290
0
176
1
290
0
176
1
290
0
176
1
 90
50
176
1
 40
0.0
176
1
 40
1.0
176
1
 90
0
176
1
 62
18
420
0
176
1
 90
50
176
1
 90
3
176
1
 62
5
420
255
176
1
290
0
176
1
 90
50
176
1
 90
50
176
1
 90
50
176
1
290
0
176
1
 90
50
176
1
 62
256
176
0
 40
1.0
176
0
 90
2
176
1
  1
strokes_ogs.tif
176
1
290
0
176
1
 40
1.0
176
1
 40
1.0
176
1
  0
VISUALSTYLE
  5
67
102
{ACAD_REACTORS
330
16
102
}
330
16
100
AcDbVisualStyle
  2
JitterOff
 70
20
177
3
291
1
 70
58
 90
2
176
1
 90
2
176
1
 90
0
176
1
 90
2
176
1
 40
0.6
176
1
 40
30.0
176
1
 62
7
420
16777215
176
1
 90
1
176
1
 90
4
176
1
 62
7
176
1
 62
257
176
1
 90
1
176
1
 90
1
176
1
 40
1.0
176
1
 90
8
176
1
 62
7
176
1
 40
1.0
176
1
 90
1
176
1
 90
6
176
1
 90
2
176
1
 62
7
176
1
 90
5
176
1
 90
0
176
1
 90
0
176
1
290
0
176
1
 90
1
176
1
 40
0.0
176
1
 90
0
176
1
290
0
176
1
290
1
176
1
290
1
176
1
290
0
176
1
290
0
176
1
290
0
176
1
290
0
176
1
290
0
176
1
290
0
176
1
 90
50
176
1
 40
0.0
176
1
 40
1.0
176
1
 90
0
176
1
 62
18
420
0
176
1
 90
50
176
1
 90
3
176
1
 62
5
420
255
176
1
290
0
176
1
 90
50
176
1
 90
50
176
1
 90
50
176
1
290
0
176
1
 90
50
176
1
 62
256
176
0
 40
1.0
176
0
 90
2
176
1
  1
strokes_ogs.tif
176
1
290
0
176
1
 40
1.0
176
1
 40
1.0
176
1
  0
VISUALSTYLE
  5
68
102
{ACAD_REACTORS
330
16
102
}
330
16
100
AcDbVisualStyle
  2
Linepattern
 70
14
177
3
291
1
 70
58
 90
2
176
1
 90
2
176
1
 90
0
176
1
 90
2
176
1
 40
0.6
176
1
 40
30.0
176
1
 62
7
420
16777215
176
1
 90
1
176
1
 90
4
176
1
 62
7
176
1
 62
257
176
1
 90
1
176
1
 90
1
176
1
 40
1.0
176
1
 90
8
176
1
 62
7
176
1
 40
1.0
176
1
 90
1
176
1
 90
6
176
1
 90
2
176
1
 62
7
176
1
 90
5
176
1
 90
0
176
1
 90
0
176
1
290
0
176
1
 90
1
176
1
 40
0.0
176
1
 90
0
176
1
290
0
176
1
290
1
176
1
290
1
176
1
290
0
176
1
290
0
176
1
290
0
176
1
290
0
176
1
290
0
176
1
290
0
176
1
 90
50
176
1
 40
0.0
176
1
 40
1.0
176
1
 90
0
176
1
 62
18
420
0
176
1
 90
50
176
1
 90
3
176
1
 62
5
420
255
176
1
290
0
176
1
 90
50
176
1
 90
50
176
1
 90
50
176
1
290
0
176
1
 90
50
176
1
 62
256
176
0
 40
1.0
176
0
 90
2
176
1
  1
strokes_ogs.tif
176
1
290
0
176
1
 40
1.0
176
1
 40
1.0
176
1
  0
VISUALSTYLE
  5
69
102
{ACAD_REACTORS
330
16
102
}
330
16
100
AcDbVisualStyle
  2
Modeling
 70
10
177
3
291
0
 70
58
 90
2
176
1
 90
2
176
1
 90
0
176
1
 90
2
176
1
 40
0.6
176
1
 40
30.0
176
1
 62
7
420
16777215
176
1
 90
1
176
1
 90
4
176
1
 62
7
176
1
 62
257
176
1
 90
1
176
1
 90
1
176
1
 40
1.0
176
1
 90
8
176
1
 62
7
176
1
 40
1.0
176
1
 90
1
176
1
 90
6
176
1
 90
2
176
1
 62
7
176
1
 90
5
176
1
 90
0
176
1
 90
0
176
1
290
0
176
1
 90
1
176
1
 40
0.0
176
1
 90
0
176
1
290
0
176
1
290
1
176
1
290
1
176
1
290
0
176
1
290
0
176
1
290
0
176
1
290
0
176
1
290
0
176
1
290
0
176
1
 90
50
176
1
 40
0.0
176
1
 40
1.0
176
1
 90
0
176
1
 62
18
420
0
176
1
 90
50
176
1
 90
3
176
1
 62
5
420
255
176
1
290
0
176
1
 90
50
176
1
 90
50
176
1
 90
50
176
1
290
0
176
1
 90
50
176
1
 62
256
176
0
 40
1.0
176
0
 90
2
176
1
  1
strokes_ogs.tif
176
1
290
0
176
1
 40
1.0
176
1
 40
1.0
176
1
  0
VISUALSTYLE
  5
6A
102
{ACAD_REACTORS
330
16
102
}
330
16
100
AcDbVisualStyle
  2
OverhangOff
 70
21
177
3
291
1
 70
58
 90
2
176
1
 90
2
176
1
 90
0
176
1
 90
2
176
1
 40
0.6
176
1
 40
30.0
176
1
 62
7
420
16777215
176
1
 90
1
176
1
 90
4
176
1
 62
7
176
1
 62
257
176
1
 90
1
176
1
 90
1
176
1
 40
1.0
176
1
 90
8
176
1
 62
7
176
1
 40
1.0
176
1
 90
1
176
1
 90
6
176
1
 90
2
176
1
 62
7
176
1
 90
5
176
1
 90
0
176
1
 90
0
176
1
290
0
176
1
 90
1
176
1
 40
0.0
176
1
 90
0
176
1
290
0
176
1
290
1
176
1
290
1
176
1
290
0
176
1
290
0
176
1
290
0
176
1
290
0
176
1
290
0
176
1
290
0
176
1
 90
50
176
1
 40
0.0
176
1
 40
1.0
176
1
 90
0
176
1
 62
18
420
0
176
1
 90
50
176
1
 90
3
176
1
 62
5
420
255
176
1
290
0
176
1
 90
50
176
1
 90
50
176
1
 90
50
176
1
290
0
176
1
 90
50
176
1
 62
256
176
0
 40
1.0
176
0
 90
2
176
1
  1
strokes_ogs.tif
176
1
290
0
176
1
 40
1.0
176
1
 40
1.0
176
1
  0
VISUALSTYLE
  5
6B
102
{ACAD_REACTORS
330
16
102
}
330
16
100
AcDbVisualStyle
  2
Realistic
 70
8
177
3
291
0
 70
58
 90
2
176
1
 90
2
176
1
 90
0
176
1
 90
2
176
1
 40
0.6
176
1
 40
30.0
176
1
 62
7
420
16777215
176
1
 90
1
176
1
 90
4
176
1
 62
7
176
1
 62
257
176
1
 90
1
176
1
 90
1
176
1
 40
1.0
176
1
 90
8
176
1
 62
7
176
1
 40
1.0
176
1
 90
1
176
1
 90
6
176
1
 90
2
176
1
 62
7
176
1
 90
5
176
1
 90
0
176
1
 90
0
176
1
290
0
176
1
 90
1
176
1
 40
0.0
176
1
 90
0
176
1
290
0
176
1
290
1
176
1
290
1
176
1
290
0
176
1
290
0
176
1
290
0
176
1
290
0
176
1
290
0
176
1
290
0
176
1
 90
50
176
1
 40
0.0
176
1
 40
1.0
176
1
 90
0
176
1
 62
18
420
0
176
1
 90
50
176
1
 90
3
176
1
 62
5
420
255
176
1
290
0
176
1
 90
50
176
1
 90
50
176
1
 90
50
176
1
290
0
176
1
 90
50
176
1
 62
256
176
0
 40
1.0
176
0
 90
2
176
1
  1
strokes_ogs.tif
176
1
290
0
176
1
 40
1.0
176
1
 40
1.0
176
1
  0
VISUALSTYLE
  5
6C
102
{ACAD_REACTORS
330
16
102
}
330
16
100
AcDbVisualStyle
  2
Shaded
 70
27
177
3
291
0
 70
58
 90
2
176
1
 90
2
176
1
 90
0
176
1
 90
2
176
1
 40
0.6
176
1
 40
30.0
176
1
 62
7
420
16777215
176
1
 90
1
176
1
 90
4
176
1
 62
7
176
1
 62
257
176
1
 90
1
176
1
 90
1
176
1
 40
1.0
176
1
 90
8
176
1
 62
7
176
1
 40
1.0
176
1
 90
1
176
1
 90
6
176
1
 90
2
176
1
 62
7
176
1
 90
5
176
1
 90
0
176
1
 90
0
176
1
290
0
176
1
 90
1
176
1
 40
0.0
176
1
 90
0
176
1
290
0
176
1
290
1
176
1
290
1
176
1
290
0
176
1
290
0
176
1
290
0
176
1
290
0
176
1
290
0
176
1
290
0
176
1
 90
50
176
1
 40
0.0
176
1
 40
1.0
176
1
 90
0
176
1
 62
18
420
0
176
1
 90
50
176
1
 90
3
176
1
 62
5
420
255
176
1
290
0
176
1
 90
50
176
1
 90
50
176
1
 90
50
176
1
290
0
176
1
 90
50
176
1
 62
256
176
0
 40
1.0
176
0
 90
2
176
1
  1
strokes_ogs.tif
176
1
290
0
176
1
 40
1.0
176
1
 40
1.0
176
1
  0
VISUALSTYLE
  5
6D
102
{ACAD_REACTORS
330
16
102
}
330
16
100
AcDbVisualStyle
  2
Shaded with edges
 70
26
177
3
291
0
 70
58
 90
2
176
1
 90
2
176
1
 90
0
176
1
 90
2
176
1
 40
0.6
176
1
 40
30.0
176
1
 62
7
420
16777215
176
1
 90
1
176
1
 90
4
176
1
 62
7
176
1
 62
257
176
1
 90
1
176
1
 90
1
176
1
 40
1.0
176
1
 90
8
176
1
 62
7
176
1
 40
1.0
176
1
 90
1
176
1
 90
6
176
1
 90
2
176
1
 62
7
176
1
 90
5
176
1
 90
0
176
1
 90
0
176
1
290
0
176
1
 90
1
176
1
 40
0.0
176
1
 90
0
176
1
290
0
176
1
290
1
176
1
290
1
176
1
290
0
176
1
290
0
176
1
290
0
176
1
290
0
176
1
290
0
176
1
290
0
176
1
 90
50
176
1
 40
0.0
176
1
 40
1.0
176
1
 90
0
176
1
 62
18
420
0
176
1
 90
50
176
1
 90
3
176
1
 62
5
420
255
176
1
290
0
176
1
 90
50
176
1
 90
50
176
1
 90
50
176
1
290
0
176
1
 90
50
176
1
 62
256
176
0
 40
1.0
176
0
 90
2
176
1
  1
strokes_ogs.tif
176
1
290
0
176
1
 40
1.0
176
1
 40
1.0
176
1
  0
VISUALSTYLE
  5
6E
102
{ACAD_REACTORS
330
16
102
}
330
16
100
AcDbVisualStyle
  2
Shades of Gray
 70
23
177
3
291
0
 70
58
 90
2
176
1
 90
2
176
1
 90
0
176
1
 90
2
176
1
 40
0.6
176
1
 40
30.0
176
1
 62
7
420
16777215
176
1
 90
1
176
1
 90
4
176
1
 62
7
176
1
 62
257
176
1
 90
1
176
1
 90
1
176
1
 40
1.0
176
1
 90
8
176
1
 62
7
176
1
 40
1.0
176
1
 90
1
176
1
 90
6
176
1
 90
2
176
1
 62
7
176
1
 90
5
176
1
 90
0
176
1
 90
0
176
1
290
0
176
1
 90
1
176
1
 40
0.0
176
1
 90
0
176
1
290
0
176
1
290
1
176
1
290
1
176
1
290
0
176
1
290
0
176
1
290
0
176
1
290
0
176
1
290
0
176
1
290
0
176
1
 90
50
176
1
 40
0.0
176
1
 40
1.0
176
1
 90
0
176
1
 62
18
420
0
176
1
 90
50
176
1
 90
3
176
1
 62
5
420
255
176
1
290
0
176
1
 90
50
176
1
 90
50
176
1
 90
50
176
1
290
0
176
1
 90
50
176
1
 62
256
176
0
 40
1.0
176
0
 90
2
176
1
  1
strokes_ogs.tif
176
1
290
0
176
1
 40
1.0
176
1
 40
1.0
176
1
  0
VISUALSTYLE
  5
6F
102
{ACAD_REACTORS
330
16
102
}
330
16
100
AcDbVisualStyle
  2
Sketchy
 70
24
177
3
291
0
 70
58
 90
2
176
1
 90
2
176
1
 90
0
176
1
 90
1
176
1
 40
0.6
176
1
 40
30.0
176
1
 62
7
420
16777215
176
1
 90
1
176
1
 90
4
176
1
 62
7
176
1
 62
257
176
1
 90
1
176
1
 90
1
176
1
 40
1.0
176
1
 90
8
176
1
 62
7
176
1
 40
1.0
176
1
 90
1
176
1
 90
6
176
1
 90
2
176
1
 62
7
176
1
 90
5
176
1
 90
0
176
1
 90
0
176
1
290
0
176
1
 90
1
176
1
 40
0.0
176
1
 90
0
176
1
290
0
176
1
290
1
176
1
290
1
176
1
290
0
176
1
290
0
176
1
290
0
176
1
290
0
176
1
290
0
176
1
290
0
176
1
 90
50
176
1
 40
0.0
176
1
 40
1.0
176
1
 90
0
176
1
 62
18
420
0
176
1
 90
50
176
1
 90
3
176
1
 62
5
420
255
176
1
290
0
176
1
 90
50
176
1
 90
50
176
1
 90
50
176
1
290
0
176
1
 90
50
176
1
 62
256
176
0
 40
1.0
176
0
 90
2
176
1
  1
strokes_ogs.tif
176
1
290
0
176
1
 40
1.0
176
1
 40
1.0
176
1
  0
VISUALSTYLE
  5
70
102
{ACAD_REACTORS
330
16
102
}
330
16
100
AcDbVisualStyle
  2
Thicken
 70
13
177
3
291
1
 70
58
 90
2
176
1
 90
2
176
1
 90
0
176
1
 90
2
176
1
 40
0.6
176
1
 40
30.0
176
1
 62
7
420
16777215
176
1
 90
1
176
1
 90
4
176
1
 62
7
176
1
 62
257
176
1
 90
1
176
1
 90
1
176
1
 40
1.0
176
1
 90
8
176
1
 62
7
176
1
 40
1.0
176
1
 90
1
176
1
 90
6
176
1
 90
2
176
1
 62
7
176
1
 90
5
176
1
 90
0
176
1
 90
0
176
1
290
0
176
1
 90
1
176
1
 40
0.0
176
1
 90
0
176
1
290
0
176
1
290
1
176
1
290
1
176
1
290
0
176
1
290
0
176
1
290
0
176
1
290
0
176
1
290
0
176
1
290
0
176
1
 90
50
176
1
 40
0.0
176
1
 40
1.0
176
1
 90
0
176
1
 62
18
420
0
176
1
 90
50
176
1
 90
3
176
1
 62
5
420
255
176
1
290
0
176
1
 90
50
176
1
 90
50
176
1
 90
50
176
1
290
0
176
1
 90
50
176
1
 62
256
176
0
 40
1.0
176
0
 90
2
176
1
  1
strokes_ogs.tif
176
1
290
0
176
1
 40
1.0
176
1
 40
1.0
176
1
  0
VISUALSTYLE
  5
71
102
{ACAD_REACTORS
330
16
102
}
330
16
100
AcDbVisualStyle
  2
Wireframe
 70
5
177
3
291
0
 70
58
 90
2
176
1
 90
2
176
1
 90
0
176
1
 90
0
176
1
 40
0.6
176
1
 40
30.0
176
1
 62
7
420
16777215
176
1
 90
1
176
1
 90
4
176
1
 62
7
176
1
 62
257
176
1
 90
1
176
1
 90
1
176
1
 40
1.0
176
1
 90
8
176
1
 62
7
176
1
 40
1.0
176
1
 90
1
176
1
 90
6
176
1
 90
2
176
1
 62
7
176
1
 90
5
176
1
 90
0
176
1
 90
0
176
1
290
0
176
1
 90
1
176
1
 40
0.0
176
1
 90
0
176
1
290
0
176
1
290
1
176
1
290
1
176
1
290
0
176
1
290
0
176
1
290
0
176
1
290
0
176
1
290
0
176
1
290
0
176
1
 90
50
176
1
 40
0.0
176
1
 40
1.0
176
1
 90
0
176
1
 62
18
420
0
176
1
 90
50
176
1
 90
3
176
1
 62
5
420
255
176
1
290
0
176
1
 90
50
176
1
 90
50
176
1
 90
50
176
1
290
0
176
1
 90
50
176
1
 62
256
176
0
 40
1.0
176
0
 90
2
176
1
  1
strokes_ogs.tif
176
1
290
0
176
1
 40
1.0
176
1
 40
1.0
176
1
  0
VISUALSTYLE
  5
72
102
{ACAD_REACTORS
330
16
102
}
330
16
100
AcDbVisualStyle
  2
X-Ray
 70
25
177
3
291
0
 70
58
 90
2
176
1
 90
2
176
1
 90
0
176
1
 90
2
176
1
 40
0.5
176
1
 40
30.0
176
1
 62
7
420
16777215
176
1
 90
1
176
1
 90
4
176
1
 62
7
176
1
 62
257
176
1
 90
1
176
1
 90
1
176
1
 40
1.0
176
1
 90
8
176
1
 62
7
176
1
 40
1.0
176
1
 90
1
176
1
 90
6
176
1
 90
2
176
1
 62
7
176
1
 90
5
176
1
 90
0
176
1
 90
0
176
1
290
0
176
1
 90
1
176
1
 40
0.0
176
1
 90
0
176
1
290
0
176
1
290
1
176
1
290
1
176
1
290
0
176
1
290
0
176
1
290
0
176
1
290
0
176
1
290
0
176
1
290
0
176
1
 90
50
176
1
 40
0.0
176
1
 40
1.0
176
1
 90
0
176
1
 62
18
420
0
176
1
 90
50
176
1
 90
3
176
1
 62
5
420
255
176
1
290
0
176
1
 90
50
176
1
 90
50
176
1
 90
50
176
1
290
0
176
1
 90
50
176
1
 62
256
176
0
 40
1.0
176
0
 90
2
176
1
  1
strokes_ogs.tif
176
1
290
0
176
1
 40
1.0
176
1
 40
1.0
176
1
  0
DICTIONARYVAR
  5
167
330
2D
100
DictionaryVariables
280
0
  1
1.4.4 @ 2026-09-20T00:06:40.054456+00:00
  0
ENDSEC
  0
EOF
