  0
SECTION
  2
HEADER
  9
$ACADVER
  1
AC1027
  9
$ACADMAINTVER
 70
105
  9
$DWGCODEPAGE
  3
ANSI_1252
  9
$LASTSAVEDBY
  1
ezdxf
  9
$REQUIREDVERSIONS
160
0
  9
$INSBASE
 10
0.0
 20
0.0
 30
0.0
  9
$EXTMIN
 10
1e+20
 20
1e+20
 30
1e+20
  9
$EXTMAX
 10
-1e+20
 20
-1e+20
 30
-1e+20
  9
$LIMMIN
 10
0.0
 20
0.0
  9
$LIMMAX
 10
420.0
 20
297.0
  9
$ORTHOMODE
 70
0
  9
$REGENMODE
 70
1
  9
$FILLMODE
 70
1
  9
$QTEXTMODE
 70
0
  9
$MIRRTEXT
 70
1
  9
$LTSCALE
 40
1.0
  9
$ATTMODE
 70
1
  9
$TEXTSIZE
 40
2.5
  9
$TRACEWID
 40
1.0
  9
$TEXTSTYLE
  7
OpenSans
  9
$CLAYER
  8
0
  9
$CELTYPE
  6
ByLayer
  9
$CECOLOR
 62
256
  9
$CELTSCALE
 40
1.0
  9
$DISPSILH
 70
0
  9
$DIMSCALE
 40
1.0
  9
$DIMASZ
 40
0.175
  9
$DIMEXO
 40
0.125
  9
$DIMDLI
 40
3.75
  9
$DIMRND
 40
0.0
  9
$DIMDLE
 40
0.0
  9
$DIMEXE
 40
0.375
  9
$DIMTP
 40
0.0
  9
$DIMTM
 40
0.0
  9
$DIMTXT
 40
0.25
  9
$DIMCEN
 40
2.5
  9
$DIMTSZ
 40
0.0
  9
$DIMTOL
 70
0
  9
$DIMLIM
 70
0
  9
$DIMTIH
 70
0
  9
$DIMTOH
 70
0
  9
$DIMSE1
 70
0
  9
$DIMSE2
 70
0
  9
$DIMTAD
 70
1
  9
$DIMZIN
 70
12
  9
$DIMBLK
  1
ARCHTICK
  9
$DIMASO
 70
1
  9
$DIMSHO
 70
1
  9
$DIMPOST
  1

  9
$DIMAPOST
  1

  9
$DIMALT
 70
0
  9
$DIMALTD
 70
3
  9
$DIMALTF
 40
0.03937007874
  9
$DIMLFAC
 40
100.0
  9
$DIMTOFL
 70
1
  9
$DIMTVP
 40
0.0
  9
$DIMTIX
 70
0
  9
$DIMSOXD
 70
0
  9
$DIMSAH
 70
0
  9
$DIMBLK1
  1

  9
$DIMBLK2
  1

  9
$DIMSTYLE
  2
EZDXF
  9
$DIMCLRD
 70
0
  9
$DIMCLRE
 70
0
  9
$DIMCLRT
 70
0
  9
$DIMTFAC
 40
0.5
  9
$DIMGAP
 40
0.1
  9
$DIMJUST
 70
0
  9
$DIMSD1
 70
0
  9
$DIMSD2
 70
0
  9
$DIMTOLJ
 70
0
  9
$DIMTZIN
 70
8
  9
$DIMALTZ
 70
0
  9
$DIMALTTZ
 70
0
  9
$DIMUPT
 70
1
  9
$DIMDEC
 70
2
  9
$DIMTDEC
 70
2
  9
$DIMALTU
 70
2
  9
$DIMALTTD
 70
3
  9
$DIMTXSTY
  7
OpenSansCondensed-Light
  9
$DIMAUNIT
 70
0
  9
$DIMADEC
 70
2
  9
$DIMALTRND
 40
0.0
  9
$DIMAZIN
 70
3
  9
$DIMDSEP
 70
46
  9
$DIMATFIT
 70
3
  9
$DIMFRAC
 70
0
  9
$DIMLDRBLK
  1

  9
$DIMLUNIT
 70
2
  9
$DIMLWD
 70
-2
  9
$DIMLWE
 70
-2
  9
$DIMTMOVE
 70
2
  9
$DIMFXL
 40
1.0
  9
$DIMFXLON
 70
0
  9
$DIMJOGANG
 40
0.785398163397
  9
$DIMTFILL
 70
0
  9
$DIMTFILLCLR
 70
0
  9
$DIMARCSYM
 70
0
  9
$DIMLTYPE
  6

  9
$DIMLTEX1
  6

  9
$DIMLTEX2
  6

  9
$DIMTXTDIRECTION
 70
0
  9
$LUNITS
 70
2
  9
$LUPREC
 70
4
  9
$SKETCHINC
 40
1.0
  9
$FILLETRAD
 40
10.0
  9
$AUNITS
 70
0
  9
$AUPREC
 70
2
  9
$MENU
  1
.
  9
$ELEVATION
 40
0.0
  9
$PELEVATION
 40
0.0
  9
$THICKNESS
 40
0.0
  9
$LIMCHECK
 70
0
  9
$CHAMFERA
 40
0.0
  9
$CHAMFERB
 40
0.0
  9
$CHAMFERC
 40
0.0
  9
$CHAMFERD
 40
0.0
  9
$SKPOLY
 70
0
  9
$TDCREATE
 40
2461305.0871527777
  9
$TDUCREATE
 40
2458532.153996898
  9
$TDUPDATE
 40
2461305.0871527777
  9
$TDUUPDATE
 40
2458532.1544311
  9
$TDINDWG
 40
0.0
  9
$TDUSRTIMER
 40
0.0
  9
$USRTIMER
 70
1
  9
$ANGBASE
 50
0.0
  9
$ANGDIR
 70
0
  9
$PDMODE
 70
0
  9
$PDSIZE
 40
0.0
  9
$PLINEWID
 40
0.0
  9
$SPLFRAME
 70
0
  9
$SPLINETYPE
 70
6
  9
$SPLINESEGS
 70
8
  9
$HANDSEED
  5
1ED
  9
$SURFTAB1
 70
6
  9
$SURFTAB2
 70
6
  9
$SURFTYPE
 70
6
  9
$SURFU
 70
6
  9
$SURFV
 70
6
  9
$UCSBASE
  2

  9
$UCSNAME
  2

  9
$UCSORG
 10
0.0
 20
0.0
 30
0.0
  9
$UCSXDIR
 10
1.0
 20
0.0
 30
0.0
  9
$UCSYDIR
 10
0.0
 20
1.0
 30
0.0
  9
$UCSORTHOREF
  2

  9
$UCSORTHOVIEW
 70
0
  9
$UCSORGTOP
 10
0.0
 20
0.0
 30
0.0
  9
$UCSORGBOTTOM
 10
0.0
 20
0.0
 30
0.0
  9
$UCSORGLEFT
 10
0.0
 20
0.0
 30
0.0
  9
$UCSORGRIGHT
 10
0.0
 20
0.0
 30
0.0
  9
$UCSORGFRONT
 10
0.0
 20
0.0
 30
0.0
  9
$UCSORGBACK
 10
0.0
 20
0.0
 30
0.0
  9
$PUCSBASE
  2

  9
$PUCSNAME
  2

  9
$PUCSORG
 10
0.0
 20
0.0
 30
0.0
  9
$PUCSXDIR
 10
1.0
 20
0.0
 30
0.0
  9
$PUCSYDIR
 10
0.0
 20
1.0
 30
0.0
  9
$PUCSORTHOREF
  2

  9
$PUCSORTHOVIEW
 70
0
  9
$PUCSORGTOP
 10
0.0
 20
0.0
 30
0.0
  9
$PUCSORGBOTTOM
 10
0.0
 20
0.0
 30
0.0
  9
$PUCSORGLEFT
 10
0.0
 20
0.0
 30
0.0
  9
$PUCSORGRIGHT
 10
0.0
 20
0.0
 30
0.0
  9
$PUCSORGFRONT
 10
0.0
 20
0.0
 30
0.0
  9
$PUCSORGBACK
 10
0.0
 20
0.0
 30
0.0
  9
$USERI1
 70
0
  9
$USERI2
 70
0
  9
$USERI3
 70
0
  9
$USERI4
 70
0
  9
$USERI5
 70
0
  9
$USERR1
 40
0.0
  9
$USERR2
 40
0.0
  9
$USERR3
 40
0.0
  9
$USERR4
 40
0.0
  9
$USERR5
 40
0.0
  9
$WORLDVIEW
 70
1
  9
$SHADEDGE
 70
3
  9
$SHADEDIF
 70
70
  9
$TILEMODE
 70
1
  9
$MAXACTVP
 70
64
  9
$PINSBASE
 10
0.0
 20
0.0
 30
0.0
  9
$PLIMCHECK
 70
0
  9
$PEXTMIN
 10
1e+20
 20
1e+20
 30
1e+20
  9
$PEXTMAX
 10
-1e+20
 20
-1e+20
 30
-1e+20
  9
$PLIMMIN
 10
0.0
 20
0.0
  9
$PLIMMAX
 10
420.0
 20
297.0
  9
$UNITMODE
 70
0
  9
$VISRETAIN
 70
1
  9
$PLINEGEN
 70
0
  9
$PSLTSCALE
 70
1
  9
$TREEDEPTH
 70
3020
  9
$CMLSTYLE
  2
Standard
  9
$CMLJUST
 70
0
  9
$CMLSCALE
 40
20.0
  9
$PROXYGRAPHICS
 70
1
  9
$MEASUREMENT
 70
1
  9
$CELWEIGHT
370
-1
  9
$ENDCAPS
280
0
  9
$JOINSTYLE
280
0
  9
$LWDISPLAY
290
0
  9
$INSUNITS
 70
4
  9
$HYPERLINKBASE
  1

  9
$STYLESHEET
  1

  9
$XEDIT
290
1
  9
$CEPSNTYPE
380
0
  9
$PSTYLEMODE
290
1
  9
$FINGERPRINTGUID
  2
{2C28BDB4-C434-42DE-9219-73CCC743EB18}
  9
$VERSIONGUID
  2
{BBB533BB-3AB8-4881-A6CB-40C49B86C2C1}
  9
$EXTNAMES
290
1
  9
$PSVPSCALE
 40
0.0
  9
$OLESTARTUP
290
0
  9
$SORTENTS
280
127
  9
$INDEXCTL
280
0
  9
$HIDETEXT
280
1
  9
$XCLIPFRAME
280
1
  9
$HALOGAP
280
0
  9
$OBSCOLOR
 70
257
  9
$OBSLTYPE
280
0
  9
$INTERSECTIONDISPLAY
280
0
  9
$INTERSECTIONCOLOR
 70
257
  9
$DIMASSOC
280
2
  9
$PROJECTNAME
  1

  9
$CAMERADISPLAY
290
0
  9
$LENSLENGTH
 40
50.0
  9
$CAMERAHEIGHT
 40
0.0
  9
$STEPSPERSEC
 40
24.0
  9
$STEPSIZE
 40
100.0
  9
$3DDWFPREC
 40
2.0
  9
$PSOLWIDTH
 40
0.005
  9
$PSOLHEIGHT
 40
0.08
  9
$LOFTANG1
 40
1.570796326795
  9
$LOFTANG2
 40
1.570796326795
  9
$LOFTMAG1
 40
0.0
  9
$LOFTMAG2
 40
0.0
  9
$LOFTPARAM
 70
7
  9
$LOFTNORMALS
280
1
  9
$LATITUDE
 40
37.795
  9
$LONGITUDE
 40
-122.394
  9
$NORTHDIRECTION
 40
0.0
  9
$TIMEZONE
 70
-8000
  9
$LIGHTGLYPHDISPLAY
280
1
  9
$TILEMODELIGHTSYNCH
280
1
  9
$CMATERIAL
347
20
  9
$SOLIDHIST
280
0
  9
$SHOWHIST
280
1
  9
$DWFFRAME
280
2
  9
$DGNFRAME
280
2
  9
$REALWORLDSCALE
290
1
  9
$INTERFERECOLOR
 62
256
  9
$CSHADOW
280
0
  9
$SHADOWPLANELOCATION
 40
0.0
  0
ENDSEC
  0
SECTION
  2
CLASSES
  0
CLASS
  1
ACDBDICTIONARYWDFLT
  2
AcDbDictionaryWithDefault
  3
ObjectDBX Classes
 90
0
 91
0
280
0
281
0
  0
CLASS
  1
SUN
  2
AcDbSun
  3
SCENEOE
 90
1153
 91
0
280
0
281
0
  0
CLASS
  1
VISUALSTYLE
  2
AcDbVisualStyle
  3
ObjectDBX Classes
 90
4095
 91
0
280
0
281
0
  0
CLASS
  1
MATERIAL
  2
AcDbMaterial
  3
ObjectDBX Classes
 90
1153
 91
0
280
0
281
0
  0
CLASS
  1
SCALE
  2
AcDbScale
  3
ObjectDBX Classes
 90
1153
 91
0
280
0
281
0
  0
CLASS
  1
TABLESTYLE
  2
AcDbTableStyle
  3
ObjectDBX Classes
 90
4095
 91
0
280
0
281
0
  0
CLASS
  1
MLEADERSTYLE
  2
AcDbMLeaderStyle
  3
ACDB_MLEADERSTYLE_CLASS
 90
4095
 91
0
280
0
281
0
  0
CLASS
  1
DICTIONARYVAR
  2
AcDbDictionaryVar
  3
ObjectDBX Classes
 90
0
 91
0
280
0
281
0
  0
CLASS
  1
CELLSTYLEMAP
  2
AcDbCellStyleMap
  3
ObjectDBX Classes
 90
1152
 91
0
280
0
281
0
  0
CLASS
  1
MENTALRAYRENDERSETTINGS
  2
AcDbMentalRayRenderSettings
  3
SCENEOE
 90
1024
 91
0
280
0
281
0
  0
CLASS
  1
ACDBDETAILVIEWSTYLE
  2
AcDbDetailViewStyle
  3
ObjectDBX Classes
 90
1025
 91
0
280
0
281
0
  0
CLASS
  1
ACDBSECTIONVIEWSTYLE
  2
AcDbSectionViewStyle
  3
ObjectDBX Classes
 90
1025
 91
0
280
0
281
0
  0
CLASS
  1
RASTERVARIABLES
  2
AcDbRasterVariables
  3
ISM
 90
0
 91
0
280
0
281
0
  0
CLASS
  1
LAYOUT
  2
AcDbLayout
  3
ObjectDBX Classes
 90
0
 91
0
280
0
281
0
  0
CLASS
  1
ACDBPLACEHOLDER
  2
AcDbPlaceHolder
  3
ObjectDBX Classes
 90
0
 91
0
280
0
281
0
  0
ENDSEC
  0
SECTION
  2
TABLES
  0
TABLE
  2
VPORT
  5
8
330
0
100
AcDbSymbolTable
 70
1
  0
VPORT
  5
23
330
8
100
AcDbSymbolTableRecord
100
AcDbViewportTableRecord
  2
*Active
 70
0
 10
0.0
 20
0.0
 11
1.0
 21
1.0
 12
0.0
 22
0.0
 13
0.0
 23
0.0
 14
0.5
 24
0.5
 15
0.5
 25
0.5
 16
0.0
 26
0.0
 36
1.0
 17
0.0
 27
0.0
 37
0.0
 40
1000.0
 41
1.34
 42
50.0
 43
0.0
 44
0.0
 50
0.0
 51
0.0
 71
0
 72
1000
 73
1
 74
3
 75
0
 76
0
 77
0
 78
0
281
0
 65
0
146
0.0
  0
ENDTAB
  0
TABLE
  2
LTYPE
  5
2
330
0
100
AcDbSymbolTable
 70
21
  0
LTYPE
  5
24
330
2
100
AcDbSymbolTableRecord
100
AcDbLinetypeTableRecord
  2
ByBlock
 70
0
  3

 72
65
 73
0
 40
0.0
  0
LTYPE
  5
25
330
2
100
AcDbSymbolTableRecord
100
AcDbLinetypeTableRecord
  2
ByLayer
 70
0
  3

 72
65
 73
0
 40
0.0
  0
LTYPE
  5
26
330
2
100
AcDbSymbolTableRecord
100
AcDbLinetypeTableRecord
  2
Continuous
 70
0
  3

 72
65
 73
0
 40
0.0
  0
LTYPE
  5
2F
330
2
100
AcDbSymbolTableRecord
100
AcDbLinetypeTableRecord
  2
CENTER
 70
0
  3
Center ____ _ ____ _ ____ _ ____ _ ____ _ ____
 72
65
 73
4
 40
5.08
 49
3.175
 74
0
 49
-0.635
 74
0
 49
0.635
 74
0
 49
-0.635
 74
0
  0
LTYPE
  5
30
330
2
100
AcDbSymbolTableRecord
100
AcDbLinetypeTableRecord
  2
CENTERX2
 70
0
  3
Center (2x) ________  __  ________  __  ________
 72
65
 73
4
 40
8.89
 49
6.35
 74
0
 49
-0.635
 74
0
 49
1.27
 74
0
 49
-0.635
 74
0
  0
LTYPE
  5
31
330
2
100
AcDbSymbolTableRecord
100
AcDbLinetypeTableRecord
  2
CENTER2
 70
0
  3
Center (.5x) ____ _ ____ _ ____ _ ____ _ ____
 72
65
 73
4
 40
2.54
 49
1.587
 74
0
 49
-0.318
 74
0
 49
0.318
 74
0
 49
-0.318
 74
0
  0
LTYPE
  5
32
330
2
100
AcDbSymbolTableRecord
100
AcDbLinetypeTableRecord
  2
DASHED
 70
0
  3
Dashed __ __ __ __ __ __ __ __ __ __ __ __ __ _
 72
65
 73
2
 40
1.524
 49
1.27
 74
0
 49
-0.254
 74
0
  0
LTYPE
  5
33
330
2
100
AcDbSymbolTableRecord
100
AcDbLinetypeTableRecord
  2
DASHEDX2
 70
0
  3
Dashed (2x) ____  ____  ____  ____  ____  ____
 72
65
 73
2
 40
3.048
 49
2.54
 74
0
 49
-0.508
 74
0
  0
LTYPE
  5
34
330
2
100
AcDbSymbolTableRecord
100
AcDbLinetypeTableRecord
  2
DASHED2
 70
0
  3
Dashed (.5x) _ _ _ _ _ _ _ _ _ _ _ _ _ _
 72
65
 73
2
 40
0.762
 49
0.635
 74
0
 49
-0.127
 74
0
  0
LTYPE
  5
35
330
2
100
AcDbSymbolTableRecord
100
AcDbLinetypeTableRecord
  2
PHANTOM
 70
0
  3
Phantom ______  __  __  ______  __  __  ______
 72
65
 73
6
 40
6.35
 49
3.175
 74
0
 49
-0.635
 74
0
 49
0.635
 74
0
 49
-0.635
 74
0
 49
0.635
 74
0
 49
-0.635
 74
0
  0
LTYPE
  5
36
330
2
100
AcDbSymbolTableRecord
100
AcDbLinetypeTableRecord
  2
PHANTOMX2
 70
0
  3
Phantom (2x)____________    ____    ____    ____________
 72
65
 73
6
 40
10.795
 49
6.35
 74
0
 49
-0.635
 74
0
 49
1.27
 74
0
 49
-0.635
 74
0
 49
1.27
 74
0
 49
-0.635
 74
0
  0
LTYPE
  5
37
330
2
100
AcDbSymbolTableRecord
100
AcDbLinetypeTableRecord
  2
PHANTOM2
 70
0
  3
Phantom (.5x) ___ _ _ ___ _ _ ___ _ _ ___ _ _ ___
 72
65
 73
6
 40
3.175
 49
1.587
 74
0
 49
-0.318
 74
0
 49
0.318
 74
0
 49
-0.318
 74
0
 49
0.318
 74
0
 49
-0.318
 74
0
  0
LTYPE
  5
38
330
2
100
AcDbSymbolTableRecord
100
AcDbLinetypeTableRecord
  2
DASHDOT
 70
0
  3
Dash dot __ . __ . __ . __ . __ . __ . __ . __
 72
65
 73
4
 40
3.556
 49
2.54
 74
0
 49
-0.508
 74
0
 49
0.0
 74
0
 49
-0.508
 74
0
  0
LTYPE
  5
39
330
2
100
AcDbSymbolTableRecord
100
AcDbLinetypeTableRecord
  2
DASHDOTX2
 70
0
  3
Dash dot (2x) ____  .  ____  .  ____  .  ____
 72
65
 73
4
 40
6.096
 49
5.08
 74
0
 49
-0.508
 74
0
 49
0.0
 74
0
 49
-0.508
 74
0
  0
LTYPE
  5
3A
330
2
100
AcDbSymbolTableRecord
100
AcDbLinetypeTableRecord
  2
DASHDOT2
 70
0
  3
Dash dot (.5x) _ . _ . _ . _ . _ . _ . _ . _
 72
65
 73
4
 40
1.778
 49
1.27
 74
0
 49
-0.254
 74
0
 49
0.0
 74
0
 49
-0.254
 74
0
  0
LTYPE
  5
3B
330
2
100
AcDbSymbolTableRecord
100
AcDbLinetypeTableRecord
  2
DOT
 70
0
  3
Dot .  .  .  .  .  .  .  .  .  .  .  .  .  .  .  .
 72
65
 73
2
 40
0.508
 49
0.0
 74
0
 49
-0.508
 74
0
  0
LTYPE
  5
3C
330
2
100
AcDbSymbolTableRecord
100
AcDbLinetypeTableRecord
  2
DOTX2
 70
0
  3
Dot (2x) .    .    .    .    .    .    .    . 
 72
65
 73
2
 40
1.016
 49
0.0
 74
0
 49
-1.016
 74
0
  0
LTYPE
  5
3D
330
2
100
AcDbSymbolTableRecord
100
AcDbLinetypeTableRecord
  2
DOT2
 70
0
  3
Dot (.5) . . . . . . . . . . . . . . . . . . . 
 72
65
 73
2
 40
0.254
 49
0.0
 74
0
 49
-0.254
 74
0
  0
LTYPE
  5
3E
330
2
100
AcDbSymbolTableRecord
100
AcDbLinetypeTableRecord
  2
DIVIDE
 70
0
  3
Divide __ . . __ . . __ . . __ . . __ . . __
 72
65
 73
6
 40
4.064
 49
2.54
 74
0
 49
-0.508
 74
0
 49
0.0
 74
0
 49
-0.508
 74
0
 49
0.0
 74
0
 49
-0.508
 74
0
  0
LTYPE
  5
3F
330
2
100
AcDbSymbolTableRecord
100
AcDbLinetypeTableRecord
  2
DIVIDEX2
 70
0
  3
Divide (2x) ____  . .  ____  . .  ____  . .  ____
 72
65
 73
6
 40
6.604
 49
5.08
 74
0
 49
-0.508
 74
0
 49
0.0
 74
0
 49
-0.508
 74
0
 49
0.0
 74
0
 49
-0.508
 74
0
  0
LTYPE
  5
40
330
2
100
AcDbSymbolTableRecord
100
AcDbLinetypeTableRecord
  2
DIVIDE2
 70
0
  3
Divide(.5x) _ . _ . _ . _ . _ . _ . _ . _
 72
65
 73
6
 40
2.032
 49
1.27
 74
0
 49
-0.254
 74
0
 49
0.0
 74
0
 49
-0.254
 74
0
 49
0.0
 74
0
 49
-0.254
 74
0
  0
ENDTAB
  0
TABLE
  2
LAYER
  5
1
330
0
100
AcDbSymbolTable
 70
15
  0
LAYER
  5
27
330
1
100
AcDbSymbolTableRecord
100
AcDbLayerTableRecord
  2
0
 70
0
 62
7
  6
Continuous
370
-3
390
13
347
21
  0
LAYER
  5
28
330
1
100
AcDbSymbolTableRecord
100
AcDbLayerTableRecord
  2
Defpoints
 70
0
 62
7
  6
Continuous
290
0
370
-3
390
13
347
21
  0
LAYER
  5
8A
330
1
100
AcDbSymbolTableRecord
100
AcDbLayerTableRecord
  2
00_РАМКА
 70
0
 62
7
  6
CONTINUOUS
370
-3
390
13
347
21
  0
LAYER
  5
8B
330
1
100
AcDbSymbolTableRecord
100
AcDbLayerTableRecord
  2
01_ОБШИВКА
 70
0
 62
7
  6
CONTINUOUS
370
-3
390
13
347
21
  0
LAYER
  5
8C
330
1
100
AcDbSymbolTableRecord
100
AcDbLayerTableRecord
  2
02_ПАЛУБЫ
 70
0
 62
4
  6
CONTINUOUS
370
-3
390
13
347
21
  0
LAYER
  5
8D
330
1
100
AcDbSymbolTableRecord
100
AcDbLayerTableRecord
  2
03_ПЕРЕБОРКИ
 70
0
 62
1
  6
CONTINUOUS
370
-3
390
13
347
21
  0
LAYER
  5
8E
330
1
100
AcDbSymbolTableRecord
100
AcDbLayerTableRecord
  2
04_ЦИСТЕРНЫ
 70
0
 62
3
  6
CONTINUOUS
370
-3
390
13
347
21
  0
LAYER
  5
8F
330
1
100
AcDbSymbolTableRecord
100
AcDbLayerTableRecord
  2
05_ОБОРУДОВАНИЕ
 70
0
 62
5
  6
CONTINUOUS
370
-3
390
13
347
21
  0
LAYER
  5
90
330
1
100
AcDbSymbolTableRecord
100
AcDbLayerTableRecord
  2
06_ПОМЕЩЕНИЯ
 70
0
 62
8
  6
CONTINUOUS
370
-3
390
13
347
21
  0
LAYER
  5
91
330
1
100
AcDbSymbolTableRecord
100
AcDbLayerTableRecord
  2
07_ОСИ
 70
0
 62
2
  6
CENTER
370
-3
390
13
347
21
  0
LAYER
  5
92
330
1
100
AcDbSymbolTableRecord
100
AcDbLayerTableRecord
  2
08_ТЕКСТ
 70
0
 62
7
  6
CONTINUOUS
370
-3
390
13
347
21
  0
LAYER
  5
93
330
1
100
AcDbSymbolTableRecord
100
AcDbLayerTableRecord
  2
09_РАЗМЕРЫ
 70
0
 62
6
  6
CONTINUOUS
370
-3
390
13
347
21
  0
LAYER
  5
94
330
1
100
AcDbSymbolTableRecord
100
AcDbLayerTableRecord
  2
10_НАБОР
 70
0
 62
9
  6
CONTINUOUS
370
-3
390
13
347
21
  0
LAYER
  5
95
330
1
100
AcDbSymbolTableRecord
100
AcDbLayerTableRecord
  2
11_КАЮТЫ
 70
0
 62
30
  6
CONTINUOUS
370
-3
390
13
347
21
  0
LAYER
  5
96
330
1
100
AcDbSymbolTableRecord
100
AcDbLayerTableRecord
  2
12_ТРАПЫ_ЛИФТЫ
 70
0
 62
6
  6
CONTINUOUS
370
-3
390
13
347
21
  0
ENDTAB
  0
TABLE
  2
STYLE
  5
5
330
0
100
AcDbSymbolTable
 70
27
  0
STYLE
  5
29
330
5
100
AcDbSymbolTableRecord
100
AcDbTextStyleTableRecord
  2
Standard
 70
0
 40
0.0
 41
1.0
 50
0.0
 71
0
 42
2.5
  3
txt
  4

  0
STYLE
  5
41
330
5
100
AcDbSymbolTableRecord
100
AcDbTextStyleTableRecord
  2
OpenSans-Light
 70
0
 40
0.0
 41
1.0
 50
0.0
 71
0
 42
2.5
  3
OpenSans-Light.ttf
  4

  0
STYLE
  5
42
330
5
100
AcDbSymbolTableRecord
100
AcDbTextStyleTableRecord
  2
OpenSans-Light-Italic
 70
0
 40
0.0
 41
1.0
 50
0.0
 71
0
 42
2.5
  3
OpenSans-LightItalic.ttf
  4

  0
STYLE
  5
43
330
5
100
AcDbSymbolTableRecord
100
AcDbTextStyleTableRecord
  2
OpenSans
 70
0
 40
0.0
 41
1.0
 50
0.0
 71
0
 42
2.5
  3
OpenSans-Regular.ttf
  4

  0
STYLE
  5
44
330
5
100
AcDbSymbolTableRecord
100
AcDbTextStyleTableRecord
  2
OpenSans-Italic
 70
0
 40
0.0
 41
1.0
 50
0.0
 71
0
 42
2.5
  3
OpenSans-Italic.ttf
  4

  0
STYLE
  5
45
330
5
100
AcDbSymbolTableRecord
100
AcDbTextStyleTableRecord
  2
OpenSans-SemiBold
 70
0
 40
0.0
 41
1.0
 50
0.0
 71
0
 42
2.5
  3
OpenSans-SemiBold.ttf
  4

  0
STYLE
  5
46
330
5
100
AcDbSymbolTableRecord
100
AcDbTextStyleTableRecord
  2
OpenSans-SemiBoldItalic
 70
0
 40
0.0
 41
1.0
 50
0.0
 71
0
 42
2.5
  3
OpenSans-SemiBoldItalic.ttf
  4

  0
STYLE
  5
47
330
5
100
AcDbSymbolTableRecord
100
AcDbTextStyleTableRecord
  2
OpenSans-Bold
 70
0
 40
0.0
 41
1.0
 50
0.0
 71
0
 42
2.5
  3
OpenSans-Bold.ttf
  4

  0
STYLE
  5
48
330
5
100
AcDbSymbolTableRecord
100
AcDbTextStyleTableRecord
  2
OpenSans-BoldItalic
 70
0
 40
0.0
 41
1.0
 50
0.0
 71
0
 42
2.5
  3
OpenSans-BoldItalic.ttf
  4

  0
STYLE
  5
49
330
5
100
AcDbSymbolTableRecord
100
AcDbTextStyleTableRecord
  2
OpenSans-ExtraBold
 70
0
 40
0.0
 41
1.0
 50
0.0
 71
0
 42
2.5
  3
OpenSans-ExtraBold.ttf
  4

  0
STYLE
  5
4A
330
5
100
AcDbSymbolTableRecord
100
AcDbTextStyleTableRecord
  2
OpenSans-ExtraBoldItalic
 70
0
 40
0.0
 41
1.0
 50
0.0
 71
0
 42
2.5
  3
OpenSans-ExtraBoldItalic.ttf
  4

  0
STYLE
  5
4B
330
5
100
AcDbSymbolTableRecord
100
AcDbTextStyleTableRecord
  2
OpenSansCondensed-Bold
 70
0
 40
0.0
 41
1.0
 50
0.0
 71
0
 42
2.5
  3
OpenSansCondensed-Bold.ttf
  4

  0
STYLE
  5
4C
330
5
100
AcDbSymbolTableRecord
100
AcDbTextStyleTableRecord
  2
OpenSansCondensed-Light
 70
0
 40
0.0
 41
1.0
 50
0.0
 71
0
 42
2.5
  3
OpenSansCondensed-Light.ttf
  4

  0
STYLE
  5
4D
330
5
100
AcDbSymbolTableRecord
100
AcDbTextStyleTableRecord
  2
OpenSansCondensed-Italic
 70
0
 40
0.0
 41
1.0
 50
0.0
 71
0
 42
2.5
  3
OpenSansCondensed-LightItalic.ttf
  4

  0
STYLE
  5
4E
330
5
100
AcDbSymbolTableRecord
100
AcDbTextStyleTableRecord
  2
LiberationSans
 70
0
 40
0.0
 41
1.0
 50
0.0
 71
0
 42
2.5
  3
LiberationSans-Regular.ttf
  4

  0
STYLE
  5
4F
330
5
100
AcDbSymbolTableRecord
100
AcDbTextStyleTableRecord
  2
LiberationSans-Bold
 70
0
 40
0.0
 41
1.0
 50
0.0
 71
0
 42
2.5
  3
LiberationSans-Bold.ttf
  4

  0
STYLE
  5
50
330
5
100
AcDbSymbolTableRecord
100
AcDbTextStyleTableRecord
  2
LiberationSans-BoldItalic
 70
0
 40
0.0
 41
1.0
 50
0.0
 71
0
 42
2.5
  3
LiberationSans-BoldItalic.ttf
  4

  0
STYLE
  5
51
330
5
100
AcDbSymbolTableRecord
100
AcDbTextStyleTableRecord
  2
LiberationSans-Italic
 70
0
 40
0.0
 41
1.0
 50
0.0
 71
0
 42
2.5
  3
LiberationSans-Italic.ttf
  4

  0
STYLE
  5
52
330
5
100
AcDbSymbolTableRecord
100
AcDbTextStyleTableRecord
  2
LiberationSerif
 70
0
 40
0.0
 41
1.0
 50
0.0
 71
0
 42
2.5
  3
LiberationSerif-Regular.ttf
  4

  0
STYLE
  5
53
330
5
100
AcDbSymbolTableRecord
100
AcDbTextStyleTableRecord
  2
LiberationSerif-Bold
 70
0
 40
0.0
 41
1.0
 50
0.0
 71
0
 42
2.5
  3
LiberationSerif-Bold.ttf
  4

  0
STYLE
  5
54
330
5
100
AcDbSymbolTableRecord
100
AcDbTextStyleTableRecord
  2
LiberationSerif-BoldItalic
 70
0
 40
0.0
 41
1.0
 50
0.0
 71
0
 42
2.5
  3
LiberationSerif-BoldItalic.ttf
  4

  0
STYLE
  5
55
330
5
100
AcDbSymbolTableRecord
100
AcDbTextStyleTableRecord
  2
LiberationSerif-Italic
 70
0
 40
0.0
 41
1.0
 50
0.0
 71
0
 42
2.5
  3
LiberationSerif-Italic.ttf
  4

  0
STYLE
  5
56
330
5
100
AcDbSymbolTableRecord
100
AcDbTextStyleTableRecord
  2
LiberationMono
 70
0
 40
0.0
 41
1.0
 50
0.0
 71
0
 42
2.5
  3
LiberationMono-Regular.ttf
  4

  0
STYLE
  5
57
330
5
100
AcDbSymbolTableRecord
100
AcDbTextStyleTableRecord
  2
LiberationMono-Bold
 70
0
 40
0.0
 41
1.0
 50
0.0
 71
0
 42
2.5
  3
LiberationMono-Bold.ttf
  4

  0
STYLE
  5
58
330
5
100
AcDbSymbolTableRecord
100
AcDbTextStyleTableRecord
  2
LiberationMono-BoldItalic
 70
0
 40
0.0
 41
1.0
 50
0.0
 71
0
 42
2.5
  3
LiberationMono-BoldItalic.ttf
  4

  0
STYLE
  5
59
330
5
100
AcDbSymbolTableRecord
100
AcDbTextStyleTableRecord
  2
LiberationMono-Italic
 70
0
 40
0.0
 41
1.0
 50
0.0
 71
0
 42
2.5
  3
LiberationMono-Italic.ttf
  4

  0
STYLE
  5
97
330
5
100
AcDbSymbolTableRecord
100
AcDbTextStyleTableRecord
  2
ГОСТ
 70
0
 40
0.0
 41
1.0
 50
0.0
 71
0
 42
2.5
  3
ISOCPEUR.TTF
  4

  0
ENDTAB
  0
TABLE
  2
VIEW
  5
7
330
0
100
AcDbSymbolTable
 70
0
  0
ENDTAB
  0
TABLE
  2
UCS
  5
6
330
0
100
AcDbSymbolTable
 70
0
  0
ENDTAB
  0
TABLE
  2
APPID
  5
3
330
0
100
AcDbSymbolTable
 70
3
  0
APPID
  5
2A
330
3
100
AcDbSymbolTableRecord
100
AcDbRegAppTableRecord
  2
ACAD
 70
0
  0
APPID
  5
1EA
330
3
100
AcDbSymbolTableRecord
100
AcDbRegAppTableRecord
  2
HATCHBACKGROUNDCOLOR
 70
0
  0
APPID
  5
1EB
330
3
100
AcDbSymbolTableRecord
100
AcDbRegAppTableRecord
  2
EZDXF
 70
0
  0
ENDTAB
  0
TABLE
  2
DIMSTYLE
  5
4
330
0
100
AcDbSymbolTable
 70
12
100
AcDbDimStyleTable
  0
DIMSTYLE
105
2B
330
4
100
AcDbSymbolTableRecord
100
AcDbDimStyleTableRecord
  2
Standard
 70
0
 40
1.0
 41
2.5
 42
0.625
 43
3.75
 44
1.25
 45
0.0
 46
0.0
 47
0.0
 48
0.0
 49
2.5
140
2.5
141
2.5
142
0.0
143
0.03937007874
144
1.0
145
0.0
146
1.0
147
0.625
148
0.0
 69
0
 70
0
 71
0
 72
0
 73
0
 74
0
 75
0
 76
0
 77
1
 78
8
 79
3
170
0
171
3
172
1
173
0
174
0
175
0
176
0
177
0
178
0
179
2
271
2
272
2
273
2
274
3
275
0
276
0
277
2
278
44
279
0
280
0
281
0
282
0
283
0
284
8
285
0
286
0
288
0
289
3
290
0
371
-2
372
-2
  0
DIMSTYLE
105
73
330
4
100
AcDbSymbolTableRecord
100
AcDbDimStyleTableRecord
  2
EZDXF
 70
0
 40
1.0
 41
0.175
 42
0.125
 43
3.75
 44
0.375
 45
0.0
 46
0.0
 47
0.0
 48
0.0
 49
2.5
140
0.25
141
2.5
142
0.0
143
0.03937007874
144
100.0
145
0.0
146
0.5
147
0.1
148
0.0
 69
0
 70
0
 71
0
 72
0
 73
0
 74
0
 75
0
 76
0
 77
1
 78
12
 79
3
170
0
171
3
172
1
173
0
174
0
175
0
176
0
177
0
178
0
179
2
271
2
272
2
273
2
274
3
275
0
276
0
277
2
278
46
279
2
280
0
281
0
282
0
283
0
284
8
285
0
286
0
288
1
289
3
290
0
340
4C
342
74
371
-2
372
-2
  0
DIMSTYLE
105
7C
330
4
100
AcDbSymbolTableRecord
100
AcDbDimStyleTableRecord
  2
EZ_M_100_H25_CM
 70
0
 40
1.0
 41
0.25
 42
0.125
 43
3.75
 44
0.375
 45
0.0
 46
0.0
 47
0.0
 48
0.0
 49
2.5
140
0.25
141
2.5
142
0.125
143
0.03937007874
144
100.0
145
0.0
146
0.5
147
0.1
148
0.0
 69
0
 70
0
 71
0
 72
0
 73
0
 74
0
 75
0
 76
0
 77
1
 78
12
 79
3
170
0
171
3
172
1
173
0
174
0
175
0
176
0
177
0
178
0
179
2
271
2
272
2
273
2
274
3
275
0
276
0
277
2
278
46
279
2
280
0
281
0
282
0
283
0
284
8
285
0
286
0
288
1
289
3
290
0
340
4C
371
-2
372
-2
  0
DIMSTYLE
105
7D
330
4
100
AcDbSymbolTableRecord
100
AcDbDimStyleTableRecord
  2
EZ_M_50_H25_CM
 70
0
 40
1.0
 41
0.125
 42
0.0625
 43
3.75
 44
0.1875
 45
0.0
 46
0.0
 47
0.0
 48
0.0
 49
2.5
140
0.125
141
2.5
142
0.0625
143
0.03937007874
144
100.0
145
0.0
146
0.5
147
0.05
148
0.0
 69
0
 70
0
 71
0
 72
0
 73
0
 74
0
 75
0
 76
0
 77
1
 78
12
 79
3
170
0
171
3
172
1
173
0
174
0
175
0
176
0
177
0
178
0
179
2
271
2
272
2
273
2
274
3
275
0
276
0
277
2
278
46
279
2
280
0
281
0
282
0
283
0
284
8
285
0
286
0
288
1
289
3
290
0
340
4C
371
-2
372
-2
  0
DIMSTYLE
105
7E
330
4
100
AcDbSymbolTableRecord
100
AcDbDimStyleTableRecord
  2
EZ_M_25_H25_CM
 70
0
 40
1.0
 41
0.0625
 42
0.03125
 43
3.75
 44
0.09375
 45
0.0
 46
0.0
 47
0.0
 48
0.0
 49
2.5
140
0.0625
141
2.5
142
0.03125
143
0.03937007874
144
100.0
145
0.0
146
0.5
147
0.025
148
0.0
 69
0
 70
0
 71
0
 72
0
 73
0
 74
0
 75
0
 76
0
 77
1
 78
12
 79
3
170
0
171
3
172
1
173
0
174
0
175
0
176
0
177
0
178
0
179
2
271
2
272
2
273
2
274
3
275
0
276
0
277
2
278
46
279
2
280
0
281
0
282
0
283
0
284
8
285
0
286
0
288
1
289
3
290
0
340
4C
371
-2
372
-2
  0
DIMSTYLE
105
7F
330
4
100
AcDbSymbolTableRecord
100
AcDbDimStyleTableRecord
  2
EZ_M_20_H25_CM
 70
0
 40
1.0
 41
0.05
 42
0.025
 43
3.75
 44
0.07500000000000001
 45
0.0
 46
0.0
 47
0.0
 48
0.0
 49
2.5
140
0.05
141
2.5
142
0.025
143
0.03937007874
144
100.0
145
0.0
146
0.5
147
0.020000000000000004
148
0.0
 69
0
 70
0
 71
0
 72
0
 73
0
 74
0
 75
0
 76
0
 77
1
 78
12
 79
3
170
0
171
3
172
1
173
0
174
0
175
0
176
0
177
0
178
0
179
2
271
2
272
2
273
2
274
3
275
0
276
0
277
2
278
46
279
2
280
0
281
0
282
0
283
0
284
8
285
0
286
0
288
1
289
3
290
0
340
4C
371
-2
372
-2
  0
DIMSTYLE
105
80
330
4
100
AcDbSymbolTableRecord
100
AcDbDimStyleTableRecord
  2
EZ_M_10_H25_CM
 70
0
 40
1.0
 41
0.025
 42
0.0125
 43
3.75
 44
0.037500000000000006
 45
0.0
 46
0.0
 47
0.0
 48
0.0
 49
2.5
140
0.025
141
2.5
142
0.0125
143
0.03937007874
144
100.0
145
0.0
146
0.5
147
0.010000000000000002
148
0.0
 69
0
 70
0
 71
0
 72
0
 73
0
 74
0
 75
0
 76
0
 77
1
 78
12
 79
3
170
0
171
3
172
1
173
0
174
0
175
0
176
0
177
0
178
0
179
2
271
2
272
2
273
2
274
3
275
0
276
0
277
2
278
46
279
2
280
0
281
0
282
0
283
0
284
8
285
0
286
0
288
1
289
3
290
0
340
4C
371
-2
372
-2
  0
DIMSTYLE
105
81
330
4
100
AcDbSymbolTableRecord
100
AcDbDimStyleTableRecord
  2
EZ_M_5_H25_CM
 70
0
 40
1.0
 41
0.0125
 42
0.00625
 43
3.75
 44
0.018750000000000003
 45
0.0
 46
0.0
 47
0.0
 48
0.0
 49
2.5
140
0.0125
141
2.5
142
0.00625
143
0.03937007874
144
100.0
145
0.0
146
0.5
147
0.005000000000000001
148
0.0
 69
0
 70
0
 71
0
 72
0
 73
0
 74
0
 75
0
 76
0
 77
1
 78
12
 79
3
170
0
171
3
172
1
173
0
174
0
175
0
176
0
177
0
178
0
179
2
271
2
272
2
273
2
274
3
275
0
276
0
277
2
278
46
279
2
280
0
281
0
282
0
283
0
284
8
285
0
286
0
288
1
289
3
290
0
340
4C
371
-2
372
-2
  0
DIMSTYLE
105
82
330
4
100
AcDbSymbolTableRecord
100
AcDbDimStyleTableRecord
  2
EZ_M_1_H25_CM
 70
0
 40
1.0
 41
0.0025
 42
0.00125
 43
3.75
 44
0.00375
 45
0.0
 46
0.0
 47
0.0
 48
0.0
 49
2.5
140
0.0025
141
2.5
142
0.00125
143
0.03937007874
144
100.0
145
0.0
146
0.5
147
0.001
148
0.0
 69
0
 70
0
 71
0
 72
0
 73
0
 74
0
 75
0
 76
0
 77
1
 78
12
 79
3
170
0
171
3
172
1
173
0
174
0
175
0
176
0
177
0
178
0
179
2
271
2
272
2
273
2
274
3
275
0
276
0
277
2
278
46
279
2
280
0
281
0
282
0
283
0
284
8
285
0
286
0
288
1
289
3
290
0
340
4C
371
-2
372
-2
  0
DIMSTYLE
105
83
330
4
100
AcDbSymbolTableRecord
100
AcDbDimStyleTableRecord
  2
EZ_RADIUS
 70
0
 40
1.0
 41
0.25
 42
0.125
 43
3.75
 44
0.375
 45
0.0
 46
0.0
 47
0.0
 48
0.0
 49
2.5
140
0.25
141
0.0
142
0.0
143
0.03937007874
144
100.0
145
0.0
146
0.5
147
0.1
148
0.0
 69
0
 70
0
 71
0
 72
0
 73
0
 74
0
 75
0
 76
0
 77
1
 78
12
 79
3
170
0
171
3
172
0
173
0
174
0
175
0
176
0
177
0
178
0
179
2
271
2
272
2
273
2
274
3
275
0
276
0
277
2
278
46
279
1
280
0
281
0
282
0
283
0
284
8
285
0
286
0
288
1
289
3
290
0
340
4C
342
84
371
-2
372
-2
  0
DIMSTYLE
105
88
330
4
100
AcDbSymbolTableRecord
100
AcDbDimStyleTableRecord
  2
EZ_RADIUS_INSIDE
 70
0
 40
1.0
 41
0.25
 42
0.125
 43
3.75
 44
0.375
 45
0.0
 46
0.0
 47
0.0
 48
0.0
 49
2.5
140
0.25
141
0.0
142
0.0
143
0.03937007874
144
100.0
145
0.0
146
0.5
147
0.1
148
0.0
 69
0
 70
0
 71
0
 72
0
 73
0
 74
0
 75
0
 76
0
 77
0
 78
12
 79
3
170
0
171
3
172
0
173
0
174
1
175
0
176
0
177
0
178
0
179
2
271
2
272
2
273
2
274
3
275
0
276
0
277
2
278
46
279
0
280
0
281
0
282
0
283
0
284
8
285
0
286
0
288
1
289
0
290
0
340
4C
342
84
371
-2
372
-2
  0
DIMSTYLE
105
89
330
4
100
AcDbSymbolTableRecord
100
AcDbDimStyleTableRecord
  2
EZ_CURVED
 70
0
 40
1.0
 41
0.25
 42
0.125
 43
3.75
 44
0.375
 45
0.0
 46
0.0
 47
0.0
 48
0.0
 49
2.5
140
0.25
141
2.5
142
0.0
143
0.03937007874
144
100.0
145
0.0
146
0.5
147
0.1
148
0.0
 69
0
 70
0
 71
0
 72
0
 73
0
 74
0
 75
0
 76
0
 77
1
 78
12
 79
2
 90
2
170
0
171
3
172
1
173
0
174
0
175
0
176
0
177
0
178
0
179
2
271
2
272
2
273
2
274
3
275
0
276
0
277
2
278
46
279
2
280
0
281
0
282
0
283
0
284
8
285
0
286
0
288
1
289
3
290
0
340
4C
371
-2
372
-2
  0
ENDTAB
  0
TABLE
  2
BLOCK_RECORD
  5
9
330
0
100
AcDbSymbolTable
 70
5
  0
BLOCK_RECORD
  5
17
330
9
100
AcDbSymbolTableRecord
100
AcDbBlockTableRecord
  2
*Model_Space
340
1A
 70
0
280
1
281
0
  0
BLOCK_RECORD
  5
1B
330
9
100
AcDbSymbolTableRecord
100
AcDbBlockTableRecord
  2
*Paper_Space
340
1E
 70
0
280
1
281
0
  0
BLOCK_RECORD
  5
74
330
9
100
AcDbSymbolTableRecord
100
AcDbBlockTableRecord
  2
_ARCHTICK
340
0
 70
0
280
1
281
0
  0
BLOCK_RECORD
  5
78
330
9
100
AcDbSymbolTableRecord
100
AcDbBlockTableRecord
  2
_CLOSEDFILLED
340
0
 70
0
280
1
281
0
  0
BLOCK_RECORD
  5
84
330
9
100
AcDbSymbolTableRecord
100
AcDbBlockTableRecord
  2
_CLOSEDBLANK
340
0
 70
0
280
1
281
0
  0
ENDTAB
  0
ENDSEC
  0
SECTION
  2
BLOCKS
  0
BLOCK
  5
18
330
17
100
AcDbEntity
  8
0
100
AcDbBlockBegin
  2
*Model_Space
 70
0
 10
0.0
 20
0.0
 30
0.0
  3
*Model_Space
  1

  0
ENDBLK
  5
19
330
17
100
AcDbEntity
  8
0
100
AcDbBlockEnd
  0
BLOCK
  5
1C
330
1B
100
AcDbEntity
  8
0
100
AcDbBlockBegin
  2
*Paper_Space
 70
0
 10
0.0
 20
0.0
 30
0.0
  3
*Paper_Space
  1

  0
ENDBLK
  5
1D
330
1B
100
AcDbEntity
  8
0
100
AcDbBlockEnd
  0
BLOCK
  5
75
330
74
100
AcDbEntity
  8
0
100
AcDbBlockBegin
  2
_ARCHTICK
 70
0
 10
0.0
 20
0.0
 30
0.0
  3
_ARCHTICK
  1

  0
LWPOLYLINE
  5
77
330
74
100
AcDbEntity
  8
0
  6
BYBLOCK
 62
0
100
AcDbPolyline
 90
2
 70
0
 43
0.15
 10
-0.5
 20
-0.5
 10
0.5
 20
0.5
  0
ENDBLK
  5
76
330
74
100
AcDbEntity
  8
0
100
AcDbBlockEnd
  0
BLOCK
  5
79
330
78
100
AcDbEntity
  8
0
100
AcDbBlockBegin
  2
_CLOSEDFILLED
 70
0
 10
0.0
 20
0.0
 30
0.0
  3
_CLOSEDFILLED
  1

  0
SOLID
  5
7B
330
78
100
AcDbEntity
  8
0
  6
BYBLOCK
 62
0
100
AcDbTrace
 10
-1.0
 20
0.16439898372402537
 30
0.0
 11
0.0
 21
0.0
 31
0.0
 12
-1.0
 22
-0.16439898372402537
 32
0.0
 13
-1.0
 23
-0.16439898372402537
 33
0.0
  0
ENDBLK
  5
7A
330
78
100
AcDbEntity
  8
0
100
AcDbBlockEnd
  0
BLOCK
  5
85
330
84
100
AcDbEntity
  8
0
100
AcDbBlockBegin
  2
_CLOSEDBLANK
 70
0
 10
0.0
 20
0.0
 30
0.0
  3
_CLOSEDBLANK
  1

  0
LWPOLYLINE
  5
87
330
84
100
AcDbEntity
  8
0
  6
BYBLOCK
 62
0
100
AcDbPolyline
 90
3
 70
1
 10
-1.0
 20
0.16439898372402537
 10
0.0
 20
0.0
 10
-1.0
 20
-0.16439898372402537
  0
ENDBLK
  5
86
330
84
100
AcDbEntity
  8
0
100
AcDbBlockEnd
  0
ENDSEC
  0
SECTION
  2
ENTITIES
  0
LWPOLYLINE
  5
98
330
17
100
AcDbEntity
  8
01_ОБШИВКА
100
AcDbPolyline
 90
558
 70
1
 10
0.0
 20
6597.510427302443
 10
500.0
 20
6704.670626164262
 10
1000.0
 20
6807.957857744588
 10
1500.0
 20
6907.011880016426
 10
2000.0
 20
7001.47245112713
 10
2500.0
 20
7090.979329397836
 10
3000.0
 20
7175.172273322789
 10
3500.0
 20
7253.691924778146
 10
4000.0
 20
7326.775136150112
 10
4500.0
 20
7395.352603335381
 10
5000.0
 20
7460.208292078834
 10
5500.0
 20
7522.126169057789
 10
6000.0
 20
7581.890201835655
 10
6500.0
 20
7640.2843588112755
 10
7000.0
 20
7698.124082561227
 10
7500.0
 20
7759.0558617509605
 10
8000.0
 20
7822.761388442486
 10
8500.0
 20
7885.803104727035
 10
9000.0
 20
7944.7434544615135
 10
9500.0
 20
7996.144883114229
 10
10000.0
 20
8036.569837596455
 10
10500.0
 20
8062.737807700124
 10
11000.0
 20
8080.857361898328
 10
11500.0
 20
8096.072103254084
 10
12000.0
 20
8108.967277413468
 10
12500.0
 20
8120.128143813542
 10
13000.0
 20
8130.139973241128
 10
13500.0
 20
8139.588044573042
 10
14000.0
 20
8149.055306410053
 10
14500.0
 20
8158.871225245461
 10
15000.0
 20
8168.918298136338
 10
15500.0
 20
8179.036921774168
 10
16000.0
 20
8189.0674918429
 10
16500.0
 20
8198.850403189508
 10
17000.0
 20
8208.226049964725
 10
17500.0
 20
8217.034825738336
 10
18000.0
 20
8225.11712359293
 10
18500.0
 20
8232.313336199339
 10
19000.0
 20
8238.463855876531
 10
19500.0
 20
8243.409074638525
 10
20000.0
 20
8246.989384230317
 10
20500.0
 20
8249.045176155016
 10
21000.0
 20
8249.498372165528
 10
21500.0
 20
8249.520667871424
 10
22000.0
 20
8249.54284602082
 10
22500.0
 20
8249.564829739888
 10
23000.0
 20
8249.586542204675
 10
23500.0
 20
8249.607906632496
 10
24000.0
 20
8249.6288462733
 10
24500.0
 20
8249.649284401248
 10
25000.0
 20
8249.669144306632
 10
25500.0
 20
8249.688349288253
 10
26000.0
 20
8249.706822646423
 10
26500.0
 20
8249.724487676636
 10
27000.0
 20
8249.741267664047
 10
27500.0
 20
8249.757085878771
 10
28000.0
 20
8249.771944396683
 10
28500.0
 20
8249.786497323072
 10
29000.0
 20
8249.80085026742
 10
29500.0
 20
8249.814931815785
 10
30000.0
 20
8249.828670562985
 10
30500.0
 20
8249.841995109346
 10
31000.0
 20
8249.854834057627
 10
31500.0
 20
8249.867116010266
 10
32000.0
 20
8249.878769566938
 10
32500.0
 20
8249.889723322529
 10
33000.0
 20
8249.899905865535
 10
33500.0
 20
8249.909245776907
 10
34000.0
 20
8249.91767162934
 10
34500.0
 20
8249.925111986984
 10
35000.0
 20
8249.931617022428
 10
35500.0
 20
8249.937858774472
 10
36000.0
 20
8249.943922644488
 10
36500.0
 20
8249.949773949098
 10
37000.0
 20
8249.955378004788
 10
37500.0
 20
8249.960700127707
 10
38000.0
 20
8249.96570563345
 10
38500.0
 20
8249.970359836945
 10
39000.0
 20
8249.97462805234
 10
39500.0
 20
8249.978475592969
 10
40000.0
 20
8249.981867771361
 10
40500.0
 20
8249.98476989928
 10
41000.0
 20
8249.987147287804
 10
41500.0
 20
8249.988965247436
 10
42000.0
 20
8249.990291439235
 10
42500.0
 20
8249.99152382899
 10
43000.0
 20
8249.992700316128
 10
43500.0
 20
8249.993814053189
 10
44000.0
 20
8249.994858192722
 10
44500.0
 20
8249.995825887254
 10
45000.0
 20
8249.996710289315
 10
45500.0
 20
8249.99750455142
 10
46000.0
 20
8249.99820182608
 10
46500.0
 20
8249.998795265794
 10
47000.0
 20
8249.999278023064
 10
47500.0
 20
8249.999643250381
 10
48000.0
 20
8249.999884100234
 10
48500.0
 20
8249.99999372511
 10
49000.0
 20
8250.0
 10
49500.0
 20
8250.0
 10
50000.0
 20
8250.0
 10
50500.0
 20
8250.0
 10
51000.0
 20
8250.0
 10
51500.0
 20
8250.0
 10
52000.0
 20
8250.0
 10
52500.0
 20
8250.0
 10
53000.0
 20
8250.0
 10
53500.0
 20
8250.0
 10
54000.0
 20
8250.0
 10
54500.0
 20
8250.0
 10
55000.0
 20
8250.0
 10
55500.0
 20
8250.0
 10
56000.0
 20
8250.0
 10
56500.0
 20
8250.0
 10
57000.0
 20
8250.0
 10
57500.0
 20
8250.0
 10
58000.0
 20
8250.0
 10
58500.0
 20
8250.0
 10
59000.0
 20
8250.0
 10
59500.0
 20
8250.0
 10
60000.0
 20
8250.0
 10
60500.0
 20
8250.0
 10
61000.0
 20
8250.0
 10
61500.0
 20
8250.0
 10
62000.0
 20
8250.0
 10
62500.0
 20
8250.0
 10
63000.0
 20
8250.0
 10
63500.0
 20
8250.0
 10
64000.0
 20
8250.0
 10
64500.0
 20
8250.0
 10
65000.0
 20
8250.0
 10
65500.0
 20
8250.0
 10
66000.0
 20
8250.0
 10
66500.0
 20
8250.0
 10
67000.0
 20
8250.0
 10
67500.0
 20
8250.0
 10
68000.0
 20
8250.0
 10
68500.0
 20
8250.0
 10
69000.0
 20
8250.0
 10
69500.0
 20
8250.0
 10
70000.0
 20
8250.0
 10
70500.0
 20
8250.0
 10
71000.0
 20
8250.0
 10
71500.0
 20
8250.0
 10
72000.0
 20
8250.0
 10
72500.0
 20
8250.0
 10
73000.0
 20
8250.0
 10
73500.0
 20
8250.0
 10
74000.0
 20
8250.0
 10
74500.0
 20
8250.0
 10
75000.0
 20
8250.0
 10
75500.0
 20
8250.0
 10
76000.0
 20
8250.0
 10
76500.0
 20
8249.999998576148
 10
77000.0
 20
8249.999830693752
 10
77500.0
 20
8249.999393802207
 10
78000.0
 20
8249.998702677723
 10
78500.0
 20
8249.99777209649
 10
79000.0
 20
8249.996616834682
 10
79500.0
 20
8249.99525166844
 10
80000.0
 20
8249.993691373857
 10
80500.0
 20
8249.991950726975
 10
81000.0
 20
8249.99004450378
 10
81500.0
 20
8249.987987480195
 10
82000.0
 20
8249.985794432083
 10
82500.0
 20
8249.983480135248
 10
83000.0
 20
8249.981059365444
 10
83500.0
 20
8249.97852699894
 10
84000.0
 20
8249.975252440929
 10
84500.0
 20
8249.970974178668
 10
85000.0
 20
8249.965754115361
 10
85500.0
 20
8249.959654150807
 10
86000.0
 20
8249.95273618079
 10
86500.0
 20
8249.945062096649
 10
87000.0
 20
8249.93669378501
 10
87500.0
 20
8249.92769312776
 10
88000.0
 20
8249.918122002307
 10
88500.0
 20
8249.908042282115
 10
89000.0
 20
8249.8975158375
 10
89500.0
 20
8249.886604536718
 10
90000.0
 20
8249.875370247271
 10
90500.0
 20
8249.863806544061
 10
91000.0
 20
8249.850907901313
 10
91500.0
 20
8249.836397353693
 10
92000.0
 20
8249.820372648566
 10
92500.0
 20
8249.802931488211
 10
93000.0
 20
8249.784171529485
 10
93500.0
 20
8249.764190385054
 10
94000.0
 20
8249.743085626365
 10
94500.0
 20
8249.720954788396
 10
95000.0
 20
8249.69789537623
 10
95500.0
 20
8249.674004873406
 10
96000.0
 20
8249.649380751944
 10
96500.0
 20
8249.624120483864
 10
97000.0
 20
8249.598321554107
 10
97500.0
 20
8249.531523088875
 10
98000.0
 20
8249.062803544997
 10
98500.0
 20
8248.141709811322
 10
99000.0
 20
8246.8116432466
 10
99500.0
 20
8245.116005090827
 10
100000.0
 20
8243.098196496932
 10
100500.0
 20
8240.801618569018
 10
101000.0
 20
8238.269672406885
 10
101500.0
 20
8235.545759156214
 10
102000.0
 20
8232.673280063747
 10
102500.0
 20
8229.69563653645
 10
103000.0
 20
8226.656230203685
 10
103500.0
 20
8223.59846298112
 10
104000.0
 20
8220.565737135053
 10
104500.0
 20
8217.594175917147
 10
105000.0
 20
8214.644427757965
 10
105500.0
 20
8211.652750493584
 10
106000.0
 20
8208.558340060075
 10
106500.0
 20
8205.300393406686
 10
107000.0
 20
8201.818108832496
 10
107500.0
 20
8198.050686319797
 10
108000.0
 20
8193.937327851565
 10
108500.0
 20
8189.417237699208
 10
109000.0
 20
8184.429622665813
 10
109500.0
 20
8178.913692269479
 10
110000.0
 20
8172.80865885169
 10
110500.0
 20
8166.053737595984
 10
111000.0
 20
8158.588146443489
 10
111500.0
 20
8149.214339893044
 10
112000.0
 20
8133.446859835377
 10
112500.0
 20
8111.289917721891
 10
113000.0
 20
8083.273945411715
 10
113500.0
 20
8049.935382092711
 10
114000.0
 20
8011.817035422261
 10
114500.0
 20
7969.468306001427
 10
115000.0
 20
7923.445273596821
 10
115500.0
 20
7874.31064337085
 10
116000.0
 20
7822.633550288716
 10
116500.0
 20
7768.989219851652
 10
117000.0
 20
7713.95848337206
 10
117500.0
 20
7658.127146167145
 10
118000.0
 20
7602.085207311331
 10
118500.0
 20
7545.069719304778
 10
119000.0
 20
7483.501674645816
 10
119500.0
 20
7417.175405657589
 10
120000.0
 20
7345.110592983129
 10
120500.0
 20
7267.046958406651
 10
121000.0
 20
7183.189829484808
 10
121500.0
 20
7093.764307739362
 10
122000.0
 20
6999.012752380574
 10
122500.0
 20
6899.192121739695
 10
123000.0
 20
6794.571188310128
 10
123500.0
 20
6685.427635680924
 10
124000.0
 20
6572.0450371048
 10
124500.0
 20
6454.709705765789
 10
125000.0
 20
6333.707395660394
 10
125500.0
 20
6206.130052836867
 10
126000.0
 20
6066.391194011073
 10
126500.0
 20
5915.766528955002
 10
127000.0
 20
5755.631027691257
 10
127500.0
 20
5587.328595821104
 10
128000.0
 20
5412.231101377882
 10
128500.0
 20
5231.780419940272
 10
129000.0
 20
5045.350375312012
 10
129500.0
 20
4849.482225274437
 10
130000.0
 20
4643.489524104626
 10
130500.0
 20
4426.815319490344
 10
131000.0
 20
4198.949225965487
 10
131500.0
 20
3959.3630316625913
 10
132000.0
 20
3707.380903060001
 10
132500.0
 20
3424.0800312562437
 10
133000.0
 20
3091.1072138584414
 10
133500.0
 20
2724.280747601524
 10
134000.0
 20
2349.518695368492
 10
134500.0
 20
1987.2700847207998
 10
135000.0
 20
1657.3201309860776
 10
135500.0
 20
1379.400458769785
 10
136000.0
 20
1143.9863504852342
 10
136500.0
 20
923.9789026038607
 10
137000.0
 20
721.1035801947983
 10
137500.0
 20
537.1570542818458
 10
138000.0
 20
373.9406840543402
 10
138500.0
 20
233.26373626483203
 10
139000.0
 20
116.94308178395625
 10
139000.0
 20
-116.94308178395625
 10
138500.0
 20
-233.26373626483203
 10
138000.0
 20
-373.9406840543402
 10
137500.0
 20
-537.1570542818458
 10
137000.0
 20
-721.1035801947983
 10
136500.0
 20
-923.9789026038607
 10
136000.0
 20
-1143.9863504852342
 10
135500.0
 20
-1379.400458769785
 10
135000.0
 20
-1657.3201309860776
 10
134500.0
 20
-1987.2700847207998
 10
134000.0
 20
-2349.518695368492
 10
133500.0
 20
-2724.280747601524
 10
133000.0
 20
-3091.1072138584414
 10
132500.0
 20
-3424.0800312562437
 10
132000.0
 20
-3707.380903060001
 10
131500.0
 20
-3959.3630316625913
 10
131000.0
 20
-4198.949225965487
 10
130500.0
 20
-4426.815319490344
 10
130000.0
 20
-4643.489524104626
 10
129500.0
 20
-4849.482225274437
 10
129000.0
 20
-5045.350375312012
 10
128500.0
 20
-5231.780419940272
 10
128000.0
 20
-5412.231101377882
 10
127500.0
 20
-5587.328595821104
 10
127000.0
 20
-5755.631027691257
 10
126500.0
 20
-5915.766528955002
 10
126000.0
 20
-6066.391194011073
 10
125500.0
 20
-6206.130052836867
 10
125000.0
 20
-6333.707395660394
 10
124500.0
 20
-6454.709705765789
 10
124000.0
 20
-6572.0450371048
 10
123500.0
 20
-6685.427635680924
 10
123000.0
 20
-6794.571188310128
 10
122500.0
 20
-6899.192121739695
 10
122000.0
 20
-6999.012752380574
 10
121500.0
 20
-7093.764307739362
 10
121000.0
 20
-7183.189829484808
 10
120500.0
 20
-7267.046958406651
 10
120000.0
 20
-7345.110592983129
 10
119500.0
 20
-7417.175405657589
 10
119000.0
 20
-7483.501674645816
 10
118500.0
 20
-7545.069719304778
 10
118000.0
 20
-7602.085207311331
 10
117500.0
 20
-7658.127146167145
 10
117000.0
 20
-7713.95848337206
 10
116500.0
 20
-7768.989219851652
 10
116000.0
 20
-7822.633550288716
 10
115500.0
 20
-7874.31064337085
 10
115000.0
 20
-7923.445273596821
 10
114500.0
 20
-7969.468306001427
 10
114000.0
 20
-8011.817035422261
 10
113500.0
 20
-8049.935382092711
 10
113000.0
 20
-8083.273945411715
 10
112500.0
 20
-8111.289917721891
 10
112000.0
 20
-8133.446859835377
 10
111500.0
 20
-8149.214339893044
 10
111000.0
 20
-8158.588146443489
 10
110500.0
 20
-8166.053737595984
 10
110000.0
 20
-8172.80865885169
 10
109500.0
 20
-8178.913692269479
 10
109000.0
 20
-8184.429622665813
 10
108500.0
 20
-8189.417237699208
 10
108000.0
 20
-8193.937327851565
 10
107500.0
 20
-8198.050686319797
 10
107000.0
 20
-8201.818108832496
 10
106500.0
 20
-8205.300393406686
 10
106000.0
 20
-8208.558340060075
 10
105500.0
 20
-8211.652750493584
 10
105000.0
 20
-8214.644427757965
 10
104500.0
 20
-8217.594175917147
 10
104000.0
 20
-8220.565737135053
 10
103500.0
 20
-8223.59846298112
 10
103000.0
 20
-8226.656230203685
 10
102500.0
 20
-8229.69563653645
 10
102000.0
 20
-8232.673280063747
 10
101500.0
 20
-8235.545759156214
 10
101000.0
 20
-8238.269672406885
 10
100500.0
 20
-8240.801618569018
 10
100000.0
 20
-8243.098196496932
 10
99500.0
 20
-8245.116005090827
 10
99000.0
 20
-8246.8116432466
 10
98500.0
 20
-8248.141709811322
 10
98000.0
 20
-8249.062803544997
 10
97500.0
 20
-8249.531523088875
 10
97000.0
 20
-8249.598321554107
 10
96500.0
 20
-8249.624120483864
 10
96000.0
 20
-8249.649380751944
 10
95500.0
 20
-8249.674004873406
 10
95000.0
 20
-8249.69789537623
 10
94500.0
 20
-8249.720954788396
 10
94000.0
 20
-8249.743085626365
 10
93500.0
 20
-8249.764190385054
 10
93000.0
 20
-8249.784171529485
 10
92500.0
 20
-8249.802931488211
 10
92000.0
 20
-8249.820372648566
 10
91500.0
 20
-8249.836397353693
 10
91000.0
 20
-8249.850907901313
 10
90500.0
 20
-8249.863806544061
 10
90000.0
 20
-8249.875370247271
 10
89500.0
 20
-8249.886604536718
 10
89000.0
 20
-8249.8975158375
 10
88500.0
 20
-8249.908042282115
 10
88000.0
 20
-8249.918122002307
 10
87500.0
 20
-8249.92769312776
 10
87000.0
 20
-8249.93669378501
 10
86500.0
 20
-8249.945062096649
 10
86000.0
 20
-8249.95273618079
 10
85500.0
 20
-8249.959654150807
 10
85000.0
 20
-8249.965754115361
 10
84500.0
 20
-8249.970974178668
 10
84000.0
 20
-8249.975252440929
 10
83500.0
 20
-8249.97852699894
 10
83000.0
 20
-8249.981059365444
 10
82500.0
 20
-8249.983480135248
 10
82000.0
 20
-8249.985794432083
 10
81500.0
 20
-8249.987987480195
 10
81000.0
 20
-8249.99004450378
 10
80500.0
 20
-8249.991950726975
 10
80000.0
 20
-8249.993691373857
 10
79500.0
 20
-8249.99525166844
 10
79000.0
 20
-8249.996616834682
 10
78500.0
 20
-8249.99777209649
 10
78000.0
 20
-8249.998702677723
 10
77500.0
 20
-8249.999393802207
 10
77000.0
 20
-8249.999830693752
 10
76500.0
 20
-8249.999998576148
 10
76000.0
 20
-8250.0
 10
75500.0
 20
-8250.0
 10
75000.0
 20
-8250.0
 10
74500.0
 20
-8250.0
 10
74000.0
 20
-8250.0
 10
73500.0
 20
-8250.0
 10
73000.0
 20
-8250.0
 10
72500.0
 20
-8250.0
 10
72000.0
 20
-8250.0
 10
71500.0
 20
-8250.0
 10
71000.0
 20
-8250.0
 10
70500.0
 20
-8250.0
 10
70000.0
 20
-8250.0
 10
69500.0
 20
-8250.0
 10
69000.0
 20
-8250.0
 10
68500.0
 20
-8250.0
 10
68000.0
 20
-8250.0
 10
67500.0
 20
-8250.0
 10
67000.0
 20
-8250.0
 10
66500.0
 20
-8250.0
 10
66000.0
 20
-8250.0
 10
65500.0
 20
-8250.0
 10
65000.0
 20
-8250.0
 10
64500.0
 20
-8250.0
 10
64000.0
 20
-8250.0
 10
63500.0
 20
-8250.0
 10
63000.0
 20
-8250.0
 10
62500.0
 20
-8250.0
 10
62000.0
 20
-8250.0
 10
61500.0
 20
-8250.0
 10
61000.0
 20
-8250.0
 10
60500.0
 20
-8250.0
 10
60000.0
 20
-8250.0
 10
59500.0
 20
-8250.0
 10
59000.0
 20
-8250.0
 10
58500.0
 20
-8250.0
 10
58000.0
 20
-8250.0
 10
57500.0
 20
-8250.0
 10
57000.0
 20
-8250.0
 10
56500.0
 20
-8250.0
 10
56000.0
 20
-8250.0
 10
55500.0
 20
-8250.0
 10
55000.0
 20
-8250.0
 10
54500.0
 20
-8250.0
 10
54000.0
 20
-8250.0
 10
53500.0
 20
-8250.0
 10
53000.0
 20
-8250.0
 10
52500.0
 20
-8250.0
 10
52000.0
 20
-8250.0
 10
51500.0
 20
-8250.0
 10
51000.0
 20
-8250.0
 10
50500.0
 20
-8250.0
 10
50000.0
 20
-8250.0
 10
49500.0
 20
-8250.0
 10
49000.0
 20
-8250.0
 10
48500.0
 20
-8249.99999372511
 10
48000.0
 20
-8249.999884100234
 10
47500.0
 20
-8249.999643250381
 10
47000.0
 20
-8249.999278023064
 10
46500.0
 20
-8249.998795265794
 10
46000.0
 20
-8249.99820182608
 10
45500.0
 20
-8249.99750455142
 10
45000.0
 20
-8249.996710289315
 10
44500.0
 20
-8249.995825887254
 10
44000.0
 20
-8249.994858192722
 10
43500.0
 20
-8249.993814053189
 10
43000.0
 20
-8249.992700316128
 10
42500.0
 20
-8249.99152382899
 10
42000.0
 20
-8249.990291439235
 10
41500.0
 20
-8249.988965247436
 10
41000.0
 20
-8249.987147287804
 10
40500.0
 20
-8249.98476989928
 10
40000.0
 20
-8249.981867771361
 10
39500.0
 20
-8249.978475592969
 10
39000.0
 20
-8249.97462805234
 10
38500.0
 20
-8249.970359836945
 10
38000.0
 20
-8249.96570563345
 10
37500.0
 20
-8249.960700127707
 10
37000.0
 20
-8249.955378004788
 10
36500.0
 20
-8249.949773949098
 10
36000.0
 20
-8249.943922644488
 10
35500.0
 20
-8249.937858774472
 10
35000.0
 20
-8249.931617022428
 10
34500.0
 20
-8249.925111986984
 10
34000.0
 20
-8249.91767162934
 10
33500.0
 20
-8249.909245776907
 10
33000.0
 20
-8249.899905865535
 10
32500.0
 20
-8249.889723322529
 10
32000.0
 20
-8249.878769566938
 10
31500.0
 20
-8249.867116010266
 10
31000.0
 20
-8249.854834057627
 10
30500.0
 20
-8249.841995109346
 10
30000.0
 20
-8249.828670562985
 10
29500.0
 20
-8249.814931815785
 10
29000.0
 20
-8249.80085026742
 10
28500.0
 20
-8249.786497323072
 10
28000.0
 20
-8249.771944396683
 10
27500.0
 20
-8249.757085878771
 10
27000.0
 20
-8249.741267664047
 10
26500.0
 20
-8249.724487676636
 10
26000.0
 20
-8249.706822646423
 10
25500.0
 20
-8249.688349288253
 10
25000.0
 20
-8249.669144306632
 10
24500.0
 20
-8249.649284401248
 10
24000.0
 20
-8249.6288462733
 10
23500.0
 20
-8249.607906632496
 10
23000.0
 20
-8249.586542204675
 10
22500.0
 20
-8249.564829739888
 10
22000.0
 20
-8249.54284602082
 10
21500.0
 20
-8249.520667871424
 10
21000.0
 20
-8249.498372165528
 10
20500.0
 20
-8249.045176155016
 10
20000.0
 20
-8246.989384230317
 10
19500.0
 20
-8243.409074638525
 10
19000.0
 20
-8238.463855876531
 10
18500.0
 20
-8232.313336199339
 10
18000.0
 20
-8225.11712359293
 10
17500.0
 20
-8217.034825738336
 10
17000.0
 20
-8208.226049964725
 10
16500.0
 20
-8198.850403189508
 10
16000.0
 20
-8189.0674918429
 10
15500.0
 20
-8179.036921774168
 10
15000.0
 20
-8168.918298136338
 10
14500.0
 20
-8158.871225245461
 10
14000.0
 20
-8149.055306410053
 10
13500.0
 20
-8139.588044573042
 10
13000.0
 20
-8130.139973241128
 10
12500.0
 20
-8120.128143813542
 10
12000.0
 20
-8108.967277413468
 10
11500.0
 20
-8096.072103254084
 10
11000.0
 20
-8080.857361898328
 10
10500.0
 20
-8062.737807700124
 10
10000.0
 20
-8036.569837596455
 10
9500.0
 20
-7996.144883114229
 10
9000.0
 20
-7944.7434544615135
 10
8500.0
 20
-7885.803104727035
 10
8000.0
 20
-7822.761388442486
 10
7500.0
 20
-7759.0558617509605
 10
7000.0
 20
-7698.124082561227
 10
6500.0
 20
-7640.2843588112755
 10
6000.0
 20
-7581.890201835655
 10
5500.0
 20
-7522.126169057789
 10
5000.0
 20
-7460.208292078834
 10
4500.0
 20
-7395.352603335381
 10
4000.0
 20
-7326.775136150112
 10
3500.0
 20
-7253.691924778146
 10
3000.0
 20
-7175.172273322789
 10
2500.0
 20
-7090.979329397836
 10
2000.0
 20
-7001.47245112713
 10
1500.0
 20
-6907.011880016426
 10
1000.0
 20
-6807.957857744588
 10
500.0
 20
-6704.670626164262
 10
0.0
 20
-6597.510427302443
  0
LWPOLYLINE
  5
99
330
17
100
AcDbEntity
  8
02_ПАЛУБЫ
100
AcDbPolyline
 90
482
 70
1
 10
11000.0
 20
3054.0354134488225
 10
11500.0
 20
3897.1007191029507
 10
12000.0
 20
4648.941381619754
 10
12500.0
 20
5306.687109348297
 10
13000.0
 20
5866.8192426380265
 10
13500.0
 20
6324.835708141252
 10
14000.0
 20
6674.579282026002
 10
14500.0
 20
6906.547439145329
 10
15000.0
 20
6919.708949357921
 10
15500.0
 20
6929.797051396021
 10
16000.0
 20
6939.799103064557
 10
16500.0
 20
6949.5552479457565
 10
17000.0
 20
6958.90562962185
 10
17500.0
 20
6967.690391675067
 10
18000.0
 20
6975.749677687634
 10
18500.0
 20
6982.923631241789
 10
19000.0
 20
6989.052395919753
 10
19500.0
 20
6993.976115303762
 10
20000.0
 20
6997.534932976039
 10
20500.0
 20
6999.568992518821
 10
21000.0
 20
7000.0
 10
21500.0
 20
7000.0
 10
22000.0
 20
7000.0
 10
22500.0
 20
7000.0
 10
23000.0
 20
7000.0
 10
23500.0
 20
7000.0
 10
24000.0
 20
7000.0
 10
24500.0
 20
7000.0
 10
25000.0
 20
7000.0
 10
25500.0
 20
7000.0
 10
26000.0
 20
7000.0
 10
26500.0
 20
7000.0
 10
27000.0
 20
7000.0
 10
27500.0
 20
7000.0
 10
28000.0
 20
7000.0
 10
28500.0
 20
7000.0
 10
29000.0
 20
7000.0
 10
29500.0
 20
7000.0
 10
30000.0
 20
7000.0
 10
30500.0
 20
7000.0
 10
31000.0
 20
7000.0
 10
31500.0
 20
7000.0
 10
32000.0
 20
7000.0
 10
32500.0
 20
7000.0
 10
33000.0
 20
7000.0
 10
33500.0
 20
7000.0
 10
34000.0
 20
7000.0
 10
34500.0
 20
7000.0
 10
35000.0
 20
7000.0
 10
35500.0
 20
7000.0
 10
36000.0
 20
7000.0
 10
36500.0
 20
7000.0
 10
37000.0
 20
7000.0
 10
37500.0
 20
7000.0
 10
38000.0
 20
7000.0
 10
38500.0
 20
7000.0
 10
39000.0
 20
7000.0
 10
39500.0
 20
7000.0
 10
40000.0
 20
7000.0
 10
40500.0
 20
7000.0
 10
41000.0
 20
7000.0
 10
41500.0
 20
7000.0
 10
42000.0
 20
7000.0
 10
42500.0
 20
7000.0
 10
43000.0
 20
7000.0
 10
43500.0
 20
7000.0
 10
44000.0
 20
7000.0
 10
44500.0
 20
7000.0
 10
45000.0
 20
7000.0
 10
45500.0
 20
7000.0
 10
46000.0
 20
7000.0
 10
46500.0
 20
7000.0
 10
47000.0
 20
7000.0
 10
47500.0
 20
7000.0
 10
48000.0
 20
7000.0
 10
48500.0
 20
7000.0
 10
49000.0
 20
7000.0
 10
49500.0
 20
7000.0
 10
50000.0
 20
7000.0
 10
50500.0
 20
7000.0
 10
51000.0
 20
7000.0
 10
51500.0
 20
7000.0
 10
52000.0
 20
7000.0
 10
52500.0
 20
7000.0
 10
53000.0
 20
7000.0
 10
53500.0
 20
7000.0
 10
54000.0
 20
7000.0
 10
54500.0
 20
7000.0
 10
55000.0
 20
7000.0
 10
55500.0
 20
7000.0
 10
56000.0
 20
7000.0
 10
56500.0
 20
7000.0
 10
57000.0
 20
7000.0
 10
57500.0
 20
7000.0
 10
58000.0
 20
7000.0
 10
58500.0
 20
7000.0
 10
59000.0
 20
7000.0
 10
59500.0
 20
7000.0
 10
60000.0
 20
7000.0
 10
60500.0
 20
7000.0
 10
61000.0
 20
7000.0
 10
61500.0
 20
7000.0
 10
62000.0
 20
7000.0
 10
62500.0
 20
7000.0
 10
63000.0
 20
7000.0
 10
63500.0
 20
7000.0
 10
64000.0
 20
7000.0
 10
64500.0
 20
7000.0
 10
65000.0
 20
7000.0
 10
65500.0
 20
7000.0
 10
66000.0
 20
7000.0
 10
66500.0
 20
7000.0
 10
67000.0
 20
7000.0
 10
67500.0
 20
7000.0
 10
68000.0
 20
7000.0
 10
68500.0
 20
7000.0
 10
69000.0
 20
7000.0
 10
69500.0
 20
7000.0
 10
70000.0
 20
7000.0
 10
70500.0
 20
7000.0
 10
71000.0
 20
7000.0
 10
71500.0
 20
7000.0
 10
72000.0
 20
7000.0
 10
72500.0
 20
7000.0
 10
73000.0
 20
7000.0
 10
73500.0
 20
7000.0
 10
74000.0
 20
7000.0
 10
74500.0
 20
7000.0
 10
75000.0
 20
7000.0
 10
75500.0
 20
7000.0
 10
76000.0
 20
7000.0
 10
76500.0
 20
7000.0
 10
77000.0
 20
7000.0
 10
77500.0
 20
7000.0
 10
78000.0
 20
7000.0
 10
78500.0
 20
7000.0
 10
79000.0
 20
7000.0
 10
79500.0
 20
7000.0
 10
80000.0
 20
7000.0
 10
80500.0
 20
7000.0
 10
81000.0
 20
7000.0
 10
81500.0
 20
7000.0
 10
82000.0
 20
7000.0
 10
82500.0
 20
7000.0
 10
83000.0
 20
7000.0
 10
83500.0
 20
6999.999999999998
 10
84000.0
 20
7000.0
 10
84500.0
 20
7000.0
 10
85000.0
 20
7000.0
 10
85500.0
 20
7000.0
 10
86000.0
 20
7000.0
 10
86500.0
 20
7000.0
 10
87000.0
 20
7000.0
 10
87500.0
 20
7000.0
 10
88000.0
 20
7000.0
 10
88500.0
 20
7000.0
 10
89000.0
 20
7000.0
 10
89500.0
 20
7000.0
 10
90000.0
 20
7000.0
 10
90500.0
 20
7000.0
 10
91000.0
 20
7000.0
 10
91500.0
 20
7000.0
 10
92000.0
 20
7000.0
 10
92500.0
 20
7000.0
 10
93000.0
 20
7000.0
 10
93500.0
 20
7000.0
 10
94000.0
 20
7000.0
 10
94500.0
 20
7000.0
 10
95000.0
 20
7000.0
 10
95500.0
 20
7000.0
 10
96000.0
 20
7000.0
 10
96500.0
 20
7000.0
 10
97000.0
 20
7000.0
 10
97500.0
 20
6999.959589781122
 10
98000.0
 20
6999.5191002341035
 10
98500.0
 20
6998.628254969848
 10
99000.0
 20
6997.3302950557845
 10
99500.0
 20
6995.668461559333
 10
100000.0
 20
6993.685995547924
 10
100500.0
 20
6991.426138088979
 10
101000.0
 20
6988.932130249927
 10
101500.0
 20
6986.2472130981905
 10
102000.0
 20
6983.414627701198
 10
102500.0
 20
6980.4776151263695
 10
103000.0
 20
6977.479416441135
 10
103500.0
 20
6974.463272712921
 10
104000.0
 20
6971.47242500915
 10
104500.0
 20
6968.543215519162
 10
105000.0
 20
6965.638308337855
 10
105500.0
 20
6962.6939095220805
 10
106000.0
 20
6959.648770261879
 10
106500.0
 20
6956.4416417473
 10
107000.0
 20
6953.011275168387
 10
107500.0
 20
6949.2964217151875
 10
108000.0
 20
6945.235832577748
 10
108500.0
 20
6940.768258946106
 10
109000.0
 20
6935.832452010313
 10
109500.0
 20
6930.367162960413
 10
110000.0
 20
6924.31114298645
 10
110500.0
 20
6917.603143278471
 10
111000.0
 20
6910.181915026522
 10
111500.0
 20
6900.850085876552
 10
112000.0
 20
6885.124470682364
 10
112500.0
 20
6863.0093289564265
 10
113000.0
 20
6835.034860243526
 10
113500.0
 20
6801.737270067611
 10
114000.0
 20
6763.65913102997
 10
114500.0
 20
6721.349607265425
 10
115000.0
 20
6675.36454067393
 10
115500.0
 20
6626.266397191118
 10
116000.0
 20
6574.624071268772
 10
116500.0
 20
6521.012546716918
 10
117000.0
 20
6466.012412124952
 10
117500.0
 20
6410.209229239628
 10
118000.0
 20
6354.192752940737
 10
118500.0
 20
6297.199697384448
 10
119000.0
 20
6235.650934425118
 10
119500.0
 20
6169.37896660867
 10
120000.0
 20
6097.518792741354
 10
120500.0
 20
6019.653367613249
 10
121000.0
 20
5935.9881417211855
 10
121500.0
 20
5846.748324928453
 10
122000.0
 20
5752.176366343178
 10
122500.0
 20
5652.529291510915
 10
123000.0
 20
5548.075912714975
 10
123500.0
 20
5439.09392054625
 10
124000.0
 20
5325.866856340461
 10
124500.0
 20
5154.780597143996
 10
125000.0
 20
4888.358045625843
 10
125500.0
 20
4609.429550679808
 10
126000.0
 20
4318.438226686274
 10
126500.0
 20
4015.7802367529653
 10
127000.0
 20
3701.812633793092
 10
127500.0
 20
3376.859473798986
 10
128000.0
 20
3041.2166632640533
 10
128500.0
 20
2695.155859917463
 10
129000.0
 20
2338.9276526079248
 10
129500.0
 20
1972.7641835148436
 10
130000.0
 20
1596.881332794391
 10
130500.0
 20
1211.4805555359483
 10
131000.0
 20
816.7504392842629
 10
131000.0
 20
-816.7504392842629
 10
130500.0
 20
-1211.4805555359483
 10
130000.0
 20
-1596.881332794391
 10
129500.0
 20
-1972.7641835148436
 10
129000.0
 20
-2338.9276526079248
 10
128500.0
 20
-2695.155859917463
 10
128000.0
 20
-3041.2166632640533
 10
127500.0
 20
-3376.859473798986
 10
127000.0
 20
-3701.812633793092
 10
126500.0
 20
-4015.7802367529653
 10
126000.0
 20
-4318.438226686274
 10
125500.0
 20
-4609.429550679808
 10
125000.0
 20
-4888.358045625843
 10
124500.0
 20
-5154.780597143996
 10
124000.0
 20
-5325.866856340461
 10
123500.0
 20
-5439.09392054625
 10
123000.0
 20
-5548.075912714975
 10
122500.0
 20
-5652.529291510915
 10
122000.0
 20
-5752.176366343178
 10
121500.0
 20
-5846.748324928453
 10
121000.0
 20
-5935.9881417211855
 10
120500.0
 20
-6019.653367613249
 10
120000.0
 20
-6097.518792741354
 10
119500.0
 20
-6169.37896660867
 10
119000.0
 20
-6235.650934425118
 10
118500.0
 20
-6297.199697384448
 10
118000.0
 20
-6354.192752940737
 10
117500.0
 20
-6410.209229239628
 10
117000.0
 20
-6466.012412124952
 10
116500.0
 20
-6521.012546716918
 10
116000.0
 20
-6574.624071268772
 10
115500.0
 20
-6626.266397191118
 10
115000.0
 20
-6675.36454067393
 10
114500.0
 20
-6721.349607265425
 10
114000.0
 20
-6763.65913102997
 10
113500.0
 20
-6801.737270067611
 10
113000.0
 20
-6835.034860243526
 10
112500.0
 20
-6863.0093289564265
 10
112000.0
 20
-6885.124470682364
 10
111500.0
 20
-6900.850085876552
 10
111000.0
 20
-6910.181915026522
 10
110500.0
 20
-6917.603143278471
 10
110000.0
 20
-6924.31114298645
 10
109500.0
 20
-6930.367162960413
 10
109000.0
 20
-6935.832452010313
 10
108500.0
 20
-6940.768258946106
 10
108000.0
 20
-6945.235832577748
 10
107500.0
 20
-6949.2964217151875
 10
107000.0
 20
-6953.011275168387
 10
106500.0
 20
-6956.4416417473
 10
106000.0
 20
-6959.648770261879
 10
105500.0
 20
-6962.6939095220805
 10
105000.0
 20
-6965.638308337855
 10
104500.0
 20
-6968.543215519162
 10
104000.0
 20
-6971.47242500915
 10
103500.0
 20
-6974.463272712921
 10
103000.0
 20
-6977.479416441135
 10
102500.0
 20
-6980.4776151263695
 10
102000.0
 20
-6983.414627701198
 10
101500.0
 20
-6986.2472130981905
 10
101000.0
 20
-6988.932130249927
 10
100500.0
 20
-6991.426138088979
 10
100000.0
 20
-6993.685995547924
 10
99500.0
 20
-6995.668461559333
 10
99000.0
 20
-6997.3302950557845
 10
98500.0
 20
-6998.628254969848
 10
98000.0
 20
-6999.5191002341035
 10
97500.0
 20
-6999.959589781122
 10
97000.0
 20
-7000.0
 10
96500.0
 20
-7000.0
 10
96000.0
 20
-7000.0
 10
95500.0
 20
-7000.0
 10
95000.0
 20
-7000.0
 10
94500.0
 20
-7000.0
 10
94000.0
 20
-7000.0
 10
93500.0
 20
-7000.0
 10
93000.0
 20
-7000.0
 10
92500.0
 20
-7000.0
 10
92000.0
 20
-7000.0
 10
91500.0
 20
-7000.0
 10
91000.0
 20
-7000.0
 10
90500.0
 20
-7000.0
 10
90000.0
 20
-7000.0
 10
89500.0
 20
-7000.0
 10
89000.0
 20
-7000.0
 10
88500.0
 20
-7000.0
 10
88000.0
 20
-7000.0
 10
87500.0
 20
-7000.0
 10
87000.0
 20
-7000.0
 10
86500.0
 20
-7000.0
 10
86000.0
 20
-7000.0
 10
85500.0
 20
-7000.0
 10
85000.0
 20
-7000.0
 10
84500.0
 20
-7000.0
 10
84000.0
 20
-7000.0
 10
83500.0
 20
-6999.999999999998
 10
83000.0
 20
-7000.0
 10
82500.0
 20
-7000.0
 10
82000.0
 20
-7000.0
 10
81500.0
 20
-7000.0
 10
81000.0
 20
-7000.0
 10
80500.0
 20
-7000.0
 10
80000.0
 20
-7000.0
 10
79500.0
 20
-7000.0
 10
79000.0
 20
-7000.0
 10
78500.0
 20
-7000.0
 10
78000.0
 20
-7000.0
 10
77500.0
 20
-7000.0
 10
77000.0
 20
-7000.0
 10
76500.0
 20
-7000.0
 10
76000.0
 20
-7000.0
 10
75500.0
 20
-7000.0
 10
75000.0
 20
-7000.0
 10
74500.0
 20
-7000.0
 10
74000.0
 20
-7000.0
 10
73500.0
 20
-7000.0
 10
73000.0
 20
-7000.0
 10
72500.0
 20
-7000.0
 10
72000.0
 20
-7000.0
 10
71500.0
 20
-7000.0
 10
71000.0
 20
-7000.0
 10
70500.0
 20
-7000.0
 10
70000.0
 20
-7000.0
 10
69500.0
 20
-7000.0
 10
69000.0
 20
-7000.0
 10
68500.0
 20
-7000.0
 10
68000.0
 20
-7000.0
 10
67500.0
 20
-7000.0
 10
67000.0
 20
-7000.0
 10
66500.0
 20
-7000.0
 10
66000.0
 20
-7000.0
 10
65500.0
 20
-7000.0
 10
65000.0
 20
-7000.0
 10
64500.0
 20
-7000.0
 10
64000.0
 20
-7000.0
 10
63500.0
 20
-7000.0
 10
63000.0
 20
-7000.0
 10
62500.0
 20
-7000.0
 10
62000.0
 20
-7000.0
 10
61500.0
 20
-7000.0
 10
61000.0
 20
-7000.0
 10
60500.0
 20
-7000.0
 10
60000.0
 20
-7000.0
 10
59500.0
 20
-7000.0
 10
59000.0
 20
-7000.0
 10
58500.0
 20
-7000.0
 10
58000.0
 20
-7000.0
 10
57500.0
 20
-7000.0
 10
57000.0
 20
-7000.0
 10
56500.0
 20
-7000.0
 10
56000.0
 20
-7000.0
 10
55500.0
 20
-7000.0
 10
55000.0
 20
-7000.0
 10
54500.0
 20
-7000.0
 10
54000.0
 20
-7000.0
 10
53500.0
 20
-7000.0
 10
53000.0
 20
-7000.0
 10
52500.0
 20
-7000.0
 10
52000.0
 20
-7000.0
 10
51500.0
 20
-7000.0
 10
51000.0
 20
-7000.0
 10
50500.0
 20
-7000.0
 10
50000.0
 20
-7000.0
 10
49500.0
 20
-7000.0
 10
49000.0
 20
-7000.0
 10
48500.0
 20
-7000.0
 10
48000.0
 20
-7000.0
 10
47500.0
 20
-7000.0
 10
47000.0
 20
-7000.0
 10
46500.0
 20
-7000.0
 10
46000.0
 20
-7000.0
 10
45500.0
 20
-7000.0
 10
45000.0
 20
-7000.0
 10
44500.0
 20
-7000.0
 10
44000.0
 20
-7000.0
 10
43500.0
 20
-7000.0
 10
43000.0
 20
-7000.0
 10
42500.0
 20
-7000.0
 10
42000.0
 20
-7000.0
 10
41500.0
 20
-7000.0
 10
41000.0
 20
-7000.0
 10
40500.0
 20
-7000.0
 10
40000.0
 20
-7000.0
 10
39500.0
 20
-7000.0
 10
39000.0
 20
-7000.0
 10
38500.0
 20
-7000.0
 10
38000.0
 20
-7000.0
 10
37500.0
 20
-7000.0
 10
37000.0
 20
-7000.0
 10
36500.0
 20
-7000.0
 10
36000.0
 20
-7000.0
 10
35500.0
 20
-7000.0
 10
35000.0
 20
-7000.0
 10
34500.0
 20
-7000.0
 10
34000.0
 20
-7000.0
 10
33500.0
 20
-7000.0
 10
33000.0
 20
-7000.0
 10
32500.0
 20
-7000.0
 10
32000.0
 20
-7000.0
 10
31500.0
 20
-7000.0
 10
31000.0
 20
-7000.0
 10
30500.0
 20
-7000.0
 10
30000.0
 20
-7000.0
 10
29500.0
 20
-7000.0
 10
29000.0
 20
-7000.0
 10
28500.0
 20
-7000.0
 10
28000.0
 20
-7000.0
 10
27500.0
 20
-7000.0
 10
27000.0
 20
-7000.0
 10
26500.0
 20
-7000.0
 10
26000.0
 20
-7000.0
 10
25500.0
 20
-7000.0
 10
25000.0
 20
-7000.0
 10
24500.0
 20
-7000.0
 10
24000.0
 20
-7000.0
 10
23500.0
 20
-7000.0
 10
23000.0
 20
-7000.0
 10
22500.0
 20
-7000.0
 10
22000.0
 20
-7000.0
 10
21500.0
 20
-7000.0
 10
21000.0
 20
-7000.0
 10
20500.0
 20
-6999.568992518821
 10
20000.0
 20
-6997.534932976039
 10
19500.0
 20
-6993.976115303762
 10
19000.0
 20
-6989.052395919753
 10
18500.0
 20
-6982.923631241789
 10
18000.0
 20
-6975.749677687634
 10
17500.0
 20
-6967.690391675067
 10
17000.0
 20
-6958.90562962185
 10
16500.0
 20
-6949.5552479457565
 10
16000.0
 20
-6939.799103064557
 10
15500.0
 20
-6929.797051396021
 10
15000.0
 20
-6919.708949357921
 10
14500.0
 20
-6906.547439145329
 10
14000.0
 20
-6674.579282026002
 10
13500.0
 20
-6324.835708141252
 10
13000.0
 20
-5866.8192426380265
 10
12500.0
 20
-5306.687109348297
 10
12000.0
 20
-4648.941381619754
 10
11500.0
 20
-3897.1007191029507
 10
11000.0
 20
-3054.0354134488225
  0
LINE
  5
9A
330
17
100
AcDbEntity
  8
07_ОСИ
100
AcDbLine
 10
-2000.0
 20
0.0
 30
0.0
 11
141000.0
 21
0.0
 31
0.0
  0
LWPOLYLINE
  5
9B
330
17
100
AcDbEntity
  8
11_КАЮТЫ
100
AcDbPolyline
 90
4
 70
1
 10
51900.0
 20
-6860.0
 10
57900.0
 20
-6860.0
 10
57900.0
 20
-3860.0
 10
51900.0
 20
-3860.0
  0
TEXT
  5
9C
330
17
100
AcDbEntity
  8
11_КАЮТЫ
100
AcDbText
 10
54900.0
 20
-5360.0
 30
0.0
 40
520.0
  1
Б
  7
ГОСТ
 72
1
 11
54900.0
 21
-5360.0
 31
0.0
100
AcDbText
 73
2
  0
LWPOLYLINE
  5
9D
330
17
100
AcDbEntity
  8
11_КАЮТЫ
100
AcDbPolyline
 90
4
 70
1
 10
57900.0
 20
-6860.0
 10
63900.0
 20
-6860.0
 10
63900.0
 20
-3860.0
 10
57900.0
 20
-3860.0
  0
TEXT
  5
9E
330
17
100
AcDbEntity
  8
11_КАЮТЫ
100
AcDbText
 10
60900.0
 20
-5360.0
 30
0.0
 40
520.0
  1
Б
  7
ГОСТ
 72
1
 11
60900.0
 21
-5360.0
 31
0.0
100
AcDbText
 73
2
  0
LWPOLYLINE
  5
9F
330
17
100
AcDbEntity
  8
11_КАЮТЫ
100
AcDbPolyline
 90
4
 70
1
 10
63900.0
 20
-6860.0
 10
69900.0
 20
-6860.0
 10
69900.0
 20
-3860.0
 10
63900.0
 20
-3860.0
  0
TEXT
  5
A0
330
17
100
AcDbEntity
  8
11_КАЮТЫ
100
AcDbText
 10
66900.0
 20
-5360.0
 30
0.0
 40
520.0
  1
Б
  7
ГОСТ
 72
1
 11
66900.0
 21
-5360.0
 31
0.0
100
AcDbText
 73
2
  0
LWPOLYLINE
  5
A1
330
17
100
AcDbEntity
  8
11_КАЮТЫ
100
AcDbPolyline
 90
4
 70
1
 10
69900.0
 20
-6860.0
 10
75900.0
 20
-6860.0
 10
75900.0
 20
-3860.0
 10
69900.0
 20
-3860.0
  0
TEXT
  5
A2
330
17
100
AcDbEntity
  8
11_КАЮТЫ
100
AcDbText
 10
72900.0
 20
-5360.0
 30
0.0
 40
520.0
  1
Б
  7
ГОСТ
 72
1
 11
72900.0
 21
-5360.0
 31
0.0
100
AcDbText
 73
2
  0
LWPOLYLINE
  5
A3
330
17
100
AcDbEntity
  8
11_КАЮТЫ
100
AcDbPolyline
 90
4
 70
1
 10
75900.0
 20
-6860.0
 10
81900.0
 20
-6860.0
 10
81900.0
 20
-3860.0
 10
75900.0
 20
-3860.0
  0
TEXT
  5
A4
330
17
100
AcDbEntity
  8
11_КАЮТЫ
100
AcDbText
 10
78900.0
 20
-5360.0
 30
0.0
 40
520.0
  1
Б
  7
ГОСТ
 72
1
 11
78900.0
 21
-5360.0
 31
0.0
100
AcDbText
 73
2
  0
LWPOLYLINE
  5
A5
330
17
100
AcDbEntity
  8
11_КАЮТЫ
100
AcDbPolyline
 90
4
 70
1
 10
81900.0
 20
-6860.0
 10
87900.0
 20
-6860.0
 10
87900.0
 20
-3860.0
 10
81900.0
 20
-3860.0
  0
TEXT
  5
A6
330
17
100
AcDbEntity
  8
11_КАЮТЫ
100
AcDbText
 10
84900.0
 20
-5360.0
 30
0.0
 40
520.0
  1
Б·МГН
  7
ГОСТ
 72
1
 11
84900.0
 21
-5360.0
 31
0.0
100
AcDbText
 73
2
  0
LWPOLYLINE
  5
A7
330
17
100
AcDbEntity
  8
11_КАЮТЫ
100
AcDbPolyline
 90
4
 70
1
 10
98100.0
 20
-6832.0
 10
104100.0
 20
-6832.0
 10
104100.0
 20
-3832.0
 10
98100.0
 20
-3832.0
  0
TEXT
  5
A8
330
17
100
AcDbEntity
  8
11_КАЮТЫ
100
AcDbText
 10
101100.0
 20
-5332.0
 30
0.0
 40
520.0
  1
Б·МГН
  7
ГОСТ
 72
1
 11
101100.0
 21
-5332.0
 31
0.0
100
AcDbText
 73
2
  0
LWPOLYLINE
  5
A9
330
17
100
AcDbEntity
  8
11_КАЮТЫ
100
AcDbPolyline
 90
4
 70
1
 10
110100.0
 20
-6406.0
 10
116100.0
 20
-6406.0
 10
116100.0
 20
-3406.0
 10
110100.0
 20
-3406.0
  0
TEXT
  5
AA
330
17
100
AcDbEntity
  8
11_КАЮТЫ
100
AcDbText
 10
113100.0
 20
-4906.0
 30
0.0
 40
520.0
  1
Б
  7
ГОСТ
 72
1
 11
113100.0
 21
-4906.0
 31
0.0
100
AcDbText
 73
2
  0
LWPOLYLINE
  5
AB
330
17
100
AcDbEntity
  8
11_КАЮТЫ
100
AcDbPolyline
 90
4
 70
1
 10
116100.0
 20
-5659.0
 10
122100.0
 20
-5659.0
 10
122100.0
 20
-2659.0
 10
116100.0
 20
-2659.0
  0
TEXT
  5
AC
330
17
100
AcDbEntity
  8
11_КАЮТЫ
100
AcDbText
 10
119100.0
 20
-4159.0
 30
0.0
 40
520.0
  1
Б
  7
ГОСТ
 72
1
 11
119100.0
 21
-4159.0
 31
0.0
100
AcDbText
 73
2
  0
LWPOLYLINE
  5
AD
330
17
100
AcDbEntity
  8
11_КАЮТЫ
100
AcDbPolyline
 90
4
 70
1
 10
104100.0
 20
-6777.0
 10
110100.0
 20
-6777.0
 10
110100.0
 20
-3777.0
 10
104100.0
 20
-3777.0
  0
TEXT
  5
AE
330
17
100
AcDbEntity
  8
11_КАЮТЫ
100
AcDbText
 10
107100.0
 20
-5277.0
 30
0.0
 40
520.0
  1
С·МГН
  7
ГОСТ
 72
1
 11
107100.0
 21
-5277.0
 31
0.0
100
AcDbText
 73
2
  0
LWPOLYLINE
  5
AF
330
17
100
AcDbEntity
  8
11_КАЮТЫ
100
AcDbPolyline
 90
4
 70
1
 10
51900.0
 20
-2680.0
 10
55150.0
 20
-2680.0
 10
55150.0
 20
-220.0
 10
51900.0
 20
-220.0
  0
TEXT
  5
B0
330
17
100
AcDbEntity
  8
11_КАЮТЫ
100
AcDbText
 10
53525.0
 20
-1450.0000000000002
 30
0.0
 40
520.0
  1
Эк2
  7
ГОСТ
 72
1
 11
53525.0
 21
-1450.0000000000002
 31
0.0
100
AcDbText
 73
2
  0
LWPOLYLINE
  5
B1
330
17
100
AcDbEntity
  8
11_КАЮТЫ
100
AcDbPolyline
 90
4
 70
1
 10
55150.0
 20
-2680.0
 10
58400.0
 20
-2680.0
 10
58400.0
 20
-220.0
 10
55150.0
 20
-220.0
  0
TEXT
  5
B2
330
17
100
AcDbEntity
  8
11_КАЮТЫ
100
AcDbText
 10
56775.0
 20
-1450.0000000000002
 30
0.0
 40
520.0
  1
Эк2
  7
ГОСТ
 72
1
 11
56775.0
 21
-1450.0000000000002
 31
0.0
100
AcDbText
 73
2
  0
LWPOLYLINE
  5
B3
330
17
100
AcDbEntity
  8
11_КАЮТЫ
100
AcDbPolyline
 90
4
 70
1
 10
58400.0
 20
-2680.0
 10
61650.0
 20
-2680.0
 10
61650.0
 20
-220.0
 10
58400.0
 20
-220.0
  0
TEXT
  5
B4
330
17
100
AcDbEntity
  8
11_КАЮТЫ
100
AcDbText
 10
60025.0
 20
-1450.0000000000002
 30
0.0
 40
520.0
  1
Эк2
  7
ГОСТ
 72
1
 11
60025.0
 21
-1450.0000000000002
 31
0.0
100
AcDbText
 73
2
  0
LWPOLYLINE
  5
B5
330
17
100
AcDbEntity
  8
11_КАЮТЫ
100
AcDbPolyline
 90
4
 70
1
 10
61650.0
 20
-2680.0
 10
64900.00000000001
 20
-2680.0
 10
64900.00000000001
 20
-220.0
 10
61650.0
 20
-220.0
  0
TEXT
  5
B6
330
17
100
AcDbEntity
  8
11_КАЮТЫ
100
AcDbText
 10
63275.00000000001
 20
-1450.0000000000002
 30
0.0
 40
520.0
  1
Эк2
  7
ГОСТ
 72
1
 11
63275.00000000001
 21
-1450.0000000000002
 31
0.0
100
AcDbText
 73
2
  0
LWPOLYLINE
  5
B7
330
17
100
AcDbEntity
  8
11_КАЮТЫ
100
AcDbPolyline
 90
4
 70
1
 10
64900.00000000001
 20
-2680.0
 10
68150.0
 20
-2680.0
 10
68150.0
 20
-220.0
 10
64900.00000000001
 20
-220.0
  0
TEXT
  5
B8
330
17
100
AcDbEntity
  8
11_КАЮТЫ
100
AcDbText
 10
66525.0
 20
-1450.0000000000002
 30
0.0
 40
520.0
  1
Эк2
  7
ГОСТ
 72
1
 11
66525.0
 21
-1450.0000000000002
 31
0.0
100
AcDbText
 73
2
  0
LWPOLYLINE
  5
B9
330
17
100
AcDbEntity
  8
11_КАЮТЫ
100
AcDbPolyline
 90
4
 70
1
 10
68150.0
 20
-2680.0
 10
71400.0
 20
-2680.0
 10
71400.0
 20
-220.0
 10
68150.0
 20
-220.0
  0
TEXT
  5
BA
330
17
100
AcDbEntity
  8
11_КАЮТЫ
100
AcDbText
 10
69775.0
 20
-1450.0000000000002
 30
0.0
 40
520.0
  1
Эк2
  7
ГОСТ
 72
1
 11
69775.0
 21
-1450.0000000000002
 31
0.0
100
AcDbText
 73
2
  0
LWPOLYLINE
  5
BB
330
17
100
AcDbEntity
  8
11_КАЮТЫ
100
AcDbPolyline
 90
4
 70
1
 10
71400.0
 20
-2680.0
 10
74650.0
 20
-2680.0
 10
74650.0
 20
-220.0
 10
71400.0
 20
-220.0
  0
TEXT
  5
BC
330
17
100
AcDbEntity
  8
11_КАЮТЫ
100
AcDbText
 10
73025.0
 20
-1450.0000000000002
 30
0.0
 40
520.0
  1
Эк2
  7
ГОСТ
 72
1
 11
73025.0
 21
-1450.0000000000002
 31
0.0
100
AcDbText
 73
2
  0
LWPOLYLINE
  5
BD
330
17
100
AcDbEntity
  8
11_КАЮТЫ
100
AcDbPolyline
 90
4
 70
1
 10
74650.0
 20
-2680.0
 10
77900.0
 20
-2680.0
 10
77900.0
 20
-220.0
 10
74650.0
 20
-220.0
  0
TEXT
  5
BE
330
17
100
AcDbEntity
  8
11_КАЮТЫ
100
AcDbText
 10
76275.0
 20
-1450.0000000000002
 30
0.0
 40
520.0
  1
Эк2
  7
ГОСТ
 72
1
 11
76275.0
 21
-1450.0000000000002
 31
0.0
100
AcDbText
 73
2
  0
LWPOLYLINE
  5
BF
330
17
100
AcDbEntity
  8
11_КАЮТЫ
100
AcDbPolyline
 90
4
 70
1
 10
77900.0
 20
-2680.0
 10
81150.0
 20
-2680.0
 10
81150.0
 20
-220.0
 10
77900.0
 20
-220.0
  0
TEXT
  5
C0
330
17
100
AcDbEntity
  8
11_КАЮТЫ
100
AcDbText
 10
79525.0
 20
-1450.0000000000002
 30
0.0
 40
520.0
  1
Эк2
  7
ГОСТ
 72
1
 11
79525.0
 21
-1450.0000000000002
 31
0.0
100
AcDbText
 73
2
  0
LWPOLYLINE
  5
C1
330
17
100
AcDbEntity
  8
11_КАЮТЫ
100
AcDbPolyline
 90
4
 70
1
 10
81150.0
 20
-2680.0
 10
84400.0
 20
-2680.0
 10
84400.0
 20
-220.0
 10
81150.0
 20
-220.0
  0
TEXT
  5
C2
330
17
100
AcDbEntity
  8
11_КАЮТЫ
100
AcDbText
 10
82775.0
 20
-1450.0000000000002
 30
0.0
 40
520.0
  1
Эк2
  7
ГОСТ
 72
1
 11
82775.0
 21
-1450.0000000000002
 31
0.0
100
AcDbText
 73
2
  0
LWPOLYLINE
  5
C3
330
17
100
AcDbEntity
  8
11_КАЮТЫ
100
AcDbPolyline
 90
4
 70
1
 10
84400.0
 20
-2680.0
 10
87650.0
 20
-2680.0
 10
87650.0
 20
-220.0
 10
84400.0
 20
-220.0
  0
TEXT
  5
C4
330
17
100
AcDbEntity
  8
11_КАЮТЫ
100
AcDbText
 10
86025.0
 20
-1450.0000000000002
 30
0.0
 40
520.0
  1
Эк2
  7
ГОСТ
 72
1
 11
86025.0
 21
-1450.0000000000002
 31
0.0
100
AcDbText
 73
2
  0
LWPOLYLINE
  5
C5
330
17
100
AcDbEntity
  8
11_КАЮТЫ
100
AcDbPolyline
 90
4
 70
1
 10
98100.0
 20
-2680.0
 10
101350.0
 20
-2680.0
 10
101350.0
 20
-220.0
 10
98100.0
 20
-220.0
  0
TEXT
  5
C6
330
17
100
AcDbEntity
  8
11_КАЮТЫ
100
AcDbText
 10
99725.0
 20
-1450.0000000000002
 30
0.0
 40
520.0
  1
Эк2
  7
ГОСТ
 72
1
 11
99725.0
 21
-1450.0000000000002
 31
0.0
100
AcDbText
 73
2
  0
LWPOLYLINE
  5
C7
330
17
100
AcDbEntity
  8
11_КАЮТЫ
100
AcDbPolyline
 90
4
 70
1
 10
101350.0
 20
-2680.0
 10
104600.0
 20
-2680.0
 10
104600.0
 20
-220.0
 10
101350.0
 20
-220.0
  0
TEXT
  5
C8
330
17
100
AcDbEntity
  8
11_КАЮТЫ
100
AcDbText
 10
102975.0
 20
-1450.0000000000002
 30
0.0
 40
520.0
  1
Эк2
  7
ГОСТ
 72
1
 11
102975.0
 21
-1450.0000000000002
 31
0.0
100
AcDbText
 73
2
  0
LWPOLYLINE
  5
C9
330
17
100
AcDbEntity
  8
11_КАЮТЫ
100
AcDbPolyline
 90
4
 70
1
 10
51900.0
 20
3860.0
 10
57900.0
 20
3860.0
 10
57900.0
 20
6860.0
 10
51900.0
 20
6860.0
  0
TEXT
  5
CA
330
17
100
AcDbEntity
  8
11_КАЮТЫ
100
AcDbText
 10
54900.0
 20
5360.0
 30
0.0
 40
520.0
  1
Б
  7
ГОСТ
 72
1
 11
54900.0
 21
5360.0
 31
0.0
100
AcDbText
 73
2
  0
LWPOLYLINE
  5
CB
330
17
100
AcDbEntity
  8
11_КАЮТЫ
100
AcDbPolyline
 90
4
 70
1
 10
57900.0
 20
3860.0
 10
63900.0
 20
3860.0
 10
63900.0
 20
6860.0
 10
57900.0
 20
6860.0
  0
TEXT
  5
CC
330
17
100
AcDbEntity
  8
11_КАЮТЫ
100
AcDbText
 10
60900.0
 20
5360.0
 30
0.0
 40
520.0
  1
Б
  7
ГОСТ
 72
1
 11
60900.0
 21
5360.0
 31
0.0
100
AcDbText
 73
2
  0
LWPOLYLINE
  5
CD
330
17
100
AcDbEntity
  8
11_КАЮТЫ
100
AcDbPolyline
 90
4
 70
1
 10
63900.0
 20
3860.0
 10
69900.0
 20
3860.0
 10
69900.0
 20
6860.0
 10
63900.0
 20
6860.0
  0
TEXT
  5
CE
330
17
100
AcDbEntity
  8
11_КАЮТЫ
100
AcDbText
 10
66900.0
 20
5360.0
 30
0.0
 40
520.0
  1
Б
  7
ГОСТ
 72
1
 11
66900.0
 21
5360.0
 31
0.0
100
AcDbText
 73
2
  0
LWPOLYLINE
  5
CF
330
17
100
AcDbEntity
  8
11_КАЮТЫ
100
AcDbPolyline
 90
4
 70
1
 10
69900.0
 20
3860.0
 10
75900.0
 20
3860.0
 10
75900.0
 20
6860.0
 10
69900.0
 20
6860.0
  0
TEXT
  5
D0
330
17
100
AcDbEntity
  8
11_КАЮТЫ
100
AcDbText
 10
72900.0
 20
5360.0
 30
0.0
 40
520.0
  1
Б
  7
ГОСТ
 72
1
 11
72900.0
 21
5360.0
 31
0.0
100
AcDbText
 73
2
  0
LWPOLYLINE
  5
D1
330
17
100
AcDbEntity
  8
11_КАЮТЫ
100
AcDbPolyline
 90
4
 70
1
 10
75900.0
 20
3860.0
 10
81900.0
 20
3860.0
 10
81900.0
 20
6860.0
 10
75900.0
 20
6860.0
  0
TEXT
  5
D2
330
17
100
AcDbEntity
  8
11_КАЮТЫ
100
AcDbText
 10
78900.0
 20
5360.0
 30
0.0
 40
520.0
  1
Б
  7
ГОСТ
 72
1
 11
78900.0
 21
5360.0
 31
0.0
100
AcDbText
 73
2
  0
LWPOLYLINE
  5
D3
330
17
100
AcDbEntity
  8
11_КАЮТЫ
100
AcDbPolyline
 90
4
 70
1
 10
81900.0
 20
3860.0
 10
87900.0
 20
3860.0
 10
87900.0
 20
6860.0
 10
81900.0
 20
6860.0
  0
TEXT
  5
D4
330
17
100
AcDbEntity
  8
11_КАЮТЫ
100
AcDbText
 10
84900.0
 20
5360.0
 30
0.0
 40
520.0
  1
Б·МГН
  7
ГОСТ
 72
1
 11
84900.0
 21
5360.0
 31
0.0
100
AcDbText
 73
2
  0
LWPOLYLINE
  5
D5
330
17
100
AcDbEntity
  8
11_КАЮТЫ
100
AcDbPolyline
 90
4
 70
1
 10
98100.0
 20
3832.0
 10
104100.0
 20
3832.0
 10
104100.0
 20
6832.0
 10
98100.0
 20
6832.0
  0
TEXT
  5
D6
330
17
100
AcDbEntity
  8
11_КАЮТЫ
100
AcDbText
 10
101100.0
 20
5332.0
 30
0.0
 40
520.0
  1
Б·МГН
  7
ГОСТ
 72
1
 11
101100.0
 21
5332.0
 31
0.0
100
AcDbText
 73
2
  0
LWPOLYLINE
  5
D7
330
17
100
AcDbEntity
  8
11_КАЮТЫ
100
AcDbPolyline
 90
4
 70
1
 10
110100.0
 20
3406.0
 10
116100.0
 20
3406.0
 10
116100.0
 20
6406.0
 10
110100.0
 20
6406.0
  0
TEXT
  5
D8
330
17
100
AcDbEntity
  8
11_КАЮТЫ
100
AcDbText
 10
113100.0
 20
4906.0
 30
0.0
 40
520.0
  1
Б
  7
ГОСТ
 72
1
 11
113100.0
 21
4906.0
 31
0.0
100
AcDbText
 73
2
  0
LWPOLYLINE
  5
D9
330
17
100
AcDbEntity
  8
11_КАЮТЫ
100
AcDbPolyline
 90
4
 70
1
 10
116100.0
 20
2659.0
 10
122100.0
 20
2659.0
 10
122100.0
 20
5659.0
 10
116100.0
 20
5659.0
  0
TEXT
  5
DA
330
17
100
AcDbEntity
  8
11_КАЮТЫ
100
AcDbText
 10
119100.0
 20
4159.0
 30
0.0
 40
520.0
  1
Б
  7
ГОСТ
 72
1
 11
119100.0
 21
4159.0
 31
0.0
100
AcDbText
 73
2
  0
LWPOLYLINE
  5
DB
330
17
100
AcDbEntity
  8
11_КАЮТЫ
100
AcDbPolyline
 90
4
 70
1
 10
104100.0
 20
3777.0
 10
110100.0
 20
3777.0
 10
110100.0
 20
6777.0
 10
104100.0
 20
6777.0
  0
TEXT
  5
DC
330
17
100
AcDbEntity
  8
11_КАЮТЫ
100
AcDbText
 10
107100.0
 20
5277.0
 30
0.0
 40
520.0
  1
С·МГН
  7
ГОСТ
 72
1
 11
107100.0
 21
5277.0
 31
0.0
100
AcDbText
 73
2
  0
LWPOLYLINE
  5
DD
330
17
100
AcDbEntity
  8
11_КАЮТЫ
100
AcDbPolyline
 90
4
 70
1
 10
66540.0
 20
220.0
 10
69790.0
 20
220.0
 10
69790.0
 20
2680.0
 10
66540.0
 20
2680.0
  0
TEXT
  5
DE
330
17
100
AcDbEntity
  8
11_КАЮТЫ
100
AcDbText
 10
68165.0
 20
1450.0000000000002
 30
0.0
 40
520.0
  1
Эк2
  7
ГОСТ
 72
1
 11
68165.0
 21
1450.0000000000002
 31
0.0
100
AcDbText
 73
2
  0
LWPOLYLINE
  5
DF
330
17
100
AcDbEntity
  8
11_КАЮТЫ
100
AcDbPolyline
 90
4
 70
1
 10
69790.0
 20
220.0
 10
73040.0
 20
220.0
 10
73040.0
 20
2680.0
 10
69790.0
 20
2680.0
  0
TEXT
  5
E0
330
17
100
AcDbEntity
  8
11_КАЮТЫ
100
AcDbText
 10
71415.0
 20
1450.0000000000002
 30
0.0
 40
520.0
  1
Эк2
  7
ГОСТ
 72
1
 11
71415.0
 21
1450.0000000000002
 31
0.0
100
AcDbText
 73
2
  0
LWPOLYLINE
  5
E1
330
17
100
AcDbEntity
  8
11_КАЮТЫ
100
AcDbPolyline
 90
4
 70
1
 10
73040.0
 20
220.0
 10
76290.0
 20
220.0
 10
76290.0
 20
2680.0
 10
73040.0
 20
2680.0
  0
TEXT
  5
E2
330
17
100
AcDbEntity
  8
11_КАЮТЫ
100
AcDbText
 10
74665.0
 20
1450.0000000000002
 30
0.0
 40
520.0
  1
Эк2
  7
ГОСТ
 72
1
 11
74665.0
 21
1450.0000000000002
 31
0.0
100
AcDbText
 73
2
  0
LWPOLYLINE
  5
E3
330
17
100
AcDbEntity
  8
11_КАЮТЫ
100
AcDbPolyline
 90
4
 70
1
 10
76290.0
 20
220.0
 10
79540.0
 20
220.0
 10
79540.0
 20
2680.0
 10
76290.0
 20
2680.0
  0
TEXT
  5
E4
330
17
100
AcDbEntity
  8
11_КАЮТЫ
100
AcDbText
 10
77915.0
 20
1450.0000000000002
 30
0.0
 40
520.0
  1
Эк2
  7
ГОСТ
 72
1
 11
77915.0
 21
1450.0000000000002
 31
0.0
100
AcDbText
 73
2
  0
LWPOLYLINE
  5
E5
330
17
100
AcDbEntity
  8
11_КАЮТЫ
100
AcDbPolyline
 90
4
 70
1
 10
79540.0
 20
220.0
 10
82790.0
 20
220.0
 10
82790.0
 20
2680.0
 10
79540.0
 20
2680.0
  0
TEXT
  5
E6
330
17
100
AcDbEntity
  8
11_КАЮТЫ
100
AcDbText
 10
81165.0
 20
1450.0000000000002
 30
0.0
 40
520.0
  1
Эк2
  7
ГОСТ
 72
1
 11
81165.0
 21
1450.0000000000002
 31
0.0
100
AcDbText
 73
2
  0
LWPOLYLINE
  5
E7
330
17
100
AcDbEntity
  8
11_КАЮТЫ
100
AcDbPolyline
 90
4
 70
1
 10
82790.0
 20
220.0
 10
86040.0
 20
220.0
 10
86040.0
 20
2680.0
 10
82790.0
 20
2680.0
  0
TEXT
  5
E8
330
17
100
AcDbEntity
  8
11_КАЮТЫ
100
AcDbText
 10
84415.0
 20
1450.0000000000002
 30
0.0
 40
520.0
  1
Эк2
  7
ГОСТ
 72
1
 11
84415.0
 21
1450.0000000000002
 31
0.0
100
AcDbText
 73
2
  0
LWPOLYLINE
  5
E9
330
17
100
AcDbEntity
  8
11_КАЮТЫ
100
AcDbPolyline
 90
4
 70
1
 10
86040.0
 20
220.0
 10
89290.0
 20
220.0
 10
89290.0
 20
2680.0
 10
86040.0
 20
2680.0
  0
TEXT
  5
EA
330
17
100
AcDbEntity
  8
11_КАЮТЫ
100
AcDbText
 10
87665.0
 20
1450.0000000000002
 30
0.0
 40
520.0
  1
Эк2
  7
ГОСТ
 72
1
 11
87665.0
 21
1450.0000000000002
 31
0.0
100
AcDbText
 73
2
  0
LWPOLYLINE
  5
EB
330
17
100
AcDbEntity
  8
11_КАЮТЫ
100
AcDbPolyline
 90
4
 70
1
 10
98100.0
 20
220.0
 10
101350.0
 20
220.0
 10
101350.0
 20
2680.0
 10
98100.0
 20
2680.0
  0
TEXT
  5
EC
330
17
100
AcDbEntity
  8
11_КАЮТЫ
100
AcDbText
 10
99725.0
 20
1450.0000000000002
 30
0.0
 40
520.0
  1
Эк2
  7
ГОСТ
 72
1
 11
99725.0
 21
1450.0000000000002
 31
0.0
100
AcDbText
 73
2
  0
LWPOLYLINE
  5
ED
330
17
100
AcDbEntity
  8
11_КАЮТЫ
100
AcDbPolyline
 90
4
 70
1
 10
101350.0
 20
220.0
 10
104600.0
 20
220.0
 10
104600.0
 20
2680.0
 10
101350.0
 20
2680.0
  0
TEXT
  5
EE
330
17
100
AcDbEntity
  8
11_КАЮТЫ
100
AcDbText
 10
102975.0
 20
1450.0000000000002
 30
0.0
 40
520.0
  1
Эк2
  7
ГОСТ
 72
1
 11
102975.0
 21
1450.0000000000002
 31
0.0
100
AcDbText
 73
2
  0
LWPOLYLINE
  5
EF
330
17
100
AcDbEntity
  8
11_КАЮТЫ
100
AcDbPolyline
 90
4
 70
1
 10
51900.0
 20
220.0
 10
55560.0
 20
220.0
 10
55560.0
 20
2720.0
 10
51900.0
 20
2720.0
  0
TEXT
  5
F0
330
17
100
AcDbEntity
  8
11_КАЮТЫ
100
AcDbText
 10
53730.00000000001
 20
1470.0000000000002
 30
0.0
 40
520.0
  1
Э
  7
ГОСТ
 72
1
 11
53730.00000000001
 21
1470.0000000000002
 31
0.0
100
AcDbText
 73
2
  0
LWPOLYLINE
  5
F1
330
17
100
AcDbEntity
  8
11_КАЮТЫ
100
AcDbPolyline
 90
4
 70
1
 10
55560.0
 20
220.0
 10
59220.0
 20
220.0
 10
59220.0
 20
2720.0
 10
55560.0
 20
2720.0
  0
TEXT
  5
F2
330
17
100
AcDbEntity
  8
11_КАЮТЫ
100
AcDbText
 10
57390.0
 20
1470.0000000000002
 30
0.0
 40
520.0
  1
Э
  7
ГОСТ
 72
1
 11
57390.0
 21
1470.0000000000002
 31
0.0
100
AcDbText
 73
2
  0
LWPOLYLINE
  5
F3
330
17
100
AcDbEntity
  8
11_КАЮТЫ
100
AcDbPolyline
 90
4
 70
1
 10
59220.0
 20
220.0
 10
62880.0
 20
220.0
 10
62880.0
 20
2720.0
 10
59220.0
 20
2720.0
  0
TEXT
  5
F4
330
17
100
AcDbEntity
  8
11_КАЮТЫ
100
AcDbText
 10
61050.0
 20
1470.0000000000002
 30
0.0
 40
520.0
  1
Э
  7
ГОСТ
 72
1
 11
61050.0
 21
1470.0000000000002
 31
0.0
100
AcDbText
 73
2
  0
LWPOLYLINE
  5
F5
330
17
100
AcDbEntity
  8
11_КАЮТЫ
100
AcDbPolyline
 90
4
 70
1
 10
62880.0
 20
220.0
 10
66540.0
 20
220.0
 10
66540.0
 20
2720.0
 10
62880.0
 20
2720.0
  0
TEXT
  5
F6
330
17
100
AcDbEntity
  8
11_КАЮТЫ
100
AcDbText
 10
64710.00000000001
 20
1470.0000000000002
 30
0.0
 40
520.0
  1
Э
  7
ГОСТ
 72
1
 11
64710.00000000001
 21
1470.0000000000002
 31
0.0
100
AcDbText
 73
2
  0
LWPOLYLINE
  5
F7
330
17
100
AcDbEntity
  8
12_ТРАПЫ_ЛИФТЫ
100
AcDbPolyline
 90
4
 70
1
 10
34000.0
 20
-2000.0
 10
39520.0
 20
-2000.0
 10
39520.0
 20
-100.0
 10
34000.0
 20
-100.0
  0
LWPOLYLINE
  5
F8
330
17
100
AcDbEntity
  8
12_ТРАПЫ_ЛИФТЫ
100
AcDbPolyline
 90
4
 70
1
 10
92000.0
 20
-2000.0
 10
97520.0
 20
-2000.0
 10
97520.0
 20
-100.0
 10
92000.0
 20
-100.0
  0
LINE
  5
F9
330
17
100
AcDbEntity
  8
06_ПОМЕЩЕНИЯ
100
AcDbLine
 10
11200.0
 20
-8087.259062554938
 30
0.0
 11
11200.0
 21
8087.259062554938
 31
0.0
  0
LINE
  5
FA
330
17
100
AcDbEntity
  8
06_ПОМЕЩЕНИЯ
100
AcDbLine
 10
16500.0
 20
-8198.850403189508
 30
0.0
 11
16500.0
 21
8198.850403189508
 31
0.0
  0
CIRCLE
  5
FB
330
17
100
AcDbEntity
  8
06_ПОМЕЩЕНИЯ
100
AcDbCircle
 10
13850.0
 20
9400.0
 30
0.0
 40
720.0
  0
TEXT
  5
FC
330
17
100
AcDbEntity
  8
06_ПОМЕЩЕНИЯ
100
AcDbText
 10
13850.0
 20
9400.0
 30
0.0
 40
800.0
  1
1
  7
ГОСТ
 72
1
 11
13850.0
 21
9400.0
 31
0.0
100
AcDbText
 73
2
  0
LINE
  5
FD
330
17
100
AcDbEntity
  8
06_ПОМЕЩЕНИЯ
100
AcDbLine
 10
16500.0
 20
-8198.850403189508
 30
0.0
 11
16500.0
 21
8198.850403189508
 31
0.0
  0
LINE
  5
FE
330
17
100
AcDbEntity
  8
06_ПОМЕЩЕНИЯ
100
AcDbLine
 10
26500.0
 20
-8249.724487676636
 30
0.0
 11
26500.0
 21
8249.724487676636
 31
0.0
  0
CIRCLE
  5
FF
330
17
100
AcDbEntity
  8
06_ПОМЕЩЕНИЯ
100
AcDbCircle
 10
21500.0
 20
9400.0
 30
0.0
 40
720.0
  0
TEXT
  5
100
330
17
100
AcDbEntity
  8
06_ПОМЕЩЕНИЯ
100
AcDbText
 10
21500.0
 20
9400.0
 30
0.0
 40
800.0
  1
2
  7
ГОСТ
 72
1
 11
21500.0
 21
9400.0
 31
0.0
100
AcDbText
 73
2
  0
TEXT
  5
101
330
17
100
AcDbEntity
  8
06_ПОМЕЩЕНИЯ
100
AcDbText
 10
21500.0
 20
-1000.0
 30
0.0
 40
640.0
  1
Спа-комплекс
  7
ГОСТ
 72
1
 11
21500.0
 21
-1000.0
 31
0.0
100
AcDbText
 73
2
  0
TEXT
  5
102
330
17
100
AcDbEntity
  8
06_ПОМЕЩЕНИЯ
100
AcDbText
 10
21500.0
 20
-2600.0
 30
0.0
 40
560.0
  1
136 м2 (задание 150 м2)
  7
ГОСТ
 72
1
 11
21500.0
 21
-2600.0
 31
0.0
100
AcDbText
 73
2
  0
LINE
  5
103
330
17
100
AcDbEntity
  8
06_ПОМЕЩЕНИЯ
100
AcDbLine
 10
26500.0
 20
-8249.724487676636
 30
0.0
 11
26500.0
 21
8249.724487676636
 31
0.0
  0
LINE
  5
104
330
17
100
AcDbEntity
  8
06_ПОМЕЩЕНИЯ
100
AcDbLine
 10
33500.0
 20
-8249.909245776907
 30
0.0
 11
33500.0
 21
8249.909245776907
 31
0.0
  0
CIRCLE
  5
105
330
17
100
AcDbEntity
  8
06_ПОМЕЩЕНИЯ
100
AcDbCircle
 10
30000.0
 20
9400.0
 30
0.0
 40
720.0
  0
TEXT
  5
106
330
17
100
AcDbEntity
  8
06_ПОМЕЩЕНИЯ
100
AcDbText
 10
30000.0
 20
9400.0
 30
0.0
 40
800.0
  1
3
  7
ГОСТ
 72
1
 11
30000.0
 21
9400.0
 31
0.0
100
AcDbText
 73
2
  0
TEXT
  5
107
330
17
100
AcDbEntity
  8
06_ПОМЕЩЕНИЯ
100
AcDbText
 10
30000.0
 20
-1000.0
 30
0.0
 40
640.0
  1
Фитнес-центр
  7
ГОСТ
 72
1
 11
30000.0
 21
-1000.0
 31
0.0
100
AcDbText
 73
2
  0
TEXT
  5
108
330
17
100
AcDbEntity
  8
06_ПОМЕЩЕНИЯ
100
AcDbText
 10
30000.0
 20
-2600.0
 30
0.0
 40
560.0
  1
95 м2 (задание 80 м2)
  7
ГОСТ
 72
1
 11
30000.0
 21
-2600.0
 31
0.0
100
AcDbText
 73
2
  0
LINE
  5
109
330
17
100
AcDbEntity
  8
06_ПОМЕЩЕНИЯ
100
AcDbLine
 10
33500.0
 20
-8249.909245776907
 30
0.0
 11
33500.0
 21
8249.909245776907
 31
0.0
  0
LINE
  5
10A
330
17
100
AcDbEntity
  8
06_ПОМЕЩЕНИЯ
100
AcDbLine
 10
40200.0
 20
-8249.983089371151
 30
0.0
 11
40200.0
 21
8249.983089371151
 31
0.0
  0
CIRCLE
  5
10B
330
17
100
AcDbEntity
  8
06_ПОМЕЩЕНИЯ
100
AcDbCircle
 10
36850.0
 20
9400.0
 30
0.0
 40
720.0
  0
TEXT
  5
10C
330
17
100
AcDbEntity
  8
06_ПОМЕЩЕНИЯ
100
AcDbText
 10
36850.0
 20
9400.0
 30
0.0
 40
800.0
  1
4
  7
ГОСТ
 72
1
 11
36850.0
 21
9400.0
 31
0.0
100
AcDbText
 73
2
  0
LINE
  5
10D
330
17
100
AcDbEntity
  8
06_ПОМЕЩЕНИЯ
100
AcDbLine
 10
40200.0
 20
-8249.983089371151
 30
0.0
 11
40200.0
 21
8249.983089371151
 31
0.0
  0
LINE
  5
10E
330
17
100
AcDbEntity
  8
06_ПОМЕЩЕНИЯ
100
AcDbLine
 10
43500.0
 20
-8249.993814053189
 30
0.0
 11
43500.0
 21
8249.993814053189
 31
0.0
  0
CIRCLE
  5
10F
330
17
100
AcDbEntity
  8
06_ПОМЕЩЕНИЯ
100
AcDbCircle
 10
41850.0
 20
9400.0
 30
0.0
 40
720.0
  0
TEXT
  5
110
330
17
100
AcDbEntity
  8
06_ПОМЕЩЕНИЯ
100
AcDbText
 10
41850.0
 20
9400.0
 30
0.0
 40
800.0
  1
5
  7
ГОСТ
 72
1
 11
41850.0
 21
9400.0
 31
0.0
100
AcDbText
 73
2
  0
LINE
  5
111
330
17
100
AcDbEntity
  8
06_ПОМЕЩЕНИЯ
100
AcDbLine
 10
43500.0
 20
-8249.993814053189
 30
0.0
 11
43500.0
 21
8249.993814053189
 31
0.0
  0
LINE
  5
112
330
17
100
AcDbEntity
  8
06_ПОМЕЩЕНИЯ
100
AcDbLine
 10
47200.0
 20
-8249.999438601046
 30
0.0
 11
47200.0
 21
8249.999438601046
 31
0.0
  0
CIRCLE
  5
113
330
17
100
AcDbEntity
  8
06_ПОМЕЩЕНИЯ
100
AcDbCircle
 10
45350.0
 20
9400.0
 30
0.0
 40
720.0
  0
TEXT
  5
114
330
17
100
AcDbEntity
  8
06_ПОМЕЩЕНИЯ
100
AcDbText
 10
45350.0
 20
9400.0
 30
0.0
 40
800.0
  1
6
  7
ГОСТ
 72
1
 11
45350.0
 21
9400.0
 31
0.0
100
AcDbText
 73
2
  0
LINE
  5
115
330
17
100
AcDbEntity
  8
06_ПОМЕЩЕНИЯ
100
AcDbLine
 10
47200.0
 20
-8249.999438601046
 30
0.0
 11
47200.0
 21
8249.999438601046
 31
0.0
  0
LINE
  5
116
330
17
100
AcDbEntity
  8
06_ПОМЕЩЕНИЯ
100
AcDbLine
 10
51900.0
 20
-8250.0
 30
0.0
 11
51900.0
 21
8250.0
 31
0.0
  0
CIRCLE
  5
117
330
17
100
AcDbEntity
  8
06_ПОМЕЩЕНИЯ
100
AcDbCircle
 10
49550.0
 20
9400.0
 30
0.0
 40
720.0
  0
TEXT
  5
118
330
17
100
AcDbEntity
  8
06_ПОМЕЩЕНИЯ
100
AcDbText
 10
49550.0
 20
9400.0
 30
0.0
 40
800.0
  1
7
  7
ГОСТ
 72
1
 11
49550.0
 21
9400.0
 31
0.0
100
AcDbText
 73
2
  0
LINE
  5
119
330
17
100
AcDbEntity
  8
06_ПОМЕЩЕНИЯ
100
AcDbLine
 10
51900.0
 20
-8250.0
 30
0.0
 11
51900.0
 21
8250.0
 31
0.0
  0
LINE
  5
11A
330
17
100
AcDbEntity
  8
06_ПОМЕЩЕНИЯ
100
AcDbLine
 10
90400.0
 20
-8249.86618423917
 30
0.0
 11
90400.0
 21
8249.86618423917
 31
0.0
  0
CIRCLE
  5
11B
330
17
100
AcDbEntity
  8
06_ПОМЕЩЕНИЯ
100
AcDbCircle
 10
71150.0
 20
9400.0
 30
0.0
 40
720.0
  0
TEXT
  5
11C
330
17
100
AcDbEntity
  8
06_ПОМЕЩЕНИЯ
100
AcDbText
 10
71150.0
 20
9400.0
 30
0.0
 40
800.0
  1
8
  7
ГОСТ
 72
1
 11
71150.0
 21
9400.0
 31
0.0
100
AcDbText
 73
2
  0
LINE
  5
11D
330
17
100
AcDbEntity
  8
06_ПОМЕЩЕНИЯ
100
AcDbLine
 10
90400.0
 20
-8249.86618423917
 30
0.0
 11
90400.0
 21
8249.86618423917
 31
0.0
  0
LINE
  5
11E
330
17
100
AcDbEntity
  8
06_ПОМЕЩЕНИЯ
100
AcDbLine
 10
98000.0
 20
-8249.062803544997
 30
0.0
 11
98000.0
 21
8249.062803544997
 31
0.0
  0
CIRCLE
  5
11F
330
17
100
AcDbEntity
  8
06_ПОМЕЩЕНИЯ
100
AcDbCircle
 10
94200.0
 20
9400.0
 30
0.0
 40
720.0
  0
TEXT
  5
120
330
17
100
AcDbEntity
  8
06_ПОМЕЩЕНИЯ
100
AcDbText
 10
94200.0
 20
9400.0
 30
0.0
 40
800.0
  1
9
  7
ГОСТ
 72
1
 11
94200.0
 21
9400.0
 31
0.0
100
AcDbText
 73
2
  0
LINE
  5
121
330
17
100
AcDbEntity
  8
06_ПОМЕЩЕНИЯ
100
AcDbLine
 10
98100.0
 20
-8248.913385888038
 30
0.0
 11
98100.0
 21
8248.913385888038
 31
0.0
  0
LINE
  5
122
330
17
100
AcDbEntity
  8
06_ПОМЕЩЕНИЯ
100
AcDbLine
 10
122100.0
 20
-6979.4457036290605
 30
0.0
 11
122100.0
 21
6979.4457036290605
 31
0.0
  0
CIRCLE
  5
123
330
17
100
AcDbEntity
  8
06_ПОМЕЩЕНИЯ
100
AcDbCircle
 10
110100.0
 20
9400.0
 30
0.0
 40
720.0
  0
TEXT
  5
124
330
17
100
AcDbEntity
  8
06_ПОМЕЩЕНИЯ
100
AcDbText
 10
110100.0
 20
9400.0
 30
0.0
 40
800.0
  1
10
  7
ГОСТ
 72
1
 11
110100.0
 21
9400.0
 31
0.0
100
AcDbText
 73
2
  0
LINE
  5
125
330
17
100
AcDbEntity
  8
06_ПОМЕЩЕНИЯ
100
AcDbLine
 10
122300.0
 20
-6939.71169295431
 30
0.0
 11
122300.0
 21
6939.71169295431
 31
0.0
  0
LINE
  5
126
330
17
100
AcDbEntity
  8
06_ПОМЕЩЕНИЯ
100
AcDbLine
 10
129600.0
 20
-4809.112429222674
 30
0.0
 11
129600.0
 21
4809.112429222674
 31
0.0
  0
CIRCLE
  5
127
330
17
100
AcDbEntity
  8
06_ПОМЕЩЕНИЯ
100
AcDbCircle
 10
125949.99999999999
 20
9400.0
 30
0.0
 40
720.0
  0
TEXT
  5
128
330
17
100
AcDbEntity
  8
06_ПОМЕЩЕНИЯ
100
AcDbText
 10
125949.99999999999
 20
9400.0
 30
0.0
 40
800.0
  1
11
  7
ГОСТ
 72
1
 11
125949.99999999999
 21
9400.0
 31
0.0
100
AcDbText
 73
2
  0
LINE
  5
129
330
17
100
AcDbEntity
  8
03_ПЕРЕБОРКИ
100
AcDbLine
 10
9500.0
 20
-7996.144883114229
 30
0.0
 11
9500.0
 21
7996.144883114229
 31
0.0
  0
TEXT
  5
12A
330
17
100
AcDbEntity
  8
03_ПЕРЕБОРКИ
100
AcDbText
 10
9500.0
 20
11400.0
 30
0.0
 40
560.0
  1
9.5
  7
ГОСТ
 72
1
 11
9500.0
 21
11400.0
 31
0.0
100
AcDbText
 73
2
  0
LINE
  5
12B
330
17
100
AcDbEntity
  8
03_ПЕРЕБОРКИ
100
AcDbLine
 10
12000.0
 20
-8108.967277413468
 30
0.0
 11
12000.0
 21
8108.967277413468
 31
0.0
  0
TEXT
  5
12C
330
17
100
AcDbEntity
  8
03_ПЕРЕБОРКИ
100
AcDbText
 10
12000.0
 20
11400.0
 30
0.0
 40
560.0
  1
12.0
  7
ГОСТ
 72
1
 11
12000.0
 21
11400.0
 31
0.0
100
AcDbText
 73
2
  0
LINE
  5
12D
330
17
100
AcDbEntity
  8
03_ПЕРЕБОРКИ
100
AcDbLine
 10
30000.0
 20
-8249.828670562985
 30
0.0
 11
30000.0
 21
8249.828670562985
 31
0.0
  0
TEXT
  5
12E
330
17
100
AcDbEntity
  8
03_ПЕРЕБОРКИ
100
AcDbText
 10
30000.0
 20
11400.0
 30
0.0
 40
560.0
  1
30.0
  7
ГОСТ
 72
1
 11
30000.0
 21
11400.0
 31
0.0
100
AcDbText
 73
2
  0
LINE
  5
12F
330
17
100
AcDbEntity
  8
03_ПЕРЕБОРКИ
100
AcDbLine
 10
34000.0
 20
-8249.91767162934
 30
0.0
 11
34000.0
 21
8249.91767162934
 31
0.0
  0
TEXT
  5
130
330
17
100
AcDbEntity
  8
03_ПЕРЕБОРКИ
100
AcDbText
 10
34000.0
 20
11400.0
 30
0.0
 40
560.0
  1
34.0
  7
ГОСТ
 72
1
 11
34000.0
 21
11400.0
 31
0.0
100
AcDbText
 73
2
  0
LINE
  5
131
330
17
100
AcDbEntity
  8
03_ПЕРЕБОРКИ
100
AcDbLine
 10
60000.0
 20
-8250.0
 30
0.0
 11
60000.0
 21
8250.0
 31
0.0
  0
TEXT
  5
132
330
17
100
AcDbEntity
  8
03_ПЕРЕБОРКИ
100
AcDbText
 10
60000.0
 20
11400.0
 30
0.0
 40
560.0
  1
60.0
  7
ГОСТ
 72
1
 11
60000.0
 21
11400.0
 31
0.0
100
AcDbText
 73
2
  0
LINE
  5
133
330
17
100
AcDbEntity
  8
03_ПЕРЕБОРКИ
100
AcDbLine
 10
92000.0
 20
-8249.820372648566
 30
0.0
 11
92000.0
 21
8249.820372648566
 31
0.0
  0
TEXT
  5
134
330
17
100
AcDbEntity
  8
03_ПЕРЕБОРКИ
100
AcDbText
 10
92000.0
 20
11400.0
 30
0.0
 40
560.0
  1
92.0
  7
ГОСТ
 72
1
 11
92000.0
 21
11400.0
 31
0.0
100
AcDbText
 73
2
  0
LINE
  5
135
330
17
100
AcDbEntity
  8
03_ПЕРЕБОРКИ
100
AcDbLine
 10
116000.0
 20
-7822.633550288716
 30
0.0
 11
116000.0
 21
7822.633550288716
 31
0.0
  0
TEXT
  5
136
330
17
100
AcDbEntity
  8
03_ПЕРЕБОРКИ
100
AcDbText
 10
116000.0
 20
11400.0
 30
0.0
 40
560.0
  1
116.0
  7
ГОСТ
 72
1
 11
116000.0
 21
11400.0
 31
0.0
100
AcDbText
 73
2
  0
LINE
  5
137
330
17
100
AcDbEntity
  8
03_ПЕРЕБОРКИ
100
AcDbLine
 10
127000.0
 20
-5755.631027691257
 30
0.0
 11
127000.0
 21
5755.631027691257
 31
0.0
  0
TEXT
  5
138
330
17
100
AcDbEntity
  8
03_ПЕРЕБОРКИ
100
AcDbText
 10
127000.0
 20
11400.0
 30
0.0
 40
560.0
  1
127.0
  7
ГОСТ
 72
1
 11
127000.0
 21
11400.0
 31
0.0
100
AcDbText
 73
2
  0
LINE
  5
139
330
17
100
AcDbEntity
  8
09_РАЗМЕРЫ
100
AcDbLine
 10
0.0
 20
-8600.0
 30
0.0
 11
0.0
 21
-9200.0
 31
0.0
  0
TEXT
  5
13A
330
17
100
AcDbEntity
  8
09_РАЗМЕРЫ
100
AcDbText
 10
0.0
 20
-10000.0
 30
0.0
 40
600.0
  1
0
  7
ГОСТ
 72
1
 11
0.0
 21
-10000.0
 31
0.0
100
AcDbText
 73
2
  0
LINE
  5
13B
330
17
100
AcDbEntity
  8
09_РАЗМЕРЫ
100
AcDbLine
 10
2750.0
 20
-8600.0
 30
0.0
 11
2750.0
 21
-8880.0
 31
0.0
  0
LINE
  5
13C
330
17
100
AcDbEntity
  8
09_РАЗМЕРЫ
100
AcDbLine
 10
5500.0
 20
-8600.0
 30
0.0
 11
5500.0
 21
-8880.0
 31
0.0
  0
LINE
  5
13D
330
17
100
AcDbEntity
  8
09_РАЗМЕРЫ
100
AcDbLine
 10
8250.0
 20
-8600.0
 30
0.0
 11
8250.0
 21
-8880.0
 31
0.0
  0
LINE
  5
13E
330
17
100
AcDbEntity
  8
09_РАЗМЕРЫ
100
AcDbLine
 10
11000.0
 20
-8600.0
 30
0.0
 11
11000.0
 21
-9200.0
 31
0.0
  0
TEXT
  5
13F
330
17
100
AcDbEntity
  8
09_РАЗМЕРЫ
100
AcDbText
 10
11000.0
 20
-10000.0
 30
0.0
 40
600.0
  1
20
  7
ГОСТ
 72
1
 11
11000.0
 21
-10000.0
 31
0.0
100
AcDbText
 73
2
  0
LINE
  5
140
330
17
100
AcDbEntity
  8
09_РАЗМЕРЫ
100
AcDbLine
 10
13750.000000000002
 20
-8600.0
 30
0.0
 11
13750.000000000002
 21
-8880.0
 31
0.0
  0
LINE
  5
141
330
17
100
AcDbEntity
  8
09_РАЗМЕРЫ
100
AcDbLine
 10
16500.0
 20
-8600.0
 30
0.0
 11
16500.0
 21
-8880.0
 31
0.0
  0
LINE
  5
142
330
17
100
AcDbEntity
  8
09_РАЗМЕРЫ
100
AcDbLine
 10
19250.0
 20
-8600.0
 30
0.0
 11
19250.0
 21
-8880.0
 31
0.0
  0
LINE
  5
143
330
17
100
AcDbEntity
  8
09_РАЗМЕРЫ
100
AcDbLine
 10
22000.0
 20
-8600.0
 30
0.0
 11
22000.0
 21
-9200.0
 31
0.0
  0
TEXT
  5
144
330
17
100
AcDbEntity
  8
09_РАЗМЕРЫ
100
AcDbText
 10
22000.0
 20
-10000.0
 30
0.0
 40
600.0
  1
40
  7
ГОСТ
 72
1
 11
22000.0
 21
-10000.0
 31
0.0
100
AcDbText
 73
2
  0
LINE
  5
145
330
17
100
AcDbEntity
  8
09_РАЗМЕРЫ
100
AcDbLine
 10
24750.000000000004
 20
-8600.0
 30
0.0
 11
24750.000000000004
 21
-8880.0
 31
0.0
  0
LINE
  5
146
330
17
100
AcDbEntity
  8
09_РАЗМЕРЫ
100
AcDbLine
 10
27500.000000000004
 20
-8600.0
 30
0.0
 11
27500.000000000004
 21
-8880.0
 31
0.0
  0
LINE
  5
147
330
17
100
AcDbEntity
  8
09_РАЗМЕРЫ
100
AcDbLine
 10
30250.000000000004
 20
-8600.0
 30
0.0
 11
30250.000000000004
 21
-8880.0
 31
0.0
  0
LINE
  5
148
330
17
100
AcDbEntity
  8
09_РАЗМЕРЫ
100
AcDbLine
 10
33000.0
 20
-8600.0
 30
0.0
 11
33000.0
 21
-9200.0
 31
0.0
  0
TEXT
  5
149
330
17
100
AcDbEntity
  8
09_РАЗМЕРЫ
100
AcDbText
 10
33000.0
 20
-10000.0
 30
0.0
 40
600.0
  1
60
  7
ГОСТ
 72
1
 11
33000.0
 21
-10000.0
 31
0.0
100
AcDbText
 73
2
  0
LINE
  5
14A
330
17
100
AcDbEntity
  8
09_РАЗМЕРЫ
100
AcDbLine
 10
35750.0
 20
-8600.0
 30
0.0
 11
35750.0
 21
-8880.0
 31
0.0
  0
LINE
  5
14B
330
17
100
AcDbEntity
  8
09_РАЗМЕРЫ
100
AcDbLine
 10
38500.0
 20
-8600.0
 30
0.0
 11
38500.0
 21
-8880.0
 31
0.0
  0
LINE
  5
14C
330
17
100
AcDbEntity
  8
09_РАЗМЕРЫ
100
AcDbLine
 10
41250.0
 20
-8600.0
 30
0.0
 11
41250.0
 21
-8880.0
 31
0.0
  0
LINE
  5
14D
330
17
100
AcDbEntity
  8
09_РАЗМЕРЫ
100
AcDbLine
 10
44000.0
 20
-8600.0
 30
0.0
 11
44000.0
 21
-9200.0
 31
0.0
  0
TEXT
  5
14E
330
17
100
AcDbEntity
  8
09_РАЗМЕРЫ
100
AcDbText
 10
44000.0
 20
-10000.0
 30
0.0
 40
600.0
  1
80
  7
ГОСТ
 72
1
 11
44000.0
 21
-10000.0
 31
0.0
100
AcDbText
 73
2
  0
LINE
  5
14F
330
17
100
AcDbEntity
  8
09_РАЗМЕРЫ
100
AcDbLine
 10
46750.00000000001
 20
-8600.0
 30
0.0
 11
46750.00000000001
 21
-8880.0
 31
0.0
  0
LINE
  5
150
330
17
100
AcDbEntity
  8
09_РАЗМЕРЫ
100
AcDbLine
 10
49500.00000000001
 20
-8600.0
 30
0.0
 11
49500.00000000001
 21
-8880.0
 31
0.0
  0
LINE
  5
151
330
17
100
AcDbEntity
  8
09_РАЗМЕРЫ
100
AcDbLine
 10
52250.00000000001
 20
-8600.0
 30
0.0
 11
52250.00000000001
 21
-8880.0
 31
0.0
  0
LINE
  5
152
330
17
100
AcDbEntity
  8
09_РАЗМЕРЫ
100
AcDbLine
 10
55000.00000000001
 20
-8600.0
 30
0.0
 11
55000.00000000001
 21
-9200.0
 31
0.0
  0
TEXT
  5
153
330
17
100
AcDbEntity
  8
09_РАЗМЕРЫ
100
AcDbText
 10
55000.00000000001
 20
-10000.0
 30
0.0
 40
600.0
  1
100
  7
ГОСТ
 72
1
 11
55000.00000000001
 21
-10000.0
 31
0.0
100
AcDbText
 73
2
  0
LINE
  5
154
330
17
100
AcDbEntity
  8
09_РАЗМЕРЫ
100
AcDbLine
 10
57750.00000000001
 20
-8600.0
 30
0.0
 11
57750.00000000001
 21
-8880.0
 31
0.0
  0
LINE
  5
155
330
17
100
AcDbEntity
  8
09_РАЗМЕРЫ
100
AcDbLine
 10
60500.00000000001
 20
-8600.0
 30
0.0
 11
60500.00000000001
 21
-8880.0
 31
0.0
  0
LINE
  5
156
330
17
100
AcDbEntity
  8
09_РАЗМЕРЫ
100
AcDbLine
 10
63250.00000000001
 20
-8600.0
 30
0.0
 11
63250.00000000001
 21
-8880.0
 31
0.0
  0
LINE
  5
157
330
17
100
AcDbEntity
  8
09_РАЗМЕРЫ
100
AcDbLine
 10
66000.0
 20
-8600.0
 30
0.0
 11
66000.0
 21
-9200.0
 31
0.0
  0
TEXT
  5
158
330
17
100
AcDbEntity
  8
09_РАЗМЕРЫ
100
AcDbText
 10
66000.0
 20
-10000.0
 30
0.0
 40
600.0
  1
120
  7
ГОСТ
 72
1
 11
66000.0
 21
-10000.0
 31
0.0
100
AcDbText
 73
2
  0
LINE
  5
159
330
17
100
AcDbEntity
  8
09_РАЗМЕРЫ
100
AcDbLine
 10
68750.0
 20
-8600.0
 30
0.0
 11
68750.0
 21
-8880.0
 31
0.0
  0
LINE
  5
15A
330
17
100
AcDbEntity
  8
09_РАЗМЕРЫ
100
AcDbLine
 10
71500.0
 20
-8600.0
 30
0.0
 11
71500.0
 21
-8880.0
 31
0.0
  0
LINE
  5
15B
330
17
100
AcDbEntity
  8
09_РАЗМЕРЫ
100
AcDbLine
 10
74250.0
 20
-8600.0
 30
0.0
 11
74250.0
 21
-8880.0
 31
0.0
  0
LINE
  5
15C
330
17
100
AcDbEntity
  8
09_РАЗМЕРЫ
100
AcDbLine
 10
77000.0
 20
-8600.0
 30
0.0
 11
77000.0
 21
-9200.0
 31
0.0
  0
TEXT
  5
15D
330
17
100
AcDbEntity
  8
09_РАЗМЕРЫ
100
AcDbText
 10
77000.0
 20
-10000.0
 30
0.0
 40
600.0
  1
140
  7
ГОСТ
 72
1
 11
77000.0
 21
-10000.0
 31
0.0
100
AcDbText
 73
2
  0
LINE
  5
15E
330
17
100
AcDbEntity
  8
09_РАЗМЕРЫ
100
AcDbLine
 10
79750.0
 20
-8600.0
 30
0.0
 11
79750.0
 21
-8880.0
 31
0.0
  0
LINE
  5
15F
330
17
100
AcDbEntity
  8
09_РАЗМЕРЫ
100
AcDbLine
 10
82500.0
 20
-8600.0
 30
0.0
 11
82500.0
 21
-8880.0
 31
0.0
  0
LINE
  5
160
330
17
100
AcDbEntity
  8
09_РАЗМЕРЫ
100
AcDbLine
 10
85250.0
 20
-8600.0
 30
0.0
 11
85250.0
 21
-8880.0
 31
0.0
  0
LINE
  5
161
330
17
100
AcDbEntity
  8
09_РАЗМЕРЫ
100
AcDbLine
 10
88000.0
 20
-8600.0
 30
0.0
 11
88000.0
 21
-9200.0
 31
0.0
  0
TEXT
  5
162
330
17
100
AcDbEntity
  8
09_РАЗМЕРЫ
100
AcDbText
 10
88000.0
 20
-10000.0
 30
0.0
 40
600.0
  1
160
  7
ГОСТ
 72
1
 11
88000.0
 21
-10000.0
 31
0.0
100
AcDbText
 73
2
  0
LINE
  5
163
330
17
100
AcDbEntity
  8
09_РАЗМЕРЫ
100
AcDbLine
 10
90750.00000000001
 20
-8600.0
 30
0.0
 11
90750.00000000001
 21
-8880.0
 31
0.0
  0
LINE
  5
164
330
17
100
AcDbEntity
  8
09_РАЗМЕРЫ
100
AcDbLine
 10
93500.00000000001
 20
-8600.0
 30
0.0
 11
93500.00000000001
 21
-8880.0
 31
0.0
  0
LINE
  5
165
330
17
100
AcDbEntity
  8
09_РАЗМЕРЫ
100
AcDbLine
 10
96250.00000000001
 20
-8600.0
 30
0.0
 11
96250.00000000001
 21
-8880.0
 31
0.0
  0
LINE
  5
166
330
17
100
AcDbEntity
  8
09_РАЗМЕРЫ
100
AcDbLine
 10
99000.00000000001
 20
-8600.0
 30
0.0
 11
99000.00000000001
 21
-9200.0
 31
0.0
  0
TEXT
  5
167
330
17
100
AcDbEntity
  8
09_РАЗМЕРЫ
100
AcDbText
 10
99000.00000000001
 20
-10000.0
 30
0.0
 40
600.0
  1
180
  7
ГОСТ
 72
1
 11
99000.00000000001
 21
-10000.0
 31
0.0
100
AcDbText
 73
2
  0
LINE
  5
168
330
17
100
AcDbEntity
  8
09_РАЗМЕРЫ
100
AcDbLine
 10
101750.00000000001
 20
-8600.0
 30
0.0
 11
101750.00000000001
 21
-8880.0
 31
0.0
  0
LINE
  5
169
330
17
100
AcDbEntity
  8
09_РАЗМЕРЫ
100
AcDbLine
 10
104500.00000000001
 20
-8600.0
 30
0.0
 11
104500.00000000001
 21
-8880.0
 31
0.0
  0
LINE
  5
16A
330
17
100
AcDbEntity
  8
09_РАЗМЕРЫ
100
AcDbLine
 10
107250.00000000001
 20
-8600.0
 30
0.0
 11
107250.00000000001
 21
-8880.0
 31
0.0
  0
LINE
  5
16B
330
17
100
AcDbEntity
  8
09_РАЗМЕРЫ
100
AcDbLine
 10
110000.00000000001
 20
-8600.0
 30
0.0
 11
110000.00000000001
 21
-9200.0
 31
0.0
  0
TEXT
  5
16C
330
17
100
AcDbEntity
  8
09_РАЗМЕРЫ
100
AcDbText
 10
110000.00000000001
 20
-10000.0
 30
0.0
 40
600.0
  1
200
  7
ГОСТ
 72
1
 11
110000.00000000001
 21
-10000.0
 31
0.0
100
AcDbText
 73
2
  0
LINE
  5
16D
330
17
100
AcDbEntity
  8
09_РАЗМЕРЫ
100
AcDbLine
 10
112750.00000000001
 20
-8600.0
 30
0.0
 11
112750.00000000001
 21
-8880.0
 31
0.0
  0
LINE
  5
16E
330
17
100
AcDbEntity
  8
09_РАЗМЕРЫ
100
AcDbLine
 10
115500.00000000001
 20
-8600.0
 30
0.0
 11
115500.00000000001
 21
-8880.0
 31
0.0
  0
LINE
  5
16F
330
17
100
AcDbEntity
  8
09_РАЗМЕРЫ
100
AcDbLine
 10
118250.00000000001
 20
-8600.0
 30
0.0
 11
118250.00000000001
 21
-8880.0
 31
0.0
  0
LINE
  5
170
330
17
100
AcDbEntity
  8
09_РАЗМЕРЫ
100
AcDbLine
 10
121000.00000000001
 20
-8600.0
 30
0.0
 11
121000.00000000001
 21
-9200.0
 31
0.0
  0
TEXT
  5
171
330
17
100
AcDbEntity
  8
09_РАЗМЕРЫ
100
AcDbText
 10
121000.00000000001
 20
-10000.0
 30
0.0
 40
600.0
  1
220
  7
ГОСТ
 72
1
 11
121000.00000000001
 21
-10000.0
 31
0.0
100
AcDbText
 73
2
  0
LINE
  5
172
330
17
100
AcDbEntity
  8
09_РАЗМЕРЫ
100
AcDbLine
 10
123750.00000000001
 20
-8600.0
 30
0.0
 11
123750.00000000001
 21
-8880.0
 31
0.0
  0
LINE
  5
173
330
17
100
AcDbEntity
  8
09_РАЗМЕРЫ
100
AcDbLine
 10
126500.00000000001
 20
-8600.0
 30
0.0
 11
126500.00000000001
 21
-8880.0
 31
0.0
  0
LINE
  5
174
330
17
100
AcDbEntity
  8
09_РАЗМЕРЫ
100
AcDbLine
 10
129250.0
 20
-8600.0
 30
0.0
 11
129250.0
 21
-8880.0
 31
0.0
  0
LINE
  5
175
330
17
100
AcDbEntity
  8
09_РАЗМЕРЫ
100
AcDbLine
 10
132000.0
 20
-8600.0
 30
0.0
 11
132000.0
 21
-9200.0
 31
0.0
  0
TEXT
  5
176
330
17
100
AcDbEntity
  8
09_РАЗМЕРЫ
100
AcDbText
 10
132000.0
 20
-10000.0
 30
0.0
 40
600.0
  1
240
  7
ГОСТ
 72
1
 11
132000.0
 21
-10000.0
 31
0.0
100
AcDbText
 73
2
  0
LINE
  5
177
330
17
100
AcDbEntity
  8
09_РАЗМЕРЫ
100
AcDbLine
 10
134750.0
 20
-8600.0
 30
0.0
 11
134750.0
 21
-8880.0
 31
0.0
  0
LINE
  5
178
330
17
100
AcDbEntity
  8
09_РАЗМЕРЫ
100
AcDbLine
 10
137500.0
 20
-8600.0
 30
0.0
 11
137500.0
 21
-8880.0
 31
0.0
  0
LINE
  5
179
330
17
100
AcDbEntity
  8
09_РАЗМЕРЫ
100
AcDbLine
 10
0.0
 20
-8600.0
 30
0.0
 11
138600.00000000003
 21
-8600.0
 31
0.0
  0
TEXT
  5
17A
330
17
100
AcDbEntity
  8
09_РАЗМЕРЫ
100
AcDbText
 10
143000.0
 20
-10000.0
 30
0.0
 40
600.0
  1
№ шп., шпация 550
  7
ГОСТ
 11
143000.0
 21
-10000.0
 31
0.0
100
AcDbText
 73
2
  0
LINE
  5
17B
330
17
100
AcDbEntity
  8
00_РАМКА
100
AcDbLine
 10
0.0
 20
-20600.0
 30
0.0
 11
44000.0
 21
-20600.0
 31
0.0
  0
LINE
  5
17C
330
17
100
AcDbEntity
  8
00_РАМКА
100
AcDbLine
 10
0.0
 20
-21800.0
 30
0.0
 11
44000.0
 21
-21800.0
 31
0.0
  0
LINE
  5
17D
330
17
100
AcDbEntity
  8
00_РАМКА
100
AcDbLine
 10
0.0
 20
-23000.0
 30
0.0
 11
44000.0
 21
-23000.0
 31
0.0
  0
LINE
  5
17E
330
17
100
AcDbEntity
  8
00_РАМКА
100
AcDbLine
 10
0.0
 20
-24200.0
 30
0.0
 11
44000.0
 21
-24200.0
 31
0.0
  0
LINE
  5
17F
330
17
100
AcDbEntity
  8
00_РАМКА
100
AcDbLine
 10
0.0
 20
-25400.0
 30
0.0
 11
44000.0
 21
-25400.0
 31
0.0
  0
LINE
  5
180
330
17
100
AcDbEntity
  8
00_РАМКА
100
AcDbLine
 10
0.0
 20
-26600.0
 30
0.0
 11
44000.0
 21
-26600.0
 31
0.0
  0
LINE
  5
181
330
17
100
AcDbEntity
  8
00_РАМКА
100
AcDbLine
 10
0.0
 20
-27800.0
 30
0.0
 11
44000.0
 21
-27800.0
 31
0.0
  0
LINE
  5
182
330
17
100
AcDbEntity
  8
00_РАМКА
100
AcDbLine
 10
0.0
 20
-29000.0
 30
0.0
 11
44000.0
 21
-29000.0
 31
0.0
  0
LINE
  5
183
330
17
100
AcDbEntity
  8
00_РАМКА
100
AcDbLine
 10
0.0
 20
-30200.0
 30
0.0
 11
44000.0
 21
-30200.0
 31
0.0
  0
LINE
  5
184
330
17
100
AcDbEntity
  8
00_РАМКА
100
AcDbLine
 10
0.0
 20
-31400.0
 30
0.0
 11
44000.0
 21
-31400.0
 31
0.0
  0
LINE
  5
185
330
17
100
AcDbEntity
  8
00_РАМКА
100
AcDbLine
 10
0.0
 20
-32600.0
 30
0.0
 11
44000.0
 21
-32600.0
 31
0.0
  0
LINE
  5
186
330
17
100
AcDbEntity
  8
00_РАМКА
100
AcDbLine
 10
0.0
 20
-33800.0
 30
0.0
 11
44000.0
 21
-33800.0
 31
0.0
  0
LINE
  5
187
330
17
100
AcDbEntity
  8
00_РАМКА
100
AcDbLine
 10
0.0
 20
-35000.0
 30
0.0
 11
44000.0
 21
-35000.0
 31
0.0
  0
LINE
  5
188
330
17
100
AcDbEntity
  8
00_РАМКА
100
AcDbLine
 10
0.0
 20
-20600.0
 30
0.0
 11
0.0
 21
-35000.0
 31
0.0
  0
LINE
  5
189
330
17
100
AcDbEntity
  8
00_РАМКА
100
AcDbLine
 10
2400.0
 20
-20600.0
 30
0.0
 11
2400.0
 21
-35000.0
 31
0.0
  0
LINE
  5
18A
330
17
100
AcDbEntity
  8
00_РАМКА
100
AcDbLine
 10
24000.0
 20
-20600.0
 30
0.0
 11
24000.0
 21
-35000.0
 31
0.0
  0
LINE
  5
18B
330
17
100
AcDbEntity
  8
00_РАМКА
100
AcDbLine
 10
29200.0
 20
-20600.0
 30
0.0
 11
29200.0
 21
-35000.0
 31
0.0
  0
LINE
  5
18C
330
17
100
AcDbEntity
  8
00_РАМКА
100
AcDbLine
 10
32800.0
 20
-20600.0
 30
0.0
 11
32800.0
 21
-35000.0
 31
0.0
  0
LINE
  5
18D
330
17
100
AcDbEntity
  8
00_РАМКА
100
AcDbLine
 10
38000.0
 20
-20600.0
 30
0.0
 11
38000.0
 21
-35000.0
 31
0.0
  0
LINE
  5
18E
330
17
100
AcDbEntity
  8
00_РАМКА
100
AcDbLine
 10
44000.0
 20
-20600.0
 30
0.0
 11
44000.0
 21
-35000.0
 31
0.0
  0
TEXT
  5
18F
330
17
100
AcDbEntity
  8
08_ТЕКСТ
100
AcDbText
 10
300.0
 20
-21200.0
 30
0.0
 40
560.0
  1
№
  7
ГОСТ
 11
300.0
 21
-21200.0
 31
0.0
100
AcDbText
 73
2
  0
TEXT
  5
190
330
17
100
AcDbEntity
  8
08_ТЕКСТ
100
AcDbText
 10
2700.0
 20
-21200.0
 30
0.0
 40
560.0
  1
Наименование помещения
  7
ГОСТ
 11
2700.0
 21
-21200.0
 31
0.0
100
AcDbText
 73
2
  0
TEXT
  5
191
330
17
100
AcDbEntity
  8
08_ТЕКСТ
100
AcDbText
 10
24300.0
 20
-21200.0
 30
0.0
 40
560.0
  1
Площадь, м2
  7
ГОСТ
 11
24300.0
 21
-21200.0
 31
0.0
100
AcDbText
 73
2
  0
TEXT
  5
192
330
17
100
AcDbEntity
  8
08_ТЕКСТ
100
AcDbText
 10
29500.0
 20
-21200.0
 30
0.0
 40
560.0
  1
Мест
  7
ГОСТ
 11
29500.0
 21
-21200.0
 31
0.0
100
AcDbText
 73
2
  0
TEXT
  5
193
330
17
100
AcDbEntity
  8
08_ТЕКСТ
100
AcDbText
 10
33100.0
 20
-21200.0
 30
0.0
 40
560.0
  1
Шпангоуты
  7
ГОСТ
 11
33100.0
 21
-21200.0
 31
0.0
100
AcDbText
 73
2
  0
TEXT
  5
194
330
17
100
AcDbEntity
  8
08_ТЕКСТ
100
AcDbText
 10
38300.0
 20
-21200.0
 30
0.0
 40
560.0
  1
x, м
  7
ГОСТ
 11
38300.0
 21
-21200.0
 31
0.0
100
AcDbText
 73
2
  0
TEXT
  5
195
330
17
100
AcDbEntity
  8
08_ТЕКСТ
100
AcDbText
 10
300.0
 20
-22400.0
 30
0.0
 40
500.0
  1
1
  7
ГОСТ
 11
300.0
 21
-22400.0
 31
0.0
100
AcDbText
 73
2
  0
TEXT
  5
196
330
17
100
AcDbEntity
  8
08_ТЕКСТ
100
AcDbText
 10
2700.0
 20
-22400.0
 30
0.0
 40
500.0
  1
Кормовой салон отдыха
  7
ГОСТ
 11
2700.0
 21
-22400.0
 31
0.0
100
AcDbText
 73
2
  0
TEXT
  5
197
330
17
100
AcDbEntity
  8
08_ТЕКСТ
100
AcDbText
 10
24300.0
 20
-22400.0
 30
0.0
 40
500.0
  1
62
  7
ГОСТ
 11
24300.0
 21
-22400.0
 31
0.0
100
AcDbText
 73
2
  0
TEXT
  5
198
330
17
100
AcDbEntity
  8
08_ТЕКСТ
100
AcDbText
 10
29500.0
 20
-22400.0
 30
0.0
 40
500.0
  1
—
  7
ГОСТ
 11
29500.0
 21
-22400.0
 31
0.0
100
AcDbText
 73
2
  0
TEXT
  5
199
330
17
100
AcDbEntity
  8
08_ТЕКСТ
100
AcDbText
 10
33100.0
 20
-22400.0
 30
0.0
 40
500.0
  1
20…30
  7
ГОСТ
 11
33100.0
 21
-22400.0
 31
0.0
100
AcDbText
 73
2
  0
TEXT
  5
19A
330
17
100
AcDbEntity
  8
08_ТЕКСТ
100
AcDbText
 10
38300.0
 20
-22400.0
 30
0.0
 40
500.0
  1
11.2…16.5
  7
ГОСТ
 11
38300.0
 21
-22400.0
 31
0.0
100
AcDbText
 73
2
  0
TEXT
  5
19B
330
17
100
AcDbEntity
  8
08_ТЕКСТ
100
AcDbText
 10
300.0
 20
-23600.0
 30
0.0
 40
500.0
  1
2
  7
ГОСТ
 11
300.0
 21
-23600.0
 31
0.0
100
AcDbText
 73
2
  0
TEXT
  5
19C
330
17
100
AcDbEntity
  8
08_ТЕКСТ
100
AcDbText
 10
2700.0
 20
-23600.0
 30
0.0
 40
500.0
  1
Спа-комплекс
  7
ГОСТ
 11
2700.0
 21
-23600.0
 31
0.0
100
AcDbText
 73
2
  0
TEXT
  5
19D
330
17
100
AcDbEntity
  8
08_ТЕКСТ
100
AcDbText
 10
24300.0
 20
-23600.0
 30
0.0
 40
500.0
  1
136
  7
ГОСТ
 11
24300.0
 21
-23600.0
 31
0.0
100
AcDbText
 73
2
  0
TEXT
  5
19E
330
17
100
AcDbEntity
  8
08_ТЕКСТ
100
AcDbText
 10
29500.0
 20
-23600.0
 30
0.0
 40
500.0
  1
150
  7
ГОСТ
 11
29500.0
 21
-23600.0
 31
0.0
100
AcDbText
 73
2
  0
TEXT
  5
19F
330
17
100
AcDbEntity
  8
08_ТЕКСТ
100
AcDbText
 10
33100.0
 20
-23600.0
 30
0.0
 40
500.0
  1
30…48
  7
ГОСТ
 11
33100.0
 21
-23600.0
 31
0.0
100
AcDbText
 73
2
  0
TEXT
  5
1A0
330
17
100
AcDbEntity
  8
08_ТЕКСТ
100
AcDbText
 10
38300.0
 20
-23600.0
 30
0.0
 40
500.0
  1
16.5…26.5
  7
ГОСТ
 11
38300.0
 21
-23600.0
 31
0.0
100
AcDbText
 73
2
  0
TEXT
  5
1A1
330
17
100
AcDbEntity
  8
08_ТЕКСТ
100
AcDbText
 10
300.0
 20
-24800.0
 30
0.0
 40
500.0
  1
3
  7
ГОСТ
 11
300.0
 21
-24800.0
 31
0.0
100
AcDbText
 73
2
  0
TEXT
  5
1A2
330
17
100
AcDbEntity
  8
08_ТЕКСТ
100
AcDbText
 10
2700.0
 20
-24800.0
 30
0.0
 40
500.0
  1
Фитнес-центр
  7
ГОСТ
 11
2700.0
 21
-24800.0
 31
0.0
100
AcDbText
 73
2
  0
TEXT
  5
1A3
330
17
100
AcDbEntity
  8
08_ТЕКСТ
100
AcDbText
 10
24300.0
 20
-24800.0
 30
0.0
 40
500.0
  1
95
  7
ГОСТ
 11
24300.0
 21
-24800.0
 31
0.0
100
AcDbText
 73
2
  0
TEXT
  5
1A4
330
17
100
AcDbEntity
  8
08_ТЕКСТ
100
AcDbText
 10
29500.0
 20
-24800.0
 30
0.0
 40
500.0
  1
80
  7
ГОСТ
 11
29500.0
 21
-24800.0
 31
0.0
100
AcDbText
 73
2
  0
TEXT
  5
1A5
330
17
100
AcDbEntity
  8
08_ТЕКСТ
100
AcDbText
 10
33100.0
 20
-24800.0
 30
0.0
 40
500.0
  1
48…61
  7
ГОСТ
 11
33100.0
 21
-24800.0
 31
0.0
100
AcDbText
 73
2
  0
TEXT
  5
1A6
330
17
100
AcDbEntity
  8
08_ТЕКСТ
100
AcDbText
 10
38300.0
 20
-24800.0
 30
0.0
 40
500.0
  1
26.5…33.5
  7
ГОСТ
 11
38300.0
 21
-24800.0
 31
0.0
100
AcDbText
 73
2
  0
TEXT
  5
1A7
330
17
100
AcDbEntity
  8
08_ТЕКСТ
100
AcDbText
 10
300.0
 20
-26000.0
 30
0.0
 40
500.0
  1
4
  7
ГОСТ
 11
300.0
 21
-26000.0
 31
0.0
100
AcDbText
 73
2
  0
TEXT
  5
1A8
330
17
100
AcDbEntity
  8
08_ТЕКСТ
100
AcDbText
 10
2700.0
 20
-26000.0
 30
0.0
 40
500.0
  1
Кормовой трап-холл и лифт
  7
ГОСТ
 11
2700.0
 21
-26000.0
 31
0.0
100
AcDbText
 73
2
  0
TEXT
  5
1A9
330
17
100
AcDbEntity
  8
08_ТЕКСТ
100
AcDbText
 10
24300.0
 20
-26000.0
 30
0.0
 40
500.0
  1
91
  7
ГОСТ
 11
24300.0
 21
-26000.0
 31
0.0
100
AcDbText
 73
2
  0
TEXT
  5
1AA
330
17
100
AcDbEntity
  8
08_ТЕКСТ
100
AcDbText
 10
29500.0
 20
-26000.0
 30
0.0
 40
500.0
  1
—
  7
ГОСТ
 11
29500.0
 21
-26000.0
 31
0.0
100
AcDbText
 73
2
  0
TEXT
  5
1AB
330
17
100
AcDbEntity
  8
08_ТЕКСТ
100
AcDbText
 10
33100.0
 20
-26000.0
 30
0.0
 40
500.0
  1
61…73
  7
ГОСТ
 11
33100.0
 21
-26000.0
 31
0.0
100
AcDbText
 73
2
  0
TEXT
  5
1AC
330
17
100
AcDbEntity
  8
08_ТЕКСТ
100
AcDbText
 10
38300.0
 20
-26000.0
 30
0.0
 40
500.0
  1
33.5…40.2
  7
ГОСТ
 11
38300.0
 21
-26000.0
 31
0.0
100
AcDbText
 73
2
  0
TEXT
  5
1AD
330
17
100
AcDbEntity
  8
08_ТЕКСТ
100
AcDbText
 10
300.0
 20
-27200.0
 30
0.0
 40
500.0
  1
5
  7
ГОСТ
 11
300.0
 21
-27200.0
 31
0.0
100
AcDbText
 73
2
  0
TEXT
  5
1AE
330
17
100
AcDbEntity
  8
08_ТЕКСТ
100
AcDbText
 10
2700.0
 20
-27200.0
 30
0.0
 40
500.0
  1
Студия йоги и пилатеса
  7
ГОСТ
 11
2700.0
 21
-27200.0
 31
0.0
100
AcDbText
 73
2
  0
TEXT
  5
1AF
330
17
100
AcDbEntity
  8
08_ТЕКСТ
100
AcDbText
 10
24300.0
 20
-27200.0
 30
0.0
 40
500.0
  1
45
  7
ГОСТ
 11
24300.0
 21
-27200.0
 31
0.0
100
AcDbText
 73
2
  0
TEXT
  5
1B0
330
17
100
AcDbEntity
  8
08_ТЕКСТ
100
AcDbText
 10
29500.0
 20
-27200.0
 30
0.0
 40
500.0
  1
40
  7
ГОСТ
 11
29500.0
 21
-27200.0
 31
0.0
100
AcDbText
 73
2
  0
TEXT
  5
1B1
330
17
100
AcDbEntity
  8
08_ТЕКСТ
100
AcDbText
 10
33100.0
 20
-27200.0
 30
0.0
 40
500.0
  1
73…79
  7
ГОСТ
 11
33100.0
 21
-27200.0
 31
0.0
100
AcDbText
 73
2
  0
TEXT
  5
1B2
330
17
100
AcDbEntity
  8
08_ТЕКСТ
100
AcDbText
 10
38300.0
 20
-27200.0
 30
0.0
 40
500.0
  1
40.2…43.5
  7
ГОСТ
 11
38300.0
 21
-27200.0
 31
0.0
100
AcDbText
 73
2
  0
TEXT
  5
1B3
330
17
100
AcDbEntity
  8
08_ТЕКСТ
100
AcDbText
 10
300.0
 20
-28400.0
 30
0.0
 40
500.0
  1
6
  7
ГОСТ
 11
300.0
 21
-28400.0
 31
0.0
100
AcDbText
 73
2
  0
TEXT
  5
1B4
330
17
100
AcDbEntity
  8
08_ТЕКСТ
100
AcDbText
 10
2700.0
 20
-28400.0
 30
0.0
 40
500.0
  1
Библиотека и лекторий
  7
ГОСТ
 11
2700.0
 21
-28400.0
 31
0.0
100
AcDbText
 73
2
  0
TEXT
  5
1B5
330
17
100
AcDbEntity
  8
08_ТЕКСТ
100
AcDbText
 10
24300.0
 20
-28400.0
 30
0.0
 40
500.0
  1
50
  7
ГОСТ
 11
24300.0
 21
-28400.0
 31
0.0
100
AcDbText
 73
2
  0
TEXT
  5
1B6
330
17
100
AcDbEntity
  8
08_ТЕКСТ
100
AcDbText
 10
29500.0
 20
-28400.0
 30
0.0
 40
500.0
  1
50
  7
ГОСТ
 11
29500.0
 21
-28400.0
 31
0.0
100
AcDbText
 73
2
  0
TEXT
  5
1B7
330
17
100
AcDbEntity
  8
08_ТЕКСТ
100
AcDbText
 10
33100.0
 20
-28400.0
 30
0.0
 40
500.0
  1
79…86
  7
ГОСТ
 11
33100.0
 21
-28400.0
 31
0.0
100
AcDbText
 73
2
  0
TEXT
  5
1B8
330
17
100
AcDbEntity
  8
08_ТЕКСТ
100
AcDbText
 10
38300.0
 20
-28400.0
 30
0.0
 40
500.0
  1
43.5…47.2
  7
ГОСТ
 11
38300.0
 21
-28400.0
 31
0.0
100
AcDbText
 73
2
  0
TEXT
  5
1B9
330
17
100
AcDbEntity
  8
08_ТЕКСТ
100
AcDbText
 10
300.0
 20
-29600.0
 30
0.0
 40
500.0
  1
7
  7
ГОСТ
 11
300.0
 21
-29600.0
 31
0.0
100
AcDbText
 73
2
  0
TEXT
  5
1BA
330
17
100
AcDbEntity
  8
08_ТЕКСТ
100
AcDbText
 10
2700.0
 20
-29600.0
 30
0.0
 40
500.0
  1
Магазины, аптека, фотоателье
  7
ГОСТ
 11
2700.0
 21
-29600.0
 31
0.0
100
AcDbText
 73
2
  0
TEXT
  5
1BB
330
17
100
AcDbEntity
  8
08_ТЕКСТ
100
AcDbText
 10
24300.0
 20
-29600.0
 30
0.0
 40
500.0
  1
64
  7
ГОСТ
 11
24300.0
 21
-29600.0
 31
0.0
100
AcDbText
 73
2
  0
TEXT
  5
1BC
330
17
100
AcDbEntity
  8
08_ТЕКСТ
100
AcDbText
 10
29500.0
 20
-29600.0
 30
0.0
 40
500.0
  1
75
  7
ГОСТ
 11
29500.0
 21
-29600.0
 31
0.0
100
AcDbText
 73
2
  0
TEXT
  5
1BD
330
17
100
AcDbEntity
  8
08_ТЕКСТ
100
AcDbText
 10
33100.0
 20
-29600.0
 30
0.0
 40
500.0
  1
86…94
  7
ГОСТ
 11
33100.0
 21
-29600.0
 31
0.0
100
AcDbText
 73
2
  0
TEXT
  5
1BE
330
17
100
AcDbEntity
  8
08_ТЕКСТ
100
AcDbText
 10
38300.0
 20
-29600.0
 30
0.0
 40
500.0
  1
47.2…51.9
  7
ГОСТ
 11
38300.0
 21
-29600.0
 31
0.0
100
AcDbText
 73
2
  0
TEXT
  5
1BF
330
17
100
AcDbEntity
  8
08_ТЕКСТ
100
AcDbText
 10
300.0
 20
-30800.0
 30
0.0
 40
500.0
  1
8
  7
ГОСТ
 11
300.0
 21
-30800.0
 31
0.0
100
AcDbText
 73
2
  0
TEXT
  5
1C0
330
17
100
AcDbEntity
  8
08_ТЕКСТ
100
AcDbText
 10
2700.0
 20
-30800.0
 30
0.0
 40
500.0
  1
Каюты стандарт, бизнес, эконом и экипажа
  7
ГОСТ
 11
2700.0
 21
-30800.0
 31
0.0
100
AcDbText
 73
2
  0
TEXT
  5
1C1
330
17
100
AcDbEntity
  8
08_ТЕКСТ
100
AcDbText
 10
24300.0
 20
-30800.0
 30
0.0
 40
500.0
  1
—
  7
ГОСТ
 11
24300.0
 21
-30800.0
 31
0.0
100
AcDbText
 73
2
  0
TEXT
  5
1C2
330
17
100
AcDbEntity
  8
08_ТЕКСТ
100
AcDbText
 10
29500.0
 20
-30800.0
 30
0.0
 40
500.0
  1
—
  7
ГОСТ
 11
29500.0
 21
-30800.0
 31
0.0
100
AcDbText
 73
2
  0
TEXT
  5
1C3
330
17
100
AcDbEntity
  8
08_ТЕКСТ
100
AcDbText
 10
33100.0
 20
-30800.0
 30
0.0
 40
500.0
  1
94…164
  7
ГОСТ
 11
33100.0
 21
-30800.0
 31
0.0
100
AcDbText
 73
2
  0
TEXT
  5
1C4
330
17
100
AcDbEntity
  8
08_ТЕКСТ
100
AcDbText
 10
38300.0
 20
-30800.0
 30
0.0
 40
500.0
  1
51.9…90.4
  7
ГОСТ
 11
38300.0
 21
-30800.0
 31
0.0
100
AcDbText
 73
2
  0
TEXT
  5
1C5
330
17
100
AcDbEntity
  8
08_ТЕКСТ
100
AcDbText
 10
300.0
 20
-32000.0
 30
0.0
 40
500.0
  1
9
  7
ГОСТ
 11
300.0
 21
-32000.0
 31
0.0
100
AcDbText
 73
2
  0
TEXT
  5
1C6
330
17
100
AcDbEntity
  8
08_ТЕКСТ
100
AcDbText
 10
2700.0
 20
-32000.0
 30
0.0
 40
500.0
  1
Носовой трап-холл и лифт
  7
ГОСТ
 11
2700.0
 21
-32000.0
 31
0.0
100
AcDbText
 73
2
  0
TEXT
  5
1C7
330
17
100
AcDbEntity
  8
08_ТЕКСТ
100
AcDbText
 10
24300.0
 20
-32000.0
 30
0.0
 40
500.0
  1
103
  7
ГОСТ
 11
24300.0
 21
-32000.0
 31
0.0
100
AcDbText
 73
2
  0
TEXT
  5
1C8
330
17
100
AcDbEntity
  8
08_ТЕКСТ
100
AcDbText
 10
29500.0
 20
-32000.0
 30
0.0
 40
500.0
  1
—
  7
ГОСТ
 11
29500.0
 21
-32000.0
 31
0.0
100
AcDbText
 73
2
  0
TEXT
  5
1C9
330
17
100
AcDbEntity
  8
08_ТЕКСТ
100
AcDbText
 10
33100.0
 20
-32000.0
 30
0.0
 40
500.0
  1
164…178
  7
ГОСТ
 11
33100.0
 21
-32000.0
 31
0.0
100
AcDbText
 73
2
  0
TEXT
  5
1CA
330
17
100
AcDbEntity
  8
08_ТЕКСТ
100
AcDbText
 10
38300.0
 20
-32000.0
 30
0.0
 40
500.0
  1
90.4…98.0
  7
ГОСТ
 11
38300.0
 21
-32000.0
 31
0.0
100
AcDbText
 73
2
  0
TEXT
  5
1CB
330
17
100
AcDbEntity
  8
08_ТЕКСТ
100
AcDbText
 10
300.0
 20
-33200.0
 30
0.0
 40
500.0
  1
10
  7
ГОСТ
 11
300.0
 21
-33200.0
 31
0.0
100
AcDbText
 73
2
  0
TEXT
  5
1CC
330
17
100
AcDbEntity
  8
08_ТЕКСТ
100
AcDbText
 10
2700.0
 20
-33200.0
 30
0.0
 40
500.0
  1
Каюты бизнес
  7
ГОСТ
 11
2700.0
 21
-33200.0
 31
0.0
100
AcDbText
 73
2
  0
TEXT
  5
1CD
330
17
100
AcDbEntity
  8
08_ТЕКСТ
100
AcDbText
 10
24300.0
 20
-33200.0
 30
0.0
 40
500.0
  1
—
  7
ГОСТ
 11
24300.0
 21
-33200.0
 31
0.0
100
AcDbText
 73
2
  0
TEXT
  5
1CE
330
17
100
AcDbEntity
  8
08_ТЕКСТ
100
AcDbText
 10
29500.0
 20
-33200.0
 30
0.0
 40
500.0
  1
—
  7
ГОСТ
 11
29500.0
 21
-33200.0
 31
0.0
100
AcDbText
 73
2
  0
TEXT
  5
1CF
330
17
100
AcDbEntity
  8
08_ТЕКСТ
100
AcDbText
 10
33100.0
 20
-33200.0
 30
0.0
 40
500.0
  1
178…222
  7
ГОСТ
 11
33100.0
 21
-33200.0
 31
0.0
100
AcDbText
 73
2
  0
TEXT
  5
1D0
330
17
100
AcDbEntity
  8
08_ТЕКСТ
100
AcDbText
 10
38300.0
 20
-33200.0
 30
0.0
 40
500.0
  1
98.1…122.1
  7
ГОСТ
 11
38300.0
 21
-33200.0
 31
0.0
100
AcDbText
 73
2
  0
TEXT
  5
1D1
330
17
100
AcDbEntity
  8
08_ТЕКСТ
100
AcDbText
 10
300.0
 20
-34400.0
 30
0.0
 40
500.0
  1
11
  7
ГОСТ
 11
300.0
 21
-34400.0
 31
0.0
100
AcDbText
 73
2
  0
TEXT
  5
1D2
330
17
100
AcDbEntity
  8
08_ТЕКСТ
100
AcDbText
 10
2700.0
 20
-34400.0
 30
0.0
 40
500.0
  1
Носовой панорамный салон
  7
ГОСТ
 11
2700.0
 21
-34400.0
 31
0.0
100
AcDbText
 73
2
  0
TEXT
  5
1D3
330
17
100
AcDbEntity
  8
08_ТЕКСТ
100
AcDbText
 10
24300.0
 20
-34400.0
 30
0.0
 40
500.0
  1
58
  7
ГОСТ
 11
24300.0
 21
-34400.0
 31
0.0
100
AcDbText
 73
2
  0
TEXT
  5
1D4
330
17
100
AcDbEntity
  8
08_ТЕКСТ
100
AcDbText
 10
29500.0
 20
-34400.0
 30
0.0
 40
500.0
  1
—
  7
ГОСТ
 11
29500.0
 21
-34400.0
 31
0.0
100
AcDbText
 73
2
  0
TEXT
  5
1D5
330
17
100
AcDbEntity
  8
08_ТЕКСТ
100
AcDbText
 10
33100.0
 20
-34400.0
 30
0.0
 40
500.0
  1
222…236
  7
ГОСТ
 11
33100.0
 21
-34400.0
 31
0.0
100
AcDbText
 73
2
  0
TEXT
  5
1D6
330
17
100
AcDbEntity
  8
08_ТЕКСТ
100
AcDbText
 10
38300.0
 20
-34400.0
 30
0.0
 40
500.0
  1
122.3…129.6
  7
ГОСТ
 11
38300.0
 21
-34400.0
 31
0.0
100
AcDbText
 73
2
  0
LWPOLYLINE
  5
1D7
330
17
100
AcDbEntity
  8
00_РАМКА
100
AcDbPolyline
 90
4
 70
1
 10
-12600.0
 20
-71100.0
 10
155600.0
 20
-71100.0
 10
155600.0
 20
47700.0
 10
-12600.0
 20
47700.0
  0
LWPOLYLINE
  5
1D8
330
17
100
AcDbEntity
  8
00_РАМКА
100
AcDbPolyline
 90
4
 70
1
 10
-8600.0
 20
-70100.0
 10
154600.0
 20
-70100.0
 10
154600.0
 20
46700.0
 10
-8600.0
 20
46700.0
  0
LWPOLYLINE
  5
1D9
330
17
100
AcDbEntity
  8
00_РАМКА
100
AcDbPolyline
 90
4
 70
1
 10
117600.0
 20
-70100.0
 10
154600.0
 20
-70100.0
 10
154600.0
 20
-59100.0
 10
117600.0
 20
-59100.0
  0
LINE
  5
1DA
330
17
100
AcDbEntity
  8
00_РАМКА
100
AcDbLine
 10
117600.0
 20
-67700.0
 30
0.0
 11
154600.0
 21
-67700.0
 31
0.0
  0
LINE
  5
1DB
330
17
100
AcDbEntity
  8
00_РАМКА
100
AcDbLine
 10
117600.0
 20
-65300.0
 30
0.0
 11
154600.0
 21
-65300.0
 31
0.0
  0
LINE
  5
1DC
330
17
100
AcDbEntity
  8
00_РАМКА
100
AcDbLine
 10
117600.0
 20
-62900.0
 30
0.0
 11
154600.0
 21
-62900.0
 31
0.0
  0
LINE
  5
1DD
330
17
100
AcDbEntity
  8
00_РАМКА
100
AcDbLine
 10
141600.0
 20
-70100.0
 30
0.0
 11
141600.0
 21
-62900.0
 31
0.0
  0
TEXT
  5
1DE
330
17
100
AcDbEntity
  8
08_ТЕКСТ
100
AcDbText
 10
118200.0
 20
-61000.0
 30
0.0
 40
1000.0
  1
Верхняя палуба. План
  7
ГОСТ
 11
118200.0
 21
-61000.0
 31
0.0
100
AcDbText
 73
2
  0
TEXT
  5
1DF
330
17
100
AcDbEntity
  8
08_ТЕКСТ
100
AcDbText
 10
118200.0
 20
-64100.0
 30
0.0
 40
500.0
  1
Волжский Горизонт · L = 139,0 м · B = 16,5 м · T = 2.27 м
  7
ГОСТ
 11
118200.0
 21
-64100.0
 31
0.0
100
AcDbText
 73
2
  0
TEXT
  5
1E0
330
17
100
AcDbEntity
  8
08_ТЕКСТ
100
AcDbText
 10
118200.0
 20
-66500.0
 30
0.0
 40
900.0
  1
ВГ-2026 ярус 3 верхняя палуба
  7
ГОСТ
 11
118200.0
 21
-66500.0
 31
0.0
100
AcDbText
 73
2
  0
TEXT
  5
1E1
330
17
100
AcDbEntity
  8
08_ТЕКСТ
100
AcDbText
 10
142200.0
 20
-66500.0
 30
0.0
 40
700.0
  1
Масштаб 1 : 200
  7
ГОСТ
 11
142200.0
 21
-66500.0
 31
0.0
100
AcDbText
 73
2
  0
TEXT
  5
1E2
330
17
100
AcDbEntity
  8
08_ТЕКСТ
100
AcDbText
 10
118200.0
 20
-68900.0
 30
0.0
 40
500.0
  1
Сталь 09Г2С ГОСТ 19281-2014
  7
ГОСТ
 11
118200.0
 21
-68900.0
 31
0.0
100
AcDbText
 73
2
  0
TEXT
  5
1E3
330
17
100
AcDbEntity
  8
08_ТЕКСТ
100
AcDbText
 10
142200.0
 20
-68900.0
 30
0.0
 40
600.0
  1
Формат A1
  7
ГОСТ
 11
142200.0
 21
-68900.0
 31
0.0
100
AcDbText
 73
2
  0
TEXT
  5
1E4
330
17
100
AcDbEntity
  8
08_ТЕКСТ
100
AcDbText
 10
118200.0
 20
-58300.0
 30
0.0
 40
600.0
  1
УЖЦ ОСК 2026 · «Волжский Горизонт»
  7
ГОСТ
 11
118200.0
 21
-58300.0
 31
0.0
100
AcDbText
 73
2
  0
TEXT
  5
1E5
330
17
100
AcDbEntity
  8
08_ТЕКСТ
100
AcDbText
 10
118200.0
 20
-53900.0
 30
0.0
 40
500.0
  1
1. Уровень палубы z = 7.05 м от основной плоскости. Кают на ярусе — 46.
  7
ГОСТ
 11
118200.0
 21
-53900.0
 31
0.0
100
AcDbText
 73
2
  0
TEXT
  5
1E6
330
17
100
AcDbEntity
  8
08_ТЕКСТ
100
AcDbText
 10
118200.0
 20
-54900.0
 30
0.0
 40
500.0
  1
2. Размеры в миллиметрах, ось x — от кормового перпендикуляра.
  7
ГОСТ
 11
118200.0
 21
-54900.0
 31
0.0
100
AcDbText
 73
2
  0
TEXT
  5
1E7
330
17
100
AcDbEntity
  8
08_ТЕКСТ
100
AcDbText
 10
118200.0
 20
-55900.0
 30
0.0
 40
500.0
  1
3. Красные линии — водонепроницаемые переборки, цифра — абсцисса, м.
  7
ГОСТ
 11
118200.0
 21
-55900.0
 31
0.0
100
AcDbText
 73
2
  0
TEXT
  5
1E8
330
17
100
AcDbEntity
  8
08_ТЕКСТ
100
AcDbText
 10
118200.0
 20
-56900.0
 30
0.0
 40
500.0
  1
4. Ширина коридоров в свету 1400 мм, дверных проёмов 900 мм.
  7
ГОСТ
 11
118200.0
 21
-56900.0
 31
0.0
100
AcDbText
 73
2
  0
TEXT
  5
1E9
330
17
100
AcDbEntity
  8
08_ТЕКСТ
100
AcDbText
 10
118200.0
 20
-52600.0
 30
0.0
 40
700.0
  1
Технические требования
  7
ГОСТ
 11
118200.0
 21
-52600.0
 31
0.0
100
AcDbText
 73
2
  0
ENDSEC
  0
SECTION
  2
OBJECTS
  0
DICTIONARY
  5
A
330
0
100
AcDbDictionary
281
1
  3
ACAD_COLOR
350
B
  3
ACAD_GROUP
350
C
  3
ACAD_LAYOUT
350
D
  3
ACAD_MATERIAL
350
E
  3
ACAD_MLEADERSTYLE
350
F
  3
ACAD_MLINESTYLE
350
10
  3
ACAD_PLOTSETTINGS
350
11
  3
ACAD_PLOTSTYLENAME
350
12
  3
ACAD_SCALELIST
350
14
  3
ACAD_TABLESTYLE
350
15
  3
ACAD_VISUALSTYLE
350
16
  3
EZDXF_META
350
2D
  0
DICTIONARY
  5
B
330
A
100
AcDbDictionary
281
1
  0
DICTIONARY
  5
C
330
A
100
AcDbDictionary
281
1
  0
DICTIONARY
  5
D
330
A
100
AcDbDictionary
281
1
  3
Model
350
1A
  3
Layout1
350
1E
  0
DICTIONARY
  5
E
330
A
100
AcDbDictionary
281
1
  3
ByBlock
350
1F
  3
ByLayer
350
20
  3
Global
350
21
  0
DICTIONARY
  5
F
330
A
100
AcDbDictionary
281
1
  3
Standard
350
2C
  0
DICTIONARY
  5
10
330
A
100
AcDbDictionary
281
1
  3
Standard
350
22
  0
DICTIONARY
  5
11
330
A
100
AcDbDictionary
281
1
  0
ACDBDICTIONARYWDFLT
  5
12
330
A
100
AcDbDictionary
281
1
  3
Normal
350
13
100
AcDbDictionaryWithDefault
340
13
  0
ACDBPLACEHOLDER
  5
13
330
12
  0
DICTIONARY
  5
14
330
A
100
AcDbDictionary
281
1
  0
DICTIONARY
  5
15
330
A
100
AcDbDictionary
281
1
  0
DICTIONARY
  5
16
330
A
100
AcDbDictionary
281
1
  3
2dWireframe
350
5A
  3
Basic
350
5B
  3
Brighten
350
5C
  3
ColorChange
350
5D
  3
Conceptual
350
5E
  3
Dim
350
5F
  3
EdgeColorOff
350
60
  3
Facepattern
350
61
  3
Flat
350
62
  3
FlatWithEdges
350
63
  3
Gouraud
350
64
  3
GouraudWithEdges
350
65
  3
Hidden
350
66
  3
JitterOff
350
67
  3
Linepattern
350
68
  3
Modeling
350
69
  3
OverhangOff
350
6A
  3
Realistic
350
6B
  3
Shaded
350
6C
  3
Shaded with edges
350
6D
  3
Shades of Gray
350
6E
  3
Sketchy
350
6F
  3
Thicken
350
70
  3
Wireframe
350
71
  3
X-Ray
350
72
  0
LAYOUT
  5
1A
330
D
100
AcDbPlotSettings
  1

  4
A3
  6

 40
7.5
 41
20.0
 42
7.5
 43
20.0
 44
420.0
 45
297.0
 46
0.0
 47
0.0
 48
0.0
 49
0.0
140
0.0
141
0.0
142
1.0
143
1.0
 70
1024
 72
1
 73
0
 74
5
  7

 75
16
 76
0
 77
2
 78
300
147
1.0
148
0.0
149
0.0
100
AcDbLayout
  1
Model
 70
1
 71
0
 10
0.0
 20
0.0
 11
420.0
 21
297.0
 12
0.0
 22
0.0
 32
0.0
 14
1e+20
 24
1e+20
 34
1e+20
 15
-1e+20
 25
-1e+20
 35
-1e+20
146
0.0
 13
0.0
 23
0.0
 33
0.0
 16
1.0
 26
0.0
 36
0.0
 17
0.0
 27
1.0
 37
0.0
 76
1
330
17
  0
LAYOUT
  5
1E
330
D
100
AcDbPlotSettings
  1

  4
A3
  6

 40
7.5
 41
20.0
 42
7.5
 43
20.0
 44
420.0
 45
297.0
 46
0.0
 47
0.0
 48
0.0
 49
0.0
140
0.0
141
0.0
142
1.0
143
1.0
 70
0
 72
1
 73
0
 74
5
  7

 75
16
 76
0
 77
2
 78
300
147
1.0
148
0.0
149
0.0
100
AcDbLayout
  1
Layout1
 70
1
 71
1
 10
0.0
 20
0.0
 11
420.0
 21
297.0
 12
0.0
 22
0.0
 32
0.0
 14
1e+20
 24
1e+20
 34
1e+20
 15
-1e+20
 25
-1e+20
 35
-1e+20
146
0.0
 13
0.0
 23
0.0
 33
0.0
 16
1.0
 26
0.0
 36
0.0
 17
0.0
 27
1.0
 37
0.0
 76
1
330
1B
  0
MATERIAL
  5
1F
102
{ACAD_REACTORS
330
E
102
}
330
E
100
AcDbMaterial
  1
ByBlock
  2

 70
0
 40
1.0
 71
1
 41
1.0
 91
-1023410177
 42
1.0
 72
1
  3

 73
1
 74
1
 75
1
 44
0.5
 73
0
 45
1.0
 46
1.0
 77
1
  4

 78
1
 79
1
170
1
 48
1.0
171
1
  6

172
1
173
1
174
1
140
1.0
141
1.0
175
1
  7

176
1
177
1
178
1
143
1.0
179
1
  8

270
1
271
1
272
1
145
1.0
146
1.0
273
1
  9

274
1
275
1
276
1
 42
1.0
 72
1
  3

 73
1
 74
1
 75
1
 94
63
  0
MATERIAL
  5
20
102
{ACAD_REACTORS
330
E
102
}
330
E
100
AcDbMaterial
  1
ByLayer
  2

 70
0
 40
1.0
 71
1
 41
1.0
 91
-1023410177
 42
1.0
 72
1
  3

 73
1
 74
1
 75
1
 44
0.5
 73
0
 45
1.0
 46
1.0
 77
1
  4

 78
1
 79
1
170
1
 48
1.0
171
1
  6

172
1
173
1
174
1
140
1.0
141
1.0
175
1
  7

176
1
177
1
178
1
143
1.0
179
1
  8

270
1
271
1
272
1
145
1.0
146
1.0
273
1
  9

274
1
275
1
276
1
 42
1.0
 72
1
  3

 73
1
 74
1
 75
1
 94
63
  0
MATERIAL
  5
21
102
{ACAD_REACTORS
330
E
102
}
330
E
100
AcDbMaterial
  1
Global
  2

 70
0
 40
1.0
 71
1
 41
1.0
 91
-1023410177
 42
1.0
 72
1
  3

 73
1
 74
1
 75
1
 44
0.5
 73
0
 45
1.0
 46
1.0
 77
1
  4

 78
1
 79
1
170
1
 48
1.0
171
1
  6

172
1
173
1
174
1
140
1.0
141
1.0
175
1
  7

176
1
177
1
178
1
143
1.0
179
1
  8

270
1
271
1
272
1
145
1.0
146
1.0
273
1
  9

274
1
275
1
276
1
 42
1.0
 72
1
  3

 73
1
 74
1
 75
1
 94
63
  0
MLINESTYLE
  5
22
102
{ACAD_REACTORS
330
10
102
}
330
10
100
AcDbMlineStyle
  2
Standard
 70
0
  3

 62
256
 51
90.0
 52
90.0
 71
2
 49
0.5
 62
256
  6
BYLAYER
 49
-0.5
 62
256
  6
BYLAYER
  0
MLEADERSTYLE
  5
2C
102
{ACAD_REACTORS
330
F
102
}
330
F
100
AcDbMLeaderStyle
179
2
170
2
171
1
172
0
 90
2
 40
0.0
 41
0.0
173
1
 91
-1056964608
 92
-2
290
1
 42
2.0
291
1
 43
8.0
  3
Standard
 44
4.0
300

342
29
174
1
175
1
176
0
178
1
 93
-1056964608
 45
4.0
292
0
297
0
 46
4.0
 94
-1056964608
 47
1.0
 49
1.0
140
1.0
294
1
141
0.0
177
0
142
1.0
295
0
296
0
143
3.75
271
0
272
9
273
9
  0
DICTIONARY
  5
2D
330
A
100
AcDbDictionary
280
1
281
1
  3
CREATED_BY_EZDXF
350
2E
  3
WRITTEN_BY_EZDXF
350
1EC
  0
DICTIONARYVAR
  5
2E
330
2D
100
DictionaryVariables
280
0
  1
1.4.4 @ 2026-09-20T23:05:30.095111+00:00
  0
VISUALSTYLE
  5
5A
102
{ACAD_REACTORS
330
16
102
}
330
16
100
AcDbVisualStyle
  2
2dWireframe
 70
4
177
3
291
0
 70
58
 90
2
176
1
 90
2
176
1
 90
0
176
1
 90
0
176
1
 40
0.6
176
1
 40
30.0
176
1
 62
7
420
16777215
176
1
 90
1
176
1
 90
4
176
1
 62
7
176
1
 62
257
176
1
 90
1
176
1
 90
1
176
1
 40
1.0
176
1
 90
8
176
1
 62
7
176
1
 40
1.0
176
1
 90
1
176
1
 90
6
176
1
 90
2
176
1
 62
7
176
1
 90
5
176
1
 90
0
176
1
 90
0
176
1
290
0
176
1
 90
1
176
1
 40
0.0
176
1
 90
0
176
1
290
1
176
1
290
1
176
1
290
0
176
1
290
0
176
1
290
0
176
1
290
0
176
1
290
0
176
1
290
0
176
1
290
0
176
1
 90
50
176
1
 40
0.0
176
1
 40
1.0
176
1
 90
0
176
1
 62
18
420
0
176
1
 90
50
176
1
 90
3
176
1
 62
5
420
255
176
1
290
0
176
1
 90
50
176
1
 90
50
176
1
 90
50
176
1
290
0
176
1
 90
50
176
1
 62
256
176
0
 40
1.0
176
0
 90
2
176
1
  1
strokes_ogs.tif
176
1
290
0
176
1
 40
1.0
176
1
 40
1.0
176
1
  0
VISUALSTYLE
  5
5B
102
{ACAD_REACTORS
330
16
102
}
330
16
100
AcDbVisualStyle
  2
Basic
 70
7
177
3
291
1
 70
58
 90
2
176
1
 90
2
176
1
 90
0
176
1
 90
1
176
1
 40
0.6
176
1
 40
30.0
176
1
 62
7
420
16777215
176
1
 90
1
176
1
 90
4
176
1
 62
7
176
1
 62
257
176
1
 90
1
176
1
 90
1
176
1
 40
1.0
176
1
 90
8
176
1
 62
7
176
1
 40
1.0
176
1
 90
1
176
1
 90
6
176
1
 90
2
176
1
 62
7
176
1
 90
5
176
1
 90
0
176
1
 90
0
176
1
290
0
176
1
 90
1
176
1
 40
0.0
176
1
 90
0
176
1
290
0
176
1
290
1
176
1
290
1
176
1
290
0
176
1
290
0
176
1
290
0
176
1
290
0
176
1
290
0
176
1
290
0
176
1
 90
50
176
1
 40
0.0
176
1
 40
1.0
176
1
 90
0
176
1
 62
18
420
0
176
1
 90
50
176
1
 90
3
176
1
 62
5
420
255
176
1
290
0
176
1
 90
50
176
1
 90
50
176
1
 90
50
176
1
290
0
176
1
 90
50
176
1
 62
256
176
0
 40
1.0
176
0
 90
2
176
1
  1
strokes_ogs.tif
176
1
290
0
176
1
 40
1.0
176
1
 40
1.0
176
1
  0
VISUALSTYLE
  5
5C
102
{ACAD_REACTORS
330
16
102
}
330
16
100
AcDbVisualStyle
  2
Brighten
 70
12
177
3
291
1
 70
58
 90
2
176
1
 90
2
176
1
 90
0
176
1
 90
2
176
1
 40
0.6
176
1
 40
30.0
176
1
 62
7
420
16777215
176
1
 90
1
176
1
 90
4
176
1
 62
7
176
1
 62
257
176
1
 90
1
176
1
 90
1
176
1
 40
1.0
176
1
 90
8
176
1
 62
7
176
1
 40
1.0
176
1
 90
1
176
1
 90
6
176
1
 90
2
176
1
 62
7
176
1
 90
5
176
1
 90
0
176
1
 90
0
176
1
290
0
176
1
 90
1
176
1
 40
0.0
176
1
 90
0
176
1
290
0
176
1
290
1
176
1
290
1
176
1
290
0
176
1
290
0
176
1
290
0
176
1
290
0
176
1
290
0
176
1
290
0
176
1
 90
50
176
1
 40
0.0
176
1
 40
1.0
176
1
 90
0
176
1
 62
18
420
0
176
1
 90
50
176
1
 90
3
176
1
 62
5
420
255
176
1
290
0
176
1
 90
50
176
1
 90
50
176
1
 90
50
176
1
290
0
176
1
 90
50
176
1
 62
256
176
0
 40
1.0
176
0
 90
2
176
1
  1
strokes_ogs.tif
176
1
290
0
176
1
 40
1.0
176
1
 40
1.0
176
1
  0
VISUALSTYLE
  5
5D
102
{ACAD_REACTORS
330
16
102
}
330
16
100
AcDbVisualStyle
  2
ColorChange
 70
16
177
3
291
1
 70
58
 90
2
176
1
 90
2
176
1
 90
0
176
1
 90
2
176
1
 40
0.6
176
1
 40
30.0
176
1
 62
7
420
16777215
176
1
 90
1
176
1
 90
4
176
1
 62
7
176
1
 62
257
176
1
 90
1
176
1
 90
1
176
1
 40
1.0
176
1
 90
8
176
1
 62
7
176
1
 40
1.0
176
1
 90
1
176
1
 90
6
176
1
 90
2
176
1
 62
7
176
1
 90
5
176
1
 90
0
176
1
 90
0
176
1
290
0
176
1
 90
1
176
1
 40
0.0
176
1
 90
0
176
1
290
0
176
1
290
1
176
1
290
1
176
1
290
0
176
1
290
0
176
1
290
0
176
1
290
0
176
1
290
0
176
1
290
0
176
1
 90
50
176
1
 40
0.0
176
1
 40
1.0
176
1
 90
0
176
1
 62
18
420
0
176
1
 90
50
176
1
 90
3
176
1
 62
5
420
255
176
1
290
0
176
1
 90
50
176
1
 90
50
176
1
 90
50
176
1
290
0
176
1
 90
50
176
1
 62
256
176
0
 40
1.0
176
0
 90
2
176
1
  1
strokes_ogs.tif
176
1
290
0
176
1
 40
1.0
176
1
 40
1.0
176
1
  0
VISUALSTYLE
  5
5E
102
{ACAD_REACTORS
330
16
102
}
330
16
100
AcDbVisualStyle
  2
Conceptual
 70
9
177
3
291
0
 70
58
 90
2
176
1
 90
2
176
1
 90
0
176
1
 90
3
176
1
 40
0.6
176
1
 40
30.0
176
1
 62
7
420
16777215
176
1
 90
1
176
1
 90
4
176
1
 62
7
176
1
 62
257
176
1
 90
1
176
1
 90
1
176
1
 40
1.0
176
1
 90
8
176
1
 62
7
176
1
 40
1.0
176
1
 90
1
176
1
 90
6
176
1
 90
2
176
1
 62
7
176
1
 90
5
176
1
 90
0
176
1
 90
0
176
1
290
0
176
1
 90
1
176
1
 40
0.0
176
1
 90
0
176
1
290
0
176
1
290
1
176
1
290
1
176
1
290
0
176
1
290
0
176
1
290
0
176
1
290
0
176
1
290
0
176
1
290
0
176
1
 90
50
176
1
 40
0.0
176
1
 40
1.0
176
1
 90
0
176
1
 62
18
420
0
176
1
 90
50
176
1
 90
3
176
1
 62
5
420
255
176
1
290
0
176
1
 90
50
176
1
 90
50
176
1
 90
50
176
1
290
0
176
1
 90
50
176
1
 62
256
176
0
 40
1.0
176
0
 90
2
176
1
  1
strokes_ogs.tif
176
1
290
0
176
1
 40
1.0
176
1
 40
1.0
176
1
  0
VISUALSTYLE
  5
5F
102
{ACAD_REACTORS
330
16
102
}
330
16
100
AcDbVisualStyle
  2
Dim
 70
11
177
3
291
1
 70
58
 90
2
176
1
 90
2
176
1
 90
0
176
1
 90
2
176
1
 40
0.6
176
1
 40
30.0
176
1
 62
7
420
16777215
176
1
 90
1
176
1
 90
4
176
1
 62
7
176
1
 62
257
176
1
 90
1
176
1
 90
1
176
1
 40
1.0
176
1
 90
8
176
1
 62
7
176
1
 40
1.0
176
1
 90
1
176
1
 90
6
176
1
 90
2
176
1
 62
7
176
1
 90
5
176
1
 90
0
176
1
 90
0
176
1
290
0
176
1
 90
1
176
1
 40
0.0
176
1
 90
0
176
1
290
0
176
1
290
1
176
1
290
1
176
1
290
0
176
1
290
0
176
1
290
0
176
1
290
0
176
1
290
0
176
1
290
0
176
1
 90
50
176
1
 40
0.0
176
1
 40
1.0
176
1
 90
0
176
1
 62
18
420
0
176
1
 90
50
176
1
 90
3
176
1
 62
5
420
255
176
1
290
0
176
1
 90
50
176
1
 90
50
176
1
 90
50
176
1
290
0
176
1
 90
50
176
1
 62
256
176
0
 40
1.0
176
0
 90
2
176
1
  1
strokes_ogs.tif
176
1
290
0
176
1
 40
1.0
176
1
 40
1.0
176
1
  0
VISUALSTYLE
  5
60
102
{ACAD_REACTORS
330
16
102
}
330
16
100
AcDbVisualStyle
  2
EdgeColorOff
 70
22
177
3
291
1
 70
58
 90
2
176
1
 90
2
176
1
 90
0
176
1
 90
2
176
1
 40
0.6
176
1
 40
30.0
176
1
 62
7
420
16777215
176
1
 90
1
176
1
 90
4
176
1
 62
7
176
1
 62
257
176
1
 90
1
176
1
 90
1
176
1
 40
1.0
176
1
 90
8
176
1
 62
7
176
1
 40
1.0
176
1
 90
1
176
1
 90
6
176
1
 90
2
176
1
 62
7
176
1
 90
5
176
1
 90
0
176
1
 90
0
176
1
290
0
176
1
 90
1
176
1
 40
0.0
176
1
 90
0
176
1
290
0
176
1
290
1
176
1
290
1
176
1
290
0
176
1
290
0
176
1
290
0
176
1
290
0
176
1
290
0
176
1
290
0
176
1
 90
50
176
1
 40
0.0
176
1
 40
1.0
176
1
 90
0
176
1
 62
18
420
0
176
1
 90
50
176
1
 90
3
176
1
 62
5
420
255
176
1
290
0
176
1
 90
50
176
1
 90
50
176
1
 90
50
176
1
290
0
176
1
 90
50
176
1
 62
256
176
0
 40
1.0
176
0
 90
2
176
1
  1
strokes_ogs.tif
176
1
290
0
176
1
 40
1.0
176
1
 40
1.0
176
1
  0
VISUALSTYLE
  5
61
102
{ACAD_REACTORS
330
16
102
}
330
16
100
AcDbVisualStyle
  2
Facepattern
 70
15
177
3
291
1
 70
58
 90
2
176
1
 90
2
176
1
 90
0
176
1
 90
2
176
1
 40
0.6
176
1
 40
30.0
176
1
 62
7
420
16777215
176
1
 90
1
176
1
 90
4
176
1
 62
7
176
1
 62
257
176
1
 90
1
176
1
 90
1
176
1
 40
1.0
176
1
 90
8
176
1
 62
7
176
1
 40
1.0
176
1
 90
1
176
1
 90
6
176
1
 90
2
176
1
 62
7
176
1
 90
5
176
1
 90
0
176
1
 90
0
176
1
290
0
176
1
 90
1
176
1
 40
0.0
176
1
 90
0
176
1
290
0
176
1
290
1
176
1
290
1
176
1
290
0
176
1
290
0
176
1
290
0
176
1
290
0
176
1
290
0
176
1
290
0
176
1
 90
50
176
1
 40
0.0
176
1
 40
1.0
176
1
 90
0
176
1
 62
18
420
0
176
1
 90
50
176
1
 90
3
176
1
 62
5
420
255
176
1
290
0
176
1
 90
50
176
1
 90
50
176
1
 90
50
176
1
290
0
176
1
 90
50
176
1
 62
256
176
0
 40
1.0
176
0
 90
2
176
1
  1
strokes_ogs.tif
176
1
290
0
176
1
 40
1.0
176
1
 40
1.0
176
1
  0
VISUALSTYLE
  5
62
102
{ACAD_REACTORS
330
16
102
}
330
16
100
AcDbVisualStyle
  2
Flat
 70
0
177
3
291
1
 70
58
 90
2
176
1
 90
2
176
1
 90
0
176
1
 90
2
176
1
 40
0.6
176
1
 40
30.0
176
1
 62
7
420
16777215
176
1
 90
1
176
1
 90
4
176
1
 62
7
176
1
 62
257
176
1
 90
1
176
1
 90
1
176
1
 40
1.0
176
1
 90
8
176
1
 62
7
176
1
 40
1.0
176
1
 90
1
176
1
 90
6
176
1
 90
2
176
1
 62
7
176
1
 90
5
176
1
 90
0
176
1
 90
0
176
1
290
0
176
1
 90
1
176
1
 40
0.0
176
1
 90
0
176
1
290
0
176
1
290
1
176
1
290
1
176
1
290
0
176
1
290
0
176
1
290
0
176
1
290
0
176
1
290
0
176
1
290
0
176
1
 90
50
176
1
 40
0.0
176
1
 40
1.0
176
1
 90
0
176
1
 62
18
420
0
176
1
 90
50
176
1
 90
3
176
1
 62
5
420
255
176
1
290
0
176
1
 90
50
176
1
 90
50
176
1
 90
50
176
1
290
0
176
1
 90
50
176
1
 62
256
176
0
 40
1.0
176
0
 90
2
176
1
  1
strokes_ogs.tif
176
1
290
0
176
1
 40
1.0
176
1
 40
1.0
176
1
  0
VISUALSTYLE
  5
63
102
{ACAD_REACTORS
330
16
102
}
330
16
100
AcDbVisualStyle
  2
FlatWithEdges
 70
1
177
3
291
1
 70
58
 90
2
176
1
 90
2
176
1
 90
0
176
1
 90
2
176
1
 40
0.6
176
1
 40
30.0
176
1
 62
7
420
16777215
176
1
 90
1
176
1
 90
4
176
1
 62
7
176
1
 62
257
176
1
 90
1
176
1
 90
1
176
1
 40
1.0
176
1
 90
8
176
1
 62
7
176
1
 40
1.0
176
1
 90
1
176
1
 90
6
176
1
 90
2
176
1
 62
7
176
1
 90
5
176
1
 90
0
176
1
 90
0
176
1
290
0
176
1
 90
1
176
1
 40
0.0
176
1
 90
0
176
1
290
0
176
1
290
1
176
1
290
1
176
1
290
0
176
1
290
0
176
1
290
0
176
1
290
0
176
1
290
0
176
1
290
0
176
1
 90
50
176
1
 40
0.0
176
1
 40
1.0
176
1
 90
0
176
1
 62
18
420
0
176
1
 90
50
176
1
 90
3
176
1
 62
5
420
255
176
1
290
0
176
1
 90
50
176
1
 90
50
176
1
 90
50
176
1
290
0
176
1
 90
50
176
1
 62
256
176
0
 40
1.0
176
0
 90
2
176
1
  1
strokes_ogs.tif
176
1
290
0
176
1
 40
1.0
176
1
 40
1.0
176
1
  0
VISUALSTYLE
  5
64
102
{ACAD_REACTORS
330
16
102
}
330
16
100
AcDbVisualStyle
  2
Gouraud
 70
2
177
3
291
1
 70
58
 90
2
176
1
 90
2
176
1
 90
0
176
1
 90
2
176
1
 40
0.6
176
1
 40
30.0
176
1
 62
7
420
16777215
176
1
 90
1
176
1
 90
4
176
1
 62
7
176
1
 62
257
176
1
 90
1
176
1
 90
1
176
1
 40
1.0
176
1
 90
8
176
1
 62
7
176
1
 40
1.0
176
1
 90
1
176
1
 90
6
176
1
 90
2
176
1
 62
7
176
1
 90
5
176
1
 90
0
176
1
 90
0
176
1
290
0
176
1
 90
1
176
1
 40
0.0
176
1
 90
0
176
1
290
0
176
1
290
1
176
1
290
1
176
1
290
0
176
1
290
0
176
1
290
0
176
1
290
0
176
1
290
0
176
1
290
0
176
1
 90
50
176
1
 40
0.0
176
1
 40
1.0
176
1
 90
0
176
1
 62
18
420
0
176
1
 90
50
176
1
 90
3
176
1
 62
5
420
255
176
1
290
0
176
1
 90
50
176
1
 90
50
176
1
 90
50
176
1
290
0
176
1
 90
50
176
1
 62
256
176
0
 40
1.0
176
0
 90
2
176
1
  1
strokes_ogs.tif
176
1
290
0
176
1
 40
1.0
176
1
 40
1.0
176
1
  0
VISUALSTYLE
  5
65
102
{ACAD_REACTORS
330
16
102
}
330
16
100
AcDbVisualStyle
  2
GouraudWithEdges
 70
3
177
3
291
1
 70
58
 90
2
176
1
 90
2
176
1
 90
0
176
1
 90
2
176
1
 40
0.6
176
1
 40
30.0
176
1
 62
7
420
16777215
176
1
 90
1
176
1
 90
4
176
1
 62
7
176
1
 62
257
176
1
 90
1
176
1
 90
1
176
1
 40
1.0
176
1
 90
8
176
1
 62
7
176
1
 40
1.0
176
1
 90
1
176
1
 90
6
176
1
 90
2
176
1
 62
7
176
1
 90
5
176
1
 90
0
176
1
 90
0
176
1
290
0
176
1
 90
1
176
1
 40
0.0
176
1
 90
0
176
1
290
0
176
1
290
1
176
1
290
1
176
1
290
0
176
1
290
0
176
1
290
0
176
1
290
0
176
1
290
0
176
1
290
0
176
1
 90
50
176
1
 40
0.0
176
1
 40
1.0
176
1
 90
0
176
1
 62
18
420
0
176
1
 90
50
176
1
 90
3
176
1
 62
5
420
255
176
1
290
0
176
1
 90
50
176
1
 90
50
176
1
 90
50
176
1
290
0
176
1
 90
50
176
1
 62
256
176
0
 40
1.0
176
0
 90
2
176
1
  1
strokes_ogs.tif
176
1
290
0
176
1
 40
1.0
176
1
 40
1.0
176
1
  0
VISUALSTYLE
  5
66
102
{ACAD_REACTORS
330
16
102
}
330
16
100
AcDbVisualStyle
  2
Hidden
 70
6
177
3
291
0
 70
58
 90
2
176
1
 90
2
176
1
 90
0
176
1
 90
1
176
1
 40
0.6
176
1
 40
30.0
176
1
 62
7
420
16777215
176
1
 90
1
176
1
 90
4
176
1
 62
7
176
1
 62
257
176
1
 90
1
176
1
 90
1
176
1
 40
1.0
176
1
 90
8
176
1
 62
7
176
1
 40
1.0
176
1
 90
1
176
1
 90
6
176
1
 90
2
176
1
 62
7
176
1
 90
5
176
1
 90
0
176
1
 90
0
176
1
290
0
176
1
 90
1
176
1
 40
0.0
176
1
 90
0
176
1
290
0
176
1
290
1
176
1
290
1
176
1
290
0
176
1
290
0
176
1
290
0
176
1
290
0
176
1
290
0
176
1
290
0
176
1
 90
50
176
1
 40
0.0
176
1
 40
1.0
176
1
 90
0
176
1
 62
18
420
0
176
1
 90
50
176
1
 90
3
176
1
 62
5
420
255
176
1
290
0
176
1
 90
50
176
1
 90
50
176
1
 90
50
176
1
290
0
176
1
 90
50
176
1
 62
256
176
0
 40
1.0
176
0
 90
2
176
1
  1
strokes_ogs.tif
176
1
290
0
176
1
 40
1.0
176
1
 40
1.0
176
1
  0
VISUALSTYLE
  5
67
102
{ACAD_REACTORS
330
16
102
}
330
16
100
AcDbVisualStyle
  2
JitterOff
 70
20
177
3
291
1
 70
58
 90
2
176
1
 90
2
176
1
 90
0
176
1
 90
2
176
1
 40
0.6
176
1
 40
30.0
176
1
 62
7
420
16777215
176
1
 90
1
176
1
 90
4
176
1
 62
7
176
1
 62
257
176
1
 90
1
176
1
 90
1
176
1
 40
1.0
176
1
 90
8
176
1
 62
7
176
1
 40
1.0
176
1
 90
1
176
1
 90
6
176
1
 90
2
176
1
 62
7
176
1
 90
5
176
1
 90
0
176
1
 90
0
176
1
290
0
176
1
 90
1
176
1
 40
0.0
176
1
 90
0
176
1
290
0
176
1
290
1
176
1
290
1
176
1
290
0
176
1
290
0
176
1
290
0
176
1
290
0
176
1
290
0
176
1
290
0
176
1
 90
50
176
1
 40
0.0
176
1
 40
1.0
176
1
 90
0
176
1
 62
18
420
0
176
1
 90
50
176
1
 90
3
176
1
 62
5
420
255
176
1
290
0
176
1
 90
50
176
1
 90
50
176
1
 90
50
176
1
290
0
176
1
 90
50
176
1
 62
256
176
0
 40
1.0
176
0
 90
2
176
1
  1
strokes_ogs.tif
176
1
290
0
176
1
 40
1.0
176
1
 40
1.0
176
1
  0
VISUALSTYLE
  5
68
102
{ACAD_REACTORS
330
16
102
}
330
16
100
AcDbVisualStyle
  2
Linepattern
 70
14
177
3
291
1
 70
58
 90
2
176
1
 90
2
176
1
 90
0
176
1
 90
2
176
1
 40
0.6
176
1
 40
30.0
176
1
 62
7
420
16777215
176
1
 90
1
176
1
 90
4
176
1
 62
7
176
1
 62
257
176
1
 90
1
176
1
 90
1
176
1
 40
1.0
176
1
 90
8
176
1
 62
7
176
1
 40
1.0
176
1
 90
1
176
1
 90
6
176
1
 90
2
176
1
 62
7
176
1
 90
5
176
1
 90
0
176
1
 90
0
176
1
290
0
176
1
 90
1
176
1
 40
0.0
176
1
 90
0
176
1
290
0
176
1
290
1
176
1
290
1
176
1
290
0
176
1
290
0
176
1
290
0
176
1
290
0
176
1
290
0
176
1
290
0
176
1
 90
50
176
1
 40
0.0
176
1
 40
1.0
176
1
 90
0
176
1
 62
18
420
0
176
1
 90
50
176
1
 90
3
176
1
 62
5
420
255
176
1
290
0
176
1
 90
50
176
1
 90
50
176
1
 90
50
176
1
290
0
176
1
 90
50
176
1
 62
256
176
0
 40
1.0
176
0
 90
2
176
1
  1
strokes_ogs.tif
176
1
290
0
176
1
 40
1.0
176
1
 40
1.0
176
1
  0
VISUALSTYLE
  5
69
102
{ACAD_REACTORS
330
16
102
}
330
16
100
AcDbVisualStyle
  2
Modeling
 70
10
177
3
291
0
 70
58
 90
2
176
1
 90
2
176
1
 90
0
176
1
 90
2
176
1
 40
0.6
176
1
 40
30.0
176
1
 62
7
420
16777215
176
1
 90
1
176
1
 90
4
176
1
 62
7
176
1
 62
257
176
1
 90
1
176
1
 90
1
176
1
 40
1.0
176
1
 90
8
176
1
 62
7
176
1
 40
1.0
176
1
 90
1
176
1
 90
6
176
1
 90
2
176
1
 62
7
176
1
 90
5
176
1
 90
0
176
1
 90
0
176
1
290
0
176
1
 90
1
176
1
 40
0.0
176
1
 90
0
176
1
290
0
176
1
290
1
176
1
290
1
176
1
290
0
176
1
290
0
176
1
290
0
176
1
290
0
176
1
290
0
176
1
290
0
176
1
 90
50
176
1
 40
0.0
176
1
 40
1.0
176
1
 90
0
176
1
 62
18
420
0
176
1
 90
50
176
1
 90
3
176
1
 62
5
420
255
176
1
290
0
176
1
 90
50
176
1
 90
50
176
1
 90
50
176
1
290
0
176
1
 90
50
176
1
 62
256
176
0
 40
1.0
176
0
 90
2
176
1
  1
strokes_ogs.tif
176
1
290
0
176
1
 40
1.0
176
1
 40
1.0
176
1
  0
VISUALSTYLE
  5
6A
102
{ACAD_REACTORS
330
16
102
}
330
16
100
AcDbVisualStyle
  2
OverhangOff
 70
21
177
3
291
1
 70
58
 90
2
176
1
 90
2
176
1
 90
0
176
1
 90
2
176
1
 40
0.6
176
1
 40
30.0
176
1
 62
7
420
16777215
176
1
 90
1
176
1
 90
4
176
1
 62
7
176
1
 62
257
176
1
 90
1
176
1
 90
1
176
1
 40
1.0
176
1
 90
8
176
1
 62
7
176
1
 40
1.0
176
1
 90
1
176
1
 90
6
176
1
 90
2
176
1
 62
7
176
1
 90
5
176
1
 90
0
176
1
 90
0
176
1
290
0
176
1
 90
1
176
1
 40
0.0
176
1
 90
0
176
1
290
0
176
1
290
1
176
1
290
1
176
1
290
0
176
1
290
0
176
1
290
0
176
1
290
0
176
1
290
0
176
1
290
0
176
1
 90
50
176
1
 40
0.0
176
1
 40
1.0
176
1
 90
0
176
1
 62
18
420
0
176
1
 90
50
176
1
 90
3
176
1
 62
5
420
255
176
1
290
0
176
1
 90
50
176
1
 90
50
176
1
 90
50
176
1
290
0
176
1
 90
50
176
1
 62
256
176
0
 40
1.0
176
0
 90
2
176
1
  1
strokes_ogs.tif
176
1
290
0
176
1
 40
1.0
176
1
 40
1.0
176
1
  0
VISUALSTYLE
  5
6B
102
{ACAD_REACTORS
330
16
102
}
330
16
100
AcDbVisualStyle
  2
Realistic
 70
8
177
3
291
0
 70
58
 90
2
176
1
 90
2
176
1
 90
0
176
1
 90
2
176
1
 40
0.6
176
1
 40
30.0
176
1
 62
7
420
16777215
176
1
 90
1
176
1
 90
4
176
1
 62
7
176
1
 62
257
176
1
 90
1
176
1
 90
1
176
1
 40
1.0
176
1
 90
8
176
1
 62
7
176
1
 40
1.0
176
1
 90
1
176
1
 90
6
176
1
 90
2
176
1
 62
7
176
1
 90
5
176
1
 90
0
176
1
 90
0
176
1
290
0
176
1
 90
1
176
1
 40
0.0
176
1
 90
0
176
1
290
0
176
1
290
1
176
1
290
1
176
1
290
0
176
1
290
0
176
1
290
0
176
1
290
0
176
1
290
0
176
1
290
0
176
1
 90
50
176
1
 40
0.0
176
1
 40
1.0
176
1
 90
0
176
1
 62
18
420
0
176
1
 90
50
176
1
 90
3
176
1
 62
5
420
255
176
1
290
0
176
1
 90
50
176
1
 90
50
176
1
 90
50
176
1
290
0
176
1
 90
50
176
1
 62
256
176
0
 40
1.0
176
0
 90
2
176
1
  1
strokes_ogs.tif
176
1
290
0
176
1
 40
1.0
176
1
 40
1.0
176
1
  0
VISUALSTYLE
  5
6C
102
{ACAD_REACTORS
330
16
102
}
330
16
100
AcDbVisualStyle
  2
Shaded
 70
27
177
3
291
0
 70
58
 90
2
176
1
 90
2
176
1
 90
0
176
1
 90
2
176
1
 40
0.6
176
1
 40
30.0
176
1
 62
7
420
16777215
176
1
 90
1
176
1
 90
4
176
1
 62
7
176
1
 62
257
176
1
 90
1
176
1
 90
1
176
1
 40
1.0
176
1
 90
8
176
1
 62
7
176
1
 40
1.0
176
1
 90
1
176
1
 90
6
176
1
 90
2
176
1
 62
7
176
1
 90
5
176
1
 90
0
176
1
 90
0
176
1
290
0
176
1
 90
1
176
1
 40
0.0
176
1
 90
0
176
1
290
0
176
1
290
1
176
1
290
1
176
1
290
0
176
1
290
0
176
1
290
0
176
1
290
0
176
1
290
0
176
1
290
0
176
1
 90
50
176
1
 40
0.0
176
1
 40
1.0
176
1
 90
0
176
1
 62
18
420
0
176
1
 90
50
176
1
 90
3
176
1
 62
5
420
255
176
1
290
0
176
1
 90
50
176
1
 90
50
176
1
 90
50
176
1
290
0
176
1
 90
50
176
1
 62
256
176
0
 40
1.0
176
0
 90
2
176
1
  1
strokes_ogs.tif
176
1
290
0
176
1
 40
1.0
176
1
 40
1.0
176
1
  0
VISUALSTYLE
  5
6D
102
{ACAD_REACTORS
330
16
102
}
330
16
100
AcDbVisualStyle
  2
Shaded with edges
 70
26
177
3
291
0
 70
58
 90
2
176
1
 90
2
176
1
 90
0
176
1
 90
2
176
1
 40
0.6
176
1
 40
30.0
176
1
 62
7
420
16777215
176
1
 90
1
176
1
 90
4
176
1
 62
7
176
1
 62
257
176
1
 90
1
176
1
 90
1
176
1
 40
1.0
176
1
 90
8
176
1
 62
7
176
1
 40
1.0
176
1
 90
1
176
1
 90
6
176
1
 90
2
176
1
 62
7
176
1
 90
5
176
1
 90
0
176
1
 90
0
176
1
290
0
176
1
 90
1
176
1
 40
0.0
176
1
 90
0
176
1
290
0
176
1
290
1
176
1
290
1
176
1
290
0
176
1
290
0
176
1
290
0
176
1
290
0
176
1
290
0
176
1
290
0
176
1
 90
50
176
1
 40
0.0
176
1
 40
1.0
176
1
 90
0
176
1
 62
18
420
0
176
1
 90
50
176
1
 90
3
176
1
 62
5
420
255
176
1
290
0
176
1
 90
50
176
1
 90
50
176
1
 90
50
176
1
290
0
176
1
 90
50
176
1
 62
256
176
0
 40
1.0
176
0
 90
2
176
1
  1
strokes_ogs.tif
176
1
290
0
176
1
 40
1.0
176
1
 40
1.0
176
1
  0
VISUALSTYLE
  5
6E
102
{ACAD_REACTORS
330
16
102
}
330
16
100
AcDbVisualStyle
  2
Shades of Gray
 70
23
177
3
291
0
 70
58
 90
2
176
1
 90
2
176
1
 90
0
176
1
 90
2
176
1
 40
0.6
176
1
 40
30.0
176
1
 62
7
420
16777215
176
1
 90
1
176
1
 90
4
176
1
 62
7
176
1
 62
257
176
1
 90
1
176
1
 90
1
176
1
 40
1.0
176
1
 90
8
176
1
 62
7
176
1
 40
1.0
176
1
 90
1
176
1
 90
6
176
1
 90
2
176
1
 62
7
176
1
 90
5
176
1
 90
0
176
1
 90
0
176
1
290
0
176
1
 90
1
176
1
 40
0.0
176
1
 90
0
176
1
290
0
176
1
290
1
176
1
290
1
176
1
290
0
176
1
290
0
176
1
290
0
176
1
290
0
176
1
290
0
176
1
290
0
176
1
 90
50
176
1
 40
0.0
176
1
 40
1.0
176
1
 90
0
176
1
 62
18
420
0
176
1
 90
50
176
1
 90
3
176
1
 62
5
420
255
176
1
290
0
176
1
 90
50
176
1
 90
50
176
1
 90
50
176
1
290
0
176
1
 90
50
176
1
 62
256
176
0
 40
1.0
176
0
 90
2
176
1
  1
strokes_ogs.tif
176
1
290
0
176
1
 40
1.0
176
1
 40
1.0
176
1
  0
VISUALSTYLE
  5
6F
102
{ACAD_REACTORS
330
16
102
}
330
16
100
AcDbVisualStyle
  2
Sketchy
 70
24
177
3
291
0
 70
58
 90
2
176
1
 90
2
176
1
 90
0
176
1
 90
1
176
1
 40
0.6
176
1
 40
30.0
176
1
 62
7
420
16777215
176
1
 90
1
176
1
 90
4
176
1
 62
7
176
1
 62
257
176
1
 90
1
176
1
 90
1
176
1
 40
1.0
176
1
 90
8
176
1
 62
7
176
1
 40
1.0
176
1
 90
1
176
1
 90
6
176
1
 90
2
176
1
 62
7
176
1
 90
5
176
1
 90
0
176
1
 90
0
176
1
290
0
176
1
 90
1
176
1
 40
0.0
176
1
 90
0
176
1
290
0
176
1
290
1
176
1
290
1
176
1
290
0
176
1
290
0
176
1
290
0
176
1
290
0
176
1
290
0
176
1
290
0
176
1
 90
50
176
1
 40
0.0
176
1
 40
1.0
176
1
 90
0
176
1
 62
18
420
0
176
1
 90
50
176
1
 90
3
176
1
 62
5
420
255
176
1
290
0
176
1
 90
50
176
1
 90
50
176
1
 90
50
176
1
290
0
176
1
 90
50
176
1
 62
256
176
0
 40
1.0
176
0
 90
2
176
1
  1
strokes_ogs.tif
176
1
290
0
176
1
 40
1.0
176
1
 40
1.0
176
1
  0
VISUALSTYLE
  5
70
102
{ACAD_REACTORS
330
16
102
}
330
16
100
AcDbVisualStyle
  2
Thicken
 70
13
177
3
291
1
 70
58
 90
2
176
1
 90
2
176
1
 90
0
176
1
 90
2
176
1
 40
0.6
176
1
 40
30.0
176
1
 62
7
420
16777215
176
1
 90
1
176
1
 90
4
176
1
 62
7
176
1
 62
257
176
1
 90
1
176
1
 90
1
176
1
 40
1.0
176
1
 90
8
176
1
 62
7
176
1
 40
1.0
176
1
 90
1
176
1
 90
6
176
1
 90
2
176
1
 62
7
176
1
 90
5
176
1
 90
0
176
1
 90
0
176
1
290
0
176
1
 90
1
176
1
 40
0.0
176
1
 90
0
176
1
290
0
176
1
290
1
176
1
290
1
176
1
290
0
176
1
290
0
176
1
290
0
176
1
290
0
176
1
290
0
176
1
290
0
176
1
 90
50
176
1
 40
0.0
176
1
 40
1.0
176
1
 90
0
176
1
 62
18
420
0
176
1
 90
50
176
1
 90
3
176
1
 62
5
420
255
176
1
290
0
176
1
 90
50
176
1
 90
50
176
1
 90
50
176
1
290
0
176
1
 90
50
176
1
 62
256
176
0
 40
1.0
176
0
 90
2
176
1
  1
strokes_ogs.tif
176
1
290
0
176
1
 40
1.0
176
1
 40
1.0
176
1
  0
VISUALSTYLE
  5
71
102
{ACAD_REACTORS
330
16
102
}
330
16
100
AcDbVisualStyle
  2
Wireframe
 70
5
177
3
291
0
 70
58
 90
2
176
1
 90
2
176
1
 90
0
176
1
 90
0
176
1
 40
0.6
176
1
 40
30.0
176
1
 62
7
420
16777215
176
1
 90
1
176
1
 90
4
176
1
 62
7
176
1
 62
257
176
1
 90
1
176
1
 90
1
176
1
 40
1.0
176
1
 90
8
176
1
 62
7
176
1
 40
1.0
176
1
 90
1
176
1
 90
6
176
1
 90
2
176
1
 62
7
176
1
 90
5
176
1
 90
0
176
1
 90
0
176
1
290
0
176
1
 90
1
176
1
 40
0.0
176
1
 90
0
176
1
290
0
176
1
290
1
176
1
290
1
176
1
290
0
176
1
290
0
176
1
290
0
176
1
290
0
176
1
290
0
176
1
290
0
176
1
 90
50
176
1
 40
0.0
176
1
 40
1.0
176
1
 90
0
176
1
 62
18
420
0
176
1
 90
50
176
1
 90
3
176
1
 62
5
420
255
176
1
290
0
176
1
 90
50
176
1
 90
50
176
1
 90
50
176
1
290
0
176
1
 90
50
176
1
 62
256
176
0
 40
1.0
176
0
 90
2
176
1
  1
strokes_ogs.tif
176
1
290
0
176
1
 40
1.0
176
1
 40
1.0
176
1
  0
VISUALSTYLE
  5
72
102
{ACAD_REACTORS
330
16
102
}
330
16
100
AcDbVisualStyle
  2
X-Ray
 70
25
177
3
291
0
 70
58
 90
2
176
1
 90
2
176
1
 90
0
176
1
 90
2
176
1
 40
0.5
176
1
 40
30.0
176
1
 62
7
420
16777215
176
1
 90
1
176
1
 90
4
176
1
 62
7
176
1
 62
257
176
1
 90
1
176
1
 90
1
176
1
 40
1.0
176
1
 90
8
176
1
 62
7
176
1
 40
1.0
176
1
 90
1
176
1
 90
6
176
1
 90
2
176
1
 62
7
176
1
 90
5
176
1
 90
0
176
1
 90
0
176
1
290
0
176
1
 90
1
176
1
 40
0.0
176
1
 90
0
176
1
290
0
176
1
290
1
176
1
290
1
176
1
290
0
176
1
290
0
176
1
290
0
176
1
290
0
176
1
290
0
176
1
290
0
176
1
 90
50
176
1
 40
0.0
176
1
 40
1.0
176
1
 90
0
176
1
 62
18
420
0
176
1
 90
50
176
1
 90
3
176
1
 62
5
420
255
176
1
290
0
176
1
 90
50
176
1
 90
50
176
1
 90
50
176
1
290
0
176
1
 90
50
176
1
 62
256
176
0
 40
1.0
176
0
 90
2
176
1
  1
strokes_ogs.tif
176
1
290
0
176
1
 40
1.0
176
1
 40
1.0
176
1
  0
DICTIONARYVAR
  5
1EC
330
2D
100
DictionaryVariables
280
0
  1
1.4.4 @ 2026-09-20T23:05:30.116081+00:00
  0
ENDSEC
  0
EOF
