  0
SECTION
  2
HEADER
  9
$ACADVER
  1
AC1027
  9
$ACADMAINTVER
 70
105
  9
$DWGCODEPAGE
  3
ANSI_1252
  9
$LASTSAVEDBY
  1
ezdxf
  9
$REQUIREDVERSIONS
160
0
  9
$INSBASE
 10
0.0
 20
0.0
 30
0.0
  9
$EXTMIN
 10
1e+20
 20
1e+20
 30
1e+20
  9
$EXTMAX
 10
-1e+20
 20
-1e+20
 30
-1e+20
  9
$LIMMIN
 10
0.0
 20
0.0
  9
$LIMMAX
 10
420.0
 20
297.0
  9
$ORTHOMODE
 70
0
  9
$REGENMODE
 70
1
  9
$FILLMODE
 70
1
  9
$QTEXTMODE
 70
0
  9
$MIRRTEXT
 70
1
  9
$LTSCALE
 40
1.0
  9
$ATTMODE
 70
1
  9
$TEXTSIZE
 40
2.5
  9
$TRACEWID
 40
1.0
  9
$TEXTSTYLE
  7
OpenSans
  9
$CLAYER
  8
0
  9
$CELTYPE
  6
ByLayer
  9
$CECOLOR
 62
256
  9
$CELTSCALE
 40
1.0
  9
$DISPSILH
 70
0
  9
$DIMSCALE
 40
1.0
  9
$DIMASZ
 40
0.175
  9
$DIMEXO
 40
0.125
  9
$DIMDLI
 40
3.75
  9
$DIMRND
 40
0.0
  9
$DIMDLE
 40
0.0
  9
$DIMEXE
 40
0.375
  9
$DIMTP
 40
0.0
  9
$DIMTM
 40
0.0
  9
$DIMTXT
 40
0.25
  9
$DIMCEN
 40
2.5
  9
$DIMTSZ
 40
0.0
  9
$DIMTOL
 70
0
  9
$DIMLIM
 70
0
  9
$DIMTIH
 70
0
  9
$DIMTOH
 70
0
  9
$DIMSE1
 70
0
  9
$DIMSE2
 70
0
  9
$DIMTAD
 70
1
  9
$DIMZIN
 70
12
  9
$DIMBLK
  1
ARCHTICK
  9
$DIMASO
 70
1
  9
$DIMSHO
 70
1
  9
$DIMPOST
  1

  9
$DIMAPOST
  1

  9
$DIMALT
 70
0
  9
$DIMALTD
 70
3
  9
$DIMALTF
 40
0.03937007874
  9
$DIMLFAC
 40
100.0
  9
$DIMTOFL
 70
1
  9
$DIMTVP
 40
0.0
  9
$DIMTIX
 70
0
  9
$DIMSOXD
 70
0
  9
$DIMSAH
 70
0
  9
$DIMBLK1
  1

  9
$DIMBLK2
  1

  9
$DIMSTYLE
  2
EZDXF
  9
$DIMCLRD
 70
0
  9
$DIMCLRE
 70
0
  9
$DIMCLRT
 70
0
  9
$DIMTFAC
 40
0.5
  9
$DIMGAP
 40
0.1
  9
$DIMJUST
 70
0
  9
$DIMSD1
 70
0
  9
$DIMSD2
 70
0
  9
$DIMTOLJ
 70
0
  9
$DIMTZIN
 70
8
  9
$DIMALTZ
 70
0
  9
$DIMALTTZ
 70
0
  9
$DIMUPT
 70
1
  9
$DIMDEC
 70
2
  9
$DIMTDEC
 70
2
  9
$DIMALTU
 70
2
  9
$DIMALTTD
 70
3
  9
$DIMTXSTY
  7
OpenSansCondensed-Light
  9
$DIMAUNIT
 70
0
  9
$DIMADEC
 70
2
  9
$DIMALTRND
 40
0.0
  9
$DIMAZIN
 70
3
  9
$DIMDSEP
 70
46
  9
$DIMATFIT
 70
3
  9
$DIMFRAC
 70
0
  9
$DIMLDRBLK
  1

  9
$DIMLUNIT
 70
2
  9
$DIMLWD
 70
-2
  9
$DIMLWE
 70
-2
  9
$DIMTMOVE
 70
2
  9
$DIMFXL
 40
1.0
  9
$DIMFXLON
 70
0
  9
$DIMJOGANG
 40
0.785398163397
  9
$DIMTFILL
 70
0
  9
$DIMTFILLCLR
 70
0
  9
$DIMARCSYM
 70
0
  9
$DIMLTYPE
  6

  9
$DIMLTEX1
  6

  9
$DIMLTEX2
  6

  9
$DIMTXTDIRECTION
 70
0
  9
$LUNITS
 70
2
  9
$LUPREC
 70
4
  9
$SKETCHINC
 40
1.0
  9
$FILLETRAD
 40
10.0
  9
$AUNITS
 70
0
  9
$AUPREC
 70
2
  9
$MENU
  1
.
  9
$ELEVATION
 40
0.0
  9
$PELEVATION
 40
0.0
  9
$THICKNESS
 40
0.0
  9
$LIMCHECK
 70
0
  9
$CHAMFERA
 40
0.0
  9
$CHAMFERB
 40
0.0
  9
$CHAMFERC
 40
0.0
  9
$CHAMFERD
 40
0.0
  9
$SKPOLY
 70
0
  9
$TDCREATE
 40
2461304.1296296297
  9
$TDUCREATE
 40
2458532.153996898
  9
$TDUPDATE
 40
2461304.1296296297
  9
$TDUUPDATE
 40
2458532.1544311
  9
$TDINDWG
 40
0.0
  9
$TDUSRTIMER
 40
0.0
  9
$USRTIMER
 70
1
  9
$ANGBASE
 50
0.0
  9
$ANGDIR
 70
0
  9
$PDMODE
 70
0
  9
$PDSIZE
 40
0.0
  9
$PLINEWID
 40
0.0
  9
$SPLFRAME
 70
0
  9
$SPLINETYPE
 70
6
  9
$SPLINESEGS
 70
8
  9
$HANDSEED
  5
105
  9
$SURFTAB1
 70
6
  9
$SURFTAB2
 70
6
  9
$SURFTYPE
 70
6
  9
$SURFU
 70
6
  9
$SURFV
 70
6
  9
$UCSBASE
  2

  9
$UCSNAME
  2

  9
$UCSORG
 10
0.0
 20
0.0
 30
0.0
  9
$UCSXDIR
 10
1.0
 20
0.0
 30
0.0
  9
$UCSYDIR
 10
0.0
 20
1.0
 30
0.0
  9
$UCSORTHOREF
  2

  9
$UCSORTHOVIEW
 70
0
  9
$UCSORGTOP
 10
0.0
 20
0.0
 30
0.0
  9
$UCSORGBOTTOM
 10
0.0
 20
0.0
 30
0.0
  9
$UCSORGLEFT
 10
0.0
 20
0.0
 30
0.0
  9
$UCSORGRIGHT
 10
0.0
 20
0.0
 30
0.0
  9
$UCSORGFRONT
 10
0.0
 20
0.0
 30
0.0
  9
$UCSORGBACK
 10
0.0
 20
0.0
 30
0.0
  9
$PUCSBASE
  2

  9
$PUCSNAME
  2

  9
$PUCSORG
 10
0.0
 20
0.0
 30
0.0
  9
$PUCSXDIR
 10
1.0
 20
0.0
 30
0.0
  9
$PUCSYDIR
 10
0.0
 20
1.0
 30
0.0
  9
$PUCSORTHOREF
  2

  9
$PUCSORTHOVIEW
 70
0
  9
$PUCSORGTOP
 10
0.0
 20
0.0
 30
0.0
  9
$PUCSORGBOTTOM
 10
0.0
 20
0.0
 30
0.0
  9
$PUCSORGLEFT
 10
0.0
 20
0.0
 30
0.0
  9
$PUCSORGRIGHT
 10
0.0
 20
0.0
 30
0.0
  9
$PUCSORGFRONT
 10
0.0
 20
0.0
 30
0.0
  9
$PUCSORGBACK
 10
0.0
 20
0.0
 30
0.0
  9
$USERI1
 70
0
  9
$USERI2
 70
0
  9
$USERI3
 70
0
  9
$USERI4
 70
0
  9
$USERI5
 70
0
  9
$USERR1
 40
0.0
  9
$USERR2
 40
0.0
  9
$USERR3
 40
0.0
  9
$USERR4
 40
0.0
  9
$USERR5
 40
0.0
  9
$WORLDVIEW
 70
1
  9
$SHADEDGE
 70
3
  9
$SHADEDIF
 70
70
  9
$TILEMODE
 70
1
  9
$MAXACTVP
 70
64
  9
$PINSBASE
 10
0.0
 20
0.0
 30
0.0
  9
$PLIMCHECK
 70
0
  9
$PEXTMIN
 10
1e+20
 20
1e+20
 30
1e+20
  9
$PEXTMAX
 10
-1e+20
 20
-1e+20
 30
-1e+20
  9
$PLIMMIN
 10
0.0
 20
0.0
  9
$PLIMMAX
 10
420.0
 20
297.0
  9
$UNITMODE
 70
0
  9
$VISRETAIN
 70
1
  9
$PLINEGEN
 70
0
  9
$PSLTSCALE
 70
1
  9
$TREEDEPTH
 70
3020
  9
$CMLSTYLE
  2
Standard
  9
$CMLJUST
 70
0
  9
$CMLSCALE
 40
20.0
  9
$PROXYGRAPHICS
 70
1
  9
$MEASUREMENT
 70
1
  9
$CELWEIGHT
370
-1
  9
$ENDCAPS
280
0
  9
$JOINSTYLE
280
0
  9
$LWDISPLAY
290
0
  9
$INSUNITS
 70
4
  9
$HYPERLINKBASE
  1

  9
$STYLESHEET
  1

  9
$XEDIT
290
1
  9
$CEPSNTYPE
380
0
  9
$PSTYLEMODE
290
1
  9
$FINGERPRINTGUID
  2
{936857E8-BD7D-4F43-8157-0815B5525AA8}
  9
$VERSIONGUID
  2
{45B0C7AC-B6FE-4232-823D-60DEBFB0BCA7}
  9
$EXTNAMES
290
1
  9
$PSVPSCALE
 40
0.0
  9
$OLESTARTUP
290
0
  9
$SORTENTS
280
127
  9
$INDEXCTL
280
0
  9
$HIDETEXT
280
1
  9
$XCLIPFRAME
280
1
  9
$HALOGAP
280
0
  9
$OBSCOLOR
 70
257
  9
$OBSLTYPE
280
0
  9
$INTERSECTIONDISPLAY
280
0
  9
$INTERSECTIONCOLOR
 70
257
  9
$DIMASSOC
280
2
  9
$PROJECTNAME
  1

  9
$CAMERADISPLAY
290
0
  9
$LENSLENGTH
 40
50.0
  9
$CAMERAHEIGHT
 40
0.0
  9
$STEPSPERSEC
 40
24.0
  9
$STEPSIZE
 40
100.0
  9
$3DDWFPREC
 40
2.0
  9
$PSOLWIDTH
 40
0.005
  9
$PSOLHEIGHT
 40
0.08
  9
$LOFTANG1
 40
1.570796326795
  9
$LOFTANG2
 40
1.570796326795
  9
$LOFTMAG1
 40
0.0
  9
$LOFTMAG2
 40
0.0
  9
$LOFTPARAM
 70
7
  9
$LOFTNORMALS
280
1
  9
$LATITUDE
 40
37.795
  9
$LONGITUDE
 40
-122.394
  9
$NORTHDIRECTION
 40
0.0
  9
$TIMEZONE
 70
-8000
  9
$LIGHTGLYPHDISPLAY
280
1
  9
$TILEMODELIGHTSYNCH
280
1
  9
$CMATERIAL
347
20
  9
$SOLIDHIST
280
0
  9
$SHOWHIST
280
1
  9
$DWFFRAME
280
2
  9
$DGNFRAME
280
2
  9
$REALWORLDSCALE
290
1
  9
$INTERFERECOLOR
 62
256
  9
$CSHADOW
280
0
  9
$SHADOWPLANELOCATION
 40
0.0
  0
ENDSEC
  0
SECTION
  2
CLASSES
  0
CLASS
  1
ACDBDICTIONARYWDFLT
  2
AcDbDictionaryWithDefault
  3
ObjectDBX Classes
 90
0
 91
0
280
0
281
0
  0
CLASS
  1
SUN
  2
AcDbSun
  3
SCENEOE
 90
1153
 91
0
280
0
281
0
  0
CLASS
  1
VISUALSTYLE
  2
AcDbVisualStyle
  3
ObjectDBX Classes
 90
4095
 91
0
280
0
281
0
  0
CLASS
  1
MATERIAL
  2
AcDbMaterial
  3
ObjectDBX Classes
 90
1153
 91
0
280
0
281
0
  0
CLASS
  1
SCALE
  2
AcDbScale
  3
ObjectDBX Classes
 90
1153
 91
0
280
0
281
0
  0
CLASS
  1
TABLESTYLE
  2
AcDbTableStyle
  3
ObjectDBX Classes
 90
4095
 91
0
280
0
281
0
  0
CLASS
  1
MLEADERSTYLE
  2
AcDbMLeaderStyle
  3
ACDB_MLEADERSTYLE_CLASS
 90
4095
 91
0
280
0
281
0
  0
CLASS
  1
DICTIONARYVAR
  2
AcDbDictionaryVar
  3
ObjectDBX Classes
 90
0
 91
0
280
0
281
0
  0
CLASS
  1
CELLSTYLEMAP
  2
AcDbCellStyleMap
  3
ObjectDBX Classes
 90
1152
 91
0
280
0
281
0
  0
CLASS
  1
MENTALRAYRENDERSETTINGS
  2
AcDbMentalRayRenderSettings
  3
SCENEOE
 90
1024
 91
0
280
0
281
0
  0
CLASS
  1
ACDBDETAILVIEWSTYLE
  2
AcDbDetailViewStyle
  3
ObjectDBX Classes
 90
1025
 91
0
280
0
281
0
  0
CLASS
  1
ACDBSECTIONVIEWSTYLE
  2
AcDbSectionViewStyle
  3
ObjectDBX Classes
 90
1025
 91
0
280
0
281
0
  0
CLASS
  1
RASTERVARIABLES
  2
AcDbRasterVariables
  3
ISM
 90
0
 91
0
280
0
281
0
  0
CLASS
  1
ACDBPLACEHOLDER
  2
AcDbPlaceHolder
  3
ObjectDBX Classes
 90
0
 91
0
280
0
281
0
  0
CLASS
  1
LAYOUT
  2
AcDbLayout
  3
ObjectDBX Classes
 90
0
 91
0
280
0
281
0
  0
ENDSEC
  0
SECTION
  2
TABLES
  0
TABLE
  2
VPORT
  5
8
330
0
100
AcDbSymbolTable
 70
1
  0
VPORT
  5
23
330
8
100
AcDbSymbolTableRecord
100
AcDbViewportTableRecord
  2
*Active
 70
0
 10
0.0
 20
0.0
 11
1.0
 21
1.0
 12
0.0
 22
0.0
 13
0.0
 23
0.0
 14
0.5
 24
0.5
 15
0.5
 25
0.5
 16
0.0
 26
0.0
 36
1.0
 17
0.0
 27
0.0
 37
0.0
 40
1000.0
 41
1.34
 42
50.0
 43
0.0
 44
0.0
 50
0.0
 51
0.0
 71
0
 72
1000
 73
1
 74
3
 75
0
 76
0
 77
0
 78
0
281
0
 65
0
146
0.0
  0
ENDTAB
  0
TABLE
  2
LTYPE
  5
2
330
0
100
AcDbSymbolTable
 70
21
  0
LTYPE
  5
24
330
2
100
AcDbSymbolTableRecord
100
AcDbLinetypeTableRecord
  2
ByBlock
 70
0
  3

 72
65
 73
0
 40
0.0
  0
LTYPE
  5
25
330
2
100
AcDbSymbolTableRecord
100
AcDbLinetypeTableRecord
  2
ByLayer
 70
0
  3

 72
65
 73
0
 40
0.0
  0
LTYPE
  5
26
330
2
100
AcDbSymbolTableRecord
100
AcDbLinetypeTableRecord
  2
Continuous
 70
0
  3

 72
65
 73
0
 40
0.0
  0
LTYPE
  5
2F
330
2
100
AcDbSymbolTableRecord
100
AcDbLinetypeTableRecord
  2
CENTER
 70
0
  3
Center ____ _ ____ _ ____ _ ____ _ ____ _ ____
 72
65
 73
4
 40
5.08
 49
3.175
 74
0
 49
-0.635
 74
0
 49
0.635
 74
0
 49
-0.635
 74
0
  0
LTYPE
  5
30
330
2
100
AcDbSymbolTableRecord
100
AcDbLinetypeTableRecord
  2
CENTERX2
 70
0
  3
Center (2x) ________  __  ________  __  ________
 72
65
 73
4
 40
8.89
 49
6.35
 74
0
 49
-0.635
 74
0
 49
1.27
 74
0
 49
-0.635
 74
0
  0
LTYPE
  5
31
330
2
100
AcDbSymbolTableRecord
100
AcDbLinetypeTableRecord
  2
CENTER2
 70
0
  3
Center (.5x) ____ _ ____ _ ____ _ ____ _ ____
 72
65
 73
4
 40
2.54
 49
1.587
 74
0
 49
-0.318
 74
0
 49
0.318
 74
0
 49
-0.318
 74
0
  0
LTYPE
  5
32
330
2
100
AcDbSymbolTableRecord
100
AcDbLinetypeTableRecord
  2
DASHED
 70
0
  3
Dashed __ __ __ __ __ __ __ __ __ __ __ __ __ _
 72
65
 73
2
 40
1.524
 49
1.27
 74
0
 49
-0.254
 74
0
  0
LTYPE
  5
33
330
2
100
AcDbSymbolTableRecord
100
AcDbLinetypeTableRecord
  2
DASHEDX2
 70
0
  3
Dashed (2x) ____  ____  ____  ____  ____  ____
 72
65
 73
2
 40
3.048
 49
2.54
 74
0
 49
-0.508
 74
0
  0
LTYPE
  5
34
330
2
100
AcDbSymbolTableRecord
100
AcDbLinetypeTableRecord
  2
DASHED2
 70
0
  3
Dashed (.5x) _ _ _ _ _ _ _ _ _ _ _ _ _ _
 72
65
 73
2
 40
0.762
 49
0.635
 74
0
 49
-0.127
 74
0
  0
LTYPE
  5
35
330
2
100
AcDbSymbolTableRecord
100
AcDbLinetypeTableRecord
  2
PHANTOM
 70
0
  3
Phantom ______  __  __  ______  __  __  ______
 72
65
 73
6
 40
6.35
 49
3.175
 74
0
 49
-0.635
 74
0
 49
0.635
 74
0
 49
-0.635
 74
0
 49
0.635
 74
0
 49
-0.635
 74
0
  0
LTYPE
  5
36
330
2
100
AcDbSymbolTableRecord
100
AcDbLinetypeTableRecord
  2
PHANTOMX2
 70
0
  3
Phantom (2x)____________    ____    ____    ____________
 72
65
 73
6
 40
10.795
 49
6.35
 74
0
 49
-0.635
 74
0
 49
1.27
 74
0
 49
-0.635
 74
0
 49
1.27
 74
0
 49
-0.635
 74
0
  0
LTYPE
  5
37
330
2
100
AcDbSymbolTableRecord
100
AcDbLinetypeTableRecord
  2
PHANTOM2
 70
0
  3
Phantom (.5x) ___ _ _ ___ _ _ ___ _ _ ___ _ _ ___
 72
65
 73
6
 40
3.175
 49
1.587
 74
0
 49
-0.318
 74
0
 49
0.318
 74
0
 49
-0.318
 74
0
 49
0.318
 74
0
 49
-0.318
 74
0
  0
LTYPE
  5
38
330
2
100
AcDbSymbolTableRecord
100
AcDbLinetypeTableRecord
  2
DASHDOT
 70
0
  3
Dash dot __ . __ . __ . __ . __ . __ . __ . __
 72
65
 73
4
 40
3.556
 49
2.54
 74
0
 49
-0.508
 74
0
 49
0.0
 74
0
 49
-0.508
 74
0
  0
LTYPE
  5
39
330
2
100
AcDbSymbolTableRecord
100
AcDbLinetypeTableRecord
  2
DASHDOTX2
 70
0
  3
Dash dot (2x) ____  .  ____  .  ____  .  ____
 72
65
 73
4
 40
6.096
 49
5.08
 74
0
 49
-0.508
 74
0
 49
0.0
 74
0
 49
-0.508
 74
0
  0
LTYPE
  5
3A
330
2
100
AcDbSymbolTableRecord
100
AcDbLinetypeTableRecord
  2
DASHDOT2
 70
0
  3
Dash dot (.5x) _ . _ . _ . _ . _ . _ . _ . _
 72
65
 73
4
 40
1.778
 49
1.27
 74
0
 49
-0.254
 74
0
 49
0.0
 74
0
 49
-0.254
 74
0
  0
LTYPE
  5
3B
330
2
100
AcDbSymbolTableRecord
100
AcDbLinetypeTableRecord
  2
DOT
 70
0
  3
Dot .  .  .  .  .  .  .  .  .  .  .  .  .  .  .  .
 72
65
 73
2
 40
0.508
 49
0.0
 74
0
 49
-0.508
 74
0
  0
LTYPE
  5
3C
330
2
100
AcDbSymbolTableRecord
100
AcDbLinetypeTableRecord
  2
DOTX2
 70
0
  3
Dot (2x) .    .    .    .    .    .    .    . 
 72
65
 73
2
 40
1.016
 49
0.0
 74
0
 49
-1.016
 74
0
  0
LTYPE
  5
3D
330
2
100
AcDbSymbolTableRecord
100
AcDbLinetypeTableRecord
  2
DOT2
 70
0
  3
Dot (.5) . . . . . . . . . . . . . . . . . . . 
 72
65
 73
2
 40
0.254
 49
0.0
 74
0
 49
-0.254
 74
0
  0
LTYPE
  5
3E
330
2
100
AcDbSymbolTableRecord
100
AcDbLinetypeTableRecord
  2
DIVIDE
 70
0
  3
Divide __ . . __ . . __ . . __ . . __ . . __
 72
65
 73
6
 40
4.064
 49
2.54
 74
0
 49
-0.508
 74
0
 49
0.0
 74
0
 49
-0.508
 74
0
 49
0.0
 74
0
 49
-0.508
 74
0
  0
LTYPE
  5
3F
330
2
100
AcDbSymbolTableRecord
100
AcDbLinetypeTableRecord
  2
DIVIDEX2
 70
0
  3
Divide (2x) ____  . .  ____  . .  ____  . .  ____
 72
65
 73
6
 40
6.604
 49
5.08
 74
0
 49
-0.508
 74
0
 49
0.0
 74
0
 49
-0.508
 74
0
 49
0.0
 74
0
 49
-0.508
 74
0
  0
LTYPE
  5
40
330
2
100
AcDbSymbolTableRecord
100
AcDbLinetypeTableRecord
  2
DIVIDE2
 70
0
  3
Divide(.5x) _ . _ . _ . _ . _ . _ . _ . _
 72
65
 73
6
 40
2.032
 49
1.27
 74
0
 49
-0.254
 74
0
 49
0.0
 74
0
 49
-0.254
 74
0
 49
0.0
 74
0
 49
-0.254
 74
0
  0
ENDTAB
  0
TABLE
  2
LAYER
  5
1
330
0
100
AcDbSymbolTable
 70
15
  0
LAYER
  5
27
330
1
100
AcDbSymbolTableRecord
100
AcDbLayerTableRecord
  2
0
 70
0
 62
7
  6
Continuous
370
-3
390
13
347
21
  0
LAYER
  5
28
330
1
100
AcDbSymbolTableRecord
100
AcDbLayerTableRecord
  2
Defpoints
 70
0
 62
7
  6
Continuous
290
0
370
-3
390
13
347
21
  0
LAYER
  5
8A
330
1
100
AcDbSymbolTableRecord
100
AcDbLayerTableRecord
  2
00_РАМКА
 70
0
 62
7
  6
CONTINUOUS
370
-3
390
13
347
21
  0
LAYER
  5
8B
330
1
100
AcDbSymbolTableRecord
100
AcDbLayerTableRecord
  2
01_ОБШИВКА
 70
0
 62
7
  6
CONTINUOUS
370
-3
390
13
347
21
  0
LAYER
  5
8C
330
1
100
AcDbSymbolTableRecord
100
AcDbLayerTableRecord
  2
02_ПАЛУБЫ
 70
0
 62
4
  6
CONTINUOUS
370
-3
390
13
347
21
  0
LAYER
  5
8D
330
1
100
AcDbSymbolTableRecord
100
AcDbLayerTableRecord
  2
03_ПЕРЕБОРКИ
 70
0
 62
1
  6
CONTINUOUS
370
-3
390
13
347
21
  0
LAYER
  5
8E
330
1
100
AcDbSymbolTableRecord
100
AcDbLayerTableRecord
  2
04_ЦИСТЕРНЫ
 70
0
 62
3
  6
CONTINUOUS
370
-3
390
13
347
21
  0
LAYER
  5
8F
330
1
100
AcDbSymbolTableRecord
100
AcDbLayerTableRecord
  2
05_ОБОРУДОВАНИЕ
 70
0
 62
5
  6
CONTINUOUS
370
-3
390
13
347
21
  0
LAYER
  5
90
330
1
100
AcDbSymbolTableRecord
100
AcDbLayerTableRecord
  2
06_ПОМЕЩЕНИЯ
 70
0
 62
8
  6
CONTINUOUS
370
-3
390
13
347
21
  0
LAYER
  5
91
330
1
100
AcDbSymbolTableRecord
100
AcDbLayerTableRecord
  2
07_ОСИ
 70
0
 62
2
  6
CENTER
370
-3
390
13
347
21
  0
LAYER
  5
92
330
1
100
AcDbSymbolTableRecord
100
AcDbLayerTableRecord
  2
08_ТЕКСТ
 70
0
 62
7
  6
CONTINUOUS
370
-3
390
13
347
21
  0
LAYER
  5
93
330
1
100
AcDbSymbolTableRecord
100
AcDbLayerTableRecord
  2
09_РАЗМЕРЫ
 70
0
 62
6
  6
CONTINUOUS
370
-3
390
13
347
21
  0
LAYER
  5
94
330
1
100
AcDbSymbolTableRecord
100
AcDbLayerTableRecord
  2
10_НАБОР
 70
0
 62
9
  6
CONTINUOUS
370
-3
390
13
347
21
  0
LAYER
  5
95
330
1
100
AcDbSymbolTableRecord
100
AcDbLayerTableRecord
  2
11_КАЮТЫ
 70
0
 62
30
  6
CONTINUOUS
370
-3
390
13
347
21
  0
LAYER
  5
96
330
1
100
AcDbSymbolTableRecord
100
AcDbLayerTableRecord
  2
12_ТРАПЫ_ЛИФТЫ
 70
0
 62
6
  6
CONTINUOUS
370
-3
390
13
347
21
  0
ENDTAB
  0
TABLE
  2
STYLE
  5
5
330
0
100
AcDbSymbolTable
 70
27
  0
STYLE
  5
29
330
5
100
AcDbSymbolTableRecord
100
AcDbTextStyleTableRecord
  2
Standard
 70
0
 40
0.0
 41
1.0
 50
0.0
 71
0
 42
2.5
  3
txt
  4

  0
STYLE
  5
41
330
5
100
AcDbSymbolTableRecord
100
AcDbTextStyleTableRecord
  2
OpenSans-Light
 70
0
 40
0.0
 41
1.0
 50
0.0
 71
0
 42
2.5
  3
OpenSans-Light.ttf
  4

  0
STYLE
  5
42
330
5
100
AcDbSymbolTableRecord
100
AcDbTextStyleTableRecord
  2
OpenSans-Light-Italic
 70
0
 40
0.0
 41
1.0
 50
0.0
 71
0
 42
2.5
  3
OpenSans-LightItalic.ttf
  4

  0
STYLE
  5
43
330
5
100
AcDbSymbolTableRecord
100
AcDbTextStyleTableRecord
  2
OpenSans
 70
0
 40
0.0
 41
1.0
 50
0.0
 71
0
 42
2.5
  3
OpenSans-Regular.ttf
  4

  0
STYLE
  5
44
330
5
100
AcDbSymbolTableRecord
100
AcDbTextStyleTableRecord
  2
OpenSans-Italic
 70
0
 40
0.0
 41
1.0
 50
0.0
 71
0
 42
2.5
  3
OpenSans-Italic.ttf
  4

  0
STYLE
  5
45
330
5
100
AcDbSymbolTableRecord
100
AcDbTextStyleTableRecord
  2
OpenSans-SemiBold
 70
0
 40
0.0
 41
1.0
 50
0.0
 71
0
 42
2.5
  3
OpenSans-SemiBold.ttf
  4

  0
STYLE
  5
46
330
5
100
AcDbSymbolTableRecord
100
AcDbTextStyleTableRecord
  2
OpenSans-SemiBoldItalic
 70
0
 40
0.0
 41
1.0
 50
0.0
 71
0
 42
2.5
  3
OpenSans-SemiBoldItalic.ttf
  4

  0
STYLE
  5
47
330
5
100
AcDbSymbolTableRecord
100
AcDbTextStyleTableRecord
  2
OpenSans-Bold
 70
0
 40
0.0
 41
1.0
 50
0.0
 71
0
 42
2.5
  3
OpenSans-Bold.ttf
  4

  0
STYLE
  5
48
330
5
100
AcDbSymbolTableRecord
100
AcDbTextStyleTableRecord
  2
OpenSans-BoldItalic
 70
0
 40
0.0
 41
1.0
 50
0.0
 71
0
 42
2.5
  3
OpenSans-BoldItalic.ttf
  4

  0
STYLE
  5
49
330
5
100
AcDbSymbolTableRecord
100
AcDbTextStyleTableRecord
  2
OpenSans-ExtraBold
 70
0
 40
0.0
 41
1.0
 50
0.0
 71
0
 42
2.5
  3
OpenSans-ExtraBold.ttf
  4

  0
STYLE
  5
4A
330
5
100
AcDbSymbolTableRecord
100
AcDbTextStyleTableRecord
  2
OpenSans-ExtraBoldItalic
 70
0
 40
0.0
 41
1.0
 50
0.0
 71
0
 42
2.5
  3
OpenSans-ExtraBoldItalic.ttf
  4

  0
STYLE
  5
4B
330
5
100
AcDbSymbolTableRecord
100
AcDbTextStyleTableRecord
  2
OpenSansCondensed-Bold
 70
0
 40
0.0
 41
1.0
 50
0.0
 71
0
 42
2.5
  3
OpenSansCondensed-Bold.ttf
  4

  0
STYLE
  5
4C
330
5
100
AcDbSymbolTableRecord
100
AcDbTextStyleTableRecord
  2
OpenSansCondensed-Light
 70
0
 40
0.0
 41
1.0
 50
0.0
 71
0
 42
2.5
  3
OpenSansCondensed-Light.ttf
  4

  0
STYLE
  5
4D
330
5
100
AcDbSymbolTableRecord
100
AcDbTextStyleTableRecord
  2
OpenSansCondensed-Italic
 70
0
 40
0.0
 41
1.0
 50
0.0
 71
0
 42
2.5
  3
OpenSansCondensed-LightItalic.ttf
  4

  0
STYLE
  5
4E
330
5
100
AcDbSymbolTableRecord
100
AcDbTextStyleTableRecord
  2
LiberationSans
 70
0
 40
0.0
 41
1.0
 50
0.0
 71
0
 42
2.5
  3
LiberationSans-Regular.ttf
  4

  0
STYLE
  5
4F
330
5
100
AcDbSymbolTableRecord
100
AcDbTextStyleTableRecord
  2
LiberationSans-Bold
 70
0
 40
0.0
 41
1.0
 50
0.0
 71
0
 42
2.5
  3
LiberationSans-Bold.ttf
  4

  0
STYLE
  5
50
330
5
100
AcDbSymbolTableRecord
100
AcDbTextStyleTableRecord
  2
LiberationSans-BoldItalic
 70
0
 40
0.0
 41
1.0
 50
0.0
 71
0
 42
2.5
  3
LiberationSans-BoldItalic.ttf
  4

  0
STYLE
  5
51
330
5
100
AcDbSymbolTableRecord
100
AcDbTextStyleTableRecord
  2
LiberationSans-Italic
 70
0
 40
0.0
 41
1.0
 50
0.0
 71
0
 42
2.5
  3
LiberationSans-Italic.ttf
  4

  0
STYLE
  5
52
330
5
100
AcDbSymbolTableRecord
100
AcDbTextStyleTableRecord
  2
LiberationSerif
 70
0
 40
0.0
 41
1.0
 50
0.0
 71
0
 42
2.5
  3
LiberationSerif-Regular.ttf
  4

  0
STYLE
  5
53
330
5
100
AcDbSymbolTableRecord
100
AcDbTextStyleTableRecord
  2
LiberationSerif-Bold
 70
0
 40
0.0
 41
1.0
 50
0.0
 71
0
 42
2.5
  3
LiberationSerif-Bold.ttf
  4

  0
STYLE
  5
54
330
5
100
AcDbSymbolTableRecord
100
AcDbTextStyleTableRecord
  2
LiberationSerif-BoldItalic
 70
0
 40
0.0
 41
1.0
 50
0.0
 71
0
 42
2.5
  3
LiberationSerif-BoldItalic.ttf
  4

  0
STYLE
  5
55
330
5
100
AcDbSymbolTableRecord
100
AcDbTextStyleTableRecord
  2
LiberationSerif-Italic
 70
0
 40
0.0
 41
1.0
 50
0.0
 71
0
 42
2.5
  3
LiberationSerif-Italic.ttf
  4

  0
STYLE
  5
56
330
5
100
AcDbSymbolTableRecord
100
AcDbTextStyleTableRecord
  2
LiberationMono
 70
0
 40
0.0
 41
1.0
 50
0.0
 71
0
 42
2.5
  3
LiberationMono-Regular.ttf
  4

  0
STYLE
  5
57
330
5
100
AcDbSymbolTableRecord
100
AcDbTextStyleTableRecord
  2
LiberationMono-Bold
 70
0
 40
0.0
 41
1.0
 50
0.0
 71
0
 42
2.5
  3
LiberationMono-Bold.ttf
  4

  0
STYLE
  5
58
330
5
100
AcDbSymbolTableRecord
100
AcDbTextStyleTableRecord
  2
LiberationMono-BoldItalic
 70
0
 40
0.0
 41
1.0
 50
0.0
 71
0
 42
2.5
  3
LiberationMono-BoldItalic.ttf
  4

  0
STYLE
  5
59
330
5
100
AcDbSymbolTableRecord
100
AcDbTextStyleTableRecord
  2
LiberationMono-Italic
 70
0
 40
0.0
 41
1.0
 50
0.0
 71
0
 42
2.5
  3
LiberationMono-Italic.ttf
  4

  0
STYLE
  5
97
330
5
100
AcDbSymbolTableRecord
100
AcDbTextStyleTableRecord
  2
ГОСТ
 70
0
 40
0.0
 41
1.0
 50
0.0
 71
0
 42
2.5
  3
ISOCPEUR.TTF
  4

  0
ENDTAB
  0
TABLE
  2
VIEW
  5
7
330
0
100
AcDbSymbolTable
 70
0
  0
ENDTAB
  0
TABLE
  2
UCS
  5
6
330
0
100
AcDbSymbolTable
 70
0
  0
ENDTAB
  0
TABLE
  2
APPID
  5
3
330
0
100
AcDbSymbolTable
 70
3
  0
APPID
  5
2A
330
3
100
AcDbSymbolTableRecord
100
AcDbRegAppTableRecord
  2
ACAD
 70
0
  0
APPID
  5
102
330
3
100
AcDbSymbolTableRecord
100
AcDbRegAppTableRecord
  2
HATCHBACKGROUNDCOLOR
 70
0
  0
APPID
  5
103
330
3
100
AcDbSymbolTableRecord
100
AcDbRegAppTableRecord
  2
EZDXF
 70
0
  0
ENDTAB
  0
TABLE
  2
DIMSTYLE
  5
4
330
0
100
AcDbSymbolTable
 70
12
100
AcDbDimStyleTable
  0
DIMSTYLE
105
2B
330
4
100
AcDbSymbolTableRecord
100
AcDbDimStyleTableRecord
  2
Standard
 70
0
 40
1.0
 41
2.5
 42
0.625
 43
3.75
 44
1.25
 45
0.0
 46
0.0
 47
0.0
 48
0.0
 49
2.5
140
2.5
141
2.5
142
0.0
143
0.03937007874
144
1.0
145
0.0
146
1.0
147
0.625
148
0.0
 69
0
 70
0
 71
0
 72
0
 73
0
 74
0
 75
0
 76
0
 77
1
 78
8
 79
3
170
0
171
3
172
1
173
0
174
0
175
0
176
0
177
0
178
0
179
2
271
2
272
2
273
2
274
3
275
0
276
0
277
2
278
44
279
0
280
0
281
0
282
0
283
0
284
8
285
0
286
0
288
0
289
3
290
0
371
-2
372
-2
  0
DIMSTYLE
105
73
330
4
100
AcDbSymbolTableRecord
100
AcDbDimStyleTableRecord
  2
EZDXF
 70
0
 40
1.0
 41
0.175
 42
0.125
 43
3.75
 44
0.375
 45
0.0
 46
0.0
 47
0.0
 48
0.0
 49
2.5
140
0.25
141
2.5
142
0.0
143
0.03937007874
144
100.0
145
0.0
146
0.5
147
0.1
148
0.0
 69
0
 70
0
 71
0
 72
0
 73
0
 74
0
 75
0
 76
0
 77
1
 78
12
 79
3
170
0
171
3
172
1
173
0
174
0
175
0
176
0
177
0
178
0
179
2
271
2
272
2
273
2
274
3
275
0
276
0
277
2
278
46
279
2
280
0
281
0
282
0
283
0
284
8
285
0
286
0
288
1
289
3
290
0
340
4C
342
74
371
-2
372
-2
  0
DIMSTYLE
105
7C
330
4
100
AcDbSymbolTableRecord
100
AcDbDimStyleTableRecord
  2
EZ_M_100_H25_CM
 70
0
 40
1.0
 41
0.25
 42
0.125
 43
3.75
 44
0.375
 45
0.0
 46
0.0
 47
0.0
 48
0.0
 49
2.5
140
0.25
141
2.5
142
0.125
143
0.03937007874
144
100.0
145
0.0
146
0.5
147
0.1
148
0.0
 69
0
 70
0
 71
0
 72
0
 73
0
 74
0
 75
0
 76
0
 77
1
 78
12
 79
3
170
0
171
3
172
1
173
0
174
0
175
0
176
0
177
0
178
0
179
2
271
2
272
2
273
2
274
3
275
0
276
0
277
2
278
46
279
2
280
0
281
0
282
0
283
0
284
8
285
0
286
0
288
1
289
3
290
0
340
4C
371
-2
372
-2
  0
DIMSTYLE
105
7D
330
4
100
AcDbSymbolTableRecord
100
AcDbDimStyleTableRecord
  2
EZ_M_50_H25_CM
 70
0
 40
1.0
 41
0.125
 42
0.0625
 43
3.75
 44
0.1875
 45
0.0
 46
0.0
 47
0.0
 48
0.0
 49
2.5
140
0.125
141
2.5
142
0.0625
143
0.03937007874
144
100.0
145
0.0
146
0.5
147
0.05
148
0.0
 69
0
 70
0
 71
0
 72
0
 73
0
 74
0
 75
0
 76
0
 77
1
 78
12
 79
3
170
0
171
3
172
1
173
0
174
0
175
0
176
0
177
0
178
0
179
2
271
2
272
2
273
2
274
3
275
0
276
0
277
2
278
46
279
2
280
0
281
0
282
0
283
0
284
8
285
0
286
0
288
1
289
3
290
0
340
4C
371
-2
372
-2
  0
DIMSTYLE
105
7E
330
4
100
AcDbSymbolTableRecord
100
AcDbDimStyleTableRecord
  2
EZ_M_25_H25_CM
 70
0
 40
1.0
 41
0.0625
 42
0.03125
 43
3.75
 44
0.09375
 45
0.0
 46
0.0
 47
0.0
 48
0.0
 49
2.5
140
0.0625
141
2.5
142
0.03125
143
0.03937007874
144
100.0
145
0.0
146
0.5
147
0.025
148
0.0
 69
0
 70
0
 71
0
 72
0
 73
0
 74
0
 75
0
 76
0
 77
1
 78
12
 79
3
170
0
171
3
172
1
173
0
174
0
175
0
176
0
177
0
178
0
179
2
271
2
272
2
273
2
274
3
275
0
276
0
277
2
278
46
279
2
280
0
281
0
282
0
283
0
284
8
285
0
286
0
288
1
289
3
290
0
340
4C
371
-2
372
-2
  0
DIMSTYLE
105
7F
330
4
100
AcDbSymbolTableRecord
100
AcDbDimStyleTableRecord
  2
EZ_M_20_H25_CM
 70
0
 40
1.0
 41
0.05
 42
0.025
 43
3.75
 44
0.07500000000000001
 45
0.0
 46
0.0
 47
0.0
 48
0.0
 49
2.5
140
0.05
141
2.5
142
0.025
143
0.03937007874
144
100.0
145
0.0
146
0.5
147
0.020000000000000004
148
0.0
 69
0
 70
0
 71
0
 72
0
 73
0
 74
0
 75
0
 76
0
 77
1
 78
12
 79
3
170
0
171
3
172
1
173
0
174
0
175
0
176
0
177
0
178
0
179
2
271
2
272
2
273
2
274
3
275
0
276
0
277
2
278
46
279
2
280
0
281
0
282
0
283
0
284
8
285
0
286
0
288
1
289
3
290
0
340
4C
371
-2
372
-2
  0
DIMSTYLE
105
80
330
4
100
AcDbSymbolTableRecord
100
AcDbDimStyleTableRecord
  2
EZ_M_10_H25_CM
 70
0
 40
1.0
 41
0.025
 42
0.0125
 43
3.75
 44
0.037500000000000006
 45
0.0
 46
0.0
 47
0.0
 48
0.0
 49
2.5
140
0.025
141
2.5
142
0.0125
143
0.03937007874
144
100.0
145
0.0
146
0.5
147
0.010000000000000002
148
0.0
 69
0
 70
0
 71
0
 72
0
 73
0
 74
0
 75
0
 76
0
 77
1
 78
12
 79
3
170
0
171
3
172
1
173
0
174
0
175
0
176
0
177
0
178
0
179
2
271
2
272
2
273
2
274
3
275
0
276
0
277
2
278
46
279
2
280
0
281
0
282
0
283
0
284
8
285
0
286
0
288
1
289
3
290
0
340
4C
371
-2
372
-2
  0
DIMSTYLE
105
81
330
4
100
AcDbSymbolTableRecord
100
AcDbDimStyleTableRecord
  2
EZ_M_5_H25_CM
 70
0
 40
1.0
 41
0.0125
 42
0.00625
 43
3.75
 44
0.018750000000000003
 45
0.0
 46
0.0
 47
0.0
 48
0.0
 49
2.5
140
0.0125
141
2.5
142
0.00625
143
0.03937007874
144
100.0
145
0.0
146
0.5
147
0.005000000000000001
148
0.0
 69
0
 70
0
 71
0
 72
0
 73
0
 74
0
 75
0
 76
0
 77
1
 78
12
 79
3
170
0
171
3
172
1
173
0
174
0
175
0
176
0
177
0
178
0
179
2
271
2
272
2
273
2
274
3
275
0
276
0
277
2
278
46
279
2
280
0
281
0
282
0
283
0
284
8
285
0
286
0
288
1
289
3
290
0
340
4C
371
-2
372
-2
  0
DIMSTYLE
105
82
330
4
100
AcDbSymbolTableRecord
100
AcDbDimStyleTableRecord
  2
EZ_M_1_H25_CM
 70
0
 40
1.0
 41
0.0025
 42
0.00125
 43
3.75
 44
0.00375
 45
0.0
 46
0.0
 47
0.0
 48
0.0
 49
2.5
140
0.0025
141
2.5
142
0.00125
143
0.03937007874
144
100.0
145
0.0
146
0.5
147
0.001
148
0.0
 69
0
 70
0
 71
0
 72
0
 73
0
 74
0
 75
0
 76
0
 77
1
 78
12
 79
3
170
0
171
3
172
1
173
0
174
0
175
0
176
0
177
0
178
0
179
2
271
2
272
2
273
2
274
3
275
0
276
0
277
2
278
46
279
2
280
0
281
0
282
0
283
0
284
8
285
0
286
0
288
1
289
3
290
0
340
4C
371
-2
372
-2
  0
DIMSTYLE
105
83
330
4
100
AcDbSymbolTableRecord
100
AcDbDimStyleTableRecord
  2
EZ_RADIUS
 70
0
 40
1.0
 41
0.25
 42
0.125
 43
3.75
 44
0.375
 45
0.0
 46
0.0
 47
0.0
 48
0.0
 49
2.5
140
0.25
141
0.0
142
0.0
143
0.03937007874
144
100.0
145
0.0
146
0.5
147
0.1
148
0.0
 69
0
 70
0
 71
0
 72
0
 73
0
 74
0
 75
0
 76
0
 77
1
 78
12
 79
3
170
0
171
3
172
0
173
0
174
0
175
0
176
0
177
0
178
0
179
2
271
2
272
2
273
2
274
3
275
0
276
0
277
2
278
46
279
1
280
0
281
0
282
0
283
0
284
8
285
0
286
0
288
1
289
3
290
0
340
4C
342
84
371
-2
372
-2
  0
DIMSTYLE
105
88
330
4
100
AcDbSymbolTableRecord
100
AcDbDimStyleTableRecord
  2
EZ_RADIUS_INSIDE
 70
0
 40
1.0
 41
0.25
 42
0.125
 43
3.75
 44
0.375
 45
0.0
 46
0.0
 47
0.0
 48
0.0
 49
2.5
140
0.25
141
0.0
142
0.0
143
0.03937007874
144
100.0
145
0.0
146
0.5
147
0.1
148
0.0
 69
0
 70
0
 71
0
 72
0
 73
0
 74
0
 75
0
 76
0
 77
0
 78
12
 79
3
170
0
171
3
172
0
173
0
174
1
175
0
176
0
177
0
178
0
179
2
271
2
272
2
273
2
274
3
275
0
276
0
277
2
278
46
279
0
280
0
281
0
282
0
283
0
284
8
285
0
286
0
288
1
289
0
290
0
340
4C
342
84
371
-2
372
-2
  0
DIMSTYLE
105
89
330
4
100
AcDbSymbolTableRecord
100
AcDbDimStyleTableRecord
  2
EZ_CURVED
 70
0
 40
1.0
 41
0.25
 42
0.125
 43
3.75
 44
0.375
 45
0.0
 46
0.0
 47
0.0
 48
0.0
 49
2.5
140
0.25
141
2.5
142
0.0
143
0.03937007874
144
100.0
145
0.0
146
0.5
147
0.1
148
0.0
 69
0
 70
0
 71
0
 72
0
 73
0
 74
0
 75
0
 76
0
 77
1
 78
12
 79
2
 90
2
170
0
171
3
172
1
173
0
174
0
175
0
176
0
177
0
178
0
179
2
271
2
272
2
273
2
274
3
275
0
276
0
277
2
278
46
279
2
280
0
281
0
282
0
283
0
284
8
285
0
286
0
288
1
289
3
290
0
340
4C
371
-2
372
-2
  0
ENDTAB
  0
TABLE
  2
BLOCK_RECORD
  5
9
330
0
100
AcDbSymbolTable
 70
5
  0
BLOCK_RECORD
  5
17
330
9
100
AcDbSymbolTableRecord
100
AcDbBlockTableRecord
  2
*Model_Space
340
1A
 70
0
280
1
281
0
  0
BLOCK_RECORD
  5
1B
330
9
100
AcDbSymbolTableRecord
100
AcDbBlockTableRecord
  2
*Paper_Space
340
1E
 70
0
280
1
281
0
  0
BLOCK_RECORD
  5
74
330
9
100
AcDbSymbolTableRecord
100
AcDbBlockTableRecord
  2
_ARCHTICK
340
0
 70
0
280
1
281
0
  0
BLOCK_RECORD
  5
78
330
9
100
AcDbSymbolTableRecord
100
AcDbBlockTableRecord
  2
_CLOSEDFILLED
340
0
 70
0
280
1
281
0
  0
BLOCK_RECORD
  5
84
330
9
100
AcDbSymbolTableRecord
100
AcDbBlockTableRecord
  2
_CLOSEDBLANK
340
0
 70
0
280
1
281
0
  0
ENDTAB
  0
ENDSEC
  0
SECTION
  2
BLOCKS
  0
BLOCK
  5
18
330
17
100
AcDbEntity
  8
0
100
AcDbBlockBegin
  2
*Model_Space
 70
0
 10
0.0
 20
0.0
 30
0.0
  3
*Model_Space
  1

  0
ENDBLK
  5
19
330
17
100
AcDbEntity
  8
0
100
AcDbBlockEnd
  0
BLOCK
  5
1C
330
1B
100
AcDbEntity
  8
0
100
AcDbBlockBegin
  2
*Paper_Space
 70
0
 10
0.0
 20
0.0
 30
0.0
  3
*Paper_Space
  1

  0
ENDBLK
  5
1D
330
1B
100
AcDbEntity
  8
0
100
AcDbBlockEnd
  0
BLOCK
  5
75
330
74
100
AcDbEntity
  8
0
100
AcDbBlockBegin
  2
_ARCHTICK
 70
0
 10
0.0
 20
0.0
 30
0.0
  3
_ARCHTICK
  1

  0
LWPOLYLINE
  5
77
330
74
100
AcDbEntity
  8
0
  6
BYBLOCK
 62
0
100
AcDbPolyline
 90
2
 70
0
 43
0.15
 10
-0.5
 20
-0.5
 10
0.5
 20
0.5
  0
ENDBLK
  5
76
330
74
100
AcDbEntity
  8
0
100
AcDbBlockEnd
  0
BLOCK
  5
79
330
78
100
AcDbEntity
  8
0
100
AcDbBlockBegin
  2
_CLOSEDFILLED
 70
0
 10
0.0
 20
0.0
 30
0.0
  3
_CLOSEDFILLED
  1

  0
SOLID
  5
7B
330
78
100
AcDbEntity
  8
0
  6
BYBLOCK
 62
0
100
AcDbTrace
 10
-1.0
 20
0.16439898372402537
 30
0.0
 11
0.0
 21
0.0
 31
0.0
 12
-1.0
 22
-0.16439898372402537
 32
0.0
 13
-1.0
 23
-0.16439898372402537
 33
0.0
  0
ENDBLK
  5
7A
330
78
100
AcDbEntity
  8
0
100
AcDbBlockEnd
  0
BLOCK
  5
85
330
84
100
AcDbEntity
  8
0
100
AcDbBlockBegin
  2
_CLOSEDBLANK
 70
0
 10
0.0
 20
0.0
 30
0.0
  3
_CLOSEDBLANK
  1

  0
LWPOLYLINE
  5
87
330
84
100
AcDbEntity
  8
0
  6
BYBLOCK
 62
0
100
AcDbPolyline
 90
3
 70
1
 10
-1.0
 20
0.16439898372402537
 10
0.0
 20
0.0
 10
-1.0
 20
-0.16439898372402537
  0
ENDBLK
  5
86
330
84
100
AcDbEntity
  8
0
100
AcDbBlockEnd
  0
ENDSEC
  0
SECTION
  2
ENTITIES
  0
LWPOLYLINE
  5
98
330
17
100
AcDbEntity
  8
01_ОБШИВКА
100
AcDbPolyline
 90
279
 70
0
 10
0.0
 20
-4750.0
 10
500.0
 20
-4810.820963455704
 10
1000.0
 20
-4869.571497130677
 10
1500.0
 20
-4926.078749439944
 10
2000.0
 20
-4980.169868798531
 10
2500.0
 20
-5031.6720036214665
 10
3000.0
 20
-5080.412302323774
 10
3500.0
 20
-5126.218026995728
 10
4000.0
 20
-5169.086817015727
 10
4500.0
 20
-5209.444929581104
 10
5000.0
 20
-5247.77639042254
 10
5500.0
 20
-5284.56522527072
 10
6000.0
 20
-5320.29545985632
 10
6500.0
 20
-5355.451119910026
 10
7000.0
 20
-5390.521833978695
 10
7500.0
 20
-5426.364840840291
 10
8000.0
 20
-5462.683034858619
 10
8500.0
 20
-5498.532742946831
 10
9000.0
 20
-5532.970292018071
 10
9500.0
 20
-5565.05200898549
 10
10000.0
 20
-5593.834220762239
 10
10500.0
 20
-5618.401951764051
 10
11000.0
 20
-5639.718594711036
 10
11500.0
 20
-5658.98462088178
 10
12000.0
 20
-5676.646374058737
 10
12500.0
 20
-5693.150198024357
 10
13000.0
 20
-5708.94243656109
 10
13500.0
 20
-5724.469433451389
 10
14000.0
 20
-5740.177534436503
 10
14500.0
 20
-5756.363089585061
 10
15000.0
 20
-5772.913923479367
 10
15500.0
 20
-5789.651136758987
 10
16000.0
 20
-5806.395830063484
 10
16500.0
 20
-5822.969104032424
 10
17000.0
 20
-5839.192059305371
 10
17500.0
 20
-5854.885796521891
 10
18000.0
 20
-5869.871416321549
 10
18500.0
 20
-5883.9700193439085
 10
19000.0
 20
-5897.002706228535
 10
19500.0
 20
-5908.790577614995
 10
20000.0
 20
-5919.15473414285
 10
20500.0
 20
-5927.916276451669
 10
21000.0
 20
-5934.975170092392
 10
21500.0
 20
-5941.437409754609
 10
22000.0
 20
-5947.685780186433
 10
22500.0
 20
-5953.68545659723
 10
23000.0
 20
-5959.401614196361
 10
23500.0
 20
-5964.799428193193
 10
24000.0
 20
-5969.84407379709
 10
24500.0
 20
-5974.500726217413
 10
25000.0
 20
-5978.734560663529
 10
25500.0
 20
-5982.510752344801
 10
26000.0
 20
-5985.794476470593
 10
26500.0
 20
-5988.550908250269
 10
27000.0
 20
-5990.745222893193
 10
27500.0
 20
-5992.342595608729
 10
28000.0
 20
-5993.357376883785
 10
28500.0
 20
-5994.219921855421
 10
29000.0
 20
-5995.035713659898
 10
29500.0
 20
-5995.801484477247
 10
30000.0
 20
-5996.513966487495
 10
30500.0
 20
-5997.169891870671
 10
31000.0
 20
-5997.765992806806
 10
31500.0
 20
-5998.299001475926
 10
32000.0
 20
-5998.765650058062
 10
32500.0
 20
-5999.1626707332425
 10
33000.0
 20
-5999.486795681496
 10
33500.0
 20
-5999.734757082851
 10
34000.0
 20
-5999.903287117338
 10
34500.0
 20
-5999.989117964983
 10
35000.0
 20
-6000.0
 10
35500.0
 20
-6000.0
 10
36000.0
 20
-6000.0
 10
36500.0
 20
-6000.0
 10
37000.0
 20
-6000.0
 10
37500.0
 20
-6000.0
 10
38000.0
 20
-6000.0
 10
38500.0
 20
-6000.0
 10
39000.0
 20
-6000.0
 10
39500.0
 20
-6000.0
 10
40000.0
 20
-6000.0
 10
40500.0
 20
-6000.0
 10
41000.0
 20
-6000.0
 10
41500.0
 20
-6000.0
 10
42000.0
 20
-6000.0
 10
42500.0
 20
-6000.0
 10
43000.0
 20
-6000.0
 10
43500.0
 20
-6000.0
 10
44000.0
 20
-6000.0
 10
44500.0
 20
-6000.0
 10
45000.0
 20
-6000.0
 10
45500.0
 20
-6000.0
 10
46000.0
 20
-6000.0
 10
46500.0
 20
-6000.0
 10
47000.0
 20
-6000.0
 10
47500.0
 20
-6000.0
 10
48000.0
 20
-6000.0
 10
48500.0
 20
-6000.0
 10
49000.0
 20
-6000.0
 10
49500.0
 20
-6000.0
 10
50000.0
 20
-6000.0
 10
50500.0
 20
-6000.0
 10
51000.0
 20
-6000.0
 10
51500.0
 20
-6000.0
 10
52000.0
 20
-6000.0
 10
52500.0
 20
-6000.0
 10
53000.0
 20
-6000.0
 10
53500.0
 20
-6000.0
 10
54000.0
 20
-6000.0
 10
54500.0
 20
-6000.0
 10
55000.0
 20
-6000.0
 10
55500.0
 20
-6000.0
 10
56000.0
 20
-6000.0
 10
56500.0
 20
-6000.0
 10
57000.0
 20
-6000.0
 10
57500.0
 20
-6000.0
 10
58000.0
 20
-6000.0
 10
58500.0
 20
-6000.0
 10
59000.0
 20
-6000.0
 10
59500.0
 20
-6000.0
 10
60000.0
 20
-6000.0
 10
60500.0
 20
-6000.0
 10
61000.0
 20
-6000.0
 10
61500.0
 20
-6000.0
 10
62000.0
 20
-6000.0
 10
62500.0
 20
-6000.0
 10
63000.0
 20
-6000.0
 10
63500.0
 20
-6000.0
 10
64000.0
 20
-6000.0
 10
64500.0
 20
-6000.0
 10
65000.0
 20
-6000.0
 10
65500.0
 20
-6000.0
 10
66000.0
 20
-6000.0
 10
66500.0
 20
-6000.0
 10
67000.0
 20
-6000.0
 10
67500.0
 20
-6000.0
 10
68000.0
 20
-6000.0
 10
68500.0
 20
-6000.0
 10
69000.0
 20
-6000.0
 10
69500.0
 20
-6000.0
 10
70000.0
 20
-6000.0
 10
70500.0
 20
-6000.0
 10
71000.0
 20
-6000.0
 10
71500.0
 20
-6000.0
 10
72000.0
 20
-6000.0
 10
72500.0
 20
-6000.0
 10
73000.0
 20
-6000.0
 10
73500.0
 20
-6000.0
 10
74000.0
 20
-6000.0
 10
74500.0
 20
-6000.0
 10
75000.0
 20
-6000.0
 10
75500.0
 20
-6000.0
 10
76000.0
 20
-6000.0
 10
76500.0
 20
-6000.0
 10
77000.0
 20
-6000.0
 10
77500.0
 20
-6000.0
 10
78000.0
 20
-6000.0
 10
78500.0
 20
-6000.0
 10
79000.0
 20
-6000.0
 10
79500.0
 20
-6000.0
 10
80000.0
 20
-6000.0
 10
80500.0
 20
-6000.0
 10
81000.0
 20
-6000.0
 10
81500.0
 20
-6000.0
 10
82000.0
 20
-6000.0
 10
82500.0
 20
-6000.0
 10
83000.0
 20
-6000.0
 10
83500.0
 20
-5999.999765764739
 10
84000.0
 20
-5999.991639022512
 10
84500.0
 20
-5999.972138117879
 10
85000.0
 20
-5999.941560933749
 10
85500.0
 20
-5999.90020535303
 10
86000.0
 20
-5999.848369258632
 10
86500.0
 20
-5999.786350533464
 10
87000.0
 20
-5999.714447060436
 10
87500.0
 20
-5999.632956722454
 10
88000.0
 20
-5999.542177402429
 10
88500.0
 20
-5999.442406983269
 10
89000.0
 20
-5999.333943347883
 10
89500.0
 20
-5999.217084379182
 10
90000.0
 20
-5999.092127960072
 10
90500.0
 20
-5998.952560335939
 10
91000.0
 20
-5998.693194079084
 10
91500.0
 20
-5998.283720443605
 10
92000.0
 20
-5997.731492433941
 10
92500.0
 20
-5997.043863054525
 10
93000.0
 20
-5996.228185309797
 10
93500.0
 20
-5995.291812204188
 10
94000.0
 20
-5994.2420967421385
 10
94500.0
 20
-5993.086391928084
 10
95000.0
 20
-5991.83205076646
 10
95500.0
 20
-5990.486426261702
 10
96000.0
 20
-5989.056871418247
 10
96500.0
 20
-5987.550739240533
 10
97000.0
 20
-5985.975382732993
 10
97500.0
 20
-5984.294265689331
 10
98000.0
 20
-5982.120864594517
 10
98500.0
 20
-5979.398596297343
 10
99000.0
 20
-5976.171850577256
 10
99500.0
 20
-5972.485017213701
 10
100000.0
 20
-5968.382485986128
 10
100500.0
 20
-5963.908646673981
 10
101000.0
 20
-5959.107889056707
 10
101500.0
 20
-5954.024602913753
 10
102000.0
 20
-5948.703178024567
 10
102500.0
 20
-5943.188004168593
 10
103000.0
 20
-5937.523471125279
 10
103500.0
 20
-5931.753968674071
 10
104000.0
 20
-5925.923886594417
 10
104500.0
 20
-5920.0534907707615
 10
105000.0
 20
-5914.008954743507
 10
105500.0
 20
-5907.725002620694
 10
106000.0
 20
-5901.156763197692
 10
106500.0
 20
-5894.259365269871
 10
107000.0
 20
-5886.987937632599
 10
107500.0
 20
-5879.297609081249
 10
108000.0
 20
-5871.14350841119
 10
108500.0
 20
-5862.480764417792
 10
109000.0
 20
-5853.264505896424
 10
109500.0
 20
-5843.449861642459
 10
110000.0
 20
-5832.991960451265
 10
110500.0
 20
-5821.845931118211
 10
111000.0
 20
-5809.96690243867
 10
111500.0
 20
-5797.030239987554
 10
112000.0
 20
-5781.925522162452
 10
112500.0
 20
-5764.676503296552
 10
113000.0
 20
-5745.436563637535
 10
113500.0
 20
-5724.35908343308
 10
114000.0
 20
-5701.597442930862
 10
114500.0
 20
-5677.305022378559
 10
115000.0
 20
-5651.635202023851
 10
115500.0
 20
-5624.741362114414
 10
116000.0
 20
-5596.776882897927
 10
116500.0
 20
-5567.895144622067
 10
117000.0
 20
-5538.249527534513
 10
117500.0
 20
-5507.9934118829415
 10
118000.0
 20
-5477.280177915031
 10
118500.0
 20
-5445.802083076755
 10
119000.0
 20
-5412.345164600662
 10
119500.0
 20
-5376.914655074127
 10
120000.0
 20
-5339.599516840762
 10
120500.0
 20
-5300.488712244185
 10
121000.0
 20
-5259.671203628008
 10
121500.0
 20
-5217.235953335847
 10
122000.0
 20
-5173.271923711316
 10
122500.0
 20
-5127.868077098032
 10
123000.0
 20
-5081.113375839606
 10
123500.0
 20
-5033.096782279658
 10
124000.0
 20
-4983.907258761799
 10
124500.0
 20
-4933.633767629644
 10
125000.0
 20
-4882.36527122681
 10
125500.0
 20
-4829.13204856387
 10
126000.0
 20
-4772.092470608566
 10
126500.0
 20
-4711.734622203364
 10
127000.0
 20
-4648.615878652107
 10
127500.0
 20
-4583.29361525864
 10
128000.0
 20
-4516.325207326809
 10
128500.0
 20
-4448.26803016046
 10
129000.0
 20
-4378.4167985626755
 10
129500.0
 20
-4305.2871308491285
 10
130000.0
 20
-4229.661706056273
 10
130500.0
 20
-4152.363520908177
 10
131000.0
 20
-4074.2155721289073
 10
131500.0
 20
-3996.040856442537
 10
132000.0
 20
-3918.6623705731326
 10
132500.0
 20
-3842.7257670365016
 10
133000.0
 20
-3767.787507936898
 10
133500.0
 20
-3692.9955456719367
 10
134000.0
 20
-3617.497229327843
 10
134500.0
 20
-3540.439907990841
 10
135000.0
 20
-3460.9709307471558
 10
135500.0
 20
-3378.237646683011
 10
136000.0
 20
-3292.093151909875
 10
136500.0
 20
-3203.1465379267515
 10
137000.0
 20
-3111.5020749715895
 10
137500.0
 20
-3017.2624763728613
 10
138000.0
 20
-2920.5304554590384
 10
138500.0
 20
-2821.408725558594
 10
139000.0
 20
-2720.0
  0
LWPOLYLINE
  5
99
330
17
100
AcDbEntity
  8
01_ОБШИВКА
100
AcDbPolyline
 90
279
 70
0
 10
0.0
 20
-1799.9999999999998
 10
500.0
 20
-1799.9999999999998
 10
1000.0
 20
-1799.9999999999998
 10
1500.0
 20
-1799.9999999999998
 10
2000.0
 20
-1799.9999999999998
 10
2500.0
 20
-1799.9999999999998
 10
3000.0
 20
-1799.9999999999998
 10
3500.0
 20
-1799.9999999999998
 10
4000.0
 20
-1799.9999999999998
 10
4500.0
 20
-1799.9999999999998
 10
5000.0
 20
-1799.9999999999998
 10
5500.0
 20
-1799.9999999999998
 10
6000.0
 20
-1799.9999999999998
 10
6500.0
 20
-1799.9999999999998
 10
7000.0
 20
-1799.9999999999998
 10
7500.0
 20
-1799.9999999999998
 10
8000.0
 20
-1799.9999999999998
 10
8500.0
 20
-1799.9999999999998
 10
9000.0
 20
-1799.9999999999998
 10
9500.0
 20
-1799.9999999999998
 10
10000.0
 20
-1799.9999999999998
 10
10500.0
 20
-1799.9999999999998
 10
11000.0
 20
-1799.9999999999998
 10
11500.0
 20
-1799.9999999999998
 10
12000.0
 20
-1799.9999999999998
 10
12500.0
 20
-1799.9999999999998
 10
13000.0
 20
-1799.9999999999998
 10
13500.0
 20
-1799.9999999999998
 10
14000.0
 20
-1799.9999999999998
 10
14500.0
 20
-1799.9999999999998
 10
15000.0
 20
-1799.9999999999998
 10
15500.0
 20
-1799.9999999999998
 10
16000.0
 20
-1799.9999999999998
 10
16500.0
 20
-1799.9999999999998
 10
17000.0
 20
-1799.9999999999998
 10
17500.0
 20
-1799.9999999999998
 10
18000.0
 20
-1799.9999999999998
 10
18500.0
 20
-1799.9999999999998
 10
19000.0
 20
-1799.9999999999998
 10
19500.0
 20
-1799.9999999999998
 10
20000.0
 20
-1799.9999999999998
 10
20500.0
 20
-1799.9999999999998
 10
21000.0
 20
-1799.9999999999998
 10
21500.0
 20
-1799.9999999999998
 10
22000.0
 20
-1799.9999999999998
 10
22500.0
 20
-1799.9999999999998
 10
23000.0
 20
-1799.9999999999998
 10
23500.0
 20
-1799.9999999999989
 10
24000.0
 20
-1799.9999999999998
 10
24500.0
 20
-1799.9999999999998
 10
25000.0
 20
-1799.9999999999998
 10
25500.0
 20
-1799.9999999999998
 10
26000.0
 20
-1799.9999999999998
 10
26500.0
 20
-1799.9999999999998
 10
27000.0
 20
-1799.9999999999998
 10
27500.0
 20
-1799.9999999999998
 10
28000.0
 20
-1799.9999999999998
 10
28500.0
 20
-1799.9999999999989
 10
29000.0
 20
-1799.9999999999998
 10
29500.0
 20
-1799.9999999999998
 10
30000.0
 20
-1799.9999999999998
 10
30500.0
 20
-1799.9999999999998
 10
31000.0
 20
-1799.9999999999998
 10
31500.0
 20
-1799.9999999999998
 10
32000.0
 20
-1799.9999999999998
 10
32500.0
 20
-1799.9999999999998
 10
33000.0
 20
-1799.9999999999998
 10
33500.0
 20
-1799.9999999999998
 10
34000.0
 20
-1799.9999999999998
 10
34500.0
 20
-1799.9999999999998
 10
35000.0
 20
-1800.0000000000007
 10
35500.0
 20
-1799.9999999999998
 10
36000.0
 20
-1799.9999999999998
 10
36500.0
 20
-1799.9999999999998
 10
37000.0
 20
-1799.9999999999998
 10
37500.0
 20
-1799.9999999999998
 10
38000.0
 20
-1799.9999999999998
 10
38500.0
 20
-1799.9999999999998
 10
39000.0
 20
-1799.9999999999998
 10
39500.0
 20
-1799.9999999999998
 10
40000.0
 20
-1799.9999999999998
 10
40500.0
 20
-1799.9999999999998
 10
41000.0
 20
-1799.9999999999998
 10
41500.0
 20
-1799.9999999999998
 10
42000.0
 20
-1800.0000000000007
 10
42500.0
 20
-1799.9999999999998
 10
43000.0
 20
-1799.9999999999998
 10
43500.0
 20
-1799.9999999999998
 10
44000.0
 20
-1799.9999999999998
 10
44500.0
 20
-1799.9999999999998
 10
45000.0
 20
-1799.9999999999998
 10
45500.0
 20
-1799.9999999999998
 10
46000.0
 20
-1799.9999999999998
 10
46500.0
 20
-1799.9999999999998
 10
47000.0
 20
-1799.9999999999998
 10
47500.0
 20
-1799.9999999999998
 10
48000.0
 20
-1799.9999999999998
 10
48500.0
 20
-1799.9999999999998
 10
49000.0
 20
-1799.9999999999998
 10
49500.0
 20
-1799.9999999999998
 10
50000.0
 20
-1799.9999999999998
 10
50500.0
 20
-1799.9999999999998
 10
51000.0
 20
-1799.9999999999998
 10
51500.0
 20
-1799.9999999999998
 10
52000.0
 20
-1799.9999999999998
 10
52500.0
 20
-1799.9999999999998
 10
53000.0
 20
-1799.9999999999998
 10
53500.0
 20
-1799.9999999999998
 10
54000.0
 20
-1799.9999999999998
 10
54500.0
 20
-1799.9999999999998
 10
55000.0
 20
-1799.9999999999998
 10
55500.0
 20
-1799.9999999999998
 10
56000.0
 20
-1799.9999999999989
 10
56500.0
 20
-1799.9999999999998
 10
57000.0
 20
-1799.9999999999998
 10
57500.0
 20
-1799.9999999999998
 10
58000.0
 20
-1799.9999999999998
 10
58500.0
 20
-1799.9999999999998
 10
59000.0
 20
-1799.9999999999998
 10
59500.0
 20
-1799.9999999999998
 10
60000.0
 20
-1799.9999999999998
 10
60500.0
 20
-1799.9999999999998
 10
61000.0
 20
-1799.9999999999998
 10
61500.0
 20
-1799.9999999999998
 10
62000.0
 20
-1799.9999999999998
 10
62500.0
 20
-1799.9999999999998
 10
63000.0
 20
-1799.9999999999998
 10
63500.0
 20
-1799.9999999999998
 10
64000.0
 20
-1799.9999999999998
 10
64500.0
 20
-1799.9999999999998
 10
65000.0
 20
-1799.9999999999998
 10
65500.0
 20
-1799.9999999999998
 10
66000.0
 20
-1799.9999999999998
 10
66500.0
 20
-1799.9999999999998
 10
67000.0
 20
-1799.9999999999998
 10
67500.0
 20
-1799.9999999999998
 10
68000.0
 20
-1799.9999999999998
 10
68500.0
 20
-1799.9999999999998
 10
69000.0
 20
-1799.9999999999998
 10
69500.0
 20
-1799.9999999999998
 10
70000.0
 20
-1799.9999999999998
 10
70500.0
 20
-1799.9999999999998
 10
71000.0
 20
-1799.9999999999998
 10
71500.0
 20
-1799.9999999999998
 10
72000.0
 20
-1799.9999999999998
 10
72500.0
 20
-1799.9999999999998
 10
73000.0
 20
-1799.9999999999998
 10
73500.0
 20
-1799.9999999999998
 10
74000.0
 20
-1799.9999999999998
 10
74500.0
 20
-1799.9999999999998
 10
75000.0
 20
-1799.9999999999998
 10
75500.0
 20
-1799.9999999999998
 10
76000.0
 20
-1799.9999999999998
 10
76500.0
 20
-1799.9999999999998
 10
77000.0
 20
-1799.9999999999998
 10
77500.0
 20
-1799.9999999999998
 10
78000.0
 20
-1799.9999999999998
 10
78500.0
 20
-1799.9999999999998
 10
79000.0
 20
-1799.9999999999998
 10
79500.0
 20
-1799.9999999999998
 10
80000.0
 20
-1799.9999999999998
 10
80500.0
 20
-1799.9999999999998
 10
81000.0
 20
-1799.9999999999998
 10
81500.0
 20
-1799.9999999999998
 10
82000.0
 20
-1799.9999999999998
 10
82500.0
 20
-1799.9999999999998
 10
83000.0
 20
-1799.9999999999998
 10
83500.0
 20
-1800.0000000000007
 10
84000.0
 20
-1799.9999999999998
 10
84500.0
 20
-1799.9999999999998
 10
85000.0
 20
-1799.9999999999998
 10
85500.0
 20
-1799.9999999999998
 10
86000.0
 20
-1799.9999999999998
 10
86500.0
 20
-1799.9999999999998
 10
87000.0
 20
-1799.9999999999998
 10
87500.0
 20
-1799.9999999999998
 10
88000.0
 20
-1799.9999999999998
 10
88500.0
 20
-1799.9999999999998
 10
89000.0
 20
-1799.9999999999998
 10
89500.0
 20
-1799.9999999999998
 10
90000.0
 20
-1799.9999999999998
 10
90500.0
 20
-1799.9999999999998
 10
91000.0
 20
-1799.9999999999998
 10
91500.0
 20
-1799.9999999999998
 10
92000.0
 20
-1799.9999999999998
 10
92500.0
 20
-1799.9999999999998
 10
93000.0
 20
-1799.9999999999998
 10
93500.0
 20
-1799.9999999999989
 10
94000.0
 20
-1799.9999999999998
 10
94500.0
 20
-1799.9999999999998
 10
95000.0
 20
-1799.9999999999998
 10
95500.0
 20
-1799.9999999999998
 10
96000.0
 20
-1799.9999999999998
 10
96500.0
 20
-1799.9999999999998
 10
97000.0
 20
-1799.9999999999998
 10
97500.0
 20
-1799.9999999999998
 10
98000.0
 20
-1799.9999999999998
 10
98500.0
 20
-1799.9999999999998
 10
99000.0
 20
-1799.9999999999998
 10
99500.0
 20
-1799.9999999999998
 10
100000.0
 20
-1799.9999999999998
 10
100500.0
 20
-1799.9999999999998
 10
101000.0
 20
-1799.9999999999998
 10
101500.0
 20
-1799.9999999999998
 10
102000.0
 20
-1799.9999999999998
 10
102500.0
 20
-1799.9999999999998
 10
103000.0
 20
-1799.9999999999998
 10
103500.0
 20
-1799.9999999999998
 10
104000.0
 20
-1799.9999999999998
 10
104500.0
 20
-1800.0000000000007
 10
105000.0
 20
-1799.9999999999998
 10
105500.0
 20
-1799.9999999999998
 10
106000.0
 20
-1799.9999999999998
 10
106500.0
 20
-1799.9999999999998
 10
107000.0
 20
-1799.9999999999998
 10
107500.0
 20
-1799.9999999999998
 10
108000.0
 20
-1799.9999999999998
 10
108500.0
 20
-1799.9999999999998
 10
109000.0
 20
-1799.9999999999998
 10
109500.0
 20
-1799.9999999999998
 10
110000.0
 20
-1799.9999999999998
 10
110500.0
 20
-1799.9999999999998
 10
111000.0
 20
-1799.9999999999998
 10
111500.0
 20
-1799.4735026501826
 10
112000.0
 20
-1796.3841020832404
 10
112500.0
 20
-1790.7899893625734
 10
113000.0
 20
-1782.9913595760659
 10
113500.0
 20
-1773.2884078116006
 10
114000.0
 20
-1761.9813291570629
 10
114500.0
 20
-1749.3703187003362
 10
115000.0
 20
-1735.755571529304
 10
115500.0
 20
-1721.4372827318512
 10
116000.0
 20
-1706.7156473958623
 10
116500.0
 20
-1691.8908606092193
 10
117000.0
 20
-1677.263117459807
 10
117500.0
 20
-1663.1326130355121
 10
118000.0
 20
-1649.7995424242165
 10
118500.0
 20
-1637.1807788816639
 10
119000.0
 20
-1624.325916324195
 10
119500.0
 20
-1611.1789571544737
 10
120000.0
 20
-1597.7499577452345
 10
120500.0
 20
-1584.0489744692147
 10
121000.0
 20
-1570.0860636991515
 10
121500.0
 20
-1555.8712818077804
 10
122000.0
 20
-1541.4146851678395
 10
122500.0
 20
-1526.7263301520622
 10
123000.0
 20
-1511.8162731331868
 10
123500.0
 20
-1496.6945704839504
 10
124000.0
 20
-1481.3712785770897
 10
124500.0
 20
-1465.8564537853388
 10
125000.0
 20
-1450.1601524814366
 10
125500.0
 20
-1434.1925380303317
 10
126000.0
 20
-1417.7685604079747
 10
126500.0
 20
-1400.9121254745532
 10
127000.0
 20
-1383.6535172542508
 10
127500.0
 20
-1366.023019771248
 10
128000.0
 20
-1348.0509170497257
 10
128500.0
 20
-1329.7674931138693
 10
129000.0
 20
-1310.4712895975545
 10
129500.0
 20
-1289.4358287814507
 10
130000.0
 20
-1267.5668343275
 10
130500.0
 20
-1245.7961987548094
 10
131000.0
 20
-1225.05581458248
 10
131500.0
 20
-1206.2775743296168
 10
132000.0
 20
-1190.3933705153227
 10
132500.0
 20
-1176.6575293682972
 10
133000.0
 20
-1163.2583245028957
 10
133500.0
 20
-1150.6095571782832
 10
134000.0
 20
-1139.1449089970376
 10
134500.0
 20
-1129.2980615617428
 10
135000.0
 20
-1121.5026964749768
 10
135500.0
 20
-1116.1924953393195
 10
136000.0
 20
-1112.5109215191449
 10
136500.0
 20
-1109.116555812875
 10
137000.0
 20
-1106.108781876415
 10
137500.0
 20
-1103.5904195183316
 10
138000.0
 20
-1101.664288547191
 10
138500.0
 20
-1100.4332087715588
 10
139000.0
 20
-1099.9999999999995
  0
LINE
  5
9A
330
17
100
AcDbEntity
  8
07_ОСИ
100
AcDbLine
 10
0.0
 20
-5000.0
 30
0.0
 11
139000.0
 21
-5000.0
 31
0.0
  0
LINE
  5
9B
330
17
100
AcDbEntity
  8
07_ОСИ
100
AcDbLine
 10
0.0
 20
-4000.0
 30
0.0
 11
139000.0
 21
-4000.0
 31
0.0
  0
LINE
  5
9C
330
17
100
AcDbEntity
  8
07_ОСИ
100
AcDbLine
 10
0.0
 20
-3775.4435
 30
0.0
 11
139000.0
 21
-3775.4435
 31
0.0
  0
LINE
  5
9D
330
17
100
AcDbEntity
  8
07_ОСИ
100
AcDbLine
 10
0.0
 20
-2800.0
 30
0.0
 11
139000.0
 21
-2800.0
 31
0.0
  0
LINE
  5
9E
330
17
100
AcDbEntity
  8
07_ОСИ
100
AcDbLine
 10
0.0
 20
-2000.0
 30
0.0
 11
139000.0
 21
-2000.0
 31
0.0
  0
LWPOLYLINE
  5
9F
330
17
100
AcDbEntity
  8
01_ОБШИВКА
100
AcDbPolyline
 90
224
 70
0
 10
7500.0
 20
5450.646009420196
 10
8000.0
 20
5732.61506940713
 10
8500.0
 20
5957.280521427635
 10
9000.0
 20
6149.379629749498
 10
9500.0
 20
6315.4727691406
 10
10000.0
 20
6457.262576508708
 10
10500.0
 20
6574.60946201827
 10
11000.0
 20
6675.127115162542
 10
11500.0
 20
6765.402249395774
 10
12000.0
 20
6847.472717887511
 10
12500.0
 20
6922.996217985771
 10
13000.0
 20
6993.358885394938
 10
13500.0
 20
7059.739087551541
 10
14000.0
 20
7123.176574303087
 10
14500.0
 20
7185.322422821063
 10
15000.0
 20
7246.358312800843
 10
15500.0
 20
7305.833227035212
 10
16000.0
 20
7363.3425583164435
 10
16500.0
 20
7418.524631976434
 10
17000.0
 20
7471.057171091006
 10
17500.0
 20
7520.6537383222
 10
18000.0
 20
7567.0601199217135
 10
18500.0
 20
7610.050567871186
 10
19000.0
 20
7649.4237806918645
 10
19500.0
 20
7684.998478847517
 10
20000.0
 20
7716.608415103489
 10
20500.0
 20
7744.096653096035
 10
21000.0
 20
7767.466365475641
 10
21500.0
 20
7789.083649446132
 10
22000.0
 20
7809.7770109263065
 10
22500.0
 20
7829.530720385805
 10
23000.0
 20
7848.330026157211
 10
23500.0
 20
7866.160805590615
 10
24000.0
 20
7883.009210598117
 10
24500.0
 20
7898.8613079861025
 10
25000.0
 20
7913.702714864199
 10
25500.0
 20
7927.51822930799
 10
26000.0
 20
7940.29145632283
 10
26500.0
 20
7952.004428991391
 10
27000.0
 20
7962.637224469993
 10
27500.0
 20
7972.167574208472
 10
28000.0
 20
7980.642254955839
 10
28500.0
 20
7988.701449117941
 10
29000.0
 20
7996.489028938396
 10
29500.0
 20
8003.987798835993
 10
30000.0
 20
8011.180332872822
 10
30500.0
 20
8018.048983993635
 10
31000.0
 20
8024.575893569987
 10
31500.0
 20
8030.743001182509
 10
32000.0
 20
8036.532054571465
 10
32500.0
 20
8041.924619682735
 10
33000.0
 20
8046.902090733878
 10
33500.0
 20
8051.445700222539
 10
34000.0
 20
8055.536528797567
 10
34500.0
 20
8059.15551491136
 10
35000.0
 20
8062.322261285418
 10
35500.0
 20
8065.262152330989
 10
36000.0
 20
8068.02497327935
 10
36500.0
 20
8070.622878330615
 10
37000.0
 20
8073.067903042061
 10
37500.0
 20
8075.371995821089
 10
38000.0
 20
8077.5470387284295
 10
38500.0
 20
8079.604857402785
 10
39000.0
 20
8081.5572199620465
 10
39500.0
 20
8083.4158247538
 10
40000.0
 20
8085.1922768177
 10
40500.0
 20
8086.898052884035
 10
41000.0
 20
8088.544454664861
 10
41500.0
 20
8090.1425500953665
 10
42000.0
 20
8091.728852502257
 10
42500.0
 20
8093.402044443503
 10
43000.0
 20
8095.143804100717
 10
43500.0
 20
8096.923465207961
 10
44000.0
 20
8098.710610759214
 10
44500.0
 20
8100.475103675185
 10
45000.0
 20
8102.187103635087
 10
45500.0
 20
8103.817069504393
 10
46000.0
 20
8105.335746753111
 10
46500.0
 20
8106.714139270381
 10
47000.0
 20
8107.923465044441
 10
47500.0
 20
8108.935095296932
 10
48000.0
 20
8109.720476840003
 10
48500.0
 20
8110.251037665744
 10
49000.0
 20
8110.562177013493
 10
49500.0
 20
8110.826717257112
 10
50000.0
 20
8111.060093995862
 10
50500.0
 20
8111.266450684438
 10
51000.0
 20
8111.44991844342
 10
51500.0
 20
8111.614618207829
 10
52000.0
 20
8111.764662527641
 10
52500.0
 20
8111.904157016451
 10
53000.0
 20
8112.037201445351
 10
53500.0
 20
8112.167890479705
 10
54000.0
 20
8112.300314056922
 10
54500.0
 20
8112.438557403614
 10
55000.0
 20
8112.586700690674
 10
55500.0
 20
8112.748818324649
 10
56000.0
 20
8112.921995491698
 10
56500.0
 20
8113.093925588481
 10
57000.0
 20
8113.264613817972
 10
57500.0
 20
8113.434476868391
 10
58000.0
 20
8113.603930807123
 10
58500.0
 20
8113.773391084571
 10
59000.0
 20
8113.943272534268
 10
59500.0
 20
8114.113989369182
 10
60000.0
 20
8114.285955174244
 10
60500.0
 20
8114.459582895032
 10
61000.0
 20
8114.635284822624
 10
61500.0
 20
8114.813472574596
 10
62000.0
 20
8114.994557072108
 10
62500.0
 20
8115.1789485131085
 10
63000.0
 20
8115.378216486274
 10
63500.0
 20
8115.604692571358
 10
64000.0
 20
8115.851735912944
 10
64500.0
 20
8116.11256708313
 10
65000.0
 20
8116.3804205116
 10
65500.0
 20
8116.648546118134
 10
66000.0
 20
8116.910209934126
 10
66500.0
 20
8117.158693704942
 10
67000.0
 20
8117.387293464772
 10
67500.0
 20
8117.589317076399
 10
68000.0
 20
8117.758080729981
 10
68500.0
 20
8117.886904397398
 10
69000.0
 20
8117.969106242262
 10
69500.0
 20
8117.997995989972
 10
70000.0
 20
8117.856570698265
 10
70500.0
 20
8117.452853302211
 10
71000.0
 20
8116.817416305038
 10
71500.0
 20
8115.980617947127
 10
72000.0
 20
8114.972757515658
 10
72500.0
 20
8113.824207080185
 10
73000.0
 20
8112.565519099134
 10
73500.0
 20
8111.227509834081
 10
74000.0
 20
8109.841318897713
 10
74500.0
 20
8108.438445545664
 10
75000.0
 20
8107.05076250503
 10
75500.0
 20
8105.710508219163
 10
76000.0
 20
8104.45025838691
 10
76500.0
 20
8103.302337867756
 10
77000.0
 20
8102.226063726707
 10
77500.0
 20
8101.167560158496
 10
78000.0
 20
8100.109683703501
 10
78500.0
 20
8099.035074906821
 10
79000.0
 20
8097.92619954627
 10
79500.0
 20
8096.76537850735
 10
80000.0
 20
8095.534806612535
 10
80500.0
 20
8094.216560650885
 10
81000.0
 20
8092.792596821991
 10
81500.0
 20
8091.244737804578
 10
82000.0
 20
8089.554649682702
 10
82500.0
 20
8087.703809010488
 10
83000.0
 20
8085.673460367827
 10
83500.0
 20
8083.43418815728
 10
84000.0
 20
8080.637421797808
 10
84500.0
 20
8077.1466743357705
 10
85000.0
 20
8072.997073676373
 10
85500.0
 20
8068.223546608841
 10
86000.0
 20
8062.860909855747
 10
86500.0
 20
8056.943954328986
 10
87000.0
 20
8050.507521962164
 10
87500.0
 20
8043.586574719128
 10
88000.0
 20
8036.216255587792
 10
88500.0
 20
8028.4319415528935
 10
89000.0
 20
8020.269288698765
 10
89500.0
 20
8011.764269722741
 10
90000.0
 20
8002.953204242032
 10
90500.0
 20
7993.819198272783
 10
91000.0
 20
7983.560947913233
 10
91500.0
 20
7971.9467606142125
 10
92000.0
 20
7959.038457936803
 10
92500.0
 20
7944.898026660387
 10
93000.0
 20
7929.588043734999
 10
93500.0
 20
7913.172039003029
 10
94000.0
 20
7895.714797246119
 10
94500.0
 20
7877.282602688788
 10
95000.0
 20
7857.94343020897
 10
95500.0
 20
7837.767088211408
 10
96000.0
 20
7816.825318472964
 10
96500.0
 20
7795.191858336282
 10
97000.0
 20
7772.942470476307
 10
97500.0
 20
7749.99893739398
 10
98000.0
 20
7725.004793772566
 10
98500.0
 20
7697.709488491665
 10
99000.0
 20
7668.215212269084
 10
99500.0
 20
7636.625108632007
 10
100000.0
 20
7603.043785815269
 10
100500.0
 20
7567.577798227244
 10
101000.0
 20
7530.336100942579
 10
101500.0
 20
7491.430479875478
 10
102000.0
 20
7450.975959465637
 10
102500.0
 20
7409.091188862794
 10
103000.0
 20
7365.898806720015
 10
103500.0
 20
7321.52578379771
 10
104000.0
 20
7276.103741641177
 10
104500.0
 20
7229.620060276548
 10
105000.0
 20
7181.239098386142
 10
105500.0
 20
7130.740027326749
 10
106000.0
 20
7078.031227548569
 10
106500.0
 20
7023.009255943774
 10
107000.0
 20
6965.558024777693
 10
107500.0
 20
6905.54781328829
 10
108000.0
 20
6842.834100028735
 10
108500.0
 20
6777.256198281973
 10
109000.0
 20
6708.635669613177
 10
109500.0
 20
6636.77448110698
 10
110000.0
 20
6561.452859019174
 10
110500.0
 20
6482.426773950841
 10
111000.0
 20
6399.4249680061175
 10
111500.0
 20
6310.768886869702
 10
112000.0
 20
6210.799017622326
 10
112500.0
 20
6099.296274952871
 10
113000.0
 20
5976.631177230839
 10
113500.0
 20
5843.120709795024
 10
114000.0
 20
5699.012525225472
 10
114500.0
 20
5544.461028043946
 10
115000.0
 20
5379.490689255923
 10
115500.0
 20
5203.938161677153
 10
116000.0
 20
5017.357043179683
 10
116500.0
 20
4818.851971897305
 10
117000.0
 20
4606.766413790979
 10
117500.0
 20
4378.028650500495
 10
118000.0
 20
4126.5473760096365
 10
118500.0
 20
3833.822624810306
 10
119000.0
 20
3419.581258136895
  0
TEXT
  5
A0
330
17
100
AcDbEntity
  8
09_РАЗМЕРЫ
100
AcDbText
 10
63500.0
 20
8365.604692571358
 30
0.0
 40
400.0
  1
ВЛ 0.60
  7
ГОСТ
 72
1
 11
63500.0
 21
8365.604692571358
 31
0.0
100
AcDbText
 73
2
  0
LWPOLYLINE
  5
A1
330
17
100
AcDbEntity
  8
01_ОБШИВКА
100
AcDbPolyline
 90
251
 70
0
 10
500.0
 20
3921.8637879115818
 10
1000.0
 20
4419.5300056540445
 10
1500.0
 20
4744.582575411946
 10
2000.0
 20
5011.050567956501
 10
2500.0
 20
5242.210479482826
 10
3000.0
 20
5447.748608438003
 10
3500.0
 20
5632.7600732297815
 10
4000.0
 20
5800.617844321515
 10
4500.0
 20
5954.783884634225
 10
5000.0
 20
6098.165086154353
 10
5500.0
 20
6233.111692149172
 10
6000.0
 20
6361.5985211939205
 10
6500.0
 20
6485.33259998917
 10
7000.0
 20
6605.847729291959
 10
7500.0
 20
6726.796827933015
 10
8000.0
 20
6847.702748614476
 10
8500.0
 20
6965.324195479155
 10
9000.0
 20
7076.48856851465
 10
9500.0
 20
7178.065386219177
 10
10000.0
 20
7266.946058568218
 10
10500.0
 20
7340.165836349286
 10
11000.0
 20
7403.14834083994
 10
11500.0
 20
7460.692411811494
 10
12000.0
 20
7513.572427488218
 10
12500.0
 20
7562.45740526883
 10
13000.0
 20
7607.92449441994
 10
13500.0
 20
7650.465462374198
 10
14000.0
 20
7690.52027923949
 10
14500.0
 20
7729.392707470393
 10
15000.0
 20
7767.371490717723
 10
15500.0
 20
7804.153242321125
 10
16000.0
 20
7839.462125795659
 10
16500.0
 20
7873.051138336201
 10
17000.0
 20
7904.703042324683
 10
17500.0
 20
7934.230911002975
 10
18000.0
 20
7961.478223322273
 10
18500.0
 20
7986.318409722031
 10
19000.0
 20
8008.6537166184735
 10
19500.0
 20
8028.413225144952
 10
20000.0
 20
8045.549833076976
 10
20500.0
 20
8060.035993502641
 10
21000.0
 20
8071.954243689074
 10
21500.0
 20
8082.81951348641
 10
22000.0
 20
8093.16200125395
 10
22500.0
 20
8102.990225916759
 10
23000.0
 20
8112.313744340183
 10
23500.0
 20
8121.142852232538
 10
24000.0
 20
8129.488260252731
 10
24500.0
 20
8137.360745843716
 10
25000.0
 20
8144.7707818820145
 10
25500.0
 20
8151.72814388659
 10
26000.0
 20
8158.24149824625
 10
26500.0
 20
8164.317974673453
 10
27000.0
 20
8169.962726834614
 10
27500.0
 20
8175.178485795021
 10
28000.0
 20
8179.992730341146
 10
28500.0
 20
8184.654250572495
 10
29000.0
 20
8189.2103578838905
 10
29500.0
 20
8193.645069599614
 10
30000.0
 20
8197.941954688677
 10
30500.0
 20
8202.084149199061
 10
31000.0
 20
8206.054372876395
 10
31500.0
 20
8209.834946880033
 10
32000.0
 20
8213.407812494761
 10
32500.0
 20
8216.754550722291
 10
33000.0
 20
8219.85640262348
 10
33500.0
 20
8222.694290270165
 10
34000.0
 20
8225.248838154423
 10
34500.0
 20
8227.500394893486
 10
35000.0
 20
8229.465465329033
 10
35500.0
 20
8231.346754212722
 10
36000.0
 20
8233.171339989525
 10
36500.0
 20
8234.929912971376
 10
37000.0
 20
8236.612795917626
 10
37500.0
 20
8238.210025826174
 10
38000.0
 20
8239.711690035467
 10
38500.0
 20
8241.10795108367
 10
39000.0
 20
8242.3884157017
 10
39500.0
 20
8243.542677890548
 10
40000.0
 20
8244.560331408262
 10
40500.0
 20
8245.430969783802
 10
41000.0
 20
8246.144186341178
 10
41500.0
 20
8246.689574230779
 10
42000.0
 20
8247.087431770386
 10
42500.0
 20
8247.457148697415
 10
43000.0
 20
8247.810094838072
 10
43500.0
 20
8248.14421595686
 10
44000.0
 20
8248.45745781618
 10
44500.0
 20
8248.747766176106
 10
45000.0
 20
8249.01308679424
 10
45500.0
 20
8249.251365425756
 10
46000.0
 20
8249.460547823513
 10
46500.0
 20
8249.638579738334
 10
47000.0
 20
8249.783406919321
 10
47500.0
 20
8249.892975114273
 10
48000.0
 20
8249.965230070076
 10
48500.0
 20
8249.99811753312
 10
49000.0
 20
8250.0
 10
49500.0
 20
8250.0
 10
50000.0
 20
8250.0
 10
50500.0
 20
8250.0
 10
51000.0
 20
8250.0
 10
51500.0
 20
8250.0
 10
52000.0
 20
8250.0
 10
52500.0
 20
8250.0
 10
53000.0
 20
8250.0
 10
53500.0
 20
8250.0
 10
54000.0
 20
8250.0
 10
54500.0
 20
8250.0
 10
55000.0
 20
8250.0
 10
55500.0
 20
8250.0
 10
56000.0
 20
8250.0
 10
56500.0
 20
8250.0
 10
57000.0
 20
8250.0
 10
57500.0
 20
8250.0
 10
58000.0
 20
8250.0
 10
58500.0
 20
8250.0
 10
59000.0
 20
8250.0
 10
59500.0
 20
8250.0
 10
60000.0
 20
8250.0
 10
60500.0
 20
8250.0
 10
61000.0
 20
8250.0
 10
61500.0
 20
8250.0
 10
62000.0
 20
8250.0
 10
62500.0
 20
8250.0
 10
63000.0
 20
8250.0
 10
63500.0
 20
8250.0
 10
64000.0
 20
8250.0
 10
64500.0
 20
8250.0
 10
65000.0
 20
8250.0
 10
65500.0
 20
8250.0
 10
66000.0
 20
8250.0
 10
66500.0
 20
8250.0
 10
67000.0
 20
8250.0
 10
67500.0
 20
8250.0
 10
68000.0
 20
8250.0
 10
68500.0
 20
8250.0
 10
69000.0
 20
8250.0
 10
69500.0
 20
8250.0
 10
70000.0
 20
8250.0
 10
70500.0
 20
8250.0
 10
71000.0
 20
8250.0
 10
71500.0
 20
8250.0
 10
72000.0
 20
8250.0
 10
72500.0
 20
8250.0
 10
73000.0
 20
8250.0
 10
73500.0
 20
8250.0
 10
74000.0
 20
8250.0
 10
74500.0
 20
8250.0
 10
75000.0
 20
8250.0
 10
75500.0
 20
8250.0
 10
76000.0
 20
8250.0
 10
76500.0
 20
8249.999572844337
 10
77000.0
 20
8249.949208125821
 10
77500.0
 20
8249.818140662695
 10
78000.0
 20
8249.610803317026
 10
78500.0
 20
8249.331628947226
 10
79000.0
 20
8248.985050405017
 10
79500.0
 20
8248.575500532113
 10
80000.0
 20
8248.107412157091
 10
80500.0
 20
8247.5852180928
 10
81000.0
 20
8247.01335113451
 10
81500.0
 20
8246.396244059048
 10
82000.0
 20
8245.738329624979
 10
82500.0
 20
8245.044040573972
 10
83000.0
 20
8244.317809633258
 10
83500.0
 20
8243.558099682934
 10
84000.0
 20
8242.57573227869
 10
84500.0
 20
8241.283908771282
 10
85000.0
 20
8239.685510359674
 10
85500.0
 20
8237.789916872012
 10
86000.0
 20
8235.6063229964
 10
86500.0
 20
8233.143987085154
 10
87000.0
 20
8230.412468738774
 10
87500.0
 20
8227.421835614281
 10
88000.0
 20
8224.182839233916
 10
88500.0
 20
8220.707060459363
 10
89000.0
 20
8217.00702600171
 10
89500.0
 20
8213.096297863167
 10
90000.0
 20
8208.989537967102
 10
90500.0
 20
8204.677101788273
 10
91000.0
 20
8199.769900362855
 10
91500.0
 20
8194.132177875124
 10
92000.0
 20
8187.766028509602
 10
92500.0
 20
8180.675157011318
 10
93000.0
 20
8172.865768101701
 10
93500.0
 20
8164.347266940027
 10
94000.0
 20
8155.1327833479445
 10
94500.0
 20
8145.239537299258
 10
95000.0
 20
8134.689065782082
 10
95500.0
 20
8123.507331988007
 10
96000.0
 20
8111.724737316953
 10
96500.0
 20
8099.37605531897
 10
97000.0
 20
8086.500304776465
 10
97500.0
 20
8073.032826519139
 10
98000.0
 20
8058.027829853396
 10
98500.0
 20
8041.304057492649
 10
99000.0
 20
8022.925631461428
 10
99500.0
 20
8002.959167088255
 10
100000.0
 20
7981.474055480938
 10
100500.0
 20
7958.542699555698
 10
101000.0
 20
7934.240710058591
 10
101500.0
 20
7908.647067283348
 10
102000.0
 20
7881.844253391875
 10
102500.0
 20
7853.918359422937
 10
103000.0
 20
7824.959170262922
 10
103500.0
 20
7795.060230072462
 10
104000.0
 20
7764.318889930161
 10
104500.0
 20
7732.716280290065
 10
105000.0
 20
7699.588814657792
 10
105500.0
 20
7664.794555173399
 10
106000.0
 20
7628.29616552534
 10
106500.0
 20
7590.045782050746
 10
107000.0
 20
7549.984760478209
 10
107500.0
 20
7508.043319580081
 10
108000.0
 20
7464.14009231273
 10
108500.0
 20
7418.181594000919
 10
109000.0
 20
7370.061616512871
 10
109500.0
 20
7319.660557071458
 10
110000.0
 20
7266.844690252296
 10
110500.0
 20
7211.465391724177
 10
111000.0
 20
7153.3583222726265
 10
111500.0
 20
7091.120057581742
 10
112000.0
 20
7019.858231284803
 10
112500.0
 20
6939.585567128162
 10
113000.0
 20
6850.888280747867
 10
113500.0
 20
6754.363420810235
 10
114000.0
 20
6650.6198743290515
 10
114500.0
 20
6540.279336211878
 10
115000.0
 20
6423.9772757942
 10
115500.0
 20
6302.363931930812
 10
116000.0
 20
6176.105368145177
 10
116500.0
 20
6045.884620335468
 10
117000.0
 20
5912.402971573427
 10
117500.0
 20
5776.381391596059
 10
118000.0
 20
5638.5621826666165
 10
118500.0
 20
5497.802572236172
 10
119000.0
 20
5348.909435190289
 10
119500.0
 20
5191.378522422524
 10
120000.0
 20
5024.985636203832
 10
120500.0
 20
4849.426045339134
 10
121000.0
 20
4664.280275021328
 10
121500.0
 20
4468.9633733442115
 10
122000.0
 20
4262.646774784521
 10
122500.0
 20
4044.132051118277
 10
123000.0
 20
3811.6341456899245
 10
123500.0
 20
3562.3786978707103
 10
124000.0
 20
3291.7700032141456
 10
124500.0
 20
2991.385919959889
 10
125000.0
 20
2642.7783725394515
 10
125500.0
 20
2174.8052065189986
  0
TEXT
  5
A2
330
17
100
AcDbEntity
  8
09_РАЗМЕРЫ
100
AcDbText
 10
63000.0
 20
8500.0
 30
0.0
 40
400.0
  1
ВЛ 1.20
  7
ГОСТ
 72
1
 11
63000.0
 21
8500.0
 31
0.0
100
AcDbText
 73
2
  0
LWPOLYLINE
  5
A3
330
17
100
AcDbEntity
  8
01_ОБШИВКА
100
AcDbPolyline
 90
261
 70
0
 10
0.0
 20
5269.450440825517
 10
500.0
 20
5461.553548591391
 10
1000.0
 20
5641.943027457482
 10
1500.0
 20
5811.407445901722
 10
2000.0
 20
5970.510691923962
 10
2500.0
 20
6119.6519699845585
 10
3000.0
 20
6259.105910667319
 10
3500.0
 20
6389.050651060753
 10
4000.0
 20
6509.971205502094
 10
4500.0
 20
6623.204620634477
 10
5000.0
 20
6730.087854742507
 10
5500.0
 20
6831.854511544954
 10
6000.0
 20
6929.652983711053
 10
6500.0
 20
7024.559515315944
 10
7000.0
 20
7117.61599728333
 10
7500.0
 20
7212.2910278946
 10
8000.0
 20
7308.201229582829
 10
8500.0
 20
7402.097562046183
 10
9000.0
 20
7490.725143963021
 10
9500.0
 20
7570.813505029475
 10
10000.0
 20
7639.067085294679
 10
10500.0
 20
7692.306209055763
 10
11000.0
 20
7736.487370999807
 10
11500.0
 20
7776.560171567505
 10
12000.0
 20
7812.991572788473
 10
12500.0
 20
7846.1530451296885
 10
13000.0
 20
7876.3282742199235
 10
13500.0
 20
7903.714058217252
 10
14000.0
 20
7928.448444263918
 10
14500.0
 20
7951.642215006722
 10
15000.0
 20
7973.635130224701
 10
15500.0
 20
7994.204017322572
 10
16000.0
 20
8013.153397019055
 10
16500.0
 20
8030.31860309663
 10
17000.0
 20
8045.80651191201
 10
17500.0
 20
8060.354566859745
 10
18000.0
 20
8073.936694958764
 10
18500.0
 20
8086.4528210536655
 10
19000.0
 20
8097.802785546881
 10
19500.0
 20
8107.8863556467995
 10
20000.0
 20
8116.603234002989
 10
20500.0
 20
8123.853065205944
 10
21000.0
 20
8129.609319726809
 10
21500.0
 20
8134.960289141716
 10
22000.0
 20
8140.283044997394
 10
22500.0
 20
8145.559137572956
 10
23000.0
 20
8150.770129121982
 10
23500.0
 20
8155.897591798995
 10
24000.0
 20
8160.923105591935
 10
24500.0
 20
8165.828256299822
 10
25000.0
 20
8170.594633591879
 10
25500.0
 20
8175.2038291811505
 10
26000.0
 20
8179.637435141515
 10
26500.0
 20
8183.877042392545
 10
27000.0
 20
8187.904239371395
 10
27500.0
 20
8191.700610905212
 10
28000.0
 20
8195.266655203692
 10
28500.0
 20
8198.759357537061
 10
29000.0
 20
8202.204064180429
 10
29500.0
 20
8205.583635788014
 10
30000.0
 20
8208.880935116676
 10
30500.0
 20
8212.078826243202
 10
31000.0
 20
8215.16017383097
 10
31500.0
 20
8218.107842464207
 10
32000.0
 20
8220.904696065272
 10
32500.0
 20
8223.533597406991
 10
33000.0
 20
8225.97740772838
 10
33500.0
 20
8228.218986457647
 10
34000.0
 20
8230.24119104172
 10
34500.0
 20
8232.026876876116
 10
35000.0
 20
8233.58808538254
 10
35500.0
 20
8235.086105873439
 10
36000.0
 20
8236.541434677456
 10
36500.0
 20
8237.945747783193
 10
37000.0
 20
8239.29072114928
 10
37500.0
 20
8240.56803064956
 10
38000.0
 20
8241.769352028374
 10
38500.0
 20
8242.886360866934
 10
39000.0
 20
8243.91073256136
 10
39500.0
 20
8244.834142312438
 10
40000.0
 20
8245.648265126609
 10
40500.0
 20
8246.344775827043
 10
41000.0
 20
8246.915349072942
 10
41500.0
 20
8247.351659384623
 10
42000.0
 20
8247.669945416308
 10
42500.0
 20
8247.96571895793
 10
43000.0
 20
8248.248075870459
 10
43500.0
 20
8248.515372765487
 10
44000.0
 20
8248.765966252944
 10
44500.0
 20
8248.998212940884
 10
45000.0
 20
8249.210469435393
 10
45500.0
 20
8249.401092340606
 10
46000.0
 20
8249.568438258812
 10
46500.0
 20
8249.710863790668
 10
47000.0
 20
8249.826725535459
 10
47500.0
 20
8249.914380091419
 10
48000.0
 20
8249.972184056061
 10
48500.0
 20
8249.998494026495
 10
49000.0
 20
8250.0
 10
49500.0
 20
8250.0
 10
50000.0
 20
8250.0
 10
50500.0
 20
8250.0
 10
51000.0
 20
8250.0
 10
51500.0
 20
8250.0
 10
52000.0
 20
8250.0
 10
52500.0
 20
8250.0
 10
53000.0
 20
8250.0
 10
53500.0
 20
8250.0
 10
54000.0
 20
8250.0
 10
54500.0
 20
8250.0
 10
55000.0
 20
8250.0
 10
55500.0
 20
8250.0
 10
56000.0
 20
8250.0
 10
56500.0
 20
8250.0
 10
57000.0
 20
8250.0
 10
57500.0
 20
8250.0
 10
58000.0
 20
8250.0
 10
58500.0
 20
8250.0
 10
59000.0
 20
8250.0
 10
59500.0
 20
8250.0
 10
60000.0
 20
8250.0
 10
60500.0
 20
8250.0
 10
61000.0
 20
8250.0
 10
61500.0
 20
8250.0
 10
62000.0
 20
8250.0
 10
62500.0
 20
8250.0
 10
63000.0
 20
8250.0
 10
63500.0
 20
8250.0
 10
64000.0
 20
8250.0
 10
64500.0
 20
8250.0
 10
65000.0
 20
8250.0
 10
65500.0
 20
8250.0
 10
66000.0
 20
8250.0
 10
66500.0
 20
8250.0
 10
67000.0
 20
8250.0
 10
67500.0
 20
8250.0
 10
68000.0
 20
8250.0
 10
68500.0
 20
8250.0
 10
69000.0
 20
8250.0
 10
69500.0
 20
8250.0
 10
70000.0
 20
8250.0
 10
70500.0
 20
8250.0
 10
71000.0
 20
8250.0
 10
71500.0
 20
8250.0
 10
72000.0
 20
8250.0
 10
72500.0
 20
8250.0
 10
73000.0
 20
8250.0
 10
73500.0
 20
8250.0
 10
74000.0
 20
8250.0
 10
74500.0
 20
8250.0
 10
75000.0
 20
8250.0
 10
75500.0
 20
8250.0
 10
76000.0
 20
8250.0
 10
76500.0
 20
8249.99965827547
 10
77000.0
 20
8249.959366500658
 10
77500.0
 20
8249.854512530155
 10
78000.0
 20
8249.68864265362
 10
78500.0
 20
8249.46530315778
 10
79000.0
 20
8249.188040324014
 10
79500.0
 20
8248.860400425692
 10
80000.0
 20
8248.485929725673
 10
80500.0
 20
8248.06817447424
 10
81000.0
 20
8247.61068090761
 10
81500.0
 20
8247.116995247237
 10
82000.0
 20
8246.590663699983
 10
82500.0
 20
8246.035232459179
 10
83000.0
 20
8245.454247706606
 10
83500.0
 20
8244.846479746346
 10
84000.0
 20
8244.06058582295
 10
84500.0
 20
8243.03380288021
 10
85000.0
 20
8241.780987686938
 10
85500.0
 20
8240.316996193353
 10
86000.0
 20
8238.656683389481
 10
86500.0
 20
8236.814903196013
 10
87000.0
 20
8234.80650840234
 10
87500.0
 20
8232.646350662291
 10
88000.0
 20
8230.349280554146
 10
88500.0
 20
8227.930147707997
 10
89000.0
 20
8225.40380100022
 10
89500.0
 20
8222.785088811921
 10
90000.0
 20
8220.08885934558
 10
90500.0
 20
8217.313570574546
 10
91000.0
 20
8214.21789631567
 10
91500.0
 20
8210.735364886317
 10
92000.0
 20
8206.889435655987
 10
92500.0
 20
8202.703557171144
 10
93000.0
 20
8198.201167076633
 10
93500.0
 20
8193.405692413231
 10
94000.0
 20
8188.340550327726
 10
94500.0
 20
8183.029149214893
 10
95000.0
 20
8177.4948902952365
 10
95500.0
 20
8171.76116961804
 10
96000.0
 20
8165.851380466167
 10
96500.0
 20
8159.788916127255
 10
97000.0
 20
8153.597172985464
 10
97500.0
 20
8147.22358364156
 10
98000.0
 20
8140.007894848873
 10
98500.0
 20
8131.857416923438
 10
99000.0
 20
8122.853860851452
 10
99500.0
 20
8113.078909117842
 10
100000.0
 20
8102.614223309736
 10
100500.0
 20
8091.541453298273
 10
101000.0
 20
8079.866744084928
 10
101500.0
 20
8067.13772255984
 10
102000.0
 20
8053.3100626394935
 10
102500.0
 20
8038.443327190077
 10
103000.0
 20
8022.602245473569
 10
103500.0
 20
8005.856476762915
 10
104000.0
 20
7988.2803799848925
 10
104500.0
 20
7969.854887260322
 10
105000.0
 20
7950.048113347228
 10
105500.0
 20
7928.770233412797
 10
106000.0
 20
7906.014185609373
 10
106500.0
 20
7881.760678414361
 10
107000.0
 20
7855.97823677676
 10
107500.0
 20
7828.623113279193
 10
108000.0
 20
7799.6390831216
 10
108500.0
 20
7768.9571396591755
 10
109000.0
 20
7736.495105997247
 10
109500.0
 20
7702.157177588454
 10
110000.0
 20
7665.833410749663
 10
110500.0
 20
7627.399172391198
 10
111000.0
 20
7586.714566910129
 10
111500.0
 20
7542.429343075277
 10
112000.0
 20
7489.7769397945185
 10
112500.0
 20
7428.776618413632
 10
113000.0
 20
7360.012238658123
 10
113500.0
 20
7284.082480423964
 10
114000.0
 20
7201.601290675365
 10
114500.0
 20
7113.198309716168
 10
115000.0
 20
7019.51928904947
 10
115500.0
 20
6921.226510137297
 10
116000.0
 20
6818.999210738175
 10
116500.0
 20
6713.534022972066
 10
117000.0
 20
6605.5454246772015
 10
117500.0
 20
6495.766202817128
 10
118000.0
 20
6384.947924498837
 10
118500.0
 20
6272.20906115893
 10
119000.0
 20
6153.208205378083
 10
119500.0
 20
6027.746054062851
 10
120000.0
 20
5895.928627226552
 10
120500.0
 20
5757.872364231675
 10
121000.0
 20
5613.701564042625
 10
121500.0
 20
5463.545304614856
 10
122000.0
 20
5307.533783950886
 10
122500.0
 20
5145.793984885886
 10
123000.0
 20
4978.4445084046565
 10
123500.0
 20
4805.589337490829
 10
124000.0
 20
4627.310170691643
 10
124500.0
 20
4443.656777245668
 10
125000.0
 20
4254.6345311282585
 10
125500.0
 20
4056.9252394395435
 10
126000.0
 20
3844.047129048733
 10
126500.0
 20
3616.134048719973
 10
127000.0
 20
3373.1617062286955
 10
127500.0
 20
3114.5732437006964
 10
128000.0
 20
2838.9294539815255
 10
128500.0
 20
2543.1493972938392
 10
129000.0
 20
2214.389875686754
 10
129500.0
 20
1821.28095753714
 10
130000.0
 20
1273.3183833190203
  0
TEXT
  5
A4
330
17
100
AcDbEntity
  8
09_РАЗМЕРЫ
100
AcDbText
 10
65000.0
 20
8500.0
 30
0.0
 40
400.0
  1
ВЛ 1.80
  7
ГОСТ
 72
1
 11
65000.0
 21
8500.0
 31
0.0
100
AcDbText
 73
2
  0
LWPOLYLINE
  5
A5
330
17
100
AcDbEntity
  8
01_ОБШИВКА
100
AcDbPolyline
 90
266
 70
0
 10
0.0
 20
5746.576260583922
 10
500.0
 20
5906.223223822309
 10
1000.0
 20
6057.808901354263
 10
1500.0
 20
6201.4348030706315
 10
2000.0
 20
6337.145281674422
 10
2500.0
 20
6464.936282352997
 10
3000.0
 20
6584.762139438638
 10
3500.0
 20
6696.5414074340315
 10
4000.0
 20
6800.613108213554
 10
4500.0
 20
6898.113952132504
 10
5000.0
 20
6990.136792344485
 10
5500.0
 20
7077.711059648968
 10
6000.0
 20
7161.811372929318
 10
6500.0
 20
7243.363885065375
 10
7000.0
 20
7323.280797928467
 10
7500.0
 20
7405.111327212964
 10
8000.0
 20
7488.54841024043
 10
8500.0
 20
7570.277155583399
 10
9000.0
 20
7646.945344535348
 10
9500.0
 20
7715.154351909564
 10
10000.0
 20
7771.447692818341
 10
10500.0
 20
7812.4602675067445
 10
11000.0
 20
7844.707711500772
 10
11500.0
 20
7873.428560334703
 10
12000.0
 20
7899.040664776583
 10
12500.0
 20
7922.34963195525
 10
13000.0
 20
7943.576552202893
 10
13500.0
 20
7962.83709693851
 10
14000.0
 20
7980.280032678184
 10
14500.0
 20
7997.031080124523
 10
15000.0
 20
8013.52026771387
 10
15500.0
 20
8029.637739331708
 10
16000.0
 20
8045.27343982973
 10
16500.0
 20
8060.317148722115
 10
17000.0
 20
8074.658507982001
 10
17500.0
 20
8088.187044821497
 10
18000.0
 20
8100.792190209568
 10
18500.0
 20
8112.363293772679
 10
19000.0
 20
8122.789635632827
 10
19500.0
 20
8131.960435665883
 10
20000.0
 20
8139.764860609262
 10
20500.0
 20
8146.092029411866
 10
21000.0
 20
8150.906255497394
 10
21500.0
 20
8155.310646226301
 10
22000.0
 20
8159.6918143334615
 10
22500.0
 20
8164.034573826708
 10
23000.0
 20
8168.3237485700765
 10
23500.0
 20
8172.5441705770745
 10
24000.0
 20
8176.680678308918
 10
24500.0
 20
8180.718115009924
 10
25000.0
 20
8184.641327109983
 10
25500.0
 20
8188.435162721255
 10
26000.0
 20
8192.084470252908
 10
26500.0
 20
8195.574097163992
 10
27000.0
 20
8198.888888870277
 10
27500.0
 20
8202.013687816137
 10
28000.0
 20
8204.948904078698
 10
28500.0
 20
8207.823752462817
 10
29000.0
 20
8210.659095524503
 10
29500.0
 20
8213.44082584325
 10
30000.0
 20
8216.154837729233
 10
30500.0
 20
8218.787026579066
 10
31000.0
 20
8221.32328827219
 10
31500.0
 20
8223.749518622892
 10
32000.0
 20
8226.051612900674
 10
32500.0
 20
8228.215465428859
 10
33000.0
 20
8230.226969268282
 10
33500.0
 20
8232.072015989312
 10
34000.0
 20
8233.73649553151
 10
34500.0
 20
8235.206296145925
 10
35000.0
 20
8236.491329144324
 10
35500.0
 20
8237.724351994999
 10
36000.0
 20
8238.922235255937
 10
36500.0
 20
8240.07812742123
 10
37000.0
 20
8241.185176960274
 10
37500.0
 20
8242.236532272696
 10
38000.0
 20
8243.225341651527
 10
38500.0
 20
8244.144753255518
 10
39000.0
 20
8244.987915091075
 10
39500.0
 20
8245.747975003826
 10
40000.0
 20
8246.418080679434
 10
40500.0
 20
8246.991379652703
 10
41000.0
 20
8247.46101932349
 10
41500.0
 20
8247.82014697732
 10
42000.0
 20
8248.082128674168
 10
42500.0
 20
8248.325580307614
 10
43000.0
 20
8248.557988694085
 10
43500.0
 20
8248.77800115819
 10
44000.0
 20
8248.984265023166
 10
44500.0
 20
8249.175427610702
 10
45000.0
 20
8249.350136240873
 10
45500.0
 20
8249.507038232146
 10
46000.0
 20
8249.644780901466
 10
46500.0
 20
8249.76201156444
 10
47000.0
 20
8249.857377535543
 10
47500.0
 20
8249.929526128384
 10
48000.0
 20
8249.97710465598
 10
48500.0
 20
8249.998760431012
 10
49000.0
 20
8250.0
 10
49500.0
 20
8250.0
 10
50000.0
 20
8250.0
 10
50500.0
 20
8250.0
 10
51000.0
 20
8250.0
 10
51500.0
 20
8250.0
 10
52000.0
 20
8250.0
 10
52500.0
 20
8250.0
 10
53000.0
 20
8250.0
 10
53500.0
 20
8250.0
 10
54000.0
 20
8250.0
 10
54500.0
 20
8250.0
 10
55000.0
 20
8250.0
 10
55500.0
 20
8250.0
 10
56000.0
 20
8250.0
 10
56500.0
 20
8250.0
 10
57000.0
 20
8250.0
 10
57500.0
 20
8250.0
 10
58000.0
 20
8250.0
 10
58500.0
 20
8250.0
 10
59000.0
 20
8250.0
 10
59500.0
 20
8250.0
 10
60000.0
 20
8250.0
 10
60500.0
 20
8250.0
 10
61000.0
 20
8250.0
 10
61500.0
 20
8250.0
 10
62000.0
 20
8250.0
 10
62500.0
 20
8250.0
 10
63000.0
 20
8250.0
 10
63500.0
 20
8250.0
 10
64000.0
 20
8250.0
 10
64500.0
 20
8250.0
 10
65000.0
 20
8250.0
 10
65500.0
 20
8250.0
 10
66000.0
 20
8250.0
 10
66500.0
 20
8250.0
 10
67000.0
 20
8250.0
 10
67500.0
 20
8250.0
 10
68000.0
 20
8250.0
 10
68500.0
 20
8250.0
 10
69000.0
 20
8250.0
 10
69500.0
 20
8250.0
 10
70000.0
 20
8250.0
 10
70500.0
 20
8250.0
 10
71000.0
 20
8250.0
 10
71500.0
 20
8250.0
 10
72000.0
 20
8250.0
 10
72500.0
 20
8250.0
 10
73000.0
 20
8250.0
 10
73500.0
 20
8250.0
 10
74000.0
 20
8250.0
 10
74500.0
 20
8250.0
 10
75000.0
 20
8250.0
 10
75500.0
 20
8250.0
 10
76000.0
 20
8250.0
 10
76500.0
 20
8249.999718726041
 10
77000.0
 20
8249.966554507435
 10
77500.0
 20
8249.880249051403
 10
78000.0
 20
8249.743721314133
 10
78500.0
 20
8249.559890249402
 10
79000.0
 20
8249.331674806588
 10
79500.0
 20
8249.06199392847
 10
80000.0
 20
8248.753766549182
 10
80500.0
 20
8248.409911592502
 10
81000.0
 20
8248.03334797063
 10
81500.0
 20
8247.62699458362
 10
82000.0
 20
8247.193770319507
 10
82500.0
 20
8246.736594055197
 10
83000.0
 20
8246.258384658084
 10
83500.0
 20
8245.758129963668
 10
84000.0
 20
8245.111259529225
 10
84500.0
 20
8244.266112991663
 10
85000.0
 20
8243.234918979057
 10
85500.0
 20
8242.029905445703
 10
86000.0
 20
8240.663299555545
 10
86500.0
 20
8239.147327592373
 10
87000.0
 20
8237.494214908791
 10
87500.0
 20
8235.716185922725
 10
88000.0
 20
8233.825464166819
 10
88500.0
 20
8231.834272393253
 10
89000.0
 20
8229.754832733825
 10
89500.0
 20
8227.599366912682
 10
90000.0
 20
8225.380096506933
 10
90500.0
 20
8223.095752272198
 10
91000.0
 20
8220.54769827519
 10
91500.0
 20
8217.681221577
 10
92000.0
 20
8214.51563161887
 10
92500.0
 20
8211.07022893359
 10
93000.0
 20
8207.364305080811
 10
93500.0
 20
8203.417142891965
 10
94000.0
 20
8199.24801705472
 10
94500.0
 20
8194.876195052953
 10
95000.0
 20
8190.320938465391
 10
95500.0
 20
8185.601504614315
 10
96000.0
 20
8180.737148544966
 10
96500.0
 20
8175.747125306513
 10
97000.0
 20
8170.650692496878
 10
97500.0
 20
8165.397433304307
 10
98000.0
 20
8159.38026737768
 10
98500.0
 20
8152.514007883044
 10
99000.0
 20
8144.873560534064
 10
99500.0
 20
8136.533807584977
 10
100000.0
 20
8127.569614089003
 10
100500.0
 20
8118.055835455918
 10
101000.0
 20
8108.067326243681
 10
101500.0
 20
8097.678950075779
 10
102000.0
 20
8086.965590537076
 10
102500.0
 20
8076.002162866565
 10
103000.0
 20
8064.863626235098
 10
103500.0
 20
8053.624996370193
 10
104000.0
 20
8042.361358267961
 10
104500.0
 20
8031.065804214878
 10
105000.0
 20
8019.302815205617
 10
105500.0
 20
8007.018825991139
 10
106000.0
 20
7994.201142080548
 10
106500.0
 20
7980.190547350113
 10
107000.0
 20
7964.730815829874
 10
107500.0
 20
7947.794054899278
 10
108000.0
 20
7929.338427099786
 10
108500.0
 20
7909.308044032098
 10
109000.0
 20
7887.632745135768
 10
109500.0
 20
7864.227782402069
 10
110000.0
 20
7838.993431119753
 10
110500.0
 20
7811.814546492445
 10
111000.0
 20
7782.560086213248
 10
111500.0
 20
7749.886321110731
 10
112000.0
 20
7709.019136216109
 10
112500.0
 20
7659.96714455709
 10
113000.0
 20
7603.305081372651
 10
113500.0
 20
7539.623339663209
 10
114000.0
 20
7469.528013094392
 10
114500.0
 20
7393.640932115021
 10
115000.0
 20
7312.599697164222
 10
115500.0
 20
7227.05771045554
 10
116000.0
 20
7137.68420570393
 10
116500.0
 20
7045.1642731701
 10
117000.0
 20
6950.198875417882
 10
117500.0
 20
6853.504847109422
 10
118000.0
 20
6755.814869906876
 10
118500.0
 20
6656.31920122012
 10
119000.0
 20
6550.948503862335
 10
119500.0
 20
6439.549266179029
 10
120000.0
 20
6322.263976821037
 10
120500.0
 20
6199.253599448443
 10
121000.0
 20
6070.696049849686
 10
121500.0
 20
5936.784452114242
 10
122000.0
 20
5797.7252084501315
 10
122500.0
 20
5653.735911350635
 10
123000.0
 20
5505.043120101476
 10
123500.0
 20
5351.880016012202
 10
124000.0
 20
5194.4839420562885
 10
124500.0
 20
5033.093822438783
 10
125000.0
 20
4867.947445353489
 10
125500.0
 20
4696.269962377348
 10
126000.0
 20
4512.633657524562
 10
126500.0
 20
4318.027102598762
 10
127000.0
 20
4113.576395814792
 10
127500.0
 20
3900.386052875015
 10
128000.0
 20
3679.560087963151
 10
128500.0
 20
3452.2081450067203
 10
129000.0
 20
3215.4221067309145
 10
129500.0
 20
2962.9267675813203
 10
130000.0
 20
2694.931955545797
 10
130500.0
 20
2411.5440907831244
 10
131000.0
 20
2112.256519325548
 10
131500.0
 20
1794.9325543533046
 10
132000.0
 20
1452.6993558574643
 10
132500.0
 20
1052.9019696423702
  0
TEXT
  5
A6
330
17
100
AcDbEntity
  8
09_РАЗМЕРЫ
100
AcDbText
 10
66500.0
 20
8500.0
 30
0.0
 40
400.0
  1
ВЛ 2.22
  7
ГОСТ
 72
1
 11
66500.0
 21
8500.0
 31
0.0
100
AcDbText
 73
2
  0
LWPOLYLINE
  5
A7
330
17
100
AcDbEntity
  8
01_ОБШИВКА
100
AcDbPolyline
 90
276
 70
0
 10
0.0
 20
6253.16050116975
 10
500.0
 20
6379.4860095455515
 10
1000.0
 20
6499.7911008800775
 10
1500.0
 20
6613.905462796156
 10
2000.0
 20
6721.637146004664
 10
2500.0
 20
6822.773009832473
 10
3000.0
 20
6917.078963077852
 10
3500.0
 20
7004.300853938555
 10
4000.0
 20
7084.787409309353
 10
4500.0
 20
7160.339564103394
 10
5000.0
 20
7232.212167182017
 10
5500.0
 20
7301.178876607838
 10
6000.0
 20
7368.013456773927
 10
6500.0
 20
7433.489772325618
 10
7000.0
 20
7498.413691187674
 10
7500.0
 20
7566.469769250361
 10
8000.0
 20
7637.350339642388
 10
8500.0
 20
7707.591047533913
 10
9000.0
 20
7773.72774997617
 10
9500.0
 20
7832.296497388583
 10
10000.0
 20
7879.833513346147
 10
10500.0
 20
7913.040303883463
 10
11000.0
 20
7938.492323284443
 10
11500.0
 20
7961.3348463502325
 10
12000.0
 20
7981.864835120981
 10
12500.0
 20
8000.380906555709
 10
13000.0
 20
8017.183039584425
 10
13500.0
 20
8032.5721839364505
 10
14000.0
 20
8046.8684077579555
 10
14500.0
 20
8060.88327866042
 10
15000.0
 20
8074.830802768124
 10
15500.0
 20
8088.581496773894
 10
16000.0
 20
8102.0057564657845
 10
16500.0
 20
8114.973877196166
 10
17000.0
 20
8127.356070766931
 10
17500.0
 20
8139.022479267405
 10
18000.0
 20
8149.843186323199
 10
18500.0
 20
8159.688226147728
 10
19000.0
 20
8168.427590733316
 10
19500.0
 20
8175.93123547528
 10
20000.0
 20
8182.069083489514
 10
20500.0
 20
8186.7110288623835
 10
21000.0
 20
8189.804659863404
 10
21500.0
 20
8192.480144570858
 10
22000.0
 20
8195.141522498696
 10
22500.0
 20
8197.779568786478
 10
23000.0
 20
8200.385064560993
 10
23500.0
 20
8202.948795899496
 10
24000.0
 20
8205.461552795969
 10
24500.0
 20
8207.91412814991
 10
25000.0
 20
8210.297316795939
 10
25500.0
 20
8212.601914590576
 10
26000.0
 20
8214.818717570757
 10
26500.0
 20
8216.938521196273
 10
27000.0
 20
8218.952119685697
 10
27500.0
 20
8220.850305452606
 10
28000.0
 20
8222.633327601847
 10
28500.0
 20
8224.37967876853
 10
29000.0
 20
8226.102032090213
 10
29500.0
 20
8227.791817894009
 10
30000.0
 20
8229.440467558337
 10
30500.0
 20
8231.0394131216
 10
31000.0
 20
8232.580086915483
 10
31500.0
 20
8234.053921232104
 10
32000.0
 20
8235.452348032635
 10
32500.0
 20
8236.766798703495
 10
33000.0
 20
8237.98870386419
 10
33500.0
 20
8239.109493228823
 10
34000.0
 20
8240.12059552086
 10
34500.0
 20
8241.013438438058
 10
35000.0
 20
8241.79404269127
 10
35500.0
 20
8242.543052936719
 10
36000.0
 20
8243.270717338728
 10
36500.0
 20
8243.972873891596
 10
37000.0
 20
8244.64536057464
 10
37500.0
 20
8245.28401532478
 10
38000.0
 20
8245.884676014188
 10
38500.0
 20
8246.443180433469
 10
39000.0
 20
8246.955366280681
 10
39500.0
 20
8247.417071156218
 10
40000.0
 20
8247.824132563304
 10
40500.0
 20
8248.17238791352
 10
41000.0
 20
8248.457674536472
 10
41500.0
 20
8248.675829692313
 10
42000.0
 20
8248.834972708155
 10
42500.0
 20
8248.982859478967
 10
43000.0
 20
8249.12403793523
 10
43500.0
 20
8249.257686382745
 10
44000.0
 20
8249.382983126472
 10
44500.0
 20
8249.49910647044
 10
45000.0
 20
8249.605234717697
 10
45500.0
 20
8249.700546170303
 10
46000.0
 20
8249.784219129406
 10
46500.0
 20
8249.855431895334
 10
47000.0
 20
8249.91336276773
 10
47500.0
 20
8249.957190045709
 10
48000.0
 20
8249.986092028032
 10
48500.0
 20
8249.999247013247
 10
49000.0
 20
8250.0
 10
49500.0
 20
8250.0
 10
50000.0
 20
8250.0
 10
50500.0
 20
8250.0
 10
51000.0
 20
8250.0
 10
51500.0
 20
8250.0
 10
52000.0
 20
8250.0
 10
52500.0
 20
8250.0
 10
53000.0
 20
8250.0
 10
53500.0
 20
8250.0
 10
54000.0
 20
8250.0
 10
54500.0
 20
8250.0
 10
55000.0
 20
8250.0
 10
55500.0
 20
8250.0
 10
56000.0
 20
8250.0
 10
56500.0
 20
8250.0
 10
57000.0
 20
8250.0
 10
57500.0
 20
8250.0
 10
58000.0
 20
8250.0
 10
58500.0
 20
8250.0
 10
59000.0
 20
8250.0
 10
59500.0
 20
8250.0
 10
60000.0
 20
8250.0
 10
60500.0
 20
8250.0
 10
61000.0
 20
8250.0
 10
61500.0
 20
8250.0
 10
62000.0
 20
8250.0
 10
62500.0
 20
8250.0
 10
63000.0
 20
8250.0
 10
63500.0
 20
8250.0
 10
64000.0
 20
8250.0
 10
64500.0
 20
8250.0
 10
65000.0
 20
8250.0
 10
65500.0
 20
8250.0
 10
66000.0
 20
8250.0
 10
66500.0
 20
8250.0
 10
67000.0
 20
8250.0
 10
67500.0
 20
8250.0
 10
68000.0
 20
8250.0
 10
68500.0
 20
8250.0
 10
69000.0
 20
8250.0
 10
69500.0
 20
8250.0
 10
70000.0
 20
8250.0
 10
70500.0
 20
8250.0
 10
71000.0
 20
8250.0
 10
71500.0
 20
8250.0
 10
72000.0
 20
8250.0
 10
72500.0
 20
8250.0
 10
73000.0
 20
8250.0
 10
73500.0
 20
8250.0
 10
74000.0
 20
8250.0
 10
74500.0
 20
8250.0
 10
75000.0
 20
8250.0
 10
75500.0
 20
8250.0
 10
76000.0
 20
8250.0
 10
76500.0
 20
8249.999829137736
 10
77000.0
 20
8249.979683250329
 10
77500.0
 20
8249.927256265079
 10
78000.0
 20
8249.84432132681
 10
78500.0
 20
8249.73265157889
 10
79000.0
 20
8249.594020162007
 10
79500.0
 20
8249.430200212846
 10
80000.0
 20
8249.242964862835
 10
80500.0
 20
8249.034087237118
 10
81000.0
 20
8248.805340453804
 10
81500.0
 20
8248.558497623619
 10
82000.0
 20
8248.295331849991
 10
82500.0
 20
8248.017616229588
 10
83000.0
 20
8247.727123853301
 10
83500.0
 20
8247.423239873171
 10
84000.0
 20
8247.030292911475
 10
84500.0
 20
8246.516901440105
 10
85000.0
 20
8245.890493843468
 10
85500.0
 20
8245.158498096676
 10
86000.0
 20
8244.32834169474
 10
86500.0
 20
8243.407451598006
 10
87000.0
 20
8242.40325420117
 10
87500.0
 20
8241.323175331145
 10
88000.0
 20
8240.174640277071
 10
88500.0
 20
8238.965073853999
 10
89000.0
 20
8237.70190050011
 10
89500.0
 20
8236.39254440596
 10
90000.0
 20
8235.04442967279
 10
90500.0
 20
8233.656785287274
 10
91000.0
 20
8232.108948157833
 10
91500.0
 20
8230.367682443157
 10
92000.0
 20
8228.444717827993
 10
92500.0
 20
8226.351778585573
 10
93000.0
 20
8224.100583538317
 10
93500.0
 20
8221.702846206616
 10
94000.0
 20
8219.170275163864
 10
94500.0
 20
8216.514574607447
 10
95000.0
 20
8213.747445147617
 10
95500.0
 20
8210.88058480902
 10
96000.0
 20
8207.925690233084
 10
96500.0
 20
8204.894458063627
 10
97000.0
 20
8201.798586492732
 10
97500.0
 20
8198.591586711342
 10
98000.0
 20
8194.763497541488
 10
98500.0
 20
8190.242835946643
 10
99000.0
 20
8185.092077953618
 10
99500.0
 20
8179.373685338588
 10
100000.0
 20
8173.150109428831
 10
100500.0
 20
8166.483795693626
 10
101000.0
 20
8159.43718908482
 10
101500.0
 20
8152.072740061176
 10
102000.0
 20
8144.452911207182
 10
102500.0
 20
8136.6401843358835
 10
103000.0
 20
8128.697067947117
 10
103500.0
 20
8120.686104896544
 10
104000.0
 20
8112.669880117622
 10
104500.0
 20
8104.658463277378
 10
105000.0
 20
8096.372638750905
 10
105500.0
 20
8087.75482610252
 10
106000.0
 20
8078.797146045626
 10
106500.0
 20
8069.491840873424
 10
107000.0
 20
8059.831314861407
 10
107500.0
 20
8049.80817426835
 10
108000.0
 20
8039.415265435689
 10
108500.0
 20
8028.645709318555
 10
109000.0
 20
8017.492930670293
 10
109500.0
 20
8005.950680048258
 10
110000.0
 20
7994.013046815124
 10
110500.0
 20
7981.674461380048
 10
111000.0
 20
7968.9296850625105
 10
111500.0
 20
7954.560567855614
 10
112000.0
 20
7933.811169043917
 10
112500.0
 20
7906.173049195065
 10
113000.0
 20
7870.881349894191
 10
113500.0
 20
7828.452012045002
 10
114000.0
 20
7779.486023190833
 10
114500.0
 20
7724.598738355338
 10
115000.0
 20
7664.419490612668
 10
115500.0
 20
7599.5912169387175
 10
116000.0
 20
7530.770089685854
 10
116500.0
 20
7458.625143992616
 10
117000.0
 20
7383.83789125784
 10
117500.0
 20
7307.101908456758
 10
118000.0
 20
7229.122392540921
 10
118500.0
 20
7149.166886156561
 10
119000.0
 20
7063.466986484202
 10
119500.0
 20
6971.895845658789
 10
120000.0
 20
6874.607653446931
 10
120500.0
 20
6771.779502004009
 10
121000.0
 20
6663.609768186959
 10
121500.0
 20
6550.31631398833
 10
122000.0
 20
6432.134544746047
 10
122500.0
 20
6309.315359977911
 10
123000.0
 20
6182.123026567041
 10
123500.0
 20
6050.832998674203
 10
124000.0
 20
5915.7297032209435
 10
124500.0
 20
5777.104304067737
 10
125000.0
 20
5635.252452040942
 10
125500.0
 20
5487.507265977719
 10
126000.0
 20
5328.684865393148
 10
126500.0
 20
5159.9914886156885
 10
127000.0
 20
4982.7699421897705
 10
127500.0
 20
4798.363174428935
 10
128000.0
 20
4608.156283945604
 10
128500.0
 20
4413.605011137016
 10
129000.0
 20
4213.32332591732
 10
129500.0
 20
4003.2620708071922
 10
130000.0
 20
3784.102531848437
 10
130500.0
 20
3556.8711219585794
 10
131000.0
 20
3322.8925354269672
 10
131500.0
 20
3083.816508409664
 10
132000.0
 20
2841.623126746085
 10
132500.0
 20
2586.2426951064845
 10
133000.0
 20
2307.701549723951
 10
133500.0
 20
2017.0764550132576
 10
134000.0
 20
1725.2673261314335
 10
134500.0
 20
1443.2934886052797
 10
135000.0
 20
1182.7197660121772
 10
135500.0
 20
955.582839122639
 10
136000.0
 20
755.660976045161
 10
136500.0
 20
565.0918096993494
 10
137000.0
 20
378.1002419485255
 10
137500.0
 20
152.18427587876133
  0
TEXT
  5
A8
330
17
100
AcDbEntity
  8
09_РАЗМЕРЫ
100
AcDbText
 10
69000.0
 20
8500.0
 30
0.0
 40
400.0
  1
ВЛ 3.00
  7
ГОСТ
 72
1
 11
69000.0
 21
8500.0
 31
0.0
100
AcDbText
 73
2
  0
LWPOLYLINE
  5
A9
330
17
100
AcDbEntity
  8
01_ОБШИВКА
100
AcDbPolyline
 90
279
 70
0
 10
0.0
 20
6450.625638146595
 10
500.0
 20
6561.084009410253
 10
1000.0
 20
6667.688408584286
 10
1500.0
 20
6770.078286829791
 10
2000.0
 20
6867.893105769338
 10
2500.0
 20
6960.772337451961
 10
3000.0
 20
7048.355464313291
 10
3500.0
 20
7130.282880065918
 10
4000.0
 20
7206.798027884526
 10
4500.0
 20
7278.83353346406
 10
5000.0
 20
7347.168196541757
 10
5500.0
 20
7412.580872801091
 10
6000.0
 20
7475.850471090764
 10
6500.0
 20
7537.755950385614
 10
7000.0
 20
7599.108006165936
 10
7500.0
 20
7663.572000763269
 10
8000.0
 20
7730.834902062605
 10
8500.0
 20
7797.445866286748
 10
9000.0
 20
7859.954155599033
 10
9500.0
 20
7914.909128846892
 10
10000.0
 20
7958.860231455545
 10
10500.0
 20
7988.518036900266
 10
11000.0
 20
8010.273015022536
 10
11500.0
 20
8029.269597730325
 10
12000.0
 20
8045.950100142402
 10
12500.0
 20
8060.757664836969
 10
13000.0
 20
8074.136115377721
 10
13500.0
 20
8086.529760728009
 10
14000.0
 20
8098.39121380103
 10
14500.0
 20
8110.288966014222
 10
15000.0
 20
8122.269876063022
 10
15500.0
 20
8134.189274084956
 10
16000.0
 20
8145.90242976517
 10
16500.0
 20
8157.26456257096
 10
17000.0
 20
8168.1308501943895
 10
17500.0
 20
8178.356435471237
 10
18000.0
 20
8187.796432005417
 10
18500.0
 20
8196.305928694757
 10
19000.0
 20
8203.739993326535
 10
19500.0
 20
8209.95367538952
 10
20000.0
 20
8214.802008232777
 10
20500.0
 20
8218.140010690602
 10
21000.0
 20
8219.902329931701
 10
21500.0
 20
8221.240072285429
 10
22000.0
 20
8222.570761249348
 10
22500.0
 20
8223.889784393237
 10
23000.0
 20
8225.192532280495
 10
23500.0
 20
8226.474397949749
 10
24000.0
 20
8227.730776397984
 10
24500.0
 20
8228.957064074957
 10
25000.0
 20
8230.14865839797
 10
25500.0
 20
8231.300957295287
 10
26000.0
 20
8232.409358785379
 10
26500.0
 20
8233.469260598136
 10
27000.0
 20
8234.476059842847
 10
27500.0
 20
8235.425152726302
 10
28000.0
 20
8236.316663800922
 10
28500.0
 20
8237.189839384264
 10
29000.0
 20
8238.051016045107
 10
29500.0
 20
8238.895908947005
 10
30000.0
 20
8239.720233779168
 10
30500.0
 20
8240.5197065608
 10
31000.0
 20
8241.290043457742
 10
31500.0
 20
8242.026960616051
 10
32000.0
 20
8242.726174016318
 10
32500.0
 20
8243.383399351747
 10
33000.0
 20
8243.994351932095
 10
33500.0
 20
8244.554746614413
 10
34000.0
 20
8245.06029776043
 10
34500.0
 20
8245.506719219029
 10
35000.0
 20
8245.897021345636
 10
35500.0
 20
8246.271526468361
 10
36000.0
 20
8246.635358669364
 10
36500.0
 20
8246.9864369458
 10
37000.0
 20
8247.32268028732
 10
37500.0
 20
8247.64200766239
 10
38000.0
 20
8247.942338007095
 10
38500.0
 20
8248.221590216734
 10
39000.0
 20
8248.47768314034
 10
39500.0
 20
8248.70853557811
 10
40000.0
 20
8248.912066281651
 10
40500.0
 20
8249.08619395676
 10
41000.0
 20
8249.228837268236
 10
41500.0
 20
8249.337914846157
 10
42000.0
 20
8249.417486354077
 10
42500.0
 20
8249.491429739483
 10
43000.0
 20
8249.562018967614
 10
43500.0
 20
8249.628843191373
 10
44000.0
 20
8249.691491563237
 10
44500.0
 20
8249.74955323522
 10
45000.0
 20
8249.80261735885
 10
45500.0
 20
8249.85027308515
 10
46000.0
 20
8249.892109564704
 10
46500.0
 20
8249.927715947668
 10
47000.0
 20
8249.956681383865
 10
47500.0
 20
8249.978595022854
 10
48000.0
 20
8249.993046014015
 10
48500.0
 20
8249.999623506623
 10
49000.0
 20
8250.0
 10
49500.0
 20
8250.0
 10
50000.0
 20
8250.0
 10
50500.0
 20
8250.0
 10
51000.0
 20
8250.0
 10
51500.0
 20
8250.0
 10
52000.0
 20
8250.0
 10
52500.0
 20
8250.0
 10
53000.0
 20
8250.0
 10
53500.0
 20
8250.0
 10
54000.0
 20
8250.0
 10
54500.0
 20
8250.0
 10
55000.0
 20
8250.0
 10
55500.0
 20
8250.0
 10
56000.0
 20
8250.0
 10
56500.0
 20
8250.0
 10
57000.0
 20
8250.0
 10
57500.0
 20
8250.0
 10
58000.0
 20
8250.0
 10
58500.0
 20
8250.0
 10
59000.0
 20
8250.0
 10
59500.0
 20
8250.0
 10
60000.0
 20
8250.0
 10
60500.0
 20
8250.0
 10
61000.0
 20
8250.0
 10
61500.0
 20
8250.0
 10
62000.0
 20
8250.0
 10
62500.0
 20
8250.0
 10
63000.0
 20
8250.0
 10
63500.0
 20
8250.0
 10
64000.0
 20
8250.0
 10
64500.0
 20
8250.0
 10
65000.0
 20
8250.0
 10
65500.0
 20
8250.0
 10
66000.0
 20
8250.0
 10
66500.0
 20
8250.0
 10
67000.0
 20
8250.0
 10
67500.0
 20
8250.0
 10
68000.0
 20
8250.0
 10
68500.0
 20
8250.0
 10
69000.0
 20
8250.0
 10
69500.0
 20
8250.0
 10
70000.0
 20
8250.0
 10
70500.0
 20
8250.0
 10
71000.0
 20
8250.0
 10
71500.0
 20
8250.0
 10
72000.0
 20
8250.0
 10
72500.0
 20
8250.0
 10
73000.0
 20
8250.0
 10
73500.0
 20
8250.0
 10
74000.0
 20
8250.0
 10
74500.0
 20
8250.0
 10
75000.0
 20
8250.0
 10
75500.0
 20
8250.0
 10
76000.0
 20
8250.0
 10
76500.0
 20
8249.999914568867
 10
77000.0
 20
8249.989841625164
 10
77500.0
 20
8249.963628132538
 10
78000.0
 20
8249.922160663406
 10
78500.0
 20
8249.866325789446
 10
79000.0
 20
8249.797010081003
 10
79500.0
 20
8249.715100106423
 10
80000.0
 20
8249.621482431417
 10
80500.0
 20
8249.51704361856
 10
81000.0
 20
8249.402670226902
 10
81500.0
 20
8249.27924881181
 10
82000.0
 20
8249.147665924997
 10
82500.0
 20
8249.008808114795
 10
83000.0
 20
8248.863561926652
 10
83500.0
 20
8248.711619936586
 10
84000.0
 20
8248.515146455738
 10
84500.0
 20
8248.258450720054
 10
85000.0
 20
8247.945246921734
 10
85500.0
 20
8247.57924904834
 10
86000.0
 20
8247.164170847369
 10
86500.0
 20
8246.703725799003
 10
87000.0
 20
8246.201627100585
 10
87500.0
 20
8245.661587665572
 10
88000.0
 20
8245.087320138537
 10
88500.0
 20
8244.482536926998
 10
89000.0
 20
8243.850950250055
 10
89500.0
 20
8243.196272202982
 10
90000.0
 20
8242.522214836396
 10
90500.0
 20
8241.828392643636
 10
91000.0
 20
8241.054474078917
 10
91500.0
 20
8240.18384122158
 10
92000.0
 20
8239.222358913998
 10
92500.0
 20
8238.175889292785
 10
93000.0
 20
8237.050291769157
 10
93500.0
 20
8235.851423103308
 10
94000.0
 20
8234.585137581931
 10
94500.0
 20
8233.257287303724
 10
95000.0
 20
8231.873722573808
 10
95500.0
 20
8230.44029240451
 10
96000.0
 20
8228.962845116543
 10
96500.0
 20
8227.447229031814
 10
97000.0
 20
8225.899293246366
 10
97500.0
 20
8224.275588246233
 10
98000.0
 20
8222.141298887795
 10
98500.0
 20
8219.435545458244
 10
99000.0
 20
8216.2111865047
 10
99500.0
 20
8212.521073448961
 10
100000.0
 20
8208.418052488376
 10
100500.0
 20
8203.954966891302
 10
101000.0
 20
8199.184659667371
 10
101500.0
 20
8194.159976579682
 10
102000.0
 20
8188.93376945419
 10
102500.0
 20
8183.558899731127
 10
103000.0
 20
8178.088242194125
 10
103500.0
 20
8172.574688804733
 10
104000.0
 20
8167.071152563386
 10
104500.0
 20
8161.60083939827
 10
105000.0
 20
8156.005473544381
 10
105500.0
 20
8150.2243678122995
 10
106000.0
 20
8144.222958153751
 10
106500.0
 20
8137.9667413103625
 10
107000.0
 20
8131.421295014898
 10
107500.0
 20
8124.552297991768
 10
108000.0
 20
8117.325549006719
 10
108500.0
 20
8109.70698413233
 10
109000.0
 20
8101.662691340303
 10
109500.0
 20
8093.158921504337
 10
110000.0
 20
8084.1620949007865
 10
110500.0
 20
8074.638802329259
 10
111000.0
 20
8064.555800044516
 10
111500.0
 20
8052.705326866084
 10
112000.0
 20
8034.46781986314
 10
112500.0
 20
8009.844654884228
 10
113000.0
 20
7979.379970334858
 10
113500.0
 20
7943.623991573675
 10
114000.0
 20
7903.133394567444
 10
114500.0
 20
7858.471531425505
 10
115000.0
 20
7810.208516047399
 10
115500.0
 20
7758.921167975085
 10
116000.0
 20
7705.05269941123
 10
116500.0
 20
7647.855093983715
 10
117000.0
 20
7587.658316969875
 10
117500.0
 20
7525.150861361865
 10
118000.0
 20
7461.029337041943
 10
118500.0
 20
7394.607556694486
 10
119000.0
 20
7322.277890136286
 10
119500.0
 20
7243.922968881653
 10
120000.0
 20
7159.697431043288
 10
120500.0
 20
7069.780037261849
 10
121000.0
 20
6974.371763580393
 10
121500.0
 20
6873.693707946982
 10
122000.0
 20
6767.984844756124
 10
122500.0
 20
6657.4996562442975
 10
123000.0
 20
6542.505663427686
 10
123500.0
 20
6423.280872629252
 10
124000.0
 20
6300.111146443609
 10
124500.0
 20
6173.287500112384
 10
125000.0
 20
6043.103315515649
 10
125500.0
 20
5906.798512959601
 10
126000.0
 20
5759.041060477413
 10
126500.0
 20
5601.076790635101
 10
127000.0
 20
5434.26853676257
 10
127500.0
 20
5259.963911108025
 10
128000.0
 20
5079.545451901393
 10
128500.0
 20
4894.465469362617
 10
129000.0
 20
4703.775963049163
 10
129500.0
 20
4503.826756770801
 10
130000.0
 20
4294.62564243704
 10
130500.0
 20
4076.4103970060123
 10
131000.0
 20
3849.5829277551593
 10
131500.0
 20
3614.688180275389
 10
132000.0
 20
3372.351453377991
 10
132500.0
 20
3107.980118142812
 10
133000.0
 20
2807.5039527216995
 10
133500.0
 20
2483.2882572567555
 10
134000.0
 20
2147.8006904661947
 10
134500.0
 20
1814.38229151568
 10
135000.0
 20
1499.328193655693
 10
135500.0
 20
1231.9898085111913
 10
136000.0
 20
1008.4448491816349
 10
136500.0
 20
803.0607184555836
 10
137000.0
 20
617.1783317014973
 10
137500.0
 20
452.2275169835348
 10
138000.0
 20
309.6710635791495
 10
138500.0
 20
191.010213331414
 10
139000.0
 20
97.78310749175088
  0
TEXT
  5
AA
330
17
100
AcDbEntity
  8
09_РАЗМЕРЫ
100
AcDbText
 10
69500.0
 20
8500.0
 30
0.0
 40
400.0
  1
ВЛ 3.60
  7
ГОСТ
 72
1
 11
69500.0
 21
8500.0
 31
0.0
100
AcDbText
 73
2
  0
LWPOLYLINE
  5
AB
330
17
100
AcDbEntity
  8
01_ОБШИВКА
100
AcDbPolyline
 90
279
 70
0
 10
0.0
 20
6597.510427302443
 10
500.0
 20
6704.670626164262
 10
1000.0
 20
6807.957857744588
 10
1500.0
 20
6907.011880016426
 10
2000.0
 20
7001.47245112713
 10
2500.0
 20
7090.979329397836
 10
3000.0
 20
7175.172273322789
 10
3500.0
 20
7253.691924778146
 10
4000.0
 20
7326.775136150112
 10
4500.0
 20
7395.352603335381
 10
5000.0
 20
7460.208292078834
 10
5500.0
 20
7522.126169057789
 10
6000.0
 20
7581.890201835655
 10
6500.0
 20
7640.2843588112755
 10
7000.0
 20
7698.124082561227
 10
7500.0
 20
7759.0558617509605
 10
8000.0
 20
7822.761388442486
 10
8500.0
 20
7885.803104727035
 10
9000.0
 20
7944.7434544615135
 10
9500.0
 20
7996.144883114229
 10
10000.0
 20
8036.569837596455
 10
10500.0
 20
8062.737807700124
 10
11000.0
 20
8080.857361898328
 10
11500.0
 20
8096.072103254084
 10
12000.0
 20
8108.967277413468
 10
12500.0
 20
8120.128143813542
 10
13000.0
 20
8130.139973241128
 10
13500.0
 20
8139.588044573042
 10
14000.0
 20
8149.055306410053
 10
14500.0
 20
8158.871225245461
 10
15000.0
 20
8168.918298136338
 10
15500.0
 20
8179.036921774168
 10
16000.0
 20
8189.0674918429
 10
16500.0
 20
8198.850403189508
 10
17000.0
 20
8208.226049964725
 10
17500.0
 20
8217.034825738336
 10
18000.0
 20
8225.11712359293
 10
18500.0
 20
8232.313336199339
 10
19000.0
 20
8238.463855876531
 10
19500.0
 20
8243.409074638525
 10
20000.0
 20
8246.989384230317
 10
20500.0
 20
8249.045176155016
 10
21000.0
 20
8249.498372165528
 10
21500.0
 20
8249.520667871424
 10
22000.0
 20
8249.54284602082
 10
22500.0
 20
8249.564829739888
 10
23000.0
 20
8249.586542204675
 10
23500.0
 20
8249.607906632496
 10
24000.0
 20
8249.6288462733
 10
24500.0
 20
8249.649284401248
 10
25000.0
 20
8249.669144306632
 10
25500.0
 20
8249.688349288253
 10
26000.0
 20
8249.706822646423
 10
26500.0
 20
8249.724487676636
 10
27000.0
 20
8249.741267664047
 10
27500.0
 20
8249.757085878771
 10
28000.0
 20
8249.771944396683
 10
28500.0
 20
8249.786497323072
 10
29000.0
 20
8249.80085026742
 10
29500.0
 20
8249.814931815785
 10
30000.0
 20
8249.828670562985
 10
30500.0
 20
8249.841995109346
 10
31000.0
 20
8249.854834057627
 10
31500.0
 20
8249.867116010266
 10
32000.0
 20
8249.878769566938
 10
32500.0
 20
8249.889723322529
 10
33000.0
 20
8249.899905865535
 10
33500.0
 20
8249.909245776907
 10
34000.0
 20
8249.91767162934
 10
34500.0
 20
8249.925111986984
 10
35000.0
 20
8249.931617022428
 10
35500.0
 20
8249.937858774472
 10
36000.0
 20
8249.943922644488
 10
36500.0
 20
8249.949773949098
 10
37000.0
 20
8249.955378004788
 10
37500.0
 20
8249.960700127707
 10
38000.0
 20
8249.96570563345
 10
38500.0
 20
8249.970359836945
 10
39000.0
 20
8249.97462805234
 10
39500.0
 20
8249.978475592969
 10
40000.0
 20
8249.981867771361
 10
40500.0
 20
8249.98476989928
 10
41000.0
 20
8249.987147287804
 10
41500.0
 20
8249.988965247436
 10
42000.0
 20
8249.990291439235
 10
42500.0
 20
8249.99152382899
 10
43000.0
 20
8249.992700316128
 10
43500.0
 20
8249.993814053189
 10
44000.0
 20
8249.994858192722
 10
44500.0
 20
8249.995825887254
 10
45000.0
 20
8249.996710289315
 10
45500.0
 20
8249.99750455142
 10
46000.0
 20
8249.99820182608
 10
46500.0
 20
8249.998795265794
 10
47000.0
 20
8249.999278023064
 10
47500.0
 20
8249.999643250381
 10
48000.0
 20
8249.999884100234
 10
48500.0
 20
8249.99999372511
 10
49000.0
 20
8250.0
 10
49500.0
 20
8250.0
 10
50000.0
 20
8250.0
 10
50500.0
 20
8250.0
 10
51000.0
 20
8250.0
 10
51500.0
 20
8250.0
 10
52000.0
 20
8250.0
 10
52500.0
 20
8250.0
 10
53000.0
 20
8250.0
 10
53500.0
 20
8250.0
 10
54000.0
 20
8250.0
 10
54500.0
 20
8250.0
 10
55000.0
 20
8250.0
 10
55500.0
 20
8250.0
 10
56000.0
 20
8250.0
 10
56500.0
 20
8250.0
 10
57000.0
 20
8250.0
 10
57500.0
 20
8250.0
 10
58000.0
 20
8250.0
 10
58500.0
 20
8250.0
 10
59000.0
 20
8250.0
 10
59500.0
 20
8250.0
 10
60000.0
 20
8250.0
 10
60500.0
 20
8250.0
 10
61000.0
 20
8250.0
 10
61500.0
 20
8250.0
 10
62000.0
 20
8250.0
 10
62500.0
 20
8250.0
 10
63000.0
 20
8250.0
 10
63500.0
 20
8250.0
 10
64000.0
 20
8250.0
 10
64500.0
 20
8250.0
 10
65000.0
 20
8250.0
 10
65500.0
 20
8250.0
 10
66000.0
 20
8250.0
 10
66500.0
 20
8250.0
 10
67000.0
 20
8250.0
 10
67500.0
 20
8250.0
 10
68000.0
 20
8250.0
 10
68500.0
 20
8250.0
 10
69000.0
 20
8250.0
 10
69500.0
 20
8250.0
 10
70000.0
 20
8250.0
 10
70500.0
 20
8250.0
 10
71000.0
 20
8250.0
 10
71500.0
 20
8250.0
 10
72000.0
 20
8250.0
 10
72500.0
 20
8250.0
 10
73000.0
 20
8250.0
 10
73500.0
 20
8250.0
 10
74000.0
 20
8250.0
 10
74500.0
 20
8250.0
 10
75000.0
 20
8250.0
 10
75500.0
 20
8250.0
 10
76000.0
 20
8250.0
 10
76500.0
 20
8249.999998576148
 10
77000.0
 20
8249.999830693752
 10
77500.0
 20
8249.999393802207
 10
78000.0
 20
8249.998702677723
 10
78500.0
 20
8249.99777209649
 10
79000.0
 20
8249.996616834682
 10
79500.0
 20
8249.99525166844
 10
80000.0
 20
8249.993691373857
 10
80500.0
 20
8249.991950726975
 10
81000.0
 20
8249.99004450378
 10
81500.0
 20
8249.987987480195
 10
82000.0
 20
8249.985794432083
 10
82500.0
 20
8249.983480135248
 10
83000.0
 20
8249.981059365444
 10
83500.0
 20
8249.97852699894
 10
84000.0
 20
8249.975252440929
 10
84500.0
 20
8249.970974178668
 10
85000.0
 20
8249.965754115361
 10
85500.0
 20
8249.959654150807
 10
86000.0
 20
8249.95273618079
 10
86500.0
 20
8249.945062096649
 10
87000.0
 20
8249.93669378501
 10
87500.0
 20
8249.92769312776
 10
88000.0
 20
8249.918122002307
 10
88500.0
 20
8249.908042282115
 10
89000.0
 20
8249.8975158375
 10
89500.0
 20
8249.886604536718
 10
90000.0
 20
8249.875370247271
 10
90500.0
 20
8249.863806544061
 10
91000.0
 20
8249.850907901313
 10
91500.0
 20
8249.836397353693
 10
92000.0
 20
8249.820372648566
 10
92500.0
 20
8249.802931488211
 10
93000.0
 20
8249.784171529485
 10
93500.0
 20
8249.764190385054
 10
94000.0
 20
8249.743085626365
 10
94500.0
 20
8249.720954788396
 10
95000.0
 20
8249.69789537623
 10
95500.0
 20
8249.674004873406
 10
96000.0
 20
8249.649380751944
 10
96500.0
 20
8249.624120483864
 10
97000.0
 20
8249.598321554107
 10
97500.0
 20
8249.531523088875
 10
98000.0
 20
8249.062803544997
 10
98500.0
 20
8248.141709811322
 10
99000.0
 20
8246.8116432466
 10
99500.0
 20
8245.116005090827
 10
100000.0
 20
8243.098196496932
 10
100500.0
 20
8240.801618569018
 10
101000.0
 20
8238.269672406885
 10
101500.0
 20
8235.545759156214
 10
102000.0
 20
8232.673280063747
 10
102500.0
 20
8229.69563653645
 10
103000.0
 20
8226.656230203685
 10
103500.0
 20
8223.59846298112
 10
104000.0
 20
8220.565737135053
 10
104500.0
 20
8217.594175917147
 10
105000.0
 20
8214.644427757965
 10
105500.0
 20
8211.652750493584
 10
106000.0
 20
8208.558340060075
 10
106500.0
 20
8205.300393406686
 10
107000.0
 20
8201.818108832496
 10
107500.0
 20
8198.050686319797
 10
108000.0
 20
8193.937327851565
 10
108500.0
 20
8189.417237699208
 10
109000.0
 20
8184.429622665813
 10
109500.0
 20
8178.913692269479
 10
110000.0
 20
8172.80865885169
 10
110500.0
 20
8166.053737595984
 10
111000.0
 20
8158.588146443489
 10
111500.0
 20
8149.214339893044
 10
112000.0
 20
8133.446859835377
 10
112500.0
 20
8111.289917721891
 10
113000.0
 20
8083.273945411715
 10
113500.0
 20
8049.935382092711
 10
114000.0
 20
8011.817035422261
 10
114500.0
 20
7969.468306001427
 10
115000.0
 20
7923.445273596821
 10
115500.0
 20
7874.31064337085
 10
116000.0
 20
7822.633550288716
 10
116500.0
 20
7768.989219851652
 10
117000.0
 20
7713.95848337206
 10
117500.0
 20
7658.127146167145
 10
118000.0
 20
7602.085207311331
 10
118500.0
 20
7545.069719304778
 10
119000.0
 20
7483.501674645816
 10
119500.0
 20
7417.175405657589
 10
120000.0
 20
7345.110592983129
 10
120500.0
 20
7267.046958406651
 10
121000.0
 20
7183.189829484808
 10
121500.0
 20
7093.764307739362
 10
122000.0
 20
6999.012752380574
 10
122500.0
 20
6899.192121739695
 10
123000.0
 20
6794.571188310128
 10
123500.0
 20
6685.427635680924
 10
124000.0
 20
6572.0450371048
 10
124500.0
 20
6454.709705765789
 10
125000.0
 20
6333.707395660394
 10
125500.0
 20
6206.130052836867
 10
126000.0
 20
6066.391194011073
 10
126500.0
 20
5915.766528955002
 10
127000.0
 20
5755.631027691257
 10
127500.0
 20
5587.328595821104
 10
128000.0
 20
5412.231101377882
 10
128500.0
 20
5231.780419940272
 10
129000.0
 20
5045.350375312012
 10
129500.0
 20
4849.482225274437
 10
130000.0
 20
4643.489524104626
 10
130500.0
 20
4426.815319490344
 10
131000.0
 20
4198.949225965487
 10
131500.0
 20
3959.3630316625913
 10
132000.0
 20
3707.380903060001
 10
132500.0
 20
3424.0800312562437
 10
133000.0
 20
3091.1072138584414
 10
133500.0
 20
2724.280747601524
 10
134000.0
 20
2349.518695368492
 10
134500.0
 20
1987.2700847207998
 10
135000.0
 20
1657.3201309860776
 10
135500.0
 20
1379.400458769785
 10
136000.0
 20
1143.9863504852342
 10
136500.0
 20
923.9789026038607
 10
137000.0
 20
721.1035801947983
 10
137500.0
 20
537.1570542818458
 10
138000.0
 20
373.9406840543402
 10
138500.0
 20
233.26373626483203
 10
139000.0
 20
116.94308178395625
  0
TEXT
  5
AC
330
17
100
AcDbEntity
  8
09_РАЗМЕРЫ
100
AcDbText
 10
69500.0
 20
8500.0
 30
0.0
 40
400.0
  1
ВЛ 4.19
  7
ГОСТ
 72
1
 11
69500.0
 21
8500.0
 31
0.0
100
AcDbText
 73
2
  0
LINE
  5
AD
330
17
100
AcDbEntity
  8
07_ОСИ
100
AcDbLine
 10
0.0
 20
0.0
 30
0.0
 11
139000.0
 21
0.0
 31
0.0
  0
LINE
  5
AE
330
17
100
AcDbEntity
  8
09_РАЗМЕРЫ
100
AcDbLine
 10
0.0
 20
-11200.0
 30
0.0
 11
0.0
 21
-11800.0
 31
0.0
  0
TEXT
  5
AF
330
17
100
AcDbEntity
  8
09_РАЗМЕРЫ
100
AcDbText
 10
0.0
 20
-12600.0
 30
0.0
 40
600.0
  1
0
  7
ГОСТ
 72
1
 11
0.0
 21
-12600.0
 31
0.0
100
AcDbText
 73
2
  0
LINE
  5
B0
330
17
100
AcDbEntity
  8
09_РАЗМЕРЫ
100
AcDbLine
 10
2750.0
 20
-11200.0
 30
0.0
 11
2750.0
 21
-11480.0
 31
0.0
  0
LINE
  5
B1
330
17
100
AcDbEntity
  8
09_РАЗМЕРЫ
100
AcDbLine
 10
5500.0
 20
-11200.0
 30
0.0
 11
5500.0
 21
-11480.0
 31
0.0
  0
LINE
  5
B2
330
17
100
AcDbEntity
  8
09_РАЗМЕРЫ
100
AcDbLine
 10
8250.0
 20
-11200.0
 30
0.0
 11
8250.0
 21
-11480.0
 31
0.0
  0
LINE
  5
B3
330
17
100
AcDbEntity
  8
09_РАЗМЕРЫ
100
AcDbLine
 10
11000.0
 20
-11200.0
 30
0.0
 11
11000.0
 21
-11800.0
 31
0.0
  0
TEXT
  5
B4
330
17
100
AcDbEntity
  8
09_РАЗМЕРЫ
100
AcDbText
 10
11000.0
 20
-12600.0
 30
0.0
 40
600.0
  1
20
  7
ГОСТ
 72
1
 11
11000.0
 21
-12600.0
 31
0.0
100
AcDbText
 73
2
  0
LINE
  5
B5
330
17
100
AcDbEntity
  8
09_РАЗМЕРЫ
100
AcDbLine
 10
13750.000000000002
 20
-11200.0
 30
0.0
 11
13750.000000000002
 21
-11480.0
 31
0.0
  0
LINE
  5
B6
330
17
100
AcDbEntity
  8
09_РАЗМЕРЫ
100
AcDbLine
 10
16500.0
 20
-11200.0
 30
0.0
 11
16500.0
 21
-11480.0
 31
0.0
  0
LINE
  5
B7
330
17
100
AcDbEntity
  8
09_РАЗМЕРЫ
100
AcDbLine
 10
19250.0
 20
-11200.0
 30
0.0
 11
19250.0
 21
-11480.0
 31
0.0
  0
LINE
  5
B8
330
17
100
AcDbEntity
  8
09_РАЗМЕРЫ
100
AcDbLine
 10
22000.0
 20
-11200.0
 30
0.0
 11
22000.0
 21
-11800.0
 31
0.0
  0
TEXT
  5
B9
330
17
100
AcDbEntity
  8
09_РАЗМЕРЫ
100
AcDbText
 10
22000.0
 20
-12600.0
 30
0.0
 40
600.0
  1
40
  7
ГОСТ
 72
1
 11
22000.0
 21
-12600.0
 31
0.0
100
AcDbText
 73
2
  0
LINE
  5
BA
330
17
100
AcDbEntity
  8
09_РАЗМЕРЫ
100
AcDbLine
 10
24750.000000000004
 20
-11200.0
 30
0.0
 11
24750.000000000004
 21
-11480.0
 31
0.0
  0
LINE
  5
BB
330
17
100
AcDbEntity
  8
09_РАЗМЕРЫ
100
AcDbLine
 10
27500.000000000004
 20
-11200.0
 30
0.0
 11
27500.000000000004
 21
-11480.0
 31
0.0
  0
LINE
  5
BC
330
17
100
AcDbEntity
  8
09_РАЗМЕРЫ
100
AcDbLine
 10
30250.000000000004
 20
-11200.0
 30
0.0
 11
30250.000000000004
 21
-11480.0
 31
0.0
  0
LINE
  5
BD
330
17
100
AcDbEntity
  8
09_РАЗМЕРЫ
100
AcDbLine
 10
33000.0
 20
-11200.0
 30
0.0
 11
33000.0
 21
-11800.0
 31
0.0
  0
TEXT
  5
BE
330
17
100
AcDbEntity
  8
09_РАЗМЕРЫ
100
AcDbText
 10
33000.0
 20
-12600.0
 30
0.0
 40
600.0
  1
60
  7
ГОСТ
 72
1
 11
33000.0
 21
-12600.0
 31
0.0
100
AcDbText
 73
2
  0
LINE
  5
BF
330
17
100
AcDbEntity
  8
09_РАЗМЕРЫ
100
AcDbLine
 10
35750.0
 20
-11200.0
 30
0.0
 11
35750.0
 21
-11480.0
 31
0.0
  0
LINE
  5
C0
330
17
100
AcDbEntity
  8
09_РАЗМЕРЫ
100
AcDbLine
 10
38500.0
 20
-11200.0
 30
0.0
 11
38500.0
 21
-11480.0
 31
0.0
  0
LINE
  5
C1
330
17
100
AcDbEntity
  8
09_РАЗМЕРЫ
100
AcDbLine
 10
41250.0
 20
-11200.0
 30
0.0
 11
41250.0
 21
-11480.0
 31
0.0
  0
LINE
  5
C2
330
17
100
AcDbEntity
  8
09_РАЗМЕРЫ
100
AcDbLine
 10
44000.0
 20
-11200.0
 30
0.0
 11
44000.0
 21
-11800.0
 31
0.0
  0
TEXT
  5
C3
330
17
100
AcDbEntity
  8
09_РАЗМЕРЫ
100
AcDbText
 10
44000.0
 20
-12600.0
 30
0.0
 40
600.0
  1
80
  7
ГОСТ
 72
1
 11
44000.0
 21
-12600.0
 31
0.0
100
AcDbText
 73
2
  0
LINE
  5
C4
330
17
100
AcDbEntity
  8
09_РАЗМЕРЫ
100
AcDbLine
 10
46750.00000000001
 20
-11200.0
 30
0.0
 11
46750.00000000001
 21
-11480.0
 31
0.0
  0
LINE
  5
C5
330
17
100
AcDbEntity
  8
09_РАЗМЕРЫ
100
AcDbLine
 10
49500.00000000001
 20
-11200.0
 30
0.0
 11
49500.00000000001
 21
-11480.0
 31
0.0
  0
LINE
  5
C6
330
17
100
AcDbEntity
  8
09_РАЗМЕРЫ
100
AcDbLine
 10
52250.00000000001
 20
-11200.0
 30
0.0
 11
52250.00000000001
 21
-11480.0
 31
0.0
  0
LINE
  5
C7
330
17
100
AcDbEntity
  8
09_РАЗМЕРЫ
100
AcDbLine
 10
55000.00000000001
 20
-11200.0
 30
0.0
 11
55000.00000000001
 21
-11800.0
 31
0.0
  0
TEXT
  5
C8
330
17
100
AcDbEntity
  8
09_РАЗМЕРЫ
100
AcDbText
 10
55000.00000000001
 20
-12600.0
 30
0.0
 40
600.0
  1
100
  7
ГОСТ
 72
1
 11
55000.00000000001
 21
-12600.0
 31
0.0
100
AcDbText
 73
2
  0
LINE
  5
C9
330
17
100
AcDbEntity
  8
09_РАЗМЕРЫ
100
AcDbLine
 10
57750.00000000001
 20
-11200.0
 30
0.0
 11
57750.00000000001
 21
-11480.0
 31
0.0
  0
LINE
  5
CA
330
17
100
AcDbEntity
  8
09_РАЗМЕРЫ
100
AcDbLine
 10
60500.00000000001
 20
-11200.0
 30
0.0
 11
60500.00000000001
 21
-11480.0
 31
0.0
  0
LINE
  5
CB
330
17
100
AcDbEntity
  8
09_РАЗМЕРЫ
100
AcDbLine
 10
63250.00000000001
 20
-11200.0
 30
0.0
 11
63250.00000000001
 21
-11480.0
 31
0.0
  0
LINE
  5
CC
330
17
100
AcDbEntity
  8
09_РАЗМЕРЫ
100
AcDbLine
 10
66000.0
 20
-11200.0
 30
0.0
 11
66000.0
 21
-11800.0
 31
0.0
  0
TEXT
  5
CD
330
17
100
AcDbEntity
  8
09_РАЗМЕРЫ
100
AcDbText
 10
66000.0
 20
-12600.0
 30
0.0
 40
600.0
  1
120
  7
ГОСТ
 72
1
 11
66000.0
 21
-12600.0
 31
0.0
100
AcDbText
 73
2
  0
LINE
  5
CE
330
17
100
AcDbEntity
  8
09_РАЗМЕРЫ
100
AcDbLine
 10
68750.0
 20
-11200.0
 30
0.0
 11
68750.0
 21
-11480.0
 31
0.0
  0
LINE
  5
CF
330
17
100
AcDbEntity
  8
09_РАЗМЕРЫ
100
AcDbLine
 10
71500.0
 20
-11200.0
 30
0.0
 11
71500.0
 21
-11480.0
 31
0.0
  0
LINE
  5
D0
330
17
100
AcDbEntity
  8
09_РАЗМЕРЫ
100
AcDbLine
 10
74250.0
 20
-11200.0
 30
0.0
 11
74250.0
 21
-11480.0
 31
0.0
  0
LINE
  5
D1
330
17
100
AcDbEntity
  8
09_РАЗМЕРЫ
100
AcDbLine
 10
77000.0
 20
-11200.0
 30
0.0
 11
77000.0
 21
-11800.0
 31
0.0
  0
TEXT
  5
D2
330
17
100
AcDbEntity
  8
09_РАЗМЕРЫ
100
AcDbText
 10
77000.0
 20
-12600.0
 30
0.0
 40
600.0
  1
140
  7
ГОСТ
 72
1
 11
77000.0
 21
-12600.0
 31
0.0
100
AcDbText
 73
2
  0
LINE
  5
D3
330
17
100
AcDbEntity
  8
09_РАЗМЕРЫ
100
AcDbLine
 10
79750.0
 20
-11200.0
 30
0.0
 11
79750.0
 21
-11480.0
 31
0.0
  0
LINE
  5
D4
330
17
100
AcDbEntity
  8
09_РАЗМЕРЫ
100
AcDbLine
 10
82500.0
 20
-11200.0
 30
0.0
 11
82500.0
 21
-11480.0
 31
0.0
  0
LINE
  5
D5
330
17
100
AcDbEntity
  8
09_РАЗМЕРЫ
100
AcDbLine
 10
85250.0
 20
-11200.0
 30
0.0
 11
85250.0
 21
-11480.0
 31
0.0
  0
LINE
  5
D6
330
17
100
AcDbEntity
  8
09_РАЗМЕРЫ
100
AcDbLine
 10
88000.0
 20
-11200.0
 30
0.0
 11
88000.0
 21
-11800.0
 31
0.0
  0
TEXT
  5
D7
330
17
100
AcDbEntity
  8
09_РАЗМЕРЫ
100
AcDbText
 10
88000.0
 20
-12600.0
 30
0.0
 40
600.0
  1
160
  7
ГОСТ
 72
1
 11
88000.0
 21
-12600.0
 31
0.0
100
AcDbText
 73
2
  0
LINE
  5
D8
330
17
100
AcDbEntity
  8
09_РАЗМЕРЫ
100
AcDbLine
 10
90750.00000000001
 20
-11200.0
 30
0.0
 11
90750.00000000001
 21
-11480.0
 31
0.0
  0
LINE
  5
D9
330
17
100
AcDbEntity
  8
09_РАЗМЕРЫ
100
AcDbLine
 10
93500.00000000001
 20
-11200.0
 30
0.0
 11
93500.00000000001
 21
-11480.0
 31
0.0
  0
LINE
  5
DA
330
17
100
AcDbEntity
  8
09_РАЗМЕРЫ
100
AcDbLine
 10
96250.00000000001
 20
-11200.0
 30
0.0
 11
96250.00000000001
 21
-11480.0
 31
0.0
  0
LINE
  5
DB
330
17
100
AcDbEntity
  8
09_РАЗМЕРЫ
100
AcDbLine
 10
99000.00000000001
 20
-11200.0
 30
0.0
 11
99000.00000000001
 21
-11800.0
 31
0.0
  0
TEXT
  5
DC
330
17
100
AcDbEntity
  8
09_РАЗМЕРЫ
100
AcDbText
 10
99000.00000000001
 20
-12600.0
 30
0.0
 40
600.0
  1
180
  7
ГОСТ
 72
1
 11
99000.00000000001
 21
-12600.0
 31
0.0
100
AcDbText
 73
2
  0
LINE
  5
DD
330
17
100
AcDbEntity
  8
09_РАЗМЕРЫ
100
AcDbLine
 10
101750.00000000001
 20
-11200.0
 30
0.0
 11
101750.00000000001
 21
-11480.0
 31
0.0
  0
LINE
  5
DE
330
17
100
AcDbEntity
  8
09_РАЗМЕРЫ
100
AcDbLine
 10
104500.00000000001
 20
-11200.0
 30
0.0
 11
104500.00000000001
 21
-11480.0
 31
0.0
  0
LINE
  5
DF
330
17
100
AcDbEntity
  8
09_РАЗМЕРЫ
100
AcDbLine
 10
107250.00000000001
 20
-11200.0
 30
0.0
 11
107250.00000000001
 21
-11480.0
 31
0.0
  0
LINE
  5
E0
330
17
100
AcDbEntity
  8
09_РАЗМЕРЫ
100
AcDbLine
 10
110000.00000000001
 20
-11200.0
 30
0.0
 11
110000.00000000001
 21
-11800.0
 31
0.0
  0
TEXT
  5
E1
330
17
100
AcDbEntity
  8
09_РАЗМЕРЫ
100
AcDbText
 10
110000.00000000001
 20
-12600.0
 30
0.0
 40
600.0
  1
200
  7
ГОСТ
 72
1
 11
110000.00000000001
 21
-12600.0
 31
0.0
100
AcDbText
 73
2
  0
LINE
  5
E2
330
17
100
AcDbEntity
  8
09_РАЗМЕРЫ
100
AcDbLine
 10
112750.00000000001
 20
-11200.0
 30
0.0
 11
112750.00000000001
 21
-11480.0
 31
0.0
  0
LINE
  5
E3
330
17
100
AcDbEntity
  8
09_РАЗМЕРЫ
100
AcDbLine
 10
115500.00000000001
 20
-11200.0
 30
0.0
 11
115500.00000000001
 21
-11480.0
 31
0.0
  0
LINE
  5
E4
330
17
100
AcDbEntity
  8
09_РАЗМЕРЫ
100
AcDbLine
 10
118250.00000000001
 20
-11200.0
 30
0.0
 11
118250.00000000001
 21
-11480.0
 31
0.0
  0
LINE
  5
E5
330
17
100
AcDbEntity
  8
09_РАЗМЕРЫ
100
AcDbLine
 10
121000.00000000001
 20
-11200.0
 30
0.0
 11
121000.00000000001
 21
-11800.0
 31
0.0
  0
TEXT
  5
E6
330
17
100
AcDbEntity
  8
09_РАЗМЕРЫ
100
AcDbText
 10
121000.00000000001
 20
-12600.0
 30
0.0
 40
600.0
  1
220
  7
ГОСТ
 72
1
 11
121000.00000000001
 21
-12600.0
 31
0.0
100
AcDbText
 73
2
  0
LINE
  5
E7
330
17
100
AcDbEntity
  8
09_РАЗМЕРЫ
100
AcDbLine
 10
123750.00000000001
 20
-11200.0
 30
0.0
 11
123750.00000000001
 21
-11480.0
 31
0.0
  0
LINE
  5
E8
330
17
100
AcDbEntity
  8
09_РАЗМЕРЫ
100
AcDbLine
 10
126500.00000000001
 20
-11200.0
 30
0.0
 11
126500.00000000001
 21
-11480.0
 31
0.0
  0
LINE
  5
E9
330
17
100
AcDbEntity
  8
09_РАЗМЕРЫ
100
AcDbLine
 10
129250.0
 20
-11200.0
 30
0.0
 11
129250.0
 21
-11480.0
 31
0.0
  0
LINE
  5
EA
330
17
100
AcDbEntity
  8
09_РАЗМЕРЫ
100
AcDbLine
 10
132000.0
 20
-11200.0
 30
0.0
 11
132000.0
 21
-11800.0
 31
0.0
  0
TEXT
  5
EB
330
17
100
AcDbEntity
  8
09_РАЗМЕРЫ
100
AcDbText
 10
132000.0
 20
-12600.0
 30
0.0
 40
600.0
  1
240
  7
ГОСТ
 72
1
 11
132000.0
 21
-12600.0
 31
0.0
100
AcDbText
 73
2
  0
LINE
  5
EC
330
17
100
AcDbEntity
  8
09_РАЗМЕРЫ
100
AcDbLine
 10
134750.0
 20
-11200.0
 30
0.0
 11
134750.0
 21
-11480.0
 31
0.0
  0
LINE
  5
ED
330
17
100
AcDbEntity
  8
09_РАЗМЕРЫ
100
AcDbLine
 10
137500.0
 20
-11200.0
 30
0.0
 11
137500.0
 21
-11480.0
 31
0.0
  0
LINE
  5
EE
330
17
100
AcDbEntity
  8
09_РАЗМЕРЫ
100
AcDbLine
 10
0.0
 20
-11200.0
 30
0.0
 11
138600.00000000003
 21
-11200.0
 31
0.0
  0
TEXT
  5
EF
330
17
100
AcDbEntity
  8
09_РАЗМЕРЫ
100
AcDbText
 10
143000.0
 20
-12600.0
 30
0.0
 40
600.0
  1
№ шп., шпация 550
  7
ГОСТ
 11
143000.0
 21
-12600.0
 31
0.0
100
AcDbText
 73
2
  0
LWPOLYLINE
  5
F0
330
17
100
AcDbEntity
  8
00_РАМКА
100
AcDbPolyline
 90
4
 70
1
 10
-14600.0
 20
-59400.0
 10
153600.0
 20
-59400.0
 10
153600.0
 20
59400.0
 10
-14600.0
 20
59400.0
  0
LWPOLYLINE
  5
F1
330
17
100
AcDbEntity
  8
00_РАМКА
100
AcDbPolyline
 90
4
 70
1
 10
-10600.0
 20
-58400.0
 10
152600.0
 20
-58400.0
 10
152600.0
 20
58400.0
 10
-10600.0
 20
58400.0
  0
LWPOLYLINE
  5
F2
330
17
100
AcDbEntity
  8
00_РАМКА
100
AcDbPolyline
 90
4
 70
1
 10
115600.0
 20
-58400.0
 10
152600.0
 20
-58400.0
 10
152600.0
 20
-47400.0
 10
115600.0
 20
-47400.0
  0
LINE
  5
F3
330
17
100
AcDbEntity
  8
00_РАМКА
100
AcDbLine
 10
115600.0
 20
-56000.0
 30
0.0
 11
152600.0
 21
-56000.0
 31
0.0
  0
LINE
  5
F4
330
17
100
AcDbEntity
  8
00_РАМКА
100
AcDbLine
 10
115600.0
 20
-53600.0
 30
0.0
 11
152600.0
 21
-53600.0
 31
0.0
  0
LINE
  5
F5
330
17
100
AcDbEntity
  8
00_РАМКА
100
AcDbLine
 10
115600.0
 20
-51200.0
 30
0.0
 11
152600.0
 21
-51200.0
 31
0.0
  0
LINE
  5
F6
330
17
100
AcDbEntity
  8
00_РАМКА
100
AcDbLine
 10
139600.0
 20
-58400.0
 30
0.0
 11
139600.0
 21
-51200.0
 31
0.0
  0
TEXT
  5
F7
330
17
100
AcDbEntity
  8
08_ТЕКСТ
100
AcDbText
 10
116200.0
 20
-49300.0
 30
0.0
 40
1000.0
  1
Теоретический чертёж
  7
ГОСТ
 11
116200.0
 21
-49300.0
 31
0.0
100
AcDbText
 73
2
  0
TEXT
  5
F8
330
17
100
AcDbEntity
  8
08_ТЕКСТ
100
AcDbText
 10
116200.0
 20
-52400.0
 30
0.0
 40
500.0
  1
Волжский Горизонт · L = 139,0 · B = 16,5 · H = 4,2
  7
ГОСТ
 11
116200.0
 21
-52400.0
 31
0.0
100
AcDbText
 73
2
  0
TEXT
  5
F9
330
17
100
AcDbEntity
  8
08_ТЕКСТ
100
AcDbText
 10
116200.0
 20
-54800.0
 30
0.0
 40
900.0
  1
ВГ-2026 теоретический чертёж
  7
ГОСТ
 11
116200.0
 21
-54800.0
 31
0.0
100
AcDbText
 73
2
  0
TEXT
  5
FA
330
17
100
AcDbEntity
  8
08_ТЕКСТ
100
AcDbText
 10
140200.0
 20
-54800.0
 30
0.0
 40
700.0
  1
Масштаб 1 : 200
  7
ГОСТ
 11
140200.0
 21
-54800.0
 31
0.0
100
AcDbText
 73
2
  0
TEXT
  5
FB
330
17
100
AcDbEntity
  8
08_ТЕКСТ
100
AcDbText
 10
116200.0
 20
-57200.0
 30
0.0
 40
500.0
  1
Сталь 09Г2С ГОСТ 19281-2014
  7
ГОСТ
 11
116200.0
 21
-57200.0
 31
0.0
100
AcDbText
 73
2
  0
TEXT
  5
FC
330
17
100
AcDbEntity
  8
08_ТЕКСТ
100
AcDbText
 10
140200.0
 20
-57200.0
 30
0.0
 40
600.0
  1
Формат A1
  7
ГОСТ
 11
140200.0
 21
-57200.0
 31
0.0
100
AcDbText
 73
2
  0
TEXT
  5
FD
330
17
100
AcDbEntity
  8
08_ТЕКСТ
100
AcDbText
 10
116200.0
 20
-46600.0
 30
0.0
 40
600.0
  1
УЖЦ ОСК 2026 · «Волжский Горизонт»
  7
ГОСТ
 11
116200.0
 21
-46600.0
 31
0.0
100
AcDbText
 73
2
  0
TEXT
  5
FE
330
17
100
AcDbEntity
  8
08_ТЕКСТ
100
AcDbText
 10
116200.0
 20
-43200.0
 30
0.0
 40
500.0
  1
1. Теоретический чертёж: бок (смещён вниз на 6 м) и полуширота.
  7
ГОСТ
 11
116200.0
 21
-43200.0
 31
0.0
100
AcDbText
 73
2
  0
TEXT
  5
FF
330
17
100
AcDbEntity
  8
08_ТЕКСТ
100
AcDbText
 10
116200.0
 20
-44200.0
 30
0.0
 40
500.0
  1
2. Ординаты — плазовая таблица, 25 теоретических шпангоутов на 13 ватерлиний.
  7
ГОСТ
 11
116200.0
 21
-44200.0
 31
0.0
100
AcDbText
 73
2
  0
TEXT
  5
100
330
17
100
AcDbEntity
  8
08_ТЕКСТ
100
AcDbText
 10
116200.0
 20
-45200.0
 30
0.0
 40
500.0
  1
3. Корпус: транцевая корма, скула с радиусом, цилиндрическая вставка 30…88 м.
  7
ГОСТ
 11
116200.0
 21
-45200.0
 31
0.0
100
AcDbText
 73
2
  0
TEXT
  5
101
330
17
100
AcDbEntity
  8
08_ТЕКСТ
100
AcDbText
 10
116200.0
 20
-41900.0
 30
0.0
 40
700.0
  1
Технические требования
  7
ГОСТ
 11
116200.0
 21
-41900.0
 31
0.0
100
AcDbText
 73
2
  0
ENDSEC
  0
SECTION
  2
OBJECTS
  0
DICTIONARY
  5
A
330
0
100
AcDbDictionary
281
1
  3
ACAD_COLOR
350
B
  3
ACAD_GROUP
350
C
  3
ACAD_LAYOUT
350
D
  3
ACAD_MATERIAL
350
E
  3
ACAD_MLEADERSTYLE
350
F
  3
ACAD_MLINESTYLE
350
10
  3
ACAD_PLOTSETTINGS
350
11
  3
ACAD_PLOTSTYLENAME
350
12
  3
ACAD_SCALELIST
350
14
  3
ACAD_TABLESTYLE
350
15
  3
ACAD_VISUALSTYLE
350
16
  3
EZDXF_META
350
2D
  0
DICTIONARY
  5
B
330
A
100
AcDbDictionary
281
1
  0
DICTIONARY
  5
C
330
A
100
AcDbDictionary
281
1
  0
DICTIONARY
  5
D
330
A
100
AcDbDictionary
281
1
  3
Model
350
1A
  3
Layout1
350
1E
  0
DICTIONARY
  5
E
330
A
100
AcDbDictionary
281
1
  3
ByBlock
350
1F
  3
ByLayer
350
20
  3
Global
350
21
  0
DICTIONARY
  5
F
330
A
100
AcDbDictionary
281
1
  3
Standard
350
2C
  0
DICTIONARY
  5
10
330
A
100
AcDbDictionary
281
1
  3
Standard
350
22
  0
DICTIONARY
  5
11
330
A
100
AcDbDictionary
281
1
  0
ACDBDICTIONARYWDFLT
  5
12
330
A
100
AcDbDictionary
281
1
  3
Normal
350
13
100
AcDbDictionaryWithDefault
340
13
  0
ACDBPLACEHOLDER
  5
13
330
12
  0
DICTIONARY
  5
14
330
A
100
AcDbDictionary
281
1
  0
DICTIONARY
  5
15
330
A
100
AcDbDictionary
281
1
  0
DICTIONARY
  5
16
330
A
100
AcDbDictionary
281
1
  3
2dWireframe
350
5A
  3
Basic
350
5B
  3
Brighten
350
5C
  3
ColorChange
350
5D
  3
Conceptual
350
5E
  3
Dim
350
5F
  3
EdgeColorOff
350
60
  3
Facepattern
350
61
  3
Flat
350
62
  3
FlatWithEdges
350
63
  3
Gouraud
350
64
  3
GouraudWithEdges
350
65
  3
Hidden
350
66
  3
JitterOff
350
67
  3
Linepattern
350
68
  3
Modeling
350
69
  3
OverhangOff
350
6A
  3
Realistic
350
6B
  3
Shaded
350
6C
  3
Shaded with edges
350
6D
  3
Shades of Gray
350
6E
  3
Sketchy
350
6F
  3
Thicken
350
70
  3
Wireframe
350
71
  3
X-Ray
350
72
  0
LAYOUT
  5
1A
330
D
100
AcDbPlotSettings
  1

  4
A3
  6

 40
7.5
 41
20.0
 42
7.5
 43
20.0
 44
420.0
 45
297.0
 46
0.0
 47
0.0
 48
0.0
 49
0.0
140
0.0
141
0.0
142
1.0
143
1.0
 70
1024
 72
1
 73
0
 74
5
  7

 75
16
 76
0
 77
2
 78
300
147
1.0
148
0.0
149
0.0
100
AcDbLayout
  1
Model
 70
1
 71
0
 10
0.0
 20
0.0
 11
420.0
 21
297.0
 12
0.0
 22
0.0
 32
0.0
 14
1e+20
 24
1e+20
 34
1e+20
 15
-1e+20
 25
-1e+20
 35
-1e+20
146
0.0
 13
0.0
 23
0.0
 33
0.0
 16
1.0
 26
0.0
 36
0.0
 17
0.0
 27
1.0
 37
0.0
 76
1
330
17
  0
LAYOUT
  5
1E
330
D
100
AcDbPlotSettings
  1

  4
A3
  6

 40
7.5
 41
20.0
 42
7.5
 43
20.0
 44
420.0
 45
297.0
 46
0.0
 47
0.0
 48
0.0
 49
0.0
140
0.0
141
0.0
142
1.0
143
1.0
 70
0
 72
1
 73
0
 74
5
  7

 75
16
 76
0
 77
2
 78
300
147
1.0
148
0.0
149
0.0
100
AcDbLayout
  1
Layout1
 70
1
 71
1
 10
0.0
 20
0.0
 11
420.0
 21
297.0
 12
0.0
 22
0.0
 32
0.0
 14
1e+20
 24
1e+20
 34
1e+20
 15
-1e+20
 25
-1e+20
 35
-1e+20
146
0.0
 13
0.0
 23
0.0
 33
0.0
 16
1.0
 26
0.0
 36
0.0
 17
0.0
 27
1.0
 37
0.0
 76
1
330
1B
  0
MATERIAL
  5
1F
102
{ACAD_REACTORS
330
E
102
}
330
E
100
AcDbMaterial
  1
ByBlock
  2

 70
0
 40
1.0
 71
1
 41
1.0
 91
-1023410177
 42
1.0
 72
1
  3

 73
1
 74
1
 75
1
 44
0.5
 73
0
 45
1.0
 46
1.0
 77
1
  4

 78
1
 79
1
170
1
 48
1.0
171
1
  6

172
1
173
1
174
1
140
1.0
141
1.0
175
1
  7

176
1
177
1
178
1
143
1.0
179
1
  8

270
1
271
1
272
1
145
1.0
146
1.0
273
1
  9

274
1
275
1
276
1
 42
1.0
 72
1
  3

 73
1
 74
1
 75
1
 94
63
  0
MATERIAL
  5
20
102
{ACAD_REACTORS
330
E
102
}
330
E
100
AcDbMaterial
  1
ByLayer
  2

 70
0
 40
1.0
 71
1
 41
1.0
 91
-1023410177
 42
1.0
 72
1
  3

 73
1
 74
1
 75
1
 44
0.5
 73
0
 45
1.0
 46
1.0
 77
1
  4

 78
1
 79
1
170
1
 48
1.0
171
1
  6

172
1
173
1
174
1
140
1.0
141
1.0
175
1
  7

176
1
177
1
178
1
143
1.0
179
1
  8

270
1
271
1
272
1
145
1.0
146
1.0
273
1
  9

274
1
275
1
276
1
 42
1.0
 72
1
  3

 73
1
 74
1
 75
1
 94
63
  0
MATERIAL
  5
21
102
{ACAD_REACTORS
330
E
102
}
330
E
100
AcDbMaterial
  1
Global
  2

 70
0
 40
1.0
 71
1
 41
1.0
 91
-1023410177
 42
1.0
 72
1
  3

 73
1
 74
1
 75
1
 44
0.5
 73
0
 45
1.0
 46
1.0
 77
1
  4

 78
1
 79
1
170
1
 48
1.0
171
1
  6

172
1
173
1
174
1
140
1.0
141
1.0
175
1
  7

176
1
177
1
178
1
143
1.0
179
1
  8

270
1
271
1
272
1
145
1.0
146
1.0
273
1
  9

274
1
275
1
276
1
 42
1.0
 72
1
  3

 73
1
 74
1
 75
1
 94
63
  0
MLINESTYLE
  5
22
102
{ACAD_REACTORS
330
10
102
}
330
10
100
AcDbMlineStyle
  2
Standard
 70
0
  3

 62
256
 51
90.0
 52
90.0
 71
2
 49
0.5
 62
256
  6
BYLAYER
 49
-0.5
 62
256
  6
BYLAYER
  0
MLEADERSTYLE
  5
2C
102
{ACAD_REACTORS
330
F
102
}
330
F
100
AcDbMLeaderStyle
179
2
170
2
171
1
172
0
 90
2
 40
0.0
 41
0.0
173
1
 91
-1056964608
 92
-2
290
1
 42
2.0
291
1
 43
8.0
  3
Standard
 44
4.0
300

342
29
174
1
175
1
176
0
178
1
 93
-1056964608
 45
4.0
292
0
297
0
 46
4.0
 94
-1056964608
 47
1.0
 49
1.0
140
1.0
294
1
141
0.0
177
0
142
1.0
295
0
296
0
143
3.75
271
0
272
9
273
9
  0
DICTIONARY
  5
2D
330
A
100
AcDbDictionary
280
1
281
1
  3
CREATED_BY_EZDXF
350
2E
  3
WRITTEN_BY_EZDXF
350
104
  0
DICTIONARYVAR
  5
2E
330
2D
100
DictionaryVariables
280
0
  1
1.4.4 @ 2026-09-20T00:06:40.087241+00:00
  0
VISUALSTYLE
  5
5A
102
{ACAD_REACTORS
330
16
102
}
330
16
100
AcDbVisualStyle
  2
2dWireframe
 70
4
177
3
291
0
 70
58
 90
2
176
1
 90
2
176
1
 90
0
176
1
 90
0
176
1
 40
0.6
176
1
 40
30.0
176
1
 62
7
420
16777215
176
1
 90
1
176
1
 90
4
176
1
 62
7
176
1
 62
257
176
1
 90
1
176
1
 90
1
176
1
 40
1.0
176
1
 90
8
176
1
 62
7
176
1
 40
1.0
176
1
 90
1
176
1
 90
6
176
1
 90
2
176
1
 62
7
176
1
 90
5
176
1
 90
0
176
1
 90
0
176
1
290
0
176
1
 90
1
176
1
 40
0.0
176
1
 90
0
176
1
290
1
176
1
290
1
176
1
290
0
176
1
290
0
176
1
290
0
176
1
290
0
176
1
290
0
176
1
290
0
176
1
290
0
176
1
 90
50
176
1
 40
0.0
176
1
 40
1.0
176
1
 90
0
176
1
 62
18
420
0
176
1
 90
50
176
1
 90
3
176
1
 62
5
420
255
176
1
290
0
176
1
 90
50
176
1
 90
50
176
1
 90
50
176
1
290
0
176
1
 90
50
176
1
 62
256
176
0
 40
1.0
176
0
 90
2
176
1
  1
strokes_ogs.tif
176
1
290
0
176
1
 40
1.0
176
1
 40
1.0
176
1
  0
VISUALSTYLE
  5
5B
102
{ACAD_REACTORS
330
16
102
}
330
16
100
AcDbVisualStyle
  2
Basic
 70
7
177
3
291
1
 70
58
 90
2
176
1
 90
2
176
1
 90
0
176
1
 90
1
176
1
 40
0.6
176
1
 40
30.0
176
1
 62
7
420
16777215
176
1
 90
1
176
1
 90
4
176
1
 62
7
176
1
 62
257
176
1
 90
1
176
1
 90
1
176
1
 40
1.0
176
1
 90
8
176
1
 62
7
176
1
 40
1.0
176
1
 90
1
176
1
 90
6
176
1
 90
2
176
1
 62
7
176
1
 90
5
176
1
 90
0
176
1
 90
0
176
1
290
0
176
1
 90
1
176
1
 40
0.0
176
1
 90
0
176
1
290
0
176
1
290
1
176
1
290
1
176
1
290
0
176
1
290
0
176
1
290
0
176
1
290
0
176
1
290
0
176
1
290
0
176
1
 90
50
176
1
 40
0.0
176
1
 40
1.0
176
1
 90
0
176
1
 62
18
420
0
176
1
 90
50
176
1
 90
3
176
1
 62
5
420
255
176
1
290
0
176
1
 90
50
176
1
 90
50
176
1
 90
50
176
1
290
0
176
1
 90
50
176
1
 62
256
176
0
 40
1.0
176
0
 90
2
176
1
  1
strokes_ogs.tif
176
1
290
0
176
1
 40
1.0
176
1
 40
1.0
176
1
  0
VISUALSTYLE
  5
5C
102
{ACAD_REACTORS
330
16
102
}
330
16
100
AcDbVisualStyle
  2
Brighten
 70
12
177
3
291
1
 70
58
 90
2
176
1
 90
2
176
1
 90
0
176
1
 90
2
176
1
 40
0.6
176
1
 40
30.0
176
1
 62
7
420
16777215
176
1
 90
1
176
1
 90
4
176
1
 62
7
176
1
 62
257
176
1
 90
1
176
1
 90
1
176
1
 40
1.0
176
1
 90
8
176
1
 62
7
176
1
 40
1.0
176
1
 90
1
176
1
 90
6
176
1
 90
2
176
1
 62
7
176
1
 90
5
176
1
 90
0
176
1
 90
0
176
1
290
0
176
1
 90
1
176
1
 40
0.0
176
1
 90
0
176
1
290
0
176
1
290
1
176
1
290
1
176
1
290
0
176
1
290
0
176
1
290
0
176
1
290
0
176
1
290
0
176
1
290
0
176
1
 90
50
176
1
 40
0.0
176
1
 40
1.0
176
1
 90
0
176
1
 62
18
420
0
176
1
 90
50
176
1
 90
3
176
1
 62
5
420
255
176
1
290
0
176
1
 90
50
176
1
 90
50
176
1
 90
50
176
1
290
0
176
1
 90
50
176
1
 62
256
176
0
 40
1.0
176
0
 90
2
176
1
  1
strokes_ogs.tif
176
1
290
0
176
1
 40
1.0
176
1
 40
1.0
176
1
  0
VISUALSTYLE
  5
5D
102
{ACAD_REACTORS
330
16
102
}
330
16
100
AcDbVisualStyle
  2
ColorChange
 70
16
177
3
291
1
 70
58
 90
2
176
1
 90
2
176
1
 90
0
176
1
 90
2
176
1
 40
0.6
176
1
 40
30.0
176
1
 62
7
420
16777215
176
1
 90
1
176
1
 90
4
176
1
 62
7
176
1
 62
257
176
1
 90
1
176
1
 90
1
176
1
 40
1.0
176
1
 90
8
176
1
 62
7
176
1
 40
1.0
176
1
 90
1
176
1
 90
6
176
1
 90
2
176
1
 62
7
176
1
 90
5
176
1
 90
0
176
1
 90
0
176
1
290
0
176
1
 90
1
176
1
 40
0.0
176
1
 90
0
176
1
290
0
176
1
290
1
176
1
290
1
176
1
290
0
176
1
290
0
176
1
290
0
176
1
290
0
176
1
290
0
176
1
290
0
176
1
 90
50
176
1
 40
0.0
176
1
 40
1.0
176
1
 90
0
176
1
 62
18
420
0
176
1
 90
50
176
1
 90
3
176
1
 62
5
420
255
176
1
290
0
176
1
 90
50
176
1
 90
50
176
1
 90
50
176
1
290
0
176
1
 90
50
176
1
 62
256
176
0
 40
1.0
176
0
 90
2
176
1
  1
strokes_ogs.tif
176
1
290
0
176
1
 40
1.0
176
1
 40
1.0
176
1
  0
VISUALSTYLE
  5
5E
102
{ACAD_REACTORS
330
16
102
}
330
16
100
AcDbVisualStyle
  2
Conceptual
 70
9
177
3
291
0
 70
58
 90
2
176
1
 90
2
176
1
 90
0
176
1
 90
3
176
1
 40
0.6
176
1
 40
30.0
176
1
 62
7
420
16777215
176
1
 90
1
176
1
 90
4
176
1
 62
7
176
1
 62
257
176
1
 90
1
176
1
 90
1
176
1
 40
1.0
176
1
 90
8
176
1
 62
7
176
1
 40
1.0
176
1
 90
1
176
1
 90
6
176
1
 90
2
176
1
 62
7
176
1
 90
5
176
1
 90
0
176
1
 90
0
176
1
290
0
176
1
 90
1
176
1
 40
0.0
176
1
 90
0
176
1
290
0
176
1
290
1
176
1
290
1
176
1
290
0
176
1
290
0
176
1
290
0
176
1
290
0
176
1
290
0
176
1
290
0
176
1
 90
50
176
1
 40
0.0
176
1
 40
1.0
176
1
 90
0
176
1
 62
18
420
0
176
1
 90
50
176
1
 90
3
176
1
 62
5
420
255
176
1
290
0
176
1
 90
50
176
1
 90
50
176
1
 90
50
176
1
290
0
176
1
 90
50
176
1
 62
256
176
0
 40
1.0
176
0
 90
2
176
1
  1
strokes_ogs.tif
176
1
290
0
176
1
 40
1.0
176
1
 40
1.0
176
1
  0
VISUALSTYLE
  5
5F
102
{ACAD_REACTORS
330
16
102
}
330
16
100
AcDbVisualStyle
  2
Dim
 70
11
177
3
291
1
 70
58
 90
2
176
1
 90
2
176
1
 90
0
176
1
 90
2
176
1
 40
0.6
176
1
 40
30.0
176
1
 62
7
420
16777215
176
1
 90
1
176
1
 90
4
176
1
 62
7
176
1
 62
257
176
1
 90
1
176
1
 90
1
176
1
 40
1.0
176
1
 90
8
176
1
 62
7
176
1
 40
1.0
176
1
 90
1
176
1
 90
6
176
1
 90
2
176
1
 62
7
176
1
 90
5
176
1
 90
0
176
1
 90
0
176
1
290
0
176
1
 90
1
176
1
 40
0.0
176
1
 90
0
176
1
290
0
176
1
290
1
176
1
290
1
176
1
290
0
176
1
290
0
176
1
290
0
176
1
290
0
176
1
290
0
176
1
290
0
176
1
 90
50
176
1
 40
0.0
176
1
 40
1.0
176
1
 90
0
176
1
 62
18
420
0
176
1
 90
50
176
1
 90
3
176
1
 62
5
420
255
176
1
290
0
176
1
 90
50
176
1
 90
50
176
1
 90
50
176
1
290
0
176
1
 90
50
176
1
 62
256
176
0
 40
1.0
176
0
 90
2
176
1
  1
strokes_ogs.tif
176
1
290
0
176
1
 40
1.0
176
1
 40
1.0
176
1
  0
VISUALSTYLE
  5
60
102
{ACAD_REACTORS
330
16
102
}
330
16
100
AcDbVisualStyle
  2
EdgeColorOff
 70
22
177
3
291
1
 70
58
 90
2
176
1
 90
2
176
1
 90
0
176
1
 90
2
176
1
 40
0.6
176
1
 40
30.0
176
1
 62
7
420
16777215
176
1
 90
1
176
1
 90
4
176
1
 62
7
176
1
 62
257
176
1
 90
1
176
1
 90
1
176
1
 40
1.0
176
1
 90
8
176
1
 62
7
176
1
 40
1.0
176
1
 90
1
176
1
 90
6
176
1
 90
2
176
1
 62
7
176
1
 90
5
176
1
 90
0
176
1
 90
0
176
1
290
0
176
1
 90
1
176
1
 40
0.0
176
1
 90
0
176
1
290
0
176
1
290
1
176
1
290
1
176
1
290
0
176
1
290
0
176
1
290
0
176
1
290
0
176
1
290
0
176
1
290
0
176
1
 90
50
176
1
 40
0.0
176
1
 40
1.0
176
1
 90
0
176
1
 62
18
420
0
176
1
 90
50
176
1
 90
3
176
1
 62
5
420
255
176
1
290
0
176
1
 90
50
176
1
 90
50
176
1
 90
50
176
1
290
0
176
1
 90
50
176
1
 62
256
176
0
 40
1.0
176
0
 90
2
176
1
  1
strokes_ogs.tif
176
1
290
0
176
1
 40
1.0
176
1
 40
1.0
176
1
  0
VISUALSTYLE
  5
61
102
{ACAD_REACTORS
330
16
102
}
330
16
100
AcDbVisualStyle
  2
Facepattern
 70
15
177
3
291
1
 70
58
 90
2
176
1
 90
2
176
1
 90
0
176
1
 90
2
176
1
 40
0.6
176
1
 40
30.0
176
1
 62
7
420
16777215
176
1
 90
1
176
1
 90
4
176
1
 62
7
176
1
 62
257
176
1
 90
1
176
1
 90
1
176
1
 40
1.0
176
1
 90
8
176
1
 62
7
176
1
 40
1.0
176
1
 90
1
176
1
 90
6
176
1
 90
2
176
1
 62
7
176
1
 90
5
176
1
 90
0
176
1
 90
0
176
1
290
0
176
1
 90
1
176
1
 40
0.0
176
1
 90
0
176
1
290
0
176
1
290
1
176
1
290
1
176
1
290
0
176
1
290
0
176
1
290
0
176
1
290
0
176
1
290
0
176
1
290
0
176
1
 90
50
176
1
 40
0.0
176
1
 40
1.0
176
1
 90
0
176
1
 62
18
420
0
176
1
 90
50
176
1
 90
3
176
1
 62
5
420
255
176
1
290
0
176
1
 90
50
176
1
 90
50
176
1
 90
50
176
1
290
0
176
1
 90
50
176
1
 62
256
176
0
 40
1.0
176
0
 90
2
176
1
  1
strokes_ogs.tif
176
1
290
0
176
1
 40
1.0
176
1
 40
1.0
176
1
  0
VISUALSTYLE
  5
62
102
{ACAD_REACTORS
330
16
102
}
330
16
100
AcDbVisualStyle
  2
Flat
 70
0
177
3
291
1
 70
58
 90
2
176
1
 90
2
176
1
 90
0
176
1
 90
2
176
1
 40
0.6
176
1
 40
30.0
176
1
 62
7
420
16777215
176
1
 90
1
176
1
 90
4
176
1
 62
7
176
1
 62
257
176
1
 90
1
176
1
 90
1
176
1
 40
1.0
176
1
 90
8
176
1
 62
7
176
1
 40
1.0
176
1
 90
1
176
1
 90
6
176
1
 90
2
176
1
 62
7
176
1
 90
5
176
1
 90
0
176
1
 90
0
176
1
290
0
176
1
 90
1
176
1
 40
0.0
176
1
 90
0
176
1
290
0
176
1
290
1
176
1
290
1
176
1
290
0
176
1
290
0
176
1
290
0
176
1
290
0
176
1
290
0
176
1
290
0
176
1
 90
50
176
1
 40
0.0
176
1
 40
1.0
176
1
 90
0
176
1
 62
18
420
0
176
1
 90
50
176
1
 90
3
176
1
 62
5
420
255
176
1
290
0
176
1
 90
50
176
1
 90
50
176
1
 90
50
176
1
290
0
176
1
 90
50
176
1
 62
256
176
0
 40
1.0
176
0
 90
2
176
1
  1
strokes_ogs.tif
176
1
290
0
176
1
 40
1.0
176
1
 40
1.0
176
1
  0
VISUALSTYLE
  5
63
102
{ACAD_REACTORS
330
16
102
}
330
16
100
AcDbVisualStyle
  2
FlatWithEdges
 70
1
177
3
291
1
 70
58
 90
2
176
1
 90
2
176
1
 90
0
176
1
 90
2
176
1
 40
0.6
176
1
 40
30.0
176
1
 62
7
420
16777215
176
1
 90
1
176
1
 90
4
176
1
 62
7
176
1
 62
257
176
1
 90
1
176
1
 90
1
176
1
 40
1.0
176
1
 90
8
176
1
 62
7
176
1
 40
1.0
176
1
 90
1
176
1
 90
6
176
1
 90
2
176
1
 62
7
176
1
 90
5
176
1
 90
0
176
1
 90
0
176
1
290
0
176
1
 90
1
176
1
 40
0.0
176
1
 90
0
176
1
290
0
176
1
290
1
176
1
290
1
176
1
290
0
176
1
290
0
176
1
290
0
176
1
290
0
176
1
290
0
176
1
290
0
176
1
 90
50
176
1
 40
0.0
176
1
 40
1.0
176
1
 90
0
176
1
 62
18
420
0
176
1
 90
50
176
1
 90
3
176
1
 62
5
420
255
176
1
290
0
176
1
 90
50
176
1
 90
50
176
1
 90
50
176
1
290
0
176
1
 90
50
176
1
 62
256
176
0
 40
1.0
176
0
 90
2
176
1
  1
strokes_ogs.tif
176
1
290
0
176
1
 40
1.0
176
1
 40
1.0
176
1
  0
VISUALSTYLE
  5
64
102
{ACAD_REACTORS
330
16
102
}
330
16
100
AcDbVisualStyle
  2
Gouraud
 70
2
177
3
291
1
 70
58
 90
2
176
1
 90
2
176
1
 90
0
176
1
 90
2
176
1
 40
0.6
176
1
 40
30.0
176
1
 62
7
420
16777215
176
1
 90
1
176
1
 90
4
176
1
 62
7
176
1
 62
257
176
1
 90
1
176
1
 90
1
176
1
 40
1.0
176
1
 90
8
176
1
 62
7
176
1
 40
1.0
176
1
 90
1
176
1
 90
6
176
1
 90
2
176
1
 62
7
176
1
 90
5
176
1
 90
0
176
1
 90
0
176
1
290
0
176
1
 90
1
176
1
 40
0.0
176
1
 90
0
176
1
290
0
176
1
290
1
176
1
290
1
176
1
290
0
176
1
290
0
176
1
290
0
176
1
290
0
176
1
290
0
176
1
290
0
176
1
 90
50
176
1
 40
0.0
176
1
 40
1.0
176
1
 90
0
176
1
 62
18
420
0
176
1
 90
50
176
1
 90
3
176
1
 62
5
420
255
176
1
290
0
176
1
 90
50
176
1
 90
50
176
1
 90
50
176
1
290
0
176
1
 90
50
176
1
 62
256
176
0
 40
1.0
176
0
 90
2
176
1
  1
strokes_ogs.tif
176
1
290
0
176
1
 40
1.0
176
1
 40
1.0
176
1
  0
VISUALSTYLE
  5
65
102
{ACAD_REACTORS
330
16
102
}
330
16
100
AcDbVisualStyle
  2
GouraudWithEdges
 70
3
177
3
291
1
 70
58
 90
2
176
1
 90
2
176
1
 90
0
176
1
 90
2
176
1
 40
0.6
176
1
 40
30.0
176
1
 62
7
420
16777215
176
1
 90
1
176
1
 90
4
176
1
 62
7
176
1
 62
257
176
1
 90
1
176
1
 90
1
176
1
 40
1.0
176
1
 90
8
176
1
 62
7
176
1
 40
1.0
176
1
 90
1
176
1
 90
6
176
1
 90
2
176
1
 62
7
176
1
 90
5
176
1
 90
0
176
1
 90
0
176
1
290
0
176
1
 90
1
176
1
 40
0.0
176
1
 90
0
176
1
290
0
176
1
290
1
176
1
290
1
176
1
290
0
176
1
290
0
176
1
290
0
176
1
290
0
176
1
290
0
176
1
290
0
176
1
 90
50
176
1
 40
0.0
176
1
 40
1.0
176
1
 90
0
176
1
 62
18
420
0
176
1
 90
50
176
1
 90
3
176
1
 62
5
420
255
176
1
290
0
176
1
 90
50
176
1
 90
50
176
1
 90
50
176
1
290
0
176
1
 90
50
176
1
 62
256
176
0
 40
1.0
176
0
 90
2
176
1
  1
strokes_ogs.tif
176
1
290
0
176
1
 40
1.0
176
1
 40
1.0
176
1
  0
VISUALSTYLE
  5
66
102
{ACAD_REACTORS
330
16
102
}
330
16
100
AcDbVisualStyle
  2
Hidden
 70
6
177
3
291
0
 70
58
 90
2
176
1
 90
2
176
1
 90
0
176
1
 90
1
176
1
 40
0.6
176
1
 40
30.0
176
1
 62
7
420
16777215
176
1
 90
1
176
1
 90
4
176
1
 62
7
176
1
 62
257
176
1
 90
1
176
1
 90
1
176
1
 40
1.0
176
1
 90
8
176
1
 62
7
176
1
 40
1.0
176
1
 90
1
176
1
 90
6
176
1
 90
2
176
1
 62
7
176
1
 90
5
176
1
 90
0
176
1
 90
0
176
1
290
0
176
1
 90
1
176
1
 40
0.0
176
1
 90
0
176
1
290
0
176
1
290
1
176
1
290
1
176
1
290
0
176
1
290
0
176
1
290
0
176
1
290
0
176
1
290
0
176
1
290
0
176
1
 90
50
176
1
 40
0.0
176
1
 40
1.0
176
1
 90
0
176
1
 62
18
420
0
176
1
 90
50
176
1
 90
3
176
1
 62
5
420
255
176
1
290
0
176
1
 90
50
176
1
 90
50
176
1
 90
50
176
1
290
0
176
1
 90
50
176
1
 62
256
176
0
 40
1.0
176
0
 90
2
176
1
  1
strokes_ogs.tif
176
1
290
0
176
1
 40
1.0
176
1
 40
1.0
176
1
  0
VISUALSTYLE
  5
67
102
{ACAD_REACTORS
330
16
102
}
330
16
100
AcDbVisualStyle
  2
JitterOff
 70
20
177
3
291
1
 70
58
 90
2
176
1
 90
2
176
1
 90
0
176
1
 90
2
176
1
 40
0.6
176
1
 40
30.0
176
1
 62
7
420
16777215
176
1
 90
1
176
1
 90
4
176
1
 62
7
176
1
 62
257
176
1
 90
1
176
1
 90
1
176
1
 40
1.0
176
1
 90
8
176
1
 62
7
176
1
 40
1.0
176
1
 90
1
176
1
 90
6
176
1
 90
2
176
1
 62
7
176
1
 90
5
176
1
 90
0
176
1
 90
0
176
1
290
0
176
1
 90
1
176
1
 40
0.0
176
1
 90
0
176
1
290
0
176
1
290
1
176
1
290
1
176
1
290
0
176
1
290
0
176
1
290
0
176
1
290
0
176
1
290
0
176
1
290
0
176
1
 90
50
176
1
 40
0.0
176
1
 40
1.0
176
1
 90
0
176
1
 62
18
420
0
176
1
 90
50
176
1
 90
3
176
1
 62
5
420
255
176
1
290
0
176
1
 90
50
176
1
 90
50
176
1
 90
50
176
1
290
0
176
1
 90
50
176
1
 62
256
176
0
 40
1.0
176
0
 90
2
176
1
  1
strokes_ogs.tif
176
1
290
0
176
1
 40
1.0
176
1
 40
1.0
176
1
  0
VISUALSTYLE
  5
68
102
{ACAD_REACTORS
330
16
102
}
330
16
100
AcDbVisualStyle
  2
Linepattern
 70
14
177
3
291
1
 70
58
 90
2
176
1
 90
2
176
1
 90
0
176
1
 90
2
176
1
 40
0.6
176
1
 40
30.0
176
1
 62
7
420
16777215
176
1
 90
1
176
1
 90
4
176
1
 62
7
176
1
 62
257
176
1
 90
1
176
1
 90
1
176
1
 40
1.0
176
1
 90
8
176
1
 62
7
176
1
 40
1.0
176
1
 90
1
176
1
 90
6
176
1
 90
2
176
1
 62
7
176
1
 90
5
176
1
 90
0
176
1
 90
0
176
1
290
0
176
1
 90
1
176
1
 40
0.0
176
1
 90
0
176
1
290
0
176
1
290
1
176
1
290
1
176
1
290
0
176
1
290
0
176
1
290
0
176
1
290
0
176
1
290
0
176
1
290
0
176
1
 90
50
176
1
 40
0.0
176
1
 40
1.0
176
1
 90
0
176
1
 62
18
420
0
176
1
 90
50
176
1
 90
3
176
1
 62
5
420
255
176
1
290
0
176
1
 90
50
176
1
 90
50
176
1
 90
50
176
1
290
0
176
1
 90
50
176
1
 62
256
176
0
 40
1.0
176
0
 90
2
176
1
  1
strokes_ogs.tif
176
1
290
0
176
1
 40
1.0
176
1
 40
1.0
176
1
  0
VISUALSTYLE
  5
69
102
{ACAD_REACTORS
330
16
102
}
330
16
100
AcDbVisualStyle
  2
Modeling
 70
10
177
3
291
0
 70
58
 90
2
176
1
 90
2
176
1
 90
0
176
1
 90
2
176
1
 40
0.6
176
1
 40
30.0
176
1
 62
7
420
16777215
176
1
 90
1
176
1
 90
4
176
1
 62
7
176
1
 62
257
176
1
 90
1
176
1
 90
1
176
1
 40
1.0
176
1
 90
8
176
1
 62
7
176
1
 40
1.0
176
1
 90
1
176
1
 90
6
176
1
 90
2
176
1
 62
7
176
1
 90
5
176
1
 90
0
176
1
 90
0
176
1
290
0
176
1
 90
1
176
1
 40
0.0
176
1
 90
0
176
1
290
0
176
1
290
1
176
1
290
1
176
1
290
0
176
1
290
0
176
1
290
0
176
1
290
0
176
1
290
0
176
1
290
0
176
1
 90
50
176
1
 40
0.0
176
1
 40
1.0
176
1
 90
0
176
1
 62
18
420
0
176
1
 90
50
176
1
 90
3
176
1
 62
5
420
255
176
1
290
0
176
1
 90
50
176
1
 90
50
176
1
 90
50
176
1
290
0
176
1
 90
50
176
1
 62
256
176
0
 40
1.0
176
0
 90
2
176
1
  1
strokes_ogs.tif
176
1
290
0
176
1
 40
1.0
176
1
 40
1.0
176
1
  0
VISUALSTYLE
  5
6A
102
{ACAD_REACTORS
330
16
102
}
330
16
100
AcDbVisualStyle
  2
OverhangOff
 70
21
177
3
291
1
 70
58
 90
2
176
1
 90
2
176
1
 90
0
176
1
 90
2
176
1
 40
0.6
176
1
 40
30.0
176
1
 62
7
420
16777215
176
1
 90
1
176
1
 90
4
176
1
 62
7
176
1
 62
257
176
1
 90
1
176
1
 90
1
176
1
 40
1.0
176
1
 90
8
176
1
 62
7
176
1
 40
1.0
176
1
 90
1
176
1
 90
6
176
1
 90
2
176
1
 62
7
176
1
 90
5
176
1
 90
0
176
1
 90
0
176
1
290
0
176
1
 90
1
176
1
 40
0.0
176
1
 90
0
176
1
290
0
176
1
290
1
176
1
290
1
176
1
290
0
176
1
290
0
176
1
290
0
176
1
290
0
176
1
290
0
176
1
290
0
176
1
 90
50
176
1
 40
0.0
176
1
 40
1.0
176
1
 90
0
176
1
 62
18
420
0
176
1
 90
50
176
1
 90
3
176
1
 62
5
420
255
176
1
290
0
176
1
 90
50
176
1
 90
50
176
1
 90
50
176
1
290
0
176
1
 90
50
176
1
 62
256
176
0
 40
1.0
176
0
 90
2
176
1
  1
strokes_ogs.tif
176
1
290
0
176
1
 40
1.0
176
1
 40
1.0
176
1
  0
VISUALSTYLE
  5
6B
102
{ACAD_REACTORS
330
16
102
}
330
16
100
AcDbVisualStyle
  2
Realistic
 70
8
177
3
291
0
 70
58
 90
2
176
1
 90
2
176
1
 90
0
176
1
 90
2
176
1
 40
0.6
176
1
 40
30.0
176
1
 62
7
420
16777215
176
1
 90
1
176
1
 90
4
176
1
 62
7
176
1
 62
257
176
1
 90
1
176
1
 90
1
176
1
 40
1.0
176
1
 90
8
176
1
 62
7
176
1
 40
1.0
176
1
 90
1
176
1
 90
6
176
1
 90
2
176
1
 62
7
176
1
 90
5
176
1
 90
0
176
1
 90
0
176
1
290
0
176
1
 90
1
176
1
 40
0.0
176
1
 90
0
176
1
290
0
176
1
290
1
176
1
290
1
176
1
290
0
176
1
290
0
176
1
290
0
176
1
290
0
176
1
290
0
176
1
290
0
176
1
 90
50
176
1
 40
0.0
176
1
 40
1.0
176
1
 90
0
176
1
 62
18
420
0
176
1
 90
50
176
1
 90
3
176
1
 62
5
420
255
176
1
290
0
176
1
 90
50
176
1
 90
50
176
1
 90
50
176
1
290
0
176
1
 90
50
176
1
 62
256
176
0
 40
1.0
176
0
 90
2
176
1
  1
strokes_ogs.tif
176
1
290
0
176
1
 40
1.0
176
1
 40
1.0
176
1
  0
VISUALSTYLE
  5
6C
102
{ACAD_REACTORS
330
16
102
}
330
16
100
AcDbVisualStyle
  2
Shaded
 70
27
177
3
291
0
 70
58
 90
2
176
1
 90
2
176
1
 90
0
176
1
 90
2
176
1
 40
0.6
176
1
 40
30.0
176
1
 62
7
420
16777215
176
1
 90
1
176
1
 90
4
176
1
 62
7
176
1
 62
257
176
1
 90
1
176
1
 90
1
176
1
 40
1.0
176
1
 90
8
176
1
 62
7
176
1
 40
1.0
176
1
 90
1
176
1
 90
6
176
1
 90
2
176
1
 62
7
176
1
 90
5
176
1
 90
0
176
1
 90
0
176
1
290
0
176
1
 90
1
176
1
 40
0.0
176
1
 90
0
176
1
290
0
176
1
290
1
176
1
290
1
176
1
290
0
176
1
290
0
176
1
290
0
176
1
290
0
176
1
290
0
176
1
290
0
176
1
 90
50
176
1
 40
0.0
176
1
 40
1.0
176
1
 90
0
176
1
 62
18
420
0
176
1
 90
50
176
1
 90
3
176
1
 62
5
420
255
176
1
290
0
176
1
 90
50
176
1
 90
50
176
1
 90
50
176
1
290
0
176
1
 90
50
176
1
 62
256
176
0
 40
1.0
176
0
 90
2
176
1
  1
strokes_ogs.tif
176
1
290
0
176
1
 40
1.0
176
1
 40
1.0
176
1
  0
VISUALSTYLE
  5
6D
102
{ACAD_REACTORS
330
16
102
}
330
16
100
AcDbVisualStyle
  2
Shaded with edges
 70
26
177
3
291
0
 70
58
 90
2
176
1
 90
2
176
1
 90
0
176
1
 90
2
176
1
 40
0.6
176
1
 40
30.0
176
1
 62
7
420
16777215
176
1
 90
1
176
1
 90
4
176
1
 62
7
176
1
 62
257
176
1
 90
1
176
1
 90
1
176
1
 40
1.0
176
1
 90
8
176
1
 62
7
176
1
 40
1.0
176
1
 90
1
176
1
 90
6
176
1
 90
2
176
1
 62
7
176
1
 90
5
176
1
 90
0
176
1
 90
0
176
1
290
0
176
1
 90
1
176
1
 40
0.0
176
1
 90
0
176
1
290
0
176
1
290
1
176
1
290
1
176
1
290
0
176
1
290
0
176
1
290
0
176
1
290
0
176
1
290
0
176
1
290
0
176
1
 90
50
176
1
 40
0.0
176
1
 40
1.0
176
1
 90
0
176
1
 62
18
420
0
176
1
 90
50
176
1
 90
3
176
1
 62
5
420
255
176
1
290
0
176
1
 90
50
176
1
 90
50
176
1
 90
50
176
1
290
0
176
1
 90
50
176
1
 62
256
176
0
 40
1.0
176
0
 90
2
176
1
  1
strokes_ogs.tif
176
1
290
0
176
1
 40
1.0
176
1
 40
1.0
176
1
  0
VISUALSTYLE
  5
6E
102
{ACAD_REACTORS
330
16
102
}
330
16
100
AcDbVisualStyle
  2
Shades of Gray
 70
23
177
3
291
0
 70
58
 90
2
176
1
 90
2
176
1
 90
0
176
1
 90
2
176
1
 40
0.6
176
1
 40
30.0
176
1
 62
7
420
16777215
176
1
 90
1
176
1
 90
4
176
1
 62
7
176
1
 62
257
176
1
 90
1
176
1
 90
1
176
1
 40
1.0
176
1
 90
8
176
1
 62
7
176
1
 40
1.0
176
1
 90
1
176
1
 90
6
176
1
 90
2
176
1
 62
7
176
1
 90
5
176
1
 90
0
176
1
 90
0
176
1
290
0
176
1
 90
1
176
1
 40
0.0
176
1
 90
0
176
1
290
0
176
1
290
1
176
1
290
1
176
1
290
0
176
1
290
0
176
1
290
0
176
1
290
0
176
1
290
0
176
1
290
0
176
1
 90
50
176
1
 40
0.0
176
1
 40
1.0
176
1
 90
0
176
1
 62
18
420
0
176
1
 90
50
176
1
 90
3
176
1
 62
5
420
255
176
1
290
0
176
1
 90
50
176
1
 90
50
176
1
 90
50
176
1
290
0
176
1
 90
50
176
1
 62
256
176
0
 40
1.0
176
0
 90
2
176
1
  1
strokes_ogs.tif
176
1
290
0
176
1
 40
1.0
176
1
 40
1.0
176
1
  0
VISUALSTYLE
  5
6F
102
{ACAD_REACTORS
330
16
102
}
330
16
100
AcDbVisualStyle
  2
Sketchy
 70
24
177
3
291
0
 70
58
 90
2
176
1
 90
2
176
1
 90
0
176
1
 90
1
176
1
 40
0.6
176
1
 40
30.0
176
1
 62
7
420
16777215
176
1
 90
1
176
1
 90
4
176
1
 62
7
176
1
 62
257
176
1
 90
1
176
1
 90
1
176
1
 40
1.0
176
1
 90
8
176
1
 62
7
176
1
 40
1.0
176
1
 90
1
176
1
 90
6
176
1
 90
2
176
1
 62
7
176
1
 90
5
176
1
 90
0
176
1
 90
0
176
1
290
0
176
1
 90
1
176
1
 40
0.0
176
1
 90
0
176
1
290
0
176
1
290
1
176
1
290
1
176
1
290
0
176
1
290
0
176
1
290
0
176
1
290
0
176
1
290
0
176
1
290
0
176
1
 90
50
176
1
 40
0.0
176
1
 40
1.0
176
1
 90
0
176
1
 62
18
420
0
176
1
 90
50
176
1
 90
3
176
1
 62
5
420
255
176
1
290
0
176
1
 90
50
176
1
 90
50
176
1
 90
50
176
1
290
0
176
1
 90
50
176
1
 62
256
176
0
 40
1.0
176
0
 90
2
176
1
  1
strokes_ogs.tif
176
1
290
0
176
1
 40
1.0
176
1
 40
1.0
176
1
  0
VISUALSTYLE
  5
70
102
{ACAD_REACTORS
330
16
102
}
330
16
100
AcDbVisualStyle
  2
Thicken
 70
13
177
3
291
1
 70
58
 90
2
176
1
 90
2
176
1
 90
0
176
1
 90
2
176
1
 40
0.6
176
1
 40
30.0
176
1
 62
7
420
16777215
176
1
 90
1
176
1
 90
4
176
1
 62
7
176
1
 62
257
176
1
 90
1
176
1
 90
1
176
1
 40
1.0
176
1
 90
8
176
1
 62
7
176
1
 40
1.0
176
1
 90
1
176
1
 90
6
176
1
 90
2
176
1
 62
7
176
1
 90
5
176
1
 90
0
176
1
 90
0
176
1
290
0
176
1
 90
1
176
1
 40
0.0
176
1
 90
0
176
1
290
0
176
1
290
1
176
1
290
1
176
1
290
0
176
1
290
0
176
1
290
0
176
1
290
0
176
1
290
0
176
1
290
0
176
1
 90
50
176
1
 40
0.0
176
1
 40
1.0
176
1
 90
0
176
1
 62
18
420
0
176
1
 90
50
176
1
 90
3
176
1
 62
5
420
255
176
1
290
0
176
1
 90
50
176
1
 90
50
176
1
 90
50
176
1
290
0
176
1
 90
50
176
1
 62
256
176
0
 40
1.0
176
0
 90
2
176
1
  1
strokes_ogs.tif
176
1
290
0
176
1
 40
1.0
176
1
 40
1.0
176
1
  0
VISUALSTYLE
  5
71
102
{ACAD_REACTORS
330
16
102
}
330
16
100
AcDbVisualStyle
  2
Wireframe
 70
5
177
3
291
0
 70
58
 90
2
176
1
 90
2
176
1
 90
0
176
1
 90
0
176
1
 40
0.6
176
1
 40
30.0
176
1
 62
7
420
16777215
176
1
 90
1
176
1
 90
4
176
1
 62
7
176
1
 62
257
176
1
 90
1
176
1
 90
1
176
1
 40
1.0
176
1
 90
8
176
1
 62
7
176
1
 40
1.0
176
1
 90
1
176
1
 90
6
176
1
 90
2
176
1
 62
7
176
1
 90
5
176
1
 90
0
176
1
 90
0
176
1
290
0
176
1
 90
1
176
1
 40
0.0
176
1
 90
0
176
1
290
0
176
1
290
1
176
1
290
1
176
1
290
0
176
1
290
0
176
1
290
0
176
1
290
0
176
1
290
0
176
1
290
0
176
1
 90
50
176
1
 40
0.0
176
1
 40
1.0
176
1
 90
0
176
1
 62
18
420
0
176
1
 90
50
176
1
 90
3
176
1
 62
5
420
255
176
1
290
0
176
1
 90
50
176
1
 90
50
176
1
 90
50
176
1
290
0
176
1
 90
50
176
1
 62
256
176
0
 40
1.0
176
0
 90
2
176
1
  1
strokes_ogs.tif
176
1
290
0
176
1
 40
1.0
176
1
 40
1.0
176
1
  0
VISUALSTYLE
  5
72
102
{ACAD_REACTORS
330
16
102
}
330
16
100
AcDbVisualStyle
  2
X-Ray
 70
25
177
3
291
0
 70
58
 90
2
176
1
 90
2
176
1
 90
0
176
1
 90
2
176
1
 40
0.5
176
1
 40
30.0
176
1
 62
7
420
16777215
176
1
 90
1
176
1
 90
4
176
1
 62
7
176
1
 62
257
176
1
 90
1
176
1
 90
1
176
1
 40
1.0
176
1
 90
8
176
1
 62
7
176
1
 40
1.0
176
1
 90
1
176
1
 90
6
176
1
 90
2
176
1
 62
7
176
1
 90
5
176
1
 90
0
176
1
 90
0
176
1
290
0
176
1
 90
1
176
1
 40
0.0
176
1
 90
0
176
1
290
0
176
1
290
1
176
1
290
1
176
1
290
0
176
1
290
0
176
1
290
0
176
1
290
0
176
1
290
0
176
1
290
0
176
1
 90
50
176
1
 40
0.0
176
1
 40
1.0
176
1
 90
0
176
1
 62
18
420
0
176
1
 90
50
176
1
 90
3
176
1
 62
5
420
255
176
1
290
0
176
1
 90
50
176
1
 90
50
176
1
 90
50
176
1
290
0
176
1
 90
50
176
1
 62
256
176
0
 40
1.0
176
0
 90
2
176
1
  1
strokes_ogs.tif
176
1
290
0
176
1
 40
1.0
176
1
 40
1.0
176
1
  0
DICTIONARYVAR
  5
104
330
2D
100
DictionaryVariables
280
0
  1
1.4.4 @ 2026-09-20T00:06:40.115562+00:00
  0
ENDSEC
  0
EOF
