# «Волжский Горизонт» — обводы по плазовой таблице
o rubka
v 115400.0000 0.0000 12550.0000
v 115400.0000 687.5000 12550.0000
v 115400.0000 1375.0000 12550.0000
v 115400.0000 2062.5000 12550.0000
v 115400.0000 2750.0000 12550.0000
v 115400.0000 3437.5000 12550.0000
v 115400.0000 4125.0000 12550.0000
v 115400.0000 4812.5000 12550.0000
v 115400.0000 5500.0000 12550.0000
v 115400.0000 5500.0000 13025.0000
v 115400.0000 5500.0000 13500.0000
v 115400.0000 5500.0000 13975.0000
v 115400.0000 5500.0000 14450.0000
v 115400.0000 5500.0000 14925.0000
v 115400.0000 5500.0000 15400.0000
v 115400.0000 4812.5000 15400.0000
v 115400.0000 4125.0000 15400.0000
v 115400.0000 3437.5000 15400.0000
v 115400.0000 2750.0000 15400.0000
v 115400.0000 2062.5000 15400.0000
v 115400.0000 1375.0000 15400.0000
v 115400.0000 687.5000 15400.0000
v 115400.0000 0.0000 15400.0000
v 115400.0000 -687.5000 15400.0000
v 115400.0000 -1375.0000 15400.0000
v 115400.0000 -2062.5000 15400.0000
v 115400.0000 -2750.0000 15400.0000
v 115400.0000 -3437.5000 15400.0000
v 115400.0000 -4125.0000 15400.0000
v 115400.0000 -4812.5000 15400.0000
v 115400.0000 -5500.0000 15400.0000
v 115400.0000 -5500.0000 14925.0000
v 115400.0000 -5500.0000 14450.0000
v 115400.0000 -5500.0000 13975.0000
v 115400.0000 -5500.0000 13500.0000
v 115400.0000 -5500.0000 13025.0000
v 115400.0000 -5500.0000 12550.0000
v 115400.0000 -4812.5000 12550.0000
v 115400.0000 -4125.0000 12550.0000
v 115400.0000 -3437.5000 12550.0000
v 115400.0000 -2750.0000 12550.0000
v 115400.0000 -2062.5000 12550.0000
v 115400.0000 -1375.0000 12550.0000
v 115400.0000 -687.5000 12550.0000
v 116050.0000 0.0000 12550.0000
v 116050.0000 687.5000 12550.0000
v 116050.0000 1375.0000 12550.0000
v 116050.0000 2062.5000 12550.0000
v 116050.0000 2750.0000 12550.0000
v 116050.0000 3437.5000 12550.0000
v 116050.0000 4125.0000 12550.0000
v 116050.0000 4812.5000 12550.0000
v 116050.0000 5500.0000 12550.0000
v 116050.0000 5500.0000 13025.0000
v 116050.0000 5500.0000 13500.0000
v 116050.0000 5500.0000 13975.0000
v 116050.0000 5500.0000 14450.0000
v 116050.0000 5500.0000 14925.0000
v 116050.0000 5500.0000 15400.0000
v 116050.0000 4812.5000 15400.0000
v 116050.0000 4125.0000 15400.0000
v 116050.0000 3437.5000 15400.0000
v 116050.0000 2750.0000 15400.0000
v 116050.0000 2062.5000 15400.0000
v 116050.0000 1375.0000 15400.0000
v 116050.0000 687.5000 15400.0000
v 116050.0000 0.0000 15400.0000
v 116050.0000 -687.5000 15400.0000
v 116050.0000 -1375.0000 15400.0000
v 116050.0000 -2062.5000 15400.0000
v 116050.0000 -2750.0000 15400.0000
v 116050.0000 -3437.5000 15400.0000
v 116050.0000 -4125.0000 15400.0000
v 116050.0000 -4812.5000 15400.0000
v 116050.0000 -5500.0000 15400.0000
v 116050.0000 -5500.0000 14925.0000
v 116050.0000 -5500.0000 14450.0000
v 116050.0000 -5500.0000 13975.0000
v 116050.0000 -5500.0000 13500.0000
v 116050.0000 -5500.0000 13025.0000
v 116050.0000 -5500.0000 12550.0000
v 116050.0000 -4812.5000 12550.0000
v 116050.0000 -4125.0000 12550.0000
v 116050.0000 -3437.5000 12550.0000
v 116050.0000 -2750.0000 12550.0000
v 116050.0000 -2062.5000 12550.0000
v 116050.0000 -1375.0000 12550.0000
v 116050.0000 -687.5000 12550.0000
v 116700.0000 0.0000 12550.0000
v 116700.0000 687.5000 12550.0000
v 116700.0000 1375.0000 12550.0000
v 116700.0000 2062.5000 12550.0000
v 116700.0000 2750.0000 12550.0000
v 116700.0000 3437.5000 12550.0000
v 116700.0000 4125.0000 12550.0000
v 116700.0000 4812.5000 12550.0000
v 116700.0000 5500.0000 12550.0000
v 116700.0000 5500.0000 13025.0000
v 116700.0000 5500.0000 13500.0000
v 116700.0000 5500.0000 13975.0000
v 116700.0000 5500.0000 14450.0000
v 116700.0000 5500.0000 14925.0000
v 116700.0000 5500.0000 15400.0000
v 116700.0000 4812.5000 15400.0000
v 116700.0000 4125.0000 15400.0000
v 116700.0000 3437.5000 15400.0000
v 116700.0000 2750.0000 15400.0000
v 116700.0000 2062.5000 15400.0000
v 116700.0000 1375.0000 15400.0000
v 116700.0000 687.5000 15400.0000
v 116700.0000 0.0000 15400.0000
v 116700.0000 -687.5000 15400.0000
v 116700.0000 -1375.0000 15400.0000
v 116700.0000 -2062.5000 15400.0000
v 116700.0000 -2750.0000 15400.0000
v 116700.0000 -3437.5000 15400.0000
v 116700.0000 -4125.0000 15400.0000
v 116700.0000 -4812.5000 15400.0000
v 116700.0000 -5500.0000 15400.0000
v 116700.0000 -5500.0000 14925.0000
v 116700.0000 -5500.0000 14450.0000
v 116700.0000 -5500.0000 13975.0000
v 116700.0000 -5500.0000 13500.0000
v 116700.0000 -5500.0000 13025.0000
v 116700.0000 -5500.0000 12550.0000
v 116700.0000 -4812.5000 12550.0000
v 116700.0000 -4125.0000 12550.0000
v 116700.0000 -3437.5000 12550.0000
v 116700.0000 -2750.0000 12550.0000
v 116700.0000 -2062.5000 12550.0000
v 116700.0000 -1375.0000 12550.0000
v 116700.0000 -687.5000 12550.0000
v 117350.0000 0.0000 12550.0000
v 117350.0000 687.5000 12550.0000
v 117350.0000 1375.0000 12550.0000
v 117350.0000 2062.5000 12550.0000
v 117350.0000 2750.0000 12550.0000
v 117350.0000 3437.5000 12550.0000
v 117350.0000 4125.0000 12550.0000
v 117350.0000 4812.5000 12550.0000
v 117350.0000 5500.0000 12550.0000
v 117350.0000 5500.0000 13025.0000
v 117350.0000 5500.0000 13500.0000
v 117350.0000 5500.0000 13975.0000
v 117350.0000 5500.0000 14450.0000
v 117350.0000 5500.0000 14925.0000
v 117350.0000 5500.0000 15400.0000
v 117350.0000 4812.5000 15400.0000
v 117350.0000 4125.0000 15400.0000
v 117350.0000 3437.5000 15400.0000
v 117350.0000 2750.0000 15400.0000
v 117350.0000 2062.5000 15400.0000
v 117350.0000 1375.0000 15400.0000
v 117350.0000 687.5000 15400.0000
v 117350.0000 0.0000 15400.0000
v 117350.0000 -687.5000 15400.0000
v 117350.0000 -1375.0000 15400.0000
v 117350.0000 -2062.5000 15400.0000
v 117350.0000 -2750.0000 15400.0000
v 117350.0000 -3437.5000 15400.0000
v 117350.0000 -4125.0000 15400.0000
v 117350.0000 -4812.5000 15400.0000
v 117350.0000 -5500.0000 15400.0000
v 117350.0000 -5500.0000 14925.0000
v 117350.0000 -5500.0000 14450.0000
v 117350.0000 -5500.0000 13975.0000
v 117350.0000 -5500.0000 13500.0000
v 117350.0000 -5500.0000 13025.0000
v 117350.0000 -5500.0000 12550.0000
v 117350.0000 -4812.5000 12550.0000
v 117350.0000 -4125.0000 12550.0000
v 117350.0000 -3437.5000 12550.0000
v 117350.0000 -2750.0000 12550.0000
v 117350.0000 -2062.5000 12550.0000
v 117350.0000 -1375.0000 12550.0000
v 117350.0000 -687.5000 12550.0000
v 118000.0000 0.0000 12550.0000
v 118000.0000 687.5000 12550.0000
v 118000.0000 1375.0000 12550.0000
v 118000.0000 2062.5000 12550.0000
v 118000.0000 2750.0000 12550.0000
v 118000.0000 3437.5000 12550.0000
v 118000.0000 4125.0000 12550.0000
v 118000.0000 4812.5000 12550.0000
v 118000.0000 5500.0000 12550.0000
v 118000.0000 5500.0000 13025.0000
v 118000.0000 5500.0000 13500.0000
v 118000.0000 5500.0000 13975.0000
v 118000.0000 5500.0000 14450.0000
v 118000.0000 5500.0000 14925.0000
v 118000.0000 5500.0000 15400.0000
v 118000.0000 4812.5000 15400.0000
v 118000.0000 4125.0000 15400.0000
v 118000.0000 3437.5000 15400.0000
v 118000.0000 2750.0000 15400.0000
v 118000.0000 2062.5000 15400.0000
v 118000.0000 1375.0000 15400.0000
v 118000.0000 687.5000 15400.0000
v 118000.0000 0.0000 15400.0000
v 118000.0000 -687.5000 15400.0000
v 118000.0000 -1375.0000 15400.0000
v 118000.0000 -2062.5000 15400.0000
v 118000.0000 -2750.0000 15400.0000
v 118000.0000 -3437.5000 15400.0000
v 118000.0000 -4125.0000 15400.0000
v 118000.0000 -4812.5000 15400.0000
v 118000.0000 -5500.0000 15400.0000
v 118000.0000 -5500.0000 14925.0000
v 118000.0000 -5500.0000 14450.0000
v 118000.0000 -5500.0000 13975.0000
v 118000.0000 -5500.0000 13500.0000
v 118000.0000 -5500.0000 13025.0000
v 118000.0000 -5500.0000 12550.0000
v 118000.0000 -4812.5000 12550.0000
v 118000.0000 -4125.0000 12550.0000
v 118000.0000 -3437.5000 12550.0000
v 118000.0000 -2750.0000 12550.0000
v 118000.0000 -2062.5000 12550.0000
v 118000.0000 -1375.0000 12550.0000
v 118000.0000 -687.5000 12550.0000
v 118650.0000 0.0000 12550.0000
v 118650.0000 687.5000 12550.0000
v 118650.0000 1375.0000 12550.0000
v 118650.0000 2062.5000 12550.0000
v 118650.0000 2750.0000 12550.0000
v 118650.0000 3437.5000 12550.0000
v 118650.0000 4125.0000 12550.0000
v 118650.0000 4812.5000 12550.0000
v 118650.0000 5500.0000 12550.0000
v 118650.0000 5500.0000 13025.0000
v 118650.0000 5500.0000 13500.0000
v 118650.0000 5500.0000 13975.0000
v 118650.0000 5500.0000 14450.0000
v 118650.0000 5500.0000 14925.0000
v 118650.0000 5500.0000 15400.0000
v 118650.0000 4812.5000 15400.0000
v 118650.0000 4125.0000 15400.0000
v 118650.0000 3437.5000 15400.0000
v 118650.0000 2750.0000 15400.0000
v 118650.0000 2062.5000 15400.0000
v 118650.0000 1375.0000 15400.0000
v 118650.0000 687.5000 15400.0000
v 118650.0000 0.0000 15400.0000
v 118650.0000 -687.5000 15400.0000
v 118650.0000 -1375.0000 15400.0000
v 118650.0000 -2062.5000 15400.0000
v 118650.0000 -2750.0000 15400.0000
v 118650.0000 -3437.5000 15400.0000
v 118650.0000 -4125.0000 15400.0000
v 118650.0000 -4812.5000 15400.0000
v 118650.0000 -5500.0000 15400.0000
v 118650.0000 -5500.0000 14925.0000
v 118650.0000 -5500.0000 14450.0000
v 118650.0000 -5500.0000 13975.0000
v 118650.0000 -5500.0000 13500.0000
v 118650.0000 -5500.0000 13025.0000
v 118650.0000 -5500.0000 12550.0000
v 118650.0000 -4812.5000 12550.0000
v 118650.0000 -4125.0000 12550.0000
v 118650.0000 -3437.5000 12550.0000
v 118650.0000 -2750.0000 12550.0000
v 118650.0000 -2062.5000 12550.0000
v 118650.0000 -1375.0000 12550.0000
v 118650.0000 -687.5000 12550.0000
v 119300.0000 0.0000 12550.0000
v 119300.0000 687.5000 12550.0000
v 119300.0000 1375.0000 12550.0000
v 119300.0000 2062.5000 12550.0000
v 119300.0000 2750.0000 12550.0000
v 119300.0000 3437.5000 12550.0000
v 119300.0000 4125.0000 12550.0000
v 119300.0000 4812.5000 12550.0000
v 119300.0000 5500.0000 12550.0000
v 119300.0000 5500.0000 13025.0000
v 119300.0000 5500.0000 13500.0000
v 119300.0000 5500.0000 13975.0000
v 119300.0000 5500.0000 14450.0000
v 119300.0000 5500.0000 14925.0000
v 119300.0000 5500.0000 15400.0000
v 119300.0000 4812.5000 15400.0000
v 119300.0000 4125.0000 15400.0000
v 119300.0000 3437.5000 15400.0000
v 119300.0000 2750.0000 15400.0000
v 119300.0000 2062.5000 15400.0000
v 119300.0000 1375.0000 15400.0000
v 119300.0000 687.5000 15400.0000
v 119300.0000 0.0000 15400.0000
v 119300.0000 -687.5000 15400.0000
v 119300.0000 -1375.0000 15400.0000
v 119300.0000 -2062.5000 15400.0000
v 119300.0000 -2750.0000 15400.0000
v 119300.0000 -3437.5000 15400.0000
v 119300.0000 -4125.0000 15400.0000
v 119300.0000 -4812.5000 15400.0000
v 119300.0000 -5500.0000 15400.0000
v 119300.0000 -5500.0000 14925.0000
v 119300.0000 -5500.0000 14450.0000
v 119300.0000 -5500.0000 13975.0000
v 119300.0000 -5500.0000 13500.0000
v 119300.0000 -5500.0000 13025.0000
v 119300.0000 -5500.0000 12550.0000
v 119300.0000 -4812.5000 12550.0000
v 119300.0000 -4125.0000 12550.0000
v 119300.0000 -3437.5000 12550.0000
v 119300.0000 -2750.0000 12550.0000
v 119300.0000 -2062.5000 12550.0000
v 119300.0000 -1375.0000 12550.0000
v 119300.0000 -687.5000 12550.0000
v 119950.0000 0.0000 12550.0000
v 119950.0000 687.5000 12550.0000
v 119950.0000 1375.0000 12550.0000
v 119950.0000 2062.5000 12550.0000
v 119950.0000 2750.0000 12550.0000
v 119950.0000 3437.5000 12550.0000
v 119950.0000 4125.0000 12550.0000
v 119950.0000 4812.5000 12550.0000
v 119950.0000 5500.0000 12550.0000
v 119950.0000 5500.0000 13025.0000
v 119950.0000 5500.0000 13500.0000
v 119950.0000 5500.0000 13975.0000
v 119950.0000 5500.0000 14450.0000
v 119950.0000 5500.0000 14925.0000
v 119950.0000 5500.0000 15400.0000
v 119950.0000 4812.5000 15400.0000
v 119950.0000 4125.0000 15400.0000
v 119950.0000 3437.5000 15400.0000
v 119950.0000 2750.0000 15400.0000
v 119950.0000 2062.5000 15400.0000
v 119950.0000 1375.0000 15400.0000
v 119950.0000 687.5000 15400.0000
v 119950.0000 0.0000 15400.0000
v 119950.0000 -687.5000 15400.0000
v 119950.0000 -1375.0000 15400.0000
v 119950.0000 -2062.5000 15400.0000
v 119950.0000 -2750.0000 15400.0000
v 119950.0000 -3437.5000 15400.0000
v 119950.0000 -4125.0000 15400.0000
v 119950.0000 -4812.5000 15400.0000
v 119950.0000 -5500.0000 15400.0000
v 119950.0000 -5500.0000 14925.0000
v 119950.0000 -5500.0000 14450.0000
v 119950.0000 -5500.0000 13975.0000
v 119950.0000 -5500.0000 13500.0000
v 119950.0000 -5500.0000 13025.0000
v 119950.0000 -5500.0000 12550.0000
v 119950.0000 -4812.5000 12550.0000
v 119950.0000 -4125.0000 12550.0000
v 119950.0000 -3437.5000 12550.0000
v 119950.0000 -2750.0000 12550.0000
v 119950.0000 -2062.5000 12550.0000
v 119950.0000 -1375.0000 12550.0000
v 119950.0000 -687.5000 12550.0000
v 120600.0000 0.0000 12550.0000
v 120600.0000 687.5000 12550.0000
v 120600.0000 1375.0000 12550.0000
v 120600.0000 2062.5000 12550.0000
v 120600.0000 2750.0000 12550.0000
v 120600.0000 3437.5000 12550.0000
v 120600.0000 4125.0000 12550.0000
v 120600.0000 4812.5000 12550.0000
v 120600.0000 5500.0000 12550.0000
v 120600.0000 5500.0000 13025.0000
v 120600.0000 5500.0000 13500.0000
v 120600.0000 5500.0000 13975.0000
v 120600.0000 5500.0000 14450.0000
v 120600.0000 5500.0000 14925.0000
v 120600.0000 5500.0000 15400.0000
v 120600.0000 4812.5000 15400.0000
v 120600.0000 4125.0000 15400.0000
v 120600.0000 3437.5000 15400.0000
v 120600.0000 2750.0000 15400.0000
v 120600.0000 2062.5000 15400.0000
v 120600.0000 1375.0000 15400.0000
v 120600.0000 687.5000 15400.0000
v 120600.0000 0.0000 15400.0000
v 120600.0000 -687.5000 15400.0000
v 120600.0000 -1375.0000 15400.0000
v 120600.0000 -2062.5000 15400.0000
v 120600.0000 -2750.0000 15400.0000
v 120600.0000 -3437.5000 15400.0000
v 120600.0000 -4125.0000 15400.0000
v 120600.0000 -4812.5000 15400.0000
v 120600.0000 -5500.0000 15400.0000
v 120600.0000 -5500.0000 14925.0000
v 120600.0000 -5500.0000 14450.0000
v 120600.0000 -5500.0000 13975.0000
v 120600.0000 -5500.0000 13500.0000
v 120600.0000 -5500.0000 13025.0000
v 120600.0000 -5500.0000 12550.0000
v 120600.0000 -4812.5000 12550.0000
v 120600.0000 -4125.0000 12550.0000
v 120600.0000 -3437.5000 12550.0000
v 120600.0000 -2750.0000 12550.0000
v 120600.0000 -2062.5000 12550.0000
v 120600.0000 -1375.0000 12550.0000
v 120600.0000 -687.5000 12550.0000
v 121250.0000 0.0000 12550.0000
v 121250.0000 687.5000 12550.0000
v 121250.0000 1375.0000 12550.0000
v 121250.0000 2062.5000 12550.0000
v 121250.0000 2750.0000 12550.0000
v 121250.0000 3437.5000 12550.0000
v 121250.0000 4125.0000 12550.0000
v 121250.0000 4812.5000 12550.0000
v 121250.0000 5500.0000 12550.0000
v 121250.0000 5500.0000 13025.0000
v 121250.0000 5500.0000 13500.0000
v 121250.0000 5500.0000 13975.0000
v 121250.0000 5500.0000 14450.0000
v 121250.0000 5500.0000 14925.0000
v 121250.0000 5500.0000 15400.0000
v 121250.0000 4812.5000 15400.0000
v 121250.0000 4125.0000 15400.0000
v 121250.0000 3437.5000 15400.0000
v 121250.0000 2750.0000 15400.0000
v 121250.0000 2062.5000 15400.0000
v 121250.0000 1375.0000 15400.0000
v 121250.0000 687.5000 15400.0000
v 121250.0000 0.0000 15400.0000
v 121250.0000 -687.5000 15400.0000
v 121250.0000 -1375.0000 15400.0000
v 121250.0000 -2062.5000 15400.0000
v 121250.0000 -2750.0000 15400.0000
v 121250.0000 -3437.5000 15400.0000
v 121250.0000 -4125.0000 15400.0000
v 121250.0000 -4812.5000 15400.0000
v 121250.0000 -5500.0000 15400.0000
v 121250.0000 -5500.0000 14925.0000
v 121250.0000 -5500.0000 14450.0000
v 121250.0000 -5500.0000 13975.0000
v 121250.0000 -5500.0000 13500.0000
v 121250.0000 -5500.0000 13025.0000
v 121250.0000 -5500.0000 12550.0000
v 121250.0000 -4812.5000 12550.0000
v 121250.0000 -4125.0000 12550.0000
v 121250.0000 -3437.5000 12550.0000
v 121250.0000 -2750.0000 12550.0000
v 121250.0000 -2062.5000 12550.0000
v 121250.0000 -1375.0000 12550.0000
v 121250.0000 -687.5000 12550.0000
v 121900.0000 0.0000 12550.0000
v 121900.0000 687.5000 12550.0000
v 121900.0000 1375.0000 12550.0000
v 121900.0000 2062.5000 12550.0000
v 121900.0000 2750.0000 12550.0000
v 121900.0000 3437.5000 12550.0000
v 121900.0000 4125.0000 12550.0000
v 121900.0000 4812.5000 12550.0000
v 121900.0000 5500.0000 12550.0000
v 121900.0000 5500.0000 13025.0000
v 121900.0000 5500.0000 13500.0000
v 121900.0000 5500.0000 13975.0000
v 121900.0000 5500.0000 14450.0000
v 121900.0000 5500.0000 14925.0000
v 121900.0000 5500.0000 15400.0000
v 121900.0000 4812.5000 15400.0000
v 121900.0000 4125.0000 15400.0000
v 121900.0000 3437.5000 15400.0000
v 121900.0000 2750.0000 15400.0000
v 121900.0000 2062.5000 15400.0000
v 121900.0000 1375.0000 15400.0000
v 121900.0000 687.5000 15400.0000
v 121900.0000 0.0000 15400.0000
v 121900.0000 -687.5000 15400.0000
v 121900.0000 -1375.0000 15400.0000
v 121900.0000 -2062.5000 15400.0000
v 121900.0000 -2750.0000 15400.0000
v 121900.0000 -3437.5000 15400.0000
v 121900.0000 -4125.0000 15400.0000
v 121900.0000 -4812.5000 15400.0000
v 121900.0000 -5500.0000 15400.0000
v 121900.0000 -5500.0000 14925.0000
v 121900.0000 -5500.0000 14450.0000
v 121900.0000 -5500.0000 13975.0000
v 121900.0000 -5500.0000 13500.0000
v 121900.0000 -5500.0000 13025.0000
v 121900.0000 -5500.0000 12550.0000
v 121900.0000 -4812.5000 12550.0000
v 121900.0000 -4125.0000 12550.0000
v 121900.0000 -3437.5000 12550.0000
v 121900.0000 -2750.0000 12550.0000
v 121900.0000 -2062.5000 12550.0000
v 121900.0000 -1375.0000 12550.0000
v 121900.0000 -687.5000 12550.0000
v 122550.0000 0.0000 12550.0000
v 122550.0000 687.5000 12550.0000
v 122550.0000 1375.0000 12550.0000
v 122550.0000 2062.5000 12550.0000
v 122550.0000 2750.0000 12550.0000
v 122550.0000 3437.5000 12550.0000
v 122550.0000 4125.0000 12550.0000
v 122550.0000 4812.5000 12550.0000
v 122550.0000 5500.0000 12550.0000
v 122550.0000 5500.0000 13025.0000
v 122550.0000 5500.0000 13500.0000
v 122550.0000 5500.0000 13975.0000
v 122550.0000 5500.0000 14450.0000
v 122550.0000 5500.0000 14925.0000
v 122550.0000 5500.0000 15400.0000
v 122550.0000 4812.5000 15400.0000
v 122550.0000 4125.0000 15400.0000
v 122550.0000 3437.5000 15400.0000
v 122550.0000 2750.0000 15400.0000
v 122550.0000 2062.5000 15400.0000
v 122550.0000 1375.0000 15400.0000
v 122550.0000 687.5000 15400.0000
v 122550.0000 0.0000 15400.0000
v 122550.0000 -687.5000 15400.0000
v 122550.0000 -1375.0000 15400.0000
v 122550.0000 -2062.5000 15400.0000
v 122550.0000 -2750.0000 15400.0000
v 122550.0000 -3437.5000 15400.0000
v 122550.0000 -4125.0000 15400.0000
v 122550.0000 -4812.5000 15400.0000
v 122550.0000 -5500.0000 15400.0000
v 122550.0000 -5500.0000 14925.0000
v 122550.0000 -5500.0000 14450.0000
v 122550.0000 -5500.0000 13975.0000
v 122550.0000 -5500.0000 13500.0000
v 122550.0000 -5500.0000 13025.0000
v 122550.0000 -5500.0000 12550.0000
v 122550.0000 -4812.5000 12550.0000
v 122550.0000 -4125.0000 12550.0000
v 122550.0000 -3437.5000 12550.0000
v 122550.0000 -2750.0000 12550.0000
v 122550.0000 -2062.5000 12550.0000
v 122550.0000 -1375.0000 12550.0000
v 122550.0000 -687.5000 12550.0000
v 123200.0000 0.0000 12550.0000
v 123200.0000 687.5000 12550.0000
v 123200.0000 1375.0000 12550.0000
v 123200.0000 2062.5000 12550.0000
v 123200.0000 2750.0000 12550.0000
v 123200.0000 3437.5000 12550.0000
v 123200.0000 4125.0000 12550.0000
v 123200.0000 4812.5000 12550.0000
v 123200.0000 5500.0000 12550.0000
v 123200.0000 5500.0000 13025.0000
v 123200.0000 5500.0000 13500.0000
v 123200.0000 5500.0000 13975.0000
v 123200.0000 5500.0000 14450.0000
v 123200.0000 5500.0000 14925.0000
v 123200.0000 5500.0000 15400.0000
v 123200.0000 4812.5000 15400.0000
v 123200.0000 4125.0000 15400.0000
v 123200.0000 3437.5000 15400.0000
v 123200.0000 2750.0000 15400.0000
v 123200.0000 2062.5000 15400.0000
v 123200.0000 1375.0000 15400.0000
v 123200.0000 687.5000 15400.0000
v 123200.0000 0.0000 15400.0000
v 123200.0000 -687.5000 15400.0000
v 123200.0000 -1375.0000 15400.0000
v 123200.0000 -2062.5000 15400.0000
v 123200.0000 -2750.0000 15400.0000
v 123200.0000 -3437.5000 15400.0000
v 123200.0000 -4125.0000 15400.0000
v 123200.0000 -4812.5000 15400.0000
v 123200.0000 -5500.0000 15400.0000
v 123200.0000 -5500.0000 14925.0000
v 123200.0000 -5500.0000 14450.0000
v 123200.0000 -5500.0000 13975.0000
v 123200.0000 -5500.0000 13500.0000
v 123200.0000 -5500.0000 13025.0000
v 123200.0000 -5500.0000 12550.0000
v 123200.0000 -4812.5000 12550.0000
v 123200.0000 -4125.0000 12550.0000
v 123200.0000 -3437.5000 12550.0000
v 123200.0000 -2750.0000 12550.0000
v 123200.0000 -2062.5000 12550.0000
v 123200.0000 -1375.0000 12550.0000
v 123200.0000 -687.5000 12550.0000
v 123850.0000 0.0000 12550.0000
v 123850.0000 687.5000 12550.0000
v 123850.0000 1375.0000 12550.0000
v 123850.0000 2062.5000 12550.0000
v 123850.0000 2750.0000 12550.0000
v 123850.0000 3437.5000 12550.0000
v 123850.0000 4125.0000 12550.0000
v 123850.0000 4812.5000 12550.0000
v 123850.0000 5500.0000 12550.0000
v 123850.0000 5500.0000 13025.0000
v 123850.0000 5500.0000 13500.0000
v 123850.0000 5500.0000 13975.0000
v 123850.0000 5500.0000 14450.0000
v 123850.0000 5500.0000 14925.0000
v 123850.0000 5500.0000 15400.0000
v 123850.0000 4812.5000 15400.0000
v 123850.0000 4125.0000 15400.0000
v 123850.0000 3437.5000 15400.0000
v 123850.0000 2750.0000 15400.0000
v 123850.0000 2062.5000 15400.0000
v 123850.0000 1375.0000 15400.0000
v 123850.0000 687.5000 15400.0000
v 123850.0000 0.0000 15400.0000
v 123850.0000 -687.5000 15400.0000
v 123850.0000 -1375.0000 15400.0000
v 123850.0000 -2062.5000 15400.0000
v 123850.0000 -2750.0000 15400.0000
v 123850.0000 -3437.5000 15400.0000
v 123850.0000 -4125.0000 15400.0000
v 123850.0000 -4812.5000 15400.0000
v 123850.0000 -5500.0000 15400.0000
v 123850.0000 -5500.0000 14925.0000
v 123850.0000 -5500.0000 14450.0000
v 123850.0000 -5500.0000 13975.0000
v 123850.0000 -5500.0000 13500.0000
v 123850.0000 -5500.0000 13025.0000
v 123850.0000 -5500.0000 12550.0000
v 123850.0000 -4812.5000 12550.0000
v 123850.0000 -4125.0000 12550.0000
v 123850.0000 -3437.5000 12550.0000
v 123850.0000 -2750.0000 12550.0000
v 123850.0000 -2062.5000 12550.0000
v 123850.0000 -1375.0000 12550.0000
v 123850.0000 -687.5000 12550.0000
v 124500.0000 0.0000 12550.0000
v 124500.0000 687.5000 12550.0000
v 124500.0000 1375.0000 12550.0000
v 124500.0000 2062.5000 12550.0000
v 124500.0000 2750.0000 12550.0000
v 124500.0000 3437.5000 12550.0000
v 124500.0000 4125.0000 12550.0000
v 124500.0000 4812.5000 12550.0000
v 124500.0000 5500.0000 12550.0000
v 124500.0000 5500.0000 13025.0000
v 124500.0000 5500.0000 13500.0000
v 124500.0000 5500.0000 13975.0000
v 124500.0000 5500.0000 14450.0000
v 124500.0000 5500.0000 14925.0000
v 124500.0000 5500.0000 15400.0000
v 124500.0000 4812.5000 15400.0000
v 124500.0000 4125.0000 15400.0000
v 124500.0000 3437.5000 15400.0000
v 124500.0000 2750.0000 15400.0000
v 124500.0000 2062.5000 15400.0000
v 124500.0000 1375.0000 15400.0000
v 124500.0000 687.5000 15400.0000
v 124500.0000 0.0000 15400.0000
v 124500.0000 -687.5000 15400.0000
v 124500.0000 -1375.0000 15400.0000
v 124500.0000 -2062.5000 15400.0000
v 124500.0000 -2750.0000 15400.0000
v 124500.0000 -3437.5000 15400.0000
v 124500.0000 -4125.0000 15400.0000
v 124500.0000 -4812.5000 15400.0000
v 124500.0000 -5500.0000 15400.0000
v 124500.0000 -5500.0000 14925.0000
v 124500.0000 -5500.0000 14450.0000
v 124500.0000 -5500.0000 13975.0000
v 124500.0000 -5500.0000 13500.0000
v 124500.0000 -5500.0000 13025.0000
v 124500.0000 -5500.0000 12550.0000
v 124500.0000 -4812.5000 12550.0000
v 124500.0000 -4125.0000 12550.0000
v 124500.0000 -3437.5000 12550.0000
v 124500.0000 -2750.0000 12550.0000
v 124500.0000 -2062.5000 12550.0000
v 124500.0000 -1375.0000 12550.0000
v 124500.0000 -687.5000 12550.0000
v 125150.0000 0.0000 12550.0000
v 125150.0000 687.5000 12550.0000
v 125150.0000 1375.0000 12550.0000
v 125150.0000 2062.5000 12550.0000
v 125150.0000 2750.0000 12550.0000
v 125150.0000 3437.5000 12550.0000
v 125150.0000 4125.0000 12550.0000
v 125150.0000 4812.5000 12550.0000
v 125150.0000 5500.0000 12550.0000
v 125150.0000 5500.0000 13025.0000
v 125150.0000 5500.0000 13500.0000
v 125150.0000 5500.0000 13975.0000
v 125150.0000 5500.0000 14450.0000
v 125150.0000 5500.0000 14925.0000
v 125150.0000 5500.0000 15400.0000
v 125150.0000 4812.5000 15400.0000
v 125150.0000 4125.0000 15400.0000
v 125150.0000 3437.5000 15400.0000
v 125150.0000 2750.0000 15400.0000
v 125150.0000 2062.5000 15400.0000
v 125150.0000 1375.0000 15400.0000
v 125150.0000 687.5000 15400.0000
v 125150.0000 0.0000 15400.0000
v 125150.0000 -687.5000 15400.0000
v 125150.0000 -1375.0000 15400.0000
v 125150.0000 -2062.5000 15400.0000
v 125150.0000 -2750.0000 15400.0000
v 125150.0000 -3437.5000 15400.0000
v 125150.0000 -4125.0000 15400.0000
v 125150.0000 -4812.5000 15400.0000
v 125150.0000 -5500.0000 15400.0000
v 125150.0000 -5500.0000 14925.0000
v 125150.0000 -5500.0000 14450.0000
v 125150.0000 -5500.0000 13975.0000
v 125150.0000 -5500.0000 13500.0000
v 125150.0000 -5500.0000 13025.0000
v 125150.0000 -5500.0000 12550.0000
v 125150.0000 -4812.5000 12550.0000
v 125150.0000 -4125.0000 12550.0000
v 125150.0000 -3437.5000 12550.0000
v 125150.0000 -2750.0000 12550.0000
v 125150.0000 -2062.5000 12550.0000
v 125150.0000 -1375.0000 12550.0000
v 125150.0000 -687.5000 12550.0000
v 125800.0000 0.0000 12550.0000
v 125800.0000 687.5000 12550.0000
v 125800.0000 1375.0000 12550.0000
v 125800.0000 2062.5000 12550.0000
v 125800.0000 2750.0000 12550.0000
v 125800.0000 3437.5000 12550.0000
v 125800.0000 4125.0000 12550.0000
v 125800.0000 4812.5000 12550.0000
v 125800.0000 5500.0000 12550.0000
v 125800.0000 5500.0000 13025.0000
v 125800.0000 5500.0000 13500.0000
v 125800.0000 5500.0000 13975.0000
v 125800.0000 5500.0000 14450.0000
v 125800.0000 5500.0000 14925.0000
v 125800.0000 5500.0000 15400.0000
v 125800.0000 4812.5000 15400.0000
v 125800.0000 4125.0000 15400.0000
v 125800.0000 3437.5000 15400.0000
v 125800.0000 2750.0000 15400.0000
v 125800.0000 2062.5000 15400.0000
v 125800.0000 1375.0000 15400.0000
v 125800.0000 687.5000 15400.0000
v 125800.0000 0.0000 15400.0000
v 125800.0000 -687.5000 15400.0000
v 125800.0000 -1375.0000 15400.0000
v 125800.0000 -2062.5000 15400.0000
v 125800.0000 -2750.0000 15400.0000
v 125800.0000 -3437.5000 15400.0000
v 125800.0000 -4125.0000 15400.0000
v 125800.0000 -4812.5000 15400.0000
v 125800.0000 -5500.0000 15400.0000
v 125800.0000 -5500.0000 14925.0000
v 125800.0000 -5500.0000 14450.0000
v 125800.0000 -5500.0000 13975.0000
v 125800.0000 -5500.0000 13500.0000
v 125800.0000 -5500.0000 13025.0000
v 125800.0000 -5500.0000 12550.0000
v 125800.0000 -4812.5000 12550.0000
v 125800.0000 -4125.0000 12550.0000
v 125800.0000 -3437.5000 12550.0000
v 125800.0000 -2750.0000 12550.0000
v 125800.0000 -2062.5000 12550.0000
v 125800.0000 -1375.0000 12550.0000
v 125800.0000 -687.5000 12550.0000
v 126450.0000 0.0000 12550.0000
v 126450.0000 687.5000 12550.0000
v 126450.0000 1375.0000 12550.0000
v 126450.0000 2062.5000 12550.0000
v 126450.0000 2750.0000 12550.0000
v 126450.0000 3437.5000 12550.0000
v 126450.0000 4125.0000 12550.0000
v 126450.0000 4812.5000 12550.0000
v 126450.0000 5500.0000 12550.0000
v 126450.0000 5500.0000 13025.0000
v 126450.0000 5500.0000 13500.0000
v 126450.0000 5500.0000 13975.0000
v 126450.0000 5500.0000 14450.0000
v 126450.0000 5500.0000 14925.0000
v 126450.0000 5500.0000 15400.0000
v 126450.0000 4812.5000 15400.0000
v 126450.0000 4125.0000 15400.0000
v 126450.0000 3437.5000 15400.0000
v 126450.0000 2750.0000 15400.0000
v 126450.0000 2062.5000 15400.0000
v 126450.0000 1375.0000 15400.0000
v 126450.0000 687.5000 15400.0000
v 126450.0000 0.0000 15400.0000
v 126450.0000 -687.5000 15400.0000
v 126450.0000 -1375.0000 15400.0000
v 126450.0000 -2062.5000 15400.0000
v 126450.0000 -2750.0000 15400.0000
v 126450.0000 -3437.5000 15400.0000
v 126450.0000 -4125.0000 15400.0000
v 126450.0000 -4812.5000 15400.0000
v 126450.0000 -5500.0000 15400.0000
v 126450.0000 -5500.0000 14925.0000
v 126450.0000 -5500.0000 14450.0000
v 126450.0000 -5500.0000 13975.0000
v 126450.0000 -5500.0000 13500.0000
v 126450.0000 -5500.0000 13025.0000
v 126450.0000 -5500.0000 12550.0000
v 126450.0000 -4812.5000 12550.0000
v 126450.0000 -4125.0000 12550.0000
v 126450.0000 -3437.5000 12550.0000
v 126450.0000 -2750.0000 12550.0000
v 126450.0000 -2062.5000 12550.0000
v 126450.0000 -1375.0000 12550.0000
v 126450.0000 -687.5000 12550.0000
v 127100.0000 0.0000 12550.0000
v 127100.0000 687.5000 12550.0000
v 127100.0000 1375.0000 12550.0000
v 127100.0000 2062.5000 12550.0000
v 127100.0000 2750.0000 12550.0000
v 127100.0000 3437.5000 12550.0000
v 127100.0000 4125.0000 12550.0000
v 127100.0000 4812.5000 12550.0000
v 127100.0000 5500.0000 12550.0000
v 127100.0000 5500.0000 13025.0000
v 127100.0000 5500.0000 13500.0000
v 127100.0000 5500.0000 13975.0000
v 127100.0000 5500.0000 14450.0000
v 127100.0000 5500.0000 14925.0000
v 127100.0000 5500.0000 15400.0000
v 127100.0000 4812.5000 15400.0000
v 127100.0000 4125.0000 15400.0000
v 127100.0000 3437.5000 15400.0000
v 127100.0000 2750.0000 15400.0000
v 127100.0000 2062.5000 15400.0000
v 127100.0000 1375.0000 15400.0000
v 127100.0000 687.5000 15400.0000
v 127100.0000 0.0000 15400.0000
v 127100.0000 -687.5000 15400.0000
v 127100.0000 -1375.0000 15400.0000
v 127100.0000 -2062.5000 15400.0000
v 127100.0000 -2750.0000 15400.0000
v 127100.0000 -3437.5000 15400.0000
v 127100.0000 -4125.0000 15400.0000
v 127100.0000 -4812.5000 15400.0000
v 127100.0000 -5500.0000 15400.0000
v 127100.0000 -5500.0000 14925.0000
v 127100.0000 -5500.0000 14450.0000
v 127100.0000 -5500.0000 13975.0000
v 127100.0000 -5500.0000 13500.0000
v 127100.0000 -5500.0000 13025.0000
v 127100.0000 -5500.0000 12550.0000
v 127100.0000 -4812.5000 12550.0000
v 127100.0000 -4125.0000 12550.0000
v 127100.0000 -3437.5000 12550.0000
v 127100.0000 -2750.0000 12550.0000
v 127100.0000 -2062.5000 12550.0000
v 127100.0000 -1375.0000 12550.0000
v 127100.0000 -687.5000 12550.0000
v 127750.0000 0.0000 12550.0000
v 127750.0000 687.5000 12550.0000
v 127750.0000 1375.0000 12550.0000
v 127750.0000 2062.5000 12550.0000
v 127750.0000 2750.0000 12550.0000
v 127750.0000 3437.5000 12550.0000
v 127750.0000 4125.0000 12550.0000
v 127750.0000 4812.5000 12550.0000
v 127750.0000 5500.0000 12550.0000
v 127750.0000 5500.0000 13025.0000
v 127750.0000 5500.0000 13500.0000
v 127750.0000 5500.0000 13975.0000
v 127750.0000 5500.0000 14450.0000
v 127750.0000 5500.0000 14925.0000
v 127750.0000 5500.0000 15400.0000
v 127750.0000 4812.5000 15400.0000
v 127750.0000 4125.0000 15400.0000
v 127750.0000 3437.5000 15400.0000
v 127750.0000 2750.0000 15400.0000
v 127750.0000 2062.5000 15400.0000
v 127750.0000 1375.0000 15400.0000
v 127750.0000 687.5000 15400.0000
v 127750.0000 0.0000 15400.0000
v 127750.0000 -687.5000 15400.0000
v 127750.0000 -1375.0000 15400.0000
v 127750.0000 -2062.5000 15400.0000
v 127750.0000 -2750.0000 15400.0000
v 127750.0000 -3437.5000 15400.0000
v 127750.0000 -4125.0000 15400.0000
v 127750.0000 -4812.5000 15400.0000
v 127750.0000 -5500.0000 15400.0000
v 127750.0000 -5500.0000 14925.0000
v 127750.0000 -5500.0000 14450.0000
v 127750.0000 -5500.0000 13975.0000
v 127750.0000 -5500.0000 13500.0000
v 127750.0000 -5500.0000 13025.0000
v 127750.0000 -5500.0000 12550.0000
v 127750.0000 -4812.5000 12550.0000
v 127750.0000 -4125.0000 12550.0000
v 127750.0000 -3437.5000 12550.0000
v 127750.0000 -2750.0000 12550.0000
v 127750.0000 -2062.5000 12550.0000
v 127750.0000 -1375.0000 12550.0000
v 127750.0000 -687.5000 12550.0000
v 128400.0000 0.0000 12550.0000
v 128400.0000 687.5000 12550.0000
v 128400.0000 1375.0000 12550.0000
v 128400.0000 2062.5000 12550.0000
v 128400.0000 2750.0000 12550.0000
v 128400.0000 3437.5000 12550.0000
v 128400.0000 4125.0000 12550.0000
v 128400.0000 4812.5000 12550.0000
v 128400.0000 5500.0000 12550.0000
v 128400.0000 5500.0000 13025.0000
v 128400.0000 5500.0000 13500.0000
v 128400.0000 5500.0000 13975.0000
v 128400.0000 5500.0000 14450.0000
v 128400.0000 5500.0000 14925.0000
v 128400.0000 5500.0000 15400.0000
v 128400.0000 4812.5000 15400.0000
v 128400.0000 4125.0000 15400.0000
v 128400.0000 3437.5000 15400.0000
v 128400.0000 2750.0000 15400.0000
v 128400.0000 2062.5000 15400.0000
v 128400.0000 1375.0000 15400.0000
v 128400.0000 687.5000 15400.0000
v 128400.0000 0.0000 15400.0000
v 128400.0000 -687.5000 15400.0000
v 128400.0000 -1375.0000 15400.0000
v 128400.0000 -2062.5000 15400.0000
v 128400.0000 -2750.0000 15400.0000
v 128400.0000 -3437.5000 15400.0000
v 128400.0000 -4125.0000 15400.0000
v 128400.0000 -4812.5000 15400.0000
v 128400.0000 -5500.0000 15400.0000
v 128400.0000 -5500.0000 14925.0000
v 128400.0000 -5500.0000 14450.0000
v 128400.0000 -5500.0000 13975.0000
v 128400.0000 -5500.0000 13500.0000
v 128400.0000 -5500.0000 13025.0000
v 128400.0000 -5500.0000 12550.0000
v 128400.0000 -4812.5000 12550.0000
v 128400.0000 -4125.0000 12550.0000
v 128400.0000 -3437.5000 12550.0000
v 128400.0000 -2750.0000 12550.0000
v 128400.0000 -2062.5000 12550.0000
v 128400.0000 -1375.0000 12550.0000
v 128400.0000 -687.5000 12550.0000
v 129050.0000 0.0000 12550.0000
v 129050.0000 687.5000 12550.0000
v 129050.0000 1375.0000 12550.0000
v 129050.0000 2062.5000 12550.0000
v 129050.0000 2750.0000 12550.0000
v 129050.0000 3437.5000 12550.0000
v 129050.0000 4125.0000 12550.0000
v 129050.0000 4812.5000 12550.0000
v 129050.0000 5500.0000 12550.0000
v 129050.0000 5500.0000 13025.0000
v 129050.0000 5500.0000 13500.0000
v 129050.0000 5500.0000 13975.0000
v 129050.0000 5500.0000 14450.0000
v 129050.0000 5500.0000 14925.0000
v 129050.0000 5500.0000 15400.0000
v 129050.0000 4812.5000 15400.0000
v 129050.0000 4125.0000 15400.0000
v 129050.0000 3437.5000 15400.0000
v 129050.0000 2750.0000 15400.0000
v 129050.0000 2062.5000 15400.0000
v 129050.0000 1375.0000 15400.0000
v 129050.0000 687.5000 15400.0000
v 129050.0000 0.0000 15400.0000
v 129050.0000 -687.5000 15400.0000
v 129050.0000 -1375.0000 15400.0000
v 129050.0000 -2062.5000 15400.0000
v 129050.0000 -2750.0000 15400.0000
v 129050.0000 -3437.5000 15400.0000
v 129050.0000 -4125.0000 15400.0000
v 129050.0000 -4812.5000 15400.0000
v 129050.0000 -5500.0000 15400.0000
v 129050.0000 -5500.0000 14925.0000
v 129050.0000 -5500.0000 14450.0000
v 129050.0000 -5500.0000 13975.0000
v 129050.0000 -5500.0000 13500.0000
v 129050.0000 -5500.0000 13025.0000
v 129050.0000 -5500.0000 12550.0000
v 129050.0000 -4812.5000 12550.0000
v 129050.0000 -4125.0000 12550.0000
v 129050.0000 -3437.5000 12550.0000
v 129050.0000 -2750.0000 12550.0000
v 129050.0000 -2062.5000 12550.0000
v 129050.0000 -1375.0000 12550.0000
v 129050.0000 -687.5000 12550.0000
v 129700.0000 0.0000 12550.0000
v 129700.0000 687.5000 12550.0000
v 129700.0000 1375.0000 12550.0000
v 129700.0000 2062.5000 12550.0000
v 129700.0000 2750.0000 12550.0000
v 129700.0000 3437.5000 12550.0000
v 129700.0000 4125.0000 12550.0000
v 129700.0000 4812.5000 12550.0000
v 129700.0000 5500.0000 12550.0000
v 129700.0000 5500.0000 13025.0000
v 129700.0000 5500.0000 13500.0000
v 129700.0000 5500.0000 13975.0000
v 129700.0000 5500.0000 14450.0000
v 129700.0000 5500.0000 14925.0000
v 129700.0000 5500.0000 15400.0000
v 129700.0000 4812.5000 15400.0000
v 129700.0000 4125.0000 15400.0000
v 129700.0000 3437.5000 15400.0000
v 129700.0000 2750.0000 15400.0000
v 129700.0000 2062.5000 15400.0000
v 129700.0000 1375.0000 15400.0000
v 129700.0000 687.5000 15400.0000
v 129700.0000 0.0000 15400.0000
v 129700.0000 -687.5000 15400.0000
v 129700.0000 -1375.0000 15400.0000
v 129700.0000 -2062.5000 15400.0000
v 129700.0000 -2750.0000 15400.0000
v 129700.0000 -3437.5000 15400.0000
v 129700.0000 -4125.0000 15400.0000
v 129700.0000 -4812.5000 15400.0000
v 129700.0000 -5500.0000 15400.0000
v 129700.0000 -5500.0000 14925.0000
v 129700.0000 -5500.0000 14450.0000
v 129700.0000 -5500.0000 13975.0000
v 129700.0000 -5500.0000 13500.0000
v 129700.0000 -5500.0000 13025.0000
v 129700.0000 -5500.0000 12550.0000
v 129700.0000 -4812.5000 12550.0000
v 129700.0000 -4125.0000 12550.0000
v 129700.0000 -3437.5000 12550.0000
v 129700.0000 -2750.0000 12550.0000
v 129700.0000 -2062.5000 12550.0000
v 129700.0000 -1375.0000 12550.0000
v 129700.0000 -687.5000 12550.0000
v 130350.0000 0.0000 12550.0000
v 130350.0000 687.5000 12550.0000
v 130350.0000 1375.0000 12550.0000
v 130350.0000 2062.5000 12550.0000
v 130350.0000 2750.0000 12550.0000
v 130350.0000 3437.5000 12550.0000
v 130350.0000 4125.0000 12550.0000
v 130350.0000 4812.5000 12550.0000
v 130350.0000 5500.0000 12550.0000
v 130350.0000 5500.0000 13025.0000
v 130350.0000 5500.0000 13500.0000
v 130350.0000 5500.0000 13975.0000
v 130350.0000 5500.0000 14450.0000
v 130350.0000 5500.0000 14925.0000
v 130350.0000 5500.0000 15400.0000
v 130350.0000 4812.5000 15400.0000
v 130350.0000 4125.0000 15400.0000
v 130350.0000 3437.5000 15400.0000
v 130350.0000 2750.0000 15400.0000
v 130350.0000 2062.5000 15400.0000
v 130350.0000 1375.0000 15400.0000
v 130350.0000 687.5000 15400.0000
v 130350.0000 0.0000 15400.0000
v 130350.0000 -687.5000 15400.0000
v 130350.0000 -1375.0000 15400.0000
v 130350.0000 -2062.5000 15400.0000
v 130350.0000 -2750.0000 15400.0000
v 130350.0000 -3437.5000 15400.0000
v 130350.0000 -4125.0000 15400.0000
v 130350.0000 -4812.5000 15400.0000
v 130350.0000 -5500.0000 15400.0000
v 130350.0000 -5500.0000 14925.0000
v 130350.0000 -5500.0000 14450.0000
v 130350.0000 -5500.0000 13975.0000
v 130350.0000 -5500.0000 13500.0000
v 130350.0000 -5500.0000 13025.0000
v 130350.0000 -5500.0000 12550.0000
v 130350.0000 -4812.5000 12550.0000
v 130350.0000 -4125.0000 12550.0000
v 130350.0000 -3437.5000 12550.0000
v 130350.0000 -2750.0000 12550.0000
v 130350.0000 -2062.5000 12550.0000
v 130350.0000 -1375.0000 12550.0000
v 130350.0000 -687.5000 12550.0000
v 131000.0000 0.0000 12550.0000
v 131000.0000 687.5000 12550.0000
v 131000.0000 1375.0000 12550.0000
v 131000.0000 2062.5000 12550.0000
v 131000.0000 2750.0000 12550.0000
v 131000.0000 3437.5000 12550.0000
v 131000.0000 4125.0000 12550.0000
v 131000.0000 4812.5000 12550.0000
v 131000.0000 5500.0000 12550.0000
v 131000.0000 5500.0000 13025.0000
v 131000.0000 5500.0000 13500.0000
v 131000.0000 5500.0000 13975.0000
v 131000.0000 5500.0000 14450.0000
v 131000.0000 5500.0000 14925.0000
v 131000.0000 5500.0000 15400.0000
v 131000.0000 4812.5000 15400.0000
v 131000.0000 4125.0000 15400.0000
v 131000.0000 3437.5000 15400.0000
v 131000.0000 2750.0000 15400.0000
v 131000.0000 2062.5000 15400.0000
v 131000.0000 1375.0000 15400.0000
v 131000.0000 687.5000 15400.0000
v 131000.0000 0.0000 15400.0000
v 131000.0000 -687.5000 15400.0000
v 131000.0000 -1375.0000 15400.0000
v 131000.0000 -2062.5000 15400.0000
v 131000.0000 -2750.0000 15400.0000
v 131000.0000 -3437.5000 15400.0000
v 131000.0000 -4125.0000 15400.0000
v 131000.0000 -4812.5000 15400.0000
v 131000.0000 -5500.0000 15400.0000
v 131000.0000 -5500.0000 14925.0000
v 131000.0000 -5500.0000 14450.0000
v 131000.0000 -5500.0000 13975.0000
v 131000.0000 -5500.0000 13500.0000
v 131000.0000 -5500.0000 13025.0000
v 131000.0000 -5500.0000 12550.0000
v 131000.0000 -4812.5000 12550.0000
v 131000.0000 -4125.0000 12550.0000
v 131000.0000 -3437.5000 12550.0000
v 131000.0000 -2750.0000 12550.0000
v 131000.0000 -2062.5000 12550.0000
v 131000.0000 -1375.0000 12550.0000
v 131000.0000 -687.5000 12550.0000
f 1 2 46 45
f 2 3 47 46
f 3 4 48 47
f 4 5 49 48
f 5 6 50 49
f 6 7 51 50
f 7 8 52 51
f 8 9 53 52
f 9 10 54 53
f 10 11 55 54
f 11 12 56 55
f 12 13 57 56
f 13 14 58 57
f 14 15 59 58
f 15 16 60 59
f 16 17 61 60
f 17 18 62 61
f 18 19 63 62
f 19 20 64 63
f 20 21 65 64
f 21 22 66 65
f 22 23 67 66
f 23 24 68 67
f 24 25 69 68
f 25 26 70 69
f 26 27 71 70
f 27 28 72 71
f 28 29 73 72
f 29 30 74 73
f 30 31 75 74
f 31 32 76 75
f 32 33 77 76
f 33 34 78 77
f 34 35 79 78
f 35 36 80 79
f 36 37 81 80
f 37 38 82 81
f 38 39 83 82
f 39 40 84 83
f 40 41 85 84
f 41 42 86 85
f 42 43 87 86
f 43 44 88 87
f 44 1 45 88
f 45 46 90 89
f 46 47 91 90
f 47 48 92 91
f 48 49 93 92
f 49 50 94 93
f 50 51 95 94
f 51 52 96 95
f 52 53 97 96
f 53 54 98 97
f 54 55 99 98
f 55 56 100 99
f 56 57 101 100
f 57 58 102 101
f 58 59 103 102
f 59 60 104 103
f 60 61 105 104
f 61 62 106 105
f 62 63 107 106
f 63 64 108 107
f 64 65 109 108
f 65 66 110 109
f 66 67 111 110
f 67 68 112 111
f 68 69 113 112
f 69 70 114 113
f 70 71 115 114
f 71 72 116 115
f 72 73 117 116
f 73 74 118 117
f 74 75 119 118
f 75 76 120 119
f 76 77 121 120
f 77 78 122 121
f 78 79 123 122
f 79 80 124 123
f 80 81 125 124
f 81 82 126 125
f 82 83 127 126
f 83 84 128 127
f 84 85 129 128
f 85 86 130 129
f 86 87 131 130
f 87 88 132 131
f 88 45 89 132
f 89 90 134 133
f 90 91 135 134
f 91 92 136 135
f 92 93 137 136
f 93 94 138 137
f 94 95 139 138
f 95 96 140 139
f 96 97 141 140
f 97 98 142 141
f 98 99 143 142
f 99 100 144 143
f 100 101 145 144
f 101 102 146 145
f 102 103 147 146
f 103 104 148 147
f 104 105 149 148
f 105 106 150 149
f 106 107 151 150
f 107 108 152 151
f 108 109 153 152
f 109 110 154 153
f 110 111 155 154
f 111 112 156 155
f 112 113 157 156
f 113 114 158 157
f 114 115 159 158
f 115 116 160 159
f 116 117 161 160
f 117 118 162 161
f 118 119 163 162
f 119 120 164 163
f 120 121 165 164
f 121 122 166 165
f 122 123 167 166
f 123 124 168 167
f 124 125 169 168
f 125 126 170 169
f 126 127 171 170
f 127 128 172 171
f 128 129 173 172
f 129 130 174 173
f 130 131 175 174
f 131 132 176 175
f 132 89 133 176
f 133 134 178 177
f 134 135 179 178
f 135 136 180 179
f 136 137 181 180
f 137 138 182 181
f 138 139 183 182
f 139 140 184 183
f 140 141 185 184
f 141 142 186 185
f 142 143 187 186
f 143 144 188 187
f 144 145 189 188
f 145 146 190 189
f 146 147 191 190
f 147 148 192 191
f 148 149 193 192
f 149 150 194 193
f 150 151 195 194
f 151 152 196 195
f 152 153 197 196
f 153 154 198 197
f 154 155 199 198
f 155 156 200 199
f 156 157 201 200
f 157 158 202 201
f 158 159 203 202
f 159 160 204 203
f 160 161 205 204
f 161 162 206 205
f 162 163 207 206
f 163 164 208 207
f 164 165 209 208
f 165 166 210 209
f 166 167 211 210
f 167 168 212 211
f 168 169 213 212
f 169 170 214 213
f 170 171 215 214
f 171 172 216 215
f 172 173 217 216
f 173 174 218 217
f 174 175 219 218
f 175 176 220 219
f 176 133 177 220
f 177 178 222 221
f 178 179 223 222
f 179 180 224 223
f 180 181 225 224
f 181 182 226 225
f 182 183 227 226
f 183 184 228 227
f 184 185 229 228
f 185 186 230 229
f 186 187 231 230
f 187 188 232 231
f 188 189 233 232
f 189 190 234 233
f 190 191 235 234
f 191 192 236 235
f 192 193 237 236
f 193 194 238 237
f 194 195 239 238
f 195 196 240 239
f 196 197 241 240
f 197 198 242 241
f 198 199 243 242
f 199 200 244 243
f 200 201 245 244
f 201 202 246 245
f 202 203 247 246
f 203 204 248 247
f 204 205 249 248
f 205 206 250 249
f 206 207 251 250
f 207 208 252 251
f 208 209 253 252
f 209 210 254 253
f 210 211 255 254
f 211 212 256 255
f 212 213 257 256
f 213 214 258 257
f 214 215 259 258
f 215 216 260 259
f 216 217 261 260
f 217 218 262 261
f 218 219 263 262
f 219 220 264 263
f 220 177 221 264
f 221 222 266 265
f 222 223 267 266
f 223 224 268 267
f 224 225 269 268
f 225 226 270 269
f 226 227 271 270
f 227 228 272 271
f 228 229 273 272
f 229 230 274 273
f 230 231 275 274
f 231 232 276 275
f 232 233 277 276
f 233 234 278 277
f 234 235 279 278
f 235 236 280 279
f 236 237 281 280
f 237 238 282 281
f 238 239 283 282
f 239 240 284 283
f 240 241 285 284
f 241 242 286 285
f 242 243 287 286
f 243 244 288 287
f 244 245 289 288
f 245 246 290 289
f 246 247 291 290
f 247 248 292 291
f 248 249 293 292
f 249 250 294 293
f 250 251 295 294
f 251 252 296 295
f 252 253 297 296
f 253 254 298 297
f 254 255 299 298
f 255 256 300 299
f 256 257 301 300
f 257 258 302 301
f 258 259 303 302
f 259 260 304 303
f 260 261 305 304
f 261 262 306 305
f 262 263 307 306
f 263 264 308 307
f 264 221 265 308
f 265 266 310 309
f 266 267 311 310
f 267 268 312 311
f 268 269 313 312
f 269 270 314 313
f 270 271 315 314
f 271 272 316 315
f 272 273 317 316
f 273 274 318 317
f 274 275 319 318
f 275 276 320 319
f 276 277 321 320
f 277 278 322 321
f 278 279 323 322
f 279 280 324 323
f 280 281 325 324
f 281 282 326 325
f 282 283 327 326
f 283 284 328 327
f 284 285 329 328
f 285 286 330 329
f 286 287 331 330
f 287 288 332 331
f 288 289 333 332
f 289 290 334 333
f 290 291 335 334
f 291 292 336 335
f 292 293 337 336
f 293 294 338 337
f 294 295 339 338
f 295 296 340 339
f 296 297 341 340
f 297 298 342 341
f 298 299 343 342
f 299 300 344 343
f 300 301 345 344
f 301 302 346 345
f 302 303 347 346
f 303 304 348 347
f 304 305 349 348
f 305 306 350 349
f 306 307 351 350
f 307 308 352 351
f 308 265 309 352
f 309 310 354 353
f 310 311 355 354
f 311 312 356 355
f 312 313 357 356
f 313 314 358 357
f 314 315 359 358
f 315 316 360 359
f 316 317 361 360
f 317 318 362 361
f 318 319 363 362
f 319 320 364 363
f 320 321 365 364
f 321 322 366 365
f 322 323 367 366
f 323 324 368 367
f 324 325 369 368
f 325 326 370 369
f 326 327 371 370
f 327 328 372 371
f 328 329 373 372
f 329 330 374 373
f 330 331 375 374
f 331 332 376 375
f 332 333 377 376
f 333 334 378 377
f 334 335 379 378
f 335 336 380 379
f 336 337 381 380
f 337 338 382 381
f 338 339 383 382
f 339 340 384 383
f 340 341 385 384
f 341 342 386 385
f 342 343 387 386
f 343 344 388 387
f 344 345 389 388
f 345 346 390 389
f 346 347 391 390
f 347 348 392 391
f 348 349 393 392
f 349 350 394 393
f 350 351 395 394
f 351 352 396 395
f 352 309 353 396
f 353 354 398 397
f 354 355 399 398
f 355 356 400 399
f 356 357 401 400
f 357 358 402 401
f 358 359 403 402
f 359 360 404 403
f 360 361 405 404
f 361 362 406 405
f 362 363 407 406
f 363 364 408 407
f 364 365 409 408
f 365 366 410 409
f 366 367 411 410
f 367 368 412 411
f 368 369 413 412
f 369 370 414 413
f 370 371 415 414
f 371 372 416 415
f 372 373 417 416
f 373 374 418 417
f 374 375 419 418
f 375 376 420 419
f 376 377 421 420
f 377 378 422 421
f 378 379 423 422
f 379 380 424 423
f 380 381 425 424
f 381 382 426 425
f 382 383 427 426
f 383 384 428 427
f 384 385 429 428
f 385 386 430 429
f 386 387 431 430
f 387 388 432 431
f 388 389 433 432
f 389 390 434 433
f 390 391 435 434
f 391 392 436 435
f 392 393 437 436
f 393 394 438 437
f 394 395 439 438
f 395 396 440 439
f 396 353 397 440
f 397 398 442 441
f 398 399 443 442
f 399 400 444 443
f 400 401 445 444
f 401 402 446 445
f 402 403 447 446
f 403 404 448 447
f 404 405 449 448
f 405 406 450 449
f 406 407 451 450
f 407 408 452 451
f 408 409 453 452
f 409 410 454 453
f 410 411 455 454
f 411 412 456 455
f 412 413 457 456
f 413 414 458 457
f 414 415 459 458
f 415 416 460 459
f 416 417 461 460
f 417 418 462 461
f 418 419 463 462
f 419 420 464 463
f 420 421 465 464
f 421 422 466 465
f 422 423 467 466
f 423 424 468 467
f 424 425 469 468
f 425 426 470 469
f 426 427 471 470
f 427 428 472 471
f 428 429 473 472
f 429 430 474 473
f 430 431 475 474
f 431 432 476 475
f 432 433 477 476
f 433 434 478 477
f 434 435 479 478
f 435 436 480 479
f 436 437 481 480
f 437 438 482 481
f 438 439 483 482
f 439 440 484 483
f 440 397 441 484
f 441 442 486 485
f 442 443 487 486
f 443 444 488 487
f 444 445 489 488
f 445 446 490 489
f 446 447 491 490
f 447 448 492 491
f 448 449 493 492
f 449 450 494 493
f 450 451 495 494
f 451 452 496 495
f 452 453 497 496
f 453 454 498 497
f 454 455 499 498
f 455 456 500 499
f 456 457 501 500
f 457 458 502 501
f 458 459 503 502
f 459 460 504 503
f 460 461 505 504
f 461 462 506 505
f 462 463 507 506
f 463 464 508 507
f 464 465 509 508
f 465 466 510 509
f 466 467 511 510
f 467 468 512 511
f 468 469 513 512
f 469 470 514 513
f 470 471 515 514
f 471 472 516 515
f 472 473 517 516
f 473 474 518 517
f 474 475 519 518
f 475 476 520 519
f 476 477 521 520
f 477 478 522 521
f 478 479 523 522
f 479 480 524 523
f 480 481 525 524
f 481 482 526 525
f 482 483 527 526
f 483 484 528 527
f 484 441 485 528
f 485 486 530 529
f 486 487 531 530
f 487 488 532 531
f 488 489 533 532
f 489 490 534 533
f 490 491 535 534
f 491 492 536 535
f 492 493 537 536
f 493 494 538 537
f 494 495 539 538
f 495 496 540 539
f 496 497 541 540
f 497 498 542 541
f 498 499 543 542
f 499 500 544 543
f 500 501 545 544
f 501 502 546 545
f 502 503 547 546
f 503 504 548 547
f 504 505 549 548
f 505 506 550 549
f 506 507 551 550
f 507 508 552 551
f 508 509 553 552
f 509 510 554 553
f 510 511 555 554
f 511 512 556 555
f 512 513 557 556
f 513 514 558 557
f 514 515 559 558
f 515 516 560 559
f 516 517 561 560
f 517 518 562 561
f 518 519 563 562
f 519 520 564 563
f 520 521 565 564
f 521 522 566 565
f 522 523 567 566
f 523 524 568 567
f 524 525 569 568
f 525 526 570 569
f 526 527 571 570
f 527 528 572 571
f 528 485 529 572
f 529 530 574 573
f 530 531 575 574
f 531 532 576 575
f 532 533 577 576
f 533 534 578 577
f 534 535 579 578
f 535 536 580 579
f 536 537 581 580
f 537 538 582 581
f 538 539 583 582
f 539 540 584 583
f 540 541 585 584
f 541 542 586 585
f 542 543 587 586
f 543 544 588 587
f 544 545 589 588
f 545 546 590 589
f 546 547 591 590
f 547 548 592 591
f 548 549 593 592
f 549 550 594 593
f 550 551 595 594
f 551 552 596 595
f 552 553 597 596
f 553 554 598 597
f 554 555 599 598
f 555 556 600 599
f 556 557 601 600
f 557 558 602 601
f 558 559 603 602
f 559 560 604 603
f 560 561 605 604
f 561 562 606 605
f 562 563 607 606
f 563 564 608 607
f 564 565 609 608
f 565 566 610 609
f 566 567 611 610
f 567 568 612 611
f 568 569 613 612
f 569 570 614 613
f 570 571 615 614
f 571 572 616 615
f 572 529 573 616
f 573 574 618 617
f 574 575 619 618
f 575 576 620 619
f 576 577 621 620
f 577 578 622 621
f 578 579 623 622
f 579 580 624 623
f 580 581 625 624
f 581 582 626 625
f 582 583 627 626
f 583 584 628 627
f 584 585 629 628
f 585 586 630 629
f 586 587 631 630
f 587 588 632 631
f 588 589 633 632
f 589 590 634 633
f 590 591 635 634
f 591 592 636 635
f 592 593 637 636
f 593 594 638 637
f 594 595 639 638
f 595 596 640 639
f 596 597 641 640
f 597 598 642 641
f 598 599 643 642
f 599 600 644 643
f 600 601 645 644
f 601 602 646 645
f 602 603 647 646
f 603 604 648 647
f 604 605 649 648
f 605 606 650 649
f 606 607 651 650
f 607 608 652 651
f 608 609 653 652
f 609 610 654 653
f 610 611 655 654
f 611 612 656 655
f 612 613 657 656
f 613 614 658 657
f 614 615 659 658
f 615 616 660 659
f 616 573 617 660
f 617 618 662 661
f 618 619 663 662
f 619 620 664 663
f 620 621 665 664
f 621 622 666 665
f 622 623 667 666
f 623 624 668 667
f 624 625 669 668
f 625 626 670 669
f 626 627 671 670
f 627 628 672 671
f 628 629 673 672
f 629 630 674 673
f 630 631 675 674
f 631 632 676 675
f 632 633 677 676
f 633 634 678 677
f 634 635 679 678
f 635 636 680 679
f 636 637 681 680
f 637 638 682 681
f 638 639 683 682
f 639 640 684 683
f 640 641 685 684
f 641 642 686 685
f 642 643 687 686
f 643 644 688 687
f 644 645 689 688
f 645 646 690 689
f 646 647 691 690
f 647 648 692 691
f 648 649 693 692
f 649 650 694 693
f 650 651 695 694
f 651 652 696 695
f 652 653 697 696
f 653 654 698 697
f 654 655 699 698
f 655 656 700 699
f 656 657 701 700
f 657 658 702 701
f 658 659 703 702
f 659 660 704 703
f 660 617 661 704
f 661 662 706 705
f 662 663 707 706
f 663 664 708 707
f 664 665 709 708
f 665 666 710 709
f 666 667 711 710
f 667 668 712 711
f 668 669 713 712
f 669 670 714 713
f 670 671 715 714
f 671 672 716 715
f 672 673 717 716
f 673 674 718 717
f 674 675 719 718
f 675 676 720 719
f 676 677 721 720
f 677 678 722 721
f 678 679 723 722
f 679 680 724 723
f 680 681 725 724
f 681 682 726 725
f 682 683 727 726
f 683 684 728 727
f 684 685 729 728
f 685 686 730 729
f 686 687 731 730
f 687 688 732 731
f 688 689 733 732
f 689 690 734 733
f 690 691 735 734
f 691 692 736 735
f 692 693 737 736
f 693 694 738 737
f 694 695 739 738
f 695 696 740 739
f 696 697 741 740
f 697 698 742 741
f 698 699 743 742
f 699 700 744 743
f 700 701 745 744
f 701 702 746 745
f 702 703 747 746
f 703 704 748 747
f 704 661 705 748
f 705 706 750 749
f 706 707 751 750
f 707 708 752 751
f 708 709 753 752
f 709 710 754 753
f 710 711 755 754
f 711 712 756 755
f 712 713 757 756
f 713 714 758 757
f 714 715 759 758
f 715 716 760 759
f 716 717 761 760
f 717 718 762 761
f 718 719 763 762
f 719 720 764 763
f 720 721 765 764
f 721 722 766 765
f 722 723 767 766
f 723 724 768 767
f 724 725 769 768
f 725 726 770 769
f 726 727 771 770
f 727 728 772 771
f 728 729 773 772
f 729 730 774 773
f 730 731 775 774
f 731 732 776 775
f 732 733 777 776
f 733 734 778 777
f 734 735 779 778
f 735 736 780 779
f 736 737 781 780
f 737 738 782 781
f 738 739 783 782
f 739 740 784 783
f 740 741 785 784
f 741 742 786 785
f 742 743 787 786
f 743 744 788 787
f 744 745 789 788
f 745 746 790 789
f 746 747 791 790
f 747 748 792 791
f 748 705 749 792
f 749 750 794 793
f 750 751 795 794
f 751 752 796 795
f 752 753 797 796
f 753 754 798 797
f 754 755 799 798
f 755 756 800 799
f 756 757 801 800
f 757 758 802 801
f 758 759 803 802
f 759 760 804 803
f 760 761 805 804
f 761 762 806 805
f 762 763 807 806
f 763 764 808 807
f 764 765 809 808
f 765 766 810 809
f 766 767 811 810
f 767 768 812 811
f 768 769 813 812
f 769 770 814 813
f 770 771 815 814
f 771 772 816 815
f 772 773 817 816
f 773 774 818 817
f 774 775 819 818
f 775 776 820 819
f 776 777 821 820
f 777 778 822 821
f 778 779 823 822
f 779 780 824 823
f 780 781 825 824
f 781 782 826 825
f 782 783 827 826
f 783 784 828 827
f 784 785 829 828
f 785 786 830 829
f 786 787 831 830
f 787 788 832 831
f 788 789 833 832
f 789 790 834 833
f 790 791 835 834
f 791 792 836 835
f 792 749 793 836
f 793 794 838 837
f 794 795 839 838
f 795 796 840 839
f 796 797 841 840
f 797 798 842 841
f 798 799 843 842
f 799 800 844 843
f 800 801 845 844
f 801 802 846 845
f 802 803 847 846
f 803 804 848 847
f 804 805 849 848
f 805 806 850 849
f 806 807 851 850
f 807 808 852 851
f 808 809 853 852
f 809 810 854 853
f 810 811 855 854
f 811 812 856 855
f 812 813 857 856
f 813 814 858 857
f 814 815 859 858
f 815 816 860 859
f 816 817 861 860
f 817 818 862 861
f 818 819 863 862
f 819 820 864 863
f 820 821 865 864
f 821 822 866 865
f 822 823 867 866
f 823 824 868 867
f 824 825 869 868
f 825 826 870 869
f 826 827 871 870
f 827 828 872 871
f 828 829 873 872
f 829 830 874 873
f 830 831 875 874
f 831 832 876 875
f 832 833 877 876
f 833 834 878 877
f 834 835 879 878
f 835 836 880 879
f 836 793 837 880
f 837 838 882 881
f 838 839 883 882
f 839 840 884 883
f 840 841 885 884
f 841 842 886 885
f 842 843 887 886
f 843 844 888 887
f 844 845 889 888
f 845 846 890 889
f 846 847 891 890
f 847 848 892 891
f 848 849 893 892
f 849 850 894 893
f 850 851 895 894
f 851 852 896 895
f 852 853 897 896
f 853 854 898 897
f 854 855 899 898
f 855 856 900 899
f 856 857 901 900
f 857 858 902 901
f 858 859 903 902
f 859 860 904 903
f 860 861 905 904
f 861 862 906 905
f 862 863 907 906
f 863 864 908 907
f 864 865 909 908
f 865 866 910 909
f 866 867 911 910
f 867 868 912 911
f 868 869 913 912
f 869 870 914 913
f 870 871 915 914
f 871 872 916 915
f 872 873 917 916
f 873 874 918 917
f 874 875 919 918
f 875 876 920 919
f 876 877 921 920
f 877 878 922 921
f 878 879 923 922
f 879 880 924 923
f 880 837 881 924
f 881 882 926 925
f 882 883 927 926
f 883 884 928 927
f 884 885 929 928
f 885 886 930 929
f 886 887 931 930
f 887 888 932 931
f 888 889 933 932
f 889 890 934 933
f 890 891 935 934
f 891 892 936 935
f 892 893 937 936
f 893 894 938 937
f 894 895 939 938
f 895 896 940 939
f 896 897 941 940
f 897 898 942 941
f 898 899 943 942
f 899 900 944 943
f 900 901 945 944
f 901 902 946 945
f 902 903 947 946
f 903 904 948 947
f 904 905 949 948
f 905 906 950 949
f 906 907 951 950
f 907 908 952 951
f 908 909 953 952
f 909 910 954 953
f 910 911 955 954
f 911 912 956 955
f 912 913 957 956
f 913 914 958 957
f 914 915 959 958
f 915 916 960 959
f 916 917 961 960
f 917 918 962 961
f 918 919 963 962
f 919 920 964 963
f 920 921 965 964
f 921 922 966 965
f 922 923 967 966
f 923 924 968 967
f 924 881 925 968
f 925 926 970 969
f 926 927 971 970
f 927 928 972 971
f 928 929 973 972
f 929 930 974 973
f 930 931 975 974
f 931 932 976 975
f 932 933 977 976
f 933 934 978 977
f 934 935 979 978
f 935 936 980 979
f 936 937 981 980
f 937 938 982 981
f 938 939 983 982
f 939 940 984 983
f 940 941 985 984
f 941 942 986 985
f 942 943 987 986
f 943 944 988 987
f 944 945 989 988
f 945 946 990 989
f 946 947 991 990
f 947 948 992 991
f 948 949 993 992
f 949 950 994 993
f 950 951 995 994
f 951 952 996 995
f 952 953 997 996
f 953 954 998 997
f 954 955 999 998
f 955 956 1000 999
f 956 957 1001 1000
f 957 958 1002 1001
f 958 959 1003 1002
f 959 960 1004 1003
f 960 961 1005 1004
f 961 962 1006 1005
f 962 963 1007 1006
f 963 964 1008 1007
f 964 965 1009 1008
f 965 966 1010 1009
f 966 967 1011 1010
f 967 968 1012 1011
f 968 925 969 1012
f 969 970 1014 1013
f 970 971 1015 1014
f 971 972 1016 1015
f 972 973 1017 1016
f 973 974 1018 1017
f 974 975 1019 1018
f 975 976 1020 1019
f 976 977 1021 1020
f 977 978 1022 1021
f 978 979 1023 1022
f 979 980 1024 1023
f 980 981 1025 1024
f 981 982 1026 1025
f 982 983 1027 1026
f 983 984 1028 1027
f 984 985 1029 1028
f 985 986 1030 1029
f 986 987 1031 1030
f 987 988 1032 1031
f 988 989 1033 1032
f 989 990 1034 1033
f 990 991 1035 1034
f 991 992 1036 1035
f 992 993 1037 1036
f 993 994 1038 1037
f 994 995 1039 1038
f 995 996 1040 1039
f 996 997 1041 1040
f 997 998 1042 1041
f 998 999 1043 1042
f 999 1000 1044 1043
f 1000 1001 1045 1044
f 1001 1002 1046 1045
f 1002 1003 1047 1046
f 1003 1004 1048 1047
f 1004 1005 1049 1048
f 1005 1006 1050 1049
f 1006 1007 1051 1050
f 1007 1008 1052 1051
f 1008 1009 1053 1052
f 1009 1010 1054 1053
f 1010 1011 1055 1054
f 1011 1012 1056 1055
f 1012 969 1013 1056
f 1013 1014 1058 1057
f 1014 1015 1059 1058
f 1015 1016 1060 1059
f 1016 1017 1061 1060
f 1017 1018 1062 1061
f 1018 1019 1063 1062
f 1019 1020 1064 1063
f 1020 1021 1065 1064
f 1021 1022 1066 1065
f 1022 1023 1067 1066
f 1023 1024 1068 1067
f 1024 1025 1069 1068
f 1025 1026 1070 1069
f 1026 1027 1071 1070
f 1027 1028 1072 1071
f 1028 1029 1073 1072
f 1029 1030 1074 1073
f 1030 1031 1075 1074
f 1031 1032 1076 1075
f 1032 1033 1077 1076
f 1033 1034 1078 1077
f 1034 1035 1079 1078
f 1035 1036 1080 1079
f 1036 1037 1081 1080
f 1037 1038 1082 1081
f 1038 1039 1083 1082
f 1039 1040 1084 1083
f 1040 1041 1085 1084
f 1041 1042 1086 1085
f 1042 1043 1087 1086
f 1043 1044 1088 1087
f 1044 1045 1089 1088
f 1045 1046 1090 1089
f 1046 1047 1091 1090
f 1047 1048 1092 1091
f 1048 1049 1093 1092
f 1049 1050 1094 1093
f 1050 1051 1095 1094
f 1051 1052 1096 1095
f 1052 1053 1097 1096
f 1053 1054 1098 1097
f 1054 1055 1099 1098
f 1055 1056 1100 1099
f 1056 1013 1057 1100
f 44 43 42 41 40 39 38 37 36 35 34 33 32 31 30 29 28 27 26 25 24 23 22 21 20 19 18 17 16 15 14 13 12 11 10 9 8 7 6 5 4 3 2 1
f 1057 1058 1059 1060 1061 1062 1063 1064 1065 1066 1067 1068 1069 1070 1071 1072 1073 1074 1075 1076 1077 1078 1079 1080 1081 1082 1083 1084 1085 1086 1087 1088 1089 1090 1091 1092 1093 1094 1095 1096 1097 1098 1099 1100
