  0
SECTION
  2
HEADER
  9
$ACADVER
  1
AC1027
  9
$ACADMAINTVER
 70
105
  9
$DWGCODEPAGE
  3
ANSI_1252
  9
$LASTSAVEDBY
  1
ezdxf
  9
$REQUIREDVERSIONS
160
0
  9
$INSBASE
 10
0.0
 20
0.0
 30
0.0
  9
$EXTMIN
 10
1e+20
 20
1e+20
 30
1e+20
  9
$EXTMAX
 10
-1e+20
 20
-1e+20
 30
-1e+20
  9
$LIMMIN
 10
0.0
 20
0.0
  9
$LIMMAX
 10
420.0
 20
297.0
  9
$ORTHOMODE
 70
0
  9
$REGENMODE
 70
1
  9
$FILLMODE
 70
1
  9
$QTEXTMODE
 70
0
  9
$MIRRTEXT
 70
1
  9
$LTSCALE
 40
1.0
  9
$ATTMODE
 70
1
  9
$TEXTSIZE
 40
2.5
  9
$TRACEWID
 40
1.0
  9
$TEXTSTYLE
  7
OpenSans
  9
$CLAYER
  8
0
  9
$CELTYPE
  6
ByLayer
  9
$CECOLOR
 62
256
  9
$CELTSCALE
 40
1.0
  9
$DISPSILH
 70
0
  9
$DIMSCALE
 40
1.0
  9
$DIMASZ
 40
0.175
  9
$DIMEXO
 40
0.125
  9
$DIMDLI
 40
3.75
  9
$DIMRND
 40
0.0
  9
$DIMDLE
 40
0.0
  9
$DIMEXE
 40
0.375
  9
$DIMTP
 40
0.0
  9
$DIMTM
 40
0.0
  9
$DIMTXT
 40
0.25
  9
$DIMCEN
 40
2.5
  9
$DIMTSZ
 40
0.0
  9
$DIMTOL
 70
0
  9
$DIMLIM
 70
0
  9
$DIMTIH
 70
0
  9
$DIMTOH
 70
0
  9
$DIMSE1
 70
0
  9
$DIMSE2
 70
0
  9
$DIMTAD
 70
1
  9
$DIMZIN
 70
12
  9
$DIMBLK
  1
ARCHTICK
  9
$DIMASO
 70
1
  9
$DIMSHO
 70
1
  9
$DIMPOST
  1

  9
$DIMAPOST
  1

  9
$DIMALT
 70
0
  9
$DIMALTD
 70
3
  9
$DIMALTF
 40
0.03937007874
  9
$DIMLFAC
 40
100.0
  9
$DIMTOFL
 70
1
  9
$DIMTVP
 40
0.0
  9
$DIMTIX
 70
0
  9
$DIMSOXD
 70
0
  9
$DIMSAH
 70
0
  9
$DIMBLK1
  1

  9
$DIMBLK2
  1

  9
$DIMSTYLE
  2
EZDXF
  9
$DIMCLRD
 70
0
  9
$DIMCLRE
 70
0
  9
$DIMCLRT
 70
0
  9
$DIMTFAC
 40
0.5
  9
$DIMGAP
 40
0.1
  9
$DIMJUST
 70
0
  9
$DIMSD1
 70
0
  9
$DIMSD2
 70
0
  9
$DIMTOLJ
 70
0
  9
$DIMTZIN
 70
8
  9
$DIMALTZ
 70
0
  9
$DIMALTTZ
 70
0
  9
$DIMUPT
 70
1
  9
$DIMDEC
 70
2
  9
$DIMTDEC
 70
2
  9
$DIMALTU
 70
2
  9
$DIMALTTD
 70
3
  9
$DIMTXSTY
  7
OpenSansCondensed-Light
  9
$DIMAUNIT
 70
0
  9
$DIMADEC
 70
2
  9
$DIMALTRND
 40
0.0
  9
$DIMAZIN
 70
3
  9
$DIMDSEP
 70
46
  9
$DIMATFIT
 70
3
  9
$DIMFRAC
 70
0
  9
$DIMLDRBLK
  1

  9
$DIMLUNIT
 70
2
  9
$DIMLWD
 70
-2
  9
$DIMLWE
 70
-2
  9
$DIMTMOVE
 70
2
  9
$DIMFXL
 40
1.0
  9
$DIMFXLON
 70
0
  9
$DIMJOGANG
 40
0.785398163397
  9
$DIMTFILL
 70
0
  9
$DIMTFILLCLR
 70
0
  9
$DIMARCSYM
 70
0
  9
$DIMLTYPE
  6

  9
$DIMLTEX1
  6

  9
$DIMLTEX2
  6

  9
$DIMTXTDIRECTION
 70
0
  9
$LUNITS
 70
2
  9
$LUPREC
 70
4
  9
$SKETCHINC
 40
1.0
  9
$FILLETRAD
 40
10.0
  9
$AUNITS
 70
0
  9
$AUPREC
 70
2
  9
$MENU
  1
.
  9
$ELEVATION
 40
0.0
  9
$PELEVATION
 40
0.0
  9
$THICKNESS
 40
0.0
  9
$LIMCHECK
 70
0
  9
$CHAMFERA
 40
0.0
  9
$CHAMFERB
 40
0.0
  9
$CHAMFERC
 40
0.0
  9
$CHAMFERD
 40
0.0
  9
$SKPOLY
 70
0
  9
$TDCREATE
 40
2461301.1983333332
  9
$TDUCREATE
 40
2458532.153996898
  9
$TDUPDATE
 40
2461301.1983333332
  9
$TDUUPDATE
 40
2458532.1544311
  9
$TDINDWG
 40
0.0
  9
$TDUSRTIMER
 40
0.0
  9
$USRTIMER
 70
1
  9
$ANGBASE
 50
0.0
  9
$ANGDIR
 70
0
  9
$PDMODE
 70
0
  9
$PDSIZE
 40
0.0
  9
$PLINEWID
 40
0.0
  9
$SPLFRAME
 70
0
  9
$SPLINETYPE
 70
6
  9
$SPLINESEGS
 70
8
  9
$HANDSEED
  5
216
  9
$SURFTAB1
 70
6
  9
$SURFTAB2
 70
6
  9
$SURFTYPE
 70
6
  9
$SURFU
 70
6
  9
$SURFV
 70
6
  9
$UCSBASE
  2

  9
$UCSNAME
  2

  9
$UCSORG
 10
0.0
 20
0.0
 30
0.0
  9
$UCSXDIR
 10
1.0
 20
0.0
 30
0.0
  9
$UCSYDIR
 10
0.0
 20
1.0
 30
0.0
  9
$UCSORTHOREF
  2

  9
$UCSORTHOVIEW
 70
0
  9
$UCSORGTOP
 10
0.0
 20
0.0
 30
0.0
  9
$UCSORGBOTTOM
 10
0.0
 20
0.0
 30
0.0
  9
$UCSORGLEFT
 10
0.0
 20
0.0
 30
0.0
  9
$UCSORGRIGHT
 10
0.0
 20
0.0
 30
0.0
  9
$UCSORGFRONT
 10
0.0
 20
0.0
 30
0.0
  9
$UCSORGBACK
 10
0.0
 20
0.0
 30
0.0
  9
$PUCSBASE
  2

  9
$PUCSNAME
  2

  9
$PUCSORG
 10
0.0
 20
0.0
 30
0.0
  9
$PUCSXDIR
 10
1.0
 20
0.0
 30
0.0
  9
$PUCSYDIR
 10
0.0
 20
1.0
 30
0.0
  9
$PUCSORTHOREF
  2

  9
$PUCSORTHOVIEW
 70
0
  9
$PUCSORGTOP
 10
0.0
 20
0.0
 30
0.0
  9
$PUCSORGBOTTOM
 10
0.0
 20
0.0
 30
0.0
  9
$PUCSORGLEFT
 10
0.0
 20
0.0
 30
0.0
  9
$PUCSORGRIGHT
 10
0.0
 20
0.0
 30
0.0
  9
$PUCSORGFRONT
 10
0.0
 20
0.0
 30
0.0
  9
$PUCSORGBACK
 10
0.0
 20
0.0
 30
0.0
  9
$USERI1
 70
0
  9
$USERI2
 70
0
  9
$USERI3
 70
0
  9
$USERI4
 70
0
  9
$USERI5
 70
0
  9
$USERR1
 40
0.0
  9
$USERR2
 40
0.0
  9
$USERR3
 40
0.0
  9
$USERR4
 40
0.0
  9
$USERR5
 40
0.0
  9
$WORLDVIEW
 70
1
  9
$SHADEDGE
 70
3
  9
$SHADEDIF
 70
70
  9
$TILEMODE
 70
1
  9
$MAXACTVP
 70
64
  9
$PINSBASE
 10
0.0
 20
0.0
 30
0.0
  9
$PLIMCHECK
 70
0
  9
$PEXTMIN
 10
1e+20
 20
1e+20
 30
1e+20
  9
$PEXTMAX
 10
-1e+20
 20
-1e+20
 30
-1e+20
  9
$PLIMMIN
 10
0.0
 20
0.0
  9
$PLIMMAX
 10
420.0
 20
297.0
  9
$UNITMODE
 70
0
  9
$VISRETAIN
 70
1
  9
$PLINEGEN
 70
0
  9
$PSLTSCALE
 70
1
  9
$TREEDEPTH
 70
3020
  9
$CMLSTYLE
  2
Standard
  9
$CMLJUST
 70
0
  9
$CMLSCALE
 40
20.0
  9
$PROXYGRAPHICS
 70
1
  9
$MEASUREMENT
 70
1
  9
$CELWEIGHT
370
-1
  9
$ENDCAPS
280
0
  9
$JOINSTYLE
280
0
  9
$LWDISPLAY
290
0
  9
$INSUNITS
 70
4
  9
$HYPERLINKBASE
  1

  9
$STYLESHEET
  1

  9
$XEDIT
290
1
  9
$CEPSNTYPE
380
0
  9
$PSTYLEMODE
290
1
  9
$FINGERPRINTGUID
  2
{2251AF81-FADB-4222-ABFD-65F15EBE5693}
  9
$VERSIONGUID
  2
{4C1502D6-E653-4D6C-97FE-2DDFB2862B51}
  9
$EXTNAMES
290
1
  9
$PSVPSCALE
 40
0.0
  9
$OLESTARTUP
290
0
  9
$SORTENTS
280
127
  9
$INDEXCTL
280
0
  9
$HIDETEXT
280
1
  9
$XCLIPFRAME
280
1
  9
$HALOGAP
280
0
  9
$OBSCOLOR
 70
257
  9
$OBSLTYPE
280
0
  9
$INTERSECTIONDISPLAY
280
0
  9
$INTERSECTIONCOLOR
 70
257
  9
$DIMASSOC
280
2
  9
$PROJECTNAME
  1

  9
$CAMERADISPLAY
290
0
  9
$LENSLENGTH
 40
50.0
  9
$CAMERAHEIGHT
 40
0.0
  9
$STEPSPERSEC
 40
24.0
  9
$STEPSIZE
 40
100.0
  9
$3DDWFPREC
 40
2.0
  9
$PSOLWIDTH
 40
0.005
  9
$PSOLHEIGHT
 40
0.08
  9
$LOFTANG1
 40
1.570796326795
  9
$LOFTANG2
 40
1.570796326795
  9
$LOFTMAG1
 40
0.0
  9
$LOFTMAG2
 40
0.0
  9
$LOFTPARAM
 70
7
  9
$LOFTNORMALS
280
1
  9
$LATITUDE
 40
37.795
  9
$LONGITUDE
 40
-122.394
  9
$NORTHDIRECTION
 40
0.0
  9
$TIMEZONE
 70
-8000
  9
$LIGHTGLYPHDISPLAY
280
1
  9
$TILEMODELIGHTSYNCH
280
1
  9
$CMATERIAL
347
20
  9
$SOLIDHIST
280
0
  9
$SHOWHIST
280
1
  9
$DWFFRAME
280
2
  9
$DGNFRAME
280
2
  9
$REALWORLDSCALE
290
1
  9
$INTERFERECOLOR
 62
256
  9
$CSHADOW
280
0
  9
$SHADOWPLANELOCATION
 40
0.0
  0
ENDSEC
  0
SECTION
  2
CLASSES
  0
CLASS
  1
ACDBDICTIONARYWDFLT
  2
AcDbDictionaryWithDefault
  3
ObjectDBX Classes
 90
0
 91
0
280
0
281
0
  0
CLASS
  1
SUN
  2
AcDbSun
  3
SCENEOE
 90
1153
 91
0
280
0
281
0
  0
CLASS
  1
VISUALSTYLE
  2
AcDbVisualStyle
  3
ObjectDBX Classes
 90
4095
 91
0
280
0
281
0
  0
CLASS
  1
MATERIAL
  2
AcDbMaterial
  3
ObjectDBX Classes
 90
1153
 91
0
280
0
281
0
  0
CLASS
  1
SCALE
  2
AcDbScale
  3
ObjectDBX Classes
 90
1153
 91
0
280
0
281
0
  0
CLASS
  1
TABLESTYLE
  2
AcDbTableStyle
  3
ObjectDBX Classes
 90
4095
 91
0
280
0
281
0
  0
CLASS
  1
MLEADERSTYLE
  2
AcDbMLeaderStyle
  3
ACDB_MLEADERSTYLE_CLASS
 90
4095
 91
0
280
0
281
0
  0
CLASS
  1
DICTIONARYVAR
  2
AcDbDictionaryVar
  3
ObjectDBX Classes
 90
0
 91
0
280
0
281
0
  0
CLASS
  1
CELLSTYLEMAP
  2
AcDbCellStyleMap
  3
ObjectDBX Classes
 90
1152
 91
0
280
0
281
0
  0
CLASS
  1
MENTALRAYRENDERSETTINGS
  2
AcDbMentalRayRenderSettings
  3
SCENEOE
 90
1024
 91
0
280
0
281
0
  0
CLASS
  1
ACDBDETAILVIEWSTYLE
  2
AcDbDetailViewStyle
  3
ObjectDBX Classes
 90
1025
 91
0
280
0
281
0
  0
CLASS
  1
ACDBSECTIONVIEWSTYLE
  2
AcDbSectionViewStyle
  3
ObjectDBX Classes
 90
1025
 91
0
280
0
281
0
  0
CLASS
  1
RASTERVARIABLES
  2
AcDbRasterVariables
  3
ISM
 90
0
 91
0
280
0
281
0
  0
CLASS
  1
LAYOUT
  2
AcDbLayout
  3
ObjectDBX Classes
 90
0
 91
0
280
0
281
0
  0
CLASS
  1
ACDBPLACEHOLDER
  2
AcDbPlaceHolder
  3
ObjectDBX Classes
 90
0
 91
0
280
0
281
0
  0
ENDSEC
  0
SECTION
  2
TABLES
  0
TABLE
  2
VPORT
  5
8
330
0
100
AcDbSymbolTable
 70
1
  0
VPORT
  5
23
330
8
100
AcDbSymbolTableRecord
100
AcDbViewportTableRecord
  2
*Active
 70
0
 10
0.0
 20
0.0
 11
1.0
 21
1.0
 12
0.0
 22
0.0
 13
0.0
 23
0.0
 14
0.5
 24
0.5
 15
0.5
 25
0.5
 16
0.0
 26
0.0
 36
1.0
 17
0.0
 27
0.0
 37
0.0
 40
1000.0
 41
1.34
 42
50.0
 43
0.0
 44
0.0
 50
0.0
 51
0.0
 71
0
 72
1000
 73
1
 74
3
 75
0
 76
0
 77
0
 78
0
281
0
 65
0
146
0.0
  0
ENDTAB
  0
TABLE
  2
LTYPE
  5
2
330
0
100
AcDbSymbolTable
 70
21
  0
LTYPE
  5
24
330
2
100
AcDbSymbolTableRecord
100
AcDbLinetypeTableRecord
  2
ByBlock
 70
0
  3

 72
65
 73
0
 40
0.0
  0
LTYPE
  5
25
330
2
100
AcDbSymbolTableRecord
100
AcDbLinetypeTableRecord
  2
ByLayer
 70
0
  3

 72
65
 73
0
 40
0.0
  0
LTYPE
  5
26
330
2
100
AcDbSymbolTableRecord
100
AcDbLinetypeTableRecord
  2
Continuous
 70
0
  3

 72
65
 73
0
 40
0.0
  0
LTYPE
  5
2F
330
2
100
AcDbSymbolTableRecord
100
AcDbLinetypeTableRecord
  2
CENTER
 70
0
  3
Center ____ _ ____ _ ____ _ ____ _ ____ _ ____
 72
65
 73
4
 40
5.08
 49
3.175
 74
0
 49
-0.635
 74
0
 49
0.635
 74
0
 49
-0.635
 74
0
  0
LTYPE
  5
30
330
2
100
AcDbSymbolTableRecord
100
AcDbLinetypeTableRecord
  2
CENTERX2
 70
0
  3
Center (2x) ________  __  ________  __  ________
 72
65
 73
4
 40
8.89
 49
6.35
 74
0
 49
-0.635
 74
0
 49
1.27
 74
0
 49
-0.635
 74
0
  0
LTYPE
  5
31
330
2
100
AcDbSymbolTableRecord
100
AcDbLinetypeTableRecord
  2
CENTER2
 70
0
  3
Center (.5x) ____ _ ____ _ ____ _ ____ _ ____
 72
65
 73
4
 40
2.54
 49
1.587
 74
0
 49
-0.318
 74
0
 49
0.318
 74
0
 49
-0.318
 74
0
  0
LTYPE
  5
32
330
2
100
AcDbSymbolTableRecord
100
AcDbLinetypeTableRecord
  2
DASHED
 70
0
  3
Dashed __ __ __ __ __ __ __ __ __ __ __ __ __ _
 72
65
 73
2
 40
1.524
 49
1.27
 74
0
 49
-0.254
 74
0
  0
LTYPE
  5
33
330
2
100
AcDbSymbolTableRecord
100
AcDbLinetypeTableRecord
  2
DASHEDX2
 70
0
  3
Dashed (2x) ____  ____  ____  ____  ____  ____
 72
65
 73
2
 40
3.048
 49
2.54
 74
0
 49
-0.508
 74
0
  0
LTYPE
  5
34
330
2
100
AcDbSymbolTableRecord
100
AcDbLinetypeTableRecord
  2
DASHED2
 70
0
  3
Dashed (.5x) _ _ _ _ _ _ _ _ _ _ _ _ _ _
 72
65
 73
2
 40
0.762
 49
0.635
 74
0
 49
-0.127
 74
0
  0
LTYPE
  5
35
330
2
100
AcDbSymbolTableRecord
100
AcDbLinetypeTableRecord
  2
PHANTOM
 70
0
  3
Phantom ______  __  __  ______  __  __  ______
 72
65
 73
6
 40
6.35
 49
3.175
 74
0
 49
-0.635
 74
0
 49
0.635
 74
0
 49
-0.635
 74
0
 49
0.635
 74
0
 49
-0.635
 74
0
  0
LTYPE
  5
36
330
2
100
AcDbSymbolTableRecord
100
AcDbLinetypeTableRecord
  2
PHANTOMX2
 70
0
  3
Phantom (2x)____________    ____    ____    ____________
 72
65
 73
6
 40
10.795
 49
6.35
 74
0
 49
-0.635
 74
0
 49
1.27
 74
0
 49
-0.635
 74
0
 49
1.27
 74
0
 49
-0.635
 74
0
  0
LTYPE
  5
37
330
2
100
AcDbSymbolTableRecord
100
AcDbLinetypeTableRecord
  2
PHANTOM2
 70
0
  3
Phantom (.5x) ___ _ _ ___ _ _ ___ _ _ ___ _ _ ___
 72
65
 73
6
 40
3.175
 49
1.587
 74
0
 49
-0.318
 74
0
 49
0.318
 74
0
 49
-0.318
 74
0
 49
0.318
 74
0
 49
-0.318
 74
0
  0
LTYPE
  5
38
330
2
100
AcDbSymbolTableRecord
100
AcDbLinetypeTableRecord
  2
DASHDOT
 70
0
  3
Dash dot __ . __ . __ . __ . __ . __ . __ . __
 72
65
 73
4
 40
3.556
 49
2.54
 74
0
 49
-0.508
 74
0
 49
0.0
 74
0
 49
-0.508
 74
0
  0
LTYPE
  5
39
330
2
100
AcDbSymbolTableRecord
100
AcDbLinetypeTableRecord
  2
DASHDOTX2
 70
0
  3
Dash dot (2x) ____  .  ____  .  ____  .  ____
 72
65
 73
4
 40
6.096
 49
5.08
 74
0
 49
-0.508
 74
0
 49
0.0
 74
0
 49
-0.508
 74
0
  0
LTYPE
  5
3A
330
2
100
AcDbSymbolTableRecord
100
AcDbLinetypeTableRecord
  2
DASHDOT2
 70
0
  3
Dash dot (.5x) _ . _ . _ . _ . _ . _ . _ . _
 72
65
 73
4
 40
1.778
 49
1.27
 74
0
 49
-0.254
 74
0
 49
0.0
 74
0
 49
-0.254
 74
0
  0
LTYPE
  5
3B
330
2
100
AcDbSymbolTableRecord
100
AcDbLinetypeTableRecord
  2
DOT
 70
0
  3
Dot .  .  .  .  .  .  .  .  .  .  .  .  .  .  .  .
 72
65
 73
2
 40
0.508
 49
0.0
 74
0
 49
-0.508
 74
0
  0
LTYPE
  5
3C
330
2
100
AcDbSymbolTableRecord
100
AcDbLinetypeTableRecord
  2
DOTX2
 70
0
  3
Dot (2x) .    .    .    .    .    .    .    . 
 72
65
 73
2
 40
1.016
 49
0.0
 74
0
 49
-1.016
 74
0
  0
LTYPE
  5
3D
330
2
100
AcDbSymbolTableRecord
100
AcDbLinetypeTableRecord
  2
DOT2
 70
0
  3
Dot (.5) . . . . . . . . . . . . . . . . . . . 
 72
65
 73
2
 40
0.254
 49
0.0
 74
0
 49
-0.254
 74
0
  0
LTYPE
  5
3E
330
2
100
AcDbSymbolTableRecord
100
AcDbLinetypeTableRecord
  2
DIVIDE
 70
0
  3
Divide __ . . __ . . __ . . __ . . __ . . __
 72
65
 73
6
 40
4.064
 49
2.54
 74
0
 49
-0.508
 74
0
 49
0.0
 74
0
 49
-0.508
 74
0
 49
0.0
 74
0
 49
-0.508
 74
0
  0
LTYPE
  5
3F
330
2
100
AcDbSymbolTableRecord
100
AcDbLinetypeTableRecord
  2
DIVIDEX2
 70
0
  3
Divide (2x) ____  . .  ____  . .  ____  . .  ____
 72
65
 73
6
 40
6.604
 49
5.08
 74
0
 49
-0.508
 74
0
 49
0.0
 74
0
 49
-0.508
 74
0
 49
0.0
 74
0
 49
-0.508
 74
0
  0
LTYPE
  5
40
330
2
100
AcDbSymbolTableRecord
100
AcDbLinetypeTableRecord
  2
DIVIDE2
 70
0
  3
Divide(.5x) _ . _ . _ . _ . _ . _ . _ . _
 72
65
 73
6
 40
2.032
 49
1.27
 74
0
 49
-0.254
 74
0
 49
0.0
 74
0
 49
-0.254
 74
0
 49
0.0
 74
0
 49
-0.254
 74
0
  0
ENDTAB
  0
TABLE
  2
LAYER
  5
1
330
0
100
AcDbSymbolTable
 70
15
  0
LAYER
  5
27
330
1
100
AcDbSymbolTableRecord
100
AcDbLayerTableRecord
  2
0
 70
0
 62
7
  6
Continuous
370
-3
390
13
347
21
  0
LAYER
  5
28
330
1
100
AcDbSymbolTableRecord
100
AcDbLayerTableRecord
  2
Defpoints
 70
0
 62
7
  6
Continuous
290
0
370
-3
390
13
347
21
  0
LAYER
  5
8A
330
1
100
AcDbSymbolTableRecord
100
AcDbLayerTableRecord
  2
00_РАМКА
 70
0
 62
7
  6
CONTINUOUS
370
-3
390
13
347
21
  0
LAYER
  5
8B
330
1
100
AcDbSymbolTableRecord
100
AcDbLayerTableRecord
  2
01_ОБШИВКА
 70
0
 62
7
  6
CONTINUOUS
370
-3
390
13
347
21
  0
LAYER
  5
8C
330
1
100
AcDbSymbolTableRecord
100
AcDbLayerTableRecord
  2
02_ПАЛУБЫ
 70
0
 62
4
  6
CONTINUOUS
370
-3
390
13
347
21
  0
LAYER
  5
8D
330
1
100
AcDbSymbolTableRecord
100
AcDbLayerTableRecord
  2
03_ПЕРЕБОРКИ
 70
0
 62
1
  6
CONTINUOUS
370
-3
390
13
347
21
  0
LAYER
  5
8E
330
1
100
AcDbSymbolTableRecord
100
AcDbLayerTableRecord
  2
04_ЦИСТЕРНЫ
 70
0
 62
3
  6
CONTINUOUS
370
-3
390
13
347
21
  0
LAYER
  5
8F
330
1
100
AcDbSymbolTableRecord
100
AcDbLayerTableRecord
  2
05_ОБОРУДОВАНИЕ
 70
0
 62
5
  6
CONTINUOUS
370
-3
390
13
347
21
  0
LAYER
  5
90
330
1
100
AcDbSymbolTableRecord
100
AcDbLayerTableRecord
  2
06_ПОМЕЩЕНИЯ
 70
0
 62
8
  6
CONTINUOUS
370
-3
390
13
347
21
  0
LAYER
  5
91
330
1
100
AcDbSymbolTableRecord
100
AcDbLayerTableRecord
  2
07_ОСИ
 70
0
 62
2
  6
CENTER
370
-3
390
13
347
21
  0
LAYER
  5
92
330
1
100
AcDbSymbolTableRecord
100
AcDbLayerTableRecord
  2
08_ТЕКСТ
 70
0
 62
7
  6
CONTINUOUS
370
-3
390
13
347
21
  0
LAYER
  5
93
330
1
100
AcDbSymbolTableRecord
100
AcDbLayerTableRecord
  2
09_РАЗМЕРЫ
 70
0
 62
6
  6
CONTINUOUS
370
-3
390
13
347
21
  0
LAYER
  5
94
330
1
100
AcDbSymbolTableRecord
100
AcDbLayerTableRecord
  2
10_НАБОР
 70
0
 62
9
  6
CONTINUOUS
370
-3
390
13
347
21
  0
LAYER
  5
95
330
1
100
AcDbSymbolTableRecord
100
AcDbLayerTableRecord
  2
11_КАЮТЫ
 70
0
 62
30
  6
CONTINUOUS
370
-3
390
13
347
21
  0
LAYER
  5
96
330
1
100
AcDbSymbolTableRecord
100
AcDbLayerTableRecord
  2
12_ТРАПЫ_ЛИФТЫ
 70
0
 62
6
  6
CONTINUOUS
370
-3
390
13
347
21
  0
ENDTAB
  0
TABLE
  2
STYLE
  5
5
330
0
100
AcDbSymbolTable
 70
27
  0
STYLE
  5
29
330
5
100
AcDbSymbolTableRecord
100
AcDbTextStyleTableRecord
  2
Standard
 70
0
 40
0.0
 41
1.0
 50
0.0
 71
0
 42
2.5
  3
txt
  4

  0
STYLE
  5
41
330
5
100
AcDbSymbolTableRecord
100
AcDbTextStyleTableRecord
  2
OpenSans-Light
 70
0
 40
0.0
 41
1.0
 50
0.0
 71
0
 42
2.5
  3
OpenSans-Light.ttf
  4

  0
STYLE
  5
42
330
5
100
AcDbSymbolTableRecord
100
AcDbTextStyleTableRecord
  2
OpenSans-Light-Italic
 70
0
 40
0.0
 41
1.0
 50
0.0
 71
0
 42
2.5
  3
OpenSans-LightItalic.ttf
  4

  0
STYLE
  5
43
330
5
100
AcDbSymbolTableRecord
100
AcDbTextStyleTableRecord
  2
OpenSans
 70
0
 40
0.0
 41
1.0
 50
0.0
 71
0
 42
2.5
  3
OpenSans-Regular.ttf
  4

  0
STYLE
  5
44
330
5
100
AcDbSymbolTableRecord
100
AcDbTextStyleTableRecord
  2
OpenSans-Italic
 70
0
 40
0.0
 41
1.0
 50
0.0
 71
0
 42
2.5
  3
OpenSans-Italic.ttf
  4

  0
STYLE
  5
45
330
5
100
AcDbSymbolTableRecord
100
AcDbTextStyleTableRecord
  2
OpenSans-SemiBold
 70
0
 40
0.0
 41
1.0
 50
0.0
 71
0
 42
2.5
  3
OpenSans-SemiBold.ttf
  4

  0
STYLE
  5
46
330
5
100
AcDbSymbolTableRecord
100
AcDbTextStyleTableRecord
  2
OpenSans-SemiBoldItalic
 70
0
 40
0.0
 41
1.0
 50
0.0
 71
0
 42
2.5
  3
OpenSans-SemiBoldItalic.ttf
  4

  0
STYLE
  5
47
330
5
100
AcDbSymbolTableRecord
100
AcDbTextStyleTableRecord
  2
OpenSans-Bold
 70
0
 40
0.0
 41
1.0
 50
0.0
 71
0
 42
2.5
  3
OpenSans-Bold.ttf
  4

  0
STYLE
  5
48
330
5
100
AcDbSymbolTableRecord
100
AcDbTextStyleTableRecord
  2
OpenSans-BoldItalic
 70
0
 40
0.0
 41
1.0
 50
0.0
 71
0
 42
2.5
  3
OpenSans-BoldItalic.ttf
  4

  0
STYLE
  5
49
330
5
100
AcDbSymbolTableRecord
100
AcDbTextStyleTableRecord
  2
OpenSans-ExtraBold
 70
0
 40
0.0
 41
1.0
 50
0.0
 71
0
 42
2.5
  3
OpenSans-ExtraBold.ttf
  4

  0
STYLE
  5
4A
330
5
100
AcDbSymbolTableRecord
100
AcDbTextStyleTableRecord
  2
OpenSans-ExtraBoldItalic
 70
0
 40
0.0
 41
1.0
 50
0.0
 71
0
 42
2.5
  3
OpenSans-ExtraBoldItalic.ttf
  4

  0
STYLE
  5
4B
330
5
100
AcDbSymbolTableRecord
100
AcDbTextStyleTableRecord
  2
OpenSansCondensed-Bold
 70
0
 40
0.0
 41
1.0
 50
0.0
 71
0
 42
2.5
  3
OpenSansCondensed-Bold.ttf
  4

  0
STYLE
  5
4C
330
5
100
AcDbSymbolTableRecord
100
AcDbTextStyleTableRecord
  2
OpenSansCondensed-Light
 70
0
 40
0.0
 41
1.0
 50
0.0
 71
0
 42
2.5
  3
OpenSansCondensed-Light.ttf
  4

  0
STYLE
  5
4D
330
5
100
AcDbSymbolTableRecord
100
AcDbTextStyleTableRecord
  2
OpenSansCondensed-Italic
 70
0
 40
0.0
 41
1.0
 50
0.0
 71
0
 42
2.5
  3
OpenSansCondensed-LightItalic.ttf
  4

  0
STYLE
  5
4E
330
5
100
AcDbSymbolTableRecord
100
AcDbTextStyleTableRecord
  2
LiberationSans
 70
0
 40
0.0
 41
1.0
 50
0.0
 71
0
 42
2.5
  3
LiberationSans-Regular.ttf
  4

  0
STYLE
  5
4F
330
5
100
AcDbSymbolTableRecord
100
AcDbTextStyleTableRecord
  2
LiberationSans-Bold
 70
0
 40
0.0
 41
1.0
 50
0.0
 71
0
 42
2.5
  3
LiberationSans-Bold.ttf
  4

  0
STYLE
  5
50
330
5
100
AcDbSymbolTableRecord
100
AcDbTextStyleTableRecord
  2
LiberationSans-BoldItalic
 70
0
 40
0.0
 41
1.0
 50
0.0
 71
0
 42
2.5
  3
LiberationSans-BoldItalic.ttf
  4

  0
STYLE
  5
51
330
5
100
AcDbSymbolTableRecord
100
AcDbTextStyleTableRecord
  2
LiberationSans-Italic
 70
0
 40
0.0
 41
1.0
 50
0.0
 71
0
 42
2.5
  3
LiberationSans-Italic.ttf
  4

  0
STYLE
  5
52
330
5
100
AcDbSymbolTableRecord
100
AcDbTextStyleTableRecord
  2
LiberationSerif
 70
0
 40
0.0
 41
1.0
 50
0.0
 71
0
 42
2.5
  3
LiberationSerif-Regular.ttf
  4

  0
STYLE
  5
53
330
5
100
AcDbSymbolTableRecord
100
AcDbTextStyleTableRecord
  2
LiberationSerif-Bold
 70
0
 40
0.0
 41
1.0
 50
0.0
 71
0
 42
2.5
  3
LiberationSerif-Bold.ttf
  4

  0
STYLE
  5
54
330
5
100
AcDbSymbolTableRecord
100
AcDbTextStyleTableRecord
  2
LiberationSerif-BoldItalic
 70
0
 40
0.0
 41
1.0
 50
0.0
 71
0
 42
2.5
  3
LiberationSerif-BoldItalic.ttf
  4

  0
STYLE
  5
55
330
5
100
AcDbSymbolTableRecord
100
AcDbTextStyleTableRecord
  2
LiberationSerif-Italic
 70
0
 40
0.0
 41
1.0
 50
0.0
 71
0
 42
2.5
  3
LiberationSerif-Italic.ttf
  4

  0
STYLE
  5
56
330
5
100
AcDbSymbolTableRecord
100
AcDbTextStyleTableRecord
  2
LiberationMono
 70
0
 40
0.0
 41
1.0
 50
0.0
 71
0
 42
2.5
  3
LiberationMono-Regular.ttf
  4

  0
STYLE
  5
57
330
5
100
AcDbSymbolTableRecord
100
AcDbTextStyleTableRecord
  2
LiberationMono-Bold
 70
0
 40
0.0
 41
1.0
 50
0.0
 71
0
 42
2.5
  3
LiberationMono-Bold.ttf
  4

  0
STYLE
  5
58
330
5
100
AcDbSymbolTableRecord
100
AcDbTextStyleTableRecord
  2
LiberationMono-BoldItalic
 70
0
 40
0.0
 41
1.0
 50
0.0
 71
0
 42
2.5
  3
LiberationMono-BoldItalic.ttf
  4

  0
STYLE
  5
59
330
5
100
AcDbSymbolTableRecord
100
AcDbTextStyleTableRecord
  2
LiberationMono-Italic
 70
0
 40
0.0
 41
1.0
 50
0.0
 71
0
 42
2.5
  3
LiberationMono-Italic.ttf
  4

  0
STYLE
  5
97
330
5
100
AcDbSymbolTableRecord
100
AcDbTextStyleTableRecord
  2
ГОСТ
 70
0
 40
0.0
 41
1.0
 50
0.0
 71
0
 42
2.5
  3
ISOCPEUR.TTF
  4

  0
ENDTAB
  0
TABLE
  2
VIEW
  5
7
330
0
100
AcDbSymbolTable
 70
0
  0
ENDTAB
  0
TABLE
  2
UCS
  5
6
330
0
100
AcDbSymbolTable
 70
0
  0
ENDTAB
  0
TABLE
  2
APPID
  5
3
330
0
100
AcDbSymbolTable
 70
3
  0
APPID
  5
2A
330
3
100
AcDbSymbolTableRecord
100
AcDbRegAppTableRecord
  2
ACAD
 70
0
  0
APPID
  5
213
330
3
100
AcDbSymbolTableRecord
100
AcDbRegAppTableRecord
  2
HATCHBACKGROUNDCOLOR
 70
0
  0
APPID
  5
214
330
3
100
AcDbSymbolTableRecord
100
AcDbRegAppTableRecord
  2
EZDXF
 70
0
  0
ENDTAB
  0
TABLE
  2
DIMSTYLE
  5
4
330
0
100
AcDbSymbolTable
 70
12
100
AcDbDimStyleTable
  0
DIMSTYLE
105
2B
330
4
100
AcDbSymbolTableRecord
100
AcDbDimStyleTableRecord
  2
Standard
 70
0
 40
1.0
 41
2.5
 42
0.625
 43
3.75
 44
1.25
 45
0.0
 46
0.0
 47
0.0
 48
0.0
 49
2.5
140
2.5
141
2.5
142
0.0
143
0.03937007874
144
1.0
145
0.0
146
1.0
147
0.625
148
0.0
 69
0
 70
0
 71
0
 72
0
 73
0
 74
0
 75
0
 76
0
 77
1
 78
8
 79
3
170
0
171
3
172
1
173
0
174
0
175
0
176
0
177
0
178
0
179
2
271
2
272
2
273
2
274
3
275
0
276
0
277
2
278
44
279
0
280
0
281
0
282
0
283
0
284
8
285
0
286
0
288
0
289
3
290
0
371
-2
372
-2
  0
DIMSTYLE
105
73
330
4
100
AcDbSymbolTableRecord
100
AcDbDimStyleTableRecord
  2
EZDXF
 70
0
 40
1.0
 41
0.175
 42
0.125
 43
3.75
 44
0.375
 45
0.0
 46
0.0
 47
0.0
 48
0.0
 49
2.5
140
0.25
141
2.5
142
0.0
143
0.03937007874
144
100.0
145
0.0
146
0.5
147
0.1
148
0.0
 69
0
 70
0
 71
0
 72
0
 73
0
 74
0
 75
0
 76
0
 77
1
 78
12
 79
3
170
0
171
3
172
1
173
0
174
0
175
0
176
0
177
0
178
0
179
2
271
2
272
2
273
2
274
3
275
0
276
0
277
2
278
46
279
2
280
0
281
0
282
0
283
0
284
8
285
0
286
0
288
1
289
3
290
0
340
4C
342
74
371
-2
372
-2
  0
DIMSTYLE
105
7C
330
4
100
AcDbSymbolTableRecord
100
AcDbDimStyleTableRecord
  2
EZ_M_100_H25_CM
 70
0
 40
1.0
 41
0.25
 42
0.125
 43
3.75
 44
0.375
 45
0.0
 46
0.0
 47
0.0
 48
0.0
 49
2.5
140
0.25
141
2.5
142
0.125
143
0.03937007874
144
100.0
145
0.0
146
0.5
147
0.1
148
0.0
 69
0
 70
0
 71
0
 72
0
 73
0
 74
0
 75
0
 76
0
 77
1
 78
12
 79
3
170
0
171
3
172
1
173
0
174
0
175
0
176
0
177
0
178
0
179
2
271
2
272
2
273
2
274
3
275
0
276
0
277
2
278
46
279
2
280
0
281
0
282
0
283
0
284
8
285
0
286
0
288
1
289
3
290
0
340
4C
371
-2
372
-2
  0
DIMSTYLE
105
7D
330
4
100
AcDbSymbolTableRecord
100
AcDbDimStyleTableRecord
  2
EZ_M_50_H25_CM
 70
0
 40
1.0
 41
0.125
 42
0.0625
 43
3.75
 44
0.1875
 45
0.0
 46
0.0
 47
0.0
 48
0.0
 49
2.5
140
0.125
141
2.5
142
0.0625
143
0.03937007874
144
100.0
145
0.0
146
0.5
147
0.05
148
0.0
 69
0
 70
0
 71
0
 72
0
 73
0
 74
0
 75
0
 76
0
 77
1
 78
12
 79
3
170
0
171
3
172
1
173
0
174
0
175
0
176
0
177
0
178
0
179
2
271
2
272
2
273
2
274
3
275
0
276
0
277
2
278
46
279
2
280
0
281
0
282
0
283
0
284
8
285
0
286
0
288
1
289
3
290
0
340
4C
371
-2
372
-2
  0
DIMSTYLE
105
7E
330
4
100
AcDbSymbolTableRecord
100
AcDbDimStyleTableRecord
  2
EZ_M_25_H25_CM
 70
0
 40
1.0
 41
0.0625
 42
0.03125
 43
3.75
 44
0.09375
 45
0.0
 46
0.0
 47
0.0
 48
0.0
 49
2.5
140
0.0625
141
2.5
142
0.03125
143
0.03937007874
144
100.0
145
0.0
146
0.5
147
0.025
148
0.0
 69
0
 70
0
 71
0
 72
0
 73
0
 74
0
 75
0
 76
0
 77
1
 78
12
 79
3
170
0
171
3
172
1
173
0
174
0
175
0
176
0
177
0
178
0
179
2
271
2
272
2
273
2
274
3
275
0
276
0
277
2
278
46
279
2
280
0
281
0
282
0
283
0
284
8
285
0
286
0
288
1
289
3
290
0
340
4C
371
-2
372
-2
  0
DIMSTYLE
105
7F
330
4
100
AcDbSymbolTableRecord
100
AcDbDimStyleTableRecord
  2
EZ_M_20_H25_CM
 70
0
 40
1.0
 41
0.05
 42
0.025
 43
3.75
 44
0.07500000000000001
 45
0.0
 46
0.0
 47
0.0
 48
0.0
 49
2.5
140
0.05
141
2.5
142
0.025
143
0.03937007874
144
100.0
145
0.0
146
0.5
147
0.020000000000000004
148
0.0
 69
0
 70
0
 71
0
 72
0
 73
0
 74
0
 75
0
 76
0
 77
1
 78
12
 79
3
170
0
171
3
172
1
173
0
174
0
175
0
176
0
177
0
178
0
179
2
271
2
272
2
273
2
274
3
275
0
276
0
277
2
278
46
279
2
280
0
281
0
282
0
283
0
284
8
285
0
286
0
288
1
289
3
290
0
340
4C
371
-2
372
-2
  0
DIMSTYLE
105
80
330
4
100
AcDbSymbolTableRecord
100
AcDbDimStyleTableRecord
  2
EZ_M_10_H25_CM
 70
0
 40
1.0
 41
0.025
 42
0.0125
 43
3.75
 44
0.037500000000000006
 45
0.0
 46
0.0
 47
0.0
 48
0.0
 49
2.5
140
0.025
141
2.5
142
0.0125
143
0.03937007874
144
100.0
145
0.0
146
0.5
147
0.010000000000000002
148
0.0
 69
0
 70
0
 71
0
 72
0
 73
0
 74
0
 75
0
 76
0
 77
1
 78
12
 79
3
170
0
171
3
172
1
173
0
174
0
175
0
176
0
177
0
178
0
179
2
271
2
272
2
273
2
274
3
275
0
276
0
277
2
278
46
279
2
280
0
281
0
282
0
283
0
284
8
285
0
286
0
288
1
289
3
290
0
340
4C
371
-2
372
-2
  0
DIMSTYLE
105
81
330
4
100
AcDbSymbolTableRecord
100
AcDbDimStyleTableRecord
  2
EZ_M_5_H25_CM
 70
0
 40
1.0
 41
0.0125
 42
0.00625
 43
3.75
 44
0.018750000000000003
 45
0.0
 46
0.0
 47
0.0
 48
0.0
 49
2.5
140
0.0125
141
2.5
142
0.00625
143
0.03937007874
144
100.0
145
0.0
146
0.5
147
0.005000000000000001
148
0.0
 69
0
 70
0
 71
0
 72
0
 73
0
 74
0
 75
0
 76
0
 77
1
 78
12
 79
3
170
0
171
3
172
1
173
0
174
0
175
0
176
0
177
0
178
0
179
2
271
2
272
2
273
2
274
3
275
0
276
0
277
2
278
46
279
2
280
0
281
0
282
0
283
0
284
8
285
0
286
0
288
1
289
3
290
0
340
4C
371
-2
372
-2
  0
DIMSTYLE
105
82
330
4
100
AcDbSymbolTableRecord
100
AcDbDimStyleTableRecord
  2
EZ_M_1_H25_CM
 70
0
 40
1.0
 41
0.0025
 42
0.00125
 43
3.75
 44
0.00375
 45
0.0
 46
0.0
 47
0.0
 48
0.0
 49
2.5
140
0.0025
141
2.5
142
0.00125
143
0.03937007874
144
100.0
145
0.0
146
0.5
147
0.001
148
0.0
 69
0
 70
0
 71
0
 72
0
 73
0
 74
0
 75
0
 76
0
 77
1
 78
12
 79
3
170
0
171
3
172
1
173
0
174
0
175
0
176
0
177
0
178
0
179
2
271
2
272
2
273
2
274
3
275
0
276
0
277
2
278
46
279
2
280
0
281
0
282
0
283
0
284
8
285
0
286
0
288
1
289
3
290
0
340
4C
371
-2
372
-2
  0
DIMSTYLE
105
83
330
4
100
AcDbSymbolTableRecord
100
AcDbDimStyleTableRecord
  2
EZ_RADIUS
 70
0
 40
1.0
 41
0.25
 42
0.125
 43
3.75
 44
0.375
 45
0.0
 46
0.0
 47
0.0
 48
0.0
 49
2.5
140
0.25
141
0.0
142
0.0
143
0.03937007874
144
100.0
145
0.0
146
0.5
147
0.1
148
0.0
 69
0
 70
0
 71
0
 72
0
 73
0
 74
0
 75
0
 76
0
 77
1
 78
12
 79
3
170
0
171
3
172
0
173
0
174
0
175
0
176
0
177
0
178
0
179
2
271
2
272
2
273
2
274
3
275
0
276
0
277
2
278
46
279
1
280
0
281
0
282
0
283
0
284
8
285
0
286
0
288
1
289
3
290
0
340
4C
342
84
371
-2
372
-2
  0
DIMSTYLE
105
88
330
4
100
AcDbSymbolTableRecord
100
AcDbDimStyleTableRecord
  2
EZ_RADIUS_INSIDE
 70
0
 40
1.0
 41
0.25
 42
0.125
 43
3.75
 44
0.375
 45
0.0
 46
0.0
 47
0.0
 48
0.0
 49
2.5
140
0.25
141
0.0
142
0.0
143
0.03937007874
144
100.0
145
0.0
146
0.5
147
0.1
148
0.0
 69
0
 70
0
 71
0
 72
0
 73
0
 74
0
 75
0
 76
0
 77
0
 78
12
 79
3
170
0
171
3
172
0
173
0
174
1
175
0
176
0
177
0
178
0
179
2
271
2
272
2
273
2
274
3
275
0
276
0
277
2
278
46
279
0
280
0
281
0
282
0
283
0
284
8
285
0
286
0
288
1
289
0
290
0
340
4C
342
84
371
-2
372
-2
  0
DIMSTYLE
105
89
330
4
100
AcDbSymbolTableRecord
100
AcDbDimStyleTableRecord
  2
EZ_CURVED
 70
0
 40
1.0
 41
0.25
 42
0.125
 43
3.75
 44
0.375
 45
0.0
 46
0.0
 47
0.0
 48
0.0
 49
2.5
140
0.25
141
2.5
142
0.0
143
0.03937007874
144
100.0
145
0.0
146
0.5
147
0.1
148
0.0
 69
0
 70
0
 71
0
 72
0
 73
0
 74
0
 75
0
 76
0
 77
1
 78
12
 79
2
 90
2
170
0
171
3
172
1
173
0
174
0
175
0
176
0
177
0
178
0
179
2
271
2
272
2
273
2
274
3
275
0
276
0
277
2
278
46
279
2
280
0
281
0
282
0
283
0
284
8
285
0
286
0
288
1
289
3
290
0
340
4C
371
-2
372
-2
  0
ENDTAB
  0
TABLE
  2
BLOCK_RECORD
  5
9
330
0
100
AcDbSymbolTable
 70
5
  0
BLOCK_RECORD
  5
17
330
9
100
AcDbSymbolTableRecord
100
AcDbBlockTableRecord
  2
*Model_Space
340
1A
 70
0
280
1
281
0
  0
BLOCK_RECORD
  5
1B
330
9
100
AcDbSymbolTableRecord
100
AcDbBlockTableRecord
  2
*Paper_Space
340
1E
 70
0
280
1
281
0
  0
BLOCK_RECORD
  5
74
330
9
100
AcDbSymbolTableRecord
100
AcDbBlockTableRecord
  2
_ARCHTICK
340
0
 70
0
280
1
281
0
  0
BLOCK_RECORD
  5
78
330
9
100
AcDbSymbolTableRecord
100
AcDbBlockTableRecord
  2
_CLOSEDFILLED
340
0
 70
0
280
1
281
0
  0
BLOCK_RECORD
  5
84
330
9
100
AcDbSymbolTableRecord
100
AcDbBlockTableRecord
  2
_CLOSEDBLANK
340
0
 70
0
280
1
281
0
  0
ENDTAB
  0
ENDSEC
  0
SECTION
  2
BLOCKS
  0
BLOCK
  5
18
330
17
100
AcDbEntity
  8
0
100
AcDbBlockBegin
  2
*Model_Space
 70
0
 10
0.0
 20
0.0
 30
0.0
  3
*Model_Space
  1

  0
ENDBLK
  5
19
330
17
100
AcDbEntity
  8
0
100
AcDbBlockEnd
  0
BLOCK
  5
1C
330
1B
100
AcDbEntity
  8
0
100
AcDbBlockBegin
  2
*Paper_Space
 70
0
 10
0.0
 20
0.0
 30
0.0
  3
*Paper_Space
  1

  0
ENDBLK
  5
1D
330
1B
100
AcDbEntity
  8
0
100
AcDbBlockEnd
  0
BLOCK
  5
75
330
74
100
AcDbEntity
  8
0
100
AcDbBlockBegin
  2
_ARCHTICK
 70
0
 10
0.0
 20
0.0
 30
0.0
  3
_ARCHTICK
  1

  0
LWPOLYLINE
  5
77
330
74
100
AcDbEntity
  8
0
  6
BYBLOCK
 62
0
100
AcDbPolyline
 90
2
 70
0
 43
0.15
 10
-0.5
 20
-0.5
 10
0.5
 20
0.5
  0
ENDBLK
  5
76
330
74
100
AcDbEntity
  8
0
100
AcDbBlockEnd
  0
BLOCK
  5
79
330
78
100
AcDbEntity
  8
0
100
AcDbBlockBegin
  2
_CLOSEDFILLED
 70
0
 10
0.0
 20
0.0
 30
0.0
  3
_CLOSEDFILLED
  1

  0
SOLID
  5
7B
330
78
100
AcDbEntity
  8
0
  6
BYBLOCK
 62
0
100
AcDbTrace
 10
-1.0
 20
0.16439898372402537
 30
0.0
 11
0.0
 21
0.0
 31
0.0
 12
-1.0
 22
-0.16439898372402537
 32
0.0
 13
-1.0
 23
-0.16439898372402537
 33
0.0
  0
ENDBLK
  5
7A
330
78
100
AcDbEntity
  8
0
100
AcDbBlockEnd
  0
BLOCK
  5
85
330
84
100
AcDbEntity
  8
0
100
AcDbBlockBegin
  2
_CLOSEDBLANK
 70
0
 10
0.0
 20
0.0
 30
0.0
  3
_CLOSEDBLANK
  1

  0
LWPOLYLINE
  5
87
330
84
100
AcDbEntity
  8
0
  6
BYBLOCK
 62
0
100
AcDbPolyline
 90
3
 70
1
 10
-1.0
 20
0.16439898372402537
 10
0.0
 20
0.0
 10
-1.0
 20
-0.16439898372402537
  0
ENDBLK
  5
86
330
84
100
AcDbEntity
  8
0
100
AcDbBlockEnd
  0
ENDSEC
  0
SECTION
  2
ENTITIES
  0
LWPOLYLINE
  5
98
330
17
100
AcDbEntity
  8
02_ПАЛУБЫ
100
AcDbPolyline
 90
558
 70
1
 10
0.0
 20
6596.140350877193
 10
500.0
 20
6689.997288503253
 10
1000.0
 20
6783.851931330471
 10
1500.0
 20
6877.704352441613
 10
2000.0
 20
6971.554621848739
 10
2500.0
 20
7065.402806652806
 10
3000.0
 20
7159.248971193415
 10
3500.0
 20
7253.093177189408
 10
4000.0
 20
7346.935483870968
 10
4500.0
 20
7405.328525641025
 10
5000.0
 20
7463.7208067940555
 10
5500.0
 20
7522.112341772153
 10
6000.0
 20
7580.503144654088
 10
6500.0
 20
7638.893229166666
 10
7000.0
 20
7697.282608695653
 10
7500.0
 20
7755.671296296297
 10
8000.0
 20
7814.059304703477
 10
8500.0
 20
7872.446646341464
 10
9000.0
 20
7930.833333333334
 10
9500.0
 20
7989.21937751004
 10
10000.0
 20
8047.604790419163
 10
10500.0
 20
8060.223880597015
 10
11000.0
 20
8072.842261904762
 10
11500.0
 20
8085.45994065282
 10
12000.0
 20
8098.076923076924
 10
12500.0
 20
8110.693215339234
 10
13000.0
 20
8123.308823529412
 10
13500.0
 20
8135.92375366569
 10
14000.0
 20
8148.538011695907
 10
14500.0
 20
8161.1516034985425
 10
15000.0
 20
8173.764534883721
 10
15500.0
 20
8186.376811594203
 10
16000.0
 20
8198.988439306358
 10
16500.0
 20
8211.599423631125
 10
17000.0
 20
8224.209770114943
 10
17500.0
 20
8236.819484240688
 10
18000.0
 20
8249.428571428572
 10
18500.0
 20
8249.452967059104
 10
19000.0
 20
8249.477310525066
 10
19500.0
 20
8249.501601993592
 10
20000.0
 20
8249.525841631104
 10
20500.0
 20
8249.550029603317
 10
21000.0
 20
8249.57416607523
 10
21500.0
 20
8249.598251211153
 10
22000.0
 20
8249.622285174693
 10
22500.0
 20
8249.64626812876
 10
23000.0
 20
8249.67020023557
 10
23500.0
 20
8249.694081656666
 10
24000.0
 20
8249.717912552891
 10
24500.0
 20
8249.741693084421
 10
25000.0
 20
8249.765423410743
 10
25500.0
 20
8249.789103690686
 10
26000.0
 20
8249.812734082398
 10
26500.0
 20
8249.836314743367
 10
27000.0
 20
8249.859845830413
 10
27500.0
 20
8249.883327499709
 10
28000.0
 20
8249.906759906758
 10
28500.0
 20
8249.930143206428
 10
29000.0
 20
8249.95347755292
 10
29500.0
 20
8249.976763099803
 10
30000.0
 20
8250.0
 10
30500.0
 20
8250.0
 10
31000.0
 20
8250.0
 10
31500.0
 20
8250.0
 10
32000.0
 20
8250.0
 10
32500.0
 20
8250.0
 10
33000.0
 20
8250.0
 10
33500.0
 20
8250.0
 10
34000.0
 20
8250.0
 10
34500.0
 20
8250.0
 10
35000.0
 20
8250.0
 10
35500.0
 20
8250.0
 10
36000.0
 20
8250.0
 10
36500.0
 20
8250.0
 10
37000.0
 20
8250.0
 10
37500.0
 20
8250.0
 10
38000.0
 20
8250.0
 10
38500.0
 20
8250.0
 10
39000.0
 20
8250.0
 10
39500.0
 20
8250.0
 10
40000.0
 20
8250.0
 10
40500.0
 20
8250.0
 10
41000.0
 20
8250.0
 10
41500.0
 20
8250.0
 10
42000.0
 20
8250.0
 10
42500.0
 20
8250.0
 10
43000.0
 20
8250.0
 10
43500.0
 20
8250.0
 10
44000.0
 20
8250.0
 10
44500.0
 20
8250.0
 10
45000.0
 20
8250.0
 10
45500.0
 20
8250.0
 10
46000.0
 20
8250.0
 10
46500.0
 20
8250.0
 10
47000.0
 20
8250.0
 10
47500.0
 20
8250.0
 10
48000.0
 20
8250.0
 10
48500.0
 20
8250.0
 10
49000.0
 20
8250.0
 10
49500.0
 20
8250.0
 10
50000.0
 20
8250.0
 10
50500.0
 20
8250.0
 10
51000.0
 20
8250.0
 10
51500.0
 20
8250.0
 10
52000.0
 20
8250.0
 10
52500.0
 20
8250.0
 10
53000.0
 20
8250.0
 10
53500.0
 20
8250.0
 10
54000.0
 20
8250.0
 10
54500.0
 20
8250.0
 10
55000.0
 20
8250.0
 10
55500.0
 20
8250.0
 10
56000.0
 20
8250.0
 10
56500.0
 20
8250.0
 10
57000.0
 20
8250.0
 10
57500.0
 20
8250.0
 10
58000.0
 20
8250.0
 10
58500.0
 20
8250.0
 10
59000.0
 20
8250.0
 10
59500.0
 20
8250.0
 10
60000.0
 20
8250.0
 10
60500.0
 20
8250.0
 10
61000.0
 20
8250.0
 10
61500.0
 20
8250.0
 10
62000.0
 20
8250.0
 10
62500.0
 20
8250.0
 10
63000.0
 20
8250.0
 10
63500.0
 20
8250.0
 10
64000.0
 20
8250.0
 10
64500.0
 20
8250.0
 10
65000.0
 20
8250.0
 10
65500.0
 20
8250.0
 10
66000.0
 20
8250.0
 10
66500.0
 20
8250.0
 10
67000.0
 20
8250.0
 10
67500.0
 20
8250.0
 10
68000.0
 20
8250.0
 10
68500.0
 20
8250.0
 10
69000.0
 20
8250.0
 10
69500.0
 20
8250.0
 10
70000.0
 20
8250.0
 10
70500.0
 20
8250.0
 10
71000.0
 20
8250.0
 10
71500.0
 20
8250.0
 10
72000.0
 20
8250.0
 10
72500.0
 20
8250.0
 10
73000.0
 20
8250.0
 10
73500.0
 20
8250.0
 10
74000.0
 20
8250.0
 10
74500.0
 20
8250.0
 10
75000.0
 20
8250.0
 10
75500.0
 20
8250.0
 10
76000.0
 20
8250.0
 10
76500.0
 20
8250.0
 10
77000.0
 20
8250.0
 10
77500.0
 20
8250.0
 10
78000.0
 20
8250.0
 10
78500.0
 20
8250.0
 10
79000.0
 20
8250.0
 10
79500.0
 20
8250.0
 10
80000.0
 20
8250.0
 10
80500.0
 20
8250.0
 10
81000.0
 20
8250.0
 10
81500.0
 20
8250.0
 10
82000.0
 20
8250.0
 10
82500.0
 20
8250.0
 10
83000.0
 20
8250.0
 10
83500.0
 20
8250.0
 10
84000.0
 20
8250.0
 10
84500.0
 20
8250.0
 10
85000.0
 20
8250.0
 10
85500.0
 20
8250.0
 10
86000.0
 20
8250.0
 10
86500.0
 20
8250.0
 10
87000.0
 20
8250.0
 10
87500.0
 20
8250.0
 10
88000.0
 20
8250.0
 10
88500.0
 20
8249.992493297586
 10
89000.0
 20
8249.984972091026
 10
89500.0
 20
8249.97743633824
 10
90000.0
 20
8249.969885996989
 10
90500.0
 20
8249.962321024868
 10
91000.0
 20
8249.95474137931
 10
91500.0
 20
8249.947147017581
 10
92000.0
 20
8249.939537896782
 10
92500.0
 20
8249.931913973845
 10
93000.0
 20
8249.924275205538
 10
93500.0
 20
8249.916621548458
 10
94000.0
 20
8249.90895295903
 10
94500.0
 20
8249.901269393511
 10
95000.0
 20
8249.893570807993
 10
95500.0
 20
8249.885857158386
 10
96000.0
 20
8249.878128400436
 10
96500.0
 20
8249.870384489706
 10
97000.0
 20
8249.862625381596
 10
97500.0
 20
8249.854851031321
 10
98000.0
 20
8249.847061393926
 10
98500.0
 20
8249.839256424275
 10
99000.0
 20
8249.831436077058
 10
99500.0
 20
8249.823600306781
 10
100000.0
 20
8249.815749067779
 10
100500.0
 20
8249.807882314195
 10
101000.0
 20
8249.800000000001
 10
101500.0
 20
8245.18631628788
 10
102000.0
 20
8240.572276287681
 10
102500.0
 20
8235.957877201334
 10
103000.0
 20
8231.343116201386
 10
103500.0
 20
8226.727990430622
 10
104000.0
 20
8222.112497001679
 10
104500.0
 20
8217.496632996634
 10
105000.0
 20
8212.880395466602
 10
105500.0
 20
8208.263781431335
 10
106000.0
 20
8203.646787878788
 10
106500.0
 20
8199.029411764704
 10
107000.0
 20
8194.411650012187
 10
107500.0
 20
8189.793499511241
 10
108000.0
 20
8185.1749571183545
 10
108500.0
 20
8180.55601965602
 10
109000.0
 20
8175.936683912294
 10
109500.0
 20
8171.316946640317
 10
110000.0
 20
8166.696804557839
 10
110500.0
 20
8162.076254346747
 10
111000.0
 20
8157.455292652553
 10
111500.0
 20
8152.833916083916
 10
112000.0
 20
8148.212121212122
 10
112500.0
 20
8102.631410256411
 10
113000.0
 20
8056.803333333335
 10
113500.0
 20
8010.725764087871
 10
114000.0
 20
7964.396551724139
 10
114500.0
 20
7917.813520653218
 10
115000.0
 20
7870.974470134875
 10
115500.0
 20
7823.877173913043
 10
116000.0
 20
7776.519379844961
 10
116500.0
 20
7728.89880952381
 10
117000.0
 20
7681.013157894738
 10
117500.0
 20
7632.860092864125
 10
118000.0
 20
7584.437254901961
 10
118500.0
 20
7535.742256637169
 10
119000.0
 20
7486.772682445759
 10
119500.0
 20
7437.526088031651
 10
120000.0
 20
7388.0
 10
120500.0
 20
7282.027665537017
 10
121000.0
 20
7175.621189274241
 10
121500.0
 20
7068.772754254057
 10
122000.0
 20
6961.474354720987
 10
122500.0
 20
6853.7177903871825
 10
123000.0
 20
6745.494660487609
 10
123500.0
 20
6636.7963576158945
 10
124000.0
 20
6527.614061331339
 10
124500.0
 20
6417.938731527093
 10
125000.0
 20
6307.761101549053
 10
125500.0
 20
6197.071671054455
 10
126000.0
 20
6085.860698598619
 10
126500.0
 20
5974.118193937692
 10
127000.0
 20
5861.833910034602
 10
127500.0
 20
5631.443820224718
 10
128000.0
 20
5400.622950819672
 10
128500.0
 20
5169.351664254704
 10
129000.0
 20
4937.609110947832
 10
129500.0
 20
4705.373134328358
 10
130000.0
 20
4472.620166793025
 10
130500.0
 20
4239.325115562404
 10
131000.0
 20
4005.4612372748634
 10
131500.0
 20
3770.9999999999995
 10
132000.0
 20
3535.9109311740895
 10
132500.0
 20
3309.217905477236
 10
133000.0
 20
3083.2401361338284
 10
133500.0
 20
2858.02731873181
 10
134000.0
 20
2633.633861769228
 10
134500.0
 20
2410.1194589112943
 10
135000.0
 20
2187.549746705157
 10
135500.0
 20
1965.9970630211692
 10
136000.0
 20
1745.5413246888809
 10
136500.0
 20
1534.9084317769903
 10
137000.0
 20
1338.8518373218287
 10
137500.0
 20
1144.7871684145614
 10
138000.0
 20
953.0178622875268
 10
138500.0
 20
763.9122846953496
 10
139000.0
 20
577.922077922078
 10
139000.0
 20
-577.922077922078
 10
138500.0
 20
-763.9122846953496
 10
138000.0
 20
-953.0178622875268
 10
137500.0
 20
-1144.7871684145614
 10
137000.0
 20
-1338.8518373218287
 10
136500.0
 20
-1534.9084317769903
 10
136000.0
 20
-1745.5413246888809
 10
135500.0
 20
-1965.9970630211692
 10
135000.0
 20
-2187.549746705157
 10
134500.0
 20
-2410.1194589112943
 10
134000.0
 20
-2633.633861769228
 10
133500.0
 20
-2858.02731873181
 10
133000.0
 20
-3083.2401361338284
 10
132500.0
 20
-3309.217905477236
 10
132000.0
 20
-3535.9109311740895
 10
131500.0
 20
-3770.9999999999995
 10
131000.0
 20
-4005.4612372748634
 10
130500.0
 20
-4239.325115562404
 10
130000.0
 20
-4472.620166793025
 10
129500.0
 20
-4705.373134328358
 10
129000.0
 20
-4937.609110947832
 10
128500.0
 20
-5169.351664254704
 10
128000.0
 20
-5400.622950819672
 10
127500.0
 20
-5631.443820224718
 10
127000.0
 20
-5861.833910034602
 10
126500.0
 20
-5974.118193937692
 10
126000.0
 20
-6085.860698598619
 10
125500.0
 20
-6197.071671054455
 10
125000.0
 20
-6307.761101549053
 10
124500.0
 20
-6417.938731527093
 10
124000.0
 20
-6527.614061331339
 10
123500.0
 20
-6636.7963576158945
 10
123000.0
 20
-6745.494660487609
 10
122500.0
 20
-6853.7177903871825
 10
122000.0
 20
-6961.474354720987
 10
121500.0
 20
-7068.772754254057
 10
121000.0
 20
-7175.621189274241
 10
120500.0
 20
-7282.027665537017
 10
120000.0
 20
-7388.0
 10
119500.0
 20
-7437.526088031651
 10
119000.0
 20
-7486.772682445759
 10
118500.0
 20
-7535.742256637169
 10
118000.0
 20
-7584.437254901961
 10
117500.0
 20
-7632.860092864125
 10
117000.0
 20
-7681.013157894738
 10
116500.0
 20
-7728.89880952381
 10
116000.0
 20
-7776.519379844961
 10
115500.0
 20
-7823.877173913043
 10
115000.0
 20
-7870.974470134875
 10
114500.0
 20
-7917.813520653218
 10
114000.0
 20
-7964.396551724139
 10
113500.0
 20
-8010.725764087871
 10
113000.0
 20
-8056.803333333335
 10
112500.0
 20
-8102.631410256411
 10
112000.0
 20
-8148.212121212122
 10
111500.0
 20
-8152.833916083916
 10
111000.0
 20
-8157.455292652553
 10
110500.0
 20
-8162.076254346747
 10
110000.0
 20
-8166.696804557839
 10
109500.0
 20
-8171.316946640317
 10
109000.0
 20
-8175.936683912294
 10
108500.0
 20
-8180.55601965602
 10
108000.0
 20
-8185.1749571183545
 10
107500.0
 20
-8189.793499511241
 10
107000.0
 20
-8194.411650012187
 10
106500.0
 20
-8199.029411764704
 10
106000.0
 20
-8203.646787878788
 10
105500.0
 20
-8208.263781431335
 10
105000.0
 20
-8212.880395466602
 10
104500.0
 20
-8217.496632996634
 10
104000.0
 20
-8222.112497001679
 10
103500.0
 20
-8226.727990430622
 10
103000.0
 20
-8231.343116201386
 10
102500.0
 20
-8235.957877201334
 10
102000.0
 20
-8240.572276287681
 10
101500.0
 20
-8245.18631628788
 10
101000.0
 20
-8249.800000000001
 10
100500.0
 20
-8249.807882314195
 10
100000.0
 20
-8249.815749067779
 10
99500.0
 20
-8249.823600306781
 10
99000.0
 20
-8249.831436077058
 10
98500.0
 20
-8249.839256424275
 10
98000.0
 20
-8249.847061393926
 10
97500.0
 20
-8249.854851031321
 10
97000.0
 20
-8249.862625381596
 10
96500.0
 20
-8249.870384489706
 10
96000.0
 20
-8249.878128400436
 10
95500.0
 20
-8249.885857158386
 10
95000.0
 20
-8249.893570807993
 10
94500.0
 20
-8249.901269393511
 10
94000.0
 20
-8249.90895295903
 10
93500.0
 20
-8249.916621548458
 10
93000.0
 20
-8249.924275205538
 10
92500.0
 20
-8249.931913973845
 10
92000.0
 20
-8249.939537896782
 10
91500.0
 20
-8249.947147017581
 10
91000.0
 20
-8249.95474137931
 10
90500.0
 20
-8249.962321024868
 10
90000.0
 20
-8249.969885996989
 10
89500.0
 20
-8249.97743633824
 10
89000.0
 20
-8249.984972091026
 10
88500.0
 20
-8249.992493297586
 10
88000.0
 20
-8250.0
 10
87500.0
 20
-8250.0
 10
87000.0
 20
-8250.0
 10
86500.0
 20
-8250.0
 10
86000.0
 20
-8250.0
 10
85500.0
 20
-8250.0
 10
85000.0
 20
-8250.0
 10
84500.0
 20
-8250.0
 10
84000.0
 20
-8250.0
 10
83500.0
 20
-8250.0
 10
83000.0
 20
-8250.0
 10
82500.0
 20
-8250.0
 10
82000.0
 20
-8250.0
 10
81500.0
 20
-8250.0
 10
81000.0
 20
-8250.0
 10
80500.0
 20
-8250.0
 10
80000.0
 20
-8250.0
 10
79500.0
 20
-8250.0
 10
79000.0
 20
-8250.0
 10
78500.0
 20
-8250.0
 10
78000.0
 20
-8250.0
 10
77500.0
 20
-8250.0
 10
77000.0
 20
-8250.0
 10
76500.0
 20
-8250.0
 10
76000.0
 20
-8250.0
 10
75500.0
 20
-8250.0
 10
75000.0
 20
-8250.0
 10
74500.0
 20
-8250.0
 10
74000.0
 20
-8250.0
 10
73500.0
 20
-8250.0
 10
73000.0
 20
-8250.0
 10
72500.0
 20
-8250.0
 10
72000.0
 20
-8250.0
 10
71500.0
 20
-8250.0
 10
71000.0
 20
-8250.0
 10
70500.0
 20
-8250.0
 10
70000.0
 20
-8250.0
 10
69500.0
 20
-8250.0
 10
69000.0
 20
-8250.0
 10
68500.0
 20
-8250.0
 10
68000.0
 20
-8250.0
 10
67500.0
 20
-8250.0
 10
67000.0
 20
-8250.0
 10
66500.0
 20
-8250.0
 10
66000.0
 20
-8250.0
 10
65500.0
 20
-8250.0
 10
65000.0
 20
-8250.0
 10
64500.0
 20
-8250.0
 10
64000.0
 20
-8250.0
 10
63500.0
 20
-8250.0
 10
63000.0
 20
-8250.0
 10
62500.0
 20
-8250.0
 10
62000.0
 20
-8250.0
 10
61500.0
 20
-8250.0
 10
61000.0
 20
-8250.0
 10
60500.0
 20
-8250.0
 10
60000.0
 20
-8250.0
 10
59500.0
 20
-8250.0
 10
59000.0
 20
-8250.0
 10
58500.0
 20
-8250.0
 10
58000.0
 20
-8250.0
 10
57500.0
 20
-8250.0
 10
57000.0
 20
-8250.0
 10
56500.0
 20
-8250.0
 10
56000.0
 20
-8250.0
 10
55500.0
 20
-8250.0
 10
55000.0
 20
-8250.0
 10
54500.0
 20
-8250.0
 10
54000.0
 20
-8250.0
 10
53500.0
 20
-8250.0
 10
53000.0
 20
-8250.0
 10
52500.0
 20
-8250.0
 10
52000.0
 20
-8250.0
 10
51500.0
 20
-8250.0
 10
51000.0
 20
-8250.0
 10
50500.0
 20
-8250.0
 10
50000.0
 20
-8250.0
 10
49500.0
 20
-8250.0
 10
49000.0
 20
-8250.0
 10
48500.0
 20
-8250.0
 10
48000.0
 20
-8250.0
 10
47500.0
 20
-8250.0
 10
47000.0
 20
-8250.0
 10
46500.0
 20
-8250.0
 10
46000.0
 20
-8250.0
 10
45500.0
 20
-8250.0
 10
45000.0
 20
-8250.0
 10
44500.0
 20
-8250.0
 10
44000.0
 20
-8250.0
 10
43500.0
 20
-8250.0
 10
43000.0
 20
-8250.0
 10
42500.0
 20
-8250.0
 10
42000.0
 20
-8250.0
 10
41500.0
 20
-8250.0
 10
41000.0
 20
-8250.0
 10
40500.0
 20
-8250.0
 10
40000.0
 20
-8250.0
 10
39500.0
 20
-8250.0
 10
39000.0
 20
-8250.0
 10
38500.0
 20
-8250.0
 10
38000.0
 20
-8250.0
 10
37500.0
 20
-8250.0
 10
37000.0
 20
-8250.0
 10
36500.0
 20
-8250.0
 10
36000.0
 20
-8250.0
 10
35500.0
 20
-8250.0
 10
35000.0
 20
-8250.0
 10
34500.0
 20
-8250.0
 10
34000.0
 20
-8250.0
 10
33500.0
 20
-8250.0
 10
33000.0
 20
-8250.0
 10
32500.0
 20
-8250.0
 10
32000.0
 20
-8250.0
 10
31500.0
 20
-8250.0
 10
31000.0
 20
-8250.0
 10
30500.0
 20
-8250.0
 10
30000.0
 20
-8250.0
 10
29500.0
 20
-8249.976763099803
 10
29000.0
 20
-8249.95347755292
 10
28500.0
 20
-8249.930143206428
 10
28000.0
 20
-8249.906759906758
 10
27500.0
 20
-8249.883327499709
 10
27000.0
 20
-8249.859845830413
 10
26500.0
 20
-8249.836314743367
 10
26000.0
 20
-8249.812734082398
 10
25500.0
 20
-8249.789103690686
 10
25000.0
 20
-8249.765423410743
 10
24500.0
 20
-8249.741693084421
 10
24000.0
 20
-8249.717912552891
 10
23500.0
 20
-8249.694081656666
 10
23000.0
 20
-8249.67020023557
 10
22500.0
 20
-8249.64626812876
 10
22000.0
 20
-8249.622285174693
 10
21500.0
 20
-8249.598251211153
 10
21000.0
 20
-8249.57416607523
 10
20500.0
 20
-8249.550029603317
 10
20000.0
 20
-8249.525841631104
 10
19500.0
 20
-8249.501601993592
 10
19000.0
 20
-8249.477310525066
 10
18500.0
 20
-8249.452967059104
 10
18000.0
 20
-8249.428571428572
 10
17500.0
 20
-8236.819484240688
 10
17000.0
 20
-8224.209770114943
 10
16500.0
 20
-8211.599423631125
 10
16000.0
 20
-8198.988439306358
 10
15500.0
 20
-8186.376811594203
 10
15000.0
 20
-8173.764534883721
 10
14500.0
 20
-8161.1516034985425
 10
14000.0
 20
-8148.538011695907
 10
13500.0
 20
-8135.92375366569
 10
13000.0
 20
-8123.308823529412
 10
12500.0
 20
-8110.693215339234
 10
12000.0
 20
-8098.076923076924
 10
11500.0
 20
-8085.45994065282
 10
11000.0
 20
-8072.842261904762
 10
10500.0
 20
-8060.223880597015
 10
10000.0
 20
-8047.604790419163
 10
9500.0
 20
-7989.21937751004
 10
9000.0
 20
-7930.833333333334
 10
8500.0
 20
-7872.446646341464
 10
8000.0
 20
-7814.059304703477
 10
7500.0
 20
-7755.671296296297
 10
7000.0
 20
-7697.282608695653
 10
6500.0
 20
-7638.893229166666
 10
6000.0
 20
-7580.503144654088
 10
5500.0
 20
-7522.112341772153
 10
5000.0
 20
-7463.7208067940555
 10
4500.0
 20
-7405.328525641025
 10
4000.0
 20
-7346.935483870968
 10
3500.0
 20
-7253.093177189408
 10
3000.0
 20
-7159.248971193415
 10
2500.0
 20
-7065.402806652806
 10
2000.0
 20
-6971.554621848739
 10
1500.0
 20
-6877.704352441613
 10
1000.0
 20
-6783.851931330471
 10
500.0
 20
-6689.997288503253
 10
0.0
 20
-6596.140350877193
  0
LWPOLYLINE
  5
99
330
17
100
AcDbEntity
  8
01_ОБШИВКА
100
AcDbPolyline
 90
450
 70
1
 10
7500.0
 20
5575.054112554112
 10
8000.0
 20
5776.666666666667
 10
8500.0
 20
5967.620481927711
 10
9000.0
 20
6149.031007751938
 10
9500.0
 20
6321.86329588015
 10
10000.0
 20
6486.95652173913
 10
10500.0
 20
6579.0387182910545
 10
11000.0
 20
6669.685039370078
 10
11500.0
 20
6758.967741935484
 10
12000.0
 20
6846.954314720812
 10
12500.0
 20
6933.70786516854
 10
13000.0
 20
7019.287469287469
 10
13500.0
 20
7103.748488512697
 10
14000.0
 20
7187.142857142858
 10
14500.0
 20
7269.519343493553
 10
15000.0
 20
7350.923787528869
 10
15500.0
 20
7431.399317406144
 10
16000.0
 20
7510.986547085202
 10
16500.0
 20
7589.723756906077
 10
17000.0
 20
7667.647058823531
 10
17500.0
 20
7744.790547798067
 10
18000.0
 20
7821.186440677967
 10
18500.0
 20
7839.2254348848155
 10
19000.0
 20
7857.173708920188
 10
19500.0
 20
7875.031645569621
 10
20000.0
 20
7892.799625468166
 10
20500.0
 20
7910.478027115475
 10
21000.0
 20
7928.067226890757
 10
21500.0
 20
7945.5675990676
 10
22000.0
 20
7962.979515828678
 10
22500.0
 20
7980.3033472803345
 10
23000.0
 20
7997.539461467038
 10
23500.0
 20
8014.688224385722
 10
24000.0
 20
8031.750000000001
 10
24500.0
 20
8048.725150254276
 10
25000.0
 20
8065.6140350877195
 10
25500.0
 20
8082.4170124481325
 10
26000.0
 20
8099.134438305709
 10
26500.0
 20
8115.7666666666655
 10
27000.0
 20
8132.3140495867765
 10
27500.0
 20
8148.776937184777
 10
28000.0
 20
8165.155677655678
 10
28500.0
 20
8181.45061728395
 10
29000.0
 20
8197.662100456622
 10
29500.0
 20
8213.790469676243
 10
30000.0
 20
8229.83606557377
 10
30500.0
 20
8230.981971032108
 10
31000.0
 20
8232.124898621249
 10
31500.0
 20
8233.264840182648
 10
32000.0
 20
8234.40178752793
 10
32500.0
 20
8235.535732438751
 10
33000.0
 20
8236.666666666666
 10
33500.0
 20
8237.794581932989
 10
34000.0
 20
8238.919469928645
 10
34500.0
 20
8240.04132231405
 10
35000.0
 20
8241.160130718954
 10
35500.0
 20
8242.275886742307
 10
36000.0
 20
8243.388581952118
 10
36500.0
 20
8244.498207885305
 10
37000.0
 20
8245.60475604756
 10
37500.0
 20
8246.708217913203
 10
38000.0
 20
8247.808584925035
 10
38500.0
 20
8248.905848494192
 10
39000.0
 20
8250.0
 10
39500.0
 20
8250.0
 10
40000.0
 20
8250.0
 10
40500.0
 20
8250.0
 10
41000.0
 20
8250.0
 10
41500.0
 20
8250.0
 10
42000.0
 20
8250.0
 10
42500.0
 20
8250.0
 10
43000.0
 20
8250.0
 10
43500.0
 20
8250.0
 10
44000.0
 20
8250.0
 10
44500.0
 20
8250.0
 10
45000.0
 20
8250.0
 10
45500.0
 20
8250.0
 10
46000.0
 20
8250.0
 10
46500.0
 20
8250.0
 10
47000.0
 20
8250.0
 10
47500.0
 20
8250.0
 10
48000.0
 20
8250.0
 10
48500.0
 20
8250.0
 10
49000.0
 20
8250.0
 10
49500.0
 20
8250.0
 10
50000.0
 20
8250.0
 10
50500.0
 20
8250.0
 10
51000.0
 20
8250.0
 10
51500.0
 20
8250.0
 10
52000.0
 20
8250.0
 10
52500.0
 20
8250.0
 10
53000.0
 20
8250.0
 10
53500.0
 20
8250.0
 10
54000.0
 20
8250.0
 10
54500.0
 20
8250.0
 10
55000.0
 20
8250.0
 10
55500.0
 20
8250.0
 10
56000.0
 20
8250.0
 10
56500.0
 20
8250.0
 10
57000.0
 20
8250.0
 10
57500.0
 20
8250.0
 10
58000.0
 20
8250.0
 10
58500.0
 20
8250.0
 10
59000.0
 20
8250.0
 10
59500.0
 20
8250.0
 10
60000.0
 20
8250.0
 10
60500.0
 20
8250.0
 10
61000.0
 20
8250.0
 10
61500.0
 20
8250.0
 10
62000.0
 20
8250.0
 10
62500.0
 20
8250.0
 10
63000.0
 20
8250.0
 10
63500.0
 20
8250.0
 10
64000.0
 20
8250.0
 10
64500.0
 20
8250.0
 10
65000.0
 20
8250.0
 10
65500.0
 20
8250.0
 10
66000.0
 20
8250.0
 10
66500.0
 20
8250.0
 10
67000.0
 20
8250.0
 10
67500.0
 20
8250.0
 10
68000.0
 20
8250.0
 10
68500.0
 20
8250.0
 10
69000.0
 20
8250.0
 10
69500.0
 20
8250.0
 10
70000.0
 20
8250.0
 10
70500.0
 20
8250.0
 10
71000.0
 20
8250.0
 10
71500.0
 20
8250.0
 10
72000.0
 20
8250.0
 10
72500.0
 20
8250.0
 10
73000.0
 20
8250.0
 10
73500.0
 20
8250.0
 10
74000.0
 20
8250.0
 10
74500.0
 20
8250.0
 10
75000.0
 20
8250.0
 10
75500.0
 20
8250.0
 10
76000.0
 20
8250.0
 10
76500.0
 20
8250.0
 10
77000.0
 20
8250.0
 10
77500.0
 20
8250.0
 10
78000.0
 20
8250.0
 10
78500.0
 20
8250.0
 10
79000.0
 20
8250.0
 10
79500.0
 20
8248.905848494192
 10
80000.0
 20
8247.808584925035
 10
80500.0
 20
8246.708217913203
 10
81000.0
 20
8245.60475604756
 10
81500.0
 20
8244.498207885305
 10
82000.0
 20
8243.388581952118
 10
82500.0
 20
8242.275886742307
 10
83000.0
 20
8241.160130718954
 10
83500.0
 20
8240.04132231405
 10
84000.0
 20
8238.919469928645
 10
84500.0
 20
8237.794581932989
 10
85000.0
 20
8236.666666666666
 10
85500.0
 20
8235.535732438751
 10
86000.0
 20
8234.40178752793
 10
86500.0
 20
8233.264840182648
 10
87000.0
 20
8232.124898621249
 10
87500.0
 20
8230.981971032108
 10
88000.0
 20
8229.83606557377
 10
88500.0
 20
8219.920424403183
 10
89000.0
 20
8209.882984845577
 10
89500.0
 20
8199.72578568363
 10
90000.0
 20
8189.450820449586
 10
90500.0
 20
8179.060038673773
 10
91000.0
 20
8168.555347091931
 10
91500.0
 20
8157.93861081308
 10
92000.0
 20
8147.21165444929
 10
92500.0
 20
8136.3762632088965
 10
93000.0
 20
8125.4341839544695
 10
93500.0
 20
8114.387126226889
 10
94000.0
 20
8103.236763236761
 10
94500.0
 20
8091.984732824427
 10
95000.0
 20
8080.6326383896485
 10
95500.0
 20
8069.182049792159
 10
96000.0
 20
8057.634504224101
 10
96500.0
 20
8045.991507055337
 10
97000.0
 20
8034.254532652703
 10
97500.0
 20
8022.425025174029
 10
98000.0
 20
8010.504399337922
 10
98500.0
 20
7998.494041170096
 10
99000.0
 20
7986.395308727147
 10
99500.0
 20
7974.209532798489
 10
100000.0
 20
7961.938017587296
 10
100500.0
 20
7949.582041371107
 10
101000.0
 20
7937.142857142857
 10
101500.0
 20
7883.624557260921
 10
102000.0
 20
7829.563164108618
 10
102500.0
 20
7774.9586776859505
 10
103000.0
 20
7719.811097992916
 10
103500.0
 20
7664.120425029516
 10
104000.0
 20
7607.886658795749
 10
104500.0
 20
7551.1097992916175
 10
105000.0
 20
7493.789846517119
 10
105500.0
 20
7435.926800472255
 10
106000.0
 20
7377.520661157025
 10
106500.0
 20
7318.5714285714275
 10
107000.0
 20
7259.079102715466
 10
107500.0
 20
7199.043683589138
 10
108000.0
 20
7138.465171192443
 10
108500.0
 20
7077.343565525383
 10
109000.0
 20
7015.678866587958
 10
109500.0
 20
6953.471074380164
 10
110000.0
 20
6890.720188902007
 10
110500.0
 20
6827.426210153483
 10
111000.0
 20
6763.589138134593
 10
111500.0
 20
6699.208972845337
 10
112000.0
 20
6634.285714285715
 10
112500.0
 20
6476.417751346499
 10
113000.0
 20
6316.098826714801
 10
113500.0
 20
6153.288906533575
 10
114000.0
 20
5987.94708029197
 10
114500.0
 20
5820.031536697248
 10
115000.0
 20
5649.499538745387
 10
115500.0
 20
5476.307397959184
 10
116000.0
 20
5300.410447761194
 10
116500.0
 20
5121.763015947467
 10
117000.0
 20
4940.318396226415
 10
117500.0
 20
4756.028818785579
 10
118000.0
 20
4568.845419847328
 10
118500.0
 20
4378.718210172745
 10
119000.0
 20
4185.596042471043
 10
119500.0
 20
3989.426577669903
 10
119500.0
 20
-3989.426577669903
 10
119000.0
 20
-4185.596042471043
 10
118500.0
 20
-4378.718210172745
 10
118000.0
 20
-4568.845419847328
 10
117500.0
 20
-4756.028818785579
 10
117000.0
 20
-4940.318396226415
 10
116500.0
 20
-5121.763015947467
 10
116000.0
 20
-5300.410447761194
 10
115500.0
 20
-5476.307397959184
 10
115000.0
 20
-5649.499538745387
 10
114500.0
 20
-5820.031536697248
 10
114000.0
 20
-5987.94708029197
 10
113500.0
 20
-6153.288906533575
 10
113000.0
 20
-6316.098826714801
 10
112500.0
 20
-6476.417751346499
 10
112000.0
 20
-6634.285714285715
 10
111500.0
 20
-6699.208972845337
 10
111000.0
 20
-6763.589138134593
 10
110500.0
 20
-6827.426210153483
 10
110000.0
 20
-6890.720188902007
 10
109500.0
 20
-6953.471074380164
 10
109000.0
 20
-7015.678866587958
 10
108500.0
 20
-7077.343565525383
 10
108000.0
 20
-7138.465171192443
 10
107500.0
 20
-7199.043683589138
 10
107000.0
 20
-7259.079102715466
 10
106500.0
 20
-7318.5714285714275
 10
106000.0
 20
-7377.520661157025
 10
105500.0
 20
-7435.926800472255
 10
105000.0
 20
-7493.789846517119
 10
104500.0
 20
-7551.1097992916175
 10
104000.0
 20
-7607.886658795749
 10
103500.0
 20
-7664.120425029516
 10
103000.0
 20
-7719.811097992916
 10
102500.0
 20
-7774.9586776859505
 10
102000.0
 20
-7829.563164108618
 10
101500.0
 20
-7883.624557260921
 10
101000.0
 20
-7937.142857142857
 10
100500.0
 20
-7949.582041371107
 10
100000.0
 20
-7961.938017587296
 10
99500.0
 20
-7974.209532798489
 10
99000.0
 20
-7986.395308727147
 10
98500.0
 20
-7998.494041170096
 10
98000.0
 20
-8010.504399337922
 10
97500.0
 20
-8022.425025174029
 10
97000.0
 20
-8034.254532652703
 10
96500.0
 20
-8045.991507055337
 10
96000.0
 20
-8057.634504224101
 10
95500.0
 20
-8069.182049792159
 10
95000.0
 20
-8080.6326383896485
 10
94500.0
 20
-8091.984732824427
 10
94000.0
 20
-8103.236763236761
 10
93500.0
 20
-8114.387126226889
 10
93000.0
 20
-8125.4341839544695
 10
92500.0
 20
-8136.3762632088965
 10
92000.0
 20
-8147.21165444929
 10
91500.0
 20
-8157.93861081308
 10
91000.0
 20
-8168.555347091931
 10
90500.0
 20
-8179.060038673773
 10
90000.0
 20
-8189.450820449586
 10
89500.0
 20
-8199.72578568363
 10
89000.0
 20
-8209.882984845577
 10
88500.0
 20
-8219.920424403183
 10
88000.0
 20
-8229.83606557377
 10
87500.0
 20
-8230.981971032108
 10
87000.0
 20
-8232.124898621249
 10
86500.0
 20
-8233.264840182648
 10
86000.0
 20
-8234.40178752793
 10
85500.0
 20
-8235.535732438751
 10
85000.0
 20
-8236.666666666666
 10
84500.0
 20
-8237.794581932989
 10
84000.0
 20
-8238.919469928645
 10
83500.0
 20
-8240.04132231405
 10
83000.0
 20
-8241.160130718954
 10
82500.0
 20
-8242.275886742307
 10
82000.0
 20
-8243.388581952118
 10
81500.0
 20
-8244.498207885305
 10
81000.0
 20
-8245.60475604756
 10
80500.0
 20
-8246.708217913203
 10
80000.0
 20
-8247.808584925035
 10
79500.0
 20
-8248.905848494192
 10
79000.0
 20
-8250.0
 10
78500.0
 20
-8250.0
 10
78000.0
 20
-8250.0
 10
77500.0
 20
-8250.0
 10
77000.0
 20
-8250.0
 10
76500.0
 20
-8250.0
 10
76000.0
 20
-8250.0
 10
75500.0
 20
-8250.0
 10
75000.0
 20
-8250.0
 10
74500.0
 20
-8250.0
 10
74000.0
 20
-8250.0
 10
73500.0
 20
-8250.0
 10
73000.0
 20
-8250.0
 10
72500.0
 20
-8250.0
 10
72000.0
 20
-8250.0
 10
71500.0
 20
-8250.0
 10
71000.0
 20
-8250.0
 10
70500.0
 20
-8250.0
 10
70000.0
 20
-8250.0
 10
69500.0
 20
-8250.0
 10
69000.0
 20
-8250.0
 10
68500.0
 20
-8250.0
 10
68000.0
 20
-8250.0
 10
67500.0
 20
-8250.0
 10
67000.0
 20
-8250.0
 10
66500.0
 20
-8250.0
 10
66000.0
 20
-8250.0
 10
65500.0
 20
-8250.0
 10
65000.0
 20
-8250.0
 10
64500.0
 20
-8250.0
 10
64000.0
 20
-8250.0
 10
63500.0
 20
-8250.0
 10
63000.0
 20
-8250.0
 10
62500.0
 20
-8250.0
 10
62000.0
 20
-8250.0
 10
61500.0
 20
-8250.0
 10
61000.0
 20
-8250.0
 10
60500.0
 20
-8250.0
 10
60000.0
 20
-8250.0
 10
59500.0
 20
-8250.0
 10
59000.0
 20
-8250.0
 10
58500.0
 20
-8250.0
 10
58000.0
 20
-8250.0
 10
57500.0
 20
-8250.0
 10
57000.0
 20
-8250.0
 10
56500.0
 20
-8250.0
 10
56000.0
 20
-8250.0
 10
55500.0
 20
-8250.0
 10
55000.0
 20
-8250.0
 10
54500.0
 20
-8250.0
 10
54000.0
 20
-8250.0
 10
53500.0
 20
-8250.0
 10
53000.0
 20
-8250.0
 10
52500.0
 20
-8250.0
 10
52000.0
 20
-8250.0
 10
51500.0
 20
-8250.0
 10
51000.0
 20
-8250.0
 10
50500.0
 20
-8250.0
 10
50000.0
 20
-8250.0
 10
49500.0
 20
-8250.0
 10
49000.0
 20
-8250.0
 10
48500.0
 20
-8250.0
 10
48000.0
 20
-8250.0
 10
47500.0
 20
-8250.0
 10
47000.0
 20
-8250.0
 10
46500.0
 20
-8250.0
 10
46000.0
 20
-8250.0
 10
45500.0
 20
-8250.0
 10
45000.0
 20
-8250.0
 10
44500.0
 20
-8250.0
 10
44000.0
 20
-8250.0
 10
43500.0
 20
-8250.0
 10
43000.0
 20
-8250.0
 10
42500.0
 20
-8250.0
 10
42000.0
 20
-8250.0
 10
41500.0
 20
-8250.0
 10
41000.0
 20
-8250.0
 10
40500.0
 20
-8250.0
 10
40000.0
 20
-8250.0
 10
39500.0
 20
-8250.0
 10
39000.0
 20
-8250.0
 10
38500.0
 20
-8248.905848494192
 10
38000.0
 20
-8247.808584925035
 10
37500.0
 20
-8246.708217913203
 10
37000.0
 20
-8245.60475604756
 10
36500.0
 20
-8244.498207885305
 10
36000.0
 20
-8243.388581952118
 10
35500.0
 20
-8242.275886742307
 10
35000.0
 20
-8241.160130718954
 10
34500.0
 20
-8240.04132231405
 10
34000.0
 20
-8238.919469928645
 10
33500.0
 20
-8237.794581932989
 10
33000.0
 20
-8236.666666666666
 10
32500.0
 20
-8235.535732438751
 10
32000.0
 20
-8234.40178752793
 10
31500.0
 20
-8233.264840182648
 10
31000.0
 20
-8232.124898621249
 10
30500.0
 20
-8230.981971032108
 10
30000.0
 20
-8229.83606557377
 10
29500.0
 20
-8213.790469676243
 10
29000.0
 20
-8197.662100456622
 10
28500.0
 20
-8181.45061728395
 10
28000.0
 20
-8165.155677655678
 10
27500.0
 20
-8148.776937184777
 10
27000.0
 20
-8132.3140495867765
 10
26500.0
 20
-8115.7666666666655
 10
26000.0
 20
-8099.134438305709
 10
25500.0
 20
-8082.4170124481325
 10
25000.0
 20
-8065.6140350877195
 10
24500.0
 20
-8048.725150254276
 10
24000.0
 20
-8031.750000000001
 10
23500.0
 20
-8014.688224385722
 10
23000.0
 20
-7997.539461467038
 10
22500.0
 20
-7980.3033472803345
 10
22000.0
 20
-7962.979515828678
 10
21500.0
 20
-7945.5675990676
 10
21000.0
 20
-7928.067226890757
 10
20500.0
 20
-7910.478027115475
 10
20000.0
 20
-7892.799625468166
 10
19500.0
 20
-7875.031645569621
 10
19000.0
 20
-7857.173708920188
 10
18500.0
 20
-7839.2254348848155
 10
18000.0
 20
-7821.186440677967
 10
17500.0
 20
-7744.790547798067
 10
17000.0
 20
-7667.647058823531
 10
16500.0
 20
-7589.723756906077
 10
16000.0
 20
-7510.986547085202
 10
15500.0
 20
-7431.399317406144
 10
15000.0
 20
-7350.923787528869
 10
14500.0
 20
-7269.519343493553
 10
14000.0
 20
-7187.142857142858
 10
13500.0
 20
-7103.748488512697
 10
13000.0
 20
-7019.287469287469
 10
12500.0
 20
-6933.70786516854
 10
12000.0
 20
-6846.954314720812
 10
11500.0
 20
-6758.967741935484
 10
11000.0
 20
-6669.685039370078
 10
10500.0
 20
-6579.0387182910545
 10
10000.0
 20
-6486.95652173913
 10
9500.0
 20
-6321.86329588015
 10
9000.0
 20
-6149.031007751938
 10
8500.0
 20
-5967.620481927711
 10
8000.0
 20
-5776.666666666667
 10
7500.0
 20
-5575.054112554112
  0
LINE
  5
9A
330
17
100
AcDbEntity
  8
07_ОСИ
100
AcDbLine
 10
-2000.0
 20
0.0
 30
0.0
 11
141000.0
 21
0.0
 31
0.0
  0
LINE
  5
9B
330
17
100
AcDbEntity
  8
03_ПЕРЕБОРКИ
100
AcDbLine
 10
34000.0
 20
4150.0
 30
0.0
 11
114000.0
 21
4150.0
 31
0.0
  0
LINE
  5
9C
330
17
100
AcDbEntity
  8
03_ПЕРЕБОРКИ
100
AcDbLine
 10
34000.0
 20
-4150.0
 30
0.0
 11
114000.0
 21
-4150.0
 31
0.0
  0
LWPOLYLINE
  5
9D
330
17
100
AcDbEntity
  8
04_ЦИСТЕРНЫ
100
AcDbPolyline
 90
98
 70
1
 10
46000.0
 20
0.0
 10
46500.0
 20
0.0
 10
47000.0
 20
0.0
 10
47500.0
 20
0.0
 10
48000.0
 20
0.0
 10
48500.0
 20
0.0
 10
49000.0
 20
0.0
 10
49500.0
 20
0.0
 10
50000.0
 20
0.0
 10
50500.0
 20
0.0
 10
51000.0
 20
0.0
 10
51500.0
 20
0.0
 10
52000.0
 20
0.0
 10
52500.0
 20
0.0
 10
53000.0
 20
0.0
 10
53500.0
 20
0.0
 10
54000.0
 20
0.0
 10
54500.0
 20
0.0
 10
55000.0
 20
0.0
 10
55500.0
 20
0.0
 10
56000.0
 20
0.0
 10
56500.0
 20
0.0
 10
57000.0
 20
0.0
 10
57500.0
 20
0.0
 10
58000.0
 20
0.0
 10
58500.0
 20
0.0
 10
59000.0
 20
0.0
 10
59500.0
 20
0.0
 10
60000.0
 20
0.0
 10
60500.0
 20
0.0
 10
61000.0
 20
0.0
 10
61500.0
 20
0.0
 10
62000.0
 20
0.0
 10
62500.0
 20
0.0
 10
63000.0
 20
0.0
 10
63500.0
 20
0.0
 10
64000.0
 20
0.0
 10
64500.0
 20
0.0
 10
65000.0
 20
0.0
 10
65500.0
 20
0.0
 10
66000.0
 20
0.0
 10
66500.0
 20
0.0
 10
67000.0
 20
0.0
 10
67500.0
 20
0.0
 10
68000.0
 20
0.0
 10
68500.0
 20
0.0
 10
69000.0
 20
0.0
 10
69500.0
 20
0.0
 10
70000.0
 20
0.0
 10
70000.0
 20
4150.0
 10
69500.0
 20
4150.0
 10
69000.0
 20
4150.0
 10
68500.0
 20
4150.0
 10
68000.0
 20
4150.0
 10
67500.0
 20
4150.0
 10
67000.0
 20
4150.0
 10
66500.0
 20
4150.0
 10
66000.0
 20
4150.0
 10
65500.0
 20
4150.0
 10
65000.0
 20
4150.0
 10
64500.0
 20
4150.0
 10
64000.0
 20
4150.0
 10
63500.0
 20
4150.0
 10
63000.0
 20
4150.0
 10
62500.0
 20
4150.0
 10
62000.0
 20
4150.0
 10
61500.0
 20
4150.0
 10
61000.0
 20
4150.0
 10
60500.0
 20
4150.0
 10
60000.0
 20
4150.0
 10
59500.0
 20
4150.0
 10
59000.0
 20
4150.0
 10
58500.0
 20
4150.0
 10
58000.0
 20
4150.0
 10
57500.0
 20
4150.0
 10
57000.0
 20
4150.0
 10
56500.0
 20
4150.0
 10
56000.0
 20
4150.0
 10
55500.0
 20
4150.0
 10
55000.0
 20
4150.0
 10
54500.0
 20
4150.0
 10
54000.0
 20
4150.0
 10
53500.0
 20
4150.0
 10
53000.0
 20
4150.0
 10
52500.0
 20
4150.0
 10
52000.0
 20
4150.0
 10
51500.0
 20
4150.0
 10
51000.0
 20
4150.0
 10
50500.0
 20
4150.0
 10
50000.0
 20
4150.0
 10
49500.0
 20
4150.0
 10
49000.0
 20
4150.0
 10
48500.0
 20
4150.0
 10
48000.0
 20
4150.0
 10
47500.0
 20
4150.0
 10
47000.0
 20
4150.0
 10
46500.0
 20
4150.0
 10
46000.0
 20
4150.0
  0
TEXT
  5
9E
330
17
100
AcDbEntity
  8
04_ЦИСТЕРНЫ
100
AcDbText
 10
58000.0
 20
2315.0
 30
0.0
 40
600.0
  1
ДТ-1
  7
ГОСТ
 72
1
 11
58000.0
 21
2315.0
 31
0.0
100
AcDbText
 73
2
  0
TEXT
  5
9F
330
17
100
AcDbEntity
  8
04_ЦИСТЕРНЫ
100
AcDbText
 10
58000.0
 20
1515.0
 30
0.0
 40
500.0
  1
125 м3
  7
ГОСТ
 72
1
 11
58000.0
 21
1515.0
 31
0.0
100
AcDbText
 73
2
  0
LWPOLYLINE
  5
A0
330
17
100
AcDbEntity
  8
04_ЦИСТЕРНЫ
100
AcDbPolyline
 90
98
 70
1
 10
46000.0
 20
0.0
 10
46500.0
 20
0.0
 10
47000.0
 20
0.0
 10
47500.0
 20
0.0
 10
48000.0
 20
0.0
 10
48500.0
 20
0.0
 10
49000.0
 20
0.0
 10
49500.0
 20
0.0
 10
50000.0
 20
0.0
 10
50500.0
 20
0.0
 10
51000.0
 20
0.0
 10
51500.0
 20
0.0
 10
52000.0
 20
0.0
 10
52500.0
 20
0.0
 10
53000.0
 20
0.0
 10
53500.0
 20
0.0
 10
54000.0
 20
0.0
 10
54500.0
 20
0.0
 10
55000.0
 20
0.0
 10
55500.0
 20
0.0
 10
56000.0
 20
0.0
 10
56500.0
 20
0.0
 10
57000.0
 20
0.0
 10
57500.0
 20
0.0
 10
58000.0
 20
0.0
 10
58500.0
 20
0.0
 10
59000.0
 20
0.0
 10
59500.0
 20
0.0
 10
60000.0
 20
0.0
 10
60500.0
 20
0.0
 10
61000.0
 20
0.0
 10
61500.0
 20
0.0
 10
62000.0
 20
0.0
 10
62500.0
 20
0.0
 10
63000.0
 20
0.0
 10
63500.0
 20
0.0
 10
64000.0
 20
0.0
 10
64500.0
 20
0.0
 10
65000.0
 20
0.0
 10
65500.0
 20
0.0
 10
66000.0
 20
0.0
 10
66500.0
 20
0.0
 10
67000.0
 20
0.0
 10
67500.0
 20
0.0
 10
68000.0
 20
0.0
 10
68500.0
 20
0.0
 10
69000.0
 20
0.0
 10
69500.0
 20
0.0
 10
70000.0
 20
0.0
 10
70000.0
 20
-4150.0
 10
69500.0
 20
-4150.0
 10
69000.0
 20
-4150.0
 10
68500.0
 20
-4150.0
 10
68000.0
 20
-4150.0
 10
67500.0
 20
-4150.0
 10
67000.0
 20
-4150.0
 10
66500.0
 20
-4150.0
 10
66000.0
 20
-4150.0
 10
65500.0
 20
-4150.0
 10
65000.0
 20
-4150.0
 10
64500.0
 20
-4150.0
 10
64000.0
 20
-4150.0
 10
63500.0
 20
-4150.0
 10
63000.0
 20
-4150.0
 10
62500.0
 20
-4150.0
 10
62000.0
 20
-4150.0
 10
61500.0
 20
-4150.0
 10
61000.0
 20
-4150.0
 10
60500.0
 20
-4150.0
 10
60000.0
 20
-4150.0
 10
59500.0
 20
-4150.0
 10
59000.0
 20
-4150.0
 10
58500.0
 20
-4150.0
 10
58000.0
 20
-4150.0
 10
57500.0
 20
-4150.0
 10
57000.0
 20
-4150.0
 10
56500.0
 20
-4150.0
 10
56000.0
 20
-4150.0
 10
55500.0
 20
-4150.0
 10
55000.0
 20
-4150.0
 10
54500.0
 20
-4150.0
 10
54000.0
 20
-4150.0
 10
53500.0
 20
-4150.0
 10
53000.0
 20
-4150.0
 10
52500.0
 20
-4150.0
 10
52000.0
 20
-4150.0
 10
51500.0
 20
-4150.0
 10
51000.0
 20
-4150.0
 10
50500.0
 20
-4150.0
 10
50000.0
 20
-4150.0
 10
49500.0
 20
-4150.0
 10
49000.0
 20
-4150.0
 10
48500.0
 20
-4150.0
 10
48000.0
 20
-4150.0
 10
47500.0
 20
-4150.0
 10
47000.0
 20
-4150.0
 10
46500.0
 20
-4150.0
 10
46000.0
 20
-4150.0
  0
TEXT
  5
A1
330
17
100
AcDbEntity
  8
04_ЦИСТЕРНЫ
100
AcDbText
 10
58000.0
 20
-1835.0
 30
0.0
 40
600.0
  1
ДТ-1
  7
ГОСТ
 72
1
 11
58000.0
 21
-1835.0
 31
0.0
100
AcDbText
 73
2
  0
TEXT
  5
A2
330
17
100
AcDbEntity
  8
04_ЦИСТЕРНЫ
100
AcDbText
 10
58000.0
 20
-2635.0
 30
0.0
 40
500.0
  1
125 м3
  7
ГОСТ
 72
1
 11
58000.0
 21
-2635.0
 31
0.0
100
AcDbText
 73
2
  0
LWPOLYLINE
  5
A3
330
17
100
AcDbEntity
  8
04_ЦИСТЕРНЫ
100
AcDbPolyline
 90
18
 70
1
 10
22000.0
 20
4150.0
 10
22500.0
 20
4150.0
 10
23000.0
 20
4150.0
 10
23500.0
 20
4150.0
 10
24000.0
 20
4150.0
 10
24500.0
 20
4150.0
 10
25000.0
 20
4150.0
 10
25500.0
 20
4150.0
 10
26000.0
 20
4150.0
 10
26000.0
 20
8147.0973782771525
 10
25500.0
 20
8140.421792618628
 10
25000.0
 20
8133.732113535069
 10
24500.0
 20
8127.02829634848
 10
24000.0
 20
8120.310296191819
 10
23500.0
 20
8113.5780680080015
 10
23000.0
 20
8106.831566548881
 10
22500.0
 20
8100.070746374248
 10
22000.0
 20
8093.295561850802
  0
TEXT
  5
A4
330
17
100
AcDbEntity
  8
04_ЦИСТЕРНЫ
100
AcDbText
 10
24000.0
 20
6375.1314344307275
 30
0.0
 40
600.0
  1
ДТ-2
  7
ГОСТ
 72
1
 11
24000.0
 21
6375.1314344307275
 31
0.0
100
AcDbText
 73
2
  0
TEXT
  5
A5
330
17
100
AcDbEntity
  8
04_ЦИСТЕРНЫ
100
AcDbText
 10
24000.0
 20
5575.1314344307275
 30
0.0
 40
500.0
  1
25 м3
  7
ГОСТ
 72
1
 11
24000.0
 21
5575.1314344307275
 31
0.0
100
AcDbText
 73
2
  0
LWPOLYLINE
  5
A6
330
17
100
AcDbEntity
  8
04_ЦИСТЕРНЫ
100
AcDbPolyline
 90
18
 70
1
 10
18000.0
 20
4150.0
 10
18500.0
 20
4150.0
 10
19000.0
 20
4150.0
 10
19500.0
 20
4150.0
 10
20000.0
 20
4150.0
 10
20500.0
 20
4150.0
 10
21000.0
 20
4150.0
 10
21500.0
 20
4150.0
 10
22000.0
 20
4150.0
 10
22000.0
 20
8093.295561850802
 10
21500.0
 20
8086.505967151128
 10
21000.0
 20
8079.701916252661
 10
20500.0
 20
8072.883362936649
 10
20000.0
 20
8066.050260787103
 10
19500.0
 20
8059.202563189748
 10
19000.0
 20
8052.340223330956
 10
18500.0
 20
8045.4631941966945
 10
18000.0
 20
8038.571428571428
  0
TEXT
  5
A7
330
17
100
AcDbEntity
  8
04_ЦИСТЕРНЫ
100
AcDbText
 10
20000.0
 20
6348.000804348176
 30
0.0
 40
600.0
  1
ДТ-3
  7
ГОСТ
 72
1
 11
20000.0
 21
6348.000804348176
 31
0.0
100
AcDbText
 73
2
  0
TEXT
  5
A8
330
17
100
AcDbEntity
  8
04_ЦИСТЕРНЫ
100
AcDbText
 10
20000.0
 20
5548.000804348176
 30
0.0
 40
500.0
  1
15 м3
  7
ГОСТ
 72
1
 11
20000.0
 21
5548.000804348176
 31
0.0
100
AcDbText
 73
2
  0
LWPOLYLINE
  5
A9
330
17
100
AcDbEntity
  8
04_ЦИСТЕРНЫ
100
AcDbPolyline
 90
18
 70
1
 10
22000.0
 20
-4150.0
 10
22500.0
 20
-4150.0
 10
23000.0
 20
-4150.0
 10
23500.0
 20
-4150.0
 10
24000.0
 20
-4150.0
 10
24500.0
 20
-4150.0
 10
25000.0
 20
-4150.0
 10
25500.0
 20
-4150.0
 10
26000.0
 20
-4150.0
 10
26000.0
 20
-8147.0973782771525
 10
25500.0
 20
-8140.421792618628
 10
25000.0
 20
-8133.732113535069
 10
24500.0
 20
-8127.02829634848
 10
24000.0
 20
-8120.310296191819
 10
23500.0
 20
-8113.5780680080015
 10
23000.0
 20
-8106.831566548881
 10
22500.0
 20
-8100.070746374248
 10
22000.0
 20
-8093.295561850802
  0
TEXT
  5
AA
330
17
100
AcDbEntity
  8
04_ЦИСТЕРНЫ
100
AcDbText
 10
24000.0
 20
-5895.1314344307275
 30
0.0
 40
600.0
  1
М-1
  7
ГОСТ
 72
1
 11
24000.0
 21
-5895.1314344307275
 31
0.0
100
AcDbText
 73
2
  0
TEXT
  5
AB
330
17
100
AcDbEntity
  8
04_ЦИСТЕРНЫ
100
AcDbText
 10
24000.0
 20
-6695.1314344307275
 30
0.0
 40
500.0
  1
8 м3
  7
ГОСТ
 72
1
 11
24000.0
 21
-6695.1314344307275
 31
0.0
100
AcDbText
 73
2
  0
LWPOLYLINE
  5
AC
330
17
100
AcDbEntity
  8
04_ЦИСТЕРНЫ
100
AcDbPolyline
 90
14
 70
1
 10
26000.0
 20
-4150.0
 10
26500.0
 20
-4150.0
 10
27000.0
 20
-4150.0
 10
27500.0
 20
-4150.0
 10
28000.0
 20
-4150.0
 10
28500.0
 20
-4150.0
 10
29000.0
 20
-4150.0
 10
29000.0
 20
-8186.857408699698
 10
28500.0
 20
-8180.265455815577
 10
28000.0
 20
-8173.659673659673
 10
27500.0
 20
-8167.040018667599
 10
27000.0
 20
-8160.4064470918
 10
26500.0
 20
-8153.758915000583
 10
26000.0
 20
-8147.0973782771525
  0
TEXT
  5
AD
330
17
100
AcDbEntity
  8
04_ЦИСТЕРНЫ
100
AcDbText
 10
27500.0
 20
-5918.506092658005
 30
0.0
 40
600.0
  1
М-2
  7
ГОСТ
 72
1
 11
27500.0
 21
-5918.506092658005
 31
0.0
100
AcDbText
 73
2
  0
TEXT
  5
AE
330
17
100
AcDbEntity
  8
04_ЦИСТЕРНЫ
100
AcDbText
 10
27500.0
 20
-6718.506092658005
 30
0.0
 40
500.0
  1
8 м3
  7
ГОСТ
 72
1
 11
27500.0
 21
-6718.506092658005
 31
0.0
100
AcDbText
 73
2
  0
LWPOLYLINE
  5
AF
330
17
100
AcDbEntity
  8
04_ЦИСТЕРНЫ
100
AcDbPolyline
 90
14
 70
1
 10
29000.0
 20
-4150.0
 10
29500.0
 20
-4150.0
 10
30000.0
 20
-4150.0
 10
30500.0
 20
-4150.0
 10
31000.0
 20
-4150.0
 10
31500.0
 20
-4150.0
 10
32000.0
 20
-4150.0
 10
32000.0
 20
-8200.0
 10
31500.0
 20
-8200.0
 10
31000.0
 20
-8200.0
 10
30500.0
 20
-8200.0
 10
30000.0
 20
-8200.0
 10
29500.0
 20
-8193.435575694202
 10
29000.0
 20
-8186.857408699698
  0
TEXT
  5
B0
330
17
100
AcDbEntity
  8
04_ЦИСТЕРНЫ
100
AcDbText
 10
30500.0
 20
-5933.592356028136
 30
0.0
 40
600.0
  1
Ш-1
  7
ГОСТ
 72
1
 11
30500.0
 21
-5933.592356028136
 31
0.0
100
AcDbText
 73
2
  0
TEXT
  5
B1
330
17
100
AcDbEntity
  8
04_ЦИСТЕРНЫ
100
AcDbText
 10
30500.0
 20
-6733.592356028136
 30
0.0
 40
500.0
  1
5 м3
  7
ГОСТ
 72
1
 11
30500.0
 21
-6733.592356028136
 31
0.0
100
AcDbText
 73
2
  0
LWPOLYLINE
  5
B2
330
17
100
AcDbEntity
  8
04_ЦИСТЕРНЫ
100
AcDbPolyline
 90
90
 70
1
 10
58000.0
 20
4150.0
 10
58500.0
 20
4150.0
 10
59000.0
 20
4150.0
 10
59500.0
 20
4150.0
 10
60000.0
 20
4150.0
 10
60500.0
 20
4150.0
 10
61000.0
 20
4150.0
 10
61500.0
 20
4150.0
 10
62000.0
 20
4150.0
 10
62500.0
 20
4150.0
 10
63000.0
 20
4150.0
 10
63500.0
 20
4150.0
 10
64000.0
 20
4150.0
 10
64500.0
 20
4150.0
 10
65000.0
 20
4150.0
 10
65500.0
 20
4150.0
 10
66000.0
 20
4150.0
 10
66500.0
 20
4150.0
 10
67000.0
 20
4150.0
 10
67500.0
 20
4150.0
 10
68000.0
 20
4150.0
 10
68500.0
 20
4150.0
 10
69000.0
 20
4150.0
 10
69500.0
 20
4150.0
 10
70000.0
 20
4150.0
 10
70500.0
 20
4150.0
 10
71000.0
 20
4150.0
 10
71500.0
 20
4150.0
 10
72000.0
 20
4150.0
 10
72500.0
 20
4150.0
 10
73000.0
 20
4150.0
 10
73500.0
 20
4150.0
 10
74000.0
 20
4150.0
 10
74500.0
 20
4150.0
 10
75000.0
 20
4150.0
 10
75500.0
 20
4150.0
 10
76000.0
 20
4150.0
 10
76500.0
 20
4150.0
 10
77000.0
 20
4150.0
 10
77500.0
 20
4150.0
 10
78000.0
 20
4150.0
 10
78500.0
 20
4150.0
 10
79000.0
 20
4150.0
 10
79500.0
 20
4150.0
 10
80000.0
 20
4150.0
 10
80000.0
 20
8200.0
 10
79500.0
 20
8200.0
 10
79000.0
 20
8200.0
 10
78500.0
 20
8200.0
 10
78000.0
 20
8200.0
 10
77500.0
 20
8200.0
 10
77000.0
 20
8200.0
 10
76500.0
 20
8200.0
 10
76000.0
 20
8200.0
 10
75500.0
 20
8200.0
 10
75000.0
 20
8200.0
 10
74500.0
 20
8200.0
 10
74000.0
 20
8200.0
 10
73500.0
 20
8200.0
 10
73000.0
 20
8200.0
 10
72500.0
 20
8200.0
 10
72000.0
 20
8200.0
 10
71500.0
 20
8200.0
 10
71000.0
 20
8200.0
 10
70500.0
 20
8200.0
 10
70000.0
 20
8200.0
 10
69500.0
 20
8200.0
 10
69000.0
 20
8200.0
 10
68500.0
 20
8200.0
 10
68000.0
 20
8200.0
 10
67500.0
 20
8200.0
 10
67000.0
 20
8200.0
 10
66500.0
 20
8200.0
 10
66000.0
 20
8200.0
 10
65500.0
 20
8200.0
 10
65000.0
 20
8200.0
 10
64500.0
 20
8200.0
 10
64000.0
 20
8200.0
 10
63500.0
 20
8200.0
 10
63000.0
 20
8200.0
 10
62500.0
 20
8200.0
 10
62000.0
 20
8200.0
 10
61500.0
 20
8200.0
 10
61000.0
 20
8200.0
 10
60500.0
 20
8200.0
 10
60000.0
 20
8200.0
 10
59500.0
 20
8200.0
 10
59000.0
 20
8200.0
 10
58500.0
 20
8200.0
 10
58000.0
 20
8200.0
  0
TEXT
  5
B3
330
17
100
AcDbEntity
  8
04_ЦИСТЕРНЫ
100
AcDbText
 10
69000.0
 20
6415.0
 30
0.0
 40
600.0
  1
ПВ-1
  7
ГОСТ
 72
1
 11
69000.0
 21
6415.0
 31
0.0
100
AcDbText
 73
2
  0
TEXT
  5
B4
330
17
100
AcDbEntity
  8
04_ЦИСТЕРНЫ
100
AcDbText
 10
69000.0
 20
5615.0
 30
0.0
 40
500.0
  1
95 м3
  7
ГОСТ
 72
1
 11
69000.0
 21
5615.0
 31
0.0
100
AcDbText
 73
2
  0
LWPOLYLINE
  5
B5
330
17
100
AcDbEntity
  8
04_ЦИСТЕРНЫ
100
AcDbPolyline
 90
90
 70
1
 10
58000.0
 20
-4150.0
 10
58500.0
 20
-4150.0
 10
59000.0
 20
-4150.0
 10
59500.0
 20
-4150.0
 10
60000.0
 20
-4150.0
 10
60500.0
 20
-4150.0
 10
61000.0
 20
-4150.0
 10
61500.0
 20
-4150.0
 10
62000.0
 20
-4150.0
 10
62500.0
 20
-4150.0
 10
63000.0
 20
-4150.0
 10
63500.0
 20
-4150.0
 10
64000.0
 20
-4150.0
 10
64500.0
 20
-4150.0
 10
65000.0
 20
-4150.0
 10
65500.0
 20
-4150.0
 10
66000.0
 20
-4150.0
 10
66500.0
 20
-4150.0
 10
67000.0
 20
-4150.0
 10
67500.0
 20
-4150.0
 10
68000.0
 20
-4150.0
 10
68500.0
 20
-4150.0
 10
69000.0
 20
-4150.0
 10
69500.0
 20
-4150.0
 10
70000.0
 20
-4150.0
 10
70500.0
 20
-4150.0
 10
71000.0
 20
-4150.0
 10
71500.0
 20
-4150.0
 10
72000.0
 20
-4150.0
 10
72500.0
 20
-4150.0
 10
73000.0
 20
-4150.0
 10
73500.0
 20
-4150.0
 10
74000.0
 20
-4150.0
 10
74500.0
 20
-4150.0
 10
75000.0
 20
-4150.0
 10
75500.0
 20
-4150.0
 10
76000.0
 20
-4150.0
 10
76500.0
 20
-4150.0
 10
77000.0
 20
-4150.0
 10
77500.0
 20
-4150.0
 10
78000.0
 20
-4150.0
 10
78500.0
 20
-4150.0
 10
79000.0
 20
-4150.0
 10
79500.0
 20
-4150.0
 10
80000.0
 20
-4150.0
 10
80000.0
 20
-8200.0
 10
79500.0
 20
-8200.0
 10
79000.0
 20
-8200.0
 10
78500.0
 20
-8200.0
 10
78000.0
 20
-8200.0
 10
77500.0
 20
-8200.0
 10
77000.0
 20
-8200.0
 10
76500.0
 20
-8200.0
 10
76000.0
 20
-8200.0
 10
75500.0
 20
-8200.0
 10
75000.0
 20
-8200.0
 10
74500.0
 20
-8200.0
 10
74000.0
 20
-8200.0
 10
73500.0
 20
-8200.0
 10
73000.0
 20
-8200.0
 10
72500.0
 20
-8200.0
 10
72000.0
 20
-8200.0
 10
71500.0
 20
-8200.0
 10
71000.0
 20
-8200.0
 10
70500.0
 20
-8200.0
 10
70000.0
 20
-8200.0
 10
69500.0
 20
-8200.0
 10
69000.0
 20
-8200.0
 10
68500.0
 20
-8200.0
 10
68000.0
 20
-8200.0
 10
67500.0
 20
-8200.0
 10
67000.0
 20
-8200.0
 10
66500.0
 20
-8200.0
 10
66000.0
 20
-8200.0
 10
65500.0
 20
-8200.0
 10
65000.0
 20
-8200.0
 10
64500.0
 20
-8200.0
 10
64000.0
 20
-8200.0
 10
63500.0
 20
-8200.0
 10
63000.0
 20
-8200.0
 10
62500.0
 20
-8200.0
 10
62000.0
 20
-8200.0
 10
61500.0
 20
-8200.0
 10
61000.0
 20
-8200.0
 10
60500.0
 20
-8200.0
 10
60000.0
 20
-8200.0
 10
59500.0
 20
-8200.0
 10
59000.0
 20
-8200.0
 10
58500.0
 20
-8200.0
 10
58000.0
 20
-8200.0
  0
TEXT
  5
B6
330
17
100
AcDbEntity
  8
04_ЦИСТЕРНЫ
100
AcDbText
 10
69000.0
 20
-5935.0
 30
0.0
 40
600.0
  1
ПВ-1
  7
ГОСТ
 72
1
 11
69000.0
 21
-5935.0
 31
0.0
100
AcDbText
 73
2
  0
TEXT
  5
B7
330
17
100
AcDbEntity
  8
04_ЦИСТЕРНЫ
100
AcDbText
 10
69000.0
 20
-6735.0
 30
0.0
 40
500.0
  1
95 м3
  7
ГОСТ
 72
1
 11
69000.0
 21
-6735.0
 31
0.0
100
AcDbText
 73
2
  0
LWPOLYLINE
  5
B8
330
17
100
AcDbEntity
  8
04_ЦИСТЕРНЫ
100
AcDbPolyline
 90
10
 70
1
 10
74000.0
 20
0.0
 10
74500.0
 20
0.0
 10
75000.0
 20
0.0
 10
75500.0
 20
0.0
 10
76000.0
 20
0.0
 10
76000.0
 20
4150.0
 10
75500.0
 20
4150.0
 10
75000.0
 20
4150.0
 10
74500.0
 20
4150.0
 10
74000.0
 20
4150.0
  0
TEXT
  5
B9
330
17
100
AcDbEntity
  8
04_ЦИСТЕРНЫ
100
AcDbText
 10
75000.0
 20
2075.0
 30
0.0
 40
440.00000000000006
  1
ТВ-1
  7
ГОСТ
 72
1
 11
75000.0
 21
2075.0
 31
0.0
100
AcDbText
 73
2
  0
LWPOLYLINE
  5
BA
330
17
100
AcDbEntity
  8
04_ЦИСТЕРНЫ
100
AcDbPolyline
 90
10
 70
1
 10
74000.0
 20
0.0
 10
74500.0
 20
0.0
 10
75000.0
 20
0.0
 10
75500.0
 20
0.0
 10
76000.0
 20
0.0
 10
76000.0
 20
-4150.0
 10
75500.0
 20
-4150.0
 10
75000.0
 20
-4150.0
 10
74500.0
 20
-4150.0
 10
74000.0
 20
-4150.0
  0
TEXT
  5
BB
330
17
100
AcDbEntity
  8
04_ЦИСТЕРНЫ
100
AcDbText
 10
75000.0
 20
-2075.0
 30
0.0
 40
440.00000000000006
  1
ТВ-1
  7
ГОСТ
 72
1
 11
75000.0
 21
-2075.0
 31
0.0
100
AcDbText
 73
2
  0
LWPOLYLINE
  5
BC
330
17
100
AcDbEntity
  8
04_ЦИСТЕРНЫ
100
AcDbPolyline
 90
10
 70
1
 10
70000.0
 20
0.0
 10
70500.0
 20
0.0
 10
71000.0
 20
0.0
 10
71500.0
 20
0.0
 10
72000.0
 20
0.0
 10
72000.0
 20
4150.0
 10
71500.0
 20
4150.0
 10
71000.0
 20
4150.0
 10
70500.0
 20
4150.0
 10
70000.0
 20
4150.0
  0
TEXT
  5
BD
330
17
100
AcDbEntity
  8
04_ЦИСТЕРНЫ
100
AcDbText
 10
71000.0
 20
2075.0
 30
0.0
 40
440.00000000000006
  1
СЧ-1
  7
ГОСТ
 72
1
 11
71000.0
 21
2075.0
 31
0.0
100
AcDbText
 73
2
  0
LWPOLYLINE
  5
BE
330
17
100
AcDbEntity
  8
04_ЦИСТЕРНЫ
100
AcDbPolyline
 90
10
 70
1
 10
70000.0
 20
0.0
 10
70500.0
 20
0.0
 10
71000.0
 20
0.0
 10
71500.0
 20
0.0
 10
72000.0
 20
0.0
 10
72000.0
 20
-4150.0
 10
71500.0
 20
-4150.0
 10
71000.0
 20
-4150.0
 10
70500.0
 20
-4150.0
 10
70000.0
 20
-4150.0
  0
TEXT
  5
BF
330
17
100
AcDbEntity
  8
04_ЦИСТЕРНЫ
100
AcDbText
 10
71000.0
 20
-2075.0
 30
0.0
 40
440.00000000000006
  1
СЧ-1
  7
ГОСТ
 72
1
 11
71000.0
 21
-2075.0
 31
0.0
100
AcDbText
 73
2
  0
LWPOLYLINE
  5
C0
330
17
100
AcDbEntity
  8
04_ЦИСТЕРНЫ
100
AcDbPolyline
 90
10
 70
1
 10
76000.0
 20
0.0
 10
76500.0
 20
0.0
 10
77000.0
 20
0.0
 10
77500.0
 20
0.0
 10
78000.0
 20
0.0
 10
78000.0
 20
4150.0
 10
77500.0
 20
4150.0
 10
77000.0
 20
4150.0
 10
76500.0
 20
4150.0
 10
76000.0
 20
4150.0
  0
TEXT
  5
C1
330
17
100
AcDbEntity
  8
04_ЦИСТЕРНЫ
100
AcDbText
 10
77000.0
 20
2075.0
 30
0.0
 40
440.00000000000006
  1
СС-1
  7
ГОСТ
 72
1
 11
77000.0
 21
2075.0
 31
0.0
100
AcDbText
 73
2
  0
LWPOLYLINE
  5
C2
330
17
100
AcDbEntity
  8
04_ЦИСТЕРНЫ
100
AcDbPolyline
 90
10
 70
1
 10
76000.0
 20
0.0
 10
76500.0
 20
0.0
 10
77000.0
 20
0.0
 10
77500.0
 20
0.0
 10
78000.0
 20
0.0
 10
78000.0
 20
-4150.0
 10
77500.0
 20
-4150.0
 10
77000.0
 20
-4150.0
 10
76500.0
 20
-4150.0
 10
76000.0
 20
-4150.0
  0
TEXT
  5
C3
330
17
100
AcDbEntity
  8
04_ЦИСТЕРНЫ
100
AcDbText
 10
77000.0
 20
-2075.0
 30
0.0
 40
440.00000000000006
  1
СС-1
  7
ГОСТ
 72
1
 11
77000.0
 21
-2075.0
 31
0.0
100
AcDbText
 73
2
  0
LWPOLYLINE
  5
C4
330
17
100
AcDbEntity
  8
04_ЦИСТЕРНЫ
100
AcDbPolyline
 90
10
 70
1
 10
72000.0
 20
0.0
 10
72500.0
 20
0.0
 10
73000.0
 20
0.0
 10
73500.0
 20
0.0
 10
74000.0
 20
0.0
 10
74000.0
 20
4150.0
 10
73500.0
 20
4150.0
 10
73000.0
 20
4150.0
 10
72500.0
 20
4150.0
 10
72000.0
 20
4150.0
  0
TEXT
  5
C5
330
17
100
AcDbEntity
  8
04_ЦИСТЕРНЫ
100
AcDbText
 10
73000.0
 20
2075.0
 30
0.0
 40
440.00000000000006
  1
ОЧ-1
  7
ГОСТ
 72
1
 11
73000.0
 21
2075.0
 31
0.0
100
AcDbText
 73
2
  0
LWPOLYLINE
  5
C6
330
17
100
AcDbEntity
  8
04_ЦИСТЕРНЫ
100
AcDbPolyline
 90
10
 70
1
 10
72000.0
 20
0.0
 10
72500.0
 20
0.0
 10
73000.0
 20
0.0
 10
73500.0
 20
0.0
 10
74000.0
 20
0.0
 10
74000.0
 20
-4150.0
 10
73500.0
 20
-4150.0
 10
73000.0
 20
-4150.0
 10
72500.0
 20
-4150.0
 10
72000.0
 20
-4150.0
  0
TEXT
  5
C7
330
17
100
AcDbEntity
  8
04_ЦИСТЕРНЫ
100
AcDbText
 10
73000.0
 20
-2075.0
 30
0.0
 40
440.00000000000006
  1
ОЧ-1
  7
ГОСТ
 72
1
 11
73000.0
 21
-2075.0
 31
0.0
100
AcDbText
 73
2
  0
LWPOLYLINE
  5
C8
330
17
100
AcDbEntity
  8
04_ЦИСТЕРНЫ
100
AcDbPolyline
 90
14
 70
1
 10
78000.0
 20
0.0
 10
78500.0
 20
0.0
 10
79000.0
 20
0.0
 10
79500.0
 20
0.0
 10
80000.0
 20
0.0
 10
80500.0
 20
0.0
 10
81000.0
 20
0.0
 10
81000.0
 20
4150.0
 10
80500.0
 20
4150.0
 10
80000.0
 20
4150.0
 10
79500.0
 20
4150.0
 10
79000.0
 20
4150.0
 10
78500.0
 20
4150.0
 10
78000.0
 20
4150.0
  0
TEXT
  5
C9
330
17
100
AcDbEntity
  8
04_ЦИСТЕРНЫ
100
AcDbText
 10
79500.0
 20
2315.0
 30
0.0
 40
600.0
  1
ОС-1
  7
ГОСТ
 72
1
 11
79500.0
 21
2315.0
 31
0.0
100
AcDbText
 73
2
  0
TEXT
  5
CA
330
17
100
AcDbEntity
  8
04_ЦИСТЕРНЫ
100
AcDbText
 10
79500.0
 20
1515.0
 30
0.0
 40
500.0
  1
15 м3
  7
ГОСТ
 72
1
 11
79500.0
 21
1515.0
 31
0.0
100
AcDbText
 73
2
  0
LWPOLYLINE
  5
CB
330
17
100
AcDbEntity
  8
04_ЦИСТЕРНЫ
100
AcDbPolyline
 90
14
 70
1
 10
78000.0
 20
0.0
 10
78500.0
 20
0.0
 10
79000.0
 20
0.0
 10
79500.0
 20
0.0
 10
80000.0
 20
0.0
 10
80500.0
 20
0.0
 10
81000.0
 20
0.0
 10
81000.0
 20
-4150.0
 10
80500.0
 20
-4150.0
 10
80000.0
 20
-4150.0
 10
79500.0
 20
-4150.0
 10
79000.0
 20
-4150.0
 10
78500.0
 20
-4150.0
 10
78000.0
 20
-4150.0
  0
TEXT
  5
CC
330
17
100
AcDbEntity
  8
04_ЦИСТЕРНЫ
100
AcDbText
 10
79500.0
 20
-1835.0
 30
0.0
 40
600.0
  1
ОС-1
  7
ГОСТ
 72
1
 11
79500.0
 21
-1835.0
 31
0.0
100
AcDbText
 73
2
  0
TEXT
  5
CD
330
17
100
AcDbEntity
  8
04_ЦИСТЕРНЫ
100
AcDbText
 10
79500.0
 20
-2635.0
 30
0.0
 40
500.0
  1
15 м3
  7
ГОСТ
 72
1
 11
79500.0
 21
-2635.0
 31
0.0
100
AcDbText
 73
2
  0
LWPOLYLINE
  5
CE
330
17
100
AcDbEntity
  8
04_ЦИСТЕРНЫ
100
AcDbPolyline
 90
18
 70
1
 10
30000.0
 20
0.0
 10
30500.0
 20
0.0
 10
31000.0
 20
0.0
 10
31500.0
 20
0.0
 10
32000.0
 20
0.0
 10
32500.0
 20
0.0
 10
33000.0
 20
0.0
 10
33500.0
 20
0.0
 10
34000.0
 20
0.0
 10
34000.0
 20
4150.0
 10
33500.0
 20
4150.0
 10
33000.0
 20
4150.0
 10
32500.0
 20
4150.0
 10
32000.0
 20
4150.0
 10
31500.0
 20
4150.0
 10
31000.0
 20
4150.0
 10
30500.0
 20
4150.0
 10
30000.0
 20
4150.0
  0
TEXT
  5
CF
330
17
100
AcDbEntity
  8
04_ЦИСТЕРНЫ
100
AcDbText
 10
32000.0
 20
2315.0
 30
0.0
 40
600.0
  1
ЛВ-1
  7
ГОСТ
 72
1
 11
32000.0
 21
2315.0
 31
0.0
100
AcDbText
 73
2
  0
TEXT
  5
D0
330
17
100
AcDbEntity
  8
04_ЦИСТЕРНЫ
100
AcDbText
 10
32000.0
 20
1515.0
 30
0.0
 40
500.0
  1
5 м3
  7
ГОСТ
 72
1
 11
32000.0
 21
1515.0
 31
0.0
100
AcDbText
 73
2
  0
LWPOLYLINE
  5
D1
330
17
100
AcDbEntity
  8
04_ЦИСТЕРНЫ
100
AcDbPolyline
 90
18
 70
1
 10
30000.0
 20
0.0
 10
30500.0
 20
0.0
 10
31000.0
 20
0.0
 10
31500.0
 20
0.0
 10
32000.0
 20
0.0
 10
32500.0
 20
0.0
 10
33000.0
 20
0.0
 10
33500.0
 20
0.0
 10
34000.0
 20
0.0
 10
34000.0
 20
-4150.0
 10
33500.0
 20
-4150.0
 10
33000.0
 20
-4150.0
 10
32500.0
 20
-4150.0
 10
32000.0
 20
-4150.0
 10
31500.0
 20
-4150.0
 10
31000.0
 20
-4150.0
 10
30500.0
 20
-4150.0
 10
30000.0
 20
-4150.0
  0
TEXT
  5
D2
330
17
100
AcDbEntity
  8
04_ЦИСТЕРНЫ
100
AcDbText
 10
32000.0
 20
-1835.0
 30
0.0
 40
600.0
  1
ЛВ-1
  7
ГОСТ
 72
1
 11
32000.0
 21
-1835.0
 31
0.0
100
AcDbText
 73
2
  0
TEXT
  5
D3
330
17
100
AcDbEntity
  8
04_ЦИСТЕРНЫ
100
AcDbText
 10
32000.0
 20
-2635.0
 30
0.0
 40
500.0
  1
5 м3
  7
ГОСТ
 72
1
 11
32000.0
 21
-2635.0
 31
0.0
100
AcDbText
 73
2
  0
LWPOLYLINE
  5
D4
330
17
100
AcDbEntity
  8
04_ЦИСТЕРНЫ
100
AcDbPolyline
 90
26
 70
1
 10
86000.0
 20
0.0
 10
86500.0
 20
0.0
 10
87000.0
 20
0.0
 10
87500.0
 20
0.0
 10
88000.0
 20
0.0
 10
88500.0
 20
0.0
 10
89000.0
 20
0.0
 10
89500.0
 20
0.0
 10
90000.0
 20
0.0
 10
90500.0
 20
0.0
 10
91000.0
 20
0.0
 10
91500.0
 20
0.0
 10
92000.0
 20
0.0
 10
92000.0
 20
4150.0
 10
91500.0
 20
4150.0
 10
91000.0
 20
4150.0
 10
90500.0
 20
4150.0
 10
90000.0
 20
4150.0
 10
89500.0
 20
4150.0
 10
89000.0
 20
4150.0
 10
88500.0
 20
4150.0
 10
88000.0
 20
4150.0
 10
87500.0
 20
4150.0
 10
87000.0
 20
4150.0
 10
86500.0
 20
4150.0
 10
86000.0
 20
4150.0
  0
TEXT
  5
D5
330
17
100
AcDbEntity
  8
04_ЦИСТЕРНЫ
100
AcDbText
 10
89000.0
 20
2315.0
 30
0.0
 40
600.0
  1
АС-1
  7
ГОСТ
 72
1
 11
89000.0
 21
2315.0
 31
0.0
100
AcDbText
 73
2
  0
TEXT
  5
D6
330
17
100
AcDbEntity
  8
04_ЦИСТЕРНЫ
100
AcDbText
 10
89000.0
 20
1515.0
 30
0.0
 40
500.0
  1
15 м3
  7
ГОСТ
 72
1
 11
89000.0
 21
1515.0
 31
0.0
100
AcDbText
 73
2
  0
LWPOLYLINE
  5
D7
330
17
100
AcDbEntity
  8
04_ЦИСТЕРНЫ
100
AcDbPolyline
 90
26
 70
1
 10
86000.0
 20
0.0
 10
86500.0
 20
0.0
 10
87000.0
 20
0.0
 10
87500.0
 20
0.0
 10
88000.0
 20
0.0
 10
88500.0
 20
0.0
 10
89000.0
 20
0.0
 10
89500.0
 20
0.0
 10
90000.0
 20
0.0
 10
90500.0
 20
0.0
 10
91000.0
 20
0.0
 10
91500.0
 20
0.0
 10
92000.0
 20
0.0
 10
92000.0
 20
-4150.0
 10
91500.0
 20
-4150.0
 10
91000.0
 20
-4150.0
 10
90500.0
 20
-4150.0
 10
90000.0
 20
-4150.0
 10
89500.0
 20
-4150.0
 10
89000.0
 20
-4150.0
 10
88500.0
 20
-4150.0
 10
88000.0
 20
-4150.0
 10
87500.0
 20
-4150.0
 10
87000.0
 20
-4150.0
 10
86500.0
 20
-4150.0
 10
86000.0
 20
-4150.0
  0
TEXT
  5
D8
330
17
100
AcDbEntity
  8
04_ЦИСТЕРНЫ
100
AcDbText
 10
89000.0
 20
-1835.0
 30
0.0
 40
600.0
  1
АС-1
  7
ГОСТ
 72
1
 11
89000.0
 21
-1835.0
 31
0.0
100
AcDbText
 73
2
  0
TEXT
  5
D9
330
17
100
AcDbEntity
  8
04_ЦИСТЕРНЫ
100
AcDbText
 10
89000.0
 20
-2635.0
 30
0.0
 40
500.0
  1
15 м3
  7
ГОСТ
 72
1
 11
89000.0
 21
-2635.0
 31
0.0
100
AcDbText
 73
2
  0
LWPOLYLINE
  5
DA
330
17
100
AcDbEntity
  8
04_ЦИСТЕРНЫ
100
AcDbPolyline
 90
32
 70
1
 10
2000.0
 20
0.0
 10
2500.0
 20
0.0
 10
3000.0
 20
0.0
 10
3500.0
 20
0.0
 10
4000.0
 20
0.0
 10
4500.0
 20
0.0
 10
5000.0
 20
0.0
 10
5500.0
 20
0.0
 10
6000.0
 20
0.0
 10
6500.0
 20
0.0
 10
7000.0
 20
0.0
 10
7500.0
 20
0.0
 10
8000.0
 20
0.0
 10
8500.0
 20
0.0
 10
9000.0
 20
0.0
 10
9500.0
 20
0.0
 10
9500.0
 20
4150.0
 10
9000.0
 20
4150.0
 10
8500.0
 20
4150.0
 10
8000.0
 20
4150.0
 10
7500.0
 20
4150.0
 10
7000.0
 20
4150.0
 10
6500.0
 20
4150.0
 10
6000.0
 20
4150.0
 10
5500.0
 20
4150.0
 10
5000.0
 20
4150.0
 10
4500.0
 20
4150.0
 10
4000.0
 20
4150.0
 10
3500.0
 20
4150.0
 10
3000.0
 20
4150.0
 10
2500.0
 20
4150.0
 10
2000.0
 20
4150.0
  0
TEXT
  5
DB
330
17
100
AcDbEntity
  8
04_ЦИСТЕРНЫ
100
AcDbText
 10
5750.0
 20
2315.0
 30
0.0
 40
600.0
  1
БЛ-1
  7
ГОСТ
 72
1
 11
5750.0
 21
2315.0
 31
0.0
100
AcDbText
 73
2
  0
TEXT
  5
DC
330
17
100
AcDbEntity
  8
04_ЦИСТЕРНЫ
100
AcDbText
 10
5750.0
 20
1515.0
 30
0.0
 40
500.0
  1
51 м3
  7
ГОСТ
 72
1
 11
5750.0
 21
1515.0
 31
0.0
100
AcDbText
 73
2
  0
LWPOLYLINE
  5
DD
330
17
100
AcDbEntity
  8
04_ЦИСТЕРНЫ
100
AcDbPolyline
 90
32
 70
1
 10
2000.0
 20
0.0
 10
2500.0
 20
0.0
 10
3000.0
 20
0.0
 10
3500.0
 20
0.0
 10
4000.0
 20
0.0
 10
4500.0
 20
0.0
 10
5000.0
 20
0.0
 10
5500.0
 20
0.0
 10
6000.0
 20
0.0
 10
6500.0
 20
0.0
 10
7000.0
 20
0.0
 10
7500.0
 20
0.0
 10
8000.0
 20
0.0
 10
8500.0
 20
0.0
 10
9000.0
 20
0.0
 10
9500.0
 20
0.0
 10
9500.0
 20
-4150.0
 10
9000.0
 20
-4150.0
 10
8500.0
 20
-4150.0
 10
8000.0
 20
-4150.0
 10
7500.0
 20
-4150.0
 10
7000.0
 20
-4150.0
 10
6500.0
 20
-4150.0
 10
6000.0
 20
-4150.0
 10
5500.0
 20
-4150.0
 10
5000.0
 20
-4150.0
 10
4500.0
 20
-4150.0
 10
4000.0
 20
-4150.0
 10
3500.0
 20
-4150.0
 10
3000.0
 20
-4150.0
 10
2500.0
 20
-4150.0
 10
2000.0
 20
-4150.0
  0
TEXT
  5
DE
330
17
100
AcDbEntity
  8
04_ЦИСТЕРНЫ
100
AcDbText
 10
5750.0
 20
-1835.0
 30
0.0
 40
600.0
  1
БЛ-1
  7
ГОСТ
 72
1
 11
5750.0
 21
-1835.0
 31
0.0
100
AcDbText
 73
2
  0
TEXT
  5
DF
330
17
100
AcDbEntity
  8
04_ЦИСТЕРНЫ
100
AcDbText
 10
5750.0
 20
-2635.0
 30
0.0
 40
500.0
  1
51 м3
  7
ГОСТ
 72
1
 11
5750.0
 21
-2635.0
 31
0.0
100
AcDbText
 73
2
  0
LWPOLYLINE
  5
E0
330
17
100
AcDbEntity
  8
04_ЦИСТЕРНЫ
100
AcDbPolyline
 90
50
 70
1
 10
34000.0
 20
4150.0
 10
34500.0
 20
4150.0
 10
35000.0
 20
4150.0
 10
35500.0
 20
4150.0
 10
36000.0
 20
4150.0
 10
36500.0
 20
4150.0
 10
37000.0
 20
4150.0
 10
37500.0
 20
4150.0
 10
38000.0
 20
4150.0
 10
38500.0
 20
4150.0
 10
39000.0
 20
4150.0
 10
39500.0
 20
4150.0
 10
40000.0
 20
4150.0
 10
40500.0
 20
4150.0
 10
41000.0
 20
4150.0
 10
41500.0
 20
4150.0
 10
42000.0
 20
4150.0
 10
42500.0
 20
4150.0
 10
43000.0
 20
4150.0
 10
43500.0
 20
4150.0
 10
44000.0
 20
4150.0
 10
44500.0
 20
4150.0
 10
45000.0
 20
4150.0
 10
45500.0
 20
4150.0
 10
46000.0
 20
4150.0
 10
46000.0
 20
8200.0
 10
45500.0
 20
8200.0
 10
45000.0
 20
8200.0
 10
44500.0
 20
8200.0
 10
44000.0
 20
8200.0
 10
43500.0
 20
8200.0
 10
43000.0
 20
8200.0
 10
42500.0
 20
8200.0
 10
42000.0
 20
8200.0
 10
41500.0
 20
8200.0
 10
41000.0
 20
8200.0
 10
40500.0
 20
8200.0
 10
40000.0
 20
8200.0
 10
39500.0
 20
8200.0
 10
39000.0
 20
8200.0
 10
38500.0
 20
8200.0
 10
38000.0
 20
8200.0
 10
37500.0
 20
8200.0
 10
37000.0
 20
8200.0
 10
36500.0
 20
8200.0
 10
36000.0
 20
8200.0
 10
35500.0
 20
8200.0
 10
35000.0
 20
8200.0
 10
34500.0
 20
8200.0
 10
34000.0
 20
8200.0
  0
TEXT
  5
E1
330
17
100
AcDbEntity
  8
04_ЦИСТЕРНЫ
100
AcDbText
 10
40000.0
 20
6415.0
 30
0.0
 40
600.0
  1
БЛ-1
  7
ГОСТ
 72
1
 11
40000.0
 21
6415.0
 31
0.0
100
AcDbText
 73
2
  0
TEXT
  5
E2
330
17
100
AcDbEntity
  8
04_ЦИСТЕРНЫ
100
AcDbText
 10
40000.0
 20
5615.0
 30
0.0
 40
500.0
  1
48 м3
  7
ГОСТ
 72
1
 11
40000.0
 21
5615.0
 31
0.0
100
AcDbText
 73
2
  0
LWPOLYLINE
  5
E3
330
17
100
AcDbEntity
  8
04_ЦИСТЕРНЫ
100
AcDbPolyline
 90
50
 70
1
 10
34000.0
 20
-4150.0
 10
34500.0
 20
-4150.0
 10
35000.0
 20
-4150.0
 10
35500.0
 20
-4150.0
 10
36000.0
 20
-4150.0
 10
36500.0
 20
-4150.0
 10
37000.0
 20
-4150.0
 10
37500.0
 20
-4150.0
 10
38000.0
 20
-4150.0
 10
38500.0
 20
-4150.0
 10
39000.0
 20
-4150.0
 10
39500.0
 20
-4150.0
 10
40000.0
 20
-4150.0
 10
40500.0
 20
-4150.0
 10
41000.0
 20
-4150.0
 10
41500.0
 20
-4150.0
 10
42000.0
 20
-4150.0
 10
42500.0
 20
-4150.0
 10
43000.0
 20
-4150.0
 10
43500.0
 20
-4150.0
 10
44000.0
 20
-4150.0
 10
44500.0
 20
-4150.0
 10
45000.0
 20
-4150.0
 10
45500.0
 20
-4150.0
 10
46000.0
 20
-4150.0
 10
46000.0
 20
-8200.0
 10
45500.0
 20
-8200.0
 10
45000.0
 20
-8200.0
 10
44500.0
 20
-8200.0
 10
44000.0
 20
-8200.0
 10
43500.0
 20
-8200.0
 10
43000.0
 20
-8200.0
 10
42500.0
 20
-8200.0
 10
42000.0
 20
-8200.0
 10
41500.0
 20
-8200.0
 10
41000.0
 20
-8200.0
 10
40500.0
 20
-8200.0
 10
40000.0
 20
-8200.0
 10
39500.0
 20
-8200.0
 10
39000.0
 20
-8200.0
 10
38500.0
 20
-8200.0
 10
38000.0
 20
-8200.0
 10
37500.0
 20
-8200.0
 10
37000.0
 20
-8200.0
 10
36500.0
 20
-8200.0
 10
36000.0
 20
-8200.0
 10
35500.0
 20
-8200.0
 10
35000.0
 20
-8200.0
 10
34500.0
 20
-8200.0
 10
34000.0
 20
-8200.0
  0
TEXT
  5
E4
330
17
100
AcDbEntity
  8
04_ЦИСТЕРНЫ
100
AcDbText
 10
40000.0
 20
-5935.0
 30
0.0
 40
600.0
  1
БЛ-1
  7
ГОСТ
 72
1
 11
40000.0
 21
-5935.0
 31
0.0
100
AcDbText
 73
2
  0
TEXT
  5
E5
330
17
100
AcDbEntity
  8
04_ЦИСТЕРНЫ
100
AcDbText
 10
40000.0
 20
-6735.0
 30
0.0
 40
500.0
  1
48 м3
  7
ГОСТ
 72
1
 11
40000.0
 21
-6735.0
 31
0.0
100
AcDbText
 73
2
  0
LWPOLYLINE
  5
E6
330
17
100
AcDbEntity
  8
04_ЦИСТЕРНЫ
100
AcDbPolyline
 90
66
 70
1
 10
100000.0
 20
4150.0
 10
100500.0
 20
4150.0
 10
101000.0
 20
4150.0
 10
101500.0
 20
4150.0
 10
102000.0
 20
4150.0
 10
102500.0
 20
4150.0
 10
103000.0
 20
4150.0
 10
103500.0
 20
4150.0
 10
104000.0
 20
4150.0
 10
104500.0
 20
4150.0
 10
105000.0
 20
4150.0
 10
105500.0
 20
4150.0
 10
106000.0
 20
4150.0
 10
106500.0
 20
4150.0
 10
107000.0
 20
4150.0
 10
107500.0
 20
4150.0
 10
108000.0
 20
4150.0
 10
108500.0
 20
4150.0
 10
109000.0
 20
4150.0
 10
109500.0
 20
4150.0
 10
110000.0
 20
4150.0
 10
110500.0
 20
4150.0
 10
111000.0
 20
4150.0
 10
111500.0
 20
4150.0
 10
112000.0
 20
4150.0
 10
112500.0
 20
4150.0
 10
113000.0
 20
4150.0
 10
113500.0
 20
4150.0
 10
114000.0
 20
4150.0
 10
114500.0
 20
4150.0
 10
115000.0
 20
4150.0
 10
115500.0
 20
4150.0
 10
116000.0
 20
4150.0
 10
116000.0
 20
5426.1567164179105
 10
115500.0
 20
5599.266581632653
 10
115000.0
 20
5769.702490774908
 10
114500.0
 20
5937.508600917432
 10
114000.0
 20
6102.728102189781
 10
113500.0
 20
6265.403244101633
 10
113000.0
 20
6425.57536101083
 10
112500.0
 20
6583.284896768402
 10
112000.0
 20
6738.571428571428
 10
111500.0
 20
6802.001180637545
 10
111000.0
 20
6864.887839433295
 10
110500.0
 20
6927.2314049586785
 10
110000.0
 20
6989.031877213695
 10
109500.0
 20
7050.289256198347
 10
109000.0
 20
7111.003541912633
 10
108500.0
 20
7171.174734356552
 10
108000.0
 20
7230.802833530106
 10
107500.0
 20
7289.887839433294
 10
107000.0
 20
7348.429752066117
 10
106500.0
 20
7406.428571428572
 10
106000.0
 20
7463.884297520661
 10
105500.0
 20
7520.796930342385
 10
105000.0
 20
7577.166469893743
 10
104500.0
 20
7632.992916174734
 10
104000.0
 20
7688.2762691853595
 10
103500.0
 20
7743.01652892562
 10
103000.0
 20
7797.213695395514
 10
102500.0
 20
7850.8677685950415
 10
102000.0
 20
7903.978748524203
 10
101500.0
 20
7956.546635183
 10
101000.0
 20
8008.5714285714275
 10
100500.0
 20
8020.316442254597
 10
100000.0
 20
8031.971313924698
  0
TEXT
  5
E7
330
17
100
AcDbEntity
  8
04_ЦИСТЕРНЫ
100
AcDbText
 10
108000.0
 20
5864.014631788557
 30
0.0
 40
600.0
  1
БЛ-1
  7
ГОСТ
 72
1
 11
108000.0
 21
5864.014631788557
 31
0.0
100
AcDbText
 73
2
  0
TEXT
  5
E8
330
17
100
AcDbEntity
  8
04_ЦИСТЕРНЫ
100
AcDbText
 10
108000.0
 20
5064.014631788557
 30
0.0
 40
500.0
  1
46 м3
  7
ГОСТ
 72
1
 11
108000.0
 21
5064.014631788557
 31
0.0
100
AcDbText
 73
2
  0
LWPOLYLINE
  5
E9
330
17
100
AcDbEntity
  8
04_ЦИСТЕРНЫ
100
AcDbPolyline
 90
66
 70
1
 10
100000.0
 20
-4150.0
 10
100500.0
 20
-4150.0
 10
101000.0
 20
-4150.0
 10
101500.0
 20
-4150.0
 10
102000.0
 20
-4150.0
 10
102500.0
 20
-4150.0
 10
103000.0
 20
-4150.0
 10
103500.0
 20
-4150.0
 10
104000.0
 20
-4150.0
 10
104500.0
 20
-4150.0
 10
105000.0
 20
-4150.0
 10
105500.0
 20
-4150.0
 10
106000.0
 20
-4150.0
 10
106500.0
 20
-4150.0
 10
107000.0
 20
-4150.0
 10
107500.0
 20
-4150.0
 10
108000.0
 20
-4150.0
 10
108500.0
 20
-4150.0
 10
109000.0
 20
-4150.0
 10
109500.0
 20
-4150.0
 10
110000.0
 20
-4150.0
 10
110500.0
 20
-4150.0
 10
111000.0
 20
-4150.0
 10
111500.0
 20
-4150.0
 10
112000.0
 20
-4150.0
 10
112500.0
 20
-4150.0
 10
113000.0
 20
-4150.0
 10
113500.0
 20
-4150.0
 10
114000.0
 20
-4150.0
 10
114500.0
 20
-4150.0
 10
115000.0
 20
-4150.0
 10
115500.0
 20
-4150.0
 10
116000.0
 20
-4150.0
 10
116000.0
 20
-5426.1567164179105
 10
115500.0
 20
-5599.266581632653
 10
115000.0
 20
-5769.702490774908
 10
114500.0
 20
-5937.508600917432
 10
114000.0
 20
-6102.728102189781
 10
113500.0
 20
-6265.403244101633
 10
113000.0
 20
-6425.57536101083
 10
112500.0
 20
-6583.284896768402
 10
112000.0
 20
-6738.571428571428
 10
111500.0
 20
-6802.001180637545
 10
111000.0
 20
-6864.887839433295
 10
110500.0
 20
-6927.2314049586785
 10
110000.0
 20
-6989.031877213695
 10
109500.0
 20
-7050.289256198347
 10
109000.0
 20
-7111.003541912633
 10
108500.0
 20
-7171.174734356552
 10
108000.0
 20
-7230.802833530106
 10
107500.0
 20
-7289.887839433294
 10
107000.0
 20
-7348.429752066117
 10
106500.0
 20
-7406.428571428572
 10
106000.0
 20
-7463.884297520661
 10
105500.0
 20
-7520.796930342385
 10
105000.0
 20
-7577.166469893743
 10
104500.0
 20
-7632.992916174734
 10
104000.0
 20
-7688.2762691853595
 10
103500.0
 20
-7743.01652892562
 10
103000.0
 20
-7797.213695395514
 10
102500.0
 20
-7850.8677685950415
 10
102000.0
 20
-7903.978748524203
 10
101500.0
 20
-7956.546635183
 10
101000.0
 20
-8008.5714285714275
 10
100500.0
 20
-8020.316442254597
 10
100000.0
 20
-8031.971313924698
  0
TEXT
  5
EA
330
17
100
AcDbEntity
  8
04_ЦИСТЕРНЫ
100
AcDbText
 10
108000.0
 20
-5384.014631788557
 30
0.0
 40
600.0
  1
БЛ-1
  7
ГОСТ
 72
1
 11
108000.0
 21
-5384.014631788557
 31
0.0
100
AcDbText
 73
2
  0
TEXT
  5
EB
330
17
100
AcDbEntity
  8
04_ЦИСТЕРНЫ
100
AcDbText
 10
108000.0
 20
-6184.014631788557
 30
0.0
 40
500.0
  1
46 м3
  7
ГОСТ
 72
1
 11
108000.0
 21
-6184.014631788557
 31
0.0
100
AcDbText
 73
2
  0
LWPOLYLINE
  5
EC
330
17
100
AcDbEntity
  8
04_ЦИСТЕРНЫ
100
AcDbPolyline
 90
38
 70
1
 10
127000.0
 20
0.0
 10
127500.0
 20
0.0
 10
128000.0
 20
0.0
 10
128500.0
 20
0.0
 10
129000.0
 20
0.0
 10
129500.0
 20
0.0
 10
130000.0
 20
0.0
 10
130500.0
 20
0.0
 10
131000.0
 20
0.0
 10
131500.0
 20
0.0
 10
132000.0
 20
0.0
 10
132500.0
 20
0.0
 10
133000.0
 20
0.0
 10
133500.0
 20
0.0
 10
134000.0
 20
0.0
 10
134500.0
 20
0.0
 10
135000.0
 20
0.0
 10
135500.0
 20
0.0
 10
136000.0
 20
0.0
 10
136000.0
 20
507.32922998826945
 10
135500.0
 20
921.1535804743343
 10
135000.0
 20
1347.8987349098963
 10
134500.0
 20
1544.0134510979685
 10
134000.0
 20
1742.3272954358597
 10
133500.0
 20
1942.687473801792
 10
133000.0
 20
2144.9550264005343
 10
132500.0
 20
2349.0032966811627
 10
132000.0
 20
2554.7165991902834
 10
131500.0
 20
2805.3749999999995
 10
131000.0
 20
3054.8935003915426
 10
130500.0
 20
3303.327426810478
 10
130000.0
 20
3550.728582259287
 10
129500.0
 20
3797.1455223880594
 10
129000.0
 20
4042.6238060249816
 10
128500.0
 20
4150.0
 10
128000.0
 20
4150.0
 10
127500.0
 20
4150.0
 10
127000.0
 20
4150.0
  0
TEXT
  5
ED
330
17
100
AcDbEntity
  8
04_ЦИСТЕРНЫ
100
AcDbText
 10
131500.0
 20
1613.8994348909066
 30
0.0
 40
600.0
  1
БЛ-1
  7
ГОСТ
 72
1
 11
131500.0
 21
1613.8994348909066
 31
0.0
100
AcDbText
 73
2
  0
TEXT
  5
EE
330
17
100
AcDbEntity
  8
04_ЦИСТЕРНЫ
100
AcDbText
 10
131500.0
 20
813.8994348909066
 30
0.0
 40
500.0
  1
55 м3
  7
ГОСТ
 72
1
 11
131500.0
 21
813.8994348909066
 31
0.0
100
AcDbText
 73
2
  0
LWPOLYLINE
  5
EF
330
17
100
AcDbEntity
  8
04_ЦИСТЕРНЫ
100
AcDbPolyline
 90
38
 70
1
 10
127000.0
 20
0.0
 10
127500.0
 20
0.0
 10
128000.0
 20
0.0
 10
128500.0
 20
0.0
 10
129000.0
 20
0.0
 10
129500.0
 20
0.0
 10
130000.0
 20
0.0
 10
130500.0
 20
0.0
 10
131000.0
 20
0.0
 10
131500.0
 20
0.0
 10
132000.0
 20
0.0
 10
132500.0
 20
0.0
 10
133000.0
 20
0.0
 10
133500.0
 20
0.0
 10
134000.0
 20
0.0
 10
134500.0
 20
0.0
 10
135000.0
 20
0.0
 10
135500.0
 20
0.0
 10
136000.0
 20
0.0
 10
136000.0
 20
-507.32922998826945
 10
135500.0
 20
-921.1535804743343
 10
135000.0
 20
-1347.8987349098963
 10
134500.0
 20
-1544.0134510979685
 10
134000.0
 20
-1742.3272954358597
 10
133500.0
 20
-1942.687473801792
 10
133000.0
 20
-2144.9550264005343
 10
132500.0
 20
-2349.0032966811627
 10
132000.0
 20
-2554.7165991902834
 10
131500.0
 20
-2805.3749999999995
 10
131000.0
 20
-3054.8935003915426
 10
130500.0
 20
-3303.327426810478
 10
130000.0
 20
-3550.728582259287
 10
129500.0
 20
-3797.1455223880594
 10
129000.0
 20
-4042.6238060249816
 10
128500.0
 20
-4150.0
 10
128000.0
 20
-4150.0
 10
127500.0
 20
-4150.0
 10
127000.0
 20
-4150.0
  0
TEXT
  5
F0
330
17
100
AcDbEntity
  8
04_ЦИСТЕРНЫ
100
AcDbText
 10
131500.0
 20
-1133.8994348909066
 30
0.0
 40
600.0
  1
БЛ-1
  7
ГОСТ
 72
1
 11
131500.0
 21
-1133.8994348909066
 31
0.0
100
AcDbText
 73
2
  0
TEXT
  5
F1
330
17
100
AcDbEntity
  8
04_ЦИСТЕРНЫ
100
AcDbText
 10
131500.0
 20
-1933.8994348909066
 30
0.0
 40
500.0
  1
55 м3
  7
ГОСТ
 72
1
 11
131500.0
 21
-1933.8994348909066
 31
0.0
100
AcDbText
 73
2
  0
LWPOLYLINE
  5
F2
330
17
100
AcDbEntity
  8
05_ОБОРУДОВАНИЕ
100
AcDbPolyline
 90
4
 70
1
 10
12000.0
 20
-6846.954314720812
 10
34000.0
 20
-6846.954314720812
 10
34000.0
 20
6846.954314720812
 10
12000.0
 20
6846.954314720812
  0
TEXT
  5
F3
330
17
100
AcDbEntity
  8
05_ОБОРУДОВАНИЕ
100
AcDbText
 10
23000.0
 20
10200.0
 30
0.0
 40
640.0
  1
Машинное отделение 12,0…34,0 м · второе дно опущено до 0,465 м
  7
ГОСТ
 72
1
 11
23000.0
 21
10200.0
 31
0.0
100
AcDbText
 73
2
  0
LINE
  5
F4
330
17
100
AcDbEntity
  8
03_ПЕРЕБОРКИ
100
AcDbLine
 10
9500.0
 20
-6321.86329588015
 30
0.0
 11
9500.0
 21
6321.86329588015
 31
0.0
  0
TEXT
  5
F5
330
17
100
AcDbEntity
  8
03_ПЕРЕБОРКИ
100
AcDbText
 10
9500.0
 20
11400.0
 30
0.0
 40
560.0
  1
9.5
  7
ГОСТ
 72
1
 11
9500.0
 21
11400.0
 31
0.0
100
AcDbText
 73
2
  0
LINE
  5
F6
330
17
100
AcDbEntity
  8
03_ПЕРЕБОРКИ
100
AcDbLine
 10
12000.0
 20
-6846.954314720812
 30
0.0
 11
12000.0
 21
6846.954314720812
 31
0.0
  0
TEXT
  5
F7
330
17
100
AcDbEntity
  8
03_ПЕРЕБОРКИ
100
AcDbText
 10
12000.0
 20
11400.0
 30
0.0
 40
560.0
  1
12.0
  7
ГОСТ
 72
1
 11
12000.0
 21
11400.0
 31
0.0
100
AcDbText
 73
2
  0
LINE
  5
F8
330
17
100
AcDbEntity
  8
03_ПЕРЕБОРКИ
100
AcDbLine
 10
30000.0
 20
-8229.83606557377
 30
0.0
 11
30000.0
 21
8229.83606557377
 31
0.0
  0
TEXT
  5
F9
330
17
100
AcDbEntity
  8
03_ПЕРЕБОРКИ
100
AcDbText
 10
30000.0
 20
11400.0
 30
0.0
 40
560.0
  1
30.0
  7
ГОСТ
 72
1
 11
30000.0
 21
11400.0
 31
0.0
100
AcDbText
 73
2
  0
LINE
  5
FA
330
17
100
AcDbEntity
  8
03_ПЕРЕБОРКИ
100
AcDbLine
 10
34000.0
 20
-8238.919469928645
 30
0.0
 11
34000.0
 21
8238.919469928645
 31
0.0
  0
TEXT
  5
FB
330
17
100
AcDbEntity
  8
03_ПЕРЕБОРКИ
100
AcDbText
 10
34000.0
 20
11400.0
 30
0.0
 40
560.0
  1
34.0
  7
ГОСТ
 72
1
 11
34000.0
 21
11400.0
 31
0.0
100
AcDbText
 73
2
  0
LINE
  5
FC
330
17
100
AcDbEntity
  8
03_ПЕРЕБОРКИ
100
AcDbLine
 10
60000.0
 20
-8250.0
 30
0.0
 11
60000.0
 21
8250.0
 31
0.0
  0
TEXT
  5
FD
330
17
100
AcDbEntity
  8
03_ПЕРЕБОРКИ
100
AcDbText
 10
60000.0
 20
11400.0
 30
0.0
 40
560.0
  1
60.0
  7
ГОСТ
 72
1
 11
60000.0
 21
11400.0
 31
0.0
100
AcDbText
 73
2
  0
LINE
  5
FE
330
17
100
AcDbEntity
  8
03_ПЕРЕБОРКИ
100
AcDbLine
 10
92000.0
 20
-8147.21165444929
 30
0.0
 11
92000.0
 21
8147.21165444929
 31
0.0
  0
TEXT
  5
FF
330
17
100
AcDbEntity
  8
03_ПЕРЕБОРКИ
100
AcDbText
 10
92000.0
 20
11400.0
 30
0.0
 40
560.0
  1
92.0
  7
ГОСТ
 72
1
 11
92000.0
 21
11400.0
 31
0.0
100
AcDbText
 73
2
  0
LINE
  5
100
330
17
100
AcDbEntity
  8
03_ПЕРЕБОРКИ
100
AcDbLine
 10
116000.0
 20
-5300.410447761194
 30
0.0
 11
116000.0
 21
5300.410447761194
 31
0.0
  0
TEXT
  5
101
330
17
100
AcDbEntity
  8
03_ПЕРЕБОРКИ
100
AcDbText
 10
116000.0
 20
11400.0
 30
0.0
 40
560.0
  1
116.0
  7
ГОСТ
 72
1
 11
116000.0
 21
11400.0
 31
0.0
100
AcDbText
 73
2
  0
LINE
  5
102
330
17
100
AcDbEntity
  8
09_РАЗМЕРЫ
100
AcDbLine
 10
0.0
 20
-8600.0
 30
0.0
 11
0.0
 21
-9200.0
 31
0.0
  0
TEXT
  5
103
330
17
100
AcDbEntity
  8
09_РАЗМЕРЫ
100
AcDbText
 10
0.0
 20
-10000.0
 30
0.0
 40
600.0
  1
0
  7
ГОСТ
 72
1
 11
0.0
 21
-10000.0
 31
0.0
100
AcDbText
 73
2
  0
LINE
  5
104
330
17
100
AcDbEntity
  8
09_РАЗМЕРЫ
100
AcDbLine
 10
2750.0
 20
-8600.0
 30
0.0
 11
2750.0
 21
-8880.0
 31
0.0
  0
LINE
  5
105
330
17
100
AcDbEntity
  8
09_РАЗМЕРЫ
100
AcDbLine
 10
5500.0
 20
-8600.0
 30
0.0
 11
5500.0
 21
-8880.0
 31
0.0
  0
LINE
  5
106
330
17
100
AcDbEntity
  8
09_РАЗМЕРЫ
100
AcDbLine
 10
8250.0
 20
-8600.0
 30
0.0
 11
8250.0
 21
-8880.0
 31
0.0
  0
LINE
  5
107
330
17
100
AcDbEntity
  8
09_РАЗМЕРЫ
100
AcDbLine
 10
11000.0
 20
-8600.0
 30
0.0
 11
11000.0
 21
-9200.0
 31
0.0
  0
TEXT
  5
108
330
17
100
AcDbEntity
  8
09_РАЗМЕРЫ
100
AcDbText
 10
11000.0
 20
-10000.0
 30
0.0
 40
600.0
  1
20
  7
ГОСТ
 72
1
 11
11000.0
 21
-10000.0
 31
0.0
100
AcDbText
 73
2
  0
LINE
  5
109
330
17
100
AcDbEntity
  8
09_РАЗМЕРЫ
100
AcDbLine
 10
13750.000000000002
 20
-8600.0
 30
0.0
 11
13750.000000000002
 21
-8880.0
 31
0.0
  0
LINE
  5
10A
330
17
100
AcDbEntity
  8
09_РАЗМЕРЫ
100
AcDbLine
 10
16500.0
 20
-8600.0
 30
0.0
 11
16500.0
 21
-8880.0
 31
0.0
  0
LINE
  5
10B
330
17
100
AcDbEntity
  8
09_РАЗМЕРЫ
100
AcDbLine
 10
19250.0
 20
-8600.0
 30
0.0
 11
19250.0
 21
-8880.0
 31
0.0
  0
LINE
  5
10C
330
17
100
AcDbEntity
  8
09_РАЗМЕРЫ
100
AcDbLine
 10
22000.0
 20
-8600.0
 30
0.0
 11
22000.0
 21
-9200.0
 31
0.0
  0
TEXT
  5
10D
330
17
100
AcDbEntity
  8
09_РАЗМЕРЫ
100
AcDbText
 10
22000.0
 20
-10000.0
 30
0.0
 40
600.0
  1
40
  7
ГОСТ
 72
1
 11
22000.0
 21
-10000.0
 31
0.0
100
AcDbText
 73
2
  0
LINE
  5
10E
330
17
100
AcDbEntity
  8
09_РАЗМЕРЫ
100
AcDbLine
 10
24750.000000000004
 20
-8600.0
 30
0.0
 11
24750.000000000004
 21
-8880.0
 31
0.0
  0
LINE
  5
10F
330
17
100
AcDbEntity
  8
09_РАЗМЕРЫ
100
AcDbLine
 10
27500.000000000004
 20
-8600.0
 30
0.0
 11
27500.000000000004
 21
-8880.0
 31
0.0
  0
LINE
  5
110
330
17
100
AcDbEntity
  8
09_РАЗМЕРЫ
100
AcDbLine
 10
30250.000000000004
 20
-8600.0
 30
0.0
 11
30250.000000000004
 21
-8880.0
 31
0.0
  0
LINE
  5
111
330
17
100
AcDbEntity
  8
09_РАЗМЕРЫ
100
AcDbLine
 10
33000.0
 20
-8600.0
 30
0.0
 11
33000.0
 21
-9200.0
 31
0.0
  0
TEXT
  5
112
330
17
100
AcDbEntity
  8
09_РАЗМЕРЫ
100
AcDbText
 10
33000.0
 20
-10000.0
 30
0.0
 40
600.0
  1
60
  7
ГОСТ
 72
1
 11
33000.0
 21
-10000.0
 31
0.0
100
AcDbText
 73
2
  0
LINE
  5
113
330
17
100
AcDbEntity
  8
09_РАЗМЕРЫ
100
AcDbLine
 10
35750.0
 20
-8600.0
 30
0.0
 11
35750.0
 21
-8880.0
 31
0.0
  0
LINE
  5
114
330
17
100
AcDbEntity
  8
09_РАЗМЕРЫ
100
AcDbLine
 10
38500.0
 20
-8600.0
 30
0.0
 11
38500.0
 21
-8880.0
 31
0.0
  0
LINE
  5
115
330
17
100
AcDbEntity
  8
09_РАЗМЕРЫ
100
AcDbLine
 10
41250.0
 20
-8600.0
 30
0.0
 11
41250.0
 21
-8880.0
 31
0.0
  0
LINE
  5
116
330
17
100
AcDbEntity
  8
09_РАЗМЕРЫ
100
AcDbLine
 10
44000.0
 20
-8600.0
 30
0.0
 11
44000.0
 21
-9200.0
 31
0.0
  0
TEXT
  5
117
330
17
100
AcDbEntity
  8
09_РАЗМЕРЫ
100
AcDbText
 10
44000.0
 20
-10000.0
 30
0.0
 40
600.0
  1
80
  7
ГОСТ
 72
1
 11
44000.0
 21
-10000.0
 31
0.0
100
AcDbText
 73
2
  0
LINE
  5
118
330
17
100
AcDbEntity
  8
09_РАЗМЕРЫ
100
AcDbLine
 10
46750.00000000001
 20
-8600.0
 30
0.0
 11
46750.00000000001
 21
-8880.0
 31
0.0
  0
LINE
  5
119
330
17
100
AcDbEntity
  8
09_РАЗМЕРЫ
100
AcDbLine
 10
49500.00000000001
 20
-8600.0
 30
0.0
 11
49500.00000000001
 21
-8880.0
 31
0.0
  0
LINE
  5
11A
330
17
100
AcDbEntity
  8
09_РАЗМЕРЫ
100
AcDbLine
 10
52250.00000000001
 20
-8600.0
 30
0.0
 11
52250.00000000001
 21
-8880.0
 31
0.0
  0
LINE
  5
11B
330
17
100
AcDbEntity
  8
09_РАЗМЕРЫ
100
AcDbLine
 10
55000.00000000001
 20
-8600.0
 30
0.0
 11
55000.00000000001
 21
-9200.0
 31
0.0
  0
TEXT
  5
11C
330
17
100
AcDbEntity
  8
09_РАЗМЕРЫ
100
AcDbText
 10
55000.00000000001
 20
-10000.0
 30
0.0
 40
600.0
  1
100
  7
ГОСТ
 72
1
 11
55000.00000000001
 21
-10000.0
 31
0.0
100
AcDbText
 73
2
  0
LINE
  5
11D
330
17
100
AcDbEntity
  8
09_РАЗМЕРЫ
100
AcDbLine
 10
57750.00000000001
 20
-8600.0
 30
0.0
 11
57750.00000000001
 21
-8880.0
 31
0.0
  0
LINE
  5
11E
330
17
100
AcDbEntity
  8
09_РАЗМЕРЫ
100
AcDbLine
 10
60500.00000000001
 20
-8600.0
 30
0.0
 11
60500.00000000001
 21
-8880.0
 31
0.0
  0
LINE
  5
11F
330
17
100
AcDbEntity
  8
09_РАЗМЕРЫ
100
AcDbLine
 10
63250.00000000001
 20
-8600.0
 30
0.0
 11
63250.00000000001
 21
-8880.0
 31
0.0
  0
LINE
  5
120
330
17
100
AcDbEntity
  8
09_РАЗМЕРЫ
100
AcDbLine
 10
66000.0
 20
-8600.0
 30
0.0
 11
66000.0
 21
-9200.0
 31
0.0
  0
TEXT
  5
121
330
17
100
AcDbEntity
  8
09_РАЗМЕРЫ
100
AcDbText
 10
66000.0
 20
-10000.0
 30
0.0
 40
600.0
  1
120
  7
ГОСТ
 72
1
 11
66000.0
 21
-10000.0
 31
0.0
100
AcDbText
 73
2
  0
LINE
  5
122
330
17
100
AcDbEntity
  8
09_РАЗМЕРЫ
100
AcDbLine
 10
68750.0
 20
-8600.0
 30
0.0
 11
68750.0
 21
-8880.0
 31
0.0
  0
LINE
  5
123
330
17
100
AcDbEntity
  8
09_РАЗМЕРЫ
100
AcDbLine
 10
71500.0
 20
-8600.0
 30
0.0
 11
71500.0
 21
-8880.0
 31
0.0
  0
LINE
  5
124
330
17
100
AcDbEntity
  8
09_РАЗМЕРЫ
100
AcDbLine
 10
74250.0
 20
-8600.0
 30
0.0
 11
74250.0
 21
-8880.0
 31
0.0
  0
LINE
  5
125
330
17
100
AcDbEntity
  8
09_РАЗМЕРЫ
100
AcDbLine
 10
77000.0
 20
-8600.0
 30
0.0
 11
77000.0
 21
-9200.0
 31
0.0
  0
TEXT
  5
126
330
17
100
AcDbEntity
  8
09_РАЗМЕРЫ
100
AcDbText
 10
77000.0
 20
-10000.0
 30
0.0
 40
600.0
  1
140
  7
ГОСТ
 72
1
 11
77000.0
 21
-10000.0
 31
0.0
100
AcDbText
 73
2
  0
LINE
  5
127
330
17
100
AcDbEntity
  8
09_РАЗМЕРЫ
100
AcDbLine
 10
79750.0
 20
-8600.0
 30
0.0
 11
79750.0
 21
-8880.0
 31
0.0
  0
LINE
  5
128
330
17
100
AcDbEntity
  8
09_РАЗМЕРЫ
100
AcDbLine
 10
82500.0
 20
-8600.0
 30
0.0
 11
82500.0
 21
-8880.0
 31
0.0
  0
LINE
  5
129
330
17
100
AcDbEntity
  8
09_РАЗМЕРЫ
100
AcDbLine
 10
85250.0
 20
-8600.0
 30
0.0
 11
85250.0
 21
-8880.0
 31
0.0
  0
LINE
  5
12A
330
17
100
AcDbEntity
  8
09_РАЗМЕРЫ
100
AcDbLine
 10
88000.0
 20
-8600.0
 30
0.0
 11
88000.0
 21
-9200.0
 31
0.0
  0
TEXT
  5
12B
330
17
100
AcDbEntity
  8
09_РАЗМЕРЫ
100
AcDbText
 10
88000.0
 20
-10000.0
 30
0.0
 40
600.0
  1
160
  7
ГОСТ
 72
1
 11
88000.0
 21
-10000.0
 31
0.0
100
AcDbText
 73
2
  0
LINE
  5
12C
330
17
100
AcDbEntity
  8
09_РАЗМЕРЫ
100
AcDbLine
 10
90750.00000000001
 20
-8600.0
 30
0.0
 11
90750.00000000001
 21
-8880.0
 31
0.0
  0
LINE
  5
12D
330
17
100
AcDbEntity
  8
09_РАЗМЕРЫ
100
AcDbLine
 10
93500.00000000001
 20
-8600.0
 30
0.0
 11
93500.00000000001
 21
-8880.0
 31
0.0
  0
LINE
  5
12E
330
17
100
AcDbEntity
  8
09_РАЗМЕРЫ
100
AcDbLine
 10
96250.00000000001
 20
-8600.0
 30
0.0
 11
96250.00000000001
 21
-8880.0
 31
0.0
  0
LINE
  5
12F
330
17
100
AcDbEntity
  8
09_РАЗМЕРЫ
100
AcDbLine
 10
99000.00000000001
 20
-8600.0
 30
0.0
 11
99000.00000000001
 21
-9200.0
 31
0.0
  0
TEXT
  5
130
330
17
100
AcDbEntity
  8
09_РАЗМЕРЫ
100
AcDbText
 10
99000.00000000001
 20
-10000.0
 30
0.0
 40
600.0
  1
180
  7
ГОСТ
 72
1
 11
99000.00000000001
 21
-10000.0
 31
0.0
100
AcDbText
 73
2
  0
LINE
  5
131
330
17
100
AcDbEntity
  8
09_РАЗМЕРЫ
100
AcDbLine
 10
101750.00000000001
 20
-8600.0
 30
0.0
 11
101750.00000000001
 21
-8880.0
 31
0.0
  0
LINE
  5
132
330
17
100
AcDbEntity
  8
09_РАЗМЕРЫ
100
AcDbLine
 10
104500.00000000001
 20
-8600.0
 30
0.0
 11
104500.00000000001
 21
-8880.0
 31
0.0
  0
LINE
  5
133
330
17
100
AcDbEntity
  8
09_РАЗМЕРЫ
100
AcDbLine
 10
107250.00000000001
 20
-8600.0
 30
0.0
 11
107250.00000000001
 21
-8880.0
 31
0.0
  0
LINE
  5
134
330
17
100
AcDbEntity
  8
09_РАЗМЕРЫ
100
AcDbLine
 10
110000.00000000001
 20
-8600.0
 30
0.0
 11
110000.00000000001
 21
-9200.0
 31
0.0
  0
TEXT
  5
135
330
17
100
AcDbEntity
  8
09_РАЗМЕРЫ
100
AcDbText
 10
110000.00000000001
 20
-10000.0
 30
0.0
 40
600.0
  1
200
  7
ГОСТ
 72
1
 11
110000.00000000001
 21
-10000.0
 31
0.0
100
AcDbText
 73
2
  0
LINE
  5
136
330
17
100
AcDbEntity
  8
09_РАЗМЕРЫ
100
AcDbLine
 10
112750.00000000001
 20
-8600.0
 30
0.0
 11
112750.00000000001
 21
-8880.0
 31
0.0
  0
LINE
  5
137
330
17
100
AcDbEntity
  8
09_РАЗМЕРЫ
100
AcDbLine
 10
115500.00000000001
 20
-8600.0
 30
0.0
 11
115500.00000000001
 21
-8880.0
 31
0.0
  0
LINE
  5
138
330
17
100
AcDbEntity
  8
09_РАЗМЕРЫ
100
AcDbLine
 10
118250.00000000001
 20
-8600.0
 30
0.0
 11
118250.00000000001
 21
-8880.0
 31
0.0
  0
LINE
  5
139
330
17
100
AcDbEntity
  8
09_РАЗМЕРЫ
100
AcDbLine
 10
121000.00000000001
 20
-8600.0
 30
0.0
 11
121000.00000000001
 21
-9200.0
 31
0.0
  0
TEXT
  5
13A
330
17
100
AcDbEntity
  8
09_РАЗМЕРЫ
100
AcDbText
 10
121000.00000000001
 20
-10000.0
 30
0.0
 40
600.0
  1
220
  7
ГОСТ
 72
1
 11
121000.00000000001
 21
-10000.0
 31
0.0
100
AcDbText
 73
2
  0
LINE
  5
13B
330
17
100
AcDbEntity
  8
09_РАЗМЕРЫ
100
AcDbLine
 10
123750.00000000001
 20
-8600.0
 30
0.0
 11
123750.00000000001
 21
-8880.0
 31
0.0
  0
LINE
  5
13C
330
17
100
AcDbEntity
  8
09_РАЗМЕРЫ
100
AcDbLine
 10
126500.00000000001
 20
-8600.0
 30
0.0
 11
126500.00000000001
 21
-8880.0
 31
0.0
  0
LINE
  5
13D
330
17
100
AcDbEntity
  8
09_РАЗМЕРЫ
100
AcDbLine
 10
129250.0
 20
-8600.0
 30
0.0
 11
129250.0
 21
-8880.0
 31
0.0
  0
LINE
  5
13E
330
17
100
AcDbEntity
  8
09_РАЗМЕРЫ
100
AcDbLine
 10
132000.0
 20
-8600.0
 30
0.0
 11
132000.0
 21
-9200.0
 31
0.0
  0
TEXT
  5
13F
330
17
100
AcDbEntity
  8
09_РАЗМЕРЫ
100
AcDbText
 10
132000.0
 20
-10000.0
 30
0.0
 40
600.0
  1
240
  7
ГОСТ
 72
1
 11
132000.0
 21
-10000.0
 31
0.0
100
AcDbText
 73
2
  0
LINE
  5
140
330
17
100
AcDbEntity
  8
09_РАЗМЕРЫ
100
AcDbLine
 10
134750.0
 20
-8600.0
 30
0.0
 11
134750.0
 21
-8880.0
 31
0.0
  0
LINE
  5
141
330
17
100
AcDbEntity
  8
09_РАЗМЕРЫ
100
AcDbLine
 10
137500.0
 20
-8600.0
 30
0.0
 11
137500.0
 21
-8880.0
 31
0.0
  0
LINE
  5
142
330
17
100
AcDbEntity
  8
09_РАЗМЕРЫ
100
AcDbLine
 10
0.0
 20
-8600.0
 30
0.0
 11
138600.00000000003
 21
-8600.0
 31
0.0
  0
TEXT
  5
143
330
17
100
AcDbEntity
  8
09_РАЗМЕРЫ
100
AcDbText
 10
143000.0
 20
-10000.0
 30
0.0
 40
600.0
  1
№ шп., шпация 550
  7
ГОСТ
 11
143000.0
 21
-10000.0
 31
0.0
100
AcDbText
 73
2
  0
LINE
  5
144
330
17
100
AcDbEntity
  8
00_РАМКА
100
AcDbLine
 10
0.0
 20
-15600.0
 30
0.0
 11
40800.0
 21
-15600.0
 31
0.0
  0
LINE
  5
145
330
17
100
AcDbEntity
  8
00_РАМКА
100
AcDbLine
 10
0.0
 20
-16600.0
 30
0.0
 11
40800.0
 21
-16600.0
 31
0.0
  0
LINE
  5
146
330
17
100
AcDbEntity
  8
00_РАМКА
100
AcDbLine
 10
0.0
 20
-17600.0
 30
0.0
 11
40800.0
 21
-17600.0
 31
0.0
  0
LINE
  5
147
330
17
100
AcDbEntity
  8
00_РАМКА
100
AcDbLine
 10
0.0
 20
-18600.0
 30
0.0
 11
40800.0
 21
-18600.0
 31
0.0
  0
LINE
  5
148
330
17
100
AcDbEntity
  8
00_РАМКА
100
AcDbLine
 10
0.0
 20
-19600.0
 30
0.0
 11
40800.0
 21
-19600.0
 31
0.0
  0
LINE
  5
149
330
17
100
AcDbEntity
  8
00_РАМКА
100
AcDbLine
 10
0.0
 20
-20600.0
 30
0.0
 11
40800.0
 21
-20600.0
 31
0.0
  0
LINE
  5
14A
330
17
100
AcDbEntity
  8
00_РАМКА
100
AcDbLine
 10
0.0
 20
-21600.0
 30
0.0
 11
40800.0
 21
-21600.0
 31
0.0
  0
LINE
  5
14B
330
17
100
AcDbEntity
  8
00_РАМКА
100
AcDbLine
 10
0.0
 20
-22600.0
 30
0.0
 11
40800.0
 21
-22600.0
 31
0.0
  0
LINE
  5
14C
330
17
100
AcDbEntity
  8
00_РАМКА
100
AcDbLine
 10
0.0
 20
-23600.0
 30
0.0
 11
40800.0
 21
-23600.0
 31
0.0
  0
LINE
  5
14D
330
17
100
AcDbEntity
  8
00_РАМКА
100
AcDbLine
 10
0.0
 20
-24600.0
 30
0.0
 11
40800.0
 21
-24600.0
 31
0.0
  0
LINE
  5
14E
330
17
100
AcDbEntity
  8
00_РАМКА
100
AcDbLine
 10
0.0
 20
-25600.0
 30
0.0
 11
40800.0
 21
-25600.0
 31
0.0
  0
LINE
  5
14F
330
17
100
AcDbEntity
  8
00_РАМКА
100
AcDbLine
 10
0.0
 20
-26600.0
 30
0.0
 11
40800.0
 21
-26600.0
 31
0.0
  0
LINE
  5
150
330
17
100
AcDbEntity
  8
00_РАМКА
100
AcDbLine
 10
0.0
 20
-27600.0
 30
0.0
 11
40800.0
 21
-27600.0
 31
0.0
  0
LINE
  5
151
330
17
100
AcDbEntity
  8
00_РАМКА
100
AcDbLine
 10
0.0
 20
-28600.0
 30
0.0
 11
40800.0
 21
-28600.0
 31
0.0
  0
LINE
  5
152
330
17
100
AcDbEntity
  8
00_РАМКА
100
AcDbLine
 10
0.0
 20
-29600.0
 30
0.0
 11
40800.0
 21
-29600.0
 31
0.0
  0
LINE
  5
153
330
17
100
AcDbEntity
  8
00_РАМКА
100
AcDbLine
 10
0.0
 20
-30600.0
 30
0.0
 11
40800.0
 21
-30600.0
 31
0.0
  0
LINE
  5
154
330
17
100
AcDbEntity
  8
00_РАМКА
100
AcDbLine
 10
0.0
 20
-31600.0
 30
0.0
 11
40800.0
 21
-31600.0
 31
0.0
  0
LINE
  5
155
330
17
100
AcDbEntity
  8
00_РАМКА
100
AcDbLine
 10
0.0
 20
-32600.0
 30
0.0
 11
40800.0
 21
-32600.0
 31
0.0
  0
LINE
  5
156
330
17
100
AcDbEntity
  8
00_РАМКА
100
AcDbLine
 10
0.0
 20
-33600.0
 30
0.0
 11
40800.0
 21
-33600.0
 31
0.0
  0
LINE
  5
157
330
17
100
AcDbEntity
  8
00_РАМКА
100
AcDbLine
 10
0.0
 20
-34600.0
 30
0.0
 11
40800.0
 21
-34600.0
 31
0.0
  0
LINE
  5
158
330
17
100
AcDbEntity
  8
00_РАМКА
100
AcDbLine
 10
0.0
 20
-35600.0
 30
0.0
 11
40800.0
 21
-35600.0
 31
0.0
  0
LINE
  5
159
330
17
100
AcDbEntity
  8
00_РАМКА
100
AcDbLine
 10
0.0
 20
-36600.0
 30
0.0
 11
40800.0
 21
-36600.0
 31
0.0
  0
LINE
  5
15A
330
17
100
AcDbEntity
  8
00_РАМКА
100
AcDbLine
 10
0.0
 20
-37600.0
 30
0.0
 11
40800.0
 21
-37600.0
 31
0.0
  0
LINE
  5
15B
330
17
100
AcDbEntity
  8
00_РАМКА
100
AcDbLine
 10
0.0
 20
-15600.0
 30
0.0
 11
0.0
 21
-37600.0
 31
0.0
  0
LINE
  5
15C
330
17
100
AcDbEntity
  8
00_РАМКА
100
AcDbLine
 10
2000.0
 20
-15600.0
 30
0.0
 11
2000.0
 21
-37600.0
 31
0.0
  0
LINE
  5
15D
330
17
100
AcDbEntity
  8
00_РАМКА
100
AcDbLine
 10
5200.0
 20
-15600.0
 30
0.0
 11
5200.0
 21
-37600.0
 31
0.0
  0
LINE
  5
15E
330
17
100
AcDbEntity
  8
00_РАМКА
100
AcDbLine
 10
24400.0
 20
-15600.0
 30
0.0
 11
24400.0
 21
-37600.0
 31
0.0
  0
LINE
  5
15F
330
17
100
AcDbEntity
  8
00_РАМКА
100
AcDbLine
 10
27200.0
 20
-15600.0
 30
0.0
 11
27200.0
 21
-37600.0
 31
0.0
  0
LINE
  5
160
330
17
100
AcDbEntity
  8
00_РАМКА
100
AcDbLine
 10
32400.0
 20
-15600.0
 30
0.0
 11
32400.0
 21
-37600.0
 31
0.0
  0
LINE
  5
161
330
17
100
AcDbEntity
  8
00_РАМКА
100
AcDbLine
 10
37200.0
 20
-15600.0
 30
0.0
 11
37200.0
 21
-37600.0
 31
0.0
  0
LINE
  5
162
330
17
100
AcDbEntity
  8
00_РАМКА
100
AcDbLine
 10
40800.0
 20
-15600.0
 30
0.0
 11
40800.0
 21
-37600.0
 31
0.0
  0
TEXT
  5
163
330
17
100
AcDbEntity
  8
08_ТЕКСТ
100
AcDbText
 10
300.0
 20
-16100.0
 30
0.0
 40
560.0
  1
№
  7
ГОСТ
 11
300.0
 21
-16100.0
 31
0.0
100
AcDbText
 73
2
  0
TEXT
  5
164
330
17
100
AcDbEntity
  8
08_ТЕКСТ
100
AcDbText
 10
2300.0
 20
-16100.0
 30
0.0
 40
560.0
  1
Код
  7
ГОСТ
 11
2300.0
 21
-16100.0
 31
0.0
100
AcDbText
 73
2
  0
TEXT
  5
165
330
17
100
AcDbEntity
  8
08_ТЕКСТ
100
AcDbText
 10
5500.0
 20
-16100.0
 30
0.0
 40
560.0
  1
Наименование цистерны
  7
ГОСТ
 11
5500.0
 21
-16100.0
 31
0.0
100
AcDbText
 73
2
  0
TEXT
  5
166
330
17
100
AcDbEntity
  8
08_ТЕКСТ
100
AcDbText
 10
24700.0
 20
-16100.0
 30
0.0
 40
560.0
  1
Борт
  7
ГОСТ
 11
24700.0
 21
-16100.0
 31
0.0
100
AcDbText
 73
2
  0
TEXT
  5
167
330
17
100
AcDbEntity
  8
08_ТЕКСТ
100
AcDbText
 10
27500.0
 20
-16100.0
 30
0.0
 40
560.0
  1
x, м
  7
ГОСТ
 11
27500.0
 21
-16100.0
 31
0.0
100
AcDbText
 73
2
  0
TEXT
  5
168
330
17
100
AcDbEntity
  8
08_ТЕКСТ
100
AcDbText
 10
32700.0
 20
-16100.0
 30
0.0
 40
560.0
  1
z, м
  7
ГОСТ
 11
32700.0
 21
-16100.0
 31
0.0
100
AcDbText
 73
2
  0
TEXT
  5
169
330
17
100
AcDbEntity
  8
08_ТЕКСТ
100
AcDbText
 10
37500.0
 20
-16100.0
 30
0.0
 40
560.0
  1
V, м3
  7
ГОСТ
 11
37500.0
 21
-16100.0
 31
0.0
100
AcDbText
 73
2
  0
TEXT
  5
16A
330
17
100
AcDbEntity
  8
08_ТЕКСТ
100
AcDbText
 10
300.0
 20
-17100.0
 30
0.0
 40
500.0
  1
1
  7
ГОСТ
 11
300.0
 21
-17100.0
 31
0.0
100
AcDbText
 73
2
  0
TEXT
  5
16B
330
17
100
AcDbEntity
  8
08_ТЕКСТ
100
AcDbText
 10
2300.0
 20
-17100.0
 30
0.0
 40
500.0
  1
АС-1
  7
ГОСТ
 11
2300.0
 21
-17100.0
 31
0.0
100
AcDbText
 73
2
  0
TEXT
  5
16C
330
17
100
AcDbEntity
  8
08_ТЕКСТ
100
AcDbText
 10
5500.0
 20
-17100.0
 30
0.0
 40
500.0
  1
Аварийная сточная
  7
ГОСТ
 11
5500.0
 21
-17100.0
 31
0.0
100
AcDbText
 73
2
  0
TEXT
  5
16D
330
17
100
AcDbEntity
  8
08_ТЕКСТ
100
AcDbText
 10
24700.0
 20
-17100.0
 30
0.0
 40
500.0
  1
ДП
  7
ГОСТ
 11
24700.0
 21
-17100.0
 31
0.0
100
AcDbText
 73
2
  0
TEXT
  5
16E
330
17
100
AcDbEntity
  8
08_ТЕКСТ
100
AcDbText
 10
27500.0
 20
-17100.0
 30
0.0
 40
500.0
  1
86.0…92.0
  7
ГОСТ
 11
27500.0
 21
-17100.0
 31
0.0
100
AcDbText
 73
2
  0
TEXT
  5
16F
330
17
100
AcDbEntity
  8
08_ТЕКСТ
100
AcDbText
 10
32700.0
 20
-17100.0
 30
0.0
 40
500.0
  1
0.00…1.30
  7
ГОСТ
 11
32700.0
 21
-17100.0
 31
0.0
100
AcDbText
 73
2
  0
TEXT
  5
170
330
17
100
AcDbEntity
  8
08_ТЕКСТ
100
AcDbText
 10
37500.0
 20
-17100.0
 30
0.0
 40
500.0
  1
30.0
  7
ГОСТ
 11
37500.0
 21
-17100.0
 31
0.0
100
AcDbText
 73
2
  0
TEXT
  5
171
330
17
100
AcDbEntity
  8
08_ТЕКСТ
100
AcDbText
 10
300.0
 20
-18100.0
 30
0.0
 40
500.0
  1
2
  7
ГОСТ
 11
300.0
 21
-18100.0
 31
0.0
100
AcDbText
 73
2
  0
TEXT
  5
172
330
17
100
AcDbEntity
  8
08_ТЕКСТ
100
AcDbText
 10
2300.0
 20
-18100.0
 30
0.0
 40
500.0
  1
БЛ-1
  7
ГОСТ
 11
2300.0
 21
-18100.0
 31
0.0
100
AcDbText
 73
2
  0
TEXT
  5
173
330
17
100
AcDbEntity
  8
08_ТЕКСТ
100
AcDbText
 10
5500.0
 20
-18100.0
 30
0.0
 40
500.0
  1
Балласт
  7
ГОСТ
 11
5500.0
 21
-18100.0
 31
0.0
100
AcDbText
 73
2
  0
TEXT
  5
174
330
17
100
AcDbEntity
  8
08_ТЕКСТ
100
AcDbText
 10
24700.0
 20
-18100.0
 30
0.0
 40
500.0
  1
ДП
  7
ГОСТ
 11
24700.0
 21
-18100.0
 31
0.0
100
AcDbText
 73
2
  0
TEXT
  5
175
330
17
100
AcDbEntity
  8
08_ТЕКСТ
100
AcDbText
 10
27500.0
 20
-18100.0
 30
0.0
 40
500.0
  1
2.0…9.5
  7
ГОСТ
 11
27500.0
 21
-18100.0
 31
0.0
100
AcDbText
 73
2
  0
TEXT
  5
176
330
17
100
AcDbEntity
  8
08_ТЕКСТ
100
AcDbText
 10
32700.0
 20
-18100.0
 30
0.0
 40
500.0
  1
0.40…2.60
  7
ГОСТ
 11
32700.0
 21
-18100.0
 31
0.0
100
AcDbText
 73
2
  0
TEXT
  5
177
330
17
100
AcDbEntity
  8
08_ТЕКСТ
100
AcDbText
 10
37500.0
 20
-18100.0
 30
0.0
 40
500.0
  1
103.0
  7
ГОСТ
 11
37500.0
 21
-18100.0
 31
0.0
100
AcDbText
 73
2
  0
TEXT
  5
178
330
17
100
AcDbEntity
  8
08_ТЕКСТ
100
AcDbText
 10
300.0
 20
-19100.0
 30
0.0
 40
500.0
  1
3
  7
ГОСТ
 11
300.0
 21
-19100.0
 31
0.0
100
AcDbText
 73
2
  0
TEXT
  5
179
330
17
100
AcDbEntity
  8
08_ТЕКСТ
100
AcDbText
 10
2300.0
 20
-19100.0
 30
0.0
 40
500.0
  1
БЛ-1
  7
ГОСТ
 11
2300.0
 21
-19100.0
 31
0.0
100
AcDbText
 73
2
  0
TEXT
  5
17A
330
17
100
AcDbEntity
  8
08_ТЕКСТ
100
AcDbText
 10
5500.0
 20
-19100.0
 30
0.0
 40
500.0
  1
Балласт
  7
ГОСТ
 11
5500.0
 21
-19100.0
 31
0.0
100
AcDbText
 73
2
  0
TEXT
  5
17B
330
17
100
AcDbEntity
  8
08_ТЕКСТ
100
AcDbText
 10
24700.0
 20
-19100.0
 30
0.0
 40
500.0
  1
ПрБ
  7
ГОСТ
 11
24700.0
 21
-19100.0
 31
0.0
100
AcDbText
 73
2
  0
TEXT
  5
17C
330
17
100
AcDbEntity
  8
08_ТЕКСТ
100
AcDbText
 10
27500.0
 20
-19100.0
 30
0.0
 40
500.0
  1
34.0…46.0
  7
ГОСТ
 11
27500.0
 21
-19100.0
 31
0.0
100
AcDbText
 73
2
  0
TEXT
  5
17D
330
17
100
AcDbEntity
  8
08_ТЕКСТ
100
AcDbText
 10
32700.0
 20
-19100.0
 30
0.0
 40
500.0
  1
0.00…1.30
  7
ГОСТ
 11
32700.0
 21
-19100.0
 31
0.0
100
AcDbText
 73
2
  0
TEXT
  5
17E
330
17
100
AcDbEntity
  8
08_ТЕКСТ
100
AcDbText
 10
37500.0
 20
-19100.0
 30
0.0
 40
500.0
  1
47.5
  7
ГОСТ
 11
37500.0
 21
-19100.0
 31
0.0
100
AcDbText
 73
2
  0
TEXT
  5
17F
330
17
100
AcDbEntity
  8
08_ТЕКСТ
100
AcDbText
 10
300.0
 20
-20100.0
 30
0.0
 40
500.0
  1
4
  7
ГОСТ
 11
300.0
 21
-20100.0
 31
0.0
100
AcDbText
 73
2
  0
TEXT
  5
180
330
17
100
AcDbEntity
  8
08_ТЕКСТ
100
AcDbText
 10
2300.0
 20
-20100.0
 30
0.0
 40
500.0
  1
БЛ-1
  7
ГОСТ
 11
2300.0
 21
-20100.0
 31
0.0
100
AcDbText
 73
2
  0
TEXT
  5
181
330
17
100
AcDbEntity
  8
08_ТЕКСТ
100
AcDbText
 10
5500.0
 20
-20100.0
 30
0.0
 40
500.0
  1
Балласт
  7
ГОСТ
 11
5500.0
 21
-20100.0
 31
0.0
100
AcDbText
 73
2
  0
TEXT
  5
182
330
17
100
AcDbEntity
  8
08_ТЕКСТ
100
AcDbText
 10
24700.0
 20
-20100.0
 30
0.0
 40
500.0
  1
ЛБ
  7
ГОСТ
 11
24700.0
 21
-20100.0
 31
0.0
100
AcDbText
 73
2
  0
TEXT
  5
183
330
17
100
AcDbEntity
  8
08_ТЕКСТ
100
AcDbText
 10
27500.0
 20
-20100.0
 30
0.0
 40
500.0
  1
34.0…46.0
  7
ГОСТ
 11
27500.0
 21
-20100.0
 31
0.0
100
AcDbText
 73
2
  0
TEXT
  5
184
330
17
100
AcDbEntity
  8
08_ТЕКСТ
100
AcDbText
 10
32700.0
 20
-20100.0
 30
0.0
 40
500.0
  1
0.00…1.30
  7
ГОСТ
 11
32700.0
 21
-20100.0
 31
0.0
100
AcDbText
 73
2
  0
TEXT
  5
185
330
17
100
AcDbEntity
  8
08_ТЕКСТ
100
AcDbText
 10
37500.0
 20
-20100.0
 30
0.0
 40
500.0
  1
47.5
  7
ГОСТ
 11
37500.0
 21
-20100.0
 31
0.0
100
AcDbText
 73
2
  0
TEXT
  5
186
330
17
100
AcDbEntity
  8
08_ТЕКСТ
100
AcDbText
 10
300.0
 20
-21100.0
 30
0.0
 40
500.0
  1
5
  7
ГОСТ
 11
300.0
 21
-21100.0
 31
0.0
100
AcDbText
 73
2
  0
TEXT
  5
187
330
17
100
AcDbEntity
  8
08_ТЕКСТ
100
AcDbText
 10
2300.0
 20
-21100.0
 30
0.0
 40
500.0
  1
БЛ-1
  7
ГОСТ
 11
2300.0
 21
-21100.0
 31
0.0
100
AcDbText
 73
2
  0
TEXT
  5
188
330
17
100
AcDbEntity
  8
08_ТЕКСТ
100
AcDbText
 10
5500.0
 20
-21100.0
 30
0.0
 40
500.0
  1
Балласт
  7
ГОСТ
 11
5500.0
 21
-21100.0
 31
0.0
100
AcDbText
 73
2
  0
TEXT
  5
189
330
17
100
AcDbEntity
  8
08_ТЕКСТ
100
AcDbText
 10
24700.0
 20
-21100.0
 30
0.0
 40
500.0
  1
ПрБ
  7
ГОСТ
 11
24700.0
 21
-21100.0
 31
0.0
100
AcDbText
 73
2
  0
TEXT
  5
18A
330
17
100
AcDbEntity
  8
08_ТЕКСТ
100
AcDbText
 10
27500.0
 20
-21100.0
 30
0.0
 40
500.0
  1
100.0…116.0
  7
ГОСТ
 11
27500.0
 21
-21100.0
 31
0.0
100
AcDbText
 73
2
  0
TEXT
  5
18B
330
17
100
AcDbEntity
  8
08_ТЕКСТ
100
AcDbText
 10
32700.0
 20
-21100.0
 30
0.0
 40
500.0
  1
0.00…1.30
  7
ГОСТ
 11
32700.0
 21
-21100.0
 31
0.0
100
AcDbText
 73
2
  0
TEXT
  5
18C
330
17
100
AcDbEntity
  8
08_ТЕКСТ
100
AcDbText
 10
37500.0
 20
-21100.0
 30
0.0
 40
500.0
  1
46.1
  7
ГОСТ
 11
37500.0
 21
-21100.0
 31
0.0
100
AcDbText
 73
2
  0
TEXT
  5
18D
330
17
100
AcDbEntity
  8
08_ТЕКСТ
100
AcDbText
 10
300.0
 20
-22100.0
 30
0.0
 40
500.0
  1
6
  7
ГОСТ
 11
300.0
 21
-22100.0
 31
0.0
100
AcDbText
 73
2
  0
TEXT
  5
18E
330
17
100
AcDbEntity
  8
08_ТЕКСТ
100
AcDbText
 10
2300.0
 20
-22100.0
 30
0.0
 40
500.0
  1
БЛ-1
  7
ГОСТ
 11
2300.0
 21
-22100.0
 31
0.0
100
AcDbText
 73
2
  0
TEXT
  5
18F
330
17
100
AcDbEntity
  8
08_ТЕКСТ
100
AcDbText
 10
5500.0
 20
-22100.0
 30
0.0
 40
500.0
  1
Балласт
  7
ГОСТ
 11
5500.0
 21
-22100.0
 31
0.0
100
AcDbText
 73
2
  0
TEXT
  5
190
330
17
100
AcDbEntity
  8
08_ТЕКСТ
100
AcDbText
 10
24700.0
 20
-22100.0
 30
0.0
 40
500.0
  1
ЛБ
  7
ГОСТ
 11
24700.0
 21
-22100.0
 31
0.0
100
AcDbText
 73
2
  0
TEXT
  5
191
330
17
100
AcDbEntity
  8
08_ТЕКСТ
100
AcDbText
 10
27500.0
 20
-22100.0
 30
0.0
 40
500.0
  1
100.0…116.0
  7
ГОСТ
 11
27500.0
 21
-22100.0
 31
0.0
100
AcDbText
 73
2
  0
TEXT
  5
192
330
17
100
AcDbEntity
  8
08_ТЕКСТ
100
AcDbText
 10
32700.0
 20
-22100.0
 30
0.0
 40
500.0
  1
0.00…1.30
  7
ГОСТ
 11
32700.0
 21
-22100.0
 31
0.0
100
AcDbText
 73
2
  0
TEXT
  5
193
330
17
100
AcDbEntity
  8
08_ТЕКСТ
100
AcDbText
 10
37500.0
 20
-22100.0
 30
0.0
 40
500.0
  1
46.1
  7
ГОСТ
 11
37500.0
 21
-22100.0
 31
0.0
100
AcDbText
 73
2
  0
TEXT
  5
194
330
17
100
AcDbEntity
  8
08_ТЕКСТ
100
AcDbText
 10
300.0
 20
-23100.0
 30
0.0
 40
500.0
  1
7
  7
ГОСТ
 11
300.0
 21
-23100.0
 31
0.0
100
AcDbText
 73
2
  0
TEXT
  5
195
330
17
100
AcDbEntity
  8
08_ТЕКСТ
100
AcDbText
 10
2300.0
 20
-23100.0
 30
0.0
 40
500.0
  1
БЛ-1
  7
ГОСТ
 11
2300.0
 21
-23100.0
 31
0.0
100
AcDbText
 73
2
  0
TEXT
  5
196
330
17
100
AcDbEntity
  8
08_ТЕКСТ
100
AcDbText
 10
5500.0
 20
-23100.0
 30
0.0
 40
500.0
  1
Балласт
  7
ГОСТ
 11
5500.0
 21
-23100.0
 31
0.0
100
AcDbText
 73
2
  0
TEXT
  5
197
330
17
100
AcDbEntity
  8
08_ТЕКСТ
100
AcDbText
 10
24700.0
 20
-23100.0
 30
0.0
 40
500.0
  1
ДП
  7
ГОСТ
 11
24700.0
 21
-23100.0
 31
0.0
100
AcDbText
 73
2
  0
TEXT
  5
198
330
17
100
AcDbEntity
  8
08_ТЕКСТ
100
AcDbText
 10
27500.0
 20
-23100.0
 30
0.0
 40
500.0
  1
127.0…136.0
  7
ГОСТ
 11
27500.0
 21
-23100.0
 31
0.0
100
AcDbText
 73
2
  0
TEXT
  5
199
330
17
100
AcDbEntity
  8
08_ТЕКСТ
100
AcDbText
 10
32700.0
 20
-23100.0
 30
0.0
 40
500.0
  1
1.25…4.20
  7
ГОСТ
 11
32700.0
 21
-23100.0
 31
0.0
100
AcDbText
 73
2
  0
TEXT
  5
19A
330
17
100
AcDbEntity
  8
08_ТЕКСТ
100
AcDbText
 10
37500.0
 20
-23100.0
 30
0.0
 40
500.0
  1
109.7
  7
ГОСТ
 11
37500.0
 21
-23100.0
 31
0.0
100
AcDbText
 73
2
  0
TEXT
  5
19B
330
17
100
AcDbEntity
  8
08_ТЕКСТ
100
AcDbText
 10
300.0
 20
-24100.0
 30
0.0
 40
500.0
  1
8
  7
ГОСТ
 11
300.0
 21
-24100.0
 31
0.0
100
AcDbText
 73
2
  0
TEXT
  5
19C
330
17
100
AcDbEntity
  8
08_ТЕКСТ
100
AcDbText
 10
2300.0
 20
-24100.0
 30
0.0
 40
500.0
  1
ДТ-1
  7
ГОСТ
 11
2300.0
 21
-24100.0
 31
0.0
100
AcDbText
 73
2
  0
TEXT
  5
19D
330
17
100
AcDbEntity
  8
08_ТЕКСТ
100
AcDbText
 10
5500.0
 20
-24100.0
 30
0.0
 40
500.0
  1
Топливо, основной запас
  7
ГОСТ
 11
5500.0
 21
-24100.0
 31
0.0
100
AcDbText
 73
2
  0
TEXT
  5
19E
330
17
100
AcDbEntity
  8
08_ТЕКСТ
100
AcDbText
 10
24700.0
 20
-24100.0
 30
0.0
 40
500.0
  1
ДП
  7
ГОСТ
 11
24700.0
 21
-24100.0
 31
0.0
100
AcDbText
 73
2
  0
TEXT
  5
19F
330
17
100
AcDbEntity
  8
08_ТЕКСТ
100
AcDbText
 10
27500.0
 20
-24100.0
 30
0.0
 40
500.0
  1
46.0…70.0
  7
ГОСТ
 11
27500.0
 21
-24100.0
 31
0.0
100
AcDbText
 73
2
  0
TEXT
  5
1A0
330
17
100
AcDbEntity
  8
08_ТЕКСТ
100
AcDbText
 10
32700.0
 20
-24100.0
 30
0.0
 40
500.0
  1
0.00…1.30
  7
ГОСТ
 11
32700.0
 21
-24100.0
 31
0.0
100
AcDbText
 73
2
  0
TEXT
  5
1A1
330
17
100
AcDbEntity
  8
08_ТЕКСТ
100
AcDbText
 10
37500.0
 20
-24100.0
 30
0.0
 40
500.0
  1
250.0
  7
ГОСТ
 11
37500.0
 21
-24100.0
 31
0.0
100
AcDbText
 73
2
  0
TEXT
  5
1A2
330
17
100
AcDbEntity
  8
08_ТЕКСТ
100
AcDbText
 10
300.0
 20
-25100.0
 30
0.0
 40
500.0
  1
9
  7
ГОСТ
 11
300.0
 21
-25100.0
 31
0.0
100
AcDbText
 73
2
  0
TEXT
  5
1A3
330
17
100
AcDbEntity
  8
08_ТЕКСТ
100
AcDbText
 10
2300.0
 20
-25100.0
 30
0.0
 40
500.0
  1
ДТ-2
  7
ГОСТ
 11
2300.0
 21
-25100.0
 31
0.0
100
AcDbText
 73
2
  0
TEXT
  5
1A4
330
17
100
AcDbEntity
  8
08_ТЕКСТ
100
AcDbText
 10
5500.0
 20
-25100.0
 30
0.0
 40
500.0
  1
Топливо расходное
  7
ГОСТ
 11
5500.0
 21
-25100.0
 31
0.0
100
AcDbText
 73
2
  0
TEXT
  5
1A5
330
17
100
AcDbEntity
  8
08_ТЕКСТ
100
AcDbText
 10
24700.0
 20
-25100.0
 30
0.0
 40
500.0
  1
ПрБ
  7
ГОСТ
 11
24700.0
 21
-25100.0
 31
0.0
100
AcDbText
 73
2
  0
TEXT
  5
1A6
330
17
100
AcDbEntity
  8
08_ТЕКСТ
100
AcDbText
 10
27500.0
 20
-25100.0
 30
0.0
 40
500.0
  1
22.0…26.0
  7
ГОСТ
 11
27500.0
 21
-25100.0
 31
0.0
100
AcDbText
 73
2
  0
TEXT
  5
1A7
330
17
100
AcDbEntity
  8
08_ТЕКСТ
100
AcDbText
 10
32700.0
 20
-25100.0
 30
0.0
 40
500.0
  1
0.55…2.20
  7
ГОСТ
 11
32700.0
 21
-25100.0
 31
0.0
100
AcDbText
 73
2
  0
TEXT
  5
1A8
330
17
100
AcDbEntity
  8
08_ТЕКСТ
100
AcDbText
 10
37500.0
 20
-25100.0
 30
0.0
 40
500.0
  1
25.0
  7
ГОСТ
 11
37500.0
 21
-25100.0
 31
0.0
100
AcDbText
 73
2
  0
TEXT
  5
1A9
330
17
100
AcDbEntity
  8
08_ТЕКСТ
100
AcDbText
 10
300.0
 20
-26100.0
 30
0.0
 40
500.0
  1
10
  7
ГОСТ
 11
300.0
 21
-26100.0
 31
0.0
100
AcDbText
 73
2
  0
TEXT
  5
1AA
330
17
100
AcDbEntity
  8
08_ТЕКСТ
100
AcDbText
 10
2300.0
 20
-26100.0
 30
0.0
 40
500.0
  1
ДТ-3
  7
ГОСТ
 11
2300.0
 21
-26100.0
 31
0.0
100
AcDbText
 73
2
  0
TEXT
  5
1AB
330
17
100
AcDbEntity
  8
08_ТЕКСТ
100
AcDbText
 10
5500.0
 20
-26100.0
 30
0.0
 40
500.0
  1
Топливо отстойное
  7
ГОСТ
 11
5500.0
 21
-26100.0
 31
0.0
100
AcDbText
 73
2
  0
TEXT
  5
1AC
330
17
100
AcDbEntity
  8
08_ТЕКСТ
100
AcDbText
 10
24700.0
 20
-26100.0
 30
0.0
 40
500.0
  1
ПрБ
  7
ГОСТ
 11
24700.0
 21
-26100.0
 31
0.0
100
AcDbText
 73
2
  0
TEXT
  5
1AD
330
17
100
AcDbEntity
  8
08_ТЕКСТ
100
AcDbText
 10
27500.0
 20
-26100.0
 30
0.0
 40
500.0
  1
18.0…22.0
  7
ГОСТ
 11
27500.0
 21
-26100.0
 31
0.0
100
AcDbText
 73
2
  0
TEXT
  5
1AE
330
17
100
AcDbEntity
  8
08_ТЕКСТ
100
AcDbText
 10
32700.0
 20
-26100.0
 30
0.0
 40
500.0
  1
0.55…2.20
  7
ГОСТ
 11
32700.0
 21
-26100.0
 31
0.0
100
AcDbText
 73
2
  0
TEXT
  5
1AF
330
17
100
AcDbEntity
  8
08_ТЕКСТ
100
AcDbText
 10
37500.0
 20
-26100.0
 30
0.0
 40
500.0
  1
15.0
  7
ГОСТ
 11
37500.0
 21
-26100.0
 31
0.0
100
AcDbText
 73
2
  0
TEXT
  5
1B0
330
17
100
AcDbEntity
  8
08_ТЕКСТ
100
AcDbText
 10
300.0
 20
-27100.0
 30
0.0
 40
500.0
  1
11
  7
ГОСТ
 11
300.0
 21
-27100.0
 31
0.0
100
AcDbText
 73
2
  0
TEXT
  5
1B1
330
17
100
AcDbEntity
  8
08_ТЕКСТ
100
AcDbText
 10
2300.0
 20
-27100.0
 30
0.0
 40
500.0
  1
ЛВ-1
  7
ГОСТ
 11
2300.0
 21
-27100.0
 31
0.0
100
AcDbText
 73
2
  0
TEXT
  5
1B2
330
17
100
AcDbEntity
  8
08_ТЕКСТ
100
AcDbText
 10
5500.0
 20
-27100.0
 30
0.0
 40
500.0
  1
Льяльные воды
  7
ГОСТ
 11
5500.0
 21
-27100.0
 31
0.0
100
AcDbText
 73
2
  0
TEXT
  5
1B3
330
17
100
AcDbEntity
  8
08_ТЕКСТ
100
AcDbText
 10
24700.0
 20
-27100.0
 30
0.0
 40
500.0
  1
ДП
  7
ГОСТ
 11
24700.0
 21
-27100.0
 31
0.0
100
AcDbText
 73
2
  0
TEXT
  5
1B4
330
17
100
AcDbEntity
  8
08_ТЕКСТ
100
AcDbText
 10
27500.0
 20
-27100.0
 30
0.0
 40
500.0
  1
30.0…34.0
  7
ГОСТ
 11
27500.0
 21
-27100.0
 31
0.0
100
AcDbText
 73
2
  0
TEXT
  5
1B5
330
17
100
AcDbEntity
  8
08_ТЕКСТ
100
AcDbText
 10
32700.0
 20
-27100.0
 30
0.0
 40
500.0
  1
0.00…0.47
  7
ГОСТ
 11
32700.0
 21
-27100.0
 31
0.0
100
AcDbText
 73
2
  0
TEXT
  5
1B6
330
17
100
AcDbEntity
  8
08_ТЕКСТ
100
AcDbText
 10
37500.0
 20
-27100.0
 30
0.0
 40
500.0
  1
10.0
  7
ГОСТ
 11
37500.0
 21
-27100.0
 31
0.0
100
AcDbText
 73
2
  0
TEXT
  5
1B7
330
17
100
AcDbEntity
  8
08_ТЕКСТ
100
AcDbText
 10
300.0
 20
-28100.0
 30
0.0
 40
500.0
  1
12
  7
ГОСТ
 11
300.0
 21
-28100.0
 31
0.0
100
AcDbText
 73
2
  0
TEXT
  5
1B8
330
17
100
AcDbEntity
  8
08_ТЕКСТ
100
AcDbText
 10
2300.0
 20
-28100.0
 30
0.0
 40
500.0
  1
М-1
  7
ГОСТ
 11
2300.0
 21
-28100.0
 31
0.0
100
AcDbText
 73
2
  0
TEXT
  5
1B9
330
17
100
AcDbEntity
  8
08_ТЕКСТ
100
AcDbText
 10
5500.0
 20
-28100.0
 30
0.0
 40
500.0
  1
Масло циркуляционное
  7
ГОСТ
 11
5500.0
 21
-28100.0
 31
0.0
100
AcDbText
 73
2
  0
TEXT
  5
1BA
330
17
100
AcDbEntity
  8
08_ТЕКСТ
100
AcDbText
 10
24700.0
 20
-28100.0
 30
0.0
 40
500.0
  1
ЛБ
  7
ГОСТ
 11
24700.0
 21
-28100.0
 31
0.0
100
AcDbText
 73
2
  0
TEXT
  5
1BB
330
17
100
AcDbEntity
  8
08_ТЕКСТ
100
AcDbText
 10
27500.0
 20
-28100.0
 30
0.0
 40
500.0
  1
22.0…26.0
  7
ГОСТ
 11
27500.0
 21
-28100.0
 31
0.0
100
AcDbText
 73
2
  0
TEXT
  5
1BC
330
17
100
AcDbEntity
  8
08_ТЕКСТ
100
AcDbText
 10
32700.0
 20
-28100.0
 30
0.0
 40
500.0
  1
0.55…2.20
  7
ГОСТ
 11
32700.0
 21
-28100.0
 31
0.0
100
AcDbText
 73
2
  0
TEXT
  5
1BD
330
17
100
AcDbEntity
  8
08_ТЕКСТ
100
AcDbText
 10
37500.0
 20
-28100.0
 30
0.0
 40
500.0
  1
8.0
  7
ГОСТ
 11
37500.0
 21
-28100.0
 31
0.0
100
AcDbText
 73
2
  0
TEXT
  5
1BE
330
17
100
AcDbEntity
  8
08_ТЕКСТ
100
AcDbText
 10
300.0
 20
-29100.0
 30
0.0
 40
500.0
  1
13
  7
ГОСТ
 11
300.0
 21
-29100.0
 31
0.0
100
AcDbText
 73
2
  0
TEXT
  5
1BF
330
17
100
AcDbEntity
  8
08_ТЕКСТ
100
AcDbText
 10
2300.0
 20
-29100.0
 30
0.0
 40
500.0
  1
М-2
  7
ГОСТ
 11
2300.0
 21
-29100.0
 31
0.0
100
AcDbText
 73
2
  0
TEXT
  5
1C0
330
17
100
AcDbEntity
  8
08_ТЕКСТ
100
AcDbText
 10
5500.0
 20
-29100.0
 30
0.0
 40
500.0
  1
Масло отработанное
  7
ГОСТ
 11
5500.0
 21
-29100.0
 31
0.0
100
AcDbText
 73
2
  0
TEXT
  5
1C1
330
17
100
AcDbEntity
  8
08_ТЕКСТ
100
AcDbText
 10
24700.0
 20
-29100.0
 30
0.0
 40
500.0
  1
ЛБ
  7
ГОСТ
 11
24700.0
 21
-29100.0
 31
0.0
100
AcDbText
 73
2
  0
TEXT
  5
1C2
330
17
100
AcDbEntity
  8
08_ТЕКСТ
100
AcDbText
 10
27500.0
 20
-29100.0
 30
0.0
 40
500.0
  1
26.0…29.0
  7
ГОСТ
 11
27500.0
 21
-29100.0
 31
0.0
100
AcDbText
 73
2
  0
TEXT
  5
1C3
330
17
100
AcDbEntity
  8
08_ТЕКСТ
100
AcDbText
 10
32700.0
 20
-29100.0
 30
0.0
 40
500.0
  1
0.55…2.20
  7
ГОСТ
 11
32700.0
 21
-29100.0
 31
0.0
100
AcDbText
 73
2
  0
TEXT
  5
1C4
330
17
100
AcDbEntity
  8
08_ТЕКСТ
100
AcDbText
 10
37500.0
 20
-29100.0
 30
0.0
 40
500.0
  1
8.0
  7
ГОСТ
 11
37500.0
 21
-29100.0
 31
0.0
100
AcDbText
 73
2
  0
TEXT
  5
1C5
330
17
100
AcDbEntity
  8
08_ТЕКСТ
100
AcDbText
 10
300.0
 20
-30100.0
 30
0.0
 40
500.0
  1
14
  7
ГОСТ
 11
300.0
 21
-30100.0
 31
0.0
100
AcDbText
 73
2
  0
TEXT
  5
1C6
330
17
100
AcDbEntity
  8
08_ТЕКСТ
100
AcDbText
 10
2300.0
 20
-30100.0
 30
0.0
 40
500.0
  1
ОС-1
  7
ГОСТ
 11
2300.0
 21
-30100.0
 31
0.0
100
AcDbText
 73
2
  0
TEXT
  5
1C7
330
17
100
AcDbEntity
  8
08_ТЕКСТ
100
AcDbText
 10
5500.0
 20
-30100.0
 30
0.0
 40
500.0
  1
Очищенная серая (мытьё палуб)
  7
ГОСТ
 11
5500.0
 21
-30100.0
 31
0.0
100
AcDbText
 73
2
  0
TEXT
  5
1C8
330
17
100
AcDbEntity
  8
08_ТЕКСТ
100
AcDbText
 10
24700.0
 20
-30100.0
 30
0.0
 40
500.0
  1
ДП
  7
ГОСТ
 11
24700.0
 21
-30100.0
 31
0.0
100
AcDbText
 73
2
  0
TEXT
  5
1C9
330
17
100
AcDbEntity
  8
08_ТЕКСТ
100
AcDbText
 10
27500.0
 20
-30100.0
 30
0.0
 40
500.0
  1
78.0…81.0
  7
ГОСТ
 11
27500.0
 21
-30100.0
 31
0.0
100
AcDbText
 73
2
  0
TEXT
  5
1CA
330
17
100
AcDbEntity
  8
08_ТЕКСТ
100
AcDbText
 10
32700.0
 20
-30100.0
 30
0.0
 40
500.0
  1
0.00…1.30
  7
ГОСТ
 11
32700.0
 21
-30100.0
 31
0.0
100
AcDbText
 73
2
  0
TEXT
  5
1CB
330
17
100
AcDbEntity
  8
08_ТЕКСТ
100
AcDbText
 10
37500.0
 20
-30100.0
 30
0.0
 40
500.0
  1
30.0
  7
ГОСТ
 11
37500.0
 21
-30100.0
 31
0.0
100
AcDbText
 73
2
  0
TEXT
  5
1CC
330
17
100
AcDbEntity
  8
08_ТЕКСТ
100
AcDbText
 10
300.0
 20
-31100.0
 30
0.0
 40
500.0
  1
15
  7
ГОСТ
 11
300.0
 21
-31100.0
 31
0.0
100
AcDbText
 73
2
  0
TEXT
  5
1CD
330
17
100
AcDbEntity
  8
08_ТЕКСТ
100
AcDbText
 10
2300.0
 20
-31100.0
 30
0.0
 40
500.0
  1
ОЧ-1
  7
ГОСТ
 11
2300.0
 21
-31100.0
 31
0.0
100
AcDbText
 73
2
  0
TEXT
  5
1CE
330
17
100
AcDbEntity
  8
08_ТЕКСТ
100
AcDbText
 10
5500.0
 20
-31100.0
 30
0.0
 40
500.0
  1
Очищенная чёрная (на смыв)
  7
ГОСТ
 11
5500.0
 21
-31100.0
 31
0.0
100
AcDbText
 73
2
  0
TEXT
  5
1CF
330
17
100
AcDbEntity
  8
08_ТЕКСТ
100
AcDbText
 10
24700.0
 20
-31100.0
 30
0.0
 40
500.0
  1
ДП
  7
ГОСТ
 11
24700.0
 21
-31100.0
 31
0.0
100
AcDbText
 73
2
  0
TEXT
  5
1D0
330
17
100
AcDbEntity
  8
08_ТЕКСТ
100
AcDbText
 10
27500.0
 20
-31100.0
 30
0.0
 40
500.0
  1
72.0…74.0
  7
ГОСТ
 11
27500.0
 21
-31100.0
 31
0.0
100
AcDbText
 73
2
  0
TEXT
  5
1D1
330
17
100
AcDbEntity
  8
08_ТЕКСТ
100
AcDbText
 10
32700.0
 20
-31100.0
 30
0.0
 40
500.0
  1
0.00…1.30
  7
ГОСТ
 11
32700.0
 21
-31100.0
 31
0.0
100
AcDbText
 73
2
  0
TEXT
  5
1D2
330
17
100
AcDbEntity
  8
08_ТЕКСТ
100
AcDbText
 10
37500.0
 20
-31100.0
 30
0.0
 40
500.0
  1
10.0
  7
ГОСТ
 11
37500.0
 21
-31100.0
 31
0.0
100
AcDbText
 73
2
  0
TEXT
  5
1D3
330
17
100
AcDbEntity
  8
08_ТЕКСТ
100
AcDbText
 10
300.0
 20
-32100.0
 30
0.0
 40
500.0
  1
16
  7
ГОСТ
 11
300.0
 21
-32100.0
 31
0.0
100
AcDbText
 73
2
  0
TEXT
  5
1D4
330
17
100
AcDbEntity
  8
08_ТЕКСТ
100
AcDbText
 10
2300.0
 20
-32100.0
 30
0.0
 40
500.0
  1
ПВ-1
  7
ГОСТ
 11
2300.0
 21
-32100.0
 31
0.0
100
AcDbText
 73
2
  0
TEXT
  5
1D5
330
17
100
AcDbEntity
  8
08_ТЕКСТ
100
AcDbText
 10
5500.0
 20
-32100.0
 30
0.0
 40
500.0
  1
Пресная вода
  7
ГОСТ
 11
5500.0
 21
-32100.0
 31
0.0
100
AcDbText
 73
2
  0
TEXT
  5
1D6
330
17
100
AcDbEntity
  8
08_ТЕКСТ
100
AcDbText
 10
24700.0
 20
-32100.0
 30
0.0
 40
500.0
  1
ПрБ
  7
ГОСТ
 11
24700.0
 21
-32100.0
 31
0.0
100
AcDbText
 73
2
  0
TEXT
  5
1D7
330
17
100
AcDbEntity
  8
08_ТЕКСТ
100
AcDbText
 10
27500.0
 20
-32100.0
 30
0.0
 40
500.0
  1
58.0…80.0
  7
ГОСТ
 11
27500.0
 21
-32100.0
 31
0.0
100
AcDbText
 73
2
  0
TEXT
  5
1D8
330
17
100
AcDbEntity
  8
08_ТЕКСТ
100
AcDbText
 10
32700.0
 20
-32100.0
 30
0.0
 40
500.0
  1
0.00…1.30
  7
ГОСТ
 11
32700.0
 21
-32100.0
 31
0.0
100
AcDbText
 73
2
  0
TEXT
  5
1D9
330
17
100
AcDbEntity
  8
08_ТЕКСТ
100
AcDbText
 10
37500.0
 20
-32100.0
 30
0.0
 40
500.0
  1
95.0
  7
ГОСТ
 11
37500.0
 21
-32100.0
 31
0.0
100
AcDbText
 73
2
  0
TEXT
  5
1DA
330
17
100
AcDbEntity
  8
08_ТЕКСТ
100
AcDbText
 10
300.0
 20
-33100.0
 30
0.0
 40
500.0
  1
17
  7
ГОСТ
 11
300.0
 21
-33100.0
 31
0.0
100
AcDbText
 73
2
  0
TEXT
  5
1DB
330
17
100
AcDbEntity
  8
08_ТЕКСТ
100
AcDbText
 10
2300.0
 20
-33100.0
 30
0.0
 40
500.0
  1
ПВ-1
  7
ГОСТ
 11
2300.0
 21
-33100.0
 31
0.0
100
AcDbText
 73
2
  0
TEXT
  5
1DC
330
17
100
AcDbEntity
  8
08_ТЕКСТ
100
AcDbText
 10
5500.0
 20
-33100.0
 30
0.0
 40
500.0
  1
Пресная вода
  7
ГОСТ
 11
5500.0
 21
-33100.0
 31
0.0
100
AcDbText
 73
2
  0
TEXT
  5
1DD
330
17
100
AcDbEntity
  8
08_ТЕКСТ
100
AcDbText
 10
24700.0
 20
-33100.0
 30
0.0
 40
500.0
  1
ЛБ
  7
ГОСТ
 11
24700.0
 21
-33100.0
 31
0.0
100
AcDbText
 73
2
  0
TEXT
  5
1DE
330
17
100
AcDbEntity
  8
08_ТЕКСТ
100
AcDbText
 10
27500.0
 20
-33100.0
 30
0.0
 40
500.0
  1
58.0…80.0
  7
ГОСТ
 11
27500.0
 21
-33100.0
 31
0.0
100
AcDbText
 73
2
  0
TEXT
  5
1DF
330
17
100
AcDbEntity
  8
08_ТЕКСТ
100
AcDbText
 10
32700.0
 20
-33100.0
 30
0.0
 40
500.0
  1
0.00…1.30
  7
ГОСТ
 11
32700.0
 21
-33100.0
 31
0.0
100
AcDbText
 73
2
  0
TEXT
  5
1E0
330
17
100
AcDbEntity
  8
08_ТЕКСТ
100
AcDbText
 10
37500.0
 20
-33100.0
 30
0.0
 40
500.0
  1
95.0
  7
ГОСТ
 11
37500.0
 21
-33100.0
 31
0.0
100
AcDbText
 73
2
  0
TEXT
  5
1E1
330
17
100
AcDbEntity
  8
08_ТЕКСТ
100
AcDbText
 10
300.0
 20
-34100.0
 30
0.0
 40
500.0
  1
18
  7
ГОСТ
 11
300.0
 21
-34100.0
 31
0.0
100
AcDbText
 73
2
  0
TEXT
  5
1E2
330
17
100
AcDbEntity
  8
08_ТЕКСТ
100
AcDbText
 10
2300.0
 20
-34100.0
 30
0.0
 40
500.0
  1
СС-1
  7
ГОСТ
 11
2300.0
 21
-34100.0
 31
0.0
100
AcDbText
 73
2
  0
TEXT
  5
1E3
330
17
100
AcDbEntity
  8
08_ТЕКСТ
100
AcDbText
 10
5500.0
 20
-34100.0
 30
0.0
 40
500.0
  1
Буферная серых стоков
  7
ГОСТ
 11
5500.0
 21
-34100.0
 31
0.0
100
AcDbText
 73
2
  0
TEXT
  5
1E4
330
17
100
AcDbEntity
  8
08_ТЕКСТ
100
AcDbText
 10
24700.0
 20
-34100.0
 30
0.0
 40
500.0
  1
ДП
  7
ГОСТ
 11
24700.0
 21
-34100.0
 31
0.0
100
AcDbText
 73
2
  0
TEXT
  5
1E5
330
17
100
AcDbEntity
  8
08_ТЕКСТ
100
AcDbText
 10
27500.0
 20
-34100.0
 30
0.0
 40
500.0
  1
76.0…78.0
  7
ГОСТ
 11
27500.0
 21
-34100.0
 31
0.0
100
AcDbText
 73
2
  0
TEXT
  5
1E6
330
17
100
AcDbEntity
  8
08_ТЕКСТ
100
AcDbText
 10
32700.0
 20
-34100.0
 30
0.0
 40
500.0
  1
0.00…1.30
  7
ГОСТ
 11
32700.0
 21
-34100.0
 31
0.0
100
AcDbText
 73
2
  0
TEXT
  5
1E7
330
17
100
AcDbEntity
  8
08_ТЕКСТ
100
AcDbText
 10
37500.0
 20
-34100.0
 30
0.0
 40
500.0
  1
20.0
  7
ГОСТ
 11
37500.0
 21
-34100.0
 31
0.0
100
AcDbText
 73
2
  0
TEXT
  5
1E8
330
17
100
AcDbEntity
  8
08_ТЕКСТ
100
AcDbText
 10
300.0
 20
-35100.0
 30
0.0
 40
500.0
  1
19
  7
ГОСТ
 11
300.0
 21
-35100.0
 31
0.0
100
AcDbText
 73
2
  0
TEXT
  5
1E9
330
17
100
AcDbEntity
  8
08_ТЕКСТ
100
AcDbText
 10
2300.0
 20
-35100.0
 30
0.0
 40
500.0
  1
СЧ-1
  7
ГОСТ
 11
2300.0
 21
-35100.0
 31
0.0
100
AcDbText
 73
2
  0
TEXT
  5
1EA
330
17
100
AcDbEntity
  8
08_ТЕКСТ
100
AcDbText
 10
5500.0
 20
-35100.0
 30
0.0
 40
500.0
  1
Буферная чёрных стоков
  7
ГОСТ
 11
5500.0
 21
-35100.0
 31
0.0
100
AcDbText
 73
2
  0
TEXT
  5
1EB
330
17
100
AcDbEntity
  8
08_ТЕКСТ
100
AcDbText
 10
24700.0
 20
-35100.0
 30
0.0
 40
500.0
  1
ДП
  7
ГОСТ
 11
24700.0
 21
-35100.0
 31
0.0
100
AcDbText
 73
2
  0
TEXT
  5
1EC
330
17
100
AcDbEntity
  8
08_ТЕКСТ
100
AcDbText
 10
27500.0
 20
-35100.0
 30
0.0
 40
500.0
  1
70.0…72.0
  7
ГОСТ
 11
27500.0
 21
-35100.0
 31
0.0
100
AcDbText
 73
2
  0
TEXT
  5
1ED
330
17
100
AcDbEntity
  8
08_ТЕКСТ
100
AcDbText
 10
32700.0
 20
-35100.0
 30
0.0
 40
500.0
  1
0.00…1.30
  7
ГОСТ
 11
32700.0
 21
-35100.0
 31
0.0
100
AcDbText
 73
2
  0
TEXT
  5
1EE
330
17
100
AcDbEntity
  8
08_ТЕКСТ
100
AcDbText
 10
37500.0
 20
-35100.0
 30
0.0
 40
500.0
  1
5.0
  7
ГОСТ
 11
37500.0
 21
-35100.0
 31
0.0
100
AcDbText
 73
2
  0
TEXT
  5
1EF
330
17
100
AcDbEntity
  8
08_ТЕКСТ
100
AcDbText
 10
300.0
 20
-36100.0
 30
0.0
 40
500.0
  1
20
  7
ГОСТ
 11
300.0
 21
-36100.0
 31
0.0
100
AcDbText
 73
2
  0
TEXT
  5
1F0
330
17
100
AcDbEntity
  8
08_ТЕКСТ
100
AcDbText
 10
2300.0
 20
-36100.0
 30
0.0
 40
500.0
  1
ТВ-1
  7
ГОСТ
 11
2300.0
 21
-36100.0
 31
0.0
100
AcDbText
 73
2
  0
TEXT
  5
1F1
330
17
100
AcDbEntity
  8
08_ТЕКСТ
100
AcDbText
 10
5500.0
 20
-36100.0
 30
0.0
 40
500.0
  1
Техническая вода
  7
ГОСТ
 11
5500.0
 21
-36100.0
 31
0.0
100
AcDbText
 73
2
  0
TEXT
  5
1F2
330
17
100
AcDbEntity
  8
08_ТЕКСТ
100
AcDbText
 10
24700.0
 20
-36100.0
 30
0.0
 40
500.0
  1
ДП
  7
ГОСТ
 11
24700.0
 21
-36100.0
 31
0.0
100
AcDbText
 73
2
  0
TEXT
  5
1F3
330
17
100
AcDbEntity
  8
08_ТЕКСТ
100
AcDbText
 10
27500.0
 20
-36100.0
 30
0.0
 40
500.0
  1
74.0…76.0
  7
ГОСТ
 11
27500.0
 21
-36100.0
 31
0.0
100
AcDbText
 73
2
  0
TEXT
  5
1F4
330
17
100
AcDbEntity
  8
08_ТЕКСТ
100
AcDbText
 10
32700.0
 20
-36100.0
 30
0.0
 40
500.0
  1
0.00…1.30
  7
ГОСТ
 11
32700.0
 21
-36100.0
 31
0.0
100
AcDbText
 73
2
  0
TEXT
  5
1F5
330
17
100
AcDbEntity
  8
08_ТЕКСТ
100
AcDbText
 10
37500.0
 20
-36100.0
 30
0.0
 40
500.0
  1
20.0
  7
ГОСТ
 11
37500.0
 21
-36100.0
 31
0.0
100
AcDbText
 73
2
  0
TEXT
  5
1F6
330
17
100
AcDbEntity
  8
08_ТЕКСТ
100
AcDbText
 10
300.0
 20
-37100.0
 30
0.0
 40
500.0
  1
21
  7
ГОСТ
 11
300.0
 21
-37100.0
 31
0.0
100
AcDbText
 73
2
  0
TEXT
  5
1F7
330
17
100
AcDbEntity
  8
08_ТЕКСТ
100
AcDbText
 10
2300.0
 20
-37100.0
 30
0.0
 40
500.0
  1
Ш-1
  7
ГОСТ
 11
2300.0
 21
-37100.0
 31
0.0
100
AcDbText
 73
2
  0
TEXT
  5
1F8
330
17
100
AcDbEntity
  8
08_ТЕКСТ
100
AcDbText
 10
5500.0
 20
-37100.0
 30
0.0
 40
500.0
  1
Шлам
  7
ГОСТ
 11
5500.0
 21
-37100.0
 31
0.0
100
AcDbText
 73
2
  0
TEXT
  5
1F9
330
17
100
AcDbEntity
  8
08_ТЕКСТ
100
AcDbText
 10
24700.0
 20
-37100.0
 30
0.0
 40
500.0
  1
ЛБ
  7
ГОСТ
 11
24700.0
 21
-37100.0
 31
0.0
100
AcDbText
 73
2
  0
TEXT
  5
1FA
330
17
100
AcDbEntity
  8
08_ТЕКСТ
100
AcDbText
 10
27500.0
 20
-37100.0
 30
0.0
 40
500.0
  1
29.0…32.0
  7
ГОСТ
 11
27500.0
 21
-37100.0
 31
0.0
100
AcDbText
 73
2
  0
TEXT
  5
1FB
330
17
100
AcDbEntity
  8
08_ТЕКСТ
100
AcDbText
 10
32700.0
 20
-37100.0
 30
0.0
 40
500.0
  1
0.55…2.20
  7
ГОСТ
 11
32700.0
 21
-37100.0
 31
0.0
100
AcDbText
 73
2
  0
TEXT
  5
1FC
330
17
100
AcDbEntity
  8
08_ТЕКСТ
100
AcDbText
 10
37500.0
 20
-37100.0
 30
0.0
 40
500.0
  1
5.0
  7
ГОСТ
 11
37500.0
 21
-37100.0
 31
0.0
100
AcDbText
 73
2
  0
LWPOLYLINE
  5
1FD
330
17
100
AcDbEntity
  8
00_РАМКА
100
AcDbPolyline
 90
4
 70
1
 10
-12600.0
 20
-74400.0
 10
155600.0
 20
-74400.0
 10
155600.0
 20
44400.0
 10
-12600.0
 20
44400.0
  0
LWPOLYLINE
  5
1FE
330
17
100
AcDbEntity
  8
00_РАМКА
100
AcDbPolyline
 90
4
 70
1
 10
-8600.0
 20
-73400.0
 10
154600.0
 20
-73400.0
 10
154600.0
 20
43400.0
 10
-8600.0
 20
43400.0
  0
LWPOLYLINE
  5
1FF
330
17
100
AcDbEntity
  8
00_РАМКА
100
AcDbPolyline
 90
4
 70
1
 10
117600.0
 20
-73400.0
 10
154600.0
 20
-73400.0
 10
154600.0
 20
-62400.0
 10
117600.0
 20
-62400.0
  0
LINE
  5
200
330
17
100
AcDbEntity
  8
00_РАМКА
100
AcDbLine
 10
117600.0
 20
-71000.0
 30
0.0
 11
154600.0
 21
-71000.0
 31
0.0
  0
LINE
  5
201
330
17
100
AcDbEntity
  8
00_РАМКА
100
AcDbLine
 10
117600.0
 20
-68600.0
 30
0.0
 11
154600.0
 21
-68600.0
 31
0.0
  0
LINE
  5
202
330
17
100
AcDbEntity
  8
00_РАМКА
100
AcDbLine
 10
117600.0
 20
-66200.0
 30
0.0
 11
154600.0
 21
-66200.0
 31
0.0
  0
LINE
  5
203
330
17
100
AcDbEntity
  8
00_РАМКА
100
AcDbLine
 10
141600.0
 20
-73400.0
 30
0.0
 11
141600.0
 21
-66200.0
 31
0.0
  0
TEXT
  5
204
330
17
100
AcDbEntity
  8
08_ТЕКСТ
100
AcDbText
 10
118200.0
 20
-64300.0
 30
0.0
 40
1000.0
  1
Второе дно и трюм. План цистерн
  7
ГОСТ
 11
118200.0
 21
-64300.0
 31
0.0
100
AcDbText
 73
2
  0
TEXT
  5
205
330
17
100
AcDbEntity
  8
08_ТЕКСТ
100
AcDbText
 10
118200.0
 20
-67400.0
 30
0.0
 40
500.0
  1
Волжский Горизонт · 17 цистерн · 1032 м3
  7
ГОСТ
 11
118200.0
 21
-67400.0
 31
0.0
100
AcDbText
 73
2
  0
TEXT
  5
206
330
17
100
AcDbEntity
  8
08_ТЕКСТ
100
AcDbText
 10
118200.0
 20
-69800.0
 30
0.0
 40
900.0
  1
ВГ-2026 ярус 0 второе дно
  7
ГОСТ
 11
118200.0
 21
-69800.0
 31
0.0
100
AcDbText
 73
2
  0
TEXT
  5
207
330
17
100
AcDbEntity
  8
08_ТЕКСТ
100
AcDbText
 10
142200.0
 20
-69800.0
 30
0.0
 40
700.0
  1
Масштаб 1 : 200
  7
ГОСТ
 11
142200.0
 21
-69800.0
 31
0.0
100
AcDbText
 73
2
  0
TEXT
  5
208
330
17
100
AcDbEntity
  8
08_ТЕКСТ
100
AcDbText
 10
118200.0
 20
-72200.0
 30
0.0
 40
500.0
  1
Сталь 09Г2С ГОСТ 19281-2014
  7
ГОСТ
 11
118200.0
 21
-72200.0
 31
0.0
100
AcDbText
 73
2
  0
TEXT
  5
209
330
17
100
AcDbEntity
  8
08_ТЕКСТ
100
AcDbText
 10
142200.0
 20
-72200.0
 30
0.0
 40
600.0
  1
Формат A1
  7
ГОСТ
 11
142200.0
 21
-72200.0
 31
0.0
100
AcDbText
 73
2
  0
TEXT
  5
20A
330
17
100
AcDbEntity
  8
08_ТЕКСТ
100
AcDbText
 10
118200.0
 20
-61600.0
 30
0.0
 40
600.0
  1
УЖЦ ОСК 2026 · «Волжский Горизонт»
  7
ГОСТ
 11
118200.0
 21
-61600.0
 31
0.0
100
AcDbText
 73
2
  0
TEXT
  5
20B
330
17
100
AcDbEntity
  8
08_ТЕКСТ
100
AcDbText
 10
118200.0
 20
-54200.0
 30
0.0
 40
500.0
  1
1. Второе дно — от обшивки до настила первой палубы, z = 0…1,30 м.
  7
ГОСТ
 11
118200.0
 21
-54200.0
 31
0.0
100
AcDbText
 73
2
  0
TEXT
  5
20C
330
17
100
AcDbEntity
  8
08_ТЕКСТ
100
AcDbText
 10
118200.0
 20
-55200.0
 30
0.0
 40
500.0
  1
2. В машинном отделении второе дно опущено до 0,465 м; расходные, отстойные
  7
ГОСТ
 11
118200.0
 21
-55200.0
 31
0.0
100
AcDbText
 73
2
  0
TEXT
  5
20D
330
17
100
AcDbEntity
  8
08_ТЕКСТ
100
AcDbText
 10
118200.0
 20
-56200.0
 30
0.0
 40
500.0
  1
3. и масляные цистерны стоят там бортовыми выше настила.
  7
ГОСТ
 11
118200.0
 21
-56200.0
 31
0.0
100
AcDbText
 73
2
  0
TEXT
  5
20E
330
17
100
AcDbEntity
  8
08_ТЕКСТ
100
AcDbText
 10
118200.0
 20
-57200.0
 30
0.0
 40
500.0
  1
4. Продольные переборки y = ±4,15 м; вертикальный киль по ДП делит
  7
ГОСТ
 11
118200.0
 21
-57200.0
 31
0.0
100
AcDbText
 73
2
  0
TEXT
  5
20F
330
17
100
AcDbEntity
  8
08_ТЕКСТ
100
AcDbText
 10
118200.0
 20
-58200.0
 30
0.0
 40
500.0
  1
5. центральные цистерны на пару — вдвое меньше свободная поверхность.
  7
ГОСТ
 11
118200.0
 21
-58200.0
 31
0.0
100
AcDbText
 73
2
  0
TEXT
  5
210
330
17
100
AcDbEntity
  8
08_ТЕКСТ
100
AcDbText
 10
118200.0
 20
-59200.0
 30
0.0
 40
500.0
  1
6. Всего 17 цистерн, 1032.5 м3, масса содержимого при полном запасе 989.4 т.
  7
ГОСТ
 11
118200.0
 21
-59200.0
 31
0.0
100
AcDbText
 73
2
  0
TEXT
  5
211
330
17
100
AcDbEntity
  8
08_ТЕКСТ
100
AcDbText
 10
118200.0
 20
-60200.0
 30
0.0
 40
500.0
  1
7. Цистерна ДТ-4 (аварийный ДГ, 5 м3) вынесена на шлюпочную палубу.
  7
ГОСТ
 11
118200.0
 21
-60200.0
 31
0.0
100
AcDbText
 73
2
  0
TEXT
  5
212
330
17
100
AcDbEntity
  8
08_ТЕКСТ
100
AcDbText
 10
118200.0
 20
-52900.0
 30
0.0
 40
700.0
  1
Технические требования
  7
ГОСТ
 11
118200.0
 21
-52900.0
 31
0.0
100
AcDbText
 73
2
  0
ENDSEC
  0
SECTION
  2
OBJECTS
  0
DICTIONARY
  5
A
330
0
100
AcDbDictionary
281
1
  3
ACAD_COLOR
350
B
  3
ACAD_GROUP
350
C
  3
ACAD_LAYOUT
350
D
  3
ACAD_MATERIAL
350
E
  3
ACAD_MLEADERSTYLE
350
F
  3
ACAD_MLINESTYLE
350
10
  3
ACAD_PLOTSETTINGS
350
11
  3
ACAD_PLOTSTYLENAME
350
12
  3
ACAD_SCALELIST
350
14
  3
ACAD_TABLESTYLE
350
15
  3
ACAD_VISUALSTYLE
350
16
  3
EZDXF_META
350
2D
  0
DICTIONARY
  5
B
330
A
100
AcDbDictionary
281
1
  0
DICTIONARY
  5
C
330
A
100
AcDbDictionary
281
1
  0
DICTIONARY
  5
D
330
A
100
AcDbDictionary
281
1
  3
Model
350
1A
  3
Layout1
350
1E
  0
DICTIONARY
  5
E
330
A
100
AcDbDictionary
281
1
  3
ByBlock
350
1F
  3
ByLayer
350
20
  3
Global
350
21
  0
DICTIONARY
  5
F
330
A
100
AcDbDictionary
281
1
  3
Standard
350
2C
  0
DICTIONARY
  5
10
330
A
100
AcDbDictionary
281
1
  3
Standard
350
22
  0
DICTIONARY
  5
11
330
A
100
AcDbDictionary
281
1
  0
ACDBDICTIONARYWDFLT
  5
12
330
A
100
AcDbDictionary
281
1
  3
Normal
350
13
100
AcDbDictionaryWithDefault
340
13
  0
ACDBPLACEHOLDER
  5
13
330
12
  0
DICTIONARY
  5
14
330
A
100
AcDbDictionary
281
1
  0
DICTIONARY
  5
15
330
A
100
AcDbDictionary
281
1
  0
DICTIONARY
  5
16
330
A
100
AcDbDictionary
281
1
  3
2dWireframe
350
5A
  3
Basic
350
5B
  3
Brighten
350
5C
  3
ColorChange
350
5D
  3
Conceptual
350
5E
  3
Dim
350
5F
  3
EdgeColorOff
350
60
  3
Facepattern
350
61
  3
Flat
350
62
  3
FlatWithEdges
350
63
  3
Gouraud
350
64
  3
GouraudWithEdges
350
65
  3
Hidden
350
66
  3
JitterOff
350
67
  3
Linepattern
350
68
  3
Modeling
350
69
  3
OverhangOff
350
6A
  3
Realistic
350
6B
  3
Shaded
350
6C
  3
Shaded with edges
350
6D
  3
Shades of Gray
350
6E
  3
Sketchy
350
6F
  3
Thicken
350
70
  3
Wireframe
350
71
  3
X-Ray
350
72
  0
LAYOUT
  5
1A
330
D
100
AcDbPlotSettings
  1

  4
A3
  6

 40
7.5
 41
20.0
 42
7.5
 43
20.0
 44
420.0
 45
297.0
 46
0.0
 47
0.0
 48
0.0
 49
0.0
140
0.0
141
0.0
142
1.0
143
1.0
 70
1024
 72
1
 73
0
 74
5
  7

 75
16
 76
0
 77
2
 78
300
147
1.0
148
0.0
149
0.0
100
AcDbLayout
  1
Model
 70
1
 71
0
 10
0.0
 20
0.0
 11
420.0
 21
297.0
 12
0.0
 22
0.0
 32
0.0
 14
1e+20
 24
1e+20
 34
1e+20
 15
-1e+20
 25
-1e+20
 35
-1e+20
146
0.0
 13
0.0
 23
0.0
 33
0.0
 16
1.0
 26
0.0
 36
0.0
 17
0.0
 27
1.0
 37
0.0
 76
1
330
17
  0
LAYOUT
  5
1E
330
D
100
AcDbPlotSettings
  1

  4
A3
  6

 40
7.5
 41
20.0
 42
7.5
 43
20.0
 44
420.0
 45
297.0
 46
0.0
 47
0.0
 48
0.0
 49
0.0
140
0.0
141
0.0
142
1.0
143
1.0
 70
0
 72
1
 73
0
 74
5
  7

 75
16
 76
0
 77
2
 78
300
147
1.0
148
0.0
149
0.0
100
AcDbLayout
  1
Layout1
 70
1
 71
1
 10
0.0
 20
0.0
 11
420.0
 21
297.0
 12
0.0
 22
0.0
 32
0.0
 14
1e+20
 24
1e+20
 34
1e+20
 15
-1e+20
 25
-1e+20
 35
-1e+20
146
0.0
 13
0.0
 23
0.0
 33
0.0
 16
1.0
 26
0.0
 36
0.0
 17
0.0
 27
1.0
 37
0.0
 76
1
330
1B
  0
MATERIAL
  5
1F
102
{ACAD_REACTORS
330
E
102
}
330
E
100
AcDbMaterial
  1
ByBlock
  2

 70
0
 40
1.0
 71
1
 41
1.0
 91
-1023410177
 42
1.0
 72
1
  3

 73
1
 74
1
 75
1
 44
0.5
 73
0
 45
1.0
 46
1.0
 77
1
  4

 78
1
 79
1
170
1
 48
1.0
171
1
  6

172
1
173
1
174
1
140
1.0
141
1.0
175
1
  7

176
1
177
1
178
1
143
1.0
179
1
  8

270
1
271
1
272
1
145
1.0
146
1.0
273
1
  9

274
1
275
1
276
1
 42
1.0
 72
1
  3

 73
1
 74
1
 75
1
 94
63
  0
MATERIAL
  5
20
102
{ACAD_REACTORS
330
E
102
}
330
E
100
AcDbMaterial
  1
ByLayer
  2

 70
0
 40
1.0
 71
1
 41
1.0
 91
-1023410177
 42
1.0
 72
1
  3

 73
1
 74
1
 75
1
 44
0.5
 73
0
 45
1.0
 46
1.0
 77
1
  4

 78
1
 79
1
170
1
 48
1.0
171
1
  6

172
1
173
1
174
1
140
1.0
141
1.0
175
1
  7

176
1
177
1
178
1
143
1.0
179
1
  8

270
1
271
1
272
1
145
1.0
146
1.0
273
1
  9

274
1
275
1
276
1
 42
1.0
 72
1
  3

 73
1
 74
1
 75
1
 94
63
  0
MATERIAL
  5
21
102
{ACAD_REACTORS
330
E
102
}
330
E
100
AcDbMaterial
  1
Global
  2

 70
0
 40
1.0
 71
1
 41
1.0
 91
-1023410177
 42
1.0
 72
1
  3

 73
1
 74
1
 75
1
 44
0.5
 73
0
 45
1.0
 46
1.0
 77
1
  4

 78
1
 79
1
170
1
 48
1.0
171
1
  6

172
1
173
1
174
1
140
1.0
141
1.0
175
1
  7

176
1
177
1
178
1
143
1.0
179
1
  8

270
1
271
1
272
1
145
1.0
146
1.0
273
1
  9

274
1
275
1
276
1
 42
1.0
 72
1
  3

 73
1
 74
1
 75
1
 94
63
  0
MLINESTYLE
  5
22
102
{ACAD_REACTORS
330
10
102
}
330
10
100
AcDbMlineStyle
  2
Standard
 70
0
  3

 62
256
 51
90.0
 52
90.0
 71
2
 49
0.5
 62
256
  6
BYLAYER
 49
-0.5
 62
256
  6
BYLAYER
  0
MLEADERSTYLE
  5
2C
102
{ACAD_REACTORS
330
F
102
}
330
F
100
AcDbMLeaderStyle
179
2
170
2
171
1
172
0
 90
2
 40
0.0
 41
0.0
173
1
 91
-1056964608
 92
-2
290
1
 42
2.0
291
1
 43
8.0
  3
Standard
 44
4.0
300

342
29
174
1
175
1
176
0
178
1
 93
-1056964608
 45
4.0
292
0
297
0
 46
4.0
 94
-1056964608
 47
1.0
 49
1.0
140
1.0
294
1
141
0.0
177
0
142
1.0
295
0
296
0
143
3.75
271
0
272
9
273
9
  0
DICTIONARY
  5
2D
330
A
100
AcDbDictionary
280
1
281
1
  3
CREATED_BY_EZDXF
350
2E
  3
WRITTEN_BY_EZDXF
350
215
  0
DICTIONARYVAR
  5
2E
330
2D
100
DictionaryVariables
280
0
  1
1.4.4 @ 2026-09-17T01:45:36.577096+00:00
  0
VISUALSTYLE
  5
5A
102
{ACAD_REACTORS
330
16
102
}
330
16
100
AcDbVisualStyle
  2
2dWireframe
 70
4
177
3
291
0
 70
58
 90
2
176
1
 90
2
176
1
 90
0
176
1
 90
0
176
1
 40
0.6
176
1
 40
30.0
176
1
 62
7
420
16777215
176
1
 90
1
176
1
 90
4
176
1
 62
7
176
1
 62
257
176
1
 90
1
176
1
 90
1
176
1
 40
1.0
176
1
 90
8
176
1
 62
7
176
1
 40
1.0
176
1
 90
1
176
1
 90
6
176
1
 90
2
176
1
 62
7
176
1
 90
5
176
1
 90
0
176
1
 90
0
176
1
290
0
176
1
 90
1
176
1
 40
0.0
176
1
 90
0
176
1
290
1
176
1
290
1
176
1
290
0
176
1
290
0
176
1
290
0
176
1
290
0
176
1
290
0
176
1
290
0
176
1
290
0
176
1
 90
50
176
1
 40
0.0
176
1
 40
1.0
176
1
 90
0
176
1
 62
18
420
0
176
1
 90
50
176
1
 90
3
176
1
 62
5
420
255
176
1
290
0
176
1
 90
50
176
1
 90
50
176
1
 90
50
176
1
290
0
176
1
 90
50
176
1
 62
256
176
0
 40
1.0
176
0
 90
2
176
1
  1
strokes_ogs.tif
176
1
290
0
176
1
 40
1.0
176
1
 40
1.0
176
1
  0
VISUALSTYLE
  5
5B
102
{ACAD_REACTORS
330
16
102
}
330
16
100
AcDbVisualStyle
  2
Basic
 70
7
177
3
291
1
 70
58
 90
2
176
1
 90
2
176
1
 90
0
176
1
 90
1
176
1
 40
0.6
176
1
 40
30.0
176
1
 62
7
420
16777215
176
1
 90
1
176
1
 90
4
176
1
 62
7
176
1
 62
257
176
1
 90
1
176
1
 90
1
176
1
 40
1.0
176
1
 90
8
176
1
 62
7
176
1
 40
1.0
176
1
 90
1
176
1
 90
6
176
1
 90
2
176
1
 62
7
176
1
 90
5
176
1
 90
0
176
1
 90
0
176
1
290
0
176
1
 90
1
176
1
 40
0.0
176
1
 90
0
176
1
290
0
176
1
290
1
176
1
290
1
176
1
290
0
176
1
290
0
176
1
290
0
176
1
290
0
176
1
290
0
176
1
290
0
176
1
 90
50
176
1
 40
0.0
176
1
 40
1.0
176
1
 90
0
176
1
 62
18
420
0
176
1
 90
50
176
1
 90
3
176
1
 62
5
420
255
176
1
290
0
176
1
 90
50
176
1
 90
50
176
1
 90
50
176
1
290
0
176
1
 90
50
176
1
 62
256
176
0
 40
1.0
176
0
 90
2
176
1
  1
strokes_ogs.tif
176
1
290
0
176
1
 40
1.0
176
1
 40
1.0
176
1
  0
VISUALSTYLE
  5
5C
102
{ACAD_REACTORS
330
16
102
}
330
16
100
AcDbVisualStyle
  2
Brighten
 70
12
177
3
291
1
 70
58
 90
2
176
1
 90
2
176
1
 90
0
176
1
 90
2
176
1
 40
0.6
176
1
 40
30.0
176
1
 62
7
420
16777215
176
1
 90
1
176
1
 90
4
176
1
 62
7
176
1
 62
257
176
1
 90
1
176
1
 90
1
176
1
 40
1.0
176
1
 90
8
176
1
 62
7
176
1
 40
1.0
176
1
 90
1
176
1
 90
6
176
1
 90
2
176
1
 62
7
176
1
 90
5
176
1
 90
0
176
1
 90
0
176
1
290
0
176
1
 90
1
176
1
 40
0.0
176
1
 90
0
176
1
290
0
176
1
290
1
176
1
290
1
176
1
290
0
176
1
290
0
176
1
290
0
176
1
290
0
176
1
290
0
176
1
290
0
176
1
 90
50
176
1
 40
0.0
176
1
 40
1.0
176
1
 90
0
176
1
 62
18
420
0
176
1
 90
50
176
1
 90
3
176
1
 62
5
420
255
176
1
290
0
176
1
 90
50
176
1
 90
50
176
1
 90
50
176
1
290
0
176
1
 90
50
176
1
 62
256
176
0
 40
1.0
176
0
 90
2
176
1
  1
strokes_ogs.tif
176
1
290
0
176
1
 40
1.0
176
1
 40
1.0
176
1
  0
VISUALSTYLE
  5
5D
102
{ACAD_REACTORS
330
16
102
}
330
16
100
AcDbVisualStyle
  2
ColorChange
 70
16
177
3
291
1
 70
58
 90
2
176
1
 90
2
176
1
 90
0
176
1
 90
2
176
1
 40
0.6
176
1
 40
30.0
176
1
 62
7
420
16777215
176
1
 90
1
176
1
 90
4
176
1
 62
7
176
1
 62
257
176
1
 90
1
176
1
 90
1
176
1
 40
1.0
176
1
 90
8
176
1
 62
7
176
1
 40
1.0
176
1
 90
1
176
1
 90
6
176
1
 90
2
176
1
 62
7
176
1
 90
5
176
1
 90
0
176
1
 90
0
176
1
290
0
176
1
 90
1
176
1
 40
0.0
176
1
 90
0
176
1
290
0
176
1
290
1
176
1
290
1
176
1
290
0
176
1
290
0
176
1
290
0
176
1
290
0
176
1
290
0
176
1
290
0
176
1
 90
50
176
1
 40
0.0
176
1
 40
1.0
176
1
 90
0
176
1
 62
18
420
0
176
1
 90
50
176
1
 90
3
176
1
 62
5
420
255
176
1
290
0
176
1
 90
50
176
1
 90
50
176
1
 90
50
176
1
290
0
176
1
 90
50
176
1
 62
256
176
0
 40
1.0
176
0
 90
2
176
1
  1
strokes_ogs.tif
176
1
290
0
176
1
 40
1.0
176
1
 40
1.0
176
1
  0
VISUALSTYLE
  5
5E
102
{ACAD_REACTORS
330
16
102
}
330
16
100
AcDbVisualStyle
  2
Conceptual
 70
9
177
3
291
0
 70
58
 90
2
176
1
 90
2
176
1
 90
0
176
1
 90
3
176
1
 40
0.6
176
1
 40
30.0
176
1
 62
7
420
16777215
176
1
 90
1
176
1
 90
4
176
1
 62
7
176
1
 62
257
176
1
 90
1
176
1
 90
1
176
1
 40
1.0
176
1
 90
8
176
1
 62
7
176
1
 40
1.0
176
1
 90
1
176
1
 90
6
176
1
 90
2
176
1
 62
7
176
1
 90
5
176
1
 90
0
176
1
 90
0
176
1
290
0
176
1
 90
1
176
1
 40
0.0
176
1
 90
0
176
1
290
0
176
1
290
1
176
1
290
1
176
1
290
0
176
1
290
0
176
1
290
0
176
1
290
0
176
1
290
0
176
1
290
0
176
1
 90
50
176
1
 40
0.0
176
1
 40
1.0
176
1
 90
0
176
1
 62
18
420
0
176
1
 90
50
176
1
 90
3
176
1
 62
5
420
255
176
1
290
0
176
1
 90
50
176
1
 90
50
176
1
 90
50
176
1
290
0
176
1
 90
50
176
1
 62
256
176
0
 40
1.0
176
0
 90
2
176
1
  1
strokes_ogs.tif
176
1
290
0
176
1
 40
1.0
176
1
 40
1.0
176
1
  0
VISUALSTYLE
  5
5F
102
{ACAD_REACTORS
330
16
102
}
330
16
100
AcDbVisualStyle
  2
Dim
 70
11
177
3
291
1
 70
58
 90
2
176
1
 90
2
176
1
 90
0
176
1
 90
2
176
1
 40
0.6
176
1
 40
30.0
176
1
 62
7
420
16777215
176
1
 90
1
176
1
 90
4
176
1
 62
7
176
1
 62
257
176
1
 90
1
176
1
 90
1
176
1
 40
1.0
176
1
 90
8
176
1
 62
7
176
1
 40
1.0
176
1
 90
1
176
1
 90
6
176
1
 90
2
176
1
 62
7
176
1
 90
5
176
1
 90
0
176
1
 90
0
176
1
290
0
176
1
 90
1
176
1
 40
0.0
176
1
 90
0
176
1
290
0
176
1
290
1
176
1
290
1
176
1
290
0
176
1
290
0
176
1
290
0
176
1
290
0
176
1
290
0
176
1
290
0
176
1
 90
50
176
1
 40
0.0
176
1
 40
1.0
176
1
 90
0
176
1
 62
18
420
0
176
1
 90
50
176
1
 90
3
176
1
 62
5
420
255
176
1
290
0
176
1
 90
50
176
1
 90
50
176
1
 90
50
176
1
290
0
176
1
 90
50
176
1
 62
256
176
0
 40
1.0
176
0
 90
2
176
1
  1
strokes_ogs.tif
176
1
290
0
176
1
 40
1.0
176
1
 40
1.0
176
1
  0
VISUALSTYLE
  5
60
102
{ACAD_REACTORS
330
16
102
}
330
16
100
AcDbVisualStyle
  2
EdgeColorOff
 70
22
177
3
291
1
 70
58
 90
2
176
1
 90
2
176
1
 90
0
176
1
 90
2
176
1
 40
0.6
176
1
 40
30.0
176
1
 62
7
420
16777215
176
1
 90
1
176
1
 90
4
176
1
 62
7
176
1
 62
257
176
1
 90
1
176
1
 90
1
176
1
 40
1.0
176
1
 90
8
176
1
 62
7
176
1
 40
1.0
176
1
 90
1
176
1
 90
6
176
1
 90
2
176
1
 62
7
176
1
 90
5
176
1
 90
0
176
1
 90
0
176
1
290
0
176
1
 90
1
176
1
 40
0.0
176
1
 90
0
176
1
290
0
176
1
290
1
176
1
290
1
176
1
290
0
176
1
290
0
176
1
290
0
176
1
290
0
176
1
290
0
176
1
290
0
176
1
 90
50
176
1
 40
0.0
176
1
 40
1.0
176
1
 90
0
176
1
 62
18
420
0
176
1
 90
50
176
1
 90
3
176
1
 62
5
420
255
176
1
290
0
176
1
 90
50
176
1
 90
50
176
1
 90
50
176
1
290
0
176
1
 90
50
176
1
 62
256
176
0
 40
1.0
176
0
 90
2
176
1
  1
strokes_ogs.tif
176
1
290
0
176
1
 40
1.0
176
1
 40
1.0
176
1
  0
VISUALSTYLE
  5
61
102
{ACAD_REACTORS
330
16
102
}
330
16
100
AcDbVisualStyle
  2
Facepattern
 70
15
177
3
291
1
 70
58
 90
2
176
1
 90
2
176
1
 90
0
176
1
 90
2
176
1
 40
0.6
176
1
 40
30.0
176
1
 62
7
420
16777215
176
1
 90
1
176
1
 90
4
176
1
 62
7
176
1
 62
257
176
1
 90
1
176
1
 90
1
176
1
 40
1.0
176
1
 90
8
176
1
 62
7
176
1
 40
1.0
176
1
 90
1
176
1
 90
6
176
1
 90
2
176
1
 62
7
176
1
 90
5
176
1
 90
0
176
1
 90
0
176
1
290
0
176
1
 90
1
176
1
 40
0.0
176
1
 90
0
176
1
290
0
176
1
290
1
176
1
290
1
176
1
290
0
176
1
290
0
176
1
290
0
176
1
290
0
176
1
290
0
176
1
290
0
176
1
 90
50
176
1
 40
0.0
176
1
 40
1.0
176
1
 90
0
176
1
 62
18
420
0
176
1
 90
50
176
1
 90
3
176
1
 62
5
420
255
176
1
290
0
176
1
 90
50
176
1
 90
50
176
1
 90
50
176
1
290
0
176
1
 90
50
176
1
 62
256
176
0
 40
1.0
176
0
 90
2
176
1
  1
strokes_ogs.tif
176
1
290
0
176
1
 40
1.0
176
1
 40
1.0
176
1
  0
VISUALSTYLE
  5
62
102
{ACAD_REACTORS
330
16
102
}
330
16
100
AcDbVisualStyle
  2
Flat
 70
0
177
3
291
1
 70
58
 90
2
176
1
 90
2
176
1
 90
0
176
1
 90
2
176
1
 40
0.6
176
1
 40
30.0
176
1
 62
7
420
16777215
176
1
 90
1
176
1
 90
4
176
1
 62
7
176
1
 62
257
176
1
 90
1
176
1
 90
1
176
1
 40
1.0
176
1
 90
8
176
1
 62
7
176
1
 40
1.0
176
1
 90
1
176
1
 90
6
176
1
 90
2
176
1
 62
7
176
1
 90
5
176
1
 90
0
176
1
 90
0
176
1
290
0
176
1
 90
1
176
1
 40
0.0
176
1
 90
0
176
1
290
0
176
1
290
1
176
1
290
1
176
1
290
0
176
1
290
0
176
1
290
0
176
1
290
0
176
1
290
0
176
1
290
0
176
1
 90
50
176
1
 40
0.0
176
1
 40
1.0
176
1
 90
0
176
1
 62
18
420
0
176
1
 90
50
176
1
 90
3
176
1
 62
5
420
255
176
1
290
0
176
1
 90
50
176
1
 90
50
176
1
 90
50
176
1
290
0
176
1
 90
50
176
1
 62
256
176
0
 40
1.0
176
0
 90
2
176
1
  1
strokes_ogs.tif
176
1
290
0
176
1
 40
1.0
176
1
 40
1.0
176
1
  0
VISUALSTYLE
  5
63
102
{ACAD_REACTORS
330
16
102
}
330
16
100
AcDbVisualStyle
  2
FlatWithEdges
 70
1
177
3
291
1
 70
58
 90
2
176
1
 90
2
176
1
 90
0
176
1
 90
2
176
1
 40
0.6
176
1
 40
30.0
176
1
 62
7
420
16777215
176
1
 90
1
176
1
 90
4
176
1
 62
7
176
1
 62
257
176
1
 90
1
176
1
 90
1
176
1
 40
1.0
176
1
 90
8
176
1
 62
7
176
1
 40
1.0
176
1
 90
1
176
1
 90
6
176
1
 90
2
176
1
 62
7
176
1
 90
5
176
1
 90
0
176
1
 90
0
176
1
290
0
176
1
 90
1
176
1
 40
0.0
176
1
 90
0
176
1
290
0
176
1
290
1
176
1
290
1
176
1
290
0
176
1
290
0
176
1
290
0
176
1
290
0
176
1
290
0
176
1
290
0
176
1
 90
50
176
1
 40
0.0
176
1
 40
1.0
176
1
 90
0
176
1
 62
18
420
0
176
1
 90
50
176
1
 90
3
176
1
 62
5
420
255
176
1
290
0
176
1
 90
50
176
1
 90
50
176
1
 90
50
176
1
290
0
176
1
 90
50
176
1
 62
256
176
0
 40
1.0
176
0
 90
2
176
1
  1
strokes_ogs.tif
176
1
290
0
176
1
 40
1.0
176
1
 40
1.0
176
1
  0
VISUALSTYLE
  5
64
102
{ACAD_REACTORS
330
16
102
}
330
16
100
AcDbVisualStyle
  2
Gouraud
 70
2
177
3
291
1
 70
58
 90
2
176
1
 90
2
176
1
 90
0
176
1
 90
2
176
1
 40
0.6
176
1
 40
30.0
176
1
 62
7
420
16777215
176
1
 90
1
176
1
 90
4
176
1
 62
7
176
1
 62
257
176
1
 90
1
176
1
 90
1
176
1
 40
1.0
176
1
 90
8
176
1
 62
7
176
1
 40
1.0
176
1
 90
1
176
1
 90
6
176
1
 90
2
176
1
 62
7
176
1
 90
5
176
1
 90
0
176
1
 90
0
176
1
290
0
176
1
 90
1
176
1
 40
0.0
176
1
 90
0
176
1
290
0
176
1
290
1
176
1
290
1
176
1
290
0
176
1
290
0
176
1
290
0
176
1
290
0
176
1
290
0
176
1
290
0
176
1
 90
50
176
1
 40
0.0
176
1
 40
1.0
176
1
 90
0
176
1
 62
18
420
0
176
1
 90
50
176
1
 90
3
176
1
 62
5
420
255
176
1
290
0
176
1
 90
50
176
1
 90
50
176
1
 90
50
176
1
290
0
176
1
 90
50
176
1
 62
256
176
0
 40
1.0
176
0
 90
2
176
1
  1
strokes_ogs.tif
176
1
290
0
176
1
 40
1.0
176
1
 40
1.0
176
1
  0
VISUALSTYLE
  5
65
102
{ACAD_REACTORS
330
16
102
}
330
16
100
AcDbVisualStyle
  2
GouraudWithEdges
 70
3
177
3
291
1
 70
58
 90
2
176
1
 90
2
176
1
 90
0
176
1
 90
2
176
1
 40
0.6
176
1
 40
30.0
176
1
 62
7
420
16777215
176
1
 90
1
176
1
 90
4
176
1
 62
7
176
1
 62
257
176
1
 90
1
176
1
 90
1
176
1
 40
1.0
176
1
 90
8
176
1
 62
7
176
1
 40
1.0
176
1
 90
1
176
1
 90
6
176
1
 90
2
176
1
 62
7
176
1
 90
5
176
1
 90
0
176
1
 90
0
176
1
290
0
176
1
 90
1
176
1
 40
0.0
176
1
 90
0
176
1
290
0
176
1
290
1
176
1
290
1
176
1
290
0
176
1
290
0
176
1
290
0
176
1
290
0
176
1
290
0
176
1
290
0
176
1
 90
50
176
1
 40
0.0
176
1
 40
1.0
176
1
 90
0
176
1
 62
18
420
0
176
1
 90
50
176
1
 90
3
176
1
 62
5
420
255
176
1
290
0
176
1
 90
50
176
1
 90
50
176
1
 90
50
176
1
290
0
176
1
 90
50
176
1
 62
256
176
0
 40
1.0
176
0
 90
2
176
1
  1
strokes_ogs.tif
176
1
290
0
176
1
 40
1.0
176
1
 40
1.0
176
1
  0
VISUALSTYLE
  5
66
102
{ACAD_REACTORS
330
16
102
}
330
16
100
AcDbVisualStyle
  2
Hidden
 70
6
177
3
291
0
 70
58
 90
2
176
1
 90
2
176
1
 90
0
176
1
 90
1
176
1
 40
0.6
176
1
 40
30.0
176
1
 62
7
420
16777215
176
1
 90
1
176
1
 90
4
176
1
 62
7
176
1
 62
257
176
1
 90
1
176
1
 90
1
176
1
 40
1.0
176
1
 90
8
176
1
 62
7
176
1
 40
1.0
176
1
 90
1
176
1
 90
6
176
1
 90
2
176
1
 62
7
176
1
 90
5
176
1
 90
0
176
1
 90
0
176
1
290
0
176
1
 90
1
176
1
 40
0.0
176
1
 90
0
176
1
290
0
176
1
290
1
176
1
290
1
176
1
290
0
176
1
290
0
176
1
290
0
176
1
290
0
176
1
290
0
176
1
290
0
176
1
 90
50
176
1
 40
0.0
176
1
 40
1.0
176
1
 90
0
176
1
 62
18
420
0
176
1
 90
50
176
1
 90
3
176
1
 62
5
420
255
176
1
290
0
176
1
 90
50
176
1
 90
50
176
1
 90
50
176
1
290
0
176
1
 90
50
176
1
 62
256
176
0
 40
1.0
176
0
 90
2
176
1
  1
strokes_ogs.tif
176
1
290
0
176
1
 40
1.0
176
1
 40
1.0
176
1
  0
VISUALSTYLE
  5
67
102
{ACAD_REACTORS
330
16
102
}
330
16
100
AcDbVisualStyle
  2
JitterOff
 70
20
177
3
291
1
 70
58
 90
2
176
1
 90
2
176
1
 90
0
176
1
 90
2
176
1
 40
0.6
176
1
 40
30.0
176
1
 62
7
420
16777215
176
1
 90
1
176
1
 90
4
176
1
 62
7
176
1
 62
257
176
1
 90
1
176
1
 90
1
176
1
 40
1.0
176
1
 90
8
176
1
 62
7
176
1
 40
1.0
176
1
 90
1
176
1
 90
6
176
1
 90
2
176
1
 62
7
176
1
 90
5
176
1
 90
0
176
1
 90
0
176
1
290
0
176
1
 90
1
176
1
 40
0.0
176
1
 90
0
176
1
290
0
176
1
290
1
176
1
290
1
176
1
290
0
176
1
290
0
176
1
290
0
176
1
290
0
176
1
290
0
176
1
290
0
176
1
 90
50
176
1
 40
0.0
176
1
 40
1.0
176
1
 90
0
176
1
 62
18
420
0
176
1
 90
50
176
1
 90
3
176
1
 62
5
420
255
176
1
290
0
176
1
 90
50
176
1
 90
50
176
1
 90
50
176
1
290
0
176
1
 90
50
176
1
 62
256
176
0
 40
1.0
176
0
 90
2
176
1
  1
strokes_ogs.tif
176
1
290
0
176
1
 40
1.0
176
1
 40
1.0
176
1
  0
VISUALSTYLE
  5
68
102
{ACAD_REACTORS
330
16
102
}
330
16
100
AcDbVisualStyle
  2
Linepattern
 70
14
177
3
291
1
 70
58
 90
2
176
1
 90
2
176
1
 90
0
176
1
 90
2
176
1
 40
0.6
176
1
 40
30.0
176
1
 62
7
420
16777215
176
1
 90
1
176
1
 90
4
176
1
 62
7
176
1
 62
257
176
1
 90
1
176
1
 90
1
176
1
 40
1.0
176
1
 90
8
176
1
 62
7
176
1
 40
1.0
176
1
 90
1
176
1
 90
6
176
1
 90
2
176
1
 62
7
176
1
 90
5
176
1
 90
0
176
1
 90
0
176
1
290
0
176
1
 90
1
176
1
 40
0.0
176
1
 90
0
176
1
290
0
176
1
290
1
176
1
290
1
176
1
290
0
176
1
290
0
176
1
290
0
176
1
290
0
176
1
290
0
176
1
290
0
176
1
 90
50
176
1
 40
0.0
176
1
 40
1.0
176
1
 90
0
176
1
 62
18
420
0
176
1
 90
50
176
1
 90
3
176
1
 62
5
420
255
176
1
290
0
176
1
 90
50
176
1
 90
50
176
1
 90
50
176
1
290
0
176
1
 90
50
176
1
 62
256
176
0
 40
1.0
176
0
 90
2
176
1
  1
strokes_ogs.tif
176
1
290
0
176
1
 40
1.0
176
1
 40
1.0
176
1
  0
VISUALSTYLE
  5
69
102
{ACAD_REACTORS
330
16
102
}
330
16
100
AcDbVisualStyle
  2
Modeling
 70
10
177
3
291
0
 70
58
 90
2
176
1
 90
2
176
1
 90
0
176
1
 90
2
176
1
 40
0.6
176
1
 40
30.0
176
1
 62
7
420
16777215
176
1
 90
1
176
1
 90
4
176
1
 62
7
176
1
 62
257
176
1
 90
1
176
1
 90
1
176
1
 40
1.0
176
1
 90
8
176
1
 62
7
176
1
 40
1.0
176
1
 90
1
176
1
 90
6
176
1
 90
2
176
1
 62
7
176
1
 90
5
176
1
 90
0
176
1
 90
0
176
1
290
0
176
1
 90
1
176
1
 40
0.0
176
1
 90
0
176
1
290
0
176
1
290
1
176
1
290
1
176
1
290
0
176
1
290
0
176
1
290
0
176
1
290
0
176
1
290
0
176
1
290
0
176
1
 90
50
176
1
 40
0.0
176
1
 40
1.0
176
1
 90
0
176
1
 62
18
420
0
176
1
 90
50
176
1
 90
3
176
1
 62
5
420
255
176
1
290
0
176
1
 90
50
176
1
 90
50
176
1
 90
50
176
1
290
0
176
1
 90
50
176
1
 62
256
176
0
 40
1.0
176
0
 90
2
176
1
  1
strokes_ogs.tif
176
1
290
0
176
1
 40
1.0
176
1
 40
1.0
176
1
  0
VISUALSTYLE
  5
6A
102
{ACAD_REACTORS
330
16
102
}
330
16
100
AcDbVisualStyle
  2
OverhangOff
 70
21
177
3
291
1
 70
58
 90
2
176
1
 90
2
176
1
 90
0
176
1
 90
2
176
1
 40
0.6
176
1
 40
30.0
176
1
 62
7
420
16777215
176
1
 90
1
176
1
 90
4
176
1
 62
7
176
1
 62
257
176
1
 90
1
176
1
 90
1
176
1
 40
1.0
176
1
 90
8
176
1
 62
7
176
1
 40
1.0
176
1
 90
1
176
1
 90
6
176
1
 90
2
176
1
 62
7
176
1
 90
5
176
1
 90
0
176
1
 90
0
176
1
290
0
176
1
 90
1
176
1
 40
0.0
176
1
 90
0
176
1
290
0
176
1
290
1
176
1
290
1
176
1
290
0
176
1
290
0
176
1
290
0
176
1
290
0
176
1
290
0
176
1
290
0
176
1
 90
50
176
1
 40
0.0
176
1
 40
1.0
176
1
 90
0
176
1
 62
18
420
0
176
1
 90
50
176
1
 90
3
176
1
 62
5
420
255
176
1
290
0
176
1
 90
50
176
1
 90
50
176
1
 90
50
176
1
290
0
176
1
 90
50
176
1
 62
256
176
0
 40
1.0
176
0
 90
2
176
1
  1
strokes_ogs.tif
176
1
290
0
176
1
 40
1.0
176
1
 40
1.0
176
1
  0
VISUALSTYLE
  5
6B
102
{ACAD_REACTORS
330
16
102
}
330
16
100
AcDbVisualStyle
  2
Realistic
 70
8
177
3
291
0
 70
58
 90
2
176
1
 90
2
176
1
 90
0
176
1
 90
2
176
1
 40
0.6
176
1
 40
30.0
176
1
 62
7
420
16777215
176
1
 90
1
176
1
 90
4
176
1
 62
7
176
1
 62
257
176
1
 90
1
176
1
 90
1
176
1
 40
1.0
176
1
 90
8
176
1
 62
7
176
1
 40
1.0
176
1
 90
1
176
1
 90
6
176
1
 90
2
176
1
 62
7
176
1
 90
5
176
1
 90
0
176
1
 90
0
176
1
290
0
176
1
 90
1
176
1
 40
0.0
176
1
 90
0
176
1
290
0
176
1
290
1
176
1
290
1
176
1
290
0
176
1
290
0
176
1
290
0
176
1
290
0
176
1
290
0
176
1
290
0
176
1
 90
50
176
1
 40
0.0
176
1
 40
1.0
176
1
 90
0
176
1
 62
18
420
0
176
1
 90
50
176
1
 90
3
176
1
 62
5
420
255
176
1
290
0
176
1
 90
50
176
1
 90
50
176
1
 90
50
176
1
290
0
176
1
 90
50
176
1
 62
256
176
0
 40
1.0
176
0
 90
2
176
1
  1
strokes_ogs.tif
176
1
290
0
176
1
 40
1.0
176
1
 40
1.0
176
1
  0
VISUALSTYLE
  5
6C
102
{ACAD_REACTORS
330
16
102
}
330
16
100
AcDbVisualStyle
  2
Shaded
 70
27
177
3
291
0
 70
58
 90
2
176
1
 90
2
176
1
 90
0
176
1
 90
2
176
1
 40
0.6
176
1
 40
30.0
176
1
 62
7
420
16777215
176
1
 90
1
176
1
 90
4
176
1
 62
7
176
1
 62
257
176
1
 90
1
176
1
 90
1
176
1
 40
1.0
176
1
 90
8
176
1
 62
7
176
1
 40
1.0
176
1
 90
1
176
1
 90
6
176
1
 90
2
176
1
 62
7
176
1
 90
5
176
1
 90
0
176
1
 90
0
176
1
290
0
176
1
 90
1
176
1
 40
0.0
176
1
 90
0
176
1
290
0
176
1
290
1
176
1
290
1
176
1
290
0
176
1
290
0
176
1
290
0
176
1
290
0
176
1
290
0
176
1
290
0
176
1
 90
50
176
1
 40
0.0
176
1
 40
1.0
176
1
 90
0
176
1
 62
18
420
0
176
1
 90
50
176
1
 90
3
176
1
 62
5
420
255
176
1
290
0
176
1
 90
50
176
1
 90
50
176
1
 90
50
176
1
290
0
176
1
 90
50
176
1
 62
256
176
0
 40
1.0
176
0
 90
2
176
1
  1
strokes_ogs.tif
176
1
290
0
176
1
 40
1.0
176
1
 40
1.0
176
1
  0
VISUALSTYLE
  5
6D
102
{ACAD_REACTORS
330
16
102
}
330
16
100
AcDbVisualStyle
  2
Shaded with edges
 70
26
177
3
291
0
 70
58
 90
2
176
1
 90
2
176
1
 90
0
176
1
 90
2
176
1
 40
0.6
176
1
 40
30.0
176
1
 62
7
420
16777215
176
1
 90
1
176
1
 90
4
176
1
 62
7
176
1
 62
257
176
1
 90
1
176
1
 90
1
176
1
 40
1.0
176
1
 90
8
176
1
 62
7
176
1
 40
1.0
176
1
 90
1
176
1
 90
6
176
1
 90
2
176
1
 62
7
176
1
 90
5
176
1
 90
0
176
1
 90
0
176
1
290
0
176
1
 90
1
176
1
 40
0.0
176
1
 90
0
176
1
290
0
176
1
290
1
176
1
290
1
176
1
290
0
176
1
290
0
176
1
290
0
176
1
290
0
176
1
290
0
176
1
290
0
176
1
 90
50
176
1
 40
0.0
176
1
 40
1.0
176
1
 90
0
176
1
 62
18
420
0
176
1
 90
50
176
1
 90
3
176
1
 62
5
420
255
176
1
290
0
176
1
 90
50
176
1
 90
50
176
1
 90
50
176
1
290
0
176
1
 90
50
176
1
 62
256
176
0
 40
1.0
176
0
 90
2
176
1
  1
strokes_ogs.tif
176
1
290
0
176
1
 40
1.0
176
1
 40
1.0
176
1
  0
VISUALSTYLE
  5
6E
102
{ACAD_REACTORS
330
16
102
}
330
16
100
AcDbVisualStyle
  2
Shades of Gray
 70
23
177
3
291
0
 70
58
 90
2
176
1
 90
2
176
1
 90
0
176
1
 90
2
176
1
 40
0.6
176
1
 40
30.0
176
1
 62
7
420
16777215
176
1
 90
1
176
1
 90
4
176
1
 62
7
176
1
 62
257
176
1
 90
1
176
1
 90
1
176
1
 40
1.0
176
1
 90
8
176
1
 62
7
176
1
 40
1.0
176
1
 90
1
176
1
 90
6
176
1
 90
2
176
1
 62
7
176
1
 90
5
176
1
 90
0
176
1
 90
0
176
1
290
0
176
1
 90
1
176
1
 40
0.0
176
1
 90
0
176
1
290
0
176
1
290
1
176
1
290
1
176
1
290
0
176
1
290
0
176
1
290
0
176
1
290
0
176
1
290
0
176
1
290
0
176
1
 90
50
176
1
 40
0.0
176
1
 40
1.0
176
1
 90
0
176
1
 62
18
420
0
176
1
 90
50
176
1
 90
3
176
1
 62
5
420
255
176
1
290
0
176
1
 90
50
176
1
 90
50
176
1
 90
50
176
1
290
0
176
1
 90
50
176
1
 62
256
176
0
 40
1.0
176
0
 90
2
176
1
  1
strokes_ogs.tif
176
1
290
0
176
1
 40
1.0
176
1
 40
1.0
176
1
  0
VISUALSTYLE
  5
6F
102
{ACAD_REACTORS
330
16
102
}
330
16
100
AcDbVisualStyle
  2
Sketchy
 70
24
177
3
291
0
 70
58
 90
2
176
1
 90
2
176
1
 90
0
176
1
 90
1
176
1
 40
0.6
176
1
 40
30.0
176
1
 62
7
420
16777215
176
1
 90
1
176
1
 90
4
176
1
 62
7
176
1
 62
257
176
1
 90
1
176
1
 90
1
176
1
 40
1.0
176
1
 90
8
176
1
 62
7
176
1
 40
1.0
176
1
 90
1
176
1
 90
6
176
1
 90
2
176
1
 62
7
176
1
 90
5
176
1
 90
0
176
1
 90
0
176
1
290
0
176
1
 90
1
176
1
 40
0.0
176
1
 90
0
176
1
290
0
176
1
290
1
176
1
290
1
176
1
290
0
176
1
290
0
176
1
290
0
176
1
290
0
176
1
290
0
176
1
290
0
176
1
 90
50
176
1
 40
0.0
176
1
 40
1.0
176
1
 90
0
176
1
 62
18
420
0
176
1
 90
50
176
1
 90
3
176
1
 62
5
420
255
176
1
290
0
176
1
 90
50
176
1
 90
50
176
1
 90
50
176
1
290
0
176
1
 90
50
176
1
 62
256
176
0
 40
1.0
176
0
 90
2
176
1
  1
strokes_ogs.tif
176
1
290
0
176
1
 40
1.0
176
1
 40
1.0
176
1
  0
VISUALSTYLE
  5
70
102
{ACAD_REACTORS
330
16
102
}
330
16
100
AcDbVisualStyle
  2
Thicken
 70
13
177
3
291
1
 70
58
 90
2
176
1
 90
2
176
1
 90
0
176
1
 90
2
176
1
 40
0.6
176
1
 40
30.0
176
1
 62
7
420
16777215
176
1
 90
1
176
1
 90
4
176
1
 62
7
176
1
 62
257
176
1
 90
1
176
1
 90
1
176
1
 40
1.0
176
1
 90
8
176
1
 62
7
176
1
 40
1.0
176
1
 90
1
176
1
 90
6
176
1
 90
2
176
1
 62
7
176
1
 90
5
176
1
 90
0
176
1
 90
0
176
1
290
0
176
1
 90
1
176
1
 40
0.0
176
1
 90
0
176
1
290
0
176
1
290
1
176
1
290
1
176
1
290
0
176
1
290
0
176
1
290
0
176
1
290
0
176
1
290
0
176
1
290
0
176
1
 90
50
176
1
 40
0.0
176
1
 40
1.0
176
1
 90
0
176
1
 62
18
420
0
176
1
 90
50
176
1
 90
3
176
1
 62
5
420
255
176
1
290
0
176
1
 90
50
176
1
 90
50
176
1
 90
50
176
1
290
0
176
1
 90
50
176
1
 62
256
176
0
 40
1.0
176
0
 90
2
176
1
  1
strokes_ogs.tif
176
1
290
0
176
1
 40
1.0
176
1
 40
1.0
176
1
  0
VISUALSTYLE
  5
71
102
{ACAD_REACTORS
330
16
102
}
330
16
100
AcDbVisualStyle
  2
Wireframe
 70
5
177
3
291
0
 70
58
 90
2
176
1
 90
2
176
1
 90
0
176
1
 90
0
176
1
 40
0.6
176
1
 40
30.0
176
1
 62
7
420
16777215
176
1
 90
1
176
1
 90
4
176
1
 62
7
176
1
 62
257
176
1
 90
1
176
1
 90
1
176
1
 40
1.0
176
1
 90
8
176
1
 62
7
176
1
 40
1.0
176
1
 90
1
176
1
 90
6
176
1
 90
2
176
1
 62
7
176
1
 90
5
176
1
 90
0
176
1
 90
0
176
1
290
0
176
1
 90
1
176
1
 40
0.0
176
1
 90
0
176
1
290
0
176
1
290
1
176
1
290
1
176
1
290
0
176
1
290
0
176
1
290
0
176
1
290
0
176
1
290
0
176
1
290
0
176
1
 90
50
176
1
 40
0.0
176
1
 40
1.0
176
1
 90
0
176
1
 62
18
420
0
176
1
 90
50
176
1
 90
3
176
1
 62
5
420
255
176
1
290
0
176
1
 90
50
176
1
 90
50
176
1
 90
50
176
1
290
0
176
1
 90
50
176
1
 62
256
176
0
 40
1.0
176
0
 90
2
176
1
  1
strokes_ogs.tif
176
1
290
0
176
1
 40
1.0
176
1
 40
1.0
176
1
  0
VISUALSTYLE
  5
72
102
{ACAD_REACTORS
330
16
102
}
330
16
100
AcDbVisualStyle
  2
X-Ray
 70
25
177
3
291
0
 70
58
 90
2
176
1
 90
2
176
1
 90
0
176
1
 90
2
176
1
 40
0.5
176
1
 40
30.0
176
1
 62
7
420
16777215
176
1
 90
1
176
1
 90
4
176
1
 62
7
176
1
 62
257
176
1
 90
1
176
1
 90
1
176
1
 40
1.0
176
1
 90
8
176
1
 62
7
176
1
 40
1.0
176
1
 90
1
176
1
 90
6
176
1
 90
2
176
1
 62
7
176
1
 90
5
176
1
 90
0
176
1
 90
0
176
1
290
0
176
1
 90
1
176
1
 40
0.0
176
1
 90
0
176
1
290
0
176
1
290
1
176
1
290
1
176
1
290
0
176
1
290
0
176
1
290
0
176
1
290
0
176
1
290
0
176
1
290
0
176
1
 90
50
176
1
 40
0.0
176
1
 40
1.0
176
1
 90
0
176
1
 62
18
420
0
176
1
 90
50
176
1
 90
3
176
1
 62
5
420
255
176
1
290
0
176
1
 90
50
176
1
 90
50
176
1
 90
50
176
1
290
0
176
1
 90
50
176
1
 62
256
176
0
 40
1.0
176
0
 90
2
176
1
  1
strokes_ogs.tif
176
1
290
0
176
1
 40
1.0
176
1
 40
1.0
176
1
  0
DICTIONARYVAR
  5
215
330
2D
100
DictionaryVariables
280
0
  1
1.4.4 @ 2026-09-17T01:45:36.605862+00:00
  0
ENDSEC
  0
EOF
