  0
SECTION
  2
HEADER
  9
$ACADVER
  1
AC1027
  9
$ACADMAINTVER
 70
105
  9
$DWGCODEPAGE
  3
ANSI_1252
  9
$LASTSAVEDBY
  1
ezdxf
  9
$REQUIREDVERSIONS
160
0
  9
$INSBASE
 10
0.0
 20
0.0
 30
0.0
  9
$EXTMIN
 10
1e+20
 20
1e+20
 30
1e+20
  9
$EXTMAX
 10
-1e+20
 20
-1e+20
 30
-1e+20
  9
$LIMMIN
 10
0.0
 20
0.0
  9
$LIMMAX
 10
420.0
 20
297.0
  9
$ORTHOMODE
 70
0
  9
$REGENMODE
 70
1
  9
$FILLMODE
 70
1
  9
$QTEXTMODE
 70
0
  9
$MIRRTEXT
 70
1
  9
$LTSCALE
 40
1.0
  9
$ATTMODE
 70
1
  9
$TEXTSIZE
 40
2.5
  9
$TRACEWID
 40
1.0
  9
$TEXTSTYLE
  7
OpenSans
  9
$CLAYER
  8
0
  9
$CELTYPE
  6
ByLayer
  9
$CECOLOR
 62
256
  9
$CELTSCALE
 40
1.0
  9
$DISPSILH
 70
0
  9
$DIMSCALE
 40
1.0
  9
$DIMASZ
 40
0.175
  9
$DIMEXO
 40
0.125
  9
$DIMDLI
 40
3.75
  9
$DIMRND
 40
0.0
  9
$DIMDLE
 40
0.0
  9
$DIMEXE
 40
0.375
  9
$DIMTP
 40
0.0
  9
$DIMTM
 40
0.0
  9
$DIMTXT
 40
0.25
  9
$DIMCEN
 40
2.5
  9
$DIMTSZ
 40
0.0
  9
$DIMTOL
 70
0
  9
$DIMLIM
 70
0
  9
$DIMTIH
 70
0
  9
$DIMTOH
 70
0
  9
$DIMSE1
 70
0
  9
$DIMSE2
 70
0
  9
$DIMTAD
 70
1
  9
$DIMZIN
 70
12
  9
$DIMBLK
  1
ARCHTICK
  9
$DIMASO
 70
1
  9
$DIMSHO
 70
1
  9
$DIMPOST
  1

  9
$DIMAPOST
  1

  9
$DIMALT
 70
0
  9
$DIMALTD
 70
3
  9
$DIMALTF
 40
0.03937007874
  9
$DIMLFAC
 40
100.0
  9
$DIMTOFL
 70
1
  9
$DIMTVP
 40
0.0
  9
$DIMTIX
 70
0
  9
$DIMSOXD
 70
0
  9
$DIMSAH
 70
0
  9
$DIMBLK1
  1

  9
$DIMBLK2
  1

  9
$DIMSTYLE
  2
EZDXF
  9
$DIMCLRD
 70
0
  9
$DIMCLRE
 70
0
  9
$DIMCLRT
 70
0
  9
$DIMTFAC
 40
0.5
  9
$DIMGAP
 40
0.1
  9
$DIMJUST
 70
0
  9
$DIMSD1
 70
0
  9
$DIMSD2
 70
0
  9
$DIMTOLJ
 70
0
  9
$DIMTZIN
 70
8
  9
$DIMALTZ
 70
0
  9
$DIMALTTZ
 70
0
  9
$DIMUPT
 70
1
  9
$DIMDEC
 70
2
  9
$DIMTDEC
 70
2
  9
$DIMALTU
 70
2
  9
$DIMALTTD
 70
3
  9
$DIMTXSTY
  7
OpenSansCondensed-Light
  9
$DIMAUNIT
 70
0
  9
$DIMADEC
 70
2
  9
$DIMALTRND
 40
0.0
  9
$DIMAZIN
 70
3
  9
$DIMDSEP
 70
46
  9
$DIMATFIT
 70
3
  9
$DIMFRAC
 70
0
  9
$DIMLDRBLK
  1

  9
$DIMLUNIT
 70
2
  9
$DIMLWD
 70
-2
  9
$DIMLWE
 70
-2
  9
$DIMTMOVE
 70
2
  9
$DIMFXL
 40
1.0
  9
$DIMFXLON
 70
0
  9
$DIMJOGANG
 40
0.785398163397
  9
$DIMTFILL
 70
0
  9
$DIMTFILLCLR
 70
0
  9
$DIMARCSYM
 70
0
  9
$DIMLTYPE
  6

  9
$DIMLTEX1
  6

  9
$DIMLTEX2
  6

  9
$DIMTXTDIRECTION
 70
0
  9
$LUNITS
 70
2
  9
$LUPREC
 70
4
  9
$SKETCHINC
 40
1.0
  9
$FILLETRAD
 40
10.0
  9
$AUNITS
 70
0
  9
$AUPREC
 70
2
  9
$MENU
  1
.
  9
$ELEVATION
 40
0.0
  9
$PELEVATION
 40
0.0
  9
$THICKNESS
 40
0.0
  9
$LIMCHECK
 70
0
  9
$CHAMFERA
 40
0.0
  9
$CHAMFERB
 40
0.0
  9
$CHAMFERC
 40
0.0
  9
$CHAMFERD
 40
0.0
  9
$SKPOLY
 70
0
  9
$TDCREATE
 40
2461307.6450925926
  9
$TDUCREATE
 40
2458532.153996898
  9
$TDUPDATE
 40
2461307.645185185
  9
$TDUUPDATE
 40
2458532.1544311
  9
$TDINDWG
 40
0.0
  9
$TDUSRTIMER
 40
0.0
  9
$USRTIMER
 70
1
  9
$ANGBASE
 50
0.0
  9
$ANGDIR
 70
0
  9
$PDMODE
 70
0
  9
$PDSIZE
 40
0.0
  9
$PLINEWID
 40
0.0
  9
$SPLFRAME
 70
0
  9
$SPLINETYPE
 70
6
  9
$SPLINESEGS
 70
8
  9
$HANDSEED
  5
309
  9
$SURFTAB1
 70
6
  9
$SURFTAB2
 70
6
  9
$SURFTYPE
 70
6
  9
$SURFU
 70
6
  9
$SURFV
 70
6
  9
$UCSBASE
  2

  9
$UCSNAME
  2

  9
$UCSORG
 10
0.0
 20
0.0
 30
0.0
  9
$UCSXDIR
 10
1.0
 20
0.0
 30
0.0
  9
$UCSYDIR
 10
0.0
 20
1.0
 30
0.0
  9
$UCSORTHOREF
  2

  9
$UCSORTHOVIEW
 70
0
  9
$UCSORGTOP
 10
0.0
 20
0.0
 30
0.0
  9
$UCSORGBOTTOM
 10
0.0
 20
0.0
 30
0.0
  9
$UCSORGLEFT
 10
0.0
 20
0.0
 30
0.0
  9
$UCSORGRIGHT
 10
0.0
 20
0.0
 30
0.0
  9
$UCSORGFRONT
 10
0.0
 20
0.0
 30
0.0
  9
$UCSORGBACK
 10
0.0
 20
0.0
 30
0.0
  9
$PUCSBASE
  2

  9
$PUCSNAME
  2

  9
$PUCSORG
 10
0.0
 20
0.0
 30
0.0
  9
$PUCSXDIR
 10
1.0
 20
0.0
 30
0.0
  9
$PUCSYDIR
 10
0.0
 20
1.0
 30
0.0
  9
$PUCSORTHOREF
  2

  9
$PUCSORTHOVIEW
 70
0
  9
$PUCSORGTOP
 10
0.0
 20
0.0
 30
0.0
  9
$PUCSORGBOTTOM
 10
0.0
 20
0.0
 30
0.0
  9
$PUCSORGLEFT
 10
0.0
 20
0.0
 30
0.0
  9
$PUCSORGRIGHT
 10
0.0
 20
0.0
 30
0.0
  9
$PUCSORGFRONT
 10
0.0
 20
0.0
 30
0.0
  9
$PUCSORGBACK
 10
0.0
 20
0.0
 30
0.0
  9
$USERI1
 70
0
  9
$USERI2
 70
0
  9
$USERI3
 70
0
  9
$USERI4
 70
0
  9
$USERI5
 70
0
  9
$USERR1
 40
0.0
  9
$USERR2
 40
0.0
  9
$USERR3
 40
0.0
  9
$USERR4
 40
0.0
  9
$USERR5
 40
0.0
  9
$WORLDVIEW
 70
1
  9
$SHADEDGE
 70
3
  9
$SHADEDIF
 70
70
  9
$TILEMODE
 70
1
  9
$MAXACTVP
 70
64
  9
$PINSBASE
 10
0.0
 20
0.0
 30
0.0
  9
$PLIMCHECK
 70
0
  9
$PEXTMIN
 10
1e+20
 20
1e+20
 30
1e+20
  9
$PEXTMAX
 10
-1e+20
 20
-1e+20
 30
-1e+20
  9
$PLIMMIN
 10
0.0
 20
0.0
  9
$PLIMMAX
 10
420.0
 20
297.0
  9
$UNITMODE
 70
0
  9
$VISRETAIN
 70
1
  9
$PLINEGEN
 70
0
  9
$PSLTSCALE
 70
1
  9
$TREEDEPTH
 70
3020
  9
$CMLSTYLE
  2
Standard
  9
$CMLJUST
 70
0
  9
$CMLSCALE
 40
20.0
  9
$PROXYGRAPHICS
 70
1
  9
$MEASUREMENT
 70
1
  9
$CELWEIGHT
370
-1
  9
$ENDCAPS
280
0
  9
$JOINSTYLE
280
0
  9
$LWDISPLAY
290
0
  9
$INSUNITS
 70
4
  9
$HYPERLINKBASE
  1

  9
$STYLESHEET
  1

  9
$XEDIT
290
1
  9
$CEPSNTYPE
380
0
  9
$PSTYLEMODE
290
1
  9
$FINGERPRINTGUID
  2
{8BA5C91F-86FC-4CC7-B805-E8014D750588}
  9
$VERSIONGUID
  2
{88A0925A-C6EE-48BF-BBEE-D04EDACBB5ED}
  9
$EXTNAMES
290
1
  9
$PSVPSCALE
 40
0.0
  9
$OLESTARTUP
290
0
  9
$SORTENTS
280
127
  9
$INDEXCTL
280
0
  9
$HIDETEXT
280
1
  9
$XCLIPFRAME
280
1
  9
$HALOGAP
280
0
  9
$OBSCOLOR
 70
257
  9
$OBSLTYPE
280
0
  9
$INTERSECTIONDISPLAY
280
0
  9
$INTERSECTIONCOLOR
 70
257
  9
$DIMASSOC
280
2
  9
$PROJECTNAME
  1

  9
$CAMERADISPLAY
290
0
  9
$LENSLENGTH
 40
50.0
  9
$CAMERAHEIGHT
 40
0.0
  9
$STEPSPERSEC
 40
24.0
  9
$STEPSIZE
 40
100.0
  9
$3DDWFPREC
 40
2.0
  9
$PSOLWIDTH
 40
0.005
  9
$PSOLHEIGHT
 40
0.08
  9
$LOFTANG1
 40
1.570796326795
  9
$LOFTANG2
 40
1.570796326795
  9
$LOFTMAG1
 40
0.0
  9
$LOFTMAG2
 40
0.0
  9
$LOFTPARAM
 70
7
  9
$LOFTNORMALS
280
1
  9
$LATITUDE
 40
37.795
  9
$LONGITUDE
 40
-122.394
  9
$NORTHDIRECTION
 40
0.0
  9
$TIMEZONE
 70
-8000
  9
$LIGHTGLYPHDISPLAY
280
1
  9
$TILEMODELIGHTSYNCH
280
1
  9
$CMATERIAL
347
20
  9
$SOLIDHIST
280
0
  9
$SHOWHIST
280
1
  9
$DWFFRAME
280
2
  9
$DGNFRAME
280
2
  9
$REALWORLDSCALE
290
1
  9
$INTERFERECOLOR
 62
256
  9
$CSHADOW
280
0
  9
$SHADOWPLANELOCATION
 40
0.0
  0
ENDSEC
  0
SECTION
  2
CLASSES
  0
CLASS
  1
ACDBDICTIONARYWDFLT
  2
AcDbDictionaryWithDefault
  3
ObjectDBX Classes
 90
0
 91
0
280
0
281
0
  0
CLASS
  1
SUN
  2
AcDbSun
  3
SCENEOE
 90
1153
 91
0
280
0
281
0
  0
CLASS
  1
VISUALSTYLE
  2
AcDbVisualStyle
  3
ObjectDBX Classes
 90
4095
 91
0
280
0
281
0
  0
CLASS
  1
MATERIAL
  2
AcDbMaterial
  3
ObjectDBX Classes
 90
1153
 91
0
280
0
281
0
  0
CLASS
  1
SCALE
  2
AcDbScale
  3
ObjectDBX Classes
 90
1153
 91
0
280
0
281
0
  0
CLASS
  1
TABLESTYLE
  2
AcDbTableStyle
  3
ObjectDBX Classes
 90
4095
 91
0
280
0
281
0
  0
CLASS
  1
MLEADERSTYLE
  2
AcDbMLeaderStyle
  3
ACDB_MLEADERSTYLE_CLASS
 90
4095
 91
0
280
0
281
0
  0
CLASS
  1
DICTIONARYVAR
  2
AcDbDictionaryVar
  3
ObjectDBX Classes
 90
0
 91
0
280
0
281
0
  0
CLASS
  1
CELLSTYLEMAP
  2
AcDbCellStyleMap
  3
ObjectDBX Classes
 90
1152
 91
0
280
0
281
0
  0
CLASS
  1
MENTALRAYRENDERSETTINGS
  2
AcDbMentalRayRenderSettings
  3
SCENEOE
 90
1024
 91
0
280
0
281
0
  0
CLASS
  1
ACDBDETAILVIEWSTYLE
  2
AcDbDetailViewStyle
  3
ObjectDBX Classes
 90
1025
 91
0
280
0
281
0
  0
CLASS
  1
ACDBSECTIONVIEWSTYLE
  2
AcDbSectionViewStyle
  3
ObjectDBX Classes
 90
1025
 91
0
280
0
281
0
  0
CLASS
  1
RASTERVARIABLES
  2
AcDbRasterVariables
  3
ISM
 90
0
 91
0
280
0
281
0
  0
CLASS
  1
ACDBPLACEHOLDER
  2
AcDbPlaceHolder
  3
ObjectDBX Classes
 90
0
 91
0
280
0
281
0
  0
CLASS
  1
LAYOUT
  2
AcDbLayout
  3
ObjectDBX Classes
 90
0
 91
0
280
0
281
0
  0
ENDSEC
  0
SECTION
  2
TABLES
  0
TABLE
  2
VPORT
  5
8
330
0
100
AcDbSymbolTable
 70
1
  0
VPORT
  5
23
330
8
100
AcDbSymbolTableRecord
100
AcDbViewportTableRecord
  2
*Active
 70
0
 10
0.0
 20
0.0
 11
1.0
 21
1.0
 12
0.0
 22
0.0
 13
0.0
 23
0.0
 14
0.5
 24
0.5
 15
0.5
 25
0.5
 16
0.0
 26
0.0
 36
1.0
 17
0.0
 27
0.0
 37
0.0
 40
1000.0
 41
1.34
 42
50.0
 43
0.0
 44
0.0
 50
0.0
 51
0.0
 71
0
 72
1000
 73
1
 74
3
 75
0
 76
0
 77
0
 78
0
281
0
 65
0
146
0.0
  0
ENDTAB
  0
TABLE
  2
LTYPE
  5
2
330
0
100
AcDbSymbolTable
 70
21
  0
LTYPE
  5
24
330
2
100
AcDbSymbolTableRecord
100
AcDbLinetypeTableRecord
  2
ByBlock
 70
0
  3

 72
65
 73
0
 40
0.0
  0
LTYPE
  5
25
330
2
100
AcDbSymbolTableRecord
100
AcDbLinetypeTableRecord
  2
ByLayer
 70
0
  3

 72
65
 73
0
 40
0.0
  0
LTYPE
  5
26
330
2
100
AcDbSymbolTableRecord
100
AcDbLinetypeTableRecord
  2
Continuous
 70
0
  3

 72
65
 73
0
 40
0.0
  0
LTYPE
  5
2F
330
2
100
AcDbSymbolTableRecord
100
AcDbLinetypeTableRecord
  2
CENTER
 70
0
  3
Center ____ _ ____ _ ____ _ ____ _ ____ _ ____
 72
65
 73
4
 40
5.08
 49
3.175
 74
0
 49
-0.635
 74
0
 49
0.635
 74
0
 49
-0.635
 74
0
  0
LTYPE
  5
30
330
2
100
AcDbSymbolTableRecord
100
AcDbLinetypeTableRecord
  2
CENTERX2
 70
0
  3
Center (2x) ________  __  ________  __  ________
 72
65
 73
4
 40
8.89
 49
6.35
 74
0
 49
-0.635
 74
0
 49
1.27
 74
0
 49
-0.635
 74
0
  0
LTYPE
  5
31
330
2
100
AcDbSymbolTableRecord
100
AcDbLinetypeTableRecord
  2
CENTER2
 70
0
  3
Center (.5x) ____ _ ____ _ ____ _ ____ _ ____
 72
65
 73
4
 40
2.54
 49
1.587
 74
0
 49
-0.318
 74
0
 49
0.318
 74
0
 49
-0.318
 74
0
  0
LTYPE
  5
32
330
2
100
AcDbSymbolTableRecord
100
AcDbLinetypeTableRecord
  2
DASHED
 70
0
  3
Dashed __ __ __ __ __ __ __ __ __ __ __ __ __ _
 72
65
 73
2
 40
1.524
 49
1.27
 74
0
 49
-0.254
 74
0
  0
LTYPE
  5
33
330
2
100
AcDbSymbolTableRecord
100
AcDbLinetypeTableRecord
  2
DASHEDX2
 70
0
  3
Dashed (2x) ____  ____  ____  ____  ____  ____
 72
65
 73
2
 40
3.048
 49
2.54
 74
0
 49
-0.508
 74
0
  0
LTYPE
  5
34
330
2
100
AcDbSymbolTableRecord
100
AcDbLinetypeTableRecord
  2
DASHED2
 70
0
  3
Dashed (.5x) _ _ _ _ _ _ _ _ _ _ _ _ _ _
 72
65
 73
2
 40
0.762
 49
0.635
 74
0
 49
-0.127
 74
0
  0
LTYPE
  5
35
330
2
100
AcDbSymbolTableRecord
100
AcDbLinetypeTableRecord
  2
PHANTOM
 70
0
  3
Phantom ______  __  __  ______  __  __  ______
 72
65
 73
6
 40
6.35
 49
3.175
 74
0
 49
-0.635
 74
0
 49
0.635
 74
0
 49
-0.635
 74
0
 49
0.635
 74
0
 49
-0.635
 74
0
  0
LTYPE
  5
36
330
2
100
AcDbSymbolTableRecord
100
AcDbLinetypeTableRecord
  2
PHANTOMX2
 70
0
  3
Phantom (2x)____________    ____    ____    ____________
 72
65
 73
6
 40
10.795
 49
6.35
 74
0
 49
-0.635
 74
0
 49
1.27
 74
0
 49
-0.635
 74
0
 49
1.27
 74
0
 49
-0.635
 74
0
  0
LTYPE
  5
37
330
2
100
AcDbSymbolTableRecord
100
AcDbLinetypeTableRecord
  2
PHANTOM2
 70
0
  3
Phantom (.5x) ___ _ _ ___ _ _ ___ _ _ ___ _ _ ___
 72
65
 73
6
 40
3.175
 49
1.587
 74
0
 49
-0.318
 74
0
 49
0.318
 74
0
 49
-0.318
 74
0
 49
0.318
 74
0
 49
-0.318
 74
0
  0
LTYPE
  5
38
330
2
100
AcDbSymbolTableRecord
100
AcDbLinetypeTableRecord
  2
DASHDOT
 70
0
  3
Dash dot __ . __ . __ . __ . __ . __ . __ . __
 72
65
 73
4
 40
3.556
 49
2.54
 74
0
 49
-0.508
 74
0
 49
0.0
 74
0
 49
-0.508
 74
0
  0
LTYPE
  5
39
330
2
100
AcDbSymbolTableRecord
100
AcDbLinetypeTableRecord
  2
DASHDOTX2
 70
0
  3
Dash dot (2x) ____  .  ____  .  ____  .  ____
 72
65
 73
4
 40
6.096
 49
5.08
 74
0
 49
-0.508
 74
0
 49
0.0
 74
0
 49
-0.508
 74
0
  0
LTYPE
  5
3A
330
2
100
AcDbSymbolTableRecord
100
AcDbLinetypeTableRecord
  2
DASHDOT2
 70
0
  3
Dash dot (.5x) _ . _ . _ . _ . _ . _ . _ . _
 72
65
 73
4
 40
1.778
 49
1.27
 74
0
 49
-0.254
 74
0
 49
0.0
 74
0
 49
-0.254
 74
0
  0
LTYPE
  5
3B
330
2
100
AcDbSymbolTableRecord
100
AcDbLinetypeTableRecord
  2
DOT
 70
0
  3
Dot .  .  .  .  .  .  .  .  .  .  .  .  .  .  .  .
 72
65
 73
2
 40
0.508
 49
0.0
 74
0
 49
-0.508
 74
0
  0
LTYPE
  5
3C
330
2
100
AcDbSymbolTableRecord
100
AcDbLinetypeTableRecord
  2
DOTX2
 70
0
  3
Dot (2x) .    .    .    .    .    .    .    . 
 72
65
 73
2
 40
1.016
 49
0.0
 74
0
 49
-1.016
 74
0
  0
LTYPE
  5
3D
330
2
100
AcDbSymbolTableRecord
100
AcDbLinetypeTableRecord
  2
DOT2
 70
0
  3
Dot (.5) . . . . . . . . . . . . . . . . . . . 
 72
65
 73
2
 40
0.254
 49
0.0
 74
0
 49
-0.254
 74
0
  0
LTYPE
  5
3E
330
2
100
AcDbSymbolTableRecord
100
AcDbLinetypeTableRecord
  2
DIVIDE
 70
0
  3
Divide __ . . __ . . __ . . __ . . __ . . __
 72
65
 73
6
 40
4.064
 49
2.54
 74
0
 49
-0.508
 74
0
 49
0.0
 74
0
 49
-0.508
 74
0
 49
0.0
 74
0
 49
-0.508
 74
0
  0
LTYPE
  5
3F
330
2
100
AcDbSymbolTableRecord
100
AcDbLinetypeTableRecord
  2
DIVIDEX2
 70
0
  3
Divide (2x) ____  . .  ____  . .  ____  . .  ____
 72
65
 73
6
 40
6.604
 49
5.08
 74
0
 49
-0.508
 74
0
 49
0.0
 74
0
 49
-0.508
 74
0
 49
0.0
 74
0
 49
-0.508
 74
0
  0
LTYPE
  5
40
330
2
100
AcDbSymbolTableRecord
100
AcDbLinetypeTableRecord
  2
DIVIDE2
 70
0
  3
Divide(.5x) _ . _ . _ . _ . _ . _ . _ . _
 72
65
 73
6
 40
2.032
 49
1.27
 74
0
 49
-0.254
 74
0
 49
0.0
 74
0
 49
-0.254
 74
0
 49
0.0
 74
0
 49
-0.254
 74
0
  0
ENDTAB
  0
TABLE
  2
LAYER
  5
1
330
0
100
AcDbSymbolTable
 70
30
  0
LAYER
  5
27
330
1
100
AcDbSymbolTableRecord
100
AcDbLayerTableRecord
  2
0
 70
0
 62
7
  6
Continuous
370
-3
390
13
347
21
  0
LAYER
  5
28
330
1
100
AcDbSymbolTableRecord
100
AcDbLayerTableRecord
  2
Defpoints
 70
0
 62
7
  6
Continuous
290
0
370
-3
390
13
347
21
  0
LAYER
  5
8A
330
1
100
AcDbSymbolTableRecord
100
AcDbLayerTableRecord
  2
00_РАМКА
 70
0
 62
7
  6
CONTINUOUS
370
-3
390
13
347
21
  0
LAYER
  5
8B
330
1
100
AcDbSymbolTableRecord
100
AcDbLayerTableRecord
  2
01_ОБШИВКА
 70
0
 62
7
  6
CONTINUOUS
370
-3
390
13
347
21
  0
LAYER
  5
8C
330
1
100
AcDbSymbolTableRecord
100
AcDbLayerTableRecord
  2
02_ПАЛУБЫ
 70
0
 62
4
  6
CONTINUOUS
370
-3
390
13
347
21
  0
LAYER
  5
8D
330
1
100
AcDbSymbolTableRecord
100
AcDbLayerTableRecord
  2
03_ПЕРЕБОРКИ
 70
0
 62
1
  6
CONTINUOUS
370
-3
390
13
347
21
  0
LAYER
  5
8E
330
1
100
AcDbSymbolTableRecord
100
AcDbLayerTableRecord
  2
04_ЦИСТЕРНЫ
 70
0
 62
3
  6
CONTINUOUS
370
-3
390
13
347
21
  0
LAYER
  5
8F
330
1
100
AcDbSymbolTableRecord
100
AcDbLayerTableRecord
  2
05_ОБОРУДОВАНИЕ
 70
0
 62
5
  6
CONTINUOUS
370
-3
390
13
347
21
  0
LAYER
  5
90
330
1
100
AcDbSymbolTableRecord
100
AcDbLayerTableRecord
  2
06_ПОМЕЩЕНИЯ
 70
0
 62
8
  6
CONTINUOUS
370
-3
390
13
347
21
  0
LAYER
  5
91
330
1
100
AcDbSymbolTableRecord
100
AcDbLayerTableRecord
  2
07_ОСИ
 70
0
 62
2
  6
CENTER
370
-3
390
13
347
21
  0
LAYER
  5
92
330
1
100
AcDbSymbolTableRecord
100
AcDbLayerTableRecord
  2
08_ТЕКСТ
 70
0
 62
7
  6
CONTINUOUS
370
-3
390
13
347
21
  0
LAYER
  5
93
330
1
100
AcDbSymbolTableRecord
100
AcDbLayerTableRecord
  2
09_РАЗМЕРЫ
 70
0
 62
6
  6
CONTINUOUS
370
-3
390
13
347
21
  0
LAYER
  5
94
330
1
100
AcDbSymbolTableRecord
100
AcDbLayerTableRecord
  2
10_НАБОР
 70
0
 62
9
  6
CONTINUOUS
370
-3
390
13
347
21
  0
LAYER
  5
95
330
1
100
AcDbSymbolTableRecord
100
AcDbLayerTableRecord
  2
11_КАЮТЫ
 70
0
 62
30
  6
CONTINUOUS
370
-3
390
13
347
21
  0
LAYER
  5
96
330
1
100
AcDbSymbolTableRecord
100
AcDbLayerTableRecord
  2
12_ТРАПЫ_ЛИФТЫ
 70
0
 62
6
  6
CONTINUOUS
370
-3
390
13
347
21
  0
LAYER
  5
97
330
1
100
AcDbSymbolTableRecord
100
AcDbLayerTableRecord
  2
13_КОЛЁСА
 70
0
 62
1
  6
CONTINUOUS
370
-3
390
13
347
21
  0
LAYER
  5
98
330
1
100
AcDbSymbolTableRecord
100
AcDbLayerTableRecord
  2
14_МЕБЕЛЬ
 70
0
 62
252
  6
CONTINUOUS
370
-3
390
13
347
21
  0
LAYER
  5
9A
330
1
100
AcDbSymbolTableRecord
100
AcDbLayerTableRecord
  2
30_СЛОТЫ
 70
0
 62
3
  6
DASHED
370
-3
390
13
347
21
  0
LAYER
  5
9B
330
1
100
AcDbSymbolTableRecord
100
AcDbLayerTableRecord
  2
31_ФУНДАМЕНТЫ
 70
0
 62
1
  6
CONTINUOUS
370
-3
390
13
347
21
  0
LAYER
  5
9C
330
1
100
AcDbSymbolTableRecord
100
AcDbLayerTableRecord
  2
32_БАЛКИ
 70
0
 62
30
  6
DASHED
370
-3
390
13
347
21
  0
LAYER
  5
9D
330
1
100
AcDbSymbolTableRecord
100
AcDbLayerTableRecord
  2
33_СРЕДЫ
 70
0
 62
5
  6
CONTINUOUS
370
-3
390
13
347
21
  0
LAYER
  5
9E
330
1
100
AcDbSymbolTableRecord
100
AcDbLayerTableRecord
  2
34_МОДУЛЬ
 70
0
 62
4
  6
CONTINUOUS
370
-3
390
13
347
21
  0
LAYER
  5
9F
330
1
100
AcDbSymbolTableRecord
100
AcDbLayerTableRecord
  2
35_ШТРИХОВКА
 70
0
 62
8
  6
CONTINUOUS
370
-3
390
13
347
21
  0
LAYER
  5
A0
330
1
100
AcDbSymbolTableRecord
100
AcDbLayerTableRecord
  2
40_ОФИС
 70
0
 62
5
  6
CONTINUOUS
370
-3
390
13
347
21
  0
LAYER
  5
A1
330
1
100
AcDbSymbolTableRecord
100
AcDbLayerTableRecord
  2
41_СПА
 70
0
 62
1
  6
CONTINUOUS
370
-3
390
13
347
21
  0
LAYER
  5
A2
330
1
100
AcDbSymbolTableRecord
100
AcDbLayerTableRecord
  2
42_БАССЕЙН
 70
0
 62
4
  6
CONTINUOUS
370
-3
390
13
347
21
  0
LAYER
  5
A3
330
1
100
AcDbSymbolTableRecord
100
AcDbLayerTableRecord
  2
43_ДЕТСКИЙ
 70
0
 62
3
  6
CONTINUOUS
370
-3
390
13
347
21
  0
LAYER
  5
A4
330
1
100
AcDbSymbolTableRecord
100
AcDbLayerTableRecord
  2
44_КЛУБ
 70
0
 62
6
  6
CONTINUOUS
370
-3
390
13
347
21
  0
LAYER
  5
A5
330
1
100
AcDbSymbolTableRecord
100
AcDbLayerTableRecord
  2
45_ЛЮКС
 70
0
 62
2
  6
CONTINUOUS
370
-3
390
13
347
21
  0
LAYER
  5
A6
330
1
100
AcDbSymbolTableRecord
100
AcDbLayerTableRecord
  2
46_БАР
 70
0
 62
30
  6
CONTINUOUS
370
-3
390
13
347
21
  0
ENDTAB
  0
TABLE
  2
STYLE
  5
5
330
0
100
AcDbSymbolTable
 70
27
  0
STYLE
  5
29
330
5
100
AcDbSymbolTableRecord
100
AcDbTextStyleTableRecord
  2
Standard
 70
0
 40
0.0
 41
1.0
 50
0.0
 71
0
 42
2.5
  3
txt
  4

  0
STYLE
  5
41
330
5
100
AcDbSymbolTableRecord
100
AcDbTextStyleTableRecord
  2
OpenSans-Light
 70
0
 40
0.0
 41
1.0
 50
0.0
 71
0
 42
2.5
  3
OpenSans-Light.ttf
  4

  0
STYLE
  5
42
330
5
100
AcDbSymbolTableRecord
100
AcDbTextStyleTableRecord
  2
OpenSans-Light-Italic
 70
0
 40
0.0
 41
1.0
 50
0.0
 71
0
 42
2.5
  3
OpenSans-LightItalic.ttf
  4

  0
STYLE
  5
43
330
5
100
AcDbSymbolTableRecord
100
AcDbTextStyleTableRecord
  2
OpenSans
 70
0
 40
0.0
 41
1.0
 50
0.0
 71
0
 42
2.5
  3
OpenSans-Regular.ttf
  4

  0
STYLE
  5
44
330
5
100
AcDbSymbolTableRecord
100
AcDbTextStyleTableRecord
  2
OpenSans-Italic
 70
0
 40
0.0
 41
1.0
 50
0.0
 71
0
 42
2.5
  3
OpenSans-Italic.ttf
  4

  0
STYLE
  5
45
330
5
100
AcDbSymbolTableRecord
100
AcDbTextStyleTableRecord
  2
OpenSans-SemiBold
 70
0
 40
0.0
 41
1.0
 50
0.0
 71
0
 42
2.5
  3
OpenSans-SemiBold.ttf
  4

  0
STYLE
  5
46
330
5
100
AcDbSymbolTableRecord
100
AcDbTextStyleTableRecord
  2
OpenSans-SemiBoldItalic
 70
0
 40
0.0
 41
1.0
 50
0.0
 71
0
 42
2.5
  3
OpenSans-SemiBoldItalic.ttf
  4

  0
STYLE
  5
47
330
5
100
AcDbSymbolTableRecord
100
AcDbTextStyleTableRecord
  2
OpenSans-Bold
 70
0
 40
0.0
 41
1.0
 50
0.0
 71
0
 42
2.5
  3
OpenSans-Bold.ttf
  4

  0
STYLE
  5
48
330
5
100
AcDbSymbolTableRecord
100
AcDbTextStyleTableRecord
  2
OpenSans-BoldItalic
 70
0
 40
0.0
 41
1.0
 50
0.0
 71
0
 42
2.5
  3
OpenSans-BoldItalic.ttf
  4

  0
STYLE
  5
49
330
5
100
AcDbSymbolTableRecord
100
AcDbTextStyleTableRecord
  2
OpenSans-ExtraBold
 70
0
 40
0.0
 41
1.0
 50
0.0
 71
0
 42
2.5
  3
OpenSans-ExtraBold.ttf
  4

  0
STYLE
  5
4A
330
5
100
AcDbSymbolTableRecord
100
AcDbTextStyleTableRecord
  2
OpenSans-ExtraBoldItalic
 70
0
 40
0.0
 41
1.0
 50
0.0
 71
0
 42
2.5
  3
OpenSans-ExtraBoldItalic.ttf
  4

  0
STYLE
  5
4B
330
5
100
AcDbSymbolTableRecord
100
AcDbTextStyleTableRecord
  2
OpenSansCondensed-Bold
 70
0
 40
0.0
 41
1.0
 50
0.0
 71
0
 42
2.5
  3
OpenSansCondensed-Bold.ttf
  4

  0
STYLE
  5
4C
330
5
100
AcDbSymbolTableRecord
100
AcDbTextStyleTableRecord
  2
OpenSansCondensed-Light
 70
0
 40
0.0
 41
1.0
 50
0.0
 71
0
 42
2.5
  3
OpenSansCondensed-Light.ttf
  4

  0
STYLE
  5
4D
330
5
100
AcDbSymbolTableRecord
100
AcDbTextStyleTableRecord
  2
OpenSansCondensed-Italic
 70
0
 40
0.0
 41
1.0
 50
0.0
 71
0
 42
2.5
  3
OpenSansCondensed-LightItalic.ttf
  4

  0
STYLE
  5
4E
330
5
100
AcDbSymbolTableRecord
100
AcDbTextStyleTableRecord
  2
LiberationSans
 70
0
 40
0.0
 41
1.0
 50
0.0
 71
0
 42
2.5
  3
LiberationSans-Regular.ttf
  4

  0
STYLE
  5
4F
330
5
100
AcDbSymbolTableRecord
100
AcDbTextStyleTableRecord
  2
LiberationSans-Bold
 70
0
 40
0.0
 41
1.0
 50
0.0
 71
0
 42
2.5
  3
LiberationSans-Bold.ttf
  4

  0
STYLE
  5
50
330
5
100
AcDbSymbolTableRecord
100
AcDbTextStyleTableRecord
  2
LiberationSans-BoldItalic
 70
0
 40
0.0
 41
1.0
 50
0.0
 71
0
 42
2.5
  3
LiberationSans-BoldItalic.ttf
  4

  0
STYLE
  5
51
330
5
100
AcDbSymbolTableRecord
100
AcDbTextStyleTableRecord
  2
LiberationSans-Italic
 70
0
 40
0.0
 41
1.0
 50
0.0
 71
0
 42
2.5
  3
LiberationSans-Italic.ttf
  4

  0
STYLE
  5
52
330
5
100
AcDbSymbolTableRecord
100
AcDbTextStyleTableRecord
  2
LiberationSerif
 70
0
 40
0.0
 41
1.0
 50
0.0
 71
0
 42
2.5
  3
LiberationSerif-Regular.ttf
  4

  0
STYLE
  5
53
330
5
100
AcDbSymbolTableRecord
100
AcDbTextStyleTableRecord
  2
LiberationSerif-Bold
 70
0
 40
0.0
 41
1.0
 50
0.0
 71
0
 42
2.5
  3
LiberationSerif-Bold.ttf
  4

  0
STYLE
  5
54
330
5
100
AcDbSymbolTableRecord
100
AcDbTextStyleTableRecord
  2
LiberationSerif-BoldItalic
 70
0
 40
0.0
 41
1.0
 50
0.0
 71
0
 42
2.5
  3
LiberationSerif-BoldItalic.ttf
  4

  0
STYLE
  5
55
330
5
100
AcDbSymbolTableRecord
100
AcDbTextStyleTableRecord
  2
LiberationSerif-Italic
 70
0
 40
0.0
 41
1.0
 50
0.0
 71
0
 42
2.5
  3
LiberationSerif-Italic.ttf
  4

  0
STYLE
  5
56
330
5
100
AcDbSymbolTableRecord
100
AcDbTextStyleTableRecord
  2
LiberationMono
 70
0
 40
0.0
 41
1.0
 50
0.0
 71
0
 42
2.5
  3
LiberationMono-Regular.ttf
  4

  0
STYLE
  5
57
330
5
100
AcDbSymbolTableRecord
100
AcDbTextStyleTableRecord
  2
LiberationMono-Bold
 70
0
 40
0.0
 41
1.0
 50
0.0
 71
0
 42
2.5
  3
LiberationMono-Bold.ttf
  4

  0
STYLE
  5
58
330
5
100
AcDbSymbolTableRecord
100
AcDbTextStyleTableRecord
  2
LiberationMono-BoldItalic
 70
0
 40
0.0
 41
1.0
 50
0.0
 71
0
 42
2.5
  3
LiberationMono-BoldItalic.ttf
  4

  0
STYLE
  5
59
330
5
100
AcDbSymbolTableRecord
100
AcDbTextStyleTableRecord
  2
LiberationMono-Italic
 70
0
 40
0.0
 41
1.0
 50
0.0
 71
0
 42
2.5
  3
LiberationMono-Italic.ttf
  4

  0
STYLE
  5
99
330
5
100
AcDbSymbolTableRecord
100
AcDbTextStyleTableRecord
  2
ГОСТ
 70
0
 40
0.0
 41
1.0
 50
0.0
 71
0
 42
2.5
  3
ISOCPEUR.TTF
  4

  0
ENDTAB
  0
TABLE
  2
VIEW
  5
7
330
0
100
AcDbSymbolTable
 70
0
  0
ENDTAB
  0
TABLE
  2
UCS
  5
6
330
0
100
AcDbSymbolTable
 70
0
  0
ENDTAB
  0
TABLE
  2
APPID
  5
3
330
0
100
AcDbSymbolTable
 70
3
  0
APPID
  5
2A
330
3
100
AcDbSymbolTableRecord
100
AcDbRegAppTableRecord
  2
ACAD
 70
0
  0
APPID
  5
306
330
3
100
AcDbSymbolTableRecord
100
AcDbRegAppTableRecord
  2
HATCHBACKGROUNDCOLOR
 70
0
  0
APPID
  5
307
330
3
100
AcDbSymbolTableRecord
100
AcDbRegAppTableRecord
  2
EZDXF
 70
0
  0
ENDTAB
  0
TABLE
  2
DIMSTYLE
  5
4
330
0
100
AcDbSymbolTable
 70
12
100
AcDbDimStyleTable
  0
DIMSTYLE
105
2B
330
4
100
AcDbSymbolTableRecord
100
AcDbDimStyleTableRecord
  2
Standard
 70
0
 40
1.0
 41
2.5
 42
0.625
 43
3.75
 44
1.25
 45
0.0
 46
0.0
 47
0.0
 48
0.0
 49
2.5
140
2.5
141
2.5
142
0.0
143
0.03937007874
144
1.0
145
0.0
146
1.0
147
0.625
148
0.0
 69
0
 70
0
 71
0
 72
0
 73
0
 74
0
 75
0
 76
0
 77
1
 78
8
 79
3
170
0
171
3
172
1
173
0
174
0
175
0
176
0
177
0
178
0
179
2
271
2
272
2
273
2
274
3
275
0
276
0
277
2
278
44
279
0
280
0
281
0
282
0
283
0
284
8
285
0
286
0
288
0
289
3
290
0
371
-2
372
-2
  0
DIMSTYLE
105
73
330
4
100
AcDbSymbolTableRecord
100
AcDbDimStyleTableRecord
  2
EZDXF
 70
0
 40
1.0
 41
0.175
 42
0.125
 43
3.75
 44
0.375
 45
0.0
 46
0.0
 47
0.0
 48
0.0
 49
2.5
140
0.25
141
2.5
142
0.0
143
0.03937007874
144
100.0
145
0.0
146
0.5
147
0.1
148
0.0
 69
0
 70
0
 71
0
 72
0
 73
0
 74
0
 75
0
 76
0
 77
1
 78
12
 79
3
170
0
171
3
172
1
173
0
174
0
175
0
176
0
177
0
178
0
179
2
271
2
272
2
273
2
274
3
275
0
276
0
277
2
278
46
279
2
280
0
281
0
282
0
283
0
284
8
285
0
286
0
288
1
289
3
290
0
340
4C
342
74
371
-2
372
-2
  0
DIMSTYLE
105
7C
330
4
100
AcDbSymbolTableRecord
100
AcDbDimStyleTableRecord
  2
EZ_M_100_H25_CM
 70
0
 40
1.0
 41
0.25
 42
0.125
 43
3.75
 44
0.375
 45
0.0
 46
0.0
 47
0.0
 48
0.0
 49
2.5
140
0.25
141
2.5
142
0.125
143
0.03937007874
144
100.0
145
0.0
146
0.5
147
0.1
148
0.0
 69
0
 70
0
 71
0
 72
0
 73
0
 74
0
 75
0
 76
0
 77
1
 78
12
 79
3
170
0
171
3
172
1
173
0
174
0
175
0
176
0
177
0
178
0
179
2
271
2
272
2
273
2
274
3
275
0
276
0
277
2
278
46
279
2
280
0
281
0
282
0
283
0
284
8
285
0
286
0
288
1
289
3
290
0
340
4C
371
-2
372
-2
  0
DIMSTYLE
105
7D
330
4
100
AcDbSymbolTableRecord
100
AcDbDimStyleTableRecord
  2
EZ_M_50_H25_CM
 70
0
 40
1.0
 41
0.125
 42
0.0625
 43
3.75
 44
0.1875
 45
0.0
 46
0.0
 47
0.0
 48
0.0
 49
2.5
140
0.125
141
2.5
142
0.0625
143
0.03937007874
144
100.0
145
0.0
146
0.5
147
0.05
148
0.0
 69
0
 70
0
 71
0
 72
0
 73
0
 74
0
 75
0
 76
0
 77
1
 78
12
 79
3
170
0
171
3
172
1
173
0
174
0
175
0
176
0
177
0
178
0
179
2
271
2
272
2
273
2
274
3
275
0
276
0
277
2
278
46
279
2
280
0
281
0
282
0
283
0
284
8
285
0
286
0
288
1
289
3
290
0
340
4C
371
-2
372
-2
  0
DIMSTYLE
105
7E
330
4
100
AcDbSymbolTableRecord
100
AcDbDimStyleTableRecord
  2
EZ_M_25_H25_CM
 70
0
 40
1.0
 41
0.0625
 42
0.03125
 43
3.75
 44
0.09375
 45
0.0
 46
0.0
 47
0.0
 48
0.0
 49
2.5
140
0.0625
141
2.5
142
0.03125
143
0.03937007874
144
100.0
145
0.0
146
0.5
147
0.025
148
0.0
 69
0
 70
0
 71
0
 72
0
 73
0
 74
0
 75
0
 76
0
 77
1
 78
12
 79
3
170
0
171
3
172
1
173
0
174
0
175
0
176
0
177
0
178
0
179
2
271
2
272
2
273
2
274
3
275
0
276
0
277
2
278
46
279
2
280
0
281
0
282
0
283
0
284
8
285
0
286
0
288
1
289
3
290
0
340
4C
371
-2
372
-2
  0
DIMSTYLE
105
7F
330
4
100
AcDbSymbolTableRecord
100
AcDbDimStyleTableRecord
  2
EZ_M_20_H25_CM
 70
0
 40
1.0
 41
0.05
 42
0.025
 43
3.75
 44
0.07500000000000001
 45
0.0
 46
0.0
 47
0.0
 48
0.0
 49
2.5
140
0.05
141
2.5
142
0.025
143
0.03937007874
144
100.0
145
0.0
146
0.5
147
0.020000000000000004
148
0.0
 69
0
 70
0
 71
0
 72
0
 73
0
 74
0
 75
0
 76
0
 77
1
 78
12
 79
3
170
0
171
3
172
1
173
0
174
0
175
0
176
0
177
0
178
0
179
2
271
2
272
2
273
2
274
3
275
0
276
0
277
2
278
46
279
2
280
0
281
0
282
0
283
0
284
8
285
0
286
0
288
1
289
3
290
0
340
4C
371
-2
372
-2
  0
DIMSTYLE
105
80
330
4
100
AcDbSymbolTableRecord
100
AcDbDimStyleTableRecord
  2
EZ_M_10_H25_CM
 70
0
 40
1.0
 41
0.025
 42
0.0125
 43
3.75
 44
0.037500000000000006
 45
0.0
 46
0.0
 47
0.0
 48
0.0
 49
2.5
140
0.025
141
2.5
142
0.0125
143
0.03937007874
144
100.0
145
0.0
146
0.5
147
0.010000000000000002
148
0.0
 69
0
 70
0
 71
0
 72
0
 73
0
 74
0
 75
0
 76
0
 77
1
 78
12
 79
3
170
0
171
3
172
1
173
0
174
0
175
0
176
0
177
0
178
0
179
2
271
2
272
2
273
2
274
3
275
0
276
0
277
2
278
46
279
2
280
0
281
0
282
0
283
0
284
8
285
0
286
0
288
1
289
3
290
0
340
4C
371
-2
372
-2
  0
DIMSTYLE
105
81
330
4
100
AcDbSymbolTableRecord
100
AcDbDimStyleTableRecord
  2
EZ_M_5_H25_CM
 70
0
 40
1.0
 41
0.0125
 42
0.00625
 43
3.75
 44
0.018750000000000003
 45
0.0
 46
0.0
 47
0.0
 48
0.0
 49
2.5
140
0.0125
141
2.5
142
0.00625
143
0.03937007874
144
100.0
145
0.0
146
0.5
147
0.005000000000000001
148
0.0
 69
0
 70
0
 71
0
 72
0
 73
0
 74
0
 75
0
 76
0
 77
1
 78
12
 79
3
170
0
171
3
172
1
173
0
174
0
175
0
176
0
177
0
178
0
179
2
271
2
272
2
273
2
274
3
275
0
276
0
277
2
278
46
279
2
280
0
281
0
282
0
283
0
284
8
285
0
286
0
288
1
289
3
290
0
340
4C
371
-2
372
-2
  0
DIMSTYLE
105
82
330
4
100
AcDbSymbolTableRecord
100
AcDbDimStyleTableRecord
  2
EZ_M_1_H25_CM
 70
0
 40
1.0
 41
0.0025
 42
0.00125
 43
3.75
 44
0.00375
 45
0.0
 46
0.0
 47
0.0
 48
0.0
 49
2.5
140
0.0025
141
2.5
142
0.00125
143
0.03937007874
144
100.0
145
0.0
146
0.5
147
0.001
148
0.0
 69
0
 70
0
 71
0
 72
0
 73
0
 74
0
 75
0
 76
0
 77
1
 78
12
 79
3
170
0
171
3
172
1
173
0
174
0
175
0
176
0
177
0
178
0
179
2
271
2
272
2
273
2
274
3
275
0
276
0
277
2
278
46
279
2
280
0
281
0
282
0
283
0
284
8
285
0
286
0
288
1
289
3
290
0
340
4C
371
-2
372
-2
  0
DIMSTYLE
105
83
330
4
100
AcDbSymbolTableRecord
100
AcDbDimStyleTableRecord
  2
EZ_RADIUS
 70
0
 40
1.0
 41
0.25
 42
0.125
 43
3.75
 44
0.375
 45
0.0
 46
0.0
 47
0.0
 48
0.0
 49
2.5
140
0.25
141
0.0
142
0.0
143
0.03937007874
144
100.0
145
0.0
146
0.5
147
0.1
148
0.0
 69
0
 70
0
 71
0
 72
0
 73
0
 74
0
 75
0
 76
0
 77
1
 78
12
 79
3
170
0
171
3
172
0
173
0
174
0
175
0
176
0
177
0
178
0
179
2
271
2
272
2
273
2
274
3
275
0
276
0
277
2
278
46
279
1
280
0
281
0
282
0
283
0
284
8
285
0
286
0
288
1
289
3
290
0
340
4C
342
84
371
-2
372
-2
  0
DIMSTYLE
105
88
330
4
100
AcDbSymbolTableRecord
100
AcDbDimStyleTableRecord
  2
EZ_RADIUS_INSIDE
 70
0
 40
1.0
 41
0.25
 42
0.125
 43
3.75
 44
0.375
 45
0.0
 46
0.0
 47
0.0
 48
0.0
 49
2.5
140
0.25
141
0.0
142
0.0
143
0.03937007874
144
100.0
145
0.0
146
0.5
147
0.1
148
0.0
 69
0
 70
0
 71
0
 72
0
 73
0
 74
0
 75
0
 76
0
 77
0
 78
12
 79
3
170
0
171
3
172
0
173
0
174
1
175
0
176
0
177
0
178
0
179
2
271
2
272
2
273
2
274
3
275
0
276
0
277
2
278
46
279
0
280
0
281
0
282
0
283
0
284
8
285
0
286
0
288
1
289
0
290
0
340
4C
342
84
371
-2
372
-2
  0
DIMSTYLE
105
89
330
4
100
AcDbSymbolTableRecord
100
AcDbDimStyleTableRecord
  2
EZ_CURVED
 70
0
 40
1.0
 41
0.25
 42
0.125
 43
3.75
 44
0.375
 45
0.0
 46
0.0
 47
0.0
 48
0.0
 49
2.5
140
0.25
141
2.5
142
0.0
143
0.03937007874
144
100.0
145
0.0
146
0.5
147
0.1
148
0.0
 69
0
 70
0
 71
0
 72
0
 73
0
 74
0
 75
0
 76
0
 77
1
 78
12
 79
2
 90
2
170
0
171
3
172
1
173
0
174
0
175
0
176
0
177
0
178
0
179
2
271
2
272
2
273
2
274
3
275
0
276
0
277
2
278
46
279
2
280
0
281
0
282
0
283
0
284
8
285
0
286
0
288
1
289
3
290
0
340
4C
371
-2
372
-2
  0
ENDTAB
  0
TABLE
  2
BLOCK_RECORD
  5
9
330
0
100
AcDbSymbolTable
 70
5
  0
BLOCK_RECORD
  5
17
330
9
100
AcDbSymbolTableRecord
100
AcDbBlockTableRecord
  2
*Model_Space
340
1A
 70
0
280
1
281
0
  0
BLOCK_RECORD
  5
1B
330
9
100
AcDbSymbolTableRecord
100
AcDbBlockTableRecord
  2
*Paper_Space
340
1E
 70
0
280
1
281
0
  0
BLOCK_RECORD
  5
74
330
9
100
AcDbSymbolTableRecord
100
AcDbBlockTableRecord
  2
_ARCHTICK
340
0
 70
0
280
1
281
0
  0
BLOCK_RECORD
  5
78
330
9
100
AcDbSymbolTableRecord
100
AcDbBlockTableRecord
  2
_CLOSEDFILLED
340
0
 70
0
280
1
281
0
  0
BLOCK_RECORD
  5
84
330
9
100
AcDbSymbolTableRecord
100
AcDbBlockTableRecord
  2
_CLOSEDBLANK
340
0
 70
0
280
1
281
0
  0
ENDTAB
  0
ENDSEC
  0
SECTION
  2
BLOCKS
  0
BLOCK
  5
18
330
17
100
AcDbEntity
  8
0
100
AcDbBlockBegin
  2
*Model_Space
 70
0
 10
0.0
 20
0.0
 30
0.0
  3
*Model_Space
  1

  0
ENDBLK
  5
19
330
17
100
AcDbEntity
  8
0
100
AcDbBlockEnd
  0
BLOCK
  5
1C
330
1B
100
AcDbEntity
  8
0
100
AcDbBlockBegin
  2
*Paper_Space
 70
0
 10
0.0
 20
0.0
 30
0.0
  3
*Paper_Space
  1

  0
ENDBLK
  5
1D
330
1B
100
AcDbEntity
  8
0
100
AcDbBlockEnd
  0
BLOCK
  5
75
330
74
100
AcDbEntity
  8
0
100
AcDbBlockBegin
  2
_ARCHTICK
 70
0
 10
0.0
 20
0.0
 30
0.0
  3
_ARCHTICK
  1

  0
LWPOLYLINE
  5
77
330
74
100
AcDbEntity
  8
0
  6
BYBLOCK
 62
0
100
AcDbPolyline
 90
2
 70
0
 43
0.15
 10
-0.5
 20
-0.5
 10
0.5
 20
0.5
  0
ENDBLK
  5
76
330
74
100
AcDbEntity
  8
0
100
AcDbBlockEnd
  0
BLOCK
  5
79
330
78
100
AcDbEntity
  8
0
100
AcDbBlockBegin
  2
_CLOSEDFILLED
 70
0
 10
0.0
 20
0.0
 30
0.0
  3
_CLOSEDFILLED
  1

  0
SOLID
  5
7B
330
78
100
AcDbEntity
  8
0
  6
BYBLOCK
 62
0
100
AcDbTrace
 10
-1.0
 20
0.16439898372402537
 30
0.0
 11
0.0
 21
0.0
 31
0.0
 12
-1.0
 22
-0.16439898372402537
 32
0.0
 13
-1.0
 23
-0.16439898372402537
 33
0.0
  0
ENDBLK
  5
7A
330
78
100
AcDbEntity
  8
0
100
AcDbBlockEnd
  0
BLOCK
  5
85
330
84
100
AcDbEntity
  8
0
100
AcDbBlockBegin
  2
_CLOSEDBLANK
 70
0
 10
0.0
 20
0.0
 30
0.0
  3
_CLOSEDBLANK
  1

  0
LWPOLYLINE
  5
87
330
84
100
AcDbEntity
  8
0
  6
BYBLOCK
 62
0
100
AcDbPolyline
 90
3
 70
1
 10
-1.0
 20
0.16439898372402537
 10
0.0
 20
0.0
 10
-1.0
 20
-0.16439898372402537
  0
ENDBLK
  5
86
330
84
100
AcDbEntity
  8
0
100
AcDbBlockEnd
  0
ENDSEC
  0
SECTION
  2
ENTITIES
  0
LWPOLYLINE
  5
A7
330
17
100
AcDbEntity
  8
02_ПАЛУБЫ
100
AcDbPolyline
 90
598
 70
1
 10
15000.0
 20
5166.503526595108
 10
15150.0
 20
5267.206701732645
 10
15250.0
 20
5329.927643804119
 10
15300.0
 20
5360.090853610647
 10
15450.0
 20
5446.209244704111
 10
15500.0
 20
5473.559010521851
 10
15600.0
 20
5526.382709952086
 10
15750.0
 20
5601.266556382993
 10
16000.0
 20
5715.725716065082
 10
16250.0
 20
5818.88440506629
 10
16500.0
 20
5912.217824735461
 10
16750.0
 20
5996.878656780161
 10
17000.0
 20
6073.790906940924
 10
17250.0
 20
6143.711344912086
 10
17500.0
 20
6207.271307409349
 10
17750.0
 20
6265.006077695551
 10
18000.0
 20
6317.37611787464
 10
18250.0
 20
6364.782794198143
 10
18500.0
 20
6407.580283447436
 10
18750.0
 20
6446.084773209166
 10
19000.0
 20
6480.581710040346
 10
19250.0
 20
6511.331619521942
 10
19400.0
 20
6528.083700639756
 10
19500.0
 20
6538.574871430561
 10
19550.0
 20
6543.622696913968
 10
19700.0
 20
6557.995793964274
 10
19750.0
 20
6562.535662768961
 10
19850.0
 20
6571.24860939184
 10
20000.0
 20
6583.425423903837
 10
20150.0
 20
6594.5693981334325
 10
20250.0
 20
6601.445808161727
 10
20300.0
 20
6604.722778491413
 10
20450.0
 20
6613.92709521979
 10
20500.0
 20
6616.791396853093
 10
20600.0
 20
6622.223355780069
 10
20750.0
 20
6629.652236815642
 10
21000.0
 20
6640.216325924253
 10
21250.0
 20
6648.672176858152
 10
21500.0
 20
6655.211630322092
 10
21750.0
 20
6660.033179853799
 10
22000.0
 20
6663.346274296797
 10
22250.0
 20
6665.3775711573335
 10
22500.0
 20
6666.3816517798605
 10
22750.0
 20
6666.665689423593
 10
23000.0
 20
6666.671494275496
 10
23250.0
 20
6666.671494275496
 10
23500.0
 20
6666.671494275496
 10
23750.0
 20
6666.671494275496
 10
24000.0
 20
6666.671494275496
 10
24500.0
 20
6666.671494275496
 10
25000.0
 20
6666.671494275496
 10
25500.0
 20
6666.671494275496
 10
26000.0
 20
6666.671494275496
 10
26500.0
 20
6666.671494275496
 10
27000.0
 20
6666.671494275496
 10
27500.0
 20
6666.671494275496
 10
28000.0
 20
6666.671494275496
 10
28500.0
 20
6666.671494275496
 10
29000.0
 20
6666.671494275496
 10
29500.0
 20
6666.671494275496
 10
30000.0
 20
6666.671494275496
 10
30500.0
 20
6666.671494275496
 10
31000.0
 20
6666.671494275496
 10
31500.0
 20
6666.671494275496
 10
32000.0
 20
6666.671494275496
 10
32500.0
 20
6666.671494275496
 10
33000.0
 20
6666.671494275496
 10
33500.0
 20
6666.671494275496
 10
34000.0
 20
6666.671494275496
 10
34500.0
 20
6666.671494275496
 10
35000.0
 20
6666.671494275496
 10
35500.0
 20
6666.671494275496
 10
36000.0
 20
6666.671494275496
 10
36500.0
 20
6666.671494275496
 10
37000.0
 20
6666.671494275496
 10
37500.0
 20
6666.671494275496
 10
38000.0
 20
6666.671494275496
 10
38500.0
 20
6666.671494275496
 10
39000.0
 20
6666.671494275496
 10
39500.0
 20
6666.671494275496
 10
40000.0
 20
6666.671494275496
 10
40500.0
 20
6666.671494275496
 10
41000.0
 20
6666.671494275496
 10
41500.0
 20
6666.671494275496
 10
42000.0
 20
6666.671494275496
 10
42500.0
 20
6666.671494275496
 10
43000.0
 20
6666.671494275496
 10
43500.0
 20
6666.671494275496
 10
44000.0
 20
6666.671494275496
 10
44500.0
 20
6666.671494275496
 10
45000.0
 20
6666.671494275496
 10
45500.0
 20
6666.671494275496
 10
46000.0
 20
6666.671494275496
 10
46500.0
 20
6666.671494275496
 10
47000.0
 20
6666.671494275496
 10
47500.0
 20
6666.671494275496
 10
48000.0
 20
6666.671494275496
 10
48500.0
 20
6666.671494275496
 10
49000.0
 20
6666.671494275496
 10
49500.0
 20
6666.671494275496
 10
50000.0
 20
6666.671494275496
 10
50500.0
 20
6666.671494275496
 10
51000.0
 20
6666.671494275496
 10
51500.0
 20
6666.671494275496
 10
52000.0
 20
6666.671494275496
 10
52500.0
 20
6666.671494275496
 10
53000.0
 20
6666.671494275496
 10
53500.0
 20
6666.671494275496
 10
54000.0
 20
6666.671494275496
 10
54500.0
 20
6666.671494275496
 10
55000.0
 20
6666.671494275496
 10
55500.0
 20
6666.671494275496
 10
56000.0
 20
6666.671494275496
 10
56500.0
 20
6666.671494275496
 10
57000.0
 20
6666.671494275496
 10
57400.0
 20
6666.671494275496
 10
57500.0
 20
6666.671494275496
 10
57550.0
 20
6666.671494275496
 10
57700.0
 20
6666.671494275496
 10
57850.0
 20
6666.671494275496
 10
58000.0
 20
6666.671494275496
 10
58150.0
 20
6666.671494275496
 10
58300.0
 20
6666.671494275496
 10
58450.0
 20
6666.671494275496
 10
58500.0
 20
6666.671494275496
 10
58600.0
 20
6666.671494275496
 10
59000.0
 20
6666.671494275496
 10
59500.0
 20
6666.671494275496
 10
60000.0
 20
6666.671494275496
 10
60500.0
 20
6666.671494275496
 10
61000.0
 20
6666.671494275496
 10
61500.0
 20
6666.671494275496
 10
62000.0
 20
6666.671494275496
 10
62500.0
 20
6666.671494275496
 10
63000.0
 20
6666.671494275496
 10
63500.0
 20
6666.671494275496
 10
64000.0
 20
6666.671494275496
 10
64500.0
 20
6666.671494275496
 10
65000.0
 20
6666.671494275496
 10
65500.0
 20
6666.671494275496
 10
66000.0
 20
6666.671494275496
 10
66500.0
 20
6666.671494275496
 10
67000.0
 20
6666.671494275496
 10
67500.0
 20
6666.671494275496
 10
68000.0
 20
6666.671494275496
 10
68500.0
 20
6666.671494275496
 10
69000.0
 20
6666.671494275496
 10
69500.0
 20
6666.671494275496
 10
70000.0
 20
6666.671494275496
 10
70500.0
 20
6666.671494275496
 10
71000.0
 20
6666.671494275496
 10
71500.0
 20
6666.671494275496
 10
72000.0
 20
6666.671494275496
 10
72500.0
 20
6666.671494275496
 10
73000.0
 20
6666.671494275496
 10
73400.0
 20
6666.671494275496
 10
73500.0
 20
6666.671494275496
 10
73550.0
 20
6666.671494275496
 10
73700.0
 20
6666.671494275496
 10
73850.0
 20
6666.671494275496
 10
74000.0
 20
6666.671494275496
 10
74150.0
 20
6666.671494275496
 10
74300.0
 20
6666.671494275496
 10
74450.0
 20
6666.671494275496
 10
74500.0
 20
6666.671494275496
 10
74600.0
 20
6666.671494275496
 10
75000.0
 20
6666.671494275496
 10
75500.0
 20
6666.671494275496
 10
76000.0
 20
6666.671494275496
 10
76500.0
 20
6666.671494275496
 10
77000.0
 20
6666.671494275496
 10
77500.0
 20
6666.671494275496
 10
78000.0
 20
6666.671494275496
 10
78500.0
 20
6666.671494275496
 10
79000.0
 20
6666.671494275496
 10
79500.0
 20
6666.671494275496
 10
80000.0
 20
6666.671494275496
 10
80500.0
 20
6666.671494275496
 10
81000.0
 20
6666.671494275496
 10
81500.0
 20
6666.671494275496
 10
82000.0
 20
6666.671494275496
 10
82500.0
 20
6666.671494275496
 10
83000.0
 20
6666.671494275496
 10
83500.0
 20
6666.671494275496
 10
84000.0
 20
6666.671494275496
 10
84500.0
 20
6666.671494275496
 10
85000.0
 20
6666.671494275496
 10
85500.0
 20
6666.671494275496
 10
86000.0
 20
6666.671494275496
 10
86500.0
 20
6666.671494275496
 10
87000.0
 20
6666.671494275496
 10
87500.0
 20
6666.671494275496
 10
88000.0
 20
6666.671494275496
 10
88500.0
 20
6666.671494275496
 10
89000.0
 20
6666.671494275496
 10
89500.0
 20
6666.671494275496
 10
90000.0
 20
6666.671494275496
 10
90500.0
 20
6666.671494275496
 10
91000.0
 20
6666.671494275496
 10
91500.0
 20
6666.671494275496
 10
92000.0
 20
6666.671494275496
 10
92500.0
 20
6666.671494275496
 10
93000.0
 20
6666.671494275496
 10
93500.0
 20
6666.671494275496
 10
94000.0
 20
6666.671494275496
 10
94500.0
 20
6666.671494275496
 10
95000.0
 20
6666.671494275496
 10
95500.0
 20
6666.671494275496
 10
96000.0
 20
6666.671494275496
 10
96500.0
 20
6666.671494275496
 10
97000.0
 20
6666.671494275496
 10
97500.0
 20
6666.671494275496
 10
98000.0
 20
6666.671494275496
 10
98500.0
 20
6666.671494275496
 10
99000.0
 20
6666.671494275496
 10
99500.0
 20
6666.671494275496
 10
100000.0
 20
6666.671494275496
 10
100500.0
 20
6666.671494275496
 10
101000.0
 20
6666.671494275496
 10
101250.0
 20
6666.671494275496
 10
101500.0
 20
6666.671494275496
 10
101750.0
 20
6666.671494275496
 10
102000.0
 20
6666.671494275496
 10
102250.0
 20
6666.671494275496
 10
102500.0
 20
6666.671494275496
 10
102750.0
 20
6666.671494275496
 10
103000.0
 20
6664.20622889363
 10
103250.0
 20
6657.811332888394
 10
103500.0
 20
6648.261034205118
 10
103750.0
 20
6635.874625476517
 10
104000.0
 20
6620.849379210571
 10
104250.0
 20
6603.323947146905
 10
104500.0
 20
6583.402597397373
 10
104750.0
 20
6561.1670277460935
 10
105000.0
 20
6536.682977720508
 10
105250.0
 20
6510.00428267421
 10
105500.0
 20
6481.1755260079
 10
105750.0
 20
6450.233860146365
 10
106000.0
 20
6417.210303914166
 10
106250.0
 20
6382.130693797848
 10
106500.0
 20
6345.016397139663
 10
106750.0
 20
6305.884855960144
 10
107000.0
 20
6264.750006680607
 10
107250.0
 20
6221.622606476708
 10
107500.0
 20
6176.5104876409
 10
107750.0
 20
6129.418755123187
 10
108000.0
 20
6080.349938180404
 10
108250.0
 20
6029.3041040931075
 10
108500.0
 20
5976.278939773687
 10
108750.0
 20
5921.26980551504
 10
109000.0
 20
5864.269763937357
 10
109250.0
 20
5805.269586261362
 10
109500.0
 20
5744.257737287266
 10
109750.0
 20
5681.220339831276
 10
110000.0
 20
5616.141118822764
 10
110250.0
 20
5549.001324761795
 10
110500.0
 20
5479.7796357518555
 10
110750.0
 20
5408.452036832472
 10
111000.0
 20
5334.991674818846
 10
111250.0
 20
5259.368686287627
 10
111500.0
 20
5181.549995704964
 10
111750.0
 20
5100.819946601241
 10
112000.0
 20
5015.459620140259
 10
112250.0
 20
4925.995561498818
 10
112500.0
 20
4832.710450511796
 10
112750.0
 20
4735.7785874495
 10
113000.0
 20
4635.325379228371
 10
113250.0
 20
4531.447359486698
 10
113400.0
 20
4467.509209387624
 10
113500.0
 20
4424.221217624572
 10
113550.0
 20
4402.379860144196
 10
113700.0
 20
4336.071416987189
 10
113750.0
 20
4313.708443216387
 10
113850.0
 20
4268.59439713091
 10
114000.0
 20
4199.957825009409
 10
114150.0
 20
4130.169289051199
 10
114250.0
 20
4083.006727122778
 10
114300.0
 20
4059.2349668582956
 10
114450.0
 20
3987.1596231247204
 10
114500.0
 20
3962.88156520967
 10
114600.0
 20
3913.946582844955
 10
114750.0
 20
3839.597681024275
 10
115000.0
 20
3713.158696378698
 10
115250.0
 20
3583.5553539226717
 10
115500.0
 20
3450.763794696314
 10
115750.0
 20
3314.7431655982464
 10
116000.0
 20
3175.4323819408664
 10
116250.0
 20
3032.7457780606396
 10
116500.0
 20
2886.5672438994347
 10
116750.0
 20
2736.742237245843
 10
117000.0
 20
2583.0667267361987
 10
117250.0
 20
2425.2715613626224
 10
117400.0
 20
2328.473098226168
 10
117500.0
 20
2262.99978657832
 10
117550.0
 20
2229.968761741931
 10
117700.0
 20
2129.6427889494553
 10
117750.0
 20
2095.7726409325182
 10
117850.0
 20
2027.3554366968037
 10
118000.0
 20
1922.9365048735692
 10
118000.0
 20
-1922.9365048735692
 10
117850.0
 20
-2027.3554366968037
 10
117750.0
 20
-2095.7726409325182
 10
117700.0
 20
-2129.6427889494553
 10
117550.0
 20
-2229.968761741931
 10
117500.0
 20
-2262.99978657832
 10
117400.0
 20
-2328.473098226168
 10
117250.0
 20
-2425.2715613626224
 10
117000.0
 20
-2583.0667267361987
 10
116750.0
 20
-2736.742237245843
 10
116500.0
 20
-2886.5672438994347
 10
116250.0
 20
-3032.7457780606396
 10
116000.0
 20
-3175.4323819408664
 10
115750.0
 20
-3314.7431655982464
 10
115500.0
 20
-3450.763794696314
 10
115250.0
 20
-3583.5553539226717
 10
115000.0
 20
-3713.158696378698
 10
114750.0
 20
-3839.597681024275
 10
114600.0
 20
-3913.946582844955
 10
114500.0
 20
-3962.88156520967
 10
114450.0
 20
-3987.1596231247204
 10
114300.0
 20
-4059.2349668582956
 10
114250.0
 20
-4083.006727122778
 10
114150.0
 20
-4130.169289051199
 10
114000.0
 20
-4199.957825009409
 10
113850.0
 20
-4268.59439713091
 10
113750.0
 20
-4313.708443216387
 10
113700.0
 20
-4336.071416987189
 10
113550.0
 20
-4402.379860144196
 10
113500.0
 20
-4424.221217624572
 10
113400.0
 20
-4467.509209387624
 10
113250.0
 20
-4531.447359486698
 10
113000.0
 20
-4635.325379228371
 10
112750.0
 20
-4735.7785874495
 10
112500.0
 20
-4832.710450511796
 10
112250.0
 20
-4925.995561498818
 10
112000.0
 20
-5015.459620140259
 10
111750.0
 20
-5100.819946601241
 10
111500.0
 20
-5181.549995704964
 10
111250.0
 20
-5259.368686287627
 10
111000.0
 20
-5334.991674818846
 10
110750.0
 20
-5408.452036832472
 10
110500.0
 20
-5479.7796357518555
 10
110250.0
 20
-5549.001324761795
 10
110000.0
 20
-5616.141118822764
 10
109750.0
 20
-5681.220339831276
 10
109500.0
 20
-5744.257737287266
 10
109250.0
 20
-5805.269586261362
 10
109000.0
 20
-5864.269763937357
 10
108750.0
 20
-5921.26980551504
 10
108500.0
 20
-5976.278939773687
 10
108250.0
 20
-6029.3041040931075
 10
108000.0
 20
-6080.349938180404
 10
107750.0
 20
-6129.418755123187
 10
107500.0
 20
-6176.5104876409
 10
107250.0
 20
-6221.622606476708
 10
107000.0
 20
-6264.750006680607
 10
106750.0
 20
-6305.884855960144
 10
106500.0
 20
-6345.016397139663
 10
106250.0
 20
-6382.130693797848
 10
106000.0
 20
-6417.210303914166
 10
105750.0
 20
-6450.233860146365
 10
105500.0
 20
-6481.1755260079
 10
105250.0
 20
-6510.00428267421
 10
105000.0
 20
-6536.682977720508
 10
104750.0
 20
-6561.1670277460935
 10
104500.0
 20
-6583.402597397373
 10
104250.0
 20
-6603.323947146905
 10
104000.0
 20
-6620.849379210571
 10
103750.0
 20
-6635.874625476517
 10
103500.0
 20
-6648.261034205118
 10
103250.0
 20
-6657.811332888394
 10
103000.0
 20
-6664.20622889363
 10
102750.0
 20
-6666.671494275496
 10
102500.0
 20
-6666.671494275496
 10
102250.0
 20
-6666.671494275496
 10
102000.0
 20
-6666.671494275496
 10
101750.0
 20
-6666.671494275496
 10
101500.0
 20
-6666.671494275496
 10
101250.0
 20
-6666.671494275496
 10
101000.0
 20
-6666.671494275496
 10
100500.0
 20
-6666.671494275496
 10
100000.0
 20
-6666.671494275496
 10
99500.0
 20
-6666.671494275496
 10
99000.0
 20
-6666.671494275496
 10
98500.0
 20
-6666.671494275496
 10
98000.0
 20
-6666.671494275496
 10
97500.0
 20
-6666.671494275496
 10
97000.0
 20
-6666.671494275496
 10
96500.0
 20
-6666.671494275496
 10
96000.0
 20
-6666.671494275496
 10
95500.0
 20
-6666.671494275496
 10
95000.0
 20
-6666.671494275496
 10
94500.0
 20
-6666.671494275496
 10
94000.0
 20
-6666.671494275496
 10
93500.0
 20
-6666.671494275496
 10
93000.0
 20
-6666.671494275496
 10
92500.0
 20
-6666.671494275496
 10
92000.0
 20
-6666.671494275496
 10
91500.0
 20
-6666.671494275496
 10
91000.0
 20
-6666.671494275496
 10
90500.0
 20
-6666.671494275496
 10
90000.0
 20
-6666.671494275496
 10
89500.0
 20
-6666.671494275496
 10
89000.0
 20
-6666.671494275496
 10
88500.0
 20
-6666.671494275496
 10
88000.0
 20
-6666.671494275496
 10
87500.0
 20
-6666.671494275496
 10
87000.0
 20
-6666.671494275496
 10
86500.0
 20
-6666.671494275496
 10
86000.0
 20
-6666.671494275496
 10
85500.0
 20
-6666.671494275496
 10
85000.0
 20
-6666.671494275496
 10
84500.0
 20
-6666.671494275496
 10
84000.0
 20
-6666.671494275496
 10
83500.0
 20
-6666.671494275496
 10
83000.0
 20
-6666.671494275496
 10
82500.0
 20
-6666.671494275496
 10
82000.0
 20
-6666.671494275496
 10
81500.0
 20
-6666.671494275496
 10
81000.0
 20
-6666.671494275496
 10
80500.0
 20
-6666.671494275496
 10
80000.0
 20
-6666.671494275496
 10
79500.0
 20
-6666.671494275496
 10
79000.0
 20
-6666.671494275496
 10
78500.0
 20
-6666.671494275496
 10
78000.0
 20
-6666.671494275496
 10
77500.0
 20
-6666.671494275496
 10
77000.0
 20
-6666.671494275496
 10
76500.0
 20
-6666.671494275496
 10
76000.0
 20
-6666.671494275496
 10
75500.0
 20
-6666.671494275496
 10
75000.0
 20
-6666.671494275496
 10
74600.0
 20
-6666.671494275496
 10
74500.0
 20
-6666.671494275496
 10
74450.0
 20
-6666.671494275496
 10
74300.0
 20
-6666.671494275496
 10
74150.0
 20
-6666.671494275496
 10
74000.0
 20
-6666.671494275496
 10
73850.0
 20
-6666.671494275496
 10
73700.0
 20
-6666.671494275496
 10
73550.0
 20
-6666.671494275496
 10
73500.0
 20
-6666.671494275496
 10
73400.0
 20
-6666.671494275496
 10
73000.0
 20
-6666.671494275496
 10
72500.0
 20
-6666.671494275496
 10
72000.0
 20
-6666.671494275496
 10
71500.0
 20
-6666.671494275496
 10
71000.0
 20
-6666.671494275496
 10
70500.0
 20
-6666.671494275496
 10
70000.0
 20
-6666.671494275496
 10
69500.0
 20
-6666.671494275496
 10
69000.0
 20
-6666.671494275496
 10
68500.0
 20
-6666.671494275496
 10
68000.0
 20
-6666.671494275496
 10
67500.0
 20
-6666.671494275496
 10
67000.0
 20
-6666.671494275496
 10
66500.0
 20
-6666.671494275496
 10
66000.0
 20
-6666.671494275496
 10
65500.0
 20
-6666.671494275496
 10
65000.0
 20
-6666.671494275496
 10
64500.0
 20
-6666.671494275496
 10
64000.0
 20
-6666.671494275496
 10
63500.0
 20
-6666.671494275496
 10
63000.0
 20
-6666.671494275496
 10
62500.0
 20
-6666.671494275496
 10
62000.0
 20
-6666.671494275496
 10
61500.0
 20
-6666.671494275496
 10
61000.0
 20
-6666.671494275496
 10
60500.0
 20
-6666.671494275496
 10
60000.0
 20
-6666.671494275496
 10
59500.0
 20
-6666.671494275496
 10
59000.0
 20
-6666.671494275496
 10
58600.0
 20
-6666.671494275496
 10
58500.0
 20
-6666.671494275496
 10
58450.0
 20
-6666.671494275496
 10
58300.0
 20
-6666.671494275496
 10
58150.0
 20
-6666.671494275496
 10
58000.0
 20
-6666.671494275496
 10
57850.0
 20
-6666.671494275496
 10
57700.0
 20
-6666.671494275496
 10
57550.0
 20
-6666.671494275496
 10
57500.0
 20
-6666.671494275496
 10
57400.0
 20
-6666.671494275496
 10
57000.0
 20
-6666.671494275496
 10
56500.0
 20
-6666.671494275496
 10
56000.0
 20
-6666.671494275496
 10
55500.0
 20
-6666.671494275496
 10
55000.0
 20
-6666.671494275496
 10
54500.0
 20
-6666.671494275496
 10
54000.0
 20
-6666.671494275496
 10
53500.0
 20
-6666.671494275496
 10
53000.0
 20
-6666.671494275496
 10
52500.0
 20
-6666.671494275496
 10
52000.0
 20
-6666.671494275496
 10
51500.0
 20
-6666.671494275496
 10
51000.0
 20
-6666.671494275496
 10
50500.0
 20
-6666.671494275496
 10
50000.0
 20
-6666.671494275496
 10
49500.0
 20
-6666.671494275496
 10
49000.0
 20
-6666.671494275496
 10
48500.0
 20
-6666.671494275496
 10
48000.0
 20
-6666.671494275496
 10
47500.0
 20
-6666.671494275496
 10
47000.0
 20
-6666.671494275496
 10
46500.0
 20
-6666.671494275496
 10
46000.0
 20
-6666.671494275496
 10
45500.0
 20
-6666.671494275496
 10
45000.0
 20
-6666.671494275496
 10
44500.0
 20
-6666.671494275496
 10
44000.0
 20
-6666.671494275496
 10
43500.0
 20
-6666.671494275496
 10
43000.0
 20
-6666.671494275496
 10
42500.0
 20
-6666.671494275496
 10
42000.0
 20
-6666.671494275496
 10
41500.0
 20
-6666.671494275496
 10
41000.0
 20
-6666.671494275496
 10
40500.0
 20
-6666.671494275496
 10
40000.0
 20
-6666.671494275496
 10
39500.0
 20
-6666.671494275496
 10
39000.0
 20
-6666.671494275496
 10
38500.0
 20
-6666.671494275496
 10
38000.0
 20
-6666.671494275496
 10
37500.0
 20
-6666.671494275496
 10
37000.0
 20
-6666.671494275496
 10
36500.0
 20
-6666.671494275496
 10
36000.0
 20
-6666.671494275496
 10
35500.0
 20
-6666.671494275496
 10
35000.0
 20
-6666.671494275496
 10
34500.0
 20
-6666.671494275496
 10
34000.0
 20
-6666.671494275496
 10
33500.0
 20
-6666.671494275496
 10
33000.0
 20
-6666.671494275496
 10
32500.0
 20
-6666.671494275496
 10
32000.0
 20
-6666.671494275496
 10
31500.0
 20
-6666.671494275496
 10
31000.0
 20
-6666.671494275496
 10
30500.0
 20
-6666.671494275496
 10
30000.0
 20
-6666.671494275496
 10
29500.0
 20
-6666.671494275496
 10
29000.0
 20
-6666.671494275496
 10
28500.0
 20
-6666.671494275496
 10
28000.0
 20
-6666.671494275496
 10
27500.0
 20
-6666.671494275496
 10
27000.0
 20
-6666.671494275496
 10
26500.0
 20
-6666.671494275496
 10
26000.0
 20
-6666.671494275496
 10
25500.0
 20
-6666.671494275496
 10
25000.0
 20
-6666.671494275496
 10
24500.0
 20
-6666.671494275496
 10
24000.0
 20
-6666.671494275496
 10
23750.0
 20
-6666.671494275496
 10
23500.0
 20
-6666.671494275496
 10
23250.0
 20
-6666.671494275496
 10
23000.0
 20
-6666.671494275496
 10
22750.0
 20
-6666.665689423593
 10
22500.0
 20
-6666.3816517798605
 10
22250.0
 20
-6665.3775711573335
 10
22000.0
 20
-6663.346274296797
 10
21750.0
 20
-6660.033179853799
 10
21500.0
 20
-6655.211630322092
 10
21250.0
 20
-6648.672176858152
 10
21000.0
 20
-6640.216325924253
 10
20750.0
 20
-6629.652236815642
 10
20600.0
 20
-6622.223355780069
 10
20500.0
 20
-6616.791396853093
 10
20450.0
 20
-6613.92709521979
 10
20300.0
 20
-6604.722778491413
 10
20250.0
 20
-6601.445808161727
 10
20150.0
 20
-6594.5693981334325
 10
20000.0
 20
-6583.425423903837
 10
19850.0
 20
-6571.24860939184
 10
19750.0
 20
-6562.535662768961
 10
19700.0
 20
-6557.995793964274
 10
19550.0
 20
-6543.622696913968
 10
19500.0
 20
-6538.574871430561
 10
19400.0
 20
-6528.083700639756
 10
19250.0
 20
-6511.331619521942
 10
19000.0
 20
-6480.581710040346
 10
18750.0
 20
-6446.084773209166
 10
18500.0
 20
-6407.580283447436
 10
18250.0
 20
-6364.782794198143
 10
18000.0
 20
-6317.37611787464
 10
17750.0
 20
-6265.006077695551
 10
17500.0
 20
-6207.271307409349
 10
17250.0
 20
-6143.711344912086
 10
17000.0
 20
-6073.790906940924
 10
16750.0
 20
-5996.878656780161
 10
16500.0
 20
-5912.217824735461
 10
16250.0
 20
-5818.88440506629
 10
16000.0
 20
-5715.725716065082
 10
15750.0
 20
-5601.266556382993
 10
15600.0
 20
-5526.382709952086
 10
15500.0
 20
-5473.559010521851
 10
15450.0
 20
-5446.209244704111
 10
15300.0
 20
-5360.090853610647
 10
15250.0
 20
-5329.927643804119
 10
15150.0
 20
-5267.206701732645
 10
15000.0
 20
-5166.503526595108
  0
LINE
  5
A8
330
17
100
AcDbEntity
  8
07_ОСИ
100
AcDbLine
 10
13000.0
 20
0.0
 30
0.0
 11
120000.0
 21
0.0
 31
0.0
  0
LWPOLYLINE
  5
A9
330
17
100
AcDbEntity
  8
05_ОБОРУДОВАНИЕ
100
AcDbPolyline
 90
4
 70
1
 10
100000.0
 20
-4600.0
 10
111000.0
 20
-4600.0
 10
111000.0
 20
4600.0
 10
100000.0
 20
4600.0
  0
TEXT
  5
AA
330
17
100
AcDbEntity
  8
05_ОБОРУДОВАНИЕ
100
AcDbText
 10
105500.0
 20
3999.9999999999995
 30
0.0
 40
300.0
  1
Рулевая рубка
  7
ГОСТ
 72
1
 11
105500.0
 21
3999.9999999999995
 31
0.0
100
AcDbText
 73
2
  0
LWPOLYLINE
  5
AB
330
17
100
AcDbEntity
  8
05_ОБОРУДОВАНИЕ
100
AcDbPolyline
 90
4
 70
1
 10
58000.0
 20
-5500.0
 10
74000.0
 20
-5500.0
 10
74000.0
 20
5500.0
 10
58000.0
 20
5500.0
  0
TEXT
  5
AC
330
17
100
AcDbEntity
  8
05_ОБОРУДОВАНИЕ
100
AcDbText
 10
66000.0
 20
4900.0
 30
0.0
 40
300.0
  1
Навес солнечных модулей 24 кВт
  7
ГОСТ
 72
1
 11
66000.0
 21
4900.0
 31
0.0
100
AcDbText
 73
2
  0
LWPOLYLINE
  5
AD
330
17
100
AcDbEntity
  8
05_ОБОРУДОВАНИЕ
100
AcDbPolyline
 90
4
 70
1
 10
67000.0
 20
-3400.0
 10
73000.0
 20
-3400.0
 10
73000.0
 20
3400.0
 10
67000.0
 20
3400.0
  0
TEXT
  5
AE
330
17
100
AcDbEntity
  8
05_ОБОРУДОВАНИЕ
100
AcDbText
 10
70000.0
 20
0.0
 30
0.0
 40
300.0
  1
Световой фонарь атриума
  7
ГОСТ
 72
1
 11
70000.0
 21
0.0
 31
0.0
100
AcDbText
 73
2
  0
LWPOLYLINE
  5
AF
330
17
100
AcDbEntity
  8
05_ОБОРУДОВАНИЕ
100
AcDbPolyline
 90
4
 70
1
 10
81600.0
 20
-900.0
 10
84400.0
 20
-900.0
 10
84400.0
 20
900.0
 10
81600.0
 20
900.0
  0
LWPOLYLINE
  5
B0
330
17
100
AcDbEntity
  8
05_ОБОРУДОВАНИЕ
100
AcDbPolyline
 90
4
 70
1
 10
20200.0
 20
-1550.0
 10
25800.0
 20
-1550.0
 10
25800.0
 20
1550.0
 10
20200.0
 20
1550.0
  0
LWPOLYLINE
  5
B1
330
17
100
AcDbEntity
  8
05_ОБОРУДОВАНИЕ
100
AcDbPolyline
 90
4
 70
1
 10
64200.0
 20
-1550.0
 10
69800.0
 20
-1550.0
 10
69800.0
 20
1550.0
 10
64200.0
 20
1550.0
  0
LWPOLYLINE
  5
B2
330
17
100
AcDbEntity
  8
05_ОБОРУДОВАНИЕ
100
AcDbPolyline
 90
4
 70
1
 10
21000.0
 20
-1000.0
 10
23100.0
 20
-1000.0
 10
23100.0
 20
1000.0
 10
21000.0
 20
1000.0
  0
LWPOLYLINE
  5
B3
330
17
100
AcDbEntity
  8
30_СЛОТЫ
100
AcDbPolyline
 90
4
 70
1
 10
28084.0
 20
-5419.0
 10
34142.0
 20
-5419.0
 10
34142.0
 20
-2981.0
 10
28084.0
 20
-2981.0
  0
LWPOLYLINE
  5
B4
330
17
100
AcDbEntity
  8
30_СЛОТЫ
100
AcDbPolyline
 90
4
 70
1
 10
28084.0
 20
-1219.0
 10
34142.0
 20
-1219.0
 10
34142.0
 20
1219.0
 10
28084.0
 20
1219.0
  0
LWPOLYLINE
  5
B5
330
17
100
AcDbEntity
  8
30_СЛОТЫ
100
AcDbPolyline
 90
4
 70
1
 10
28084.0
 20
2981.0
 10
34142.0
 20
2981.0
 10
34142.0
 20
5419.0
 10
28084.0
 20
5419.0
  0
LWPOLYLINE
  5
B6
330
17
100
AcDbEntity
  8
30_СЛОТЫ
100
AcDbPolyline
 90
4
 70
1
 10
35342.0
 20
-5419.0
 10
41400.0
 20
-5419.0
 10
41400.0
 20
-2981.0
 10
35342.0
 20
-2981.0
  0
LWPOLYLINE
  5
B7
330
17
100
AcDbEntity
  8
30_СЛОТЫ
100
AcDbPolyline
 90
4
 70
1
 10
35342.0
 20
-1219.0
 10
41400.0
 20
-1219.0
 10
41400.0
 20
1219.0
 10
35342.0
 20
1219.0
  0
LWPOLYLINE
  5
B8
330
17
100
AcDbEntity
  8
30_СЛОТЫ
100
AcDbPolyline
 90
4
 70
1
 10
35342.0
 20
2981.0
 10
41400.0
 20
2981.0
 10
41400.0
 20
5419.0
 10
35342.0
 20
5419.0
  0
LWPOLYLINE
  5
B9
330
17
100
AcDbEntity
  8
30_СЛОТЫ
100
AcDbPolyline
 90
4
 70
1
 10
42600.0
 20
-5419.0
 10
48658.0
 20
-5419.0
 10
48658.0
 20
-2981.0
 10
42600.0
 20
-2981.0
  0
LWPOLYLINE
  5
BA
330
17
100
AcDbEntity
  8
30_СЛОТЫ
100
AcDbPolyline
 90
4
 70
1
 10
42600.0
 20
-1219.0
 10
48658.0
 20
-1219.0
 10
48658.0
 20
1219.0
 10
42600.0
 20
1219.0
  0
LWPOLYLINE
  5
BB
330
17
100
AcDbEntity
  8
30_СЛОТЫ
100
AcDbPolyline
 90
4
 70
1
 10
42600.0
 20
2981.0
 10
48658.0
 20
2981.0
 10
48658.0
 20
5419.0
 10
42600.0
 20
5419.0
  0
LWPOLYLINE
  5
BC
330
17
100
AcDbEntity
  8
30_СЛОТЫ
100
AcDbPolyline
 90
4
 70
1
 10
49858.0
 20
-5419.0
 10
55916.0
 20
-5419.0
 10
55916.0
 20
-2981.0
 10
49858.0
 20
-2981.0
  0
LWPOLYLINE
  5
BD
330
17
100
AcDbEntity
  8
30_СЛОТЫ
100
AcDbPolyline
 90
4
 70
1
 10
49858.0
 20
-1219.0
 10
55916.0
 20
-1219.0
 10
55916.0
 20
1219.0
 10
49858.0
 20
1219.0
  0
LWPOLYLINE
  5
BE
330
17
100
AcDbEntity
  8
30_СЛОТЫ
100
AcDbPolyline
 90
4
 70
1
 10
49858.0
 20
2981.0
 10
55916.0
 20
2981.0
 10
55916.0
 20
5419.0
 10
49858.0
 20
5419.0
  0
LWPOLYLINE
  5
BF
330
17
100
AcDbEntity
  8
30_СЛОТЫ
100
AcDbPolyline
 90
4
 70
1
 10
76713.0
 20
-5419.0
 10
82771.0
 20
-5419.0
 10
82771.0
 20
-2981.0
 10
76713.0
 20
-2981.0
  0
LWPOLYLINE
  5
C0
330
17
100
AcDbEntity
  8
30_СЛОТЫ
100
AcDbPolyline
 90
4
 70
1
 10
76713.0
 20
2981.0
 10
82771.0
 20
2981.0
 10
82771.0
 20
5419.0
 10
76713.0
 20
5419.0
  0
LWPOLYLINE
  5
C1
330
17
100
AcDbEntity
  8
30_СЛОТЫ
100
AcDbPolyline
 90
4
 70
1
 10
83971.0
 20
-5419.0
 10
90029.0
 20
-5419.0
 10
90029.0
 20
-2981.0
 10
83971.0
 20
-2981.0
  0
LWPOLYLINE
  5
C2
330
17
100
AcDbEntity
  8
30_СЛОТЫ
100
AcDbPolyline
 90
4
 70
1
 10
83971.0
 20
2981.0
 10
90029.0
 20
2981.0
 10
90029.0
 20
5419.0
 10
83971.0
 20
5419.0
  0
LWPOLYLINE
  5
C3
330
17
100
AcDbEntity
  8
30_СЛОТЫ
100
AcDbPolyline
 90
4
 70
1
 10
91229.0
 20
-5419.0
 10
97287.0
 20
-5419.0
 10
97287.0
 20
-2981.0
 10
91229.0
 20
-2981.0
  0
LWPOLYLINE
  5
C4
330
17
100
AcDbEntity
  8
30_СЛОТЫ
100
AcDbPolyline
 90
4
 70
1
 10
91229.0
 20
2981.0
 10
97287.0
 20
2981.0
 10
97287.0
 20
5419.0
 10
91229.0
 20
5419.0
  0
TEXT
  5
C5
330
17
100
AcDbEntity
  8
08_ТЕКСТ
100
AcDbText
 10
42000.0
 20
7265.0
 30
0.0
 40
420.0
  1
площадка А - x 26…58, 32 × 13,33 м
  7
ГОСТ
 72
1
 11
42000.0
 21
7265.0
 31
0.0
100
AcDbText
 73
1
  0
LINE
  5
C6
330
17
100
AcDbEntity
  8
06_ПОМЕЩЕНИЯ
100
AcDbLine
 10
26000.0
 20
-6665.0
 30
0.0
 11
26000.0
 21
6665.0
 31
0.0
  0
LINE
  5
C7
330
17
100
AcDbEntity
  8
06_ПОМЕЩЕНИЯ
100
AcDbLine
 10
58000.0
 20
-6665.0
 30
0.0
 11
58000.0
 21
6665.0
 31
0.0
  0
TEXT
  5
C8
330
17
100
AcDbEntity
  8
08_ТЕКСТ
100
AcDbText
 10
87000.0
 20
7265.0
 30
0.0
 40
420.0
  1
площадка Б - x 74…100, 26 × 13,33 м
  7
ГОСТ
 72
1
 11
87000.0
 21
7265.0
 31
0.0
100
AcDbText
 73
1
  0
LINE
  5
C9
330
17
100
AcDbEntity
  8
06_ПОМЕЩЕНИЯ
100
AcDbLine
 10
74000.0
 20
-6665.0
 30
0.0
 11
74000.0
 21
6665.0
 31
0.0
  0
LINE
  5
CA
330
17
100
AcDbEntity
  8
06_ПОМЕЩЕНИЯ
100
AcDbLine
 10
100000.0
 20
-6665.0
 30
0.0
 11
100000.0
 21
6665.0
 31
0.0
  0
LINE
  5
CB
330
17
100
AcDbEntity
  8
32_БАЛКИ
100
AcDbLine
 10
26000.0
 20
-5330.0
 30
0.0
 11
58000.0
 21
-5330.0
 31
0.0
  0
LINE
  5
CC
330
17
100
AcDbEntity
  8
32_БАЛКИ
100
AcDbLine
 10
74000.0
 20
-5330.0
 30
0.0
 11
100000.0
 21
-5330.0
 31
0.0
  0
LINE
  5
CD
330
17
100
AcDbEntity
  8
32_БАЛКИ
100
AcDbLine
 10
26000.0
 20
-3071.0
 30
0.0
 11
58000.0
 21
-3071.0
 31
0.0
  0
LINE
  5
CE
330
17
100
AcDbEntity
  8
32_БАЛКИ
100
AcDbLine
 10
74000.0
 20
-3071.0
 30
0.0
 11
100000.0
 21
-3071.0
 31
0.0
  0
LINE
  5
CF
330
17
100
AcDbEntity
  8
32_БАЛКИ
100
AcDbLine
 10
26000.0
 20
-1129.0
 30
0.0
 11
58000.0
 21
-1129.0
 31
0.0
  0
LINE
  5
D0
330
17
100
AcDbEntity
  8
32_БАЛКИ
100
AcDbLine
 10
26000.0
 20
1129.0
 30
0.0
 11
58000.0
 21
1129.0
 31
0.0
  0
LINE
  5
D1
330
17
100
AcDbEntity
  8
32_БАЛКИ
100
AcDbLine
 10
26000.0
 20
3071.0
 30
0.0
 11
58000.0
 21
3071.0
 31
0.0
  0
LINE
  5
D2
330
17
100
AcDbEntity
  8
32_БАЛКИ
100
AcDbLine
 10
74000.0
 20
3071.0
 30
0.0
 11
100000.0
 21
3071.0
 31
0.0
  0
LINE
  5
D3
330
17
100
AcDbEntity
  8
32_БАЛКИ
100
AcDbLine
 10
26000.0
 20
5330.0
 30
0.0
 11
58000.0
 21
5330.0
 31
0.0
  0
LINE
  5
D4
330
17
100
AcDbEntity
  8
32_БАЛКИ
100
AcDbLine
 10
74000.0
 20
5330.0
 30
0.0
 11
100000.0
 21
5330.0
 31
0.0
  0
TEXT
  5
D5
330
17
100
AcDbEntity
  8
32_БАЛКИ
100
AcDbText
 10
25700.0
 20
-5330.0
 30
0.0
 40
300.0
  1
продольные балки под фитингами
  7
ГОСТ
 72
2
 11
25700.0
 21
-5330.0
 31
0.0
100
AcDbText
 73
2
  0
TEXT
  5
D6
330
17
100
AcDbEntity
  8
30_СЛОТЫ
100
AcDbText
 10
31113.0
 20
-3750.0
 30
0.0
 40
450.0
  1
А-1-ЛБ
  7
ГОСТ
 72
1
 11
31113.0
 21
-3750.0
 31
0.0
100
AcDbText
 73
2
  0
TEXT
  5
D7
330
17
100
AcDbEntity
  8
30_СЛОТЫ
100
AcDbText
 10
31113.0
 20
-4650.0
 30
0.0
 40
270.0
  1
6,06 × 2,44
  7
ГОСТ
 72
1
 11
31113.0
 21
-4650.0
 31
0.0
100
AcDbText
 73
2
  0
LWPOLYLINE
  5
D8
330
17
100
AcDbEntity
  8
31_ФУНДАМЕНТЫ
100
AcDbPolyline
 90
4
 70
1
 10
28036.0
 20
-5480.0
 10
28336.0
 20
-5480.0
 10
28336.0
 20
-5180.0
 10
28036.0
 20
-5180.0
  0
LWPOLYLINE
  5
D9
330
17
100
AcDbEntity
  8
31_ФУНДАМЕНТЫ
100
AcDbPolyline
 90
4
 70
1
 10
28036.0
 20
-3221.0
 10
28336.0
 20
-3221.0
 10
28336.0
 20
-2921.0
 10
28036.0
 20
-2921.0
  0
LWPOLYLINE
  5
DA
330
17
100
AcDbEntity
  8
31_ФУНДАМЕНТЫ
100
AcDbPolyline
 90
4
 70
1
 10
33889.0
 20
-5480.0
 10
34189.0
 20
-5480.0
 10
34189.0
 20
-5180.0
 10
33889.0
 20
-5180.0
  0
LWPOLYLINE
  5
DB
330
17
100
AcDbEntity
  8
31_ФУНДАМЕНТЫ
100
AcDbPolyline
 90
4
 70
1
 10
33889.0
 20
-3221.0
 10
34189.0
 20
-3221.0
 10
34189.0
 20
-2921.0
 10
33889.0
 20
-2921.0
  0
CIRCLE
  5
DC
330
17
100
AcDbEntity
  8
33_СРЕДЫ
100
AcDbCircle
 10
27634.0
 20
-4200.0
 30
0.0
 40
200.0
  0
TEXT
  5
DD
330
17
100
AcDbEntity
  8
30_СЛОТЫ
100
AcDbText
 10
31113.0
 20
450.0
 30
0.0
 40
450.0
  1
А-1-ДП
  7
ГОСТ
 72
1
 11
31113.0
 21
450.0
 31
0.0
100
AcDbText
 73
2
  0
TEXT
  5
DE
330
17
100
AcDbEntity
  8
30_СЛОТЫ
100
AcDbText
 10
31113.0
 20
-450.0
 30
0.0
 40
270.0
  1
6,06 × 2,44
  7
ГОСТ
 72
1
 11
31113.0
 21
-450.0
 31
0.0
100
AcDbText
 73
2
  0
LWPOLYLINE
  5
DF
330
17
100
AcDbEntity
  8
31_ФУНДАМЕНТЫ
100
AcDbPolyline
 90
4
 70
1
 10
28036.0
 20
-1279.0
 10
28336.0
 20
-1279.0
 10
28336.0
 20
-979.0
 10
28036.0
 20
-979.0
  0
LWPOLYLINE
  5
E0
330
17
100
AcDbEntity
  8
31_ФУНДАМЕНТЫ
100
AcDbPolyline
 90
4
 70
1
 10
28036.0
 20
979.0
 10
28336.0
 20
979.0
 10
28336.0
 20
1279.0
 10
28036.0
 20
1279.0
  0
LWPOLYLINE
  5
E1
330
17
100
AcDbEntity
  8
31_ФУНДАМЕНТЫ
100
AcDbPolyline
 90
4
 70
1
 10
33889.0
 20
-1279.0
 10
34189.0
 20
-1279.0
 10
34189.0
 20
-979.0
 10
33889.0
 20
-979.0
  0
LWPOLYLINE
  5
E2
330
17
100
AcDbEntity
  8
31_ФУНДАМЕНТЫ
100
AcDbPolyline
 90
4
 70
1
 10
33889.0
 20
979.0
 10
34189.0
 20
979.0
 10
34189.0
 20
1279.0
 10
33889.0
 20
1279.0
  0
CIRCLE
  5
E3
330
17
100
AcDbEntity
  8
33_СРЕДЫ
100
AcDbCircle
 10
27634.0
 20
0.0
 30
0.0
 40
200.0
  0
TEXT
  5
E4
330
17
100
AcDbEntity
  8
30_СЛОТЫ
100
AcDbText
 10
31113.0
 20
4650.0
 30
0.0
 40
450.0
  1
А-1-ПБ
  7
ГОСТ
 72
1
 11
31113.0
 21
4650.0
 31
0.0
100
AcDbText
 73
2
  0
TEXT
  5
E5
330
17
100
AcDbEntity
  8
30_СЛОТЫ
100
AcDbText
 10
31113.0
 20
3750.0
 30
0.0
 40
270.0
  1
6,06 × 2,44
  7
ГОСТ
 72
1
 11
31113.0
 21
3750.0
 31
0.0
100
AcDbText
 73
2
  0
LWPOLYLINE
  5
E6
330
17
100
AcDbEntity
  8
31_ФУНДАМЕНТЫ
100
AcDbPolyline
 90
4
 70
1
 10
28036.0
 20
2921.0
 10
28336.0
 20
2921.0
 10
28336.0
 20
3221.0
 10
28036.0
 20
3221.0
  0
LWPOLYLINE
  5
E7
330
17
100
AcDbEntity
  8
31_ФУНДАМЕНТЫ
100
AcDbPolyline
 90
4
 70
1
 10
28036.0
 20
5180.0
 10
28336.0
 20
5180.0
 10
28336.0
 20
5480.0
 10
28036.0
 20
5480.0
  0
LWPOLYLINE
  5
E8
330
17
100
AcDbEntity
  8
31_ФУНДАМЕНТЫ
100
AcDbPolyline
 90
4
 70
1
 10
33889.0
 20
2921.0
 10
34189.0
 20
2921.0
 10
34189.0
 20
3221.0
 10
33889.0
 20
3221.0
  0
LWPOLYLINE
  5
E9
330
17
100
AcDbEntity
  8
31_ФУНДАМЕНТЫ
100
AcDbPolyline
 90
4
 70
1
 10
33889.0
 20
5180.0
 10
34189.0
 20
5180.0
 10
34189.0
 20
5480.0
 10
33889.0
 20
5480.0
  0
CIRCLE
  5
EA
330
17
100
AcDbEntity
  8
33_СРЕДЫ
100
AcDbCircle
 10
27634.0
 20
4200.0
 30
0.0
 40
200.0
  0
TEXT
  5
EB
330
17
100
AcDbEntity
  8
30_СЛОТЫ
100
AcDbText
 10
38371.0
 20
-3750.0
 30
0.0
 40
450.0
  1
А-2-ЛБ
  7
ГОСТ
 72
1
 11
38371.0
 21
-3750.0
 31
0.0
100
AcDbText
 73
2
  0
TEXT
  5
EC
330
17
100
AcDbEntity
  8
30_СЛОТЫ
100
AcDbText
 10
38371.0
 20
-4650.0
 30
0.0
 40
270.0
  1
6,06 × 2,44
  7
ГОСТ
 72
1
 11
38371.0
 21
-4650.0
 31
0.0
100
AcDbText
 73
2
  0
LWPOLYLINE
  5
ED
330
17
100
AcDbEntity
  8
31_ФУНДАМЕНТЫ
100
AcDbPolyline
 90
4
 70
1
 10
35294.0
 20
-5480.0
 10
35594.0
 20
-5480.0
 10
35594.0
 20
-5180.0
 10
35294.0
 20
-5180.0
  0
LWPOLYLINE
  5
EE
330
17
100
AcDbEntity
  8
31_ФУНДАМЕНТЫ
100
AcDbPolyline
 90
4
 70
1
 10
35294.0
 20
-3221.0
 10
35594.0
 20
-3221.0
 10
35594.0
 20
-2921.0
 10
35294.0
 20
-2921.0
  0
LWPOLYLINE
  5
EF
330
17
100
AcDbEntity
  8
31_ФУНДАМЕНТЫ
100
AcDbPolyline
 90
4
 70
1
 10
41147.0
 20
-5480.0
 10
41447.0
 20
-5480.0
 10
41447.0
 20
-5180.0
 10
41147.0
 20
-5180.0
  0
LWPOLYLINE
  5
F0
330
17
100
AcDbEntity
  8
31_ФУНДАМЕНТЫ
100
AcDbPolyline
 90
4
 70
1
 10
41147.0
 20
-3221.0
 10
41447.0
 20
-3221.0
 10
41447.0
 20
-2921.0
 10
41147.0
 20
-2921.0
  0
CIRCLE
  5
F1
330
17
100
AcDbEntity
  8
33_СРЕДЫ
100
AcDbCircle
 10
34892.0
 20
-4200.0
 30
0.0
 40
200.0
  0
TEXT
  5
F2
330
17
100
AcDbEntity
  8
30_СЛОТЫ
100
AcDbText
 10
38371.0
 20
450.0
 30
0.0
 40
450.0
  1
А-2-ДП
  7
ГОСТ
 72
1
 11
38371.0
 21
450.0
 31
0.0
100
AcDbText
 73
2
  0
TEXT
  5
F3
330
17
100
AcDbEntity
  8
30_СЛОТЫ
100
AcDbText
 10
38371.0
 20
-450.0
 30
0.0
 40
270.0
  1
6,06 × 2,44
  7
ГОСТ
 72
1
 11
38371.0
 21
-450.0
 31
0.0
100
AcDbText
 73
2
  0
LWPOLYLINE
  5
F4
330
17
100
AcDbEntity
  8
31_ФУНДАМЕНТЫ
100
AcDbPolyline
 90
4
 70
1
 10
35294.0
 20
-1279.0
 10
35594.0
 20
-1279.0
 10
35594.0
 20
-979.0
 10
35294.0
 20
-979.0
  0
LWPOLYLINE
  5
F5
330
17
100
AcDbEntity
  8
31_ФУНДАМЕНТЫ
100
AcDbPolyline
 90
4
 70
1
 10
35294.0
 20
979.0
 10
35594.0
 20
979.0
 10
35594.0
 20
1279.0
 10
35294.0
 20
1279.0
  0
LWPOLYLINE
  5
F6
330
17
100
AcDbEntity
  8
31_ФУНДАМЕНТЫ
100
AcDbPolyline
 90
4
 70
1
 10
41147.0
 20
-1279.0
 10
41447.0
 20
-1279.0
 10
41447.0
 20
-979.0
 10
41147.0
 20
-979.0
  0
LWPOLYLINE
  5
F7
330
17
100
AcDbEntity
  8
31_ФУНДАМЕНТЫ
100
AcDbPolyline
 90
4
 70
1
 10
41147.0
 20
979.0
 10
41447.0
 20
979.0
 10
41447.0
 20
1279.0
 10
41147.0
 20
1279.0
  0
CIRCLE
  5
F8
330
17
100
AcDbEntity
  8
33_СРЕДЫ
100
AcDbCircle
 10
34892.0
 20
0.0
 30
0.0
 40
200.0
  0
TEXT
  5
F9
330
17
100
AcDbEntity
  8
30_СЛОТЫ
100
AcDbText
 10
38371.0
 20
4650.0
 30
0.0
 40
450.0
  1
А-2-ПБ
  7
ГОСТ
 72
1
 11
38371.0
 21
4650.0
 31
0.0
100
AcDbText
 73
2
  0
TEXT
  5
FA
330
17
100
AcDbEntity
  8
30_СЛОТЫ
100
AcDbText
 10
38371.0
 20
3750.0
 30
0.0
 40
270.0
  1
6,06 × 2,44
  7
ГОСТ
 72
1
 11
38371.0
 21
3750.0
 31
0.0
100
AcDbText
 73
2
  0
LWPOLYLINE
  5
FB
330
17
100
AcDbEntity
  8
31_ФУНДАМЕНТЫ
100
AcDbPolyline
 90
4
 70
1
 10
35294.0
 20
2921.0
 10
35594.0
 20
2921.0
 10
35594.0
 20
3221.0
 10
35294.0
 20
3221.0
  0
LWPOLYLINE
  5
FC
330
17
100
AcDbEntity
  8
31_ФУНДАМЕНТЫ
100
AcDbPolyline
 90
4
 70
1
 10
35294.0
 20
5180.0
 10
35594.0
 20
5180.0
 10
35594.0
 20
5480.0
 10
35294.0
 20
5480.0
  0
LWPOLYLINE
  5
FD
330
17
100
AcDbEntity
  8
31_ФУНДАМЕНТЫ
100
AcDbPolyline
 90
4
 70
1
 10
41147.0
 20
2921.0
 10
41447.0
 20
2921.0
 10
41447.0
 20
3221.0
 10
41147.0
 20
3221.0
  0
LWPOLYLINE
  5
FE
330
17
100
AcDbEntity
  8
31_ФУНДАМЕНТЫ
100
AcDbPolyline
 90
4
 70
1
 10
41147.0
 20
5180.0
 10
41447.0
 20
5180.0
 10
41447.0
 20
5480.0
 10
41147.0
 20
5480.0
  0
CIRCLE
  5
FF
330
17
100
AcDbEntity
  8
33_СРЕДЫ
100
AcDbCircle
 10
34892.0
 20
4200.0
 30
0.0
 40
200.0
  0
TEXT
  5
100
330
17
100
AcDbEntity
  8
30_СЛОТЫ
100
AcDbText
 10
45629.0
 20
-3750.0
 30
0.0
 40
450.0
  1
А-3-ЛБ
  7
ГОСТ
 72
1
 11
45629.0
 21
-3750.0
 31
0.0
100
AcDbText
 73
2
  0
TEXT
  5
101
330
17
100
AcDbEntity
  8
30_СЛОТЫ
100
AcDbText
 10
45629.0
 20
-4650.0
 30
0.0
 40
270.0
  1
6,06 × 2,44
  7
ГОСТ
 72
1
 11
45629.0
 21
-4650.0
 31
0.0
100
AcDbText
 73
2
  0
LWPOLYLINE
  5
102
330
17
100
AcDbEntity
  8
31_ФУНДАМЕНТЫ
100
AcDbPolyline
 90
4
 70
1
 10
42553.0
 20
-5480.0
 10
42853.0
 20
-5480.0
 10
42853.0
 20
-5180.0
 10
42553.0
 20
-5180.0
  0
LWPOLYLINE
  5
103
330
17
100
AcDbEntity
  8
31_ФУНДАМЕНТЫ
100
AcDbPolyline
 90
4
 70
1
 10
42553.0
 20
-3221.0
 10
42853.0
 20
-3221.0
 10
42853.0
 20
-2921.0
 10
42553.0
 20
-2921.0
  0
LWPOLYLINE
  5
104
330
17
100
AcDbEntity
  8
31_ФУНДАМЕНТЫ
100
AcDbPolyline
 90
4
 70
1
 10
48406.0
 20
-5480.0
 10
48706.0
 20
-5480.0
 10
48706.0
 20
-5180.0
 10
48406.0
 20
-5180.0
  0
LWPOLYLINE
  5
105
330
17
100
AcDbEntity
  8
31_ФУНДАМЕНТЫ
100
AcDbPolyline
 90
4
 70
1
 10
48406.0
 20
-3221.0
 10
48706.0
 20
-3221.0
 10
48706.0
 20
-2921.0
 10
48406.0
 20
-2921.0
  0
CIRCLE
  5
106
330
17
100
AcDbEntity
  8
33_СРЕДЫ
100
AcDbCircle
 10
42150.0
 20
-4200.0
 30
0.0
 40
200.0
  0
TEXT
  5
107
330
17
100
AcDbEntity
  8
30_СЛОТЫ
100
AcDbText
 10
45629.0
 20
450.0
 30
0.0
 40
450.0
  1
А-3-ДП
  7
ГОСТ
 72
1
 11
45629.0
 21
450.0
 31
0.0
100
AcDbText
 73
2
  0
TEXT
  5
108
330
17
100
AcDbEntity
  8
30_СЛОТЫ
100
AcDbText
 10
45629.0
 20
-450.0
 30
0.0
 40
270.0
  1
6,06 × 2,44
  7
ГОСТ
 72
1
 11
45629.0
 21
-450.0
 31
0.0
100
AcDbText
 73
2
  0
LWPOLYLINE
  5
109
330
17
100
AcDbEntity
  8
31_ФУНДАМЕНТЫ
100
AcDbPolyline
 90
4
 70
1
 10
42553.0
 20
-1279.0
 10
42853.0
 20
-1279.0
 10
42853.0
 20
-979.0
 10
42553.0
 20
-979.0
  0
LWPOLYLINE
  5
10A
330
17
100
AcDbEntity
  8
31_ФУНДАМЕНТЫ
100
AcDbPolyline
 90
4
 70
1
 10
42553.0
 20
979.0
 10
42853.0
 20
979.0
 10
42853.0
 20
1279.0
 10
42553.0
 20
1279.0
  0
LWPOLYLINE
  5
10B
330
17
100
AcDbEntity
  8
31_ФУНДАМЕНТЫ
100
AcDbPolyline
 90
4
 70
1
 10
48406.0
 20
-1279.0
 10
48706.0
 20
-1279.0
 10
48706.0
 20
-979.0
 10
48406.0
 20
-979.0
  0
LWPOLYLINE
  5
10C
330
17
100
AcDbEntity
  8
31_ФУНДАМЕНТЫ
100
AcDbPolyline
 90
4
 70
1
 10
48406.0
 20
979.0
 10
48706.0
 20
979.0
 10
48706.0
 20
1279.0
 10
48406.0
 20
1279.0
  0
CIRCLE
  5
10D
330
17
100
AcDbEntity
  8
33_СРЕДЫ
100
AcDbCircle
 10
42150.0
 20
0.0
 30
0.0
 40
200.0
  0
TEXT
  5
10E
330
17
100
AcDbEntity
  8
30_СЛОТЫ
100
AcDbText
 10
45629.0
 20
4650.0
 30
0.0
 40
450.0
  1
А-3-ПБ
  7
ГОСТ
 72
1
 11
45629.0
 21
4650.0
 31
0.0
100
AcDbText
 73
2
  0
TEXT
  5
10F
330
17
100
AcDbEntity
  8
30_СЛОТЫ
100
AcDbText
 10
45629.0
 20
3750.0
 30
0.0
 40
270.0
  1
6,06 × 2,44
  7
ГОСТ
 72
1
 11
45629.0
 21
3750.0
 31
0.0
100
AcDbText
 73
2
  0
LWPOLYLINE
  5
110
330
17
100
AcDbEntity
  8
31_ФУНДАМЕНТЫ
100
AcDbPolyline
 90
4
 70
1
 10
42553.0
 20
2921.0
 10
42853.0
 20
2921.0
 10
42853.0
 20
3221.0
 10
42553.0
 20
3221.0
  0
LWPOLYLINE
  5
111
330
17
100
AcDbEntity
  8
31_ФУНДАМЕНТЫ
100
AcDbPolyline
 90
4
 70
1
 10
42553.0
 20
5180.0
 10
42853.0
 20
5180.0
 10
42853.0
 20
5480.0
 10
42553.0
 20
5480.0
  0
LWPOLYLINE
  5
112
330
17
100
AcDbEntity
  8
31_ФУНДАМЕНТЫ
100
AcDbPolyline
 90
4
 70
1
 10
48406.0
 20
2921.0
 10
48706.0
 20
2921.0
 10
48706.0
 20
3221.0
 10
48406.0
 20
3221.0
  0
LWPOLYLINE
  5
113
330
17
100
AcDbEntity
  8
31_ФУНДАМЕНТЫ
100
AcDbPolyline
 90
4
 70
1
 10
48406.0
 20
5180.0
 10
48706.0
 20
5180.0
 10
48706.0
 20
5480.0
 10
48406.0
 20
5480.0
  0
CIRCLE
  5
114
330
17
100
AcDbEntity
  8
33_СРЕДЫ
100
AcDbCircle
 10
42150.0
 20
4200.0
 30
0.0
 40
200.0
  0
TEXT
  5
115
330
17
100
AcDbEntity
  8
30_СЛОТЫ
100
AcDbText
 10
52887.0
 20
-3750.0
 30
0.0
 40
450.0
  1
А-4-ЛБ
  7
ГОСТ
 72
1
 11
52887.0
 21
-3750.0
 31
0.0
100
AcDbText
 73
2
  0
TEXT
  5
116
330
17
100
AcDbEntity
  8
30_СЛОТЫ
100
AcDbText
 10
52887.0
 20
-4650.0
 30
0.0
 40
270.0
  1
6,06 × 2,44
  7
ГОСТ
 72
1
 11
52887.0
 21
-4650.0
 31
0.0
100
AcDbText
 73
2
  0
LWPOLYLINE
  5
117
330
17
100
AcDbEntity
  8
31_ФУНДАМЕНТЫ
100
AcDbPolyline
 90
4
 70
1
 10
49811.0
 20
-5480.0
 10
50111.0
 20
-5480.0
 10
50111.0
 20
-5180.0
 10
49811.0
 20
-5180.0
  0
LWPOLYLINE
  5
118
330
17
100
AcDbEntity
  8
31_ФУНДАМЕНТЫ
100
AcDbPolyline
 90
4
 70
1
 10
49811.0
 20
-3221.0
 10
50111.0
 20
-3221.0
 10
50111.0
 20
-2921.0
 10
49811.0
 20
-2921.0
  0
LWPOLYLINE
  5
119
330
17
100
AcDbEntity
  8
31_ФУНДАМЕНТЫ
100
AcDbPolyline
 90
4
 70
1
 10
55663.0
 20
-5480.0
 10
55963.0
 20
-5480.0
 10
55963.0
 20
-5180.0
 10
55663.0
 20
-5180.0
  0
LWPOLYLINE
  5
11A
330
17
100
AcDbEntity
  8
31_ФУНДАМЕНТЫ
100
AcDbPolyline
 90
4
 70
1
 10
55663.0
 20
-3221.0
 10
55963.0
 20
-3221.0
 10
55963.0
 20
-2921.0
 10
55663.0
 20
-2921.0
  0
CIRCLE
  5
11B
330
17
100
AcDbEntity
  8
33_СРЕДЫ
100
AcDbCircle
 10
49408.0
 20
-4200.0
 30
0.0
 40
200.0
  0
TEXT
  5
11C
330
17
100
AcDbEntity
  8
30_СЛОТЫ
100
AcDbText
 10
52887.0
 20
450.0
 30
0.0
 40
450.0
  1
А-4-ДП
  7
ГОСТ
 72
1
 11
52887.0
 21
450.0
 31
0.0
100
AcDbText
 73
2
  0
TEXT
  5
11D
330
17
100
AcDbEntity
  8
30_СЛОТЫ
100
AcDbText
 10
52887.0
 20
-450.0
 30
0.0
 40
270.0
  1
6,06 × 2,44
  7
ГОСТ
 72
1
 11
52887.0
 21
-450.0
 31
0.0
100
AcDbText
 73
2
  0
LWPOLYLINE
  5
11E
330
17
100
AcDbEntity
  8
31_ФУНДАМЕНТЫ
100
AcDbPolyline
 90
4
 70
1
 10
49811.0
 20
-1279.0
 10
50111.0
 20
-1279.0
 10
50111.0
 20
-979.0
 10
49811.0
 20
-979.0
  0
LWPOLYLINE
  5
11F
330
17
100
AcDbEntity
  8
31_ФУНДАМЕНТЫ
100
AcDbPolyline
 90
4
 70
1
 10
49811.0
 20
979.0
 10
50111.0
 20
979.0
 10
50111.0
 20
1279.0
 10
49811.0
 20
1279.0
  0
LWPOLYLINE
  5
120
330
17
100
AcDbEntity
  8
31_ФУНДАМЕНТЫ
100
AcDbPolyline
 90
4
 70
1
 10
55663.0
 20
-1279.0
 10
55963.0
 20
-1279.0
 10
55963.0
 20
-979.0
 10
55663.0
 20
-979.0
  0
LWPOLYLINE
  5
121
330
17
100
AcDbEntity
  8
31_ФУНДАМЕНТЫ
100
AcDbPolyline
 90
4
 70
1
 10
55663.0
 20
979.0
 10
55963.0
 20
979.0
 10
55963.0
 20
1279.0
 10
55663.0
 20
1279.0
  0
CIRCLE
  5
122
330
17
100
AcDbEntity
  8
33_СРЕДЫ
100
AcDbCircle
 10
49408.0
 20
0.0
 30
0.0
 40
200.0
  0
TEXT
  5
123
330
17
100
AcDbEntity
  8
30_СЛОТЫ
100
AcDbText
 10
52887.0
 20
4650.0
 30
0.0
 40
450.0
  1
А-4-ПБ
  7
ГОСТ
 72
1
 11
52887.0
 21
4650.0
 31
0.0
100
AcDbText
 73
2
  0
TEXT
  5
124
330
17
100
AcDbEntity
  8
30_СЛОТЫ
100
AcDbText
 10
52887.0
 20
3750.0
 30
0.0
 40
270.0
  1
6,06 × 2,44
  7
ГОСТ
 72
1
 11
52887.0
 21
3750.0
 31
0.0
100
AcDbText
 73
2
  0
LWPOLYLINE
  5
125
330
17
100
AcDbEntity
  8
31_ФУНДАМЕНТЫ
100
AcDbPolyline
 90
4
 70
1
 10
49811.0
 20
2921.0
 10
50111.0
 20
2921.0
 10
50111.0
 20
3221.0
 10
49811.0
 20
3221.0
  0
LWPOLYLINE
  5
126
330
17
100
AcDbEntity
  8
31_ФУНДАМЕНТЫ
100
AcDbPolyline
 90
4
 70
1
 10
49811.0
 20
5180.0
 10
50111.0
 20
5180.0
 10
50111.0
 20
5480.0
 10
49811.0
 20
5480.0
  0
LWPOLYLINE
  5
127
330
17
100
AcDbEntity
  8
31_ФУНДАМЕНТЫ
100
AcDbPolyline
 90
4
 70
1
 10
55663.0
 20
2921.0
 10
55963.0
 20
2921.0
 10
55963.0
 20
3221.0
 10
55663.0
 20
3221.0
  0
LWPOLYLINE
  5
128
330
17
100
AcDbEntity
  8
31_ФУНДАМЕНТЫ
100
AcDbPolyline
 90
4
 70
1
 10
55663.0
 20
5180.0
 10
55963.0
 20
5180.0
 10
55963.0
 20
5480.0
 10
55663.0
 20
5480.0
  0
CIRCLE
  5
129
330
17
100
AcDbEntity
  8
33_СРЕДЫ
100
AcDbCircle
 10
49408.0
 20
4200.0
 30
0.0
 40
200.0
  0
TEXT
  5
12A
330
17
100
AcDbEntity
  8
30_СЛОТЫ
100
AcDbText
 10
79742.0
 20
-3750.0
 30
0.0
 40
450.0
  1
Б-1-ЛБ
  7
ГОСТ
 72
1
 11
79742.0
 21
-3750.0
 31
0.0
100
AcDbText
 73
2
  0
TEXT
  5
12B
330
17
100
AcDbEntity
  8
30_СЛОТЫ
100
AcDbText
 10
79742.0
 20
-4650.0
 30
0.0
 40
270.0
  1
6,06 × 2,44
  7
ГОСТ
 72
1
 11
79742.0
 21
-4650.0
 31
0.0
100
AcDbText
 73
2
  0
LWPOLYLINE
  5
12C
330
17
100
AcDbEntity
  8
31_ФУНДАМЕНТЫ
100
AcDbPolyline
 90
4
 70
1
 10
76665.0
 20
-5480.0
 10
76965.0
 20
-5480.0
 10
76965.0
 20
-5180.0
 10
76665.0
 20
-5180.0
  0
LWPOLYLINE
  5
12D
330
17
100
AcDbEntity
  8
31_ФУНДАМЕНТЫ
100
AcDbPolyline
 90
4
 70
1
 10
76665.0
 20
-3221.0
 10
76965.0
 20
-3221.0
 10
76965.0
 20
-2921.0
 10
76665.0
 20
-2921.0
  0
LWPOLYLINE
  5
12E
330
17
100
AcDbEntity
  8
31_ФУНДАМЕНТЫ
100
AcDbPolyline
 90
4
 70
1
 10
82518.0
 20
-5480.0
 10
82818.0
 20
-5480.0
 10
82818.0
 20
-5180.0
 10
82518.0
 20
-5180.0
  0
LWPOLYLINE
  5
12F
330
17
100
AcDbEntity
  8
31_ФУНДАМЕНТЫ
100
AcDbPolyline
 90
4
 70
1
 10
82518.0
 20
-3221.0
 10
82818.0
 20
-3221.0
 10
82818.0
 20
-2921.0
 10
82518.0
 20
-2921.0
  0
CIRCLE
  5
130
330
17
100
AcDbEntity
  8
33_СРЕДЫ
100
AcDbCircle
 10
76263.0
 20
-4200.0
 30
0.0
 40
200.0
  0
TEXT
  5
131
330
17
100
AcDbEntity
  8
30_СЛОТЫ
100
AcDbText
 10
79742.0
 20
4650.0
 30
0.0
 40
450.0
  1
Б-1-ПБ
  7
ГОСТ
 72
1
 11
79742.0
 21
4650.0
 31
0.0
100
AcDbText
 73
2
  0
TEXT
  5
132
330
17
100
AcDbEntity
  8
30_СЛОТЫ
100
AcDbText
 10
79742.0
 20
3750.0
 30
0.0
 40
270.0
  1
6,06 × 2,44
  7
ГОСТ
 72
1
 11
79742.0
 21
3750.0
 31
0.0
100
AcDbText
 73
2
  0
LWPOLYLINE
  5
133
330
17
100
AcDbEntity
  8
31_ФУНДАМЕНТЫ
100
AcDbPolyline
 90
4
 70
1
 10
76665.0
 20
2921.0
 10
76965.0
 20
2921.0
 10
76965.0
 20
3221.0
 10
76665.0
 20
3221.0
  0
LWPOLYLINE
  5
134
330
17
100
AcDbEntity
  8
31_ФУНДАМЕНТЫ
100
AcDbPolyline
 90
4
 70
1
 10
76665.0
 20
5180.0
 10
76965.0
 20
5180.0
 10
76965.0
 20
5480.0
 10
76665.0
 20
5480.0
  0
LWPOLYLINE
  5
135
330
17
100
AcDbEntity
  8
31_ФУНДАМЕНТЫ
100
AcDbPolyline
 90
4
 70
1
 10
82518.0
 20
2921.0
 10
82818.0
 20
2921.0
 10
82818.0
 20
3221.0
 10
82518.0
 20
3221.0
  0
LWPOLYLINE
  5
136
330
17
100
AcDbEntity
  8
31_ФУНДАМЕНТЫ
100
AcDbPolyline
 90
4
 70
1
 10
82518.0
 20
5180.0
 10
82818.0
 20
5180.0
 10
82818.0
 20
5480.0
 10
82518.0
 20
5480.0
  0
CIRCLE
  5
137
330
17
100
AcDbEntity
  8
33_СРЕДЫ
100
AcDbCircle
 10
76263.0
 20
4200.0
 30
0.0
 40
200.0
  0
TEXT
  5
138
330
17
100
AcDbEntity
  8
30_СЛОТЫ
100
AcDbText
 10
87000.0
 20
-3750.0
 30
0.0
 40
450.0
  1
Б-2-ЛБ
  7
ГОСТ
 72
1
 11
87000.0
 21
-3750.0
 31
0.0
100
AcDbText
 73
2
  0
TEXT
  5
139
330
17
100
AcDbEntity
  8
30_СЛОТЫ
100
AcDbText
 10
87000.0
 20
-4650.0
 30
0.0
 40
270.0
  1
6,06 × 2,44
  7
ГОСТ
 72
1
 11
87000.0
 21
-4650.0
 31
0.0
100
AcDbText
 73
2
  0
LWPOLYLINE
  5
13A
330
17
100
AcDbEntity
  8
31_ФУНДАМЕНТЫ
100
AcDbPolyline
 90
4
 70
1
 10
83923.0
 20
-5480.0
 10
84223.0
 20
-5480.0
 10
84223.0
 20
-5180.0
 10
83923.0
 20
-5180.0
  0
LWPOLYLINE
  5
13B
330
17
100
AcDbEntity
  8
31_ФУНДАМЕНТЫ
100
AcDbPolyline
 90
4
 70
1
 10
83923.0
 20
-3221.0
 10
84223.0
 20
-3221.0
 10
84223.0
 20
-2921.0
 10
83923.0
 20
-2921.0
  0
LWPOLYLINE
  5
13C
330
17
100
AcDbEntity
  8
31_ФУНДАМЕНТЫ
100
AcDbPolyline
 90
4
 70
1
 10
89776.0
 20
-5480.0
 10
90076.0
 20
-5480.0
 10
90076.0
 20
-5180.0
 10
89776.0
 20
-5180.0
  0
LWPOLYLINE
  5
13D
330
17
100
AcDbEntity
  8
31_ФУНДАМЕНТЫ
100
AcDbPolyline
 90
4
 70
1
 10
89776.0
 20
-3221.0
 10
90076.0
 20
-3221.0
 10
90076.0
 20
-2921.0
 10
89776.0
 20
-2921.0
  0
CIRCLE
  5
13E
330
17
100
AcDbEntity
  8
33_СРЕДЫ
100
AcDbCircle
 10
83521.0
 20
-4200.0
 30
0.0
 40
200.0
  0
TEXT
  5
13F
330
17
100
AcDbEntity
  8
30_СЛОТЫ
100
AcDbText
 10
87000.0
 20
4650.0
 30
0.0
 40
450.0
  1
Б-2-ПБ
  7
ГОСТ
 72
1
 11
87000.0
 21
4650.0
 31
0.0
100
AcDbText
 73
2
  0
TEXT
  5
140
330
17
100
AcDbEntity
  8
30_СЛОТЫ
100
AcDbText
 10
87000.0
 20
3750.0
 30
0.0
 40
270.0
  1
6,06 × 2,44
  7
ГОСТ
 72
1
 11
87000.0
 21
3750.0
 31
0.0
100
AcDbText
 73
2
  0
LWPOLYLINE
  5
141
330
17
100
AcDbEntity
  8
31_ФУНДАМЕНТЫ
100
AcDbPolyline
 90
4
 70
1
 10
83923.0
 20
2921.0
 10
84223.0
 20
2921.0
 10
84223.0
 20
3221.0
 10
83923.0
 20
3221.0
  0
LWPOLYLINE
  5
142
330
17
100
AcDbEntity
  8
31_ФУНДАМЕНТЫ
100
AcDbPolyline
 90
4
 70
1
 10
83923.0
 20
5180.0
 10
84223.0
 20
5180.0
 10
84223.0
 20
5480.0
 10
83923.0
 20
5480.0
  0
LWPOLYLINE
  5
143
330
17
100
AcDbEntity
  8
31_ФУНДАМЕНТЫ
100
AcDbPolyline
 90
4
 70
1
 10
89776.0
 20
2921.0
 10
90076.0
 20
2921.0
 10
90076.0
 20
3221.0
 10
89776.0
 20
3221.0
  0
LWPOLYLINE
  5
144
330
17
100
AcDbEntity
  8
31_ФУНДАМЕНТЫ
100
AcDbPolyline
 90
4
 70
1
 10
89776.0
 20
5180.0
 10
90076.0
 20
5180.0
 10
90076.0
 20
5480.0
 10
89776.0
 20
5480.0
  0
CIRCLE
  5
145
330
17
100
AcDbEntity
  8
33_СРЕДЫ
100
AcDbCircle
 10
83521.0
 20
4200.0
 30
0.0
 40
200.0
  0
TEXT
  5
146
330
17
100
AcDbEntity
  8
30_СЛОТЫ
100
AcDbText
 10
94258.0
 20
-3750.0
 30
0.0
 40
450.0
  1
Б-3-ЛБ
  7
ГОСТ
 72
1
 11
94258.0
 21
-3750.0
 31
0.0
100
AcDbText
 73
2
  0
TEXT
  5
147
330
17
100
AcDbEntity
  8
30_СЛОТЫ
100
AcDbText
 10
94258.0
 20
-4650.0
 30
0.0
 40
270.0
  1
6,06 × 2,44
  7
ГОСТ
 72
1
 11
94258.0
 21
-4650.0
 31
0.0
100
AcDbText
 73
2
  0
LWPOLYLINE
  5
148
330
17
100
AcDbEntity
  8
31_ФУНДАМЕНТЫ
100
AcDbPolyline
 90
4
 70
1
 10
91181.0
 20
-5480.0
 10
91481.0
 20
-5480.0
 10
91481.0
 20
-5180.0
 10
91181.0
 20
-5180.0
  0
LWPOLYLINE
  5
149
330
17
100
AcDbEntity
  8
31_ФУНДАМЕНТЫ
100
AcDbPolyline
 90
4
 70
1
 10
91181.0
 20
-3221.0
 10
91481.0
 20
-3221.0
 10
91481.0
 20
-2921.0
 10
91181.0
 20
-2921.0
  0
LWPOLYLINE
  5
14A
330
17
100
AcDbEntity
  8
31_ФУНДАМЕНТЫ
100
AcDbPolyline
 90
4
 70
1
 10
97034.0
 20
-5480.0
 10
97334.0
 20
-5480.0
 10
97334.0
 20
-5180.0
 10
97034.0
 20
-5180.0
  0
LWPOLYLINE
  5
14B
330
17
100
AcDbEntity
  8
31_ФУНДАМЕНТЫ
100
AcDbPolyline
 90
4
 70
1
 10
97034.0
 20
-3221.0
 10
97334.0
 20
-3221.0
 10
97334.0
 20
-2921.0
 10
97034.0
 20
-2921.0
  0
CIRCLE
  5
14C
330
17
100
AcDbEntity
  8
33_СРЕДЫ
100
AcDbCircle
 10
90779.0
 20
-4200.0
 30
0.0
 40
200.0
  0
TEXT
  5
14D
330
17
100
AcDbEntity
  8
30_СЛОТЫ
100
AcDbText
 10
94258.0
 20
4650.0
 30
0.0
 40
450.0
  1
Б-3-ПБ
  7
ГОСТ
 72
1
 11
94258.0
 21
4650.0
 31
0.0
100
AcDbText
 73
2
  0
TEXT
  5
14E
330
17
100
AcDbEntity
  8
30_СЛОТЫ
100
AcDbText
 10
94258.0
 20
3750.0
 30
0.0
 40
270.0
  1
6,06 × 2,44
  7
ГОСТ
 72
1
 11
94258.0
 21
3750.0
 31
0.0
100
AcDbText
 73
2
  0
LWPOLYLINE
  5
14F
330
17
100
AcDbEntity
  8
31_ФУНДАМЕНТЫ
100
AcDbPolyline
 90
4
 70
1
 10
91181.0
 20
2921.0
 10
91481.0
 20
2921.0
 10
91481.0
 20
3221.0
 10
91181.0
 20
3221.0
  0
LWPOLYLINE
  5
150
330
17
100
AcDbEntity
  8
31_ФУНДАМЕНТЫ
100
AcDbPolyline
 90
4
 70
1
 10
91181.0
 20
5180.0
 10
91481.0
 20
5180.0
 10
91481.0
 20
5480.0
 10
91181.0
 20
5480.0
  0
LWPOLYLINE
  5
151
330
17
100
AcDbEntity
  8
31_ФУНДАМЕНТЫ
100
AcDbPolyline
 90
4
 70
1
 10
97034.0
 20
2921.0
 10
97334.0
 20
2921.0
 10
97334.0
 20
3221.0
 10
97034.0
 20
3221.0
  0
LWPOLYLINE
  5
152
330
17
100
AcDbEntity
  8
31_ФУНДАМЕНТЫ
100
AcDbPolyline
 90
4
 70
1
 10
97034.0
 20
5180.0
 10
97334.0
 20
5180.0
 10
97334.0
 20
5480.0
 10
97034.0
 20
5480.0
  0
CIRCLE
  5
153
330
17
100
AcDbEntity
  8
33_СРЕДЫ
100
AcDbCircle
 10
90779.0
 20
4200.0
 30
0.0
 40
200.0
  0
TEXT
  5
154
330
17
100
AcDbEntity
  8
31_ФУНДАМЕНТЫ
100
AcDbText
 10
28186.0
 20
-5650.0
 30
0.0
 40
240.0
  1
1
  7
ГОСТ
 72
1
 11
28186.0
 21
-5650.0
 31
0.0
100
AcDbText
 73
3
  0
TEXT
  5
155
330
17
100
AcDbEntity
  8
31_ФУНДАМЕНТЫ
100
AcDbText
 10
28186.0
 20
-2751.0
 30
0.0
 40
240.0
  1
2
  7
ГОСТ
 72
1
 11
28186.0
 21
-2751.0
 31
0.0
100
AcDbText
 73
1
  0
TEXT
  5
156
330
17
100
AcDbEntity
  8
31_ФУНДАМЕНТЫ
100
AcDbText
 10
34039.0
 20
-5650.0
 30
0.0
 40
240.0
  1
3
  7
ГОСТ
 72
1
 11
34039.0
 21
-5650.0
 31
0.0
100
AcDbText
 73
3
  0
TEXT
  5
157
330
17
100
AcDbEntity
  8
31_ФУНДАМЕНТЫ
100
AcDbText
 10
34039.0
 20
-2751.0
 30
0.0
 40
240.0
  1
4
  7
ГОСТ
 72
1
 11
34039.0
 21
-2751.0
 31
0.0
100
AcDbText
 73
1
  0
TEXT
  5
158
330
17
100
AcDbEntity
  8
31_ФУНДАМЕНТЫ
100
AcDbText
 10
28186.0
 20
-1449.0
 30
0.0
 40
240.0
  1
5
  7
ГОСТ
 72
1
 11
28186.0
 21
-1449.0
 31
0.0
100
AcDbText
 73
3
  0
TEXT
  5
159
330
17
100
AcDbEntity
  8
31_ФУНДАМЕНТЫ
100
AcDbText
 10
28186.0
 20
1449.0
 30
0.0
 40
240.0
  1
6
  7
ГОСТ
 72
1
 11
28186.0
 21
1449.0
 31
0.0
100
AcDbText
 73
1
  0
TEXT
  5
15A
330
17
100
AcDbEntity
  8
31_ФУНДАМЕНТЫ
100
AcDbText
 10
34039.0
 20
-1449.0
 30
0.0
 40
240.0
  1
7
  7
ГОСТ
 72
1
 11
34039.0
 21
-1449.0
 31
0.0
100
AcDbText
 73
3
  0
TEXT
  5
15B
330
17
100
AcDbEntity
  8
31_ФУНДАМЕНТЫ
100
AcDbText
 10
34039.0
 20
1449.0
 30
0.0
 40
240.0
  1
8
  7
ГОСТ
 72
1
 11
34039.0
 21
1449.0
 31
0.0
100
AcDbText
 73
1
  0
TEXT
  5
15C
330
17
100
AcDbEntity
  8
31_ФУНДАМЕНТЫ
100
AcDbText
 10
28186.0
 20
2751.0
 30
0.0
 40
240.0
  1
9
  7
ГОСТ
 72
1
 11
28186.0
 21
2751.0
 31
0.0
100
AcDbText
 73
3
  0
TEXT
  5
15D
330
17
100
AcDbEntity
  8
31_ФУНДАМЕНТЫ
100
AcDbText
 10
28186.0
 20
5650.0
 30
0.0
 40
240.0
  1
10
  7
ГОСТ
 72
1
 11
28186.0
 21
5650.0
 31
0.0
100
AcDbText
 73
1
  0
TEXT
  5
15E
330
17
100
AcDbEntity
  8
31_ФУНДАМЕНТЫ
100
AcDbText
 10
34039.0
 20
2751.0
 30
0.0
 40
240.0
  1
11
  7
ГОСТ
 72
1
 11
34039.0
 21
2751.0
 31
0.0
100
AcDbText
 73
3
  0
TEXT
  5
15F
330
17
100
AcDbEntity
  8
31_ФУНДАМЕНТЫ
100
AcDbText
 10
34039.0
 20
5650.0
 30
0.0
 40
240.0
  1
12
  7
ГОСТ
 72
1
 11
34039.0
 21
5650.0
 31
0.0
100
AcDbText
 73
1
  0
TEXT
  5
160
330
17
100
AcDbEntity
  8
31_ФУНДАМЕНТЫ
100
AcDbText
 10
35444.0
 20
-5650.0
 30
0.0
 40
240.0
  1
13
  7
ГОСТ
 72
1
 11
35444.0
 21
-5650.0
 31
0.0
100
AcDbText
 73
3
  0
TEXT
  5
161
330
17
100
AcDbEntity
  8
31_ФУНДАМЕНТЫ
100
AcDbText
 10
35444.0
 20
-2751.0
 30
0.0
 40
240.0
  1
14
  7
ГОСТ
 72
1
 11
35444.0
 21
-2751.0
 31
0.0
100
AcDbText
 73
1
  0
TEXT
  5
162
330
17
100
AcDbEntity
  8
31_ФУНДАМЕНТЫ
100
AcDbText
 10
41297.0
 20
-5650.0
 30
0.0
 40
240.0
  1
15
  7
ГОСТ
 72
1
 11
41297.0
 21
-5650.0
 31
0.0
100
AcDbText
 73
3
  0
TEXT
  5
163
330
17
100
AcDbEntity
  8
31_ФУНДАМЕНТЫ
100
AcDbText
 10
41297.0
 20
-2751.0
 30
0.0
 40
240.0
  1
16
  7
ГОСТ
 72
1
 11
41297.0
 21
-2751.0
 31
0.0
100
AcDbText
 73
1
  0
TEXT
  5
164
330
17
100
AcDbEntity
  8
31_ФУНДАМЕНТЫ
100
AcDbText
 10
35444.0
 20
-1449.0
 30
0.0
 40
240.0
  1
17
  7
ГОСТ
 72
1
 11
35444.0
 21
-1449.0
 31
0.0
100
AcDbText
 73
3
  0
TEXT
  5
165
330
17
100
AcDbEntity
  8
31_ФУНДАМЕНТЫ
100
AcDbText
 10
35444.0
 20
1449.0
 30
0.0
 40
240.0
  1
18
  7
ГОСТ
 72
1
 11
35444.0
 21
1449.0
 31
0.0
100
AcDbText
 73
1
  0
TEXT
  5
166
330
17
100
AcDbEntity
  8
31_ФУНДАМЕНТЫ
100
AcDbText
 10
41297.0
 20
-1449.0
 30
0.0
 40
240.0
  1
19
  7
ГОСТ
 72
1
 11
41297.0
 21
-1449.0
 31
0.0
100
AcDbText
 73
3
  0
TEXT
  5
167
330
17
100
AcDbEntity
  8
31_ФУНДАМЕНТЫ
100
AcDbText
 10
41297.0
 20
1449.0
 30
0.0
 40
240.0
  1
20
  7
ГОСТ
 72
1
 11
41297.0
 21
1449.0
 31
0.0
100
AcDbText
 73
1
  0
TEXT
  5
168
330
17
100
AcDbEntity
  8
31_ФУНДАМЕНТЫ
100
AcDbText
 10
35444.0
 20
2751.0
 30
0.0
 40
240.0
  1
21
  7
ГОСТ
 72
1
 11
35444.0
 21
2751.0
 31
0.0
100
AcDbText
 73
3
  0
TEXT
  5
169
330
17
100
AcDbEntity
  8
31_ФУНДАМЕНТЫ
100
AcDbText
 10
35444.0
 20
5650.0
 30
0.0
 40
240.0
  1
22
  7
ГОСТ
 72
1
 11
35444.0
 21
5650.0
 31
0.0
100
AcDbText
 73
1
  0
TEXT
  5
16A
330
17
100
AcDbEntity
  8
31_ФУНДАМЕНТЫ
100
AcDbText
 10
41297.0
 20
2751.0
 30
0.0
 40
240.0
  1
23
  7
ГОСТ
 72
1
 11
41297.0
 21
2751.0
 31
0.0
100
AcDbText
 73
3
  0
TEXT
  5
16B
330
17
100
AcDbEntity
  8
31_ФУНДАМЕНТЫ
100
AcDbText
 10
41297.0
 20
5650.0
 30
0.0
 40
240.0
  1
24
  7
ГОСТ
 72
1
 11
41297.0
 21
5650.0
 31
0.0
100
AcDbText
 73
1
  0
TEXT
  5
16C
330
17
100
AcDbEntity
  8
31_ФУНДАМЕНТЫ
100
AcDbText
 10
42703.0
 20
-5650.0
 30
0.0
 40
240.0
  1
25
  7
ГОСТ
 72
1
 11
42703.0
 21
-5650.0
 31
0.0
100
AcDbText
 73
3
  0
TEXT
  5
16D
330
17
100
AcDbEntity
  8
31_ФУНДАМЕНТЫ
100
AcDbText
 10
42703.0
 20
-2751.0
 30
0.0
 40
240.0
  1
26
  7
ГОСТ
 72
1
 11
42703.0
 21
-2751.0
 31
0.0
100
AcDbText
 73
1
  0
TEXT
  5
16E
330
17
100
AcDbEntity
  8
31_ФУНДАМЕНТЫ
100
AcDbText
 10
48556.0
 20
-5650.0
 30
0.0
 40
240.0
  1
27
  7
ГОСТ
 72
1
 11
48556.0
 21
-5650.0
 31
0.0
100
AcDbText
 73
3
  0
TEXT
  5
16F
330
17
100
AcDbEntity
  8
31_ФУНДАМЕНТЫ
100
AcDbText
 10
48556.0
 20
-2751.0
 30
0.0
 40
240.0
  1
28
  7
ГОСТ
 72
1
 11
48556.0
 21
-2751.0
 31
0.0
100
AcDbText
 73
1
  0
TEXT
  5
170
330
17
100
AcDbEntity
  8
31_ФУНДАМЕНТЫ
100
AcDbText
 10
42703.0
 20
-1449.0
 30
0.0
 40
240.0
  1
29
  7
ГОСТ
 72
1
 11
42703.0
 21
-1449.0
 31
0.0
100
AcDbText
 73
3
  0
TEXT
  5
171
330
17
100
AcDbEntity
  8
31_ФУНДАМЕНТЫ
100
AcDbText
 10
42703.0
 20
1449.0
 30
0.0
 40
240.0
  1
30
  7
ГОСТ
 72
1
 11
42703.0
 21
1449.0
 31
0.0
100
AcDbText
 73
1
  0
TEXT
  5
172
330
17
100
AcDbEntity
  8
31_ФУНДАМЕНТЫ
100
AcDbText
 10
48556.0
 20
-1449.0
 30
0.0
 40
240.0
  1
31
  7
ГОСТ
 72
1
 11
48556.0
 21
-1449.0
 31
0.0
100
AcDbText
 73
3
  0
TEXT
  5
173
330
17
100
AcDbEntity
  8
31_ФУНДАМЕНТЫ
100
AcDbText
 10
48556.0
 20
1449.0
 30
0.0
 40
240.0
  1
32
  7
ГОСТ
 72
1
 11
48556.0
 21
1449.0
 31
0.0
100
AcDbText
 73
1
  0
TEXT
  5
174
330
17
100
AcDbEntity
  8
31_ФУНДАМЕНТЫ
100
AcDbText
 10
42703.0
 20
2751.0
 30
0.0
 40
240.0
  1
33
  7
ГОСТ
 72
1
 11
42703.0
 21
2751.0
 31
0.0
100
AcDbText
 73
3
  0
TEXT
  5
175
330
17
100
AcDbEntity
  8
31_ФУНДАМЕНТЫ
100
AcDbText
 10
42703.0
 20
5650.0
 30
0.0
 40
240.0
  1
34
  7
ГОСТ
 72
1
 11
42703.0
 21
5650.0
 31
0.0
100
AcDbText
 73
1
  0
TEXT
  5
176
330
17
100
AcDbEntity
  8
31_ФУНДАМЕНТЫ
100
AcDbText
 10
48556.0
 20
2751.0
 30
0.0
 40
240.0
  1
35
  7
ГОСТ
 72
1
 11
48556.0
 21
2751.0
 31
0.0
100
AcDbText
 73
3
  0
TEXT
  5
177
330
17
100
AcDbEntity
  8
31_ФУНДАМЕНТЫ
100
AcDbText
 10
48556.0
 20
5650.0
 30
0.0
 40
240.0
  1
36
  7
ГОСТ
 72
1
 11
48556.0
 21
5650.0
 31
0.0
100
AcDbText
 73
1
  0
TEXT
  5
178
330
17
100
AcDbEntity
  8
31_ФУНДАМЕНТЫ
100
AcDbText
 10
49961.0
 20
-5650.0
 30
0.0
 40
240.0
  1
37
  7
ГОСТ
 72
1
 11
49961.0
 21
-5650.0
 31
0.0
100
AcDbText
 73
3
  0
TEXT
  5
179
330
17
100
AcDbEntity
  8
31_ФУНДАМЕНТЫ
100
AcDbText
 10
49961.0
 20
-2751.0
 30
0.0
 40
240.0
  1
38
  7
ГОСТ
 72
1
 11
49961.0
 21
-2751.0
 31
0.0
100
AcDbText
 73
1
  0
TEXT
  5
17A
330
17
100
AcDbEntity
  8
31_ФУНДАМЕНТЫ
100
AcDbText
 10
55813.0
 20
-5650.0
 30
0.0
 40
240.0
  1
39
  7
ГОСТ
 72
1
 11
55813.0
 21
-5650.0
 31
0.0
100
AcDbText
 73
3
  0
TEXT
  5
17B
330
17
100
AcDbEntity
  8
31_ФУНДАМЕНТЫ
100
AcDbText
 10
55813.0
 20
-2751.0
 30
0.0
 40
240.0
  1
40
  7
ГОСТ
 72
1
 11
55813.0
 21
-2751.0
 31
0.0
100
AcDbText
 73
1
  0
TEXT
  5
17C
330
17
100
AcDbEntity
  8
31_ФУНДАМЕНТЫ
100
AcDbText
 10
49961.0
 20
-1449.0
 30
0.0
 40
240.0
  1
41
  7
ГОСТ
 72
1
 11
49961.0
 21
-1449.0
 31
0.0
100
AcDbText
 73
3
  0
TEXT
  5
17D
330
17
100
AcDbEntity
  8
31_ФУНДАМЕНТЫ
100
AcDbText
 10
49961.0
 20
1449.0
 30
0.0
 40
240.0
  1
42
  7
ГОСТ
 72
1
 11
49961.0
 21
1449.0
 31
0.0
100
AcDbText
 73
1
  0
TEXT
  5
17E
330
17
100
AcDbEntity
  8
31_ФУНДАМЕНТЫ
100
AcDbText
 10
55813.0
 20
-1449.0
 30
0.0
 40
240.0
  1
43
  7
ГОСТ
 72
1
 11
55813.0
 21
-1449.0
 31
0.0
100
AcDbText
 73
3
  0
TEXT
  5
17F
330
17
100
AcDbEntity
  8
31_ФУНДАМЕНТЫ
100
AcDbText
 10
55813.0
 20
1449.0
 30
0.0
 40
240.0
  1
44
  7
ГОСТ
 72
1
 11
55813.0
 21
1449.0
 31
0.0
100
AcDbText
 73
1
  0
TEXT
  5
180
330
17
100
AcDbEntity
  8
31_ФУНДАМЕНТЫ
100
AcDbText
 10
49961.0
 20
2751.0
 30
0.0
 40
240.0
  1
45
  7
ГОСТ
 72
1
 11
49961.0
 21
2751.0
 31
0.0
100
AcDbText
 73
3
  0
TEXT
  5
181
330
17
100
AcDbEntity
  8
31_ФУНДАМЕНТЫ
100
AcDbText
 10
49961.0
 20
5650.0
 30
0.0
 40
240.0
  1
46
  7
ГОСТ
 72
1
 11
49961.0
 21
5650.0
 31
0.0
100
AcDbText
 73
1
  0
TEXT
  5
182
330
17
100
AcDbEntity
  8
31_ФУНДАМЕНТЫ
100
AcDbText
 10
55813.0
 20
2751.0
 30
0.0
 40
240.0
  1
47
  7
ГОСТ
 72
1
 11
55813.0
 21
2751.0
 31
0.0
100
AcDbText
 73
3
  0
TEXT
  5
183
330
17
100
AcDbEntity
  8
31_ФУНДАМЕНТЫ
100
AcDbText
 10
55813.0
 20
5650.0
 30
0.0
 40
240.0
  1
48
  7
ГОСТ
 72
1
 11
55813.0
 21
5650.0
 31
0.0
100
AcDbText
 73
1
  0
TEXT
  5
184
330
17
100
AcDbEntity
  8
31_ФУНДАМЕНТЫ
100
AcDbText
 10
76815.0
 20
-5650.0
 30
0.0
 40
240.0
  1
49
  7
ГОСТ
 72
1
 11
76815.0
 21
-5650.0
 31
0.0
100
AcDbText
 73
3
  0
TEXT
  5
185
330
17
100
AcDbEntity
  8
31_ФУНДАМЕНТЫ
100
AcDbText
 10
76815.0
 20
-2751.0
 30
0.0
 40
240.0
  1
50
  7
ГОСТ
 72
1
 11
76815.0
 21
-2751.0
 31
0.0
100
AcDbText
 73
1
  0
TEXT
  5
186
330
17
100
AcDbEntity
  8
31_ФУНДАМЕНТЫ
100
AcDbText
 10
82668.0
 20
-5650.0
 30
0.0
 40
240.0
  1
51
  7
ГОСТ
 72
1
 11
82668.0
 21
-5650.0
 31
0.0
100
AcDbText
 73
3
  0
TEXT
  5
187
330
17
100
AcDbEntity
  8
31_ФУНДАМЕНТЫ
100
AcDbText
 10
82668.0
 20
-2751.0
 30
0.0
 40
240.0
  1
52
  7
ГОСТ
 72
1
 11
82668.0
 21
-2751.0
 31
0.0
100
AcDbText
 73
1
  0
TEXT
  5
188
330
17
100
AcDbEntity
  8
31_ФУНДАМЕНТЫ
100
AcDbText
 10
76815.0
 20
2751.0
 30
0.0
 40
240.0
  1
53
  7
ГОСТ
 72
1
 11
76815.0
 21
2751.0
 31
0.0
100
AcDbText
 73
3
  0
TEXT
  5
189
330
17
100
AcDbEntity
  8
31_ФУНДАМЕНТЫ
100
AcDbText
 10
76815.0
 20
5650.0
 30
0.0
 40
240.0
  1
54
  7
ГОСТ
 72
1
 11
76815.0
 21
5650.0
 31
0.0
100
AcDbText
 73
1
  0
TEXT
  5
18A
330
17
100
AcDbEntity
  8
31_ФУНДАМЕНТЫ
100
AcDbText
 10
82668.0
 20
2751.0
 30
0.0
 40
240.0
  1
55
  7
ГОСТ
 72
1
 11
82668.0
 21
2751.0
 31
0.0
100
AcDbText
 73
3
  0
TEXT
  5
18B
330
17
100
AcDbEntity
  8
31_ФУНДАМЕНТЫ
100
AcDbText
 10
82668.0
 20
5650.0
 30
0.0
 40
240.0
  1
56
  7
ГОСТ
 72
1
 11
82668.0
 21
5650.0
 31
0.0
100
AcDbText
 73
1
  0
TEXT
  5
18C
330
17
100
AcDbEntity
  8
31_ФУНДАМЕНТЫ
100
AcDbText
 10
84073.0
 20
-5650.0
 30
0.0
 40
240.0
  1
57
  7
ГОСТ
 72
1
 11
84073.0
 21
-5650.0
 31
0.0
100
AcDbText
 73
3
  0
TEXT
  5
18D
330
17
100
AcDbEntity
  8
31_ФУНДАМЕНТЫ
100
AcDbText
 10
84073.0
 20
-2751.0
 30
0.0
 40
240.0
  1
58
  7
ГОСТ
 72
1
 11
84073.0
 21
-2751.0
 31
0.0
100
AcDbText
 73
1
  0
TEXT
  5
18E
330
17
100
AcDbEntity
  8
31_ФУНДАМЕНТЫ
100
AcDbText
 10
89926.0
 20
-5650.0
 30
0.0
 40
240.0
  1
59
  7
ГОСТ
 72
1
 11
89926.0
 21
-5650.0
 31
0.0
100
AcDbText
 73
3
  0
TEXT
  5
18F
330
17
100
AcDbEntity
  8
31_ФУНДАМЕНТЫ
100
AcDbText
 10
89926.0
 20
-2751.0
 30
0.0
 40
240.0
  1
60
  7
ГОСТ
 72
1
 11
89926.0
 21
-2751.0
 31
0.0
100
AcDbText
 73
1
  0
TEXT
  5
190
330
17
100
AcDbEntity
  8
31_ФУНДАМЕНТЫ
100
AcDbText
 10
84073.0
 20
2751.0
 30
0.0
 40
240.0
  1
61
  7
ГОСТ
 72
1
 11
84073.0
 21
2751.0
 31
0.0
100
AcDbText
 73
3
  0
TEXT
  5
191
330
17
100
AcDbEntity
  8
31_ФУНДАМЕНТЫ
100
AcDbText
 10
84073.0
 20
5650.0
 30
0.0
 40
240.0
  1
62
  7
ГОСТ
 72
1
 11
84073.0
 21
5650.0
 31
0.0
100
AcDbText
 73
1
  0
TEXT
  5
192
330
17
100
AcDbEntity
  8
31_ФУНДАМЕНТЫ
100
AcDbText
 10
89926.0
 20
2751.0
 30
0.0
 40
240.0
  1
63
  7
ГОСТ
 72
1
 11
89926.0
 21
2751.0
 31
0.0
100
AcDbText
 73
3
  0
TEXT
  5
193
330
17
100
AcDbEntity
  8
31_ФУНДАМЕНТЫ
100
AcDbText
 10
89926.0
 20
5650.0
 30
0.0
 40
240.0
  1
64
  7
ГОСТ
 72
1
 11
89926.0
 21
5650.0
 31
0.0
100
AcDbText
 73
1
  0
TEXT
  5
194
330
17
100
AcDbEntity
  8
31_ФУНДАМЕНТЫ
100
AcDbText
 10
91331.0
 20
-5650.0
 30
0.0
 40
240.0
  1
65
  7
ГОСТ
 72
1
 11
91331.0
 21
-5650.0
 31
0.0
100
AcDbText
 73
3
  0
TEXT
  5
195
330
17
100
AcDbEntity
  8
31_ФУНДАМЕНТЫ
100
AcDbText
 10
91331.0
 20
-2751.0
 30
0.0
 40
240.0
  1
66
  7
ГОСТ
 72
1
 11
91331.0
 21
-2751.0
 31
0.0
100
AcDbText
 73
1
  0
TEXT
  5
196
330
17
100
AcDbEntity
  8
31_ФУНДАМЕНТЫ
100
AcDbText
 10
97184.0
 20
-5650.0
 30
0.0
 40
240.0
  1
67
  7
ГОСТ
 72
1
 11
97184.0
 21
-5650.0
 31
0.0
100
AcDbText
 73
3
  0
TEXT
  5
197
330
17
100
AcDbEntity
  8
31_ФУНДАМЕНТЫ
100
AcDbText
 10
97184.0
 20
-2751.0
 30
0.0
 40
240.0
  1
68
  7
ГОСТ
 72
1
 11
97184.0
 21
-2751.0
 31
0.0
100
AcDbText
 73
1
  0
TEXT
  5
198
330
17
100
AcDbEntity
  8
31_ФУНДАМЕНТЫ
100
AcDbText
 10
91331.0
 20
2751.0
 30
0.0
 40
240.0
  1
69
  7
ГОСТ
 72
1
 11
91331.0
 21
2751.0
 31
0.0
100
AcDbText
 73
3
  0
TEXT
  5
199
330
17
100
AcDbEntity
  8
31_ФУНДАМЕНТЫ
100
AcDbText
 10
91331.0
 20
5650.0
 30
0.0
 40
240.0
  1
70
  7
ГОСТ
 72
1
 11
91331.0
 21
5650.0
 31
0.0
100
AcDbText
 73
1
  0
TEXT
  5
19A
330
17
100
AcDbEntity
  8
31_ФУНДАМЕНТЫ
100
AcDbText
 10
97184.0
 20
2751.0
 30
0.0
 40
240.0
  1
71
  7
ГОСТ
 72
1
 11
97184.0
 21
2751.0
 31
0.0
100
AcDbText
 73
3
  0
TEXT
  5
19B
330
17
100
AcDbEntity
  8
31_ФУНДАМЕНТЫ
100
AcDbText
 10
97184.0
 20
5650.0
 30
0.0
 40
240.0
  1
72
  7
ГОСТ
 72
1
 11
97184.0
 21
5650.0
 31
0.0
100
AcDbText
 73
1
  0
LINE
  5
19C
330
17
100
AcDbEntity
  8
09_РАЗМЕРЫ
100
AcDbLine
 10
28084.0
 20
8665.0
 30
0.0
 11
34142.0
 21
8665.0
 31
0.0
  0
LINE
  5
19D
330
17
100
AcDbEntity
  8
09_РАЗМЕРЫ
100
AcDbLine
 10
28084.0
 20
8440.0
 30
0.0
 11
28084.0
 21
8890.0
 31
0.0
  0
LINE
  5
19E
330
17
100
AcDbEntity
  8
09_РАЗМЕРЫ
100
AcDbLine
 10
28084.0
 20
8665.0
 30
0.0
 11
28084.0
 21
8665.0
 31
0.0
  0
LINE
  5
19F
330
17
100
AcDbEntity
  8
09_РАЗМЕРЫ
100
AcDbLine
 10
34142.0
 20
8440.0
 30
0.0
 11
34142.0
 21
8890.0
 31
0.0
  0
LINE
  5
1A0
330
17
100
AcDbEntity
  8
09_РАЗМЕРЫ
100
AcDbLine
 10
34142.0
 20
8665.0
 30
0.0
 11
34142.0
 21
8665.0
 31
0.0
  0
TEXT
  5
1A1
330
17
100
AcDbEntity
  8
09_РАЗМЕРЫ
100
AcDbText
 10
31113.0
 20
8815.0
 30
0.0
 40
360.0
  1
6058
  7
ГОСТ
 72
1
 11
31113.0
 21
8815.0
 31
0.0
100
AcDbText
 73
1
  0
LINE
  5
1A2
330
17
100
AcDbEntity
  8
09_РАЗМЕРЫ
100
AcDbLine
 10
34142.0
 20
8665.0
 30
0.0
 11
35342.0
 21
8665.0
 31
0.0
  0
LINE
  5
1A3
330
17
100
AcDbEntity
  8
09_РАЗМЕРЫ
100
AcDbLine
 10
34142.0
 20
8440.0
 30
0.0
 11
34142.0
 21
8890.0
 31
0.0
  0
LINE
  5
1A4
330
17
100
AcDbEntity
  8
09_РАЗМЕРЫ
100
AcDbLine
 10
34142.0
 20
8665.0
 30
0.0
 11
34142.0
 21
8665.0
 31
0.0
  0
LINE
  5
1A5
330
17
100
AcDbEntity
  8
09_РАЗМЕРЫ
100
AcDbLine
 10
35342.0
 20
8440.0
 30
0.0
 11
35342.0
 21
8890.0
 31
0.0
  0
LINE
  5
1A6
330
17
100
AcDbEntity
  8
09_РАЗМЕРЫ
100
AcDbLine
 10
35342.0
 20
8665.0
 30
0.0
 11
35342.0
 21
8665.0
 31
0.0
  0
TEXT
  5
1A7
330
17
100
AcDbEntity
  8
09_РАЗМЕРЫ
100
AcDbText
 10
34742.0
 20
8815.0
 30
0.0
 40
360.0
  1
1200
  7
ГОСТ
 72
1
 11
34742.0
 21
8815.0
 31
0.0
100
AcDbText
 73
1
  0
LINE
  5
1A8
330
17
100
AcDbEntity
  8
09_РАЗМЕРЫ
100
AcDbLine
 10
28186.0
 20
9565.0
 30
0.0
 11
34039.0
 21
9565.0
 31
0.0
  0
LINE
  5
1A9
330
17
100
AcDbEntity
  8
09_РАЗМЕРЫ
100
AcDbLine
 10
28186.0
 20
9340.0
 30
0.0
 11
28186.0
 21
9790.0
 31
0.0
  0
LINE
  5
1AA
330
17
100
AcDbEntity
  8
09_РАЗМЕРЫ
100
AcDbLine
 10
28186.0
 20
9565.0
 30
0.0
 11
28186.0
 21
9565.0
 31
0.0
  0
LINE
  5
1AB
330
17
100
AcDbEntity
  8
09_РАЗМЕРЫ
100
AcDbLine
 10
34039.0
 20
9340.0
 30
0.0
 11
34039.0
 21
9790.0
 31
0.0
  0
LINE
  5
1AC
330
17
100
AcDbEntity
  8
09_РАЗМЕРЫ
100
AcDbLine
 10
34039.0
 20
9565.0
 30
0.0
 11
34039.0
 21
9565.0
 31
0.0
  0
TEXT
  5
1AD
330
17
100
AcDbEntity
  8
09_РАЗМЕРЫ
100
AcDbText
 10
31112.5
 20
9715.0
 30
0.0
 40
360.0
  1
фитинги 5853
  7
ГОСТ
 72
1
 11
31112.5
 21
9715.0
 31
0.0
100
AcDbText
 73
1
  0
LINE
  5
1AE
330
17
100
AcDbEntity
  8
09_РАЗМЕРЫ
100
AcDbLine
 10
59500.0
 20
2981.0
 30
0.0
 11
59500.0
 21
5419.0
 31
0.0
  0
LINE
  5
1AF
330
17
100
AcDbEntity
  8
09_РАЗМЕРЫ
100
AcDbLine
 10
59275.0
 20
2981.0
 30
0.0
 11
59725.0
 21
2981.0
 31
0.0
  0
LINE
  5
1B0
330
17
100
AcDbEntity
  8
09_РАЗМЕРЫ
100
AcDbLine
 10
59500.0
 20
2981.0
 30
0.0
 11
59500.0
 21
2981.0
 31
0.0
  0
LINE
  5
1B1
330
17
100
AcDbEntity
  8
09_РАЗМЕРЫ
100
AcDbLine
 10
59275.0
 20
5419.0
 30
0.0
 11
59725.0
 21
5419.0
 31
0.0
  0
LINE
  5
1B2
330
17
100
AcDbEntity
  8
09_РАЗМЕРЫ
100
AcDbLine
 10
59500.0
 20
5419.0
 30
0.0
 11
59500.0
 21
5419.0
 31
0.0
  0
TEXT
  5
1B3
330
17
100
AcDbEntity
  8
09_РАЗМЕРЫ
100
AcDbText
 10
59350.0
 20
4200.0
 30
0.0
 40
360.0
  1
2438
 50
90.0
  7
ГОСТ
 72
1
 11
59350.0
 21
4200.0
 31
0.0
100
AcDbText
 73
1
  0
LINE
  5
1B4
330
17
100
AcDbEntity
  8
09_РАЗМЕРЫ
100
AcDbLine
 10
60025.0
 20
1219.0
 30
0.0
 11
60025.0
 21
2981.0
 31
0.0
  0
LINE
  5
1B5
330
17
100
AcDbEntity
  8
09_РАЗМЕРЫ
100
AcDbLine
 10
59800.0
 20
1219.0
 30
0.0
 11
60250.0
 21
1219.0
 31
0.0
  0
LINE
  5
1B6
330
17
100
AcDbEntity
  8
09_РАЗМЕРЫ
100
AcDbLine
 10
60025.0
 20
1219.0
 30
0.0
 11
60025.0
 21
1219.0
 31
0.0
  0
LINE
  5
1B7
330
17
100
AcDbEntity
  8
09_РАЗМЕРЫ
100
AcDbLine
 10
59800.0
 20
2981.0
 30
0.0
 11
60250.0
 21
2981.0
 31
0.0
  0
LINE
  5
1B8
330
17
100
AcDbEntity
  8
09_РАЗМЕРЫ
100
AcDbLine
 10
60025.0
 20
2981.0
 30
0.0
 11
60025.0
 21
2981.0
 31
0.0
  0
TEXT
  5
1B9
330
17
100
AcDbEntity
  8
09_РАЗМЕРЫ
100
AcDbText
 10
59875.0
 20
2100.0
 30
0.0
 40
360.0
  1
проход 1760
 50
90.0
  7
ГОСТ
 72
1
 11
59875.0
 21
2100.0
 31
0.0
100
AcDbText
 73
1
  0
LINE
  5
1BA
330
17
100
AcDbEntity
  8
09_РАЗМЕРЫ
100
AcDbLine
 10
60025.0
 20
5419.0
 30
0.0
 11
60025.0
 21
6665.0
 31
0.0
  0
LINE
  5
1BB
330
17
100
AcDbEntity
  8
09_РАЗМЕРЫ
100
AcDbLine
 10
59800.0
 20
5419.0
 30
0.0
 11
60250.0
 21
5419.0
 31
0.0
  0
LINE
  5
1BC
330
17
100
AcDbEntity
  8
09_РАЗМЕРЫ
100
AcDbLine
 10
60025.0
 20
5419.0
 30
0.0
 11
60025.0
 21
5419.0
 31
0.0
  0
LINE
  5
1BD
330
17
100
AcDbEntity
  8
09_РАЗМЕРЫ
100
AcDbLine
 10
59800.0
 20
6665.0
 30
0.0
 11
60250.0
 21
6665.0
 31
0.0
  0
LINE
  5
1BE
330
17
100
AcDbEntity
  8
09_РАЗМЕРЫ
100
AcDbLine
 10
60025.0
 20
6665.0
 30
0.0
 11
60025.0
 21
6665.0
 31
0.0
  0
TEXT
  5
1BF
330
17
100
AcDbEntity
  8
09_РАЗМЕРЫ
100
AcDbText
 10
59875.0
 20
6042.0
 30
0.0
 40
360.0
  1
у борта 1250
 50
90.0
  7
ГОСТ
 72
1
 11
59875.0
 21
6042.0
 31
0.0
100
AcDbText
 73
1
  0
LINE
  5
1C0
330
17
100
AcDbEntity
  8
09_РАЗМЕРЫ
100
AcDbLine
 10
60775.0
 20
-4200.0
 30
0.0
 11
60775.0
 21
4200.0
 31
0.0
  0
LINE
  5
1C1
330
17
100
AcDbEntity
  8
09_РАЗМЕРЫ
100
AcDbLine
 10
60550.0
 20
-4200.0
 30
0.0
 11
61000.0
 21
-4200.0
 31
0.0
  0
LINE
  5
1C2
330
17
100
AcDbEntity
  8
09_РАЗМЕРЫ
100
AcDbLine
 10
60775.0
 20
-4200.0
 30
0.0
 11
60775.0
 21
-4200.0
 31
0.0
  0
LINE
  5
1C3
330
17
100
AcDbEntity
  8
09_РАЗМЕРЫ
100
AcDbLine
 10
60550.0
 20
4200.0
 30
0.0
 11
61000.0
 21
4200.0
 31
0.0
  0
LINE
  5
1C4
330
17
100
AcDbEntity
  8
09_РАЗМЕРЫ
100
AcDbLine
 10
60775.0
 20
4200.0
 30
0.0
 11
60775.0
 21
4200.0
 31
0.0
  0
TEXT
  5
1C5
330
17
100
AcDbEntity
  8
09_РАЗМЕРЫ
100
AcDbText
 10
60625.0
 20
0.0
 30
0.0
 40
360.0
  1
ряды через 4200
 50
90.0
  7
ГОСТ
 72
1
 11
60625.0
 21
0.0
 31
0.0
100
AcDbText
 73
1
  0
LINE
  5
1C6
330
17
100
AcDbEntity
  8
09_РАЗМЕРЫ
100
AcDbLine
 10
16500.0
 20
-9000.0
 30
0.0
 11
16500.0
 21
-9210.0
 31
0.0
  0
LINE
  5
1C7
330
17
100
AcDbEntity
  8
09_РАЗМЕРЫ
100
AcDbLine
 10
19250.0
 20
-9000.0
 30
0.0
 11
19250.0
 21
-9210.0
 31
0.0
  0
LINE
  5
1C8
330
17
100
AcDbEntity
  8
09_РАЗМЕРЫ
100
AcDbLine
 10
22000.0
 20
-9000.0
 30
0.0
 11
22000.0
 21
-9450.0
 31
0.0
  0
TEXT
  5
1C9
330
17
100
AcDbEntity
  8
09_РАЗМЕРЫ
100
AcDbText
 10
22000.0
 20
-10050.0
 30
0.0
 40
450.0
  1
40
  7
ГОСТ
 72
1
 11
22000.0
 21
-10050.0
 31
0.0
100
AcDbText
 73
2
  0
LINE
  5
1CA
330
17
100
AcDbEntity
  8
09_РАЗМЕРЫ
100
AcDbLine
 10
24750.000000000004
 20
-9000.0
 30
0.0
 11
24750.000000000004
 21
-9210.0
 31
0.0
  0
LINE
  5
1CB
330
17
100
AcDbEntity
  8
09_РАЗМЕРЫ
100
AcDbLine
 10
27500.000000000004
 20
-9000.0
 30
0.0
 11
27500.000000000004
 21
-9210.0
 31
0.0
  0
LINE
  5
1CC
330
17
100
AcDbEntity
  8
09_РАЗМЕРЫ
100
AcDbLine
 10
30250.000000000004
 20
-9000.0
 30
0.0
 11
30250.000000000004
 21
-9210.0
 31
0.0
  0
LINE
  5
1CD
330
17
100
AcDbEntity
  8
09_РАЗМЕРЫ
100
AcDbLine
 10
33000.0
 20
-9000.0
 30
0.0
 11
33000.0
 21
-9450.0
 31
0.0
  0
TEXT
  5
1CE
330
17
100
AcDbEntity
  8
09_РАЗМЕРЫ
100
AcDbText
 10
33000.0
 20
-10050.0
 30
0.0
 40
450.0
  1
60
  7
ГОСТ
 72
1
 11
33000.0
 21
-10050.0
 31
0.0
100
AcDbText
 73
2
  0
LINE
  5
1CF
330
17
100
AcDbEntity
  8
09_РАЗМЕРЫ
100
AcDbLine
 10
35750.0
 20
-9000.0
 30
0.0
 11
35750.0
 21
-9210.0
 31
0.0
  0
LINE
  5
1D0
330
17
100
AcDbEntity
  8
09_РАЗМЕРЫ
100
AcDbLine
 10
38500.0
 20
-9000.0
 30
0.0
 11
38500.0
 21
-9210.0
 31
0.0
  0
LINE
  5
1D1
330
17
100
AcDbEntity
  8
09_РАЗМЕРЫ
100
AcDbLine
 10
41250.0
 20
-9000.0
 30
0.0
 11
41250.0
 21
-9210.0
 31
0.0
  0
LINE
  5
1D2
330
17
100
AcDbEntity
  8
09_РАЗМЕРЫ
100
AcDbLine
 10
44000.0
 20
-9000.0
 30
0.0
 11
44000.0
 21
-9450.0
 31
0.0
  0
TEXT
  5
1D3
330
17
100
AcDbEntity
  8
09_РАЗМЕРЫ
100
AcDbText
 10
44000.0
 20
-10050.0
 30
0.0
 40
450.0
  1
80
  7
ГОСТ
 72
1
 11
44000.0
 21
-10050.0
 31
0.0
100
AcDbText
 73
2
  0
LINE
  5
1D4
330
17
100
AcDbEntity
  8
09_РАЗМЕРЫ
100
AcDbLine
 10
46750.00000000001
 20
-9000.0
 30
0.0
 11
46750.00000000001
 21
-9210.0
 31
0.0
  0
LINE
  5
1D5
330
17
100
AcDbEntity
  8
09_РАЗМЕРЫ
100
AcDbLine
 10
49500.00000000001
 20
-9000.0
 30
0.0
 11
49500.00000000001
 21
-9210.0
 31
0.0
  0
LINE
  5
1D6
330
17
100
AcDbEntity
  8
09_РАЗМЕРЫ
100
AcDbLine
 10
52250.00000000001
 20
-9000.0
 30
0.0
 11
52250.00000000001
 21
-9210.0
 31
0.0
  0
LINE
  5
1D7
330
17
100
AcDbEntity
  8
09_РАЗМЕРЫ
100
AcDbLine
 10
55000.00000000001
 20
-9000.0
 30
0.0
 11
55000.00000000001
 21
-9450.0
 31
0.0
  0
TEXT
  5
1D8
330
17
100
AcDbEntity
  8
09_РАЗМЕРЫ
100
AcDbText
 10
55000.00000000001
 20
-10050.0
 30
0.0
 40
450.0
  1
100
  7
ГОСТ
 72
1
 11
55000.00000000001
 21
-10050.0
 31
0.0
100
AcDbText
 73
2
  0
LINE
  5
1D9
330
17
100
AcDbEntity
  8
09_РАЗМЕРЫ
100
AcDbLine
 10
57750.00000000001
 20
-9000.0
 30
0.0
 11
57750.00000000001
 21
-9210.0
 31
0.0
  0
LINE
  5
1DA
330
17
100
AcDbEntity
  8
09_РАЗМЕРЫ
100
AcDbLine
 10
60500.00000000001
 20
-9000.0
 30
0.0
 11
60500.00000000001
 21
-9210.0
 31
0.0
  0
LINE
  5
1DB
330
17
100
AcDbEntity
  8
09_РАЗМЕРЫ
100
AcDbLine
 10
63250.00000000001
 20
-9000.0
 30
0.0
 11
63250.00000000001
 21
-9210.0
 31
0.0
  0
LINE
  5
1DC
330
17
100
AcDbEntity
  8
09_РАЗМЕРЫ
100
AcDbLine
 10
66000.0
 20
-9000.0
 30
0.0
 11
66000.0
 21
-9450.0
 31
0.0
  0
TEXT
  5
1DD
330
17
100
AcDbEntity
  8
09_РАЗМЕРЫ
100
AcDbText
 10
66000.0
 20
-10050.0
 30
0.0
 40
450.0
  1
120
  7
ГОСТ
 72
1
 11
66000.0
 21
-10050.0
 31
0.0
100
AcDbText
 73
2
  0
LINE
  5
1DE
330
17
100
AcDbEntity
  8
09_РАЗМЕРЫ
100
AcDbLine
 10
68750.0
 20
-9000.0
 30
0.0
 11
68750.0
 21
-9210.0
 31
0.0
  0
LINE
  5
1DF
330
17
100
AcDbEntity
  8
09_РАЗМЕРЫ
100
AcDbLine
 10
71500.0
 20
-9000.0
 30
0.0
 11
71500.0
 21
-9210.0
 31
0.0
  0
LINE
  5
1E0
330
17
100
AcDbEntity
  8
09_РАЗМЕРЫ
100
AcDbLine
 10
74250.0
 20
-9000.0
 30
0.0
 11
74250.0
 21
-9210.0
 31
0.0
  0
LINE
  5
1E1
330
17
100
AcDbEntity
  8
09_РАЗМЕРЫ
100
AcDbLine
 10
77000.0
 20
-9000.0
 30
0.0
 11
77000.0
 21
-9450.0
 31
0.0
  0
TEXT
  5
1E2
330
17
100
AcDbEntity
  8
09_РАЗМЕРЫ
100
AcDbText
 10
77000.0
 20
-10050.0
 30
0.0
 40
450.0
  1
140
  7
ГОСТ
 72
1
 11
77000.0
 21
-10050.0
 31
0.0
100
AcDbText
 73
2
  0
LINE
  5
1E3
330
17
100
AcDbEntity
  8
09_РАЗМЕРЫ
100
AcDbLine
 10
79750.0
 20
-9000.0
 30
0.0
 11
79750.0
 21
-9210.0
 31
0.0
  0
LINE
  5
1E4
330
17
100
AcDbEntity
  8
09_РАЗМЕРЫ
100
AcDbLine
 10
82500.0
 20
-9000.0
 30
0.0
 11
82500.0
 21
-9210.0
 31
0.0
  0
LINE
  5
1E5
330
17
100
AcDbEntity
  8
09_РАЗМЕРЫ
100
AcDbLine
 10
85250.0
 20
-9000.0
 30
0.0
 11
85250.0
 21
-9210.0
 31
0.0
  0
LINE
  5
1E6
330
17
100
AcDbEntity
  8
09_РАЗМЕРЫ
100
AcDbLine
 10
88000.0
 20
-9000.0
 30
0.0
 11
88000.0
 21
-9450.0
 31
0.0
  0
TEXT
  5
1E7
330
17
100
AcDbEntity
  8
09_РАЗМЕРЫ
100
AcDbText
 10
88000.0
 20
-10050.0
 30
0.0
 40
450.0
  1
160
  7
ГОСТ
 72
1
 11
88000.0
 21
-10050.0
 31
0.0
100
AcDbText
 73
2
  0
LINE
  5
1E8
330
17
100
AcDbEntity
  8
09_РАЗМЕРЫ
100
AcDbLine
 10
90750.00000000001
 20
-9000.0
 30
0.0
 11
90750.00000000001
 21
-9210.0
 31
0.0
  0
LINE
  5
1E9
330
17
100
AcDbEntity
  8
09_РАЗМЕРЫ
100
AcDbLine
 10
93500.00000000001
 20
-9000.0
 30
0.0
 11
93500.00000000001
 21
-9210.0
 31
0.0
  0
LINE
  5
1EA
330
17
100
AcDbEntity
  8
09_РАЗМЕРЫ
100
AcDbLine
 10
96250.00000000001
 20
-9000.0
 30
0.0
 11
96250.00000000001
 21
-9210.0
 31
0.0
  0
LINE
  5
1EB
330
17
100
AcDbEntity
  8
09_РАЗМЕРЫ
100
AcDbLine
 10
99000.00000000001
 20
-9000.0
 30
0.0
 11
99000.00000000001
 21
-9450.0
 31
0.0
  0
TEXT
  5
1EC
330
17
100
AcDbEntity
  8
09_РАЗМЕРЫ
100
AcDbText
 10
99000.00000000001
 20
-10050.0
 30
0.0
 40
450.0
  1
180
  7
ГОСТ
 72
1
 11
99000.00000000001
 21
-10050.0
 31
0.0
100
AcDbText
 73
2
  0
LINE
  5
1ED
330
17
100
AcDbEntity
  8
09_РАЗМЕРЫ
100
AcDbLine
 10
101750.00000000001
 20
-9000.0
 30
0.0
 11
101750.00000000001
 21
-9210.0
 31
0.0
  0
LINE
  5
1EE
330
17
100
AcDbEntity
  8
09_РАЗМЕРЫ
100
AcDbLine
 10
104500.00000000001
 20
-9000.0
 30
0.0
 11
104500.00000000001
 21
-9210.0
 31
0.0
  0
LINE
  5
1EF
330
17
100
AcDbEntity
  8
09_РАЗМЕРЫ
100
AcDbLine
 10
107250.00000000001
 20
-9000.0
 30
0.0
 11
107250.00000000001
 21
-9210.0
 31
0.0
  0
LINE
  5
1F0
330
17
100
AcDbEntity
  8
09_РАЗМЕРЫ
100
AcDbLine
 10
110000.00000000001
 20
-9000.0
 30
0.0
 11
110000.00000000001
 21
-9450.0
 31
0.0
  0
TEXT
  5
1F1
330
17
100
AcDbEntity
  8
09_РАЗМЕРЫ
100
AcDbText
 10
110000.00000000001
 20
-10050.0
 30
0.0
 40
450.0
  1
200
  7
ГОСТ
 72
1
 11
110000.00000000001
 21
-10050.0
 31
0.0
100
AcDbText
 73
2
  0
LINE
  5
1F2
330
17
100
AcDbEntity
  8
09_РАЗМЕРЫ
100
AcDbLine
 10
112750.00000000001
 20
-9000.0
 30
0.0
 11
112750.00000000001
 21
-9210.0
 31
0.0
  0
LINE
  5
1F3
330
17
100
AcDbEntity
  8
09_РАЗМЕРЫ
100
AcDbLine
 10
115500.00000000001
 20
-9000.0
 30
0.0
 11
115500.00000000001
 21
-9210.0
 31
0.0
  0
LINE
  5
1F4
330
17
100
AcDbEntity
  8
09_РАЗМЕРЫ
100
AcDbLine
 10
15400.000000000002
 20
-9000.0
 30
0.0
 11
117700.0
 21
-9000.0
 31
0.0
  0
TEXT
  5
1F5
330
17
100
AcDbEntity
  8
09_РАЗМЕРЫ
100
AcDbText
 10
122000.0
 20
-10050.0
 30
0.0
 40
450.0
  1
№ шп., шпация 550
  7
ГОСТ
 11
122000.0
 21
-10050.0
 31
0.0
100
AcDbText
 73
2
  0
LWPOLYLINE
  5
1F6
330
17
100
AcDbEntity
  8
31_ФУНДАМЕНТЫ
100
AcDbPolyline
 90
4
 70
1
 10
15000.0
 20
15350.0
 10
15300.0
 20
15350.0
 10
15300.0
 20
15650.0
 10
15000.0
 20
15650.0
  0
TEXT
  5
1F7
330
17
100
AcDbEntity
  8
08_ТЕКСТ
100
AcDbText
 10
15600.0
 20
15500.0
 30
0.0
 40
330.0
  1
фундамент-замок ВГ-2026.46.00 (МР-02), № по таблице
  7
ГОСТ
 11
15600.0
 21
15500.0
 31
0.0
100
AcDbText
 73
2
  0
CIRCLE
  5
1F8
330
17
100
AcDbEntity
  8
33_СРЕДЫ
100
AcDbCircle
 10
15150.0
 20
14600.0
 30
0.0
 40
200.0
  0
TEXT
  5
1F9
330
17
100
AcDbEntity
  8
08_ТЕКСТ
100
AcDbText
 10
15600.0
 20
14600.0
 30
0.0
 40
330.0
  1
розетка сред - 3×400 В, вода, стоки, связь
  7
ГОСТ
 11
15600.0
 21
14600.0
 31
0.0
100
AcDbText
 73
2
  0
LINE
  5
1FA
330
17
100
AcDbEntity
  8
32_БАЛКИ
100
AcDbLine
 10
15000.0
 20
13700.0
 30
0.0
 11
15300.0
 21
13700.0
 31
0.0
  0
TEXT
  5
1FB
330
17
100
AcDbEntity
  8
08_ТЕКСТ
100
AcDbText
 10
15600.0
 20
13700.0
 30
0.0
 40
330.0
  1
подпалубная продольная балка Т 260 × 8 / 130 × 12 АМг5
  7
ГОСТ
 11
15600.0
 21
13700.0
 31
0.0
100
AcDbText
 73
2
  0
LWPOLYLINE
  5
1FC
330
17
100
AcDbEntity
  8
30_СЛОТЫ
100
AcDbPolyline
 90
4
 70
1
 10
15000.0
 20
12600.0
 10
15400.0
 20
12600.0
 10
15400.0
 20
13000.0
 10
15000.0
 20
13000.0
  0
TEXT
  5
1FD
330
17
100
AcDbEntity
  8
08_ТЕКСТ
100
AcDbText
 10
15600.0
 20
12800.0
 30
0.0
 40
330.0
  1
слот 20' HC - 6,06 × 2,44 × 2,90 м, имя площадка-№-ряд
  7
ГОСТ
 11
15600.0
 21
12800.0
 31
0.0
100
AcDbText
 73
2
  0
LINE
  5
1FE
330
17
100
AcDbEntity
  8
00_РАМКА
100
AcDbLine
 10
15000.0
 20
-15000.0
 30
0.0
 11
48900.0
 21
-15000.0
 31
0.0
  0
TEXT
  5
1FF
330
17
100
AcDbEntity
  8
08_ТЕКСТ
100
AcDbText
 10
15225.0
 20
-15450.0
 30
0.0
 40
420.0
  1
Слот
  7
ГОСТ
 11
15225.0
 21
-15450.0
 31
0.0
100
AcDbText
 73
2
  0
TEXT
  5
200
330
17
100
AcDbEntity
  8
08_ТЕКСТ
100
AcDbText
 10
18525.0
 20
-15450.0
 30
0.0
 40
420.0
  1
x центра, м
  7
ГОСТ
 11
18525.0
 21
-15450.0
 31
0.0
100
AcDbText
 73
2
  0
TEXT
  5
201
330
17
100
AcDbEntity
  8
08_ТЕКСТ
100
AcDbText
 10
22425.0
 20
-15450.0
 30
0.0
 40
420.0
  1
y, м
  7
ГОСТ
 11
22425.0
 21
-15450.0
 31
0.0
100
AcDbText
 73
2
  0
TEXT
  5
202
330
17
100
AcDbEntity
  8
08_ТЕКСТ
100
AcDbText
 10
25125.0
 20
-15450.0
 30
0.0
 40
420.0
  1
Шпангоуты
  7
ГОСТ
 11
25125.0
 21
-15450.0
 31
0.0
100
AcDbText
 73
2
  0
TEXT
  5
203
330
17
100
AcDbEntity
  8
08_ТЕКСТ
100
AcDbText
 10
29025.0
 20
-15450.0
 30
0.0
 40
420.0
  1
x фундаментов, м
  7
ГОСТ
 11
29025.0
 21
-15450.0
 31
0.0
100
AcDbText
 73
2
  0
TEXT
  5
204
330
17
100
AcDbEntity
  8
08_ТЕКСТ
100
AcDbText
 10
35025.0
 20
-15450.0
 30
0.0
 40
420.0
  1
y фундаментов, м
  7
ГОСТ
 11
35025.0
 21
-15450.0
 31
0.0
100
AcDbText
 73
2
  0
TEXT
  5
205
330
17
100
AcDbEntity
  8
08_ТЕКСТ
100
AcDbText
 10
41025.0
 20
-15450.0
 30
0.0
 40
420.0
  1
№ фунд.
  7
ГОСТ
 11
41025.0
 21
-15450.0
 31
0.0
100
AcDbText
 73
2
  0
TEXT
  5
206
330
17
100
AcDbEntity
  8
08_ТЕКСТ
100
AcDbText
 10
44025.0
 20
-15450.0
 30
0.0
 40
420.0
  1
Розетка x / y,
  7
ГОСТ
 11
44025.0
 21
-15450.0
 31
0.0
100
AcDbText
 73
2
  0
TEXT
  5
207
330
17
100
AcDbEntity
  8
08_ТЕКСТ
100
AcDbText
 10
44025.0
 20
-16122.0
 30
0.0
 40
420.0
  1
м
  7
ГОСТ
 11
44025.0
 21
-16122.0
 31
0.0
100
AcDbText
 73
2
  0
LINE
  5
208
330
17
100
AcDbEntity
  8
00_РАМКА
100
AcDbLine
 10
15000.0
 20
-16572.0
 30
0.0
 11
48900.0
 21
-16572.0
 31
0.0
  0
TEXT
  5
209
330
17
100
AcDbEntity
  8
08_ТЕКСТ
100
AcDbText
 10
15225.0
 20
-17022.0
 30
0.0
 40
375.0
  1
А-1-ЛБ
  7
ГОСТ
 11
15225.0
 21
-17022.0
 31
0.0
100
AcDbText
 73
2
  0
TEXT
  5
20A
330
17
100
AcDbEntity
  8
08_ТЕКСТ
100
AcDbText
 10
18525.0
 20
-17022.0
 30
0.0
 40
375.0
  1
31,113
  7
ГОСТ
 11
18525.0
 21
-17022.0
 31
0.0
100
AcDbText
 73
2
  0
TEXT
  5
20B
330
17
100
AcDbEntity
  8
08_ТЕКСТ
100
AcDbText
 10
22425.0
 20
-17022.0
 30
0.0
 40
375.0
  1
-4,20
  7
ГОСТ
 11
22425.0
 21
-17022.0
 31
0.0
100
AcDbText
 73
2
  0
TEXT
  5
20C
330
17
100
AcDbEntity
  8
08_ТЕКСТ
100
AcDbText
 10
25125.0
 20
-17022.0
 30
0.0
 40
375.0
  1
51,1…62,1
  7
ГОСТ
 11
25125.0
 21
-17022.0
 31
0.0
100
AcDbText
 73
2
  0
TEXT
  5
20D
330
17
100
AcDbEntity
  8
08_ТЕКСТ
100
AcDbText
 10
29025.0
 20
-17022.0
 30
0.0
 40
375.0
  1
28,186 / 34,039
  7
ГОСТ
 11
29025.0
 21
-17022.0
 31
0.0
100
AcDbText
 73
2
  0
TEXT
  5
20E
330
17
100
AcDbEntity
  8
08_ТЕКСТ
100
AcDbText
 10
35025.0
 20
-17022.0
 30
0.0
 40
375.0
  1
-5,330 / -3,071
  7
ГОСТ
 11
35025.0
 21
-17022.0
 31
0.0
100
AcDbText
 73
2
  0
TEXT
  5
20F
330
17
100
AcDbEntity
  8
08_ТЕКСТ
100
AcDbText
 10
41025.0
 20
-17022.0
 30
0.0
 40
375.0
  1
1…4
  7
ГОСТ
 11
41025.0
 21
-17022.0
 31
0.0
100
AcDbText
 73
2
  0
TEXT
  5
210
330
17
100
AcDbEntity
  8
08_ТЕКСТ
100
AcDbText
 10
44025.0
 20
-17022.0
 30
0.0
 40
375.0
  1
27,63 / -4,20
  7
ГОСТ
 11
44025.0
 21
-17022.0
 31
0.0
100
AcDbText
 73
2
  0
LINE
  5
211
330
17
100
AcDbEntity
  8
00_РАМКА
100
AcDbLine
 10
15000.0
 20
-17472.0
 30
0.0
 11
48900.0
 21
-17472.0
 31
0.0
  0
TEXT
  5
212
330
17
100
AcDbEntity
  8
08_ТЕКСТ
100
AcDbText
 10
15225.0
 20
-17922.0
 30
0.0
 40
375.0
  1
А-1-ДП
  7
ГОСТ
 11
15225.0
 21
-17922.0
 31
0.0
100
AcDbText
 73
2
  0
TEXT
  5
213
330
17
100
AcDbEntity
  8
08_ТЕКСТ
100
AcDbText
 10
18525.0
 20
-17922.0
 30
0.0
 40
375.0
  1
31,113
  7
ГОСТ
 11
18525.0
 21
-17922.0
 31
0.0
100
AcDbText
 73
2
  0
TEXT
  5
214
330
17
100
AcDbEntity
  8
08_ТЕКСТ
100
AcDbText
 10
22425.0
 20
-17922.0
 30
0.0
 40
375.0
  1
0,00
  7
ГОСТ
 11
22425.0
 21
-17922.0
 31
0.0
100
AcDbText
 73
2
  0
TEXT
  5
215
330
17
100
AcDbEntity
  8
08_ТЕКСТ
100
AcDbText
 10
25125.0
 20
-17922.0
 30
0.0
 40
375.0
  1
51,1…62,1
  7
ГОСТ
 11
25125.0
 21
-17922.0
 31
0.0
100
AcDbText
 73
2
  0
TEXT
  5
216
330
17
100
AcDbEntity
  8
08_ТЕКСТ
100
AcDbText
 10
29025.0
 20
-17922.0
 30
0.0
 40
375.0
  1
28,186 / 34,039
  7
ГОСТ
 11
29025.0
 21
-17922.0
 31
0.0
100
AcDbText
 73
2
  0
TEXT
  5
217
330
17
100
AcDbEntity
  8
08_ТЕКСТ
100
AcDbText
 10
35025.0
 20
-17922.0
 30
0.0
 40
375.0
  1
-1,129 / 1,129
  7
ГОСТ
 11
35025.0
 21
-17922.0
 31
0.0
100
AcDbText
 73
2
  0
TEXT
  5
218
330
17
100
AcDbEntity
  8
08_ТЕКСТ
100
AcDbText
 10
41025.0
 20
-17922.0
 30
0.0
 40
375.0
  1
5…8
  7
ГОСТ
 11
41025.0
 21
-17922.0
 31
0.0
100
AcDbText
 73
2
  0
TEXT
  5
219
330
17
100
AcDbEntity
  8
08_ТЕКСТ
100
AcDbText
 10
44025.0
 20
-17922.0
 30
0.0
 40
375.0
  1
27,63 / 0,00
  7
ГОСТ
 11
44025.0
 21
-17922.0
 31
0.0
100
AcDbText
 73
2
  0
LINE
  5
21A
330
17
100
AcDbEntity
  8
00_РАМКА
100
AcDbLine
 10
15000.0
 20
-18372.0
 30
0.0
 11
48900.0
 21
-18372.0
 31
0.0
  0
TEXT
  5
21B
330
17
100
AcDbEntity
  8
08_ТЕКСТ
100
AcDbText
 10
15225.0
 20
-18822.0
 30
0.0
 40
375.0
  1
А-1-ПБ
  7
ГОСТ
 11
15225.0
 21
-18822.0
 31
0.0
100
AcDbText
 73
2
  0
TEXT
  5
21C
330
17
100
AcDbEntity
  8
08_ТЕКСТ
100
AcDbText
 10
18525.0
 20
-18822.0
 30
0.0
 40
375.0
  1
31,113
  7
ГОСТ
 11
18525.0
 21
-18822.0
 31
0.0
100
AcDbText
 73
2
  0
TEXT
  5
21D
330
17
100
AcDbEntity
  8
08_ТЕКСТ
100
AcDbText
 10
22425.0
 20
-18822.0
 30
0.0
 40
375.0
  1
4,20
  7
ГОСТ
 11
22425.0
 21
-18822.0
 31
0.0
100
AcDbText
 73
2
  0
TEXT
  5
21E
330
17
100
AcDbEntity
  8
08_ТЕКСТ
100
AcDbText
 10
25125.0
 20
-18822.0
 30
0.0
 40
375.0
  1
51,1…62,1
  7
ГОСТ
 11
25125.0
 21
-18822.0
 31
0.0
100
AcDbText
 73
2
  0
TEXT
  5
21F
330
17
100
AcDbEntity
  8
08_ТЕКСТ
100
AcDbText
 10
29025.0
 20
-18822.0
 30
0.0
 40
375.0
  1
28,186 / 34,039
  7
ГОСТ
 11
29025.0
 21
-18822.0
 31
0.0
100
AcDbText
 73
2
  0
TEXT
  5
220
330
17
100
AcDbEntity
  8
08_ТЕКСТ
100
AcDbText
 10
35025.0
 20
-18822.0
 30
0.0
 40
375.0
  1
3,071 / 5,330
  7
ГОСТ
 11
35025.0
 21
-18822.0
 31
0.0
100
AcDbText
 73
2
  0
TEXT
  5
221
330
17
100
AcDbEntity
  8
08_ТЕКСТ
100
AcDbText
 10
41025.0
 20
-18822.0
 30
0.0
 40
375.0
  1
9…12
  7
ГОСТ
 11
41025.0
 21
-18822.0
 31
0.0
100
AcDbText
 73
2
  0
TEXT
  5
222
330
17
100
AcDbEntity
  8
08_ТЕКСТ
100
AcDbText
 10
44025.0
 20
-18822.0
 30
0.0
 40
375.0
  1
27,63 / 4,20
  7
ГОСТ
 11
44025.0
 21
-18822.0
 31
0.0
100
AcDbText
 73
2
  0
LINE
  5
223
330
17
100
AcDbEntity
  8
00_РАМКА
100
AcDbLine
 10
15000.0
 20
-19272.0
 30
0.0
 11
48900.0
 21
-19272.0
 31
0.0
  0
TEXT
  5
224
330
17
100
AcDbEntity
  8
08_ТЕКСТ
100
AcDbText
 10
15225.0
 20
-19722.0
 30
0.0
 40
375.0
  1
А-2-ЛБ
  7
ГОСТ
 11
15225.0
 21
-19722.0
 31
0.0
100
AcDbText
 73
2
  0
TEXT
  5
225
330
17
100
AcDbEntity
  8
08_ТЕКСТ
100
AcDbText
 10
18525.0
 20
-19722.0
 30
0.0
 40
375.0
  1
38,371
  7
ГОСТ
 11
18525.0
 21
-19722.0
 31
0.0
100
AcDbText
 73
2
  0
TEXT
  5
226
330
17
100
AcDbEntity
  8
08_ТЕКСТ
100
AcDbText
 10
22425.0
 20
-19722.0
 30
0.0
 40
375.0
  1
-4,20
  7
ГОСТ
 11
22425.0
 21
-19722.0
 31
0.0
100
AcDbText
 73
2
  0
TEXT
  5
227
330
17
100
AcDbEntity
  8
08_ТЕКСТ
100
AcDbText
 10
25125.0
 20
-19722.0
 30
0.0
 40
375.0
  1
64,3…75,3
  7
ГОСТ
 11
25125.0
 21
-19722.0
 31
0.0
100
AcDbText
 73
2
  0
TEXT
  5
228
330
17
100
AcDbEntity
  8
08_ТЕКСТ
100
AcDbText
 10
29025.0
 20
-19722.0
 30
0.0
 40
375.0
  1
35,444 / 41,297
  7
ГОСТ
 11
29025.0
 21
-19722.0
 31
0.0
100
AcDbText
 73
2
  0
TEXT
  5
229
330
17
100
AcDbEntity
  8
08_ТЕКСТ
100
AcDbText
 10
35025.0
 20
-19722.0
 30
0.0
 40
375.0
  1
-5,330 / -3,071
  7
ГОСТ
 11
35025.0
 21
-19722.0
 31
0.0
100
AcDbText
 73
2
  0
TEXT
  5
22A
330
17
100
AcDbEntity
  8
08_ТЕКСТ
100
AcDbText
 10
41025.0
 20
-19722.0
 30
0.0
 40
375.0
  1
13…16
  7
ГОСТ
 11
41025.0
 21
-19722.0
 31
0.0
100
AcDbText
 73
2
  0
TEXT
  5
22B
330
17
100
AcDbEntity
  8
08_ТЕКСТ
100
AcDbText
 10
44025.0
 20
-19722.0
 30
0.0
 40
375.0
  1
34,89 / -4,20
  7
ГОСТ
 11
44025.0
 21
-19722.0
 31
0.0
100
AcDbText
 73
2
  0
LINE
  5
22C
330
17
100
AcDbEntity
  8
00_РАМКА
100
AcDbLine
 10
15000.0
 20
-20172.0
 30
0.0
 11
48900.0
 21
-20172.0
 31
0.0
  0
TEXT
  5
22D
330
17
100
AcDbEntity
  8
08_ТЕКСТ
100
AcDbText
 10
15225.0
 20
-20622.0
 30
0.0
 40
375.0
  1
А-2-ДП
  7
ГОСТ
 11
15225.0
 21
-20622.0
 31
0.0
100
AcDbText
 73
2
  0
TEXT
  5
22E
330
17
100
AcDbEntity
  8
08_ТЕКСТ
100
AcDbText
 10
18525.0
 20
-20622.0
 30
0.0
 40
375.0
  1
38,371
  7
ГОСТ
 11
18525.0
 21
-20622.0
 31
0.0
100
AcDbText
 73
2
  0
TEXT
  5
22F
330
17
100
AcDbEntity
  8
08_ТЕКСТ
100
AcDbText
 10
22425.0
 20
-20622.0
 30
0.0
 40
375.0
  1
0,00
  7
ГОСТ
 11
22425.0
 21
-20622.0
 31
0.0
100
AcDbText
 73
2
  0
TEXT
  5
230
330
17
100
AcDbEntity
  8
08_ТЕКСТ
100
AcDbText
 10
25125.0
 20
-20622.0
 30
0.0
 40
375.0
  1
64,3…75,3
  7
ГОСТ
 11
25125.0
 21
-20622.0
 31
0.0
100
AcDbText
 73
2
  0
TEXT
  5
231
330
17
100
AcDbEntity
  8
08_ТЕКСТ
100
AcDbText
 10
29025.0
 20
-20622.0
 30
0.0
 40
375.0
  1
35,444 / 41,297
  7
ГОСТ
 11
29025.0
 21
-20622.0
 31
0.0
100
AcDbText
 73
2
  0
TEXT
  5
232
330
17
100
AcDbEntity
  8
08_ТЕКСТ
100
AcDbText
 10
35025.0
 20
-20622.0
 30
0.0
 40
375.0
  1
-1,129 / 1,129
  7
ГОСТ
 11
35025.0
 21
-20622.0
 31
0.0
100
AcDbText
 73
2
  0
TEXT
  5
233
330
17
100
AcDbEntity
  8
08_ТЕКСТ
100
AcDbText
 10
41025.0
 20
-20622.0
 30
0.0
 40
375.0
  1
17…20
  7
ГОСТ
 11
41025.0
 21
-20622.0
 31
0.0
100
AcDbText
 73
2
  0
TEXT
  5
234
330
17
100
AcDbEntity
  8
08_ТЕКСТ
100
AcDbText
 10
44025.0
 20
-20622.0
 30
0.0
 40
375.0
  1
34,89 / 0,00
  7
ГОСТ
 11
44025.0
 21
-20622.0
 31
0.0
100
AcDbText
 73
2
  0
LINE
  5
235
330
17
100
AcDbEntity
  8
00_РАМКА
100
AcDbLine
 10
15000.0
 20
-21072.0
 30
0.0
 11
48900.0
 21
-21072.0
 31
0.0
  0
TEXT
  5
236
330
17
100
AcDbEntity
  8
08_ТЕКСТ
100
AcDbText
 10
15225.0
 20
-21522.0
 30
0.0
 40
375.0
  1
А-2-ПБ
  7
ГОСТ
 11
15225.0
 21
-21522.0
 31
0.0
100
AcDbText
 73
2
  0
TEXT
  5
237
330
17
100
AcDbEntity
  8
08_ТЕКСТ
100
AcDbText
 10
18525.0
 20
-21522.0
 30
0.0
 40
375.0
  1
38,371
  7
ГОСТ
 11
18525.0
 21
-21522.0
 31
0.0
100
AcDbText
 73
2
  0
TEXT
  5
238
330
17
100
AcDbEntity
  8
08_ТЕКСТ
100
AcDbText
 10
22425.0
 20
-21522.0
 30
0.0
 40
375.0
  1
4,20
  7
ГОСТ
 11
22425.0
 21
-21522.0
 31
0.0
100
AcDbText
 73
2
  0
TEXT
  5
239
330
17
100
AcDbEntity
  8
08_ТЕКСТ
100
AcDbText
 10
25125.0
 20
-21522.0
 30
0.0
 40
375.0
  1
64,3…75,3
  7
ГОСТ
 11
25125.0
 21
-21522.0
 31
0.0
100
AcDbText
 73
2
  0
TEXT
  5
23A
330
17
100
AcDbEntity
  8
08_ТЕКСТ
100
AcDbText
 10
29025.0
 20
-21522.0
 30
0.0
 40
375.0
  1
35,444 / 41,297
  7
ГОСТ
 11
29025.0
 21
-21522.0
 31
0.0
100
AcDbText
 73
2
  0
TEXT
  5
23B
330
17
100
AcDbEntity
  8
08_ТЕКСТ
100
AcDbText
 10
35025.0
 20
-21522.0
 30
0.0
 40
375.0
  1
3,071 / 5,330
  7
ГОСТ
 11
35025.0
 21
-21522.0
 31
0.0
100
AcDbText
 73
2
  0
TEXT
  5
23C
330
17
100
AcDbEntity
  8
08_ТЕКСТ
100
AcDbText
 10
41025.0
 20
-21522.0
 30
0.0
 40
375.0
  1
21…24
  7
ГОСТ
 11
41025.0
 21
-21522.0
 31
0.0
100
AcDbText
 73
2
  0
TEXT
  5
23D
330
17
100
AcDbEntity
  8
08_ТЕКСТ
100
AcDbText
 10
44025.0
 20
-21522.0
 30
0.0
 40
375.0
  1
34,89 / 4,20
  7
ГОСТ
 11
44025.0
 21
-21522.0
 31
0.0
100
AcDbText
 73
2
  0
LINE
  5
23E
330
17
100
AcDbEntity
  8
00_РАМКА
100
AcDbLine
 10
15000.0
 20
-21972.0
 30
0.0
 11
48900.0
 21
-21972.0
 31
0.0
  0
TEXT
  5
23F
330
17
100
AcDbEntity
  8
08_ТЕКСТ
100
AcDbText
 10
15225.0
 20
-22422.0
 30
0.0
 40
375.0
  1
А-3-ЛБ
  7
ГОСТ
 11
15225.0
 21
-22422.0
 31
0.0
100
AcDbText
 73
2
  0
TEXT
  5
240
330
17
100
AcDbEntity
  8
08_ТЕКСТ
100
AcDbText
 10
18525.0
 20
-22422.0
 30
0.0
 40
375.0
  1
45,629
  7
ГОСТ
 11
18525.0
 21
-22422.0
 31
0.0
100
AcDbText
 73
2
  0
TEXT
  5
241
330
17
100
AcDbEntity
  8
08_ТЕКСТ
100
AcDbText
 10
22425.0
 20
-22422.0
 30
0.0
 40
375.0
  1
-4,20
  7
ГОСТ
 11
22425.0
 21
-22422.0
 31
0.0
100
AcDbText
 73
2
  0
TEXT
  5
242
330
17
100
AcDbEntity
  8
08_ТЕКСТ
100
AcDbText
 10
25125.0
 20
-22422.0
 30
0.0
 40
375.0
  1
77,5…88,5
  7
ГОСТ
 11
25125.0
 21
-22422.0
 31
0.0
100
AcDbText
 73
2
  0
TEXT
  5
243
330
17
100
AcDbEntity
  8
08_ТЕКСТ
100
AcDbText
 10
29025.0
 20
-22422.0
 30
0.0
 40
375.0
  1
42,703 / 48,556
  7
ГОСТ
 11
29025.0
 21
-22422.0
 31
0.0
100
AcDbText
 73
2
  0
TEXT
  5
244
330
17
100
AcDbEntity
  8
08_ТЕКСТ
100
AcDbText
 10
35025.0
 20
-22422.0
 30
0.0
 40
375.0
  1
-5,330 / -3,071
  7
ГОСТ
 11
35025.0
 21
-22422.0
 31
0.0
100
AcDbText
 73
2
  0
TEXT
  5
245
330
17
100
AcDbEntity
  8
08_ТЕКСТ
100
AcDbText
 10
41025.0
 20
-22422.0
 30
0.0
 40
375.0
  1
25…28
  7
ГОСТ
 11
41025.0
 21
-22422.0
 31
0.0
100
AcDbText
 73
2
  0
TEXT
  5
246
330
17
100
AcDbEntity
  8
08_ТЕКСТ
100
AcDbText
 10
44025.0
 20
-22422.0
 30
0.0
 40
375.0
  1
42,15 / -4,20
  7
ГОСТ
 11
44025.0
 21
-22422.0
 31
0.0
100
AcDbText
 73
2
  0
LINE
  5
247
330
17
100
AcDbEntity
  8
00_РАМКА
100
AcDbLine
 10
15000.0
 20
-22872.0
 30
0.0
 11
48900.0
 21
-22872.0
 31
0.0
  0
TEXT
  5
248
330
17
100
AcDbEntity
  8
08_ТЕКСТ
100
AcDbText
 10
15225.0
 20
-23322.0
 30
0.0
 40
375.0
  1
А-3-ДП
  7
ГОСТ
 11
15225.0
 21
-23322.0
 31
0.0
100
AcDbText
 73
2
  0
TEXT
  5
249
330
17
100
AcDbEntity
  8
08_ТЕКСТ
100
AcDbText
 10
18525.0
 20
-23322.0
 30
0.0
 40
375.0
  1
45,629
  7
ГОСТ
 11
18525.0
 21
-23322.0
 31
0.0
100
AcDbText
 73
2
  0
TEXT
  5
24A
330
17
100
AcDbEntity
  8
08_ТЕКСТ
100
AcDbText
 10
22425.0
 20
-23322.0
 30
0.0
 40
375.0
  1
0,00
  7
ГОСТ
 11
22425.0
 21
-23322.0
 31
0.0
100
AcDbText
 73
2
  0
TEXT
  5
24B
330
17
100
AcDbEntity
  8
08_ТЕКСТ
100
AcDbText
 10
25125.0
 20
-23322.0
 30
0.0
 40
375.0
  1
77,5…88,5
  7
ГОСТ
 11
25125.0
 21
-23322.0
 31
0.0
100
AcDbText
 73
2
  0
TEXT
  5
24C
330
17
100
AcDbEntity
  8
08_ТЕКСТ
100
AcDbText
 10
29025.0
 20
-23322.0
 30
0.0
 40
375.0
  1
42,703 / 48,556
  7
ГОСТ
 11
29025.0
 21
-23322.0
 31
0.0
100
AcDbText
 73
2
  0
TEXT
  5
24D
330
17
100
AcDbEntity
  8
08_ТЕКСТ
100
AcDbText
 10
35025.0
 20
-23322.0
 30
0.0
 40
375.0
  1
-1,129 / 1,129
  7
ГОСТ
 11
35025.0
 21
-23322.0
 31
0.0
100
AcDbText
 73
2
  0
TEXT
  5
24E
330
17
100
AcDbEntity
  8
08_ТЕКСТ
100
AcDbText
 10
41025.0
 20
-23322.0
 30
0.0
 40
375.0
  1
29…32
  7
ГОСТ
 11
41025.0
 21
-23322.0
 31
0.0
100
AcDbText
 73
2
  0
TEXT
  5
24F
330
17
100
AcDbEntity
  8
08_ТЕКСТ
100
AcDbText
 10
44025.0
 20
-23322.0
 30
0.0
 40
375.0
  1
42,15 / 0,00
  7
ГОСТ
 11
44025.0
 21
-23322.0
 31
0.0
100
AcDbText
 73
2
  0
LINE
  5
250
330
17
100
AcDbEntity
  8
00_РАМКА
100
AcDbLine
 10
15000.0
 20
-23772.0
 30
0.0
 11
48900.0
 21
-23772.0
 31
0.0
  0
TEXT
  5
251
330
17
100
AcDbEntity
  8
08_ТЕКСТ
100
AcDbText
 10
15225.0
 20
-24222.0
 30
0.0
 40
375.0
  1
А-3-ПБ
  7
ГОСТ
 11
15225.0
 21
-24222.0
 31
0.0
100
AcDbText
 73
2
  0
TEXT
  5
252
330
17
100
AcDbEntity
  8
08_ТЕКСТ
100
AcDbText
 10
18525.0
 20
-24222.0
 30
0.0
 40
375.0
  1
45,629
  7
ГОСТ
 11
18525.0
 21
-24222.0
 31
0.0
100
AcDbText
 73
2
  0
TEXT
  5
253
330
17
100
AcDbEntity
  8
08_ТЕКСТ
100
AcDbText
 10
22425.0
 20
-24222.0
 30
0.0
 40
375.0
  1
4,20
  7
ГОСТ
 11
22425.0
 21
-24222.0
 31
0.0
100
AcDbText
 73
2
  0
TEXT
  5
254
330
17
100
AcDbEntity
  8
08_ТЕКСТ
100
AcDbText
 10
25125.0
 20
-24222.0
 30
0.0
 40
375.0
  1
77,5…88,5
  7
ГОСТ
 11
25125.0
 21
-24222.0
 31
0.0
100
AcDbText
 73
2
  0
TEXT
  5
255
330
17
100
AcDbEntity
  8
08_ТЕКСТ
100
AcDbText
 10
29025.0
 20
-24222.0
 30
0.0
 40
375.0
  1
42,703 / 48,556
  7
ГОСТ
 11
29025.0
 21
-24222.0
 31
0.0
100
AcDbText
 73
2
  0
TEXT
  5
256
330
17
100
AcDbEntity
  8
08_ТЕКСТ
100
AcDbText
 10
35025.0
 20
-24222.0
 30
0.0
 40
375.0
  1
3,071 / 5,330
  7
ГОСТ
 11
35025.0
 21
-24222.0
 31
0.0
100
AcDbText
 73
2
  0
TEXT
  5
257
330
17
100
AcDbEntity
  8
08_ТЕКСТ
100
AcDbText
 10
41025.0
 20
-24222.0
 30
0.0
 40
375.0
  1
33…36
  7
ГОСТ
 11
41025.0
 21
-24222.0
 31
0.0
100
AcDbText
 73
2
  0
TEXT
  5
258
330
17
100
AcDbEntity
  8
08_ТЕКСТ
100
AcDbText
 10
44025.0
 20
-24222.0
 30
0.0
 40
375.0
  1
42,15 / 4,20
  7
ГОСТ
 11
44025.0
 21
-24222.0
 31
0.0
100
AcDbText
 73
2
  0
LINE
  5
259
330
17
100
AcDbEntity
  8
00_РАМКА
100
AcDbLine
 10
15000.0
 20
-24672.0
 30
0.0
 11
48900.0
 21
-24672.0
 31
0.0
  0
TEXT
  5
25A
330
17
100
AcDbEntity
  8
08_ТЕКСТ
100
AcDbText
 10
15225.0
 20
-25122.0
 30
0.0
 40
375.0
  1
А-4-ЛБ
  7
ГОСТ
 11
15225.0
 21
-25122.0
 31
0.0
100
AcDbText
 73
2
  0
TEXT
  5
25B
330
17
100
AcDbEntity
  8
08_ТЕКСТ
100
AcDbText
 10
18525.0
 20
-25122.0
 30
0.0
 40
375.0
  1
52,887
  7
ГОСТ
 11
18525.0
 21
-25122.0
 31
0.0
100
AcDbText
 73
2
  0
TEXT
  5
25C
330
17
100
AcDbEntity
  8
08_ТЕКСТ
100
AcDbText
 10
22425.0
 20
-25122.0
 30
0.0
 40
375.0
  1
-4,20
  7
ГОСТ
 11
22425.0
 21
-25122.0
 31
0.0
100
AcDbText
 73
2
  0
TEXT
  5
25D
330
17
100
AcDbEntity
  8
08_ТЕКСТ
100
AcDbText
 10
25125.0
 20
-25122.0
 30
0.0
 40
375.0
  1
90,7…101,7
  7
ГОСТ
 11
25125.0
 21
-25122.0
 31
0.0
100
AcDbText
 73
2
  0
TEXT
  5
25E
330
17
100
AcDbEntity
  8
08_ТЕКСТ
100
AcDbText
 10
29025.0
 20
-25122.0
 30
0.0
 40
375.0
  1
49,961 / 55,813
  7
ГОСТ
 11
29025.0
 21
-25122.0
 31
0.0
100
AcDbText
 73
2
  0
TEXT
  5
25F
330
17
100
AcDbEntity
  8
08_ТЕКСТ
100
AcDbText
 10
35025.0
 20
-25122.0
 30
0.0
 40
375.0
  1
-5,330 / -3,071
  7
ГОСТ
 11
35025.0
 21
-25122.0
 31
0.0
100
AcDbText
 73
2
  0
TEXT
  5
260
330
17
100
AcDbEntity
  8
08_ТЕКСТ
100
AcDbText
 10
41025.0
 20
-25122.0
 30
0.0
 40
375.0
  1
37…40
  7
ГОСТ
 11
41025.0
 21
-25122.0
 31
0.0
100
AcDbText
 73
2
  0
TEXT
  5
261
330
17
100
AcDbEntity
  8
08_ТЕКСТ
100
AcDbText
 10
44025.0
 20
-25122.0
 30
0.0
 40
375.0
  1
49,41 / -4,20
  7
ГОСТ
 11
44025.0
 21
-25122.0
 31
0.0
100
AcDbText
 73
2
  0
LINE
  5
262
330
17
100
AcDbEntity
  8
00_РАМКА
100
AcDbLine
 10
15000.0
 20
-25572.0
 30
0.0
 11
48900.0
 21
-25572.0
 31
0.0
  0
TEXT
  5
263
330
17
100
AcDbEntity
  8
08_ТЕКСТ
100
AcDbText
 10
15225.0
 20
-26022.0
 30
0.0
 40
375.0
  1
А-4-ДП
  7
ГОСТ
 11
15225.0
 21
-26022.0
 31
0.0
100
AcDbText
 73
2
  0
TEXT
  5
264
330
17
100
AcDbEntity
  8
08_ТЕКСТ
100
AcDbText
 10
18525.0
 20
-26022.0
 30
0.0
 40
375.0
  1
52,887
  7
ГОСТ
 11
18525.0
 21
-26022.0
 31
0.0
100
AcDbText
 73
2
  0
TEXT
  5
265
330
17
100
AcDbEntity
  8
08_ТЕКСТ
100
AcDbText
 10
22425.0
 20
-26022.0
 30
0.0
 40
375.0
  1
0,00
  7
ГОСТ
 11
22425.0
 21
-26022.0
 31
0.0
100
AcDbText
 73
2
  0
TEXT
  5
266
330
17
100
AcDbEntity
  8
08_ТЕКСТ
100
AcDbText
 10
25125.0
 20
-26022.0
 30
0.0
 40
375.0
  1
90,7…101,7
  7
ГОСТ
 11
25125.0
 21
-26022.0
 31
0.0
100
AcDbText
 73
2
  0
TEXT
  5
267
330
17
100
AcDbEntity
  8
08_ТЕКСТ
100
AcDbText
 10
29025.0
 20
-26022.0
 30
0.0
 40
375.0
  1
49,961 / 55,813
  7
ГОСТ
 11
29025.0
 21
-26022.0
 31
0.0
100
AcDbText
 73
2
  0
TEXT
  5
268
330
17
100
AcDbEntity
  8
08_ТЕКСТ
100
AcDbText
 10
35025.0
 20
-26022.0
 30
0.0
 40
375.0
  1
-1,129 / 1,129
  7
ГОСТ
 11
35025.0
 21
-26022.0
 31
0.0
100
AcDbText
 73
2
  0
TEXT
  5
269
330
17
100
AcDbEntity
  8
08_ТЕКСТ
100
AcDbText
 10
41025.0
 20
-26022.0
 30
0.0
 40
375.0
  1
41…44
  7
ГОСТ
 11
41025.0
 21
-26022.0
 31
0.0
100
AcDbText
 73
2
  0
TEXT
  5
26A
330
17
100
AcDbEntity
  8
08_ТЕКСТ
100
AcDbText
 10
44025.0
 20
-26022.0
 30
0.0
 40
375.0
  1
49,41 / 0,00
  7
ГОСТ
 11
44025.0
 21
-26022.0
 31
0.0
100
AcDbText
 73
2
  0
LINE
  5
26B
330
17
100
AcDbEntity
  8
00_РАМКА
100
AcDbLine
 10
15000.0
 20
-26472.0
 30
0.0
 11
48900.0
 21
-26472.0
 31
0.0
  0
TEXT
  5
26C
330
17
100
AcDbEntity
  8
08_ТЕКСТ
100
AcDbText
 10
15225.0
 20
-26922.0
 30
0.0
 40
375.0
  1
А-4-ПБ
  7
ГОСТ
 11
15225.0
 21
-26922.0
 31
0.0
100
AcDbText
 73
2
  0
TEXT
  5
26D
330
17
100
AcDbEntity
  8
08_ТЕКСТ
100
AcDbText
 10
18525.0
 20
-26922.0
 30
0.0
 40
375.0
  1
52,887
  7
ГОСТ
 11
18525.0
 21
-26922.0
 31
0.0
100
AcDbText
 73
2
  0
TEXT
  5
26E
330
17
100
AcDbEntity
  8
08_ТЕКСТ
100
AcDbText
 10
22425.0
 20
-26922.0
 30
0.0
 40
375.0
  1
4,20
  7
ГОСТ
 11
22425.0
 21
-26922.0
 31
0.0
100
AcDbText
 73
2
  0
TEXT
  5
26F
330
17
100
AcDbEntity
  8
08_ТЕКСТ
100
AcDbText
 10
25125.0
 20
-26922.0
 30
0.0
 40
375.0
  1
90,7…101,7
  7
ГОСТ
 11
25125.0
 21
-26922.0
 31
0.0
100
AcDbText
 73
2
  0
TEXT
  5
270
330
17
100
AcDbEntity
  8
08_ТЕКСТ
100
AcDbText
 10
29025.0
 20
-26922.0
 30
0.0
 40
375.0
  1
49,961 / 55,813
  7
ГОСТ
 11
29025.0
 21
-26922.0
 31
0.0
100
AcDbText
 73
2
  0
TEXT
  5
271
330
17
100
AcDbEntity
  8
08_ТЕКСТ
100
AcDbText
 10
35025.0
 20
-26922.0
 30
0.0
 40
375.0
  1
3,071 / 5,330
  7
ГОСТ
 11
35025.0
 21
-26922.0
 31
0.0
100
AcDbText
 73
2
  0
TEXT
  5
272
330
17
100
AcDbEntity
  8
08_ТЕКСТ
100
AcDbText
 10
41025.0
 20
-26922.0
 30
0.0
 40
375.0
  1
45…48
  7
ГОСТ
 11
41025.0
 21
-26922.0
 31
0.0
100
AcDbText
 73
2
  0
TEXT
  5
273
330
17
100
AcDbEntity
  8
08_ТЕКСТ
100
AcDbText
 10
44025.0
 20
-26922.0
 30
0.0
 40
375.0
  1
49,41 / 4,20
  7
ГОСТ
 11
44025.0
 21
-26922.0
 31
0.0
100
AcDbText
 73
2
  0
LINE
  5
274
330
17
100
AcDbEntity
  8
00_РАМКА
100
AcDbLine
 10
15000.0
 20
-27372.0
 30
0.0
 11
48900.0
 21
-27372.0
 31
0.0
  0
TEXT
  5
275
330
17
100
AcDbEntity
  8
08_ТЕКСТ
100
AcDbText
 10
15225.0
 20
-27822.0
 30
0.0
 40
375.0
  1
Б-1-ЛБ
  7
ГОСТ
 11
15225.0
 21
-27822.0
 31
0.0
100
AcDbText
 73
2
  0
TEXT
  5
276
330
17
100
AcDbEntity
  8
08_ТЕКСТ
100
AcDbText
 10
18525.0
 20
-27822.0
 30
0.0
 40
375.0
  1
79,742
  7
ГОСТ
 11
18525.0
 21
-27822.0
 31
0.0
100
AcDbText
 73
2
  0
TEXT
  5
277
330
17
100
AcDbEntity
  8
08_ТЕКСТ
100
AcDbText
 10
22425.0
 20
-27822.0
 30
0.0
 40
375.0
  1
-4,20
  7
ГОСТ
 11
22425.0
 21
-27822.0
 31
0.0
100
AcDbText
 73
2
  0
TEXT
  5
278
330
17
100
AcDbEntity
  8
08_ТЕКСТ
100
AcDbText
 10
25125.0
 20
-27822.0
 30
0.0
 40
375.0
  1
139,5…150,5
  7
ГОСТ
 11
25125.0
 21
-27822.0
 31
0.0
100
AcDbText
 73
2
  0
TEXT
  5
279
330
17
100
AcDbEntity
  8
08_ТЕКСТ
100
AcDbText
 10
29025.0
 20
-27822.0
 30
0.0
 40
375.0
  1
76,815 / 82,668
  7
ГОСТ
 11
29025.0
 21
-27822.0
 31
0.0
100
AcDbText
 73
2
  0
TEXT
  5
27A
330
17
100
AcDbEntity
  8
08_ТЕКСТ
100
AcDbText
 10
35025.0
 20
-27822.0
 30
0.0
 40
375.0
  1
-5,330 / -3,071
  7
ГОСТ
 11
35025.0
 21
-27822.0
 31
0.0
100
AcDbText
 73
2
  0
TEXT
  5
27B
330
17
100
AcDbEntity
  8
08_ТЕКСТ
100
AcDbText
 10
41025.0
 20
-27822.0
 30
0.0
 40
375.0
  1
49…52
  7
ГОСТ
 11
41025.0
 21
-27822.0
 31
0.0
100
AcDbText
 73
2
  0
TEXT
  5
27C
330
17
100
AcDbEntity
  8
08_ТЕКСТ
100
AcDbText
 10
44025.0
 20
-27822.0
 30
0.0
 40
375.0
  1
76,26 / -4,20
  7
ГОСТ
 11
44025.0
 21
-27822.0
 31
0.0
100
AcDbText
 73
2
  0
LINE
  5
27D
330
17
100
AcDbEntity
  8
00_РАМКА
100
AcDbLine
 10
15000.0
 20
-28272.0
 30
0.0
 11
48900.0
 21
-28272.0
 31
0.0
  0
TEXT
  5
27E
330
17
100
AcDbEntity
  8
08_ТЕКСТ
100
AcDbText
 10
15225.0
 20
-28722.0
 30
0.0
 40
375.0
  1
Б-1-ПБ
  7
ГОСТ
 11
15225.0
 21
-28722.0
 31
0.0
100
AcDbText
 73
2
  0
TEXT
  5
27F
330
17
100
AcDbEntity
  8
08_ТЕКСТ
100
AcDbText
 10
18525.0
 20
-28722.0
 30
0.0
 40
375.0
  1
79,742
  7
ГОСТ
 11
18525.0
 21
-28722.0
 31
0.0
100
AcDbText
 73
2
  0
TEXT
  5
280
330
17
100
AcDbEntity
  8
08_ТЕКСТ
100
AcDbText
 10
22425.0
 20
-28722.0
 30
0.0
 40
375.0
  1
4,20
  7
ГОСТ
 11
22425.0
 21
-28722.0
 31
0.0
100
AcDbText
 73
2
  0
TEXT
  5
281
330
17
100
AcDbEntity
  8
08_ТЕКСТ
100
AcDbText
 10
25125.0
 20
-28722.0
 30
0.0
 40
375.0
  1
139,5…150,5
  7
ГОСТ
 11
25125.0
 21
-28722.0
 31
0.0
100
AcDbText
 73
2
  0
TEXT
  5
282
330
17
100
AcDbEntity
  8
08_ТЕКСТ
100
AcDbText
 10
29025.0
 20
-28722.0
 30
0.0
 40
375.0
  1
76,815 / 82,668
  7
ГОСТ
 11
29025.0
 21
-28722.0
 31
0.0
100
AcDbText
 73
2
  0
TEXT
  5
283
330
17
100
AcDbEntity
  8
08_ТЕКСТ
100
AcDbText
 10
35025.0
 20
-28722.0
 30
0.0
 40
375.0
  1
3,071 / 5,330
  7
ГОСТ
 11
35025.0
 21
-28722.0
 31
0.0
100
AcDbText
 73
2
  0
TEXT
  5
284
330
17
100
AcDbEntity
  8
08_ТЕКСТ
100
AcDbText
 10
41025.0
 20
-28722.0
 30
0.0
 40
375.0
  1
53…56
  7
ГОСТ
 11
41025.0
 21
-28722.0
 31
0.0
100
AcDbText
 73
2
  0
TEXT
  5
285
330
17
100
AcDbEntity
  8
08_ТЕКСТ
100
AcDbText
 10
44025.0
 20
-28722.0
 30
0.0
 40
375.0
  1
76,26 / 4,20
  7
ГОСТ
 11
44025.0
 21
-28722.0
 31
0.0
100
AcDbText
 73
2
  0
LINE
  5
286
330
17
100
AcDbEntity
  8
00_РАМКА
100
AcDbLine
 10
15000.0
 20
-29172.0
 30
0.0
 11
48900.0
 21
-29172.0
 31
0.0
  0
TEXT
  5
287
330
17
100
AcDbEntity
  8
08_ТЕКСТ
100
AcDbText
 10
15225.0
 20
-29622.0
 30
0.0
 40
375.0
  1
Б-2-ЛБ
  7
ГОСТ
 11
15225.0
 21
-29622.0
 31
0.0
100
AcDbText
 73
2
  0
TEXT
  5
288
330
17
100
AcDbEntity
  8
08_ТЕКСТ
100
AcDbText
 10
18525.0
 20
-29622.0
 30
0.0
 40
375.0
  1
87,000
  7
ГОСТ
 11
18525.0
 21
-29622.0
 31
0.0
100
AcDbText
 73
2
  0
TEXT
  5
289
330
17
100
AcDbEntity
  8
08_ТЕКСТ
100
AcDbText
 10
22425.0
 20
-29622.0
 30
0.0
 40
375.0
  1
-4,20
  7
ГОСТ
 11
22425.0
 21
-29622.0
 31
0.0
100
AcDbText
 73
2
  0
TEXT
  5
28A
330
17
100
AcDbEntity
  8
08_ТЕКСТ
100
AcDbText
 10
25125.0
 20
-29622.0
 30
0.0
 40
375.0
  1
152,7…163,7
  7
ГОСТ
 11
25125.0
 21
-29622.0
 31
0.0
100
AcDbText
 73
2
  0
TEXT
  5
28B
330
17
100
AcDbEntity
  8
08_ТЕКСТ
100
AcDbText
 10
29025.0
 20
-29622.0
 30
0.0
 40
375.0
  1
84,073 / 89,926
  7
ГОСТ
 11
29025.0
 21
-29622.0
 31
0.0
100
AcDbText
 73
2
  0
TEXT
  5
28C
330
17
100
AcDbEntity
  8
08_ТЕКСТ
100
AcDbText
 10
35025.0
 20
-29622.0
 30
0.0
 40
375.0
  1
-5,330 / -3,071
  7
ГОСТ
 11
35025.0
 21
-29622.0
 31
0.0
100
AcDbText
 73
2
  0
TEXT
  5
28D
330
17
100
AcDbEntity
  8
08_ТЕКСТ
100
AcDbText
 10
41025.0
 20
-29622.0
 30
0.0
 40
375.0
  1
57…60
  7
ГОСТ
 11
41025.0
 21
-29622.0
 31
0.0
100
AcDbText
 73
2
  0
TEXT
  5
28E
330
17
100
AcDbEntity
  8
08_ТЕКСТ
100
AcDbText
 10
44025.0
 20
-29622.0
 30
0.0
 40
375.0
  1
83,52 / -4,20
  7
ГОСТ
 11
44025.0
 21
-29622.0
 31
0.0
100
AcDbText
 73
2
  0
LINE
  5
28F
330
17
100
AcDbEntity
  8
00_РАМКА
100
AcDbLine
 10
15000.0
 20
-30072.0
 30
0.0
 11
48900.0
 21
-30072.0
 31
0.0
  0
TEXT
  5
290
330
17
100
AcDbEntity
  8
08_ТЕКСТ
100
AcDbText
 10
15225.0
 20
-30522.0
 30
0.0
 40
375.0
  1
Б-2-ПБ
  7
ГОСТ
 11
15225.0
 21
-30522.0
 31
0.0
100
AcDbText
 73
2
  0
TEXT
  5
291
330
17
100
AcDbEntity
  8
08_ТЕКСТ
100
AcDbText
 10
18525.0
 20
-30522.0
 30
0.0
 40
375.0
  1
87,000
  7
ГОСТ
 11
18525.0
 21
-30522.0
 31
0.0
100
AcDbText
 73
2
  0
TEXT
  5
292
330
17
100
AcDbEntity
  8
08_ТЕКСТ
100
AcDbText
 10
22425.0
 20
-30522.0
 30
0.0
 40
375.0
  1
4,20
  7
ГОСТ
 11
22425.0
 21
-30522.0
 31
0.0
100
AcDbText
 73
2
  0
TEXT
  5
293
330
17
100
AcDbEntity
  8
08_ТЕКСТ
100
AcDbText
 10
25125.0
 20
-30522.0
 30
0.0
 40
375.0
  1
152,7…163,7
  7
ГОСТ
 11
25125.0
 21
-30522.0
 31
0.0
100
AcDbText
 73
2
  0
TEXT
  5
294
330
17
100
AcDbEntity
  8
08_ТЕКСТ
100
AcDbText
 10
29025.0
 20
-30522.0
 30
0.0
 40
375.0
  1
84,073 / 89,926
  7
ГОСТ
 11
29025.0
 21
-30522.0
 31
0.0
100
AcDbText
 73
2
  0
TEXT
  5
295
330
17
100
AcDbEntity
  8
08_ТЕКСТ
100
AcDbText
 10
35025.0
 20
-30522.0
 30
0.0
 40
375.0
  1
3,071 / 5,330
  7
ГОСТ
 11
35025.0
 21
-30522.0
 31
0.0
100
AcDbText
 73
2
  0
TEXT
  5
296
330
17
100
AcDbEntity
  8
08_ТЕКСТ
100
AcDbText
 10
41025.0
 20
-30522.0
 30
0.0
 40
375.0
  1
61…64
  7
ГОСТ
 11
41025.0
 21
-30522.0
 31
0.0
100
AcDbText
 73
2
  0
TEXT
  5
297
330
17
100
AcDbEntity
  8
08_ТЕКСТ
100
AcDbText
 10
44025.0
 20
-30522.0
 30
0.0
 40
375.0
  1
83,52 / 4,20
  7
ГОСТ
 11
44025.0
 21
-30522.0
 31
0.0
100
AcDbText
 73
2
  0
LINE
  5
298
330
17
100
AcDbEntity
  8
00_РАМКА
100
AcDbLine
 10
15000.0
 20
-30972.0
 30
0.0
 11
48900.0
 21
-30972.0
 31
0.0
  0
TEXT
  5
299
330
17
100
AcDbEntity
  8
08_ТЕКСТ
100
AcDbText
 10
15225.0
 20
-31422.0
 30
0.0
 40
375.0
  1
Б-3-ЛБ
  7
ГОСТ
 11
15225.0
 21
-31422.0
 31
0.0
100
AcDbText
 73
2
  0
TEXT
  5
29A
330
17
100
AcDbEntity
  8
08_ТЕКСТ
100
AcDbText
 10
18525.0
 20
-31422.0
 30
0.0
 40
375.0
  1
94,258
  7
ГОСТ
 11
18525.0
 21
-31422.0
 31
0.0
100
AcDbText
 73
2
  0
TEXT
  5
29B
330
17
100
AcDbEntity
  8
08_ТЕКСТ
100
AcDbText
 10
22425.0
 20
-31422.0
 30
0.0
 40
375.0
  1
-4,20
  7
ГОСТ
 11
22425.0
 21
-31422.0
 31
0.0
100
AcDbText
 73
2
  0
TEXT
  5
29C
330
17
100
AcDbEntity
  8
08_ТЕКСТ
100
AcDbText
 10
25125.0
 20
-31422.0
 30
0.0
 40
375.0
  1
165,9…176,9
  7
ГОСТ
 11
25125.0
 21
-31422.0
 31
0.0
100
AcDbText
 73
2
  0
TEXT
  5
29D
330
17
100
AcDbEntity
  8
08_ТЕКСТ
100
AcDbText
 10
29025.0
 20
-31422.0
 30
0.0
 40
375.0
  1
91,331 / 97,184
  7
ГОСТ
 11
29025.0
 21
-31422.0
 31
0.0
100
AcDbText
 73
2
  0
TEXT
  5
29E
330
17
100
AcDbEntity
  8
08_ТЕКСТ
100
AcDbText
 10
35025.0
 20
-31422.0
 30
0.0
 40
375.0
  1
-5,330 / -3,071
  7
ГОСТ
 11
35025.0
 21
-31422.0
 31
0.0
100
AcDbText
 73
2
  0
TEXT
  5
29F
330
17
100
AcDbEntity
  8
08_ТЕКСТ
100
AcDbText
 10
41025.0
 20
-31422.0
 30
0.0
 40
375.0
  1
65…68
  7
ГОСТ
 11
41025.0
 21
-31422.0
 31
0.0
100
AcDbText
 73
2
  0
TEXT
  5
2A0
330
17
100
AcDbEntity
  8
08_ТЕКСТ
100
AcDbText
 10
44025.0
 20
-31422.0
 30
0.0
 40
375.0
  1
90,78 / -4,20
  7
ГОСТ
 11
44025.0
 21
-31422.0
 31
0.0
100
AcDbText
 73
2
  0
LINE
  5
2A1
330
17
100
AcDbEntity
  8
00_РАМКА
100
AcDbLine
 10
15000.0
 20
-31872.0
 30
0.0
 11
48900.0
 21
-31872.0
 31
0.0
  0
TEXT
  5
2A2
330
17
100
AcDbEntity
  8
08_ТЕКСТ
100
AcDbText
 10
15225.0
 20
-32322.0
 30
0.0
 40
375.0
  1
Б-3-ПБ
  7
ГОСТ
 11
15225.0
 21
-32322.0
 31
0.0
100
AcDbText
 73
2
  0
TEXT
  5
2A3
330
17
100
AcDbEntity
  8
08_ТЕКСТ
100
AcDbText
 10
18525.0
 20
-32322.0
 30
0.0
 40
375.0
  1
94,258
  7
ГОСТ
 11
18525.0
 21
-32322.0
 31
0.0
100
AcDbText
 73
2
  0
TEXT
  5
2A4
330
17
100
AcDbEntity
  8
08_ТЕКСТ
100
AcDbText
 10
22425.0
 20
-32322.0
 30
0.0
 40
375.0
  1
4,20
  7
ГОСТ
 11
22425.0
 21
-32322.0
 31
0.0
100
AcDbText
 73
2
  0
TEXT
  5
2A5
330
17
100
AcDbEntity
  8
08_ТЕКСТ
100
AcDbText
 10
25125.0
 20
-32322.0
 30
0.0
 40
375.0
  1
165,9…176,9
  7
ГОСТ
 11
25125.0
 21
-32322.0
 31
0.0
100
AcDbText
 73
2
  0
TEXT
  5
2A6
330
17
100
AcDbEntity
  8
08_ТЕКСТ
100
AcDbText
 10
29025.0
 20
-32322.0
 30
0.0
 40
375.0
  1
91,331 / 97,184
  7
ГОСТ
 11
29025.0
 21
-32322.0
 31
0.0
100
AcDbText
 73
2
  0
TEXT
  5
2A7
330
17
100
AcDbEntity
  8
08_ТЕКСТ
100
AcDbText
 10
35025.0
 20
-32322.0
 30
0.0
 40
375.0
  1
3,071 / 5,330
  7
ГОСТ
 11
35025.0
 21
-32322.0
 31
0.0
100
AcDbText
 73
2
  0
TEXT
  5
2A8
330
17
100
AcDbEntity
  8
08_ТЕКСТ
100
AcDbText
 10
41025.0
 20
-32322.0
 30
0.0
 40
375.0
  1
69…72
  7
ГОСТ
 11
41025.0
 21
-32322.0
 31
0.0
100
AcDbText
 73
2
  0
TEXT
  5
2A9
330
17
100
AcDbEntity
  8
08_ТЕКСТ
100
AcDbText
 10
44025.0
 20
-32322.0
 30
0.0
 40
375.0
  1
90,78 / 4,20
  7
ГОСТ
 11
44025.0
 21
-32322.0
 31
0.0
100
AcDbText
 73
2
  0
LINE
  5
2AA
330
17
100
AcDbEntity
  8
00_РАМКА
100
AcDbLine
 10
15000.0
 20
-32772.0
 30
0.0
 11
48900.0
 21
-32772.0
 31
0.0
  0
LINE
  5
2AB
330
17
100
AcDbEntity
  8
00_РАМКА
100
AcDbLine
 10
15000.0
 20
-15000.0
 30
0.0
 11
15000.0
 21
-32772.0
 31
0.0
  0
LINE
  5
2AC
330
17
100
AcDbEntity
  8
00_РАМКА
100
AcDbLine
 10
18300.0
 20
-15000.0
 30
0.0
 11
18300.0
 21
-32772.0
 31
0.0
  0
LINE
  5
2AD
330
17
100
AcDbEntity
  8
00_РАМКА
100
AcDbLine
 10
22200.0
 20
-15000.0
 30
0.0
 11
22200.0
 21
-32772.0
 31
0.0
  0
LINE
  5
2AE
330
17
100
AcDbEntity
  8
00_РАМКА
100
AcDbLine
 10
24900.0
 20
-15000.0
 30
0.0
 11
24900.0
 21
-32772.0
 31
0.0
  0
LINE
  5
2AF
330
17
100
AcDbEntity
  8
00_РАМКА
100
AcDbLine
 10
28800.0
 20
-15000.0
 30
0.0
 11
28800.0
 21
-32772.0
 31
0.0
  0
LINE
  5
2B0
330
17
100
AcDbEntity
  8
00_РАМКА
100
AcDbLine
 10
34800.0
 20
-15000.0
 30
0.0
 11
34800.0
 21
-32772.0
 31
0.0
  0
LINE
  5
2B1
330
17
100
AcDbEntity
  8
00_РАМКА
100
AcDbLine
 10
40800.0
 20
-15000.0
 30
0.0
 11
40800.0
 21
-32772.0
 31
0.0
  0
LINE
  5
2B2
330
17
100
AcDbEntity
  8
00_РАМКА
100
AcDbLine
 10
43800.0
 20
-15000.0
 30
0.0
 11
43800.0
 21
-32772.0
 31
0.0
  0
LINE
  5
2B3
330
17
100
AcDbEntity
  8
00_РАМКА
100
AcDbLine
 10
48900.0
 20
-15000.0
 30
0.0
 11
48900.0
 21
-32772.0
 31
0.0
  0
LINE
  5
2B4
330
17
100
AcDbEntity
  8
00_РАМКА
100
AcDbLine
 10
51000.0
 20
-15000.0
 30
0.0
 11
91200.0
 21
-15000.0
 31
0.0
  0
TEXT
  5
2B5
330
17
100
AcDbEntity
  8
08_ТЕКСТ
100
AcDbText
 10
51225.0
 20
-15450.0
 30
0.0
 40
420.0
  1
Шаг
  7
ГОСТ
 11
51225.0
 21
-15450.0
 31
0.0
100
AcDbText
 73
2
  0
TEXT
  5
2B6
330
17
100
AcDbEntity
  8
08_ТЕКСТ
100
AcDbText
 10
53925.0
 20
-15450.0
 30
0.0
 40
420.0
  1
Монтаж и демонтаж модуля
  7
ГОСТ
 11
53925.0
 21
-15450.0
 31
0.0
100
AcDbText
 73
2
  0
LINE
  5
2B7
330
17
100
AcDbEntity
  8
00_РАМКА
100
AcDbLine
 10
51000.0
 20
-15900.0
 30
0.0
 11
91200.0
 21
-15900.0
 31
0.0
  0
TEXT
  5
2B8
330
17
100
AcDbEntity
  8
08_ТЕКСТ
100
AcDbText
 10
51225.0
 20
-16350.0
 30
0.0
 40
375.0
  1
1
  7
ГОСТ
 11
51225.0
 21
-16350.0
 31
0.0
100
AcDbText
 73
2
  0
TEXT
  5
2B9
330
17
100
AcDbEntity
  8
08_ТЕКСТ
100
AcDbText
 10
53925.0
 20
-16350.0
 30
0.0
 40
375.0
  1
Проверить фундаменты слота - конусы вдоль слота, рычаги открыты и на фиксаторах, розетка сред закрыта крышкой
  7
ГОСТ
 11
53925.0
 21
-16350.0
 31
0.0
100
AcDbText
 73
2
  0
LINE
  5
2BA
330
17
100
AcDbEntity
  8
00_РАМКА
100
AcDbLine
 10
51000.0
 20
-16800.0
 30
0.0
 11
91200.0
 21
-16800.0
 31
0.0
  0
TEXT
  5
2BB
330
17
100
AcDbEntity
  8
08_ТЕКСТ
100
AcDbText
 10
51225.0
 20
-17250.0
 30
0.0
 40
375.0
  1
2
  7
ГОСТ
 11
51225.0
 21
-17250.0
 31
0.0
100
AcDbText
 73
2
  0
TEXT
  5
2BC
330
17
100
AcDbEntity
  8
08_ТЕКСТ
100
AcDbText
 10
53925.0
 20
-17250.0
 30
0.0
 40
375.0
  1
Кран причала 16 т (до дальнего слота 20,3 м) проносит модуль над соседними с зазором 0,5 м, ставит по маркировке настила
  7
ГОСТ
 11
53925.0
 21
-17250.0
 31
0.0
100
AcDbText
 73
2
  0
LINE
  5
2BD
330
17
100
AcDbEntity
  8
00_РАМКА
100
AcDbLine
 10
51000.0
 20
-17700.0
 30
0.0
 11
91200.0
 21
-17700.0
 31
0.0
  0
TEXT
  5
2BE
330
17
100
AcDbEntity
  8
08_ТЕКСТ
100
AcDbText
 10
51225.0
 20
-18150.0
 30
0.0
 40
375.0
  1
3
  7
ГОСТ
 11
51225.0
 21
-18150.0
 31
0.0
100
AcDbText
 73
2
  0
TEXT
  5
2BF
330
17
100
AcDbEntity
  8
08_ТЕКСТ
100
AcDbText
 10
53925.0
 20
-18150.0
 30
0.0
 40
375.0
  1
Опустить модуль на четыре конуса, повернуть рычаги на 90° до фиксатора - замки заперты, проверить щупом зазор под фитингом
  7
ГОСТ
 11
53925.0
 21
-18150.0
 31
0.0
100
AcDbText
 73
2
  0
LINE
  5
2C0
330
17
100
AcDbEntity
  8
00_РАМКА
100
AcDbLine
 10
51000.0
 20
-18600.0
 30
0.0
 11
91200.0
 21
-18600.0
 31
0.0
  0
TEXT
  5
2C1
330
17
100
AcDbEntity
  8
08_ТЕКСТ
100
AcDbText
 10
51225.0
 20
-19050.0
 30
0.0
 40
375.0
  1
4
  7
ГОСТ
 11
51225.0
 21
-19050.0
 31
0.0
100
AcDbText
 73
2
  0
TEXT
  5
2C2
330
17
100
AcDbEntity
  8
08_ТЕКСТ
100
AcDbText
 10
53925.0
 20
-19050.0
 30
0.0
 40
375.0
  1
Подключить розетку - питание, вода, стоки, связь, проверить герметичность и УЗО
  7
ГОСТ
 11
53925.0
 21
-19050.0
 31
0.0
100
AcDbText
 73
2
  0
LINE
  5
2C3
330
17
100
AcDbEntity
  8
00_РАМКА
100
AcDbLine
 10
51000.0
 20
-19500.0
 30
0.0
 11
91200.0
 21
-19500.0
 31
0.0
  0
TEXT
  5
2C4
330
17
100
AcDbEntity
  8
08_ТЕКСТ
100
AcDbText
 10
51225.0
 20
-19950.0
 30
0.0
 40
375.0
  1
5
  7
ГОСТ
 11
51225.0
 21
-19950.0
 31
0.0
100
AcDbText
 73
2
  0
TEXT
  5
2C5
330
17
100
AcDbEntity
  8
08_ТЕКСТ
100
AcDbText
 10
53925.0
 20
-19950.0
 30
0.0
 40
375.0
  1
Записать в журнал тему, слоты, массы. Пересчитать посадку и остойчивость, при необходимости откорректировать балласт
  7
ГОСТ
 11
53925.0
 21
-19950.0
 31
0.0
100
AcDbText
 73
2
  0
LINE
  5
2C6
330
17
100
AcDbEntity
  8
00_РАМКА
100
AcDbLine
 10
51000.0
 20
-20400.0
 30
0.0
 11
91200.0
 21
-20400.0
 31
0.0
  0
TEXT
  5
2C7
330
17
100
AcDbEntity
  8
08_ТЕКСТ
100
AcDbText
 10
51225.0
 20
-20850.0
 30
0.0
 40
375.0
  1
Демонтаж
  7
ГОСТ
 11
51225.0
 21
-20850.0
 31
0.0
100
AcDbText
 73
2
  0
TEXT
  5
2C8
330
17
100
AcDbEntity
  8
08_ТЕКСТ
100
AcDbText
 10
53925.0
 20
-20850.0
 30
0.0
 40
375.0
  1
в обратном порядке. Фундаменты остаются на палубе, рычаги - «открыто», розетка закрывается, освободившийся слот - снова солярий
  7
ГОСТ
 11
53925.0
 21
-20850.0
 31
0.0
100
AcDbText
 73
2
  0
LINE
  5
2C9
330
17
100
AcDbEntity
  8
00_РАМКА
100
AcDbLine
 10
51000.0
 20
-21300.0
 30
0.0
 11
91200.0
 21
-21300.0
 31
0.0
  0
LINE
  5
2CA
330
17
100
AcDbEntity
  8
00_РАМКА
100
AcDbLine
 10
51000.0
 20
-15000.0
 30
0.0
 11
51000.0
 21
-21300.0
 31
0.0
  0
LINE
  5
2CB
330
17
100
AcDbEntity
  8
00_РАМКА
100
AcDbLine
 10
53700.0
 20
-15000.0
 30
0.0
 11
53700.0
 21
-21300.0
 31
0.0
  0
LINE
  5
2CC
330
17
100
AcDbEntity
  8
00_РАМКА
100
AcDbLine
 10
91200.0
 20
-15000.0
 30
0.0
 11
91200.0
 21
-21300.0
 31
0.0
  0
LINE
  5
2CD
330
17
100
AcDbEntity
  8
00_РАМКА
100
AcDbLine
 10
51000.0
 20
-23100.0
 30
0.0
 11
91200.0
 21
-23100.0
 31
0.0
  0
TEXT
  5
2CE
330
17
100
AcDbEntity
  8
08_ТЕКСТ
100
AcDbText
 10
51225.0
 20
-23550.0
 30
0.0
 40
420.0
  1
Среда
  7
ГОСТ
 11
51225.0
 21
-23550.0
 31
0.0
100
AcDbText
 73
2
  0
TEXT
  5
2CF
330
17
100
AcDbEntity
  8
08_ТЕКСТ
100
AcDbText
 10
55725.0
 20
-23550.0
 30
0.0
 40
420.0
  1
Требование на слот
  7
ГОСТ
 11
55725.0
 21
-23550.0
 31
0.0
100
AcDbText
 73
2
  0
LINE
  5
2D0
330
17
100
AcDbEntity
  8
00_РАМКА
100
AcDbLine
 10
51000.0
 20
-24000.0
 30
0.0
 11
91200.0
 21
-24000.0
 31
0.0
  0
TEXT
  5
2D1
330
17
100
AcDbEntity
  8
08_ТЕКСТ
100
AcDbText
 10
51225.0
 20
-24450.0
 30
0.0
 40
375.0
  1
Электропитание
  7
ГОСТ
 11
51225.0
 21
-24450.0
 31
0.0
100
AcDbText
 73
2
  0
TEXT
  5
2D2
330
17
100
AcDbEntity
  8
08_ТЕКСТ
100
AcDbText
 10
55725.0
 20
-24450.0
 30
0.0
 40
375.0
  1
3 × 400 В, 32 А на слот, 63 А для спа, бассейна и бара. Разъём промышленный IP67 в нише настила, кабель в канале вдоль п
  7
ГОСТ
 11
55725.0
 21
-24450.0
 31
0.0
100
AcDbText
 73
2
  0
LINE
  5
2D3
330
17
100
AcDbEntity
  8
00_РАМКА
100
AcDbLine
 10
51000.0
 20
-24900.0
 30
0.0
 11
91200.0
 21
-24900.0
 31
0.0
  0
TEXT
  5
2D4
330
17
100
AcDbEntity
  8
08_ТЕКСТ
100
AcDbText
 10
51225.0
 20
-25350.0
 30
0.0
 40
375.0
  1
Вода
  7
ГОСТ
 11
51225.0
 21
-25350.0
 31
0.0
100
AcDbText
 73
2
  0
TEXT
  5
2D5
330
17
100
AcDbEntity
  8
08_ТЕКСТ
100
AcDbText
 10
55725.0
 20
-25350.0
 30
0.0
 40
375.0
  1
DN20 холодная и горячая от судовой системы, кран с сухим быстроразъёмом у розетки
  7
ГОСТ
 11
55725.0
 21
-25350.0
 31
0.0
100
AcDbText
 73
2
  0
LINE
  5
2D6
330
17
100
AcDbEntity
  8
00_РАМКА
100
AcDbLine
 10
51000.0
 20
-25800.0
 30
0.0
 11
91200.0
 21
-25800.0
 31
0.0
  0
TEXT
  5
2D7
330
17
100
AcDbEntity
  8
08_ТЕКСТ
100
AcDbText
 10
51225.0
 20
-26250.0
 30
0.0
 40
375.0
  1
Стоки
  7
ГОСТ
 11
51225.0
 21
-26250.0
 31
0.0
100
AcDbText
 73
2
  0
TEXT
  5
2D8
330
17
100
AcDbEntity
  8
08_ТЕКСТ
100
AcDbText
 10
55725.0
 20
-26250.0
 30
0.0
 40
375.0
  1
DN50 в серый контур (душ, мойка, купель). Бассейн сливается через фильтр в тот же контур, обратный клапан
  7
ГОСТ
 11
55725.0
 21
-26250.0
 31
0.0
100
AcDbText
 73
2
  0
LINE
  5
2D9
330
17
100
AcDbEntity
  8
00_РАМКА
100
AcDbLine
 10
51000.0
 20
-26700.0
 30
0.0
 11
91200.0
 21
-26700.0
 31
0.0
  0
TEXT
  5
2DA
330
17
100
AcDbEntity
  8
08_ТЕКСТ
100
AcDbText
 10
51225.0
 20
-27150.0
 30
0.0
 40
375.0
  1
Связь и
  7
ГОСТ
 11
51225.0
 21
-27150.0
 31
0.0
100
AcDbText
 73
2
  0
TEXT
  5
2DB
330
17
100
AcDbEntity
  8
08_ТЕКСТ
100
AcDbText
 10
51225.0
 20
-27750.0
 30
0.0
 40
375.0
  1
сигнализация
  7
ГОСТ
 11
51225.0
 21
-27750.0
 31
0.0
100
AcDbText
 73
2
  0
TEXT
  5
2DC
330
17
100
AcDbEntity
  8
08_ТЕКСТ
100
AcDbText
 10
55725.0
 20
-27150.0
 30
0.0
 40
375.0
  1
пожарный шлейф и общесудовая трансляция по кабелю связи в той же розетке. Модули с печами - с датчиками температуры
  7
ГОСТ
 11
55725.0
 21
-27150.0
 31
0.0
100
AcDbText
 73
2
  0
LINE
  5
2DD
330
17
100
AcDbEntity
  8
00_РАМКА
100
AcDbLine
 10
51000.0
 20
-28200.0
 30
0.0
 11
91200.0
 21
-28200.0
 31
0.0
  0
TEXT
  5
2DE
330
17
100
AcDbEntity
  8
08_ТЕКСТ
100
AcDbText
 10
51225.0
 20
-28650.0
 30
0.0
 40
375.0
  1
Климат
  7
ГОСТ
 11
51225.0
 21
-28650.0
 31
0.0
100
AcDbText
 73
2
  0
TEXT
  5
2DF
330
17
100
AcDbEntity
  8
08_ТЕКСТ
100
AcDbText
 10
55725.0
 20
-28650.0
 30
0.0
 40
375.0
  1
сплит-система в составе модуля, конденсат - в стоки, вентиляция саун - своя
  7
ГОСТ
 11
55725.0
 21
-28650.0
 31
0.0
100
AcDbText
 73
2
  0
LINE
  5
2E0
330
17
100
AcDbEntity
  8
00_РАМКА
100
AcDbLine
 10
51000.0
 20
-29100.0
 30
0.0
 11
91200.0
 21
-29100.0
 31
0.0
  0
TEXT
  5
2E1
330
17
100
AcDbEntity
  8
08_ТЕКСТ
100
AcDbText
 10
51225.0
 20
-29550.0
 30
0.0
 40
375.0
  1
Крепление
  7
ГОСТ
 11
51225.0
 21
-29550.0
 31
0.0
100
AcDbText
 73
2
  0
TEXT
  5
2E2
330
17
100
AcDbEntity
  8
08_ТЕКСТ
100
AcDbText
 10
55725.0
 20
-29550.0
 30
0.0
 40
375.0
  1
4 фундамента-замка ВГ-2026.46.00 - конус в нижний фитинг, рычаг на 90° до фиксатора, монтаж краном причала за смену
  7
ГОСТ
 11
55725.0
 21
-29550.0
 31
0.0
100
AcDbText
 73
2
  0
LINE
  5
2E3
330
17
100
AcDbEntity
  8
00_РАМКА
100
AcDbLine
 10
51000.0
 20
-30000.0
 30
0.0
 11
91200.0
 21
-30000.0
 31
0.0
  0
LINE
  5
2E4
330
17
100
AcDbEntity
  8
00_РАМКА
100
AcDbLine
 10
51000.0
 20
-23100.0
 30
0.0
 11
51000.0
 21
-30000.0
 31
0.0
  0
LINE
  5
2E5
330
17
100
AcDbEntity
  8
00_РАМКА
100
AcDbLine
 10
55500.0
 20
-23100.0
 30
0.0
 11
55500.0
 21
-30000.0
 31
0.0
  0
LINE
  5
2E6
330
17
100
AcDbEntity
  8
00_РАМКА
100
AcDbLine
 10
91200.0
 20
-23100.0
 30
0.0
 11
91200.0
 21
-30000.0
 31
0.0
  0
LWPOLYLINE
  5
2E7
330
17
100
AcDbEntity
  8
00_РАМКА
100
AcDbPolyline
 90
4
 70
1
 10
3425.0
 20
-56100.0
 10
129575.0
 20
-56100.0
 10
129575.0
 20
33000.0
 10
3425.0
 20
33000.0
  0
LWPOLYLINE
  5
2E8
330
17
100
AcDbEntity
  8
00_РАМКА
100
AcDbPolyline
 90
4
 70
1
 10
6425.0
 20
-55350.0
 10
128825.0
 20
-55350.0
 10
128825.0
 20
32250.0
 10
6425.0
 20
32250.0
  0
LWPOLYLINE
  5
2E9
330
17
100
AcDbEntity
  8
00_РАМКА
100
AcDbPolyline
 90
4
 70
1
 10
101075.0
 20
-55350.0
 10
128825.0
 20
-55350.0
 10
128825.0
 20
-47100.0
 10
101075.0
 20
-47100.0
  0
LINE
  5
2EA
330
17
100
AcDbEntity
  8
00_РАМКА
100
AcDbLine
 10
101075.0
 20
-53550.0
 30
0.0
 11
128825.0
 21
-53550.0
 31
0.0
  0
LINE
  5
2EB
330
17
100
AcDbEntity
  8
00_РАМКА
100
AcDbLine
 10
101075.0
 20
-51750.0
 30
0.0
 11
128825.0
 21
-51750.0
 31
0.0
  0
LINE
  5
2EC
330
17
100
AcDbEntity
  8
00_РАМКА
100
AcDbLine
 10
101075.0
 20
-49950.0
 30
0.0
 11
128825.0
 21
-49950.0
 31
0.0
  0
LINE
  5
2ED
330
17
100
AcDbEntity
  8
00_РАМКА
100
AcDbLine
 10
119075.0
 20
-55350.0
 30
0.0
 11
119075.0
 21
-49950.0
 31
0.0
  0
TEXT
  5
2EE
330
17
100
AcDbEntity
  8
08_ТЕКСТ
100
AcDbText
 10
101525.0
 20
-48525.0
 30
0.0
 40
659.7051597051596
  1
Солнечная палуба - схема под болтовое крепление модулей
  7
ГОСТ
 11
101525.0
 21
-48525.0
 31
0.0
100
AcDbText
 73
2
  0
TEXT
  5
2EF
330
17
100
AcDbEntity
  8
08_ТЕКСТ
100
AcDbText
 10
101525.0
 20
-50430.0
 30
0.0
 40
375.0
  1
Модульное решение · 18 слотов · фундаменты twistlock, 72 шт.
  7
ГОСТ
 11
101525.0
 21
-50430.0
 31
0.0
100
AcDbText
 73
2
  0
TEXT
  5
2F0
330
17
100
AcDbEntity
  8
08_ТЕКСТ
100
AcDbText
 10
101525.0
 20
-51270.0
 30
0.0
 40
375.0
  1
· настил z = 8,60 м
  7
ГОСТ
 11
101525.0
 21
-51270.0
 31
0.0
100
AcDbText
 73
2
  0
TEXT
  5
2F1
330
17
100
AcDbEntity
  8
08_ТЕКСТ
100
AcDbText
 10
101525.0
 20
-52650.0
 30
0.0
 40
675.0
  1
ВГ-2026 МР-01
  7
ГОСТ
 11
101525.0
 21
-52650.0
 31
0.0
100
AcDbText
 73
2
  0
TEXT
  5
2F2
330
17
100
AcDbEntity
  8
08_ТЕКСТ
100
AcDbText
 10
119525.0
 20
-52650.0
 30
0.0
 40
525.0
  1
Масштаб 1 : 150
  7
ГОСТ
 11
119525.0
 21
-52650.0
 31
0.0
100
AcDbText
 73
2
  0
TEXT
  5
2F3
330
17
100
AcDbEntity
  8
08_ТЕКСТ
100
AcDbText
 10
101525.0
 20
-54450.0
 30
0.0
 40
375.0
  1
Настил АМг5 6 мм, фундаменты 20ГЛ / 40Х
  7
ГОСТ
 11
101525.0
 21
-54450.0
 31
0.0
100
AcDbText
 73
2
  0
TEXT
  5
2F4
330
17
100
AcDbEntity
  8
08_ТЕКСТ
100
AcDbText
 10
119525.0
 20
-54450.0
 30
0.0
 40
450.0
  1
Формат A1
  7
ГОСТ
 11
119525.0
 21
-54450.0
 31
0.0
100
AcDbText
 73
2
  0
TEXT
  5
2F5
330
17
100
AcDbEntity
  8
08_ТЕКСТ
100
AcDbText
 10
101525.0
 20
-46500.0
 30
0.0
 40
450.0
  1
УЖЦ ОСК 2026 · «Волжский Горизонт» · ПБ «Без границ»
  7
ГОСТ
 11
101525.0
 21
-46500.0
 31
0.0
100
AcDbText
 73
2
  0
TEXT
  5
2F6
330
17
100
AcDbEntity
  8
08_ТЕКСТ
100
AcDbText
 10
101525.0
 20
-34950.0
 30
0.0
 40
375.0
  1
1. Фундамент-замок ВГ-2026.46.00 - лист МР-02 и КД узла - корпус литой 20ГЛ, замок 40Х, 4 болта
  7
ГОСТ
 11
101525.0
 21
-34950.0
 31
0.0
100
AcDbText
 73
2
  0
TEXT
  5
2F7
330
17
100
AcDbEntity
  8
08_ТЕКСТ
100
AcDbText
 10
101525.0
 20
-35700.0
 30
0.0
 40
375.0
  1
    М24 А4-80 через подкладной лист АМг5, рычаги - в торцевые проходы.
  7
ГОСТ
 11
101525.0
 21
-35700.0
 31
0.0
100
AcDbText
 73
2
  0
TEXT
  5
2F8
330
17
100
AcDbEntity
  8
08_ТЕКСТ
100
AcDbText
 10
101525.0
 20
-36450.0
 30
0.0
 40
375.0
  1
2. Модуль - контейнер 20' high cube по ISO 668, фитинги по ISO 1161. Масса модуля с
  7
ГОСТ
 11
101525.0
 21
-36450.0
 31
0.0
100
AcDbText
 73
2
  0
TEXT
  5
2F9
330
17
100
AcDbEntity
  8
08_ТЕКСТ
100
AcDbText
 10
101525.0
 20
-37200.0
 30
0.0
 40
375.0
  1
    оборудованием и людьми до 13,5 т (бассейн), обычно 3…5,5 т, SWL опоры - отрыв 15, сжатие
  7
ГОСТ
 11
101525.0
 21
-37200.0
 31
0.0
100
AcDbText
 73
2
  0
TEXT
  5
2FA
330
17
100
AcDbEntity
  8
08_ТЕКСТ
100
AcDbText
 10
101525.0
 20
-37950.0
 30
0.0
 40
375.0
  1
    135, сдвиг 70 кН.
  7
ГОСТ
 11
101525.0
 21
-37950.0
 31
0.0
100
AcDbText
 73
2
  0
TEXT
  5
2FB
330
17
100
AcDbEntity
  8
08_ТЕКСТ
100
AcDbText
 10
101525.0
 20
-38700.0
 30
0.0
 40
375.0
  1
3. Проходы. Между рядами 1,76 м, у борта 1,25 м, между торцами 1,2 м - путь эвакуации, выходы
  7
ГОСТ
 11
101525.0
 21
-38700.0
 31
0.0
100
AcDbText
 73
2
  0
TEXT
  5
2FC
330
17
100
AcDbEntity
  8
08_ТЕКСТ
100
AcDbText
 10
101525.0
 20
-39450.0
 30
0.0
 40
375.0
  1
    трапов и лифта свободны.
  7
ГОСТ
 11
101525.0
 21
-39450.0
 31
0.0
100
AcDbText
 73
2
  0
TEXT
  5
2FD
330
17
100
AcDbEntity
  8
08_ТЕКСТ
100
AcDbText
 10
101525.0
 20
-40200.0
 30
0.0
 40
375.0
  1
4. Один ярус. Модуль с фундаментом 3,03 м при свободной высоте до моста 13,3 м - 5,5 м, второй
  7
ГОСТ
 11
101525.0
 21
-40200.0
 31
0.0
100
AcDbText
 73
2
  0
TEXT
  5
2FE
330
17
100
AcDbEntity
  8
08_ТЕКСТ
100
AcDbText
 10
101525.0
 20
-40950.0
 30
0.0
 40
375.0
  1
    ярус не проходит.
  7
ГОСТ
 11
101525.0
 21
-40950.0
 31
0.0
100
AcDbText
 73
2
  0
TEXT
  5
2FF
330
17
100
AcDbEntity
  8
08_ТЕКСТ
100
AcDbText
 10
101525.0
 20
-41700.0
 30
0.0
 40
375.0
  1
5. Суммарно на палубе не более 85 т (задание) и в пределах расчётной осадки 1,30 м. Модули
  7
ГОСТ
 11
101525.0
 21
-41700.0
 31
0.0
100
AcDbText
 73
2
  0
TEXT
  5
300
330
17
100
AcDbEntity
  8
08_ТЕКСТ
100
AcDbText
 10
101525.0
 20
-42450.0
 30
0.0
 40
375.0
  1
    ставить симметрично к ДП, y ЦТ ≤ 0,6 м.
  7
ГОСТ
 11
101525.0
 21
-42450.0
 31
0.0
100
AcDbText
 73
2
  0
TEXT
  5
301
330
17
100
AcDbEntity
  8
08_ТЕКСТ
100
AcDbText
 10
101525.0
 20
-43200.0
 30
0.0
 40
375.0
  1
6. Под каждой линией фитингов - продольная балка между рамными бимсами шага 2,2 м. На голый
  7
ГОСТ
 11
101525.0
 21
-43200.0
 31
0.0
100
AcDbText
 73
2
  0
TEXT
  5
302
330
17
100
AcDbEntity
  8
08_ТЕКСТ
100
AcDbText
 10
101525.0
 20
-43950.0
 30
0.0
 40
375.0
  1
    настил точечные грузы не ставить (норма 5,0 кПа).
  7
ГОСТ
 11
101525.0
 21
-43950.0
 31
0.0
100
AcDbText
 73
2
  0
TEXT
  5
303
330
17
100
AcDbEntity
  8
08_ТЕКСТ
100
AcDbText
 10
101525.0
 20
-44700.0
 30
0.0
 40
375.0
  1
7. Размеры в миллиметрах, координаты в метрах от кормового перпендикуляра и ДП, шпация
  7
ГОСТ
 11
101525.0
 21
-44700.0
 31
0.0
100
AcDbText
 73
2
  0
TEXT
  5
304
330
17
100
AcDbEntity
  8
08_ТЕКСТ
100
AcDbText
 10
101525.0
 20
-45450.0
 30
0.0
 40
375.0
  1
    практическая 550 мм.
  7
ГОСТ
 11
101525.0
 21
-45450.0
 31
0.0
100
AcDbText
 73
2
  0
TEXT
  5
305
330
17
100
AcDbEntity
  8
08_ТЕКСТ
100
AcDbText
 10
101525.0
 20
-33975.0
 30
0.0
 40
525.0
  1
Технические требования
  7
ГОСТ
 11
101525.0
 21
-33975.0
 31
0.0
100
AcDbText
 73
2
  0
ENDSEC
  0
SECTION
  2
OBJECTS
  0
DICTIONARY
  5
A
330
0
100
AcDbDictionary
281
1
  3
ACAD_COLOR
350
B
  3
ACAD_GROUP
350
C
  3
ACAD_LAYOUT
350
D
  3
ACAD_MATERIAL
350
E
  3
ACAD_MLEADERSTYLE
350
F
  3
ACAD_MLINESTYLE
350
10
  3
ACAD_PLOTSETTINGS
350
11
  3
ACAD_PLOTSTYLENAME
350
12
  3
ACAD_SCALELIST
350
14
  3
ACAD_TABLESTYLE
350
15
  3
ACAD_VISUALSTYLE
350
16
  3
EZDXF_META
350
2D
  0
DICTIONARY
  5
B
330
A
100
AcDbDictionary
281
1
  0
DICTIONARY
  5
C
330
A
100
AcDbDictionary
281
1
  0
DICTIONARY
  5
D
330
A
100
AcDbDictionary
281
1
  3
Model
350
1A
  3
Layout1
350
1E
  0
DICTIONARY
  5
E
330
A
100
AcDbDictionary
281
1
  3
ByBlock
350
1F
  3
ByLayer
350
20
  3
Global
350
21
  0
DICTIONARY
  5
F
330
A
100
AcDbDictionary
281
1
  3
Standard
350
2C
  0
DICTIONARY
  5
10
330
A
100
AcDbDictionary
281
1
  3
Standard
350
22
  0
DICTIONARY
  5
11
330
A
100
AcDbDictionary
281
1
  0
ACDBDICTIONARYWDFLT
  5
12
330
A
100
AcDbDictionary
281
1
  3
Normal
350
13
100
AcDbDictionaryWithDefault
340
13
  0
ACDBPLACEHOLDER
  5
13
330
12
  0
DICTIONARY
  5
14
330
A
100
AcDbDictionary
281
1
  0
DICTIONARY
  5
15
330
A
100
AcDbDictionary
281
1
  0
DICTIONARY
  5
16
330
A
100
AcDbDictionary
281
1
  3
2dWireframe
350
5A
  3
Basic
350
5B
  3
Brighten
350
5C
  3
ColorChange
350
5D
  3
Conceptual
350
5E
  3
Dim
350
5F
  3
EdgeColorOff
350
60
  3
Facepattern
350
61
  3
Flat
350
62
  3
FlatWithEdges
350
63
  3
Gouraud
350
64
  3
GouraudWithEdges
350
65
  3
Hidden
350
66
  3
JitterOff
350
67
  3
Linepattern
350
68
  3
Modeling
350
69
  3
OverhangOff
350
6A
  3
Realistic
350
6B
  3
Shaded
350
6C
  3
Shaded with edges
350
6D
  3
Shades of Gray
350
6E
  3
Sketchy
350
6F
  3
Thicken
350
70
  3
Wireframe
350
71
  3
X-Ray
350
72
  0
LAYOUT
  5
1A
330
D
100
AcDbPlotSettings
  1

  4
A3
  6

 40
7.5
 41
20.0
 42
7.5
 43
20.0
 44
420.0
 45
297.0
 46
0.0
 47
0.0
 48
0.0
 49
0.0
140
0.0
141
0.0
142
1.0
143
1.0
 70
1024
 72
1
 73
0
 74
5
  7

 75
16
 76
0
 77
2
 78
300
147
1.0
148
0.0
149
0.0
100
AcDbLayout
  1
Model
 70
1
 71
0
 10
0.0
 20
0.0
 11
420.0
 21
297.0
 12
0.0
 22
0.0
 32
0.0
 14
1e+20
 24
1e+20
 34
1e+20
 15
-1e+20
 25
-1e+20
 35
-1e+20
146
0.0
 13
0.0
 23
0.0
 33
0.0
 16
1.0
 26
0.0
 36
0.0
 17
0.0
 27
1.0
 37
0.0
 76
1
330
17
  0
LAYOUT
  5
1E
330
D
100
AcDbPlotSettings
  1

  4
A3
  6

 40
7.5
 41
20.0
 42
7.5
 43
20.0
 44
420.0
 45
297.0
 46
0.0
 47
0.0
 48
0.0
 49
0.0
140
0.0
141
0.0
142
1.0
143
1.0
 70
0
 72
1
 73
0
 74
5
  7

 75
16
 76
0
 77
2
 78
300
147
1.0
148
0.0
149
0.0
100
AcDbLayout
  1
Layout1
 70
1
 71
1
 10
0.0
 20
0.0
 11
420.0
 21
297.0
 12
0.0
 22
0.0
 32
0.0
 14
1e+20
 24
1e+20
 34
1e+20
 15
-1e+20
 25
-1e+20
 35
-1e+20
146
0.0
 13
0.0
 23
0.0
 33
0.0
 16
1.0
 26
0.0
 36
0.0
 17
0.0
 27
1.0
 37
0.0
 76
1
330
1B
  0
MATERIAL
  5
1F
102
{ACAD_REACTORS
330
E
102
}
330
E
100
AcDbMaterial
  1
ByBlock
  2

 70
0
 40
1.0
 71
1
 41
1.0
 91
-1023410177
 42
1.0
 72
1
  3

 73
1
 74
1
 75
1
 44
0.5
 73
0
 45
1.0
 46
1.0
 77
1
  4

 78
1
 79
1
170
1
 48
1.0
171
1
  6

172
1
173
1
174
1
140
1.0
141
1.0
175
1
  7

176
1
177
1
178
1
143
1.0
179
1
  8

270
1
271
1
272
1
145
1.0
146
1.0
273
1
  9

274
1
275
1
276
1
 42
1.0
 72
1
  3

 73
1
 74
1
 75
1
 94
63
  0
MATERIAL
  5
20
102
{ACAD_REACTORS
330
E
102
}
330
E
100
AcDbMaterial
  1
ByLayer
  2

 70
0
 40
1.0
 71
1
 41
1.0
 91
-1023410177
 42
1.0
 72
1
  3

 73
1
 74
1
 75
1
 44
0.5
 73
0
 45
1.0
 46
1.0
 77
1
  4

 78
1
 79
1
170
1
 48
1.0
171
1
  6

172
1
173
1
174
1
140
1.0
141
1.0
175
1
  7

176
1
177
1
178
1
143
1.0
179
1
  8

270
1
271
1
272
1
145
1.0
146
1.0
273
1
  9

274
1
275
1
276
1
 42
1.0
 72
1
  3

 73
1
 74
1
 75
1
 94
63
  0
MATERIAL
  5
21
102
{ACAD_REACTORS
330
E
102
}
330
E
100
AcDbMaterial
  1
Global
  2

 70
0
 40
1.0
 71
1
 41
1.0
 91
-1023410177
 42
1.0
 72
1
  3

 73
1
 74
1
 75
1
 44
0.5
 73
0
 45
1.0
 46
1.0
 77
1
  4

 78
1
 79
1
170
1
 48
1.0
171
1
  6

172
1
173
1
174
1
140
1.0
141
1.0
175
1
  7

176
1
177
1
178
1
143
1.0
179
1
  8

270
1
271
1
272
1
145
1.0
146
1.0
273
1
  9

274
1
275
1
276
1
 42
1.0
 72
1
  3

 73
1
 74
1
 75
1
 94
63
  0
MLINESTYLE
  5
22
102
{ACAD_REACTORS
330
10
102
}
330
10
100
AcDbMlineStyle
  2
Standard
 70
0
  3

 62
256
 51
90.0
 52
90.0
 71
2
 49
0.5
 62
256
  6
BYLAYER
 49
-0.5
 62
256
  6
BYLAYER
  0
MLEADERSTYLE
  5
2C
102
{ACAD_REACTORS
330
F
102
}
330
F
100
AcDbMLeaderStyle
179
2
170
2
171
1
172
0
 90
2
 40
0.0
 41
0.0
173
1
 91
-1056964608
 92
-2
290
1
 42
2.0
291
1
 43
8.0
  3
Standard
 44
4.0
300

342
29
174
1
175
1
176
0
178
1
 93
-1056964608
 45
4.0
292
0
297
0
 46
4.0
 94
-1056964608
 47
1.0
 49
1.0
140
1.0
294
1
141
0.0
177
0
142
1.0
295
0
296
0
143
3.75
271
0
272
9
273
9
  0
DICTIONARY
  5
2D
330
A
100
AcDbDictionary
280
1
281
1
  3
CREATED_BY_EZDXF
350
2E
  3
WRITTEN_BY_EZDXF
350
308
  0
DICTIONARYVAR
  5
2E
330
2D
100
DictionaryVariables
280
0
  1
1.4.4 @ 2026-09-23T12:28:56.979344+00:00
  0
VISUALSTYLE
  5
5A
102
{ACAD_REACTORS
330
16
102
}
330
16
100
AcDbVisualStyle
  2
2dWireframe
 70
4
177
3
291
0
 70
58
 90
2
176
1
 90
2
176
1
 90
0
176
1
 90
0
176
1
 40
0.6
176
1
 40
30.0
176
1
 62
7
420
16777215
176
1
 90
1
176
1
 90
4
176
1
 62
7
176
1
 62
257
176
1
 90
1
176
1
 90
1
176
1
 40
1.0
176
1
 90
8
176
1
 62
7
176
1
 40
1.0
176
1
 90
1
176
1
 90
6
176
1
 90
2
176
1
 62
7
176
1
 90
5
176
1
 90
0
176
1
 90
0
176
1
290
0
176
1
 90
1
176
1
 40
0.0
176
1
 90
0
176
1
290
1
176
1
290
1
176
1
290
0
176
1
290
0
176
1
290
0
176
1
290
0
176
1
290
0
176
1
290
0
176
1
290
0
176
1
 90
50
176
1
 40
0.0
176
1
 40
1.0
176
1
 90
0
176
1
 62
18
420
0
176
1
 90
50
176
1
 90
3
176
1
 62
5
420
255
176
1
290
0
176
1
 90
50
176
1
 90
50
176
1
 90
50
176
1
290
0
176
1
 90
50
176
1
 62
256
176
0
 40
1.0
176
0
 90
2
176
1
  1
strokes_ogs.tif
176
1
290
0
176
1
 40
1.0
176
1
 40
1.0
176
1
  0
VISUALSTYLE
  5
5B
102
{ACAD_REACTORS
330
16
102
}
330
16
100
AcDbVisualStyle
  2
Basic
 70
7
177
3
291
1
 70
58
 90
2
176
1
 90
2
176
1
 90
0
176
1
 90
1
176
1
 40
0.6
176
1
 40
30.0
176
1
 62
7
420
16777215
176
1
 90
1
176
1
 90
4
176
1
 62
7
176
1
 62
257
176
1
 90
1
176
1
 90
1
176
1
 40
1.0
176
1
 90
8
176
1
 62
7
176
1
 40
1.0
176
1
 90
1
176
1
 90
6
176
1
 90
2
176
1
 62
7
176
1
 90
5
176
1
 90
0
176
1
 90
0
176
1
290
0
176
1
 90
1
176
1
 40
0.0
176
1
 90
0
176
1
290
0
176
1
290
1
176
1
290
1
176
1
290
0
176
1
290
0
176
1
290
0
176
1
290
0
176
1
290
0
176
1
290
0
176
1
 90
50
176
1
 40
0.0
176
1
 40
1.0
176
1
 90
0
176
1
 62
18
420
0
176
1
 90
50
176
1
 90
3
176
1
 62
5
420
255
176
1
290
0
176
1
 90
50
176
1
 90
50
176
1
 90
50
176
1
290
0
176
1
 90
50
176
1
 62
256
176
0
 40
1.0
176
0
 90
2
176
1
  1
strokes_ogs.tif
176
1
290
0
176
1
 40
1.0
176
1
 40
1.0
176
1
  0
VISUALSTYLE
  5
5C
102
{ACAD_REACTORS
330
16
102
}
330
16
100
AcDbVisualStyle
  2
Brighten
 70
12
177
3
291
1
 70
58
 90
2
176
1
 90
2
176
1
 90
0
176
1
 90
2
176
1
 40
0.6
176
1
 40
30.0
176
1
 62
7
420
16777215
176
1
 90
1
176
1
 90
4
176
1
 62
7
176
1
 62
257
176
1
 90
1
176
1
 90
1
176
1
 40
1.0
176
1
 90
8
176
1
 62
7
176
1
 40
1.0
176
1
 90
1
176
1
 90
6
176
1
 90
2
176
1
 62
7
176
1
 90
5
176
1
 90
0
176
1
 90
0
176
1
290
0
176
1
 90
1
176
1
 40
0.0
176
1
 90
0
176
1
290
0
176
1
290
1
176
1
290
1
176
1
290
0
176
1
290
0
176
1
290
0
176
1
290
0
176
1
290
0
176
1
290
0
176
1
 90
50
176
1
 40
0.0
176
1
 40
1.0
176
1
 90
0
176
1
 62
18
420
0
176
1
 90
50
176
1
 90
3
176
1
 62
5
420
255
176
1
290
0
176
1
 90
50
176
1
 90
50
176
1
 90
50
176
1
290
0
176
1
 90
50
176
1
 62
256
176
0
 40
1.0
176
0
 90
2
176
1
  1
strokes_ogs.tif
176
1
290
0
176
1
 40
1.0
176
1
 40
1.0
176
1
  0
VISUALSTYLE
  5
5D
102
{ACAD_REACTORS
330
16
102
}
330
16
100
AcDbVisualStyle
  2
ColorChange
 70
16
177
3
291
1
 70
58
 90
2
176
1
 90
2
176
1
 90
0
176
1
 90
2
176
1
 40
0.6
176
1
 40
30.0
176
1
 62
7
420
16777215
176
1
 90
1
176
1
 90
4
176
1
 62
7
176
1
 62
257
176
1
 90
1
176
1
 90
1
176
1
 40
1.0
176
1
 90
8
176
1
 62
7
176
1
 40
1.0
176
1
 90
1
176
1
 90
6
176
1
 90
2
176
1
 62
7
176
1
 90
5
176
1
 90
0
176
1
 90
0
176
1
290
0
176
1
 90
1
176
1
 40
0.0
176
1
 90
0
176
1
290
0
176
1
290
1
176
1
290
1
176
1
290
0
176
1
290
0
176
1
290
0
176
1
290
0
176
1
290
0
176
1
290
0
176
1
 90
50
176
1
 40
0.0
176
1
 40
1.0
176
1
 90
0
176
1
 62
18
420
0
176
1
 90
50
176
1
 90
3
176
1
 62
5
420
255
176
1
290
0
176
1
 90
50
176
1
 90
50
176
1
 90
50
176
1
290
0
176
1
 90
50
176
1
 62
256
176
0
 40
1.0
176
0
 90
2
176
1
  1
strokes_ogs.tif
176
1
290
0
176
1
 40
1.0
176
1
 40
1.0
176
1
  0
VISUALSTYLE
  5
5E
102
{ACAD_REACTORS
330
16
102
}
330
16
100
AcDbVisualStyle
  2
Conceptual
 70
9
177
3
291
0
 70
58
 90
2
176
1
 90
2
176
1
 90
0
176
1
 90
3
176
1
 40
0.6
176
1
 40
30.0
176
1
 62
7
420
16777215
176
1
 90
1
176
1
 90
4
176
1
 62
7
176
1
 62
257
176
1
 90
1
176
1
 90
1
176
1
 40
1.0
176
1
 90
8
176
1
 62
7
176
1
 40
1.0
176
1
 90
1
176
1
 90
6
176
1
 90
2
176
1
 62
7
176
1
 90
5
176
1
 90
0
176
1
 90
0
176
1
290
0
176
1
 90
1
176
1
 40
0.0
176
1
 90
0
176
1
290
0
176
1
290
1
176
1
290
1
176
1
290
0
176
1
290
0
176
1
290
0
176
1
290
0
176
1
290
0
176
1
290
0
176
1
 90
50
176
1
 40
0.0
176
1
 40
1.0
176
1
 90
0
176
1
 62
18
420
0
176
1
 90
50
176
1
 90
3
176
1
 62
5
420
255
176
1
290
0
176
1
 90
50
176
1
 90
50
176
1
 90
50
176
1
290
0
176
1
 90
50
176
1
 62
256
176
0
 40
1.0
176
0
 90
2
176
1
  1
strokes_ogs.tif
176
1
290
0
176
1
 40
1.0
176
1
 40
1.0
176
1
  0
VISUALSTYLE
  5
5F
102
{ACAD_REACTORS
330
16
102
}
330
16
100
AcDbVisualStyle
  2
Dim
 70
11
177
3
291
1
 70
58
 90
2
176
1
 90
2
176
1
 90
0
176
1
 90
2
176
1
 40
0.6
176
1
 40
30.0
176
1
 62
7
420
16777215
176
1
 90
1
176
1
 90
4
176
1
 62
7
176
1
 62
257
176
1
 90
1
176
1
 90
1
176
1
 40
1.0
176
1
 90
8
176
1
 62
7
176
1
 40
1.0
176
1
 90
1
176
1
 90
6
176
1
 90
2
176
1
 62
7
176
1
 90
5
176
1
 90
0
176
1
 90
0
176
1
290
0
176
1
 90
1
176
1
 40
0.0
176
1
 90
0
176
1
290
0
176
1
290
1
176
1
290
1
176
1
290
0
176
1
290
0
176
1
290
0
176
1
290
0
176
1
290
0
176
1
290
0
176
1
 90
50
176
1
 40
0.0
176
1
 40
1.0
176
1
 90
0
176
1
 62
18
420
0
176
1
 90
50
176
1
 90
3
176
1
 62
5
420
255
176
1
290
0
176
1
 90
50
176
1
 90
50
176
1
 90
50
176
1
290
0
176
1
 90
50
176
1
 62
256
176
0
 40
1.0
176
0
 90
2
176
1
  1
strokes_ogs.tif
176
1
290
0
176
1
 40
1.0
176
1
 40
1.0
176
1
  0
VISUALSTYLE
  5
60
102
{ACAD_REACTORS
330
16
102
}
330
16
100
AcDbVisualStyle
  2
EdgeColorOff
 70
22
177
3
291
1
 70
58
 90
2
176
1
 90
2
176
1
 90
0
176
1
 90
2
176
1
 40
0.6
176
1
 40
30.0
176
1
 62
7
420
16777215
176
1
 90
1
176
1
 90
4
176
1
 62
7
176
1
 62
257
176
1
 90
1
176
1
 90
1
176
1
 40
1.0
176
1
 90
8
176
1
 62
7
176
1
 40
1.0
176
1
 90
1
176
1
 90
6
176
1
 90
2
176
1
 62
7
176
1
 90
5
176
1
 90
0
176
1
 90
0
176
1
290
0
176
1
 90
1
176
1
 40
0.0
176
1
 90
0
176
1
290
0
176
1
290
1
176
1
290
1
176
1
290
0
176
1
290
0
176
1
290
0
176
1
290
0
176
1
290
0
176
1
290
0
176
1
 90
50
176
1
 40
0.0
176
1
 40
1.0
176
1
 90
0
176
1
 62
18
420
0
176
1
 90
50
176
1
 90
3
176
1
 62
5
420
255
176
1
290
0
176
1
 90
50
176
1
 90
50
176
1
 90
50
176
1
290
0
176
1
 90
50
176
1
 62
256
176
0
 40
1.0
176
0
 90
2
176
1
  1
strokes_ogs.tif
176
1
290
0
176
1
 40
1.0
176
1
 40
1.0
176
1
  0
VISUALSTYLE
  5
61
102
{ACAD_REACTORS
330
16
102
}
330
16
100
AcDbVisualStyle
  2
Facepattern
 70
15
177
3
291
1
 70
58
 90
2
176
1
 90
2
176
1
 90
0
176
1
 90
2
176
1
 40
0.6
176
1
 40
30.0
176
1
 62
7
420
16777215
176
1
 90
1
176
1
 90
4
176
1
 62
7
176
1
 62
257
176
1
 90
1
176
1
 90
1
176
1
 40
1.0
176
1
 90
8
176
1
 62
7
176
1
 40
1.0
176
1
 90
1
176
1
 90
6
176
1
 90
2
176
1
 62
7
176
1
 90
5
176
1
 90
0
176
1
 90
0
176
1
290
0
176
1
 90
1
176
1
 40
0.0
176
1
 90
0
176
1
290
0
176
1
290
1
176
1
290
1
176
1
290
0
176
1
290
0
176
1
290
0
176
1
290
0
176
1
290
0
176
1
290
0
176
1
 90
50
176
1
 40
0.0
176
1
 40
1.0
176
1
 90
0
176
1
 62
18
420
0
176
1
 90
50
176
1
 90
3
176
1
 62
5
420
255
176
1
290
0
176
1
 90
50
176
1
 90
50
176
1
 90
50
176
1
290
0
176
1
 90
50
176
1
 62
256
176
0
 40
1.0
176
0
 90
2
176
1
  1
strokes_ogs.tif
176
1
290
0
176
1
 40
1.0
176
1
 40
1.0
176
1
  0
VISUALSTYLE
  5
62
102
{ACAD_REACTORS
330
16
102
}
330
16
100
AcDbVisualStyle
  2
Flat
 70
0
177
3
291
1
 70
58
 90
2
176
1
 90
2
176
1
 90
0
176
1
 90
2
176
1
 40
0.6
176
1
 40
30.0
176
1
 62
7
420
16777215
176
1
 90
1
176
1
 90
4
176
1
 62
7
176
1
 62
257
176
1
 90
1
176
1
 90
1
176
1
 40
1.0
176
1
 90
8
176
1
 62
7
176
1
 40
1.0
176
1
 90
1
176
1
 90
6
176
1
 90
2
176
1
 62
7
176
1
 90
5
176
1
 90
0
176
1
 90
0
176
1
290
0
176
1
 90
1
176
1
 40
0.0
176
1
 90
0
176
1
290
0
176
1
290
1
176
1
290
1
176
1
290
0
176
1
290
0
176
1
290
0
176
1
290
0
176
1
290
0
176
1
290
0
176
1
 90
50
176
1
 40
0.0
176
1
 40
1.0
176
1
 90
0
176
1
 62
18
420
0
176
1
 90
50
176
1
 90
3
176
1
 62
5
420
255
176
1
290
0
176
1
 90
50
176
1
 90
50
176
1
 90
50
176
1
290
0
176
1
 90
50
176
1
 62
256
176
0
 40
1.0
176
0
 90
2
176
1
  1
strokes_ogs.tif
176
1
290
0
176
1
 40
1.0
176
1
 40
1.0
176
1
  0
VISUALSTYLE
  5
63
102
{ACAD_REACTORS
330
16
102
}
330
16
100
AcDbVisualStyle
  2
FlatWithEdges
 70
1
177
3
291
1
 70
58
 90
2
176
1
 90
2
176
1
 90
0
176
1
 90
2
176
1
 40
0.6
176
1
 40
30.0
176
1
 62
7
420
16777215
176
1
 90
1
176
1
 90
4
176
1
 62
7
176
1
 62
257
176
1
 90
1
176
1
 90
1
176
1
 40
1.0
176
1
 90
8
176
1
 62
7
176
1
 40
1.0
176
1
 90
1
176
1
 90
6
176
1
 90
2
176
1
 62
7
176
1
 90
5
176
1
 90
0
176
1
 90
0
176
1
290
0
176
1
 90
1
176
1
 40
0.0
176
1
 90
0
176
1
290
0
176
1
290
1
176
1
290
1
176
1
290
0
176
1
290
0
176
1
290
0
176
1
290
0
176
1
290
0
176
1
290
0
176
1
 90
50
176
1
 40
0.0
176
1
 40
1.0
176
1
 90
0
176
1
 62
18
420
0
176
1
 90
50
176
1
 90
3
176
1
 62
5
420
255
176
1
290
0
176
1
 90
50
176
1
 90
50
176
1
 90
50
176
1
290
0
176
1
 90
50
176
1
 62
256
176
0
 40
1.0
176
0
 90
2
176
1
  1
strokes_ogs.tif
176
1
290
0
176
1
 40
1.0
176
1
 40
1.0
176
1
  0
VISUALSTYLE
  5
64
102
{ACAD_REACTORS
330
16
102
}
330
16
100
AcDbVisualStyle
  2
Gouraud
 70
2
177
3
291
1
 70
58
 90
2
176
1
 90
2
176
1
 90
0
176
1
 90
2
176
1
 40
0.6
176
1
 40
30.0
176
1
 62
7
420
16777215
176
1
 90
1
176
1
 90
4
176
1
 62
7
176
1
 62
257
176
1
 90
1
176
1
 90
1
176
1
 40
1.0
176
1
 90
8
176
1
 62
7
176
1
 40
1.0
176
1
 90
1
176
1
 90
6
176
1
 90
2
176
1
 62
7
176
1
 90
5
176
1
 90
0
176
1
 90
0
176
1
290
0
176
1
 90
1
176
1
 40
0.0
176
1
 90
0
176
1
290
0
176
1
290
1
176
1
290
1
176
1
290
0
176
1
290
0
176
1
290
0
176
1
290
0
176
1
290
0
176
1
290
0
176
1
 90
50
176
1
 40
0.0
176
1
 40
1.0
176
1
 90
0
176
1
 62
18
420
0
176
1
 90
50
176
1
 90
3
176
1
 62
5
420
255
176
1
290
0
176
1
 90
50
176
1
 90
50
176
1
 90
50
176
1
290
0
176
1
 90
50
176
1
 62
256
176
0
 40
1.0
176
0
 90
2
176
1
  1
strokes_ogs.tif
176
1
290
0
176
1
 40
1.0
176
1
 40
1.0
176
1
  0
VISUALSTYLE
  5
65
102
{ACAD_REACTORS
330
16
102
}
330
16
100
AcDbVisualStyle
  2
GouraudWithEdges
 70
3
177
3
291
1
 70
58
 90
2
176
1
 90
2
176
1
 90
0
176
1
 90
2
176
1
 40
0.6
176
1
 40
30.0
176
1
 62
7
420
16777215
176
1
 90
1
176
1
 90
4
176
1
 62
7
176
1
 62
257
176
1
 90
1
176
1
 90
1
176
1
 40
1.0
176
1
 90
8
176
1
 62
7
176
1
 40
1.0
176
1
 90
1
176
1
 90
6
176
1
 90
2
176
1
 62
7
176
1
 90
5
176
1
 90
0
176
1
 90
0
176
1
290
0
176
1
 90
1
176
1
 40
0.0
176
1
 90
0
176
1
290
0
176
1
290
1
176
1
290
1
176
1
290
0
176
1
290
0
176
1
290
0
176
1
290
0
176
1
290
0
176
1
290
0
176
1
 90
50
176
1
 40
0.0
176
1
 40
1.0
176
1
 90
0
176
1
 62
18
420
0
176
1
 90
50
176
1
 90
3
176
1
 62
5
420
255
176
1
290
0
176
1
 90
50
176
1
 90
50
176
1
 90
50
176
1
290
0
176
1
 90
50
176
1
 62
256
176
0
 40
1.0
176
0
 90
2
176
1
  1
strokes_ogs.tif
176
1
290
0
176
1
 40
1.0
176
1
 40
1.0
176
1
  0
VISUALSTYLE
  5
66
102
{ACAD_REACTORS
330
16
102
}
330
16
100
AcDbVisualStyle
  2
Hidden
 70
6
177
3
291
0
 70
58
 90
2
176
1
 90
2
176
1
 90
0
176
1
 90
1
176
1
 40
0.6
176
1
 40
30.0
176
1
 62
7
420
16777215
176
1
 90
1
176
1
 90
4
176
1
 62
7
176
1
 62
257
176
1
 90
1
176
1
 90
1
176
1
 40
1.0
176
1
 90
8
176
1
 62
7
176
1
 40
1.0
176
1
 90
1
176
1
 90
6
176
1
 90
2
176
1
 62
7
176
1
 90
5
176
1
 90
0
176
1
 90
0
176
1
290
0
176
1
 90
1
176
1
 40
0.0
176
1
 90
0
176
1
290
0
176
1
290
1
176
1
290
1
176
1
290
0
176
1
290
0
176
1
290
0
176
1
290
0
176
1
290
0
176
1
290
0
176
1
 90
50
176
1
 40
0.0
176
1
 40
1.0
176
1
 90
0
176
1
 62
18
420
0
176
1
 90
50
176
1
 90
3
176
1
 62
5
420
255
176
1
290
0
176
1
 90
50
176
1
 90
50
176
1
 90
50
176
1
290
0
176
1
 90
50
176
1
 62
256
176
0
 40
1.0
176
0
 90
2
176
1
  1
strokes_ogs.tif
176
1
290
0
176
1
 40
1.0
176
1
 40
1.0
176
1
  0
VISUALSTYLE
  5
67
102
{ACAD_REACTORS
330
16
102
}
330
16
100
AcDbVisualStyle
  2
JitterOff
 70
20
177
3
291
1
 70
58
 90
2
176
1
 90
2
176
1
 90
0
176
1
 90
2
176
1
 40
0.6
176
1
 40
30.0
176
1
 62
7
420
16777215
176
1
 90
1
176
1
 90
4
176
1
 62
7
176
1
 62
257
176
1
 90
1
176
1
 90
1
176
1
 40
1.0
176
1
 90
8
176
1
 62
7
176
1
 40
1.0
176
1
 90
1
176
1
 90
6
176
1
 90
2
176
1
 62
7
176
1
 90
5
176
1
 90
0
176
1
 90
0
176
1
290
0
176
1
 90
1
176
1
 40
0.0
176
1
 90
0
176
1
290
0
176
1
290
1
176
1
290
1
176
1
290
0
176
1
290
0
176
1
290
0
176
1
290
0
176
1
290
0
176
1
290
0
176
1
 90
50
176
1
 40
0.0
176
1
 40
1.0
176
1
 90
0
176
1
 62
18
420
0
176
1
 90
50
176
1
 90
3
176
1
 62
5
420
255
176
1
290
0
176
1
 90
50
176
1
 90
50
176
1
 90
50
176
1
290
0
176
1
 90
50
176
1
 62
256
176
0
 40
1.0
176
0
 90
2
176
1
  1
strokes_ogs.tif
176
1
290
0
176
1
 40
1.0
176
1
 40
1.0
176
1
  0
VISUALSTYLE
  5
68
102
{ACAD_REACTORS
330
16
102
}
330
16
100
AcDbVisualStyle
  2
Linepattern
 70
14
177
3
291
1
 70
58
 90
2
176
1
 90
2
176
1
 90
0
176
1
 90
2
176
1
 40
0.6
176
1
 40
30.0
176
1
 62
7
420
16777215
176
1
 90
1
176
1
 90
4
176
1
 62
7
176
1
 62
257
176
1
 90
1
176
1
 90
1
176
1
 40
1.0
176
1
 90
8
176
1
 62
7
176
1
 40
1.0
176
1
 90
1
176
1
 90
6
176
1
 90
2
176
1
 62
7
176
1
 90
5
176
1
 90
0
176
1
 90
0
176
1
290
0
176
1
 90
1
176
1
 40
0.0
176
1
 90
0
176
1
290
0
176
1
290
1
176
1
290
1
176
1
290
0
176
1
290
0
176
1
290
0
176
1
290
0
176
1
290
0
176
1
290
0
176
1
 90
50
176
1
 40
0.0
176
1
 40
1.0
176
1
 90
0
176
1
 62
18
420
0
176
1
 90
50
176
1
 90
3
176
1
 62
5
420
255
176
1
290
0
176
1
 90
50
176
1
 90
50
176
1
 90
50
176
1
290
0
176
1
 90
50
176
1
 62
256
176
0
 40
1.0
176
0
 90
2
176
1
  1
strokes_ogs.tif
176
1
290
0
176
1
 40
1.0
176
1
 40
1.0
176
1
  0
VISUALSTYLE
  5
69
102
{ACAD_REACTORS
330
16
102
}
330
16
100
AcDbVisualStyle
  2
Modeling
 70
10
177
3
291
0
 70
58
 90
2
176
1
 90
2
176
1
 90
0
176
1
 90
2
176
1
 40
0.6
176
1
 40
30.0
176
1
 62
7
420
16777215
176
1
 90
1
176
1
 90
4
176
1
 62
7
176
1
 62
257
176
1
 90
1
176
1
 90
1
176
1
 40
1.0
176
1
 90
8
176
1
 62
7
176
1
 40
1.0
176
1
 90
1
176
1
 90
6
176
1
 90
2
176
1
 62
7
176
1
 90
5
176
1
 90
0
176
1
 90
0
176
1
290
0
176
1
 90
1
176
1
 40
0.0
176
1
 90
0
176
1
290
0
176
1
290
1
176
1
290
1
176
1
290
0
176
1
290
0
176
1
290
0
176
1
290
0
176
1
290
0
176
1
290
0
176
1
 90
50
176
1
 40
0.0
176
1
 40
1.0
176
1
 90
0
176
1
 62
18
420
0
176
1
 90
50
176
1
 90
3
176
1
 62
5
420
255
176
1
290
0
176
1
 90
50
176
1
 90
50
176
1
 90
50
176
1
290
0
176
1
 90
50
176
1
 62
256
176
0
 40
1.0
176
0
 90
2
176
1
  1
strokes_ogs.tif
176
1
290
0
176
1
 40
1.0
176
1
 40
1.0
176
1
  0
VISUALSTYLE
  5
6A
102
{ACAD_REACTORS
330
16
102
}
330
16
100
AcDbVisualStyle
  2
OverhangOff
 70
21
177
3
291
1
 70
58
 90
2
176
1
 90
2
176
1
 90
0
176
1
 90
2
176
1
 40
0.6
176
1
 40
30.0
176
1
 62
7
420
16777215
176
1
 90
1
176
1
 90
4
176
1
 62
7
176
1
 62
257
176
1
 90
1
176
1
 90
1
176
1
 40
1.0
176
1
 90
8
176
1
 62
7
176
1
 40
1.0
176
1
 90
1
176
1
 90
6
176
1
 90
2
176
1
 62
7
176
1
 90
5
176
1
 90
0
176
1
 90
0
176
1
290
0
176
1
 90
1
176
1
 40
0.0
176
1
 90
0
176
1
290
0
176
1
290
1
176
1
290
1
176
1
290
0
176
1
290
0
176
1
290
0
176
1
290
0
176
1
290
0
176
1
290
0
176
1
 90
50
176
1
 40
0.0
176
1
 40
1.0
176
1
 90
0
176
1
 62
18
420
0
176
1
 90
50
176
1
 90
3
176
1
 62
5
420
255
176
1
290
0
176
1
 90
50
176
1
 90
50
176
1
 90
50
176
1
290
0
176
1
 90
50
176
1
 62
256
176
0
 40
1.0
176
0
 90
2
176
1
  1
strokes_ogs.tif
176
1
290
0
176
1
 40
1.0
176
1
 40
1.0
176
1
  0
VISUALSTYLE
  5
6B
102
{ACAD_REACTORS
330
16
102
}
330
16
100
AcDbVisualStyle
  2
Realistic
 70
8
177
3
291
0
 70
58
 90
2
176
1
 90
2
176
1
 90
0
176
1
 90
2
176
1
 40
0.6
176
1
 40
30.0
176
1
 62
7
420
16777215
176
1
 90
1
176
1
 90
4
176
1
 62
7
176
1
 62
257
176
1
 90
1
176
1
 90
1
176
1
 40
1.0
176
1
 90
8
176
1
 62
7
176
1
 40
1.0
176
1
 90
1
176
1
 90
6
176
1
 90
2
176
1
 62
7
176
1
 90
5
176
1
 90
0
176
1
 90
0
176
1
290
0
176
1
 90
1
176
1
 40
0.0
176
1
 90
0
176
1
290
0
176
1
290
1
176
1
290
1
176
1
290
0
176
1
290
0
176
1
290
0
176
1
290
0
176
1
290
0
176
1
290
0
176
1
 90
50
176
1
 40
0.0
176
1
 40
1.0
176
1
 90
0
176
1
 62
18
420
0
176
1
 90
50
176
1
 90
3
176
1
 62
5
420
255
176
1
290
0
176
1
 90
50
176
1
 90
50
176
1
 90
50
176
1
290
0
176
1
 90
50
176
1
 62
256
176
0
 40
1.0
176
0
 90
2
176
1
  1
strokes_ogs.tif
176
1
290
0
176
1
 40
1.0
176
1
 40
1.0
176
1
  0
VISUALSTYLE
  5
6C
102
{ACAD_REACTORS
330
16
102
}
330
16
100
AcDbVisualStyle
  2
Shaded
 70
27
177
3
291
0
 70
58
 90
2
176
1
 90
2
176
1
 90
0
176
1
 90
2
176
1
 40
0.6
176
1
 40
30.0
176
1
 62
7
420
16777215
176
1
 90
1
176
1
 90
4
176
1
 62
7
176
1
 62
257
176
1
 90
1
176
1
 90
1
176
1
 40
1.0
176
1
 90
8
176
1
 62
7
176
1
 40
1.0
176
1
 90
1
176
1
 90
6
176
1
 90
2
176
1
 62
7
176
1
 90
5
176
1
 90
0
176
1
 90
0
176
1
290
0
176
1
 90
1
176
1
 40
0.0
176
1
 90
0
176
1
290
0
176
1
290
1
176
1
290
1
176
1
290
0
176
1
290
0
176
1
290
0
176
1
290
0
176
1
290
0
176
1
290
0
176
1
 90
50
176
1
 40
0.0
176
1
 40
1.0
176
1
 90
0
176
1
 62
18
420
0
176
1
 90
50
176
1
 90
3
176
1
 62
5
420
255
176
1
290
0
176
1
 90
50
176
1
 90
50
176
1
 90
50
176
1
290
0
176
1
 90
50
176
1
 62
256
176
0
 40
1.0
176
0
 90
2
176
1
  1
strokes_ogs.tif
176
1
290
0
176
1
 40
1.0
176
1
 40
1.0
176
1
  0
VISUALSTYLE
  5
6D
102
{ACAD_REACTORS
330
16
102
}
330
16
100
AcDbVisualStyle
  2
Shaded with edges
 70
26
177
3
291
0
 70
58
 90
2
176
1
 90
2
176
1
 90
0
176
1
 90
2
176
1
 40
0.6
176
1
 40
30.0
176
1
 62
7
420
16777215
176
1
 90
1
176
1
 90
4
176
1
 62
7
176
1
 62
257
176
1
 90
1
176
1
 90
1
176
1
 40
1.0
176
1
 90
8
176
1
 62
7
176
1
 40
1.0
176
1
 90
1
176
1
 90
6
176
1
 90
2
176
1
 62
7
176
1
 90
5
176
1
 90
0
176
1
 90
0
176
1
290
0
176
1
 90
1
176
1
 40
0.0
176
1
 90
0
176
1
290
0
176
1
290
1
176
1
290
1
176
1
290
0
176
1
290
0
176
1
290
0
176
1
290
0
176
1
290
0
176
1
290
0
176
1
 90
50
176
1
 40
0.0
176
1
 40
1.0
176
1
 90
0
176
1
 62
18
420
0
176
1
 90
50
176
1
 90
3
176
1
 62
5
420
255
176
1
290
0
176
1
 90
50
176
1
 90
50
176
1
 90
50
176
1
290
0
176
1
 90
50
176
1
 62
256
176
0
 40
1.0
176
0
 90
2
176
1
  1
strokes_ogs.tif
176
1
290
0
176
1
 40
1.0
176
1
 40
1.0
176
1
  0
VISUALSTYLE
  5
6E
102
{ACAD_REACTORS
330
16
102
}
330
16
100
AcDbVisualStyle
  2
Shades of Gray
 70
23
177
3
291
0
 70
58
 90
2
176
1
 90
2
176
1
 90
0
176
1
 90
2
176
1
 40
0.6
176
1
 40
30.0
176
1
 62
7
420
16777215
176
1
 90
1
176
1
 90
4
176
1
 62
7
176
1
 62
257
176
1
 90
1
176
1
 90
1
176
1
 40
1.0
176
1
 90
8
176
1
 62
7
176
1
 40
1.0
176
1
 90
1
176
1
 90
6
176
1
 90
2
176
1
 62
7
176
1
 90
5
176
1
 90
0
176
1
 90
0
176
1
290
0
176
1
 90
1
176
1
 40
0.0
176
1
 90
0
176
1
290
0
176
1
290
1
176
1
290
1
176
1
290
0
176
1
290
0
176
1
290
0
176
1
290
0
176
1
290
0
176
1
290
0
176
1
 90
50
176
1
 40
0.0
176
1
 40
1.0
176
1
 90
0
176
1
 62
18
420
0
176
1
 90
50
176
1
 90
3
176
1
 62
5
420
255
176
1
290
0
176
1
 90
50
176
1
 90
50
176
1
 90
50
176
1
290
0
176
1
 90
50
176
1
 62
256
176
0
 40
1.0
176
0
 90
2
176
1
  1
strokes_ogs.tif
176
1
290
0
176
1
 40
1.0
176
1
 40
1.0
176
1
  0
VISUALSTYLE
  5
6F
102
{ACAD_REACTORS
330
16
102
}
330
16
100
AcDbVisualStyle
  2
Sketchy
 70
24
177
3
291
0
 70
58
 90
2
176
1
 90
2
176
1
 90
0
176
1
 90
1
176
1
 40
0.6
176
1
 40
30.0
176
1
 62
7
420
16777215
176
1
 90
1
176
1
 90
4
176
1
 62
7
176
1
 62
257
176
1
 90
1
176
1
 90
1
176
1
 40
1.0
176
1
 90
8
176
1
 62
7
176
1
 40
1.0
176
1
 90
1
176
1
 90
6
176
1
 90
2
176
1
 62
7
176
1
 90
5
176
1
 90
0
176
1
 90
0
176
1
290
0
176
1
 90
1
176
1
 40
0.0
176
1
 90
0
176
1
290
0
176
1
290
1
176
1
290
1
176
1
290
0
176
1
290
0
176
1
290
0
176
1
290
0
176
1
290
0
176
1
290
0
176
1
 90
50
176
1
 40
0.0
176
1
 40
1.0
176
1
 90
0
176
1
 62
18
420
0
176
1
 90
50
176
1
 90
3
176
1
 62
5
420
255
176
1
290
0
176
1
 90
50
176
1
 90
50
176
1
 90
50
176
1
290
0
176
1
 90
50
176
1
 62
256
176
0
 40
1.0
176
0
 90
2
176
1
  1
strokes_ogs.tif
176
1
290
0
176
1
 40
1.0
176
1
 40
1.0
176
1
  0
VISUALSTYLE
  5
70
102
{ACAD_REACTORS
330
16
102
}
330
16
100
AcDbVisualStyle
  2
Thicken
 70
13
177
3
291
1
 70
58
 90
2
176
1
 90
2
176
1
 90
0
176
1
 90
2
176
1
 40
0.6
176
1
 40
30.0
176
1
 62
7
420
16777215
176
1
 90
1
176
1
 90
4
176
1
 62
7
176
1
 62
257
176
1
 90
1
176
1
 90
1
176
1
 40
1.0
176
1
 90
8
176
1
 62
7
176
1
 40
1.0
176
1
 90
1
176
1
 90
6
176
1
 90
2
176
1
 62
7
176
1
 90
5
176
1
 90
0
176
1
 90
0
176
1
290
0
176
1
 90
1
176
1
 40
0.0
176
1
 90
0
176
1
290
0
176
1
290
1
176
1
290
1
176
1
290
0
176
1
290
0
176
1
290
0
176
1
290
0
176
1
290
0
176
1
290
0
176
1
 90
50
176
1
 40
0.0
176
1
 40
1.0
176
1
 90
0
176
1
 62
18
420
0
176
1
 90
50
176
1
 90
3
176
1
 62
5
420
255
176
1
290
0
176
1
 90
50
176
1
 90
50
176
1
 90
50
176
1
290
0
176
1
 90
50
176
1
 62
256
176
0
 40
1.0
176
0
 90
2
176
1
  1
strokes_ogs.tif
176
1
290
0
176
1
 40
1.0
176
1
 40
1.0
176
1
  0
VISUALSTYLE
  5
71
102
{ACAD_REACTORS
330
16
102
}
330
16
100
AcDbVisualStyle
  2
Wireframe
 70
5
177
3
291
0
 70
58
 90
2
176
1
 90
2
176
1
 90
0
176
1
 90
0
176
1
 40
0.6
176
1
 40
30.0
176
1
 62
7
420
16777215
176
1
 90
1
176
1
 90
4
176
1
 62
7
176
1
 62
257
176
1
 90
1
176
1
 90
1
176
1
 40
1.0
176
1
 90
8
176
1
 62
7
176
1
 40
1.0
176
1
 90
1
176
1
 90
6
176
1
 90
2
176
1
 62
7
176
1
 90
5
176
1
 90
0
176
1
 90
0
176
1
290
0
176
1
 90
1
176
1
 40
0.0
176
1
 90
0
176
1
290
0
176
1
290
1
176
1
290
1
176
1
290
0
176
1
290
0
176
1
290
0
176
1
290
0
176
1
290
0
176
1
290
0
176
1
 90
50
176
1
 40
0.0
176
1
 40
1.0
176
1
 90
0
176
1
 62
18
420
0
176
1
 90
50
176
1
 90
3
176
1
 62
5
420
255
176
1
290
0
176
1
 90
50
176
1
 90
50
176
1
 90
50
176
1
290
0
176
1
 90
50
176
1
 62
256
176
0
 40
1.0
176
0
 90
2
176
1
  1
strokes_ogs.tif
176
1
290
0
176
1
 40
1.0
176
1
 40
1.0
176
1
  0
VISUALSTYLE
  5
72
102
{ACAD_REACTORS
330
16
102
}
330
16
100
AcDbVisualStyle
  2
X-Ray
 70
25
177
3
291
0
 70
58
 90
2
176
1
 90
2
176
1
 90
0
176
1
 90
2
176
1
 40
0.5
176
1
 40
30.0
176
1
 62
7
420
16777215
176
1
 90
1
176
1
 90
4
176
1
 62
7
176
1
 62
257
176
1
 90
1
176
1
 90
1
176
1
 40
1.0
176
1
 90
8
176
1
 62
7
176
1
 40
1.0
176
1
 90
1
176
1
 90
6
176
1
 90
2
176
1
 62
7
176
1
 90
5
176
1
 90
0
176
1
 90
0
176
1
290
0
176
1
 90
1
176
1
 40
0.0
176
1
 90
0
176
1
290
0
176
1
290
1
176
1
290
1
176
1
290
0
176
1
290
0
176
1
290
0
176
1
290
0
176
1
290
0
176
1
290
0
176
1
 90
50
176
1
 40
0.0
176
1
 40
1.0
176
1
 90
0
176
1
 62
18
420
0
176
1
 90
50
176
1
 90
3
176
1
 62
5
420
255
176
1
290
0
176
1
 90
50
176
1
 90
50
176
1
 90
50
176
1
290
0
176
1
 90
50
176
1
 62
256
176
0
 40
1.0
176
0
 90
2
176
1
  1
strokes_ogs.tif
176
1
290
0
176
1
 40
1.0
176
1
 40
1.0
176
1
  0
DICTIONARYVAR
  5
308
330
2D
100
DictionaryVariables
280
0
  1
1.4.4 @ 2026-09-23T12:29:04.519453+00:00
  0
ENDSEC
  0
EOF
